<?xml version="1.0" encoding="UTF-8"?>
<!DOCTYPE score-partwise PUBLIC "-//Recordare//DTD MusicXML 2.0 Partwise//EN" "http://www.musicxml.org/dtds/partwise.dtd">
<score-partwise version="2.0">
    <work>
        <work-number></work-number>
        <work-title></work-title>
    </work>
    <movement-number></movement-number>
    <movement-title>Old Spinning Wheel</movement-title>
    <identification>
        <creator type="composer">Billy Hill</creator>
        <creator type="poet">Billy Hill</creator>
        <rights>All Rights Reserved</rights>
        <encoding>
            <software>Harmony Assistant v9.6.0d (c) Myriad - http://www.myriad-online.com</software>
            <software>ProxyMusic 2.0 c</software>
        </encoding>
        <source>http://wikifonia.org/node/10228/revisions/13926/view</source>
    </identification>
    <defaults>
        <scaling>
            <millimeters>8.466666</millimeters>
            <tenths>40</tenths>
        </scaling>
        <page-layout>
            <page-height>1401.667</page-height>
            <page-width>988.333</page-width>
            <page-margins type="both">
                <left-margin>13.333</left-margin>
                <right-margin>15.000</right-margin>
                <top-margin>0.000</top-margin>
                <bottom-margin>15.000</bottom-margin>
            </page-margins>
        </page-layout>
    </defaults>
    <credit>
        <credit-words font-weight="normal" font-style="normal" font-size="36" font-family="Humanst521 Cn BT Bold" default-y="1370.000" default-x="183.333" justify="left" valign="top">OLD SPINNING WHEEL</credit-words>
    </credit>
    <credit>
        <credit-words font-weight="normal" font-style="normal" font-size="12" font-family="Humanst521 Cn BT Bold" default-y="1296.667" default-x="318.333" justify="left" valign="top">Words and music by Billy Hill in 1933.



</credit-words>
    </credit>
    <part-list>
        <score-part id="P1">
            <part-name font-weight="normal" font-style="normal" font-size="10" font-family="Arial"></part-name>
            <part-abbreviation font-weight="normal" font-style="normal" font-size="10" font-family="Arial"></part-abbreviation>
            <score-instrument id="P1-I1">
                <instrument-name>Piano</instrument-name>
            </score-instrument>
            <midi-instrument id="P1-I1">
                <midi-channel>0</midi-channel>
                <midi-bank>1</midi-bank>
                <midi-program>1</midi-program>
            </midi-instrument>
        </score-part>
    </part-list>
    <part id="P1">
        <measure width="184" number="1">
            <print>
                <system-layout>
                    <system-margins>
                        <left-margin>23.333</left-margin>
                        <right-margin>23.333</right-margin>
                    </system-margins>
                    <top-system-distance>198.333</top-system-distance>
                </system-layout>
            </print>
            <attributes>
                <divisions>6720</divisions>
                <time>
                    <beats>4</beats>
                    <beat-type>4</beat-type>
                </time>
                <clef number="1">
                    <sign>G</sign>
                    <line>2</line>
                </clef>
                <staff-details print-object="yes" number="1">
                    <staff-lines>5</staff-lines>
                    <staff-size>125.00</staff-size>
                </staff-details>
            </attributes>
            <note>
                <pitch>
                    <step>E</step>
                    <octave>4</octave>
                </pitch>
                <duration>6720</duration>
                <voice>1</voice>
                <type>quarter</type>
                <stem default-y="-5.00">up</stem>
                <lyric justify="center" default-y="-48.00" number="1">
                    <syllabic>single</syllabic>
                    <text font-weight="normal" font-style="normal" font-size="12" font-family="Comic Sans MS">There's</text>
                    <extend/>
                </lyric>
            </note>
            <note>
                <pitch>
                    <step>F</step>
                    <octave>4</octave>
                </pitch>
                <duration>6720</duration>
                <voice>1</voice>
                <type>quarter</type>
                <stem default-y="0.00">up</stem>
                <lyric justify="center" default-y="-48.00" number="1">
                    <syllabic>single</syllabic>
                    <text font-weight="normal" font-style="normal" font-size="12" font-family="Comic Sans MS">an</text>
                    <extend/>
                </lyric>
            </note>
            <barline location="right">
                <bar-style>light-light</bar-style>
            </barline>
        </measure>
        <measure width="173" number="2">
            <note>
                <pitch>
                    <step>G</step>
                    <octave>4</octave>
                </pitch>
                <duration>13440</duration>
                <voice>1</voice>
                <type>half</type>
                <stem default-y="5.00">up</stem>
                <lyric justify="center" default-y="-48.00" number="1">
                    <syllabic>single</syllabic>
                    <text font-weight="normal" font-style="normal" font-size="12" font-family="Comic Sans MS">old</text>
                    <extend/>
                </lyric>
            </note>
            <note>
                <pitch>
                    <step>E</step>
                    <octave>5</octave>
                </pitch>
                <duration>6720</duration>
                <voice>1</voice>
                <type>quarter</type>
                <stem default-y="-40.00">down</stem>
                <lyric justify="center" default-y="-48.00" number="1">
                    <syllabic>begin</syllabic>
                    <text font-weight="normal" font-style="normal" font-size="12" font-family="Comic Sans MS">spin</text>
                </lyric>
            </note>
            <note>
                <pitch>
                    <step>C</step>
                    <octave>5</octave>
                </pitch>
                <duration>6720</duration>
                <voice>1</voice>
                <type>quarter</type>
                <stem default-y="-50.00">down</stem>
                <lyric justify="center" default-y="-48.00" number="1">
                    <syllabic>single</syllabic>
                    <text font-weight="normal" font-style="normal" font-size="12" font-family="Comic Sans MS">ning</text>
                    <extend/>
                </lyric>
            </note>
        </measure>
        <measure width="120" number="3">
            <note>
                <pitch>
                    <step>G</step>
                    <octave>4</octave>
                </pitch>
                <duration>13440</duration>
                <voice>1</voice>
                <type>half</type>
                <stem default-y="5.00">up</stem>
                <lyric justify="center" default-y="-48.00" number="1">
                    <syllabic>single</syllabic>
                    <text font-weight="normal" font-style="normal" font-size="12" font-family="Comic Sans MS">wheel</text>
                    <extend/>
                </lyric>
            </note>
            <note>
                <pitch>
                    <step>E</step>
                    <octave>4</octave>
                </pitch>
                <duration>6720</duration>
                <voice>1</voice>
                <type>quarter</type>
                <stem default-y="-5.00">up</stem>
                <lyric justify="center" default-y="-48.00" number="1">
                    <syllabic>single</syllabic>
                    <text font-weight="normal" font-style="normal" font-size="12" font-family="Comic Sans MS">in</text>
                    <extend/>
                </lyric>
            </note>
            <note>
                <pitch>
                    <step>G</step>
                    <octave>4</octave>
                </pitch>
                <duration>6720</duration>
                <voice>1</voice>
                <type>quarter</type>
                <stem default-y="5.00">up</stem>
                <lyric justify="center" default-y="-48.00" number="1">
                    <syllabic>single</syllabic>
                    <text font-weight="normal" font-style="normal" font-size="12" font-family="Comic Sans MS">the</text>
                    <extend/>
                </lyric>
            </note>
        </measure>
        <measure width="121" number="4">
            <note>
                <pitch>
                    <step>F</step>
                    <octave>4</octave>
                </pitch>
                <duration>6720</duration>
                <voice>1</voice>
                <type>quarter</type>
                <stem default-y="0.00">up</stem>
                <lyric justify="center" default-y="-48.00" number="1">
                    <syllabic>begin</syllabic>
                    <text font-weight="normal" font-style="normal" font-size="12" font-family="Comic Sans MS">par</text>
                </lyric>
            </note>
            <note>
                <pitch>
                    <step>D</step>
                    <octave>4</octave>
                </pitch>
                <duration>20160</duration>
                <tie type="start"/>
                <voice>1</voice>
                <type>half</type>
                <dot/>
                <stem default-y="-10.00">up</stem>
                <notations>
                    <tied placement="below" orientation="under" type="start" number="1"/>
                </notations>
                <lyric justify="center" default-y="-48.00" number="1">
                    <syllabic>single</syllabic>
                    <text font-weight="normal" font-style="normal" font-size="12" font-family="Comic Sans MS">lor,</text>
                    <extend/>
                </lyric>
            </note>
        </measure>
        <measure width="126" number="5">
            <note>
                <pitch>
                    <step>D</step>
                    <octave>4</octave>
                </pitch>
                <duration>13440</duration>
                <tie type="stop"/>
                <voice>1</voice>
                <type>half</type>
                <stem default-y="-10.00">up</stem>
                <notations>
                    <tied type="stop" number="1"/>
                </notations>
            </note>
            <note>
                <pitch>
                    <step>D</step>
                    <octave>4</octave>
                </pitch>
                <duration>6720</duration>
                <voice>1</voice>
                <type>quarter</type>
                <stem default-y="-10.00">up</stem>
                <lyric justify="center" default-y="-48.00" number="1">
                    <syllabic>begin</syllabic>
                    <text font-weight="normal" font-style="normal" font-size="12" font-family="Comic Sans MS">spin</text>
                </lyric>
            </note>
            <note>
                <pitch>
                    <step>E</step>
                    <octave>4</octave>
                </pitch>
                <duration>6720</duration>
                <voice>1</voice>
                <type>quarter</type>
                <stem default-y="-5.00">up</stem>
                <lyric justify="center" default-y="-48.00" number="1">
                    <syllabic>single</syllabic>
                    <text font-weight="normal" font-style="normal" font-size="12" font-family="Comic Sans MS">ning</text>
                    <extend/>
                </lyric>
            </note>
        </measure>
        <measure width="138" number="6">
            <print new-system="yes">
                <system-layout>
                    <system-margins>
                        <left-margin>23.333</left-margin>
                        <right-margin>23.333</right-margin>
                    </system-margins>
                    <system-distance>80.000</system-distance>
                </system-layout>
            </print>
            <note>
                <pitch>
                    <step>F</step>
                    <octave>4</octave>
                </pitch>
                <duration>13440</duration>
                <voice>1</voice>
                <type>half</type>
                <stem default-y="0.00">up</stem>
                <lyric justify="center" default-y="-48.00" number="1">
                    <syllabic>single</syllabic>
                    <text font-weight="normal" font-style="normal" font-size="12" font-family="Comic Sans MS">dreams</text>
                    <extend/>
                </lyric>
            </note>
            <note>
                <pitch>
                    <step>D</step>
                    <octave>5</octave>
                </pitch>
                <duration>6720</duration>
                <voice>1</voice>
                <type>quarter</type>
                <stem default-y="-45.00">down</stem>
                <lyric justify="center" default-y="-48.00" number="1">
                    <syllabic>single</syllabic>
                    <text font-weight="normal" font-style="normal" font-size="12" font-family="Comic Sans MS">of</text>
                    <extend/>
                </lyric>
            </note>
            <note>
                <pitch>
                    <step>B</step>
                    <octave>4</octave>
                </pitch>
                <duration>6720</duration>
                <voice>1</voice>
                <type>quarter</type>
                <stem default-y="-55.00">down</stem>
                <lyric justify="center" default-y="-48.00" number="1">
                    <syllabic>single</syllabic>
                    <text font-weight="normal" font-style="normal" font-size="12" font-family="Comic Sans MS">the</text>
                    <extend/>
                </lyric>
            </note>
        </measure>
        <measure width="145" number="7">
            <note>
                <pitch>
                    <step>G</step>
                    <octave>4</octave>
                </pitch>
                <duration>13440</duration>
                <voice>1</voice>
                <type>half</type>
                <stem default-y="5.00">up</stem>
                <lyric justify="center" default-y="-48.00" number="1">
                    <syllabic>single</syllabic>
                    <text font-weight="normal" font-style="normal" font-size="12" font-family="Comic Sans MS">long,</text>
                    <extend/>
                </lyric>
            </note>
            <note>
                <pitch>
                    <step>F</step>
                    <octave>4</octave>
                </pitch>
                <duration>6720</duration>
                <voice>1</voice>
                <type>quarter</type>
                <stem default-y="0.00">up</stem>
                <lyric justify="center" default-y="-48.00" number="1">
                    <syllabic>single</syllabic>
                    <text font-weight="normal" font-style="normal" font-size="12" font-family="Comic Sans MS">long</text>
                    <extend/>
                </lyric>
            </note>
            <note>
                <pitch>
                    <step>G</step>
                    <octave>4</octave>
                </pitch>
                <duration>6720</duration>
                <voice>1</voice>
                <type>quarter</type>
                <stem default-y="5.00">up</stem>
                <lyric justify="center" default-y="-48.00" number="1">
                    <syllabic>begin</syllabic>
                    <text font-weight="normal" font-style="normal" font-size="12" font-family="Comic Sans MS">a</text>
                </lyric>
            </note>
        </measure>
        <measure width="89" number="8">
            <note>
                <pitch>
                    <step>E</step>
                    <octave>4</octave>
                </pitch>
                <duration>26880</duration>
                <tie type="start"/>
                <voice>1</voice>
                <type>whole</type>
                <stem>none</stem>
                <notations>
                    <tied placement="below" orientation="under" type="start" number="1"/>
                </notations>
                <lyric justify="center" default-y="-48.00" number="1">
                    <syllabic>single</syllabic>
                    <text font-weight="normal" font-style="normal" font-size="12" font-family="Comic Sans MS">go.</text>
                    <extend/>
                </lyric>
            </note>
        </measure>
        <measure width="144" number="9">
            <note>
                <pitch>
                    <step>E</step>
                    <octave>4</octave>
                </pitch>
                <duration>13440</duration>
                <tie type="stop"/>
                <voice>1</voice>
                <type>half</type>
                <stem default-y="-5.00">up</stem>
                <notations>
                    <tied type="stop" number="1"/>
                </notations>
            </note>
            <note>
                <pitch>
                    <step>E</step>
                    <octave>4</octave>
                </pitch>
                <duration>6720</duration>
                <voice>1</voice>
                <type>quarter</type>
                <stem default-y="-5.00">up</stem>
                <lyric justify="center" default-y="-48.00" number="1">
                    <syllabic>begin</syllabic>
                    <text font-weight="normal" font-style="normal" font-size="12" font-family="Comic Sans MS">Spin</text>
                </lyric>
            </note>
            <note>
                <pitch>
                    <step>F</step>
                    <octave>4</octave>
                </pitch>
                <duration>6720</duration>
                <voice>1</voice>
                <type>quarter</type>
                <stem default-y="0.00">up</stem>
                <lyric justify="center" default-y="-48.00" number="1">
                    <syllabic>single</syllabic>
                    <text font-weight="normal" font-style="normal" font-size="12" font-family="Comic Sans MS">ning</text>
                    <extend/>
                </lyric>
            </note>
        </measure>
        <measure width="161" number="10">
            <print new-system="yes">
                <system-layout>
                    <system-margins>
                        <left-margin>23.333</left-margin>
                        <right-margin>23.333</right-margin>
                    </system-margins>
                    <system-distance>80.000</system-distance>
                </system-layout>
            </print>
            <note>
                <pitch>
                    <step>G</step>
                    <octave>4</octave>
                </pitch>
                <duration>13440</duration>
                <voice>1</voice>
                <type>half</type>
                <stem default-y="5.00">up</stem>
                <lyric justify="center" default-y="-48.00" number="1">
                    <syllabic>single</syllabic>
                    <text font-weight="normal" font-style="normal" font-size="12" font-family="Comic Sans MS">dreams</text>
                    <extend/>
                </lyric>
            </note>
            <note>
                <pitch>
                    <step>E</step>
                    <octave>5</octave>
                </pitch>
                <duration>6720</duration>
                <voice>1</voice>
                <type>quarter</type>
                <stem default-y="-40.00">down</stem>
                <lyric justify="center" default-y="-48.00" number="1">
                    <syllabic>single</syllabic>
                    <text font-weight="normal" font-style="normal" font-size="12" font-family="Comic Sans MS">of</text>
                    <extend/>
                </lyric>
            </note>
            <note>
                <pitch>
                    <step>C</step>
                    <octave>5</octave>
                </pitch>
                <duration>6720</duration>
                <voice>1</voice>
                <type>quarter</type>
                <stem default-y="-50.00">down</stem>
                <lyric justify="center" default-y="-48.00" number="1">
                    <syllabic>single</syllabic>
                    <text font-weight="normal" font-style="normal" font-size="12" font-family="Comic Sans MS">an</text>
                    <extend/>
                </lyric>
            </note>
        </measure>
        <measure width="160" number="11">
            <note>
                <pitch>
                    <step>G</step>
                    <octave>4</octave>
                </pitch>
                <duration>13440</duration>
                <voice>1</voice>
                <type>half</type>
                <stem default-y="5.00">up</stem>
                <lyric justify="center" default-y="-48.00" number="1">
                    <syllabic>single</syllabic>
                    <text font-weight="normal" font-style="normal" font-size="12" font-family="Comic Sans MS">old</text>
                    <extend/>
                </lyric>
            </note>
            <note>
                <pitch>
                    <step>E</step>
                    <octave>4</octave>
                </pitch>
                <duration>6720</duration>
                <voice>1</voice>
                <type>quarter</type>
                <stem default-y="-5.00">up</stem>
                <lyric justify="center" default-y="-48.00" number="1">
                    <syllabic>begin</syllabic>
                    <text font-weight="normal" font-style="normal" font-size="12" font-family="Comic Sans MS">fash</text>
                </lyric>
            </note>
            <note>
                <pitch>
                    <step>G</step>
                    <octave>4</octave>
                </pitch>
                <duration>6720</duration>
                <voice>1</voice>
                <type>quarter</type>
                <stem default-y="5.00">up</stem>
                <lyric justify="center" default-y="-48.00" number="1">
                    <syllabic>single</syllabic>
                    <text font-weight="normal" font-style="normal" font-size="12" font-family="Comic Sans MS">ioned</text>
                    <extend/>
                </lyric>
            </note>
        </measure>
        <measure width="100" number="12">
            <note>
                <pitch>
                    <step>F</step>
                    <octave>4</octave>
                </pitch>
                <duration>6720</duration>
                <voice>1</voice>
                <type>quarter</type>
                <stem default-y="0.00">up</stem>
                <lyric justify="center" default-y="-48.00" number="1">
                    <syllabic>begin</syllabic>
                    <text font-weight="normal" font-style="normal" font-size="12" font-family="Comic Sans MS">gar</text>
                </lyric>
            </note>
            <note>
                <pitch>
                    <step>D</step>
                    <octave>4</octave>
                </pitch>
                <duration>20160</duration>
                <tie type="start"/>
                <voice>1</voice>
                <type>half</type>
                <dot/>
                <stem default-y="-10.00">up</stem>
                <notations>
                    <tied placement="below" orientation="under" type="start" number="1"/>
                </notations>
                <lyric justify="center" default-y="-48.00" number="1">
                    <syllabic>single</syllabic>
                    <text font-weight="normal" font-style="normal" font-size="12" font-family="Comic Sans MS">den,</text>
                    <extend/>
                </lyric>
            </note>
        </measure>
        <measure width="150" number="13">
            <note>
                <pitch>
                    <step>D</step>
                    <octave>4</octave>
                </pitch>
                <duration>13440</duration>
                <tie type="stop"/>
                <voice>1</voice>
                <type>half</type>
                <stem default-y="-10.00">up</stem>
                <notations>
                    <tied type="stop" number="1"/>
                </notations>
            </note>
            <note>
                <pitch>
                    <step>D</step>
                    <octave>4</octave>
                </pitch>
                <duration>6720</duration>
                <voice>1</voice>
                <type>quarter</type>
                <stem default-y="-10.00">up</stem>
                <lyric justify="center" default-y="-48.00" number="1">
                    <syllabic>single</syllabic>
                    <text font-weight="normal" font-style="normal" font-size="12" font-family="Comic Sans MS">and</text>
                    <extend/>
                </lyric>
            </note>
            <note>
                <pitch>
                    <step>E</step>
                    <octave>4</octave>
                </pitch>
                <duration>6720</duration>
                <voice>1</voice>
                <type>quarter</type>
                <stem default-y="-5.00">up</stem>
                <lyric justify="center" default-y="-48.00" number="1">
                    <syllabic>single</syllabic>
                    <text font-weight="normal" font-style="normal" font-size="12" font-family="Comic Sans MS">a</text>
                    <extend/>
                </lyric>
            </note>
        </measure>
        <measure width="110" number="14">
            <print new-system="yes">
                <system-layout>
                    <system-margins>
                        <left-margin>23.333</left-margin>
                        <right-margin>23.333</right-margin>
                    </system-margins>
                    <system-distance>80.000</system-distance>
                </system-layout>
            </print>
            <note>
                <pitch>
                    <step>F</step>
                    <octave>4</octave>
                </pitch>
                <duration>13440</duration>
                <voice>1</voice>
                <type>half</type>
                <stem default-y="0.00">up</stem>
                <lyric justify="center" default-y="-48.00" number="1">
                    <syllabic>single</syllabic>
                    <text font-weight="normal" font-style="normal" font-size="12" font-family="Comic Sans MS">maid</text>
                    <extend/>
                </lyric>
            </note>
            <note>
                <pitch>
                    <step>D</step>
                    <octave>5</octave>
                </pitch>
                <duration>6720</duration>
                <voice>1</voice>
                <type>quarter</type>
                <stem default-y="-45.00">down</stem>
                <lyric justify="center" default-y="-48.00" number="1">
                    <syllabic>single</syllabic>
                    <text font-weight="normal" font-style="normal" font-size="12" font-family="Comic Sans MS">with</text>
                    <extend/>
                </lyric>
            </note>
            <note>
                <pitch>
                    <step>B</step>
                    <octave>4</octave>
                </pitch>
                <duration>6720</duration>
                <voice>1</voice>
                <type>quarter</type>
                <stem default-y="-55.00">down</stem>
                <lyric justify="center" default-y="-48.00" number="1">
                    <syllabic>single</syllabic>
                    <text font-weight="normal" font-style="normal" font-size="12" font-family="Comic Sans MS">her</text>
                    <extend/>
                </lyric>
            </note>
        </measure>
        <measure width="109" number="15">
            <note>
                <pitch>
                    <step>G</step>
                    <octave>4</octave>
                </pitch>
                <duration>13440</duration>
                <voice>1</voice>
                <type>half</type>
                <stem default-y="5.00">up</stem>
                <lyric justify="center" default-y="-48.00" number="1">
                    <syllabic>single</syllabic>
                    <text font-weight="normal" font-style="normal" font-size="12" font-family="Comic Sans MS">old</text>
                    <extend/>
                </lyric>
            </note>
            <note>
                <pitch>
                    <step>B</step>
                    <octave>4</octave>
                </pitch>
                <duration>6720</duration>
                <voice>1</voice>
                <type>quarter</type>
                <stem default-y="-55.00">down</stem>
                <lyric justify="center" default-y="-48.00" number="1">
                    <syllabic>begin</syllabic>
                    <text font-weight="normal" font-style="normal" font-size="12" font-family="Comic Sans MS">fash</text>
                </lyric>
            </note>
            <note>
                <pitch>
                    <step>D</step>
                    <octave>5</octave>
                </pitch>
                <duration>6720</duration>
                <voice>1</voice>
                <type>quarter</type>
                <stem default-y="-45.00">down</stem>
                <lyric justify="center" default-y="-48.00" number="1">
                    <syllabic>single</syllabic>
                    <text font-weight="normal" font-style="normal" font-size="12" font-family="Comic Sans MS">ioned</text>
                    <extend/>
                </lyric>
            </note>
        </measure>
        <measure width="80" number="16">
            <note>
                <pitch>
                    <step>C</step>
                    <octave>5</octave>
                </pitch>
                <duration>26880</duration>
                <tie type="start"/>
                <voice>1</voice>
                <type>whole</type>
                <stem>none</stem>
                <notations>
                    <tied placement="above" orientation="over" type="start" number="1"/>
                </notations>
                <lyric justify="center" default-y="-48.00" number="1">
                    <syllabic>single</syllabic>
                    <text font-weight="normal" font-style="normal" font-size="12" font-family="Comic Sans MS">beau.</text>
                    <extend/>
                </lyric>
            </note>
        </measure>
        <measure width="146" number="17">
            <note>
                <pitch>
                    <step>C</step>
                    <octave>5</octave>
                </pitch>
                <duration>6720</duration>
                <tie type="stop"/>
                <voice>1</voice>
                <type>quarter</type>
                <stem default-y="-50.00">down</stem>
                <notations>
                    <tied type="stop" number="1"/>
                </notations>
            </note>
            <note>
                <pitch>
                    <step>C</step>
                    <octave>5</octave>
                </pitch>
                <duration>6720</duration>
                <voice>1</voice>
                <type>quarter</type>
                <stem default-y="-50.00">down</stem>
                <lyric justify="center" default-y="-48.00" number="1">
                    <syllabic>begin</syllabic>
                    <text font-weight="normal" font-style="normal" font-size="12" font-family="Comic Sans MS">Some</text>
                </lyric>
            </note>
            <note>
                <pitch>
                    <step>C</step>
                    <octave>5</octave>
                </pitch>
                <duration>6720</duration>
                <voice>1</voice>
                <type>quarter</type>
                <stem default-y="-50.00">down</stem>
                <lyric justify="center" default-y="-48.00" number="1">
                    <syllabic>single</syllabic>
                    <text font-weight="normal" font-style="normal" font-size="12" font-family="Comic Sans MS">times</text>
                    <extend/>
                </lyric>
            </note>
            <note>
                <pitch>
                    <step>C</step>
                    <octave>5</octave>
                </pitch>
                <duration>6720</duration>
                <voice>1</voice>
                <type>quarter</type>
                <stem default-y="-50.00">down</stem>
                <lyric justify="center" default-y="-48.00" number="1">
                    <syllabic>single</syllabic>
                    <text font-weight="normal" font-style="normal" font-size="12" font-family="Comic Sans MS">it</text>
                    <extend/>
                </lyric>
            </note>
        </measure>
        <measure width="174" number="18">
            <print new-system="yes">
                <system-layout>
                    <system-margins>
                        <left-margin>23.333</left-margin>
                        <right-margin>23.333</right-margin>
                    </system-margins>
                    <system-distance>80.000</system-distance>
                </system-layout>
            </print>
            <note>
                <pitch>
                    <step>C</step>
                    <octave>5</octave>
                </pitch>
                <duration>6720</duration>
                <voice>1</voice>
                <type>quarter</type>
                <stem default-y="-50.00">down</stem>
                <lyric justify="center" default-y="-48.00" number="1">
                    <syllabic>single</syllabic>
                    <text font-weight="normal" font-style="normal" font-size="12" font-family="Comic Sans MS">seems</text>
                    <extend/>
                </lyric>
            </note>
            <note>
                <pitch>
                    <step>C</step>
                    <octave>5</octave>
                </pitch>
                <duration>6720</duration>
                <voice>1</voice>
                <type>quarter</type>
                <stem default-y="-50.00">down</stem>
                <lyric justify="center" default-y="-48.00" number="1">
                    <syllabic>single</syllabic>
                    <text font-weight="normal" font-style="normal" font-size="12" font-family="Comic Sans MS">that</text>
                    <extend/>
                </lyric>
            </note>
            <note>
                <pitch>
                    <step>B</step>
                    <octave>4</octave>
                </pitch>
                <duration>6720</duration>
                <voice>1</voice>
                <type>quarter</type>
                <stem default-y="-55.00">down</stem>
                <lyric justify="center" default-y="-48.00" number="1">
                    <syllabic>single</syllabic>
                    <text font-weight="normal" font-style="normal" font-size="12" font-family="Comic Sans MS">I</text>
                    <extend/>
                </lyric>
            </note>
            <note>
                <pitch>
                    <step>C</step>
                    <octave>5</octave>
                </pitch>
                <duration>6720</duration>
                <voice>1</voice>
                <type>quarter</type>
                <stem default-y="-50.00">down</stem>
                <lyric justify="center" default-y="-48.00" number="1">
                    <syllabic>single</syllabic>
                    <text font-weight="normal" font-style="normal" font-size="12" font-family="Comic Sans MS">can</text>
                    <extend/>
                </lyric>
            </note>
        </measure>
        <measure width="158" number="19">
            <note>
                <pitch>
                    <step>D</step>
                    <octave>5</octave>
                </pitch>
                <duration>6720</duration>
                <voice>1</voice>
                <type>quarter</type>
                <stem default-y="-45.00">down</stem>
                <lyric justify="center" default-y="-48.00" number="1">
                    <syllabic>single</syllabic>
                    <text font-weight="normal" font-style="normal" font-size="12" font-family="Comic Sans MS">hear</text>
                    <extend/>
                </lyric>
            </note>
            <note>
                <pitch>
                    <step>C</step>
                    <octave>5</octave>
                </pitch>
                <duration>6720</duration>
                <voice>1</voice>
                <type>quarter</type>
                <stem default-y="-50.00">down</stem>
                <lyric justify="center" default-y="-48.00" number="1">
                    <syllabic>single</syllabic>
                    <text font-weight="normal" font-style="normal" font-size="12" font-family="Comic Sans MS">her</text>
                    <extend/>
                </lyric>
            </note>
            <note>
                <pitch>
                    <step>B</step>
                    <octave>4</octave>
                </pitch>
                <duration>6720</duration>
                <voice>1</voice>
                <type>quarter</type>
                <stem default-y="-55.00">down</stem>
                <lyric justify="center" default-y="-48.00" number="1">
                    <syllabic>single</syllabic>
                    <text font-weight="normal" font-style="normal" font-size="12" font-family="Comic Sans MS">in</text>
                    <extend/>
                </lyric>
            </note>
            <note>
                <pitch>
                    <step>A</step>
                    <octave>4</octave>
                </pitch>
                <duration>6720</duration>
                <voice>1</voice>
                <type>quarter</type>
                <stem default-y="10.00">up</stem>
                <lyric justify="center" default-y="-48.00" number="1">
                    <syllabic>single</syllabic>
                    <text font-weight="normal" font-style="normal" font-size="12" font-family="Comic Sans MS">the</text>
                    <extend/>
                </lyric>
            </note>
        </measure>
        <measure width="109" number="20">
            <note>
                <pitch>
                    <step>A</step>
                    <octave>4</octave>
                </pitch>
                <duration>13440</duration>
                <voice>1</voice>
                <type>half</type>
                <stem default-y="10.00">up</stem>
                <lyric justify="center" default-y="-48.00" number="1">
                    <syllabic>begin</syllabic>
                    <text font-weight="normal" font-style="normal" font-size="12" font-family="Comic Sans MS">twi</text>
                </lyric>
            </note>
            <note>
                <pitch>
                    <step>G</step>
                    <octave>4</octave>
                </pitch>
                <duration>13440</duration>
                <tie type="start"/>
                <voice>1</voice>
                <type>half</type>
                <stem default-y="5.00">up</stem>
                <notations>
                    <tied placement="below" orientation="under" type="start" number="1"/>
                </notations>
                <lyric justify="center" default-y="-48.00" number="1">
                    <syllabic>single</syllabic>
                    <text font-weight="normal" font-style="normal" font-size="12" font-family="Comic Sans MS">light</text>
                    <extend/>
                </lyric>
            </note>
        </measure>
        <measure width="114" number="21">
            <note>
                <pitch>
                    <step>G</step>
                    <octave>4</octave>
                </pitch>
                <duration>13440</duration>
                <tie type="stop"/>
                <voice>1</voice>
                <type>half</type>
                <stem default-y="5.00">up</stem>
                <notations>
                    <tied type="stop" number="1"/>
                </notations>
            </note>
            <note>
                <pitch>
                    <step>E</step>
                    <octave>4</octave>
                </pitch>
                <duration>6720</duration>
                <voice>1</voice>
                <type>quarter</type>
                <stem default-y="-5.00">up</stem>
                <lyric justify="center" default-y="-48.00" number="1">
                    <syllabic>single</syllabic>
                    <text font-weight="normal" font-style="normal" font-size="12" font-family="Comic Sans MS">at</text>
                    <extend/>
                </lyric>
            </note>
            <note>
                <pitch>
                    <step>F</step>
                    <octave>4</octave>
                </pitch>
                <duration>6720</duration>
                <voice>1</voice>
                <type>quarter</type>
                <stem default-y="0.00">up</stem>
                <lyric justify="center" default-y="-48.00" number="1">
                    <syllabic>single</syllabic>
                    <text font-weight="normal" font-style="normal" font-size="12" font-family="Comic Sans MS">the</text>
                    <extend/>
                </lyric>
            </note>
        </measure>
        <measure width="158" number="22">
            <print new-system="yes">
                <system-layout>
                    <system-margins>
                        <left-margin>23.333</left-margin>
                        <right-margin>23.333</right-margin>
                    </system-margins>
                    <system-distance>80.000</system-distance>
                </system-layout>
            </print>
            <note>
                <pitch>
                    <step>G</step>
                    <octave>4</octave>
                </pitch>
                <duration>6720</duration>
                <voice>1</voice>
                <type>quarter</type>
                <stem default-y="5.00">up</stem>
                <lyric justify="center" default-y="-48.00" number="1">
                    <syllabic>begin</syllabic>
                    <text font-weight="normal" font-style="normal" font-size="12" font-family="Comic Sans MS">or</text>
                </lyric>
            </note>
            <note>
                <pitch>
                    <step>G</step>
                    <octave>4</octave>
                </pitch>
                <duration>6720</duration>
                <voice>1</voice>
                <type>quarter</type>
                <stem default-y="5.00">up</stem>
                <lyric justify="center" default-y="-48.00" number="1">
                    <syllabic>single</syllabic>
                    <text font-weight="normal" font-style="normal" font-size="12" font-family="Comic Sans MS">gan</text>
                    <extend/>
                </lyric>
            </note>
            <note>
                <pitch>
                    <step>G</step>
                    <octave>4</octave>
                </pitch>
                <duration>6720</duration>
                <voice>1</voice>
                <type>quarter</type>
                <stem default-y="5.00">up</stem>
                <lyric justify="center" default-y="-48.00" number="1">
                    <syllabic>begin</syllabic>
                    <text font-weight="normal" font-style="normal" font-size="12" font-family="Comic Sans MS">soft</text>
                </lyric>
            </note>
            <note>
                <pitch>
                    <step>G</step>
                    <octave>4</octave>
                </pitch>
                <duration>6720</duration>
                <voice>1</voice>
                <type>quarter</type>
                <stem default-y="5.00">up</stem>
                <lyric justify="center" default-y="-48.00" number="1">
                    <syllabic>single</syllabic>
                    <text font-weight="normal" font-style="normal" font-size="12" font-family="Comic Sans MS">ly</text>
                    <extend/>
                </lyric>
            </note>
        </measure>
        <measure width="168" number="23">
            <note>
                <pitch>
                    <step>A</step>
                    <octave>4</octave>
                </pitch>
                <duration>6720</duration>
                <voice>1</voice>
                <type>quarter</type>
                <stem default-y="10.00">up</stem>
                <lyric justify="center" default-y="-48.00" number="1">
                    <syllabic>begin</syllabic>
                    <text font-weight="normal" font-style="normal" font-size="12" font-family="Comic Sans MS">sing</text>
                </lyric>
            </note>
            <note>
                <pitch>
                    <step>G</step>
                    <octave>4</octave>
                </pitch>
                <duration>6720</duration>
                <voice>1</voice>
                <type>quarter</type>
                <stem default-y="5.00">up</stem>
                <lyric justify="center" default-y="-48.00" number="1">
                    <syllabic>single</syllabic>
                    <text font-weight="normal" font-style="normal" font-size="12" font-family="Comic Sans MS">ing</text>
                    <extend/>
                </lyric>
            </note>
            <note>
                <pitch>
                    <step>F</step>
                    <octave>4</octave>
                </pitch>
                <duration>6720</duration>
                <voice>1</voice>
                <type>quarter</type>
                <stem default-y="0.00">up</stem>
                <lyric justify="center" default-y="-48.00" number="1">
                    <syllabic>single</syllabic>
                    <text font-weight="normal" font-style="normal" font-size="12" font-family="Comic Sans MS">&quot;Old</text>
                    <extend/>
                </lyric>
            </note>
            <note>
                <pitch>
                    <step>E</step>
                    <octave>4</octave>
                </pitch>
                <duration>6720</duration>
                <voice>1</voice>
                <type>quarter</type>
                <stem default-y="-5.00">up</stem>
                <lyric justify="center" default-y="-48.00" number="1">
                    <syllabic>single</syllabic>
                    <text font-weight="normal" font-style="normal" font-size="12" font-family="Comic Sans MS">Black</text>
                    <extend/>
                </lyric>
            </note>
        </measure>
        <measure width="84" number="24">
            <note>
                <pitch>
                    <step>D</step>
                    <octave>4</octave>
                </pitch>
                <duration>26880</duration>
                <tie type="start"/>
                <voice>1</voice>
                <type>whole</type>
                <stem>none</stem>
                <notations>
                    <tied placement="below" orientation="under" type="start" number="1"/>
                </notations>
                <lyric justify="center" default-y="-48.00" number="1">
                    <syllabic>single</syllabic>
                    <text font-weight="normal" font-style="normal" font-size="12" font-family="Comic Sans MS">Joe.&quot;</text>
                    <extend/>
                </lyric>
            </note>
        </measure>
        <measure width="140" number="25">
            <note>
                <pitch>
                    <step>D</step>
                    <octave>4</octave>
                </pitch>
                <duration>13440</duration>
                <tie type="stop"/>
                <voice>1</voice>
                <type>half</type>
                <stem default-y="-10.00">up</stem>
                <notations>
                    <tied type="stop" number="1"/>
                </notations>
            </note>
            <note>
                <pitch>
                    <step>E</step>
                    <octave>4</octave>
                </pitch>
                <duration>6720</duration>
                <voice>1</voice>
                <type>quarter</type>
                <stem default-y="-5.00">up</stem>
                <lyric justify="center" default-y="-48.00" number="1">
                    <syllabic>single</syllabic>
                    <text font-weight="normal" font-style="normal" font-size="12" font-family="Comic Sans MS">There's</text>
                    <extend/>
                </lyric>
            </note>
            <note>
                <pitch>
                    <step>F</step>
                    <octave>4</octave>
                </pitch>
                <duration>6720</duration>
                <voice>1</voice>
                <type>quarter</type>
                <stem default-y="0.00">up</stem>
                <lyric justify="center" default-y="-48.00" number="1">
                    <syllabic>single</syllabic>
                    <text font-weight="normal" font-style="normal" font-size="12" font-family="Comic Sans MS">an</text>
                    <extend/>
                </lyric>
            </note>
        </measure>
        <measure width="162" number="26">
            <print new-system="yes">
                <system-layout>
                    <system-margins>
                        <left-margin>23.333</left-margin>
                        <right-margin>23.333</right-margin>
                    </system-margins>
                    <system-distance>80.000</system-distance>
                </system-layout>
            </print>
            <note>
                <pitch>
                    <step>G</step>
                    <octave>4</octave>
                </pitch>
                <duration>13440</duration>
                <voice>1</voice>
                <type>half</type>
                <stem default-y="5.00">up</stem>
                <lyric justify="center" default-y="-48.00" number="1">
                    <syllabic>single</syllabic>
                    <text font-weight="normal" font-style="normal" font-size="12" font-family="Comic Sans MS">old</text>
                    <extend/>
                </lyric>
            </note>
            <note>
                <pitch>
                    <step>E</step>
                    <octave>5</octave>
                </pitch>
                <duration>6720</duration>
                <voice>1</voice>
                <type>quarter</type>
                <stem default-y="-40.00">down</stem>
                <lyric justify="center" default-y="-48.00" number="1">
                    <syllabic>begin</syllabic>
                    <text font-weight="normal" font-style="normal" font-size="12" font-family="Comic Sans MS">spin</text>
                </lyric>
            </note>
            <note>
                <pitch>
                    <step>C</step>
                    <octave>5</octave>
                </pitch>
                <duration>6720</duration>
                <voice>1</voice>
                <type>quarter</type>
                <stem default-y="-50.00">down</stem>
                <lyric justify="center" default-y="-48.00" number="1">
                    <syllabic>single</syllabic>
                    <text font-weight="normal" font-style="normal" font-size="12" font-family="Comic Sans MS">ning</text>
                    <extend/>
                </lyric>
            </note>
        </measure>
        <measure width="136" number="27">
            <note>
                <pitch>
                    <step>G</step>
                    <octave>4</octave>
                </pitch>
                <duration>13440</duration>
                <voice>1</voice>
                <type>half</type>
                <stem default-y="5.00">up</stem>
                <lyric justify="center" default-y="-48.00" number="1">
                    <syllabic>single</syllabic>
                    <text font-weight="normal" font-style="normal" font-size="12" font-family="Comic Sans MS">wheel</text>
                    <extend/>
                </lyric>
            </note>
            <note>
                <pitch>
                    <step>E</step>
                    <octave>4</octave>
                </pitch>
                <duration>6720</duration>
                <voice>1</voice>
                <type>quarter</type>
                <stem default-y="-5.00">up</stem>
                <lyric justify="center" default-y="-48.00" number="1">
                    <syllabic>single</syllabic>
                    <text font-weight="normal" font-style="normal" font-size="12" font-family="Comic Sans MS">in</text>
                    <extend/>
                </lyric>
            </note>
            <note>
                <pitch>
                    <step>G</step>
                    <octave>4</octave>
                </pitch>
                <duration>6720</duration>
                <voice>1</voice>
                <type>quarter</type>
                <stem default-y="5.00">up</stem>
                <lyric justify="center" default-y="-48.00" number="1">
                    <syllabic>single</syllabic>
                    <text font-weight="normal" font-style="normal" font-size="12" font-family="Comic Sans MS">the</text>
                    <extend/>
                </lyric>
            </note>
        </measure>
        <measure width="114" number="28">
            <note>
                <pitch>
                    <step>F</step>
                    <octave>4</octave>
                </pitch>
                <duration>6720</duration>
                <voice>1</voice>
                <type>quarter</type>
                <stem default-y="0.00">up</stem>
                <lyric justify="center" default-y="-48.00" number="1">
                    <syllabic>begin</syllabic>
                    <text font-weight="normal" font-style="normal" font-size="12" font-family="Comic Sans MS">par</text>
                </lyric>
            </note>
            <note>
                <pitch>
                    <step>D</step>
                    <octave>4</octave>
                </pitch>
                <duration>20160</duration>
                <tie type="start"/>
                <voice>1</voice>
                <type>half</type>
                <dot/>
                <stem default-y="-10.00">up</stem>
                <notations>
                    <tied placement="below" orientation="under" type="start" number="1"/>
                </notations>
                <lyric justify="center" default-y="-48.00" number="1">
                    <syllabic>single</syllabic>
                    <text font-weight="normal" font-style="normal" font-size="12" font-family="Comic Sans MS">lor,</text>
                    <extend/>
                </lyric>
            </note>
        </measure>
        <measure width="130" number="29">
            <note>
                <pitch>
                    <step>D</step>
                    <octave>4</octave>
                </pitch>
                <duration>13440</duration>
                <tie type="stop"/>
                <voice>1</voice>
                <type>half</type>
                <stem default-y="-10.00">up</stem>
                <notations>
                    <tied type="stop" number="1"/>
                </notations>
            </note>
            <note>
                <pitch>
                    <step>D</step>
                    <octave>4</octave>
                </pitch>
                <duration>6720</duration>
                <voice>1</voice>
                <type>quarter</type>
                <stem default-y="-10.00">up</stem>
                <lyric justify="center" default-y="-48.00" number="1">
                    <syllabic>begin</syllabic>
                    <text font-weight="normal" font-style="normal" font-size="12" font-family="Comic Sans MS">spin</text>
                </lyric>
            </note>
            <note>
                <pitch>
                    <step>E</step>
                    <octave>4</octave>
                </pitch>
                <duration>6720</duration>
                <voice>1</voice>
                <type>quarter</type>
                <stem default-y="-5.00">up</stem>
                <lyric justify="center" default-y="-48.00" number="1">
                    <syllabic>single</syllabic>
                    <text font-weight="normal" font-style="normal" font-size="12" font-family="Comic Sans MS">ning</text>
                    <extend/>
                </lyric>
            </note>
        </measure>
        <measure width="166" number="30">
            <print new-system="yes">
                <system-layout>
                    <system-margins>
                        <left-margin>23.333</left-margin>
                        <right-margin>23.333</right-margin>
                    </system-margins>
                    <system-distance>80.000</system-distance>
                </system-layout>
            </print>
            <note>
                <pitch>
                    <step>F</step>
                    <octave>4</octave>
                </pitch>
                <duration>13440</duration>
                <voice>1</voice>
                <type>half</type>
                <stem default-y="0.00">up</stem>
                <lyric justify="center" default-y="-48.00" number="1">
                    <syllabic>single</syllabic>
                    <text font-weight="normal" font-style="normal" font-size="12" font-family="Comic Sans MS">dreams</text>
                    <extend/>
                </lyric>
            </note>
            <note>
                <pitch>
                    <step>D</step>
                    <octave>5</octave>
                </pitch>
                <duration>6720</duration>
                <voice>1</voice>
                <type>quarter</type>
                <stem default-y="-45.00">down</stem>
                <lyric justify="center" default-y="-48.00" number="1">
                    <syllabic>single</syllabic>
                    <text font-weight="normal" font-style="normal" font-size="12" font-family="Comic Sans MS">of</text>
                    <extend/>
                </lyric>
            </note>
            <note>
                <pitch>
                    <step>B</step>
                    <octave>4</octave>
                </pitch>
                <duration>6720</duration>
                <voice>1</voice>
                <type>quarter</type>
                <stem default-y="-55.00">down</stem>
                <lyric justify="center" default-y="-48.00" number="1">
                    <syllabic>single</syllabic>
                    <text font-weight="normal" font-style="normal" font-size="12" font-family="Comic Sans MS">the</text>
                    <extend/>
                </lyric>
            </note>
        </measure>
        <measure width="134" number="31">
            <note>
                <pitch>
                    <step>G</step>
                    <octave>4</octave>
                </pitch>
                <duration>13440</duration>
                <voice>1</voice>
                <type>half</type>
                <stem default-y="5.00">up</stem>
                <lyric justify="center" default-y="-48.00" number="1">
                    <syllabic>single</syllabic>
                    <text font-weight="normal" font-style="normal" font-size="12" font-family="Comic Sans MS">long,</text>
                    <extend/>
                </lyric>
            </note>
            <note>
                <pitch>
                    <step>B</step>
                    <octave>4</octave>
                </pitch>
                <duration>6720</duration>
                <voice>1</voice>
                <type>quarter</type>
                <stem default-y="-55.00">down</stem>
                <lyric justify="center" default-y="-48.00" number="1">
                    <syllabic>single</syllabic>
                    <text font-weight="normal" font-style="normal" font-size="12" font-family="Comic Sans MS">long</text>
                    <extend/>
                </lyric>
            </note>
            <note>
                <pitch>
                    <step>D</step>
                    <octave>5</octave>
                </pitch>
                <duration>6720</duration>
                <voice>1</voice>
                <type>quarter</type>
                <stem default-y="-45.00">down</stem>
                <lyric justify="center" default-y="-48.00" number="1">
                    <syllabic>begin</syllabic>
                    <text font-weight="normal" font-style="normal" font-size="12" font-family="Comic Sans MS">a</text>
                </lyric>
            </note>
        </measure>
        <measure width="97" number="32">
            <note>
                <pitch>
                    <step>C</step>
                    <octave>5</octave>
                </pitch>
                <duration>26880</duration>
                <tie type="start"/>
                <voice>1</voice>
                <type>whole</type>
                <stem>none</stem>
                <notations>
                    <tied placement="above" orientation="over" type="start" number="1"/>
                </notations>
                <lyric justify="center" default-y="-48.00" number="1">
                    <syllabic>single</syllabic>
                    <text font-weight="normal" font-style="normal" font-size="12" font-family="Comic Sans MS">go</text>
                    <extend/>
                </lyric>
            </note>
        </measure>
        <measure width="113" number="33">
            <note>
                <pitch>
                    <step>C</step>
                    <octave>5</octave>
                </pitch>
                <duration>13440</duration>
                <tie type="stop"/>
                <voice>1</voice>
                <type>half</type>
                <stem default-y="-50.00">down</stem>
                <notations>
                    <tied type="stop" number="1"/>
                </notations>
            </note>
            <note>
                <rest/>
                <duration>13440</duration>
                <voice>1</voice>
                <type>half</type>
            </note>
            <barline location="right">
                <bar-style>light-heavy</bar-style>
            </barline>
        </measure>
    </part>
</score-partwise>
