<?xml version="1.0" encoding="UTF-8"?>
<!DOCTYPE score-partwise PUBLIC "-//Recordare//DTD MusicXML 2.0 Partwise//EN" "http://www.musicxml.org/dtds/partwise.dtd">
<score-partwise version="2.0">
    <work>
        <work-number></work-number>
        <work-title></work-title>
    </work>
    <movement-number></movement-number>
    <movement-title>Find Your Time</movement-title>
    <identification>
        <creator type="composer">Morante Jose</creator>
        <creator type="poet"></creator>
        <rights>Public Domain</rights>
        <encoding>
            <software>MuseScore 1.0</software>
            <encoding-date>2011-05-12</encoding-date>
            <software>ProxyMusic 2.0 c</software>
        </encoding>
        <source>http://wikifonia.org/node/10776/revisions/14544/view</source>
    </identification>
    <defaults>
        <scaling>
            <millimeters>7.05556</millimeters>
            <tenths>40</tenths>
        </scaling>
        <page-layout>
            <page-height>1683.78</page-height>
            <page-width>1190.55</page-width>
            <page-margins type="even">
                <left-margin>56.6929</left-margin>
                <right-margin>56.6929</right-margin>
                <top-margin>56.6929</top-margin>
                <bottom-margin>113.386</bottom-margin>
            </page-margins>
            <page-margins type="odd">
                <left-margin>56.6929</left-margin>
                <right-margin>56.6929</right-margin>
                <top-margin>56.6929</top-margin>
                <bottom-margin>113.386</bottom-margin>
            </page-margins>
        </page-layout>
    </defaults>
    <credit page="1">
        <credit-words font-size="24" default-y="1627.09" default-x="595.276" justify="center" valign="top">Find your Time</credit-words>
    </credit>
    <credit page="1">
        <credit-words font-size="12" default-y="1560.09" default-x="1133.86" justify="right" valign="top">Morante Jose</credit-words>
    </credit>
    <part-list>
        <score-part id="P1">
            <part-name>Flute</part-name>
            <part-abbreviation>Fl.</part-abbreviation>
            <score-instrument id="P1-I3">
                <instrument-name>Flute</instrument-name>
            </score-instrument>
            <midi-instrument id="P1-I3">
                <midi-channel>1</midi-channel>
                <midi-program>74</midi-program>
            </midi-instrument>
        </score-part>
    </part-list>
    <part id="P1">
        <measure width="204.92" number="1">
            <print>
                <system-layout>
                    <system-margins>
                        <left-margin>68.40</left-margin>
                        <right-margin>0.00</right-margin>
                    </system-margins>
                    <top-system-distance>180.00</top-system-distance>
                </system-layout>
            </print>
            <attributes>
                <divisions>2</divisions>
                <key>
                    <fifths>5</fifths>
                    <mode>major</mode>
                </key>
                <time>
                    <beats>4</beats>
                    <beat-type>4</beat-type>
                </time>
                <clef>
                    <sign>G</sign>
                    <line>2</line>
                </clef>
            </attributes>
            <note default-y="-40.00" default-x="124.99">
                <pitch>
                    <step>E</step>
                    <octave>4</octave>
                </pitch>
                <duration>4</duration>
                <voice>1</voice>
                <type>half</type>
                <stem>up</stem>
            </note>
            <note default-y="-35.00" default-x="158.94">
                <pitch>
                    <step>F</step>
                    <alter>1</alter>
                    <octave>4</octave>
                </pitch>
                <duration>2</duration>
                <voice>1</voice>
                <type>quarter</type>
                <stem>up</stem>
            </note>
            <note default-y="-30.00" default-x="180.16">
                <pitch>
                    <step>G</step>
                    <alter>1</alter>
                    <octave>4</octave>
                </pitch>
                <duration>2</duration>
                <voice>1</voice>
                <type>quarter</type>
                <stem>up</stem>
            </note>
        </measure>
        <measure width="109.09" number="2">
            <note default-y="-30.00" default-x="12.00">
                <pitch>
                    <step>G</step>
                    <alter>1</alter>
                    <octave>4</octave>
                </pitch>
                <duration>2</duration>
                <voice>1</voice>
                <type>quarter</type>
                <stem>up</stem>
            </note>
            <note default-y="-10.00" default-x="37.75">
                <pitch>
                    <step>D</step>
                    <alter>1</alter>
                    <octave>5</octave>
                </pitch>
                <duration>1</duration>
                <voice>1</voice>
                <type>eighth</type>
                <stem>down</stem>
                <beam number="1">begin</beam>
            </note>
            <note default-y="-10.00" default-x="54.92">
                <pitch>
                    <step>D</step>
                    <alter>1</alter>
                    <octave>5</octave>
                </pitch>
                <duration>1</duration>
                <voice>1</voice>
                <type>eighth</type>
                <stem>down</stem>
                <beam number="1">end</beam>
            </note>
            <note default-y="-15.00" default-x="72.08">
                <pitch>
                    <step>C</step>
                    <alter>1</alter>
                    <octave>5</octave>
                </pitch>
                <duration>4</duration>
                <voice>1</voice>
                <type>half</type>
                <stem>down</stem>
            </note>
        </measure>
        <measure width="108.35" number="3">
            <note default-y="-10.00" default-x="12.00">
                <pitch>
                    <step>D</step>
                    <alter>1</alter>
                    <octave>5</octave>
                </pitch>
                <duration>2</duration>
                <voice>1</voice>
                <type>quarter</type>
                <stem>down</stem>
            </note>
            <note default-y="-10.00" default-x="35.69">
                <pitch>
                    <step>D</step>
                    <alter>1</alter>
                    <octave>5</octave>
                </pitch>
                <duration>2</duration>
                <voice>1</voice>
                <type>quarter</type>
                <stem>down</stem>
            </note>
            <note default-y="-15.00" default-x="59.38">
                <pitch>
                    <step>C</step>
                    <alter>1</alter>
                    <octave>5</octave>
                </pitch>
                <duration>2</duration>
                <voice>1</voice>
                <type>quarter</type>
                <stem>down</stem>
            </note>
            <note default-y="-15.00" default-x="83.07">
                <pitch>
                    <step>C</step>
                    <alter>1</alter>
                    <octave>5</octave>
                </pitch>
                <duration>2</duration>
                <voice>1</voice>
                <type>quarter</type>
                <stem>down</stem>
            </note>
        </measure>
        <measure width="91.93" number="4">
            <note default-y="-20.00" default-x="12.00">
                <pitch>
                    <step>B</step>
                    <octave>4</octave>
                </pitch>
                <duration>2</duration>
                <voice>1</voice>
                <type>quarter</type>
                <stem>down</stem>
            </note>
            <note default-y="-20.00" default-x="33.76">
                <pitch>
                    <step>B</step>
                    <octave>4</octave>
                </pitch>
                <duration>2</duration>
                <voice>1</voice>
                <type>quarter</type>
                <stem>down</stem>
            </note>
            <note default-y="-25.00" default-x="55.52">
                <pitch>
                    <step>A</step>
                    <alter>1</alter>
                    <octave>4</octave>
                </pitch>
                <duration>4</duration>
                <voice>1</voice>
                <type>half</type>
                <stem>up</stem>
            </note>
        </measure>
        <measure width="108.35" number="5">
            <note default-y="-35.00" default-x="12.00">
                <pitch>
                    <step>F</step>
                    <alter>1</alter>
                    <octave>4</octave>
                </pitch>
                <duration>2</duration>
                <voice>1</voice>
                <type>quarter</type>
                <stem>up</stem>
            </note>
            <note default-y="-30.00" default-x="35.69">
                <pitch>
                    <step>G</step>
                    <alter>1</alter>
                    <octave>4</octave>
                </pitch>
                <duration>2</duration>
                <voice>1</voice>
                <type>quarter</type>
                <stem>up</stem>
            </note>
            <note default-y="-25.00" default-x="59.38">
                <pitch>
                    <step>A</step>
                    <alter>1</alter>
                    <octave>4</octave>
                </pitch>
                <duration>2</duration>
                <voice>1</voice>
                <type>quarter</type>
                <stem>up</stem>
            </note>
            <note default-y="-25.00" default-x="83.07">
                <pitch>
                    <step>A</step>
                    <alter>1</alter>
                    <octave>4</octave>
                </pitch>
                <duration>2</duration>
                <voice>1</voice>
                <type>quarter</type>
                <stem>up</stem>
            </note>
        </measure>
        <measure width="137.65" number="6">
            <note default-y="-20.00" default-x="12.00">
                <pitch>
                    <step>B</step>
                    <octave>4</octave>
                </pitch>
                <duration>4</duration>
                <voice>1</voice>
                <type>half</type>
                <stem>down</stem>
            </note>
            <note default-y="-20.00" default-x="54.68">
                <pitch>
                    <step>B</step>
                    <alter>-1</alter>
                    <octave>4</octave>
                </pitch>
                <duration>1</duration>
                <voice>1</voice>
                <type>eighth</type>
                <accidental>flat</accidental>
                <stem>up</stem>
                <beam number="1">begin</beam>
            </note>
            <note default-y="-25.00" default-x="74.09">
                <pitch>
                    <step>A</step>
                    <alter>1</alter>
                    <octave>4</octave>
                </pitch>
                <duration>1</duration>
                <voice>1</voice>
                <type>eighth</type>
                <stem>up</stem>
                <beam number="1">continue</beam>
            </note>
            <note default-y="-30.00" default-x="93.49">
                <pitch>
                    <step>G</step>
                    <alter>1</alter>
                    <octave>4</octave>
                </pitch>
                <duration>1</duration>
                <voice>1</voice>
                <type>eighth</type>
                <stem>up</stem>
                <beam number="1">continue</beam>
            </note>
            <note default-y="-30.00" default-x="112.89">
                <pitch>
                    <step>G</step>
                    <alter>1</alter>
                    <octave>4</octave>
                </pitch>
                <duration>1</duration>
                <voice>1</voice>
                <type>eighth</type>
                <stem>up</stem>
                <beam number="1">end</beam>
            </note>
        </measure>
        <measure width="126.25" number="7">
            <note default-y="-35.00" default-x="12.00">
                <pitch>
                    <step>F</step>
                    <alter>1</alter>
                    <octave>4</octave>
                </pitch>
                <duration>4</duration>
                <voice>1</voice>
                <type>half</type>
                <stem>up</stem>
            </note>
            <note default-y="-20.00" default-x="49.86">
                <pitch>
                    <step>B</step>
                    <octave>4</octave>
                </pitch>
                <duration>1</duration>
                <voice>1</voice>
                <type>eighth</type>
                <stem>up</stem>
                <beam number="1">begin</beam>
            </note>
            <note default-y="-25.00" default-x="67.07">
                <pitch>
                    <step>A</step>
                    <alter>1</alter>
                    <octave>4</octave>
                </pitch>
                <duration>1</duration>
                <voice>1</voice>
                <type>eighth</type>
                <stem>up</stem>
                <beam number="1">continue</beam>
            </note>
            <note default-y="-30.00" default-x="84.28">
                <pitch>
                    <step>G</step>
                    <alter>1</alter>
                    <octave>4</octave>
                </pitch>
                <duration>1</duration>
                <voice>1</voice>
                <type>eighth</type>
                <stem>up</stem>
                <beam number="1">continue</beam>
            </note>
            <note default-y="-35.00" default-x="101.49">
                <pitch>
                    <step>F</step>
                    <alter>1</alter>
                    <octave>4</octave>
                </pitch>
                <duration>1</duration>
                <voice>1</voice>
                <type>eighth</type>
                <stem>up</stem>
                <beam number="1">end</beam>
            </note>
        </measure>
        <measure width="63.51" number="8">
            <note default-y="-35.00" default-x="12.00">
                <pitch>
                    <step>F</step>
                    <alter>1</alter>
                    <octave>4</octave>
                </pitch>
                <duration>8</duration>
                <voice>1</voice>
                <type>whole</type>
            </note>
        </measure>
        <measure width="58.71" number="9">
            <note>
                <rest/>
                <duration>8</duration>
                <voice>1</voice>
            </note>
        </measure>
        <measure width="322.69" number="10">
            <print new-system="yes">
                <system-layout>
                    <system-margins>
                        <left-margin>43.37</left-margin>
                        <right-margin>0.00</right-margin>
                    </system-margins>
                    <system-distance>92.50</system-distance>
                </system-layout>
            </print>
            <note default-y="-40.00" default-x="104.15">
                <pitch>
                    <step>E</step>
                    <octave>4</octave>
                </pitch>
                <duration>4</duration>
                <voice>1</voice>
                <type>half</type>
                <stem>up</stem>
            </note>
            <note default-y="-35.00" default-x="181.13">
                <pitch>
                    <step>F</step>
                    <alter>1</alter>
                    <octave>4</octave>
                </pitch>
                <duration>1</duration>
                <voice>1</voice>
                <type>eighth</type>
                <stem>up</stem>
                <beam number="1">begin</beam>
            </note>
            <note default-y="-30.00" default-x="216.12">
                <pitch>
                    <step>G</step>
                    <alter>1</alter>
                    <octave>4</octave>
                </pitch>
                <duration>1</duration>
                <voice>1</voice>
                <type>eighth</type>
                <stem>up</stem>
                <beam number="1">continue</beam>
            </note>
            <note default-y="-25.00" default-x="251.11">
                <pitch>
                    <step>A</step>
                    <alter>1</alter>
                    <octave>4</octave>
                </pitch>
                <duration>1</duration>
                <voice>1</voice>
                <type>eighth</type>
                <stem>up</stem>
                <beam number="1">continue</beam>
            </note>
            <note default-y="-20.00" default-x="286.10">
                <pitch>
                    <step>B</step>
                    <octave>4</octave>
                </pitch>
                <duration>1</duration>
                <voice>1</voice>
                <type>eighth</type>
                <stem>up</stem>
                <beam number="1">end</beam>
            </note>
        </measure>
        <measure width="301.29" number="11">
            <note default-y="-20.00" default-x="28.90">
                <pitch>
                    <step>B</step>
                    <alter>-1</alter>
                    <octave>4</octave>
                </pitch>
                <duration>1</duration>
                <voice>1</voice>
                <type>eighth</type>
                <accidental>flat</accidental>
                <stem>down</stem>
            </note>
            <note default-y="-20.00" default-x="64.53">
                <pitch>
                    <step>B</step>
                    <alter>-1</alter>
                    <octave>4</octave>
                </pitch>
                <duration>2</duration>
                <voice>1</voice>
                <type>quarter</type>
                <accidental>flat</accidental>
                <stem>down</stem>
            </note>
            <note default-y="-20.00" default-x="121.54">
                <pitch>
                    <step>B</step>
                    <octave>4</octave>
                </pitch>
                <duration>1</duration>
                <voice>1</voice>
                <type>eighth</type>
                <accidental>natural</accidental>
                <stem>down</stem>
            </note>
            <note default-y="-25.00" default-x="157.17">
                <pitch>
                    <step>A</step>
                    <alter>1</alter>
                    <octave>4</octave>
                </pitch>
                <duration>1</duration>
                <voice>1</voice>
                <type>eighth</type>
                <stem>up</stem>
                <beam number="1">begin</beam>
            </note>
            <note default-y="-25.00" default-x="192.80">
                <pitch>
                    <step>A</step>
                    <alter>1</alter>
                    <octave>4</octave>
                </pitch>
                <duration>1</duration>
                <voice>1</voice>
                <type>eighth</type>
                <stem>up</stem>
                <beam number="1">continue</beam>
            </note>
            <note default-y="-30.00" default-x="228.43">
                <pitch>
                    <step>G</step>
                    <alter>1</alter>
                    <octave>4</octave>
                </pitch>
                <duration>1</duration>
                <voice>1</voice>
                <type>eighth</type>
                <stem>up</stem>
                <beam number="1">continue</beam>
            </note>
            <note default-y="-35.00" default-x="264.06">
                <pitch>
                    <step>F</step>
                    <alter>1</alter>
                    <octave>4</octave>
                </pitch>
                <duration>1</duration>
                <voice>1</voice>
                <type>eighth</type>
                <stem>up</stem>
                <beam number="1">end</beam>
            </note>
        </measure>
        <measure width="236.04" number="12">
            <note default-y="-30.00" default-x="17.50">
                <pitch>
                    <step>G</step>
                    <alter>1</alter>
                    <octave>4</octave>
                </pitch>
                <duration>4</duration>
                <voice>1</voice>
                <type>half</type>
                <stem>up</stem>
            </note>
            <note default-y="-25.00" default-x="94.48">
                <pitch>
                    <step>A</step>
                    <alter>1</alter>
                    <octave>4</octave>
                </pitch>
                <duration>1</duration>
                <voice>1</voice>
                <type>eighth</type>
                <stem>up</stem>
                <beam number="1">begin</beam>
            </note>
            <note default-y="-20.00" default-x="129.47">
                <pitch>
                    <step>B</step>
                    <octave>4</octave>
                </pitch>
                <duration>1</duration>
                <voice>1</voice>
                <type>eighth</type>
                <stem>up</stem>
                <beam number="1">continue</beam>
            </note>
            <note default-y="-15.00" default-x="164.46">
                <pitch>
                    <step>C</step>
                    <alter>1</alter>
                    <octave>5</octave>
                </pitch>
                <duration>1</duration>
                <voice>1</voice>
                <type>eighth</type>
                <stem>up</stem>
                <beam number="1">continue</beam>
            </note>
            <note default-y="-30.00" default-x="199.45">
                <pitch>
                    <step>G</step>
                    <alter>1</alter>
                    <octave>4</octave>
                </pitch>
                <duration>1</duration>
                <voice>1</voice>
                <type>eighth</type>
                <stem>up</stem>
                <beam number="1">end</beam>
            </note>
        </measure>
        <measure width="173.79" number="13">
            <note default-y="-35.00" default-x="12.00">
                <pitch>
                    <step>F</step>
                    <alter>1</alter>
                    <octave>4</octave>
                </pitch>
                <duration>8</duration>
                <voice>1</voice>
                <type>whole</type>
            </note>
            <barline location="right">
                <bar-style>light-heavy</bar-style>
            </barline>
        </measure>
    </part>
</score-partwise>
