<?xml version="1.0" encoding="UTF-8"?>
<!DOCTYPE score-partwise PUBLIC "-//Recordare//DTD MusicXML 2.0 Partwise//EN" "http://www.musicxml.org/dtds/partwise.dtd">
<score-partwise version="2.0">
    <work>
        <work-number></work-number>
        <work-title></work-title>
    </work>
    <movement-number></movement-number>
    <movement-title>The Stripper</movement-title>
    <identification>
        <creator type="composer">David Rose</creator>
        <creator type="poet"></creator>
        <rights>All Rights Reserved</rights>
        <encoding>
            <software>MuseScore 1.0</software>
            <encoding-date>2011-05-28</encoding-date>
            <software>ProxyMusic 2.0 c</software>
        </encoding>
        <source>http://wikifonia.org/node/10975/revisions/14828/view</source>
    </identification>
    <defaults>
        <scaling>
            <millimeters>7.056</millimeters>
            <tenths>40</tenths>
        </scaling>
        <page-layout>
            <page-height>1683.67</page-height>
            <page-width>1190.48</page-width>
            <page-margins type="even">
                <left-margin>56.6893</left-margin>
                <right-margin>56.6893</right-margin>
                <top-margin>56.6893</top-margin>
                <bottom-margin>113.379</bottom-margin>
            </page-margins>
            <page-margins type="odd">
                <left-margin>56.6893</left-margin>
                <right-margin>56.6893</right-margin>
                <top-margin>56.6893</top-margin>
                <bottom-margin>113.379</bottom-margin>
            </page-margins>
        </page-layout>
    </defaults>
    <credit page="1">
        <credit-words font-size="24" default-y="1626.98" default-x="595.238" justify="center" valign="top">The Stripper</credit-words>
    </credit>
    <part-list>
        <part-group type="start" number="1">
            <group-symbol>brace</group-symbol>
        </part-group>
        <score-part id="P1">
            <part-name>Piano</part-name>
            <part-abbreviation>Pno.</part-abbreviation>
            <score-instrument id="P1-I3">
                <instrument-name>Piano</instrument-name>
            </score-instrument>
            <midi-instrument id="P1-I3">
                <midi-channel>1</midi-channel>
                <midi-program>1</midi-program>
            </midi-instrument>
        </score-part>
    </part-list>
    <part id="P1">
        <measure width="303.95" number="1">
            <print>
                <system-layout>
                    <system-margins>
                        <left-margin>90.11</left-margin>
                        <right-margin>-0.00</right-margin>
                    </system-margins>
                    <top-system-distance>241.23</top-system-distance>
                </system-layout>
            </print>
            <barline location="left">
                <bar-style>heavy-light</bar-style>
                <repeat direction="forward"/>
            </barline>
            <attributes>
                <divisions>4</divisions>
                <key>
                    <fifths>-1</fifths>
                    <mode>major</mode>
                </key>
                <time>
                    <beats>4</beats>
                    <beat-type>4</beat-type>
                </time>
                <clef>
                    <sign>G</sign>
                    <line>2</line>
                </clef>
            </attributes>
            <harmony print-frame="no">
                <root>
                    <root-step>F</root-step>
                </root>
                <kind text="">major</kind>
            </harmony>
            <note default-y="-50.00" default-x="98.03">
                <pitch>
                    <step>C</step>
                    <octave>4</octave>
                </pitch>
                <duration>2</duration>
                <voice>1</voice>
                <type>eighth</type>
                <stem>up</stem>
            </note>
            <note default-y="-45.00" default-x="129.04">
                <pitch>
                    <step>D</step>
                    <octave>4</octave>
                </pitch>
                <duration>4</duration>
                <voice>1</voice>
                <type>quarter</type>
                <stem>up</stem>
            </note>
            <note default-y="-35.00" default-x="178.66">
                <pitch>
                    <step>F</step>
                    <octave>4</octave>
                </pitch>
                <duration>2</duration>
                <tie type="start"/>
                <voice>1</voice>
                <type>eighth</type>
                <stem>up</stem>
                <notations>
                    <tied type="start"/>
                </notations>
            </note>
            <note default-y="-35.00" default-x="209.67">
                <pitch>
                    <step>F</step>
                    <octave>4</octave>
                </pitch>
                <duration>6</duration>
                <tie type="stop"/>
                <voice>1</voice>
                <type>quarter</type>
                <dot/>
                <stem>up</stem>
                <notations>
                    <tied type="stop"/>
                </notations>
            </note>
            <note default-y="-25.00" default-x="270.17">
                <pitch>
                    <step>A</step>
                    <octave>4</octave>
                </pitch>
                <duration>2</duration>
                <voice>1</voice>
                <type>eighth</type>
                <stem>up</stem>
            </note>
        </measure>
        <measure width="195.38" number="2">
            <harmony print-frame="no">
                <root>
                    <root-step>B</root-step>
                    <root-alter>-1</root-alter>
                </root>
                <kind text="m6">minor-sixth</kind>
            </harmony>
            <note default-y="-30.00" default-x="12.00">
                <pitch>
                    <step>G</step>
                    <octave>4</octave>
                </pitch>
                <duration>2</duration>
                <voice>1</voice>
                <type>eighth</type>
                <stem>up</stem>
            </note>
            <note default-y="-35.00" default-x="43.34">
                <pitch>
                    <step>F</step>
                    <octave>4</octave>
                </pitch>
                <duration>4</duration>
                <voice>1</voice>
                <type>quarter</type>
                <stem>up</stem>
            </note>
            <note default-y="-45.00" default-x="93.49">
                <pitch>
                    <step>D</step>
                    <alter>-1</alter>
                    <octave>4</octave>
                </pitch>
                <duration>2</duration>
                <tie type="start"/>
                <voice>1</voice>
                <type>eighth</type>
                <accidental>flat</accidental>
                <stem>up</stem>
                <notations>
                    <tied type="start"/>
                </notations>
            </note>
            <note default-y="-45.00" default-x="124.83">
                <pitch>
                    <step>D</step>
                    <alter>-1</alter>
                    <octave>4</octave>
                </pitch>
                <duration>8</duration>
                <tie type="stop"/>
                <voice>1</voice>
                <type>half</type>
                <stem>up</stem>
                <notations>
                    <tied type="stop"/>
                </notations>
            </note>
        </measure>
        <measure width="217.92" number="3">
            <harmony print-frame="no">
                <root>
                    <root-step>F</root-step>
                </root>
                <kind text="">major</kind>
            </harmony>
            <note default-y="-50.00" default-x="12.00">
                <pitch>
                    <step>C</step>
                    <octave>4</octave>
                </pitch>
                <duration>2</duration>
                <voice>1</voice>
                <type>eighth</type>
                <stem>up</stem>
            </note>
            <note default-y="-45.00" default-x="43.01">
                <pitch>
                    <step>D</step>
                    <octave>4</octave>
                </pitch>
                <duration>4</duration>
                <voice>1</voice>
                <type>quarter</type>
                <stem>up</stem>
            </note>
            <note default-y="-35.00" default-x="92.63">
                <pitch>
                    <step>F</step>
                    <octave>4</octave>
                </pitch>
                <duration>2</duration>
                <tie type="start"/>
                <voice>1</voice>
                <type>eighth</type>
                <stem>up</stem>
                <notations>
                    <tied type="start"/>
                </notations>
            </note>
            <note default-y="-35.00" default-x="123.64">
                <pitch>
                    <step>F</step>
                    <octave>4</octave>
                </pitch>
                <duration>6</duration>
                <tie type="stop"/>
                <voice>1</voice>
                <type>quarter</type>
                <dot/>
                <stem>up</stem>
                <notations>
                    <tied type="stop"/>
                </notations>
            </note>
            <note default-y="-25.00" default-x="184.15">
                <pitch>
                    <step>A</step>
                    <octave>4</octave>
                </pitch>
                <duration>2</duration>
                <voice>1</voice>
                <type>eighth</type>
                <stem>up</stem>
            </note>
        </measure>
        <measure width="269.74" number="4">
            <harmony print-frame="no">
                <root>
                    <root-step>F</root-step>
                </root>
                <kind text="7">dominant</kind>
            </harmony>
            <note default-y="-15.00" default-x="12.00">
                <pitch>
                    <step>C</step>
                    <octave>5</octave>
                </pitch>
                <duration>2</duration>
                <voice>1</voice>
                <type>eighth</type>
                <stem>down</stem>
            </note>
            <harmony print-frame="no">
                <root>
                    <root-step>E</root-step>
                </root>
                <kind text="7">dominant</kind>
            </harmony>
            <note default-y="-20.00" default-x="49.67">
                <pitch>
                    <step>B</step>
                    <octave>4</octave>
                </pitch>
                <duration>4</duration>
                <voice>1</voice>
                <type>quarter</type>
                <accidental>natural</accidental>
                <stem>down</stem>
            </note>
            <harmony print-frame="no">
                <root>
                    <root-step>E</root-step>
                    <root-alter>-1</root-alter>
                </root>
                <kind text="7">dominant</kind>
            </harmony>
            <note default-y="-20.00" default-x="109.94">
                <pitch>
                    <step>B</step>
                    <alter>-1</alter>
                    <octave>4</octave>
                </pitch>
                <duration>2</duration>
                <tie type="start"/>
                <voice>1</voice>
                <type>eighth</type>
                <accidental>flat</accidental>
                <stem>down</stem>
                <notations>
                    <tied type="start"/>
                </notations>
            </note>
            <note default-y="-20.00" default-x="147.60">
                <pitch>
                    <step>B</step>
                    <alter>-1</alter>
                    <octave>4</octave>
                </pitch>
                <duration>4</duration>
                <tie type="stop"/>
                <voice>1</voice>
                <type>quarter</type>
                <stem>down</stem>
                <notations>
                    <tied type="stop"/>
                </notations>
            </note>
            <harmony print-frame="no">
                <root>
                    <root-step>D</root-step>
                </root>
                <kind text="7">dominant</kind>
            </harmony>
            <note default-y="-35.00" default-x="207.87">
                <pitch>
                    <step>F</step>
                    <alter>1</alter>
                    <octave>4</octave>
                </pitch>
                <duration>4</duration>
                <voice>1</voice>
                <type>quarter</type>
                <accidental>sharp</accidental>
                <stem>up</stem>
            </note>
        </measure>
        <measure width="265.72" number="5">
            <print new-system="yes">
                <system-layout>
                    <system-margins>
                        <left-margin>77.95</left-margin>
                        <right-margin>-0.00</right-margin>
                    </system-margins>
                    <system-distance>153.73</system-distance>
                </system-layout>
            </print>
            <harmony print-frame="no">
                <root>
                    <root-step>G</root-step>
                </root>
                <kind text="9">dominant-ninth</kind>
            </harmony>
            <note default-y="-25.00" default-x="62.35">
                <pitch>
                    <step>A</step>
                    <octave>4</octave>
                </pitch>
                <duration>4</duration>
                <voice>1</voice>
                <type>quarter</type>
                <stem>up</stem>
            </note>
            <note>
                <rest/>
                <duration>2</duration>
                <voice>1</voice>
                <type>eighth</type>
            </note>
            <note default-y="-25.00" default-x="133.47">
                <pitch>
                    <step>A</step>
                    <octave>4</octave>
                </pitch>
                <duration>2</duration>
                <voice>1</voice>
                <type>eighth</type>
                <stem>up</stem>
            </note>
            <note default-y="-25.00" default-x="160.83">
                <pitch>
                    <step>A</step>
                    <octave>4</octave>
                </pitch>
                <duration>4</duration>
                <voice>1</voice>
                <type>quarter</type>
                <stem>up</stem>
            </note>
            <note>
                <rest/>
                <duration>2</duration>
                <voice>1</voice>
                <type>eighth</type>
            </note>
            <note default-y="-25.00" default-x="231.95">
                <pitch>
                    <step>A</step>
                    <octave>4</octave>
                </pitch>
                <duration>2</duration>
                <voice>1</voice>
                <type>eighth</type>
                <stem>up</stem>
            </note>
        </measure>
        <measure width="215.37" number="6">
            <harmony print-frame="no">
                <root>
                    <root-step>C</root-step>
                </root>
                <kind text="9">dominant-ninth</kind>
            </harmony>
            <note default-y="-25.00" default-x="12.00">
                <pitch>
                    <step>A</step>
                    <octave>4</octave>
                </pitch>
                <duration>4</duration>
                <voice>1</voice>
                <type>quarter</type>
                <stem>up</stem>
            </note>
            <note>
                <rest/>
                <duration>2</duration>
                <voice>1</voice>
                <type>eighth</type>
            </note>
            <note default-y="-25.00" default-x="83.12">
                <pitch>
                    <step>A</step>
                    <octave>4</octave>
                </pitch>
                <duration>2</duration>
                <voice>1</voice>
                <type>eighth</type>
                <stem>up</stem>
            </note>
            <note default-y="-25.00" default-x="110.48">
                <pitch>
                    <step>A</step>
                    <octave>4</octave>
                </pitch>
                <duration>4</duration>
                <voice>1</voice>
                <type>quarter</type>
                <stem>up</stem>
            </note>
            <note>
                <rest/>
                <duration>2</duration>
                <voice>1</voice>
                <type>eighth</type>
            </note>
            <note default-y="-25.00" default-x="181.60">
                <pitch>
                    <step>A</step>
                    <octave>4</octave>
                </pitch>
                <duration>2</duration>
                <voice>1</voice>
                <type>eighth</type>
                <stem>up</stem>
            </note>
        </measure>
        <measure width="232.45" number="7">
            <harmony print-frame="no">
                <root>
                    <root-step>F</root-step>
                </root>
                <kind text="7">dominant</kind>
            </harmony>
            <note default-y="-15.00" default-x="12.00">
                <pitch>
                    <step>C</step>
                    <octave>5</octave>
                </pitch>
                <duration>2</duration>
                <voice>1</voice>
                <type>eighth</type>
                <stem>down</stem>
                <beam number="1">begin</beam>
            </note>
            <note default-y="-20.00" default-x="43.48">
                <pitch>
                    <step>B</step>
                    <octave>4</octave>
                </pitch>
                <duration>2</duration>
                <voice>1</voice>
                <type>eighth</type>
                <accidental>natural</accidental>
                <stem>down</stem>
                <beam number="1">continue</beam>
            </note>
            <note default-y="-15.00" default-x="74.97">
                <pitch>
                    <step>C</step>
                    <octave>5</octave>
                </pitch>
                <duration>2</duration>
                <voice>1</voice>
                <type>eighth</type>
                <stem>down</stem>
                <beam number="1">continue</beam>
            </note>
            <harmony print-frame="no">
                <root>
                    <root-step>D</root-step>
                    <root-alter>-1</root-alter>
                </root>
                <kind text="7">dominant</kind>
            </harmony>
            <note default-y="-10.00" default-x="106.45">
                <pitch>
                    <step>D</step>
                    <alter>-1</alter>
                    <octave>5</octave>
                </pitch>
                <duration>2</duration>
                <tie type="start"/>
                <voice>1</voice>
                <type>eighth</type>
                <accidental>flat</accidental>
                <stem>down</stem>
                <beam number="1">end</beam>
                <notations>
                    <tied type="start"/>
                </notations>
            </note>
            <note default-y="-10.00" default-x="137.94">
                <pitch>
                    <step>D</step>
                    <alter>-1</alter>
                    <octave>5</octave>
                </pitch>
                <duration>6</duration>
                <tie type="stop"/>
                <voice>1</voice>
                <type>quarter</type>
                <dot/>
                <stem>down</stem>
                <notations>
                    <tied type="stop"/>
                </notations>
            </note>
            <note default-y="-10.00" default-x="199.36">
                <pitch>
                    <step>D</step>
                    <alter>-1</alter>
                    <octave>5</octave>
                </pitch>
                <duration>2</duration>
                <voice>1</voice>
                <type>eighth</type>
                <stem>down</stem>
            </note>
        </measure>
        <measure width="285.60" number="8">
            <harmony print-frame="no">
                <root>
                    <root-step>G</root-step>
                </root>
                <kind text="m7">minor-seventh</kind>
            </harmony>
            <note default-y="-10.00" default-x="12.47">
                <pitch>
                    <step>D</step>
                    <octave>5</octave>
                </pitch>
                <duration>4</duration>
                <voice>1</voice>
                <type>quarter</type>
                <accidental>natural</accidental>
                <stem>down</stem>
            </note>
            <note default-y="-20.00" default-x="78.79">
                <pitch>
                    <step>B</step>
                    <alter>-1</alter>
                    <octave>4</octave>
                </pitch>
                <duration>2</duration>
                <voice>1</voice>
                <type>eighth</type>
                <stem>up</stem>
                <beam number="1">begin</beam>
            </note>
            <harmony print-frame="no">
                <root>
                    <root-step>G</root-step>
                </root>
                <kind text="9b5">dominant-ninth</kind>
                <degree>
                    <degree-value>5</degree-value>
                    <degree-alter>-1</degree-alter>
                    <degree-type>alter</degree-type>
                </degree>
            </harmony>
            <note default-y="-25.00" default-x="120.24">
                <pitch>
                    <step>A</step>
                    <octave>4</octave>
                </pitch>
                <duration>2</duration>
                <tie type="start"/>
                <voice>1</voice>
                <type>eighth</type>
                <stem>up</stem>
                <beam number="1">end</beam>
                <notations>
                    <tied type="start"/>
                </notations>
            </note>
            <note default-y="-25.00" default-x="161.69">
                <pitch>
                    <step>A</step>
                    <octave>4</octave>
                </pitch>
                <duration>2</duration>
                <tie type="stop"/>
                <voice>1</voice>
                <type>eighth</type>
                <stem>up</stem>
                <notations>
                    <tied type="stop"/>
                </notations>
            </note>
            <harmony print-frame="no">
                <root>
                    <root-step>C</root-step>
                </root>
                <kind text="7">dominant</kind>
            </harmony>
            <note default-y="-30.00" default-x="203.14">
                <pitch>
                    <step>G</step>
                    <octave>4</octave>
                </pitch>
                <duration>6</duration>
                <voice>1</voice>
                <type>quarter</type>
                <dot/>
                <stem>up</stem>
            </note>
        </measure>
        <measure width="276.63" number="9">
            <print new-system="yes">
                <system-layout>
                    <system-margins>
                        <left-margin>77.95</left-margin>
                        <right-margin>-0.00</right-margin>
                    </system-margins>
                    <system-distance>153.73</system-distance>
                </system-layout>
            </print>
            <harmony print-frame="no">
                <root>
                    <root-step>F</root-step>
                </root>
                <kind text="">major</kind>
            </harmony>
            <note default-y="-50.00" default-x="62.35">
                <pitch>
                    <step>C</step>
                    <octave>4</octave>
                </pitch>
                <duration>2</duration>
                <voice>1</voice>
                <type>eighth</type>
                <stem>up</stem>
            </note>
            <note default-y="-45.00" default-x="94.82">
                <pitch>
                    <step>D</step>
                    <octave>4</octave>
                </pitch>
                <duration>4</duration>
                <voice>1</voice>
                <type>quarter</type>
                <stem>up</stem>
            </note>
            <note default-y="-35.00" default-x="146.76">
                <pitch>
                    <step>F</step>
                    <octave>4</octave>
                </pitch>
                <duration>2</duration>
                <tie type="start"/>
                <voice>1</voice>
                <type>eighth</type>
                <stem>up</stem>
                <notations>
                    <tied type="start"/>
                </notations>
            </note>
            <note default-y="-35.00" default-x="179.23">
                <pitch>
                    <step>F</step>
                    <octave>4</octave>
                </pitch>
                <duration>6</duration>
                <tie type="stop"/>
                <voice>1</voice>
                <type>quarter</type>
                <dot/>
                <stem>up</stem>
                <notations>
                    <tied type="stop"/>
                </notations>
            </note>
            <note default-y="-25.00" default-x="242.57">
                <pitch>
                    <step>A</step>
                    <octave>4</octave>
                </pitch>
                <duration>2</duration>
                <voice>1</voice>
                <type>eighth</type>
                <stem>up</stem>
            </note>
        </measure>
        <measure width="203.75" number="10">
            <harmony print-frame="no">
                <root>
                    <root-step>B</root-step>
                    <root-alter>-1</root-alter>
                </root>
                <kind text="m6">minor-sixth</kind>
            </harmony>
            <note default-y="-30.00" default-x="12.00">
                <pitch>
                    <step>G</step>
                    <octave>4</octave>
                </pitch>
                <duration>2</duration>
                <voice>1</voice>
                <type>eighth</type>
                <stem>up</stem>
            </note>
            <note default-y="-35.00" default-x="44.78">
                <pitch>
                    <step>F</step>
                    <octave>4</octave>
                </pitch>
                <duration>4</duration>
                <voice>1</voice>
                <type>quarter</type>
                <stem>up</stem>
            </note>
            <note default-y="-45.00" default-x="97.24">
                <pitch>
                    <step>D</step>
                    <alter>-1</alter>
                    <octave>4</octave>
                </pitch>
                <duration>2</duration>
                <tie type="start"/>
                <voice>1</voice>
                <type>eighth</type>
                <accidental>flat</accidental>
                <stem>up</stem>
                <notations>
                    <tied type="start"/>
                </notations>
            </note>
            <note default-y="-45.00" default-x="130.02">
                <pitch>
                    <step>D</step>
                    <alter>-1</alter>
                    <octave>4</octave>
                </pitch>
                <duration>8</duration>
                <tie type="stop"/>
                <voice>1</voice>
                <type>half</type>
                <stem>up</stem>
                <notations>
                    <tied type="stop"/>
                </notations>
            </note>
        </measure>
        <measure width="226.28" number="11">
            <harmony print-frame="no">
                <root>
                    <root-step>F</root-step>
                </root>
                <kind text="">major</kind>
            </harmony>
            <note default-y="-50.00" default-x="12.00">
                <pitch>
                    <step>C</step>
                    <octave>4</octave>
                </pitch>
                <duration>2</duration>
                <voice>1</voice>
                <type>eighth</type>
                <stem>up</stem>
            </note>
            <note default-y="-45.00" default-x="44.47">
                <pitch>
                    <step>D</step>
                    <octave>4</octave>
                </pitch>
                <duration>4</duration>
                <voice>1</voice>
                <type>quarter</type>
                <stem>up</stem>
            </note>
            <note default-y="-35.00" default-x="96.41">
                <pitch>
                    <step>F</step>
                    <octave>4</octave>
                </pitch>
                <duration>2</duration>
                <tie type="start"/>
                <voice>1</voice>
                <type>eighth</type>
                <stem>up</stem>
                <notations>
                    <tied type="start"/>
                </notations>
            </note>
            <note default-y="-35.00" default-x="128.88">
                <pitch>
                    <step>F</step>
                    <octave>4</octave>
                </pitch>
                <duration>6</duration>
                <tie type="stop"/>
                <voice>1</voice>
                <type>quarter</type>
                <dot/>
                <stem>up</stem>
                <notations>
                    <tied type="stop"/>
                </notations>
            </note>
            <note default-y="-25.00" default-x="192.21">
                <pitch>
                    <step>A</step>
                    <octave>4</octave>
                </pitch>
                <duration>2</duration>
                <voice>1</voice>
                <type>eighth</type>
                <stem>up</stem>
            </note>
        </measure>
        <measure width="292.49" number="12">
            <harmony print-frame="no">
                <root>
                    <root-step>F</root-step>
                </root>
                <kind text="7">dominant</kind>
            </harmony>
            <note default-y="-15.00" default-x="12.00">
                <pitch>
                    <step>C</step>
                    <octave>5</octave>
                </pitch>
                <duration>2</duration>
                <voice>1</voice>
                <type>eighth</type>
                <stem>down</stem>
            </note>
            <harmony print-frame="no">
                <root>
                    <root-step>E</root-step>
                </root>
                <kind text="7">dominant</kind>
            </harmony>
            <note default-y="-20.00" default-x="53.01">
                <pitch>
                    <step>B</step>
                    <octave>4</octave>
                </pitch>
                <duration>4</duration>
                <voice>1</voice>
                <type>quarter</type>
                <accidental>natural</accidental>
                <stem>down</stem>
            </note>
            <harmony print-frame="no">
                <root>
                    <root-step>E</root-step>
                    <root-alter>-1</root-alter>
                </root>
                <kind text="7">dominant</kind>
            </harmony>
            <note default-y="-20.00" default-x="118.63">
                <pitch>
                    <step>B</step>
                    <alter>-1</alter>
                    <octave>4</octave>
                </pitch>
                <duration>2</duration>
                <tie type="start"/>
                <voice>1</voice>
                <type>eighth</type>
                <accidental>flat</accidental>
                <stem>down</stem>
                <notations>
                    <tied type="start"/>
                </notations>
            </note>
            <note default-y="-20.00" default-x="159.65">
                <pitch>
                    <step>B</step>
                    <alter>-1</alter>
                    <octave>4</octave>
                </pitch>
                <duration>4</duration>
                <tie type="stop"/>
                <voice>1</voice>
                <type>quarter</type>
                <stem>down</stem>
                <notations>
                    <tied type="stop"/>
                </notations>
            </note>
            <harmony print-frame="no">
                <root>
                    <root-step>D</root-step>
                </root>
                <kind text="7">dominant</kind>
            </harmony>
            <note default-y="-35.00" default-x="225.27">
                <pitch>
                    <step>F</step>
                    <alter>1</alter>
                    <octave>4</octave>
                </pitch>
                <duration>4</duration>
                <voice>1</voice>
                <type>quarter</type>
                <accidental>sharp</accidental>
                <stem>up</stem>
            </note>
        </measure>
        <measure width="226.37" number="13">
            <print new-system="yes">
                <system-layout>
                    <system-margins>
                        <left-margin>77.95</left-margin>
                        <right-margin>-0.00</right-margin>
                    </system-margins>
                    <system-distance>153.73</system-distance>
                </system-layout>
            </print>
            <harmony print-frame="no">
                <root>
                    <root-step>G</root-step>
                </root>
                <kind text="9">dominant-ninth</kind>
            </harmony>
            <note default-y="-25.00" default-x="62.35">
                <pitch>
                    <step>A</step>
                    <octave>4</octave>
                </pitch>
                <duration>4</duration>
                <voice>1</voice>
                <type>quarter</type>
                <stem>up</stem>
            </note>
            <note>
                <rest/>
                <duration>2</duration>
                <voice>1</voice>
                <type>eighth</type>
            </note>
            <note default-y="-25.00" default-x="114.39">
                <pitch>
                    <step>A</step>
                    <octave>4</octave>
                </pitch>
                <duration>2</duration>
                <voice>1</voice>
                <type>eighth</type>
                <stem>up</stem>
            </note>
            <note default-y="-25.00" default-x="140.56">
                <pitch>
                    <step>A</step>
                    <octave>4</octave>
                </pitch>
                <duration>4</duration>
                <voice>1</voice>
                <type>quarter</type>
                <stem>up</stem>
            </note>
            <note>
                <rest/>
                <duration>2</duration>
                <voice>1</voice>
                <type>eighth</type>
            </note>
            <note default-y="-25.00" default-x="192.60">
                <pitch>
                    <step>A</step>
                    <octave>4</octave>
                </pitch>
                <duration>2</duration>
                <voice>1</voice>
                <type>eighth</type>
                <stem>up</stem>
            </note>
        </measure>
        <measure width="176.02" number="14">
            <harmony print-frame="no">
                <root>
                    <root-step>C</root-step>
                </root>
                <kind text="9">dominant-ninth</kind>
            </harmony>
            <note default-y="-25.00" default-x="12.00">
                <pitch>
                    <step>A</step>
                    <octave>4</octave>
                </pitch>
                <duration>4</duration>
                <voice>1</voice>
                <type>quarter</type>
                <stem>up</stem>
            </note>
            <note>
                <rest/>
                <duration>2</duration>
                <voice>1</voice>
                <type>eighth</type>
            </note>
            <note default-y="-25.00" default-x="64.04">
                <pitch>
                    <step>A</step>
                    <octave>4</octave>
                </pitch>
                <duration>2</duration>
                <voice>1</voice>
                <type>eighth</type>
                <stem>up</stem>
            </note>
            <note default-y="-25.00" default-x="90.21">
                <pitch>
                    <step>A</step>
                    <octave>4</octave>
                </pitch>
                <duration>4</duration>
                <voice>1</voice>
                <type>quarter</type>
                <stem>up</stem>
            </note>
            <note>
                <rest/>
                <duration>2</duration>
                <voice>1</voice>
                <type>eighth</type>
            </note>
            <note default-y="-25.00" default-x="142.25">
                <pitch>
                    <step>A</step>
                    <octave>4</octave>
                </pitch>
                <duration>2</duration>
                <voice>1</voice>
                <type>eighth</type>
                <stem>up</stem>
            </note>
        </measure>
        <measure width="227.26" number="15">
            <harmony print-frame="no">
                <root>
                    <root-step>F</root-step>
                </root>
                <kind text="">major</kind>
            </harmony>
            <note default-y="-35.00" default-x="12.00">
                <pitch>
                    <step>F</step>
                    <octave>4</octave>
                </pitch>
                <duration>4</duration>
                <voice>1</voice>
                <type>quarter</type>
                <stem>up</stem>
            </note>
            <harmony print-frame="no">
                <root>
                    <root-step>F</root-step>
                </root>
                <kind text="7">dominant</kind>
            </harmony>
            <note default-y="-15.00" default-x="49.13">
                <pitch>
                    <step>C</step>
                    <octave>5</octave>
                </pitch>
                <duration>3</duration>
                <voice>1</voice>
                <type>eighth</type>
                <dot/>
                <stem>down</stem>
                <beam number="1">begin</beam>
            </note>
            <note default-y="-15.00" default-x="82.05">
                <pitch>
                    <step>C</step>
                    <octave>5</octave>
                </pitch>
                <duration>1</duration>
                <voice>1</voice>
                <type>16th</type>
                <stem>down</stem>
                <beam number="1">end</beam>
                <beam number="2">backward hook</beam>
            </note>
            <harmony print-frame="no">
                <root>
                    <root-step>F</root-step>
                </root>
                <kind text="dim">diminished</kind>
            </harmony>
            <note default-y="-20.00" default-x="108.08">
                <pitch>
                    <step>B</step>
                    <octave>4</octave>
                </pitch>
                <duration>3</duration>
                <voice>1</voice>
                <type>eighth</type>
                <dot/>
                <accidental>natural</accidental>
                <stem>down</stem>
                <beam number="1">begin</beam>
            </note>
            <note default-y="-20.00" default-x="141.01">
                <pitch>
                    <step>B</step>
                    <octave>4</octave>
                </pitch>
                <duration>1</duration>
                <voice>1</voice>
                <type>16th</type>
                <stem>down</stem>
                <beam number="1">continue</beam>
                <beam number="2">forward hook</beam>
            </note>
            <harmony print-frame="no">
                <root>
                    <root-step>B</root-step>
                    <root-alter>-1</root-alter>
                </root>
                <kind text="m">minor</kind>
            </harmony>
            <note default-y="-20.00" default-x="169.57">
                <pitch>
                    <step>B</step>
                    <alter>-1</alter>
                    <octave>4</octave>
                </pitch>
                <duration>3</duration>
                <voice>1</voice>
                <type>eighth</type>
                <dot/>
                <accidental>flat</accidental>
                <stem>down</stem>
                <beam number="1">continue</beam>
            </note>
            <note default-y="-20.00" default-x="202.49">
                <pitch>
                    <step>B</step>
                    <alter>-1</alter>
                    <octave>4</octave>
                </pitch>
                <duration>1</duration>
                <voice>1</voice>
                <type>16th</type>
                <stem>down</stem>
                <beam number="1">end</beam>
                <beam number="2">backward hook</beam>
            </note>
        </measure>
        <measure width="190.19" number="16">
            <harmony print-frame="no">
                <root>
                    <root-step>F</root-step>
                </root>
                <kind text="">major</kind>
            </harmony>
            <note default-y="-25.00" default-x="12.00">
                <pitch>
                    <step>A</step>
                    <octave>4</octave>
                </pitch>
                <duration>3</duration>
                <voice>1</voice>
                <type>eighth</type>
                <dot/>
                <stem>down</stem>
                <beam number="1">begin</beam>
            </note>
            <note default-y="-20.00" default-x="43.35">
                <pitch>
                    <step>B</step>
                    <alter>-1</alter>
                    <octave>4</octave>
                </pitch>
                <duration>1</duration>
                <voice>1</voice>
                <type>16th</type>
                <stem>down</stem>
                <beam number="1">continue</beam>
                <beam number="2">forward hook</beam>
            </note>
            <note default-y="-20.00" default-x="69.38">
                <pitch>
                    <step>B</step>
                    <octave>4</octave>
                </pitch>
                <duration>3</duration>
                <voice>1</voice>
                <type>eighth</type>
                <dot/>
                <accidental>natural</accidental>
                <stem>down</stem>
                <beam number="1">continue</beam>
            </note>
            <note default-y="-15.00" default-x="100.73">
                <pitch>
                    <step>C</step>
                    <octave>5</octave>
                </pitch>
                <duration>1</duration>
                <tie type="start"/>
                <voice>1</voice>
                <type>16th</type>
                <stem>down</stem>
                <beam number="1">end</beam>
                <beam number="2">backward hook</beam>
                <notations>
                    <tied type="start"/>
                </notations>
            </note>
            <note default-y="-15.00" default-x="117.89">
                <pitch>
                    <step>C</step>
                    <octave>5</octave>
                </pitch>
                <duration>4</duration>
                <tie type="stop"/>
                <voice>1</voice>
                <type>quarter</type>
                <stem>down</stem>
                <notations>
                    <tied type="stop"/>
                </notations>
            </note>
            <note default-y="-35.00" default-x="153.24">
                <pitch>
                    <step>F</step>
                    <octave>4</octave>
                </pitch>
                <duration>4</duration>
                <voice>1</voice>
                <type>quarter</type>
                <stem>up</stem>
            </note>
        </measure>
        <measure width="179.30" number="17">
            <harmony print-frame="no">
                <root>
                    <root-step>F</root-step>
                </root>
                <kind text="7">dominant</kind>
            </harmony>
            <note default-y="-5.00" default-x="15.00">
                <pitch>
                    <step>E</step>
                    <alter>-1</alter>
                    <octave>5</octave>
                </pitch>
                <duration>8</duration>
                <tie type="start"/>
                <voice>1</voice>
                <type>half</type>
                <accidental>flat</accidental>
                <stem>down</stem>
                <notations>
                    <tied type="start"/>
                </notations>
            </note>
            <note default-y="-5.00" default-x="61.37">
                <pitch>
                    <step>E</step>
                    <alter>-1</alter>
                    <octave>5</octave>
                </pitch>
                <duration>3</duration>
                <tie type="stop"/>
                <voice>1</voice>
                <type>eighth</type>
                <dot/>
                <stem>down</stem>
                <beam number="1">begin</beam>
                <notations>
                    <tied type="stop"/>
                </notations>
            </note>
            <note default-y="-10.00" default-x="93.67">
                <pitch>
                    <step>D</step>
                    <octave>5</octave>
                </pitch>
                <duration>1</duration>
                <voice>1</voice>
                <type>16th</type>
                <stem>down</stem>
                <beam number="1">continue</beam>
                <beam number="2">forward hook</beam>
            </note>
            <note default-y="-10.00" default-x="122.23">
                <pitch>
                    <step>D</step>
                    <alter>-1</alter>
                    <octave>5</octave>
                </pitch>
                <duration>3</duration>
                <voice>1</voice>
                <type>eighth</type>
                <dot/>
                <accidental>flat</accidental>
                <stem>down</stem>
                <beam number="1">continue</beam>
            </note>
            <note default-y="-15.00" default-x="154.54">
                <pitch>
                    <step>C</step>
                    <octave>5</octave>
                </pitch>
                <duration>1</duration>
                <voice>1</voice>
                <type>16th</type>
                <stem>down</stem>
                <beam number="1">end</beam>
                <beam number="2">backward hook</beam>
            </note>
        </measure>
        <measure width="207.71" number="18">
            <print new-system="yes">
                <system-layout>
                    <system-margins>
                        <left-margin>77.95</left-margin>
                        <right-margin>-0.00</right-margin>
                    </system-margins>
                    <system-distance>153.73</system-distance>
                </system-layout>
            </print>
            <direction placement="above">
                <direction-type>
                    <words>(drums)</words>
                </direction-type>
            </direction>
            <note default-y="-20.00" default-x="62.35">
                <pitch>
                    <step>B</step>
                    <alter>-1</alter>
                    <octave>4</octave>
                </pitch>
                <duration>4</duration>
                <voice>1</voice>
                <type>quarter</type>
                <stem>down</stem>
            </note>
            <note default-y="-20.00" default-x="88.41">
                <pitch>
                    <step>B</step>
                    <alter>-1</alter>
                    <octave>4</octave>
                </pitch>
                <duration>3</duration>
                <voice>1</voice>
                <type>eighth</type>
                <dot/>
                <stem>down</stem>
                <beam number="1">begin</beam>
            </note>
            <note default-y="-20.00" default-x="114.07">
                <pitch>
                    <step>B</step>
                    <alter>-1</alter>
                    <octave>4</octave>
                </pitch>
                <duration>1</duration>
                <voice>1</voice>
                <type>16th</type>
                <stem>down</stem>
                <beam number="1">end</beam>
                <beam number="2">backward hook</beam>
            </note>
            <note default-y="-20.00" default-x="131.23">
                <pitch>
                    <step>B</step>
                    <alter>-1</alter>
                    <octave>4</octave>
                </pitch>
                <duration>4</duration>
                <voice>1</voice>
                <type>quarter</type>
                <stem>down</stem>
            </note>
            <note default-y="-20.00" default-x="157.29">
                <pitch>
                    <step>B</step>
                    <alter>-1</alter>
                    <octave>4</octave>
                </pitch>
                <duration>3</duration>
                <voice>1</voice>
                <type>eighth</type>
                <dot/>
                <stem>down</stem>
                <beam number="1">begin</beam>
            </note>
            <note default-y="-20.00" default-x="182.95">
                <pitch>
                    <step>B</step>
                    <alter>-1</alter>
                    <octave>4</octave>
                </pitch>
                <duration>1</duration>
                <voice>1</voice>
                <type>16th</type>
                <stem>down</stem>
                <beam number="1">end</beam>
                <beam number="2">backward hook</beam>
            </note>
        </measure>
        <measure width="162.46" number="19">
            <harmony print-frame="no">
                <root>
                    <root-step>F</root-step>
                </root>
                <kind text="7">dominant</kind>
            </harmony>
            <note default-y="-5.00" default-x="15.00">
                <pitch>
                    <step>E</step>
                    <alter>-1</alter>
                    <octave>5</octave>
                </pitch>
                <duration>8</duration>
                <tie type="start"/>
                <voice>1</voice>
                <type>half</type>
                <accidental>flat</accidental>
                <stem>down</stem>
                <notations>
                    <tied type="start"/>
                </notations>
            </note>
            <note default-y="-5.00" default-x="54.33">
                <pitch>
                    <step>E</step>
                    <alter>-1</alter>
                    <octave>5</octave>
                </pitch>
                <duration>3</duration>
                <tie type="stop"/>
                <voice>1</voice>
                <type>eighth</type>
                <dot/>
                <stem>down</stem>
                <beam number="1">begin</beam>
                <notations>
                    <tied type="stop"/>
                </notations>
            </note>
            <note default-y="-10.00" default-x="81.73">
                <pitch>
                    <step>D</step>
                    <octave>5</octave>
                </pitch>
                <duration>1</duration>
                <voice>1</voice>
                <type>16th</type>
                <stem>down</stem>
                <beam number="1">continue</beam>
                <beam number="2">forward hook</beam>
            </note>
            <note default-y="-10.00" default-x="110.29">
                <pitch>
                    <step>D</step>
                    <alter>-1</alter>
                    <octave>5</octave>
                </pitch>
                <duration>3</duration>
                <voice>1</voice>
                <type>eighth</type>
                <dot/>
                <accidental>flat</accidental>
                <stem>down</stem>
                <beam number="1">continue</beam>
            </note>
            <note default-y="-15.00" default-x="137.70">
                <pitch>
                    <step>C</step>
                    <octave>5</octave>
                </pitch>
                <duration>1</duration>
                <voice>1</voice>
                <type>16th</type>
                <stem>down</stem>
                <beam number="1">end</beam>
                <beam number="2">backward hook</beam>
            </note>
        </measure>
        <measure width="153.81" number="20">
            <direction placement="above">
                <direction-type>
                    <words>(drums)</words>
                </direction-type>
            </direction>
            <note default-y="-20.00" default-x="12.00">
                <pitch>
                    <step>B</step>
                    <alter>-1</alter>
                    <octave>4</octave>
                </pitch>
                <duration>4</duration>
                <voice>1</voice>
                <type>quarter</type>
                <stem>down</stem>
            </note>
            <note default-y="-20.00" default-x="36.28">
                <pitch>
                    <step>B</step>
                    <alter>-1</alter>
                    <octave>4</octave>
                </pitch>
                <duration>3</duration>
                <voice>1</voice>
                <type>eighth</type>
                <dot/>
                <stem>down</stem>
                <beam number="1">begin</beam>
            </note>
            <note default-y="-20.00" default-x="61.94">
                <pitch>
                    <step>B</step>
                    <alter>-1</alter>
                    <octave>4</octave>
                </pitch>
                <duration>1</duration>
                <voice>1</voice>
                <type>16th</type>
                <stem>down</stem>
                <beam number="1">end</beam>
                <beam number="2">backward hook</beam>
            </note>
            <note default-y="-20.00" default-x="79.10">
                <pitch>
                    <step>B</step>
                    <alter>-1</alter>
                    <octave>4</octave>
                </pitch>
                <duration>4</duration>
                <voice>1</voice>
                <type>quarter</type>
                <stem>down</stem>
            </note>
            <note default-y="-20.00" default-x="103.38">
                <pitch>
                    <step>B</step>
                    <alter>-1</alter>
                    <octave>4</octave>
                </pitch>
                <duration>3</duration>
                <voice>1</voice>
                <type>eighth</type>
                <dot/>
                <stem>down</stem>
                <beam number="1">begin</beam>
            </note>
            <note default-y="-20.00" default-x="129.04">
                <pitch>
                    <step>B</step>
                    <alter>-1</alter>
                    <octave>4</octave>
                </pitch>
                <duration>1</duration>
                <voice>1</voice>
                <type>16th</type>
                <stem>down</stem>
                <beam number="1">end</beam>
                <beam number="2">backward hook</beam>
            </note>
        </measure>
        <measure width="267.01" number="21">
            <harmony print-frame="no">
                <root>
                    <root-step>G</root-step>
                </root>
                <kind text="7">dominant</kind>
            </harmony>
            <note default-y="-10.00" default-x="12.00">
                <pitch>
                    <step>D</step>
                    <octave>5</octave>
                </pitch>
                <duration>3</duration>
                <voice>1</voice>
                <type>eighth</type>
                <dot/>
                <stem>down</stem>
                <beam number="1">begin</beam>
            </note>
            <note default-y="-10.00" default-x="52.64">
                <pitch>
                    <step>D</step>
                    <alter>-1</alter>
                    <octave>5</octave>
                </pitch>
                <duration>1</duration>
                <voice>1</voice>
                <type>16th</type>
                <accidental>flat</accidental>
                <stem>down</stem>
                <beam number="1">continue</beam>
                <beam number="2">forward hook</beam>
            </note>
            <note default-y="-15.00" default-x="73.47">
                <pitch>
                    <step>C</step>
                    <octave>5</octave>
                </pitch>
                <duration>3</duration>
                <voice>1</voice>
                <type>eighth</type>
                <dot/>
                <stem>down</stem>
                <beam number="1">continue</beam>
            </note>
            <note default-y="-20.00" default-x="114.11">
                <pitch>
                    <step>B</step>
                    <octave>4</octave>
                </pitch>
                <duration>1</duration>
                <voice>1</voice>
                <type>16th</type>
                <accidental>natural</accidental>
                <stem>down</stem>
                <beam number="1">end</beam>
                <beam number="2">backward hook</beam>
            </note>
            <note default-y="-10.00" default-x="140.14">
                <pitch>
                    <step>D</step>
                    <octave>5</octave>
                </pitch>
                <duration>3</duration>
                <voice>1</voice>
                <type>eighth</type>
                <dot/>
                <accidental>natural</accidental>
                <stem>down</stem>
                <beam number="1">begin</beam>
            </note>
            <note default-y="-10.00" default-x="180.78">
                <pitch>
                    <step>D</step>
                    <alter>-1</alter>
                    <octave>5</octave>
                </pitch>
                <duration>1</duration>
                <voice>1</voice>
                <type>16th</type>
                <accidental>flat</accidental>
                <stem>down</stem>
                <beam number="1">continue</beam>
                <beam number="2">forward hook</beam>
            </note>
            <note default-y="-15.00" default-x="201.61">
                <pitch>
                    <step>C</step>
                    <octave>5</octave>
                </pitch>
                <duration>3</duration>
                <voice>1</voice>
                <type>eighth</type>
                <dot/>
                <stem>down</stem>
                <beam number="1">continue</beam>
            </note>
            <note default-y="-20.00" default-x="242.25">
                <pitch>
                    <step>B</step>
                    <octave>4</octave>
                </pitch>
                <duration>1</duration>
                <voice>1</voice>
                <type>16th</type>
                <stem>down</stem>
                <beam number="1">end</beam>
                <beam number="2">backward hook</beam>
            </note>
        </measure>
        <measure width="208.16" number="22">
            <harmony print-frame="no">
                <root>
                    <root-step>C</root-step>
                </root>
                <kind text="7">dominant</kind>
            </harmony>
            <note default-y="-15.00" default-x="12.00">
                <pitch>
                    <step>C</step>
                    <octave>5</octave>
                </pitch>
                <duration>4</duration>
                <voice>1</voice>
                <type>quarter</type>
                <stem>down</stem>
            </note>
            <harmony print-frame="no">
                <root>
                    <root-step>G</root-step>
                </root>
                <kind text="m7">minor-seventh</kind>
            </harmony>
            <note default-y="-10.00" default-x="60.64">
                <pitch>
                    <step>D</step>
                    <octave>5</octave>
                </pitch>
                <duration>4</duration>
                <voice>1</voice>
                <type>quarter</type>
                <stem>down</stem>
            </note>
            <harmony print-frame="no">
                <root>
                    <root-step>C</root-step>
                </root>
                <kind text="dim">diminished</kind>
            </harmony>
            <note default-y="-5.00" default-x="109.28">
                <pitch>
                    <step>E</step>
                    <alter>-1</alter>
                    <octave>5</octave>
                </pitch>
                <duration>4</duration>
                <voice>1</voice>
                <type>quarter</type>
                <accidental>flat</accidental>
                <stem>down</stem>
            </note>
            <harmony print-frame="no">
                <root>
                    <root-step>C</root-step>
                </root>
                <kind text="7">dominant</kind>
            </harmony>
            <note default-y="-5.00" default-x="157.92">
                <pitch>
                    <step>E</step>
                    <octave>5</octave>
                </pitch>
                <duration>4</duration>
                <voice>1</voice>
                <type>quarter</type>
                <accidental>natural</accidental>
                <stem>down</stem>
            </note>
        </measure>
        <measure width="246.36" number="23">
            <print new-system="yes">
                <system-layout>
                    <system-margins>
                        <left-margin>77.95</left-margin>
                        <right-margin>-0.00</right-margin>
                    </system-margins>
                    <system-distance>153.73</system-distance>
                </system-layout>
            </print>
            <harmony print-frame="no">
                <root>
                    <root-step>F</root-step>
                </root>
                <kind text="">major</kind>
            </harmony>
            <note default-y="-50.00" default-x="62.35">
                <pitch>
                    <step>C</step>
                    <octave>4</octave>
                </pitch>
                <duration>2</duration>
                <voice>1</voice>
                <type>eighth</type>
                <stem>up</stem>
            </note>
            <note default-y="-45.00" default-x="89.42">
                <pitch>
                    <step>D</step>
                    <octave>4</octave>
                </pitch>
                <duration>4</duration>
                <voice>1</voice>
                <type>quarter</type>
                <stem>up</stem>
            </note>
            <note default-y="-35.00" default-x="132.72">
                <pitch>
                    <step>F</step>
                    <octave>4</octave>
                </pitch>
                <duration>2</duration>
                <tie type="start"/>
                <voice>1</voice>
                <type>eighth</type>
                <stem>up</stem>
                <notations>
                    <tied type="start"/>
                </notations>
            </note>
            <note default-y="-35.00" default-x="159.79">
                <pitch>
                    <step>F</step>
                    <octave>4</octave>
                </pitch>
                <duration>6</duration>
                <tie type="stop"/>
                <voice>1</voice>
                <type>quarter</type>
                <dot/>
                <stem>up</stem>
                <notations>
                    <tied type="stop"/>
                </notations>
            </note>
            <note default-y="-25.00" default-x="212.59">
                <pitch>
                    <step>A</step>
                    <octave>4</octave>
                </pitch>
                <duration>2</duration>
                <voice>1</voice>
                <type>eighth</type>
                <stem>up</stem>
            </note>
        </measure>
        <measure width="173.48" number="24">
            <harmony print-frame="no">
                <root>
                    <root-step>B</root-step>
                    <root-alter>-1</root-alter>
                </root>
                <kind text="m6">minor-sixth</kind>
            </harmony>
            <note default-y="-30.00" default-x="12.00">
                <pitch>
                    <step>G</step>
                    <octave>4</octave>
                </pitch>
                <duration>2</duration>
                <voice>1</voice>
                <type>eighth</type>
                <stem>up</stem>
            </note>
            <note default-y="-35.00" default-x="39.57">
                <pitch>
                    <step>F</step>
                    <octave>4</octave>
                </pitch>
                <duration>4</duration>
                <voice>1</voice>
                <type>quarter</type>
                <stem>up</stem>
            </note>
            <note default-y="-45.00" default-x="83.67">
                <pitch>
                    <step>D</step>
                    <alter>-1</alter>
                    <octave>4</octave>
                </pitch>
                <duration>2</duration>
                <tie type="start"/>
                <voice>1</voice>
                <type>eighth</type>
                <accidental>flat</accidental>
                <stem>up</stem>
                <notations>
                    <tied type="start"/>
                </notations>
            </note>
            <note default-y="-45.00" default-x="111.24">
                <pitch>
                    <step>D</step>
                    <alter>-1</alter>
                    <octave>4</octave>
                </pitch>
                <duration>8</duration>
                <tie type="stop"/>
                <voice>1</voice>
                <type>half</type>
                <stem>up</stem>
                <notations>
                    <tied type="stop"/>
                </notations>
            </note>
        </measure>
        <measure width="196.01" number="25">
            <harmony print-frame="no">
                <root>
                    <root-step>F</root-step>
                </root>
                <kind text="">major</kind>
            </harmony>
            <note default-y="-50.00" default-x="12.00">
                <pitch>
                    <step>C</step>
                    <octave>4</octave>
                </pitch>
                <duration>2</duration>
                <voice>1</voice>
                <type>eighth</type>
                <stem>up</stem>
            </note>
            <note default-y="-45.00" default-x="39.07">
                <pitch>
                    <step>D</step>
                    <octave>4</octave>
                </pitch>
                <duration>4</duration>
                <voice>1</voice>
                <type>quarter</type>
                <stem>up</stem>
            </note>
            <note default-y="-35.00" default-x="82.37">
                <pitch>
                    <step>F</step>
                    <octave>4</octave>
                </pitch>
                <duration>2</duration>
                <tie type="start"/>
                <voice>1</voice>
                <type>eighth</type>
                <stem>up</stem>
                <notations>
                    <tied type="start"/>
                </notations>
            </note>
            <note default-y="-35.00" default-x="109.44">
                <pitch>
                    <step>F</step>
                    <octave>4</octave>
                </pitch>
                <duration>6</duration>
                <tie type="stop"/>
                <voice>1</voice>
                <type>quarter</type>
                <dot/>
                <stem>up</stem>
                <notations>
                    <tied type="stop"/>
                </notations>
            </note>
            <note default-y="-25.00" default-x="162.24">
                <pitch>
                    <step>A</step>
                    <octave>4</octave>
                </pitch>
                <duration>2</duration>
                <voice>1</voice>
                <type>eighth</type>
                <stem>up</stem>
            </note>
        </measure>
        <measure width="193.95" number="26">
            <harmony print-frame="no">
                <root>
                    <root-step>F</root-step>
                </root>
                <kind text="7">dominant</kind>
            </harmony>
            <note default-y="-15.00" default-x="12.00">
                <pitch>
                    <step>C</step>
                    <octave>5</octave>
                </pitch>
                <duration>2</duration>
                <voice>1</voice>
                <type>eighth</type>
                <stem>down</stem>
            </note>
            <harmony print-frame="no">
                <root>
                    <root-step>E</root-step>
                </root>
                <kind text="7">dominant</kind>
            </harmony>
            <note default-y="-20.00" default-x="38.52">
                <pitch>
                    <step>B</step>
                    <octave>4</octave>
                </pitch>
                <duration>4</duration>
                <voice>1</voice>
                <type>quarter</type>
                <accidental>natural</accidental>
                <stem>down</stem>
            </note>
            <harmony print-frame="no">
                <root>
                    <root-step>E</root-step>
                    <root-alter>-1</root-alter>
                </root>
                <kind text="7">dominant</kind>
            </harmony>
            <note default-y="-20.00" default-x="80.96">
                <pitch>
                    <step>B</step>
                    <alter>-1</alter>
                    <octave>4</octave>
                </pitch>
                <duration>2</duration>
                <tie type="start"/>
                <voice>1</voice>
                <type>eighth</type>
                <accidental>flat</accidental>
                <stem>down</stem>
                <notations>
                    <tied type="start"/>
                </notations>
            </note>
            <note default-y="-20.00" default-x="107.48">
                <pitch>
                    <step>B</step>
                    <alter>-1</alter>
                    <octave>4</octave>
                </pitch>
                <duration>4</duration>
                <tie type="stop"/>
                <voice>1</voice>
                <type>quarter</type>
                <stem>down</stem>
                <notations>
                    <tied type="stop"/>
                </notations>
            </note>
            <harmony print-frame="no">
                <root>
                    <root-step>D</root-step>
                </root>
                <kind text="7">dominant</kind>
            </harmony>
            <note default-y="-35.00" default-x="149.91">
                <pitch>
                    <step>F</step>
                    <alter>1</alter>
                    <octave>4</octave>
                </pitch>
                <duration>4</duration>
                <voice>1</voice>
                <type>quarter</type>
                <accidental>sharp</accidental>
                <stem>up</stem>
            </note>
        </measure>
        <measure width="189.34" number="27">
            <harmony print-frame="no">
                <root>
                    <root-step>G</root-step>
                </root>
                <kind text="9">dominant-ninth</kind>
            </harmony>
            <note default-y="-25.00" default-x="12.00">
                <pitch>
                    <step>A</step>
                    <octave>4</octave>
                </pitch>
                <duration>4</duration>
                <voice>1</voice>
                <type>quarter</type>
                <stem>up</stem>
            </note>
            <note>
                <rest/>
                <duration>2</duration>
                <voice>1</voice>
                <type>eighth</type>
            </note>
            <note default-y="-25.00" default-x="70.70">
                <pitch>
                    <step>A</step>
                    <octave>4</octave>
                </pitch>
                <duration>2</duration>
                <voice>1</voice>
                <type>eighth</type>
                <stem>up</stem>
            </note>
            <note default-y="-25.00" default-x="96.87">
                <pitch>
                    <step>A</step>
                    <octave>4</octave>
                </pitch>
                <duration>4</duration>
                <voice>1</voice>
                <type>quarter</type>
                <stem>up</stem>
            </note>
            <note>
                <rest/>
                <duration>2</duration>
                <voice>1</voice>
                <type>eighth</type>
            </note>
            <note default-y="-25.00" default-x="155.57">
                <pitch>
                    <step>A</step>
                    <octave>4</octave>
                </pitch>
                <duration>2</duration>
                <voice>1</voice>
                <type>eighth</type>
                <stem>up</stem>
            </note>
        </measure>
        <measure width="244.31" number="28">
            <print new-system="yes">
                <system-layout>
                    <system-margins>
                        <left-margin>77.95</left-margin>
                        <right-margin>-0.00</right-margin>
                    </system-margins>
                    <system-distance>153.73</system-distance>
                </system-layout>
            </print>
            <harmony print-frame="no">
                <root>
                    <root-step>C</root-step>
                </root>
                <kind text="9">dominant-ninth</kind>
            </harmony>
            <note default-y="-25.00" default-x="62.35">
                <pitch>
                    <step>A</step>
                    <octave>4</octave>
                </pitch>
                <duration>4</duration>
                <voice>1</voice>
                <type>quarter</type>
                <stem>up</stem>
            </note>
            <note>
                <rest/>
                <duration>2</duration>
                <voice>1</voice>
                <type>eighth</type>
            </note>
            <note default-y="-25.00" default-x="123.36">
                <pitch>
                    <step>A</step>
                    <octave>4</octave>
                </pitch>
                <duration>2</duration>
                <voice>1</voice>
                <type>eighth</type>
                <stem>up</stem>
            </note>
            <note default-y="-25.00" default-x="149.53">
                <pitch>
                    <step>A</step>
                    <octave>4</octave>
                </pitch>
                <duration>4</duration>
                <voice>1</voice>
                <type>quarter</type>
                <stem>up</stem>
            </note>
            <note>
                <rest/>
                <duration>2</duration>
                <voice>1</voice>
                <type>eighth</type>
            </note>
            <note default-y="-25.00" default-x="210.53">
                <pitch>
                    <step>A</step>
                    <octave>4</octave>
                </pitch>
                <duration>2</duration>
                <voice>1</voice>
                <type>eighth</type>
                <stem>up</stem>
            </note>
        </measure>
        <measure width="131.51" number="29">
            <barline location="left">
                <ending type="start" number="1"></ending>
            </barline>
            <harmony print-frame="no">
                <root>
                    <root-step>F</root-step>
                </root>
                <kind text="">major</kind>
            </harmony>
            <note default-y="-35.00" default-x="12.00">
                <pitch>
                    <step>F</step>
                    <octave>4</octave>
                </pitch>
                <duration>4</duration>
                <voice>1</voice>
                <type>quarter</type>
                <stem>up</stem>
            </note>
            <note default-y="0.00" default-x="44.75">
                <pitch>
                    <step>F</step>
                    <octave>5</octave>
                </pitch>
                <duration>8</duration>
                <voice>1</voice>
                <type>half</type>
                <stem>down</stem>
            </note>
            <note default-y="-10.00" default-x="97.16">
                <pitch>
                    <step>D</step>
                    <octave>5</octave>
                </pitch>
                <duration>4</duration>
                <voice>1</voice>
                <type>quarter</type>
                <stem>down</stem>
            </note>
            <barline location="right">
                <ending type="stop" number="1"></ending>
            </barline>
        </measure>
        <measure width="201.04" number="30">
            <harmony print-frame="no">
                <root>
                    <root-step>C</root-step>
                </root>
                <kind text="7">dominant</kind>
            </harmony>
            <note default-y="-5.00" default-x="12.00">
                <pitch>
                    <step>E</step>
                    <octave>5</octave>
                </pitch>
                <duration>3</duration>
                <voice>1</voice>
                <type>eighth</type>
                <dot/>
                <stem>down</stem>
                <beam number="1">begin</beam>
            </note>
            <note default-y="-10.00" default-x="50.86">
                <pitch>
                    <step>D</step>
                    <alter>1</alter>
                    <octave>5</octave>
                </pitch>
                <duration>1</duration>
                <voice>1</voice>
                <type>16th</type>
                <accidental>sharp</accidental>
                <stem>down</stem>
                <beam number="1">continue</beam>
                <beam number="2">forward hook</beam>
            </note>
            <note default-y="-5.00" default-x="70.16">
                <pitch>
                    <step>E</step>
                    <octave>5</octave>
                </pitch>
                <duration>2</duration>
                <voice>1</voice>
                <type>eighth</type>
                <stem>down</stem>
                <beam number="1">continue</beam>
            </note>
            <note default-y="-15.00" default-x="101.03">
                <pitch>
                    <step>C</step>
                    <octave>5</octave>
                </pitch>
                <duration>2</duration>
                <tie type="start"/>
                <voice>1</voice>
                <type>eighth</type>
                <stem>down</stem>
                <beam number="1">end</beam>
                <notations>
                    <tied type="start"/>
                </notations>
            </note>
            <harmony print-frame="no">
                <root>
                    <root-step>G</root-step>
                </root>
                <kind text="m7">minor-seventh</kind>
            </harmony>
            <harmony relative-x="1125.00" print-frame="no">
                <root>
                    <root-step>C</root-step>
                </root>
                <kind text="7">dominant</kind>
            </harmony>
            <note default-y="-15.00" default-x="131.91">
                <pitch>
                    <step>C</step>
                    <octave>5</octave>
                </pitch>
                <duration>8</duration>
                <tie type="stop"/>
                <voice>1</voice>
                <type>half</type>
                <stem>down</stem>
                <notations>
                    <tied type="stop"/>
                </notations>
            </note>
            <barline location="right">
                <bar-style>light-heavy</bar-style>
                <repeat direction="backward"/>
            </barline>
        </measure>
        <measure width="169.67" number="31">
            <barline location="left">
                <ending type="start" number="2"></ending>
            </barline>
            <harmony print-frame="no">
                <root>
                    <root-step>F</root-step>
                </root>
                <kind text="">major</kind>
            </harmony>
            <note default-y="-15.00" default-x="12.00">
                <pitch>
                    <step>C</step>
                    <octave>5</octave>
                </pitch>
                <duration>4</duration>
                <voice>1</voice>
                <type>quarter</type>
                <stem>down</stem>
            </note>
            <note>
                <rest/>
                <duration>4</duration>
                <voice>1</voice>
                <type>quarter</type>
            </note>
            <harmony print-frame="no">
                <root>
                    <root-step>D</root-step>
                    <root-alter>-1</root-alter>
                </root>
                <kind text="7">dominant</kind>
            </harmony>
            <note default-y="-10.00" default-x="85.33">
                <pitch>
                    <step>D</step>
                    <alter>-1</alter>
                    <octave>5</octave>
                </pitch>
                <duration>4</duration>
                <voice>1</voice>
                <type>quarter</type>
                <accidental>flat</accidental>
                <stem>down</stem>
            </note>
            <note>
                <rest/>
                <duration>2</duration>
                <voice>1</voice>
                <type>eighth</type>
            </note>
            <note default-y="-10.00" default-x="144.91">
                <pitch>
                    <step>D</step>
                    <alter>-1</alter>
                    <octave>5</octave>
                </pitch>
                <duration>2</duration>
                <voice>1</voice>
                <type>eighth</type>
                <stem>down</stem>
            </note>
            <barline location="right">
                <ending type="discontinue" number="2"></ending>
            </barline>
        </measure>
        <measure width="252.62" number="32">
            <harmony print-frame="no">
                <root>
                    <root-step>G</root-step>
                </root>
                <kind text="m7">minor-seventh</kind>
            </harmony>
            <note default-y="-10.00" default-x="12.00">
                <pitch>
                    <step>D</step>
                    <octave>5</octave>
                </pitch>
                <duration>2</duration>
                <voice>1</voice>
                <type>eighth</type>
                <stem>down</stem>
                <beam number="1">begin</beam>
            </note>
            <note default-y="-5.00" default-x="44.36">
                <pitch>
                    <step>E</step>
                    <alter>-1</alter>
                    <octave>5</octave>
                </pitch>
                <duration>2</duration>
                <voice>1</voice>
                <type>eighth</type>
                <accidental>flat</accidental>
                <stem>down</stem>
                <beam number="1">continue</beam>
            </note>
            <harmony print-frame="no">
                <root>
                    <root-step>C</root-step>
                </root>
                <kind text="7b5">dominant</kind>
                <degree>
                    <degree-value>5</degree-value>
                    <degree-alter>-1</degree-alter>
                    <degree-type>alter</degree-type>
                </degree>
            </harmony>
            <note default-y="-5.00" default-x="76.73">
                <pitch>
                    <step>E</step>
                    <octave>5</octave>
                </pitch>
                <duration>2</duration>
                <voice>1</voice>
                <type>eighth</type>
                <accidental>natural</accidental>
                <stem>down</stem>
                <beam number="1">continue</beam>
            </note>
            <harmony relative-x="100.00" print-frame="no">
                <root>
                    <root-step>F</root-step>
                </root>
                <kind text="">major</kind>
            </harmony>
            <note default-y="0.00" default-x="109.09">
                <pitch>
                    <step>F</step>
                    <octave>5</octave>
                </pitch>
                <duration>2</duration>
                <tie type="start"/>
                <voice>1</voice>
                <type>eighth</type>
                <stem>down</stem>
                <beam number="1">end</beam>
                <notations>
                    <tied type="start"/>
                </notations>
            </note>
            <note default-y="0.00" default-x="141.45">
                <pitch>
                    <step>F</step>
                    <octave>5</octave>
                </pitch>
                <duration>4</duration>
                <tie type="stop"/>
                <voice>1</voice>
                <type>quarter</type>
                <stem>down</stem>
                <notations>
                    <tied type="stop"/>
                </notations>
            </note>
            <note>
                <rest/>
                <duration>4</duration>
                <voice>1</voice>
                <type>quarter</type>
            </note>
            <barline location="right">
                <bar-style>light-heavy</bar-style>
            </barline>
        </measure>
    </part>
</score-partwise>
