<?xml version="1.0" encoding="UTF-8"?>
<!DOCTYPE score-partwise PUBLIC "-//Recordare//DTD MusicXML 2.0 Partwise//EN" "http://www.musicxml.org/dtds/partwise.dtd">
<score-partwise version="2.0">
    <work>
        <work-number></work-number>
        <work-title></work-title>
    </work>
    <movement-number></movement-number>
    <movement-title>Gloria, Gloria, Aleluya</movement-title>
    <identification>
        <creator type="composer">Moshe Cotacallapa Choque</creator>
        <creator type="poet">Moshe Cotacallapa Choque</creator>
        <rights>Public Domain</rights>
        <encoding>
            <software>Harmony Assistant v9.3.1 (c) Myriad - http://www.myriad-online.com</software>
            <software>ProxyMusic 2.0 c</software>
        </encoding>
        <source>http://wikifonia.org/node/1108/revisions/1467/view</source>
    </identification>
    <defaults>
        <scaling>
            <millimeters>8.466666</millimeters>
            <tenths>40</tenths>
        </scaling>
        <page-layout>
            <page-height>1366.667</page-height>
            <page-width>955.000</page-width>
            <page-margins type="both">
                <left-margin>10.000</left-margin>
                <right-margin>10.000</right-margin>
                <top-margin>10.000</top-margin>
                <bottom-margin>10.000</bottom-margin>
            </page-margins>
        </page-layout>
    </defaults>
    <credit>
        <credit-words font-weight="bold" font-style="normal" font-size="12" font-family="Arial" default-y="1338.467" default-x="375.400" justify="left" valign="top">Gloria, Gloria ,Aleluya</credit-words>
    </credit>
    <credit>
        <credit-words font-weight="normal" font-style="normal" font-size="10" font-family="Arial" default-y="1292.267" default-x="738.000" justify="left" valign="top">Moshe Cotacallapa Choque</credit-words>
    </credit>
    <credit>
        <credit-words font-weight="normal" font-style="normal" font-size="10" font-family="Arial" default-y="1292.267" default-x="10.000" justify="left" valign="top">!!Remarks:</credit-words>
    </credit>
    <credit>
        <credit-words font-weight="normal" font-style="normal" font-size="8" font-family="Tahoma" default-y="1356.667" default-x="476.900" justify="center" valign="top">Gloria, Gloria ,Aleluya</credit-words>
    </credit>
    <credit>
        <credit-words font-weight="normal" font-style="normal" font-size="8" font-family="Tahoma" default-y="28.067" default-x="10.000" justify="left" valign="top">Music.mus</credit-words>
    </credit>
    <credit>
        <credit-words font-weight="normal" font-style="normal" font-size="8" font-family="Tahoma" default-y="28.067" default-x="476.900" justify="center" valign="top">1/1</credit-words>
    </credit>
    <credit>
        <credit-words font-weight="normal" font-style="normal" font-size="8" font-family="Tahoma" default-y="28.067" default-x="943.800" justify="right" valign="top">Viernes 9 de enero de 2009, 14:15:44</credit-words>
    </credit>
    <part-list>
        <score-part id="P1">
            <part-name font-weight="normal" font-style="normal" font-size="11" font-family="Arial">Meloda</part-name>
            <part-abbreviation font-weight="normal" font-style="normal" font-size="11" font-family="Arial">Mel.</part-abbreviation>
            <score-instrument id="P1-I1">
                <instrument-name>Piano 1</instrument-name>
            </score-instrument>
            <midi-instrument id="P1-I1">
                <midi-channel>0</midi-channel>
                <midi-bank>4</midi-bank>
                <midi-program>49</midi-program>
            </midi-instrument>
        </score-part>
    </part-list>
    <part id="P1">
        <measure width="346" number="1">
            <print>
                <system-layout>
                    <system-margins>
                        <left-margin>61.600</left-margin>
                        <right-margin>0.000</right-margin>
                    </system-margins>
                    <top-system-distance>144.200</top-system-distance>
                </system-layout>
            </print>
            <attributes>
                <divisions>6720</divisions>
                <key>
                    <cancel>-4</cancel>
                    <fifths>3</fifths>
                    <mode>major</mode>
                </key>
                <time>
                    <beats>4</beats>
                    <beat-type>4</beat-type>
                </time>
                <clef number="1">
                    <sign>G</sign>
                    <line>2</line>
                </clef>
                <staff-details print-object="yes" number="1">
                    <staff-lines>5</staff-lines>
                    <staff-size>84.00</staff-size>
                </staff-details>
            </attributes>
            <note>
                <pitch>
                    <step>B</step>
                    <octave>4</octave>
                </pitch>
                <duration>5040</duration>
                <voice>1</voice>
                <type>eighth</type>
                <dot/>
                <stem default-y="-50.00">down</stem>
                <beam number="1">begin</beam>
            </note>
            <note>
                <pitch>
                    <step>B</step>
                    <octave>4</octave>
                </pitch>
                <duration>3360</duration>
                <voice>1</voice>
                <type>eighth</type>
                <stem default-y="-50.00">down</stem>
                <beam number="1">end</beam>
            </note>
            <note>
                <pitch>
                    <step>B</step>
                    <octave>4</octave>
                </pitch>
                <duration>5040</duration>
                <voice>1</voice>
                <type>eighth</type>
                <dot/>
                <stem default-y="-50.00">down</stem>
            </note>
            <note>
                <pitch>
                    <step>A</step>
                    <octave>4</octave>
                </pitch>
                <duration>5040</duration>
                <voice>1</voice>
                <type>eighth</type>
                <dot/>
                <stem default-y="5.00">up</stem>
                <beam number="1">begin</beam>
            </note>
            <note>
                <pitch>
                    <step>G</step>
                    <alter>1</alter>
                    <octave>4</octave>
                </pitch>
                <duration>5040</duration>
                <voice>1</voice>
                <type>eighth</type>
                <dot/>
                <stem default-y="0.00">up</stem>
                <beam number="1">end</beam>
            </note>
            <note>
                <pitch>
                    <step>B</step>
                    <octave>4</octave>
                </pitch>
                <duration>3360</duration>
                <voice>1</voice>
                <type>eighth</type>
                <stem default-y="-50.00">down</stem>
                <notations>
                    <tied placement="above" orientation="over" type="start" number="1"/>
                </notations>
            </note>
        </measure>
        <measure width="241" number="2">
            <note>
                <pitch>
                    <step>B</step>
                    <octave>4</octave>
                </pitch>
                <duration>10080</duration>
                <voice>1</voice>
                <type>quarter</type>
                <dot/>
                <stem default-y="-50.00">down</stem>
                <notations>
                    <tied type="stop" number="1"/>
                </notations>
            </note>
            <backup>
                <duration>10080</duration>
            </backup>
            <attributes>
                <key>
                    <fifths>0</fifths>
                    <mode>major</mode>
                </key>
            </attributes>
            <forward>
                <duration>10080</duration>
            </forward>
            <note>
                <pitch>
                    <step>E</step>
                    <octave>5</octave>
                </pitch>
                <duration>3360</duration>
                <voice>1</voice>
                <type>eighth</type>
                <stem default-y="-35.00">down</stem>
            </note>
            <note>
                <pitch>
                    <step>F</step>
                    <alter>1</alter>
                    <octave>5</octave>
                </pitch>
                <duration>3360</duration>
                <voice>1</voice>
                <type>eighth</type>
                <stem default-y="-30.00">down</stem>
                <beam number="1">begin</beam>
            </note>
            <note>
                <pitch>
                    <step>G</step>
                    <alter>1</alter>
                    <octave>5</octave>
                </pitch>
                <duration>5040</duration>
                <voice>1</voice>
                <type>eighth</type>
                <dot/>
                <stem default-y="-25.00">down</stem>
                <beam number="1">end</beam>
            </note>
            <note>
                <pitch>
                    <step>G</step>
                    <alter>1</alter>
                    <octave>5</octave>
                </pitch>
                <duration>3360</duration>
                <voice>1</voice>
                <type>eighth</type>
                <stem default-y="-25.00">down</stem>
                <beam number="1">begin</beam>
            </note>
            <note>
                <pitch>
                    <step>G</step>
                    <alter>1</alter>
                    <octave>5</octave>
                </pitch>
                <duration>1680</duration>
                <voice>1</voice>
                <type>16th</type>
                <stem default-y="-25.00">down</stem>
                <beam number="1">continue</beam>
                <notations>
                    <tied placement="above" orientation="over" type="start" number="1"/>
                </notations>
            </note>
        </measure>
        <measure width="229" number="3">
            <note>
                <pitch>
                    <step>G</step>
                    <alter>1</alter>
                    <octave>5</octave>
                </pitch>
                <duration>3360</duration>
                <voice>1</voice>
                <type>eighth</type>
                <stem default-y="-25.00">down</stem>
                <beam number="1">begin</beam>
                <notations>
                    <tied type="stop" number="1"/>
                </notations>
            </note>
            <note>
                <pitch>
                    <step>F</step>
                    <alter>1</alter>
                    <octave>5</octave>
                </pitch>
                <duration>3360</duration>
                <voice>1</voice>
                <type>eighth</type>
                <stem default-y="-30.00">down</stem>
                <beam number="1">end</beam>
            </note>
            <backup>
                <duration>6720</duration>
            </backup>
            <attributes>
                <key>
                    <fifths>0</fifths>
                    <mode>major</mode>
                </key>
            </attributes>
            <forward>
                <duration>6720</duration>
            </forward>
            <note>
                <pitch>
                    <step>E</step>
                    <octave>5</octave>
                </pitch>
                <duration>13440</duration>
                <voice>1</voice>
                <type>half</type>
                <stem default-y="-35.00">down</stem>
            </note>
            <note>
                <pitch>
                    <step>E</step>
                    <octave>5</octave>
                </pitch>
                <duration>5040</duration>
                <voice>1</voice>
                <type>eighth</type>
                <dot/>
                <stem default-y="-35.00">down</stem>
                <beam number="1">begin</beam>
            </note>
            <note>
                <pitch>
                    <step>D</step>
                    <alter>1</alter>
                    <octave>5</octave>
                </pitch>
                <duration>1680</duration>
                <voice>1</voice>
                <type>16th</type>
                <accidental>sharp</accidental>
                <stem default-y="-40.00">down</stem>
                <beam number="1">continue</beam>
                <notations>
                    <tied placement="above" orientation="over" type="start" number="1"/>
                </notations>
            </note>
        </measure>
        <measure width="249" number="4">
            <print new-system="yes">
                <system-layout>
                    <system-margins>
                        <left-margin>61.600</left-margin>
                        <right-margin>0.000</right-margin>
                    </system-margins>
                    <system-distance>106.400</system-distance>
                </system-layout>
            </print>
            <note>
                <pitch>
                    <step>D</step>
                    <alter>1</alter>
                    <octave>5</octave>
                </pitch>
                <duration>1680</duration>
                <voice>1</voice>
                <type>16th</type>
                <accidental>sharp</accidental>
                <stem default-y="-40.00">down</stem>
                <beam number="1">begin</beam>
                <notations>
                    <tied type="stop" number="1"/>
                </notations>
            </note>
            <note>
                <pitch>
                    <step>C</step>
                    <alter>1</alter>
                    <octave>5</octave>
                </pitch>
                <duration>5040</duration>
                <voice>1</voice>
                <type>eighth</type>
                <dot/>
                <stem default-y="-45.00">down</stem>
                <beam number="1">end</beam>
            </note>
            <backup>
                <duration>6720</duration>
            </backup>
            <attributes/>
            <forward>
                <duration>6720</duration>
            </forward>
            <note>
                <pitch>
                    <step>C</step>
                    <alter>1</alter>
                    <octave>5</octave>
                </pitch>
                <duration>3360</duration>
                <voice>1</voice>
                <type>eighth</type>
                <stem default-y="-45.00">down</stem>
            </note>
            <note>
                <pitch>
                    <step>C</step>
                    <alter>1</alter>
                    <octave>5</octave>
                </pitch>
                <duration>6720</duration>
                <voice>1</voice>
                <type>quarter</type>
                <stem default-y="-45.00">down</stem>
            </note>
            <note>
                <pitch>
                    <step>D</step>
                    <alter>1</alter>
                    <octave>5</octave>
                </pitch>
                <duration>5040</duration>
                <voice>1</voice>
                <type>eighth</type>
                <dot/>
                <accidental>sharp</accidental>
                <stem default-y="-40.00">down</stem>
            </note>
            <note>
                <pitch>
                    <step>E</step>
                    <octave>5</octave>
                </pitch>
                <duration>5040</duration>
                <voice>1</voice>
                <type>eighth</type>
                <dot/>
                <stem default-y="-35.00">down</stem>
            </note>
        </measure>
        <measure width="254" number="5">
            <attributes>
                <key>
                    <fifths>0</fifths>
                    <mode>major</mode>
                </key>
                <staff-details print-object="yes" number="1">
                    <staff-lines>5</staff-lines>
                    <staff-size>84.00</staff-size>
                </staff-details>
            </attributes>
            <note>
                <pitch>
                    <step>D</step>
                    <alter>1</alter>
                    <octave>5</octave>
                </pitch>
                <duration>5040</duration>
                <voice>1</voice>
                <type>eighth</type>
                <dot/>
                <accidental>sharp</accidental>
                <stem default-y="-40.00">down</stem>
                <beam number="1">begin</beam>
            </note>
            <note>
                <pitch>
                    <step>E</step>
                    <octave>5</octave>
                </pitch>
                <duration>5040</duration>
                <voice>1</voice>
                <type>eighth</type>
                <dot/>
                <stem default-y="-35.00">down</stem>
                <beam number="1">end</beam>
            </note>
            <note>
                <pitch>
                    <step>C</step>
                    <alter>1</alter>
                    <octave>5</octave>
                </pitch>
                <duration>5040</duration>
                <voice>1</voice>
                <type>eighth</type>
                <dot/>
                <stem default-y="-45.00">down</stem>
            </note>
            <note>
                <pitch>
                    <step>B</step>
                    <octave>4</octave>
                </pitch>
                <duration>5040</duration>
                <voice>1</voice>
                <type>eighth</type>
                <dot/>
                <stem default-y="-50.00">down</stem>
            </note>
            <note>
                <pitch>
                    <step>C</step>
                    <alter>1</alter>
                    <octave>5</octave>
                </pitch>
                <duration>5040</duration>
                <voice>1</voice>
                <type>eighth</type>
                <dot/>
                <stem default-y="-45.00">down</stem>
                <beam number="1">begin</beam>
            </note>
            <note>
                <pitch>
                    <step>B</step>
                    <octave>4</octave>
                </pitch>
                <duration>1680</duration>
                <voice>1</voice>
                <type>16th</type>
                <stem default-y="-50.00">down</stem>
                <beam number="1">continue</beam>
                <notations>
                    <tied placement="above" orientation="over" type="start" number="1"/>
                </notations>
            </note>
        </measure>
        <measure width="223" number="6">
            <note>
                <pitch>
                    <step>B</step>
                    <octave>4</octave>
                </pitch>
                <duration>3360</duration>
                <voice>1</voice>
                <type>eighth</type>
                <stem default-y="-50.00">down</stem>
                <beam number="1">begin</beam>
                <notations>
                    <tied type="stop" number="1"/>
                </notations>
            </note>
            <note>
                <pitch>
                    <step>A</step>
                    <octave>4</octave>
                </pitch>
                <duration>5040</duration>
                <voice>1</voice>
                <type>eighth</type>
                <dot/>
                <stem default-y="-55.00">down</stem>
                <beam number="1">end</beam>
            </note>
            <backup>
                <duration>8400</duration>
            </backup>
            <attributes>
                <key>
                    <fifths>0</fifths>
                    <mode>major</mode>
                </key>
            </attributes>
            <forward>
                <duration>8400</duration>
            </forward>
            <note>
                <pitch>
                    <step>B</step>
                    <octave>4</octave>
                </pitch>
                <duration>13440</duration>
                <voice>1</voice>
                <type>half</type>
                <stem default-y="-50.00">down</stem>
            </note>
            <note>
                <rest>
                    <display-step>F</display-step>
                    <display-octave>4</display-octave>
                </rest>
                <duration>1680</duration>
                <voice>1</voice>
                <type>16th</type>
            </note>
            <note>
                <pitch>
                    <step>B</step>
                    <octave>4</octave>
                </pitch>
                <duration>3360</duration>
                <voice>1</voice>
                <type>eighth</type>
                <stem default-y="-50.00">down</stem>
                <beam number="1">begin</beam>
                <notations>
                    <tied placement="above" orientation="over" type="start" number="1"/>
                </notations>
            </note>
        </measure>
        <measure width="241" number="7">
            <print new-system="yes">
                <system-layout>
                    <system-margins>
                        <left-margin>42.000</left-margin>
                        <right-margin>0.000</right-margin>
                    </system-margins>
                    <system-distance>105.000</system-distance>
                </system-layout>
            </print>
            <note>
                <pitch>
                    <step>B</step>
                    <octave>4</octave>
                </pitch>
                <duration>1680</duration>
                <voice>1</voice>
                <type>16th</type>
                <stem default-y="-50.00">down</stem>
                <beam number="1">begin</beam>
                <notations>
                    <tied type="stop" number="1"/>
                </notations>
            </note>
            <note>
                <pitch>
                    <step>B</step>
                    <octave>4</octave>
                </pitch>
                <duration>3360</duration>
                <voice>1</voice>
                <type>eighth</type>
                <stem default-y="-50.00">down</stem>
                <beam number="1">continue</beam>
            </note>
            <note>
                <pitch>
                    <step>B</step>
                    <octave>4</octave>
                </pitch>
                <duration>5040</duration>
                <voice>1</voice>
                <type>eighth</type>
                <dot/>
                <stem default-y="-50.00">down</stem>
                <beam number="1">end</beam>
            </note>
            <backup>
                <duration>10080</duration>
            </backup>
            <attributes/>
            <forward>
                <duration>10080</duration>
            </forward>
            <note>
                <pitch>
                    <step>A</step>
                    <octave>4</octave>
                </pitch>
                <duration>5040</duration>
                <voice>1</voice>
                <type>eighth</type>
                <dot/>
                <stem default-y="5.00">up</stem>
            </note>
            <note>
                <pitch>
                    <step>G</step>
                    <alter>1</alter>
                    <octave>4</octave>
                </pitch>
                <duration>5040</duration>
                <voice>1</voice>
                <type>eighth</type>
                <dot/>
                <stem default-y="0.00">up</stem>
            </note>
            <note>
                <pitch>
                    <step>B</step>
                    <octave>4</octave>
                </pitch>
                <duration>6720</duration>
                <voice>1</voice>
                <type>quarter</type>
                <stem default-y="-50.00">down</stem>
                <notations>
                    <tied placement="above" orientation="over" type="start" number="1"/>
                </notations>
            </note>
        </measure>
        <measure width="240" number="8">
            <note>
                <pitch>
                    <step>B</step>
                    <octave>4</octave>
                </pitch>
                <duration>6720</duration>
                <voice>1</voice>
                <type>quarter</type>
                <stem default-y="-50.00">down</stem>
                <notations>
                    <tied type="stop" number="1"/>
                </notations>
            </note>
            <backup>
                <duration>6720</duration>
            </backup>
            <attributes>
                <key>
                    <fifths>0</fifths>
                    <mode>major</mode>
                </key>
            </attributes>
            <forward>
                <duration>6720</duration>
            </forward>
            <note>
                <pitch>
                    <step>E</step>
                    <octave>5</octave>
                </pitch>
                <duration>3360</duration>
                <voice>1</voice>
                <type>eighth</type>
                <stem default-y="-35.00">down</stem>
                <beam number="1">begin</beam>
            </note>
            <note>
                <pitch>
                    <step>F</step>
                    <alter>1</alter>
                    <octave>5</octave>
                </pitch>
                <duration>3360</duration>
                <voice>1</voice>
                <type>eighth</type>
                <stem default-y="-30.00">down</stem>
                <beam number="1">end</beam>
            </note>
            <note>
                <pitch>
                    <step>G</step>
                    <alter>1</alter>
                    <octave>5</octave>
                </pitch>
                <duration>5040</duration>
                <voice>1</voice>
                <type>eighth</type>
                <dot/>
                <stem default-y="-25.00">down</stem>
                <beam number="1">begin</beam>
            </note>
            <note>
                <pitch>
                    <step>G</step>
                    <alter>1</alter>
                    <octave>5</octave>
                </pitch>
                <duration>3360</duration>
                <voice>1</voice>
                <type>eighth</type>
                <stem default-y="-25.00">down</stem>
                <beam number="1">end</beam>
            </note>
            <note>
                <pitch>
                    <step>G</step>
                    <alter>1</alter>
                    <octave>5</octave>
                </pitch>
                <duration>5040</duration>
                <voice>1</voice>
                <type>eighth</type>
                <dot/>
                <stem default-y="-25.00">down</stem>
            </note>
        </measure>
        <measure width="203" number="9">
            <attributes>
                <key>
                    <fifths>0</fifths>
                    <mode>major</mode>
                </key>
                <staff-details print-object="yes" number="1">
                    <staff-lines>5</staff-lines>
                    <staff-size>84.00</staff-size>
                </staff-details>
            </attributes>
            <note>
                <pitch>
                    <step>F</step>
                    <alter>1</alter>
                    <octave>5</octave>
                </pitch>
                <duration>3360</duration>
                <voice>1</voice>
                <type>eighth</type>
                <stem default-y="-30.00">down</stem>
            </note>
            <note>
                <pitch>
                    <step>E</step>
                    <octave>5</octave>
                </pitch>
                <duration>10080</duration>
                <voice>1</voice>
                <type>quarter</type>
                <dot/>
                <stem default-y="-35.00">down</stem>
            </note>
            <note>
                <pitch>
                    <step>E</step>
                    <octave>5</octave>
                </pitch>
                <duration>10080</duration>
                <voice>1</voice>
                <type>quarter</type>
                <dot/>
                <stem default-y="-35.00">down</stem>
            </note>
            <note>
                <pitch>
                    <step>F</step>
                    <alter>1</alter>
                    <octave>5</octave>
                </pitch>
                <duration>3360</duration>
                <voice>1</voice>
                <type>eighth</type>
                <stem default-y="-30.00">down</stem>
                <notations>
                    <tied placement="above" orientation="over" type="start" number="1"/>
                </notations>
            </note>
        </measure>
        <measure width="183" number="10">
            <note>
                <pitch>
                    <step>F</step>
                    <alter>1</alter>
                    <octave>5</octave>
                </pitch>
                <duration>6720</duration>
                <voice>1</voice>
                <type>quarter</type>
                <stem default-y="-30.00">down</stem>
                <notations>
                    <tied type="stop" number="1"/>
                </notations>
            </note>
            <backup>
                <duration>6720</duration>
            </backup>
            <attributes>
                <key>
                    <fifths>0</fifths>
                    <mode>major</mode>
                </key>
            </attributes>
            <forward>
                <duration>6720</duration>
            </forward>
            <note>
                <pitch>
                    <step>F</step>
                    <alter>1</alter>
                    <octave>5</octave>
                </pitch>
                <duration>10080</duration>
                <voice>1</voice>
                <type>quarter</type>
                <dot/>
                <stem default-y="-30.00">down</stem>
            </note>
            <note>
                <pitch>
                    <step>E</step>
                    <octave>5</octave>
                </pitch>
                <duration>10080</duration>
                <voice>1</voice>
                <type>quarter</type>
                <dot/>
                <stem default-y="-35.00">down</stem>
            </note>
        </measure>
        <measure width="196" number="11">
            <print new-system="yes">
                <system-layout>
                    <system-margins>
                        <left-margin>42.000</left-margin>
                        <right-margin>0.000</right-margin>
                    </system-margins>
                    <system-distance>105.000</system-distance>
                </system-layout>
            </print>
            <attributes>
                <staff-details print-object="yes" number="1">
                    <staff-lines>5</staff-lines>
                    <staff-size>84.00</staff-size>
                </staff-details>
            </attributes>
            <note>
                <pitch>
                    <step>D</step>
                    <alter>1</alter>
                    <octave>5</octave>
                </pitch>
                <duration>10080</duration>
                <voice>1</voice>
                <type>quarter</type>
                <dot/>
                <accidental>sharp</accidental>
                <stem default-y="-40.00">down</stem>
            </note>
            <note>
                <pitch>
                    <step>E</step>
                    <octave>5</octave>
                </pitch>
                <duration>13440</duration>
                <voice>1</voice>
                <type>half</type>
                <stem default-y="-35.00">down</stem>
            </note>
            <note>
                <rest>
                    <display-step>F</display-step>
                    <display-octave>4</display-octave>
                </rest>
                <duration>3360</duration>
                <voice>1</voice>
                <type>eighth</type>
            </note>
        </measure>
        <measure width="203" number="12">
            <note>
                <rest>
                    <display-step>F</display-step>
                    <display-octave>4</display-octave>
                </rest>
                <duration>3360</duration>
                <voice>1</voice>
                <type>eighth</type>
            </note>
            <backup>
                <duration>3360</duration>
            </backup>
            <attributes>
                <key>
                    <fifths>0</fifths>
                    <mode>major</mode>
                </key>
            </attributes>
            <forward>
                <duration>3360</duration>
            </forward>
            <note>
                <pitch>
                    <step>B</step>
                    <octave>4</octave>
                </pitch>
                <duration>13440</duration>
                <voice>1</voice>
                <type>half</type>
                <stem default-y="-50.00">down</stem>
            </note>
            <note>
                <pitch>
                    <step>A</step>
                    <octave>4</octave>
                </pitch>
                <duration>6720</duration>
                <voice>1</voice>
                <type>quarter</type>
                <stem default-y="5.00">up</stem>
            </note>
            <note>
                <pitch>
                    <step>G</step>
                    <alter>1</alter>
                    <octave>4</octave>
                </pitch>
                <duration>3360</duration>
                <voice>1</voice>
                <type>eighth</type>
                <stem default-y="0.00">up</stem>
                <notations>
                    <tied placement="below" orientation="under" type="start" number="1"/>
                </notations>
            </note>
        </measure>
        <measure width="221" number="13">
            <note>
                <pitch>
                    <step>G</step>
                    <alter>1</alter>
                    <octave>4</octave>
                </pitch>
                <duration>3360</duration>
                <voice>1</voice>
                <type>eighth</type>
                <stem default-y="0.00">up</stem>
                <notations>
                    <tied type="stop" number="1"/>
                </notations>
            </note>
            <backup>
                <duration>3360</duration>
            </backup>
            <attributes>
                <key>
                    <fifths>0</fifths>
                    <mode>major</mode>
                </key>
            </attributes>
            <forward>
                <duration>3360</duration>
            </forward>
            <note>
                <pitch>
                    <step>B</step>
                    <octave>4</octave>
                </pitch>
                <duration>10080</duration>
                <voice>1</voice>
                <type>quarter</type>
                <dot/>
                <stem default-y="-50.00">down</stem>
            </note>
            <note>
                <pitch>
                    <step>E</step>
                    <octave>5</octave>
                </pitch>
                <duration>3360</duration>
                <voice>1</voice>
                <type>eighth</type>
                <stem default-y="-35.00">down</stem>
                <beam number="1">begin</beam>
            </note>
            <note>
                <pitch>
                    <step>F</step>
                    <alter>1</alter>
                    <octave>5</octave>
                </pitch>
                <duration>3360</duration>
                <voice>1</voice>
                <type>eighth</type>
                <stem default-y="-30.00">down</stem>
                <beam number="1">end</beam>
            </note>
            <note>
                <pitch>
                    <step>G</step>
                    <alter>1</alter>
                    <octave>5</octave>
                </pitch>
                <duration>6720</duration>
                <voice>1</voice>
                <type>quarter</type>
                <stem default-y="-25.00">down</stem>
                <notations>
                    <tied placement="above" orientation="over" type="start" number="1"/>
                </notations>
            </note>
        </measure>
        <measure width="183" number="14">
            <note>
                <pitch>
                    <step>G</step>
                    <alter>1</alter>
                    <octave>5</octave>
                </pitch>
                <duration>6720</duration>
                <voice>1</voice>
                <type>quarter</type>
                <stem default-y="-25.00">down</stem>
                <notations>
                    <tied type="stop" number="1"/>
                </notations>
            </note>
            <backup>
                <duration>6720</duration>
            </backup>
            <attributes>
                <key>
                    <fifths>0</fifths>
                    <mode>major</mode>
                </key>
            </attributes>
            <forward>
                <duration>6720</duration>
            </forward>
            <note>
                <pitch>
                    <step>F</step>
                    <alter>1</alter>
                    <octave>5</octave>
                </pitch>
                <duration>6720</duration>
                <voice>1</voice>
                <type>quarter</type>
                <stem default-y="-30.00">down</stem>
            </note>
            <note>
                <pitch>
                    <step>E</step>
                    <octave>5</octave>
                </pitch>
                <duration>13440</duration>
                <voice>1</voice>
                <type>half</type>
                <stem default-y="-35.00">down</stem>
            </note>
        </measure>
        <measure width="209" number="15">
            <print new-system="yes">
                <system-layout>
                    <system-margins>
                        <left-margin>42.000</left-margin>
                        <right-margin>0.000</right-margin>
                    </system-margins>
                    <system-distance>106.400</system-distance>
                </system-layout>
            </print>
            <attributes>
                <staff-details print-object="yes" number="1">
                    <staff-lines>5</staff-lines>
                    <staff-size>84.00</staff-size>
                </staff-details>
            </attributes>
            <note>
                <pitch>
                    <step>C</step>
                    <alter>1</alter>
                    <octave>5</octave>
                </pitch>
                <duration>13440</duration>
                <voice>1</voice>
                <type>half</type>
                <stem default-y="-45.00">down</stem>
            </note>
            <note>
                <pitch>
                    <step>D</step>
                    <alter>1</alter>
                    <octave>5</octave>
                </pitch>
                <duration>5040</duration>
                <voice>1</voice>
                <type>eighth</type>
                <dot/>
                <accidental>sharp</accidental>
                <stem default-y="-40.00">down</stem>
                <beam number="1">begin</beam>
            </note>
            <note>
                <pitch>
                    <step>E</step>
                    <octave>5</octave>
                </pitch>
                <duration>5040</duration>
                <voice>1</voice>
                <type>eighth</type>
                <dot/>
                <stem default-y="-35.00">down</stem>
                <beam number="1">end</beam>
            </note>
            <note>
                <pitch>
                    <step>D</step>
                    <alter>1</alter>
                    <octave>5</octave>
                </pitch>
                <duration>3360</duration>
                <voice>1</voice>
                <type>eighth</type>
                <stem default-y="-40.00">down</stem>
                <beam number="1">begin</beam>
                <notations>
                    <tied placement="above" orientation="over" type="start" number="1"/>
                </notations>
            </note>
        </measure>
        <measure width="223" number="16">
            <note>
                <pitch>
                    <step>D</step>
                    <alter>1</alter>
                    <octave>5</octave>
                </pitch>
                <duration>1680</duration>
                <voice>1</voice>
                <type>16th</type>
                <stem default-y="-40.00">down</stem>
                <beam number="1">begin</beam>
                <notations>
                    <tied type="stop" number="1"/>
                </notations>
            </note>
            <note>
                <pitch>
                    <step>E</step>
                    <octave>5</octave>
                </pitch>
                <duration>5040</duration>
                <voice>1</voice>
                <type>eighth</type>
                <dot/>
                <stem default-y="-35.00">down</stem>
                <beam number="1">end</beam>
            </note>
            <backup>
                <duration>6720</duration>
            </backup>
            <attributes>
                <key>
                    <fifths>0</fifths>
                    <mode>major</mode>
                </key>
            </attributes>
            <forward>
                <duration>6720</duration>
            </forward>
            <note>
                <pitch>
                    <step>C</step>
                    <alter>1</alter>
                    <octave>5</octave>
                </pitch>
                <duration>5040</duration>
                <voice>1</voice>
                <type>eighth</type>
                <dot/>
                <stem default-y="-45.00">down</stem>
            </note>
            <note>
                <pitch>
                    <step>B</step>
                    <octave>4</octave>
                </pitch>
                <duration>13440</duration>
                <voice>1</voice>
                <type>half</type>
                <stem default-y="-50.00">down</stem>
            </note>
            <note>
                <pitch>
                    <step>A</step>
                    <octave>4</octave>
                </pitch>
                <duration>1680</duration>
                <voice>1</voice>
                <type>16th</type>
                <stem default-y="5.00">up</stem>
                <notations>
                    <tied placement="below" orientation="under" type="start" number="1"/>
                </notations>
            </note>
        </measure>
        <measure width="170" number="17">
            <note>
                <pitch>
                    <step>A</step>
                    <octave>4</octave>
                </pitch>
                <duration>3360</duration>
                <voice>1</voice>
                <type>eighth</type>
                <stem default-y="5.00">up</stem>
                <notations>
                    <tied type="stop" number="1"/>
                </notations>
            </note>
            <backup>
                <duration>3360</duration>
            </backup>
            <attributes>
                <key>
                    <fifths>0</fifths>
                    <mode>major</mode>
                </key>
            </attributes>
            <forward>
                <duration>3360</duration>
            </forward>
            <note>
                <pitch>
                    <step>G</step>
                    <alter>1</alter>
                    <octave>4</octave>
                </pitch>
                <duration>20160</duration>
                <voice>1</voice>
                <type>half</type>
                <dot/>
                <stem default-y="0.00">up</stem>
            </note>
            <note>
                <pitch>
                    <step>B</step>
                    <octave>4</octave>
                </pitch>
                <duration>3360</duration>
                <voice>1</voice>
                <type>eighth</type>
                <stem default-y="-50.00">down</stem>
                <notations>
                    <tied placement="above" orientation="over" type="start" number="1"/>
                </notations>
            </note>
        </measure>
        <measure width="203" number="18">
            <note>
                <pitch>
                    <step>B</step>
                    <octave>4</octave>
                </pitch>
                <duration>10080</duration>
                <voice>1</voice>
                <type>quarter</type>
                <dot/>
                <stem default-y="-50.00">down</stem>
                <notations>
                    <tied type="stop" number="1"/>
                </notations>
            </note>
            <backup>
                <duration>10080</duration>
            </backup>
            <attributes>
                <key>
                    <fifths>0</fifths>
                    <mode>major</mode>
                </key>
            </attributes>
            <forward>
                <duration>10080</duration>
            </forward>
            <note>
                <pitch>
                    <step>A</step>
                    <octave>4</octave>
                </pitch>
                <duration>6720</duration>
                <voice>1</voice>
                <type>quarter</type>
                <stem default-y="5.00">up</stem>
            </note>
            <note>
                <pitch>
                    <step>G</step>
                    <alter>1</alter>
                    <octave>4</octave>
                </pitch>
                <duration>6720</duration>
                <voice>1</voice>
                <type>quarter</type>
                <stem default-y="0.00">up</stem>
            </note>
            <note>
                <pitch>
                    <step>B</step>
                    <octave>4</octave>
                </pitch>
                <duration>3360</duration>
                <voice>1</voice>
                <type>eighth</type>
                <stem default-y="-50.00">down</stem>
                <notations>
                    <tied placement="above" orientation="over" type="start" number="1"/>
                </notations>
            </note>
        </measure>
        <measure width="203" number="19">
            <print new-system="yes">
                <system-layout>
                    <system-margins>
                        <left-margin>42.000</left-margin>
                        <right-margin>0.000</right-margin>
                    </system-margins>
                    <system-distance>105.000</system-distance>
                </system-layout>
            </print>
            <note>
                <pitch>
                    <step>B</step>
                    <octave>4</octave>
                </pitch>
                <duration>6720</duration>
                <voice>1</voice>
                <type>quarter</type>
                <stem default-y="-50.00">down</stem>
                <notations>
                    <tied type="stop" number="1"/>
                </notations>
            </note>
            <backup>
                <duration>6720</duration>
            </backup>
            <attributes/>
            <forward>
                <duration>6720</duration>
            </forward>
            <note>
                <pitch>
                    <step>E</step>
                    <octave>5</octave>
                </pitch>
                <duration>3360</duration>
                <voice>1</voice>
                <type>eighth</type>
                <stem default-y="-35.00">down</stem>
                <beam number="1">begin</beam>
            </note>
            <note>
                <pitch>
                    <step>F</step>
                    <alter>1</alter>
                    <octave>5</octave>
                </pitch>
                <duration>3360</duration>
                <voice>1</voice>
                <type>eighth</type>
                <stem default-y="-30.00">down</stem>
                <beam number="1">end</beam>
            </note>
            <note>
                <pitch>
                    <step>G</step>
                    <alter>1</alter>
                    <octave>5</octave>
                </pitch>
                <duration>13440</duration>
                <voice>1</voice>
                <type>half</type>
                <stem default-y="-25.00">down</stem>
            </note>
        </measure>
        <measure width="183" number="20">
            <attributes>
                <key>
                    <fifths>0</fifths>
                    <mode>major</mode>
                </key>
                <staff-details print-object="yes" number="1">
                    <staff-lines>5</staff-lines>
                    <staff-size>84.00</staff-size>
                </staff-details>
            </attributes>
            <note>
                <pitch>
                    <step>F</step>
                    <alter>1</alter>
                    <octave>5</octave>
                </pitch>
                <duration>6720</duration>
                <voice>1</voice>
                <type>quarter</type>
                <stem default-y="-30.00">down</stem>
            </note>
            <note>
                <pitch>
                    <step>E</step>
                    <octave>5</octave>
                </pitch>
                <duration>13440</duration>
                <voice>1</voice>
                <type>half</type>
                <stem default-y="-35.00">down</stem>
            </note>
            <note>
                <pitch>
                    <step>E</step>
                    <octave>5</octave>
                </pitch>
                <duration>6720</duration>
                <voice>1</voice>
                <type>quarter</type>
                <stem default-y="-35.00">down</stem>
                <notations>
                    <tied placement="above" orientation="over" type="start" number="1"/>
                </notations>
            </note>
        </measure>
        <measure width="203" number="21">
            <note>
                <pitch>
                    <step>E</step>
                    <octave>5</octave>
                </pitch>
                <duration>3360</duration>
                <voice>1</voice>
                <type>eighth</type>
                <stem default-y="-35.00">down</stem>
                <notations>
                    <tied type="stop" number="1"/>
                </notations>
            </note>
            <backup>
                <duration>3360</duration>
            </backup>
            <attributes>
                <key>
                    <fifths>0</fifths>
                    <mode>major</mode>
                </key>
            </attributes>
            <forward>
                <duration>3360</duration>
            </forward>
            <note>
                <pitch>
                    <step>F</step>
                    <alter>1</alter>
                    <octave>5</octave>
                </pitch>
                <duration>10080</duration>
                <voice>1</voice>
                <type>quarter</type>
                <dot/>
                <stem default-y="-30.00">down</stem>
            </note>
            <note>
                <pitch>
                    <step>F</step>
                    <alter>1</alter>
                    <octave>5</octave>
                </pitch>
                <duration>10080</duration>
                <voice>1</voice>
                <type>quarter</type>
                <dot/>
                <stem default-y="-30.00">down</stem>
            </note>
            <note>
                <pitch>
                    <step>E</step>
                    <octave>5</octave>
                </pitch>
                <duration>3360</duration>
                <voice>1</voice>
                <type>eighth</type>
                <stem default-y="-35.00">down</stem>
                <notations>
                    <tied placement="above" orientation="over" type="start" number="1"/>
                </notations>
            </note>
        </measure>
        <measure width="191" number="22">
            <note>
                <pitch>
                    <step>E</step>
                    <octave>5</octave>
                </pitch>
                <duration>6720</duration>
                <voice>1</voice>
                <type>quarter</type>
                <stem default-y="-35.00">down</stem>
                <notations>
                    <tied type="stop" number="1"/>
                </notations>
            </note>
            <backup>
                <duration>6720</duration>
            </backup>
            <attributes>
                <key>
                    <fifths>0</fifths>
                    <mode>major</mode>
                </key>
            </attributes>
            <forward>
                <duration>6720</duration>
            </forward>
            <note>
                <pitch>
                    <step>D</step>
                    <alter>1</alter>
                    <octave>5</octave>
                </pitch>
                <duration>10080</duration>
                <voice>1</voice>
                <type>quarter</type>
                <dot/>
                <accidental>sharp</accidental>
                <stem default-y="-40.00">down</stem>
            </note>
            <note>
                <pitch>
                    <step>E</step>
                    <octave>5</octave>
                </pitch>
                <duration>10080</duration>
                <voice>1</voice>
                <type>quarter</type>
                <dot/>
                <stem default-y="-35.00">down</stem>
                <notations>
                    <tied placement="above" orientation="over" type="start" number="1"/>
                </notations>
            </note>
        </measure>
        <measure width="46" number="23">
            <print new-system="yes">
                <system-layout>
                    <system-margins>
                        <left-margin>42.000</left-margin>
                        <right-margin>0.000</right-margin>
                    </system-margins>
                    <system-distance>105.000</system-distance>
                </system-layout>
            </print>
            <note>
                <pitch>
                    <step>E</step>
                    <octave>5</octave>
                </pitch>
                <duration>3360</duration>
                <voice>1</voice>
                <type>eighth</type>
                <stem default-y="-35.00">down</stem>
                <notations>
                    <tied type="stop" number="1"/>
                </notations>
            </note>
            <backup>
                <duration>3360</duration>
            </backup>
            <attributes/>
        </measure>
        <measure width="170" number="24">
            <attributes>
                <key>
                    <fifths>0</fifths>
                    <mode>major</mode>
                </key>
                <staff-details print-object="yes" number="1">
                    <staff-lines>5</staff-lines>
                    <staff-size>84.00</staff-size>
                </staff-details>
            </attributes>
        </measure>
        <measure width="264" number="25">
            <attributes>
                <key>
                    <cancel>-5</cancel>
                    <fifths>-2</fifths>
                    <mode>major</mode>
                </key>
                <staff-details print-object="yes" number="1">
                    <staff-lines>5</staff-lines>
                    <staff-size>84.00</staff-size>
                </staff-details>
            </attributes>
            <note>
                <pitch>
                    <step>C</step>
                    <octave>5</octave>
                </pitch>
                <duration>5040</duration>
                <voice>1</voice>
                <type>eighth</type>
                <dot/>
                <stem default-y="-45.00">down</stem>
                <beam number="1">begin</beam>
            </note>
            <note>
                <pitch>
                    <step>C</step>
                    <octave>5</octave>
                </pitch>
                <duration>3360</duration>
                <voice>1</voice>
                <type>eighth</type>
                <stem default-y="-45.00">down</stem>
                <beam number="1">end</beam>
            </note>
            <note>
                <pitch>
                    <step>C</step>
                    <octave>5</octave>
                </pitch>
                <duration>5040</duration>
                <voice>1</voice>
                <type>eighth</type>
                <dot/>
                <stem default-y="-45.00">down</stem>
            </note>
            <note>
                <pitch>
                    <step>B</step>
                    <alter>-1</alter>
                    <octave>4</octave>
                </pitch>
                <duration>5040</duration>
                <voice>1</voice>
                <type>eighth</type>
                <dot/>
                <stem default-y="-50.00">down</stem>
                <beam number="1">begin</beam>
            </note>
            <note>
                <pitch>
                    <step>A</step>
                    <octave>4</octave>
                </pitch>
                <duration>5040</duration>
                <voice>1</voice>
                <type>eighth</type>
                <dot/>
                <stem default-y="-55.00">down</stem>
                <beam number="1">end</beam>
            </note>
            <note>
                <pitch>
                    <step>C</step>
                    <octave>5</octave>
                </pitch>
                <duration>3360</duration>
                <voice>1</voice>
                <type>eighth</type>
                <stem default-y="-45.00">down</stem>
                <notations>
                    <tied placement="above" orientation="over" type="start" number="1"/>
                </notations>
            </note>
        </measure>
        <measure width="241" number="26">
            <note>
                <pitch>
                    <step>C</step>
                    <octave>5</octave>
                </pitch>
                <duration>10080</duration>
                <voice>1</voice>
                <type>quarter</type>
                <dot/>
                <stem default-y="-45.00">down</stem>
                <notations>
                    <tied type="stop" number="1"/>
                </notations>
            </note>
            <backup>
                <duration>10080</duration>
            </backup>
            <attributes>
                <key>
                    <fifths>0</fifths>
                    <mode>major</mode>
                </key>
            </attributes>
            <forward>
                <duration>10080</duration>
            </forward>
            <note>
                <pitch>
                    <step>F</step>
                    <octave>5</octave>
                </pitch>
                <duration>3360</duration>
                <voice>1</voice>
                <type>eighth</type>
                <stem default-y="-30.00">down</stem>
            </note>
            <note>
                <pitch>
                    <step>G</step>
                    <octave>5</octave>
                </pitch>
                <duration>3360</duration>
                <voice>1</voice>
                <type>eighth</type>
                <stem default-y="-25.00">down</stem>
                <beam number="1">begin</beam>
            </note>
            <note>
                <pitch>
                    <step>A</step>
                    <octave>5</octave>
                </pitch>
                <duration>5040</duration>
                <voice>1</voice>
                <type>eighth</type>
                <dot/>
                <stem default-y="-20.00">down</stem>
                <beam number="1">end</beam>
            </note>
            <note>
                <pitch>
                    <step>A</step>
                    <octave>5</octave>
                </pitch>
                <duration>3360</duration>
                <voice>1</voice>
                <type>eighth</type>
                <stem default-y="-20.00">down</stem>
                <beam number="1">begin</beam>
            </note>
            <note>
                <pitch>
                    <step>A</step>
                    <octave>5</octave>
                </pitch>
                <duration>1680</duration>
                <voice>1</voice>
                <type>16th</type>
                <stem default-y="-20.00">down</stem>
                <beam number="1">continue</beam>
                <notations>
                    <tied placement="above" orientation="over" type="start" number="1"/>
                </notations>
            </note>
        </measure>
        <measure width="229" number="27">
            <note>
                <pitch>
                    <step>A</step>
                    <octave>5</octave>
                </pitch>
                <duration>3360</duration>
                <voice>1</voice>
                <type>eighth</type>
                <stem default-y="-20.00">down</stem>
                <beam number="1">begin</beam>
                <notations>
                    <tied type="stop" number="1"/>
                </notations>
            </note>
            <note>
                <pitch>
                    <step>G</step>
                    <octave>5</octave>
                </pitch>
                <duration>3360</duration>
                <voice>1</voice>
                <type>eighth</type>
                <stem default-y="-25.00">down</stem>
                <beam number="1">end</beam>
            </note>
            <backup>
                <duration>6720</duration>
            </backup>
            <attributes>
                <key>
                    <fifths>0</fifths>
                    <mode>major</mode>
                </key>
            </attributes>
            <forward>
                <duration>6720</duration>
            </forward>
            <note>
                <pitch>
                    <step>F</step>
                    <octave>5</octave>
                </pitch>
                <duration>13440</duration>
                <voice>1</voice>
                <type>half</type>
                <stem default-y="-30.00">down</stem>
            </note>
            <note>
                <pitch>
                    <step>F</step>
                    <octave>5</octave>
                </pitch>
                <duration>5040</duration>
                <voice>1</voice>
                <type>eighth</type>
                <dot/>
                <stem default-y="-30.00">down</stem>
                <beam number="1">begin</beam>
            </note>
            <note>
                <pitch>
                    <step>E</step>
                    <octave>5</octave>
                </pitch>
                <duration>1680</duration>
                <voice>1</voice>
                <type>16th</type>
                <accidental>natural</accidental>
                <stem default-y="-35.00">down</stem>
                <beam number="1">continue</beam>
                <notations>
                    <tied placement="above" orientation="over" type="start" number="1"/>
                </notations>
            </note>
        </measure>
        <measure width="249" number="28">
            <print new-system="yes">
                <system-layout>
                    <system-margins>
                        <left-margin>42.000</left-margin>
                        <right-margin>0.000</right-margin>
                    </system-margins>
                    <system-distance>106.400</system-distance>
                </system-layout>
            </print>
            <note>
                <pitch>
                    <step>E</step>
                    <octave>5</octave>
                </pitch>
                <duration>1680</duration>
                <voice>1</voice>
                <type>16th</type>
                <accidental>natural</accidental>
                <stem default-y="-35.00">down</stem>
                <beam number="1">begin</beam>
                <notations>
                    <tied type="stop" number="1"/>
                </notations>
            </note>
            <note>
                <pitch>
                    <step>D</step>
                    <octave>5</octave>
                </pitch>
                <duration>5040</duration>
                <voice>1</voice>
                <type>eighth</type>
                <dot/>
                <stem default-y="-40.00">down</stem>
                <beam number="1">end</beam>
            </note>
            <backup>
                <duration>6720</duration>
            </backup>
            <attributes/>
            <forward>
                <duration>6720</duration>
            </forward>
            <note>
                <pitch>
                    <step>D</step>
                    <octave>5</octave>
                </pitch>
                <duration>3360</duration>
                <voice>1</voice>
                <type>eighth</type>
                <stem default-y="-40.00">down</stem>
            </note>
            <note>
                <pitch>
                    <step>D</step>
                    <octave>5</octave>
                </pitch>
                <duration>6720</duration>
                <voice>1</voice>
                <type>quarter</type>
                <stem default-y="-40.00">down</stem>
            </note>
            <note>
                <pitch>
                    <step>E</step>
                    <octave>5</octave>
                </pitch>
                <duration>5040</duration>
                <voice>1</voice>
                <type>eighth</type>
                <dot/>
                <accidental>natural</accidental>
                <stem default-y="-35.00">down</stem>
            </note>
            <note>
                <pitch>
                    <step>F</step>
                    <octave>5</octave>
                </pitch>
                <duration>5040</duration>
                <voice>1</voice>
                <type>eighth</type>
                <dot/>
                <stem default-y="-30.00">down</stem>
            </note>
        </measure>
        <measure width="254" number="29">
            <attributes>
                <key>
                    <fifths>0</fifths>
                    <mode>major</mode>
                </key>
                <staff-details print-object="yes" number="1">
                    <staff-lines>5</staff-lines>
                    <staff-size>84.00</staff-size>
                </staff-details>
            </attributes>
            <note>
                <pitch>
                    <step>E</step>
                    <octave>5</octave>
                </pitch>
                <duration>5040</duration>
                <voice>1</voice>
                <type>eighth</type>
                <dot/>
                <accidental>natural</accidental>
                <stem default-y="-35.00">down</stem>
                <beam number="1">begin</beam>
            </note>
            <note>
                <pitch>
                    <step>F</step>
                    <octave>5</octave>
                </pitch>
                <duration>5040</duration>
                <voice>1</voice>
                <type>eighth</type>
                <dot/>
                <stem default-y="-30.00">down</stem>
                <beam number="1">end</beam>
            </note>
            <note>
                <pitch>
                    <step>D</step>
                    <octave>5</octave>
                </pitch>
                <duration>5040</duration>
                <voice>1</voice>
                <type>eighth</type>
                <dot/>
                <stem default-y="-40.00">down</stem>
            </note>
            <note>
                <pitch>
                    <step>C</step>
                    <octave>5</octave>
                </pitch>
                <duration>5040</duration>
                <voice>1</voice>
                <type>eighth</type>
                <dot/>
                <stem default-y="-45.00">down</stem>
            </note>
            <note>
                <pitch>
                    <step>D</step>
                    <octave>5</octave>
                </pitch>
                <duration>5040</duration>
                <voice>1</voice>
                <type>eighth</type>
                <dot/>
                <stem default-y="-40.00">down</stem>
                <beam number="1">begin</beam>
            </note>
            <note>
                <pitch>
                    <step>C</step>
                    <octave>5</octave>
                </pitch>
                <duration>1680</duration>
                <voice>1</voice>
                <type>16th</type>
                <stem default-y="-45.00">down</stem>
                <beam number="1">continue</beam>
                <notations>
                    <tied placement="above" orientation="over" type="start" number="1"/>
                </notations>
            </note>
        </measure>
        <measure width="203" number="30">
            <note>
                <pitch>
                    <step>C</step>
                    <octave>5</octave>
                </pitch>
                <duration>3360</duration>
                <voice>1</voice>
                <type>eighth</type>
                <stem default-y="-45.00">down</stem>
                <beam number="1">begin</beam>
                <notations>
                    <tied type="stop" number="1"/>
                </notations>
            </note>
            <note>
                <pitch>
                    <step>B</step>
                    <alter>-1</alter>
                    <octave>4</octave>
                </pitch>
                <duration>5040</duration>
                <voice>1</voice>
                <type>eighth</type>
                <dot/>
                <stem default-y="-50.00">down</stem>
                <beam number="1">end</beam>
            </note>
            <backup>
                <duration>8400</duration>
            </backup>
            <attributes>
                <key>
                    <fifths>0</fifths>
                    <mode>major</mode>
                </key>
            </attributes>
            <forward>
                <duration>8400</duration>
            </forward>
            <note>
                <pitch>
                    <step>C</step>
                    <octave>5</octave>
                </pitch>
                <duration>13440</duration>
                <voice>1</voice>
                <type>half</type>
                <stem default-y="-45.00">down</stem>
            </note>
        </measure>
        <measure width="186" number="31"/>
        <measure width="186" number="32">
            <print new-system="yes">
                <system-layout>
                    <system-margins>
                        <left-margin>42.000</left-margin>
                        <right-margin>0.000</right-margin>
                    </system-margins>
                    <system-distance>105.000</system-distance>
                </system-layout>
            </print>
        </measure>
        <measure width="186" number="33"/>
        <measure width="186" number="34"/>
        <measure width="186" number="35"/>
    </part>
</score-partwise>
