<?xml version="1.0" encoding="UTF-8"?>
<!DOCTYPE score-partwise PUBLIC "-//Recordare//DTD MusicXML 2.0 Partwise//EN" "http://www.musicxml.org/dtds/partwise.dtd">
<score-partwise version="2.0">
    <work>
        <work-number></work-number>
        <work-title></work-title>
    </work>
    <movement-number></movement-number>
    <movement-title>test</movement-title>
    <identification>
        <creator type="composer">test</creator>
        <creator type="poet"></creator>
        <rights>Public Domain</rights>
        <encoding>
            <software>MuseScore 1.0</software>
            <encoding-date>2011-06-12</encoding-date>
            <software>ProxyMusic 2.0 c</software>
        </encoding>
        <source>http://wikifonia.org/node/11152/revisions/15062/view</source>
    </identification>
    <defaults>
        <scaling>
            <millimeters>7.056</millimeters>
            <tenths>40</tenths>
        </scaling>
        <page-layout>
            <page-height>1683.67</page-height>
            <page-width>1190.48</page-width>
            <page-margins type="even">
                <left-margin>56.6893</left-margin>
                <right-margin>56.6893</right-margin>
                <top-margin>56.6893</top-margin>
                <bottom-margin>113.379</bottom-margin>
            </page-margins>
            <page-margins type="odd">
                <left-margin>56.6893</left-margin>
                <right-margin>56.6893</right-margin>
                <top-margin>56.6893</top-margin>
                <bottom-margin>113.379</bottom-margin>
            </page-margins>
        </page-layout>
    </defaults>
    <credit page="1">
        <credit-words font-size="24" default-y="1626.98" default-x="595.238" justify="center" valign="top">Test Song</credit-words>
    </credit>
    <credit page="1">
        <credit-words font-size="14" default-y="1570.29" default-x="595.238" justify="center" valign="top">Ignore</credit-words>
    </credit>
    <credit page="1">
        <credit-words font-size="12" default-y="1559.98" default-x="1133.79" justify="right" valign="top">None</credit-words>
    </credit>
    <credit page="1">
        <credit-words font-size="8" default-y="113.379" default-x="595.238" justify="center" valign="bottom">PD</credit-words>
    </credit>
    <part-list>
        <score-part id="P1">
            <part-name>Piano</part-name>
            <part-abbreviation>Pno.</part-abbreviation>
            <score-instrument id="P1-I3">
                <instrument-name>Piano</instrument-name>
            </score-instrument>
            <midi-instrument id="P1-I3">
                <midi-channel>1</midi-channel>
                <midi-program>1</midi-program>
            </midi-instrument>
        </score-part>
    </part-list>
    <part id="P1">
        <measure width="138.80" number="0" implicit="yes">
            <print>
                <system-layout>
                    <system-margins>
                        <left-margin>90.11</left-margin>
                        <right-margin>-0.00</right-margin>
                    </system-margins>
                    <top-system-distance>180.00</top-system-distance>
                </system-layout>
                <staff-layout number="2">
                    <staff-distance>65.00</staff-distance>
                </staff-layout>
            </print>
            <attributes>
                <divisions>2</divisions>
                <key>
                    <fifths>1</fifths>
                    <mode>major</mode>
                </key>
                <time>
                    <beats>4</beats>
                    <beat-type>4</beat-type>
                </time>
                <staves>2</staves>
                <clef number="1">
                    <sign>G</sign>
                    <line>2</line>
                </clef>
                <clef number="2">
                    <sign>F</sign>
                    <line>4</line>
                </clef>
            </attributes>
            <direction placement="below">
                <direction-type>
                    <dynamics>
                        <mf/>
                    </dynamics>
                </direction-type>
                <staff>1</staff>
            </direction>
            <note default-y="-40.00" default-x="86.41">
                <pitch>
                    <step>E</step>
                    <octave>4</octave>
                </pitch>
                <duration>4</duration>
                <voice>1</voice>
                <type>half</type>
                <stem>up</stem>
                <staff>1</staff>
            </note>
            <note default-y="-5.00" default-x="86.41">
                <chord/>
                <pitch>
                    <step>E</step>
                    <octave>5</octave>
                </pitch>
                <duration>4</duration>
                <voice>1</voice>
                <type>half</type>
                <stem>up</stem>
                <staff>1</staff>
            </note>
            <backup>
                <duration>4</duration>
            </backup>
            <note default-y="-155.00" default-x="86.41">
                <pitch>
                    <step>E</step>
                    <octave>2</octave>
                </pitch>
                <duration>4</duration>
                <voice>5</voice>
                <type>half</type>
                <stem>up</stem>
                <staff>2</staff>
            </note>
            <note default-y="-135.00" default-x="86.41">
                <chord/>
                <pitch>
                    <step>B</step>
                    <octave>2</octave>
                </pitch>
                <duration>4</duration>
                <voice>5</voice>
                <type>half</type>
                <stem>up</stem>
                <staff>2</staff>
            </note>
            <note default-y="-120.00" default-x="86.41">
                <chord/>
                <pitch>
                    <step>E</step>
                    <octave>3</octave>
                </pitch>
                <duration>4</duration>
                <voice>5</voice>
                <type>half</type>
                <stem>up</stem>
                <staff>2</staff>
            </note>
            <note default-y="-105.00" default-x="86.41">
                <chord/>
                <pitch>
                    <step>A</step>
                    <octave>3</octave>
                </pitch>
                <duration>4</duration>
                <voice>5</voice>
                <type>half</type>
                <stem>up</stem>
                <staff>2</staff>
            </note>
        </measure>
        <measure width="216.17" number="1">
            <direction placement="below">
                <direction-type>
                    <wedge type="crescendo"/>
                </direction-type>
                <staff>1</staff>
            </direction>
            <note default-y="-30.00" default-x="17.50">
                <pitch>
                    <step>G</step>
                    <octave>4</octave>
                </pitch>
                <duration>4</duration>
                <voice>1</voice>
                <type>half</type>
                <stem>down</stem>
                <staff>1</staff>
            </note>
            <note default-y="-20.00" default-x="17.50">
                <chord/>
                <pitch>
                    <step>B</step>
                    <octave>4</octave>
                </pitch>
                <duration>4</duration>
                <voice>1</voice>
                <type>half</type>
                <stem>down</stem>
                <staff>1</staff>
            </note>
            <note default-y="-10.00" default-x="3.60">
                <chord/>
                <pitch>
                    <step>D</step>
                    <octave>5</octave>
                </pitch>
                <duration>4</duration>
                <voice>1</voice>
                <type>half</type>
                <stem>down</stem>
                <staff>1</staff>
            </note>
            <note default-y="-5.00" default-x="17.50">
                <chord/>
                <pitch>
                    <step>E</step>
                    <octave>5</octave>
                </pitch>
                <duration>4</duration>
                <voice>1</voice>
                <type>half</type>
                <stem>down</stem>
                <staff>1</staff>
            </note>
            <note default-y="-30.00" default-x="116.04">
                <pitch>
                    <step>G</step>
                    <octave>4</octave>
                </pitch>
                <duration>2</duration>
                <voice>1</voice>
                <type>quarter</type>
                <stem>down</stem>
                <staff>1</staff>
            </note>
            <note default-y="-20.00" default-x="116.04">
                <chord/>
                <pitch>
                    <step>B</step>
                    <alter>1</alter>
                    <octave>4</octave>
                </pitch>
                <duration>2</duration>
                <voice>1</voice>
                <type>quarter</type>
                <accidental>sharp</accidental>
                <stem>down</stem>
                <staff>1</staff>
            </note>
            <note default-y="-5.00" default-x="116.04">
                <chord/>
                <pitch>
                    <step>E</step>
                    <octave>5</octave>
                </pitch>
                <duration>2</duration>
                <voice>1</voice>
                <type>quarter</type>
                <stem>down</stem>
                <staff>1</staff>
            </note>
            <note default-y="-30.00" default-x="165.30">
                <pitch>
                    <step>G</step>
                    <octave>4</octave>
                </pitch>
                <duration>2</duration>
                <voice>1</voice>
                <type>quarter</type>
                <stem>down</stem>
                <staff>1</staff>
                <notations>
                    <articulations>
                        <staccato/>
                    </articulations>
                </notations>
            </note>
            <note default-y="-15.00" default-x="165.30">
                <chord/>
                <pitch>
                    <step>C</step>
                    <octave>5</octave>
                </pitch>
                <duration>2</duration>
                <voice>1</voice>
                <type>quarter</type>
                <stem>down</stem>
                <staff>1</staff>
            </note>
            <note default-y="0.00" default-x="165.30">
                <chord/>
                <pitch>
                    <step>F</step>
                    <alter>1</alter>
                    <octave>5</octave>
                </pitch>
                <duration>2</duration>
                <voice>1</voice>
                <type>quarter</type>
                <stem>down</stem>
                <staff>1</staff>
            </note>
            <direction placement="below">
                <direction-type>
                    <wedge type="stop"/>
                </direction-type>
                <staff>1</staff>
            </direction>
            <backup>
                <duration>8</duration>
            </backup>
            <note default-y="-120.00" default-x="17.50">
                <pitch>
                    <step>E</step>
                    <octave>3</octave>
                </pitch>
                <duration>1</duration>
                <voice>5</voice>
                <type>eighth</type>
                <stem>down</stem>
                <staff>2</staff>
                <beam number="1">begin</beam>
            </note>
            <note default-y="-110.00" default-x="42.13">
                <pitch>
                    <step>G</step>
                    <octave>3</octave>
                </pitch>
                <duration>1</duration>
                <voice>5</voice>
                <type>eighth</type>
                <stem>down</stem>
                <staff>2</staff>
                <beam number="1">continue</beam>
            </note>
            <note default-y="-120.00" default-x="66.77">
                <pitch>
                    <step>E</step>
                    <octave>3</octave>
                </pitch>
                <duration>1</duration>
                <voice>5</voice>
                <type>eighth</type>
                <stem>down</stem>
                <staff>2</staff>
                <beam number="1">continue</beam>
            </note>
            <note default-y="-100.00" default-x="91.40">
                <pitch>
                    <step>B</step>
                    <octave>3</octave>
                </pitch>
                <duration>1</duration>
                <voice>5</voice>
                <type>eighth</type>
                <stem>down</stem>
                <staff>2</staff>
                <beam number="1">end</beam>
            </note>
            <note default-y="-120.00" default-x="116.04">
                <pitch>
                    <step>E</step>
                    <octave>3</octave>
                </pitch>
                <duration>1</duration>
                <voice>5</voice>
                <type>eighth</type>
                <stem>down</stem>
                <staff>2</staff>
                <beam number="1">begin</beam>
            </note>
            <note default-y="-110.00" default-x="140.67">
                <pitch>
                    <step>G</step>
                    <octave>3</octave>
                </pitch>
                <duration>1</duration>
                <voice>5</voice>
                <type>eighth</type>
                <stem>down</stem>
                <staff>2</staff>
                <beam number="1">continue</beam>
            </note>
            <note default-y="-120.00" default-x="165.30">
                <pitch>
                    <step>E</step>
                    <octave>3</octave>
                </pitch>
                <duration>1</duration>
                <voice>5</voice>
                <type>eighth</type>
                <stem>down</stem>
                <staff>2</staff>
                <beam number="1">continue</beam>
            </note>
            <note default-y="-100.00" default-x="189.94">
                <pitch>
                    <step>B</step>
                    <octave>3</octave>
                </pitch>
                <duration>1</duration>
                <voice>5</voice>
                <type>eighth</type>
                <stem>down</stem>
                <staff>2</staff>
                <beam number="1">end</beam>
            </note>
        </measure>
        <measure width="210.67" number="2">
            <direction placement="below">
                <direction-type>
                    <wedge type="diminuendo"/>
                </direction-type>
                <staff>1</staff>
            </direction>
            <note default-y="-20.00" default-x="12.00">
                <pitch>
                    <step>B</step>
                    <octave>4</octave>
                </pitch>
                <duration>8</duration>
                <voice>1</voice>
                <type>whole</type>
                <staff>1</staff>
            </note>
            <note default-y="-10.00" default-x="12.00">
                <chord/>
                <pitch>
                    <step>D</step>
                    <octave>5</octave>
                </pitch>
                <duration>8</duration>
                <voice>1</voice>
                <type>whole</type>
                <staff>1</staff>
            </note>
            <note default-y="0.00" default-x="12.00">
                <chord/>
                <pitch>
                    <step>F</step>
                    <alter>1</alter>
                    <octave>5</octave>
                </pitch>
                <duration>8</duration>
                <voice>1</voice>
                <type>whole</type>
                <staff>1</staff>
            </note>
            <direction placement="below">
                <direction-type>
                    <wedge type="stop"/>
                </direction-type>
                <staff>1</staff>
            </direction>
            <backup>
                <duration>8</duration>
            </backup>
            <note default-y="-125.00" default-x="12.00">
                <pitch>
                    <step>D</step>
                    <octave>3</octave>
                </pitch>
                <duration>1</duration>
                <voice>5</voice>
                <type>eighth</type>
                <stem>down</stem>
                <staff>2</staff>
                <beam number="1">begin</beam>
            </note>
            <note default-y="-115.00" default-x="36.63">
                <pitch>
                    <step>F</step>
                    <alter>1</alter>
                    <octave>3</octave>
                </pitch>
                <duration>1</duration>
                <voice>5</voice>
                <type>eighth</type>
                <stem>down</stem>
                <staff>2</staff>
                <beam number="1">continue</beam>
            </note>
            <note default-y="-125.00" default-x="61.27">
                <pitch>
                    <step>D</step>
                    <octave>3</octave>
                </pitch>
                <duration>1</duration>
                <voice>5</voice>
                <type>eighth</type>
                <stem>down</stem>
                <staff>2</staff>
                <beam number="1">continue</beam>
            </note>
            <note default-y="-105.00" default-x="85.90">
                <pitch>
                    <step>A</step>
                    <octave>3</octave>
                </pitch>
                <duration>1</duration>
                <voice>5</voice>
                <type>eighth</type>
                <stem>down</stem>
                <staff>2</staff>
                <beam number="1">end</beam>
                <notations>
                    <ornaments>
                        <mordent/>
                    </ornaments>
                </notations>
            </note>
            <note default-y="-125.00" default-x="110.54">
                <pitch>
                    <step>D</step>
                    <octave>3</octave>
                </pitch>
                <duration>1</duration>
                <voice>5</voice>
                <type>eighth</type>
                <stem>down</stem>
                <staff>2</staff>
                <beam number="1">begin</beam>
            </note>
            <note default-y="-115.00" default-x="135.17">
                <pitch>
                    <step>F</step>
                    <alter>1</alter>
                    <octave>3</octave>
                </pitch>
                <duration>1</duration>
                <voice>5</voice>
                <type>eighth</type>
                <stem>down</stem>
                <staff>2</staff>
                <beam number="1">continue</beam>
            </note>
            <note default-y="-125.00" default-x="159.80">
                <pitch>
                    <step>D</step>
                    <octave>3</octave>
                </pitch>
                <duration>1</duration>
                <voice>5</voice>
                <type>eighth</type>
                <stem>down</stem>
                <staff>2</staff>
                <beam number="1">continue</beam>
            </note>
            <note default-y="-100.00" default-x="184.44">
                <pitch>
                    <step>B</step>
                    <octave>3</octave>
                </pitch>
                <duration>1</duration>
                <voice>5</voice>
                <type>eighth</type>
                <stem>down</stem>
                <staff>2</staff>
                <beam number="1">end</beam>
            </note>
        </measure>
        <measure width="210.67" number="3">
            <note default-y="-40.00" default-x="12.00">
                <pitch>
                    <step>E</step>
                    <octave>4</octave>
                </pitch>
                <duration>4</duration>
                <voice>1</voice>
                <type>half</type>
                <stem>up</stem>
                <staff>1</staff>
            </note>
            <note default-y="-30.00" default-x="12.00">
                <chord/>
                <pitch>
                    <step>G</step>
                    <octave>4</octave>
                </pitch>
                <duration>4</duration>
                <voice>1</voice>
                <type>half</type>
                <stem>up</stem>
                <staff>1</staff>
            </note>
            <note default-y="-15.00" default-x="12.00">
                <chord/>
                <pitch>
                    <step>C</step>
                    <octave>5</octave>
                </pitch>
                <duration>4</duration>
                <voice>1</voice>
                <type>half</type>
                <stem>up</stem>
                <staff>1</staff>
            </note>
            <direction placement="below">
                <direction-type>
                    <wedge type="crescendo"/>
                </direction-type>
                <staff>1</staff>
            </direction>
            <note default-y="-40.00" default-x="110.54">
                <pitch>
                    <step>E</step>
                    <octave>4</octave>
                </pitch>
                <duration>2</duration>
                <voice>1</voice>
                <type>quarter</type>
                <stem>up</stem>
                <staff>1</staff>
            </note>
            <note default-y="-25.00" default-x="110.54">
                <chord/>
                <pitch>
                    <step>A</step>
                    <octave>4</octave>
                </pitch>
                <duration>2</duration>
                <voice>1</voice>
                <type>quarter</type>
                <stem>up</stem>
                <staff>1</staff>
            </note>
            <note default-y="-15.00" default-x="110.54">
                <chord/>
                <pitch>
                    <step>C</step>
                    <octave>5</octave>
                </pitch>
                <duration>2</duration>
                <voice>1</voice>
                <type>quarter</type>
                <stem>up</stem>
                <staff>1</staff>
            </note>
            <note default-y="-40.00" default-x="159.80">
                <pitch>
                    <step>E</step>
                    <octave>4</octave>
                </pitch>
                <duration>2</duration>
                <voice>1</voice>
                <type>quarter</type>
                <stem>up</stem>
                <staff>1</staff>
            </note>
            <note default-y="-30.00" default-x="159.80">
                <chord/>
                <pitch>
                    <step>G</step>
                    <octave>4</octave>
                </pitch>
                <duration>2</duration>
                <voice>1</voice>
                <type>quarter</type>
                <stem>up</stem>
                <staff>1</staff>
            </note>
            <note default-y="-20.00" default-x="159.80">
                <chord/>
                <pitch>
                    <step>B</step>
                    <octave>4</octave>
                </pitch>
                <duration>2</duration>
                <voice>1</voice>
                <type>quarter</type>
                <stem>up</stem>
                <staff>1</staff>
            </note>
            <direction placement="below">
                <direction-type>
                    <wedge type="stop"/>
                </direction-type>
                <staff>1</staff>
            </direction>
            <backup>
                <duration>8</duration>
            </backup>
            <direction>
                <direction-type>
                    <pedal type="start" line="yes"/>
                </direction-type>
                <staff>2</staff>
            </direction>
            <note default-y="-105.00" default-x="12.00">
                <pitch>
                    <step>A</step>
                    <octave>3</octave>
                </pitch>
                <duration>1</duration>
                <voice>5</voice>
                <type>eighth</type>
                <stem>down</stem>
                <staff>2</staff>
                <beam number="1">begin</beam>
            </note>
            <note default-y="-115.00" default-x="36.63">
                <pitch>
                    <step>F</step>
                    <alter>1</alter>
                    <octave>3</octave>
                </pitch>
                <duration>1</duration>
                <voice>5</voice>
                <type>eighth</type>
                <stem>down</stem>
                <staff>2</staff>
                <beam number="1">continue</beam>
            </note>
            <note default-y="-105.00" default-x="61.27">
                <pitch>
                    <step>A</step>
                    <octave>3</octave>
                </pitch>
                <duration>1</duration>
                <voice>5</voice>
                <type>eighth</type>
                <stem>down</stem>
                <staff>2</staff>
                <beam number="1">continue</beam>
            </note>
            <note default-y="-130.00" default-x="85.90">
                <pitch>
                    <step>C</step>
                    <octave>3</octave>
                </pitch>
                <duration>1</duration>
                <voice>5</voice>
                <type>eighth</type>
                <stem>down</stem>
                <staff>2</staff>
                <beam number="1">end</beam>
            </note>
            <note default-y="-115.00" default-x="110.54">
                <pitch>
                    <step>F</step>
                    <alter>1</alter>
                    <octave>3</octave>
                </pitch>
                <duration>1</duration>
                <voice>5</voice>
                <type>eighth</type>
                <stem>down</stem>
                <staff>2</staff>
                <beam number="1">begin</beam>
            </note>
            <note default-y="-130.00" default-x="135.17">
                <pitch>
                    <step>C</step>
                    <octave>3</octave>
                </pitch>
                <duration>1</duration>
                <voice>5</voice>
                <type>eighth</type>
                <stem>down</stem>
                <staff>2</staff>
                <beam number="1">continue</beam>
            </note>
            <note default-y="-115.00" default-x="159.80">
                <pitch>
                    <step>F</step>
                    <alter>1</alter>
                    <octave>3</octave>
                </pitch>
                <duration>1</duration>
                <voice>5</voice>
                <type>eighth</type>
                <stem>down</stem>
                <staff>2</staff>
                <beam number="1">continue</beam>
            </note>
            <note default-y="-110.00" default-x="184.44">
                <pitch>
                    <step>G</step>
                    <octave>3</octave>
                </pitch>
                <duration>1</duration>
                <voice>5</voice>
                <type>eighth</type>
                <stem>down</stem>
                <staff>2</staff>
                <beam number="1">end</beam>
            </note>
            <direction>
                <direction-type>
                    <pedal type="stop" line="yes"/>
                </direction-type>
                <staff>2</staff>
            </direction>
        </measure>
        <measure width="210.67" number="4">
            <note default-y="-40.00" default-x="12.00">
                <pitch>
                    <step>E</step>
                    <octave>4</octave>
                </pitch>
                <duration>8</duration>
                <voice>1</voice>
                <type>whole</type>
                <staff>1</staff>
            </note>
            <note default-y="-20.00" default-x="12.00">
                <chord/>
                <pitch>
                    <step>B</step>
                    <octave>4</octave>
                </pitch>
                <duration>8</duration>
                <voice>1</voice>
                <type>whole</type>
                <staff>1</staff>
            </note>
            <note default-y="-10.00" default-x="12.00">
                <chord/>
                <pitch>
                    <step>D</step>
                    <octave>5</octave>
                </pitch>
                <duration>8</duration>
                <voice>1</voice>
                <type>whole</type>
                <staff>1</staff>
            </note>
            <backup>
                <duration>8</duration>
            </backup>
            <note default-y="-115.00" default-x="12.00">
                <pitch>
                    <step>F</step>
                    <alter>1</alter>
                    <octave>3</octave>
                </pitch>
                <duration>1</duration>
                <voice>5</voice>
                <type>eighth</type>
                <stem>down</stem>
                <staff>2</staff>
                <beam number="1">begin</beam>
            </note>
            <note default-y="-125.00" default-x="36.63">
                <pitch>
                    <step>D</step>
                    <octave>3</octave>
                </pitch>
                <duration>1</duration>
                <voice>5</voice>
                <type>eighth</type>
                <stem>down</stem>
                <staff>2</staff>
                <beam number="1">continue</beam>
            </note>
            <note default-y="-115.00" default-x="61.27">
                <pitch>
                    <step>F</step>
                    <alter>1</alter>
                    <octave>3</octave>
                </pitch>
                <duration>1</duration>
                <voice>5</voice>
                <type>eighth</type>
                <stem>down</stem>
                <staff>2</staff>
                <beam number="1">continue</beam>
            </note>
            <note default-y="-135.00" default-x="85.90">
                <pitch>
                    <step>B</step>
                    <octave>2</octave>
                </pitch>
                <duration>1</duration>
                <voice>5</voice>
                <type>eighth</type>
                <stem>down</stem>
                <staff>2</staff>
                <beam number="1">end</beam>
            </note>
            <note default-y="-115.00" default-x="110.54">
                <pitch>
                    <step>F</step>
                    <alter>1</alter>
                    <octave>3</octave>
                </pitch>
                <duration>1</duration>
                <voice>5</voice>
                <type>eighth</type>
                <stem>down</stem>
                <staff>2</staff>
                <beam number="1">begin</beam>
            </note>
            <note default-y="-125.00" default-x="135.17">
                <pitch>
                    <step>D</step>
                    <octave>3</octave>
                </pitch>
                <duration>1</duration>
                <voice>5</voice>
                <type>eighth</type>
                <stem>down</stem>
                <staff>2</staff>
                <beam number="1">continue</beam>
            </note>
            <note default-y="-115.00" default-x="159.80">
                <pitch>
                    <step>F</step>
                    <alter>1</alter>
                    <octave>3</octave>
                </pitch>
                <duration>1</duration>
                <voice>5</voice>
                <type>eighth</type>
                <stem>down</stem>
                <staff>2</staff>
                <beam number="1">continue</beam>
            </note>
            <note default-y="-110.00" default-x="184.44">
                <pitch>
                    <step>G</step>
                    <octave>3</octave>
                </pitch>
                <duration>1</duration>
                <voice>5</voice>
                <type>eighth</type>
                <stem>down</stem>
                <staff>2</staff>
                <beam number="1">end</beam>
            </note>
        </measure>
        <measure width="300.70" number="5">
            <print new-system="yes">
                <system-layout>
                    <system-margins>
                        <left-margin>77.95</left-margin>
                        <right-margin>-0.00</right-margin>
                    </system-margins>
                    <system-distance>92.50</system-distance>
                </system-layout>
                <staff-layout number="2">
                    <staff-distance>65.00</staff-distance>
                </staff-layout>
            </print>
            <note default-y="-40.00" default-x="65.33">
                <pitch>
                    <step>E</step>
                    <octave>4</octave>
                </pitch>
                <duration>4</duration>
                <voice>1</voice>
                <type>half</type>
                <stem>down</stem>
                <staff>1</staff>
            </note>
            <note default-y="-20.00" default-x="65.33">
                <chord/>
                <pitch>
                    <step>B</step>
                    <octave>4</octave>
                </pitch>
                <duration>4</duration>
                <voice>1</voice>
                <type>half</type>
                <stem>down</stem>
                <staff>1</staff>
            </note>
            <note default-y="-5.00" default-x="65.33">
                <chord/>
                <pitch>
                    <step>E</step>
                    <octave>5</octave>
                </pitch>
                <duration>4</duration>
                <voice>1</voice>
                <type>half</type>
                <stem>down</stem>
                <staff>1</staff>
            </note>
            <note default-y="5.00" default-x="65.33">
                <chord/>
                <pitch>
                    <step>G</step>
                    <octave>5</octave>
                </pitch>
                <duration>4</duration>
                <voice>1</voice>
                <type>half</type>
                <stem>down</stem>
                <staff>1</staff>
            </note>
            <note default-y="-50.00" default-x="182.21">
                <pitch>
                    <step>C</step>
                    <octave>4</octave>
                </pitch>
                <duration>4</duration>
                <voice>1</voice>
                <type>half</type>
                <stem>up</stem>
                <staff>1</staff>
                <notations>
                    <ornaments>
                        <trill-mark/>
                    </ornaments>
                </notations>
            </note>
            <note default-y="-35.00" default-x="182.21">
                <chord/>
                <pitch>
                    <step>F</step>
                    <alter>1</alter>
                    <octave>4</octave>
                </pitch>
                <duration>4</duration>
                <voice>1</voice>
                <type>half</type>
                <stem>up</stem>
                <staff>1</staff>
            </note>
            <note default-y="0.00" default-x="182.21">
                <chord/>
                <pitch>
                    <step>F</step>
                    <alter>1</alter>
                    <octave>5</octave>
                </pitch>
                <duration>4</duration>
                <voice>1</voice>
                <type>half</type>
                <stem>up</stem>
                <staff>1</staff>
            </note>
            <backup>
                <duration>8</duration>
            </backup>
            <note default-y="-120.00" default-x="65.33">
                <pitch>
                    <step>E</step>
                    <octave>3</octave>
                </pitch>
                <duration>1</duration>
                <voice>5</voice>
                <type>eighth</type>
                <stem>down</stem>
                <staff>2</staff>
                <beam number="1">begin</beam>
            </note>
            <note default-y="-115.00" default-x="94.55">
                <pitch>
                    <step>F</step>
                    <alter>1</alter>
                    <octave>3</octave>
                </pitch>
                <duration>1</duration>
                <voice>5</voice>
                <type>eighth</type>
                <stem>down</stem>
                <staff>2</staff>
                <beam number="1">continue</beam>
            </note>
            <note default-y="-110.00" default-x="123.77">
                <pitch>
                    <step>G</step>
                    <octave>3</octave>
                </pitch>
                <duration>1</duration>
                <voice>5</voice>
                <type>eighth</type>
                <stem>down</stem>
                <staff>2</staff>
                <beam number="1">continue</beam>
            </note>
            <note default-y="-105.00" default-x="152.99">
                <pitch>
                    <step>A</step>
                    <octave>3</octave>
                </pitch>
                <duration>1</duration>
                <voice>5</voice>
                <type>eighth</type>
                <stem>down</stem>
                <staff>2</staff>
                <beam number="1">end</beam>
            </note>
            <note default-y="-115.00" default-x="182.21">
                <pitch>
                    <step>F</step>
                    <alter>1</alter>
                    <octave>3</octave>
                </pitch>
                <duration>1</duration>
                <voice>5</voice>
                <type>eighth</type>
                <stem>down</stem>
                <staff>2</staff>
                <beam number="1">begin</beam>
            </note>
            <note default-y="-120.00" default-x="211.43">
                <pitch>
                    <step>E</step>
                    <octave>3</octave>
                </pitch>
                <duration>1</duration>
                <voice>5</voice>
                <type>eighth</type>
                <stem>down</stem>
                <staff>2</staff>
                <beam number="1">continue</beam>
            </note>
            <note default-y="-110.00" default-x="240.66">
                <pitch>
                    <step>G</step>
                    <octave>3</octave>
                </pitch>
                <duration>1</duration>
                <voice>5</voice>
                <type>eighth</type>
                <stem>down</stem>
                <staff>2</staff>
                <beam number="1">continue</beam>
            </note>
            <note default-y="-105.00" default-x="269.88">
                <pitch>
                    <step>A</step>
                    <octave>3</octave>
                </pitch>
                <duration>1</duration>
                <voice>5</voice>
                <type>eighth</type>
                <stem>down</stem>
                <staff>2</staff>
                <beam number="1">end</beam>
            </note>
        </measure>
        <measure width="247.36" number="6">
            <note default-y="-35.00" default-x="12.00">
                <pitch>
                    <step>F</step>
                    <alter>1</alter>
                    <octave>4</octave>
                </pitch>
                <duration>8</duration>
                <voice>1</voice>
                <type>whole</type>
                <staff>1</staff>
            </note>
            <note default-y="-20.00" default-x="12.00">
                <chord/>
                <pitch>
                    <step>B</step>
                    <octave>4</octave>
                </pitch>
                <duration>8</duration>
                <voice>1</voice>
                <type>whole</type>
                <staff>1</staff>
            </note>
            <note default-y="0.00" default-x="12.00">
                <chord/>
                <pitch>
                    <step>F</step>
                    <alter>1</alter>
                    <octave>5</octave>
                </pitch>
                <duration>8</duration>
                <voice>1</voice>
                <type>whole</type>
                <staff>1</staff>
            </note>
            <backup>
                <duration>8</duration>
            </backup>
            <note default-y="-110.00" default-x="12.00">
                <pitch>
                    <step>G</step>
                    <octave>3</octave>
                </pitch>
                <duration>1</duration>
                <voice>5</voice>
                <type>eighth</type>
                <stem>down</stem>
                <staff>2</staff>
                <beam number="1">begin</beam>
            </note>
            <note default-y="-120.00" default-x="41.22">
                <pitch>
                    <step>E</step>
                    <octave>3</octave>
                </pitch>
                <duration>1</duration>
                <voice>5</voice>
                <type>eighth</type>
                <stem>down</stem>
                <staff>2</staff>
                <beam number="1">continue</beam>
            </note>
            <note default-y="-135.00" default-x="70.44">
                <pitch>
                    <step>B</step>
                    <octave>2</octave>
                </pitch>
                <duration>1</duration>
                <voice>5</voice>
                <type>eighth</type>
                <stem>down</stem>
                <staff>2</staff>
                <beam number="1">continue</beam>
            </note>
            <note default-y="-120.00" default-x="99.66">
                <pitch>
                    <step>E</step>
                    <octave>3</octave>
                </pitch>
                <duration>1</duration>
                <voice>5</voice>
                <type>eighth</type>
                <stem>down</stem>
                <staff>2</staff>
                <beam number="1">end</beam>
            </note>
            <note default-y="-135.00" default-x="128.88">
                <pitch>
                    <step>B</step>
                    <octave>2</octave>
                </pitch>
                <duration>1</duration>
                <voice>5</voice>
                <type>eighth</type>
                <stem>up</stem>
                <staff>2</staff>
                <beam number="1">begin</beam>
            </note>
            <note default-y="-140.00" default-x="158.10">
                <pitch>
                    <step>A</step>
                    <octave>2</octave>
                </pitch>
                <duration>1</duration>
                <voice>5</voice>
                <type>eighth</type>
                <stem>up</stem>
                <staff>2</staff>
                <beam number="1">continue</beam>
            </note>
            <note default-y="-130.00" default-x="187.32">
                <pitch>
                    <step>C</step>
                    <octave>3</octave>
                </pitch>
                <duration>1</duration>
                <voice>5</voice>
                <type>eighth</type>
                <stem>up</stem>
                <staff>2</staff>
                <beam number="1">continue</beam>
            </note>
            <note default-y="-125.00" default-x="216.54">
                <pitch>
                    <step>D</step>
                    <octave>3</octave>
                </pitch>
                <duration>1</duration>
                <voice>5</voice>
                <type>eighth</type>
                <stem>up</stem>
                <staff>2</staff>
                <beam number="1">end</beam>
            </note>
        </measure>
        <measure width="252.86" number="7">
            <direction placement="below">
                <direction-type>
                    <wedge type="diminuendo"/>
                </direction-type>
                <staff>1</staff>
            </direction>
            <note default-y="-30.00" default-x="17.50">
                <pitch>
                    <step>G</step>
                    <octave>4</octave>
                </pitch>
                <duration>8</duration>
                <voice>1</voice>
                <type>whole</type>
                <staff>1</staff>
            </note>
            <note default-y="-20.00" default-x="17.50">
                <chord/>
                <pitch>
                    <step>B</step>
                    <octave>4</octave>
                </pitch>
                <duration>8</duration>
                <voice>1</voice>
                <type>whole</type>
                <staff>1</staff>
            </note>
            <note default-y="-5.00" default-x="17.50">
                <chord/>
                <pitch>
                    <step>E</step>
                    <octave>5</octave>
                </pitch>
                <duration>8</duration>
                <voice>1</voice>
                <type>whole</type>
                <staff>1</staff>
            </note>
            <direction placement="below">
                <direction-type>
                    <wedge type="stop"/>
                </direction-type>
                <staff>1</staff>
            </direction>
            <backup>
                <duration>8</duration>
            </backup>
            <note default-y="-120.00" default-x="17.50">
                <pitch>
                    <step>E</step>
                    <octave>3</octave>
                </pitch>
                <duration>1</duration>
                <voice>5</voice>
                <type>eighth</type>
                <stem>down</stem>
                <staff>2</staff>
                <beam number="1">begin</beam>
            </note>
            <note default-y="-115.00" default-x="46.72">
                <pitch>
                    <step>F</step>
                    <alter>1</alter>
                    <octave>3</octave>
                </pitch>
                <duration>1</duration>
                <voice>5</voice>
                <type>eighth</type>
                <stem>down</stem>
                <staff>2</staff>
                <beam number="1">continue</beam>
            </note>
            <note default-y="-110.00" default-x="75.94">
                <pitch>
                    <step>G</step>
                    <octave>3</octave>
                </pitch>
                <duration>1</duration>
                <voice>5</voice>
                <type>eighth</type>
                <stem>down</stem>
                <staff>2</staff>
                <beam number="1">continue</beam>
            </note>
            <note default-y="-105.00" default-x="105.16">
                <pitch>
                    <step>A</step>
                    <octave>3</octave>
                </pitch>
                <duration>1</duration>
                <voice>5</voice>
                <type>eighth</type>
                <stem>down</stem>
                <staff>2</staff>
                <beam number="1">end</beam>
            </note>
            <note default-y="-100.00" default-x="134.38">
                <pitch>
                    <step>B</step>
                    <octave>3</octave>
                </pitch>
                <duration>1</duration>
                <voice>5</voice>
                <type>eighth</type>
                <stem>down</stem>
                <staff>2</staff>
                <beam number="1">begin</beam>
            </note>
            <note default-y="-95.00" default-x="163.60">
                <pitch>
                    <step>C</step>
                    <octave>4</octave>
                </pitch>
                <duration>1</duration>
                <voice>5</voice>
                <type>eighth</type>
                <stem>down</stem>
                <staff>2</staff>
                <beam number="1">continue</beam>
            </note>
            <note default-y="-105.00" default-x="192.82">
                <pitch>
                    <step>A</step>
                    <octave>3</octave>
                </pitch>
                <duration>1</duration>
                <voice>5</voice>
                <type>eighth</type>
                <stem>down</stem>
                <staff>2</staff>
                <beam number="1">continue</beam>
            </note>
            <note default-y="-90.00" default-x="222.04">
                <pitch>
                    <step>D</step>
                    <octave>4</octave>
                </pitch>
                <duration>1</duration>
                <tie type="start"/>
                <voice>5</voice>
                <type>eighth</type>
                <stem>down</stem>
                <staff>2</staff>
                <beam number="1">end</beam>
                <notations>
                    <tied type="start"/>
                    <fermata type="upright"></fermata>
                </notations>
            </note>
        </measure>
        <measure width="198.23" number="8">
            <direction placement="below">
                <direction-type>
                    <dynamics>
                        <p/>
                    </dynamics>
                </direction-type>
                <staff>1</staff>
            </direction>
            <note default-y="-40.00" default-x="30.50">
                <pitch>
                    <step>E</step>
                    <octave>4</octave>
                </pitch>
                <duration>8</duration>
                <voice>1</voice>
                <type>whole</type>
                <staff>1</staff>
                <notations>
                    <arpeggiate/>
                </notations>
            </note>
            <note default-y="-20.00" default-x="30.50">
                <chord/>
                <pitch>
                    <step>B</step>
                    <octave>4</octave>
                </pitch>
                <duration>8</duration>
                <voice>1</voice>
                <type>whole</type>
                <staff>1</staff>
                <notations>
                    <arpeggiate/>
                </notations>
            </note>
            <note default-y="-5.00" default-x="30.50">
                <chord/>
                <pitch>
                    <step>E</step>
                    <octave>5</octave>
                </pitch>
                <duration>8</duration>
                <voice>1</voice>
                <type>whole</type>
                <staff>1</staff>
                <notations>
                    <arpeggiate/>
                </notations>
            </note>
            <backup>
                <duration>8</duration>
            </backup>
            <note default-y="-90.00" default-x="30.50">
                <pitch>
                    <step>D</step>
                    <octave>4</octave>
                </pitch>
                <duration>1</duration>
                <tie type="stop"/>
                <voice>5</voice>
                <type>eighth</type>
                <stem>down</stem>
                <staff>2</staff>
                <notations>
                    <tied type="stop"/>
                </notations>
            </note>
            <note>
                <rest/>
                <duration>1</duration>
                <voice>5</voice>
                <type>eighth</type>
                <staff>2</staff>
            </note>
            <note>
                <rest/>
                <duration>2</duration>
                <voice>5</voice>
                <type>quarter</type>
                <staff>2</staff>
            </note>
            <note>
                <rest/>
                <duration>4</duration>
                <voice>5</voice>
                <type>half</type>
                <staff>2</staff>
            </note>
            <barline location="right">
                <bar-style>light-heavy</bar-style>
            </barline>
        </measure>
    </part>
</score-partwise>
