<?xml version="1.0" encoding="UTF-8"?>
<!DOCTYPE score-partwise PUBLIC "-//Recordare//DTD MusicXML 2.0 Partwise//EN" "http://www.musicxml.org/dtds/partwise.dtd">
<score-partwise version="2.0">
    <work>
        <work-number></work-number>
        <work-title></work-title>
    </work>
    <movement-number></movement-number>
    <movement-title>Greensleeves</movement-title>
    <identification>
        <creator type="composer">William Ballet</creator>
        <creator type="poet"></creator>
        <rights>Public Domain</rights>
        <encoding>
            <software>Finale 2011 for Macintosh</software>
            <software>Dolet 5.5 for Finale</software>
            <encoding-date>2011-07-19</encoding-date>
            <supports value="yes" type="yes" element="print" attribute="new-system"/>
            <supports value="yes" type="yes" element="print" attribute="new-page"/>
            <software>ProxyMusic 2.0 c</software>
        </encoding>
        <source>http://wikifonia.org/node/11731/revisions/17495/view</source>
    </identification>
    <defaults>
        <scaling>
            <millimeters>5.842</millimeters>
            <tenths>40</tenths>
        </scaling>
        <page-layout>
            <page-height>2031</page-height>
            <page-width>1438</page-width>
            <page-margins type="both">
                <left-margin>87</left-margin>
                <right-margin>87</right-margin>
                <top-margin>87</top-margin>
                <bottom-margin>87</bottom-margin>
            </page-margins>
        </page-layout>
        <system-layout>
            <system-margins>
                <left-margin>0</left-margin>
                <right-margin>0</right-margin>
            </system-margins>
            <system-distance>195</system-distance>
            <top-system-distance>151</top-system-distance>
        </system-layout>
        <appearance>
            <line-width type="stem">0.7487</line-width>
            <line-width type="beam">5</line-width>
            <line-width type="staff">0.7487</line-width>
            <line-width type="light barline">0.7487</line-width>
            <line-width type="heavy barline">5</line-width>
            <line-width type="leger">0.7487</line-width>
            <line-width type="ending">1.4583</line-width>
            <line-width type="wedge">1.4583</line-width>
            <line-width type="enclosure">0.7487</line-width>
            <line-width type="tuplet bracket">0.7487</line-width>
            <note-size type="grace">60</note-size>
            <note-size type="cue">60</note-size>
        </appearance>
        <music-font font-size="16.6" font-family="Maestro,music"/>
        <word-font font-size="8.3" font-family="Times New Roman"/>
        <lyric-font font-size="8.3" font-family="Times New Roman"/>
    </defaults>
    <credit page="1">
        <credit-words font-weight="bold" font-size="24" font-family="CenturySchL" default-y="1944" default-x="719" justify="center" valign="top">Greensleeves</credit-words>
    </credit>
    <credit page="1">
        <credit-words font-size="9" font-family="CenturySchL" default-y="1884" default-x="1351" justify="right" valign="top">Attributed to Henry VIII</credit-words>
    </credit>
    <part-list>
        <score-part id="P1">
            <part-name print-object="no">MusicXML Part</part-name>
            <score-instrument id="P1-I2">
                <instrument-name>Instrument 1</instrument-name>
            </score-instrument>
            <midi-instrument id="P1-I2">
                <midi-channel>1</midi-channel>
                <midi-bank>1</midi-bank>
                <midi-program>53</midi-program>
                <volume>50</volume>
                <pan>-90</pan>
            </midi-instrument>
        </score-part>
    </part-list>
    <part id="P1">
        <measure width="240" number="0" implicit="yes">
            <print>
                <system-layout>
                    <system-margins>
                        <left-margin>60</left-margin>
                        <right-margin>0</right-margin>
                    </system-margins>
                    <top-system-distance>182</top-system-distance>
                </system-layout>
                <measure-numbering>system</measure-numbering>
            </print>
            <attributes>
                <divisions>4</divisions>
                <key>
                    <fifths>1</fifths>
                    <mode>major</mode>
                </key>
                <time>
                    <beats>6</beats>
                    <beat-type>8</beat-type>
                </time>
                <clef>
                    <sign>G</sign>
                    <line>2</line>
                </clef>
            </attributes>
            <sound tempo="120"/>
            <note default-x="108">
                <pitch>
                    <step>E</step>
                    <octave>4</octave>
                </pitch>
                <duration>2</duration>
                <voice>1</voice>
                <type>eighth</type>
                <stem default-y="-5">up</stem>
                <lyric default-y="-86" number="1">
                    <syllabic>begin</syllabic>
                    <text font-size="9" font-family="Arial">A</text>
                </lyric>
                <lyric default-y="-115" number="2">
                    <syllabic>single</syllabic>
                    <text font-size="9" font-family="Arial">I</text>
                </lyric>
                <lyric default-y="-143" number="3">
                    <syllabic>single</syllabic>
                    <text font-size="9" font-family="Arial">Well</text>
                </lyric>
            </note>
        </measure>
        <measure width="478" number="1">
            <print new-system="no"/>
            <attributes>
                <clef>
                    <sign>TAB</sign>
                    <line>5</line>
                </clef>
            </attributes>
            <harmony default-y="40">
                <root>
                    <root-step>E</root-step>
                </root>
                <kind halign="center" text="m">minor</kind>
            </harmony>
            <note default-x="14">
                <pitch>
                    <step>G</step>
                    <octave>4</octave>
                </pitch>
                <duration>4</duration>
                <voice>1</voice>
                <type>quarter</type>
                <stem default-y="5.5">up</stem>
                <lyric default-y="-86" number="1">
                    <syllabic>end</syllabic>
                    <text font-size="9" font-family="Arial">las</text>
                </lyric>
                <lyric default-y="-115" number="2">
                    <syllabic>single</syllabic>
                    <text font-size="9" font-family="Arial">have</text>
                </lyric>
                <lyric default-y="-143" number="3">
                    <syllabic>single</syllabic>
                    <text font-size="9" font-family="Arial">I</text>
                </lyric>
            </note>
            <note default-x="148">
                <pitch>
                    <step>A</step>
                    <octave>4</octave>
                </pitch>
                <duration>2</duration>
                <voice>1</voice>
                <type>eighth</type>
                <stem default-y="10.5">up</stem>
                <lyric default-y="-86" number="1">
                    <syllabic>single</syllabic>
                    <text font-size="9" font-family="Arial">my</text>
                </lyric>
                <lyric default-y="-115" number="2">
                    <syllabic>single</syllabic>
                    <text font-size="9" font-family="Arial">been</text>
                </lyric>
                <lyric default-y="-143" number="3">
                    <syllabic>single</syllabic>
                    <text font-size="9" font-family="Arial">will</text>
                </lyric>
            </note>
            <note default-x="232">
                <pitch>
                    <step>B</step>
                    <octave>4</octave>
                </pitch>
                <duration>3</duration>
                <voice>1</voice>
                <type>eighth</type>
                <dot/>
                <stem default-y="-55">down</stem>
                <beam number="1">begin</beam>
                <notations>
                    <slur placement="above" type="start" number="1"/>
                </notations>
                <lyric justify="left" default-y="-86" number="1">
                    <syllabic>single</syllabic>
                    <text font-size="9" font-family="Arial">love</text>
                    <extend/>
                </lyric>
                <lyric justify="left" default-y="-115" number="2">
                    <syllabic>single</syllabic>
                    <text font-size="9" font-family="Arial">rea</text>
                    <extend/>
                </lyric>
                <lyric justify="left" default-y="-143" number="3">
                    <syllabic>single</syllabic>
                    <text font-size="9" font-family="Arial">pray</text>
                    <extend/>
                </lyric>
            </note>
            <note default-x="342">
                <pitch>
                    <step>C</step>
                    <alter>1</alter>
                    <octave>5</octave>
                </pitch>
                <duration>1</duration>
                <voice>1</voice>
                <type>16th</type>
                <accidental>sharp</accidental>
                <stem default-y="-55">down</stem>
                <beam number="1">continue</beam>
                <beam number="2">backward hook</beam>
                <notations>
                    <slur type="stop" number="1"/>
                </notations>
            </note>
            <note default-x="394">
                <pitch>
                    <step>B</step>
                    <octave>4</octave>
                </pitch>
                <duration>2</duration>
                <voice>1</voice>
                <type>eighth</type>
                <stem default-y="-55">down</stem>
                <beam number="1">end</beam>
                <lyric default-y="-86" number="1">
                    <syllabic>single</syllabic>
                    <text font-size="9" font-family="Arial">ye</text>
                </lyric>
                <lyric default-y="-115" number="2">
                    <syllabic>single</syllabic>
                    <text font-size="9" font-family="Arial">dy</text>
                </lyric>
                <lyric default-y="-143" number="3">
                    <syllabic>single</syllabic>
                    <text font-size="9" font-family="Arial">to</text>
                </lyric>
            </note>
        </measure>
        <measure width="486" number="2">
            <print new-system="no"/>
            <harmony default-y="40">
                <root>
                    <root-step>D</root-step>
                </root>
                <kind halign="center" text="">major</kind>
            </harmony>
            <note default-x="13">
                <pitch>
                    <step>A</step>
                    <octave>4</octave>
                </pitch>
                <duration>4</duration>
                <voice>1</voice>
                <type>quarter</type>
                <stem default-y="10.5">up</stem>
                <lyric default-y="-86" number="1">
                    <syllabic>single</syllabic>
                    <text font-size="9" font-family="Arial">do</text>
                </lyric>
                <lyric default-y="-115" number="2">
                    <syllabic>single</syllabic>
                    <text font-size="9" font-family="Arial">at</text>
                </lyric>
                <lyric default-y="-143" number="3">
                    <syllabic>single</syllabic>
                    <text font-size="9" font-family="Arial">God</text>
                </lyric>
            </note>
            <note default-x="150">
                <pitch>
                    <step>F</step>
                    <alter>1</alter>
                    <octave>4</octave>
                </pitch>
                <duration>2</duration>
                <voice>1</voice>
                <type>eighth</type>
                <stem default-y="1">up</stem>
                <lyric default-y="-86" number="1">
                    <syllabic>single</syllabic>
                    <text font-size="9" font-family="Arial">me</text>
                </lyric>
                <lyric default-y="-115" number="2">
                    <syllabic>single</syllabic>
                    <text font-size="9" font-family="Arial">your</text>
                </lyric>
                <lyric default-y="-143" number="3">
                    <syllabic>single</syllabic>
                    <text font-size="9" font-family="Arial">on</text>
                </lyric>
            </note>
            <note default-x="235">
                <pitch>
                    <step>D</step>
                    <octave>4</octave>
                </pitch>
                <duration>3</duration>
                <voice>1</voice>
                <type>eighth</type>
                <dot/>
                <stem default-y="-5">up</stem>
                <beam number="1">begin</beam>
                <notations>
                    <slur placement="below" type="start" number="1"/>
                </notations>
                <lyric justify="left" default-y="-86" number="1">
                    <syllabic>single</syllabic>
                    <text font-size="9" font-family="Arial">wrong</text>
                    <extend/>
                </lyric>
                <lyric justify="left" default-y="-115" number="2">
                    <syllabic>single</syllabic>
                    <text font-size="9" font-family="Arial">hand,</text>
                    <extend/>
                </lyric>
                <lyric justify="left" default-y="-143" number="3">
                    <syllabic>single</syllabic>
                    <text font-size="9" font-family="Arial">high</text>
                </lyric>
            </note>
            <note default-x="348">
                <pitch>
                    <step>E</step>
                    <octave>4</octave>
                </pitch>
                <duration>1</duration>
                <voice>1</voice>
                <type>16th</type>
                <stem default-y="-2">up</stem>
                <beam number="1">continue</beam>
                <beam number="2">backward hook</beam>
                <notations>
                    <slur type="stop" number="1"/>
                </notations>
                <lyric justify="left" default-y="-143" number="3">
                    <syllabic>single</syllabic>
                    <text font-size="9" font-family="Arial">that</text>
                </lyric>
            </note>
            <note default-x="400">
                <pitch>
                    <step>F</step>
                    <alter>1</alter>
                    <octave>4</octave>
                </pitch>
                <duration>2</duration>
                <voice>1</voice>
                <type>eighth</type>
                <stem default-y="0">up</stem>
                <beam number="1">end</beam>
                <lyric default-y="-86" number="1">
                    <syllabic>single</syllabic>
                    <text font-size="9" font-family="Arial">to</text>
                </lyric>
                <lyric default-y="-115" number="2">
                    <syllabic>single</syllabic>
                    <text font-size="9" font-family="Arial">to</text>
                </lyric>
            </note>
        </measure>
        <measure width="639" number="3">
            <print new-system="yes"/>
            <harmony default-y="40">
                <root>
                    <root-step>E</root-step>
                </root>
                <kind halign="center" text="m">minor</kind>
            </harmony>
            <note default-x="50">
                <pitch>
                    <step>G</step>
                    <octave>4</octave>
                </pitch>
                <duration>4</duration>
                <voice>1</voice>
                <type>quarter</type>
                <stem default-y="5">up</stem>
                <lyric default-y="-86" number="1">
                    <syllabic>single</syllabic>
                    <text font-size="9" font-family="Arial">cast</text>
                </lyric>
                <lyric default-y="-115" number="2">
                    <syllabic>single</syllabic>
                    <text font-size="9" font-family="Arial">grant</text>
                </lyric>
                <lyric default-y="-143" number="3">
                    <syllabic>single</syllabic>
                    <text font-size="9" font-family="Arial">thou</text>
                </lyric>
            </note>
            <note default-x="220">
                <pitch>
                    <step>E</step>
                    <octave>4</octave>
                </pitch>
                <duration>2</duration>
                <voice>1</voice>
                <type>eighth</type>
                <stem default-y="-4.5">up</stem>
                <lyric default-y="-86" number="1">
                    <syllabic>single</syllabic>
                    <text font-size="9" font-family="Arial">me</text>
                </lyric>
                <lyric default-y="-115" number="2">
                    <syllabic>single</syllabic>
                    <text font-size="9" font-family="Arial">what</text>
                </lyric>
                <lyric default-y="-143" number="3">
                    <syllabic>single</syllabic>
                    <text font-size="9" font-family="Arial">my</text>
                </lyric>
            </note>
            <note default-x="326">
                <pitch>
                    <step>E</step>
                    <octave>4</octave>
                </pitch>
                <duration>3</duration>
                <voice>1</voice>
                <type>eighth</type>
                <dot/>
                <stem default-y="-5">up</stem>
                <beam number="1">begin</beam>
                <notations>
                    <slur placement="below" type="start" number="1"/>
                </notations>
                <lyric justify="left" default-y="-86" number="1">
                    <syllabic>single</syllabic>
                    <text font-size="9" font-family="Arial">off</text>
                </lyric>
                <lyric justify="left" default-y="-115" number="2">
                    <syllabic>single</syllabic>
                    <text font-size="9" font-family="Arial">ev</text>
                    <extend/>
                </lyric>
                <lyric justify="left" default-y="-143" number="3">
                    <syllabic>begin</syllabic>
                    <text font-size="9" font-family="Arial">con</text>
                </lyric>
            </note>
            <note default-x="467">
                <pitch>
                    <step>D</step>
                    <alter>1</alter>
                    <octave>4</octave>
                </pitch>
                <duration>1</duration>
                <voice>1</voice>
                <type>16th</type>
                <accidental>sharp</accidental>
                <stem default-y="-5">up</stem>
                <beam number="1">continue</beam>
                <beam number="2">backward hook</beam>
                <notations>
                    <slur type="stop" number="1"/>
                </notations>
                <lyric justify="left" default-y="-143" number="3">
                    <syllabic>middle</syllabic>
                    <text font-size="9" font-family="Arial">stan</text>
                </lyric>
            </note>
            <note default-x="532">
                <pitch>
                    <step>E</step>
                    <octave>4</octave>
                </pitch>
                <duration>2</duration>
                <voice>1</voice>
                <type>eighth</type>
                <stem default-y="-5">up</stem>
                <beam number="1">end</beam>
                <lyric default-y="-86" number="1">
                    <syllabic>begin</syllabic>
                    <text font-size="9" font-family="Arial">dis</text>
                </lyric>
                <lyric default-y="-115" number="2">
                    <syllabic>single</syllabic>
                    <text font-size="9" font-family="Arial">er</text>
                </lyric>
            </note>
        </measure>
        <measure width="625" number="4">
            <print new-system="no"/>
            <harmony default-y="40">
                <root>
                    <root-step>B</root-step>
                </root>
                <kind halign="center" text="7">dominant</kind>
            </harmony>
            <note default-x="13">
                <pitch>
                    <step>F</step>
                    <alter>1</alter>
                    <octave>4</octave>
                </pitch>
                <duration>4</duration>
                <voice>1</voice>
                <type>quarter</type>
                <stem default-y="0.5">up</stem>
                <lyric default-y="-86" number="1">
                    <syllabic>middle</syllabic>
                    <text font-size="9" font-family="Arial">cour</text>
                </lyric>
                <lyric default-y="-115" number="2">
                    <syllabic>single</syllabic>
                    <text font-size="9" font-family="Arial">you</text>
                </lyric>
                <lyric default-y="-143" number="3">
                    <syllabic>end</syllabic>
                    <text font-size="9" font-family="Arial">cy</text>
                </lyric>
            </note>
            <note default-x="202">
                <pitch>
                    <step>D</step>
                    <octave>4</octave>
                </pitch>
                <duration>2</duration>
                <voice>1</voice>
                <type>eighth</type>
                <stem default-y="-9">up</stem>
                <lyric default-y="-86" number="1">
                    <syllabic>middle</syllabic>
                    <text font-size="9" font-family="Arial">teous</text>
                </lyric>
                <lyric default-y="-115" number="2">
                    <syllabic>single</syllabic>
                    <text font-size="9" font-family="Arial">would</text>
                </lyric>
                <lyric default-y="-143" number="3">
                    <syllabic>single</syllabic>
                    <text font-size="9" font-family="Arial">may'st</text>
                </lyric>
            </note>
            <note default-x="319">
                <pitch>
                    <step>B</step>
                    <octave>3</octave>
                </pitch>
                <duration>4</duration>
                <voice>1</voice>
                <type>quarter</type>
                <stem default-y="-19.5">up</stem>
                <lyric default-y="-86" number="1">
                    <syllabic>end</syllabic>
                    <text font-size="9" font-family="Arial">ly,</text>
                </lyric>
                <lyric default-y="-115" number="2">
                    <syllabic>single</syllabic>
                    <text font-size="9" font-family="Arial">crave;</text>
                </lyric>
                <lyric default-y="-143" number="3">
                    <syllabic>single</syllabic>
                    <text font-size="9" font-family="Arial">see,</text>
                </lyric>
            </note>
            <note default-x="507">
                <pitch>
                    <step>E</step>
                    <octave>4</octave>
                </pitch>
                <duration>2</duration>
                <voice>1</voice>
                <type>eighth</type>
                <stem default-y="-4.5">up</stem>
                <lyric default-y="-86" number="1">
                    <syllabic>single</syllabic>
                    <text font-size="9" font-family="Arial">And</text>
                </lyric>
                <lyric default-y="-115" number="2">
                    <syllabic>single</syllabic>
                    <text font-size="9" font-family="Arial">I</text>
                </lyric>
                <lyric default-y="-143" number="3">
                    <syllabic>single</syllabic>
                    <text font-size="9" font-family="Arial">And</text>
                </lyric>
            </note>
        </measure>
        <measure width="665" number="5">
            <print new-system="yes"/>
            <harmony default-y="40">
                <root>
                    <root-step>E</root-step>
                </root>
                <kind halign="center" text="m">minor</kind>
            </harmony>
            <note default-x="50">
                <pitch>
                    <step>G</step>
                    <octave>4</octave>
                </pitch>
                <duration>4</duration>
                <voice>1</voice>
                <type>quarter</type>
                <stem default-y="5.5">up</stem>
                <lyric default-y="-92" number="1">
                    <syllabic>single</syllabic>
                    <text font-size="9" font-family="Arial">I</text>
                </lyric>
                <lyric default-y="-120" number="2">
                    <syllabic>single</syllabic>
                    <text font-size="9" font-family="Arial">have</text>
                </lyric>
                <lyric default-y="-149" number="3">
                    <syllabic>single</syllabic>
                    <text font-size="9" font-family="Arial">that</text>
                </lyric>
            </note>
            <note default-x="228">
                <pitch>
                    <step>A</step>
                    <octave>4</octave>
                </pitch>
                <duration>2</duration>
                <voice>1</voice>
                <type>eighth</type>
                <stem default-y="10">up</stem>
                <lyric default-y="-92" number="1">
                    <syllabic>single</syllabic>
                    <text font-size="9" font-family="Arial">have</text>
                </lyric>
                <lyric default-y="-120" number="2">
                    <syllabic>single</syllabic>
                    <text font-size="9" font-family="Arial">both</text>
                </lyric>
                <lyric default-y="-149" number="3">
                    <syllabic>single</syllabic>
                    <text font-size="9" font-family="Arial">yet</text>
                </lyric>
            </note>
            <note default-x="339">
                <pitch>
                    <step>B</step>
                    <octave>4</octave>
                </pitch>
                <duration>3</duration>
                <voice>1</voice>
                <type>eighth</type>
                <dot/>
                <stem default-y="-55">down</stem>
                <beam number="1">begin</beam>
                <notations>
                    <slur placement="above" type="start" number="1"/>
                </notations>
                <lyric justify="left" default-y="-92" number="1">
                    <syllabic>begin</syllabic>
                    <text font-size="9" font-family="Arial">lov</text>
                </lyric>
                <lyric justify="left" default-y="-120" number="2">
                    <syllabic>single</syllabic>
                    <text font-size="9" font-family="Arial">wa</text>
                    <extend/>
                </lyric>
                <lyric justify="left" default-y="-149" number="3">
                    <syllabic>single</syllabic>
                    <text font-size="9" font-family="Arial">once</text>
                    <extend/>
                </lyric>
            </note>
            <note default-x="486">
                <pitch>
                    <step>C</step>
                    <alter>1</alter>
                    <octave>5</octave>
                </pitch>
                <duration>1</duration>
                <voice>1</voice>
                <type>16th</type>
                <accidental>sharp</accidental>
                <stem default-y="-55">down</stem>
                <beam number="1">continue</beam>
                <beam number="2">backward hook</beam>
                <notations>
                    <slur type="stop" number="1"/>
                </notations>
            </note>
            <note default-x="554">
                <pitch>
                    <step>B</step>
                    <octave>4</octave>
                </pitch>
                <duration>2</duration>
                <voice>1</voice>
                <type>eighth</type>
                <stem default-y="-55">down</stem>
                <beam number="1">end</beam>
                <lyric default-y="-92" number="1">
                    <syllabic>end</syllabic>
                    <text font-size="9" font-family="Arial">ed</text>
                </lyric>
                <lyric default-y="-120" number="2">
                    <syllabic>single</syllabic>
                    <text font-size="9" font-family="Arial">ged</text>
                </lyric>
                <lyric default-y="-149" number="3">
                    <syllabic>single</syllabic>
                    <text font-size="9" font-family="Arial">be</text>
                </lyric>
            </note>
        </measure>
        <measure width="599" number="6">
            <print new-system="no"/>
            <harmony default-y="40">
                <root>
                    <root-step>D</root-step>
                </root>
                <kind halign="center" text="">major</kind>
            </harmony>
            <note default-x="14">
                <pitch>
                    <step>A</step>
                    <octave>4</octave>
                </pitch>
                <duration>4</duration>
                <voice>1</voice>
                <type>quarter</type>
                <stem default-y="10">up</stem>
                <lyric default-y="-92" number="1">
                    <syllabic>single</syllabic>
                    <text font-size="9" font-family="Arial">you</text>
                </lyric>
                <lyric default-y="-120" number="2">
                    <syllabic>single</syllabic>
                    <text font-size="9" font-family="Arial">life</text>
                </lyric>
                <lyric default-y="-149" number="3">
                    <syllabic>single</syllabic>
                    <text font-size="9" font-family="Arial">fore</text>
                </lyric>
            </note>
            <note default-x="183">
                <pitch>
                    <step>F</step>
                    <alter>1</alter>
                    <octave>4</octave>
                </pitch>
                <duration>2</duration>
                <voice>1</voice>
                <type>eighth</type>
                <stem default-y="1">up</stem>
                <lyric default-y="-92" number="1">
                    <syllabic>single</syllabic>
                    <text font-size="9" font-family="Arial">so</text>
                </lyric>
                <lyric default-y="-120" number="2">
                    <syllabic>single</syllabic>
                    <text font-size="9" font-family="Arial">and</text>
                </lyric>
                <lyric default-y="-149" number="3">
                    <syllabic>single</syllabic>
                    <text font-size="9" font-family="Arial">I</text>
                </lyric>
            </note>
            <note default-x="288">
                <pitch>
                    <step>D</step>
                    <octave>4</octave>
                </pitch>
                <duration>3</duration>
                <voice>1</voice>
                <type>eighth</type>
                <dot/>
                <stem default-y="-5">up</stem>
                <beam number="1">begin</beam>
                <notations>
                    <slur placement="below" type="start" number="1"/>
                </notations>
                <lyric justify="left" default-y="-92" number="1">
                    <syllabic>single</syllabic>
                    <text font-size="9" font-family="Arial">long</text>
                    <extend/>
                </lyric>
                <lyric justify="left" default-y="-120" number="2">
                    <syllabic>single</syllabic>
                    <text font-size="9" font-family="Arial">land,</text>
                </lyric>
                <lyric justify="left" default-y="-149" number="3">
                    <syllabic>single</syllabic>
                    <text font-size="9" font-family="Arial">die</text>
                </lyric>
            </note>
            <note default-x="428">
                <pitch>
                    <step>E</step>
                    <octave>4</octave>
                </pitch>
                <duration>1</duration>
                <voice>1</voice>
                <type>16th</type>
                <stem default-y="-2">up</stem>
                <beam number="1">continue</beam>
                <beam number="2">backward hook</beam>
                <notations>
                    <slur type="stop" number="1"/>
                </notations>
                <lyric justify="left" default-y="-120" number="2">
                    <syllabic>single</syllabic>
                    <text font-size="9" font-family="Arial">your</text>
                </lyric>
                <lyric justify="left" default-y="-149" number="3">
                    <syllabic>single</syllabic>
                    <text font-size="9" font-family="Arial">thou</text>
                </lyric>
            </note>
            <note default-x="493">
                <pitch>
                    <step>F</step>
                    <alter>1</alter>
                    <octave>4</octave>
                </pitch>
                <duration>2</duration>
                <voice>1</voice>
                <type>eighth</type>
                <stem default-y="0">up</stem>
                <beam number="1">end</beam>
                <lyric default-y="-92" number="1">
                    <syllabic>begin</syllabic>
                    <text font-size="9" font-family="Arial">de</text>
                </lyric>
            </note>
        </measure>
        <measure width="756" number="7">
            <print new-system="yes"/>
            <harmony default-y="40">
                <root>
                    <root-step>E</root-step>
                </root>
                <kind halign="center" text="m">minor</kind>
            </harmony>
            <note default-x="50">
                <pitch>
                    <step>G</step>
                    <octave>4</octave>
                </pitch>
                <duration>3</duration>
                <voice>1</voice>
                <type>eighth</type>
                <dot/>
                <stem default-y="5">up</stem>
                <beam number="1">begin</beam>
                <notations>
                    <slur placement="below" type="start" number="1"/>
                </notations>
                <lyric justify="left" default-y="-92" number="1">
                    <syllabic>middle</syllabic>
                    <text font-size="9" font-family="Arial">light</text>
                </lyric>
                <lyric justify="left" default-y="-120" number="2">
                    <syllabic>single</syllabic>
                    <text font-size="9" font-family="Arial">love</text>
                    <extend/>
                </lyric>
                <lyric justify="left" default-y="-149" number="3">
                    <syllabic>single</syllabic>
                    <text font-size="9" font-family="Arial">wilt</text>
                </lyric>
            </note>
            <note default-x="209">
                <pitch>
                    <step>F</step>
                    <alter>1</alter>
                    <octave>4</octave>
                </pitch>
                <duration>1</duration>
                <voice>1</voice>
                <type>16th</type>
                <stem default-y="1.5">up</stem>
                <beam number="1">continue</beam>
                <beam number="2">backward hook</beam>
                <notations>
                    <slur type="stop" number="1"/>
                </notations>
                <lyric justify="left" default-y="-149" number="3">
                    <syllabic>single</syllabic>
                    <text font-size="9" font-family="Arial">vouch</text>
                    <extend/>
                </lyric>
            </note>
            <note default-x="283">
                <pitch>
                    <step>E</step>
                    <octave>4</octave>
                </pitch>
                <duration>2</duration>
                <voice>1</voice>
                <type>eighth</type>
                <stem default-y="0">up</stem>
                <beam number="1">end</beam>
                <lyric relative-x="4" default-y="-92" number="1">
                    <syllabic>end</syllabic>
                    <text font-size="9" font-family="Arial">ing</text>
                </lyric>
                <lyric default-y="-120" number="2">
                    <syllabic>single</syllabic>
                    <text font-size="9" font-family="Arial">and</text>
                </lyric>
            </note>
            <harmony default-y="40">
                <root>
                    <root-step>B</root-step>
                </root>
                <kind halign="center" text="7">dominant</kind>
            </harmony>
            <note default-x="403">
                <pitch>
                    <step>D</step>
                    <alter>1</alter>
                    <octave>4</octave>
                </pitch>
                <duration>3</duration>
                <voice>1</voice>
                <type>eighth</type>
                <dot/>
                <accidental>sharp</accidental>
                <stem default-y="-10">up</stem>
                <beam number="1">begin</beam>
                <notations>
                    <slur placement="below" type="start" number="1"/>
                </notations>
                <lyric justify="left" default-y="-92" number="1">
                    <syllabic>single</syllabic>
                    <text font-size="9" font-family="Arial">in</text>
                </lyric>
                <lyric justify="left" default-y="-120" number="2">
                    <syllabic>single</syllabic>
                    <text font-size="9" font-family="Arial">good</text>
                    <extend/>
                </lyric>
                <lyric justify="left" default-y="-149" number="3">
                    <syllabic>single</syllabic>
                    <text font-size="9" font-family="Arial">safe</text>
                    <extend/>
                </lyric>
            </note>
            <note default-x="562">
                <pitch>
                    <step>C</step>
                    <alter>1</alter>
                    <octave>4</octave>
                </pitch>
                <duration>1</duration>
                <voice>1</voice>
                <type>16th</type>
                <accidental>sharp</accidental>
                <stem default-y="-10">up</stem>
                <beam number="1">continue</beam>
                <beam number="2">backward hook</beam>
                <notations>
                    <slur type="stop" number="1"/>
                </notations>
                <lyric justify="left" default-y="-92" number="1">
                    <syllabic>single</syllabic>
                    <text font-size="9" font-family="Arial">your</text>
                </lyric>
            </note>
            <note default-x="635">
                <pitch>
                    <step>D</step>
                    <alter>1</alter>
                    <octave>4</octave>
                </pitch>
                <duration>2</duration>
                <voice>1</voice>
                <type>eighth</type>
                <stem default-y="-10">up</stem>
                <beam number="1">end</beam>
                <lyric default-y="-120" number="2">
                    <syllabic>single</syllabic>
                    <text font-size="9" font-family="Arial">will</text>
                </lyric>
                <lyric default-y="-149" number="3">
                    <syllabic>single</syllabic>
                    <text font-size="9" font-family="Arial">to</text>
                </lyric>
            </note>
        </measure>
        <measure width="508" number="8">
            <print new-system="no"/>
            <harmony default-y="40">
                <root>
                    <root-step>E</root-step>
                </root>
                <kind halign="center" text="">major</kind>
            </harmony>
            <note default-x="13">
                <pitch>
                    <step>E</step>
                    <octave>4</octave>
                </pitch>
                <duration>4</duration>
                <tie type="start"/>
                <voice>1</voice>
                <type>quarter</type>
                <stem default-y="-4.5">up</stem>
                <notations>
                    <tied orientation="under" type="start"/>
                </notations>
                <lyric default-y="-92" number="1">
                    <syllabic>begin</syllabic>
                    <text font-size="9" font-family="Arial">com</text>
                </lyric>
                <lyric default-y="-120" number="2">
                    <syllabic>single</syllabic>
                    <text font-size="9" font-family="Arial">for</text>
                </lyric>
                <lyric default-y="-149" number="3">
                    <syllabic>single</syllabic>
                    <text font-size="9" font-family="Arial">love</text>
                </lyric>
            </note>
            <note default-x="166">
                <pitch>
                    <step>E</step>
                    <octave>4</octave>
                </pitch>
                <duration>2</duration>
                <tie type="stop"/>
                <voice>1</voice>
                <type>eighth</type>
                <stem default-y="-4.5">up</stem>
                <notations>
                    <tied type="stop"/>
                </notations>
                <lyric default-y="-92" number="1">
                    <syllabic>middle</syllabic>
                    <text font-size="9" font-family="Arial">pa</text>
                </lyric>
                <lyric default-y="-120" number="2">
                    <syllabic>single</syllabic>
                    <text font-size="9" font-family="Arial">to</text>
                </lyric>
            </note>
            <note default-x="260">
                <pitch>
                    <step>E</step>
                    <octave>4</octave>
                </pitch>
                <duration>4</duration>
                <voice>1</voice>
                <type>quarter</type>
                <stem default-y="-4.5">up</stem>
                <lyric default-y="-92" number="1">
                    <syllabic>end</syllabic>
                    <text font-size="9" font-family="Arial">ny.</text>
                </lyric>
                <lyric default-y="-120" number="2">
                    <syllabic>single</syllabic>
                    <text font-size="9" font-family="Arial">have.</text>
                </lyric>
                <lyric default-y="-149" number="3">
                    <syllabic>single</syllabic>
                    <text font-size="9" font-family="Arial">me.</text>
                </lyric>
            </note>
            <note default-x="413">
                <rest>
                    <display-step>A</display-step>
                    <display-octave>4</display-octave>
                </rest>
                <duration>2</duration>
                <voice>1</voice>
                <type>eighth</type>
            </note>
        </measure>
        <measure width="366" number="9">
            <print new-system="yes"/>
            <harmony default-y="40">
                <root>
                    <root-step>G</root-step>
                </root>
                <kind halign="center" text="">major</kind>
            </harmony>
            <note default-x="50">
                <pitch>
                    <step>D</step>
                    <octave>5</octave>
                </pitch>
                <duration>4</duration>
                <tie type="start"/>
                <voice>1</voice>
                <type>quarter</type>
                <stem default-y="-45">down</stem>
                <notations>
                    <tied type="start"/>
                </notations>
                <lyric default-y="-88" number="1">
                    <syllabic>begin</syllabic>
                    <text font-size="9" font-family="Arial">Green</text>
                </lyric>
            </note>
            <note default-x="142">
                <pitch>
                    <step>D</step>
                    <octave>5</octave>
                </pitch>
                <duration>2</duration>
                <tie type="stop"/>
                <voice>1</voice>
                <type>eighth</type>
                <stem default-y="-45">down</stem>
                <notations>
                    <tied type="stop"/>
                </notations>
            </note>
            <note default-x="199">
                <pitch>
                    <step>D</step>
                    <octave>5</octave>
                </pitch>
                <duration>3</duration>
                <voice>1</voice>
                <type>eighth</type>
                <dot/>
                <stem default-y="-50">down</stem>
                <beam number="1">begin</beam>
                <notations>
                    <slur placement="above" type="start" number="1"/>
                </notations>
                <lyric justify="left" default-y="-88" number="1">
                    <syllabic>end</syllabic>
                    <text font-size="9" font-family="Arial">sleeves</text>
                    <extend/>
                </lyric>
            </note>
            <note default-x="274">
                <pitch>
                    <step>C</step>
                    <alter>1</alter>
                    <octave>5</octave>
                </pitch>
                <duration>1</duration>
                <voice>1</voice>
                <type>16th</type>
                <accidental>sharp</accidental>
                <stem default-y="-53">down</stem>
                <beam number="1">continue</beam>
                <beam number="2">backward hook</beam>
                <notations>
                    <slur type="stop" number="1"/>
                </notations>
            </note>
            <note default-x="309">
                <pitch>
                    <step>B</step>
                    <octave>4</octave>
                </pitch>
                <duration>2</duration>
                <voice>1</voice>
                <type>eighth</type>
                <stem default-y="-55">down</stem>
                <beam number="1">end</beam>
                <lyric default-y="-88" number="1">
                    <syllabic>single</syllabic>
                    <text font-size="9" font-family="Arial">was</text>
                </lyric>
            </note>
        </measure>
        <measure width="278" number="10">
            <print new-system="no"/>
            <harmony default-y="40">
                <root>
                    <root-step>D</root-step>
                </root>
                <kind halign="center" text="">major</kind>
            </harmony>
            <note default-x="14">
                <pitch>
                    <step>A</step>
                    <octave>4</octave>
                </pitch>
                <duration>4</duration>
                <voice>1</voice>
                <type>quarter</type>
                <stem default-y="10">up</stem>
                <lyric default-y="-88" number="1">
                    <syllabic>single</syllabic>
                    <text font-size="9" font-family="Arial">all</text>
                </lyric>
            </note>
            <note default-x="90">
                <pitch>
                    <step>F</step>
                    <alter>1</alter>
                    <octave>4</octave>
                </pitch>
                <duration>2</duration>
                <voice>1</voice>
                <type>eighth</type>
                <stem default-y="1">up</stem>
                <lyric default-y="-88" number="1">
                    <syllabic>single</syllabic>
                    <text font-size="9" font-family="Arial">my</text>
                </lyric>
            </note>
            <note default-x="137">
                <pitch>
                    <step>D</step>
                    <octave>4</octave>
                </pitch>
                <duration>3</duration>
                <voice>1</voice>
                <type>eighth</type>
                <dot/>
                <stem default-y="-5">up</stem>
                <beam number="1">begin</beam>
                <notations>
                    <slur placement="below" type="start" number="1"/>
                </notations>
                <lyric justify="left" default-y="-88" number="1">
                    <syllabic>single</syllabic>
                    <text font-size="9" font-family="Arial">joy.</text>
                    <extend/>
                </lyric>
            </note>
            <note default-x="201">
                <pitch>
                    <step>E</step>
                    <octave>4</octave>
                </pitch>
                <duration>1</duration>
                <voice>1</voice>
                <type>16th</type>
                <stem default-y="-1">up</stem>
                <beam number="1">continue</beam>
                <beam number="2">backward hook</beam>
            </note>
            <note default-x="230">
                <pitch>
                    <step>F</step>
                    <alter>1</alter>
                    <octave>4</octave>
                </pitch>
                <duration>2</duration>
                <voice>1</voice>
                <type>eighth</type>
                <stem default-y="0">up</stem>
                <beam number="1">end</beam>
                <notations>
                    <slur type="stop" number="1"/>
                </notations>
            </note>
        </measure>
        <measure width="340" number="11">
            <print new-system="no"/>
            <harmony default-y="40">
                <root>
                    <root-step>E</root-step>
                </root>
                <kind halign="center" text="m">minor</kind>
            </harmony>
            <note default-x="13">
                <pitch>
                    <step>G</step>
                    <octave>4</octave>
                </pitch>
                <duration>4</duration>
                <voice>1</voice>
                <type>quarter</type>
                <stem default-y="5.5">up</stem>
                <notations>
                    <slur placement="below" type="start" number="1"/>
                </notations>
                <lyric justify="left" default-y="-88" number="1">
                    <syllabic>begin</syllabic>
                    <text font-size="9" font-family="Arial">Green</text>
                </lyric>
            </note>
            <note default-x="108">
                <pitch>
                    <step>E</step>
                    <octave>4</octave>
                </pitch>
                <duration>2</duration>
                <voice>1</voice>
                <type>eighth</type>
                <stem default-y="-5">up</stem>
                <notations>
                    <slur type="stop" number="1"/>
                </notations>
            </note>
            <note default-x="167">
                <pitch>
                    <step>E</step>
                    <octave>4</octave>
                </pitch>
                <duration>3</duration>
                <voice>1</voice>
                <type>eighth</type>
                <dot/>
                <stem default-y="-5">up</stem>
                <beam number="1">begin</beam>
                <notations>
                    <slur placement="below" type="start" number="1"/>
                </notations>
                <lyric justify="left" default-y="-90" number="1">
                    <syllabic>end</syllabic>
                    <text font-size="9" font-family="Arial">sleeves</text>
                    <extend/>
                </lyric>
            </note>
            <note default-x="245">
                <pitch>
                    <step>D</step>
                    <octave>4</octave>
                </pitch>
                <duration>1</duration>
                <voice>1</voice>
                <type>16th</type>
                <stem default-y="-5">up</stem>
                <beam number="1">continue</beam>
                <beam number="2">backward hook</beam>
                <notations>
                    <slur type="stop" number="1"/>
                </notations>
            </note>
            <note default-x="281">
                <pitch>
                    <step>E</step>
                    <octave>4</octave>
                </pitch>
                <duration>2</duration>
                <voice>1</voice>
                <type>eighth</type>
                <stem default-y="-5">up</stem>
                <beam number="1">end</beam>
                <lyric default-y="-90" number="1">
                    <syllabic>single</syllabic>
                    <text font-size="9" font-family="Arial">was</text>
                </lyric>
            </note>
        </measure>
        <measure width="279" number="12">
            <print new-system="no"/>
            <harmony default-y="40">
                <root>
                    <root-step>B</root-step>
                </root>
                <kind halign="center" text="7">dominant</kind>
            </harmony>
            <note default-x="14">
                <pitch>
                    <step>F</step>
                    <alter>1</alter>
                    <octave>4</octave>
                </pitch>
                <duration>4</duration>
                <voice>1</voice>
                <type>quarter</type>
                <stem default-y="1">up</stem>
                <lyric default-y="-90" number="1">
                    <syllabic>single</syllabic>
                    <text font-size="9" font-family="Arial">my</text>
                </lyric>
            </note>
            <note default-x="95">
                <pitch>
                    <step>D</step>
                    <octave>4</octave>
                </pitch>
                <duration>2</duration>
                <voice>1</voice>
                <type>eighth</type>
                <stem default-y="-9.5">up</stem>
                <lyric default-y="-90" number="1">
                    <syllabic>begin</syllabic>
                    <text font-size="9" font-family="Arial">de</text>
                </lyric>
            </note>
            <note default-x="146">
                <pitch>
                    <step>B</step>
                    <octave>3</octave>
                </pitch>
                <duration>4</duration>
                <tie type="start"/>
                <voice>1</voice>
                <type>quarter</type>
                <stem default-y="-19">up</stem>
                <notations>
                    <tied type="start"/>
                </notations>
                <lyric relative-x="7" default-y="-90" number="1">
                    <syllabic>end</syllabic>
                    <text font-size="9" font-family="Arial">light.</text>
                </lyric>
            </note>
            <note default-x="227">
                <pitch>
                    <step>B</step>
                    <octave>3</octave>
                </pitch>
                <duration>2</duration>
                <tie type="stop"/>
                <voice>1</voice>
                <type>eighth</type>
                <stem default-y="-19">up</stem>
                <notations>
                    <tied type="stop"/>
                </notations>
            </note>
        </measure>
        <measure width="363" number="13">
            <print new-system="yes"/>
            <harmony default-y="40">
                <root>
                    <root-step>G</root-step>
                </root>
                <kind halign="center" text="">major</kind>
            </harmony>
            <note default-x="50">
                <pitch>
                    <step>D</step>
                    <octave>5</octave>
                </pitch>
                <duration>4</duration>
                <tie type="start"/>
                <voice>1</voice>
                <type>quarter</type>
                <stem default-y="-45">down</stem>
                <notations>
                    <tied type="start"/>
                </notations>
                <lyric default-y="-90" number="1">
                    <syllabic>begin</syllabic>
                    <text font-size="9" font-family="Arial">Green</text>
                </lyric>
            </note>
            <note default-x="141">
                <pitch>
                    <step>D</step>
                    <octave>5</octave>
                </pitch>
                <duration>2</duration>
                <tie type="stop"/>
                <voice>1</voice>
                <type>eighth</type>
                <stem default-y="-45">down</stem>
                <notations>
                    <tied type="stop"/>
                </notations>
            </note>
            <note default-x="197">
                <pitch>
                    <step>D</step>
                    <octave>5</octave>
                </pitch>
                <duration>3</duration>
                <voice>1</voice>
                <type>eighth</type>
                <dot/>
                <stem default-y="-50">down</stem>
                <beam number="1">begin</beam>
                <lyric default-y="-90" number="1">
                    <syllabic>end</syllabic>
                    <text font-size="9" font-family="Arial">sleeves</text>
                </lyric>
            </note>
            <note default-x="271">
                <pitch>
                    <step>C</step>
                    <alter>1</alter>
                    <octave>5</octave>
                </pitch>
                <duration>1</duration>
                <voice>1</voice>
                <type>16th</type>
                <accidental>sharp</accidental>
                <stem default-y="-53.5">down</stem>
                <beam number="1">continue</beam>
                <beam number="2">backward hook</beam>
                <lyric default-y="-90" number="1">
                    <syllabic>single</syllabic>
                    <text font-size="9" font-family="Arial">was</text>
                </lyric>
            </note>
            <note default-x="306">
                <pitch>
                    <step>B</step>
                    <octave>4</octave>
                </pitch>
                <duration>2</duration>
                <voice>1</voice>
                <type>eighth</type>
                <stem default-y="-54.5">down</stem>
                <beam number="1">end</beam>
                <lyric default-y="-90" number="1">
                    <syllabic>single</syllabic>
                    <text font-size="9" font-family="Arial">my</text>
                </lyric>
            </note>
        </measure>
        <measure width="263" number="14">
            <print new-system="no"/>
            <harmony default-y="40">
                <root>
                    <root-step>D</root-step>
                </root>
                <kind halign="center" text="">major</kind>
            </harmony>
            <note default-x="13">
                <pitch>
                    <step>A</step>
                    <octave>4</octave>
                </pitch>
                <duration>4</duration>
                <voice>1</voice>
                <type>quarter</type>
                <stem default-y="10.5">up</stem>
                <lyric default-y="-94" number="1">
                    <syllabic>single</syllabic>
                    <text font-size="9" font-family="Arial">heart</text>
                </lyric>
            </note>
            <note default-x="86">
                <pitch>
                    <step>F</step>
                    <alter>1</alter>
                    <octave>4</octave>
                </pitch>
                <duration>2</duration>
                <voice>1</voice>
                <type>eighth</type>
                <stem default-y="0">up</stem>
                <lyric default-y="-94" number="1">
                    <syllabic>single</syllabic>
                    <text font-size="9" font-family="Arial">of</text>
                </lyric>
            </note>
            <note default-x="130">
                <pitch>
                    <step>D</step>
                    <octave>4</octave>
                </pitch>
                <duration>3</duration>
                <voice>1</voice>
                <type>eighth</type>
                <dot/>
                <stem default-y="-5">up</stem>
                <beam number="1">begin</beam>
                <notations>
                    <slur placement="below" type="start" number="1"/>
                </notations>
                <lyric justify="left" default-y="-94" number="1">
                    <syllabic>single</syllabic>
                    <text font-size="9" font-family="Arial">gold</text>
                    <extend/>
                </lyric>
            </note>
            <note default-x="190">
                <pitch>
                    <step>E</step>
                    <octave>4</octave>
                </pitch>
                <duration>1</duration>
                <voice>1</voice>
                <type>16th</type>
                <stem default-y="-1.5">up</stem>
                <beam number="1">continue</beam>
                <beam number="2">backward hook</beam>
                <notations>
                    <slur type="stop" number="1"/>
                </notations>
            </note>
            <note default-x="217">
                <pitch>
                    <step>F</step>
                    <alter>1</alter>
                    <octave>4</octave>
                </pitch>
                <duration>2</duration>
                <voice>1</voice>
                <type>eighth</type>
                <stem default-y="0">up</stem>
                <beam number="1">end</beam>
                <lyric default-y="-94" number="1">
                    <syllabic>single</syllabic>
                    <text font-size="9" font-family="Arial">and</text>
                </lyric>
            </note>
        </measure>
        <measure width="370" number="15">
            <print new-system="no"/>
            <harmony default-y="40">
                <root>
                    <root-step>E</root-step>
                </root>
                <kind halign="center" text="m">minor</kind>
            </harmony>
            <note default-x="13">
                <pitch>
                    <step>G</step>
                    <octave>4</octave>
                </pitch>
                <duration>2</duration>
                <tie type="start"/>
                <voice>1</voice>
                <type>eighth</type>
                <stem default-y="5">up</stem>
                <beam number="1">begin</beam>
                <notations>
                    <tied type="start"/>
                </notations>
                <lyric default-y="-94" number="1">
                    <syllabic>single</syllabic>
                    <text font-size="9" font-family="Arial">who</text>
                </lyric>
            </note>
            <note default-x="71">
                <pitch>
                    <step>G</step>
                    <octave>4</octave>
                </pitch>
                <duration>1</duration>
                <tie type="stop"/>
                <voice>1</voice>
                <type>16th</type>
                <stem default-y="5">up</stem>
                <beam number="1">continue</beam>
                <beam number="2">begin</beam>
                <notations>
                    <tied type="stop"/>
                </notations>
            </note>
            <note default-x="106">
                <pitch>
                    <step>F</step>
                    <alter>1</alter>
                    <octave>4</octave>
                </pitch>
                <duration>1</duration>
                <voice>1</voice>
                <type>16th</type>
                <stem default-y="5">up</stem>
                <beam number="1">continue</beam>
                <beam number="2">end</beam>
                <lyric default-y="-94" number="1">
                    <syllabic>single</syllabic>
                    <text font-size="9" font-family="Arial">but</text>
                </lyric>
            </note>
            <note default-x="142">
                <pitch>
                    <step>E</step>
                    <octave>4</octave>
                </pitch>
                <duration>2</duration>
                <voice>1</voice>
                <type>eighth</type>
                <stem default-y="5">up</stem>
                <beam number="1">end</beam>
                <lyric relative-x="4" default-y="-94" number="1">
                    <syllabic>single</syllabic>
                    <text font-size="9" font-family="Arial">my</text>
                </lyric>
            </note>
            <harmony default-y="40">
                <root>
                    <root-step>B</root-step>
                </root>
                <kind halign="center" text="7">dominant</kind>
            </harmony>
            <note default-x="199">
                <pitch>
                    <step>D</step>
                    <alter>1</alter>
                    <octave>4</octave>
                </pitch>
                <duration>3</duration>
                <voice>1</voice>
                <type>eighth</type>
                <dot/>
                <accidental>sharp</accidental>
                <stem default-y="-10">up</stem>
                <beam number="1">begin</beam>
                <notations>
                    <slur placement="below" type="start" number="1"/>
                </notations>
                <lyric default-y="-94" number="1">
                    <syllabic>begin</syllabic>
                    <text font-size="9" font-family="Arial">la</text>
                </lyric>
            </note>
            <note default-x="276">
                <pitch>
                    <step>C</step>
                    <alter>1</alter>
                    <octave>4</octave>
                </pitch>
                <duration>1</duration>
                <voice>1</voice>
                <type>16th</type>
                <accidental>sharp</accidental>
                <stem default-y="-10">up</stem>
                <beam number="1">continue</beam>
                <beam number="2">backward hook</beam>
                <notations>
                    <slur type="stop" number="1"/>
                </notations>
            </note>
            <note default-x="312">
                <pitch>
                    <step>D</step>
                    <alter>1</alter>
                    <octave>4</octave>
                </pitch>
                <duration>2</duration>
                <voice>1</voice>
                <type>eighth</type>
                <stem default-y="-10">up</stem>
                <beam number="1">end</beam>
                <lyric default-y="-94" number="1">
                    <syllabic>end</syllabic>
                    <text font-size="9" font-family="Arial">dy</text>
                </lyric>
            </note>
        </measure>
        <measure width="268" number="16">
            <print new-system="no"/>
            <harmony default-y="40">
                <root>
                    <root-step>E</root-step>
                </root>
                <kind halign="center" text="">major</kind>
            </harmony>
            <note default-x="13">
                <pitch>
                    <step>E</step>
                    <octave>4</octave>
                </pitch>
                <duration>4</duration>
                <tie type="start"/>
                <voice>1</voice>
                <type>quarter</type>
                <stem default-y="-4.5">up</stem>
                <notations>
                    <tied type="start"/>
                </notations>
                <lyric default-y="-94" number="1">
                    <syllabic>begin</syllabic>
                    <text font-size="9" font-family="Arial">Green</text>
                </lyric>
            </note>
            <note default-x="86">
                <pitch>
                    <step>E</step>
                    <octave>4</octave>
                </pitch>
                <duration>2</duration>
                <tie type="stop"/>
                <voice>1</voice>
                <type>eighth</type>
                <stem default-y="-4.5">up</stem>
                <notations>
                    <tied type="stop"/>
                </notations>
            </note>
            <note default-x="133">
                <pitch>
                    <step>E</step>
                    <octave>4</octave>
                </pitch>
                <duration>4</duration>
                <voice>1</voice>
                <type>quarter</type>
                <stem default-y="-4.5">up</stem>
                <lyric default-y="-94" number="1">
                    <syllabic>end</syllabic>
                    <text font-size="9" font-family="Arial">sleeves.</text>
                </lyric>
            </note>
            <note default-x="205">
                <rest/>
                <duration>2</duration>
                <voice>1</voice>
                <type>eighth</type>
            </note>
            <barline location="right">
                <bar-style>light-heavy</bar-style>
                <repeat direction="backward"/>
            </barline>
        </measure>
    </part>
</score-partwise>
