<?xml version="1.0" encoding="UTF-8"?>
<!DOCTYPE score-partwise PUBLIC "-//Recordare//DTD MusicXML 2.0 Partwise//EN" "http://www.musicxml.org/dtds/partwise.dtd">
<score-partwise version="2.0">
    <work>
        <work-number></work-number>
        <work-title></work-title>
    </work>
    <movement-number></movement-number>
    <movement-title>If My Friends Could See Me Now</movement-title>
    <identification>
        <creator type="composer">Cy Coleman</creator>
        <creator type="poet">Dorothy Fields</creator>
        <rights>All Rights Reserved</rights>
        <encoding>
            <software>MuseScore 1.0</software>
            <encoding-date>2011-08-05</encoding-date>
            <software>ProxyMusic 2.0 c</software>
        </encoding>
        <source>http://wikifonia.org/node/12031/revisions/16290/view</source>
    </identification>
    <defaults>
        <scaling>
            <millimeters>7.056</millimeters>
            <tenths>40</tenths>
        </scaling>
        <page-layout>
            <page-height>1683.67</page-height>
            <page-width>1190.48</page-width>
            <page-margins type="even">
                <left-margin>56.6893</left-margin>
                <right-margin>56.6893</right-margin>
                <top-margin>56.6893</top-margin>
                <bottom-margin>113.379</bottom-margin>
            </page-margins>
            <page-margins type="odd">
                <left-margin>56.6893</left-margin>
                <right-margin>56.6893</right-margin>
                <top-margin>56.6893</top-margin>
                <bottom-margin>113.379</bottom-margin>
            </page-margins>
        </page-layout>
    </defaults>
    <credit page="1">
        <credit-words font-size="24" default-y="1626.98" default-x="595.238" justify="center" valign="top">If My Friends Could See Me Now</credit-words>
    </credit>
    <part-list>
        <part-group type="start" number="1">
            <group-symbol>brace</group-symbol>
        </part-group>
        <score-part id="P1">
            <part-name>Piano</part-name>
            <part-abbreviation>Pno.</part-abbreviation>
            <score-instrument id="P1-I3">
                <instrument-name>Piano</instrument-name>
            </score-instrument>
            <midi-instrument id="P1-I3">
                <midi-channel>1</midi-channel>
                <midi-program>1</midi-program>
            </midi-instrument>
        </score-part>
    </part-list>
    <part id="P1">
        <measure width="272.04" number="1">
            <print>
                <system-layout>
                    <system-margins>
                        <left-margin>90.11</left-margin>
                        <right-margin>-0.00</right-margin>
                    </system-margins>
                    <top-system-distance>206.56</top-system-distance>
                </system-layout>
            </print>
            <attributes>
                <divisions>2</divisions>
                <key>
                    <fifths>0</fifths>
                    <mode>major</mode>
                </key>
                <time symbol="cut">
                    <beats>2</beats>
                    <beat-type>2</beat-type>
                </time>
                <clef>
                    <sign>G</sign>
                    <line>2</line>
                </clef>
            </attributes>
            <harmony print-frame="no">
                <root>
                    <root-step>C</root-step>
                </root>
                <kind text="">major</kind>
            </harmony>
            <note>
                <rest/>
                <duration>2</duration>
                <voice>1</voice>
                <type>quarter</type>
            </note>
            <note default-y="-25.00" default-x="114.62">
                <pitch>
                    <step>A</step>
                    <octave>4</octave>
                </pitch>
                <duration>2</duration>
                <voice>1</voice>
                <type>quarter</type>
                <stem>up</stem>
                <lyric number="1">
                    <syllabic>single</syllabic>
                    <text>If</text>
                </lyric>
            </note>
            <note default-y="-30.00" default-x="159.59">
                <pitch>
                    <step>G</step>
                    <octave>4</octave>
                </pitch>
                <duration>2</duration>
                <voice>1</voice>
                <type>quarter</type>
                <stem>up</stem>
                <lyric number="1">
                    <syllabic>single</syllabic>
                    <text>they</text>
                </lyric>
            </note>
            <note default-y="-40.00" default-x="211.97">
                <pitch>
                    <step>E</step>
                    <octave>4</octave>
                </pitch>
                <duration>2</duration>
                <voice>1</voice>
                <type>quarter</type>
                <stem>up</stem>
                <lyric number="1">
                    <syllabic>single</syllabic>
                    <text>could</text>
                </lyric>
            </note>
        </measure>
        <measure width="182.89" number="2">
            <barline location="left">
                <bar-style>heavy-light</bar-style>
                <repeat direction="forward"/>
            </barline>
            <note default-y="-25.00" default-x="19.81">
                <pitch>
                    <step>A</step>
                    <octave>4</octave>
                </pitch>
                <duration>2</duration>
                <voice>1</voice>
                <type>quarter</type>
                <stem>up</stem>
                <lyric number="1">
                    <syllabic>single</syllabic>
                    <text>see</text>
                </lyric>
                <lyric number="2">
                    <syllabic>single</syllabic>
                    <text>see</text>
                </lyric>
            </note>
            <note default-y="-30.00" default-x="60.11">
                <pitch>
                    <step>G</step>
                    <octave>4</octave>
                </pitch>
                <duration>4</duration>
                <voice>1</voice>
                <type>half</type>
                <stem>up</stem>
                <lyric number="1">
                    <syllabic>single</syllabic>
                    <text>me</text>
                </lyric>
                <lyric number="2">
                    <syllabic>single</syllabic>
                    <text>me</text>
                </lyric>
            </note>
            <note default-y="-40.00" default-x="124.59">
                <pitch>
                    <step>E</step>
                    <octave>4</octave>
                </pitch>
                <duration>2</duration>
                <tie type="start"/>
                <voice>1</voice>
                <type>quarter</type>
                <stem>up</stem>
                <notations>
                    <tied type="start"/>
                </notations>
                <lyric number="1">
                    <syllabic>single</syllabic>
                    <text>now,</text>
                    <extend/>
                </lyric>
                <lyric number="2">
                    <syllabic>single</syllabic>
                    <text>now,</text>
                    <extend/>
                </lyric>
            </note>
        </measure>
        <measure width="186.16" number="3">
            <note default-y="-40.00" default-x="12.00">
                <pitch>
                    <step>E</step>
                    <octave>4</octave>
                </pitch>
                <duration>2</duration>
                <tie type="stop"/>
                <voice>1</voice>
                <type>quarter</type>
                <stem>up</stem>
                <notations>
                    <tied type="stop"/>
                </notations>
            </note>
            <note default-y="-25.00" default-x="55.14">
                <pitch>
                    <step>A</step>
                    <octave>4</octave>
                </pitch>
                <duration>2</duration>
                <voice>1</voice>
                <type>quarter</type>
                <stem>up</stem>
                <lyric number="1">
                    <syllabic>single</syllabic>
                    <text>that</text>
                </lyric>
                <lyric number="2">
                    <syllabic>single</syllabic>
                    <text>My</text>
                </lyric>
            </note>
            <note default-y="-30.00" default-x="98.28">
                <pitch>
                    <step>G</step>
                    <octave>4</octave>
                </pitch>
                <duration>2</duration>
                <voice>1</voice>
                <type>quarter</type>
                <stem>up</stem>
                <lyric number="1">
                    <syllabic>begin</syllabic>
                    <text>lit</text>
                </lyric>
                <lyric number="2">
                    <syllabic>begin</syllabic>
                    <text>lit</text>
                </lyric>
            </note>
            <note default-y="-40.00" default-x="141.42">
                <pitch>
                    <step>E</step>
                    <octave>4</octave>
                </pitch>
                <duration>2</duration>
                <voice>1</voice>
                <type>quarter</type>
                <stem>up</stem>
                <lyric number="1">
                    <syllabic>end</syllabic>
                    <text>tle</text>
                </lyric>
                <lyric number="2">
                    <syllabic>end</syllabic>
                    <text>tle</text>
                </lyric>
            </note>
        </measure>
        <measure width="213.72" number="4">
            <harmony print-frame="no">
                <root>
                    <root-step>C</root-step>
                </root>
                <kind text="7">dominant</kind>
            </harmony>
            <note default-y="-25.00" default-x="30.05">
                <pitch>
                    <step>A</step>
                    <octave>4</octave>
                </pitch>
                <duration>2</duration>
                <voice>1</voice>
                <type>quarter</type>
                <stem>up</stem>
                <lyric number="1">
                    <syllabic>single</syllabic>
                    <text>gang</text>
                </lyric>
                <lyric number="2">
                    <syllabic>begin</syllabic>
                    <text>ddust</text>
                </lyric>
            </note>
            <note default-y="-30.00" default-x="72.33">
                <pitch>
                    <step>G</step>
                    <octave>4</octave>
                </pitch>
                <duration>4</duration>
                <voice>1</voice>
                <type>half</type>
                <stem>up</stem>
                <lyric number="1">
                    <syllabic>single</syllabic>
                    <text>of</text>
                </lyric>
                <lyric number="2">
                    <syllabic>end</syllabic>
                    <text>y</text>
                </lyric>
            </note>
            <note default-y="-40.00" default-x="139.68">
                <pitch>
                    <step>E</step>
                    <octave>4</octave>
                </pitch>
                <duration>2</duration>
                <tie type="start"/>
                <voice>1</voice>
                <type>quarter</type>
                <stem>up</stem>
                <notations>
                    <tied type="start"/>
                </notations>
                <lyric number="1">
                    <syllabic>single</syllabic>
                    <text>mine,</text>
                    <extend/>
                </lyric>
                <lyric number="2">
                    <syllabic>single</syllabic>
                    <text>group,</text>
                    <extend/>
                </lyric>
            </note>
        </measure>
        <measure width="132.17" number="5">
            <note default-y="-40.00" default-x="12.00">
                <pitch>
                    <step>E</step>
                    <octave>4</octave>
                </pitch>
                <duration>6</duration>
                <tie type="stop"/>
                <voice>1</voice>
                <type>half</type>
                <dot/>
                <stem>up</stem>
                <notations>
                    <tied type="stop"/>
                </notations>
            </note>
            <note default-y="-15.00" default-x="90.39">
                <pitch>
                    <step>C</step>
                    <octave>5</octave>
                </pitch>
                <duration>2</duration>
                <voice>1</voice>
                <type>quarter</type>
                <stem>down</stem>
                <lyric number="1">
                    <syllabic>single</syllabic>
                    <text>I'm</text>
                </lyric>
            </note>
        </measure>
        <measure width="264.57" number="6">
            <print new-system="yes">
                <system-layout>
                    <system-margins>
                        <left-margin>77.95</left-margin>
                        <right-margin>-0.00</right-margin>
                    </system-margins>
                    <system-distance>157.43</system-distance>
                </system-layout>
            </print>
            <harmony print-frame="no">
                <root>
                    <root-step>F</root-step>
                </root>
                <kind text="">major</kind>
            </harmony>
            <note default-y="-10.00" default-x="75.74">
                <pitch>
                    <step>D</step>
                    <octave>5</octave>
                </pitch>
                <duration>2</duration>
                <voice>1</voice>
                <type>quarter</type>
                <stem>down</stem>
                <lyric number="1">
                    <syllabic>begin</syllabic>
                    <text>eat</text>
                </lyric>
                <lyric number="2">
                    <syllabic>begin</syllabic>
                    <text>traip</text>
                </lyric>
            </note>
            <note default-y="-15.00" default-x="119.35">
                <pitch>
                    <step>C</step>
                    <octave>5</octave>
                </pitch>
                <duration>2</duration>
                <voice>1</voice>
                <type>quarter</type>
                <stem>down</stem>
                <lyric number="1">
                    <syllabic>end</syllabic>
                    <text>ing</text>
                </lyric>
                <lyric number="2">
                    <syllabic>end</syllabic>
                    <text>sin'</text>
                </lyric>
            </note>
            <note default-y="-25.00" default-x="170.78">
                <pitch>
                    <step>A</step>
                    <octave>4</octave>
                </pitch>
                <duration>2</duration>
                <voice>1</voice>
                <type>quarter</type>
                <stem>up</stem>
                <lyric number="1">
                    <syllabic>begin</syllabic>
                    <text>fan</text>
                </lyric>
                <lyric number="2">
                    <syllabic>single</syllabic>
                    <text>'round</text>
                </lyric>
            </note>
            <note default-y="-10.00" default-x="223.34">
                <pitch>
                    <step>D</step>
                    <octave>5</octave>
                </pitch>
                <duration>2</duration>
                <voice>1</voice>
                <type>quarter</type>
                <stem>down</stem>
                <lyric number="1">
                    <syllabic>end</syllabic>
                    <text>cy</text>
                </lyric>
                <lyric number="2">
                    <syllabic>single</syllabic>
                    <text>this</text>
                </lyric>
            </note>
        </measure>
        <measure width="225.83" number="7">
            <note default-y="-15.00" default-x="30.02">
                <pitch>
                    <step>C</step>
                    <octave>5</octave>
                </pitch>
                <duration>2</duration>
                <voice>1</voice>
                <type>quarter</type>
                <stem>down</stem>
                <lyric number="1">
                    <syllabic>single</syllabic>
                    <text>chow</text>
                </lyric>
                <lyric number="2">
                    <syllabic>begin</syllabic>
                    <text>mil</text>
                </lyric>
            </note>
            <note default-y="-25.00" default-x="79.85">
                <pitch>
                    <step>A</step>
                    <octave>4</octave>
                </pitch>
                <duration>2</duration>
                <voice>1</voice>
                <type>quarter</type>
                <stem>up</stem>
                <lyric number="1">
                    <syllabic>single</syllabic>
                    <text>and</text>
                </lyric>
                <lyric number="2">
                    <syllabic>end</syllabic>
                    <text>lion</text>
                </lyric>
            </note>
            <note default-y="-10.00" default-x="129.05">
                <pitch>
                    <step>D</step>
                    <octave>5</octave>
                </pitch>
                <duration>2</duration>
                <voice>1</voice>
                <type>quarter</type>
                <stem>down</stem>
                <lyric number="1">
                    <syllabic>begin</syllabic>
                    <text>drink</text>
                </lyric>
                <lyric number="2">
                    <syllabic>begin</syllabic>
                    <text>dol</text>
                </lyric>
            </note>
            <note default-y="-15.00" default-x="176.64">
                <pitch>
                    <step>C</step>
                    <octave>5</octave>
                </pitch>
                <duration>2</duration>
                <voice>1</voice>
                <type>quarter</type>
                <stem>down</stem>
                <lyric number="1">
                    <syllabic>end</syllabic>
                    <text>ing</text>
                </lyric>
                <lyric number="2">
                    <syllabic>end</syllabic>
                    <text>lar</text>
                </lyric>
            </note>
        </measure>
        <measure width="178.77" number="8">
            <note default-y="-25.00" default-x="30.02">
                <pitch>
                    <step>A</step>
                    <octave>4</octave>
                </pitch>
                <duration>2</duration>
                <voice>1</voice>
                <type>quarter</type>
                <stem>up</stem>
                <lyric number="1">
                    <syllabic>begin</syllabic>
                    <text>fan</text>
                </lyric>
                <lyric number="2">
                    <syllabic>begin</syllabic>
                    <text>chick</text>
                </lyric>
            </note>
            <note default-y="-10.00" default-x="72.81">
                <pitch>
                    <step>D</step>
                    <octave>5</octave>
                </pitch>
                <duration>4</duration>
                <voice>1</voice>
                <type>half</type>
                <stem>down</stem>
                <lyric number="1">
                    <syllabic>end</syllabic>
                    <text>cy</text>
                </lyric>
                <lyric number="2">
                    <syllabic>end</syllabic>
                    <text>en</text>
                </lyric>
            </note>
            <note default-y="-15.00" default-x="113.69">
                <pitch>
                    <step>C</step>
                    <octave>5</octave>
                </pitch>
                <duration>2</duration>
                <tie type="start"/>
                <voice>1</voice>
                <type>quarter</type>
                <stem>down</stem>
                <notations>
                    <tied type="start"/>
                </notations>
                <lyric number="1">
                    <syllabic>single</syllabic>
                    <text>wine.</text>
                    <extend/>
                </lyric>
                <lyric number="2">
                    <syllabic>single</syllabic>
                    <text>coup.</text>
                    <extend/>
                </lyric>
            </note>
        </measure>
        <measure width="192.27" number="9">
            <note default-y="-15.00" default-x="12.00">
                <pitch>
                    <step>C</step>
                    <octave>5</octave>
                </pitch>
                <duration>2</duration>
                <tie type="stop"/>
                <voice>1</voice>
                <type>quarter</type>
                <stem>down</stem>
                <notations>
                    <tied type="stop"/>
                </notations>
            </note>
            <note default-y="-20.00" default-x="54.52">
                <pitch>
                    <step>B</step>
                    <octave>4</octave>
                </pitch>
                <duration>2</duration>
                <voice>1</voice>
                <type>quarter</type>
                <stem>down</stem>
                <lyric number="1">
                    <syllabic>single</syllabic>
                    <text>I'd</text>
                </lyric>
                <lyric number="2">
                    <syllabic>single</syllabic>
                    <text>I'd</text>
                </lyric>
            </note>
            <note default-y="-15.00" default-x="97.04">
                <pitch>
                    <step>C</step>
                    <octave>5</octave>
                </pitch>
                <duration>2</duration>
                <voice>1</voice>
                <type>quarter</type>
                <stem>down</stem>
                <lyric number="1">
                    <syllabic>single</syllabic>
                    <text>like</text>
                </lyric>
                <lyric number="2">
                    <syllabic>single</syllabic>
                    <text>hear</text>
                </lyric>
            </note>
            <note default-y="-10.00" default-x="148.15">
                <pitch>
                    <step>D</step>
                    <octave>5</octave>
                </pitch>
                <duration>2</duration>
                <voice>1</voice>
                <type>quarter</type>
                <stem>down</stem>
                <lyric number="1">
                    <syllabic>single</syllabic>
                    <text>those</text>
                </lyric>
                <lyric number="2">
                    <syllabic>single</syllabic>
                    <text>those</text>
                </lyric>
            </note>
        </measure>
        <measure width="137.70" number="10">
            <harmony print-frame="no">
                <root>
                    <root-step>B</root-step>
                </root>
                <kind text="7">dominant</kind>
            </harmony>
            <note default-y="-10.00" default-x="28.11">
                <pitch>
                    <step>D</step>
                    <alter>1</alter>
                    <octave>5</octave>
                </pitch>
                <duration>4</duration>
                <voice>1</voice>
                <type>half</type>
                <accidental>sharp</accidental>
                <stem>down</stem>
                <lyric number="1">
                    <syllabic>begin</syllabic>
                    <text>stum</text>
                </lyric>
                <lyric number="2">
                    <syllabic>single</syllabic>
                    <text>thrift</text>
                </lyric>
            </note>
            <note default-y="-10.00" default-x="82.11">
                <pitch>
                    <step>D</step>
                    <alter>1</alter>
                    <octave>5</octave>
                </pitch>
                <duration>4</duration>
                <voice>1</voice>
                <type>half</type>
                <stem>down</stem>
                <lyric number="1">
                    <syllabic>end</syllabic>
                    <text>ble</text>
                </lyric>
                <lyric number="2">
                    <syllabic>single</syllabic>
                    <text>shop</text>
                </lyric>
            </note>
        </measure>
        <measure width="204.52" number="11">
            <print new-system="yes">
                <system-layout>
                    <system-margins>
                        <left-margin>77.95</left-margin>
                        <right-margin>-0.00</right-margin>
                    </system-margins>
                    <system-distance>157.43</system-distance>
                </system-layout>
            </print>
            <note default-y="-10.00" default-x="79.60">
                <pitch>
                    <step>D</step>
                    <alter>1</alter>
                    <octave>5</octave>
                </pitch>
                <duration>4</duration>
                <voice>1</voice>
                <type>half</type>
                <accidental>sharp</accidental>
                <stem>down</stem>
                <lyric number="1">
                    <syllabic>single</syllabic>
                    <text>bums</text>
                </lyric>
                <lyric number="2">
                    <syllabic>single</syllabic>
                    <text>cats</text>
                </lyric>
            </note>
            <note default-y="-10.00" default-x="141.26">
                <pitch>
                    <step>D</step>
                    <alter>1</alter>
                    <octave>5</octave>
                </pitch>
                <duration>4</duration>
                <voice>1</voice>
                <type>half</type>
                <stem>down</stem>
                <lyric number="1">
                    <syllabic>single</syllabic>
                    <text>to</text>
                </lyric>
                <lyric number="2">
                    <syllabic>single</syllabic>
                    <text>say:</text>
                </lyric>
            </note>
        </measure>
        <measure width="235.80" number="12">
            <harmony print-frame="no">
                <root>
                    <root-step>E</root-step>
                </root>
                <kind text="7">dominant</kind>
            </harmony>
            <note default-y="-5.00" default-x="36.01">
                <pitch>
                    <step>E</step>
                    <octave>5</octave>
                </pitch>
                <duration>2</duration>
                <voice>1</voice>
                <type>quarter</type>
                <stem>down</stem>
                <lyric number="1">
                    <syllabic>single</syllabic>
                    <text>see</text>
                </lyric>
                <lyric number="2">
                    <syllabic>begin</syllabic>
                    <text>&quot;Broth</text>
                </lyric>
            </note>
            <note default-y="-10.00" default-x="87.34">
                <pitch>
                    <step>D</step>
                    <alter>1</alter>
                    <octave>5</octave>
                </pitch>
                <duration>2</duration>
                <voice>1</voice>
                <type>quarter</type>
                <accidental>sharp</accidental>
                <stem>down</stem>
                <lyric number="1">
                    <syllabic>single</syllabic>
                    <text>for</text>
                </lyric>
                <lyric number="2">
                    <syllabic>end</syllabic>
                    <text>er,</text>
                </lyric>
            </note>
            <note default-y="-10.00" default-x="135.75">
                <pitch>
                    <step>D</step>
                    <octave>5</octave>
                </pitch>
                <duration>2</duration>
                <voice>1</voice>
                <type>quarter</type>
                <accidental>natural</accidental>
                <stem>down</stem>
                <lyric number="1">
                    <syllabic>single</syllabic>
                    <text>a</text>
                </lyric>
                <lyric number="2">
                    <syllabic>single</syllabic>
                    <text>get</text>
                </lyric>
            </note>
            <harmony print-frame="no">
                <root>
                    <root-step>A</root-step>
                </root>
                <kind text="m">minor</kind>
            </harmony>
            <note default-y="-15.00" default-x="184.15">
                <pitch>
                    <step>C</step>
                    <octave>5</octave>
                </pitch>
                <duration>2</duration>
                <tie type="start"/>
                <voice>1</voice>
                <type>quarter</type>
                <stem>down</stem>
                <notations>
                    <tied type="start"/>
                </notations>
                <lyric number="1">
                    <syllabic>single</syllabic>
                    <text>fact</text>
                    <extend/>
                </lyric>
                <lyric number="2">
                    <syllabic>end</syllabic>
                    <text>her!</text>
                    <extend/>
                </lyric>
            </note>
        </measure>
        <measure width="231.18" number="13">
            <note default-y="-15.00" default-x="12.00">
                <pitch>
                    <step>C</step>
                    <octave>5</octave>
                </pitch>
                <duration>2</duration>
                <tie type="stop"/>
                <voice>1</voice>
                <type>quarter</type>
                <stem>down</stem>
                <notations>
                    <tied type="stop"/>
                </notations>
            </note>
            <note default-y="-25.00" default-x="64.53">
                <pitch>
                    <step>A</step>
                    <octave>4</octave>
                </pitch>
                <duration>2</duration>
                <voice>1</voice>
                <type>quarter</type>
                <stem>up</stem>
                <lyric number="1">
                    <syllabic>single</syllabic>
                    <text>The</text>
                </lyric>
                <lyric number="2">
                    <syllabic>single</syllabic>
                    <text>Draped</text>
                </lyric>
            </note>
            <note default-y="-20.00" default-x="125.85">
                <pitch>
                    <step>B</step>
                    <octave>4</octave>
                </pitch>
                <duration>2</duration>
                <voice>1</voice>
                <type>quarter</type>
                <stem>down</stem>
                <lyric number="1">
                    <syllabic>single</syllabic>
                    <text>kind</text>
                </lyric>
                <lyric number="2">
                    <syllabic>single</syllabic>
                    <text>on</text>
                </lyric>
            </note>
            <note default-y="-15.00" default-x="177.72">
                <pitch>
                    <step>C</step>
                    <octave>5</octave>
                </pitch>
                <duration>2</duration>
                <voice>1</voice>
                <type>quarter</type>
                <stem>down</stem>
                <lyric number="1">
                    <syllabic>single</syllabic>
                    <text>of</text>
                </lyric>
                <lyric number="2">
                    <syllabic>single</syllabic>
                    <text>a</text>
                </lyric>
            </note>
        </measure>
        <measure width="165.09" number="14">
            <harmony print-frame="no">
                <root>
                    <root-step>D</root-step>
                </root>
                <kind text="7">dominant</kind>
            </harmony>
            <note default-y="-10.00" default-x="21.72">
                <pitch>
                    <step>D</step>
                    <octave>5</octave>
                </pitch>
                <duration>4</duration>
                <voice>1</voice>
                <type>half</type>
                <stem>down</stem>
                <lyric number="1">
                    <syllabic>single</syllabic>
                    <text>top</text>
                </lyric>
                <lyric number="2">
                    <syllabic>begin</syllabic>
                    <text>bed</text>
                </lyric>
            </note>
            <harmony print-frame="no">
                <root>
                    <root-step>F</root-step>
                </root>
                <kind text="m6">minor-sixth</kind>
            </harmony>
            <note default-y="-10.00" default-x="92.60">
                <pitch>
                    <step>D</step>
                    <octave>5</octave>
                </pitch>
                <duration>4</duration>
                <voice>1</voice>
                <type>half</type>
                <stem>down</stem>
                <lyric number="1">
                    <syllabic>single</syllabic>
                    <text>drawer</text>
                </lyric>
                <lyric number="2">
                    <syllabic>end</syllabic>
                    <text>spread</text>
                </lyric>
            </note>
        </measure>
        <measure width="162.56" number="15">
            <harmony print-frame="no">
                <root>
                    <root-step>C</root-step>
                </root>
                <kind text="">major</kind>
            </harmony>
            <note default-y="-10.00" default-x="30.02">
                <pitch>
                    <step>D</step>
                    <octave>5</octave>
                </pitch>
                <duration>4</duration>
                <voice>1</voice>
                <type>half</type>
                <stem>down</stem>
                <lyric number="1">
                    <syllabic>single</syllabic>
                    <text>first</text>
                </lyric>
                <lyric number="2">
                    <syllabic>single</syllabic>
                    <text>made</text>
                </lyric>
            </note>
            <harmony print-frame="no">
                <root>
                    <root-step>D</root-step>
                </root>
                <kind text="7">dominant</kind>
            </harmony>
            <note default-y="-10.00" default-x="95.49">
                <pitch>
                    <step>D</step>
                    <octave>5</octave>
                </pitch>
                <duration>4</duration>
                <voice>1</voice>
                <type>half</type>
                <stem>down</stem>
                <lyric number="1">
                    <syllabic>single</syllabic>
                    <text>rate</text>
                </lyric>
                <lyric number="2">
                    <syllabic>single</syllabic>
                    <text>from</text>
                </lyric>
            </note>
        </measure>
        <measure width="277.43" number="16">
            <print new-system="yes">
                <system-layout>
                    <system-margins>
                        <left-margin>77.95</left-margin>
                        <right-margin>-0.00</right-margin>
                    </system-margins>
                    <system-distance>157.43</system-distance>
                </system-layout>
            </print>
            <harmony print-frame="no">
                <root>
                    <root-step>G</root-step>
                </root>
                <kind text="7">dominant</kind>
            </harmony>
            <note default-y="-5.00" default-x="84.71">
                <pitch>
                    <step>E</step>
                    <octave>5</octave>
                </pitch>
                <duration>2</duration>
                <voice>1</voice>
                <type>quarter</type>
                <stem>down</stem>
                <lyric number="1">
                    <syllabic>single</syllabic>
                    <text>chums</text>
                </lyric>
                <lyric number="2">
                    <syllabic>single</syllabic>
                    <text>three</text>
                </lyric>
            </note>
            <note default-y="-10.00" default-x="146.71">
                <pitch>
                    <step>D</step>
                    <octave>5</octave>
                </pitch>
                <duration>2</duration>
                <voice>1</voice>
                <type>quarter</type>
                <stem>down</stem>
                <lyric number="1">
                    <syllabic>single</syllabic>
                    <text>I</text>
                </lyric>
                <lyric number="2">
                    <syllabic>single</syllabic>
                    <text>kinds</text>
                </lyric>
            </note>
            <note default-y="-20.00" default-x="188.99">
                <pitch>
                    <step>B</step>
                    <octave>4</octave>
                </pitch>
                <duration>2</duration>
                <voice>1</voice>
                <type>quarter</type>
                <stem>down</stem>
                <lyric number="1">
                    <syllabic>begin</syllabic>
                    <text>at</text>
                </lyric>
                <lyric number="2">
                    <syllabic>single</syllabic>
                    <text>of</text>
                </lyric>
            </note>
            <note default-y="-30.00" default-x="216.19">
                <pitch>
                    <step>G</step>
                    <octave>4</octave>
                </pitch>
                <duration>2</duration>
                <tie type="start"/>
                <voice>1</voice>
                <type>quarter</type>
                <stem>up</stem>
                <notations>
                    <tied type="start"/>
                </notations>
                <lyric number="1">
                    <syllabic>end</syllabic>
                    <text>tract.</text>
                    <extend/>
                </lyric>
                <lyric number="2">
                    <syllabic>single</syllabic>
                    <text>fur.&quot;</text>
                    <extend/>
                </lyric>
            </note>
        </measure>
        <measure width="154.68" number="17">
            <note default-y="-30.00" default-x="12.00">
                <pitch>
                    <step>G</step>
                    <octave>4</octave>
                </pitch>
                <duration>2</duration>
                <tie type="stop"/>
                <voice>1</voice>
                <type>quarter</type>
                <stem>up</stem>
                <notations>
                    <tied type="stop"/>
                </notations>
            </note>
            <note default-y="-25.00" default-x="47.27">
                <pitch>
                    <step>A</step>
                    <octave>4</octave>
                </pitch>
                <duration>2</duration>
                <voice>1</voice>
                <type>quarter</type>
                <stem>up</stem>
                <lyric number="1">
                    <syllabic>single</syllabic>
                    <text>All</text>
                </lyric>
                <lyric number="2">
                    <syllabic>single</syllabic>
                    <text>All</text>
                </lyric>
            </note>
            <note default-y="-30.00" default-x="82.54">
                <pitch>
                    <step>G</step>
                    <octave>4</octave>
                </pitch>
                <duration>2</duration>
                <voice>1</voice>
                <type>quarter</type>
                <stem>up</stem>
                <lyric number="1">
                    <syllabic>single</syllabic>
                    <text>I</text>
                </lyric>
                <lyric number="2">
                    <syllabic>single</syllabic>
                    <text>I</text>
                </lyric>
            </note>
            <note default-y="-40.00" default-x="117.81">
                <pitch>
                    <step>E</step>
                    <octave>4</octave>
                </pitch>
                <duration>2</duration>
                <voice>1</voice>
                <type>quarter</type>
                <stem>up</stem>
                <lyric number="1">
                    <syllabic>single</syllabic>
                    <text>can</text>
                </lyric>
                <lyric number="2">
                    <syllabic>single</syllabic>
                    <text>can</text>
                </lyric>
            </note>
        </measure>
        <measure width="193.84" number="18">
            <harmony print-frame="no">
                <root>
                    <root-step>C</root-step>
                </root>
                <kind text="">major</kind>
            </harmony>
            <note default-y="-25.00" default-x="20.45">
                <pitch>
                    <step>A</step>
                    <octave>4</octave>
                </pitch>
                <duration>2</duration>
                <voice>1</voice>
                <type>quarter</type>
                <stem>up</stem>
                <lyric number="1">
                    <syllabic>single</syllabic>
                    <text>say</text>
                </lyric>
                <lyric number="2">
                    <syllabic>single</syllabic>
                    <text>say</text>
                </lyric>
            </note>
            <note default-y="-30.00" default-x="68.57">
                <pitch>
                    <step>G</step>
                    <octave>4</octave>
                </pitch>
                <duration>4</duration>
                <voice>1</voice>
                <type>half</type>
                <stem>up</stem>
                <lyric number="1">
                    <syllabic>single</syllabic>
                    <text>is</text>
                </lyric>
                <lyric number="2">
                    <syllabic>single</syllabic>
                    <text>is</text>
                </lyric>
            </note>
            <note default-y="-40.00" default-x="138.36">
                <pitch>
                    <step>E</step>
                    <octave>4</octave>
                </pitch>
                <duration>2</duration>
                <tie type="start"/>
                <voice>1</voice>
                <type>quarter</type>
                <stem>up</stem>
                <notations>
                    <tied type="start"/>
                </notations>
                <lyric number="1">
                    <syllabic>begin</syllabic>
                    <text>&quot;Wow!</text>
                </lyric>
                <lyric number="2">
                    <syllabic>single</syllabic>
                    <text>&quot;Wow!</text>
                    <extend/>
                </lyric>
            </note>
        </measure>
        <measure width="197.24" number="19">
            <note default-y="-40.00" default-x="12.00">
                <pitch>
                    <step>E</step>
                    <octave>4</octave>
                </pitch>
                <duration>2</duration>
                <tie type="stop"/>
                <voice>1</voice>
                <type>quarter</type>
                <stem>up</stem>
                <notations>
                    <tied type="stop"/>
                </notations>
            </note>
            <note default-y="-25.00" default-x="54.82">
                <pitch>
                    <step>A</step>
                    <octave>4</octave>
                </pitch>
                <duration>2</duration>
                <voice>1</voice>
                <type>quarter</type>
                <stem>up</stem>
                <lyric number="1">
                    <syllabic>end</syllabic>
                    <text>ee</text>
                </lyric>
                <lyric number="2">
                    <syllabic>single</syllabic>
                    <text>Wait</text>
                </lyric>
            </note>
            <note default-y="-30.00" default-x="107.46">
                <pitch>
                    <step>G</step>
                    <octave>4</octave>
                </pitch>
                <duration>2</duration>
                <voice>1</voice>
                <type>quarter</type>
                <stem>up</stem>
                <lyric number="1">
                    <syllabic>begin</syllabic>
                    <text>Look</text>
                </lyric>
                <lyric number="2">
                    <syllabic>single</syllabic>
                    <text>till</text>
                </lyric>
            </note>
            <note default-y="-40.00" default-x="152.82">
                <pitch>
                    <step>E</step>
                    <octave>4</octave>
                </pitch>
                <duration>2</duration>
                <voice>1</voice>
                <type>quarter</type>
                <stem>up</stem>
                <lyric number="1">
                    <syllabic>end</syllabic>
                    <text>a</text>
                </lyric>
                <lyric number="2">
                    <syllabic>single</syllabic>
                    <text>the</text>
                </lyric>
            </note>
        </measure>
        <measure width="175.96" number="20">
            <harmony print-frame="no">
                <root>
                    <root-step>C</root-step>
                </root>
                <kind text="7">dominant</kind>
            </harmony>
            <note default-y="-25.00" default-x="33.21">
                <pitch>
                    <step>A</step>
                    <octave>4</octave>
                </pitch>
                <duration>2</duration>
                <voice>1</voice>
                <type>quarter</type>
                <stem>up</stem>
                <lyric number="1">
                    <syllabic>single</syllabic>
                    <text>where</text>
                </lyric>
                <lyric number="2">
                    <syllabic>single</syllabic>
                    <text>riff</text>
                </lyric>
            </note>
            <note default-y="-15.00" default-x="84.94">
                <pitch>
                    <step>C</step>
                    <octave>5</octave>
                </pitch>
                <duration>4</duration>
                <voice>1</voice>
                <type>half</type>
                <stem>down</stem>
                <lyric number="1">
                    <syllabic>single</syllabic>
                    <text>I</text>
                </lyric>
                <lyric number="2">
                    <syllabic>single</syllabic>
                    <text>and</text>
                </lyric>
            </note>
            <note default-y="-10.00" default-x="127.13">
                <pitch>
                    <step>D</step>
                    <octave>5</octave>
                </pitch>
                <duration>2</duration>
                <tie type="start"/>
                <voice>1</voice>
                <type>quarter</type>
                <stem>down</stem>
                <notations>
                    <tied type="start"/>
                </notations>
                <lyric number="1">
                    <syllabic>single</syllabic>
                    <text>am.</text>
                    <extend/>
                </lyric>
                <lyric number="2">
                    <syllabic>single</syllabic>
                    <text>raff</text>
                    <extend/>
                </lyric>
            </note>
        </measure>
        <measure width="238.90" number="21">
            <print new-system="yes">
                <system-layout>
                    <system-margins>
                        <left-margin>77.95</left-margin>
                        <right-margin>-0.00</right-margin>
                    </system-margins>
                    <system-distance>157.43</system-distance>
                </system-layout>
            </print>
            <note default-y="-10.00" default-x="53.15">
                <pitch>
                    <step>D</step>
                    <octave>5</octave>
                </pitch>
                <duration>2</duration>
                <tie type="stop"/>
                <voice>1</voice>
                <type>quarter</type>
                <stem>down</stem>
                <notations>
                    <tied type="stop"/>
                </notations>
            </note>
            <note default-y="-5.00" default-x="98.78">
                <pitch>
                    <step>E</step>
                    <octave>5</octave>
                </pitch>
                <duration>2</duration>
                <voice>1</voice>
                <type>quarter</type>
                <stem>down</stem>
                <lyric number="1">
                    <syllabic>single</syllabic>
                    <text>To</text>
                </lyric>
                <lyric number="2">
                    <syllabic>single</syllabic>
                    <text>See</text>
                </lyric>
            </note>
            <note default-y="-10.00" default-x="146.05">
                <pitch>
                    <step>D</step>
                    <octave>5</octave>
                </pitch>
                <duration>2</duration>
                <voice>1</voice>
                <type>quarter</type>
                <stem>down</stem>
                <lyric number="1">
                    <syllabic>end</syllabic>
                    <text>night</text>
                </lyric>
                <lyric number="2">
                    <syllabic>single</syllabic>
                    <text>just</text>
                </lyric>
            </note>
            <note default-y="-15.00" default-x="191.67">
                <pitch>
                    <step>C</step>
                    <octave>5</octave>
                </pitch>
                <duration>2</duration>
                <voice>1</voice>
                <type>quarter</type>
                <stem>down</stem>
                <lyric number="1">
                    <syllabic>single</syllabic>
                    <text>I</text>
                </lyric>
                <lyric number="2">
                    <syllabic>begin</syllabic>
                    <text>ex</text>
                </lyric>
            </note>
        </measure>
        <measure width="183.50" number="22">
            <harmony print-frame="no">
                <root>
                    <root-step>F</root-step>
                </root>
                <kind text="">major</kind>
            </harmony>
            <note default-y="-10.00" default-x="24.92">
                <pitch>
                    <step>D</step>
                    <octave>5</octave>
                </pitch>
                <duration>2</duration>
                <voice>1</voice>
                <type>quarter</type>
                <stem>down</stem>
                <lyric number="1">
                    <syllabic>begin</syllabic>
                    <text>land</text>
                </lyric>
                <lyric number="2">
                    <syllabic>middle</syllabic>
                    <text>act</text>
                </lyric>
            </note>
            <note default-y="-15.00" default-x="65.46">
                <pitch>
                    <step>C</step>
                    <octave>5</octave>
                </pitch>
                <duration>4</duration>
                <voice>1</voice>
                <type>half</type>
                <stem>down</stem>
                <lyric number="1">
                    <syllabic>end</syllabic>
                    <text>ed,</text>
                </lyric>
                <lyric number="2">
                    <syllabic>end</syllabic>
                    <text>ly</text>
                </lyric>
            </note>
            <note default-y="-25.00" default-x="121.61">
                <pitch>
                    <step>A</step>
                    <octave>4</octave>
                </pitch>
                <duration>2</duration>
                <tie type="start"/>
                <voice>1</voice>
                <type>quarter</type>
                <stem>up</stem>
                <notations>
                    <tied type="start"/>
                </notations>
                <lyric number="1">
                    <syllabic>single</syllabic>
                    <text>pow!</text>
                    <extend/>
                </lyric>
                <lyric number="2">
                    <syllabic>single</syllabic>
                    <text>how</text>
                    <extend/>
                </lyric>
            </note>
        </measure>
        <measure width="231.54" number="23">
            <note default-y="-25.00" default-x="12.00">
                <pitch>
                    <step>A</step>
                    <octave>4</octave>
                </pitch>
                <duration>2</duration>
                <tie type="stop"/>
                <voice>1</voice>
                <type>quarter</type>
                <stem>up</stem>
                <notations>
                    <tied type="stop"/>
                </notations>
            </note>
            <note default-y="-10.00" default-x="64.73">
                <pitch>
                    <step>D</step>
                    <octave>5</octave>
                </pitch>
                <duration>2</duration>
                <voice>1</voice>
                <type>quarter</type>
                <stem>down</stem>
                <lyric number="1">
                    <syllabic>single</syllabic>
                    <text>right</text>
                </lyric>
                <lyric number="2">
                    <syllabic>single</syllabic>
                    <text>he</text>
                </lyric>
            </note>
            <note default-y="-15.00" default-x="123.52">
                <pitch>
                    <step>C</step>
                    <octave>5</octave>
                </pitch>
                <duration>2</duration>
                <voice>1</voice>
                <type>quarter</type>
                <stem>down</stem>
                <lyric number="1">
                    <syllabic>single</syllabic>
                    <text>in</text>
                </lyric>
                <lyric number="2">
                    <syllabic>single</syllabic>
                    <text>signed</text>
                </lyric>
            </note>
            <note default-y="-25.00" default-x="177.22">
                <pitch>
                    <step>A</step>
                    <octave>4</octave>
                </pitch>
                <duration>2</duration>
                <voice>1</voice>
                <type>quarter</type>
                <stem>up</stem>
                <lyric number="1">
                    <syllabic>single</syllabic>
                    <text>a</text>
                </lyric>
                <lyric number="2">
                    <syllabic>single</syllabic>
                    <text>this</text>
                </lyric>
            </note>
        </measure>
        <measure width="190.17" number="24">
            <harmony print-frame="no">
                <root>
                    <root-step>E</root-step>
                </root>
                <kind text="7">dominant</kind>
            </harmony>
            <note default-y="-10.00" default-x="19.81">
                <pitch>
                    <step>D</step>
                    <octave>5</octave>
                </pitch>
                <duration>2</duration>
                <voice>1</voice>
                <type>quarter</type>
                <stem>down</stem>
                <lyric number="1">
                    <syllabic>single</syllabic>
                    <text>pot</text>
                </lyric>
                <lyric number="2">
                    <syllabic>begin</syllabic>
                    <text>au</text>
                </lyric>
            </note>
            <note default-y="-10.00" default-x="53.74">
                <pitch>
                    <step>D</step>
                    <alter>1</alter>
                    <octave>5</octave>
                </pitch>
                <duration>4</duration>
                <voice>1</voice>
                <type>half</type>
                <accidental>sharp</accidental>
                <stem>down</stem>
                <lyric number="1">
                    <syllabic>single</syllabic>
                    <text>of</text>
                </lyric>
                <lyric number="2">
                    <syllabic>middle</syllabic>
                    <text>to</text>
                </lyric>
            </note>
            <note default-y="-5.00" default-x="108.03">
                <pitch>
                    <step>E</step>
                    <octave>5</octave>
                </pitch>
                <duration>2</duration>
                <tie type="start"/>
                <voice>1</voice>
                <type>quarter</type>
                <stem>down</stem>
                <notations>
                    <tied type="start"/>
                </notations>
                <lyric number="1">
                    <syllabic>single</syllabic>
                    <text>jam.&quot;</text>
                    <extend/>
                </lyric>
                <lyric number="2">
                    <syllabic>end</syllabic>
                    <text>graph.&quot;</text>
                    <extend/>
                </lyric>
            </note>
        </measure>
        <measure width="155.03" number="25">
            <note default-y="-5.00" default-x="12.00">
                <pitch>
                    <step>E</step>
                    <octave>5</octave>
                </pitch>
                <duration>4</duration>
                <tie type="stop"/>
                <voice>1</voice>
                <type>half</type>
                <stem>down</stem>
                <notations>
                    <tied type="stop"/>
                </notations>
            </note>
            <note default-y="-10.00" default-x="74.86">
                <pitch>
                    <step>D</step>
                    <alter>1</alter>
                    <octave>5</octave>
                </pitch>
                <duration>2</duration>
                <voice>1</voice>
                <type>quarter</type>
                <accidental>sharp</accidental>
                <stem>down</stem>
                <lyric number="1">
                    <syllabic>single</syllabic>
                    <text>What</text>
                </lyric>
                <lyric number="2">
                    <syllabic>single</syllabic>
                    <text>What</text>
                </lyric>
            </note>
            <note default-y="-5.00" default-x="114.15">
                <pitch>
                    <step>E</step>
                    <octave>5</octave>
                </pitch>
                <duration>2</duration>
                <voice>1</voice>
                <type>quarter</type>
                <stem>down</stem>
                <lyric number="1">
                    <syllabic>single</syllabic>
                    <text>a</text>
                </lyric>
                <lyric number="2">
                    <syllabic>single</syllabic>
                    <text>a</text>
                </lyric>
            </note>
        </measure>
        <measure width="196.09" number="26">
            <print new-system="yes">
                <system-layout>
                    <system-margins>
                        <left-margin>77.95</left-margin>
                        <right-margin>-0.00</right-margin>
                    </system-margins>
                    <system-distance>157.43</system-distance>
                </system-layout>
            </print>
            <harmony print-frame="no">
                <root>
                    <root-step>A</root-step>
                </root>
                <kind text="7+">augmented-seventh</kind>
            </harmony>
            <note default-y="0.00" default-x="78.31">
                <pitch>
                    <step>F</step>
                    <octave>5</octave>
                </pitch>
                <duration>4</duration>
                <voice>1</voice>
                <type>half</type>
                <stem>down</stem>
                <lyric number="1">
                    <syllabic>single</syllabic>
                    <text>set</text>
                </lyric>
                <lyric number="2">
                    <syllabic>begin</syllabic>
                    <text>build</text>
                </lyric>
            </note>
            <harmony print-frame="no">
                <root>
                    <root-step>B</root-step>
                    <root-alter>-1</root-alter>
                </root>
                <kind text="9">dominant-ninth</kind>
            </harmony>
            <note default-y="0.00" default-x="136.40">
                <pitch>
                    <step>F</step>
                    <octave>5</octave>
                </pitch>
                <duration>4</duration>
                <voice>1</voice>
                <type>half</type>
                <stem>down</stem>
                <lyric number="1">
                    <syllabic>single</syllabic>
                    <text>up!</text>
                </lyric>
                <lyric number="2">
                    <syllabic>end</syllabic>
                    <text>up!</text>
                </lyric>
            </note>
        </measure>
        <measure width="171.03" number="27">
            <harmony print-frame="no">
                <root>
                    <root-step>G</root-step>
                </root>
                <kind text="7">dominant</kind>
            </harmony>
            <note default-y="0.00" default-x="19.16">
                <pitch>
                    <step>F</step>
                    <octave>5</octave>
                </pitch>
                <duration>2</duration>
                <voice>1</voice>
                <type>quarter</type>
                <stem>down</stem>
                <lyric number="1">
                    <syllabic>begin</syllabic>
                    <text>Ho</text>
                </lyric>
                <lyric number="2">
                    <syllabic>begin</syllabic>
                    <text>Ho</text>
                </lyric>
            </note>
            <harmony print-frame="no">
                <root>
                    <root-step>A</root-step>
                </root>
                <kind text="7">dominant</kind>
            </harmony>
            <note default-y="-5.00" default-x="54.26">
                <pitch>
                    <step>E</step>
                    <octave>5</octave>
                </pitch>
                <duration>4</duration>
                <voice>1</voice>
                <type>half</type>
                <stem>down</stem>
                <lyric number="1">
                    <syllabic>end</syllabic>
                    <text>ly</text>
                </lyric>
                <lyric number="2">
                    <syllabic>end</syllabic>
                    <text>ly</text>
                </lyric>
            </note>
            <harmony print-frame="no">
                <root>
                    <root-step>D</root-step>
                </root>
                <kind text="7">dominant</kind>
            </harmony>
            <note default-y="-10.00" default-x="110.42">
                <pitch>
                    <step>D</step>
                    <octave>5</octave>
                </pitch>
                <duration>2</duration>
                <tie type="start"/>
                <voice>1</voice>
                <type>quarter</type>
                <stem>down</stem>
                <notations>
                    <tied type="start"/>
                </notations>
                <lyric number="1">
                    <syllabic>single</syllabic>
                    <text>cow!</text>
                    <extend/>
                </lyric>
                <lyric number="2">
                    <syllabic>single</syllabic>
                    <text>cow!</text>
                    <extend/>
                </lyric>
            </note>
        </measure>
        <measure width="247.42" number="28">
            <note default-y="-10.00" default-x="12.00">
                <pitch>
                    <step>D</step>
                    <octave>5</octave>
                </pitch>
                <duration>2</duration>
                <tie type="stop"/>
                <voice>1</voice>
                <type>quarter</type>
                <stem>down</stem>
                <notations>
                    <tied type="stop"/>
                </notations>
            </note>
            <note default-y="-10.00" default-x="66.99">
                <pitch>
                    <step>D</step>
                    <octave>5</octave>
                </pitch>
                <duration>2</duration>
                <voice>1</voice>
                <type>quarter</type>
                <stem>down</stem>
                <lyric number="1">
                    <syllabic>single</syllabic>
                    <text>They'd</text>
                </lyric>
            </note>
            <note default-y="-15.00" default-x="122.08">
                <pitch>
                    <step>C</step>
                    <alter>1</alter>
                    <octave>5</octave>
                </pitch>
                <duration>1</duration>
                <voice>1</voice>
                <type>eighth</type>
                <accidental>sharp</accidental>
                <stem>down</stem>
                <beam number="1">begin</beam>
                <lyric number="1">
                    <syllabic>begin</syllabic>
                    <text>nev</text>
                </lyric>
            </note>
            <note default-y="-15.00" default-x="156.45">
                <pitch>
                    <step>C</step>
                    <alter>1</alter>
                    <octave>5</octave>
                </pitch>
                <duration>1</duration>
                <voice>1</voice>
                <type>eighth</type>
                <stem>down</stem>
                <beam number="1">end</beam>
                <lyric number="1">
                    <syllabic>end</syllabic>
                    <text>er</text>
                </lyric>
            </note>
            <note default-y="-10.00" default-x="190.82">
                <pitch>
                    <step>D</step>
                    <octave>5</octave>
                </pitch>
                <duration>2</duration>
                <voice>1</voice>
                <type>quarter</type>
                <stem>down</stem>
                <lyric number="1">
                    <syllabic>begin</syllabic>
                    <text>be</text>
                </lyric>
            </note>
        </measure>
        <measure width="200.99" number="29">
            <note default-y="-5.00" default-x="27.47">
                <pitch>
                    <step>E</step>
                    <octave>5</octave>
                </pitch>
                <duration>2</duration>
                <voice>1</voice>
                <type>quarter</type>
                <stem>down</stem>
                <lyric number="1">
                    <syllabic>end</syllabic>
                    <text>lieve</text>
                </lyric>
            </note>
            <note default-y="-10.00" default-x="70.45">
                <pitch>
                    <step>D</step>
                    <octave>5</octave>
                </pitch>
                <duration>2</duration>
                <voice>1</voice>
                <type>quarter</type>
                <stem>down</stem>
                <lyric number="1">
                    <syllabic>single</syllabic>
                    <text>it,</text>
                </lyric>
            </note>
            <note default-y="-15.00" default-x="113.43">
                <pitch>
                    <step>C</step>
                    <alter>1</alter>
                    <octave>5</octave>
                </pitch>
                <duration>2</duration>
                <voice>1</voice>
                <type>quarter</type>
                <accidental>sharp</accidental>
                <stem>down</stem>
                <lyric number="1">
                    <syllabic>single</syllabic>
                    <text>If</text>
                </lyric>
            </note>
            <note default-y="-10.00" default-x="156.41">
                <pitch>
                    <step>D</step>
                    <octave>5</octave>
                </pitch>
                <duration>2</duration>
                <voice>1</voice>
                <type>quarter</type>
                <stem>down</stem>
                <lyric number="1">
                    <syllabic>single</syllabic>
                    <text>my</text>
                </lyric>
            </note>
        </measure>
        <measure width="183.62" number="30">
            <harmony print-frame="no">
                <root>
                    <root-step>G</root-step>
                </root>
                <kind text="7">dominant</kind>
            </harmony>
            <note default-y="-5.00" default-x="37.07">
                <pitch>
                    <step>E</step>
                    <octave>5</octave>
                </pitch>
                <duration>4</duration>
                <voice>1</voice>
                <type>half</type>
                <stem>down</stem>
                <lyric number="1">
                    <syllabic>single</syllabic>
                    <text>friends</text>
                </lyric>
            </note>
            <harmony print-frame="no">
                <root>
                    <root-step>G</root-step>
                    <root-alter>1</root-alter>
                </root>
                <kind text="dim">diminished</kind>
            </harmony>
            <note default-y="-5.00" default-x="109.54">
                <pitch>
                    <step>E</step>
                    <octave>5</octave>
                </pitch>
                <duration>4</duration>
                <voice>1</voice>
                <type>half</type>
                <stem>down</stem>
                <lyric number="1">
                    <syllabic>single</syllabic>
                    <text>could</text>
                </lyric>
            </note>
        </measure>
        <measure width="236.88" number="31">
            <print new-system="yes">
                <system-layout>
                    <system-margins>
                        <left-margin>77.95</left-margin>
                        <right-margin>-0.00</right-margin>
                    </system-margins>
                    <system-distance>157.43</system-distance>
                </system-layout>
            </print>
            <barline location="left">
                <ending type="start" number="1"></ending>
            </barline>
            <harmony print-frame="no">
                <root>
                    <root-step>F</root-step>
                </root>
                <kind text="">major</kind>
            </harmony>
            <note default-y="-5.00" default-x="69.36">
                <pitch>
                    <step>E</step>
                    <octave>5</octave>
                </pitch>
                <duration>2</duration>
                <voice>1</voice>
                <type>quarter</type>
                <stem>down</stem>
                <lyric number="1">
                    <syllabic>single</syllabic>
                    <text>see</text>
                </lyric>
            </note>
            <harmony print-frame="no">
                <root>
                    <root-step>G</root-step>
                </root>
                <kind text="7">dominant</kind>
            </harmony>
            <note default-y="-10.00" default-x="112.93">
                <pitch>
                    <step>D</step>
                    <octave>5</octave>
                </pitch>
                <duration>4</duration>
                <voice>1</voice>
                <type>half</type>
                <stem>down</stem>
                <lyric number="1">
                    <syllabic>single</syllabic>
                    <text>me</text>
                </lyric>
            </note>
            <harmony print-frame="no">
                <root>
                    <root-step>C</root-step>
                </root>
                <kind text="">major</kind>
            </harmony>
            <note default-y="-15.00" default-x="182.65">
                <pitch>
                    <step>C</step>
                    <octave>5</octave>
                </pitch>
                <duration>2</duration>
                <tie type="start"/>
                <voice>1</voice>
                <type>quarter</type>
                <stem>down</stem>
                <notations>
                    <tied type="start"/>
                </notations>
                <lyric number="1">
                    <syllabic>single</syllabic>
                    <text>now</text>
                    <extend/>
                </lyric>
            </note>
        </measure>
        <measure width="101.37" number="32">
            <note default-y="-15.00" default-x="12.00">
                <pitch>
                    <step>C</step>
                    <octave>5</octave>
                </pitch>
                <duration>8</duration>
                <tie type="stop"/>
                <tie type="start"/>
                <voice>1</voice>
                <type>whole</type>
                <notations>
                    <tied type="stop"/>
                    <tied type="start"/>
                </notations>
            </note>
        </measure>
        <measure width="240.07" number="33">
            <note default-y="-15.00" default-x="12.00">
                <pitch>
                    <step>C</step>
                    <octave>5</octave>
                </pitch>
                <duration>2</duration>
                <tie type="stop"/>
                <voice>1</voice>
                <type>quarter</type>
                <stem>down</stem>
                <notations>
                    <tied type="stop"/>
                </notations>
            </note>
            <harmony print-frame="no">
                <root>
                    <root-step>G</root-step>
                </root>
                <kind text="7">dominant</kind>
            </harmony>
            <note default-y="-25.00" default-x="65.24">
                <pitch>
                    <step>A</step>
                    <octave>4</octave>
                </pitch>
                <duration>2</duration>
                <voice>1</voice>
                <type>quarter</type>
                <stem>up</stem>
                <lyric number="1">
                    <syllabic>single</syllabic>
                    <text>If</text>
                </lyric>
            </note>
            <note default-y="-30.00" default-x="118.49">
                <pitch>
                    <step>G</step>
                    <octave>4</octave>
                </pitch>
                <duration>2</duration>
                <voice>1</voice>
                <type>quarter</type>
                <stem>up</stem>
                <lyric number="1">
                    <syllabic>single</syllabic>
                    <text>they</text>
                </lyric>
            </note>
            <note default-y="-40.00" default-x="171.73">
                <pitch>
                    <step>E</step>
                    <octave>4</octave>
                </pitch>
                <duration>2</duration>
                <voice>1</voice>
                <type>quarter</type>
                <stem>up</stem>
                <lyric number="1">
                    <syllabic>single</syllabic>
                    <text>could</text>
                </lyric>
            </note>
            <barline location="right">
                <bar-style>light-heavy</bar-style>
                <ending type="stop" number="1"></ending>
                <repeat direction="backward"/>
            </barline>
        </measure>
        <measure width="187.33" number="34">
            <barline location="left">
                <ending type="start" number="2"></ending>
            </barline>
            <harmony print-frame="no">
                <root>
                    <root-step>F</root-step>
                </root>
                <kind text="">major</kind>
            </harmony>
            <note default-y="-5.00" default-x="19.81">
                <pitch>
                    <step>E</step>
                    <octave>5</octave>
                </pitch>
                <duration>2</duration>
                <voice>1</voice>
                <type>quarter</type>
                <stem>down</stem>
                <lyric number="1">
                    <syllabic>single</syllabic>
                    <text>see</text>
                </lyric>
            </note>
            <harmony print-frame="no">
                <root>
                    <root-step>G</root-step>
                </root>
                <kind text="7">dominant</kind>
            </harmony>
            <note default-y="-10.00" default-x="63.38">
                <pitch>
                    <step>D</step>
                    <octave>5</octave>
                </pitch>
                <duration>4</duration>
                <voice>1</voice>
                <type>half</type>
                <stem>down</stem>
                <lyric number="1">
                    <syllabic>single</syllabic>
                    <text>me</text>
                </lyric>
            </note>
            <harmony print-frame="no">
                <root>
                    <root-step>C</root-step>
                </root>
                <kind text="">major</kind>
            </harmony>
            <note default-y="-15.00" default-x="133.10">
                <pitch>
                    <step>C</step>
                    <octave>5</octave>
                </pitch>
                <duration>2</duration>
                <tie type="start"/>
                <voice>1</voice>
                <type>quarter</type>
                <stem>down</stem>
                <notations>
                    <tied type="start"/>
                </notations>
                <lyric number="1">
                    <syllabic>single</syllabic>
                    <text>now</text>
                    <extend/>
                </lyric>
            </note>
        </measure>
        <measure width="101.37" number="35">
            <note default-y="-15.00" default-x="12.00">
                <pitch>
                    <step>C</step>
                    <octave>5</octave>
                </pitch>
                <duration>8</duration>
                <tie type="stop"/>
                <tie type="start"/>
                <voice>1</voice>
                <type>whole</type>
                <notations>
                    <tied type="stop"/>
                    <tied type="start"/>
                </notations>
            </note>
        </measure>
        <measure width="132.13" number="36">
            <note default-y="-15.00" default-x="12.00">
                <pitch>
                    <step>C</step>
                    <octave>5</octave>
                </pitch>
                <duration>4</duration>
                <tie type="stop"/>
                <tie type="start"/>
                <voice>1</voice>
                <type>half</type>
                <stem>down</stem>
                <notations>
                    <tied type="stop"/>
                    <tied type="start"/>
                </notations>
            </note>
            <note default-y="-15.00" default-x="62.01">
                <pitch>
                    <step>C</step>
                    <octave>5</octave>
                </pitch>
                <duration>2</duration>
                <tie type="stop"/>
                <voice>1</voice>
                <type>quarter</type>
                <stem>down</stem>
                <notations>
                    <tied type="stop"/>
                </notations>
            </note>
            <note>
                <rest/>
                <duration>2</duration>
                <voice>1</voice>
                <type>quarter</type>
            </note>
            <barline location="right">
                <bar-style>light-heavy</bar-style>
                <ending type="stop" number="2"></ending>
            </barline>
        </measure>
    </part>
</score-partwise>
