<?xml version="1.0" encoding="UTF-8"?>
<!DOCTYPE score-partwise PUBLIC "-//Recordare//DTD MusicXML 2.0 Partwise//EN" "http://www.musicxml.org/dtds/partwise.dtd">
<score-partwise version="2.0">
    <work>
        <work-number></work-number>
        <work-title></work-title>
    </work>
    <movement-number></movement-number>
    <movement-title>Caravan</movement-title>
    <identification>
        <creator type="composer">Duke Ellington Irving Mills &amp; Juan Tizon 1937</creator>
        <creator type="poet"></creator>
        <rights>All Rights Reserved</rights>
        <encoding>
            <software>Finale 2008 for Windows</software>
            <software>Dolet Light for Finale 2008</software>
            <encoding-date>2011-08-12</encoding-date>
            <software>ProxyMusic 2.0 c</software>
        </encoding>
        <source>http://wikifonia.org/node/12228/revisions/16528/view</source>
    </identification>
    <defaults>
        <scaling>
            <millimeters>7.2319</millimeters>
            <tenths>40</tenths>
        </scaling>
        <page-layout>
            <page-height>1545</page-height>
            <page-width>1194</page-width>
            <page-margins type="both">
                <left-margin>140</left-margin>
                <right-margin>70</right-margin>
                <top-margin>88</top-margin>
                <bottom-margin>88</bottom-margin>
            </page-margins>
        </page-layout>
        <system-layout>
            <system-margins>
                <left-margin>0</left-margin>
                <right-margin>0</right-margin>
            </system-margins>
            <system-distance>121</system-distance>
            <top-system-distance>70</top-system-distance>
        </system-layout>
        <music-font font-size="20.5" font-family="Maestro"/>
        <word-font font-size="10.25" font-family="Times New Roman"/>
        <lyric-font font-size="10.25" font-family="Times New Roman" name="verse"/>
    </defaults>
    <credit>
        <credit-words font-weight="bold" font-size="24" default-y="1458" default-x="632" justify="center" valign="top">Caravan</credit-words>
    </credit>
    <credit>
        <credit-words font-weight="bold" font-size="12" default-y="1387" default-x="1124" justify="right" valign="top">Duke Ellington, Irving Mills &amp; Juan Tizon, 1937</credit-words>
    </credit>
    <part-list>
        <score-part id="P1">
            <part-name>Flute</part-name>
            <score-instrument id="P1-I1">
                <instrument-name>Flute</instrument-name>
            </score-instrument>
            <midi-instrument id="P1-I1">
                <midi-channel>1</midi-channel>
                <midi-program>74</midi-program>
            </midi-instrument>
        </score-part>
    </part-list>
    <part id="P1">
        <measure width="273" number="1">
            <print>
                <system-layout>
                    <system-margins>
                        <left-margin>70</left-margin>
                        <right-margin>0</right-margin>
                    </system-margins>
                    <top-system-distance>172</top-system-distance>
                </system-layout>
            </print>
            <attributes>
                <divisions>1</divisions>
                <key>
                    <fifths>-4</fifths>
                    <mode>major</mode>
                </key>
                <time symbol="cut">
                    <beats>2</beats>
                    <beat-type>2</beat-type>
                </time>
                <clef>
                    <sign>G</sign>
                    <line>2</line>
                </clef>
            </attributes>
            <direction placement="above">
                <direction-type>
                    <words font-weight="bold" font-size="12" relative-x="-118" default-y="62">Brightly  </words>
                </direction-type>
                <direction-type>
                    <metronome font-weight="normal" font-size="14" font-family="Maestro">
                        <beat-unit>half</beat-unit>
                        <per-minute>116</per-minute>
                    </metronome>
                </direction-type>
                <sound tempo="232"/>
            </direction>
            <harmony default-y="30">
                <root>
                    <root-step>E</root-step>
                    <root-alter>-1</root-alter>
                </root>
                <kind text="">major</kind>
            </harmony>
            <note default-x="153">
                <pitch>
                    <step>C</step>
                    <octave>5</octave>
                </pitch>
                <duration>2</duration>
                <tie type="start"/>
                <voice>1</voice>
                <type>half</type>
                <stem default-y="-51">down</stem>
                <notations>
                    <tied type="start"/>
                </notations>
                <lyric justify="left" default-y="-80" number="1">
                    <syllabic>single</syllabic>
                    <text>Night</text>
                    <extend/>
                </lyric>
            </note>
            <harmony default-y="30">
                <root>
                    <root-step>C</root-step>
                </root>
                <kind text="7">dominant</kind>
            </harmony>
            <note default-x="213">
                <pitch>
                    <step>C</step>
                    <octave>5</octave>
                </pitch>
                <duration>2</duration>
                <tie type="stop"/>
                <tie type="start"/>
                <voice>1</voice>
                <type>half</type>
                <stem default-y="-51">down</stem>
                <notations>
                    <tied type="stop"/>
                    <tied type="start"/>
                </notations>
            </note>
        </measure>
        <measure width="131" number="2">
            <harmony default-y="30">
                <root>
                    <root-step>E</root-step>
                    <root-alter>-1</root-alter>
                </root>
                <kind text="">major</kind>
            </harmony>
            <note default-x="11">
                <pitch>
                    <step>C</step>
                    <octave>5</octave>
                </pitch>
                <duration>2</duration>
                <tie type="stop"/>
                <tie type="start"/>
                <voice>1</voice>
                <type>half</type>
                <stem default-y="-51">down</stem>
                <notations>
                    <tied type="stop"/>
                    <tied type="start"/>
                </notations>
            </note>
            <harmony default-y="30">
                <root>
                    <root-step>C</root-step>
                </root>
                <kind text="7">dominant</kind>
            </harmony>
            <note default-x="70">
                <pitch>
                    <step>C</step>
                    <octave>5</octave>
                </pitch>
                <duration>2</duration>
                <tie type="stop"/>
                <tie type="start"/>
                <voice>1</voice>
                <type>half</type>
                <stem default-y="-51">down</stem>
                <notations>
                    <tied type="stop"/>
                    <tied type="start"/>
                </notations>
            </note>
        </measure>
        <measure width="165" number="3">
            <harmony default-y="30">
                <root>
                    <root-step>E</root-step>
                </root>
                <kind text="dim">diminished</kind>
            </harmony>
            <note default-x="11">
                <pitch>
                    <step>C</step>
                    <octave>5</octave>
                </pitch>
                <duration>1</duration>
                <tie type="stop"/>
                <voice>1</voice>
                <type>quarter</type>
                <stem default-y="-51">down</stem>
                <notations>
                    <tied type="stop"/>
                </notations>
            </note>
            <note default-x="48">
                <pitch>
                    <step>D</step>
                    <alter>-1</alter>
                    <octave>5</octave>
                </pitch>
                <duration>1</duration>
                <voice>1</voice>
                <type>quarter</type>
                <stem default-y="-46">down</stem>
                <lyric default-y="-80" number="1">
                    <syllabic>single</syllabic>
                    <text>and</text>
                </lyric>
            </note>
            <harmony default-y="30">
                <root>
                    <root-step>C</root-step>
                </root>
                <kind text="7">dominant</kind>
            </harmony>
            <note default-x="90">
                <pitch>
                    <step>C</step>
                    <octave>5</octave>
                </pitch>
                <duration>1</duration>
                <voice>1</voice>
                <type>quarter</type>
                <stem default-y="-51">down</stem>
                <lyric default-y="-80" number="1">
                    <syllabic>single</syllabic>
                    <text>stars</text>
                </lyric>
            </note>
            <note default-x="127">
                <pitch>
                    <step>G</step>
                    <octave>4</octave>
                </pitch>
                <duration>1</duration>
                <voice>1</voice>
                <type>quarter</type>
                <stem default-y="6">up</stem>
                <lyric default-y="-80" number="1">
                    <syllabic>single</syllabic>
                    <text>a</text>
                </lyric>
            </note>
        </measure>
        <measure width="196" number="4">
            <harmony default-y="30">
                <root>
                    <root-step>E</root-step>
                    <root-alter>-1</root-alter>
                </root>
                <kind text="">major</kind>
            </harmony>
            <note default-x="23">
                <pitch>
                    <step>B</step>
                    <alter>-1</alter>
                    <octave>4</octave>
                </pitch>
                <duration>1</duration>
                <voice>1</voice>
                <type>quarter</type>
                <stem default-y="-55.5">down</stem>
                <lyric default-y="-80" number="1">
                    <syllabic>single</syllabic>
                    <text>bove</text>
                </lyric>
            </note>
            <note default-x="68">
                <pitch>
                    <step>C</step>
                    <octave>5</octave>
                </pitch>
                <duration>1</duration>
                <voice>1</voice>
                <type>quarter</type>
                <stem default-y="-51">down</stem>
                <lyric default-y="-80" number="1">
                    <syllabic>single</syllabic>
                    <text>that</text>
                </lyric>
            </note>
            <harmony default-y="30">
                <root>
                    <root-step>C</root-step>
                </root>
                <kind text="7">dominant</kind>
            </harmony>
            <note default-x="113">
                <pitch>
                    <step>E</step>
                    <octave>5</octave>
                </pitch>
                <duration>1</duration>
                <voice>1</voice>
                <type>quarter</type>
                <accidental>natural</accidental>
                <stem default-y="-40.5">down</stem>
                <lyric default-y="-80" number="1">
                    <syllabic>single</syllabic>
                    <text>shine</text>
                </lyric>
            </note>
            <note default-x="155">
                <pitch>
                    <step>G</step>
                    <octave>4</octave>
                </pitch>
                <duration>1</duration>
                <voice>1</voice>
                <type>quarter</type>
                <stem default-y="6">up</stem>
                <lyric default-y="-80" number="1">
                    <syllabic>single</syllabic>
                    <text>so</text>
                </lyric>
            </note>
        </measure>
        <measure width="148" number="5">
            <harmony default-y="30">
                <root>
                    <root-step>E</root-step>
                </root>
                <kind text="dim">diminished</kind>
            </harmony>
            <note default-x="28">
                <pitch>
                    <step>B</step>
                    <alter>-1</alter>
                    <octave>4</octave>
                </pitch>
                <duration>2</duration>
                <tie type="start"/>
                <voice>1</voice>
                <type>half</type>
                <stem default-y="-55.5">down</stem>
                <notations>
                    <tied type="start"/>
                </notations>
                <lyric justify="left" default-y="-80" number="1">
                    <syllabic>single</syllabic>
                    <text>bright</text>
                    <extend/>
                </lyric>
            </note>
            <harmony default-y="30">
                <root>
                    <root-step>C</root-step>
                </root>
                <kind text="7">dominant</kind>
            </harmony>
            <note default-x="87">
                <pitch>
                    <step>B</step>
                    <alter>-1</alter>
                    <octave>4</octave>
                </pitch>
                <duration>2</duration>
                <tie type="stop"/>
                <tie type="start"/>
                <voice>1</voice>
                <type>half</type>
                <stem default-y="-55.5">down</stem>
                <notations>
                    <tied type="stop"/>
                    <tied type="start"/>
                </notations>
            </note>
        </measure>
        <measure width="250" number="6">
            <print new-system="yes">
                <system-layout>
                    <system-distance>114</system-distance>
                </system-layout>
            </print>
            <harmony default-y="30">
                <root>
                    <root-step>E</root-step>
                </root>
                <kind text="dim">diminished</kind>
            </harmony>
            <note default-x="105">
                <pitch>
                    <step>B</step>
                    <alter>-1</alter>
                    <octave>4</octave>
                </pitch>
                <duration>2</duration>
                <tie type="stop"/>
                <tie type="start"/>
                <voice>1</voice>
                <type>half</type>
                <stem default-y="-55.5">down</stem>
                <notations>
                    <tied type="stop"/>
                    <tied type="start"/>
                </notations>
            </note>
            <harmony default-y="30">
                <root>
                    <root-step>C</root-step>
                </root>
                <kind text="7">dominant</kind>
            </harmony>
            <note default-x="177">
                <pitch>
                    <step>B</step>
                    <alter>-1</alter>
                    <octave>4</octave>
                </pitch>
                <duration>2</duration>
                <tie type="stop"/>
                <tie type="start"/>
                <voice>1</voice>
                <type>half</type>
                <stem default-y="-55.5">down</stem>
                <notations>
                    <tied type="stop"/>
                    <tied type="start"/>
                </notations>
            </note>
        </measure>
        <measure width="199" number="7">
            <harmony default-y="30">
                <root>
                    <root-step>E</root-step>
                </root>
                <kind text="dim">diminished</kind>
            </harmony>
            <note default-x="11">
                <pitch>
                    <step>B</step>
                    <alter>-1</alter>
                    <octave>4</octave>
                </pitch>
                <duration>1</duration>
                <tie type="stop"/>
                <voice>1</voice>
                <type>quarter</type>
                <stem default-y="-55.5">down</stem>
                <notations>
                    <tied type="stop"/>
                </notations>
            </note>
            <note default-x="58">
                <pitch>
                    <step>C</step>
                    <octave>5</octave>
                </pitch>
                <duration>1</duration>
                <voice>1</voice>
                <type>quarter</type>
                <stem default-y="-50.5">down</stem>
                <lyric default-y="-80" number="1">
                    <syllabic>single</syllabic>
                    <text>the</text>
                </lyric>
            </note>
            <harmony default-y="30">
                <root>
                    <root-step>C</root-step>
                </root>
                <kind text="7">dominant</kind>
            </harmony>
            <note default-x="104">
                <pitch>
                    <step>D</step>
                    <alter>-1</alter>
                    <octave>5</octave>
                </pitch>
                <duration>1</duration>
                <voice>1</voice>
                <type>quarter</type>
                <stem default-y="-46">down</stem>
                <lyric default-y="-80" number="1">
                    <syllabic>single</syllabic>
                    <text>mys</text>
                </lyric>
            </note>
            <note default-x="151">
                <pitch>
                    <step>C</step>
                    <octave>5</octave>
                </pitch>
                <duration>1</duration>
                <voice>1</voice>
                <type>quarter</type>
                <stem default-y="-50.5">down</stem>
                <lyric default-y="-80" number="1">
                    <syllabic>single</syllabic>
                    <text>t'ry</text>
                </lyric>
            </note>
        </measure>
        <measure width="211" number="8">
            <harmony default-y="30">
                <root>
                    <root-step>E</root-step>
                </root>
                <kind text="dim">diminished</kind>
            </harmony>
            <note default-x="12">
                <pitch>
                    <step>D</step>
                    <alter>-1</alter>
                    <octave>5</octave>
                </pitch>
                <duration>1</duration>
                <voice>1</voice>
                <type>quarter</type>
                <stem default-y="-46">down</stem>
                <lyric default-y="-80" number="1">
                    <syllabic>single</syllabic>
                    <text>of</text>
                </lyric>
            </note>
            <note default-x="61">
                <pitch>
                    <step>C</step>
                    <octave>5</octave>
                </pitch>
                <duration>1</duration>
                <voice>1</voice>
                <type>quarter</type>
                <stem default-y="-50.5">down</stem>
                <lyric default-y="-80" number="1">
                    <syllabic>single</syllabic>
                    <text>their</text>
                </lyric>
            </note>
            <harmony default-y="30">
                <root>
                    <root-step>C</root-step>
                </root>
                <kind text="7">dominant</kind>
            </harmony>
            <note default-x="111">
                <pitch>
                    <step>C</step>
                    <alter>-1</alter>
                    <octave>5</octave>
                </pitch>
                <duration>1</duration>
                <voice>1</voice>
                <type>quarter</type>
                <accidental>flat</accidental>
                <stem default-y="-50.5">down</stem>
                <lyric default-y="-80" number="1">
                    <syllabic>single</syllabic>
                    <text>fad</text>
                </lyric>
            </note>
            <note default-x="160">
                <pitch>
                    <step>E</step>
                    <octave>4</octave>
                </pitch>
                <duration>1</duration>
                <voice>1</voice>
                <type>quarter</type>
                <accidental>natural</accidental>
                <stem default-y="-4">up</stem>
                <lyric default-y="-80" number="1">
                    <syllabic>single</syllabic>
                    <text>ing</text>
                </lyric>
            </note>
        </measure>
        <measure width="168" number="9">
            <harmony default-y="30">
                <root>
                    <root-step>E</root-step>
                </root>
                <kind text="dim">diminished</kind>
            </harmony>
            <note default-x="22">
                <pitch>
                    <step>B</step>
                    <alter>-1</alter>
                    <octave>4</octave>
                </pitch>
                <duration>2</duration>
                <tie type="start"/>
                <voice>1</voice>
                <type>half</type>
                <stem default-y="-55.5">down</stem>
                <notations>
                    <tied type="start"/>
                </notations>
                <lyric justify="left" default-y="-80" number="1">
                    <syllabic>single</syllabic>
                    <text>light</text>
                    <extend/>
                </lyric>
            </note>
            <harmony default-y="30">
                <root>
                    <root-step>C</root-step>
                </root>
                <kind text="7">dominant</kind>
            </harmony>
            <note default-x="94">
                <pitch>
                    <step>B</step>
                    <alter>-1</alter>
                    <octave>4</octave>
                </pitch>
                <duration>2</duration>
                <tie type="stop"/>
                <tie type="start"/>
                <voice>1</voice>
                <type>half</type>
                <stem default-y="-55.5">down</stem>
                <notations>
                    <tied type="stop"/>
                    <tied type="start"/>
                </notations>
            </note>
        </measure>
        <measure width="155" number="10">
            <harmony default-y="30">
                <root>
                    <root-step>E</root-step>
                </root>
                <kind text="dim">diminished</kind>
            </harmony>
            <note default-x="11">
                <pitch>
                    <step>B</step>
                    <alter>-1</alter>
                    <octave>4</octave>
                </pitch>
                <duration>2</duration>
                <tie type="stop"/>
                <tie type="start"/>
                <voice>1</voice>
                <type>half</type>
                <stem default-y="-55.5">down</stem>
                <notations>
                    <tied type="stop"/>
                    <tied type="start"/>
                </notations>
            </note>
            <harmony default-y="30">
                <root>
                    <root-step>C</root-step>
                </root>
                <kind text="7">dominant</kind>
            </harmony>
            <note default-x="82">
                <pitch>
                    <step>B</step>
                    <alter>-1</alter>
                    <octave>4</octave>
                </pitch>
                <duration>2</duration>
                <tie type="stop"/>
                <tie type="start"/>
                <voice>1</voice>
                <type>half</type>
                <stem default-y="-55.5">down</stem>
                <notations>
                    <tied type="stop"/>
                    <tied type="start"/>
                </notations>
            </note>
        </measure>
        <measure width="292" number="11">
            <print new-system="yes">
                <system-layout>
                    <system-distance>114</system-distance>
                </system-layout>
            </print>
            <harmony default-y="30">
                <root>
                    <root-step>E</root-step>
                </root>
                <kind text="dim">diminished</kind>
            </harmony>
            <note default-x="105">
                <pitch>
                    <step>B</step>
                    <alter>-1</alter>
                    <octave>4</octave>
                </pitch>
                <duration>1</duration>
                <tie type="stop"/>
                <voice>1</voice>
                <type>quarter</type>
                <stem default-y="-56">down</stem>
                <notations>
                    <tied type="stop"/>
                </notations>
            </note>
            <note default-x="150">
                <pitch>
                    <step>C</step>
                    <octave>5</octave>
                </pitch>
                <duration>1</duration>
                <voice>1</voice>
                <type>quarter</type>
                <stem default-y="-50.5">down</stem>
                <lyric default-y="-80" number="1">
                    <syllabic>single</syllabic>
                    <text>that</text>
                </lyric>
            </note>
            <harmony default-y="30">
                <root>
                    <root-step>C</root-step>
                </root>
                <kind text="7">dominant</kind>
            </harmony>
            <note default-x="199">
                <pitch>
                    <step>C</step>
                    <alter>-1</alter>
                    <octave>5</octave>
                </pitch>
                <duration>1</duration>
                <voice>1</voice>
                <type>quarter</type>
                <accidental>flat</accidental>
                <stem default-y="-50.5">down</stem>
                <lyric default-y="-80" number="1">
                    <syllabic>single</syllabic>
                    <text>shines</text>
                </lyric>
            </note>
            <note default-x="247">
                <pitch>
                    <step>B</step>
                    <alter>-1</alter>
                    <octave>4</octave>
                </pitch>
                <duration>1</duration>
                <voice>1</voice>
                <type>quarter</type>
                <stem default-y="-56">down</stem>
                <lyric default-y="-80" number="1">
                    <syllabic>single</syllabic>
                    <text>up</text>
                </lyric>
            </note>
        </measure>
        <measure width="201" number="12">
            <harmony default-y="30">
                <root>
                    <root-step>E</root-step>
                </root>
                <kind text="dim">diminished</kind>
            </harmony>
            <note default-x="21">
                <pitch>
                    <step>A</step>
                    <octave>4</octave>
                </pitch>
                <duration>1</duration>
                <voice>1</voice>
                <type>quarter</type>
                <accidental>natural</accidental>
                <stem default-y="11">up</stem>
                <lyric default-y="-80" number="1">
                    <syllabic>single</syllabic>
                    <text>on</text>
                </lyric>
            </note>
            <note default-x="66">
                <pitch>
                    <step>A</step>
                    <alter>-1</alter>
                    <octave>4</octave>
                </pitch>
                <duration>1</duration>
                <voice>1</voice>
                <type>quarter</type>
                <accidental>flat</accidental>
                <stem default-y="11">up</stem>
                <lyric default-y="-80" number="1">
                    <syllabic>single</syllabic>
                    <text>our</text>
                </lyric>
            </note>
            <harmony default-y="30">
                <root>
                    <root-step>C</root-step>
                </root>
                <kind text="7">dominant</kind>
            </harmony>
            <note default-x="111">
                <pitch>
                    <step>G</step>
                    <alter>-1</alter>
                    <octave>4</octave>
                </pitch>
                <duration>1</duration>
                <voice>1</voice>
                <type>quarter</type>
                <accidental>flat</accidental>
                <stem default-y="6">up</stem>
                <lyric default-y="-80" number="1">
                    <syllabic>single</syllabic>
                    <text>Car</text>
                </lyric>
            </note>
            <note default-x="155">
                <pitch>
                    <step>E</step>
                    <octave>4</octave>
                </pitch>
                <duration>1</duration>
                <voice>1</voice>
                <type>quarter</type>
                <accidental>natural</accidental>
                <stem default-y="-4">up</stem>
                <lyric default-y="-80" number="1">
                    <syllabic>single</syllabic>
                    <text>a</text>
                </lyric>
            </note>
        </measure>
        <measure width="124" number="13">
            <harmony default-y="30">
                <root>
                    <root-step>F</root-step>
                </root>
                <kind text="m6">minor-sixth</kind>
            </harmony>
            <note default-x="18">
                <pitch>
                    <step>F</step>
                    <octave>4</octave>
                </pitch>
                <duration>4</duration>
                <tie type="start"/>
                <voice>1</voice>
                <type>whole</type>
                <notations>
                    <tied type="start"/>
                </notations>
                <lyric justify="left" default-y="-80" number="1">
                    <syllabic>single</syllabic>
                    <text>van</text>
                    <extend/>
                </lyric>
            </note>
        </measure>
        <measure width="115" number="14">
            <note default-x="10">
                <pitch>
                    <step>F</step>
                    <octave>4</octave>
                </pitch>
                <duration>4</duration>
                <tie type="stop"/>
                <tie type="start"/>
                <voice>1</voice>
                <type>whole</type>
                <notations>
                    <tied type="stop"/>
                    <tied type="start"/>
                </notations>
            </note>
        </measure>
        <measure width="115" number="15">
            <note default-x="10">
                <pitch>
                    <step>F</step>
                    <octave>4</octave>
                </pitch>
                <duration>4</duration>
                <tie type="stop"/>
                <tie type="start"/>
                <voice>1</voice>
                <type>whole</type>
                <notations>
                    <tied type="stop"/>
                    <tied type="start"/>
                </notations>
            </note>
        </measure>
        <measure width="135" number="16">
            <note default-x="10">
                <pitch>
                    <step>F</step>
                    <octave>4</octave>
                </pitch>
                <duration>3</duration>
                <tie type="stop"/>
                <voice>1</voice>
                <type>half</type>
                <dot/>
                <stem default-y="1">up</stem>
                <notations>
                    <tied type="stop"/>
                </notations>
            </note>
            <note default-x="89">
                <rest/>
                <duration>1</duration>
                <voice>1</voice>
                <type>quarter</type>
            </note>
            <barline location="right">
                <bar-style>light-heavy</bar-style>
            </barline>
        </measure>
    </part>
</score-partwise>
