<?xml version="1.0" encoding="UTF-8"?>
<!DOCTYPE score-partwise PUBLIC "-//Recordare//DTD MusicXML 2.0 Partwise//EN" "http://www.musicxml.org/dtds/partwise.dtd">
<score-partwise version="2.0">
    <work>
        <work-number></work-number>
        <work-title></work-title>
    </work>
    <movement-number></movement-number>
    <movement-title>Jitterbug Waltz</movement-title>
    <identification>
        <creator type="composer">Fats Waller</creator>
        <creator type="poet"></creator>
        <rights>All Rights Reserved</rights>
        <encoding>
            <software>Finale 2010 for Macintosh</software>
            <software>Dolet Light for Finale 2010</software>
            <encoding-date>2011-09-07</encoding-date>
            <supports value="yes" type="yes" element="print" attribute="new-system"/>
            <supports value="yes" type="yes" element="print" attribute="new-page"/>
            <software>ProxyMusic 2.0 c</software>
        </encoding>
        <source>http://wikifonia.org/node/12461/revisions/16816/view</source>
    </identification>
    <defaults>
        <scaling>
            <millimeters>7.2319</millimeters>
            <tenths>40</tenths>
        </scaling>
        <page-layout>
            <page-height>1545</page-height>
            <page-width>1194</page-width>
            <page-margins type="both">
                <left-margin>70</left-margin>
                <right-margin>70</right-margin>
                <top-margin>88</top-margin>
                <bottom-margin>88</bottom-margin>
            </page-margins>
        </page-layout>
        <system-layout>
            <system-margins>
                <left-margin>0</left-margin>
                <right-margin>0</right-margin>
            </system-margins>
            <system-distance>121</system-distance>
            <top-system-distance>70</top-system-distance>
        </system-layout>
        <appearance>
            <line-width type="stem">0.7487</line-width>
            <line-width type="beam">5</line-width>
            <line-width type="staff">0.7487</line-width>
            <line-width type="light barline">0.7487</line-width>
            <line-width type="heavy barline">5</line-width>
            <line-width type="leger">0.7487</line-width>
            <line-width type="ending">1.4583</line-width>
            <line-width type="wedge">0.7487</line-width>
            <line-width type="enclosure">0.7487</line-width>
            <line-width type="tuplet bracket">0.7487</line-width>
            <note-size type="grace">60</note-size>
            <note-size type="cue">60</note-size>
        </appearance>
        <music-font font-size="20.5" font-family="Maestro"/>
        <word-font font-size="10.25" font-family="Times New Roman"/>
    </defaults>
    <credit page="1">
        <credit-words font-weight="bold" font-size="24" default-y="1440" default-x="597" justify="center" valign="top">Jitterbug Waltz</credit-words>
    </credit>
    <part-list>
        <score-part id="P1">
            <part-name print-object="no">MusicXML Part</part-name>
            <score-instrument id="P1-I1">
                <instrument-name>Grand Piano</instrument-name>
            </score-instrument>
            <midi-instrument id="P1-I1">
                <midi-channel>1</midi-channel>
                <midi-program>1</midi-program>
                <volume>80</volume>
                <pan>0</pan>
            </midi-instrument>
        </score-part>
    </part-list>
    <part id="P1">
        <measure width="262" number="1">
            <print>
                <system-layout>
                    <system-margins>
                        <left-margin>70</left-margin>
                        <right-margin>0</right-margin>
                    </system-margins>
                    <top-system-distance>211</top-system-distance>
                </system-layout>
            </print>
            <attributes>
                <divisions>24</divisions>
                <key>
                    <fifths>-3</fifths>
                    <mode>major</mode>
                </key>
                <time>
                    <beats>3</beats>
                    <beat-type>4</beat-type>
                </time>
                <clef>
                    <sign>G</sign>
                    <line>2</line>
                </clef>
            </attributes>
            <sound tempo="120"/>
            <note default-x="128">
                <rest/>
                <duration>12</duration>
                <voice>1</voice>
                <type>eighth</type>
            </note>
            <harmony default-y="34">
                <root>
                    <root-step>E</root-step>
                    <root-alter>-1</root-alter>
                </root>
                <kind halign="center" text="6">major-sixth</kind>
            </harmony>
            <note default-x="150">
                <pitch>
                    <step>E</step>
                    <alter>-1</alter>
                    <octave>5</octave>
                </pitch>
                <duration>12</duration>
                <voice>1</voice>
                <type>eighth</type>
                <stem default-y="-40">down</stem>
            </note>
            <note default-x="172">
                <pitch>
                    <step>G</step>
                    <octave>5</octave>
                </pitch>
                <duration>12</duration>
                <voice>1</voice>
                <type>eighth</type>
                <stem default-y="-40">down</stem>
                <beam number="1">begin</beam>
            </note>
            <note default-x="195">
                <pitch>
                    <step>D</step>
                    <octave>5</octave>
                </pitch>
                <duration>12</duration>
                <voice>1</voice>
                <type>eighth</type>
                <stem default-y="-42">down</stem>
                <beam number="1">end</beam>
            </note>
            <note default-x="217">
                <pitch>
                    <step>F</step>
                    <octave>5</octave>
                </pitch>
                <duration>12</duration>
                <voice>1</voice>
                <type>eighth</type>
                <stem default-y="-45">down</stem>
                <beam number="1">begin</beam>
            </note>
            <note default-x="239">
                <pitch>
                    <step>C</step>
                    <octave>5</octave>
                </pitch>
                <duration>12</duration>
                <voice>1</voice>
                <type>eighth</type>
                <stem default-y="-50">down</stem>
                <beam number="1">end</beam>
            </note>
        </measure>
        <measure width="147" number="2">
            <note default-x="14">
                <pitch>
                    <step>E</step>
                    <alter>-1</alter>
                    <octave>5</octave>
                </pitch>
                <duration>12</duration>
                <voice>1</voice>
                <type>eighth</type>
                <stem default-y="-50">down</stem>
                <beam number="1">begin</beam>
            </note>
            <note default-x="36">
                <pitch>
                    <step>B</step>
                    <alter>-1</alter>
                    <octave>4</octave>
                </pitch>
                <duration>12</duration>
                <voice>1</voice>
                <type>eighth</type>
                <stem default-y="-55">down</stem>
                <beam number="1">end</beam>
            </note>
            <note default-x="57">
                <pitch>
                    <step>D</step>
                    <octave>5</octave>
                </pitch>
                <duration>12</duration>
                <voice>1</voice>
                <type>eighth</type>
                <stem default-y="-55">down</stem>
                <beam number="1">begin</beam>
            </note>
            <note default-x="79">
                <pitch>
                    <step>A</step>
                    <alter>-1</alter>
                    <octave>4</octave>
                </pitch>
                <duration>12</duration>
                <voice>1</voice>
                <type>eighth</type>
                <stem default-y="-60">down</stem>
                <beam number="1">end</beam>
            </note>
            <note default-x="102">
                <pitch>
                    <step>C</step>
                    <octave>5</octave>
                </pitch>
                <duration>12</duration>
                <voice>1</voice>
                <type>eighth</type>
                <stem default-y="20">up</stem>
                <beam number="1">begin</beam>
            </note>
            <note default-x="124">
                <pitch>
                    <step>G</step>
                    <octave>4</octave>
                </pitch>
                <duration>12</duration>
                <voice>1</voice>
                <type>eighth</type>
                <stem default-y="15">up</stem>
                <beam number="1">end</beam>
            </note>
        </measure>
        <measure width="147" number="3">
            <note default-x="13">
                <pitch>
                    <step>B</step>
                    <alter>-1</alter>
                    <octave>4</octave>
                </pitch>
                <duration>12</duration>
                <voice>1</voice>
                <type>eighth</type>
                <stem default-y="15">up</stem>
                <beam number="1">begin</beam>
            </note>
            <note default-x="36">
                <pitch>
                    <step>F</step>
                    <octave>4</octave>
                </pitch>
                <duration>12</duration>
                <voice>1</voice>
                <type>eighth</type>
                <stem default-y="10">up</stem>
                <beam number="1">end</beam>
            </note>
            <note default-x="58">
                <pitch>
                    <step>A</step>
                    <alter>-1</alter>
                    <octave>4</octave>
                </pitch>
                <duration>12</duration>
                <voice>1</voice>
                <type>eighth</type>
                <stem default-y="10">up</stem>
                <beam number="1">begin</beam>
            </note>
            <note default-x="80">
                <pitch>
                    <step>E</step>
                    <alter>-1</alter>
                    <octave>4</octave>
                </pitch>
                <duration>12</duration>
                <voice>1</voice>
                <type>eighth</type>
                <stem default-y="5">up</stem>
                <beam number="1">end</beam>
            </note>
            <note default-x="102">
                <pitch>
                    <step>G</step>
                    <octave>4</octave>
                </pitch>
                <duration>12</duration>
                <voice>1</voice>
                <type>eighth</type>
                <stem default-y="5">up</stem>
                <beam number="1">begin</beam>
            </note>
            <note default-x="124">
                <pitch>
                    <step>D</step>
                    <octave>4</octave>
                </pitch>
                <duration>12</duration>
                <voice>1</voice>
                <type>eighth</type>
                <stem default-y="3">up</stem>
                <beam number="1">end</beam>
            </note>
        </measure>
        <measure width="147" number="4">
            <note default-x="13">
                <pitch>
                    <step>F</step>
                    <octave>4</octave>
                </pitch>
                <duration>12</duration>
                <voice>1</voice>
                <type>eighth</type>
                <stem default-y="-5">up</stem>
                <beam number="1">begin</beam>
            </note>
            <note default-x="35">
                <pitch>
                    <step>C</step>
                    <octave>4</octave>
                </pitch>
                <duration>12</duration>
                <voice>1</voice>
                <type>eighth</type>
                <stem default-y="-7.5">up</stem>
                <beam number="1">end</beam>
            </note>
            <note default-x="57">
                <pitch>
                    <step>E</step>
                    <alter>-1</alter>
                    <octave>4</octave>
                </pitch>
                <duration>12</duration>
                <voice>1</voice>
                <type>eighth</type>
                <stem default-y="-5">up</stem>
                <beam number="1">begin</beam>
            </note>
            <note default-x="80">
                <pitch>
                    <step>B</step>
                    <alter>-1</alter>
                    <octave>3</octave>
                </pitch>
                <duration>12</duration>
                <voice>1</voice>
                <type>eighth</type>
                <stem default-y="-7.5">up</stem>
                <beam number="1">end</beam>
            </note>
            <note default-x="102">
                <pitch>
                    <step>D</step>
                    <octave>4</octave>
                </pitch>
                <duration>12</duration>
                <voice>1</voice>
                <type>eighth</type>
                <stem default-y="-15">up</stem>
                <beam number="1">begin</beam>
            </note>
            <note default-x="124">
                <pitch>
                    <step>B</step>
                    <alter>-1</alter>
                    <octave>3</octave>
                </pitch>
                <duration>12</duration>
                <voice>1</voice>
                <type>eighth</type>
                <stem default-y="-17">up</stem>
                <beam number="1">end</beam>
            </note>
        </measure>
        <measure width="131" number="5">
            <harmony default-y="34">
                <root>
                    <root-step>A</root-step>
                    <root-alter>-1</root-alter>
                </root>
                <kind halign="center" text="9">dominant-ninth</kind>
            </harmony>
            <note default-x="17">
                <pitch>
                    <step>C</step>
                    <octave>4</octave>
                </pitch>
                <duration>12</duration>
                <voice>1</voice>
                <type>eighth</type>
                <stem default-y="-14.5">up</stem>
            </note>
            <note default-x="47">
                <pitch>
                    <step>C</step>
                    <octave>4</octave>
                </pitch>
                <duration>36</duration>
                <tie type="start"/>
                <voice>1</voice>
                <type>quarter</type>
                <dot/>
                <stem default-y="-14.5">up</stem>
                <notations>
                    <tied type="start"/>
                </notations>
            </note>
            <note default-x="94">
                <pitch>
                    <step>C</step>
                    <octave>4</octave>
                </pitch>
                <duration>24</duration>
                <tie type="stop"/>
                <voice>1</voice>
                <type>quarter</type>
                <stem default-y="-14.5">up</stem>
                <notations>
                    <tied type="stop"/>
                </notations>
            </note>
        </measure>
        <measure width="151" number="6">
            <note default-x="16">
                <pitch>
                    <step>C</step>
                    <octave>4</octave>
                </pitch>
                <duration>48</duration>
                <voice>1</voice>
                <type>half</type>
                <stem default-y="-14.5">up</stem>
            </note>
            <note default-x="75">
                <pitch>
                    <step>B</step>
                    <alter>-1</alter>
                    <octave>3</octave>
                </pitch>
                <duration>8</duration>
                <voice>1</voice>
                <type>eighth</type>
                <time-modification>
                    <actual-notes>3</actual-notes>
                    <normal-notes>2</normal-notes>
                </time-modification>
                <stem default-y="-10">up</stem>
                <beam number="1">begin</beam>
                <notations>
                    <tuplet placement="above" type="start" number="1" bracket="yes"/>
                </notations>
            </note>
            <note default-x="99">
                <pitch>
                    <step>C</step>
                    <octave>4</octave>
                </pitch>
                <duration>8</duration>
                <voice>1</voice>
                <type>eighth</type>
                <time-modification>
                    <actual-notes>3</actual-notes>
                    <normal-notes>2</normal-notes>
                </time-modification>
                <stem default-y="-9">up</stem>
                <beam number="1">continue</beam>
            </note>
            <note default-x="131">
                <pitch>
                    <step>E</step>
                    <octave>4</octave>
                </pitch>
                <duration>8</duration>
                <voice>1</voice>
                <type>eighth</type>
                <accidental>natural</accidental>
                <time-modification>
                    <actual-notes>3</actual-notes>
                    <normal-notes>2</normal-notes>
                </time-modification>
                <stem default-y="-7.5">up</stem>
                <beam number="1">end</beam>
                <notations>
                    <tuplet type="stop" number="1"/>
                </notations>
            </note>
        </measure>
        <measure width="204" number="7">
            <print new-system="yes">
                <system-layout>
                    <system-distance>114</system-distance>
                </system-layout>
            </print>
            <note default-x="97">
                <pitch>
                    <step>B</step>
                    <alter>-1</alter>
                    <octave>4</octave>
                </pitch>
                <duration>48</duration>
                <tie type="start"/>
                <voice>1</voice>
                <type>half</type>
                <stem default-y="-55">down</stem>
                <notations>
                    <tied type="start"/>
                </notations>
            </note>
            <note default-x="158">
                <pitch>
                    <step>B</step>
                    <alter>-1</alter>
                    <octave>4</octave>
                </pitch>
                <duration>12</duration>
                <tie type="stop"/>
                <voice>1</voice>
                <type>eighth</type>
                <stem default-y="-55">down</stem>
                <beam number="1">begin</beam>
                <notations>
                    <tied type="stop"/>
                </notations>
            </note>
            <note default-x="180">
                <pitch>
                    <step>C</step>
                    <octave>5</octave>
                </pitch>
                <duration>12</duration>
                <voice>1</voice>
                <type>eighth</type>
                <stem default-y="-50">down</stem>
                <beam number="1">end</beam>
            </note>
        </measure>
        <measure width="106" number="8">
            <harmony default-y="34">
                <root>
                    <root-step>B</root-step>
                    <root-alter>-1</root-alter>
                </root>
                <kind halign="center" text="7" parentheses-degrees="yes">dominant</kind>
                <degree>
                    <degree-value>5</degree-value>
                    <degree-alter>1</degree-alter>
                    <degree-type>alter</degree-type>
                </degree>
            </harmony>
            <note default-x="25">
                <pitch>
                    <step>G</step>
                    <alter>-1</alter>
                    <octave>4</octave>
                </pitch>
                <duration>72</duration>
                <voice>1</voice>
                <type>half</type>
                <dot/>
                <accidental>flat</accidental>
                <stem default-y="5">up</stem>
            </note>
        </measure>
        <measure width="152" number="9">
            <harmony default-y="34">
                <root>
                    <root-step>E</root-step>
                    <root-alter>-1</root-alter>
                </root>
                <kind halign="center" text="6">major-sixth</kind>
            </harmony>
            <note default-x="13">
                <rest/>
                <duration>12</duration>
                <voice>1</voice>
                <type>eighth</type>
            </note>
            <note default-x="36">
                <pitch>
                    <step>E</step>
                    <alter>-1</alter>
                    <octave>5</octave>
                </pitch>
                <duration>12</duration>
                <voice>1</voice>
                <type>eighth</type>
                <stem default-y="-40">down</stem>
            </note>
            <note default-x="59">
                <pitch>
                    <step>G</step>
                    <octave>5</octave>
                </pitch>
                <duration>12</duration>
                <voice>1</voice>
                <type>eighth</type>
                <stem default-y="-40">down</stem>
                <beam number="1">begin</beam>
            </note>
            <note default-x="82">
                <pitch>
                    <step>D</step>
                    <octave>5</octave>
                </pitch>
                <duration>12</duration>
                <voice>1</voice>
                <type>eighth</type>
                <stem default-y="-42.5">down</stem>
                <beam number="1">end</beam>
            </note>
            <note default-x="105">
                <pitch>
                    <step>F</step>
                    <octave>5</octave>
                </pitch>
                <duration>12</duration>
                <voice>1</voice>
                <type>eighth</type>
                <stem default-y="-45">down</stem>
                <beam number="1">begin</beam>
            </note>
            <note default-x="128">
                <pitch>
                    <step>C</step>
                    <octave>5</octave>
                </pitch>
                <duration>12</duration>
                <voice>1</voice>
                <type>eighth</type>
                <stem default-y="-50">down</stem>
                <beam number="1">end</beam>
            </note>
        </measure>
        <measure width="152" number="10">
            <note default-x="13">
                <pitch>
                    <step>E</step>
                    <alter>-1</alter>
                    <octave>5</octave>
                </pitch>
                <duration>12</duration>
                <voice>1</voice>
                <type>eighth</type>
                <stem default-y="-50">down</stem>
                <beam number="1">begin</beam>
            </note>
            <note default-x="36">
                <pitch>
                    <step>B</step>
                    <alter>-1</alter>
                    <octave>4</octave>
                </pitch>
                <duration>12</duration>
                <voice>1</voice>
                <type>eighth</type>
                <stem default-y="-55">down</stem>
                <beam number="1">end</beam>
            </note>
            <note default-x="59">
                <pitch>
                    <step>D</step>
                    <octave>5</octave>
                </pitch>
                <duration>12</duration>
                <voice>1</voice>
                <type>eighth</type>
                <stem default-y="-55">down</stem>
                <beam number="1">begin</beam>
            </note>
            <note default-x="82">
                <pitch>
                    <step>A</step>
                    <alter>-1</alter>
                    <octave>4</octave>
                </pitch>
                <duration>12</duration>
                <voice>1</voice>
                <type>eighth</type>
                <stem default-y="-60">down</stem>
                <beam number="1">end</beam>
            </note>
            <note default-x="105">
                <pitch>
                    <step>C</step>
                    <octave>5</octave>
                </pitch>
                <duration>12</duration>
                <voice>1</voice>
                <type>eighth</type>
                <stem default-y="20">up</stem>
                <beam number="1">begin</beam>
            </note>
            <note default-x="128">
                <pitch>
                    <step>G</step>
                    <octave>4</octave>
                </pitch>
                <duration>12</duration>
                <voice>1</voice>
                <type>eighth</type>
                <stem default-y="15">up</stem>
                <beam number="1">end</beam>
            </note>
        </measure>
        <measure width="152" number="11">
            <note default-x="13">
                <pitch>
                    <step>B</step>
                    <alter>-1</alter>
                    <octave>4</octave>
                </pitch>
                <duration>12</duration>
                <voice>1</voice>
                <type>eighth</type>
                <stem default-y="15">up</stem>
                <beam number="1">begin</beam>
            </note>
            <note default-x="36">
                <pitch>
                    <step>F</step>
                    <octave>4</octave>
                </pitch>
                <duration>12</duration>
                <voice>1</voice>
                <type>eighth</type>
                <stem default-y="10">up</stem>
                <beam number="1">end</beam>
            </note>
            <note default-x="59">
                <pitch>
                    <step>A</step>
                    <alter>-1</alter>
                    <octave>4</octave>
                </pitch>
                <duration>12</duration>
                <voice>1</voice>
                <type>eighth</type>
                <stem default-y="10">up</stem>
                <beam number="1">begin</beam>
            </note>
            <note default-x="82">
                <pitch>
                    <step>E</step>
                    <alter>-1</alter>
                    <octave>4</octave>
                </pitch>
                <duration>12</duration>
                <voice>1</voice>
                <type>eighth</type>
                <stem default-y="5">up</stem>
                <beam number="1">end</beam>
            </note>
            <note default-x="105">
                <pitch>
                    <step>G</step>
                    <octave>4</octave>
                </pitch>
                <duration>12</duration>
                <voice>1</voice>
                <type>eighth</type>
                <stem default-y="5">up</stem>
                <beam number="1">begin</beam>
            </note>
            <note default-x="128">
                <pitch>
                    <step>D</step>
                    <octave>4</octave>
                </pitch>
                <duration>12</duration>
                <voice>1</voice>
                <type>eighth</type>
                <stem default-y="2">up</stem>
                <beam number="1">end</beam>
            </note>
        </measure>
        <measure width="152" number="12">
            <note default-x="13">
                <pitch>
                    <step>F</step>
                    <octave>4</octave>
                </pitch>
                <duration>12</duration>
                <voice>1</voice>
                <type>eighth</type>
                <stem default-y="-5">up</stem>
                <beam number="1">begin</beam>
            </note>
            <note default-x="36">
                <pitch>
                    <step>C</step>
                    <octave>4</octave>
                </pitch>
                <duration>12</duration>
                <voice>1</voice>
                <type>eighth</type>
                <stem default-y="-7.5">up</stem>
                <beam number="1">end</beam>
            </note>
            <note default-x="59">
                <pitch>
                    <step>E</step>
                    <alter>-1</alter>
                    <octave>4</octave>
                </pitch>
                <duration>12</duration>
                <voice>1</voice>
                <type>eighth</type>
                <stem default-y="-5">up</stem>
                <beam number="1">begin</beam>
            </note>
            <note default-x="82">
                <pitch>
                    <step>B</step>
                    <alter>-1</alter>
                    <octave>3</octave>
                </pitch>
                <duration>12</duration>
                <voice>1</voice>
                <type>eighth</type>
                <stem default-y="-7.5">up</stem>
                <beam number="1">end</beam>
            </note>
            <note default-x="105">
                <pitch>
                    <step>D</step>
                    <octave>4</octave>
                </pitch>
                <duration>12</duration>
                <voice>1</voice>
                <type>eighth</type>
                <stem default-y="-15">up</stem>
                <beam number="1">begin</beam>
            </note>
            <note default-x="128">
                <pitch>
                    <step>B</step>
                    <alter>-1</alter>
                    <octave>3</octave>
                </pitch>
                <duration>12</duration>
                <voice>1</voice>
                <type>eighth</type>
                <stem default-y="-18">up</stem>
                <beam number="1">end</beam>
            </note>
        </measure>
        <measure width="136" number="13">
            <harmony default-y="34">
                <root>
                    <root-step>G</root-step>
                </root>
                <kind halign="center" text="m7">minor-seventh</kind>
            </harmony>
            <note default-x="16">
                <pitch>
                    <step>C</step>
                    <octave>4</octave>
                </pitch>
                <duration>12</duration>
                <voice>1</voice>
                <type>eighth</type>
                <stem default-y="-15">up</stem>
            </note>
            <note default-x="47">
                <pitch>
                    <step>C</step>
                    <octave>4</octave>
                </pitch>
                <duration>36</duration>
                <tie type="start"/>
                <voice>1</voice>
                <type>quarter</type>
                <dot/>
                <stem default-y="-15">up</stem>
                <notations>
                    <tied type="start"/>
                </notations>
            </note>
            <note default-x="97">
                <pitch>
                    <step>C</step>
                    <octave>4</octave>
                </pitch>
                <duration>24</duration>
                <tie type="stop"/>
                <voice>1</voice>
                <type>quarter</type>
                <stem default-y="-15">up</stem>
                <notations>
                    <tied type="stop"/>
                </notations>
            </note>
        </measure>
        <measure width="250" number="14">
            <print new-system="yes">
                <system-layout>
                    <system-distance>114</system-distance>
                </system-layout>
            </print>
            <harmony default-y="34">
                <root>
                    <root-step>C</root-step>
                </root>
                <kind halign="center" text="7">dominant</kind>
            </harmony>
            <note default-x="100">
                <pitch>
                    <step>C</step>
                    <octave>4</octave>
                </pitch>
                <duration>48</duration>
                <voice>1</voice>
                <type>half</type>
                <stem default-y="-14.5">up</stem>
            </note>
            <note default-x="170">
                <pitch>
                    <step>B</step>
                    <alter>-1</alter>
                    <octave>3</octave>
                </pitch>
                <duration>8</duration>
                <voice>1</voice>
                <type>eighth</type>
                <time-modification>
                    <actual-notes>3</actual-notes>
                    <normal-notes>2</normal-notes>
                </time-modification>
                <stem default-y="-10">up</stem>
                <beam number="1">begin</beam>
                <notations>
                    <tuplet placement="above" type="start" number="1" bracket="yes"/>
                </notations>
            </note>
            <note default-x="196">
                <pitch>
                    <step>C</step>
                    <octave>4</octave>
                </pitch>
                <duration>8</duration>
                <voice>1</voice>
                <type>eighth</type>
                <time-modification>
                    <actual-notes>3</actual-notes>
                    <normal-notes>2</normal-notes>
                </time-modification>
                <stem default-y="-9">up</stem>
                <beam number="1">continue</beam>
            </note>
            <note default-x="228">
                <pitch>
                    <step>E</step>
                    <octave>4</octave>
                </pitch>
                <duration>8</duration>
                <voice>1</voice>
                <type>eighth</type>
                <accidental>natural</accidental>
                <time-modification>
                    <actual-notes>3</actual-notes>
                    <normal-notes>2</normal-notes>
                </time-modification>
                <stem default-y="-7">up</stem>
                <beam number="1">end</beam>
                <notations>
                    <tuplet type="stop" number="1"/>
                </notations>
            </note>
        </measure>
        <measure width="129" number="15">
            <harmony default-y="34">
                <root>
                    <root-step>G</root-step>
                </root>
                <kind halign="center" text="m7">minor-seventh</kind>
            </harmony>
            <note default-x="14">
                <pitch>
                    <step>B</step>
                    <alter>-1</alter>
                    <octave>4</octave>
                </pitch>
                <duration>48</duration>
                <tie type="start"/>
                <voice>1</voice>
                <type>half</type>
                <stem default-y="-55">down</stem>
                <notations>
                    <tied type="start"/>
                </notations>
            </note>
            <note default-x="79">
                <pitch>
                    <step>B</step>
                    <alter>-1</alter>
                    <octave>4</octave>
                </pitch>
                <duration>12</duration>
                <tie type="stop"/>
                <voice>1</voice>
                <type>eighth</type>
                <stem default-y="-55">down</stem>
                <beam number="1">begin</beam>
                <notations>
                    <tied type="stop"/>
                </notations>
            </note>
            <note default-x="103">
                <pitch>
                    <step>C</step>
                    <octave>5</octave>
                </pitch>
                <duration>12</duration>
                <voice>1</voice>
                <type>eighth</type>
                <stem default-y="-50">down</stem>
                <beam number="1">end</beam>
            </note>
        </measure>
        <measure width="100" number="16">
            <harmony default-y="34">
                <root>
                    <root-step>C</root-step>
                </root>
                <kind halign="center" text="7">dominant</kind>
            </harmony>
            <note default-x="13">
                <pitch>
                    <step>G</step>
                    <octave>4</octave>
                </pitch>
                <duration>72</duration>
                <voice>1</voice>
                <type>half</type>
                <dot/>
                <stem default-y="5.5">up</stem>
            </note>
        </measure>
        <measure width="169" number="17">
            <harmony default-y="34">
                <root>
                    <root-step>F</root-step>
                </root>
                <kind halign="center" text="9">dominant-ninth</kind>
            </harmony>
            <note default-x="13">
                <rest/>
                <duration>12</duration>
                <voice>1</voice>
                <type>eighth</type>
            </note>
            <note default-x="39">
                <pitch>
                    <step>C</step>
                    <octave>4</octave>
                </pitch>
                <duration>12</duration>
                <voice>1</voice>
                <type>eighth</type>
                <stem default-y="-14.5">up</stem>
            </note>
            <note default-x="66">
                <pitch>
                    <step>E</step>
                    <alter>-1</alter>
                    <octave>4</octave>
                </pitch>
                <duration>12</duration>
                <voice>1</voice>
                <type>eighth</type>
                <stem default-y="-5">up</stem>
                <beam number="1">begin</beam>
            </note>
            <note default-x="92">
                <pitch>
                    <step>C</step>
                    <octave>4</octave>
                </pitch>
                <duration>12</duration>
                <voice>1</voice>
                <type>eighth</type>
                <stem default-y="-7">up</stem>
                <beam number="1">end</beam>
            </note>
            <note default-x="118">
                <pitch>
                    <step>E</step>
                    <alter>-1</alter>
                    <octave>4</octave>
                </pitch>
                <duration>12</duration>
                <voice>1</voice>
                <type>eighth</type>
                <stem default-y="-5">up</stem>
                <beam number="1">begin</beam>
            </note>
            <note default-x="143">
                <pitch>
                    <step>C</step>
                    <octave>4</octave>
                </pitch>
                <duration>12</duration>
                <voice>1</voice>
                <type>eighth</type>
                <stem default-y="-7">up</stem>
                <beam number="1">end</beam>
            </note>
        </measure>
        <measure width="162" number="18">
            <note default-x="14">
                <pitch>
                    <step>E</step>
                    <alter>-1</alter>
                    <octave>4</octave>
                </pitch>
                <duration>12</duration>
                <voice>1</voice>
                <type>eighth</type>
                <stem default-y="-5">up</stem>
                <beam number="1">begin</beam>
            </note>
            <note default-x="38">
                <pitch>
                    <step>C</step>
                    <octave>4</octave>
                </pitch>
                <duration>12</duration>
                <voice>1</voice>
                <type>eighth</type>
                <stem default-y="-7">up</stem>
                <beam number="1">end</beam>
            </note>
            <note default-x="63">
                <pitch>
                    <step>E</step>
                    <alter>-1</alter>
                    <octave>4</octave>
                </pitch>
                <duration>12</duration>
                <voice>1</voice>
                <type>eighth</type>
                <stem default-y="-5">up</stem>
                <beam number="1">begin</beam>
            </note>
            <note default-x="88">
                <pitch>
                    <step>C</step>
                    <octave>4</octave>
                </pitch>
                <duration>12</duration>
                <voice>1</voice>
                <type>eighth</type>
                <stem default-y="-7">up</stem>
                <beam number="1">end</beam>
            </note>
            <note default-x="112">
                <pitch>
                    <step>E</step>
                    <alter>-1</alter>
                    <octave>4</octave>
                </pitch>
                <duration>12</duration>
                <voice>1</voice>
                <type>eighth</type>
                <stem default-y="-5">up</stem>
                <beam number="1">begin</beam>
            </note>
            <note default-x="137">
                <pitch>
                    <step>C</step>
                    <octave>4</octave>
                </pitch>
                <duration>12</duration>
                <voice>1</voice>
                <type>eighth</type>
                <stem default-y="-7">up</stem>
                <beam number="1">end</beam>
            </note>
        </measure>
        <measure width="138" number="19">
            <note default-x="13">
                <pitch>
                    <step>G</step>
                    <octave>4</octave>
                </pitch>
                <duration>12</duration>
                <voice>1</voice>
                <type>eighth</type>
                <stem default-y="5.5">up</stem>
            </note>
            <note default-x="41">
                <pitch>
                    <step>G</step>
                    <octave>4</octave>
                </pitch>
                <duration>36</duration>
                <tie type="start"/>
                <voice>1</voice>
                <type>quarter</type>
                <dot/>
                <stem default-y="5.5">up</stem>
                <notations>
                    <tied type="start"/>
                </notations>
            </note>
            <note default-x="96">
                <pitch>
                    <step>G</step>
                    <octave>4</octave>
                </pitch>
                <duration>24</duration>
                <tie type="stop"/>
                <tie type="start"/>
                <voice>1</voice>
                <type>quarter</type>
                <stem default-y="5.5">up</stem>
                <notations>
                    <tied type="stop"/>
                    <tied type="start"/>
                </notations>
            </note>
        </measure>
        <measure width="104" number="20">
            <note default-x="17">
                <pitch>
                    <step>G</step>
                    <octave>4</octave>
                </pitch>
                <duration>72</duration>
                <tie type="stop"/>
                <voice>1</voice>
                <type>half</type>
                <dot/>
                <stem default-y="5.5">up</stem>
                <notations>
                    <tied type="stop"/>
                </notations>
            </note>
        </measure>
        <measure width="245" number="21">
            <print new-system="yes">
                <system-layout>
                    <system-distance>114</system-distance>
                </system-layout>
            </print>
            <harmony default-y="34">
                <root>
                    <root-step>A</root-step>
                    <root-alter>-1</root-alter>
                </root>
                <kind halign="center" text="m6">minor-sixth</kind>
            </harmony>
            <note default-x="97">
                <rest/>
                <duration>12</duration>
                <voice>1</voice>
                <type>eighth</type>
            </note>
            <note default-x="124">
                <pitch>
                    <step>C</step>
                    <alter>-1</alter>
                    <octave>4</octave>
                </pitch>
                <duration>12</duration>
                <voice>1</voice>
                <type>eighth</type>
                <accidental>flat</accidental>
                <stem default-y="-14.5">up</stem>
            </note>
            <note default-x="151">
                <pitch>
                    <step>E</step>
                    <alter>-1</alter>
                    <octave>4</octave>
                </pitch>
                <duration>12</duration>
                <voice>1</voice>
                <type>eighth</type>
                <stem default-y="-5">up</stem>
                <beam number="1">begin</beam>
            </note>
            <note default-x="175">
                <pitch>
                    <step>C</step>
                    <alter>-1</alter>
                    <octave>4</octave>
                </pitch>
                <duration>12</duration>
                <voice>1</voice>
                <type>eighth</type>
                <stem default-y="-7">up</stem>
                <beam number="1">end</beam>
            </note>
            <note default-x="198">
                <pitch>
                    <step>E</step>
                    <alter>-1</alter>
                    <octave>4</octave>
                </pitch>
                <duration>12</duration>
                <voice>1</voice>
                <type>eighth</type>
                <stem default-y="-5">up</stem>
                <beam number="1">begin</beam>
            </note>
            <note default-x="221">
                <pitch>
                    <step>C</step>
                    <alter>-1</alter>
                    <octave>4</octave>
                </pitch>
                <duration>12</duration>
                <voice>1</voice>
                <type>eighth</type>
                <stem default-y="-7">up</stem>
                <beam number="1">end</beam>
            </note>
        </measure>
        <measure width="158" number="22">
            <note default-x="13">
                <pitch>
                    <step>E</step>
                    <alter>-1</alter>
                    <octave>4</octave>
                </pitch>
                <duration>12</duration>
                <voice>1</voice>
                <type>eighth</type>
                <stem default-y="-5">up</stem>
                <beam number="1">begin</beam>
            </note>
            <note default-x="43">
                <pitch>
                    <step>C</step>
                    <alter>-1</alter>
                    <octave>4</octave>
                </pitch>
                <duration>12</duration>
                <voice>1</voice>
                <type>eighth</type>
                <accidental>flat</accidental>
                <stem default-y="-7">up</stem>
                <beam number="1">end</beam>
            </note>
            <note default-x="66">
                <pitch>
                    <step>E</step>
                    <alter>-1</alter>
                    <octave>4</octave>
                </pitch>
                <duration>12</duration>
                <voice>1</voice>
                <type>eighth</type>
                <stem default-y="-5">up</stem>
                <beam number="1">begin</beam>
            </note>
            <note default-x="89">
                <pitch>
                    <step>C</step>
                    <alter>-1</alter>
                    <octave>4</octave>
                </pitch>
                <duration>12</duration>
                <voice>1</voice>
                <type>eighth</type>
                <stem default-y="-7">up</stem>
                <beam number="1">end</beam>
            </note>
            <note default-x="112">
                <pitch>
                    <step>E</step>
                    <alter>-1</alter>
                    <octave>4</octave>
                </pitch>
                <duration>12</duration>
                <voice>1</voice>
                <type>eighth</type>
                <stem default-y="-5">up</stem>
                <beam number="1">begin</beam>
            </note>
            <note default-x="135">
                <pitch>
                    <step>C</step>
                    <alter>-1</alter>
                    <octave>4</octave>
                </pitch>
                <duration>12</duration>
                <voice>1</voice>
                <type>eighth</type>
                <stem default-y="-7">up</stem>
                <beam number="1">end</beam>
            </note>
        </measure>
        <measure width="128" number="23">
            <harmony default-y="34">
                <root>
                    <root-step>D</root-step>
                    <root-alter>-1</root-alter>
                </root>
                <kind halign="center" text="9">dominant-ninth</kind>
            </harmony>
            <note default-x="14">
                <pitch>
                    <step>G</step>
                    <octave>4</octave>
                </pitch>
                <duration>12</duration>
                <voice>1</voice>
                <type>eighth</type>
                <stem default-y="5.5">up</stem>
            </note>
            <note default-x="41">
                <pitch>
                    <step>G</step>
                    <octave>4</octave>
                </pitch>
                <duration>36</duration>
                <tie type="start"/>
                <voice>1</voice>
                <type>quarter</type>
                <dot/>
                <stem default-y="5.5">up</stem>
                <notations>
                    <tied type="start"/>
                </notations>
            </note>
            <note default-x="90">
                <pitch>
                    <step>G</step>
                    <octave>4</octave>
                </pitch>
                <duration>24</duration>
                <tie type="stop"/>
                <tie type="start"/>
                <voice>1</voice>
                <type>quarter</type>
                <stem default-y="5.5">up</stem>
                <notations>
                    <tied type="stop"/>
                    <tied type="start"/>
                </notations>
            </note>
        </measure>
        <measure width="92" number="24">
            <note default-x="14">
                <pitch>
                    <step>G</step>
                    <octave>4</octave>
                </pitch>
                <duration>72</duration>
                <tie type="stop"/>
                <voice>1</voice>
                <type>half</type>
                <dot/>
                <stem default-y="5.5">up</stem>
                <notations>
                    <tied type="stop"/>
                </notations>
            </note>
        </measure>
        <measure width="156" number="25">
            <harmony default-y="34">
                <root>
                    <root-step>F</root-step>
                </root>
                <kind halign="center" text="7">dominant</kind>
            </harmony>
            <note default-x="13">
                <rest/>
                <duration>12</duration>
                <voice>1</voice>
                <type>eighth</type>
            </note>
            <note default-x="36">
                <pitch>
                    <step>C</step>
                    <octave>4</octave>
                </pitch>
                <duration>12</duration>
                <voice>1</voice>
                <type>eighth</type>
                <stem default-y="-14.5">up</stem>
            </note>
            <note default-x="64">
                <pitch>
                    <step>E</step>
                    <alter>-1</alter>
                    <octave>4</octave>
                </pitch>
                <duration>12</duration>
                <voice>1</voice>
                <type>eighth</type>
                <stem default-y="-5">up</stem>
                <beam number="1">begin</beam>
            </note>
            <note default-x="87">
                <pitch>
                    <step>C</step>
                    <octave>4</octave>
                </pitch>
                <duration>12</duration>
                <voice>1</voice>
                <type>eighth</type>
                <stem default-y="-7">up</stem>
                <beam number="1">end</beam>
            </note>
            <note default-x="109">
                <pitch>
                    <step>E</step>
                    <alter>-1</alter>
                    <octave>4</octave>
                </pitch>
                <duration>12</duration>
                <voice>1</voice>
                <type>eighth</type>
                <stem default-y="-5">up</stem>
                <beam number="1">begin</beam>
            </note>
            <note default-x="132">
                <pitch>
                    <step>C</step>
                    <octave>4</octave>
                </pitch>
                <duration>12</duration>
                <voice>1</voice>
                <type>eighth</type>
                <stem default-y="-7">up</stem>
                <beam number="1">end</beam>
            </note>
        </measure>
        <measure width="150" number="26">
            <note default-x="13">
                <pitch>
                    <step>E</step>
                    <alter>-1</alter>
                    <octave>4</octave>
                </pitch>
                <duration>12</duration>
                <voice>1</voice>
                <type>eighth</type>
                <stem default-y="-5">up</stem>
                <beam number="1">begin</beam>
            </note>
            <note default-x="36">
                <pitch>
                    <step>C</step>
                    <octave>4</octave>
                </pitch>
                <duration>12</duration>
                <voice>1</voice>
                <type>eighth</type>
                <stem default-y="-7">up</stem>
                <beam number="1">end</beam>
            </note>
            <note default-x="59">
                <pitch>
                    <step>E</step>
                    <alter>-1</alter>
                    <octave>4</octave>
                </pitch>
                <duration>12</duration>
                <voice>1</voice>
                <type>eighth</type>
                <stem default-y="-5">up</stem>
                <beam number="1">begin</beam>
            </note>
            <note default-x="81">
                <pitch>
                    <step>C</step>
                    <octave>4</octave>
                </pitch>
                <duration>12</duration>
                <voice>1</voice>
                <type>eighth</type>
                <stem default-y="-7">up</stem>
                <beam number="1">end</beam>
            </note>
            <note default-x="104">
                <pitch>
                    <step>E</step>
                    <alter>-1</alter>
                    <octave>4</octave>
                </pitch>
                <duration>12</duration>
                <voice>1</voice>
                <type>eighth</type>
                <stem default-y="-5">up</stem>
                <beam number="1">begin</beam>
            </note>
            <note default-x="127">
                <pitch>
                    <step>C</step>
                    <octave>4</octave>
                </pitch>
                <duration>12</duration>
                <voice>1</voice>
                <type>eighth</type>
                <stem default-y="-7">up</stem>
                <beam number="1">end</beam>
            </note>
        </measure>
        <measure width="124" number="27">
            <barline location="left">
                <ending font-size="8.5" default-y="40" type="start" number="1" end-length="30"></ending>
            </barline>
            <harmony default-y="34">
                <root>
                    <root-step>B</root-step>
                    <root-alter>-1</root-alter>
                </root>
                <kind halign="center" text="7">dominant</kind>
            </harmony>
            <note default-x="13">
                <pitch>
                    <step>D</step>
                    <octave>4</octave>
                </pitch>
                <duration>24</duration>
                <voice>1</voice>
                <type>quarter</type>
                <stem default-y="-10">up</stem>
            </note>
            <note default-x="50">
                <pitch>
                    <step>E</step>
                    <alter>-1</alter>
                    <octave>4</octave>
                </pitch>
                <duration>24</duration>
                <voice>1</voice>
                <type>quarter</type>
                <stem default-y="-5">up</stem>
            </note>
            <note default-x="86">
                <pitch>
                    <step>E</step>
                    <octave>4</octave>
                </pitch>
                <duration>24</duration>
                <voice>1</voice>
                <type>quarter</type>
                <accidental>natural</accidental>
                <stem default-y="-5">up</stem>
            </note>
        </measure>
        <measure width="245" number="28">
            <print new-system="yes">
                <system-layout>
                    <system-distance>114</system-distance>
                </system-layout>
            </print>
            <note default-x="97">
                <pitch>
                    <step>F</step>
                    <octave>4</octave>
                </pitch>
                <duration>36</duration>
                <voice>1</voice>
                <type>quarter</type>
                <dot/>
                <stem default-y="1">up</stem>
            </note>
            <note default-x="154">
                <pitch>
                    <step>D</step>
                    <octave>4</octave>
                </pitch>
                <duration>12</duration>
                <voice>1</voice>
                <type>eighth</type>
                <stem default-y="-9.5">up</stem>
            </note>
            <note default-x="185">
                <pitch>
                    <step>C</step>
                    <octave>4</octave>
                </pitch>
                <duration>12</duration>
                <voice>1</voice>
                <type>eighth</type>
                <stem default-y="-15">up</stem>
                <beam number="1">begin</beam>
            </note>
            <note default-x="217">
                <pitch>
                    <step>C</step>
                    <alter>-1</alter>
                    <octave>4</octave>
                </pitch>
                <duration>12</duration>
                <voice>1</voice>
                <type>eighth</type>
                <accidental>flat</accidental>
                <stem default-y="-15">up</stem>
                <beam number="1">end</beam>
            </note>
        </measure>
        <measure width="103" number="29">
            <harmony default-y="34">
                <root>
                    <root-step>G</root-step>
                </root>
                <kind halign="center" text="m7">minor-seventh</kind>
            </harmony>
            <note default-x="16">
                <pitch>
                    <step>B</step>
                    <alter>-1</alter>
                    <octave>3</octave>
                </pitch>
                <duration>72</duration>
                <tie type="start"/>
                <voice>1</voice>
                <type>half</type>
                <dot/>
                <stem default-y="-19">up</stem>
                <notations>
                    <tied type="start"/>
                </notations>
            </note>
        </measure>
        <measure width="103" number="30">
            <harmony default-y="34">
                <root>
                    <root-step>C</root-step>
                </root>
                <kind halign="center" text="7">dominant</kind>
            </harmony>
            <note default-x="16">
                <pitch>
                    <step>B</step>
                    <alter>-1</alter>
                    <octave>3</octave>
                </pitch>
                <duration>72</duration>
                <tie type="stop"/>
                <tie type="start"/>
                <voice>1</voice>
                <type>half</type>
                <dot/>
                <stem default-y="-19">up</stem>
                <notations>
                    <tied type="stop"/>
                    <tied type="start"/>
                </notations>
            </note>
        </measure>
        <measure width="103" number="31">
            <harmony default-y="34">
                <root>
                    <root-step>F</root-step>
                </root>
                <kind halign="center" text="m7">minor-seventh</kind>
            </harmony>
            <note default-x="16">
                <pitch>
                    <step>B</step>
                    <alter>-1</alter>
                    <octave>3</octave>
                </pitch>
                <duration>72</duration>
                <tie type="stop"/>
                <tie type="start"/>
                <voice>1</voice>
                <type>half</type>
                <dot/>
                <stem default-y="-19">up</stem>
                <notations>
                    <tied type="stop"/>
                    <tied type="start"/>
                </notations>
            </note>
        </measure>
        <measure width="121" number="32">
            <harmony default-y="34">
                <root>
                    <root-step>B</root-step>
                    <root-alter>-1</root-alter>
                </root>
                <kind halign="center" text="7">dominant</kind>
            </harmony>
            <note default-x="17">
                <pitch>
                    <step>B</step>
                    <alter>-1</alter>
                    <octave>3</octave>
                </pitch>
                <duration>72</duration>
                <tie type="stop"/>
                <voice>1</voice>
                <type>half</type>
                <dot/>
                <stem default-y="-19">up</stem>
                <notations>
                    <tied type="stop"/>
                </notations>
            </note>
            <barline location="right">
                <bar-style>light-heavy</bar-style>
                <ending type="stop" number="1"></ending>
                <repeat direction="backward"/>
            </barline>
        </measure>
        <measure width="136" number="33">
            <barline location="left">
                <ending font-size="8.5" default-y="40" type="start" number="2" end-length="30"></ending>
            </barline>
            <harmony default-y="34">
                <root>
                    <root-step>F</root-step>
                </root>
                <kind halign="center" text="m7">minor-seventh</kind>
            </harmony>
            <note default-x="12">
                <pitch>
                    <step>G</step>
                    <octave>4</octave>
                </pitch>
                <duration>12</duration>
                <voice>1</voice>
                <type>eighth</type>
                <stem default-y="5.5">up</stem>
            </note>
            <note default-x="40">
                <pitch>
                    <step>G</step>
                    <octave>4</octave>
                </pitch>
                <duration>36</duration>
                <tie type="start"/>
                <voice>1</voice>
                <type>quarter</type>
                <dot/>
                <stem default-y="5.5">up</stem>
                <notations>
                    <tied type="start"/>
                </notations>
            </note>
            <note default-x="94">
                <pitch>
                    <step>G</step>
                    <octave>4</octave>
                </pitch>
                <duration>24</duration>
                <tie type="stop"/>
                <tie type="start"/>
                <voice>1</voice>
                <type>quarter</type>
                <stem default-y="5.5">up</stem>
                <notations>
                    <tied type="stop"/>
                    <tied type="start"/>
                </notations>
            </note>
            <barline location="right">
                <ending type="discontinue" number="2"></ending>
            </barline>
        </measure>
        <measure width="117" number="34">
            <harmony default-y="34">
                <root>
                    <root-step>B</root-step>
                    <root-alter>-1</root-alter>
                </root>
                <kind halign="center" text="7">dominant</kind>
            </harmony>
            <note default-x="14">
                <pitch>
                    <step>G</step>
                    <octave>4</octave>
                </pitch>
                <duration>48</duration>
                <tie type="stop"/>
                <voice>1</voice>
                <type>half</type>
                <stem default-y="5.5">up</stem>
                <notations>
                    <tied type="stop"/>
                </notations>
            </note>
            <note default-x="77">
                <pitch>
                    <step>B</step>
                    <alter>-1</alter>
                    <octave>3</octave>
                </pitch>
                <duration>24</duration>
                <voice>1</voice>
                <type>quarter</type>
                <stem default-y="-19">up</stem>
            </note>
        </measure>
        <measure width="127" number="35">
            <harmony default-y="34">
                <root>
                    <root-step>E</root-step>
                    <root-alter>-1</root-alter>
                </root>
                <kind halign="center" text="6">major-sixth</kind>
            </harmony>
            <note default-x="13">
                <pitch>
                    <step>E</step>
                    <alter>-1</alter>
                    <octave>4</octave>
                </pitch>
                <duration>48</duration>
                <voice>1</voice>
                <type>half</type>
                <stem default-y="-5">up</stem>
            </note>
            <note default-x="77">
                <pitch>
                    <step>G</step>
                    <octave>4</octave>
                </pitch>
                <duration>12</duration>
                <voice>1</voice>
                <type>eighth</type>
                <stem default-y="10">up</stem>
                <beam number="1">begin</beam>
            </note>
            <note default-x="101">
                <pitch>
                    <step>B</step>
                    <alter>-1</alter>
                    <octave>4</octave>
                </pitch>
                <duration>12</duration>
                <voice>1</voice>
                <type>eighth</type>
                <stem default-y="15">up</stem>
                <beam number="1">end</beam>
            </note>
        </measure>
        <measure width="441" number="36">
            <print new-system="yes">
                <system-layout>
                    <system-distance>114</system-distance>
                </system-layout>
            </print>
            <harmony default-y="34">
                <root>
                    <root-step>A</root-step>
                    <root-alter>-1</root-alter>
                </root>
                <kind halign="center" text="6">major-sixth</kind>
            </harmony>
            <note default-x="97">
                <pitch>
                    <step>A</step>
                    <alter>-1</alter>
                    <octave>4</octave>
                </pitch>
                <duration>48</duration>
                <voice>1</voice>
                <type>half</type>
                <stem default-y="10.5">up</stem>
            </note>
            <note default-x="292">
                <pitch>
                    <step>C</step>
                    <octave>5</octave>
                </pitch>
                <duration>12</duration>
                <voice>1</voice>
                <type>eighth</type>
                <stem default-y="-50">down</stem>
                <beam number="1">begin</beam>
            </note>
            <note default-x="366">
                <pitch>
                    <step>E</step>
                    <alter>-1</alter>
                    <octave>5</octave>
                </pitch>
                <duration>12</duration>
                <voice>1</voice>
                <type>eighth</type>
                <stem default-y="-45">down</stem>
                <beam number="1">end</beam>
            </note>
        </measure>
        <measure width="280" number="37">
            <harmony default-y="34">
                <root>
                    <root-step>E</root-step>
                    <root-alter>-1</root-alter>
                </root>
                <kind halign="center" text="6">major-sixth</kind>
            </harmony>
            <note default-x="14">
                <pitch>
                    <step>E</step>
                    <alter>-1</alter>
                    <octave>5</octave>
                </pitch>
                <duration>72</duration>
                <voice>1</voice>
                <type>half</type>
                <dot/>
                <stem default-y="-40">down</stem>
            </note>
        </measure>
        <measure width="332" number="38">
            <harmony default-y="34">
                <root>
                    <root-step>B</root-step>
                    <root-alter>-1</root-alter>
                </root>
                <kind halign="center" text="7">dominant</kind>
                <offset>24</offset>
            </harmony>
            <note>
                <rest/>
                <duration>72</duration>
                <voice>1</voice>
            </note>
            <barline location="right">
                <bar-style>light-heavy</bar-style>
            </barline>
        </measure>
    </part>
</score-partwise>
