<?xml version="1.0" encoding="UTF-8"?>
<!DOCTYPE score-partwise PUBLIC "-//Recordare//DTD MusicXML 2.0 Partwise//EN" "http://www.musicxml.org/dtds/partwise.dtd">
<score-partwise version="2.0">
    <work>
        <work-number></work-number>
        <work-title></work-title>
    </work>
    <movement-number></movement-number>
    <movement-title>Ob-La-Di Ob-La-Da</movement-title>
    <identification>
        <creator type="composer">John Lennon, Paul McCartney</creator>
        <creator type="poet"></creator>
        <rights>All Rights Reserved</rights>
        <encoding>
            <software>Finale 2011 for Macintosh</software>
            <software>Dolet 5.5 for Finale</software>
            <encoding-date>2011-09-14</encoding-date>
            <supports value="yes" type="yes" element="print" attribute="new-system"/>
            <supports value="yes" type="yes" element="print" attribute="new-page"/>
            <software>ProxyMusic 2.0 c</software>
        </encoding>
        <source>http://wikifonia.org/node/12554/revisions/16940/view</source>
    </identification>
    <defaults>
        <scaling>
            <millimeters>7.0273</millimeters>
            <tenths>40</tenths>
        </scaling>
        <page-layout>
            <page-height>1691</page-height>
            <page-width>1195</page-width>
            <page-margins type="both">
                <left-margin>72</left-margin>
                <right-margin>72</right-margin>
                <top-margin>72</top-margin>
                <bottom-margin>72</bottom-margin>
            </page-margins>
        </page-layout>
        <system-layout>
            <system-margins>
                <left-margin>0</left-margin>
                <right-margin>0</right-margin>
            </system-margins>
            <system-distance>111</system-distance>
            <top-system-distance>68</top-system-distance>
        </system-layout>
        <appearance>
            <line-width type="stem">0.7487</line-width>
            <line-width type="beam">5</line-width>
            <line-width type="staff">0.7487</line-width>
            <line-width type="light barline">0.7487</line-width>
            <line-width type="heavy barline">5</line-width>
            <line-width type="leger">0.7487</line-width>
            <line-width type="ending">1.4583</line-width>
            <line-width type="wedge">1.4583</line-width>
            <line-width type="enclosure">0.7487</line-width>
            <line-width type="tuplet bracket">0.7487</line-width>
            <note-size type="grace">60</note-size>
            <note-size type="cue">60</note-size>
        </appearance>
        <music-font font-size="19.9" font-family="Maestro,music"/>
        <word-font font-size="10" font-family="Times New Roman"/>
        <lyric-font font-size="10" font-family="Times New Roman"/>
    </defaults>
    <credit page="1">
        <credit-words font-size="24" default-y="1618" default-x="598" justify="center" valign="top">Obla-di, Obla-da</credit-words>
    </credit>
    <credit page="1">
        <credit-words font-size="12" default-y="1548" default-x="1123" justify="right" valign="top">John Lennon and Paul McCartney</credit-words>
    </credit>
    <part-list>
        <score-part id="P1">
            <part-name print-object="no">MusicXML Part</part-name>
            <score-instrument id="P1-I2">
                <instrument-name>Electric Piano</instrument-name>
            </score-instrument>
            <midi-instrument id="P1-I2">
                <midi-channel>1</midi-channel>
                <midi-program>5</midi-program>
            </midi-instrument>
        </score-part>
    </part-list>
    <part id="P1">
        <measure width="298" number="1">
            <print>
                <system-layout>
                    <system-margins>
                        <left-margin>60</left-margin>
                        <right-margin>0</right-margin>
                    </system-margins>
                    <top-system-distance>180</top-system-distance>
                </system-layout>
                <measure-numbering>system</measure-numbering>
            </print>
            <attributes>
                <divisions>2</divisions>
                <key>
                    <fifths>1</fifths>
                    <mode>major</mode>
                </key>
                <time>
                    <beats>4</beats>
                    <beat-type>4</beat-type>
                </time>
                <clef>
                    <sign>G</sign>
                    <line>2</line>
                </clef>
            </attributes>
            <sound tempo="120"/>
            <harmony default-y="40">
                <root>
                    <root-step>G</root-step>
                </root>
                <kind halign="center" text="">major</kind>
            </harmony>
            <note default-x="110">
                <pitch>
                    <step>B</step>
                    <octave>4</octave>
                </pitch>
                <duration>2</duration>
                <voice>1</voice>
                <type>quarter</type>
                <stem default-y="-55">down</stem>
                <lyric default-y="-80" number="1">
                    <syllabic>begin</syllabic>
                    <text>Des</text>
                </lyric>
                <lyric default-y="-101" number="2">
                    <syllabic>begin</syllabic>
                    <text>Des</text>
                </lyric>
                <lyric default-y="-120" number="3">
                    <syllabic>begin</syllabic>
                    <text>Hap</text>
                </lyric>
            </note>
            <note default-x="160">
                <pitch>
                    <step>B</step>
                    <octave>4</octave>
                </pitch>
                <duration>2</duration>
                <voice>1</voice>
                <type>quarter</type>
                <stem default-y="-55">down</stem>
                <lyric default-y="-80" number="1">
                    <syllabic>end</syllabic>
                    <text>mond</text>
                </lyric>
                <lyric default-y="-101" number="2">
                    <syllabic>end</syllabic>
                    <text>mond</text>
                </lyric>
                <lyric default-y="-120" number="3">
                    <syllabic>end</syllabic>
                    <text>py</text>
                </lyric>
            </note>
            <note default-x="214">
                <pitch>
                    <step>B</step>
                    <octave>4</octave>
                </pitch>
                <duration>2</duration>
                <voice>1</voice>
                <type>quarter</type>
                <stem default-y="-55">down</stem>
                <lyric default-y="-80" number="1">
                    <syllabic>single</syllabic>
                    <text>had</text>
                </lyric>
                <lyric default-y="-101" number="2">
                    <syllabic>single</syllabic>
                    <text>takes</text>
                </lyric>
                <lyric default-y="-120" number="3">
                    <syllabic>begin</syllabic>
                    <text>ev</text>
                </lyric>
            </note>
            <note default-x="256">
                <pitch>
                    <step>B</step>
                    <octave>4</octave>
                </pitch>
                <duration>2</duration>
                <voice>1</voice>
                <type>quarter</type>
                <stem default-y="-55">down</stem>
                <lyric default-y="-80" number="1">
                    <syllabic>single</syllabic>
                    <text>a</text>
                </lyric>
                <lyric default-y="-101" number="2">
                    <syllabic>single</syllabic>
                    <text>a</text>
                </lyric>
                <lyric default-y="-120" number="3">
                    <syllabic>end</syllabic>
                    <text>er</text>
                </lyric>
            </note>
        </measure>
        <measure width="175" number="2">
            <print new-system="no"/>
            <note default-x="14">
                <pitch>
                    <step>B</step>
                    <octave>4</octave>
                </pitch>
                <duration>2</duration>
                <voice>1</voice>
                <type>quarter</type>
                <stem default-y="-55">down</stem>
                <lyric default-y="-80" number="1">
                    <syllabic>begin</syllabic>
                    <text>bar</text>
                </lyric>
                <lyric default-y="-101" number="2">
                    <syllabic>begin</syllabic>
                    <text>troll</text>
                </lyric>
                <lyric default-y="-120" number="3">
                    <syllabic>begin</syllabic>
                    <text>af</text>
                </lyric>
            </note>
            <note default-x="56">
                <pitch>
                    <step>B</step>
                    <octave>4</octave>
                </pitch>
                <duration>2</duration>
                <voice>1</voice>
                <type>quarter</type>
                <stem default-y="-55">down</stem>
                <lyric default-y="-80" number="1">
                    <syllabic>end</syllabic>
                    <text>row</text>
                </lyric>
                <lyric default-y="-101" number="2">
                    <syllabic>end</syllabic>
                    <text>ey</text>
                </lyric>
                <lyric default-y="-120" number="3">
                    <syllabic>end</syllabic>
                    <text>ter</text>
                </lyric>
            </note>
            <note default-x="95">
                <pitch>
                    <step>A</step>
                    <octave>4</octave>
                </pitch>
                <duration>2</duration>
                <voice>1</voice>
                <type>quarter</type>
                <stem default-y="10.5">up</stem>
                <lyric default-y="-80" number="1">
                    <syllabic>single</syllabic>
                    <text>in</text>
                </lyric>
                <lyric default-y="-101" number="2">
                    <syllabic>single</syllabic>
                    <text>to</text>
                </lyric>
                <lyric default-y="-120" number="3">
                    <syllabic>single</syllabic>
                    <text>in</text>
                </lyric>
            </note>
            <note default-x="135">
                <pitch>
                    <step>G</step>
                    <octave>4</octave>
                </pitch>
                <duration>2</duration>
                <voice>1</voice>
                <type>quarter</type>
                <stem default-y="5.5">up</stem>
                <lyric default-y="-80" number="1">
                    <syllabic>single</syllabic>
                    <text>the</text>
                </lyric>
                <lyric default-y="-101" number="2">
                    <syllabic>single</syllabic>
                    <text>the</text>
                </lyric>
                <lyric default-y="-120" number="3">
                    <syllabic>single</syllabic>
                    <text>the</text>
                </lyric>
            </note>
        </measure>
        <measure width="173" number="3">
            <print new-system="no"/>
            <harmony default-y="40">
                <root>
                    <root-step>D</root-step>
                </root>
                <kind halign="center" text="7">dominant</kind>
            </harmony>
            <note default-x="13">
                <pitch>
                    <step>F</step>
                    <alter>1</alter>
                    <octave>4</octave>
                </pitch>
                <duration>2</duration>
                <voice>1</voice>
                <type>quarter</type>
                <stem default-y="0.5">up</stem>
                <lyric default-y="-80" number="1">
                    <syllabic>begin</syllabic>
                    <text>mar</text>
                </lyric>
                <lyric relative-x="3" default-y="-101" number="2">
                    <syllabic>begin</syllabic>
                    <text>jewel</text>
                </lyric>
                <lyric default-y="-120" number="3">
                    <syllabic>begin</syllabic>
                    <text>mar</text>
                </lyric>
            </note>
            <note default-x="60">
                <pitch>
                    <step>A</step>
                    <octave>4</octave>
                </pitch>
                <duration>4</duration>
                <voice>1</voice>
                <type>half</type>
                <stem default-y="10.5">up</stem>
                <lyric default-y="-80" number="1">
                    <syllabic>end</syllabic>
                    <text>ket</text>
                </lyric>
                <lyric default-y="-101" number="2">
                    <syllabic>end</syllabic>
                    <text>ry</text>
                </lyric>
                <lyric default-y="-120" number="3">
                    <syllabic>end</syllabic>
                    <text>ket</text>
                </lyric>
            </note>
            <note default-x="128">
                <pitch>
                    <step>A</step>
                    <octave>4</octave>
                </pitch>
                <duration>2</duration>
                <tie type="start"/>
                <voice>1</voice>
                <type>quarter</type>
                <stem default-y="10.5">up</stem>
                <notations>
                    <tied type="start"/>
                </notations>
                <lyric default-y="-80" number="1">
                    <syllabic>single</syllabic>
                    <text>place</text>
                </lyric>
                <lyric default-y="-101" number="2">
                    <syllabic>single</syllabic>
                    <text>store,</text>
                    <extend/>
                </lyric>
                <lyric default-y="-120" number="3">
                    <syllabic>single</syllabic>
                    <text>place,</text>
                    <extend/>
                </lyric>
            </note>
        </measure>
        <measure width="134" number="4">
            <print new-system="no"/>
            <note default-x="14">
                <pitch>
                    <step>A</step>
                    <octave>4</octave>
                </pitch>
                <duration>6</duration>
                <tie type="stop"/>
                <voice>1</voice>
                <type>half</type>
                <dot/>
                <stem default-y="10.5">up</stem>
                <notations>
                    <tied type="stop"/>
                </notations>
            </note>
            <note default-x="95">
                <rest/>
                <duration>2</duration>
                <voice>1</voice>
                <type>quarter</type>
            </note>
        </measure>
        <measure width="210" number="5">
            <print new-system="no"/>
            <note default-x="14">
                <pitch>
                    <step>C</step>
                    <octave>5</octave>
                </pitch>
                <duration>2</duration>
                <voice>1</voice>
                <type>quarter</type>
                <stem default-y="-50">down</stem>
                <lyric default-y="-80" number="1">
                    <syllabic>begin</syllabic>
                    <text>Mol</text>
                </lyric>
                <lyric default-y="-101" number="2">
                    <syllabic>single</syllabic>
                    <text>Buys</text>
                </lyric>
                <lyric default-y="-120" number="3">
                    <syllabic>begin</syllabic>
                    <text>Des</text>
                </lyric>
            </note>
            <note default-x="66">
                <pitch>
                    <step>C</step>
                    <octave>5</octave>
                </pitch>
                <duration>2</duration>
                <voice>1</voice>
                <type>quarter</type>
                <stem default-y="-50">down</stem>
                <lyric default-y="-80" number="1">
                    <syllabic>end</syllabic>
                    <text>ly</text>
                </lyric>
                <lyric default-y="-101" number="2">
                    <syllabic>single</syllabic>
                    <text>a</text>
                </lyric>
                <lyric default-y="-120" number="3">
                    <syllabic>end</syllabic>
                    <text>mond</text>
                </lyric>
            </note>
            <note default-x="117">
                <pitch>
                    <step>C</step>
                    <octave>5</octave>
                </pitch>
                <duration>2</duration>
                <voice>1</voice>
                <type>quarter</type>
                <stem default-y="-50">down</stem>
                <lyric default-y="-80" number="1">
                    <syllabic>single</syllabic>
                    <text>is</text>
                </lyric>
                <lyric default-y="-101" number="2">
                    <syllabic>begin</syllabic>
                    <text>twen</text>
                </lyric>
                <lyric default-y="-120" number="3">
                    <syllabic>single</syllabic>
                    <text>lets</text>
                </lyric>
            </note>
            <note default-x="165">
                <pitch>
                    <step>C</step>
                    <octave>5</octave>
                </pitch>
                <duration>2</duration>
                <voice>1</voice>
                <type>quarter</type>
                <stem default-y="-50">down</stem>
                <lyric default-y="-80" number="1">
                    <syllabic>single</syllabic>
                    <text>the</text>
                </lyric>
                <lyric default-y="-101" number="2">
                    <syllabic>end</syllabic>
                    <text>ty</text>
                </lyric>
                <lyric default-y="-120" number="3">
                    <syllabic>single</syllabic>
                    <text>the</text>
                </lyric>
            </note>
        </measure>
        <measure width="279" number="6">
            <print new-system="yes">
                <system-layout>
                    <system-distance>171</system-distance>
                </system-layout>
            </print>
            <note default-x="78">
                <pitch>
                    <step>C</step>
                    <octave>5</octave>
                </pitch>
                <duration>2</duration>
                <voice>1</voice>
                <type>quarter</type>
                <stem default-y="-50">down</stem>
                <lyric default-y="-80" number="1">
                    <syllabic>begin</syllabic>
                    <text>sing</text>
                </lyric>
                <lyric default-y="-101" number="2">
                    <syllabic>begin</syllabic>
                    <text>car</text>
                </lyric>
                <lyric default-y="-120" number="3">
                    <syllabic>begin</syllabic>
                    <text>child</text>
                </lyric>
            </note>
            <note default-x="128">
                <pitch>
                    <step>C</step>
                    <octave>5</octave>
                </pitch>
                <duration>2</duration>
                <voice>1</voice>
                <type>quarter</type>
                <stem default-y="-50">down</stem>
                <lyric default-y="-80" number="1">
                    <syllabic>end</syllabic>
                    <text>er</text>
                </lyric>
                <lyric default-y="-101" number="2">
                    <syllabic>end</syllabic>
                    <text>at</text>
                </lyric>
                <lyric default-y="-120" number="3">
                    <syllabic>end</syllabic>
                    <text>ren</text>
                </lyric>
            </note>
            <note default-x="178">
                <pitch>
                    <step>B</step>
                    <octave>4</octave>
                </pitch>
                <duration>2</duration>
                <voice>1</voice>
                <type>quarter</type>
                <stem default-y="-55">down</stem>
                <lyric default-y="-80" number="1">
                    <syllabic>single</syllabic>
                    <text>in</text>
                </lyric>
                <lyric default-y="-101" number="2">
                    <syllabic>begin</syllabic>
                    <text>gold</text>
                </lyric>
                <lyric default-y="-120" number="3">
                    <syllabic>single</syllabic>
                    <text>lend</text>
                </lyric>
            </note>
            <note default-x="228">
                <pitch>
                    <step>A</step>
                    <octave>4</octave>
                </pitch>
                <duration>2</duration>
                <voice>1</voice>
                <type>quarter</type>
                <stem default-y="10.5">up</stem>
                <lyric default-y="-80" number="1">
                    <syllabic>single</syllabic>
                    <text>a</text>
                </lyric>
                <lyric default-y="-101" number="2">
                    <syllabic>end</syllabic>
                    <text>en</text>
                </lyric>
                <lyric default-y="-120" number="3">
                    <syllabic>single</syllabic>
                    <text>a</text>
                </lyric>
            </note>
        </measure>
        <measure width="134" number="7">
            <print new-system="no"/>
            <harmony default-y="40">
                <root>
                    <root-step>G</root-step>
                </root>
                <kind halign="center" text="">major</kind>
            </harmony>
            <note default-x="13">
                <pitch>
                    <step>G</step>
                    <octave>4</octave>
                </pitch>
                <duration>8</duration>
                <tie type="start"/>
                <voice>1</voice>
                <type>whole</type>
                <notations>
                    <tied type="start"/>
                </notations>
                <lyric default-y="-80" number="1">
                    <syllabic>single</syllabic>
                    <text>band</text>
                </lyric>
                <lyric default-y="-101" number="2">
                    <syllabic>single</syllabic>
                    <text>ring.</text>
                    <extend/>
                </lyric>
                <lyric default-y="-120" number="3">
                    <syllabic>single</syllabic>
                    <text>hand.</text>
                    <extend/>
                </lyric>
            </note>
        </measure>
        <measure width="158" number="8">
            <print new-system="no"/>
            <note default-x="14">
                <pitch>
                    <step>G</step>
                    <octave>4</octave>
                </pitch>
                <duration>6</duration>
                <tie type="stop"/>
                <voice>1</voice>
                <type>half</type>
                <dot/>
                <stem default-y="5.5">up</stem>
                <notations>
                    <tied type="stop"/>
                </notations>
            </note>
            <note default-x="112">
                <rest/>
                <duration>2</duration>
                <voice>1</voice>
                <type>quarter</type>
            </note>
        </measure>
        <measure width="250" number="9">
            <print new-system="no"/>
            <harmony default-y="40">
                <root>
                    <root-step>G</root-step>
                </root>
                <kind halign="center" text="7">dominant</kind>
            </harmony>
            <note default-x="14">
                <pitch>
                    <step>D</step>
                    <octave>5</octave>
                </pitch>
                <duration>2</duration>
                <voice>1</voice>
                <type>quarter</type>
                <stem default-y="-45">down</stem>
                <lyric default-y="-80" number="1">
                    <syllabic>begin</syllabic>
                    <text>Des</text>
                </lyric>
                <lyric relative-x="3" default-y="-101" number="2">
                    <syllabic>single</syllabic>
                    <text>Takes</text>
                </lyric>
                <lyric default-y="-120" number="3">
                    <syllabic>begin</syllabic>
                    <text>Mol</text>
                </lyric>
            </note>
            <note default-x="73">
                <pitch>
                    <step>D</step>
                    <octave>5</octave>
                </pitch>
                <duration>2</duration>
                <voice>1</voice>
                <type>quarter</type>
                <stem default-y="-45">down</stem>
                <lyric default-y="-80" number="1">
                    <syllabic>end</syllabic>
                    <text>mond</text>
                </lyric>
                <lyric default-y="-101" number="2">
                    <syllabic>single</syllabic>
                    <text>it</text>
                </lyric>
                <lyric default-y="-120" number="3">
                    <syllabic>end</syllabic>
                    <text>ly</text>
                </lyric>
            </note>
            <note default-x="132">
                <pitch>
                    <step>D</step>
                    <octave>5</octave>
                </pitch>
                <duration>2</duration>
                <voice>1</voice>
                <type>quarter</type>
                <stem default-y="-45">down</stem>
                <lyric default-y="-80" number="1">
                    <syllabic>single</syllabic>
                    <text>says</text>
                </lyric>
                <lyric default-y="-101" number="2">
                    <syllabic>single</syllabic>
                    <text>back</text>
                </lyric>
                <lyric default-y="-120" number="3">
                    <syllabic>single</syllabic>
                    <text>stays</text>
                </lyric>
            </note>
            <note default-x="191">
                <pitch>
                    <step>D</step>
                    <octave>5</octave>
                </pitch>
                <duration>2</duration>
                <voice>1</voice>
                <type>quarter</type>
                <stem default-y="-45">down</stem>
                <lyric default-y="-80" number="1">
                    <syllabic>single</syllabic>
                    <text>to</text>
                </lyric>
                <lyric default-y="-101" number="2">
                    <syllabic>single</syllabic>
                    <text>to</text>
                </lyric>
                <lyric default-y="-120" number="3">
                    <syllabic>single</syllabic>
                    <text>at</text>
                </lyric>
            </note>
        </measure>
        <measure width="230" number="10">
            <print new-system="no"/>
            <note default-x="14">
                <pitch>
                    <step>D</step>
                    <octave>5</octave>
                </pitch>
                <duration>2</duration>
                <voice>1</voice>
                <type>quarter</type>
                <stem default-y="-45">down</stem>
                <lyric default-y="-80" number="1">
                    <syllabic>begin</syllabic>
                    <text>Mol</text>
                </lyric>
                <lyric default-y="-101" number="2">
                    <syllabic>begin</syllabic>
                    <text>Mol</text>
                </lyric>
                <lyric default-y="-120" number="3">
                    <syllabic>single</syllabic>
                    <text>home</text>
                </lyric>
            </note>
            <note default-x="68">
                <pitch>
                    <step>D</step>
                    <octave>5</octave>
                </pitch>
                <duration>2</duration>
                <voice>1</voice>
                <type>quarter</type>
                <stem default-y="-45">down</stem>
                <lyric default-y="-80" number="1">
                    <syllabic>end</syllabic>
                    <text>ly</text>
                </lyric>
                <lyric default-y="-101" number="2">
                    <syllabic>end</syllabic>
                    <text>ly</text>
                </lyric>
                <lyric default-y="-120" number="3">
                    <syllabic>single</syllabic>
                    <text>and</text>
                </lyric>
            </note>
            <note default-x="122">
                <pitch>
                    <step>C</step>
                    <octave>5</octave>
                </pitch>
                <duration>2</duration>
                <voice>1</voice>
                <type>quarter</type>
                <stem default-y="-50">down</stem>
                <lyric default-y="-80" number="1">
                    <syllabic>single</syllabic>
                    <text>girl</text>
                </lyric>
                <lyric default-y="-101" number="2">
                    <syllabic>begin</syllabic>
                    <text>wait</text>
                </lyric>
                <lyric default-y="-120" number="3">
                    <syllabic>single</syllabic>
                    <text>does</text>
                </lyric>
            </note>
            <note default-x="175">
                <pitch>
                    <step>B</step>
                    <octave>4</octave>
                </pitch>
                <duration>2</duration>
                <voice>1</voice>
                <type>quarter</type>
                <stem default-y="-55">down</stem>
                <lyric default-y="-80" number="1">
                    <syllabic>single</syllabic>
                    <text>I</text>
                </lyric>
                <lyric default-y="-101" number="2">
                    <syllabic>end</syllabic>
                    <text>ing</text>
                </lyric>
                <lyric default-y="-120" number="3">
                    <syllabic>single</syllabic>
                    <text>her</text>
                </lyric>
            </note>
        </measure>
        <measure width="227" number="11">
            <print new-system="yes">
                <system-layout>
                    <system-distance>171</system-distance>
                </system-layout>
            </print>
            <harmony default-y="40">
                <root>
                    <root-step>C</root-step>
                </root>
                <kind halign="center" text="">major</kind>
            </harmony>
            <note default-x="78">
                <pitch>
                    <step>C</step>
                    <octave>5</octave>
                </pitch>
                <duration>2</duration>
                <voice>1</voice>
                <type>quarter</type>
                <stem default-y="-50">down</stem>
                <lyric default-y="-80" number="1">
                    <syllabic>single</syllabic>
                    <text>like</text>
                </lyric>
                <lyric default-y="-101" number="2">
                    <syllabic>single</syllabic>
                    <text>at</text>
                </lyric>
                <lyric default-y="-120" number="3">
                    <syllabic>begin</syllabic>
                    <text>pret</text>
                </lyric>
            </note>
            <note default-x="122">
                <pitch>
                    <step>D</step>
                    <octave>5</octave>
                </pitch>
                <duration>4</duration>
                <voice>1</voice>
                <type>half</type>
                <stem default-y="-45">down</stem>
                <lyric default-y="-80" number="1">
                    <syllabic>single</syllabic>
                    <text>your</text>
                </lyric>
                <lyric default-y="-101" number="2">
                    <syllabic>single</syllabic>
                    <text>the</text>
                </lyric>
                <lyric default-y="-120" number="3">
                    <syllabic>end</syllabic>
                    <text>ty</text>
                </lyric>
            </note>
            <note default-x="185">
                <pitch>
                    <step>E</step>
                    <octave>5</octave>
                </pitch>
                <duration>2</duration>
                <tie type="start"/>
                <voice>1</voice>
                <type>quarter</type>
                <stem default-y="-40">down</stem>
                <notations>
                    <tied type="start"/>
                </notations>
                <lyric default-y="-80" number="1">
                    <syllabic>single</syllabic>
                    <text>face</text>
                </lyric>
                <lyric default-y="-101" number="2">
                    <syllabic>single</syllabic>
                    <text>door,</text>
                    <extend/>
                </lyric>
                <lyric default-y="-120" number="3">
                    <syllabic>single</syllabic>
                    <text>face.</text>
                    <extend/>
                </lyric>
            </note>
        </measure>
        <measure width="175" number="12">
            <print new-system="no"/>
            <note default-x="14">
                <pitch>
                    <step>E</step>
                    <octave>5</octave>
                </pitch>
                <duration>2</duration>
                <tie type="stop"/>
                <voice>1</voice>
                <type>quarter</type>
                <stem default-y="-40">down</stem>
                <notations>
                    <tied type="stop"/>
                </notations>
            </note>
            <note default-x="52">
                <pitch>
                    <step>E</step>
                    <octave>5</octave>
                </pitch>
                <duration>2</duration>
                <voice>1</voice>
                <type>quarter</type>
                <stem default-y="-40">down</stem>
                <lyric default-y="-80" number="1">
                    <syllabic>single</syllabic>
                    <text>and</text>
                </lyric>
                <lyric default-y="-101" number="2">
                    <syllabic>single</syllabic>
                    <text>And</text>
                </lyric>
                <lyric default-y="-120" number="3">
                    <syllabic>single</syllabic>
                    <text>and</text>
                </lyric>
            </note>
            <note default-x="96">
                <pitch>
                    <step>D</step>
                    <octave>5</octave>
                </pitch>
                <duration>2</duration>
                <voice>1</voice>
                <type>quarter</type>
                <stem default-y="-45">down</stem>
                <lyric default-y="-80" number="1">
                    <syllabic>begin</syllabic>
                    <text>Mol</text>
                </lyric>
                <lyric default-y="-101" number="2">
                    <syllabic>single</syllabic>
                    <text>as</text>
                </lyric>
                <lyric default-y="-120" number="3">
                    <syllabic>single</syllabic>
                    <text>in</text>
                </lyric>
            </note>
            <note default-x="136">
                <pitch>
                    <step>C</step>
                    <octave>5</octave>
                </pitch>
                <duration>2</duration>
                <voice>1</voice>
                <type>quarter</type>
                <stem default-y="-50">down</stem>
                <lyric default-y="-80" number="1">
                    <syllabic>end</syllabic>
                    <text>ly</text>
                </lyric>
                <lyric default-y="-101" number="2">
                    <syllabic>single</syllabic>
                    <text>he</text>
                </lyric>
                <lyric default-y="-120" number="3">
                    <syllabic>single</syllabic>
                    <text>the</text>
                </lyric>
            </note>
        </measure>
        <measure width="185" number="13">
            <print new-system="no"/>
            <harmony default-y="40">
                <root>
                    <root-step>G</root-step>
                </root>
                <kind halign="center" text="">major</kind>
            </harmony>
            <note default-x="14">
                <pitch>
                    <step>B</step>
                    <octave>4</octave>
                </pitch>
                <duration>2</duration>
                <voice>1</voice>
                <type>quarter</type>
                <stem default-y="-55">down</stem>
                <lyric default-y="-80" number="1">
                    <syllabic>single</syllabic>
                    <text>says</text>
                </lyric>
                <lyric default-y="-101" number="2">
                    <syllabic>single</syllabic>
                    <text>gives</text>
                </lyric>
                <lyric default-y="-120" number="3">
                    <syllabic>begin</syllabic>
                    <text>eve</text>
                </lyric>
            </note>
            <note default-x="62">
                <pitch>
                    <step>B</step>
                    <octave>4</octave>
                </pitch>
                <duration>2</duration>
                <voice>1</voice>
                <type>quarter</type>
                <stem default-y="-55">down</stem>
                <lyric default-y="-80" number="1">
                    <syllabic>single</syllabic>
                    <text>this</text>
                </lyric>
                <lyric default-y="-101" number="2">
                    <syllabic>single</syllabic>
                    <text>it</text>
                </lyric>
                <lyric default-y="-120" number="3">
                    <syllabic>end</syllabic>
                    <text>ning</text>
                </lyric>
            </note>
            <note default-x="105">
                <pitch>
                    <step>C</step>
                    <octave>5</octave>
                </pitch>
                <duration>2</duration>
                <voice>1</voice>
                <type>quarter</type>
                <stem default-y="-50">down</stem>
                <lyric default-y="-80" number="1">
                    <syllabic>single</syllabic>
                    <text>as</text>
                </lyric>
                <lyric default-y="-101" number="2">
                    <syllabic>single</syllabic>
                    <text>to</text>
                </lyric>
                <lyric default-y="-120" number="3">
                    <syllabic>single</syllabic>
                    <text>she</text>
                </lyric>
            </note>
            <note default-x="146">
                <pitch>
                    <step>B</step>
                    <octave>4</octave>
                </pitch>
                <duration>2</duration>
                <voice>1</voice>
                <type>quarter</type>
                <stem default-y="-55">down</stem>
                <lyric default-y="-80" number="1">
                    <syllabic>single</syllabic>
                    <text>she</text>
                </lyric>
                <lyric default-y="-101" number="2">
                    <syllabic>single</syllabic>
                    <text>her</text>
                </lyric>
                <lyric default-y="-120" number="3">
                    <syllabic>single</syllabic>
                    <text>still</text>
                </lyric>
            </note>
        </measure>
        <measure width="190" number="14">
            <print new-system="no"/>
            <harmony default-y="40">
                <root>
                    <root-step>D</root-step>
                </root>
                <kind halign="center" text="7">dominant</kind>
            </harmony>
            <note default-x="13">
                <pitch>
                    <step>A</step>
                    <octave>4</octave>
                </pitch>
                <duration>2</duration>
                <voice>1</voice>
                <type>quarter</type>
                <stem default-y="10.5">up</stem>
                <lyric default-y="-80" number="1">
                    <syllabic>single</syllabic>
                    <text>taked</text>
                </lyric>
                <lyric default-y="-101" number="2">
                    <syllabic>single</syllabic>
                    <text>she</text>
                </lyric>
                <lyric default-y="-120" number="3">
                    <syllabic>single</syllabic>
                    <text>sings</text>
                </lyric>
            </note>
            <note default-x="62">
                <pitch>
                    <step>C</step>
                    <octave>5</octave>
                </pitch>
                <duration>2</duration>
                <voice>1</voice>
                <type>quarter</type>
                <stem default-y="-50">down</stem>
                <lyric default-y="-80" number="1">
                    <syllabic>single</syllabic>
                    <text>him</text>
                </lyric>
                <lyric default-y="-101" number="2">
                    <syllabic>begin</syllabic>
                    <text>be</text>
                </lyric>
                <lyric default-y="-120" number="3">
                    <syllabic>single</syllabic>
                    <text>it</text>
                </lyric>
            </note>
            <note default-x="107">
                <pitch>
                    <step>B</step>
                    <octave>4</octave>
                </pitch>
                <duration>2</duration>
                <voice>1</voice>
                <type>quarter</type>
                <stem default-y="-55">down</stem>
                <lyric default-y="-80" number="1">
                    <syllabic>single</syllabic>
                    <text>by</text>
                </lyric>
                <lyric default-y="-101" number="2">
                    <syllabic>end</syllabic>
                    <text>gins</text>
                </lyric>
                <lyric default-y="-120" number="3">
                    <syllabic>single</syllabic>
                    <text>with</text>
                </lyric>
            </note>
            <note default-x="150">
                <pitch>
                    <step>A</step>
                    <octave>4</octave>
                </pitch>
                <duration>2</duration>
                <voice>1</voice>
                <type>quarter</type>
                <stem default-y="10.5">up</stem>
                <lyric default-y="-80" number="1">
                    <syllabic>single</syllabic>
                    <text>the</text>
                </lyric>
                <lyric default-y="-101" number="2">
                    <syllabic>single</syllabic>
                    <text>to</text>
                </lyric>
                <lyric default-y="-120" number="3">
                    <syllabic>single</syllabic>
                    <text>the</text>
                </lyric>
            </note>
        </measure>
        <measure width="111" number="15">
            <print new-system="no"/>
            <harmony default-y="40">
                <root>
                    <root-step>G</root-step>
                </root>
                <kind halign="center" text="">major</kind>
            </harmony>
            <note default-x="14">
                <pitch>
                    <step>G</step>
                    <octave>4</octave>
                </pitch>
                <duration>8</duration>
                <tie type="start"/>
                <voice>1</voice>
                <type>whole</type>
                <notations>
                    <tied type="start"/>
                </notations>
                <lyric default-y="-80" number="1">
                    <syllabic>single</syllabic>
                    <text>hand.</text>
                </lyric>
                <lyric default-y="-101" number="2">
                    <syllabic>single</syllabic>
                    <text>sing.</text>
                    <extend/>
                </lyric>
                <lyric default-y="-120" number="3">
                    <syllabic>single</syllabic>
                    <text>band.</text>
                    <extend/>
                </lyric>
            </note>
        </measure>
        <measure width="162" number="16">
            <print new-system="no"/>
            <note default-x="14">
                <pitch>
                    <step>G</step>
                    <octave>4</octave>
                </pitch>
                <duration>2</duration>
                <tie type="stop"/>
                <voice>1</voice>
                <type>quarter</type>
                <stem default-y="5.5">up</stem>
                <notations>
                    <tied type="stop"/>
                </notations>
            </note>
            <note default-x="51">
                <rest/>
                <duration>2</duration>
                <voice>1</voice>
                <type>quarter</type>
            </note>
            <note default-x="87">
                <pitch>
                    <step>G</step>
                    <octave>4</octave>
                </pitch>
                <duration>2</duration>
                <voice>1</voice>
                <type>quarter</type>
                <stem default-y="5.5">up</stem>
                <lyric default-y="-80" number="1">
                    <syllabic>begin</syllabic>
                    <text>Ob</text>
                </lyric>
            </note>
            <note default-x="124">
                <pitch>
                    <step>B</step>
                    <octave>4</octave>
                </pitch>
                <duration>2</duration>
                <voice>1</voice>
                <type>quarter</type>
                <stem default-y="-55">down</stem>
                <lyric default-y="-80" number="1">
                    <syllabic>end</syllabic>
                    <text>la</text>
                </lyric>
            </note>
        </measure>
        <measure width="219" number="17">
            <print new-system="yes">
                <system-layout>
                    <system-distance>171</system-distance>
                </system-layout>
            </print>
            <note default-x="78">
                <pitch>
                    <step>D</step>
                    <octave>5</octave>
                </pitch>
                <duration>4</duration>
                <voice>1</voice>
                <type>half</type>
                <stem default-y="-45">down</stem>
                <lyric default-y="-80" number="1">
                    <syllabic>single</syllabic>
                    <text>di,</text>
                </lyric>
            </note>
            <note default-x="141">
                <pitch>
                    <step>G</step>
                    <octave>4</octave>
                </pitch>
                <duration>2</duration>
                <voice>1</voice>
                <type>quarter</type>
                <stem default-y="5.5">up</stem>
                <lyric default-y="-80" number="1">
                    <syllabic>begin</syllabic>
                    <text>ob</text>
                </lyric>
            </note>
            <note default-x="180">
                <pitch>
                    <step>B</step>
                    <octave>4</octave>
                </pitch>
                <duration>2</duration>
                <voice>1</voice>
                <type>quarter</type>
                <stem default-y="-55">down</stem>
                <lyric default-y="-80" number="1">
                    <syllabic>end</syllabic>
                    <text>la</text>
                </lyric>
            </note>
        </measure>
        <measure width="164" number="18">
            <print new-system="no"/>
            <note default-x="14">
                <pitch>
                    <step>D</step>
                    <octave>5</octave>
                </pitch>
                <duration>4</duration>
                <voice>1</voice>
                <type>half</type>
                <stem default-y="-45">down</stem>
                <lyric default-y="-80" number="1">
                    <syllabic>single</syllabic>
                    <text>da,</text>
                </lyric>
            </note>
            <note default-x="80">
                <pitch>
                    <step>G</step>
                    <octave>4</octave>
                </pitch>
                <duration>2</duration>
                <voice>1</voice>
                <type>quarter</type>
                <stem default-y="5.5">up</stem>
                <lyric default-y="-80" number="1">
                    <syllabic>single</syllabic>
                    <text>life</text>
                </lyric>
            </note>
            <note default-x="123">
                <pitch>
                    <step>B</step>
                    <octave>4</octave>
                </pitch>
                <duration>2</duration>
                <voice>1</voice>
                <type>quarter</type>
                <stem default-y="-55">down</stem>
                <lyric default-y="-80" number="1">
                    <syllabic>single</syllabic>
                    <text>goes</text>
                </lyric>
            </note>
        </measure>
        <measure width="116" number="19">
            <print new-system="no"/>
            <harmony default-y="40">
                <root>
                    <root-step>B</root-step>
                </root>
                <kind halign="center" text="m">minor</kind>
            </harmony>
            <note default-x="14">
                <pitch>
                    <step>D</step>
                    <octave>5</octave>
                </pitch>
                <duration>8</duration>
                <voice>1</voice>
                <type>whole</type>
                <lyric default-y="-80" number="1">
                    <syllabic>single</syllabic>
                    <text>on,</text>
                </lyric>
            </note>
        </measure>
        <measure width="116" number="20">
            <print new-system="no"/>
            <harmony default-y="40">
                <root>
                    <root-step>E</root-step>
                </root>
                <kind halign="center" text="m">minor</kind>
            </harmony>
            <note default-x="13">
                <pitch>
                    <step>G</step>
                    <octave>5</octave>
                </pitch>
                <duration>8</duration>
                <voice>1</voice>
                <type>whole</type>
                <lyric default-y="-80" number="1">
                    <syllabic>single</syllabic>
                    <text>brah!</text>
                </lyric>
            </note>
        </measure>
        <measure width="174" number="21">
            <print new-system="no"/>
            <harmony default-y="40">
                <root>
                    <root-step>G</root-step>
                </root>
                <kind halign="center" text="">major</kind>
            </harmony>
            <note default-x="14">
                <pitch>
                    <step>D</step>
                    <octave>5</octave>
                </pitch>
                <duration>2</duration>
                <voice>1</voice>
                <type>quarter</type>
                <stem default-y="-45">down</stem>
                <lyric default-y="-80" number="1">
                    <syllabic>single</syllabic>
                    <text>La,</text>
                </lyric>
            </note>
            <note default-x="54">
                <pitch>
                    <step>C</step>
                    <octave>5</octave>
                </pitch>
                <duration>2</duration>
                <voice>1</voice>
                <type>quarter</type>
                <stem default-y="-50">down</stem>
                <lyric default-y="-80" number="1">
                    <syllabic>single</syllabic>
                    <text>la</text>
                </lyric>
            </note>
            <note default-x="94">
                <pitch>
                    <step>B</step>
                    <octave>4</octave>
                </pitch>
                <duration>2</duration>
                <voice>1</voice>
                <type>quarter</type>
                <stem default-y="-55">down</stem>
                <lyric default-y="-80" number="1">
                    <syllabic>single</syllabic>
                    <text>how</text>
                </lyric>
            </note>
            <note default-x="133">
                <pitch>
                    <step>C</step>
                    <octave>5</octave>
                </pitch>
                <duration>2</duration>
                <voice>1</voice>
                <type>quarter</type>
                <stem default-y="-50">down</stem>
                <lyric default-y="-80" number="1">
                    <syllabic>single</syllabic>
                    <text>the</text>
                </lyric>
            </note>
        </measure>
        <measure width="145" number="22">
            <print new-system="no"/>
            <harmony default-y="40">
                <root>
                    <root-step>D</root-step>
                </root>
                <kind halign="center" text="7">dominant</kind>
            </harmony>
            <note default-x="14">
                <pitch>
                    <step>B</step>
                    <octave>4</octave>
                </pitch>
                <duration>2</duration>
                <voice>1</voice>
                <type>quarter</type>
                <stem default-y="-55">down</stem>
                <lyric default-y="-80" number="1">
                    <syllabic>single</syllabic>
                    <text>life</text>
                </lyric>
            </note>
            <note default-x="57">
                <pitch>
                    <step>A</step>
                    <octave>4</octave>
                </pitch>
                <duration>6</duration>
                <voice>1</voice>
                <type>half</type>
                <dot/>
                <stem default-y="10.5">up</stem>
                <lyric default-y="-80" number="1">
                    <syllabic>single</syllabic>
                    <text>goes</text>
                </lyric>
            </note>
        </measure>
        <measure width="116" number="23">
            <print new-system="no"/>
            <harmony default-y="40">
                <root>
                    <root-step>G</root-step>
                </root>
                <kind halign="center" text="">major</kind>
            </harmony>
            <note default-x="13">
                <pitch>
                    <step>G</step>
                    <octave>4</octave>
                </pitch>
                <duration>8</duration>
                <tie type="start"/>
                <voice>1</voice>
                <type>whole</type>
                <notations>
                    <tied type="start"/>
                </notations>
                <lyric default-y="-80" number="1">
                    <syllabic>single</syllabic>
                    <text>on</text>
                </lyric>
            </note>
        </measure>
        <measure width="256" number="24">
            <print new-system="yes"/>
            <barline location="left">
                <ending font-size="8.3" default-y="40" type="start" number="1" end-length="30"></ending>
            </barline>
            <note default-x="81">
                <pitch>
                    <step>G</step>
                    <octave>4</octave>
                </pitch>
                <duration>2</duration>
                <tie type="stop"/>
                <voice>1</voice>
                <type>quarter</type>
                <stem default-y="5">up</stem>
                <notations>
                    <tied type="stop"/>
                </notations>
            </note>
            <note default-x="120">
                <rest/>
                <duration>2</duration>
                <voice>1</voice>
                <type>quarter</type>
            </note>
            <note default-x="159">
                <pitch>
                    <step>G</step>
                    <octave>4</octave>
                </pitch>
                <duration>2</duration>
                <voice>1</voice>
                <type>quarter</type>
                <stem default-y="5">up</stem>
                <lyric default-y="-80" number="1">
                    <syllabic>begin</syllabic>
                    <text>Ob</text>
                </lyric>
            </note>
            <note default-x="198">
                <pitch>
                    <step>B</step>
                    <octave>4</octave>
                </pitch>
                <duration>2</duration>
                <voice>1</voice>
                <type>quarter</type>
                <stem default-y="-55.5">down</stem>
                <lyric default-y="-80" number="1">
                    <syllabic>end</syllabic>
                    <text>la</text>
                </lyric>
            </note>
            <barline location="right">
                <bar-style>light-heavy</bar-style>
                <ending type="stop" number="1"></ending>
                <repeat direction="backward"/>
            </barline>
        </measure>
        <measure width="134" number="25">
            <print new-system="no"/>
            <barline location="left">
                <ending font-size="8.3" default-y="40" type="start" number="2" end-length="30"></ending>
            </barline>
            <harmony default-y="40">
                <root>
                    <root-step>G</root-step>
                </root>
                <kind halign="center" text="7">dominant</kind>
            </harmony>
            <note default-x="13">
                <pitch>
                    <step>G</step>
                    <octave>4</octave>
                </pitch>
                <duration>8</duration>
                <voice>1</voice>
                <type>whole</type>
            </note>
            <barline location="right">
                <bar-style>light-heavy</bar-style>
                <ending type="stop" number="2"></ending>
                <repeat direction="backward"/>
            </barline>
        </measure>
        <measure width="210" number="26">
            <print new-system="no"/>
            <barline location="left">
                <ending font-size="8.3" default-y="40" type="start" number="3" end-length="30"></ending>
            </barline>
            <harmony default-y="40">
                <root>
                    <root-step>C</root-step>
                </root>
                <kind halign="center" text="">major</kind>
            </harmony>
            <note default-x="13">
                <rest/>
                <duration>2</duration>
                <voice>1</voice>
                <type>quarter</type>
            </note>
            <note default-x="53">
                <pitch>
                    <step>G</step>
                    <octave>4</octave>
                </pitch>
                <duration>1</duration>
                <voice>1</voice>
                <type>eighth</type>
                <stem default-y="5">up</stem>
                <beam number="1">begin</beam>
                <lyric default-y="-80" number="1">
                    <syllabic>single</syllabic>
                    <text>In</text>
                </lyric>
            </note>
            <note default-x="79">
                <pitch>
                    <step>G</step>
                    <octave>4</octave>
                </pitch>
                <duration>1</duration>
                <voice>1</voice>
                <type>eighth</type>
                <stem default-y="5">up</stem>
                <beam number="1">end</beam>
                <lyric default-y="-80" number="1">
                    <syllabic>single</syllabic>
                    <text>a</text>
                </lyric>
            </note>
            <note default-x="120">
                <pitch>
                    <step>C</step>
                    <octave>5</octave>
                </pitch>
                <duration>2</duration>
                <voice>1</voice>
                <type>quarter</type>
                <stem default-y="-50.5">down</stem>
                <lyric default-y="-80" number="1">
                    <syllabic>single</syllabic>
                    <text>couple</text>
                </lyric>
            </note>
            <note default-x="168">
                <pitch>
                    <step>D</step>
                    <octave>5</octave>
                </pitch>
                <duration>2</duration>
                <voice>1</voice>
                <type>quarter</type>
                <stem default-y="-45.5">down</stem>
                <lyric default-y="-80" number="1">
                    <syllabic>single</syllabic>
                    <text>of</text>
                </lyric>
            </note>
            <barline location="right">
                <ending type="discontinue" number="3"></ending>
            </barline>
        </measure>
        <measure width="168" number="27">
            <print new-system="no"/>
            <note default-x="14">
                <pitch>
                    <step>E</step>
                    <octave>5</octave>
                </pitch>
                <duration>4</duration>
                <voice>1</voice>
                <type>half</type>
                <stem default-y="-40.5">down</stem>
                <lyric default-y="-80" number="1">
                    <syllabic>single</syllabic>
                    <text>years,</text>
                </lyric>
            </note>
            <note default-x="80">
                <pitch>
                    <step>D</step>
                    <octave>5</octave>
                </pitch>
                <duration>2</duration>
                <voice>1</voice>
                <type>quarter</type>
                <stem default-y="-45.5">down</stem>
                <lyric default-y="-80" number="1">
                    <syllabic>single</syllabic>
                    <text>they</text>
                </lyric>
            </note>
            <note default-x="126">
                <pitch>
                    <step>E</step>
                    <octave>5</octave>
                </pitch>
                <duration>2</duration>
                <voice>1</voice>
                <type>quarter</type>
                <stem default-y="-40.5">down</stem>
                <lyric default-y="-80" number="1">
                    <syllabic>single</syllabic>
                    <text>have</text>
                </lyric>
            </note>
        </measure>
        <measure width="141" number="28">
            <print new-system="no"/>
            <note default-x="14">
                <pitch>
                    <step>G</step>
                    <octave>5</octave>
                </pitch>
                <duration>4</duration>
                <voice>1</voice>
                <type>half</type>
                <stem default-y="-30.5">down</stem>
                <lyric default-y="-80" number="1">
                    <syllabic>single</syllabic>
                    <text>built</text>
                </lyric>
            </note>
            <note default-x="77">
                <pitch>
                    <step>C</step>
                    <octave>5</octave>
                </pitch>
                <duration>4</duration>
                <voice>1</voice>
                <type>half</type>
                <stem default-y="-50.5">down</stem>
                <lyric default-y="-80" number="1">
                    <syllabic>single</syllabic>
                    <text>a</text>
                </lyric>
            </note>
        </measure>
        <measure width="141" number="29">
            <print new-system="no"/>
            <note default-x="14">
                <pitch>
                    <step>E</step>
                    <octave>5</octave>
                </pitch>
                <duration>4</duration>
                <voice>1</voice>
                <type>half</type>
                <stem default-y="-40.5">down</stem>
                <lyric default-y="-80" number="1">
                    <syllabic>single</syllabic>
                    <text>home</text>
                </lyric>
            </note>
            <note default-x="77">
                <pitch>
                    <step>G</step>
                    <octave>4</octave>
                </pitch>
                <duration>4</duration>
                <voice>1</voice>
                <type>half</type>
                <stem default-y="5">up</stem>
                <lyric default-y="-80" number="1">
                    <syllabic>single</syllabic>
                    <text>sweet</text>
                </lyric>
            </note>
        </measure>
        <measure width="315" number="30">
            <print new-system="yes"/>
            <harmony default-y="40">
                <root>
                    <root-step>G</root-step>
                </root>
                <kind halign="center" text="7">dominant</kind>
            </harmony>
            <note default-x="78">
                <pitch>
                    <step>B</step>
                    <octave>4</octave>
                </pitch>
                <duration>6</duration>
                <voice>1</voice>
                <type>half</type>
                <dot/>
                <stem default-y="-55">down</stem>
                <lyric default-y="-80" number="1">
                    <syllabic>single</syllabic>
                    <text>home.</text>
                </lyric>
            </note>
            <note default-x="239">
                <pitch>
                    <step>B</step>
                    <octave>4</octave>
                </pitch>
                <duration>2</duration>
                <voice>1</voice>
                <type>quarter</type>
                <stem default-y="-55">down</stem>
            </note>
        </measure>
        <measure width="250" number="31">
            <print new-system="no"/>
            <note default-x="14">
                <pitch>
                    <step>A</step>
                    <octave>4</octave>
                </pitch>
                <duration>6</duration>
                <voice>1</voice>
                <type>half</type>
                <dot/>
                <stem default-y="10.5">up</stem>
            </note>
            <note default-x="174">
                <pitch>
                    <step>A</step>
                    <octave>4</octave>
                </pitch>
                <duration>2</duration>
                <voice>1</voice>
                <type>quarter</type>
                <stem default-y="10.5">up</stem>
            </note>
        </measure>
        <measure width="250" number="32">
            <print new-system="no"/>
            <note default-x="14">
                <pitch>
                    <step>G</step>
                    <octave>4</octave>
                </pitch>
                <duration>6</duration>
                <voice>1</voice>
                <type>half</type>
                <dot/>
                <stem default-y="5.5">up</stem>
            </note>
            <note default-x="174">
                <pitch>
                    <step>G</step>
                    <octave>4</octave>
                </pitch>
                <duration>2</duration>
                <voice>1</voice>
                <type>quarter</type>
                <stem default-y="5.5">up</stem>
            </note>
        </measure>
        <measure width="236" number="33">
            <print new-system="no"/>
            <note default-x="25">
                <pitch>
                    <step>F</step>
                    <octave>4</octave>
                </pitch>
                <duration>8</duration>
                <voice>1</voice>
                <type>whole</type>
                <accidental>natural</accidental>
            </note>
        </measure>
        <measure width="395" number="34">
            <print new-system="yes"/>
            <harmony default-y="40">
                <root>
                    <root-step>C</root-step>
                </root>
                <kind halign="center" text="">major</kind>
            </harmony>
            <note default-x="78">
                <rest/>
                <duration>2</duration>
                <voice>1</voice>
                <type>quarter</type>
            </note>
            <note default-x="152">
                <pitch>
                    <step>G</step>
                    <octave>4</octave>
                </pitch>
                <duration>1</duration>
                <voice>1</voice>
                <type>eighth</type>
                <stem default-y="5">up</stem>
                <beam number="1">begin</beam>
                <lyric default-y="-80" number="1">
                    <syllabic>single</syllabic>
                    <text>With</text>
                </lyric>
            </note>
            <note default-x="199">
                <pitch>
                    <step>G</step>
                    <octave>4</octave>
                </pitch>
                <duration>1</duration>
                <voice>1</voice>
                <type>eighth</type>
                <stem default-y="5">up</stem>
                <beam number="1">end</beam>
                <lyric default-y="-80" number="1">
                    <syllabic>single</syllabic>
                    <text>a</text>
                </lyric>
            </note>
            <note default-x="245">
                <pitch>
                    <step>C</step>
                    <octave>5</octave>
                </pitch>
                <duration>2</duration>
                <voice>1</voice>
                <type>quarter</type>
                <stem default-y="-50">down</stem>
                <lyric default-y="-80" number="1">
                    <syllabic>single</syllabic>
                    <text>couple</text>
                </lyric>
            </note>
            <note default-x="319">
                <pitch>
                    <step>D</step>
                    <octave>5</octave>
                </pitch>
                <duration>2</duration>
                <voice>1</voice>
                <type>quarter</type>
                <stem default-y="-45.5">down</stem>
                <lyric default-y="-80" number="1">
                    <syllabic>single</syllabic>
                    <text>of</text>
                </lyric>
            </note>
        </measure>
        <measure width="240" number="35">
            <print new-system="no"/>
            <note default-x="14">
                <pitch>
                    <step>E</step>
                    <octave>5</octave>
                </pitch>
                <duration>4</duration>
                <voice>1</voice>
                <type>half</type>
                <stem default-y="-40.5">down</stem>
                <lyric default-y="-80" number="1">
                    <syllabic>single</syllabic>
                    <text>kids</text>
                </lyric>
            </note>
            <note default-x="115">
                <pitch>
                    <step>D</step>
                    <octave>5</octave>
                </pitch>
                <duration>2</duration>
                <voice>1</voice>
                <type>quarter</type>
                <stem default-y="-45.5">down</stem>
                <lyric default-y="-80" number="1">
                    <syllabic>begin</syllabic>
                    <text>run</text>
                </lyric>
            </note>
            <note default-x="177">
                <pitch>
                    <step>E</step>
                    <octave>5</octave>
                </pitch>
                <duration>2</duration>
                <voice>1</voice>
                <type>quarter</type>
                <stem default-y="-40.5">down</stem>
                <lyric default-y="-80" number="1">
                    <syllabic>end</syllabic>
                    <text>ning</text>
                </lyric>
            </note>
        </measure>
        <measure width="208" number="36">
            <print new-system="no"/>
            <note default-x="14">
                <pitch>
                    <step>G</step>
                    <octave>5</octave>
                </pitch>
                <duration>4</duration>
                <voice>1</voice>
                <type>half</type>
                <stem default-y="-30.5">down</stem>
                <lyric default-y="-80" number="1">
                    <syllabic>single</syllabic>
                    <text>in</text>
                </lyric>
            </note>
            <note default-x="111">
                <pitch>
                    <step>C</step>
                    <octave>5</octave>
                </pitch>
                <duration>4</duration>
                <voice>1</voice>
                <type>half</type>
                <stem default-y="-50">down</stem>
                <lyric default-y="-80" number="1">
                    <syllabic>single</syllabic>
                    <text>the</text>
                </lyric>
            </note>
        </measure>
        <measure width="208" number="37">
            <print new-system="no"/>
            <note default-x="14">
                <pitch>
                    <step>E</step>
                    <octave>5</octave>
                </pitch>
                <duration>4</duration>
                <voice>1</voice>
                <type>half</type>
                <stem default-y="-40.5">down</stem>
                <lyric default-y="-80" number="1">
                    <syllabic>single</syllabic>
                    <text>yard</text>
                </lyric>
            </note>
            <note default-x="111">
                <pitch>
                    <step>G</step>
                    <octave>4</octave>
                </pitch>
                <duration>4</duration>
                <voice>1</voice>
                <type>half</type>
                <stem default-y="6">up</stem>
                <lyric default-y="-80" number="1">
                    <syllabic>single</syllabic>
                    <text>of</text>
                </lyric>
            </note>
        </measure>
        <measure width="321" number="38">
            <print new-system="yes"/>
            <harmony default-y="40">
                <root>
                    <root-step>G</root-step>
                </root>
                <kind halign="center" text="">major</kind>
            </harmony>
            <note default-x="78">
                <pitch>
                    <step>B</step>
                    <octave>4</octave>
                </pitch>
                <duration>2</duration>
                <voice>1</voice>
                <type>quarter</type>
                <stem default-y="-55">down</stem>
                <lyric default-y="-80" number="1">
                    <syllabic>begin</syllabic>
                    <text>Des</text>
                </lyric>
            </note>
            <note default-x="145">
                <pitch>
                    <step>B</step>
                    <octave>4</octave>
                </pitch>
                <duration>4</duration>
                <voice>1</voice>
                <type>half</type>
                <stem default-y="-55">down</stem>
                <lyric default-y="-80" number="1">
                    <syllabic>end</syllabic>
                    <text>mond</text>
                </lyric>
            </note>
            <note default-x="253">
                <pitch>
                    <step>B</step>
                    <octave>4</octave>
                </pitch>
                <duration>2</duration>
                <voice>1</voice>
                <type>quarter</type>
                <stem default-y="-55">down</stem>
                <lyric default-y="-80" number="1">
                    <syllabic>single</syllabic>
                    <text>and</text>
                </lyric>
            </note>
        </measure>
        <measure width="214" number="39">
            <print new-system="no"/>
            <note default-x="14">
                <pitch>
                    <step>C</step>
                    <octave>5</octave>
                </pitch>
                <duration>4</duration>
                <voice>1</voice>
                <type>half</type>
                <stem default-y="-50">down</stem>
                <lyric default-y="-80" number="1">
                    <syllabic>begin</syllabic>
                    <text>Mol</text>
                </lyric>
            </note>
            <note default-x="113">
                <pitch>
                    <step>B</step>
                    <octave>4</octave>
                </pitch>
                <duration>4</duration>
                <voice>1</voice>
                <type>half</type>
                <stem default-y="-55">down</stem>
                <lyric default-y="-80" number="1">
                    <syllabic>end</syllabic>
                    <text>ly</text>
                </lyric>
            </note>
        </measure>
        <measure width="257" number="40">
            <print new-system="no"/>
            <note default-x="13">
                <pitch>
                    <step>A</step>
                    <octave>4</octave>
                </pitch>
                <duration>2</duration>
                <voice>1</voice>
                <type>quarter</type>
                <stem default-y="10.5">up</stem>
                <lyric relative-x="3" default-y="-80" number="1">
                    <syllabic>single</syllabic>
                    <text>Jones.</text>
                </lyric>
            </note>
            <harmony default-y="40">
                <root>
                    <root-step>D</root-step>
                </root>
                <kind halign="center" text="7">dominant</kind>
            </harmony>
            <note default-x="75">
                <rest/>
                <duration>2</duration>
                <voice>1</voice>
                <type>quarter</type>
            </note>
            <note default-x="135">
                <pitch>
                    <step>A</step>
                    <octave>4</octave>
                </pitch>
                <duration>2</duration>
                <voice>1</voice>
                <type>quarter</type>
                <stem default-y="10.5">up</stem>
            </note>
            <note default-x="196">
                <rest/>
                <duration>2</duration>
                <voice>1</voice>
                <type>quarter</type>
            </note>
        </measure>
        <measure width="258" number="41">
            <print new-system="no"/>
            <note default-x="14">
                <pitch>
                    <step>B</step>
                    <octave>4</octave>
                </pitch>
                <duration>2</duration>
                <voice>1</voice>
                <type>quarter</type>
                <stem default-y="-55">down</stem>
            </note>
            <note default-x="73">
                <rest/>
                <duration>2</duration>
                <voice>1</voice>
                <type>quarter</type>
            </note>
            <note default-x="131">
                <pitch>
                    <step>C</step>
                    <octave>5</octave>
                </pitch>
                <duration>2</duration>
                <voice>1</voice>
                <type>quarter</type>
                <stem default-y="-50">down</stem>
            </note>
            <note default-x="190">
                <rest/>
                <duration>2</duration>
                <voice>1</voice>
                <type>quarter</type>
            </note>
            <direction placement="above">
                <direction-type>
                    <words font-weight="bold" font-size="11.6" default-y="19" default-x="237" justify="right">D.C. al Fine</words>
                </direction-type>
            </direction>
            <barline location="right">
                <bar-style>light-heavy</bar-style>
            </barline>
        </measure>
    </part>
</score-partwise>
