<?xml version="1.0" encoding="UTF-8"?>
<!DOCTYPE score-partwise PUBLIC "-//Recordare//DTD MusicXML 2.0 Partwise//EN" "http://www.musicxml.org/dtds/partwise.dtd">
<score-partwise version="2.0">
    <work>
        <work-number></work-number>
        <work-title></work-title>
    </work>
    <movement-number></movement-number>
    <movement-title>Maĉjo</movement-title>
    <identification>
        <creator type="composer">mazovia popolkanto</creator>
        <creator type="poet">trad. stek</creator>
        <rights>Creative Commons BY</rights>
        <encoding>
            <software>MuseScore 1.1</software>
            <encoding-date>2011-10-14</encoding-date>
            <software>ProxyMusic 2.0 c</software>
        </encoding>
        <source>http://wikifonia.org/node/13157/revisions/17645/view</source>
    </identification>
    <defaults>
        <scaling>
            <millimeters>7.05556</millimeters>
            <tenths>40</tenths>
        </scaling>
        <page-layout>
            <page-height>1683.78</page-height>
            <page-width>1190.55</page-width>
            <page-margins type="even">
                <left-margin>56.6929</left-margin>
                <right-margin>56.6929</right-margin>
                <top-margin>56.6929</top-margin>
                <bottom-margin>113.386</bottom-margin>
            </page-margins>
            <page-margins type="odd">
                <left-margin>56.6929</left-margin>
                <right-margin>56.6929</right-margin>
                <top-margin>56.6929</top-margin>
                <bottom-margin>113.386</bottom-margin>
            </page-margins>
        </page-layout>
    </defaults>
    <credit page="1">
        <credit-words font-size="24" default-y="1627.09" default-x="595.275" justify="center" valign="top">Maĉjo</credit-words>
    </credit>
    <credit page="1">
        <credit-words font-size="12" default-y="1560.09" default-x="1133.86" justify="right" valign="top">mazovia popolkanto</credit-words>
    </credit>
    <credit page="1">
        <credit-words font-size="12" default-y="1560.09" default-x="56.6929" justify="left" valign="top">trad. TR</credit-words>
    </credit>
    <part-list>
        <score-part id="P1">
            <part-name>Voice</part-name>
            <part-abbreviation>Vo.</part-abbreviation>
            <score-instrument id="P1-I3">
                <instrument-name>Voice</instrument-name>
            </score-instrument>
            <midi-instrument id="P1-I3">
                <midi-channel>1</midi-channel>
                <midi-program>53</midi-program>
            </midi-instrument>
        </score-part>
    </part-list>
    <part id="P1">
        <measure width="299.43" number="1">
            <print>
                <system-layout>
                    <system-margins>
                        <left-margin>73.30</left-margin>
                        <right-margin>-0.00</right-margin>
                    </system-margins>
                    <top-system-distance>180.00</top-system-distance>
                </system-layout>
            </print>
            <attributes>
                <divisions>2</divisions>
                <key>
                    <fifths>-2</fifths>
                    <mode>major</mode>
                </key>
                <time>
                    <beats>3</beats>
                    <beat-type>4</beat-type>
                </time>
                <clef>
                    <sign>G</sign>
                    <line>2</line>
                </clef>
            </attributes>
            <harmony relative-x="100.00" print-frame="no">
                <root>
                    <root-step>D</root-step>
                </root>
                <kind text="7">dominant</kind>
            </harmony>
            <note default-y="-45.00" default-x="114.75">
                <pitch>
                    <step>D</step>
                    <octave>4</octave>
                </pitch>
                <duration>1</duration>
                <voice>1</voice>
                <type>eighth</type>
                <stem>up</stem>
                <beam number="1">begin</beam>
                <lyric number="1">
                    <syllabic>single</syllabic>
                    <text>Tra</text>
                </lyric>
                <lyric number="2">
                    <syllabic>begin</syllabic>
                    <text>Mal</text>
                </lyric>
                <lyric number="3">
                    <syllabic>begin</syllabic>
                    <text>Mor</text>
                </lyric>
            </note>
            <note default-y="-40.00" default-x="152.45">
                <pitch>
                    <step>E</step>
                    <octave>4</octave>
                </pitch>
                <duration>1</duration>
                <voice>1</voice>
                <type>eighth</type>
                <accidental>natural</accidental>
                <stem>up</stem>
                <beam number="1">end</beam>
                <lyric number="1">
                    <syllabic>begin</syllabic>
                    <text>vi</text>
                </lyric>
                <lyric number="2">
                    <syllabic>middle</syllabic>
                    <text>fe</text>
                </lyric>
                <lyric number="3">
                    <syllabic>end</syllabic>
                    <text>tis</text>
                </lyric>
            </note>
            <note default-y="-35.00" default-x="187.06">
                <pitch>
                    <step>F</step>
                    <alter>1</alter>
                    <octave>4</octave>
                </pitch>
                <duration>2</duration>
                <voice>1</voice>
                <type>quarter</type>
                <accidental>sharp</accidental>
                <stem>up</stem>
                <lyric number="1">
                    <syllabic>middle</syllabic>
                    <text>la</text>
                </lyric>
                <lyric number="2">
                    <syllabic>middle</syllabic>
                    <text>li</text>
                </lyric>
                <lyric number="3">
                    <syllabic>begin</syllabic>
                    <text>Ma</text>
                </lyric>
            </note>
            <note default-y="-45.00" default-x="242.45">
                <pitch>
                    <step>D</step>
                    <octave>4</octave>
                </pitch>
                <duration>2</duration>
                <voice>1</voice>
                <type>quarter</type>
                <stem>up</stem>
                <lyric number="1">
                    <syllabic>end</syllabic>
                    <text>ĝo</text>
                </lyric>
                <lyric number="2">
                    <syllabic>end</syllabic>
                    <text>ĉa</text>
                </lyric>
                <lyric number="3">
                    <syllabic>end</syllabic>
                    <text>ĉjo,</text>
                </lyric>
            </note>
        </measure>
        <measure width="139.82" number="2">
            <harmony print-frame="no">
                <root>
                    <root-step>G</root-step>
                </root>
                <kind text="m">minor</kind>
            </harmony>
            <note default-y="-30.00" default-x="23.64">
                <pitch>
                    <step>G</step>
                    <octave>4</octave>
                </pitch>
                <duration>4</duration>
                <voice>1</voice>
                <type>half</type>
                <stem>up</stem>
                <lyric number="1">
                    <syllabic>begin</syllabic>
                    <text>i</text>
                </lyric>
                <lyric number="2">
                    <syllabic>begin</syllabic>
                    <text>Ma</text>
                </lyric>
                <lyric number="3">
                    <syllabic>begin</syllabic>
                    <text>mor</text>
                </lyric>
            </note>
            <note default-y="-20.00" default-x="94.15">
                <pitch>
                    <step>B</step>
                    <alter>-1</alter>
                    <octave>4</octave>
                </pitch>
                <duration>2</duration>
                <voice>1</voice>
                <type>quarter</type>
                <stem>down</stem>
                <lyric number="1">
                    <syllabic>end</syllabic>
                    <text>ras</text>
                </lyric>
                <lyric number="2">
                    <syllabic>end</syllabic>
                    <text>ĉjo,</text>
                </lyric>
                <lyric number="3">
                    <syllabic>end</syllabic>
                    <text>tis,</text>
                </lyric>
            </note>
        </measure>
        <measure width="200.04" number="3">
            <note default-y="-10.00" default-x="21.10">
                <pitch>
                    <step>D</step>
                    <octave>5</octave>
                </pitch>
                <duration>1</duration>
                <voice>1</voice>
                <type>eighth</type>
                <stem>down</stem>
                <beam number="1">begin</beam>
                <lyric number="1">
                    <syllabic>begin</syllabic>
                    <text>Ma</text>
                </lyric>
                <lyric number="2">
                    <syllabic>single</syllabic>
                    <text>ĉar</text>
                </lyric>
                <lyric number="3">
                    <syllabic>begin</syllabic>
                    <text>kuŝ</text>
                </lyric>
            </note>
            <harmony print-frame="no">
                <root>
                    <root-step>A</root-step>
                </root>
                <kind text="">major</kind>
                <offset>1</offset>
            </harmony>
            <note default-y="-10.00" default-x="58.15">
                <pitch>
                    <step>D</step>
                    <octave>5</octave>
                </pitch>
                <duration>1</duration>
                <voice>1</voice>
                <type>eighth</type>
                <stem>down</stem>
                <beam number="1">end</beam>
                <lyric number="1">
                    <syllabic>end</syllabic>
                    <text>ĉjo</text>
                </lyric>
                <lyric number="2">
                    <syllabic>single</syllabic>
                    <text>li</text>
                </lyric>
                <lyric number="3">
                    <syllabic>end</syllabic>
                    <text>as</text>
                </lyric>
            </note>
            <harmony print-frame="no">
                <root>
                    <root-step>A</root-step>
                </root>
                <kind text="">major</kind>
            </harmony>
            <note default-y="-15.00" default-x="96.48">
                <pitch>
                    <step>C</step>
                    <alter>1</alter>
                    <octave>5</octave>
                </pitch>
                <duration>2</duration>
                <voice>1</voice>
                <type>quarter</type>
                <accidental>sharp</accidental>
                <stem>down</stem>
                <lyric number="1">
                    <syllabic>single</syllabic>
                    <text>kun</text>
                </lyric>
                <lyric number="2">
                    <syllabic>begin</syllabic>
                    <text>mal</text>
                </lyric>
                <lyric number="3">
                    <syllabic>single</syllabic>
                    <text>sur</text>
                </lyric>
            </note>
            <note default-y="-25.00" default-x="147.46">
                <pitch>
                    <step>A</step>
                    <octave>4</octave>
                </pitch>
                <duration>2</duration>
                <voice>1</voice>
                <type>quarter</type>
                <stem>up</stem>
                <lyric number="1">
                    <syllabic>begin</syllabic>
                    <text>ba</text>
                </lyric>
                <lyric number="2">
                    <syllabic>middle</syllabic>
                    <text>sa</text>
                </lyric>
                <lyric number="3">
                    <syllabic>begin</syllabic>
                    <text>ta</text>
                </lyric>
            </note>
        </measure>
        <measure width="138.17" number="4">
            <harmony print-frame="no">
                <root>
                    <root-step>D</root-step>
                </root>
                <kind text="">major</kind>
            </harmony>
            <note default-y="-10.00" default-x="16.61">
                <pitch>
                    <step>D</step>
                    <octave>5</octave>
                </pitch>
                <duration>2</duration>
                <voice>1</voice>
                <type>quarter</type>
                <stem>down</stem>
                <lyric number="1">
                    <syllabic>middle</syllabic>
                    <text>ti</text>
                </lyric>
                <lyric number="2">
                    <syllabic>middle</syllabic>
                    <text>ni</text>
                </lyric>
                <lyric number="3">
                    <syllabic>middle</syllabic>
                    <text>bu</text>
                </lyric>
            </note>
            <note default-y="-10.00" default-x="56.59">
                <pitch>
                    <step>D</step>
                    <octave>5</octave>
                </pitch>
                <duration>2</duration>
                <voice>1</voice>
                <type>quarter</type>
                <stem>down</stem>
                <lyric number="1">
                    <syllabic>end</syllabic>
                    <text>lo,</text>
                </lyric>
                <lyric number="2">
                    <syllabic>end</syllabic>
                    <text>ĝis.</text>
                </lyric>
                <lyric number="3">
                    <syllabic>end</syllabic>
                    <text>lo.</text>
                </lyric>
            </note>
            <note>
                <rest/>
                <duration>2</duration>
                <voice>1</voice>
                <type>quarter</type>
            </note>
        </measure>
        <measure width="226.41" number="5">
            <harmony print-frame="no">
                <root>
                    <root-step>D</root-step>
                </root>
                <kind text="7">dominant</kind>
            </harmony>
            <note default-y="-45.00" default-x="28.12">
                <pitch>
                    <step>D</step>
                    <octave>4</octave>
                </pitch>
                <duration>1</duration>
                <voice>1</voice>
                <type>eighth</type>
                <stem>up</stem>
                <beam number="1">begin</beam>
                <lyric number="1">
                    <syllabic>single</syllabic>
                    <text>por</text>
                </lyric>
                <lyric number="2">
                    <syllabic>single</syllabic>
                    <text>Dum</text>
                </lyric>
                <lyric number="3">
                    <syllabic>single</syllabic>
                    <text>Se</text>
                </lyric>
            </note>
            <note default-y="-40.00" default-x="73.00">
                <pitch>
                    <step>E</step>
                    <octave>4</octave>
                </pitch>
                <duration>1</duration>
                <voice>1</voice>
                <type>eighth</type>
                <accidental>natural</accidental>
                <stem>up</stem>
                <beam number="1">end</beam>
                <lyric number="1">
                    <syllabic>single</syllabic>
                    <text>si</text>
                </lyric>
                <lyric number="2">
                    <syllabic>begin</syllabic>
                    <text>l'se</text>
                </lyric>
                <lyric number="3">
                    <syllabic>begin</syllabic>
                    <text>an</text>
                </lyric>
            </note>
            <note default-y="-35.00" default-x="112.14">
                <pitch>
                    <step>F</step>
                    <alter>1</alter>
                    <octave>4</octave>
                </pitch>
                <duration>2</duration>
                <voice>1</voice>
                <type>quarter</type>
                <accidental>sharp</accidental>
                <stem>up</stem>
                <lyric number="1">
                    <syllabic>single</syllabic>
                    <text>li</text>
                </lyric>
                <lyric number="2">
                    <syllabic>middle</syllabic>
                    <text>maj</text>
                </lyric>
                <lyric number="3">
                    <syllabic>middle</syllabic>
                    <text>ko</text>
                </lyric>
            </note>
            <note default-y="-45.00" default-x="168.47">
                <pitch>
                    <step>D</step>
                    <octave>4</octave>
                </pitch>
                <duration>2</duration>
                <voice>1</voice>
                <type>quarter</type>
                <stem>up</stem>
                <lyric number="1">
                    <syllabic>begin</syllabic>
                    <text>kan</text>
                </lyric>
                <lyric number="2">
                    <syllabic>end</syllabic>
                    <text>no</text>
                </lyric>
                <lyric number="3">
                    <syllabic>end</syllabic>
                    <text>raŭ</text>
                </lyric>
            </note>
        </measure>
        <measure width="213.03" number="6">
            <print new-system="yes">
                <system-layout>
                    <system-margins>
                        <left-margin>49.70</left-margin>
                        <right-margin>-0.00</right-margin>
                    </system-margins>
                    <system-distance>156.80</system-distance>
                </system-layout>
            </print>
            <harmony print-frame="no">
                <root>
                    <root-step>G</root-step>
                </root>
                <kind text="m">minor</kind>
            </harmony>
            <note default-y="-30.00" default-x="82.80">
                <pitch>
                    <step>G</step>
                    <octave>4</octave>
                </pitch>
                <duration>4</duration>
                <voice>1</voice>
                <type>half</type>
                <stem>up</stem>
                <lyric number="1">
                    <syllabic>middle</syllabic>
                    <text>te</text>
                </lyric>
                <lyric number="2">
                    <syllabic>single</syllabic>
                    <text>al</text>
                </lyric>
                <lyric number="3">
                    <syllabic>begin</syllabic>
                    <text>lu</text>
                </lyric>
            </note>
            <note default-y="-20.00" default-x="161.96">
                <pitch>
                    <step>B</step>
                    <alter>-1</alter>
                    <octave>4</octave>
                </pitch>
                <duration>2</duration>
                <voice>1</voice>
                <type>quarter</type>
                <stem>down</stem>
                <lyric number="1">
                    <syllabic>end</syllabic>
                    <text>tas:</text>
                </lyric>
                <lyric number="2">
                    <syllabic>begin</syllabic>
                    <text>drin</text>
                </lyric>
                <lyric number="3">
                    <syllabic>end</syllabic>
                    <text>dus</text>
                </lyric>
            </note>
        </measure>
        <measure width="220.90" number="7">
            <note default-y="-10.00" default-x="20.66">
                <pitch>
                    <step>D</step>
                    <octave>5</octave>
                </pitch>
                <duration>1</duration>
                <voice>1</voice>
                <type>eighth</type>
                <stem>down</stem>
                <beam number="1">begin</beam>
                <lyric number="1">
                    <syllabic>begin</syllabic>
                    <text>&quot;da</text>
                </lyric>
                <lyric number="2">
                    <syllabic>middle</syllabic>
                    <text>ke</text>
                </lyric>
                <lyric number="3">
                    <syllabic>begin</syllabic>
                    <text>i</text>
                </lyric>
            </note>
            <harmony relative-x="100.00" print-frame="no">
                <root>
                    <root-step>A</root-step>
                </root>
                <kind text="7">dominant</kind>
                <offset>1</offset>
            </harmony>
            <note default-y="-10.00" default-x="58.86">
                <pitch>
                    <step>D</step>
                    <octave>5</octave>
                </pitch>
                <duration>1</duration>
                <voice>1</voice>
                <type>eighth</type>
                <stem>down</stem>
                <beam number="1">end</beam>
                <lyric number="1">
                    <syllabic>end</syllabic>
                    <text>na,</text>
                </lyric>
                <lyric number="2">
                    <syllabic>end</syllabic>
                    <text>jo</text>
                </lyric>
                <lyric number="3">
                    <syllabic>end</syllabic>
                    <text>li,</text>
                </lyric>
            </note>
            <harmony relative-x="100.00" print-frame="no">
                <root>
                    <root-step>A</root-step>
                </root>
                <kind text="7">dominant</kind>
            </harmony>
            <note default-y="-15.00" default-x="97.06">
                <pitch>
                    <step>C</step>
                    <alter>1</alter>
                    <octave>5</octave>
                </pitch>
                <duration>2</duration>
                <voice>1</voice>
                <type>quarter</type>
                <accidental>sharp</accidental>
                <stem>down</stem>
                <lyric number="1">
                    <syllabic>begin</syllabic>
                    <text>da</text>
                </lyric>
                <lyric number="2">
                    <syllabic>single</syllabic>
                    <text>li</text>
                </lyric>
                <lyric number="3">
                    <syllabic>single</syllabic>
                    <text>jes,</text>
                </lyric>
            </note>
            <note default-y="-25.00" default-x="158.18">
                <pitch>
                    <step>A</step>
                    <octave>4</octave>
                </pitch>
                <duration>2</duration>
                <voice>1</voice>
                <type>quarter</type>
                <stem>up</stem>
                <lyric number="1">
                    <syllabic>end</syllabic>
                    <text>na&quot;</text>
                </lyric>
                <lyric number="2">
                    <syllabic>single</syllabic>
                    <text>ne</text>
                </lyric>
                <lyric number="3">
                    <syllabic>single</syllabic>
                    <text>li</text>
                </lyric>
            </note>
        </measure>
        <measure width="169.03" number="8">
            <harmony print-frame="no">
                <root>
                    <root-step>D</root-step>
                </root>
                <kind text="">major</kind>
            </harmony>
            <note default-y="-10.00" default-x="21.72">
                <pitch>
                    <step>D</step>
                    <octave>5</octave>
                </pitch>
                <duration>2</duration>
                <voice>1</voice>
                <type>quarter</type>
                <stem>down</stem>
                <lyric number="1">
                    <syllabic>begin</syllabic>
                    <text>i</text>
                </lyric>
                <lyric number="2">
                    <syllabic>begin</syllabic>
                    <text>i</text>
                </lyric>
                <lyric number="3">
                    <syllabic>begin</syllabic>
                    <text>dan</text>
                </lyric>
            </note>
            <note default-y="-10.00" default-x="65.79">
                <pitch>
                    <step>D</step>
                    <octave>5</octave>
                </pitch>
                <duration>2</duration>
                <voice>1</voice>
                <type>quarter</type>
                <stem>down</stem>
                <lyric number="1">
                    <syllabic>end</syllabic>
                    <text>am.</text>
                </lyric>
                <lyric number="2">
                    <syllabic>end</syllabic>
                    <text>ris.</text>
                </lyric>
                <lyric number="3">
                    <syllabic>end</syllabic>
                    <text>cus.</text>
                </lyric>
            </note>
            <note>
                <rest/>
                <duration>2</duration>
                <voice>1</voice>
                <type>quarter</type>
            </note>
        </measure>
        <measure width="212.49" number="9">
            <barline location="left">
                <bar-style>heavy-light</bar-style>
                <repeat direction="forward"/>
            </barline>
            <direction>
                <direction-type>
                    <words default-y="100">B♭</words>
                </direction-type>
            </direction>
            <note default-y="-10.00" default-x="22.03">
                <pitch>
                    <step>D</step>
                    <octave>5</octave>
                </pitch>
                <duration>1</duration>
                <voice>1</voice>
                <type>eighth</type>
                <stem>down</stem>
                <beam number="1">begin</beam>
                <lyric number="1">
                    <syllabic>begin</syllabic>
                    <text>Ki</text>
                </lyric>
                <lyric number="2">
                    <syllabic>single</syllabic>
                    <text>Ho,</text>
                </lyric>
                <lyric number="3">
                    <syllabic>single</syllabic>
                    <text>Ĉar</text>
                </lyric>
            </note>
            <note default-y="-10.00" default-x="60.03">
                <pitch>
                    <step>D</step>
                    <octave>5</octave>
                </pitch>
                <duration>1</duration>
                <voice>1</voice>
                <type>eighth</type>
                <stem>down</stem>
                <beam number="1">end</beam>
                <lyric number="1">
                    <syllabic>end</syllabic>
                    <text>u</text>
                </lyric>
                <lyric number="3">
                    <syllabic>begin</syllabic>
                    <text>ma</text>
                </lyric>
            </note>
            <note default-y="-20.00" default-x="95.95">
                <pitch>
                    <step>B</step>
                    <alter>-1</alter>
                    <octave>4</octave>
                </pitch>
                <duration>2</duration>
                <voice>1</voice>
                <type>quarter</type>
                <stem>down</stem>
                <lyric number="1">
                    <syllabic>begin</syllabic>
                    <text>an</text>
                </lyric>
                <lyric number="2">
                    <syllabic>begin</syllabic>
                    <text>ki</text>
                </lyric>
                <lyric number="3">
                    <syllabic>middle</syllabic>
                    <text>zu</text>
                </lyric>
            </note>
            <note default-y="-10.00" default-x="153.42">
                <pitch>
                    <step>D</step>
                    <octave>5</octave>
                </pitch>
                <duration>2</duration>
                <voice>1</voice>
                <type>quarter</type>
                <stem>down</stem>
                <lyric number="1">
                    <syllabic>end</syllabic>
                    <text>taŭ</text>
                </lyric>
                <lyric number="2">
                    <syllabic>end</syllabic>
                    <text>u</text>
                </lyric>
                <lyric number="3">
                    <syllabic>end</syllabic>
                    <text>ro</text>
                </lyric>
            </note>
        </measure>
        <measure width="212.02" number="10">
            <harmony relative-x="100.00" print-frame="no">
                <root>
                    <root-step>D</root-step>
                </root>
                <kind text="7">dominant</kind>
            </harmony>
            <note default-y="-15.00" default-x="13.41">
                <pitch>
                    <step>C</step>
                    <octave>5</octave>
                </pitch>
                <duration>1</duration>
                <voice>1</voice>
                <type>eighth</type>
                <stem>down</stem>
                <beam number="1">begin</beam>
                <lyric number="1">
                    <syllabic>single</syllabic>
                    <text>li</text>
                </lyric>
                <lyric number="2">
                    <syllabic>single</syllabic>
                    <text>al</text>
                </lyric>
                <lyric number="3">
                    <syllabic>begin</syllabic>
                    <text>ti</text>
                </lyric>
            </note>
            <note default-y="-15.00" default-x="51.30">
                <pitch>
                    <step>C</step>
                    <octave>5</octave>
                </pitch>
                <duration>1</duration>
                <voice>1</voice>
                <type>eighth</type>
                <stem>down</stem>
                <beam number="1">end</beam>
                <lyric number="1">
                    <syllabic>begin</syllabic>
                    <text>ba</text>
                </lyric>
                <lyric number="2">
                    <syllabic>single</syllabic>
                    <text>ni</text>
                </lyric>
                <lyric number="3">
                    <syllabic>end</syllabic>
                    <text>a</text>
                </lyric>
            </note>
            <note default-y="-25.00" default-x="89.18">
                <pitch>
                    <step>A</step>
                    <octave>4</octave>
                </pitch>
                <duration>2</duration>
                <voice>1</voice>
                <type>quarter</type>
                <stem>up</stem>
                <lyric number="1">
                    <syllabic>middle</syllabic>
                    <text>ri</text>
                </lyric>
                <lyric number="2">
                    <syllabic>begin</syllabic>
                    <text>kan</text>
                </lyric>
                <lyric number="3">
                    <syllabic>begin</syllabic>
                    <text>es</text>
                </lyric>
            </note>
            <note default-y="-15.00" default-x="149.80">
                <pitch>
                    <step>C</step>
                    <octave>5</octave>
                </pitch>
                <duration>2</duration>
                <voice>1</voice>
                <type>quarter</type>
                <stem>down</stem>
                <lyric number="1">
                    <syllabic>end</syllabic>
                    <text>ĝas,</text>
                </lyric>
                <lyric number="2">
                    <syllabic>end</syllabic>
                    <text>tos,</text>
                </lyric>
                <lyric number="3">
                    <syllabic>end</syllabic>
                    <text>tas,</text>
                </lyric>
            </note>
        </measure>
        <measure width="255.58" number="11">
            <print new-system="yes">
                <system-layout>
                    <system-margins>
                        <left-margin>49.70</left-margin>
                        <right-margin>-0.00</right-margin>
                    </system-margins>
                    <system-distance>156.80</system-distance>
                </system-layout>
            </print>
            <harmony print-frame="no">
                <root>
                    <root-step>G</root-step>
                </root>
                <kind text="m">minor</kind>
            </harmony>
            <note default-y="-20.00" default-x="83.64">
                <pitch>
                    <step>B</step>
                    <alter>-1</alter>
                    <octave>4</octave>
                </pitch>
                <duration>1</duration>
                <voice>1</voice>
                <type>eighth</type>
                <stem>down</stem>
                <beam number="1">begin</beam>
                <lyric number="1">
                    <syllabic>begin</syllabic>
                    <text>Ti</text>
                </lyric>
                <lyric number="2">
                    <syllabic>begin</syllabic>
                    <text>ki</text>
                </lyric>
                <lyric number="3">
                    <syllabic>single</syllabic>
                    <text>li</text>
                </lyric>
            </note>
            <note default-y="-20.00" default-x="117.00">
                <pitch>
                    <step>B</step>
                    <alter>-1</alter>
                    <octave>4</octave>
                </pitch>
                <duration>1</duration>
                <voice>1</voice>
                <type>eighth</type>
                <stem>down</stem>
                <beam number="1">end</beam>
                <lyric number="1">
                    <syllabic>end</syllabic>
                    <text>u</text>
                </lyric>
                <lyric number="2">
                    <syllabic>end</syllabic>
                    <text>u</text>
                </lyric>
                <lyric number="3">
                    <syllabic>begin</syllabic>
                    <text>mo</text>
                </lyric>
            </note>
            <note default-y="-30.00" default-x="149.62">
                <pitch>
                    <step>G</step>
                    <octave>4</octave>
                </pitch>
                <duration>2</duration>
                <voice>1</voice>
                <type>quarter</type>
                <stem>up</stem>
                <lyric number="1">
                    <syllabic>single</syllabic>
                    <text>de</text>
                </lyric>
                <lyric number="2">
                    <syllabic>begin</syllabic>
                    <text>bi</text>
                </lyric>
                <lyric number="3">
                    <syllabic>middle</syllabic>
                    <text>ci</text>
                </lyric>
            </note>
            <note default-y="-20.00" default-x="201.80">
                <pitch>
                    <step>B</step>
                    <alter>-1</alter>
                    <octave>4</octave>
                </pitch>
                <duration>2</duration>
                <voice>1</voice>
                <type>quarter</type>
                <stem>down</stem>
                <lyric number="1">
                    <syllabic>single</syllabic>
                    <text>li</text>
                </lyric>
                <lyric number="2">
                    <syllabic>middle</syllabic>
                    <text>e</text>
                </lyric>
                <lyric number="3">
                    <syllabic>end</syllabic>
                    <text>ĝas,</text>
                </lyric>
            </note>
        </measure>
        <measure width="195.61" number="12">
            <harmony print-frame="no">
                <root>
                    <root-step>D</root-step>
                </root>
                <kind text="7">dominant</kind>
            </harmony>
            <note default-y="-25.00" default-x="20.44">
                <pitch>
                    <step>A</step>
                    <octave>4</octave>
                </pitch>
                <duration>1</duration>
                <voice>1</voice>
                <type>eighth</type>
                <stem>up</stem>
                <beam number="1">begin</beam>
                <lyric number="1">
                    <syllabic>begin</syllabic>
                    <text>ba</text>
                </lyric>
                <lyric number="2">
                    <syllabic>end</syllabic>
                    <text>ron</text>
                </lyric>
                <lyric number="3">
                    <syllabic>begin</syllabic>
                    <text>ki</text>
                </lyric>
            </note>
            <note default-y="-25.00" default-x="56.84">
                <pitch>
                    <step>A</step>
                    <octave>4</octave>
                </pitch>
                <duration>1</duration>
                <voice>1</voice>
                <type>eighth</type>
                <stem>up</stem>
                <beam number="1">end</beam>
                <lyric number="1">
                    <syllabic>middle</syllabic>
                    <text>ti</text>
                </lyric>
                <lyric number="2">
                    <syllabic>begin</syllabic>
                    <text>a</text>
                </lyric>
                <lyric number="3">
                    <syllabic>end</syllabic>
                    <text>am</text>
                </lyric>
            </note>
            <note default-y="-35.00" default-x="89.60">
                <pitch>
                    <step>F</step>
                    <alter>1</alter>
                    <octave>4</octave>
                </pitch>
                <duration>2</duration>
                <voice>1</voice>
                <type>quarter</type>
                <accidental>sharp</accidental>
                <stem>up</stem>
                <lyric number="1">
                    <syllabic>middle</syllabic>
                    <text>ti</text>
                </lyric>
                <lyric number="2">
                    <syllabic>middle</syllabic>
                    <text>ĉe</text>
                </lyric>
                <lyric number="3">
                    <syllabic>begin</syllabic>
                    <text>lu</text>
                </lyric>
            </note>
            <note default-y="-45.00" default-x="141.81">
                <pitch>
                    <step>D</step>
                    <octave>4</octave>
                </pitch>
                <duration>2</duration>
                <voice>1</voice>
                <type>quarter</type>
                <stem>up</stem>
                <lyric number="1">
                    <syllabic>end</syllabic>
                    <text>ĝas.</text>
                </lyric>
                <lyric number="2">
                    <syllabic>end</syllabic>
                    <text>tos,</text>
                </lyric>
                <lyric number="3">
                    <syllabic>end</syllabic>
                    <text>das.</text>
                </lyric>
            </note>
        </measure>
        <measure width="218.69" number="13">
            <note default-y="-45.00" default-x="22.03">
                <pitch>
                    <step>D</step>
                    <octave>4</octave>
                </pitch>
                <duration>2</duration>
                <voice>1</voice>
                <type>quarter</type>
                <stem>up</stem>
                <lyric number="1">
                    <syllabic>single</syllabic>
                    <text>Ho,</text>
                </lyric>
                <lyric number="2">
                    <syllabic>single</syllabic>
                    <text>Ho,</text>
                </lyric>
                <lyric number="3">
                    <syllabic>single</syllabic>
                    <text>Ho,</text>
                </lyric>
            </note>
            <note default-y="-35.00" default-x="77.76">
                <pitch>
                    <step>F</step>
                    <alter>1</alter>
                    <octave>4</octave>
                </pitch>
                <duration>1</duration>
                <voice>1</voice>
                <type>eighth</type>
                <accidental>sharp</accidental>
                <stem>up</stem>
                <beam number="1">begin</beam>
                <lyric number="1">
                    <syllabic>begin</syllabic>
                    <text>da</text>
                </lyric>
                <lyric number="2">
                    <syllabic>begin</syllabic>
                    <text>da</text>
                </lyric>
                <lyric number="3">
                    <syllabic>begin</syllabic>
                    <text>da</text>
                </lyric>
            </note>
            <note default-y="-45.00" default-x="112.59">
                <pitch>
                    <step>D</step>
                    <octave>4</octave>
                </pitch>
                <duration>1</duration>
                <voice>1</voice>
                <type>eighth</type>
                <stem>up</stem>
                <beam number="1">end</beam>
                <lyric number="1">
                    <syllabic>end</syllabic>
                    <text>na,</text>
                </lyric>
                <lyric number="2">
                    <syllabic>end</syllabic>
                    <text>na,</text>
                </lyric>
                <lyric number="3">
                    <syllabic>end</syllabic>
                    <text>na,</text>
                </lyric>
            </note>
            <note default-y="-35.00" default-x="147.42">
                <pitch>
                    <step>F</step>
                    <alter>1</alter>
                    <octave>4</octave>
                </pitch>
                <duration>1</duration>
                <voice>1</voice>
                <type>eighth</type>
                <stem>up</stem>
                <beam number="1">begin</beam>
                <lyric number="1">
                    <syllabic>begin</syllabic>
                    <text>da</text>
                </lyric>
                <lyric number="2">
                    <syllabic>begin</syllabic>
                    <text>da</text>
                </lyric>
                <lyric number="3">
                    <syllabic>begin</syllabic>
                    <text>da</text>
                </lyric>
            </note>
            <note default-y="-45.00" default-x="182.25">
                <pitch>
                    <step>D</step>
                    <octave>4</octave>
                </pitch>
                <duration>1</duration>
                <voice>1</voice>
                <type>eighth</type>
                <stem>up</stem>
                <beam number="1">end</beam>
                <lyric number="1">
                    <syllabic>end</syllabic>
                    <text>na,</text>
                </lyric>
                <lyric number="2">
                    <syllabic>end</syllabic>
                    <text>na,</text>
                </lyric>
                <lyric number="3">
                    <syllabic>end</syllabic>
                    <text>na,</text>
                </lyric>
            </note>
        </measure>
        <measure width="113.73" number="14">
            <harmony print-frame="no">
                <root>
                    <root-step>G</root-step>
                </root>
                <kind text="m">minor</kind>
            </harmony>
            <note default-y="-30.00" default-x="15.96">
                <pitch>
                    <step>G</step>
                    <octave>4</octave>
                </pitch>
                <duration>4</duration>
                <voice>1</voice>
                <type>half</type>
                <stem>up</stem>
                <lyric number="1">
                    <syllabic>begin</syllabic>
                    <text>da</text>
                </lyric>
                <lyric number="2">
                    <syllabic>begin</syllabic>
                    <text>da</text>
                </lyric>
                <lyric number="3">
                    <syllabic>begin</syllabic>
                    <text>da</text>
                </lyric>
            </note>
            <note default-y="-20.00" default-x="75.14">
                <pitch>
                    <step>B</step>
                    <alter>-1</alter>
                    <octave>4</octave>
                </pitch>
                <duration>2</duration>
                <voice>1</voice>
                <type>quarter</type>
                <stem>down</stem>
                <lyric number="1">
                    <syllabic>end</syllabic>
                    <text>na,</text>
                </lyric>
                <lyric number="2">
                    <syllabic>end</syllabic>
                    <text>na,</text>
                </lyric>
                <lyric number="3">
                    <syllabic>end</syllabic>
                    <text>na,</text>
                </lyric>
            </note>
        </measure>
        <measure width="113.73" number="15">
            <harmony print-frame="no">
                <root>
                    <root-step>D</root-step>
                </root>
                <kind text="7">dominant</kind>
            </harmony>
            <note default-y="-25.00" default-x="15.96">
                <pitch>
                    <step>A</step>
                    <octave>4</octave>
                </pitch>
                <duration>4</duration>
                <voice>1</voice>
                <type>half</type>
                <stem>up</stem>
                <lyric number="1">
                    <syllabic>begin</syllabic>
                    <text>da</text>
                </lyric>
                <lyric number="2">
                    <syllabic>begin</syllabic>
                    <text>da</text>
                </lyric>
                <lyric number="3">
                    <syllabic>begin</syllabic>
                    <text>da</text>
                </lyric>
            </note>
            <note default-y="-15.00" default-x="75.14">
                <pitch>
                    <step>C</step>
                    <octave>5</octave>
                </pitch>
                <duration>2</duration>
                <voice>1</voice>
                <type>quarter</type>
                <stem>down</stem>
                <lyric number="1">
                    <syllabic>end</syllabic>
                    <text>na,</text>
                </lyric>
                <lyric number="2">
                    <syllabic>end</syllabic>
                    <text>na,</text>
                </lyric>
                <lyric number="3">
                    <syllabic>end</syllabic>
                    <text>na,</text>
                </lyric>
            </note>
        </measure>
        <measure width="130.15" number="16">
            <harmony print-frame="no">
                <root>
                    <root-step>G</root-step>
                </root>
                <kind text="m">minor</kind>
            </harmony>
            <note default-y="-20.00" default-x="15.96">
                <pitch>
                    <step>B</step>
                    <alter>-1</alter>
                    <octave>4</octave>
                </pitch>
                <duration>1</duration>
                <voice>1</voice>
                <type>eighth</type>
                <stem>up</stem>
                <beam number="1">begin</beam>
                <lyric number="1">
                    <syllabic>begin</syllabic>
                    <text>da</text>
                </lyric>
                <lyric number="2">
                    <syllabic>single</syllabic>
                    <text>da</text>
                </lyric>
                <lyric number="3">
                    <syllabic>begin</syllabic>
                    <text>da</text>
                </lyric>
            </note>
            <note default-y="-25.00" default-x="36.80">
                <pitch>
                    <step>A</step>
                    <octave>4</octave>
                </pitch>
                <duration>1</duration>
                <voice>1</voice>
                <type>eighth</type>
                <stem>up</stem>
                <beam number="1">end</beam>
            </note>
            <note default-y="-30.00" default-x="69.20">
                <pitch>
                    <step>G</step>
                    <octave>4</octave>
                </pitch>
                <duration>4</duration>
                <voice>1</voice>
                <type>half</type>
                <stem>up</stem>
                <lyric number="1">
                    <syllabic>end</syllabic>
                    <text>na.</text>
                </lyric>
                <lyric number="2">
                    <syllabic>single</syllabic>
                    <text>na.</text>
                </lyric>
                <lyric number="3">
                    <syllabic>end</syllabic>
                    <text>na.</text>
                </lyric>
            </note>
            <barline location="right">
                <bar-style>light-heavy</bar-style>
                <repeat direction="backward"/>
            </barline>
        </measure>
    </part>
</score-partwise>
