<?xml version="1.0" encoding="UTF-8"?>
<!DOCTYPE score-partwise PUBLIC "-//Recordare//DTD MusicXML 2.0 Partwise//EN" "http://www.musicxml.org/dtds/partwise.dtd">
<score-partwise version="2.0">
    <work>
        <work-number></work-number>
        <work-title></work-title>
    </work>
    <movement-number></movement-number>
    <movement-title>That's The Way Boys Are</movement-title>
    <identification>
        <creator type="composer">Raleigh</creator>
        <creator type="poet">Barkan </creator>
        <rights>Creative Commons BY</rights>
        <encoding>
            <software>Finale SongWriter for Windows</software>
            <software>Dolet Light for Finale SongWriter 2007</software>
            <encoding-date>2011-11-02</encoding-date>
            <software>ProxyMusic 2.0 c</software>
        </encoding>
        <source>http://wikifonia.org/node/13364/revisions/18090/view</source>
    </identification>
    <part-list>
        <score-part id="P1">
            <part-name>MusicXML Part</part-name>
            <score-instrument id="P1-I1">
                <instrument-name>Instrument 1</instrument-name>
            </score-instrument>
            <midi-instrument id="P1-I1">
                <midi-channel>1</midi-channel>
                <midi-program>1</midi-program>
            </midi-instrument>
        </score-part>
    </part-list>
    <part id="P1">
        <measure number="1">
            <attributes>
                <divisions>4</divisions>
                <key>
                    <fifths>-3</fifths>
                    <mode>major</mode>
                </key>
                <time symbol="common">
                    <beats>4</beats>
                    <beat-type>4</beat-type>
                </time>
                <clef>
                    <sign>G</sign>
                    <line>2</line>
                </clef>
            </attributes>
            <sound tempo="120"/>
            <harmony default-y="40">
                <root>
                    <root-step>E</root-step>
                    <root-alter>-1</root-alter>
                </root>
                <kind>major</kind>
            </harmony>
            <note>
                <pitch>
                    <step>G</step>
                    <octave>4</octave>
                </pitch>
                <duration>4</duration>
                <voice>1</voice>
                <type>quarter</type>
                <stem>up</stem>
            </note>
            <note>
                <pitch>
                    <step>G</step>
                    <octave>4</octave>
                </pitch>
                <duration>3</duration>
                <voice>1</voice>
                <type>eighth</type>
                <dot/>
                <stem>up</stem>
                <beam number="1">begin</beam>
            </note>
            <note>
                <pitch>
                    <step>G</step>
                    <alter>-1</alter>
                    <octave>4</octave>
                </pitch>
                <duration>1</duration>
                <voice>1</voice>
                <type>16th</type>
                <accidental>flat</accidental>
                <stem>up</stem>
                <beam number="1">end</beam>
                <beam number="2">backward hook</beam>
            </note>
            <note>
                <pitch>
                    <step>G</step>
                    <octave>4</octave>
                </pitch>
                <duration>4</duration>
                <voice>1</voice>
                <type>quarter</type>
                <accidental>natural</accidental>
                <stem>up</stem>
            </note>
            <note>
                <pitch>
                    <step>E</step>
                    <alter>-1</alter>
                    <octave>4</octave>
                </pitch>
                <duration>4</duration>
                <voice>1</voice>
                <type>quarter</type>
                <stem>up</stem>
            </note>
        </measure>
        <measure number="2">
            <harmony default-y="40">
                <root>
                    <root-step>A</root-step>
                    <root-alter>-1</root-alter>
                </root>
                <kind>major</kind>
            </harmony>
            <note>
                <pitch>
                    <step>C</step>
                    <octave>5</octave>
                </pitch>
                <duration>8</duration>
                <voice>1</voice>
                <type>half</type>
                <stem>down</stem>
            </note>
            <harmony default-y="40">
                <root>
                    <root-step>B</root-step>
                    <root-alter>-1</root-alter>
                </root>
                <kind>major</kind>
            </harmony>
            <note>
                <pitch>
                    <step>B</step>
                    <alter>-1</alter>
                    <octave>4</octave>
                </pitch>
                <duration>8</duration>
                <voice>1</voice>
                <type>half</type>
                <stem>down</stem>
            </note>
        </measure>
        <measure number="3">
            <harmony default-y="40">
                <root>
                    <root-step>E</root-step>
                    <root-alter>-1</root-alter>
                </root>
                <kind>major</kind>
            </harmony>
            <note>
                <pitch>
                    <step>G</step>
                    <octave>4</octave>
                </pitch>
                <duration>4</duration>
                <voice>1</voice>
                <type>quarter</type>
                <stem>up</stem>
            </note>
            <note>
                <pitch>
                    <step>G</step>
                    <octave>4</octave>
                </pitch>
                <duration>3</duration>
                <voice>1</voice>
                <type>eighth</type>
                <dot/>
                <stem>up</stem>
                <beam number="1">begin</beam>
            </note>
            <note>
                <pitch>
                    <step>G</step>
                    <alter>-1</alter>
                    <octave>4</octave>
                </pitch>
                <duration>1</duration>
                <voice>1</voice>
                <type>16th</type>
                <accidental>flat</accidental>
                <stem>up</stem>
                <beam number="1">end</beam>
                <beam number="2">backward hook</beam>
            </note>
            <note>
                <pitch>
                    <step>G</step>
                    <octave>4</octave>
                </pitch>
                <duration>4</duration>
                <voice>1</voice>
                <type>quarter</type>
                <accidental>natural</accidental>
                <stem>up</stem>
            </note>
            <note>
                <pitch>
                    <step>E</step>
                    <alter>-1</alter>
                    <octave>4</octave>
                </pitch>
                <duration>4</duration>
                <voice>1</voice>
                <type>quarter</type>
                <stem>up</stem>
            </note>
        </measure>
        <measure number="4">
            <harmony default-y="40">
                <root>
                    <root-step>A</root-step>
                    <root-alter>-1</root-alter>
                </root>
                <kind>major</kind>
            </harmony>
            <note>
                <pitch>
                    <step>C</step>
                    <octave>5</octave>
                </pitch>
                <duration>8</duration>
                <voice>1</voice>
                <type>half</type>
                <stem>down</stem>
            </note>
            <harmony default-y="40">
                <root>
                    <root-step>B</root-step>
                    <root-alter>-1</root-alter>
                </root>
                <kind>major</kind>
            </harmony>
            <note>
                <pitch>
                    <step>B</step>
                    <alter>-1</alter>
                    <octave>4</octave>
                </pitch>
                <duration>4</duration>
                <voice>1</voice>
                <type>quarter</type>
                <stem>down</stem>
            </note>
            <note>
                <pitch>
                    <step>E</step>
                    <alter>-1</alter>
                    <octave>4</octave>
                </pitch>
                <duration>2</duration>
                <voice>1</voice>
                <type>eighth</type>
                <stem>up</stem>
                <beam number="1">begin</beam>
                <lyric number="1">
                    <syllabic>single</syllabic>
                    <text font-weight="bold">When</text>
                </lyric>
            </note>
            <note>
                <pitch>
                    <step>F</step>
                    <octave>4</octave>
                </pitch>
                <duration>2</duration>
                <voice>1</voice>
                <type>eighth</type>
                <stem>up</stem>
                <beam number="1">end</beam>
                <lyric number="1">
                    <syllabic>single</syllabic>
                    <text font-weight="bold">I'm</text>
                </lyric>
            </note>
        </measure>
        <measure number="5">
            <print new-system="yes"/>
            <barline location="left">
                <bar-style>heavy-light</bar-style>
                <repeat direction="forward"/>
            </barline>
            <harmony default-y="40">
                <root>
                    <root-step>E</root-step>
                    <root-alter>-1</root-alter>
                </root>
                <kind>major</kind>
            </harmony>
            <note>
                <pitch>
                    <step>G</step>
                    <octave>4</octave>
                </pitch>
                <duration>4</duration>
                <voice>1</voice>
                <type>quarter</type>
                <stem>up</stem>
                <lyric number="1">
                    <syllabic>single</syllabic>
                    <text font-weight="bold">with</text>
                </lyric>
                <lyric number="2">
                    <syllabic>single</syllabic>
                    <text font-weight="bold">treats</text>
                </lyric>
                <lyric number="3">
                    <syllabic>single</syllabic>
                    <text font-weight="bold">have</text>
                </lyric>
            </note>
            <note>
                <pitch>
                    <step>G</step>
                    <octave>4</octave>
                </pitch>
                <duration>3</duration>
                <voice>1</voice>
                <type>eighth</type>
                <dot/>
                <stem>up</stem>
                <beam number="1">begin</beam>
                <lyric number="1">
                    <syllabic>single</syllabic>
                    <text font-weight="bold">my</text>
                </lyric>
                <lyric number="2">
                    <syllabic>single</syllabic>
                    <text font-weight="bold">me</text>
                </lyric>
                <lyric number="3">
                    <syllabic>single</syllabic>
                    <text font-weight="bold">a</text>
                    <extend/>
                </lyric>
            </note>
            <note>
                <pitch>
                    <step>F</step>
                    <octave>4</octave>
                </pitch>
                <duration>1</duration>
                <voice>1</voice>
                <type>16th</type>
                <stem>up</stem>
                <beam number="1">end</beam>
                <beam number="2">backward hook</beam>
                <lyric number="1">
                    <syllabic>single</syllabic>
                    <text font-weight="bold">guy</text>
                    <extend/>
                </lyric>
                <lyric number="2">
                    <syllabic>single</syllabic>
                    <text font-weight="bold">rough</text>
                    <extend/>
                </lyric>
            </note>
            <harmony default-y="40">
                <root>
                    <root-step>G</root-step>
                </root>
                <kind>minor</kind>
            </harmony>
            <note>
                <pitch>
                    <step>G</step>
                    <octave>4</octave>
                </pitch>
                <duration>4</duration>
                <voice>1</voice>
                <type>quarter</type>
                <stem>up</stem>
                <lyric number="3">
                    <syllabic>single</syllabic>
                    <text font-weight="bold">fight</text>
                    <extend/>
                </lyric>
            </note>
            <note>
                <pitch>
                    <step>G</step>
                    <octave>4</octave>
                </pitch>
                <duration>3</duration>
                <voice>1</voice>
                <type>eighth</type>
                <dot/>
                <stem>up</stem>
                <beam number="1">begin</beam>
                <lyric number="1">
                    <syllabic>single</syllabic>
                    <text font-weight="bold">and</text>
                </lyric>
                <lyric number="2">
                    <syllabic>single</syllabic>
                    <text font-weight="bold">and</text>
                </lyric>
            </note>
            <note>
                <pitch>
                    <step>F</step>
                    <octave>4</octave>
                </pitch>
                <duration>1</duration>
                <voice>1</voice>
                <type>16th</type>
                <stem>up</stem>
                <beam number="1">end</beam>
                <beam number="2">backward hook</beam>
                <lyric number="1">
                    <syllabic>single</syllabic>
                    <text font-weight="bold">he</text>
                </lyric>
                <lyric number="2">
                    <syllabic>single</syllabic>
                    <text font-weight="bold">he</text>
                </lyric>
                <lyric number="3">
                    <syllabic>single</syllabic>
                    <text font-weight="bold">I</text>
                </lyric>
            </note>
        </measure>
        <measure number="6">
            <harmony default-y="40">
                <root>
                    <root-step>A</root-step>
                    <root-alter>-1</root-alter>
                </root>
                <kind>major-seventh</kind>
            </harmony>
            <note>
                <pitch>
                    <step>G</step>
                    <octave>4</octave>
                </pitch>
                <duration>3</duration>
                <voice>1</voice>
                <type>eighth</type>
                <dot/>
                <stem>up</stem>
                <beam number="1">begin</beam>
                <lyric number="1">
                    <syllabic>single</syllabic>
                    <text font-weight="bold">wat</text>
                </lyric>
                <lyric number="2">
                    <syllabic>single</syllabic>
                    <text font-weight="bold">acts</text>
                </lyric>
                <lyric number="3">
                    <syllabic>single</syllabic>
                    <text font-weight="bold">think</text>
                </lyric>
            </note>
            <note>
                <pitch>
                    <step>F</step>
                    <octave>4</octave>
                </pitch>
                <duration>1</duration>
                <voice>1</voice>
                <type>16th</type>
                <stem>up</stem>
                <beam number="1">end</beam>
                <beam number="2">backward hook</beam>
                <lyric number="1">
                    <syllabic>single</syllabic>
                    <text font-weight="bold">ches</text>
                </lyric>
                <lyric number="2">
                    <syllabic>single</syllabic>
                    <text font-weight="bold">as</text>
                </lyric>
                <lyric number="3">
                    <syllabic>single</syllabic>
                    <text font-weight="bold">that</text>
                </lyric>
            </note>
            <note>
                <pitch>
                    <step>G</step>
                    <octave>4</octave>
                </pitch>
                <duration>3</duration>
                <voice>1</voice>
                <type>eighth</type>
                <dot/>
                <stem>up</stem>
                <beam number="1">begin</beam>
                <lyric number="1">
                    <syllabic>single</syllabic>
                    <text font-weight="bold">all</text>
                </lyric>
                <lyric number="2">
                    <syllabic>single</syllabic>
                    <text font-weight="bold">tho</text>
                </lyric>
                <lyric number="3">
                    <syllabic>single</syllabic>
                    <text font-weight="bold">I</text>
                </lyric>
            </note>
            <note>
                <pitch>
                    <step>F</step>
                    <octave>4</octave>
                </pitch>
                <duration>1</duration>
                <voice>1</voice>
                <type>16th</type>
                <stem>up</stem>
                <beam number="1">end</beam>
                <beam number="2">backward hook</beam>
                <lyric number="1">
                    <syllabic>single</syllabic>
                    <text font-weight="bold">the</text>
                </lyric>
                <lyric number="2">
                    <syllabic>single</syllabic>
                    <text font-weight="bold">he</text>
                </lyric>
                <lyric number="3">
                    <syllabic>single</syllabic>
                    <text font-weight="bold">won't</text>
                </lyric>
            </note>
            <harmony default-y="40">
                <root>
                    <root-step>B</root-step>
                    <root-alter>-1</root-alter>
                </root>
                <kind>dominant</kind>
            </harmony>
            <note>
                <pitch>
                    <step>G</step>
                    <octave>4</octave>
                </pitch>
                <duration>2</duration>
                <voice>1</voice>
                <type>eighth</type>
                <stem>up</stem>
                <beam number="1">begin</beam>
                <lyric number="1">
                    <syllabic>single</syllabic>
                    <text font-weight="bold">pret</text>
                </lyric>
                <lyric number="2">
                    <syllabic>single</syllabic>
                    <text font-weight="bold">real</text>
                </lyric>
                <lyric number="3">
                    <syllabic>single</syllabic>
                    <text font-weight="bold">see</text>
                </lyric>
            </note>
            <note>
                <pitch>
                    <step>F</step>
                    <octave>4</octave>
                </pitch>
                <duration>2</duration>
                <voice>1</voice>
                <type>eighth</type>
                <stem>up</stem>
                <beam number="1">continue</beam>
                <lyric number="1">
                    <syllabic>single</syllabic>
                    <text font-weight="bold">ty</text>
                </lyric>
                <lyric number="2">
                    <syllabic>single</syllabic>
                    <text font-weight="bold">ly</text>
                </lyric>
                <lyric number="3">
                    <syllabic>single</syllabic>
                    <text font-weight="bold">him</text>
                </lyric>
            </note>
            <note>
                <pitch>
                    <step>E</step>
                    <alter>-1</alter>
                    <octave>4</octave>
                </pitch>
                <duration>2</duration>
                <voice>1</voice>
                <type>eighth</type>
                <stem>up</stem>
                <beam number="1">continue</beam>
                <lyric number="1">
                    <syllabic>single</syllabic>
                    <text font-weight="bold">girls</text>
                </lyric>
                <lyric number="2">
                    <syllabic>single</syllabic>
                    <text font-weight="bold">does</text>
                </lyric>
                <lyric number="3">
                    <syllabic>single</syllabic>
                    <text font-weight="bold">an</text>
                </lyric>
            </note>
            <note>
                <pitch>
                    <step>F</step>
                    <octave>4</octave>
                </pitch>
                <duration>2</duration>
                <voice>1</voice>
                <type>eighth</type>
                <stem>up</stem>
                <beam number="1">end</beam>
                <lyric number="1">
                    <syllabic>single</syllabic>
                    <text font-weight="bold">go</text>
                </lyric>
                <lyric number="2">
                    <syllabic>single</syllabic>
                    <text font-weight="bold">n't</text>
                </lyric>
                <lyric number="3">
                    <syllabic>single</syllabic>
                    <text font-weight="bold">y</text>
                </lyric>
            </note>
        </measure>
        <measure number="7">
            <harmony default-y="40">
                <root>
                    <root-step>E</root-step>
                    <root-alter>-1</root-alter>
                </root>
                <kind>major</kind>
            </harmony>
            <note>
                <pitch>
                    <step>G</step>
                    <octave>4</octave>
                </pitch>
                <duration>6</duration>
                <voice>1</voice>
                <type>quarter</type>
                <dot/>
                <stem>up</stem>
                <lyric number="1">
                    <syllabic>single</syllabic>
                    <text font-weight="bold">by</text>
                    <extend/>
                </lyric>
                <lyric number="2">
                    <syllabic>single</syllabic>
                    <text font-weight="bold">care</text>
                    <extend/>
                </lyric>
                <lyric number="3">
                    <syllabic>single</syllabic>
                    <text font-weight="bold">more</text>
                    <extend/>
                </lyric>
            </note>
            <note>
                <pitch>
                    <step>B</step>
                    <alter>-1</alter>
                    <octave>4</octave>
                </pitch>
                <duration>2</duration>
                <voice>1</voice>
                <type>eighth</type>
                <stem>down</stem>
            </note>
            <note>
                <pitch>
                    <step>G</step>
                    <octave>4</octave>
                </pitch>
                <duration>8</duration>
                <voice>1</voice>
                <type>half</type>
                <stem>up</stem>
            </note>
        </measure>
        <measure number="8">
            <harmony default-y="40">
                <root>
                    <root-step>A</root-step>
                    <root-alter>-1</root-alter>
                </root>
                <kind>major</kind>
            </harmony>
            <note>
                <rest/>
                <duration>8</duration>
                <voice>1</voice>
                <type>half</type>
            </note>
            <harmony default-y="40">
                <root>
                    <root-step>B</root-step>
                    <root-alter>-1</root-alter>
                </root>
                <kind>major</kind>
            </harmony>
            <note>
                <rest/>
                <duration>4</duration>
                <voice>1</voice>
                <type>quarter</type>
            </note>
            <note>
                <pitch>
                    <step>E</step>
                    <alter>-1</alter>
                    <octave>4</octave>
                </pitch>
                <duration>2</duration>
                <voice>1</voice>
                <type>eighth</type>
                <stem>up</stem>
                <beam number="1">begin</beam>
                <lyric number="1">
                    <syllabic>single</syllabic>
                    <text font-weight="bold">And</text>
                </lyric>
                <lyric number="2">
                    <syllabic>single</syllabic>
                    <text font-weight="bold">Well,</text>
                </lyric>
                <lyric number="3">
                    <syllabic>single</syllabic>
                    <text font-weight="bold">Then</text>
                </lyric>
            </note>
            <note>
                <pitch>
                    <step>F</step>
                    <octave>4</octave>
                </pitch>
                <duration>2</duration>
                <voice>1</voice>
                <type>eighth</type>
                <stem>up</stem>
                <beam number="1">end</beam>
                <lyric number="1">
                    <syllabic>single</syllabic>
                    <text font-weight="bold">I</text>
                </lyric>
                <lyric number="2">
                    <syllabic>single</syllabic>
                    <text font-weight="bold">I</text>
                </lyric>
                <lyric number="3">
                    <syllabic>single</syllabic>
                    <text font-weight="bold">be</text>
                </lyric>
            </note>
        </measure>
        <measure number="9">
            <print new-system="yes"/>
            <harmony default-y="40">
                <root>
                    <root-step>E</root-step>
                    <root-alter>-1</root-alter>
                </root>
                <kind>major</kind>
            </harmony>
            <note>
                <pitch>
                    <step>G</step>
                    <octave>4</octave>
                </pitch>
                <duration>4</duration>
                <voice>1</voice>
                <type>quarter</type>
                <stem>up</stem>
                <lyric number="1">
                    <syllabic>single</syllabic>
                    <text font-weight="bold">feel</text>
                </lyric>
                <lyric number="2">
                    <syllabic>single</syllabic>
                    <text font-weight="bold">nev</text>
                </lyric>
                <lyric number="3">
                    <syllabic>single</syllabic>
                    <text font-weight="bold">fore</text>
                </lyric>
            </note>
            <note>
                <pitch>
                    <step>G</step>
                    <octave>4</octave>
                </pitch>
                <duration>2</duration>
                <voice>1</voice>
                <type>eighth</type>
                <stem>up</stem>
                <beam number="1">begin</beam>
                <lyric number="1">
                    <syllabic>single</syllabic>
                    <text font-weight="bold">so</text>
                    <extend/>
                </lyric>
                <lyric number="2">
                    <syllabic>single</syllabic>
                    <text font-weight="bold">er</text>
                    <extend/>
                </lyric>
                <lyric number="3">
                    <syllabic>single</syllabic>
                    <text font-weight="bold">I</text>
                    <extend/>
                </lyric>
            </note>
            <note>
                <pitch>
                    <step>F</step>
                    <octave>4</octave>
                </pitch>
                <duration>2</duration>
                <voice>1</voice>
                <type>eighth</type>
                <stem>up</stem>
                <beam number="1">end</beam>
            </note>
            <note>
                <pitch>
                    <step>G</step>
                    <octave>4</octave>
                </pitch>
                <duration>4</duration>
                <voice>1</voice>
                <type>quarter</type>
                <stem>up</stem>
                <lyric number="1">
                    <syllabic>single</syllabic>
                    <text font-weight="bold">hurt</text>
                </lyric>
                <lyric number="2">
                    <syllabic>single</syllabic>
                    <text font-weight="bold">tell</text>
                </lyric>
                <lyric number="3">
                    <syllabic>single</syllabic>
                    <text font-weight="bold">know</text>
                </lyric>
            </note>
            <note>
                <pitch>
                    <step>G</step>
                    <octave>4</octave>
                </pitch>
                <duration>3</duration>
                <voice>1</voice>
                <type>eighth</type>
                <dot/>
                <stem>up</stem>
                <beam number="1">begin</beam>
                <lyric number="1">
                    <syllabic>single</syllabic>
                    <text font-weight="bold">deep</text>
                </lyric>
                <lyric number="2">
                    <syllabic>single</syllabic>
                    <text font-weight="bold">him</text>
                </lyric>
                <lyric number="3">
                    <syllabic>single</syllabic>
                    <text font-weight="bold">it</text>
                </lyric>
            </note>
            <note>
                <pitch>
                    <step>F</step>
                    <octave>4</octave>
                </pitch>
                <duration>1</duration>
                <voice>1</voice>
                <type>16th</type>
                <stem>up</stem>
                <beam number="1">end</beam>
                <beam number="2">backward hook</beam>
                <lyric number="1">
                    <syllabic>single</syllabic>
                    <text font-weight="bold">in</text>
                </lyric>
                <lyric number="2">
                    <syllabic>single</syllabic>
                    <text font-weight="bold">that</text>
                </lyric>
                <lyric number="3">
                    <syllabic>single</syllabic>
                    <text font-weight="bold">there</text>
                </lyric>
            </note>
        </measure>
        <measure number="10">
            <harmony default-y="40">
                <root>
                    <root-step>A</root-step>
                    <root-alter>-1</root-alter>
                </root>
                <kind>major-seventh</kind>
            </harmony>
            <note>
                <pitch>
                    <step>G</step>
                    <octave>4</octave>
                </pitch>
                <duration>4</duration>
                <tie type="start"/>
                <voice>1</voice>
                <type>quarter</type>
                <stem>up</stem>
                <notations>
                    <tied type="start"/>
                </notations>
                <lyric number="1">
                    <syllabic>single</syllabic>
                    <text font-weight="bold">side</text>
                    <extend/>
                </lyric>
                <lyric number="2">
                    <syllabic>single</syllabic>
                    <text font-weight="bold">he</text>
                </lyric>
                <lyric number="3">
                    <syllabic>single</syllabic>
                    <text font-weight="bold">he</text>
                </lyric>
            </note>
            <note>
                <pitch>
                    <step>G</step>
                    <octave>4</octave>
                </pitch>
                <duration>3</duration>
                <tie type="stop"/>
                <voice>1</voice>
                <type>eighth</type>
                <dot/>
                <stem>up</stem>
                <beam number="1">begin</beam>
                <notations>
                    <tied type="stop"/>
                </notations>
                <lyric number="2">
                    <syllabic>single</syllabic>
                    <text font-weight="bold">is</text>
                    <extend/>
                </lyric>
                <lyric number="3">
                    <syllabic>single</syllabic>
                    <text font-weight="bold">is</text>
                    <extend/>
                </lyric>
            </note>
            <note>
                <pitch>
                    <step>F</step>
                    <octave>4</octave>
                </pitch>
                <duration>1</duration>
                <voice>1</voice>
                <type>16th</type>
                <stem>up</stem>
                <beam number="1">end</beam>
                <beam number="2">backward hook</beam>
                <lyric number="1">
                    <syllabic>single</syllabic>
                    <text font-weight="bold">I</text>
                </lyric>
            </note>
            <harmony default-y="40">
                <root>
                    <root-step>B</root-step>
                    <root-alter>-1</root-alter>
                </root>
                <kind>dominant</kind>
            </harmony>
            <note>
                <pitch>
                    <step>G</step>
                    <octave>4</octave>
                </pitch>
                <duration>2</duration>
                <voice>1</voice>
                <type>eighth</type>
                <stem>up</stem>
                <beam number="1">begin</beam>
                <lyric number="1">
                    <syllabic>single</syllabic>
                    <text font-weight="bold">wish</text>
                </lyric>
                <lyric number="3">
                    <syllabic>single</syllabic>
                    <text font-weight="bold">stand</text>
                </lyric>
            </note>
            <note>
                <pitch>
                    <step>F</step>
                    <octave>4</octave>
                </pitch>
                <duration>2</duration>
                <voice>1</voice>
                <type>eighth</type>
                <stem>up</stem>
                <beam number="1">continue</beam>
                <lyric number="1">
                    <syllabic>single</syllabic>
                    <text font-weight="bold">that</text>
                </lyric>
                <lyric number="3">
                    <syllabic>single</syllabic>
                    <text font-weight="bold">in'</text>
                </lyric>
            </note>
            <note>
                <pitch>
                    <step>E</step>
                    <alter>-1</alter>
                    <octave>4</octave>
                </pitch>
                <duration>2</duration>
                <voice>1</voice>
                <type>eighth</type>
                <stem>up</stem>
                <beam number="1">continue</beam>
                <lyric number="1">
                    <syllabic>single</syllabic>
                    <text font-weight="bold">I</text>
                </lyric>
                <lyric number="2">
                    <syllabic>single</syllabic>
                    <text font-weight="bold">so</text>
                </lyric>
                <lyric number="3">
                    <syllabic>single</syllabic>
                    <text font-weight="bold">at</text>
                </lyric>
            </note>
            <note>
                <pitch>
                    <step>F</step>
                    <octave>4</octave>
                </pitch>
                <duration>2</duration>
                <voice>1</voice>
                <type>eighth</type>
                <stem>up</stem>
                <beam number="1">end</beam>
                <lyric number="1">
                    <syllabic>single</syllabic>
                    <text font-weight="bold">could</text>
                </lyric>
                <lyric number="2">
                    <syllabic>single</syllabic>
                    <text font-weight="bold">un</text>
                </lyric>
                <lyric number="3">
                    <syllabic>single</syllabic>
                    <text font-weight="bold">my</text>
                </lyric>
            </note>
        </measure>
        <measure number="11">
            <harmony default-y="40">
                <root>
                    <root-step>E</root-step>
                    <root-alter>-1</root-alter>
                </root>
                <kind>major</kind>
            </harmony>
            <note>
                <pitch>
                    <step>G</step>
                    <octave>4</octave>
                </pitch>
                <duration>16</duration>
                <voice>1</voice>
                <type>whole</type>
                <lyric number="1">
                    <syllabic>single</syllabic>
                    <text font-weight="bold">die.</text>
                </lyric>
                <lyric number="2">
                    <syllabic>single</syllabic>
                    <text font-weight="bold">fair</text>
                </lyric>
                <lyric number="3">
                    <syllabic>single</syllabic>
                    <text font-weight="bold">door</text>
                </lyric>
            </note>
        </measure>
        <measure number="12">
            <note>
                <rest/>
                <duration>16</duration>
                <voice>1</voice>
            </note>
        </measure>
        <measure number="13">
            <print new-system="yes"/>
            <harmony default-y="40">
                <root>
                    <root-step>G</root-step>
                </root>
                <kind>minor</kind>
            </harmony>
            <note>
                <rest/>
                <duration>4</duration>
                <voice>1</voice>
                <type>quarter</type>
            </note>
            <note>
                <pitch>
                    <step>G</step>
                    <octave>4</octave>
                </pitch>
                <duration>2</duration>
                <voice>1</voice>
                <type>eighth</type>
                <stem>up</stem>
                <beam number="1">begin</beam>
                <lyric number="1">
                    <syllabic>single</syllabic>
                    <text font-weight="bold">Not</text>
                </lyric>
                <lyric number="2">
                    <syllabic>single</syllabic>
                    <text font-weight="bold">'Cuz</text>
                </lyric>
                <lyric number="3">
                    <syllabic>single</syllabic>
                    <text font-weight="bold">Well,</text>
                </lyric>
            </note>
            <note>
                <pitch>
                    <step>B</step>
                    <alter>-1</alter>
                    <octave>4</octave>
                </pitch>
                <duration>2</duration>
                <voice>1</voice>
                <type>eighth</type>
                <stem>up</stem>
                <beam number="1">end</beam>
                <lyric number="1">
                    <syllabic>single</syllabic>
                    <text font-weight="bold">a</text>
                </lyric>
                <lyric number="2">
                    <syllabic>single</syllabic>
                    <text font-weight="bold">he</text>
                </lyric>
                <lyric number="3">
                    <syllabic>single</syllabic>
                    <text font-weight="bold">I</text>
                </lyric>
            </note>
            <note>
                <pitch>
                    <step>C</step>
                    <octave>5</octave>
                </pitch>
                <duration>3</duration>
                <voice>1</voice>
                <type>eighth</type>
                <dot/>
                <stem>down</stem>
                <beam number="1">begin</beam>
                <lyric number="1">
                    <syllabic>single</syllabic>
                    <text font-weight="bold">word</text>
                </lyric>
                <lyric number="2">
                    <syllabic>single</syllabic>
                    <text font-weight="bold">loves</text>
                </lyric>
                <lyric number="3">
                    <syllabic>single</syllabic>
                    <text font-weight="bold">let</text>
                </lyric>
            </note>
            <note>
                <pitch>
                    <step>B</step>
                    <alter>-1</alter>
                    <octave>4</octave>
                </pitch>
                <duration>1</duration>
                <tie type="start"/>
                <voice>1</voice>
                <type>16th</type>
                <stem>down</stem>
                <beam number="1">end</beam>
                <beam number="2">backward hook</beam>
                <notations>
                    <tied type="start"/>
                </notations>
                <lyric number="1">
                    <syllabic>single</syllabic>
                    <text font-weight="bold">do</text>
                    <extend/>
                </lyric>
                <lyric number="2">
                    <syllabic>single</syllabic>
                    <text font-weight="bold">me</text>
                </lyric>
                <lyric number="3">
                    <syllabic>single</syllabic>
                    <text font-weight="bold">him</text>
                </lyric>
            </note>
            <note>
                <pitch>
                    <step>B</step>
                    <alter>-1</alter>
                    <octave>4</octave>
                </pitch>
                <duration>2</duration>
                <tie type="stop"/>
                <voice>1</voice>
                <type>eighth</type>
                <stem>up</stem>
                <beam number="1">begin</beam>
                <notations>
                    <tied type="stop"/>
                </notations>
                <lyric number="2">
                    <syllabic>single</syllabic>
                    <text font-weight="bold">and</text>
                </lyric>
                <lyric number="3">
                    <syllabic>single</syllabic>
                    <text font-weight="bold">kiss</text>
                </lyric>
            </note>
            <note>
                <pitch>
                    <step>G</step>
                    <octave>4</octave>
                </pitch>
                <duration>2</duration>
                <voice>1</voice>
                <type>eighth</type>
                <stem>up</stem>
                <beam number="1">end</beam>
                <lyric number="1">
                    <syllabic>single</syllabic>
                    <text font-weight="bold">I</text>
                </lyric>
                <lyric number="2">
                    <syllabic>single</syllabic>
                    <text font-weight="bold">I</text>
                </lyric>
                <lyric number="3">
                    <syllabic>single</syllabic>
                    <text font-weight="bold">me</text>
                </lyric>
            </note>
        </measure>
        <measure number="14">
            <harmony default-y="40">
                <root>
                    <root-step>A</root-step>
                    <root-alter>-1</root-alter>
                </root>
                <kind>major-seventh</kind>
            </harmony>
            <note>
                <pitch>
                    <step>G</step>
                    <octave>4</octave>
                </pitch>
                <duration>6</duration>
                <voice>1</voice>
                <type>quarter</type>
                <dot/>
                <stem>up</stem>
                <lyric number="1">
                    <syllabic>single</syllabic>
                    <text font-weight="bold">say</text>
                    <extend/>
                </lyric>
                <lyric number="2">
                    <syllabic>single</syllabic>
                    <text font-weight="bold">know</text>
                    <extend/>
                </lyric>
                <lyric number="3">
                    <syllabic>single</syllabic>
                    <text font-weight="bold">there</text>
                </lyric>
            </note>
            <note>
                <pitch>
                    <step>A</step>
                    <alter>-1</alter>
                    <octave>4</octave>
                </pitch>
                <duration>1</duration>
                <voice>1</voice>
                <type>16th</type>
                <stem>up</stem>
                <beam number="1">begin</beam>
                <beam number="2">begin</beam>
                <lyric number="3">
                    <syllabic>single</syllabic>
                    <text font-weight="bold">and</text>
                </lyric>
            </note>
            <note>
                <pitch>
                    <step>G</step>
                    <octave>4</octave>
                </pitch>
                <duration>1</duration>
                <voice>1</voice>
                <type>16th</type>
                <stem>up</stem>
                <beam number="1">end</beam>
                <beam number="2">end</beam>
                <lyric number="3">
                    <syllabic>single</syllabic>
                    <text font-weight="bold">then</text>
                    <extend/>
                </lyric>
            </note>
            <note>
                <pitch>
                    <step>F</step>
                    <octave>4</octave>
                </pitch>
                <duration>8</duration>
                <voice>1</voice>
                <type>half</type>
                <stem>up</stem>
                <lyric number="2">
                    <syllabic>single</syllabic>
                    <text font-weight="bold">it</text>
                </lyric>
            </note>
        </measure>
        <measure number="15">
            <harmony default-y="40">
                <root>
                    <root-step>G</root-step>
                </root>
                <kind>minor-seventh</kind>
            </harmony>
            <note>
                <rest/>
                <duration>4</duration>
                <voice>1</voice>
                <type>quarter</type>
            </note>
            <note>
                <pitch>
                    <step>G</step>
                    <octave>4</octave>
                </pitch>
                <duration>2</duration>
                <voice>1</voice>
                <type>eighth</type>
                <stem>up</stem>
                <beam number="1">begin</beam>
                <lyric number="1">
                    <syllabic>single</syllabic>
                    <text font-weight="bold">I</text>
                </lyric>
                <lyric number="2">
                    <syllabic>single</syllabic>
                    <text font-weight="bold">But</text>
                </lyric>
                <lyric number="3">
                    <syllabic>single</syllabic>
                    <text font-weight="bold">cuz</text>
                </lyric>
            </note>
            <note>
                <pitch>
                    <step>B</step>
                    <alter>-1</alter>
                    <octave>4</octave>
                </pitch>
                <duration>2</duration>
                <voice>1</voice>
                <type>eighth</type>
                <stem>up</stem>
                <beam number="1">end</beam>
                <lyric number="1">
                    <syllabic>single</syllabic>
                    <text font-weight="bold">just</text>
                </lyric>
                <lyric number="2">
                    <syllabic>single</syllabic>
                    <text font-weight="bold">he's</text>
                </lyric>
                <lyric number="3">
                    <syllabic>single</syllabic>
                    <text font-weight="bold">I</text>
                </lyric>
            </note>
            <note>
                <pitch>
                    <step>C</step>
                    <octave>5</octave>
                </pitch>
                <duration>2</duration>
                <voice>1</voice>
                <type>eighth</type>
                <stem>up</stem>
                <beam number="1">begin</beam>
                <lyric number="1">
                    <syllabic>single</syllabic>
                    <text font-weight="bold">look</text>
                </lyric>
                <lyric number="2">
                    <syllabic>single</syllabic>
                    <text font-weight="bold">just</text>
                </lyric>
                <lyric number="3">
                    <syllabic>single</syllabic>
                    <text font-weight="bold">know</text>
                </lyric>
            </note>
            <note>
                <pitch>
                    <step>B</step>
                    <alter>-1</alter>
                    <octave>4</octave>
                </pitch>
                <duration>2</duration>
                <voice>1</voice>
                <type>eighth</type>
                <stem>up</stem>
                <beam number="1">continue</beam>
                <lyric number="1">
                    <syllabic>single</syllabic>
                    <text font-weight="bold">the</text>
                </lyric>
                <lyric number="2">
                    <syllabic>single</syllabic>
                    <text font-weight="bold">a</text>
                </lyric>
                <lyric number="3">
                    <syllabic>single</syllabic>
                    <text font-weight="bold">he</text>
                </lyric>
            </note>
            <note>
                <pitch>
                    <step>B</step>
                    <alter>-1</alter>
                    <octave>4</octave>
                </pitch>
                <duration>2</duration>
                <voice>1</voice>
                <type>eighth</type>
                <stem>up</stem>
                <beam number="1">continue</beam>
                <lyric number="1">
                    <syllabic>single</syllabic>
                    <text font-weight="bold">oth</text>
                </lyric>
                <lyric number="2">
                    <syllabic>single</syllabic>
                    <text font-weight="bold">fraid</text>
                </lyric>
                <lyric number="3">
                    <syllabic>single</syllabic>
                    <text font-weight="bold">wants</text>
                </lyric>
            </note>
            <note>
                <pitch>
                    <step>G</step>
                    <octave>4</octave>
                </pitch>
                <duration>2</duration>
                <voice>1</voice>
                <type>eighth</type>
                <stem>up</stem>
                <beam number="1">end</beam>
                <lyric number="1">
                    <syllabic>single</syllabic>
                    <text font-weight="bold">er</text>
                </lyric>
                <lyric number="2">
                    <syllabic>single</syllabic>
                    <text font-weight="bold">to</text>
                </lyric>
                <lyric number="3">
                    <syllabic>single</syllabic>
                    <text font-weight="bold">me</text>
                </lyric>
            </note>
        </measure>
        <measure number="16">
            <harmony default-y="40">
                <root>
                    <root-step>A</root-step>
                    <root-alter>-1</root-alter>
                </root>
                <kind>major-seventh</kind>
            </harmony>
            <note>
                <pitch>
                    <step>G</step>
                    <octave>4</octave>
                </pitch>
                <duration>8</duration>
                <voice>1</voice>
                <type>half</type>
                <stem>up</stem>
                <lyric number="1">
                    <syllabic>single</syllabic>
                    <text font-weight="bold">way</text>
                    <extend/>
                </lyric>
                <lyric number="2">
                    <syllabic>single</syllabic>
                    <text font-weight="bold">show</text>
                    <extend/>
                </lyric>
                <lyric number="3">
                    <syllabic>single</syllabic>
                    <text font-weight="bold">back</text>
                    <extend/>
                </lyric>
            </note>
            <note>
                <pitch>
                    <step>F</step>
                    <octave>4</octave>
                </pitch>
                <duration>4</duration>
                <voice>1</voice>
                <type>quarter</type>
                <stem>up</stem>
            </note>
            <note>
                <pitch>
                    <step>C</step>
                    <octave>5</octave>
                </pitch>
                <duration>4</duration>
                <voice>1</voice>
                <type>quarter</type>
                <stem>down</stem>
                <lyric number="3">
                    <syllabic>single</syllabic>
                    <text font-weight="bold">a</text>
                </lyric>
            </note>
        </measure>
        <measure number="17">
            <print new-system="yes"/>
            <harmony default-y="40">
                <root>
                    <root-step>B</root-step>
                    <root-alter>-1</root-alter>
                </root>
                <kind>major</kind>
            </harmony>
            <note>
                <pitch>
                    <step>B</step>
                    <alter>-1</alter>
                    <octave>4</octave>
                </pitch>
                <duration>4</duration>
                <voice>1</voice>
                <type>quarter</type>
                <stem>down</stem>
                <lyric number="2">
                    <syllabic>single</syllabic>
                    <text font-weight="bold">it!</text>
                </lyric>
                <lyric number="3">
                    <syllabic>single</syllabic>
                    <text font-weight="bold">gain</text>
                </lyric>
            </note>
            <note>
                <rest/>
                <duration>2</duration>
                <voice>1</voice>
                <type>eighth</type>
            </note>
            <note>
                <pitch>
                    <step>F</step>
                    <octave>4</octave>
                </pitch>
                <duration>2</duration>
                <voice>1</voice>
                <type>eighth</type>
                <stem>up</stem>
                <lyric number="2">
                    <syllabic>single</syllabic>
                    <text font-weight="bold">Cuz</text>
                </lyric>
            </note>
            <note>
                <pitch>
                    <step>G</step>
                    <octave>4</octave>
                </pitch>
                <duration>2</duration>
                <voice>1</voice>
                <type>eighth</type>
                <stem>up</stem>
                <beam number="1">begin</beam>
                <lyric number="2">
                    <syllabic>single</syllabic>
                    <text font-weight="bold">THAT'S</text>
                </lyric>
            </note>
            <note>
                <pitch>
                    <step>F</step>
                    <octave>4</octave>
                </pitch>
                <duration>2</duration>
                <voice>1</voice>
                <type>eighth</type>
                <stem>up</stem>
                <beam number="1">end</beam>
                <lyric number="2">
                    <syllabic>single</syllabic>
                    <text font-weight="bold">THE</text>
                </lyric>
            </note>
            <note>
                <pitch>
                    <step>G</step>
                    <octave>4</octave>
                </pitch>
                <duration>4</duration>
                <voice>1</voice>
                <type>quarter</type>
                <stem>up</stem>
                <lyric number="2">
                    <syllabic>single</syllabic>
                    <text font-weight="bold">WAY</text>
                </lyric>
            </note>
        </measure>
        <measure number="18">
            <harmony default-y="40">
                <root>
                    <root-step>E</root-step>
                    <root-alter>-1</root-alter>
                </root>
                <kind>dominant-ninth</kind>
            </harmony>
            <note>
                <pitch>
                    <step>F</step>
                    <octave>4</octave>
                </pitch>
                <duration>8</duration>
                <voice>1</voice>
                <type>half</type>
                <stem>up</stem>
                <lyric number="2">
                    <syllabic>single</syllabic>
                    <text font-weight="bold">BOYS</text>
                </lyric>
            </note>
            <harmony default-y="40">
                <root>
                    <root-step>E</root-step>
                    <root-alter>-1</root-alter>
                </root>
                <kind>major</kind>
            </harmony>
            <note>
                <pitch>
                    <step>E</step>
                    <alter>-1</alter>
                    <octave>4</octave>
                </pitch>
                <duration>8</duration>
                <tie type="start"/>
                <voice>1</voice>
                <type>half</type>
                <stem>up</stem>
                <notations>
                    <tied type="start"/>
                </notations>
                <lyric number="2">
                    <syllabic>single</syllabic>
                    <text font-weight="bold">ARE</text>
                    <extend/>
                </lyric>
            </note>
        </measure>
        <measure number="19">
            <harmony default-y="40">
                <root>
                    <root-step>A</root-step>
                    <root-alter>-1</root-alter>
                </root>
                <kind>major</kind>
            </harmony>
            <note>
                <pitch>
                    <step>E</step>
                    <alter>-1</alter>
                    <octave>4</octave>
                </pitch>
                <duration>8</duration>
                <tie type="stop"/>
                <voice>1</voice>
                <type>half</type>
                <stem>up</stem>
                <notations>
                    <tied type="stop"/>
                </notations>
            </note>
            <harmony default-y="40">
                <root>
                    <root-step>B</root-step>
                    <root-alter>-1</root-alter>
                </root>
                <kind>major</kind>
            </harmony>
            <note>
                <pitch>
                    <step>G</step>
                    <octave>4</octave>
                </pitch>
                <duration>2</duration>
                <voice>1</voice>
                <type>eighth</type>
                <stem>up</stem>
                <beam number="1">begin</beam>
                <lyric number="2">
                    <syllabic>single</syllabic>
                    <text font-weight="bold">THAT'S</text>
                </lyric>
            </note>
            <note>
                <pitch>
                    <step>F</step>
                    <octave>4</octave>
                </pitch>
                <duration>2</duration>
                <voice>1</voice>
                <type>eighth</type>
                <stem>up</stem>
                <beam number="1">end</beam>
                <lyric number="2">
                    <syllabic>single</syllabic>
                    <text font-weight="bold">THE</text>
                </lyric>
            </note>
            <note>
                <pitch>
                    <step>G</step>
                    <octave>4</octave>
                </pitch>
                <duration>4</duration>
                <voice>1</voice>
                <type>quarter</type>
                <stem>up</stem>
                <lyric number="2">
                    <syllabic>single</syllabic>
                    <text font-weight="bold">WAY</text>
                </lyric>
            </note>
        </measure>
        <measure number="20">
            <harmony default-y="40">
                <root>
                    <root-step>A</root-step>
                    <root-alter>-1</root-alter>
                </root>
                <kind>major</kind>
                <bass>
                    <bass-step>E</bass-step>
                    <bass-alter>-1</bass-alter>
                </bass>
            </harmony>
            <note>
                <pitch>
                    <step>C</step>
                    <octave>5</octave>
                </pitch>
                <duration>8</duration>
                <voice>1</voice>
                <type>half</type>
                <stem>down</stem>
                <lyric number="2">
                    <syllabic>single</syllabic>
                    <text font-weight="bold">BOYS</text>
                </lyric>
            </note>
            <harmony default-y="40">
                <root>
                    <root-step>E</root-step>
                    <root-alter>-1</root-alter>
                </root>
                <kind>major</kind>
            </harmony>
            <note>
                <pitch>
                    <step>B</step>
                    <alter>-1</alter>
                    <octave>4</octave>
                </pitch>
                <duration>8</duration>
                <tie type="start"/>
                <voice>1</voice>
                <type>half</type>
                <stem>down</stem>
                <notations>
                    <tied type="start"/>
                </notations>
                <lyric number="2">
                    <syllabic>single</syllabic>
                    <text font-weight="bold">ARE</text>
                    <extend/>
                </lyric>
            </note>
        </measure>
        <measure number="21">
            <note>
                <pitch>
                    <step>B</step>
                    <alter>-1</alter>
                    <octave>4</octave>
                </pitch>
                <duration>12</duration>
                <tie type="stop"/>
                <voice>1</voice>
                <type>half</type>
                <dot/>
                <stem>down</stem>
                <notations>
                    <tied type="stop"/>
                </notations>
            </note>
            <note>
                <pitch>
                    <step>E</step>
                    <alter>-1</alter>
                    <octave>4</octave>
                </pitch>
                <duration>2</duration>
                <voice>1</voice>
                <type>eighth</type>
                <stem>up</stem>
                <beam number="1">begin</beam>
                <lyric number="1">
                    <syllabic>single</syllabic>
                    <text font-weight="bold">When</text>
                </lyric>
            </note>
            <note>
                <pitch>
                    <step>F</step>
                    <octave>4</octave>
                </pitch>
                <duration>2</duration>
                <voice>1</voice>
                <type>eighth</type>
                <stem>up</stem>
                <beam number="1">end</beam>
                <lyric number="1">
                    <syllabic>single</syllabic>
                    <text font-weight="bold">he</text>
                </lyric>
            </note>
            <barline location="right">
                <bar-style>light-heavy</bar-style>
                <repeat direction="backward"/>
            </barline>
        </measure>
        <measure number="22">
            <print new-system="yes"/>
            <harmony default-y="40">
                <root>
                    <root-step>A</root-step>
                    <root-alter>-1</root-alter>
                </root>
                <kind>major</kind>
            </harmony>
            <note>
                <pitch>
                    <step>C</step>
                    <octave>5</octave>
                </pitch>
                <duration>4</duration>
                <voice>1</voice>
                <type>quarter</type>
                <stem>down</stem>
                <lyric number="1">
                    <syllabic>single</syllabic>
                    <text font-weight="bold">When</text>
                </lyric>
            </note>
            <note>
                <pitch>
                    <step>B</step>
                    <alter>-1</alter>
                    <octave>4</octave>
                </pitch>
                <duration>4</duration>
                <voice>1</voice>
                <type>quarter</type>
                <stem>down</stem>
                <lyric number="1">
                    <syllabic>single</syllabic>
                    <text font-weight="bold">he</text>
                </lyric>
            </note>
            <note>
                <pitch>
                    <step>A</step>
                    <alter>-1</alter>
                    <octave>4</octave>
                </pitch>
                <duration>4</duration>
                <voice>1</voice>
                <type>quarter</type>
                <stem>up</stem>
                <lyric number="1">
                    <syllabic>single</syllabic>
                    <text font-weight="bold">wants</text>
                </lyric>
            </note>
            <note>
                <pitch>
                    <step>G</step>
                    <octave>4</octave>
                </pitch>
                <duration>4</duration>
                <voice>1</voice>
                <type>quarter</type>
                <stem>up</stem>
                <lyric number="1">
                    <syllabic>single</syllabic>
                    <text font-weight="bold">to</text>
                </lyric>
            </note>
        </measure>
        <measure number="23">
            <harmony default-y="40">
                <root>
                    <root-step>F</root-step>
                </root>
                <kind>minor</kind>
            </harmony>
            <note>
                <pitch>
                    <step>F</step>
                    <octave>4</octave>
                </pitch>
                <duration>4</duration>
                <voice>1</voice>
                <type>quarter</type>
                <stem>up</stem>
                <lyric number="1">
                    <syllabic>single</syllabic>
                    <text font-weight="bold">be</text>
                </lyric>
            </note>
            <note>
                <pitch>
                    <step>G</step>
                    <octave>4</octave>
                </pitch>
                <duration>4</duration>
                <voice>1</voice>
                <type>quarter</type>
                <stem>up</stem>
                <lyric number="1">
                    <syllabic>single</syllabic>
                    <text font-weight="bold">a</text>
                </lyric>
            </note>
            <note>
                <pitch>
                    <step>A</step>
                    <alter>-1</alter>
                    <octave>4</octave>
                </pitch>
                <duration>8</duration>
                <voice>1</voice>
                <type>half</type>
                <stem>up</stem>
                <lyric number="1">
                    <syllabic>single</syllabic>
                    <text font-weight="bold">lone,</text>
                </lyric>
            </note>
        </measure>
        <measure number="24">
            <harmony default-y="40">
                <root>
                    <root-step>E</root-step>
                    <root-alter>-1</root-alter>
                </root>
                <kind>major</kind>
            </harmony>
            <note>
                <pitch>
                    <step>B</step>
                    <alter>-1</alter>
                    <octave>4</octave>
                </pitch>
                <duration>4</duration>
                <voice>1</voice>
                <type>quarter</type>
                <stem>down</stem>
                <lyric number="1">
                    <syllabic>single</syllabic>
                    <text font-weight="bold">I</text>
                </lyric>
            </note>
            <note>
                <pitch>
                    <step>A</step>
                    <alter>-1</alter>
                    <octave>4</octave>
                </pitch>
                <duration>4</duration>
                <voice>1</voice>
                <type>quarter</type>
                <stem>up</stem>
                <lyric number="1">
                    <syllabic>single</syllabic>
                    <text font-weight="bold">just</text>
                </lyric>
            </note>
            <note>
                <pitch>
                    <step>G</step>
                    <octave>4</octave>
                </pitch>
                <duration>4</duration>
                <voice>1</voice>
                <type>quarter</type>
                <stem>up</stem>
                <lyric number="1">
                    <syllabic>single</syllabic>
                    <text font-weight="bold">let</text>
                </lyric>
            </note>
            <note>
                <pitch>
                    <step>A</step>
                    <alter>-1</alter>
                    <octave>4</octave>
                </pitch>
                <duration>4</duration>
                <voice>1</voice>
                <type>quarter</type>
                <stem>up</stem>
                <lyric number="1">
                    <syllabic>single</syllabic>
                    <text font-weight="bold">him</text>
                </lyric>
            </note>
        </measure>
        <measure number="25">
            <harmony default-y="40">
                <root>
                    <root-step>G</root-step>
                </root>
                <kind>minor</kind>
            </harmony>
            <note>
                <pitch>
                    <step>B</step>
                    <alter>-1</alter>
                    <octave>4</octave>
                </pitch>
                <duration>16</duration>
                <voice>1</voice>
                <type>whole</type>
                <lyric number="1">
                    <syllabic>single</syllabic>
                    <text font-weight="bold">be</text>
                </lyric>
            </note>
        </measure>
        <measure number="26">
            <harmony default-y="40">
                <root>
                    <root-step>A</root-step>
                    <root-alter>-1</root-alter>
                </root>
                <kind>major</kind>
            </harmony>
            <note>
                <pitch>
                    <step>C</step>
                    <octave>5</octave>
                </pitch>
                <duration>4</duration>
                <voice>1</voice>
                <type>quarter</type>
                <stem>down</stem>
                <lyric number="1">
                    <syllabic>single</syllabic>
                    <text font-weight="bold">Cuz</text>
                </lyric>
            </note>
            <note>
                <pitch>
                    <step>B</step>
                    <alter>-1</alter>
                    <octave>4</octave>
                </pitch>
                <duration>4</duration>
                <voice>1</voice>
                <type>quarter</type>
                <stem>down</stem>
                <lyric number="1">
                    <syllabic>single</syllabic>
                    <text font-weight="bold">I</text>
                </lyric>
            </note>
            <note>
                <pitch>
                    <step>A</step>
                    <alter>-1</alter>
                    <octave>4</octave>
                </pitch>
                <duration>4</duration>
                <voice>1</voice>
                <type>quarter</type>
                <stem>up</stem>
                <lyric number="1">
                    <syllabic>single</syllabic>
                    <text font-weight="bold">know</text>
                </lyric>
            </note>
            <note>
                <pitch>
                    <step>G</step>
                    <octave>4</octave>
                </pitch>
                <duration>4</duration>
                <voice>1</voice>
                <type>quarter</type>
                <stem>up</stem>
                <lyric number="1">
                    <syllabic>single</syllabic>
                    <text font-weight="bold">that</text>
                </lyric>
            </note>
        </measure>
        <measure number="27">
            <harmony default-y="40">
                <root>
                    <root-step>D</root-step>
                    <root-alter>-1</root-alter>
                </root>
                <kind>major</kind>
            </harmony>
            <note>
                <pitch>
                    <step>F</step>
                    <octave>4</octave>
                </pitch>
                <duration>4</duration>
                <voice>1</voice>
                <type>quarter</type>
                <stem>up</stem>
                <lyric number="1">
                    <syllabic>single</syllabic>
                    <text font-weight="bold">soon</text>
                </lyric>
            </note>
            <note>
                <pitch>
                    <step>G</step>
                    <octave>4</octave>
                </pitch>
                <duration>4</duration>
                <voice>1</voice>
                <type>quarter</type>
                <stem>up</stem>
                <lyric number="1">
                    <syllabic>single</syllabic>
                    <text font-weight="bold">en</text>
                </lyric>
            </note>
            <note>
                <pitch>
                    <step>A</step>
                    <alter>-1</alter>
                    <octave>4</octave>
                </pitch>
                <duration>8</duration>
                <voice>1</voice>
                <type>half</type>
                <stem>up</stem>
                <lyric number="1">
                    <syllabic>single</syllabic>
                    <text font-weight="bold">ough</text>
                </lyric>
            </note>
        </measure>
        <measure number="28">
            <print new-system="yes"/>
            <harmony default-y="40">
                <root>
                    <root-step>G</root-step>
                </root>
                <kind>minor</kind>
            </harmony>
            <note>
                <pitch>
                    <step>B</step>
                    <alter>-1</alter>
                    <octave>4</octave>
                </pitch>
                <duration>2</duration>
                <voice>1</voice>
                <type>eighth</type>
                <stem>down</stem>
                <beam number="1">begin</beam>
                <lyric number="1">
                    <syllabic>single</syllabic>
                    <text font-weight="bold">He</text>
                </lyric>
            </note>
            <note>
                <pitch>
                    <step>B</step>
                    <alter>-1</alter>
                    <octave>4</octave>
                </pitch>
                <duration>2</duration>
                <tie type="start"/>
                <voice>1</voice>
                <type>eighth</type>
                <stem>down</stem>
                <beam number="1">end</beam>
                <notations>
                    <tied type="start"/>
                </notations>
                <lyric number="1">
                    <syllabic>single</syllabic>
                    <text font-weight="bold">will</text>
                    <extend/>
                </lyric>
            </note>
            <note>
                <pitch>
                    <step>B</step>
                    <alter>-1</alter>
                    <octave>4</octave>
                </pitch>
                <duration>1</duration>
                <tie type="stop"/>
                <voice>1</voice>
                <type>16th</type>
                <stem>down</stem>
                <beam number="1">begin</beam>
                <beam number="2">forward hook</beam>
                <notations>
                    <tied type="stop"/>
                </notations>
            </note>
            <note>
                <pitch>
                    <step>C</step>
                    <octave>5</octave>
                </pitch>
                <duration>2</duration>
                <voice>1</voice>
                <type>eighth</type>
                <stem>down</stem>
                <beam number="1">continue</beam>
                <lyric number="1">
                    <syllabic>single</syllabic>
                    <text font-weight="bold">come</text>
                </lyric>
            </note>
            <note>
                <pitch>
                    <step>B</step>
                    <alter>-1</alter>
                    <octave>4</octave>
                </pitch>
                <duration>1</duration>
                <tie type="start"/>
                <voice>1</voice>
                <type>16th</type>
                <stem>down</stem>
                <beam number="1">end</beam>
                <beam number="2">backward hook</beam>
                <notations>
                    <tied type="start"/>
                </notations>
                <lyric number="1">
                    <syllabic>single</syllabic>
                    <text font-weight="bold">back</text>
                    <extend/>
                </lyric>
            </note>
            <note>
                <pitch>
                    <step>B</step>
                    <alter>-1</alter>
                    <octave>4</octave>
                </pitch>
                <duration>2</duration>
                <tie type="stop"/>
                <voice>1</voice>
                <type>eighth</type>
                <stem>down</stem>
                <beam number="1">begin</beam>
                <notations>
                    <tied type="stop"/>
                </notations>
            </note>
            <note>
                <pitch>
                    <step>B</step>
                    <alter>-1</alter>
                    <octave>4</octave>
                </pitch>
                <duration>2</duration>
                <voice>1</voice>
                <type>eighth</type>
                <stem>down</stem>
                <beam number="1">continue</beam>
                <lyric number="1">
                    <syllabic>single</syllabic>
                    <text font-weight="bold">to</text>
                </lyric>
            </note>
            <note>
                <rest/>
                <duration>2</duration>
                <voice>1</voice>
                <type>eighth</type>
            </note>
            <note>
                <pitch>
                    <step>C</step>
                    <octave>5</octave>
                </pitch>
                <duration>2</duration>
                <voice>1</voice>
                <type>eighth</type>
                <stem>down</stem>
                <beam number="1">end</beam>
                <lyric number="1">
                    <syllabic>single</syllabic>
                    <text font-weight="bold">me</text>
                    <extend/>
                </lyric>
            </note>
        </measure>
        <measure number="29">
            <harmony default-y="40">
                <root>
                    <root-step>F</root-step>
                </root>
                <kind>minor-seventh</kind>
            </harmony>
            <note>
                <pitch>
                    <step>C</step>
                    <octave>5</octave>
                </pitch>
                <duration>4</duration>
                <voice>1</voice>
                <type>quarter</type>
                <stem>down</stem>
            </note>
            <note>
                <pitch>
                    <step>B</step>
                    <alter>-1</alter>
                    <octave>4</octave>
                </pitch>
                <duration>4</duration>
                <tie type="start"/>
                <voice>1</voice>
                <type>quarter</type>
                <stem>down</stem>
                <notations>
                    <tied type="start"/>
                </notations>
            </note>
            <harmony default-y="40">
                <root>
                    <root-step>B</root-step>
                    <root-alter>-1</root-alter>
                </root>
                <kind>dominant</kind>
            </harmony>
            <note>
                <pitch>
                    <step>B</step>
                    <alter>-1</alter>
                    <octave>4</octave>
                </pitch>
                <duration>3</duration>
                <tie type="stop"/>
                <voice>1</voice>
                <type>eighth</type>
                <dot/>
                <stem>up</stem>
                <beam number="1">begin</beam>
                <notations>
                    <tied type="stop"/>
                </notations>
            </note>
            <note>
                <pitch>
                    <step>E</step>
                    <alter>-1</alter>
                    <octave>4</octave>
                </pitch>
                <duration>1</duration>
                <tie type="start"/>
                <voice>1</voice>
                <type>16th</type>
                <stem>up</stem>
                <beam number="1">end</beam>
                <beam number="2">backward hook</beam>
                <notations>
                    <tied type="start"/>
                </notations>
                <lyric number="1">
                    <syllabic>single</syllabic>
                    <text font-weight="bold">When</text>
                    <extend/>
                </lyric>
            </note>
            <note>
                <pitch>
                    <step>E</step>
                    <alter>-1</alter>
                    <octave>4</octave>
                </pitch>
                <duration>2</duration>
                <tie type="stop"/>
                <voice>1</voice>
                <type>eighth</type>
                <stem>up</stem>
                <beam number="1">begin</beam>
                <notations>
                    <tied type="stop"/>
                </notations>
            </note>
            <note>
                <pitch>
                    <step>F</step>
                    <octave>4</octave>
                </pitch>
                <duration>2</duration>
                <voice>1</voice>
                <type>eighth</type>
                <stem>up</stem>
                <beam number="1">end</beam>
                <lyric number="1">
                    <syllabic>single</syllabic>
                    <text font-weight="bold">we</text>
                </lyric>
            </note>
            <barline location="right">
                <bar-style>light-heavy</bar-style>
                <repeat direction="backward"/>
            </barline>
        </measure>
    </part>
</score-partwise>
