<?xml version="1.0" encoding="UTF-8"?>
<!DOCTYPE score-partwise PUBLIC "-//Recordare//DTD MusicXML 2.0 Partwise//EN" "http://www.musicxml.org/dtds/partwise.dtd">
<score-partwise version="2.0">
    <work>
        <work-number></work-number>
        <work-title></work-title>
    </work>
    <movement-number></movement-number>
    <movement-title>Trolletjes</movement-title>
    <identification>
        <creator type="composer">Ruben Faelens</creator>
        <creator type="poet"></creator>
        <rights>All Rights Reserved</rights>
        <encoding>
            <software>Finale 2009 for Windows</software>
            <software>Dolet Light for Finale 2009</software>
            <encoding-date>2009-02-23</encoding-date>
            <supports value="yes" type="yes" element="print" attribute="new-system"/>
            <supports value="yes" type="yes" element="print" attribute="new-page"/>
            <software>ProxyMusic 2.0 c</software>
        </encoding>
        <source>http://wikifonia.org/node/1358/revisions/1772/view</source>
    </identification>
    <defaults>
        <scaling>
            <millimeters>7.2319</millimeters>
            <tenths>40</tenths>
        </scaling>
        <page-layout>
            <page-height>1545</page-height>
            <page-width>1194</page-width>
            <page-margins type="both">
                <left-margin>140</left-margin>
                <right-margin>70</right-margin>
                <top-margin>88</top-margin>
                <bottom-margin>88</bottom-margin>
            </page-margins>
        </page-layout>
        <system-layout>
            <system-margins>
                <left-margin>0</left-margin>
                <right-margin>0</right-margin>
            </system-margins>
            <system-distance>121</system-distance>
            <top-system-distance>70</top-system-distance>
        </system-layout>
        <appearance>
            <line-width type="stem">0.8175</line-width>
            <line-width type="beam">4.2708</line-width>
            <line-width type="staff">1.2457</line-width>
            <line-width type="light barline">1.2457</line-width>
            <line-width type="heavy barline">4.2708</line-width>
            <line-width type="leger">1.6016</line-width>
            <line-width type="ending">1.2457</line-width>
            <line-width type="wedge">1.2457</line-width>
            <line-width type="enclosure">1.2457</line-width>
            <line-width type="tuplet bracket">1.2457</line-width>
            <note-size type="grace">60</note-size>
            <note-size type="cue">60</note-size>
        </appearance>
        <music-font font-size="20.5" font-family="Jazz"/>
        <word-font font-size="12" font-family="JazzText"/>
    </defaults>
    <credit page="1">
        <credit-words font-weight="bold" font-size="24" default-y="1458" default-x="632" justify="center" valign="top">Trolletjes</credit-words>
    </credit>
    <credit page="1">
        <credit-words font-size="14" default-y="1360" default-x="1124" justify="right" valign="top">Arranged By: </credit-words>
    </credit>
    <part-list>
        <score-part id="P1">
            <part-name>Flute</part-name>
            <score-instrument id="P1-I1">
                <instrument-name>Flute</instrument-name>
            </score-instrument>
            <midi-instrument id="P1-I1">
                <midi-channel>1</midi-channel>
                <midi-program>74</midi-program>
                <volume>80</volume>
                <pan>0</pan>
            </midi-instrument>
        </score-part>
    </part-list>
    <part id="P1">
        <measure width="408" number="1">
            <print>
                <system-layout>
                    <system-margins>
                        <left-margin>70</left-margin>
                        <right-margin>0</right-margin>
                    </system-margins>
                    <top-system-distance>172</top-system-distance>
                </system-layout>
            </print>
            <barline location="left">
                <bar-style>heavy-light</bar-style>
                <repeat direction="forward"/>
            </barline>
            <attributes>
                <divisions>2</divisions>
                <key>
                    <fifths>2</fifths>
                    <mode>major</mode>
                </key>
                <time>
                    <beats>12</beats>
                    <beat-type>8</beat-type>
                </time>
                <clef>
                    <sign>G</sign>
                    <line>2</line>
                </clef>
            </attributes>
            <sound tempo="180"/>
            <harmony font-size="15.4" default-y="40">
                <root>
                    <root-step>D</root-step>
                </root>
                <kind halign="center" text="">major</kind>
            </harmony>
            <note default-x="161">
                <pitch>
                    <step>A</step>
                    <octave>4</octave>
                </pitch>
                <duration>1</duration>
                <voice>1</voice>
                <type>eighth</type>
                <stem default-y="-60">down</stem>
                <beam number="1">begin</beam>
            </note>
            <note default-x="184">
                <pitch>
                    <step>D</step>
                    <octave>5</octave>
                </pitch>
                <duration>1</duration>
                <voice>1</voice>
                <type>eighth</type>
                <stem default-y="-57.5">down</stem>
                <beam number="1">continue</beam>
            </note>
            <note default-x="207">
                <pitch>
                    <step>D</step>
                    <octave>5</octave>
                </pitch>
                <duration>1</duration>
                <voice>1</voice>
                <type>eighth</type>
                <stem default-y="-55">down</stem>
                <beam number="1">end</beam>
            </note>
            <note default-x="230">
                <pitch>
                    <step>D</step>
                    <octave>5</octave>
                </pitch>
                <duration>2</duration>
                <voice>1</voice>
                <type>quarter</type>
                <stem default-y="-45">down</stem>
            </note>
            <note default-x="266">
                <pitch>
                    <step>E</step>
                    <octave>5</octave>
                </pitch>
                <duration>1</duration>
                <voice>1</voice>
                <type>eighth</type>
                <stem default-y="-40.5">down</stem>
            </note>
            <note default-x="289">
                <pitch>
                    <step>F</step>
                    <alter>1</alter>
                    <octave>5</octave>
                </pitch>
                <duration>3</duration>
                <voice>1</voice>
                <type>quarter</type>
                <dot/>
                <stem default-y="-35.5">down</stem>
            </note>
            <note default-x="338">
                <pitch>
                    <step>D</step>
                    <octave>5</octave>
                </pitch>
                <duration>1</duration>
                <voice>1</voice>
                <type>eighth</type>
                <stem default-y="-45">down</stem>
                <beam number="1">begin</beam>
            </note>
            <note default-x="361">
                <pitch>
                    <step>E</step>
                    <octave>5</octave>
                </pitch>
                <duration>1</duration>
                <voice>1</voice>
                <type>eighth</type>
                <stem default-y="-42">down</stem>
                <beam number="1">continue</beam>
            </note>
            <note default-x="384">
                <pitch>
                    <step>F</step>
                    <alter>1</alter>
                    <octave>5</octave>
                </pitch>
                <duration>1</duration>
                <voice>1</voice>
                <type>eighth</type>
                <stem default-y="-40">down</stem>
                <beam number="1">end</beam>
            </note>
        </measure>
        <measure width="245" number="2">
            <harmony font-size="15.4" default-y="40">
                <root>
                    <root-step>G</root-step>
                </root>
                <kind halign="center" text="">major</kind>
            </harmony>
            <note default-x="11">
                <pitch>
                    <step>G</step>
                    <octave>5</octave>
                </pitch>
                <duration>3</duration>
                <voice>1</voice>
                <type>quarter</type>
                <dot/>
                <stem default-y="-31">down</stem>
            </note>
            <note default-x="60">
                <pitch>
                    <step>F</step>
                    <alter>1</alter>
                    <octave>5</octave>
                </pitch>
                <duration>1</duration>
                <voice>1</voice>
                <type>eighth</type>
                <stem default-y="-40">down</stem>
                <beam number="1">begin</beam>
            </note>
            <note default-x="82">
                <pitch>
                    <step>E</step>
                    <octave>5</octave>
                </pitch>
                <duration>1</duration>
                <voice>1</voice>
                <type>eighth</type>
                <stem default-y="-41">down</stem>
                <beam number="1">continue</beam>
            </note>
            <note default-x="105">
                <pitch>
                    <step>D</step>
                    <octave>5</octave>
                </pitch>
                <duration>1</duration>
                <voice>1</voice>
                <type>eighth</type>
                <stem default-y="-42">down</stem>
                <beam number="1">end</beam>
            </note>
            <note default-x="129">
                <pitch>
                    <step>B</step>
                    <octave>4</octave>
                </pitch>
                <duration>3</duration>
                <voice>1</voice>
                <type>quarter</type>
                <dot/>
                <stem default-y="-55.5">down</stem>
            </note>
            <note default-x="178">
                <pitch>
                    <step>B</step>
                    <octave>4</octave>
                </pitch>
                <duration>2</duration>
                <voice>1</voice>
                <type>quarter</type>
                <stem default-y="-55.5">down</stem>
                <notations>
                    <articulations>
                        <breath-mark placement="above" relative-x="18"/>
                    </articulations>
                </notations>
            </note>
            <note default-x="215">
                <pitch>
                    <step>A</step>
                    <octave>4</octave>
                </pitch>
                <duration>1</duration>
                <voice>1</voice>
                <type>eighth</type>
                <stem default-y="10">up</stem>
            </note>
        </measure>
        <measure width="260" number="3">
            <harmony font-size="15.4" default-y="40">
                <root>
                    <root-step>E</root-step>
                </root>
                <kind halign="center" text="m">minor</kind>
            </harmony>
            <note default-x="10">
                <pitch>
                    <step>B</step>
                    <octave>4</octave>
                </pitch>
                <duration>1</duration>
                <voice>1</voice>
                <type>eighth</type>
                <stem default-y="-55">down</stem>
                <beam number="1">begin</beam>
            </note>
            <note default-x="32">
                <pitch>
                    <step>E</step>
                    <octave>5</octave>
                </pitch>
                <duration>1</duration>
                <voice>1</voice>
                <type>eighth</type>
                <stem default-y="-52.5">down</stem>
                <beam number="1">continue</beam>
            </note>
            <note default-x="55">
                <pitch>
                    <step>E</step>
                    <octave>5</octave>
                </pitch>
                <duration>1</duration>
                <voice>1</voice>
                <type>eighth</type>
                <stem default-y="-50">down</stem>
                <beam number="1">end</beam>
            </note>
            <note default-x="76">
                <pitch>
                    <step>E</step>
                    <octave>5</octave>
                </pitch>
                <duration>2</duration>
                <voice>1</voice>
                <type>quarter</type>
                <stem default-y="-40.5">down</stem>
            </note>
            <note default-x="112">
                <pitch>
                    <step>F</step>
                    <alter>1</alter>
                    <octave>5</octave>
                </pitch>
                <duration>1</duration>
                <voice>1</voice>
                <type>eighth</type>
                <stem default-y="-35.5">down</stem>
            </note>
            <harmony font-size="15.4" default-y="40">
                <root>
                    <root-step>A</root-step>
                </root>
                <kind halign="center" text="">major</kind>
            </harmony>
            <note default-x="135">
                <pitch>
                    <step>E</step>
                    <octave>5</octave>
                </pitch>
                <duration>1</duration>
                <voice>1</voice>
                <type>eighth</type>
                <stem default-y="-45">down</stem>
                <beam number="1">begin</beam>
            </note>
            <note default-x="156">
                <pitch>
                    <step>D</step>
                    <octave>5</octave>
                </pitch>
                <duration>1</duration>
                <voice>1</voice>
                <type>eighth</type>
                <stem default-y="-47">down</stem>
                <beam number="1">continue</beam>
            </note>
            <note default-x="178">
                <pitch>
                    <step>C</step>
                    <alter>1</alter>
                    <octave>5</octave>
                </pitch>
                <duration>1</duration>
                <voice>1</voice>
                <type>eighth</type>
                <stem default-y="-50">down</stem>
                <beam number="1">end</beam>
            </note>
            <note default-x="200">
                <pitch>
                    <step>A</step>
                    <octave>5</octave>
                </pitch>
                <duration>2</duration>
                <voice>1</voice>
                <type>quarter</type>
                <stem default-y="-25">down</stem>
            </note>
            <note default-x="236">
                <pitch>
                    <step>G</step>
                    <octave>5</octave>
                </pitch>
                <duration>1</duration>
                <voice>1</voice>
                <type>eighth</type>
                <stem default-y="-31">down</stem>
            </note>
        </measure>
        <measure width="377" number="4">
            <print new-system="yes">
                <system-layout>
                    <system-distance>114</system-distance>
                </system-layout>
            </print>
            <barline location="left">
                <ending font-size="8.5" default-y="40" type="start" number="1" end-length="30"></ending>
            </barline>
            <harmony font-size="15.4" default-y="40">
                <root>
                    <root-step>D</root-step>
                </root>
                <kind halign="center" text="">major</kind>
            </harmony>
            <note default-x="89">
                <pitch>
                    <step>F</step>
                    <alter>1</alter>
                    <octave>5</octave>
                </pitch>
                <duration>1</duration>
                <voice>1</voice>
                <type>eighth</type>
                <stem default-y="-40">down</stem>
                <beam number="1">begin</beam>
            </note>
            <note default-x="115">
                <pitch>
                    <step>E</step>
                    <octave>5</octave>
                </pitch>
                <duration>1</duration>
                <voice>1</voice>
                <type>eighth</type>
                <stem default-y="-41">down</stem>
                <beam number="1">continue</beam>
            </note>
            <note default-x="140">
                <pitch>
                    <step>D</step>
                    <octave>5</octave>
                </pitch>
                <duration>1</duration>
                <voice>1</voice>
                <type>eighth</type>
                <stem default-y="-42">down</stem>
                <beam number="1">end</beam>
            </note>
            <harmony font-size="15.4" default-y="40">
                <root>
                    <root-step>A</root-step>
                </root>
                <kind halign="center" text="">major</kind>
            </harmony>
            <note default-x="166">
                <pitch>
                    <step>C</step>
                    <alter>1</alter>
                    <octave>5</octave>
                </pitch>
                <duration>1</duration>
                <voice>1</voice>
                <type>eighth</type>
                <stem default-y="-55">down</stem>
                <beam number="1">begin</beam>
            </note>
            <note default-x="192">
                <pitch>
                    <step>B</step>
                    <octave>4</octave>
                </pitch>
                <duration>1</duration>
                <voice>1</voice>
                <type>eighth</type>
                <stem default-y="-55">down</stem>
                <beam number="1">continue</beam>
            </note>
            <note default-x="218">
                <pitch>
                    <step>C</step>
                    <alter>1</alter>
                    <octave>5</octave>
                </pitch>
                <duration>1</duration>
                <voice>1</voice>
                <type>eighth</type>
                <stem default-y="-55">down</stem>
                <beam number="1">end</beam>
            </note>
            <harmony font-size="15.4" default-y="40">
                <root>
                    <root-step>D</root-step>
                </root>
                <kind halign="center" text="">major</kind>
            </harmony>
            <note default-x="244">
                <pitch>
                    <step>D</step>
                    <octave>5</octave>
                </pitch>
                <duration>3</duration>
                <voice>1</voice>
                <type>quarter</type>
                <dot/>
                <stem default-y="-45">down</stem>
            </note>
            <note default-x="300">
                <pitch>
                    <step>D</step>
                    <octave>5</octave>
                </pitch>
                <duration>3</duration>
                <voice>1</voice>
                <type>quarter</type>
                <dot/>
                <stem default-y="-45">down</stem>
                <notations>
                    <articulations>
                        <breath-mark placement="above" relative-x="24" default-y="21"/>
                    </articulations>
                </notations>
            </note>
            <barline location="right">
                <bar-style>light-heavy</bar-style>
                <ending type="stop" number="1"></ending>
                <repeat direction="backward"/>
            </barline>
        </measure>
        <measure width="319" number="5">
            <barline location="left">
                <ending font-size="8.5" default-y="40" type="start" number="2, 4" end-length="30"></ending>
            </barline>
            <harmony font-size="15.4" default-y="40">
                <root>
                    <root-step>D</root-step>
                </root>
                <kind halign="center" text="">major</kind>
            </harmony>
            <note default-x="9">
                <pitch>
                    <step>F</step>
                    <alter>1</alter>
                    <octave>5</octave>
                </pitch>
                <duration>1</duration>
                <voice>1</voice>
                <type>eighth</type>
                <stem default-y="-40">down</stem>
                <beam number="1">begin</beam>
            </note>
            <note default-x="34">
                <pitch>
                    <step>E</step>
                    <octave>5</octave>
                </pitch>
                <duration>1</duration>
                <voice>1</voice>
                <type>eighth</type>
                <stem default-y="-41">down</stem>
                <beam number="1">continue</beam>
            </note>
            <note default-x="60">
                <pitch>
                    <step>D</step>
                    <octave>5</octave>
                </pitch>
                <duration>1</duration>
                <voice>1</voice>
                <type>eighth</type>
                <stem default-y="-42">down</stem>
                <beam number="1">end</beam>
            </note>
            <harmony font-size="15.4" default-y="40">
                <root>
                    <root-step>A</root-step>
                </root>
                <kind halign="center" text="">major</kind>
            </harmony>
            <note default-x="86">
                <pitch>
                    <step>C</step>
                    <alter>1</alter>
                    <octave>5</octave>
                </pitch>
                <duration>1</duration>
                <voice>1</voice>
                <type>eighth</type>
                <stem default-y="-55">down</stem>
                <beam number="1">begin</beam>
            </note>
            <note default-x="112">
                <pitch>
                    <step>B</step>
                    <octave>4</octave>
                </pitch>
                <duration>1</duration>
                <voice>1</voice>
                <type>eighth</type>
                <stem default-y="-55">down</stem>
                <beam number="1">continue</beam>
            </note>
            <note default-x="138">
                <pitch>
                    <step>C</step>
                    <alter>1</alter>
                    <octave>5</octave>
                </pitch>
                <duration>1</duration>
                <voice>1</voice>
                <type>eighth</type>
                <stem default-y="-55">down</stem>
                <beam number="1">end</beam>
            </note>
            <harmony font-size="15.4" default-y="40">
                <root>
                    <root-step>D</root-step>
                </root>
                <kind halign="center" text="">major</kind>
            </harmony>
            <note default-x="164">
                <pitch>
                    <step>D</step>
                    <octave>5</octave>
                </pitch>
                <duration>3</duration>
                <voice>1</voice>
                <type>quarter</type>
                <dot/>
                <stem default-y="-45">down</stem>
                <notations>
                    <articulations>
                        <breath-mark placement="above" relative-x="18" default-y="14"/>
                    </articulations>
                </notations>
            </note>
            <harmony font-size="15.4" default-y="40">
                <root>
                    <root-step>G</root-step>
                </root>
                <kind halign="center" text="">major</kind>
            </harmony>
            <note default-x="219">
                <pitch>
                    <step>D</step>
                    <octave>5</octave>
                </pitch>
                <duration>1</duration>
                <voice>1</voice>
                <type>eighth</type>
                <stem default-y="-60">down</stem>
                <beam number="1">begin</beam>
            </note>
            <note default-x="245">
                <pitch>
                    <step>B</step>
                    <octave>4</octave>
                </pitch>
                <duration>1</duration>
                <voice>1</voice>
                <type>eighth</type>
                <stem default-y="-62">down</stem>
                <beam number="1">continue</beam>
            </note>
            <note default-x="271">
                <pitch>
                    <step>G</step>
                    <octave>4</octave>
                </pitch>
                <duration>1</duration>
                <voice>1</voice>
                <type>eighth</type>
                <stem default-y="-65">down</stem>
                <beam number="1">end</beam>
            </note>
            <barline location="right">
                <bar-style>light-heavy</bar-style>
                <ending type="stop" number="2, 4"></ending>
                <repeat direction="backward"/>
            </barline>
        </measure>
        <measure width="288" number="6">
            <barline location="left">
                <ending font-size="8.5" default-y="40" type="start" number="3, 5" end-length="30"></ending>
            </barline>
            <harmony font-size="15.4" default-y="40">
                <root>
                    <root-step>D</root-step>
                </root>
                <kind halign="center" text="">major</kind>
            </harmony>
            <note default-x="8">
                <pitch>
                    <step>F</step>
                    <alter>1</alter>
                    <octave>5</octave>
                </pitch>
                <duration>1</duration>
                <voice>1</voice>
                <type>eighth</type>
                <stem default-y="-40">down</stem>
                <beam number="1">begin</beam>
            </note>
            <note default-x="34">
                <pitch>
                    <step>E</step>
                    <octave>5</octave>
                </pitch>
                <duration>1</duration>
                <voice>1</voice>
                <type>eighth</type>
                <stem default-y="-41">down</stem>
                <beam number="1">continue</beam>
            </note>
            <note default-x="60">
                <pitch>
                    <step>D</step>
                    <octave>5</octave>
                </pitch>
                <duration>1</duration>
                <voice>1</voice>
                <type>eighth</type>
                <stem default-y="-42">down</stem>
                <beam number="1">end</beam>
            </note>
            <harmony font-size="15.4" default-y="40">
                <root>
                    <root-step>A</root-step>
                </root>
                <kind halign="center" text="">major</kind>
            </harmony>
            <note default-x="86">
                <pitch>
                    <step>C</step>
                    <alter>1</alter>
                    <octave>5</octave>
                </pitch>
                <duration>1</duration>
                <voice>1</voice>
                <type>eighth</type>
                <stem default-y="-55">down</stem>
                <beam number="1">begin</beam>
            </note>
            <note default-x="112">
                <pitch>
                    <step>B</step>
                    <octave>4</octave>
                </pitch>
                <duration>1</duration>
                <voice>1</voice>
                <type>eighth</type>
                <stem default-y="-55">down</stem>
                <beam number="1">continue</beam>
            </note>
            <note default-x="138">
                <pitch>
                    <step>C</step>
                    <alter>1</alter>
                    <octave>5</octave>
                </pitch>
                <duration>1</duration>
                <voice>1</voice>
                <type>eighth</type>
                <stem default-y="-55">down</stem>
                <beam number="1">end</beam>
            </note>
            <harmony font-size="15.4" default-y="40">
                <root>
                    <root-step>D</root-step>
                </root>
                <kind halign="center" text="">major</kind>
            </harmony>
            <note default-x="163">
                <pitch>
                    <step>D</step>
                    <octave>5</octave>
                </pitch>
                <duration>3</duration>
                <voice>1</voice>
                <type>quarter</type>
                <dot/>
                <stem default-y="-45">down</stem>
            </note>
            <note default-x="219">
                <pitch>
                    <step>D</step>
                    <octave>5</octave>
                </pitch>
                <duration>2</duration>
                <voice>1</voice>
                <type>quarter</type>
                <stem default-y="-45">down</stem>
                <notations>
                    <articulations>
                        <breath-mark placement="above" relative-x="23" default-y="14"/>
                    </articulations>
                </notations>
            </note>
            <note default-x="260">
                <pitch>
                    <step>E</step>
                    <octave>5</octave>
                </pitch>
                <duration>1</duration>
                <voice>1</voice>
                <type>eighth</type>
                <stem default-y="-40">down</stem>
            </note>
            <barline location="right">
                <ending type="discontinue" number="3, 5"></ending>
            </barline>
        </measure>
        <measure width="382" number="7">
            <print new-system="yes">
                <system-layout>
                    <system-distance>114</system-distance>
                </system-layout>
            </print>
            <harmony font-size="15.4" default-y="40">
                <root>
                    <root-step>B</root-step>
                </root>
                <kind halign="center" text="m">minor</kind>
            </harmony>
            <note default-x="89">
                <pitch>
                    <step>F</step>
                    <alter>1</alter>
                    <octave>5</octave>
                </pitch>
                <duration>1</duration>
                <voice>1</voice>
                <type>eighth</type>
                <stem default-y="-35">down</stem>
                <beam number="1">begin</beam>
            </note>
            <note default-x="116">
                <pitch>
                    <step>A</step>
                    <octave>5</octave>
                </pitch>
                <duration>1</duration>
                <voice>1</voice>
                <type>eighth</type>
                <stem default-y="-34">down</stem>
                <beam number="1">continue</beam>
            </note>
            <note default-x="143">
                <pitch>
                    <step>A</step>
                    <octave>5</octave>
                </pitch>
                <duration>1</duration>
                <voice>1</voice>
                <type>eighth</type>
                <stem default-y="-32.5">down</stem>
                <beam number="1">end</beam>
            </note>
            <note default-x="170">
                <pitch>
                    <step>A</step>
                    <octave>5</octave>
                </pitch>
                <duration>2</duration>
                <voice>1</voice>
                <type>quarter</type>
                <stem default-y="-25.5">down</stem>
            </note>
            <note default-x="214">
                <pitch>
                    <step>F</step>
                    <alter>1</alter>
                    <octave>5</octave>
                </pitch>
                <duration>1</duration>
                <voice>1</voice>
                <type>eighth</type>
                <stem default-y="-35">down</stem>
            </note>
            <note default-x="241">
                <pitch>
                    <step>D</step>
                    <octave>5</octave>
                </pitch>
                <duration>3</duration>
                <voice>1</voice>
                <type>quarter</type>
                <dot/>
                <stem default-y="-45.5">down</stem>
            </note>
            <note default-x="299">
                <pitch>
                    <step>D</step>
                    <octave>5</octave>
                </pitch>
                <duration>1</duration>
                <voice>1</voice>
                <type>eighth</type>
                <stem default-y="-45">down</stem>
                <beam number="1">begin</beam>
            </note>
            <note default-x="326">
                <pitch>
                    <step>E</step>
                    <octave>5</octave>
                </pitch>
                <duration>1</duration>
                <voice>1</voice>
                <type>eighth</type>
                <stem default-y="-42">down</stem>
                <beam number="1">continue</beam>
            </note>
            <note default-x="354">
                <pitch>
                    <step>F</step>
                    <alter>1</alter>
                    <octave>5</octave>
                </pitch>
                <duration>1</duration>
                <voice>1</voice>
                <type>eighth</type>
                <stem default-y="-40">down</stem>
                <beam number="1">end</beam>
            </note>
        </measure>
        <measure width="297" number="8">
            <harmony font-size="15.4" default-y="40">
                <root>
                    <root-step>A</root-step>
                </root>
                <kind halign="center" text="">major</kind>
            </harmony>
            <note default-x="10">
                <pitch>
                    <step>E</step>
                    <octave>5</octave>
                </pitch>
                <duration>2</duration>
                <voice>1</voice>
                <type>quarter</type>
                <stem default-y="-40">down</stem>
            </note>
            <note default-x="54">
                <pitch>
                    <step>A</step>
                    <octave>4</octave>
                </pitch>
                <duration>1</duration>
                <voice>1</voice>
                <type>eighth</type>
                <stem default-y="10.5">up</stem>
            </note>
            <note default-x="83">
                <pitch>
                    <step>D</step>
                    <octave>5</octave>
                </pitch>
                <duration>2</duration>
                <voice>1</voice>
                <type>quarter</type>
                <stem default-y="-45.5">down</stem>
            </note>
            <note default-x="127">
                <pitch>
                    <step>E</step>
                    <octave>5</octave>
                </pitch>
                <duration>1</duration>
                <voice>1</voice>
                <type>eighth</type>
                <stem default-y="-40">down</stem>
            </note>
            <harmony font-size="15.4" default-y="40">
                <root>
                    <root-step>D</root-step>
                </root>
                <kind halign="center" text="">major</kind>
            </harmony>
            <note default-x="154">
                <pitch>
                    <step>F</step>
                    <alter>1</alter>
                    <octave>5</octave>
                </pitch>
                <duration>2</duration>
                <voice>1</voice>
                <type>quarter</type>
                <stem default-y="-35">down</stem>
            </note>
            <note default-x="198">
                <pitch>
                    <step>E</step>
                    <octave>5</octave>
                </pitch>
                <duration>1</duration>
                <voice>1</voice>
                <type>eighth</type>
                <stem default-y="-40">down</stem>
            </note>
            <note default-x="225">
                <pitch>
                    <step>D</step>
                    <octave>5</octave>
                </pitch>
                <duration>2</duration>
                <voice>1</voice>
                <type>quarter</type>
                <stem default-y="-45.5">down</stem>
                <notations>
                    <articulations>
                        <breath-mark placement="above" relative-x="15" default-y="14"/>
                    </articulations>
                </notations>
            </note>
            <note default-x="268">
                <pitch>
                    <step>E</step>
                    <octave>5</octave>
                </pitch>
                <duration>1</duration>
                <voice>1</voice>
                <type>eighth</type>
                <stem default-y="-40">down</stem>
            </note>
        </measure>
        <measure width="304" number="9">
            <harmony font-size="15.4" default-y="40">
                <root>
                    <root-step>B</root-step>
                </root>
                <kind halign="center" text="m">minor</kind>
            </harmony>
            <note default-x="10">
                <pitch>
                    <step>F</step>
                    <alter>1</alter>
                    <octave>5</octave>
                </pitch>
                <duration>1</duration>
                <voice>1</voice>
                <type>eighth</type>
                <stem default-y="-35">down</stem>
                <beam number="1">begin</beam>
            </note>
            <note default-x="37">
                <pitch>
                    <step>A</step>
                    <octave>5</octave>
                </pitch>
                <duration>1</duration>
                <voice>1</voice>
                <type>eighth</type>
                <stem default-y="-34">down</stem>
                <beam number="1">continue</beam>
            </note>
            <note default-x="64">
                <pitch>
                    <step>A</step>
                    <octave>5</octave>
                </pitch>
                <duration>1</duration>
                <voice>1</voice>
                <type>eighth</type>
                <stem default-y="-32.5">down</stem>
                <beam number="1">end</beam>
            </note>
            <note default-x="92">
                <pitch>
                    <step>A</step>
                    <octave>5</octave>
                </pitch>
                <duration>2</duration>
                <voice>1</voice>
                <type>quarter</type>
                <stem default-y="-25.5">down</stem>
            </note>
            <note default-x="136">
                <pitch>
                    <step>F</step>
                    <alter>1</alter>
                    <octave>5</octave>
                </pitch>
                <duration>1</duration>
                <voice>1</voice>
                <type>eighth</type>
                <stem default-y="-35">down</stem>
            </note>
            <note default-x="163">
                <pitch>
                    <step>D</step>
                    <octave>5</octave>
                </pitch>
                <duration>3</duration>
                <voice>1</voice>
                <type>quarter</type>
                <dot/>
                <stem default-y="-45.5">down</stem>
            </note>
            <note default-x="221">
                <pitch>
                    <step>D</step>
                    <octave>5</octave>
                </pitch>
                <duration>1</duration>
                <voice>1</voice>
                <type>eighth</type>
                <stem default-y="-45">down</stem>
                <beam number="1">begin</beam>
            </note>
            <note default-x="248">
                <pitch>
                    <step>E</step>
                    <octave>5</octave>
                </pitch>
                <duration>1</duration>
                <voice>1</voice>
                <type>eighth</type>
                <stem default-y="-42">down</stem>
                <beam number="1">continue</beam>
            </note>
            <note default-x="275">
                <pitch>
                    <step>F</step>
                    <alter>1</alter>
                    <octave>5</octave>
                </pitch>
                <duration>1</duration>
                <voice>1</voice>
                <type>eighth</type>
                <stem default-y="-40">down</stem>
                <beam number="1">end</beam>
            </note>
        </measure>
        <measure width="354" number="10">
            <print new-system="yes">
                <system-layout>
                    <system-distance>114</system-distance>
                </system-layout>
            </print>
            <harmony font-size="15.4" default-y="40">
                <root>
                    <root-step>A</root-step>
                </root>
                <kind halign="center" text="">major</kind>
            </harmony>
            <note default-x="89">
                <pitch>
                    <step>E</step>
                    <octave>5</octave>
                </pitch>
                <duration>2</duration>
                <voice>1</voice>
                <type>quarter</type>
                <stem default-y="-40.5">down</stem>
            </note>
            <note default-x="134">
                <pitch>
                    <step>D</step>
                    <octave>5</octave>
                </pitch>
                <duration>1</duration>
                <voice>1</voice>
                <type>eighth</type>
                <stem default-y="-45.5">down</stem>
            </note>
            <note default-x="161">
                <pitch>
                    <step>F</step>
                    <alter>1</alter>
                    <octave>5</octave>
                </pitch>
                <duration>2</duration>
                <voice>1</voice>
                <type>quarter</type>
                <stem default-y="-35">down</stem>
            </note>
            <note default-x="206">
                <pitch>
                    <step>E</step>
                    <octave>5</octave>
                </pitch>
                <duration>1</duration>
                <voice>1</voice>
                <type>eighth</type>
                <stem default-y="-40.5">down</stem>
            </note>
            <harmony font-size="15.4" default-y="40">
                <root>
                    <root-step>D</root-step>
                </root>
                <kind halign="center" text="">major</kind>
            </harmony>
            <note default-x="234">
                <pitch>
                    <step>D</step>
                    <octave>5</octave>
                </pitch>
                <duration>3</duration>
                <voice>1</voice>
                <type>quarter</type>
                <dot/>
                <stem default-y="-45.5">down</stem>
            </note>
            <note default-x="293">
                <pitch>
                    <step>D</step>
                    <octave>5</octave>
                </pitch>
                <duration>3</duration>
                <voice>1</voice>
                <type>quarter</type>
                <dot/>
                <stem default-y="-45.5">down</stem>
                <notations>
                    <articulations>
                        <breath-mark placement="above" relative-x="19" default-y="14"/>
                    </articulations>
                </notations>
            </note>
        </measure>
        <measure width="318" number="11">
            <harmony font-size="15.4" default-y="40">
                <root>
                    <root-step>B</root-step>
                </root>
                <kind halign="center" text="m">minor</kind>
            </harmony>
            <note default-x="10">
                <pitch>
                    <step>F</step>
                    <alter>1</alter>
                    <octave>5</octave>
                </pitch>
                <duration>1</duration>
                <voice>1</voice>
                <type>eighth</type>
                <stem default-y="-35">down</stem>
                <beam number="1">begin</beam>
            </note>
            <note default-x="38">
                <pitch>
                    <step>A</step>
                    <octave>5</octave>
                </pitch>
                <duration>1</duration>
                <voice>1</voice>
                <type>eighth</type>
                <stem default-y="-34">down</stem>
                <beam number="1">continue</beam>
            </note>
            <note default-x="67">
                <pitch>
                    <step>A</step>
                    <octave>5</octave>
                </pitch>
                <duration>1</duration>
                <voice>1</voice>
                <type>eighth</type>
                <stem default-y="-32">down</stem>
                <beam number="1">end</beam>
            </note>
            <note default-x="95">
                <pitch>
                    <step>A</step>
                    <octave>5</octave>
                </pitch>
                <duration>2</duration>
                <voice>1</voice>
                <type>quarter</type>
                <stem default-y="-25.5">down</stem>
            </note>
            <note default-x="142">
                <pitch>
                    <step>B</step>
                    <octave>5</octave>
                </pitch>
                <duration>1</duration>
                <voice>1</voice>
                <type>eighth</type>
                <stem default-y="-20.5">down</stem>
            </note>
            <note default-x="170">
                <pitch>
                    <step>D</step>
                    <octave>5</octave>
                </pitch>
                <duration>3</duration>
                <voice>1</voice>
                <type>quarter</type>
                <dot/>
                <stem default-y="-45.5">down</stem>
            </note>
            <note default-x="231">
                <pitch>
                    <step>D</step>
                    <octave>5</octave>
                </pitch>
                <duration>1</duration>
                <voice>1</voice>
                <type>eighth</type>
                <stem default-y="-45">down</stem>
                <beam number="1">begin</beam>
            </note>
            <note default-x="260">
                <pitch>
                    <step>E</step>
                    <octave>5</octave>
                </pitch>
                <duration>1</duration>
                <voice>1</voice>
                <type>eighth</type>
                <stem default-y="-42.5">down</stem>
                <beam number="1">continue</beam>
            </note>
            <note default-x="289">
                <pitch>
                    <step>F</step>
                    <alter>1</alter>
                    <octave>5</octave>
                </pitch>
                <duration>1</duration>
                <voice>1</voice>
                <type>eighth</type>
                <stem default-y="-40">down</stem>
                <beam number="1">end</beam>
            </note>
        </measure>
        <measure width="311" number="12">
            <harmony font-size="15.4" default-y="40">
                <root>
                    <root-step>A</root-step>
                </root>
                <kind halign="center" text="">major</kind>
            </harmony>
            <note default-x="11">
                <pitch>
                    <step>E</step>
                    <octave>5</octave>
                </pitch>
                <duration>2</duration>
                <voice>1</voice>
                <type>quarter</type>
                <stem default-y="-40.5">down</stem>
            </note>
            <note default-x="57">
                <pitch>
                    <step>A</step>
                    <octave>4</octave>
                </pitch>
                <duration>1</duration>
                <voice>1</voice>
                <type>eighth</type>
                <stem default-y="11">up</stem>
            </note>
            <note default-x="86">
                <pitch>
                    <step>D</step>
                    <octave>5</octave>
                </pitch>
                <duration>2</duration>
                <voice>1</voice>
                <type>quarter</type>
                <stem default-y="-45.5">down</stem>
            </note>
            <note default-x="131">
                <pitch>
                    <step>E</step>
                    <octave>5</octave>
                </pitch>
                <duration>1</duration>
                <voice>1</voice>
                <type>eighth</type>
                <stem default-y="-40.5">down</stem>
            </note>
            <harmony font-size="15.4" default-y="40">
                <root>
                    <root-step>D</root-step>
                </root>
                <kind halign="center" text="">major</kind>
            </harmony>
            <note default-x="160">
                <pitch>
                    <step>F</step>
                    <alter>1</alter>
                    <octave>5</octave>
                </pitch>
                <duration>2</duration>
                <voice>1</voice>
                <type>quarter</type>
                <stem default-y="-35">down</stem>
            </note>
            <note default-x="206">
                <pitch>
                    <step>E</step>
                    <octave>5</octave>
                </pitch>
                <duration>1</duration>
                <voice>1</voice>
                <type>eighth</type>
                <stem default-y="-40.5">down</stem>
            </note>
            <note default-x="235">
                <pitch>
                    <step>D</step>
                    <octave>5</octave>
                </pitch>
                <duration>2</duration>
                <voice>1</voice>
                <type>quarter</type>
                <stem default-y="-45.5">down</stem>
                <notations>
                    <articulations>
                        <breath-mark placement="above" relative-x="19" default-y="14"/>
                    </articulations>
                </notations>
            </note>
            <note default-x="281">
                <pitch>
                    <step>E</step>
                    <octave>5</octave>
                </pitch>
                <duration>1</duration>
                <voice>1</voice>
                <type>eighth</type>
                <stem default-y="-40.5">down</stem>
            </note>
        </measure>
        <measure width="563" number="13">
            <print new-system="yes">
                <system-layout>
                    <system-distance>114</system-distance>
                </system-layout>
            </print>
            <harmony font-size="15.4" default-y="40">
                <root>
                    <root-step>B</root-step>
                </root>
                <kind halign="center" text="m">minor</kind>
            </harmony>
            <note default-x="89">
                <pitch>
                    <step>F</step>
                    <alter>1</alter>
                    <octave>5</octave>
                </pitch>
                <duration>1</duration>
                <voice>1</voice>
                <type>eighth</type>
                <stem default-y="-35">down</stem>
                <beam number="1">begin</beam>
            </note>
            <note default-x="133">
                <pitch>
                    <step>A</step>
                    <octave>5</octave>
                </pitch>
                <duration>1</duration>
                <voice>1</voice>
                <type>eighth</type>
                <stem default-y="-33.5">down</stem>
                <beam number="1">continue</beam>
            </note>
            <note default-x="177">
                <pitch>
                    <step>A</step>
                    <octave>5</octave>
                </pitch>
                <duration>1</duration>
                <voice>1</voice>
                <type>eighth</type>
                <stem default-y="-32.5">down</stem>
                <beam number="1">end</beam>
            </note>
            <note default-x="220">
                <pitch>
                    <step>A</step>
                    <octave>5</octave>
                </pitch>
                <duration>2</duration>
                <voice>1</voice>
                <type>quarter</type>
                <stem default-y="-25">down</stem>
            </note>
            <note default-x="292">
                <pitch>
                    <step>F</step>
                    <alter>1</alter>
                    <octave>5</octave>
                </pitch>
                <duration>1</duration>
                <voice>1</voice>
                <type>eighth</type>
                <stem default-y="-35.5">down</stem>
            </note>
            <note default-x="336">
                <pitch>
                    <step>D</step>
                    <octave>5</octave>
                </pitch>
                <duration>3</duration>
                <voice>1</voice>
                <type>quarter</type>
                <dot/>
                <stem default-y="-45">down</stem>
            </note>
            <note default-x="429">
                <pitch>
                    <step>D</step>
                    <octave>5</octave>
                </pitch>
                <duration>1</duration>
                <voice>1</voice>
                <type>eighth</type>
                <stem default-y="-45">down</stem>
                <beam number="1">begin</beam>
            </note>
            <note default-x="474">
                <pitch>
                    <step>E</step>
                    <octave>5</octave>
                </pitch>
                <duration>1</duration>
                <voice>1</voice>
                <type>eighth</type>
                <stem default-y="-42">down</stem>
                <beam number="1">continue</beam>
            </note>
            <note default-x="518">
                <pitch>
                    <step>F</step>
                    <alter>1</alter>
                    <octave>5</octave>
                </pitch>
                <duration>1</duration>
                <voice>1</voice>
                <type>eighth</type>
                <stem default-y="-40">down</stem>
                <beam number="1">end</beam>
            </note>
        </measure>
        <measure width="420" number="14">
            <harmony font-size="15.4" default-y="40">
                <root>
                    <root-step>A</root-step>
                </root>
                <kind halign="center" text="">major</kind>
            </harmony>
            <note default-x="11">
                <pitch>
                    <step>E</step>
                    <octave>5</octave>
                </pitch>
                <duration>2</duration>
                <voice>1</voice>
                <type>quarter</type>
                <stem default-y="-40.5">down</stem>
            </note>
            <note default-x="78">
                <pitch>
                    <step>D</step>
                    <octave>5</octave>
                </pitch>
                <duration>1</duration>
                <voice>1</voice>
                <type>eighth</type>
                <stem default-y="-45">down</stem>
            </note>
            <note default-x="120">
                <pitch>
                    <step>F</step>
                    <alter>1</alter>
                    <octave>5</octave>
                </pitch>
                <duration>2</duration>
                <voice>1</voice>
                <type>quarter</type>
                <stem default-y="-35.5">down</stem>
            </note>
            <note default-x="189">
                <pitch>
                    <step>E</step>
                    <octave>5</octave>
                </pitch>
                <duration>1</duration>
                <voice>1</voice>
                <type>eighth</type>
                <stem default-y="-40.5">down</stem>
            </note>
            <harmony font-size="15.4" default-y="40">
                <root>
                    <root-step>D</root-step>
                </root>
                <kind halign="center" text="">major</kind>
            </harmony>
            <note default-x="231">
                <pitch>
                    <step>D</step>
                    <octave>5</octave>
                </pitch>
                <duration>3</duration>
                <voice>1</voice>
                <type>quarter</type>
                <dot/>
                <stem default-y="-45">down</stem>
            </note>
            <note default-x="320">
                <pitch>
                    <step>D</step>
                    <octave>5</octave>
                </pitch>
                <duration>3</duration>
                <voice>1</voice>
                <type>quarter</type>
                <dot/>
                <stem default-y="-45">down</stem>
                <notations>
                    <articulations>
                        <breath-mark placement="above" relative-x="19" default-y="14"/>
                    </articulations>
                </notations>
            </note>
            <direction placement="above">
                <direction-type>
                    <words font-size="13.7" default-y="15" default-x="417" justify="right">D.C.</words>
                </direction-type>
                <sound dacapo="yes"/>
            </direction>
            <barline location="right">
                <bar-style>light-heavy</bar-style>
            </barline>
        </measure>
    </part>
</score-partwise>
