<?xml version="1.0" encoding="UTF-8"?>
<!DOCTYPE score-partwise PUBLIC "-//Recordare//DTD MusicXML 2.0 Partwise//EN" "http://www.musicxml.org/dtds/partwise.dtd">
<score-partwise version="2.0">
    <work>
        <work-number></work-number>
        <work-title></work-title>
    </work>
    <movement-number></movement-number>
    <movement-title>There'll Be Some Changes Made</movement-title>
    <identification>
        <creator type="composer">W. Benton Overstreet</creator>
        <creator type="poet">Billy Higgins</creator>
        <rights>All Rights Reserved</rights>
        <encoding>
            <software>MuseScore 1.0</software>
            <encoding-date>2011-11-24</encoding-date>
            <software>ProxyMusic 2.0 c</software>
        </encoding>
        <source>http://wikifonia.org/node/13618/revisions/18265/view</source>
    </identification>
    <defaults>
        <scaling>
            <millimeters>7.056</millimeters>
            <tenths>40</tenths>
        </scaling>
        <page-layout>
            <page-height>1683.67</page-height>
            <page-width>1190.48</page-width>
            <page-margins type="even">
                <left-margin>56.6893</left-margin>
                <right-margin>56.6893</right-margin>
                <top-margin>56.6893</top-margin>
                <bottom-margin>113.379</bottom-margin>
            </page-margins>
            <page-margins type="odd">
                <left-margin>56.6893</left-margin>
                <right-margin>56.6893</right-margin>
                <top-margin>56.6893</top-margin>
                <bottom-margin>113.379</bottom-margin>
            </page-margins>
        </page-layout>
    </defaults>
    <credit page="1">
        <credit-words font-size="24" default-y="1626.98" default-x="595.238" justify="center" valign="top">There'll Be Some Changes Made</credit-words>
    </credit>
    <part-list>
        <part-group type="start" number="1">
            <group-symbol>brace</group-symbol>
        </part-group>
        <score-part id="P1">
            <part-name>Piano</part-name>
            <part-abbreviation>Pno.</part-abbreviation>
            <score-instrument id="P1-I3">
                <instrument-name>Piano</instrument-name>
            </score-instrument>
            <midi-instrument id="P1-I3">
                <midi-channel>1</midi-channel>
                <midi-program>1</midi-program>
            </midi-instrument>
        </score-part>
    </part-list>
    <part id="P1">
        <measure width="285.51" number="1">
            <print>
                <system-layout>
                    <system-margins>
                        <left-margin>90.11</left-margin>
                        <right-margin>0.00</right-margin>
                    </system-margins>
                    <top-system-distance>228.77</top-system-distance>
                </system-layout>
            </print>
            <attributes>
                <divisions>4</divisions>
                <key>
                    <fifths>-2</fifths>
                    <mode>major</mode>
                </key>
                <time symbol="cut">
                    <beats>2</beats>
                    <beat-type>2</beat-type>
                </time>
                <clef>
                    <sign>G</sign>
                    <line>2</line>
                </clef>
            </attributes>
            <note>
                <rest/>
                <duration>8</duration>
                <voice>1</voice>
                <type>half</type>
            </note>
            <note>
                <rest/>
                <duration>3</duration>
                <voice>1</voice>
                <type>eighth</type>
                <dot/>
            </note>
            <note default-y="-45.00" default-x="153.03">
                <pitch>
                    <step>D</step>
                    <octave>4</octave>
                </pitch>
                <duration>1</duration>
                <voice>1</voice>
                <type>16th</type>
                <stem>up</stem>
                <beam number="1">begin</beam>
                <beam number="2">forward hook</beam>
                <lyric number="1">
                    <syllabic>single</syllabic>
                    <text>For</text>
                </lyric>
            </note>
            <note default-y="-50.00" default-x="205.58">
                <pitch>
                    <step>C</step>
                    <alter>1</alter>
                    <octave>4</octave>
                </pitch>
                <duration>3</duration>
                <voice>1</voice>
                <type>eighth</type>
                <dot/>
                <accidental>sharp</accidental>
                <stem>up</stem>
                <beam number="1">continue</beam>
                <lyric number="1">
                    <syllabic>single</syllabic>
                    <text>there's</text>
                </lyric>
            </note>
            <note default-y="-45.00" default-x="247.25">
                <pitch>
                    <step>D</step>
                    <octave>4</octave>
                </pitch>
                <duration>1</duration>
                <voice>1</voice>
                <type>16th</type>
                <stem>up</stem>
                <beam number="1">end</beam>
                <beam number="2">backward hook</beam>
                <lyric number="1">
                    <syllabic>single</syllabic>
                    <text>a</text>
                </lyric>
            </note>
        </measure>
        <measure width="416.32" number="2">
            <barline location="left">
                <bar-style>heavy-light</bar-style>
                <repeat direction="forward"/>
            </barline>
            <harmony print-frame="no">
                <root>
                    <root-step>G</root-step>
                </root>
                <kind text="7">dominant</kind>
            </harmony>
            <note default-y="-25.00" default-x="37.69">
                <pitch>
                    <step>A</step>
                    <octave>4</octave>
                </pitch>
                <duration>3</duration>
                <voice>1</voice>
                <type>eighth</type>
                <dot/>
                <stem>up</stem>
                <beam number="1">begin</beam>
                <lyric number="1">
                    <syllabic>single</syllabic>
                    <text>change</text>
                </lyric>
            </note>
            <note default-y="-25.00" default-x="94.82">
                <pitch>
                    <step>A</step>
                    <octave>4</octave>
                </pitch>
                <duration>1</duration>
                <voice>1</voice>
                <type>16th</type>
                <stem>up</stem>
                <beam number="1">continue</beam>
                <beam number="2">forward hook</beam>
                <lyric number="1">
                    <syllabic>single</syllabic>
                    <text>in</text>
                </lyric>
            </note>
            <note default-y="-25.00" default-x="127.55">
                <pitch>
                    <step>A</step>
                    <octave>4</octave>
                </pitch>
                <duration>2</duration>
                <voice>1</voice>
                <type>eighth</type>
                <stem>up</stem>
                <beam number="1">continue</beam>
                <lyric number="1">
                    <syllabic>single</syllabic>
                    <text>the</text>
                </lyric>
            </note>
            <note default-y="-25.00" default-x="176.09">
                <pitch>
                    <step>A</step>
                    <octave>4</octave>
                </pitch>
                <duration>2</duration>
                <tie type="start"/>
                <voice>1</voice>
                <type>eighth</type>
                <stem>up</stem>
                <beam number="1">end</beam>
                <notations>
                    <tied type="start"/>
                </notations>
                <lyric number="1">
                    <syllabic>begin</syllabic>
                    <text>weath</text>
                </lyric>
            </note>
            <note default-y="-25.00" default-x="222.94">
                <pitch>
                    <step>A</step>
                    <octave>4</octave>
                </pitch>
                <duration>3</duration>
                <tie type="stop"/>
                <voice>1</voice>
                <type>eighth</type>
                <dot/>
                <stem>up</stem>
                <beam number="1">begin</beam>
                <notations>
                    <tied type="stop"/>
                </notations>
            </note>
            <note default-y="-30.00" default-x="280.08">
                <pitch>
                    <step>G</step>
                    <octave>4</octave>
                </pitch>
                <duration>1</duration>
                <voice>1</voice>
                <type>16th</type>
                <stem>up</stem>
                <beam number="1">continue</beam>
                <beam number="2">forward hook</beam>
                <lyric number="1">
                    <syllabic>end</syllabic>
                    <text>er</text>
                </lyric>
            </note>
            <note default-y="-50.00" default-x="328.30">
                <pitch>
                    <step>C</step>
                    <alter>1</alter>
                    <octave>4</octave>
                </pitch>
                <duration>3</duration>
                <voice>1</voice>
                <type>eighth</type>
                <dot/>
                <accidental>sharp</accidental>
                <stem>up</stem>
                <beam number="1">continue</beam>
                <lyric number="1">
                    <syllabic>single</syllabic>
                    <text>there's</text>
                </lyric>
            </note>
            <note default-y="-45.00" default-x="385.44">
                <pitch>
                    <step>D</step>
                    <octave>4</octave>
                </pitch>
                <duration>1</duration>
                <voice>1</voice>
                <type>16th</type>
                <stem>up</stem>
                <beam number="1">end</beam>
                <beam number="2">backward hook</beam>
                <lyric number="1">
                    <syllabic>single</syllabic>
                    <text>a</text>
                </lyric>
            </note>
        </measure>
        <measure width="285.15" number="3">
            <note default-y="-25.00" default-x="51.59">
                <pitch>
                    <step>A</step>
                    <octave>4</octave>
                </pitch>
                <duration>3</duration>
                <voice>1</voice>
                <type>eighth</type>
                <dot/>
                <stem>up</stem>
                <beam number="1">begin</beam>
                <lyric number="1">
                    <syllabic>single</syllabic>
                    <text>change</text>
                </lyric>
            </note>
            <note default-y="-25.00" default-x="100.13">
                <pitch>
                    <step>A</step>
                    <octave>4</octave>
                </pitch>
                <duration>1</duration>
                <voice>1</voice>
                <type>16th</type>
                <stem>up</stem>
                <beam number="1">continue</beam>
                <beam number="2">forward hook</beam>
                <lyric number="1">
                    <syllabic>single</syllabic>
                    <text>in</text>
                </lyric>
            </note>
            <note default-y="-25.00" default-x="132.85">
                <pitch>
                    <step>A</step>
                    <octave>4</octave>
                </pitch>
                <duration>2</duration>
                <voice>1</voice>
                <type>eighth</type>
                <stem>up</stem>
                <beam number="1">continue</beam>
                <lyric number="1">
                    <syllabic>single</syllabic>
                    <text>the</text>
                </lyric>
            </note>
            <note default-y="-25.00" default-x="172.32">
                <pitch>
                    <step>A</step>
                    <octave>4</octave>
                </pitch>
                <duration>2</duration>
                <tie type="start"/>
                <voice>1</voice>
                <type>eighth</type>
                <stem>up</stem>
                <beam number="1">end</beam>
                <notations>
                    <tied type="start"/>
                </notations>
                <lyric number="1">
                    <syllabic>single</syllabic>
                    <text>sea,</text>
                    <extend/>
                </lyric>
            </note>
            <note default-y="-25.00" default-x="214.48">
                <pitch>
                    <step>A</step>
                    <octave>4</octave>
                </pitch>
                <duration>8</duration>
                <tie type="stop"/>
                <voice>1</voice>
                <type>half</type>
                <stem>up</stem>
                <notations>
                    <tied type="stop"/>
                </notations>
            </note>
        </measure>
        <measure width="413.39" number="4">
            <print new-system="yes">
                <system-layout>
                    <system-margins>
                        <left-margin>77.95</left-margin>
                        <right-margin>0.00</right-margin>
                    </system-margins>
                    <system-distance>153.73</system-distance>
                </system-layout>
            </print>
            <harmony print-frame="no">
                <root>
                    <root-step>C</root-step>
                </root>
                <kind text="9">dominant-ninth</kind>
            </harmony>
            <note>
                <rest/>
                <duration>3</duration>
                <voice>1</voice>
                <type>eighth</type>
                <dot/>
            </note>
            <note default-y="-10.00" default-x="112.23">
                <pitch>
                    <step>D</step>
                    <octave>5</octave>
                </pitch>
                <duration>1</duration>
                <voice>1</voice>
                <type>16th</type>
                <stem>down</stem>
                <beam number="1">begin</beam>
                <beam number="2">forward hook</beam>
                <lyric number="1">
                    <syllabic>single</syllabic>
                    <text>so</text>
                </lyric>
            </note>
            <note default-y="-10.00" default-x="153.26">
                <pitch>
                    <step>D</step>
                    <octave>5</octave>
                </pitch>
                <duration>3</duration>
                <voice>1</voice>
                <type>eighth</type>
                <dot/>
                <stem>down</stem>
                <beam number="1">continue</beam>
                <lyric number="1">
                    <syllabic>single</syllabic>
                    <text>from</text>
                </lyric>
            </note>
            <note default-y="-10.00" default-x="202.45">
                <pitch>
                    <step>D</step>
                    <octave>5</octave>
                </pitch>
                <duration>1</duration>
                <voice>1</voice>
                <type>16th</type>
                <stem>down</stem>
                <beam number="1">end</beam>
                <beam number="2">backward hook</beam>
                <lyric number="1">
                    <syllabic>single</syllabic>
                    <text>now</text>
                </lyric>
            </note>
            <note default-y="-10.00" default-x="240.77">
                <pitch>
                    <step>D</step>
                    <octave>5</octave>
                </pitch>
                <duration>3</duration>
                <voice>1</voice>
                <type>eighth</type>
                <dot/>
                <stem>down</stem>
                <beam number="1">begin</beam>
                <lyric number="1">
                    <syllabic>single</syllabic>
                    <text>on</text>
                </lyric>
            </note>
            <note default-y="-15.00" default-x="299.41">
                <pitch>
                    <step>C</step>
                    <octave>5</octave>
                </pitch>
                <duration>1</duration>
                <voice>1</voice>
                <type>16th</type>
                <stem>down</stem>
                <beam number="1">continue</beam>
                <beam number="2">forward hook</beam>
                <lyric number="1">
                    <syllabic>single</syllabic>
                    <text>there'll</text>
                </lyric>
            </note>
            <note default-y="-20.00" default-x="348.74">
                <pitch>
                    <step>B</step>
                    <alter>-1</alter>
                    <octave>4</octave>
                </pitch>
                <duration>3</duration>
                <voice>1</voice>
                <type>eighth</type>
                <dot/>
                <stem>down</stem>
                <beam number="1">continue</beam>
                <lyric number="1">
                    <syllabic>single</syllabic>
                    <text>be</text>
                </lyric>
            </note>
            <note default-y="-30.00" default-x="388.62">
                <pitch>
                    <step>G</step>
                    <octave>4</octave>
                </pitch>
                <duration>1</duration>
                <voice>1</voice>
                <type>16th</type>
                <stem>down</stem>
                <beam number="1">end</beam>
                <beam number="2">backward hook</beam>
                <lyric number="1">
                    <syllabic>single</syllabic>
                    <text>a</text>
                </lyric>
            </note>
        </measure>
        <measure width="261.46" number="5">
            <note default-y="-10.00" default-x="51.59">
                <pitch>
                    <step>D</step>
                    <octave>5</octave>
                </pitch>
                <duration>2</duration>
                <voice>1</voice>
                <type>eighth</type>
                <stem>down</stem>
                <lyric number="1">
                    <syllabic>single</syllabic>
                    <text>change</text>
                </lyric>
            </note>
            <note default-y="-10.00" default-x="100.13">
                <pitch>
                    <step>D</step>
                    <octave>5</octave>
                </pitch>
                <duration>4</duration>
                <voice>1</voice>
                <type>quarter</type>
                <stem>down</stem>
                <lyric number="1">
                    <syllabic>single</syllabic>
                    <text>in</text>
                </lyric>
            </note>
            <note default-y="-10.00" default-x="141.30">
                <pitch>
                    <step>D</step>
                    <octave>5</octave>
                </pitch>
                <duration>2</duration>
                <tie type="start"/>
                <voice>1</voice>
                <type>eighth</type>
                <stem>down</stem>
                <notations>
                    <tied type="start"/>
                </notations>
                <lyric number="1">
                    <syllabic>single</syllabic>
                    <text>me,</text>
                    <extend/>
                </lyric>
            </note>
            <note default-y="-10.00" default-x="182.17">
                <pitch>
                    <step>D</step>
                    <octave>5</octave>
                </pitch>
                <duration>6</duration>
                <tie type="stop"/>
                <voice>1</voice>
                <type>quarter</type>
                <dot/>
                <stem>down</stem>
                <notations>
                    <tied type="stop"/>
                </notations>
            </note>
            <note default-y="-10.00" default-x="232.37">
                <pitch>
                    <step>D</step>
                    <octave>5</octave>
                </pitch>
                <duration>2</duration>
                <voice>1</voice>
                <type>eighth</type>
                <stem>down</stem>
                <lyric number="1">
                    <syllabic>single</syllabic>
                    <text>My</text>
                </lyric>
            </note>
        </measure>
        <measure width="324.31" number="6">
            <harmony print-frame="no">
                <root>
                    <root-step>D</root-step>
                </root>
                <kind text="7">dominant</kind>
            </harmony>
            <note default-y="-10.00" default-x="41.37">
                <pitch>
                    <step>D</step>
                    <octave>5</octave>
                </pitch>
                <duration>3</duration>
                <voice>1</voice>
                <type>eighth</type>
                <dot/>
                <stem>down</stem>
                <beam number="1">begin</beam>
                <lyric number="1">
                    <syllabic>single</syllabic>
                    <text>walk</text>
                </lyric>
            </note>
            <note default-y="-10.00" default-x="88.64">
                <pitch>
                    <step>D</step>
                    <octave>5</octave>
                </pitch>
                <duration>1</duration>
                <voice>1</voice>
                <type>16th</type>
                <stem>down</stem>
                <beam number="1">continue</beam>
                <beam number="2">forward hook</beam>
                <lyric number="1">
                    <syllabic>single</syllabic>
                    <text>will</text>
                </lyric>
            </note>
            <note default-y="-10.00" default-x="124.41">
                <pitch>
                    <step>D</step>
                    <octave>5</octave>
                </pitch>
                <duration>2</duration>
                <voice>1</voice>
                <type>eighth</type>
                <stem>down</stem>
                <beam number="1">continue</beam>
                <lyric number="1">
                    <syllabic>single</syllabic>
                    <text>be</text>
                </lyric>
            </note>
            <note default-y="-10.00" default-x="160.50">
                <pitch>
                    <step>D</step>
                    <octave>5</octave>
                </pitch>
                <duration>2</duration>
                <tie type="start"/>
                <voice>1</voice>
                <type>eighth</type>
                <stem>down</stem>
                <beam number="1">end</beam>
                <notations>
                    <tied type="start"/>
                </notations>
                <lyric number="1">
                    <syllabic>begin</syllabic>
                    <text>dif</text>
                </lyric>
            </note>
            <note default-y="-10.00" default-x="196.60">
                <pitch>
                    <step>D</step>
                    <octave>5</octave>
                </pitch>
                <duration>2</duration>
                <tie type="stop"/>
                <voice>1</voice>
                <type>eighth</type>
                <stem>down</stem>
                <notations>
                    <tied type="stop"/>
                </notations>
            </note>
            <note default-y="-15.00" default-x="236.98">
                <pitch>
                    <step>C</step>
                    <octave>5</octave>
                </pitch>
                <duration>4</duration>
                <voice>1</voice>
                <type>quarter</type>
                <stem>down</stem>
                <lyric number="1">
                    <syllabic>end</syllabic>
                    <text>frent</text>
                </lyric>
            </note>
            <note default-y="-25.00" default-x="286.61">
                <pitch>
                    <step>A</step>
                    <octave>4</octave>
                </pitch>
                <duration>2</duration>
                <voice>1</voice>
                <type>eighth</type>
                <stem>up</stem>
                <lyric number="1">
                    <syllabic>single</syllabic>
                    <text>my</text>
                </lyric>
            </note>
        </measure>
        <measure width="304.97" number="7">
            <print new-system="yes">
                <system-layout>
                    <system-margins>
                        <left-margin>77.95</left-margin>
                        <right-margin>0.00</right-margin>
                    </system-margins>
                    <system-distance>153.73</system-distance>
                </system-layout>
            </print>
            <harmony print-frame="no">
                <root>
                    <root-step>G</root-step>
                </root>
                <kind text="7">dominant</kind>
            </harmony>
            <note default-y="-25.00" default-x="91.11">
                <pitch>
                    <step>A</step>
                    <octave>4</octave>
                </pitch>
                <duration>3</duration>
                <voice>1</voice>
                <type>eighth</type>
                <dot/>
                <stem>up</stem>
                <beam number="1">begin</beam>
                <lyric number="1">
                    <syllabic>single</syllabic>
                    <text>talk</text>
                </lyric>
            </note>
            <note default-y="-50.00" default-x="134.89">
                <pitch>
                    <step>C</step>
                    <alter>1</alter>
                    <octave>4</octave>
                </pitch>
                <duration>1</duration>
                <voice>1</voice>
                <type>16th</type>
                <accidental>sharp</accidental>
                <stem>up</stem>
                <beam number="1">continue</beam>
                <beam number="2">forward hook</beam>
                <lyric number="1">
                    <syllabic>single</syllabic>
                    <text>and</text>
                </lyric>
            </note>
            <note default-y="-45.00" default-x="173.21">
                <pitch>
                    <step>D</step>
                    <octave>4</octave>
                </pitch>
                <duration>2</duration>
                <voice>1</voice>
                <type>eighth</type>
                <stem>up</stem>
                <beam number="1">continue</beam>
                <lyric number="1">
                    <syllabic>single</syllabic>
                    <text>my</text>
                </lyric>
            </note>
            <note default-y="-30.00" default-x="197.78">
                <pitch>
                    <step>G</step>
                    <octave>4</octave>
                </pitch>
                <duration>2</duration>
                <tie type="start"/>
                <voice>1</voice>
                <type>eighth</type>
                <stem>up</stem>
                <beam number="1">end</beam>
                <notations>
                    <tied type="start"/>
                </notations>
                <lyric number="1">
                    <syllabic>single</syllabic>
                    <text>name,</text>
                    <extend/>
                </lyric>
            </note>
            <note default-y="-30.00" default-x="260.37">
                <pitch>
                    <step>G</step>
                    <octave>4</octave>
                </pitch>
                <duration>8</duration>
                <tie type="stop"/>
                <voice>1</voice>
                <type>half</type>
                <stem>up</stem>
                <notations>
                    <tied type="stop"/>
                </notations>
            </note>
        </measure>
        <measure width="368.78" number="8">
            <harmony print-frame="no">
                <root>
                    <root-step>C</root-step>
                </root>
                <kind text="9">dominant-ninth</kind>
            </harmony>
            <note default-y="-10.00" default-x="42.01">
                <pitch>
                    <step>D</step>
                    <octave>5</octave>
                </pitch>
                <duration>3</duration>
                <voice>1</voice>
                <type>eighth</type>
                <dot/>
                <stem>down</stem>
                <beam number="1">begin</beam>
                <lyric number="1">
                    <syllabic>begin</syllabic>
                    <text>Noth</text>
                </lyric>
            </note>
            <note default-y="-10.00" default-x="90.26">
                <pitch>
                    <step>D</step>
                    <octave>5</octave>
                </pitch>
                <duration>1</duration>
                <voice>1</voice>
                <type>16th</type>
                <stem>down</stem>
                <beam number="1">continue</beam>
                <beam number="2">forward hook</beam>
                <lyric number="1">
                    <syllabic>end</syllabic>
                    <text>in'</text>
                </lyric>
            </note>
            <note default-y="-10.00" default-x="114.99">
                <pitch>
                    <step>D</step>
                    <octave>5</octave>
                </pitch>
                <duration>3</duration>
                <voice>1</voice>
                <type>eighth</type>
                <dot/>
                <stem>down</stem>
                <beam number="1">continue</beam>
                <lyric number="1">
                    <syllabic>begin</syllabic>
                    <text>a</text>
                </lyric>
            </note>
            <note default-y="-10.00" default-x="163.24">
                <pitch>
                    <step>D</step>
                    <octave>5</octave>
                </pitch>
                <duration>1</duration>
                <voice>1</voice>
                <type>16th</type>
                <stem>down</stem>
                <beam number="1">end</beam>
                <beam number="2">backward hook</beam>
                <lyric number="1">
                    <syllabic>end</syllabic>
                    <text>bout</text>
                </lyric>
            </note>
            <note default-y="-10.00" default-x="204.76">
                <pitch>
                    <step>D</step>
                    <octave>5</octave>
                </pitch>
                <duration>3</duration>
                <voice>1</voice>
                <type>eighth</type>
                <dot/>
                <stem>down</stem>
                <beam number="1">begin</beam>
                <lyric number="1">
                    <syllabic>single</syllabic>
                    <text>me</text>
                </lyric>
            </note>
            <note default-y="-15.00" default-x="253.01">
                <pitch>
                    <step>C</step>
                    <octave>5</octave>
                </pitch>
                <duration>1</duration>
                <voice>1</voice>
                <type>16th</type>
                <stem>down</stem>
                <beam number="1">continue</beam>
                <beam number="2">forward hook</beam>
                <lyric number="1">
                    <syllabic>single</syllabic>
                    <text>is</text>
                </lyric>
            </note>
            <note default-y="-20.00" default-x="294.21">
                <pitch>
                    <step>B</step>
                    <alter>-1</alter>
                    <octave>4</octave>
                </pitch>
                <duration>3</duration>
                <voice>1</voice>
                <type>eighth</type>
                <dot/>
                <stem>down</stem>
                <beam number="1">continue</beam>
                <lyric number="1">
                    <syllabic>single</syllabic>
                    <text>goin'</text>
                </lyric>
            </note>
            <note default-y="-30.00" default-x="342.45">
                <pitch>
                    <step>G</step>
                    <octave>4</octave>
                </pitch>
                <duration>1</duration>
                <voice>1</voice>
                <type>16th</type>
                <stem>down</stem>
                <beam number="1">end</beam>
                <beam number="2">backward hook</beam>
                <lyric number="1">
                    <syllabic>single</syllabic>
                    <text>to</text>
                </lyric>
            </note>
        </measure>
        <measure width="325.39" number="9">
            <harmony print-frame="no">
                <root>
                    <root-step>C</root-step>
                </root>
                <kind text="m7">minor-seventh</kind>
            </harmony>
            <note default-y="-15.00" default-x="29.86">
                <pitch>
                    <step>C</step>
                    <octave>5</octave>
                </pitch>
                <duration>2</duration>
                <voice>1</voice>
                <type>eighth</type>
                <stem>down</stem>
                <lyric number="1">
                    <syllabic>single</syllabic>
                    <text>be</text>
                </lyric>
            </note>
            <note default-y="-15.00" default-x="64.41">
                <pitch>
                    <step>C</step>
                    <octave>5</octave>
                </pitch>
                <duration>4</duration>
                <voice>1</voice>
                <type>quarter</type>
                <stem>down</stem>
                <lyric number="1">
                    <syllabic>single</syllabic>
                    <text>the</text>
                </lyric>
            </note>
            <harmony print-frame="no">
                <root>
                    <root-step>F</root-step>
                </root>
                <kind text="7">dominant</kind>
            </harmony>
            <note default-y="-15.00" default-x="111.92">
                <pitch>
                    <step>C</step>
                    <octave>5</octave>
                </pitch>
                <duration>2</duration>
                <tie type="start"/>
                <voice>1</voice>
                <type>eighth</type>
                <stem>down</stem>
                <notations>
                    <tied type="start"/>
                </notations>
                <lyric number="1">
                    <syllabic>single</syllabic>
                    <text>same.</text>
                    <extend/>
                </lyric>
            </note>
            <note default-y="-15.00" default-x="171.98">
                <pitch>
                    <step>C</step>
                    <octave>5</octave>
                </pitch>
                <duration>3</duration>
                <tie type="stop"/>
                <voice>1</voice>
                <type>eighth</type>
                <dot/>
                <stem>up</stem>
                <beam number="1">begin</beam>
                <notations>
                    <tied type="stop"/>
                </notations>
            </note>
            <note default-y="-45.00" default-x="214.11">
                <pitch>
                    <step>D</step>
                    <octave>4</octave>
                </pitch>
                <duration>1</duration>
                <voice>1</voice>
                <type>16th</type>
                <stem>up</stem>
                <beam number="1">continue</beam>
                <beam number="2">forward hook</beam>
                <lyric number="1">
                    <syllabic>single</syllabic>
                    <text>I'm</text>
                </lyric>
            </note>
            <note default-y="-50.00" default-x="258.50">
                <pitch>
                    <step>C</step>
                    <alter>1</alter>
                    <octave>4</octave>
                </pitch>
                <duration>3</duration>
                <voice>1</voice>
                <type>eighth</type>
                <dot/>
                <accidental>sharp</accidental>
                <stem>up</stem>
                <beam number="1">continue</beam>
                <lyric number="1">
                    <syllabic>single</syllabic>
                    <text>goin'</text>
                </lyric>
            </note>
            <note default-y="-45.00" default-x="300.63">
                <pitch>
                    <step>D</step>
                    <octave>4</octave>
                </pitch>
                <duration>1</duration>
                <voice>1</voice>
                <type>16th</type>
                <stem>up</stem>
                <beam number="1">end</beam>
                <beam number="2">backward hook</beam>
                <lyric number="1">
                    <syllabic>single</syllabic>
                    <text>to</text>
                </lyric>
            </note>
        </measure>
        <measure width="435.12" number="10">
            <print new-system="yes">
                <system-layout>
                    <system-margins>
                        <left-margin>77.95</left-margin>
                        <right-margin>0.00</right-margin>
                    </system-margins>
                    <system-distance>153.73</system-distance>
                </system-layout>
            </print>
            <harmony print-frame="no">
                <root>
                    <root-step>G</root-step>
                </root>
                <kind text="7">dominant</kind>
            </harmony>
            <note default-y="-25.00" default-x="106.44">
                <pitch>
                    <step>A</step>
                    <octave>4</octave>
                </pitch>
                <duration>3</duration>
                <voice>1</voice>
                <type>eighth</type>
                <dot/>
                <stem>up</stem>
                <beam number="1">begin</beam>
                <lyric number="1">
                    <syllabic>single</syllabic>
                    <text>change</text>
                </lyric>
            </note>
            <note default-y="-25.00" default-x="160.73">
                <pitch>
                    <step>A</step>
                    <octave>4</octave>
                </pitch>
                <duration>1</duration>
                <voice>1</voice>
                <type>16th</type>
                <stem>up</stem>
                <beam number="1">continue</beam>
                <beam number="2">forward hook</beam>
                <lyric number="1">
                    <syllabic>single</syllabic>
                    <text>my</text>
                </lyric>
            </note>
            <note default-y="-25.00" default-x="201.61">
                <pitch>
                    <step>A</step>
                    <octave>4</octave>
                </pitch>
                <duration>3</duration>
                <voice>1</voice>
                <type>eighth</type>
                <dot/>
                <stem>up</stem>
                <beam number="1">continue</beam>
                <lyric number="1">
                    <syllabic>single</syllabic>
                    <text>way</text>
                </lyric>
            </note>
            <note default-y="-25.00" default-x="248.93">
                <pitch>
                    <step>A</step>
                    <octave>4</octave>
                </pitch>
                <duration>1</duration>
                <voice>1</voice>
                <type>16th</type>
                <stem>up</stem>
                <beam number="1">end</beam>
                <beam number="2">backward hook</beam>
                <lyric number="1">
                    <syllabic>single</syllabic>
                    <text>of</text>
                </lyric>
            </note>
            <note default-y="-25.00" default-x="279.75">
                <pitch>
                    <step>A</step>
                    <octave>4</octave>
                </pitch>
                <duration>3</duration>
                <voice>1</voice>
                <type>eighth</type>
                <dot/>
                <stem>up</stem>
                <beam number="1">begin</beam>
                <lyric number="1">
                    <syllabic>begin</syllabic>
                    <text>liv</text>
                </lyric>
            </note>
            <note default-y="-30.00" default-x="327.07">
                <pitch>
                    <step>G</step>
                    <octave>4</octave>
                </pitch>
                <duration>1</duration>
                <voice>1</voice>
                <type>16th</type>
                <stem>up</stem>
                <beam number="1">continue</beam>
                <beam number="2">forward hook</beam>
                <lyric number="1">
                    <syllabic>end</syllabic>
                    <text>in'</text>
                </lyric>
            </note>
            <note default-y="-50.00" default-x="357.43">
                <pitch>
                    <step>C</step>
                    <alter>1</alter>
                    <octave>4</octave>
                </pitch>
                <duration>3</duration>
                <voice>1</voice>
                <type>eighth</type>
                <dot/>
                <accidental>sharp</accidental>
                <stem>up</stem>
                <beam number="1">continue</beam>
                <lyric number="1">
                    <syllabic>single</syllabic>
                    <text>if</text>
                </lyric>
            </note>
            <note default-y="-45.00" default-x="404.76">
                <pitch>
                    <step>D</step>
                    <octave>4</octave>
                </pitch>
                <duration>1</duration>
                <voice>1</voice>
                <type>16th</type>
                <stem>up</stem>
                <beam number="1">end</beam>
                <beam number="2">backward hook</beam>
                <lyric number="1">
                    <syllabic>single</syllabic>
                    <text>that</text>
                </lyric>
            </note>
        </measure>
        <measure width="215.30" number="11">
            <note default-y="-25.00" default-x="38.33">
                <pitch>
                    <step>A</step>
                    <octave>4</octave>
                </pitch>
                <duration>2</duration>
                <voice>1</voice>
                <type>eighth</type>
                <stem>up</stem>
                <lyric number="1">
                    <syllabic>single</syllabic>
                    <text>ain't</text>
                </lyric>
            </note>
            <note default-y="-25.00" default-x="71.12">
                <pitch>
                    <step>A</step>
                    <octave>4</octave>
                </pitch>
                <duration>4</duration>
                <voice>1</voice>
                <type>quarter</type>
                <stem>up</stem>
                <lyric number="1">
                    <syllabic>begin</syllabic>
                    <text>e</text>
                </lyric>
            </note>
            <note default-y="-25.00" default-x="101.56">
                <pitch>
                    <step>A</step>
                    <octave>4</octave>
                </pitch>
                <duration>2</duration>
                <tie type="start"/>
                <voice>1</voice>
                <type>eighth</type>
                <stem>up</stem>
                <notations>
                    <tied type="start"/>
                </notations>
                <lyric number="1">
                    <syllabic>end</syllabic>
                    <text>nough,</text>
                    <extend/>
                </lyric>
            </note>
            <note default-y="-25.00" default-x="171.84">
                <pitch>
                    <step>A</step>
                    <octave>4</octave>
                </pitch>
                <duration>8</duration>
                <tie type="stop"/>
                <voice>1</voice>
                <type>half</type>
                <stem>up</stem>
                <notations>
                    <tied type="stop"/>
                </notations>
            </note>
        </measure>
        <measure width="348.73" number="12">
            <harmony print-frame="no">
                <root>
                    <root-step>C</root-step>
                </root>
                <kind text="9">dominant-ninth</kind>
            </harmony>
            <note default-y="-10.00" default-x="38.82">
                <pitch>
                    <step>D</step>
                    <octave>5</octave>
                </pitch>
                <duration>3</duration>
                <voice>1</voice>
                <type>eighth</type>
                <dot/>
                <stem>down</stem>
                <beam number="1">begin</beam>
                <lyric number="1">
                    <syllabic>single</syllabic>
                    <text>then</text>
                </lyric>
            </note>
            <note default-y="-10.00" default-x="81.43">
                <pitch>
                    <step>D</step>
                    <octave>5</octave>
                </pitch>
                <duration>1</duration>
                <voice>1</voice>
                <type>16th</type>
                <stem>down</stem>
                <beam number="1">continue</beam>
                <beam number="2">forward hook</beam>
                <lyric number="1">
                    <syllabic>single</syllabic>
                    <text>I'l</text>
                </lyric>
            </note>
            <note default-y="-10.00" default-x="132.68">
                <pitch>
                    <step>D</step>
                    <octave>5</octave>
                </pitch>
                <duration>3</duration>
                <voice>1</voice>
                <type>eighth</type>
                <dot/>
                <stem>down</stem>
                <beam number="1">continue</beam>
                <lyric number="1">
                    <syllabic>single</syllabic>
                    <text>change</text>
                </lyric>
            </note>
            <note default-y="-10.00" default-x="186.33">
                <pitch>
                    <step>D</step>
                    <octave>5</octave>
                </pitch>
                <duration>1</duration>
                <voice>1</voice>
                <type>16th</type>
                <stem>down</stem>
                <beam number="1">end</beam>
                <beam number="2">backward hook</beam>
                <lyric number="1">
                    <syllabic>single</syllabic>
                    <text>the</text>
                </lyric>
            </note>
            <note default-y="-10.00" default-x="226.56">
                <pitch>
                    <step>D</step>
                    <octave>5</octave>
                </pitch>
                <duration>3</duration>
                <voice>1</voice>
                <type>eighth</type>
                <dot/>
                <stem>down</stem>
                <beam number="1">begin</beam>
                <lyric number="1">
                    <syllabic>single</syllabic>
                    <text>way</text>
                </lyric>
            </note>
            <note default-y="-15.00" default-x="270.98">
                <pitch>
                    <step>C</step>
                    <octave>5</octave>
                </pitch>
                <duration>1</duration>
                <voice>1</voice>
                <type>16th</type>
                <stem>down</stem>
                <beam number="1">end</beam>
                <beam number="2">backward hook</beam>
                <lyric number="1">
                    <syllabic>single</syllabic>
                    <text>that</text>
                </lyric>
            </note>
            <note default-y="-20.00" default-x="299.08">
                <pitch>
                    <step>B</step>
                    <alter>-1</alter>
                    <octave>4</octave>
                </pitch>
                <duration>4</duration>
                <voice>1</voice>
                <type>quarter</type>
                <stem>down</stem>
                <lyric number="1">
                    <syllabic>single</syllabic>
                    <text>I</text>
                </lyric>
            </note>
        </measure>
        <measure width="337.33" number="13">
            <print new-system="yes">
                <system-layout>
                    <system-margins>
                        <left-margin>77.95</left-margin>
                        <right-margin>-0.00</right-margin>
                    </system-margins>
                    <system-distance>153.73</system-distance>
                </system-layout>
            </print>
            <note default-y="-10.00" default-x="94.32">
                <pitch>
                    <step>D</step>
                    <octave>5</octave>
                </pitch>
                <duration>2</duration>
                <voice>1</voice>
                <type>eighth</type>
                <stem>down</stem>
                <lyric number="1">
                    <syllabic>single</syllabic>
                    <text>strut</text>
                </lyric>
            </note>
            <note default-y="-10.00" default-x="136.50">
                <pitch>
                    <step>D</step>
                    <octave>5</octave>
                </pitch>
                <duration>4</duration>
                <voice>1</voice>
                <type>quarter</type>
                <stem>down</stem>
                <lyric number="1">
                    <syllabic>single</syllabic>
                    <text>my</text>
                </lyric>
            </note>
            <note default-y="-10.00" default-x="184.75">
                <pitch>
                    <step>D</step>
                    <octave>5</octave>
                </pitch>
                <duration>2</duration>
                <tie type="start"/>
                <voice>1</voice>
                <type>eighth</type>
                <stem>down</stem>
                <notations>
                    <tied type="start"/>
                </notations>
                <lyric number="1">
                    <syllabic>single</syllabic>
                    <text>stuff,</text>
                    <extend/>
                </lyric>
            </note>
            <note default-y="-10.00" default-x="239.23">
                <pitch>
                    <step>D</step>
                    <octave>5</octave>
                </pitch>
                <duration>4</duration>
                <tie type="stop"/>
                <voice>1</voice>
                <type>quarter</type>
                <stem>down</stem>
                <notations>
                    <tied type="stop"/>
                </notations>
            </note>
            <note default-y="-10.00" default-x="287.48">
                <pitch>
                    <step>D</step>
                    <octave>5</octave>
                </pitch>
                <duration>4</duration>
                <voice>1</voice>
                <type>quarter</type>
                <stem>down</stem>
                <lyric number="1">
                    <syllabic>single</syllabic>
                    <text>'cause</text>
                </lyric>
            </note>
        </measure>
        <measure width="435.37" number="14">
            <harmony print-frame="no">
                <root>
                    <root-step>D</root-step>
                </root>
                <kind text="7">dominant</kind>
            </harmony>
            <note default-y="-10.00" default-x="30.51">
                <pitch>
                    <step>D</step>
                    <octave>5</octave>
                </pitch>
                <duration>3</duration>
                <voice>1</voice>
                <type>eighth</type>
                <dot/>
                <stem>down</stem>
                <beam number="1">begin</beam>
                <lyric number="1">
                    <syllabic>begin</syllabic>
                    <text>no</text>
                </lyric>
            </note>
            <note default-y="-10.00" default-x="84.96">
                <pitch>
                    <step>D</step>
                    <octave>5</octave>
                </pitch>
                <duration>1</duration>
                <voice>1</voice>
                <type>16th</type>
                <stem>down</stem>
                <beam number="1">continue</beam>
                <beam number="2">forward hook</beam>
                <lyric number="1">
                    <syllabic>middle</syllabic>
                    <text>bod</text>
                </lyric>
            </note>
            <note default-y="-10.00" default-x="114.98">
                <pitch>
                    <step>D</step>
                    <octave>5</octave>
                </pitch>
                <duration>3</duration>
                <voice>1</voice>
                <type>eighth</type>
                <dot/>
                <stem>down</stem>
                <beam number="1">continue</beam>
                <lyric number="1">
                    <syllabic>end</syllabic>
                    <text>y</text>
                </lyric>
            </note>
            <note default-y="-10.00" default-x="169.44">
                <pitch>
                    <step>D</step>
                    <octave>5</octave>
                </pitch>
                <duration>1</duration>
                <tie type="start"/>
                <voice>1</voice>
                <type>16th</type>
                <stem>down</stem>
                <beam number="1">end</beam>
                <beam number="2">backward hook</beam>
                <notations>
                    <tied type="start"/>
                </notations>
                <lyric number="1">
                    <syllabic>single</syllabic>
                    <text>wants</text>
                    <extend/>
                </lyric>
            </note>
            <note default-y="-10.00" default-x="230.15">
                <pitch>
                    <step>D</step>
                    <octave>5</octave>
                </pitch>
                <duration>3</duration>
                <tie type="stop"/>
                <voice>1</voice>
                <type>eighth</type>
                <dot/>
                <stem>up</stem>
                <beam number="1">begin</beam>
                <notations>
                    <tied type="stop"/>
                </notations>
            </note>
            <note default-y="-15.00" default-x="284.61">
                <pitch>
                    <step>C</step>
                    <octave>5</octave>
                </pitch>
                <duration>1</duration>
                <voice>1</voice>
                <type>16th</type>
                <stem>up</stem>
                <beam number="1">continue</beam>
                <beam number="2">forward hook</beam>
                <lyric number="1">
                    <syllabic>single</syllabic>
                    <text>you</text>
                </lyric>
            </note>
            <note default-y="-25.00" default-x="333.79">
                <pitch>
                    <step>A</step>
                    <octave>4</octave>
                </pitch>
                <duration>3</duration>
                <voice>1</voice>
                <type>eighth</type>
                <dot/>
                <stem>up</stem>
                <beam number="1">continue</beam>
                <lyric number="1">
                    <syllabic>single</syllabic>
                    <text>when</text>
                </lyric>
            </note>
            <note default-y="-35.00" default-x="393.99">
                <pitch>
                    <step>F</step>
                    <alter>1</alter>
                    <octave>4</octave>
                </pitch>
                <duration>1</duration>
                <voice>1</voice>
                <type>16th</type>
                <accidental>sharp</accidental>
                <stem>up</stem>
                <beam number="1">end</beam>
                <beam number="2">backward hook</beam>
                <lyric number="1">
                    <syllabic>single</syllabic>
                    <text>you're</text>
                </lyric>
            </note>
        </measure>
        <measure width="226.45" number="15">
            <harmony print-frame="no">
                <root>
                    <root-step>G</root-step>
                </root>
                <kind text="7">dominant</kind>
            </harmony>
            <note default-y="-25.00" default-x="33.71">
                <pitch>
                    <step>A</step>
                    <octave>4</octave>
                </pitch>
                <duration>2</duration>
                <voice>1</voice>
                <type>eighth</type>
                <stem>up</stem>
                <lyric number="1">
                    <syllabic>single</syllabic>
                    <text>old</text>
                </lyric>
            </note>
            <note default-y="-25.00" default-x="77.99">
                <pitch>
                    <step>A</step>
                    <octave>4</octave>
                </pitch>
                <duration>4</duration>
                <voice>1</voice>
                <type>quarter</type>
                <stem>up</stem>
                <lyric number="1">
                    <syllabic>single</syllabic>
                    <text>and</text>
                </lyric>
            </note>
            <note default-y="-30.00" default-x="117.94">
                <pitch>
                    <step>G</step>
                    <octave>4</octave>
                </pitch>
                <duration>2</duration>
                <tie type="start"/>
                <voice>1</voice>
                <type>eighth</type>
                <stem>up</stem>
                <notations>
                    <tied type="start"/>
                </notations>
                <lyric number="1">
                    <syllabic>single</syllabic>
                    <text>gray.</text>
                    <extend/>
                </lyric>
            </note>
            <note default-y="-30.00" default-x="169.92">
                <pitch>
                    <step>G</step>
                    <octave>4</octave>
                </pitch>
                <duration>8</duration>
                <tie type="stop"/>
                <voice>1</voice>
                <type>half</type>
                <stem>up</stem>
                <notations>
                    <tied type="stop"/>
                </notations>
            </note>
        </measure>
        <measure width="412.54" number="16">
            <print new-system="yes">
                <system-layout>
                    <system-margins>
                        <left-margin>77.95</left-margin>
                        <right-margin>-0.00</right-margin>
                    </system-margins>
                    <system-distance>153.73</system-distance>
                </system-layout>
            </print>
            <harmony print-frame="no">
                <root>
                    <root-step>C</root-step>
                </root>
                <kind text="9">dominant-ninth</kind>
            </harmony>
            <note>
                <rest/>
                <duration>3</duration>
                <voice>1</voice>
                <type>eighth</type>
                <dot/>
            </note>
            <note default-y="-10.00" default-x="125.61">
                <pitch>
                    <step>D</step>
                    <octave>5</octave>
                </pitch>
                <duration>1</duration>
                <voice>1</voice>
                <type>16th</type>
                <stem>down</stem>
                <beam number="1">begin</beam>
                <beam number="2">forward hook</beam>
                <lyric number="1">
                    <syllabic>single</syllabic>
                    <text>There'll</text>
                </lyric>
            </note>
            <note default-y="-15.00" default-x="178.78">
                <pitch>
                    <step>C</step>
                    <octave>5</octave>
                </pitch>
                <duration>3</duration>
                <voice>1</voice>
                <type>eighth</type>
                <dot/>
                <stem>down</stem>
                <beam number="1">continue</beam>
                <lyric number="1">
                    <syllabic>single</syllabic>
                    <text>be</text>
                </lyric>
            </note>
            <note default-y="-20.00" default-x="232.04">
                <pitch>
                    <step>B</step>
                    <alter>-1</alter>
                    <octave>4</octave>
                </pitch>
                <duration>1</duration>
                <voice>1</voice>
                <type>16th</type>
                <stem>down</stem>
                <beam number="1">end</beam>
                <beam number="2">backward hook</beam>
                <lyric number="1">
                    <syllabic>single</syllabic>
                    <text>some</text>
                </lyric>
            </note>
            <harmony print-frame="no">
                <root>
                    <root-step>F</root-step>
                </root>
                <kind text="7">dominant</kind>
            </harmony>
            <note default-y="-30.00" default-x="290.82">
                <pitch>
                    <step>G</step>
                    <octave>4</octave>
                </pitch>
                <duration>4</duration>
                <voice>1</voice>
                <type>quarter</type>
                <stem>up</stem>
                <lyric number="1">
                    <syllabic>begin</syllabic>
                    <text>chang</text>
                </lyric>
            </note>
            <note default-y="-35.00" default-x="350.88">
                <pitch>
                    <step>F</step>
                    <octave>4</octave>
                </pitch>
                <duration>4</duration>
                <voice>1</voice>
                <type>quarter</type>
                <stem>up</stem>
                <lyric number="1">
                    <syllabic>end</syllabic>
                    <text>es</text>
                </lyric>
            </note>
        </measure>
        <measure width="228.91" number="17">
            <harmony print-frame="no">
                <root>
                    <root-step>B</root-step>
                    <root-alter>-1</root-alter>
                </root>
                <kind text="">major</kind>
            </harmony>
            <note default-y="-20.00" default-x="43.92">
                <pitch>
                    <step>B</step>
                    <alter>-1</alter>
                    <octave>4</octave>
                </pitch>
                <duration>2</duration>
                <voice>1</voice>
                <type>eighth</type>
                <stem>down</stem>
                <lyric number="1">
                    <syllabic>single</syllabic>
                    <text>made</text>
                </lyric>
            </note>
            <harmony print-frame="no">
                <root>
                    <root-step>A</root-step>
                    <root-alter>-1</root-alter>
                </root>
                <kind text="7">dominant</kind>
            </harmony>
            <note default-y="-15.00" default-x="84.80">
                <pitch>
                    <step>C</step>
                    <octave>5</octave>
                </pitch>
                <duration>4</duration>
                <voice>1</voice>
                <type>quarter</type>
                <stem>down</stem>
                <lyric number="1">
                    <syllabic>begin</syllabic>
                    <text>to</text>
                </lyric>
            </note>
            <harmony print-frame="no">
                <root>
                    <root-step>G</root-step>
                </root>
                <kind text="7">dominant</kind>
            </harmony>
            <note default-y="-10.00" default-x="132.30">
                <pitch>
                    <step>D</step>
                    <octave>5</octave>
                </pitch>
                <duration>2</duration>
                <tie type="start"/>
                <voice>1</voice>
                <type>eighth</type>
                <stem>down</stem>
                <notations>
                    <tied type="start"/>
                </notations>
                <lyric number="1">
                    <syllabic>end</syllabic>
                    <text>day.</text>
                </lyric>
            </note>
            <note default-y="-10.00" default-x="161.99">
                <pitch>
                    <step>D</step>
                    <octave>5</octave>
                </pitch>
                <duration>8</duration>
                <tie type="stop"/>
                <voice>1</voice>
                <type>half</type>
                <stem>down</stem>
                <notations>
                    <tied type="stop"/>
                </notations>
            </note>
        </measure>
        <measure width="357.69" number="18">
            <harmony print-frame="no">
                <root>
                    <root-step>C</root-step>
                </root>
                <kind text="9">dominant-ninth</kind>
            </harmony>
            <note>
                <rest/>
                <duration>3</duration>
                <voice>1</voice>
                <type>eighth</type>
                <dot/>
            </note>
            <note default-y="-10.00" default-x="72.41">
                <pitch>
                    <step>D</step>
                    <octave>5</octave>
                </pitch>
                <duration>1</duration>
                <voice>1</voice>
                <type>16th</type>
                <stem>down</stem>
                <beam number="1">begin</beam>
                <beam number="2">forward hook</beam>
                <lyric number="1">
                    <syllabic>single</syllabic>
                    <text>There'll</text>
                </lyric>
            </note>
            <note default-y="-15.00" default-x="125.58">
                <pitch>
                    <step>C</step>
                    <octave>5</octave>
                </pitch>
                <duration>3</duration>
                <voice>1</voice>
                <type>eighth</type>
                <dot/>
                <stem>down</stem>
                <beam number="1">continue</beam>
                <lyric number="1">
                    <syllabic>single</syllabic>
                    <text>be</text>
                </lyric>
            </note>
            <note default-y="-10.00" default-x="180.49">
                <pitch>
                    <step>D</step>
                    <octave>5</octave>
                </pitch>
                <duration>1</duration>
                <voice>1</voice>
                <type>16th</type>
                <stem>down</stem>
                <beam number="1">end</beam>
                <beam number="2">backward hook</beam>
                <lyric number="1">
                    <syllabic>single</syllabic>
                    <text>some</text>
                </lyric>
            </note>
            <harmony print-frame="no">
                <root>
                    <root-step>F</root-step>
                </root>
                <kind text="7">dominant</kind>
            </harmony>
            <note default-y="0.00" default-x="239.27">
                <pitch>
                    <step>F</step>
                    <octave>5</octave>
                </pitch>
                <duration>6</duration>
                <voice>1</voice>
                <type>quarter</type>
                <dot/>
                <stem>down</stem>
                <lyric number="1">
                    <syllabic>begin</syllabic>
                    <text>chang</text>
                </lyric>
            </note>
            <note default-y="-10.00" default-x="311.06">
                <pitch>
                    <step>D</step>
                    <octave>5</octave>
                </pitch>
                <duration>2</duration>
                <voice>1</voice>
                <type>eighth</type>
                <stem>down</stem>
                <lyric number="1">
                    <syllabic>end</syllabic>
                    <text>es</text>
                </lyric>
            </note>
        </measure>
        <measure width="592.68" number="19">
            <print new-system="yes">
                <system-layout>
                    <system-margins>
                        <left-margin>77.95</left-margin>
                        <right-margin>0.00</right-margin>
                    </system-margins>
                    <system-distance>153.73</system-distance>
                </system-layout>
            </print>
            <barline location="left">
                <ending type="start" number="1"></ending>
            </barline>
            <harmony print-frame="no">
                <root>
                    <root-step>B</root-step>
                    <root-alter>-1</root-alter>
                </root>
                <kind text="">major</kind>
            </harmony>
            <note default-y="-20.00" default-x="101.65">
                <pitch>
                    <step>B</step>
                    <alter>-1</alter>
                    <octave>4</octave>
                </pitch>
                <duration>4</duration>
                <voice>1</voice>
                <type>quarter</type>
                <stem>down</stem>
                <lyric number="1">
                    <syllabic>single</syllabic>
                    <text>made.</text>
                </lyric>
            </note>
            <note>
                <rest/>
                <duration>4</duration>
                <voice>1</voice>
                <type>quarter</type>
            </note>
            <harmony print-frame="no">
                <root>
                    <root-step>A</root-step>
                </root>
                <kind text="7">dominant</kind>
            </harmony>
            <note>
                <rest/>
                <duration>3</duration>
                <voice>1</voice>
                <type>eighth</type>
                <dot/>
            </note>
            <note default-y="-45.00" default-x="390.72">
                <pitch>
                    <step>D</step>
                    <octave>4</octave>
                </pitch>
                <duration>1</duration>
                <voice>1</voice>
                <type>16th</type>
                <stem>up</stem>
                <beam number="1">begin</beam>
                <beam number="2">forward hook</beam>
                <lyric number="1">
                    <syllabic>single</syllabic>
                    <text>For</text>
                </lyric>
            </note>
            <harmony print-frame="no">
                <root>
                    <root-step>A</root-step>
                    <root-alter>-1</root-alter>
                </root>
                <kind text="7">dominant</kind>
            </harmony>
            <note default-y="-50.00" default-x="443.27">
                <pitch>
                    <step>C</step>
                    <alter>1</alter>
                    <octave>4</octave>
                </pitch>
                <duration>3</duration>
                <voice>1</voice>
                <type>eighth</type>
                <dot/>
                <accidental>sharp</accidental>
                <stem>up</stem>
                <beam number="1">continue</beam>
                <lyric number="1">
                    <syllabic>single</syllabic>
                    <text>there's</text>
                </lyric>
            </note>
            <note default-y="-45.00" default-x="532.07">
                <pitch>
                    <step>D</step>
                    <octave>4</octave>
                </pitch>
                <duration>1</duration>
                <voice>1</voice>
                <type>16th</type>
                <stem>up</stem>
                <beam number="1">end</beam>
                <beam number="2">backward hook</beam>
                <lyric number="1">
                    <syllabic>single</syllabic>
                    <text>a</text>
                </lyric>
            </note>
            <barline location="right">
                <bar-style>light-heavy</bar-style>
                <ending type="stop" number="1"></ending>
                <repeat direction="backward"/>
            </barline>
        </measure>
        <measure width="406.47" number="20">
            <barline location="left">
                <ending type="start" number="2"></ending>
            </barline>
            <harmony print-frame="no">
                <root>
                    <root-step>B</root-step>
                    <root-alter>-1</root-alter>
                </root>
                <kind text="">major</kind>
            </harmony>
            <note default-y="-20.00" default-x="46.80">
                <pitch>
                    <step>B</step>
                    <alter>-1</alter>
                    <octave>4</octave>
                </pitch>
                <duration>4</duration>
                <voice>1</voice>
                <type>quarter</type>
                <stem>down</stem>
                <lyric number="1">
                    <syllabic>single</syllabic>
                    <text>made.</text>
                </lyric>
            </note>
            <note>
                <rest/>
                <duration>4</duration>
                <voice>1</voice>
                <type>quarter</type>
            </note>
            <note>
                <rest/>
                <duration>8</duration>
                <voice>1</voice>
                <type>half</type>
            </note>
            <barline location="right">
                <bar-style>light-heavy</bar-style>
                <ending type="stop" number="2"></ending>
            </barline>
        </measure>
    </part>
</score-partwise>
