<?xml version="1.0" encoding="UTF-8"?>
<!DOCTYPE score-partwise PUBLIC "-//Recordare//DTD MusicXML 2.0 Partwise//EN" "http://www.musicxml.org/dtds/partwise.dtd">
<score-partwise version="2.0">
    <work>
        <work-number></work-number>
        <work-title></work-title>
    </work>
    <movement-number></movement-number>
    <movement-title>Move</movement-title>
    <identification>
        <creator type="composer">Denzil Best</creator>
        <creator type="poet"></creator>
        <rights>All Rights Reserved</rights>
        <encoding>
            <software>MuseScore 1.0</software>
            <encoding-date>2011-11-28</encoding-date>
            <software>ProxyMusic 2.0 c</software>
        </encoding>
        <source>http://wikifonia.org/node/13693/revisions/18359/view</source>
    </identification>
    <defaults>
        <scaling>
            <millimeters>5.7</millimeters>
            <tenths>40</tenths>
        </scaling>
        <page-layout>
            <page-height>2084.21</page-height>
            <page-width>1473.68</page-width>
            <page-margins type="both">
                <left-margin>70.1754</left-margin>
                <right-margin>70.1754</right-margin>
                <top-margin>70.1754</top-margin>
                <bottom-margin>140.351</bottom-margin>
            </page-margins>
        </page-layout>
    </defaults>
    <part-list>
        <score-part id="P1">
            <part-name></part-name>
            <score-instrument id="P1-I3">
                <instrument-name></instrument-name>
            </score-instrument>
            <midi-instrument id="P1-I3">
                <midi-channel>1</midi-channel>
                <midi-program>41</midi-program>
            </midi-instrument>
        </score-part>
    </part-list>
    <part id="P1">
        <measure width="385.31" number="1">
            <print>
                <system-layout>
                    <system-margins>
                        <left-margin>3.00</left-margin>
                        <right-margin>-0.00</right-margin>
                    </system-margins>
                    <top-system-distance>70.00</top-system-distance>
                </system-layout>
            </print>
            <attributes>
                <divisions>6</divisions>
                <key>
                    <fifths>-2</fifths>
                    <mode>major</mode>
                </key>
                <time>
                    <beats>4</beats>
                    <beat-type>4</beat-type>
                </time>
                <clef>
                    <sign>G</sign>
                    <line>2</line>
                </clef>
            </attributes>
            <harmony print-frame="no">
                <root>
                    <root-step>B</root-step>
                    <root-alter>-1</root-alter>
                </root>
                <kind text="">major</kind>
            </harmony>
            <note default-y="-20.00" default-x="97.25">
                <pitch>
                    <step>B</step>
                    <alter>-1</alter>
                    <octave>4</octave>
                </pitch>
                <duration>6</duration>
                <voice>1</voice>
                <type>quarter</type>
                <stem>down</stem>
            </note>
            <note default-y="-35.00" default-x="164.66">
                <pitch>
                    <step>F</step>
                    <octave>4</octave>
                </pitch>
                <duration>6</duration>
                <voice>1</voice>
                <type>quarter</type>
                <stem>up</stem>
            </note>
            <note default-y="-20.00" default-x="232.06">
                <pitch>
                    <step>B</step>
                    <alter>-1</alter>
                    <octave>4</octave>
                </pitch>
                <duration>6</duration>
                <voice>1</voice>
                <type>quarter</type>
                <stem>down</stem>
            </note>
            <note default-y="-35.00" default-x="299.46">
                <pitch>
                    <step>F</step>
                    <octave>4</octave>
                </pitch>
                <duration>3</duration>
                <voice>1</voice>
                <type>eighth</type>
                <stem>up</stem>
                <beam number="1">begin</beam>
            </note>
            <note default-y="-20.00" default-x="341.58">
                <pitch>
                    <step>B</step>
                    <alter>-1</alter>
                    <octave>4</octave>
                </pitch>
                <duration>3</duration>
                <tie type="start"/>
                <voice>1</voice>
                <type>eighth</type>
                <stem>up</stem>
                <beam number="1">end</beam>
                <notations>
                    <tied type="start"/>
                </notations>
            </note>
        </measure>
        <measure width="327.23" number="2">
            <note default-y="-20.00" default-x="12.00">
                <pitch>
                    <step>B</step>
                    <alter>-1</alter>
                    <octave>4</octave>
                </pitch>
                <duration>3</duration>
                <tie type="stop"/>
                <voice>1</voice>
                <type>eighth</type>
                <stem>down</stem>
                <notations>
                    <tied type="stop"/>
                </notations>
            </note>
            <note default-y="-35.00" default-x="55.56">
                <pitch>
                    <step>F</step>
                    <octave>4</octave>
                </pitch>
                <duration>6</duration>
                <voice>1</voice>
                <type>quarter</type>
                <stem>up</stem>
            </note>
            <note default-y="-35.00" default-x="125.25">
                <pitch>
                    <step>F</step>
                    <octave>4</octave>
                </pitch>
                <duration>3</duration>
                <voice>1</voice>
                <type>eighth</type>
                <stem>up</stem>
            </note>
            <note default-y="-20.00" default-x="168.81">
                <pitch>
                    <step>B</step>
                    <alter>-1</alter>
                    <octave>4</octave>
                </pitch>
                <duration>3</duration>
                <voice>1</voice>
                <type>eighth</type>
                <stem>down</stem>
                <beam number="1">begin</beam>
            </note>
            <note default-y="-20.00" default-x="212.37">
                <pitch>
                    <step>B</step>
                    <alter>-1</alter>
                    <octave>4</octave>
                </pitch>
                <duration>3</duration>
                <voice>1</voice>
                <type>eighth</type>
                <stem>down</stem>
                <beam number="1">end</beam>
            </note>
            <note default-y="-35.00" default-x="255.93">
                <pitch>
                    <step>F</step>
                    <octave>4</octave>
                </pitch>
                <duration>6</duration>
                <voice>1</voice>
                <type>quarter</type>
                <stem>up</stem>
            </note>
        </measure>
        <measure width="290.71" number="3">
            <harmony print-frame="no">
                <root>
                    <root-step>D</root-step>
                </root>
                <kind text="m7">minor-seventh</kind>
            </harmony>
            <note default-y="-20.00" default-x="12.00">
                <pitch>
                    <step>B</step>
                    <alter>-1</alter>
                    <octave>4</octave>
                </pitch>
                <duration>6</duration>
                <voice>1</voice>
                <type>quarter</type>
                <stem>down</stem>
            </note>
            <note default-y="-20.00" default-x="88.45">
                <pitch>
                    <step>B</step>
                    <alter>-1</alter>
                    <octave>4</octave>
                </pitch>
                <duration>12</duration>
                <voice>1</voice>
                <type>half</type>
                <stem>down</stem>
            </note>
            <note>
                <rest/>
                <duration>3</duration>
                <voice>1</voice>
                <type>eighth</type>
            </note>
            <note default-y="-20.00" default-x="241.34">
                <pitch>
                    <step>B</step>
                    <octave>4</octave>
                </pitch>
                <duration>3</duration>
                <tie type="start"/>
                <voice>1</voice>
                <type>eighth</type>
                <accidental>natural</accidental>
                <stem>down</stem>
                <notations>
                    <tied type="start"/>
                </notations>
            </note>
        </measure>
        <measure width="327.08" number="4">
            <harmony print-frame="no">
                <root>
                    <root-step>G</root-step>
                </root>
                <kind text="7">dominant</kind>
            </harmony>
            <note default-y="-20.00" default-x="12.00">
                <pitch>
                    <step>B</step>
                    <octave>4</octave>
                </pitch>
                <duration>3</duration>
                <tie type="stop"/>
                <voice>1</voice>
                <type>eighth</type>
                <stem>down</stem>
                <notations>
                    <tied type="stop"/>
                </notations>
            </note>
            <note default-y="-10.00" default-x="55.54">
                <pitch>
                    <step>D</step>
                    <octave>5</octave>
                </pitch>
                <duration>6</duration>
                <voice>1</voice>
                <type>quarter</type>
                <stem>down</stem>
            </note>
            <note default-y="-20.00" default-x="125.20">
                <pitch>
                    <step>B</step>
                    <octave>4</octave>
                </pitch>
                <duration>3</duration>
                <voice>1</voice>
                <type>eighth</type>
                <accidental>natural</accidental>
                <stem>down</stem>
            </note>
            <note default-y="-10.00" default-x="168.74">
                <pitch>
                    <step>D</step>
                    <octave>5</octave>
                </pitch>
                <duration>3</duration>
                <voice>1</voice>
                <type>eighth</type>
                <stem>down</stem>
                <beam number="1">begin</beam>
            </note>
            <note default-y="-10.00" default-x="212.28">
                <pitch>
                    <step>D</step>
                    <octave>5</octave>
                </pitch>
                <duration>3</duration>
                <voice>1</voice>
                <type>eighth</type>
                <stem>down</stem>
                <beam number="1">end</beam>
            </note>
            <note default-y="-20.00" default-x="255.82">
                <pitch>
                    <step>B</step>
                    <octave>4</octave>
                </pitch>
                <duration>6</duration>
                <voice>1</voice>
                <type>quarter</type>
                <stem>down</stem>
            </note>
        </measure>
        <measure width="367.00" number="5">
            <print new-system="yes">
                <system-layout>
                    <system-margins>
                        <left-margin>3.00</left-margin>
                        <right-margin>-0.00</right-margin>
                    </system-margins>
                    <system-distance>92.00</system-distance>
                </system-layout>
            </print>
            <harmony print-frame="no">
                <root>
                    <root-step>C</root-step>
                </root>
                <kind text="m7">minor-seventh</kind>
            </harmony>
            <note default-y="-15.00" default-x="12.00">
                <pitch>
                    <step>C</step>
                    <octave>5</octave>
                </pitch>
                <duration>3</duration>
                <voice>1</voice>
                <type>eighth</type>
                <stem>down</stem>
                <beam number="1">begin</beam>
            </note>
            <note default-y="-10.00" default-x="56.17">
                <pitch>
                    <step>D</step>
                    <octave>5</octave>
                </pitch>
                <duration>3</duration>
                <voice>1</voice>
                <type>eighth</type>
                <stem>down</stem>
                <beam number="1">continue</beam>
            </note>
            <note default-y="-5.00" default-x="100.35">
                <pitch>
                    <step>E</step>
                    <alter>-1</alter>
                    <octave>5</octave>
                </pitch>
                <duration>3</duration>
                <voice>1</voice>
                <type>eighth</type>
                <stem>down</stem>
                <beam number="1">continue</beam>
            </note>
            <note default-y="-20.00" default-x="144.52">
                <pitch>
                    <step>B</step>
                    <octave>4</octave>
                </pitch>
                <duration>3</duration>
                <voice>1</voice>
                <type>eighth</type>
                <accidental>natural</accidental>
                <stem>down</stem>
                <beam number="1">end</beam>
            </note>
            <note default-y="-10.00" default-x="188.70">
                <pitch>
                    <step>D</step>
                    <octave>5</octave>
                </pitch>
                <duration>3</duration>
                <voice>1</voice>
                <type>eighth</type>
                <stem>down</stem>
                <beam number="1">begin</beam>
            </note>
            <note default-y="-15.00" default-x="232.87">
                <pitch>
                    <step>C</step>
                    <octave>5</octave>
                </pitch>
                <duration>3</duration>
                <voice>1</voice>
                <type>eighth</type>
                <stem>down</stem>
                <beam number="1">continue</beam>
            </note>
            <note default-y="-30.00" default-x="277.05">
                <pitch>
                    <step>G</step>
                    <octave>4</octave>
                </pitch>
                <duration>3</duration>
                <voice>1</voice>
                <type>eighth</type>
                <stem>down</stem>
                <beam number="1">continue</beam>
            </note>
            <note default-y="-20.00" default-x="321.22">
                <pitch>
                    <step>B</step>
                    <alter>-1</alter>
                    <octave>4</octave>
                </pitch>
                <duration>3</duration>
                <voice>1</voice>
                <type>eighth</type>
                <accidental>flat</accidental>
                <stem>down</stem>
                <beam number="1">end</beam>
            </note>
        </measure>
        <measure width="385.16" number="6">
            <harmony print-frame="no">
                <root>
                    <root-step>F</root-step>
                </root>
                <kind text="7">dominant</kind>
            </harmony>
            <note default-y="-25.00" default-x="12.00">
                <pitch>
                    <step>A</step>
                    <octave>4</octave>
                </pitch>
                <duration>2</duration>
                <voice>1</voice>
                <type>eighth</type>
                <time-modification>
                    <actual-notes>3</actual-notes>
                    <normal-notes>2</normal-notes>
                </time-modification>
                <stem>down</stem>
                <beam number="1">begin</beam>
                <notations>
                    <tuplet type="start" bracket="no"/>
                </notations>
            </note>
            <note default-y="-20.00" default-x="45.46">
                <pitch>
                    <step>B</step>
                    <alter>-1</alter>
                    <octave>4</octave>
                </pitch>
                <duration>2</duration>
                <voice>1</voice>
                <type>eighth</type>
                <time-modification>
                    <actual-notes>3</actual-notes>
                    <normal-notes>2</normal-notes>
                </time-modification>
                <stem>down</stem>
                <beam number="1">continue</beam>
            </note>
            <note default-y="-20.00" default-x="78.91">
                <pitch>
                    <step>B</step>
                    <octave>4</octave>
                </pitch>
                <duration>2</duration>
                <voice>1</voice>
                <type>eighth</type>
                <accidental>natural</accidental>
                <time-modification>
                    <actual-notes>3</actual-notes>
                    <normal-notes>2</normal-notes>
                </time-modification>
                <stem>down</stem>
                <beam number="1">end</beam>
                <notations>
                    <tuplet type="stop"/>
                </notations>
            </note>
            <note default-y="-15.00" default-x="112.37">
                <pitch>
                    <step>C</step>
                    <octave>5</octave>
                </pitch>
                <duration>3</duration>
                <voice>1</voice>
                <type>eighth</type>
                <stem>down</stem>
                <beam number="1">begin</beam>
            </note>
            <note default-y="-20.00" default-x="157.57">
                <pitch>
                    <step>B</step>
                    <alter>-1</alter>
                    <octave>4</octave>
                </pitch>
                <duration>3</duration>
                <voice>1</voice>
                <type>eighth</type>
                <accidental>flat</accidental>
                <stem>down</stem>
                <beam number="1">end</beam>
            </note>
            <note default-y="-25.00" default-x="202.77">
                <pitch>
                    <step>A</step>
                    <octave>4</octave>
                </pitch>
                <duration>3</duration>
                <voice>1</voice>
                <type>eighth</type>
                <stem>up</stem>
                <beam number="1">begin</beam>
            </note>
            <note default-y="-30.00" default-x="247.97">
                <pitch>
                    <step>G</step>
                    <octave>4</octave>
                </pitch>
                <duration>3</duration>
                <voice>1</voice>
                <type>eighth</type>
                <stem>up</stem>
                <beam number="1">continue</beam>
            </note>
            <note default-y="-35.00" default-x="293.16">
                <pitch>
                    <step>F</step>
                    <octave>4</octave>
                </pitch>
                <duration>3</duration>
                <voice>1</voice>
                <type>eighth</type>
                <stem>up</stem>
                <beam number="1">continue</beam>
            </note>
            <note default-y="-40.00" default-x="338.36">
                <pitch>
                    <step>E</step>
                    <alter>-1</alter>
                    <octave>4</octave>
                </pitch>
                <duration>3</duration>
                <voice>1</voice>
                <type>eighth</type>
                <stem>up</stem>
                <beam number="1">end</beam>
            </note>
        </measure>
        <measure width="282.59" number="7">
            <harmony relative-x="62.50" print-frame="no">
                <root>
                    <root-step>B</root-step>
                    <root-alter>-1</root-alter>
                </root>
                <kind text="">major</kind>
            </harmony>
            <note default-y="-45.00" default-x="12.00">
                <pitch>
                    <step>D</step>
                    <octave>4</octave>
                </pitch>
                <duration>6</duration>
                <voice>1</voice>
                <type>quarter</type>
                <stem>up</stem>
            </note>
            <note default-y="-35.00" default-x="81.97">
                <pitch>
                    <step>F</step>
                    <octave>4</octave>
                </pitch>
                <duration>6</duration>
                <voice>1</voice>
                <type>quarter</type>
                <stem>up</stem>
            </note>
            <harmony print-frame="no">
                <root>
                    <root-step>G</root-step>
                </root>
                <kind text="7">dominant</kind>
            </harmony>
            <note default-y="-20.00" default-x="151.94">
                <pitch>
                    <step>B</step>
                    <alter>-1</alter>
                    <octave>4</octave>
                </pitch>
                <duration>9</duration>
                <voice>1</voice>
                <type>quarter</type>
                <dot/>
                <stem>down</stem>
            </note>
            <note default-y="-20.00" default-x="237.26">
                <pitch>
                    <step>B</step>
                    <alter>-1</alter>
                    <octave>4</octave>
                </pitch>
                <duration>3</duration>
                <tie type="start"/>
                <voice>1</voice>
                <type>eighth</type>
                <stem>down</stem>
                <notations>
                    <tied type="start"/>
                </notations>
            </note>
        </measure>
        <measure width="295.59" number="8">
            <harmony print-frame="no">
                <root>
                    <root-step>C</root-step>
                </root>
                <kind text="m7">minor-seventh</kind>
            </harmony>
            <note default-y="-20.00" default-x="12.00">
                <pitch>
                    <step>B</step>
                    <alter>-1</alter>
                    <octave>4</octave>
                </pitch>
                <duration>3</duration>
                <tie type="stop"/>
                <voice>1</voice>
                <type>eighth</type>
                <stem>up</stem>
                <beam number="1">begin</beam>
                <notations>
                    <tied type="stop"/>
                </notations>
            </note>
            <note default-y="-25.00" default-x="53.47">
                <pitch>
                    <step>A</step>
                    <octave>4</octave>
                </pitch>
                <duration>3</duration>
                <voice>1</voice>
                <type>eighth</type>
                <stem>up</stem>
                <beam number="1">end</beam>
            </note>
            <note default-y="-20.00" default-x="94.94">
                <pitch>
                    <step>B</step>
                    <alter>-1</alter>
                    <octave>4</octave>
                </pitch>
                <duration>12</duration>
                <voice>1</voice>
                <type>half</type>
                <stem>up</stem>
            </note>
            <note>
                <rest/>
                <duration>6</duration>
                <voice>1</voice>
                <type>quarter</type>
            </note>
            <harmony print-frame="no">
                <root>
                    <root-step>C</root-step>
                </root>
                <kind text="m7">minor-seventh</kind>
            </harmony>
            <backup>
                <duration>24</duration>
            </backup>
            <note print-object="no">
                <rest/>
                <duration>12</duration>
                <voice>2</voice>
                <type>half</type>
            </note>
            <harmony print-frame="no">
                <root>
                    <root-step>F</root-step>
                </root>
                <kind text="7">dominant</kind>
            </harmony>
            <note print-object="no">
                <rest/>
                <duration>6</duration>
                <voice>2</voice>
                <type>quarter</type>
            </note>
            <note>
                <rest/>
                <duration>6</duration>
                <voice>2</voice>
                <type>quarter</type>
            </note>
        </measure>
        <measure width="321.37" number="9">
            <print new-system="yes">
                <system-layout>
                    <system-margins>
                        <left-margin>3.00</left-margin>
                        <right-margin>-0.00</right-margin>
                    </system-margins>
                    <system-distance>92.00</system-distance>
                </system-layout>
            </print>
            <harmony print-frame="no">
                <root>
                    <root-step>B</root-step>
                    <root-alter>-1</root-alter>
                </root>
                <kind text="">major</kind>
            </harmony>
            <note default-y="-20.00" default-x="12.00">
                <pitch>
                    <step>B</step>
                    <alter>-1</alter>
                    <octave>4</octave>
                </pitch>
                <duration>6</duration>
                <voice>1</voice>
                <type>quarter</type>
                <stem>down</stem>
            </note>
            <note default-y="-35.00" default-x="84.42">
                <pitch>
                    <step>F</step>
                    <octave>4</octave>
                </pitch>
                <duration>6</duration>
                <voice>1</voice>
                <type>quarter</type>
                <stem>up</stem>
            </note>
            <note default-y="-20.00" default-x="156.83">
                <pitch>
                    <step>B</step>
                    <alter>-1</alter>
                    <octave>4</octave>
                </pitch>
                <duration>6</duration>
                <voice>1</voice>
                <type>quarter</type>
                <stem>down</stem>
            </note>
            <note default-y="-35.00" default-x="229.25">
                <pitch>
                    <step>F</step>
                    <octave>4</octave>
                </pitch>
                <duration>3</duration>
                <voice>1</voice>
                <type>eighth</type>
                <stem>up</stem>
                <beam number="1">begin</beam>
            </note>
            <note default-y="-20.00" default-x="274.51">
                <pitch>
                    <step>B</step>
                    <alter>-1</alter>
                    <octave>4</octave>
                </pitch>
                <duration>3</duration>
                <tie type="start"/>
                <voice>1</voice>
                <type>eighth</type>
                <stem>up</stem>
                <beam number="1">end</beam>
                <notations>
                    <tied type="start"/>
                </notations>
            </note>
        </measure>
        <measure width="348.54" number="10">
            <note default-y="-20.00" default-x="12.00">
                <pitch>
                    <step>B</step>
                    <alter>-1</alter>
                    <octave>4</octave>
                </pitch>
                <duration>3</duration>
                <tie type="stop"/>
                <voice>1</voice>
                <type>eighth</type>
                <stem>down</stem>
                <notations>
                    <tied type="stop"/>
                </notations>
            </note>
            <note default-y="-35.00" default-x="58.52">
                <pitch>
                    <step>F</step>
                    <octave>4</octave>
                </pitch>
                <duration>6</duration>
                <voice>1</voice>
                <type>quarter</type>
                <stem>up</stem>
            </note>
            <note default-y="-35.00" default-x="132.95">
                <pitch>
                    <step>F</step>
                    <octave>4</octave>
                </pitch>
                <duration>3</duration>
                <voice>1</voice>
                <type>eighth</type>
                <stem>up</stem>
            </note>
            <note default-y="-20.00" default-x="179.47">
                <pitch>
                    <step>B</step>
                    <alter>-1</alter>
                    <octave>4</octave>
                </pitch>
                <duration>3</duration>
                <voice>1</voice>
                <type>eighth</type>
                <stem>down</stem>
                <beam number="1">begin</beam>
            </note>
            <note default-y="-20.00" default-x="225.99">
                <pitch>
                    <step>B</step>
                    <alter>-1</alter>
                    <octave>4</octave>
                </pitch>
                <duration>3</duration>
                <voice>1</voice>
                <type>eighth</type>
                <stem>down</stem>
                <beam number="1">end</beam>
            </note>
            <note default-y="-35.00" default-x="272.51">
                <pitch>
                    <step>F</step>
                    <octave>4</octave>
                </pitch>
                <duration>6</duration>
                <voice>1</voice>
                <type>quarter</type>
                <stem>up</stem>
            </note>
        </measure>
        <measure width="312.03" number="11">
            <harmony print-frame="no">
                <root>
                    <root-step>D</root-step>
                </root>
                <kind text="m7">minor-seventh</kind>
            </harmony>
            <note default-y="-20.00" default-x="12.00">
                <pitch>
                    <step>B</step>
                    <alter>-1</alter>
                    <octave>4</octave>
                </pitch>
                <duration>6</duration>
                <voice>1</voice>
                <type>quarter</type>
                <stem>down</stem>
            </note>
            <note default-y="-20.00" default-x="94.32">
                <pitch>
                    <step>B</step>
                    <alter>-1</alter>
                    <octave>4</octave>
                </pitch>
                <duration>12</duration>
                <voice>1</voice>
                <type>half</type>
                <stem>down</stem>
            </note>
            <note>
                <rest/>
                <duration>3</duration>
                <voice>1</voice>
                <type>eighth</type>
            </note>
            <note default-y="-20.00" default-x="258.97">
                <pitch>
                    <step>B</step>
                    <octave>4</octave>
                </pitch>
                <duration>3</duration>
                <tie type="start"/>
                <voice>1</voice>
                <type>eighth</type>
                <accidental>natural</accidental>
                <stem>down</stem>
                <notations>
                    <tied type="start"/>
                </notations>
            </note>
        </measure>
        <measure width="348.40" number="12">
            <harmony print-frame="no">
                <root>
                    <root-step>G</root-step>
                </root>
                <kind text="7">dominant</kind>
            </harmony>
            <note default-y="-20.00" default-x="12.00">
                <pitch>
                    <step>B</step>
                    <octave>4</octave>
                </pitch>
                <duration>3</duration>
                <tie type="stop"/>
                <voice>1</voice>
                <type>eighth</type>
                <stem>down</stem>
                <notations>
                    <tied type="stop"/>
                </notations>
            </note>
            <note default-y="-10.00" default-x="58.50">
                <pitch>
                    <step>D</step>
                    <octave>5</octave>
                </pitch>
                <duration>6</duration>
                <voice>1</voice>
                <type>quarter</type>
                <stem>down</stem>
            </note>
            <note default-y="-20.00" default-x="132.90">
                <pitch>
                    <step>B</step>
                    <octave>4</octave>
                </pitch>
                <duration>3</duration>
                <voice>1</voice>
                <type>eighth</type>
                <accidental>natural</accidental>
                <stem>down</stem>
            </note>
            <note default-y="-10.00" default-x="179.40">
                <pitch>
                    <step>D</step>
                    <octave>5</octave>
                </pitch>
                <duration>3</duration>
                <voice>1</voice>
                <type>eighth</type>
                <stem>down</stem>
                <beam number="1">begin</beam>
            </note>
            <note default-y="-10.00" default-x="225.90">
                <pitch>
                    <step>D</step>
                    <octave>5</octave>
                </pitch>
                <duration>3</duration>
                <voice>1</voice>
                <type>eighth</type>
                <stem>down</stem>
                <beam number="1">end</beam>
            </note>
            <note default-y="-20.00" default-x="272.40">
                <pitch>
                    <step>B</step>
                    <octave>4</octave>
                </pitch>
                <duration>6</duration>
                <voice>1</voice>
                <type>quarter</type>
                <stem>down</stem>
            </note>
        </measure>
        <measure width="367.00" number="13">
            <print new-system="yes">
                <system-layout>
                    <system-margins>
                        <left-margin>3.00</left-margin>
                        <right-margin>-0.00</right-margin>
                    </system-margins>
                    <system-distance>92.00</system-distance>
                </system-layout>
            </print>
            <harmony print-frame="no">
                <root>
                    <root-step>C</root-step>
                </root>
                <kind text="m7">minor-seventh</kind>
            </harmony>
            <note default-y="-15.00" default-x="12.00">
                <pitch>
                    <step>C</step>
                    <octave>5</octave>
                </pitch>
                <duration>3</duration>
                <voice>1</voice>
                <type>eighth</type>
                <stem>down</stem>
                <beam number="1">begin</beam>
            </note>
            <note default-y="-10.00" default-x="56.17">
                <pitch>
                    <step>D</step>
                    <octave>5</octave>
                </pitch>
                <duration>3</duration>
                <voice>1</voice>
                <type>eighth</type>
                <stem>down</stem>
                <beam number="1">continue</beam>
            </note>
            <note default-y="-5.00" default-x="100.35">
                <pitch>
                    <step>E</step>
                    <alter>-1</alter>
                    <octave>5</octave>
                </pitch>
                <duration>3</duration>
                <voice>1</voice>
                <type>eighth</type>
                <stem>down</stem>
                <beam number="1">continue</beam>
            </note>
            <note default-y="-20.00" default-x="144.52">
                <pitch>
                    <step>B</step>
                    <octave>4</octave>
                </pitch>
                <duration>3</duration>
                <voice>1</voice>
                <type>eighth</type>
                <accidental>natural</accidental>
                <stem>down</stem>
                <beam number="1">end</beam>
            </note>
            <note default-y="-10.00" default-x="188.70">
                <pitch>
                    <step>D</step>
                    <octave>5</octave>
                </pitch>
                <duration>3</duration>
                <voice>1</voice>
                <type>eighth</type>
                <stem>down</stem>
                <beam number="1">begin</beam>
            </note>
            <note default-y="-15.00" default-x="232.87">
                <pitch>
                    <step>C</step>
                    <octave>5</octave>
                </pitch>
                <duration>3</duration>
                <voice>1</voice>
                <type>eighth</type>
                <stem>down</stem>
                <beam number="1">continue</beam>
            </note>
            <note default-y="-30.00" default-x="277.05">
                <pitch>
                    <step>G</step>
                    <octave>4</octave>
                </pitch>
                <duration>3</duration>
                <voice>1</voice>
                <type>eighth</type>
                <stem>down</stem>
                <beam number="1">continue</beam>
            </note>
            <note default-y="-20.00" default-x="321.22">
                <pitch>
                    <step>B</step>
                    <alter>-1</alter>
                    <octave>4</octave>
                </pitch>
                <duration>3</duration>
                <voice>1</voice>
                <type>eighth</type>
                <accidental>flat</accidental>
                <stem>down</stem>
                <beam number="1">end</beam>
            </note>
        </measure>
        <measure width="385.16" number="14">
            <harmony print-frame="no">
                <root>
                    <root-step>F</root-step>
                </root>
                <kind text="7">dominant</kind>
            </harmony>
            <note default-y="-25.00" default-x="12.00">
                <pitch>
                    <step>A</step>
                    <octave>4</octave>
                </pitch>
                <duration>2</duration>
                <voice>1</voice>
                <type>eighth</type>
                <time-modification>
                    <actual-notes>3</actual-notes>
                    <normal-notes>2</normal-notes>
                </time-modification>
                <stem>down</stem>
                <beam number="1">begin</beam>
                <notations>
                    <tuplet type="start" bracket="no"/>
                </notations>
            </note>
            <note default-y="-20.00" default-x="45.46">
                <pitch>
                    <step>B</step>
                    <alter>-1</alter>
                    <octave>4</octave>
                </pitch>
                <duration>2</duration>
                <voice>1</voice>
                <type>eighth</type>
                <time-modification>
                    <actual-notes>3</actual-notes>
                    <normal-notes>2</normal-notes>
                </time-modification>
                <stem>down</stem>
                <beam number="1">continue</beam>
            </note>
            <note default-y="-20.00" default-x="78.91">
                <pitch>
                    <step>B</step>
                    <octave>4</octave>
                </pitch>
                <duration>2</duration>
                <voice>1</voice>
                <type>eighth</type>
                <accidental>natural</accidental>
                <time-modification>
                    <actual-notes>3</actual-notes>
                    <normal-notes>2</normal-notes>
                </time-modification>
                <stem>down</stem>
                <beam number="1">end</beam>
                <notations>
                    <tuplet type="stop"/>
                </notations>
            </note>
            <note default-y="-15.00" default-x="112.37">
                <pitch>
                    <step>C</step>
                    <octave>5</octave>
                </pitch>
                <duration>3</duration>
                <voice>1</voice>
                <type>eighth</type>
                <stem>down</stem>
                <beam number="1">begin</beam>
            </note>
            <note default-y="-20.00" default-x="157.57">
                <pitch>
                    <step>B</step>
                    <alter>-1</alter>
                    <octave>4</octave>
                </pitch>
                <duration>3</duration>
                <voice>1</voice>
                <type>eighth</type>
                <accidental>flat</accidental>
                <stem>down</stem>
                <beam number="1">end</beam>
            </note>
            <note default-y="-25.00" default-x="202.77">
                <pitch>
                    <step>A</step>
                    <octave>4</octave>
                </pitch>
                <duration>3</duration>
                <voice>1</voice>
                <type>eighth</type>
                <stem>up</stem>
                <beam number="1">begin</beam>
            </note>
            <note default-y="-30.00" default-x="247.97">
                <pitch>
                    <step>G</step>
                    <octave>4</octave>
                </pitch>
                <duration>3</duration>
                <voice>1</voice>
                <type>eighth</type>
                <stem>up</stem>
                <beam number="1">continue</beam>
            </note>
            <note default-y="-35.00" default-x="293.16">
                <pitch>
                    <step>F</step>
                    <octave>4</octave>
                </pitch>
                <duration>3</duration>
                <voice>1</voice>
                <type>eighth</type>
                <stem>up</stem>
                <beam number="1">continue</beam>
            </note>
            <note default-y="-40.00" default-x="338.36">
                <pitch>
                    <step>E</step>
                    <alter>-1</alter>
                    <octave>4</octave>
                </pitch>
                <duration>3</duration>
                <voice>1</voice>
                <type>eighth</type>
                <stem>up</stem>
                <beam number="1">end</beam>
            </note>
        </measure>
        <measure width="282.59" number="15">
            <harmony relative-x="62.50" print-frame="no">
                <root>
                    <root-step>B</root-step>
                    <root-alter>-1</root-alter>
                </root>
                <kind text="">major</kind>
            </harmony>
            <note default-y="-45.00" default-x="12.00">
                <pitch>
                    <step>D</step>
                    <octave>4</octave>
                </pitch>
                <duration>6</duration>
                <voice>1</voice>
                <type>quarter</type>
                <stem>up</stem>
            </note>
            <note default-y="-35.00" default-x="81.97">
                <pitch>
                    <step>F</step>
                    <octave>4</octave>
                </pitch>
                <duration>6</duration>
                <voice>1</voice>
                <type>quarter</type>
                <stem>up</stem>
            </note>
            <note default-y="-20.00" default-x="151.94">
                <pitch>
                    <step>B</step>
                    <alter>-1</alter>
                    <octave>4</octave>
                </pitch>
                <duration>9</duration>
                <voice>1</voice>
                <type>quarter</type>
                <dot/>
                <stem>down</stem>
            </note>
            <note default-y="-20.00" default-x="237.26">
                <pitch>
                    <step>B</step>
                    <alter>-1</alter>
                    <octave>4</octave>
                </pitch>
                <duration>3</duration>
                <tie type="start"/>
                <voice>1</voice>
                <type>eighth</type>
                <stem>down</stem>
                <notations>
                    <tied type="start"/>
                </notations>
            </note>
        </measure>
        <measure width="295.59" number="16">
            <note default-y="-20.00" default-x="12.00">
                <pitch>
                    <step>B</step>
                    <alter>-1</alter>
                    <octave>4</octave>
                </pitch>
                <duration>3</duration>
                <tie type="stop"/>
                <voice>1</voice>
                <type>eighth</type>
                <stem>up</stem>
                <beam number="1">begin</beam>
                <notations>
                    <tied type="stop"/>
                </notations>
            </note>
            <note default-y="-25.00" default-x="53.47">
                <pitch>
                    <step>A</step>
                    <octave>4</octave>
                </pitch>
                <duration>3</duration>
                <voice>1</voice>
                <type>eighth</type>
                <stem>up</stem>
                <beam number="1">end</beam>
            </note>
            <note default-y="-20.00" default-x="94.94">
                <pitch>
                    <step>B</step>
                    <alter>-1</alter>
                    <octave>4</octave>
                </pitch>
                <duration>12</duration>
                <voice>1</voice>
                <type>half</type>
                <stem>up</stem>
            </note>
            <note>
                <rest/>
                <duration>6</duration>
                <voice>1</voice>
                <type>quarter</type>
            </note>
            <backup>
                <duration>24</duration>
            </backup>
            <note print-object="no">
                <rest/>
                <duration>12</duration>
                <voice>2</voice>
                <type>half</type>
            </note>
            <note print-object="no">
                <rest/>
                <duration>6</duration>
                <voice>2</voice>
                <type>quarter</type>
            </note>
            <note>
                <rest/>
                <duration>6</duration>
                <voice>2</voice>
                <type>quarter</type>
            </note>
        </measure>
        <measure width="370.43" number="17">
            <print new-system="yes">
                <system-layout>
                    <system-margins>
                        <left-margin>3.00</left-margin>
                        <right-margin>-0.00</right-margin>
                    </system-margins>
                    <system-distance>92.00</system-distance>
                </system-layout>
            </print>
            <harmony print-frame="no">
                <root>
                    <root-step>F</root-step>
                </root>
                <kind text="m7">minor-seventh</kind>
            </harmony>
            <note default-y="-35.00" default-x="12.00">
                <pitch>
                    <step>F</step>
                    <octave>4</octave>
                </pitch>
                <duration>3</duration>
                <voice>1</voice>
                <type>eighth</type>
                <stem>up</stem>
                <beam number="1">begin</beam>
            </note>
            <note default-y="-30.00" default-x="56.60">
                <pitch>
                    <step>G</step>
                    <octave>4</octave>
                </pitch>
                <duration>3</duration>
                <voice>1</voice>
                <type>eighth</type>
                <stem>up</stem>
                <beam number="1">continue</beam>
            </note>
            <note default-y="-25.00" default-x="101.21">
                <pitch>
                    <step>A</step>
                    <alter>-1</alter>
                    <octave>4</octave>
                </pitch>
                <duration>3</duration>
                <voice>1</voice>
                <type>eighth</type>
                <accidental>flat</accidental>
                <stem>up</stem>
                <beam number="1">continue</beam>
            </note>
            <note default-y="-20.00" default-x="145.81">
                <pitch>
                    <step>B</step>
                    <alter>-1</alter>
                    <octave>4</octave>
                </pitch>
                <duration>3</duration>
                <voice>1</voice>
                <type>eighth</type>
                <stem>up</stem>
                <beam number="1">end</beam>
            </note>
            <note default-y="-15.00" default-x="190.42">
                <pitch>
                    <step>C</step>
                    <octave>5</octave>
                </pitch>
                <duration>3</duration>
                <voice>1</voice>
                <type>eighth</type>
                <stem>up</stem>
                <beam number="1">begin</beam>
            </note>
            <note default-y="-20.00" default-x="235.02">
                <pitch>
                    <step>B</step>
                    <alter>-1</alter>
                    <octave>4</octave>
                </pitch>
                <duration>3</duration>
                <voice>1</voice>
                <type>eighth</type>
                <stem>up</stem>
                <beam number="1">continue</beam>
            </note>
            <note default-y="-25.00" default-x="279.62">
                <pitch>
                    <step>A</step>
                    <alter>-1</alter>
                    <octave>4</octave>
                </pitch>
                <duration>3</duration>
                <voice>1</voice>
                <type>eighth</type>
                <stem>up</stem>
                <beam number="1">continue</beam>
            </note>
            <note default-y="-30.00" default-x="324.23">
                <pitch>
                    <step>G</step>
                    <octave>4</octave>
                </pitch>
                <duration>3</duration>
                <voice>1</voice>
                <type>eighth</type>
                <stem>up</stem>
                <beam number="1">end</beam>
            </note>
        </measure>
        <measure width="379.30" number="18">
            <harmony print-frame="no">
                <root>
                    <root-step>B</root-step>
                    <root-alter>-1</root-alter>
                </root>
                <kind text="7">dominant</kind>
            </harmony>
            <note default-y="-35.00" default-x="12.00">
                <pitch>
                    <step>F</step>
                    <octave>4</octave>
                </pitch>
                <duration>3</duration>
                <voice>1</voice>
                <type>eighth</type>
                <stem>up</stem>
                <beam number="1">begin</beam>
            </note>
            <note default-y="-25.00" default-x="57.71">
                <pitch>
                    <step>A</step>
                    <alter>-1</alter>
                    <octave>4</octave>
                </pitch>
                <duration>3</duration>
                <voice>1</voice>
                <type>eighth</type>
                <accidental>flat</accidental>
                <stem>up</stem>
                <beam number="1">continue</beam>
            </note>
            <note default-y="-15.00" default-x="103.42">
                <pitch>
                    <step>C</step>
                    <octave>5</octave>
                </pitch>
                <duration>3</duration>
                <voice>1</voice>
                <type>eighth</type>
                <stem>up</stem>
                <beam number="1">continue</beam>
            </note>
            <note default-y="-20.00" default-x="149.14">
                <pitch>
                    <step>B</step>
                    <alter>-1</alter>
                    <octave>4</octave>
                </pitch>
                <duration>3</duration>
                <voice>1</voice>
                <type>eighth</type>
                <stem>up</stem>
                <beam number="1">end</beam>
            </note>
            <note default-y="-25.00" default-x="194.85">
                <pitch>
                    <step>A</step>
                    <alter>-1</alter>
                    <octave>4</octave>
                </pitch>
                <duration>3</duration>
                <voice>1</voice>
                <type>eighth</type>
                <stem>up</stem>
                <beam number="1">begin</beam>
            </note>
            <note default-y="-30.00" default-x="240.56">
                <pitch>
                    <step>G</step>
                    <octave>4</octave>
                </pitch>
                <duration>3</duration>
                <voice>1</voice>
                <type>eighth</type>
                <stem>up</stem>
                <beam number="1">continue</beam>
            </note>
            <note default-y="-35.00" default-x="286.27">
                <pitch>
                    <step>F</step>
                    <octave>4</octave>
                </pitch>
                <duration>3</duration>
                <voice>1</voice>
                <type>eighth</type>
                <stem>up</stem>
                <beam number="1">continue</beam>
            </note>
            <note default-y="-40.00" default-x="331.99">
                <pitch>
                    <step>E</step>
                    <octave>4</octave>
                </pitch>
                <duration>3</duration>
                <voice>1</voice>
                <type>eighth</type>
                <accidental>natural</accidental>
                <stem>up</stem>
                <beam number="1">end</beam>
            </note>
        </measure>
        <measure width="294.88" number="19">
            <harmony print-frame="no">
                <root>
                    <root-step>E</root-step>
                    <root-alter>-1</root-alter>
                </root>
                <kind text="Maj7">major-seventh</kind>
            </harmony>
            <note default-y="-40.00" default-x="12.00">
                <pitch>
                    <step>E</step>
                    <alter>-1</alter>
                    <octave>4</octave>
                </pitch>
                <duration>6</duration>
                <voice>1</voice>
                <type>quarter</type>
                <stem>up</stem>
            </note>
            <note default-y="-5.00" default-x="85.17">
                <pitch>
                    <step>E</step>
                    <alter>-1</alter>
                    <octave>5</octave>
                </pitch>
                <duration>6</duration>
                <voice>1</voice>
                <type>quarter</type>
                <stem>down</stem>
            </note>
            <note default-y="-5.00" default-x="158.34">
                <pitch>
                    <step>E</step>
                    <alter>-1</alter>
                    <octave>5</octave>
                </pitch>
                <duration>9</duration>
                <voice>1</voice>
                <type>quarter</type>
                <dot/>
                <stem>down</stem>
            </note>
            <note default-y="-5.00" default-x="247.55">
                <pitch>
                    <step>E</step>
                    <alter>-1</alter>
                    <octave>5</octave>
                </pitch>
                <duration>3</duration>
                <tie type="start"/>
                <voice>1</voice>
                <type>eighth</type>
                <stem>down</stem>
                <notations>
                    <tied type="start"/>
                </notations>
            </note>
        </measure>
        <measure width="285.72" number="20">
            <note default-y="-5.00" default-x="12.00">
                <pitch>
                    <step>E</step>
                    <alter>-1</alter>
                    <octave>5</octave>
                </pitch>
                <duration>3</duration>
                <tie type="stop"/>
                <voice>1</voice>
                <type>eighth</type>
                <stem>down</stem>
                <beam number="1">begin</beam>
                <notations>
                    <tied type="stop"/>
                </notations>
            </note>
            <note default-y="-10.00" default-x="58.92">
                <pitch>
                    <step>D</step>
                    <octave>5</octave>
                </pitch>
                <duration>3</duration>
                <voice>1</voice>
                <type>eighth</type>
                <stem>down</stem>
                <beam number="1">end</beam>
            </note>
            <note default-y="-5.00" default-x="105.83">
                <pitch>
                    <step>E</step>
                    <alter>-1</alter>
                    <octave>5</octave>
                </pitch>
                <duration>12</duration>
                <voice>1</voice>
                <type>half</type>
                <stem>down</stem>
            </note>
            <note>
                <rest/>
                <duration>6</duration>
                <voice>1</voice>
                <type>quarter</type>
            </note>
        </measure>
        <measure width="346.60" number="21">
            <print new-system="yes">
                <system-layout>
                    <system-margins>
                        <left-margin>3.00</left-margin>
                        <right-margin>-0.00</right-margin>
                    </system-margins>
                    <system-distance>92.00</system-distance>
                </system-layout>
            </print>
            <harmony print-frame="no">
                <root>
                    <root-step>C</root-step>
                </root>
                <kind text="7">dominant</kind>
            </harmony>
            <note default-y="-5.00" default-x="12.47">
                <pitch>
                    <step>E</step>
                    <octave>5</octave>
                </pitch>
                <duration>9</duration>
                <voice>1</voice>
                <type>quarter</type>
                <dot/>
                <accidental>natural</accidental>
                <stem>down</stem>
            </note>
            <note default-y="-10.00" default-x="111.50">
                <pitch>
                    <step>D</step>
                    <octave>5</octave>
                </pitch>
                <duration>3</duration>
                <tie type="start"/>
                <voice>1</voice>
                <type>eighth</type>
                <stem>down</stem>
                <notations>
                    <tied type="start"/>
                </notations>
            </note>
            <note default-y="-10.00" default-x="162.26">
                <pitch>
                    <step>D</step>
                    <octave>5</octave>
                </pitch>
                <duration>6</duration>
                <tie type="stop"/>
                <voice>1</voice>
                <type>quarter</type>
                <stem>down</stem>
                <notations>
                    <tied type="stop"/>
                </notations>
            </note>
            <note default-y="-30.00" default-x="243.48">
                <pitch>
                    <step>G</step>
                    <octave>4</octave>
                </pitch>
                <duration>3</duration>
                <voice>1</voice>
                <type>eighth</type>
                <stem>up</stem>
                <beam number="1">begin</beam>
            </note>
            <note default-y="-20.00" default-x="294.24">
                <pitch>
                    <step>B</step>
                    <alter>-1</alter>
                    <octave>4</octave>
                </pitch>
                <duration>3</duration>
                <tie type="start"/>
                <voice>1</voice>
                <type>eighth</type>
                <stem>up</stem>
                <beam number="1">end</beam>
                <notations>
                    <tied type="start"/>
                </notations>
            </note>
        </measure>
        <measure width="318.80" number="22">
            <note default-y="-20.00" default-x="12.00">
                <pitch>
                    <step>B</step>
                    <alter>-1</alter>
                    <octave>4</octave>
                </pitch>
                <duration>3</duration>
                <tie type="stop"/>
                <voice>1</voice>
                <type>eighth</type>
                <stem>down</stem>
                <beam number="1">begin</beam>
                <notations>
                    <tied type="stop"/>
                </notations>
            </note>
            <note default-y="-15.00" default-x="64.62">
                <pitch>
                    <step>C</step>
                    <octave>5</octave>
                </pitch>
                <duration>3</duration>
                <voice>1</voice>
                <type>eighth</type>
                <stem>down</stem>
                <beam number="1">end</beam>
            </note>
            <note default-y="-10.00" default-x="117.24">
                <pitch>
                    <step>D</step>
                    <octave>5</octave>
                </pitch>
                <duration>12</duration>
                <voice>1</voice>
                <type>half</type>
                <stem>down</stem>
            </note>
            <note>
                <rest/>
                <duration>6</duration>
                <voice>1</voice>
                <type>quarter</type>
            </note>
        </measure>
        <measure width="346.13" number="23">
            <harmony print-frame="no">
                <root>
                    <root-step>C</root-step>
                </root>
                <kind text="m7">minor-seventh</kind>
            </harmony>
            <note default-y="-5.00" default-x="12.00">
                <pitch>
                    <step>E</step>
                    <alter>-1</alter>
                    <octave>5</octave>
                </pitch>
                <duration>9</duration>
                <voice>1</voice>
                <type>quarter</type>
                <dot/>
                <stem>down</stem>
            </note>
            <note default-y="-10.00" default-x="111.03">
                <pitch>
                    <step>D</step>
                    <octave>5</octave>
                </pitch>
                <duration>3</duration>
                <tie type="start"/>
                <voice>1</voice>
                <type>eighth</type>
                <stem>down</stem>
                <notations>
                    <tied type="start"/>
                </notations>
            </note>
            <note default-y="-10.00" default-x="161.79">
                <pitch>
                    <step>D</step>
                    <octave>5</octave>
                </pitch>
                <duration>6</duration>
                <tie type="stop"/>
                <voice>1</voice>
                <type>quarter</type>
                <stem>down</stem>
                <notations>
                    <tied type="stop"/>
                </notations>
            </note>
            <note default-y="-15.00" default-x="243.01">
                <pitch>
                    <step>C</step>
                    <octave>5</octave>
                </pitch>
                <duration>3</duration>
                <voice>1</voice>
                <type>eighth</type>
                <stem>down</stem>
                <beam number="1">begin</beam>
            </note>
            <note default-y="-5.00" default-x="293.77">
                <pitch>
                    <step>E</step>
                    <alter>-1</alter>
                    <octave>5</octave>
                </pitch>
                <duration>3</duration>
                <tie type="start"/>
                <voice>1</voice>
                <type>eighth</type>
                <stem>down</stem>
                <beam number="1">end</beam>
                <notations>
                    <tied type="start"/>
                </notations>
            </note>
        </measure>
        <measure width="318.80" number="24">
            <harmony print-frame="no">
                <root>
                    <root-step>F</root-step>
                </root>
                <kind text="7">dominant</kind>
            </harmony>
            <note default-y="-5.00" default-x="12.00">
                <pitch>
                    <step>E</step>
                    <alter>-1</alter>
                    <octave>5</octave>
                </pitch>
                <duration>3</duration>
                <tie type="stop"/>
                <voice>1</voice>
                <type>eighth</type>
                <stem>down</stem>
                <beam number="1">begin</beam>
                <notations>
                    <tied type="stop"/>
                </notations>
            </note>
            <note default-y="-10.00" default-x="64.62">
                <pitch>
                    <step>D</step>
                    <octave>5</octave>
                </pitch>
                <duration>3</duration>
                <voice>1</voice>
                <type>eighth</type>
                <stem>down</stem>
                <beam number="1">end</beam>
            </note>
            <note default-y="-15.00" default-x="117.24">
                <pitch>
                    <step>C</step>
                    <octave>5</octave>
                </pitch>
                <duration>12</duration>
                <voice>1</voice>
                <type>half</type>
                <stem>down</stem>
            </note>
            <note>
                <rest/>
                <duration>6</duration>
                <voice>1</voice>
                <type>quarter</type>
            </note>
        </measure>
        <measure width="321.37" number="25">
            <print new-system="yes">
                <system-layout>
                    <system-margins>
                        <left-margin>3.00</left-margin>
                        <right-margin>-0.00</right-margin>
                    </system-margins>
                    <system-distance>92.00</system-distance>
                </system-layout>
            </print>
            <harmony print-frame="no">
                <root>
                    <root-step>B</root-step>
                    <root-alter>-1</root-alter>
                </root>
                <kind text="">major</kind>
            </harmony>
            <note default-y="-20.00" default-x="12.00">
                <pitch>
                    <step>B</step>
                    <alter>-1</alter>
                    <octave>4</octave>
                </pitch>
                <duration>6</duration>
                <voice>1</voice>
                <type>quarter</type>
                <stem>down</stem>
            </note>
            <note default-y="-35.00" default-x="84.42">
                <pitch>
                    <step>F</step>
                    <octave>4</octave>
                </pitch>
                <duration>6</duration>
                <voice>1</voice>
                <type>quarter</type>
                <stem>up</stem>
            </note>
            <note default-y="-20.00" default-x="156.83">
                <pitch>
                    <step>B</step>
                    <alter>-1</alter>
                    <octave>4</octave>
                </pitch>
                <duration>6</duration>
                <voice>1</voice>
                <type>quarter</type>
                <stem>down</stem>
            </note>
            <note default-y="-35.00" default-x="229.25">
                <pitch>
                    <step>F</step>
                    <octave>4</octave>
                </pitch>
                <duration>3</duration>
                <voice>1</voice>
                <type>eighth</type>
                <stem>up</stem>
                <beam number="1">begin</beam>
            </note>
            <note default-y="-20.00" default-x="274.51">
                <pitch>
                    <step>B</step>
                    <alter>-1</alter>
                    <octave>4</octave>
                </pitch>
                <duration>3</duration>
                <tie type="start"/>
                <voice>1</voice>
                <type>eighth</type>
                <stem>up</stem>
                <beam number="1">end</beam>
                <notations>
                    <tied type="start"/>
                </notations>
            </note>
        </measure>
        <measure width="348.54" number="26">
            <note default-y="-20.00" default-x="12.00">
                <pitch>
                    <step>B</step>
                    <alter>-1</alter>
                    <octave>4</octave>
                </pitch>
                <duration>3</duration>
                <tie type="stop"/>
                <voice>1</voice>
                <type>eighth</type>
                <stem>down</stem>
                <notations>
                    <tied type="stop"/>
                </notations>
            </note>
            <note default-y="-35.00" default-x="58.52">
                <pitch>
                    <step>F</step>
                    <octave>4</octave>
                </pitch>
                <duration>6</duration>
                <voice>1</voice>
                <type>quarter</type>
                <stem>up</stem>
            </note>
            <note default-y="-35.00" default-x="132.95">
                <pitch>
                    <step>F</step>
                    <octave>4</octave>
                </pitch>
                <duration>3</duration>
                <voice>1</voice>
                <type>eighth</type>
                <stem>up</stem>
            </note>
            <note default-y="-20.00" default-x="179.47">
                <pitch>
                    <step>B</step>
                    <alter>-1</alter>
                    <octave>4</octave>
                </pitch>
                <duration>3</duration>
                <voice>1</voice>
                <type>eighth</type>
                <stem>down</stem>
                <beam number="1">begin</beam>
            </note>
            <note default-y="-20.00" default-x="225.99">
                <pitch>
                    <step>B</step>
                    <alter>-1</alter>
                    <octave>4</octave>
                </pitch>
                <duration>3</duration>
                <voice>1</voice>
                <type>eighth</type>
                <stem>down</stem>
                <beam number="1">end</beam>
            </note>
            <note default-y="-35.00" default-x="272.51">
                <pitch>
                    <step>F</step>
                    <octave>4</octave>
                </pitch>
                <duration>6</duration>
                <voice>1</voice>
                <type>quarter</type>
                <stem>up</stem>
            </note>
        </measure>
        <measure width="312.03" number="27">
            <harmony print-frame="no">
                <root>
                    <root-step>D</root-step>
                </root>
                <kind text="m7">minor-seventh</kind>
            </harmony>
            <note default-y="-20.00" default-x="12.00">
                <pitch>
                    <step>B</step>
                    <alter>-1</alter>
                    <octave>4</octave>
                </pitch>
                <duration>6</duration>
                <voice>1</voice>
                <type>quarter</type>
                <stem>down</stem>
            </note>
            <note default-y="-20.00" default-x="94.32">
                <pitch>
                    <step>B</step>
                    <alter>-1</alter>
                    <octave>4</octave>
                </pitch>
                <duration>12</duration>
                <voice>1</voice>
                <type>half</type>
                <stem>down</stem>
            </note>
            <note>
                <rest/>
                <duration>3</duration>
                <voice>1</voice>
                <type>eighth</type>
            </note>
            <note default-y="-20.00" default-x="258.97">
                <pitch>
                    <step>B</step>
                    <octave>4</octave>
                </pitch>
                <duration>3</duration>
                <tie type="start"/>
                <voice>1</voice>
                <type>eighth</type>
                <accidental>natural</accidental>
                <stem>down</stem>
                <notations>
                    <tied type="start"/>
                </notations>
            </note>
        </measure>
        <measure width="348.40" number="28">
            <harmony print-frame="no">
                <root>
                    <root-step>G</root-step>
                </root>
                <kind text="7">dominant</kind>
            </harmony>
            <note default-y="-20.00" default-x="12.00">
                <pitch>
                    <step>B</step>
                    <octave>4</octave>
                </pitch>
                <duration>3</duration>
                <tie type="stop"/>
                <voice>1</voice>
                <type>eighth</type>
                <stem>down</stem>
                <notations>
                    <tied type="stop"/>
                </notations>
            </note>
            <note default-y="-10.00" default-x="58.50">
                <pitch>
                    <step>D</step>
                    <octave>5</octave>
                </pitch>
                <duration>6</duration>
                <voice>1</voice>
                <type>quarter</type>
                <stem>down</stem>
            </note>
            <note default-y="-20.00" default-x="132.90">
                <pitch>
                    <step>B</step>
                    <octave>4</octave>
                </pitch>
                <duration>3</duration>
                <voice>1</voice>
                <type>eighth</type>
                <accidental>natural</accidental>
                <stem>down</stem>
            </note>
            <note default-y="-10.00" default-x="179.40">
                <pitch>
                    <step>D</step>
                    <octave>5</octave>
                </pitch>
                <duration>3</duration>
                <voice>1</voice>
                <type>eighth</type>
                <stem>down</stem>
                <beam number="1">begin</beam>
            </note>
            <note default-y="-10.00" default-x="225.90">
                <pitch>
                    <step>D</step>
                    <octave>5</octave>
                </pitch>
                <duration>3</duration>
                <voice>1</voice>
                <type>eighth</type>
                <stem>down</stem>
                <beam number="1">end</beam>
            </note>
            <note default-y="-20.00" default-x="272.40">
                <pitch>
                    <step>B</step>
                    <octave>4</octave>
                </pitch>
                <duration>6</duration>
                <voice>1</voice>
                <type>quarter</type>
                <stem>down</stem>
            </note>
        </measure>
        <measure width="365.50" number="29">
            <print new-system="yes">
                <system-layout>
                    <system-margins>
                        <left-margin>3.00</left-margin>
                        <right-margin>-0.00</right-margin>
                    </system-margins>
                    <system-distance>92.00</system-distance>
                </system-layout>
            </print>
            <harmony print-frame="no">
                <root>
                    <root-step>C</root-step>
                </root>
                <kind text="m7">minor-seventh</kind>
            </harmony>
            <note default-y="-15.00" default-x="12.00">
                <pitch>
                    <step>C</step>
                    <octave>5</octave>
                </pitch>
                <duration>3</duration>
                <voice>1</voice>
                <type>eighth</type>
                <stem>down</stem>
                <beam number="1">begin</beam>
            </note>
            <note default-y="-10.00" default-x="55.99">
                <pitch>
                    <step>D</step>
                    <octave>5</octave>
                </pitch>
                <duration>3</duration>
                <voice>1</voice>
                <type>eighth</type>
                <stem>down</stem>
                <beam number="1">continue</beam>
            </note>
            <note default-y="-5.00" default-x="99.97">
                <pitch>
                    <step>E</step>
                    <alter>-1</alter>
                    <octave>5</octave>
                </pitch>
                <duration>3</duration>
                <voice>1</voice>
                <type>eighth</type>
                <stem>down</stem>
                <beam number="1">continue</beam>
            </note>
            <note default-y="-20.00" default-x="143.96">
                <pitch>
                    <step>B</step>
                    <octave>4</octave>
                </pitch>
                <duration>3</duration>
                <voice>1</voice>
                <type>eighth</type>
                <accidental>natural</accidental>
                <stem>down</stem>
                <beam number="1">end</beam>
            </note>
            <note default-y="-10.00" default-x="187.95">
                <pitch>
                    <step>D</step>
                    <octave>5</octave>
                </pitch>
                <duration>3</duration>
                <voice>1</voice>
                <type>eighth</type>
                <stem>down</stem>
                <beam number="1">begin</beam>
            </note>
            <note default-y="-15.00" default-x="231.94">
                <pitch>
                    <step>C</step>
                    <octave>5</octave>
                </pitch>
                <duration>3</duration>
                <voice>1</voice>
                <type>eighth</type>
                <stem>down</stem>
                <beam number="1">continue</beam>
            </note>
            <note default-y="-30.00" default-x="275.92">
                <pitch>
                    <step>G</step>
                    <octave>4</octave>
                </pitch>
                <duration>3</duration>
                <voice>1</voice>
                <type>eighth</type>
                <stem>down</stem>
                <beam number="1">continue</beam>
            </note>
            <note default-y="-20.00" default-x="319.91">
                <pitch>
                    <step>B</step>
                    <alter>-1</alter>
                    <octave>4</octave>
                </pitch>
                <duration>3</duration>
                <voice>1</voice>
                <type>eighth</type>
                <accidental>flat</accidental>
                <stem>down</stem>
                <beam number="1">end</beam>
            </note>
        </measure>
        <measure width="383.66" number="30">
            <harmony print-frame="no">
                <root>
                    <root-step>F</root-step>
                </root>
                <kind text="7">dominant</kind>
            </harmony>
            <note default-y="-25.00" default-x="12.00">
                <pitch>
                    <step>A</step>
                    <octave>4</octave>
                </pitch>
                <duration>2</duration>
                <voice>1</voice>
                <type>eighth</type>
                <time-modification>
                    <actual-notes>3</actual-notes>
                    <normal-notes>2</normal-notes>
                </time-modification>
                <stem>down</stem>
                <beam number="1">begin</beam>
                <notations>
                    <tuplet type="start" bracket="no"/>
                </notations>
            </note>
            <note default-y="-20.00" default-x="45.32">
                <pitch>
                    <step>B</step>
                    <alter>-1</alter>
                    <octave>4</octave>
                </pitch>
                <duration>2</duration>
                <voice>1</voice>
                <type>eighth</type>
                <time-modification>
                    <actual-notes>3</actual-notes>
                    <normal-notes>2</normal-notes>
                </time-modification>
                <stem>down</stem>
                <beam number="1">continue</beam>
            </note>
            <note default-y="-20.00" default-x="78.64">
                <pitch>
                    <step>B</step>
                    <octave>4</octave>
                </pitch>
                <duration>2</duration>
                <voice>1</voice>
                <type>eighth</type>
                <accidental>natural</accidental>
                <time-modification>
                    <actual-notes>3</actual-notes>
                    <normal-notes>2</normal-notes>
                </time-modification>
                <stem>down</stem>
                <beam number="1">end</beam>
                <notations>
                    <tuplet type="stop"/>
                </notations>
            </note>
            <note default-y="-15.00" default-x="111.96">
                <pitch>
                    <step>C</step>
                    <octave>5</octave>
                </pitch>
                <duration>3</duration>
                <voice>1</voice>
                <type>eighth</type>
                <stem>down</stem>
                <beam number="1">begin</beam>
            </note>
            <note default-y="-20.00" default-x="156.98">
                <pitch>
                    <step>B</step>
                    <alter>-1</alter>
                    <octave>4</octave>
                </pitch>
                <duration>3</duration>
                <voice>1</voice>
                <type>eighth</type>
                <accidental>flat</accidental>
                <stem>down</stem>
                <beam number="1">end</beam>
            </note>
            <note default-y="-25.00" default-x="202.00">
                <pitch>
                    <step>A</step>
                    <octave>4</octave>
                </pitch>
                <duration>3</duration>
                <voice>1</voice>
                <type>eighth</type>
                <stem>up</stem>
                <beam number="1">begin</beam>
            </note>
            <note default-y="-30.00" default-x="247.01">
                <pitch>
                    <step>G</step>
                    <octave>4</octave>
                </pitch>
                <duration>3</duration>
                <voice>1</voice>
                <type>eighth</type>
                <stem>up</stem>
                <beam number="1">continue</beam>
            </note>
            <note default-y="-35.00" default-x="292.03">
                <pitch>
                    <step>F</step>
                    <octave>4</octave>
                </pitch>
                <duration>3</duration>
                <voice>1</voice>
                <type>eighth</type>
                <stem>up</stem>
                <beam number="1">continue</beam>
            </note>
            <note default-y="-40.00" default-x="337.05">
                <pitch>
                    <step>E</step>
                    <alter>-1</alter>
                    <octave>4</octave>
                </pitch>
                <duration>3</duration>
                <voice>1</voice>
                <type>eighth</type>
                <stem>up</stem>
                <beam number="1">end</beam>
            </note>
        </measure>
        <measure width="281.09" number="31">
            <harmony relative-x="62.50" print-frame="no">
                <root>
                    <root-step>B</root-step>
                    <root-alter>-1</root-alter>
                </root>
                <kind text="">major</kind>
            </harmony>
            <note default-y="-45.00" default-x="12.00">
                <pitch>
                    <step>D</step>
                    <octave>4</octave>
                </pitch>
                <duration>6</duration>
                <voice>1</voice>
                <type>quarter</type>
                <stem>up</stem>
            </note>
            <note default-y="-35.00" default-x="81.58">
                <pitch>
                    <step>F</step>
                    <octave>4</octave>
                </pitch>
                <duration>6</duration>
                <voice>1</voice>
                <type>quarter</type>
                <stem>up</stem>
            </note>
            <harmony print-frame="no">
                <root>
                    <root-step>G</root-step>
                </root>
                <kind text="7">dominant</kind>
            </harmony>
            <note default-y="-20.00" default-x="151.16">
                <pitch>
                    <step>B</step>
                    <alter>-1</alter>
                    <octave>4</octave>
                </pitch>
                <duration>9</duration>
                <voice>1</voice>
                <type>quarter</type>
                <dot/>
                <stem>down</stem>
            </note>
            <note default-y="-20.00" default-x="236.00">
                <pitch>
                    <step>B</step>
                    <alter>-1</alter>
                    <octave>4</octave>
                </pitch>
                <duration>3</duration>
                <tie type="start"/>
                <voice>1</voice>
                <type>eighth</type>
                <stem>down</stem>
                <notations>
                    <tied type="start"/>
                </notations>
            </note>
        </measure>
        <measure width="300.09" number="32">
            <harmony print-frame="no">
                <root>
                    <root-step>C</root-step>
                </root>
                <kind text="m7">minor-seventh</kind>
            </harmony>
            <note default-y="-20.00" default-x="12.00">
                <pitch>
                    <step>B</step>
                    <alter>-1</alter>
                    <octave>4</octave>
                </pitch>
                <duration>3</duration>
                <tie type="stop"/>
                <voice>1</voice>
                <type>eighth</type>
                <stem>up</stem>
                <beam number="1">begin</beam>
                <notations>
                    <tied type="stop"/>
                </notations>
            </note>
            <note default-y="-25.00" default-x="53.25">
                <pitch>
                    <step>A</step>
                    <octave>4</octave>
                </pitch>
                <duration>3</duration>
                <voice>1</voice>
                <type>eighth</type>
                <stem>up</stem>
                <beam number="1">end</beam>
            </note>
            <note default-y="-20.00" default-x="94.50">
                <pitch>
                    <step>B</step>
                    <alter>-1</alter>
                    <octave>4</octave>
                </pitch>
                <duration>12</duration>
                <voice>1</voice>
                <type>half</type>
                <stem>up</stem>
            </note>
            <note>
                <rest/>
                <duration>6</duration>
                <voice>1</voice>
                <type>quarter</type>
            </note>
            <harmony print-frame="no">
                <root>
                    <root-step>C</root-step>
                </root>
                <kind text="m7">minor-seventh</kind>
            </harmony>
            <backup>
                <duration>24</duration>
            </backup>
            <note print-object="no">
                <rest/>
                <duration>12</duration>
                <voice>2</voice>
                <type>half</type>
            </note>
            <harmony print-frame="no">
                <root>
                    <root-step>F</root-step>
                </root>
                <kind text="7">dominant</kind>
            </harmony>
            <note print-object="no">
                <rest/>
                <duration>6</duration>
                <voice>2</voice>
                <type>quarter</type>
            </note>
            <note>
                <rest/>
                <duration>6</duration>
                <voice>2</voice>
                <type>quarter</type>
            </note>
            <barline location="right">
                <bar-style>light-heavy</bar-style>
            </barline>
        </measure>
    </part>
</score-partwise>
