<?xml version="1.0" encoding="UTF-8"?>
<!DOCTYPE score-partwise PUBLIC "-//Recordare//DTD MusicXML 2.0 Partwise//EN" "http://www.musicxml.org/dtds/partwise.dtd">
<score-partwise version="2.0">
    <work>
        <work-number></work-number>
        <work-title></work-title>
    </work>
    <movement-number></movement-number>
    <movement-title>Syncope</movement-title>
    <identification>
        <creator type="composer">Benjamin Benedikt Flückiger</creator>
        <creator type="poet"></creator>
        <rights>All Rights Reserved</rights>
        <encoding>
            <software>MuseScore 1.1</software>
            <encoding-date>2011-12-15</encoding-date>
            <software>ProxyMusic 2.0 c</software>
        </encoding>
        <source>http://wikifonia.org/node/13814/revisions/18517/view</source>
    </identification>
    <defaults>
        <scaling>
            <millimeters>7.05556</millimeters>
            <tenths>40</tenths>
        </scaling>
        <page-layout>
            <page-height>1683.78</page-height>
            <page-width>1190.55</page-width>
            <page-margins type="even">
                <left-margin>56.6929</left-margin>
                <right-margin>56.6929</right-margin>
                <top-margin>56.6929</top-margin>
                <bottom-margin>113.386</bottom-margin>
            </page-margins>
            <page-margins type="odd">
                <left-margin>56.6929</left-margin>
                <right-margin>56.6929</right-margin>
                <top-margin>56.6929</top-margin>
                <bottom-margin>113.386</bottom-margin>
            </page-margins>
        </page-layout>
    </defaults>
    <credit page="1">
        <credit-words font-size="24" default-y="1627.09" default-x="595.275" justify="center" valign="top">Syncope</credit-words>
    </credit>
    <credit page="1">
        <credit-words font-size="12" default-y="1557.09" default-x="1133.86" justify="right" valign="top">Benjamin Benedikt Flückiger</credit-words>
    </credit>
    <credit page="1">
        <credit-words font-size="8" default-y="113.386" default-x="595.275" justify="center" valign="bottom">WTFPL</credit-words>
    </credit>
    <part-list>
        <score-part id="P1">
            <part-name>Piano</part-name>
            <part-abbreviation>Pno.</part-abbreviation>
            <score-instrument id="P1-I3">
                <instrument-name>Piano</instrument-name>
            </score-instrument>
            <midi-instrument id="P1-I3">
                <midi-channel>1</midi-channel>
                <midi-program>1</midi-program>
            </midi-instrument>
        </score-part>
    </part-list>
    <part id="P1">
        <measure width="175.37" number="0" implicit="yes">
            <print>
                <system-layout>
                    <system-margins>
                        <left-margin>85.22</left-margin>
                        <right-margin>-0.00</right-margin>
                    </system-margins>
                    <top-system-distance>180.00</top-system-distance>
                </system-layout>
                <staff-layout number="2">
                    <staff-distance>65.00</staff-distance>
                </staff-layout>
            </print>
            <attributes>
                <divisions>4</divisions>
                <key>
                    <fifths>-5</fifths>
                    <mode>major</mode>
                </key>
                <time>
                    <beats>4</beats>
                    <beat-type>4</beat-type>
                </time>
                <staves>2</staves>
            </attributes>
            <note default-y="-35.00" default-x="123.43">
                <pitch>
                    <step>F</step>
                    <octave>4</octave>
                </pitch>
                <duration>2</duration>
                <voice>1</voice>
                <type>eighth</type>
                <stem>up</stem>
                <staff>1</staff>
                <beam number="1">begin</beam>
            </note>
            <note default-y="-30.00" default-x="148.60">
                <pitch>
                    <step>G</step>
                    <alter>-1</alter>
                    <octave>4</octave>
                </pitch>
                <duration>2</duration>
                <voice>1</voice>
                <type>eighth</type>
                <stem>up</stem>
                <staff>1</staff>
                <beam number="1">end</beam>
            </note>
            <backup>
                <duration>4</duration>
            </backup>
            <note>
                <rest/>
                <duration>4</duration>
                <voice>5</voice>
                <type>quarter</type>
                <staff>2</staff>
            </note>
        </measure>
        <measure width="128.14" number="1">
            <note default-y="-20.00" default-x="12.00">
                <pitch>
                    <step>B</step>
                    <alter>-1</alter>
                    <octave>4</octave>
                </pitch>
                <duration>6</duration>
                <voice>1</voice>
                <type>quarter</type>
                <dot/>
                <stem>down</stem>
                <staff>1</staff>
            </note>
            <note default-y="-25.00" default-x="53.80">
                <pitch>
                    <step>A</step>
                    <alter>-1</alter>
                    <octave>4</octave>
                </pitch>
                <duration>6</duration>
                <voice>1</voice>
                <type>quarter</type>
                <dot/>
                <stem>up</stem>
                <staff>1</staff>
            </note>
            <note default-y="-30.00" default-x="95.60">
                <pitch>
                    <step>G</step>
                    <alter>-1</alter>
                    <octave>4</octave>
                </pitch>
                <duration>4</duration>
                <voice>1</voice>
                <type>quarter</type>
                <stem>up</stem>
                <staff>1</staff>
            </note>
            <backup>
                <duration>16</duration>
            </backup>
            <note>
                <rest/>
                <duration>16</duration>
                <voice>5</voice>
                <staff>2</staff>
            </note>
        </measure>
        <measure width="83.46" number="2">
            <note default-y="-35.00" default-x="12.00">
                <pitch>
                    <step>F</step>
                    <octave>4</octave>
                </pitch>
                <duration>16</duration>
                <tie type="start"/>
                <voice>1</voice>
                <type>whole</type>
                <staff>1</staff>
                <notations>
                    <tied type="start"/>
                </notations>
            </note>
            <backup>
                <duration>16</duration>
            </backup>
            <note>
                <rest/>
                <duration>16</duration>
                <voice>5</voice>
                <staff>2</staff>
            </note>
        </measure>
        <measure width="138.98" number="3">
            <note default-y="-35.00" default-x="12.00">
                <pitch>
                    <step>F</step>
                    <octave>4</octave>
                </pitch>
                <duration>6</duration>
                <tie type="stop"/>
                <voice>1</voice>
                <type>quarter</type>
                <dot/>
                <stem>up</stem>
                <staff>1</staff>
                <notations>
                    <tied type="stop"/>
                </notations>
            </note>
            <note>
                <rest/>
                <duration>2</duration>
                <voice>1</voice>
                <type>eighth</type>
                <staff>1</staff>
            </note>
            <note>
                <rest/>
                <duration>8</duration>
                <voice>1</voice>
                <type>half</type>
                <staff>1</staff>
            </note>
            <backup>
                <duration>16</duration>
            </backup>
            <note default-y="-180.00" default-x="12.00">
                <pitch>
                    <step>E</step>
                    <alter>-1</alter>
                    <octave>3</octave>
                </pitch>
                <duration>6</duration>
                <voice>5</voice>
                <type>quarter</type>
                <dot/>
                <stem>up</stem>
                <staff>2</staff>
            </note>
            <note default-y="-145.00" default-x="12.00">
                <chord/>
                <pitch>
                    <step>E</step>
                    <alter>-1</alter>
                    <octave>4</octave>
                </pitch>
                <duration>6</duration>
                <voice>5</voice>
                <type>quarter</type>
                <dot/>
                <stem>up</stem>
                <staff>2</staff>
            </note>
            <note>
                <rest/>
                <duration>2</duration>
                <voice>5</voice>
                <type>eighth</type>
                <staff>2</staff>
            </note>
            <note default-y="-180.00" default-x="74.69">
                <pitch>
                    <step>E</step>
                    <alter>-1</alter>
                    <octave>3</octave>
                </pitch>
                <duration>6</duration>
                <voice>5</voice>
                <type>quarter</type>
                <dot/>
                <stem>up</stem>
                <staff>2</staff>
            </note>
            <note default-y="-145.00" default-x="74.69">
                <chord/>
                <pitch>
                    <step>E</step>
                    <alter>-1</alter>
                    <octave>4</octave>
                </pitch>
                <duration>6</duration>
                <voice>5</voice>
                <type>quarter</type>
                <dot/>
                <stem>up</stem>
                <staff>2</staff>
            </note>
            <note>
                <rest/>
                <duration>2</duration>
                <voice>5</voice>
                <type>eighth</type>
                <staff>2</staff>
            </note>
        </measure>
        <measure width="120.38" number="4">
            <note>
                <rest/>
                <duration>12</duration>
                <voice>1</voice>
                <type>half</type>
                <dot/>
                <staff>1</staff>
            </note>
            <note default-y="-35.00" default-x="71.85">
                <pitch>
                    <step>F</step>
                    <octave>4</octave>
                </pitch>
                <duration>2</duration>
                <voice>1</voice>
                <type>eighth</type>
                <stem>up</stem>
                <staff>1</staff>
                <beam number="1">begin</beam>
            </note>
            <note default-y="-30.00" default-x="95.32">
                <pitch>
                    <step>G</step>
                    <alter>-1</alter>
                    <octave>4</octave>
                </pitch>
                <duration>2</duration>
                <voice>1</voice>
                <type>eighth</type>
                <stem>up</stem>
                <staff>1</staff>
                <beam number="1">end</beam>
            </note>
            <backup>
                <duration>16</duration>
            </backup>
            <note default-y="-185.00" default-x="12.00">
                <pitch>
                    <step>D</step>
                    <alter>-1</alter>
                    <octave>3</octave>
                </pitch>
                <duration>12</duration>
                <voice>5</voice>
                <type>half</type>
                <dot/>
                <stem>up</stem>
                <staff>2</staff>
            </note>
            <note default-y="-150.00" default-x="12.00">
                <chord/>
                <pitch>
                    <step>D</step>
                    <alter>-1</alter>
                    <octave>4</octave>
                </pitch>
                <duration>12</duration>
                <voice>5</voice>
                <type>half</type>
                <dot/>
                <stem>up</stem>
                <staff>2</staff>
            </note>
            <note>
                <rest/>
                <duration>4</duration>
                <voice>5</voice>
                <type>quarter</type>
                <staff>2</staff>
            </note>
        </measure>
        <measure width="156.31" number="5">
            <note default-y="-20.00" default-x="12.00">
                <pitch>
                    <step>B</step>
                    <alter>-1</alter>
                    <octave>4</octave>
                </pitch>
                <duration>2</duration>
                <voice>1</voice>
                <type>eighth</type>
                <stem>down</stem>
                <staff>1</staff>
            </note>
            <note>
                <rest/>
                <duration>2</duration>
                <voice>1</voice>
                <type>eighth</type>
                <staff>1</staff>
            </note>
            <note default-y="-10.00" default-x="54.06">
                <pitch>
                    <step>D</step>
                    <alter>-1</alter>
                    <octave>5</octave>
                </pitch>
                <duration>4</duration>
                <tie type="start"/>
                <voice>1</voice>
                <type>quarter</type>
                <stem>down</stem>
                <staff>1</staff>
                <notations>
                    <tied type="start"/>
                </notations>
            </note>
            <note default-y="-10.00" default-x="82.98">
                <pitch>
                    <step>D</step>
                    <alter>-1</alter>
                    <octave>5</octave>
                </pitch>
                <duration>1</duration>
                <tie type="stop"/>
                <voice>1</voice>
                <type>16th</type>
                <stem>down</stem>
                <staff>1</staff>
                <notations>
                    <tied type="stop"/>
                </notations>
            </note>
            <note>
                <rest/>
                <duration>3</duration>
                <voice>1</voice>
                <type>eighth</type>
                <dot/>
                <staff>1</staff>
            </note>
            <note default-y="-20.00" default-x="125.79">
                <pitch>
                    <step>B</step>
                    <alter>-1</alter>
                    <octave>4</octave>
                </pitch>
                <duration>4</duration>
                <voice>1</voice>
                <type>quarter</type>
                <stem>down</stem>
                <staff>1</staff>
            </note>
            <backup>
                <duration>16</duration>
            </backup>
            <note>
                <rest/>
                <duration>16</duration>
                <voice>5</voice>
                <staff>2</staff>
            </note>
        </measure>
        <measure width="189.31" number="6">
            <note>
                <rest/>
                <duration>1</duration>
                <voice>1</voice>
                <type>16th</type>
                <staff>1</staff>
            </note>
            <note default-y="-25.00" default-x="28.00">
                <pitch>
                    <step>A</step>
                    <alter>-1</alter>
                    <octave>4</octave>
                </pitch>
                <duration>3</duration>
                <tie type="start"/>
                <voice>1</voice>
                <type>eighth</type>
                <dot/>
                <stem>up</stem>
                <staff>1</staff>
                <beam number="1">begin</beam>
                <notations>
                    <tied type="start"/>
                </notations>
            </note>
            <note default-y="-25.00" default-x="57.25">
                <pitch>
                    <step>A</step>
                    <alter>-1</alter>
                    <octave>4</octave>
                </pitch>
                <duration>2</duration>
                <tie type="stop"/>
                <voice>1</voice>
                <type>eighth</type>
                <stem>up</stem>
                <staff>1</staff>
                <beam number="1">end</beam>
                <notations>
                    <tied type="stop"/>
                </notations>
            </note>
            <note>
                <rest/>
                <duration>3</duration>
                <voice>1</voice>
                <type>eighth</type>
                <dot/>
                <staff>1</staff>
            </note>
            <note default-y="-30.00" default-x="110.48">
                <pitch>
                    <step>G</step>
                    <alter>-1</alter>
                    <octave>4</octave>
                </pitch>
                <duration>3</duration>
                <tie type="start"/>
                <voice>1</voice>
                <type>eighth</type>
                <dot/>
                <stem>up</stem>
                <staff>1</staff>
                <beam number="1">begin</beam>
                <notations>
                    <tied type="start"/>
                </notations>
            </note>
            <note default-y="-30.00" default-x="139.73">
                <pitch>
                    <step>G</step>
                    <alter>-1</alter>
                    <octave>4</octave>
                </pitch>
                <duration>2</duration>
                <tie type="stop"/>
                <voice>1</voice>
                <type>eighth</type>
                <stem>up</stem>
                <staff>1</staff>
                <beam number="1">end</beam>
                <notations>
                    <tied type="stop"/>
                </notations>
            </note>
            <note>
                <rest/>
                <duration>2</duration>
                <voice>1</voice>
                <type>eighth</type>
                <staff>1</staff>
            </note>
            <backup>
                <duration>16</duration>
            </backup>
            <note>
                <rest/>
                <duration>16</duration>
                <voice>5</voice>
                <staff>2</staff>
            </note>
        </measure>
        <measure width="203.60" number="7">
            <print new-system="yes">
                <system-layout>
                    <system-margins>
                        <left-margin>73.97</left-margin>
                        <right-margin>-0.00</right-margin>
                    </system-margins>
                    <system-distance>92.50</system-distance>
                </system-layout>
                <staff-layout number="2">
                    <staff-distance>65.00</staff-distance>
                </staff-layout>
            </print>
            <note>
                <rest/>
                <duration>2</duration>
                <voice>1</voice>
                <type>eighth</type>
                <staff>1</staff>
            </note>
            <note default-y="-40.00" default-x="123.04">
                <pitch>
                    <step>E</step>
                    <alter>-1</alter>
                    <octave>4</octave>
                </pitch>
                <duration>2</duration>
                <tie type="start"/>
                <voice>1</voice>
                <type>eighth</type>
                <stem>up</stem>
                <staff>1</staff>
                <notations>
                    <tied type="start"/>
                </notations>
            </note>
            <note default-y="-40.00" default-x="149.21">
                <pitch>
                    <step>E</step>
                    <alter>-1</alter>
                    <octave>4</octave>
                </pitch>
                <duration>12</duration>
                <tie type="stop"/>
                <tie type="start"/>
                <voice>1</voice>
                <type>half</type>
                <dot/>
                <stem>up</stem>
                <staff>1</staff>
                <notations>
                    <tied type="stop"/>
                    <tied type="start"/>
                </notations>
            </note>
            <backup>
                <duration>16</duration>
            </backup>
            <note>
                <rest/>
                <duration>16</duration>
                <voice>5</voice>
                <staff>2</staff>
            </note>
        </measure>
        <measure width="131.50" number="8">
            <note default-y="-40.00" default-x="17.50">
                <pitch>
                    <step>E</step>
                    <alter>-1</alter>
                    <octave>4</octave>
                </pitch>
                <duration>8</duration>
                <tie type="stop"/>
                <voice>1</voice>
                <type>half</type>
                <stem>up</stem>
                <staff>1</staff>
                <notations>
                    <tied type="stop"/>
                </notations>
            </note>
            <note>
                <rest/>
                <duration>8</duration>
                <voice>1</voice>
                <type>half</type>
                <staff>1</staff>
            </note>
            <backup>
                <duration>16</duration>
            </backup>
            <note>
                <rest/>
                <duration>2</duration>
                <voice>5</voice>
                <type>eighth</type>
                <staff>2</staff>
            </note>
            <note default-y="-185.00" default-x="36.54">
                <pitch>
                    <step>D</step>
                    <alter>-1</alter>
                    <octave>3</octave>
                </pitch>
                <duration>6</duration>
                <voice>5</voice>
                <type>quarter</type>
                <dot/>
                <stem>up</stem>
                <staff>2</staff>
            </note>
            <note default-y="-150.00" default-x="36.54">
                <chord/>
                <pitch>
                    <step>D</step>
                    <alter>-1</alter>
                    <octave>4</octave>
                </pitch>
                <duration>6</duration>
                <voice>5</voice>
                <type>quarter</type>
                <dot/>
                <stem>up</stem>
                <staff>2</staff>
            </note>
            <note>
                <rest/>
                <duration>2</duration>
                <voice>5</voice>
                <type>eighth</type>
                <staff>2</staff>
            </note>
            <note default-y="-185.00" default-x="92.74">
                <pitch>
                    <step>D</step>
                    <alter>-1</alter>
                    <octave>3</octave>
                </pitch>
                <duration>6</duration>
                <voice>5</voice>
                <type>quarter</type>
                <dot/>
                <stem>up</stem>
                <staff>2</staff>
            </note>
            <note default-y="-150.00" default-x="92.74">
                <chord/>
                <pitch>
                    <step>D</step>
                    <alter>-1</alter>
                    <octave>4</octave>
                </pitch>
                <duration>6</duration>
                <voice>5</voice>
                <type>quarter</type>
                <dot/>
                <stem>up</stem>
                <staff>2</staff>
            </note>
        </measure>
        <measure width="119.35" number="9">
            <note>
                <rest/>
                <duration>8</duration>
                <voice>1</voice>
                <type>half</type>
                <staff>1</staff>
            </note>
            <note>
                <rest/>
                <duration>4</duration>
                <voice>1</voice>
                <type>quarter</type>
                <staff>1</staff>
            </note>
            <note>
                <rest/>
                <duration>2</duration>
                <voice>1</voice>
                <type>eighth</type>
                <staff>1</staff>
            </note>
            <note default-y="-35.00" default-x="85.57">
                <pitch>
                    <step>F</step>
                    <octave>4</octave>
                </pitch>
                <duration>2</duration>
                <voice>1</voice>
                <type>eighth</type>
                <stem>up</stem>
                <staff>1</staff>
            </note>
            <backup>
                <duration>16</duration>
            </backup>
            <note>
                <rest/>
                <duration>2</duration>
                <voice>5</voice>
                <type>eighth</type>
                <staff>2</staff>
            </note>
            <note default-y="-195.00" default-x="26.00">
                <pitch>
                    <step>B</step>
                    <alter>-1</alter>
                    <octave>2</octave>
                </pitch>
                <duration>12</duration>
                <voice>5</voice>
                <type>half</type>
                <dot/>
                <stem>up</stem>
                <staff>2</staff>
            </note>
            <note default-y="-160.00" default-x="26.00">
                <chord/>
                <pitch>
                    <step>B</step>
                    <alter>-1</alter>
                    <octave>3</octave>
                </pitch>
                <duration>12</duration>
                <voice>5</voice>
                <type>half</type>
                <dot/>
                <stem>up</stem>
                <staff>2</staff>
            </note>
            <note>
                <rest/>
                <duration>2</duration>
                <voice>5</voice>
                <type>eighth</type>
                <staff>2</staff>
            </note>
        </measure>
        <measure width="150.34" number="10">
            <note default-y="-30.00" default-x="12.00">
                <pitch>
                    <step>G</step>
                    <alter>-1</alter>
                    <octave>4</octave>
                </pitch>
                <duration>2</duration>
                <voice>1</voice>
                <type>eighth</type>
                <stem>up</stem>
                <staff>1</staff>
            </note>
            <note default-y="-20.00" default-x="38.17">
                <pitch>
                    <step>B</step>
                    <alter>-1</alter>
                    <octave>4</octave>
                </pitch>
                <duration>6</duration>
                <voice>1</voice>
                <type>quarter</type>
                <dot/>
                <stem>down</stem>
                <staff>1</staff>
            </note>
            <note default-y="-25.00" default-x="77.37">
                <pitch>
                    <step>A</step>
                    <alter>-1</alter>
                    <octave>4</octave>
                </pitch>
                <duration>6</duration>
                <voice>1</voice>
                <type>quarter</type>
                <dot/>
                <stem>up</stem>
                <staff>1</staff>
            </note>
            <note default-y="-30.00" default-x="116.57">
                <pitch>
                    <step>G</step>
                    <alter>-1</alter>
                    <octave>4</octave>
                </pitch>
                <duration>2</duration>
                <tie type="start"/>
                <voice>1</voice>
                <type>eighth</type>
                <stem>up</stem>
                <staff>1</staff>
                <notations>
                    <tied type="start"/>
                </notations>
            </note>
            <backup>
                <duration>16</duration>
            </backup>
            <note>
                <rest/>
                <duration>16</duration>
                <voice>5</voice>
                <type>whole</type>
                <staff>2</staff>
            </note>
        </measure>
        <measure width="146.83" number="11">
            <note default-y="-30.00" default-x="12.00">
                <pitch>
                    <step>G</step>
                    <alter>-1</alter>
                    <octave>4</octave>
                </pitch>
                <duration>2</duration>
                <tie type="stop"/>
                <voice>1</voice>
                <type>eighth</type>
                <stem>up</stem>
                <staff>1</staff>
                <notations>
                    <tied type="stop"/>
                </notations>
            </note>
            <note default-y="-5.00" default-x="38.17">
                <pitch>
                    <step>E</step>
                    <alter>-1</alter>
                    <octave>5</octave>
                </pitch>
                <duration>6</duration>
                <voice>1</voice>
                <type>quarter</type>
                <dot/>
                <stem>down</stem>
                <staff>1</staff>
            </note>
            <note default-y="-10.00" default-x="74.14">
                <pitch>
                    <step>D</step>
                    <alter>-1</alter>
                    <octave>5</octave>
                </pitch>
                <duration>4</duration>
                <voice>1</voice>
                <type>quarter</type>
                <stem>down</stem>
                <staff>1</staff>
            </note>
            <note>
                <rest/>
                <duration>2</duration>
                <voice>1</voice>
                <type>eighth</type>
                <staff>1</staff>
            </note>
            <note default-y="-5.00" default-x="122.07">
                <pitch>
                    <step>E</step>
                    <alter>-1</alter>
                    <octave>5</octave>
                </pitch>
                <duration>2</duration>
                <tie type="start"/>
                <voice>1</voice>
                <type>eighth</type>
                <stem>down</stem>
                <staff>1</staff>
                <notations>
                    <tied type="start"/>
                </notations>
            </note>
            <backup>
                <duration>16</duration>
            </backup>
            <note>
                <rest/>
                <duration>16</duration>
                <voice>5</voice>
                <staff>2</staff>
            </note>
        </measure>
        <measure width="138.33" number="12">
            <note default-y="-5.00" default-x="12.00">
                <pitch>
                    <step>E</step>
                    <alter>-1</alter>
                    <octave>5</octave>
                </pitch>
                <duration>4</duration>
                <tie type="stop"/>
                <voice>1</voice>
                <type>quarter</type>
                <stem>down</stem>
                <staff>1</staff>
                <notations>
                    <tied type="stop"/>
                </notations>
            </note>
            <note default-y="-10.00" default-x="37.53">
                <pitch>
                    <step>D</step>
                    <alter>-1</alter>
                    <octave>5</octave>
                </pitch>
                <duration>4</duration>
                <voice>1</voice>
                <type>quarter</type>
                <stem>down</stem>
                <staff>1</staff>
            </note>
            <note>
                <rest/>
                <duration>2</duration>
                <voice>1</voice>
                <type>eighth</type>
                <staff>1</staff>
            </note>
            <note default-y="-20.00" default-x="79.03">
                <pitch>
                    <step>B</step>
                    <alter>-1</alter>
                    <octave>4</octave>
                </pitch>
                <duration>4</duration>
                <voice>1</voice>
                <type>quarter</type>
                <stem>down</stem>
                <staff>1</staff>
            </note>
            <note default-y="-25.00" default-x="104.56">
                <pitch>
                    <step>A</step>
                    <alter>-1</alter>
                    <octave>4</octave>
                </pitch>
                <duration>2</duration>
                <tie type="start"/>
                <voice>1</voice>
                <type>eighth</type>
                <stem>up</stem>
                <staff>1</staff>
                <notations>
                    <tied type="start"/>
                </notations>
            </note>
            <backup>
                <duration>16</duration>
            </backup>
            <note>
                <rest/>
                <duration>16</duration>
                <voice>5</voice>
                <staff>2</staff>
            </note>
        </measure>
        <measure width="113.25" number="13">
            <note default-y="-25.00" default-x="12.00">
                <pitch>
                    <step>A</step>
                    <alter>-1</alter>
                    <octave>4</octave>
                </pitch>
                <duration>2</duration>
                <tie type="stop"/>
                <voice>1</voice>
                <type>eighth</type>
                <stem>up</stem>
                <staff>1</staff>
                <notations>
                    <tied type="stop"/>
                </notations>
            </note>
            <note default-y="-20.00" default-x="38.17">
                <pitch>
                    <step>B</step>
                    <alter>-1</alter>
                    <octave>4</octave>
                </pitch>
                <duration>12</duration>
                <voice>1</voice>
                <type>half</type>
                <dot/>
                <stem>down</stem>
                <staff>1</staff>
            </note>
            <note>
                <rest/>
                <duration>2</duration>
                <voice>1</voice>
                <type>eighth</type>
                <staff>1</staff>
            </note>
            <backup>
                <duration>16</duration>
            </backup>
            <note>
                <rest/>
                <duration>16</duration>
                <voice>5</voice>
                <staff>2</staff>
            </note>
        </measure>
        <measure width="176.67" number="14">
            <print new-system="yes">
                <system-layout>
                    <system-margins>
                        <left-margin>73.97</left-margin>
                        <right-margin>826.52</right-margin>
                    </system-margins>
                    <system-distance>92.50</system-distance>
                </system-layout>
                <staff-layout number="2">
                    <staff-distance>65.00</staff-distance>
                </staff-layout>
            </print>
            <note default-y="-25.00" default-x="102.35">
                <pitch>
                    <step>A</step>
                    <alter>-1</alter>
                    <octave>4</octave>
                </pitch>
                <duration>2</duration>
                <voice>1</voice>
                <type>eighth</type>
                <stem>up</stem>
                <staff>1</staff>
                <beam number="1">begin</beam>
            </note>
            <note default-y="-30.00" default-x="119.51">
                <pitch>
                    <step>G</step>
                    <alter>-1</alter>
                    <octave>4</octave>
                </pitch>
                <duration>2</duration>
                <voice>1</voice>
                <type>eighth</type>
                <stem>up</stem>
                <staff>1</staff>
                <beam number="1">end</beam>
            </note>
            <note default-y="-40.00" default-x="136.67">
                <pitch>
                    <step>E</step>
                    <alter>-1</alter>
                    <octave>4</octave>
                </pitch>
                <duration>12</duration>
                <voice>1</voice>
                <type>half</type>
                <dot/>
                <stem>up</stem>
                <staff>1</staff>
            </note>
            <backup>
                <duration>16</duration>
            </backup>
            <note>
                <rest/>
                <duration>16</duration>
                <voice>5</voice>
                <staff>2</staff>
            </note>
            <barline location="right">
                <bar-style>light-heavy</bar-style>
            </barline>
        </measure>
    </part>
</score-partwise>
