<?xml version="1.0" encoding="UTF-8"?>
<!DOCTYPE score-partwise PUBLIC "-//Recordare//DTD MusicXML 2.0 Partwise//EN" "http://www.musicxml.org/dtds/partwise.dtd">
<score-partwise version="2.0">
    <work>
        <work-number></work-number>
        <work-title></work-title>
    </work>
    <movement-number></movement-number>
    <movement-title>San Francisco</movement-title>
    <identification>
        <creator type="composer">Maxime Le Forestier</creator>
        <creator type="poet">Maxime Le Forestier</creator>
        <rights>All Rights Reserved</rights>
        <encoding>
            <software>MuseScore 1.1</software>
            <encoding-date>2012-01-11</encoding-date>
            <software>ProxyMusic 2.0 c</software>
        </encoding>
        <source>http://wikifonia.org/node/14122/revisions/18937/view</source>
    </identification>
    <defaults>
        <scaling>
            <millimeters>7.05556</millimeters>
            <tenths>40</tenths>
        </scaling>
        <page-layout>
            <page-height>1683.78</page-height>
            <page-width>1190.55</page-width>
            <page-margins type="even">
                <left-margin>56.6929</left-margin>
                <right-margin>56.6929</right-margin>
                <top-margin>56.6929</top-margin>
                <bottom-margin>113.386</bottom-margin>
            </page-margins>
            <page-margins type="odd">
                <left-margin>56.6929</left-margin>
                <right-margin>56.6929</right-margin>
                <top-margin>56.6929</top-margin>
                <bottom-margin>113.386</bottom-margin>
            </page-margins>
        </page-layout>
    </defaults>
    <credit page="1">
        <credit-words font-size="24" default-y="1627.09" default-x="595.275" justify="center" valign="top">SAN  FRANSISCO</credit-words>
    </credit>
    <credit page="1">
        <credit-words font-size="14" default-y="1570.39" default-x="595.275" justify="center" valign="top">Maxime Le Forestier</credit-words>
    </credit>
    <part-list>
        <score-part id="P1">
            <part-name></part-name>
            <score-instrument id="P1-I3">
                <instrument-name></instrument-name>
            </score-instrument>
            <midi-instrument id="P1-I3">
                <midi-channel>1</midi-channel>
                <midi-program>0</midi-program>
            </midi-instrument>
        </score-part>
    </part-list>
    <part id="P1">
        <measure width="456.08" number="1">
            <print>
                <system-layout>
                    <system-margins>
                        <left-margin>0.00</left-margin>
                        <right-margin>0.00</right-margin>
                    </system-margins>
                    <top-system-distance>248.11</top-system-distance>
                </system-layout>
            </print>
            <attributes>
                <divisions>12</divisions>
                <key>
                    <fifths>1</fifths>
                    <mode>major</mode>
                </key>
                <time>
                    <beats>2</beats>
                    <beat-type>4</beat-type>
                </time>
                <clef>
                    <sign>G</sign>
                    <line>2</line>
                </clef>
            </attributes>
            <direction>
                <direction-type>
                    <words default-y="100">Mim</words>
                </direction-type>
            </direction>
            <note>
                <rest/>
                <duration>9</duration>
                <voice>1</voice>
                <type>eighth</type>
                <dot/>
            </note>
            <direction placement="above">
                <direction-type>
                    <words>COUPLET</words>
                </direction-type>
            </direction>
            <note default-y="-40.00" default-x="188.87">
                <pitch>
                    <step>E</step>
                    <octave>4</octave>
                </pitch>
                <duration>3</duration>
                <voice>1</voice>
                <type>16th</type>
                <stem>up</stem>
                <lyric number="1">
                    <syllabic>single</syllabic>
                    <text>C'est</text>
                </lyric>
                <lyric number="2">
                    <syllabic>single</syllabic>
                    <text>On</text>
                </lyric>
            </note>
            <note default-y="-40.00" default-x="241.99">
                <pitch>
                    <step>E</step>
                    <octave>4</octave>
                </pitch>
                <duration>3</duration>
                <voice>1</voice>
                <type>16th</type>
                <stem>up</stem>
                <beam number="1">begin</beam>
                <beam number="2">begin</beam>
                <lyric number="1">
                    <syllabic>begin</syllabic>
                    <text>u</text>
                </lyric>
                <lyric number="2">
                    <syllabic>single</syllabic>
                    <text>se</text>
                </lyric>
            </note>
            <note default-y="-20.00" default-x="295.11">
                <pitch>
                    <step>B</step>
                    <octave>4</octave>
                </pitch>
                <duration>3</duration>
                <voice>1</voice>
                <type>16th</type>
                <stem>up</stem>
                <beam number="1">continue</beam>
                <beam number="2">continue</beam>
                <lyric number="1">
                    <syllabic>end</syllabic>
                    <text>ne</text>
                </lyric>
                <lyric number="2">
                    <syllabic>begin</syllabic>
                    <text>re</text>
                </lyric>
            </note>
            <note default-y="-20.00" default-x="348.23">
                <pitch>
                    <step>B</step>
                    <octave>4</octave>
                </pitch>
                <duration>3</duration>
                <voice>1</voice>
                <type>16th</type>
                <stem>up</stem>
                <beam number="1">continue</beam>
                <beam number="2">continue</beam>
                <lyric number="1">
                    <syllabic>begin</syllabic>
                    <text>mai</text>
                </lyric>
                <lyric number="2">
                    <syllabic>end</syllabic>
                    <text>trouve</text>
                </lyric>
            </note>
            <note default-y="-20.00" default-x="401.36">
                <pitch>
                    <step>B</step>
                    <octave>4</octave>
                </pitch>
                <duration>3</duration>
                <voice>1</voice>
                <type>16th</type>
                <stem>up</stem>
                <beam number="1">end</beam>
                <beam number="2">end</beam>
                <lyric number="1">
                    <syllabic>end</syllabic>
                    <text>son</text>
                </lyric>
                <lyric number="2">
                    <syllabic>begin</syllabic>
                    <text>en</text>
                </lyric>
            </note>
        </measure>
        <measure width="231.50" number="2">
            <direction>
                <direction-type>
                    <words default-y="100">SOL</words>
                </direction-type>
            </direction>
            <note default-y="-20.00" default-x="37.71">
                <pitch>
                    <step>B</step>
                    <octave>4</octave>
                </pitch>
                <duration>12</duration>
                <voice>1</voice>
                <type>quarter</type>
                <stem>down</stem>
                <lyric number="1">
                    <syllabic>single</syllabic>
                    <text>bleue</text>
                </lyric>
                <lyric number="2">
                    <syllabic>end</syllabic>
                    <text>semble</text>
                </lyric>
            </note>
            <note>
                <rest/>
                <duration>12</duration>
                <voice>1</voice>
                <type>quarter</type>
            </note>
        </measure>
        <measure width="389.59" number="3">
            <direction>
                <direction-type>
                    <words default-y="100">Sim</words>
                </direction-type>
            </direction>
            <note>
                <rest/>
                <duration>3</duration>
                <voice>1</voice>
                <type>16th</type>
            </note>
            <direction>
                <direction-type>
                    <words default-y="100">Sim</words>
                </direction-type>
            </direction>
            <note default-y="-25.00" default-x="61.47">
                <pitch>
                    <step>A</step>
                    <octave>4</octave>
                </pitch>
                <duration>6</duration>
                <voice>1</voice>
                <type>eighth</type>
                <stem>up</stem>
                <beam number="1">begin</beam>
                <lyric number="1">
                    <syllabic>begin</syllabic>
                    <text>a</text>
                </lyric>
                <lyric number="2">
                    <syllabic>begin</syllabic>
                    <text>a</text>
                </lyric>
            </note>
            <note default-y="-20.00" default-x="140.63">
                <pitch>
                    <step>B</step>
                    <octave>4</octave>
                </pitch>
                <duration>3</duration>
                <voice>1</voice>
                <type>16th</type>
                <stem>up</stem>
                <beam number="1">end</beam>
                <beam number="2">backward hook</beam>
                <lyric number="1">
                    <syllabic>middle</syllabic>
                    <text>dos</text>
                </lyric>
                <lyric number="2">
                    <syllabic>end</syllabic>
                    <text>près</text>
                </lyric>
            </note>
            <note default-y="-25.00" default-x="190.10">
                <pitch>
                    <step>A</step>
                    <octave>4</octave>
                </pitch>
                <duration>3</duration>
                <voice>1</voice>
                <type>16th</type>
                <stem>up</stem>
                <beam number="1">begin</beam>
                <beam number="2">begin</beam>
                <lyric number="1">
                    <syllabic>end</syllabic>
                    <text>sée</text>
                </lyric>
                <lyric number="2">
                    <syllabic>single</syllabic>
                    <text>des</text>
                </lyric>
            </note>
            <note default-y="-30.00" default-x="239.57">
                <pitch>
                    <step>G</step>
                    <octave>4</octave>
                </pitch>
                <duration>3</duration>
                <voice>1</voice>
                <type>16th</type>
                <stem>up</stem>
                <beam number="1">continue</beam>
                <beam number="2">continue</beam>
                <lyric number="1">
                    <syllabic>single</syllabic>
                    <text>à</text>
                </lyric>
                <lyric number="2">
                    <syllabic>begin</syllabic>
                    <text>an</text>
                </lyric>
            </note>
            <note default-y="-35.00" default-x="289.04">
                <pitch>
                    <step>F</step>
                    <alter>1</alter>
                    <octave>4</octave>
                </pitch>
                <duration>3</duration>
                <voice>1</voice>
                <type>16th</type>
                <stem>up</stem>
                <beam number="1">continue</beam>
                <beam number="2">continue</beam>
                <lyric number="1">
                    <syllabic>single</syllabic>
                    <text>la</text>
                </lyric>
                <lyric number="2">
                    <syllabic>end</syllabic>
                    <text>nées</text>
                </lyric>
            </note>
            <note default-y="-45.00" default-x="338.51">
                <pitch>
                    <step>D</step>
                    <octave>4</octave>
                </pitch>
                <duration>3</duration>
                <voice>1</voice>
                <type>16th</type>
                <stem>up</stem>
                <beam number="1">end</beam>
                <beam number="2">end</beam>
                <lyric number="1">
                    <syllabic>begin</syllabic>
                    <text>col</text>
                </lyric>
                <lyric number="2">
                    <syllabic>single</syllabic>
                    <text>de</text>
                </lyric>
            </note>
        </measure>
        <measure width="565.34" number="4">
            <print new-system="yes">
                <system-layout>
                    <system-margins>
                        <left-margin>0.00</left-margin>
                        <right-margin>0.00</right-margin>
                    </system-margins>
                    <system-distance>198.99</system-distance>
                </system-layout>
            </print>
            <direction>
                <direction-type>
                    <words default-y="100">DO</words>
                </direction-type>
            </direction>
            <note default-y="-40.00" default-x="80.99">
                <pitch>
                    <step>E</step>
                    <octave>4</octave>
                </pitch>
                <duration>3</duration>
                <voice>1</voice>
                <type>16th</type>
                <stem>up</stem>
                <beam number="1">begin</beam>
                <beam number="2">begin</beam>
                <lyric number="1">
                    <syllabic>middle</syllabic>
                    <text>li</text>
                </lyric>
                <lyric number="2">
                    <syllabic>begin</syllabic>
                    <text>rou</text>
                </lyric>
            </note>
            <note default-y="-40.00" default-x="144.51">
                <pitch>
                    <step>E</step>
                    <octave>4</octave>
                </pitch>
                <duration>3</duration>
                <voice>1</voice>
                <type>16th</type>
                <stem>up</stem>
                <beam number="1">continue</beam>
                <beam number="2">continue</beam>
                <lyric number="1">
                    <syllabic>end</syllabic>
                    <text>ne,</text>
                </lyric>
                <lyric number="2">
                    <syllabic>end</syllabic>
                    <text>te</text>
                </lyric>
            </note>
            <note default-y="-40.00" default-x="208.03">
                <pitch>
                    <step>E</step>
                    <octave>4</octave>
                </pitch>
                <duration>3</duration>
                <voice>1</voice>
                <type>16th</type>
                <stem>up</stem>
                <beam number="1">continue</beam>
                <beam number="2">continue</beam>
                <lyric number="1">
                    <syllabic>single</syllabic>
                    <text>On</text>
                </lyric>
                <lyric number="2">
                    <syllabic>single</syllabic>
                    <text>et</text>
                </lyric>
            </note>
            <direction>
                <direction-type>
                    <words default-y="100">SOL</words>
                </direction-type>
            </direction>
            <note default-y="-40.00" default-x="271.55">
                <pitch>
                    <step>E</step>
                    <octave>4</octave>
                </pitch>
                <duration>3</duration>
                <voice>1</voice>
                <type>16th</type>
                <stem>up</stem>
                <beam number="1">end</beam>
                <beam number="2">end</beam>
                <lyric number="1">
                    <syllabic>single</syllabic>
                    <text>y</text>
                </lyric>
                <lyric number="2">
                    <syllabic>single</syllabic>
                    <text>on</text>
                </lyric>
            </note>
            <direction>
                <direction-type>
                    <words default-y="100">SOL</words>
                </direction-type>
            </direction>
            <note default-y="-30.00" default-x="335.07">
                <pitch>
                    <step>G</step>
                    <octave>4</octave>
                </pitch>
                <duration>3</duration>
                <voice>1</voice>
                <type>16th</type>
                <stem>up</stem>
                <beam number="1">begin</beam>
                <beam number="2">begin</beam>
                <lyric number="1">
                    <syllabic>single</syllabic>
                    <text>vient</text>
                </lyric>
                <lyric number="2">
                    <syllabic>single</syllabic>
                    <text>vient</text>
                </lyric>
            </note>
            <note default-y="-25.00" default-x="398.59">
                <pitch>
                    <step>A</step>
                    <octave>4</octave>
                </pitch>
                <duration>3</duration>
                <voice>1</voice>
                <type>16th</type>
                <stem>up</stem>
                <beam number="1">continue</beam>
                <beam number="2">end</beam>
                <lyric number="1">
                    <syllabic>single</syllabic>
                    <text>ci</text>
                </lyric>
                <lyric number="2">
                    <syllabic>begin</syllabic>
                    <text>as</text>
                </lyric>
            </note>
            <note default-y="-20.00" default-x="462.11">
                <pitch>
                    <step>B</step>
                    <octave>4</octave>
                </pitch>
                <duration>6</duration>
                <voice>1</voice>
                <type>eighth</type>
                <stem>up</stem>
                <beam number="1">end</beam>
                <lyric number="1">
                    <syllabic>single</syllabic>
                    <text>pied,</text>
                </lyric>
                <lyric number="2">
                    <syllabic>end</syllabic>
                    <text>seoir</text>
                </lyric>
            </note>
        </measure>
        <measure width="511.82" number="5">
            <direction>
                <direction-type>
                    <words default-y="100">RÉ</words>
                </direction-type>
            </direction>
            <note default-y="-45.00" default-x="16.61">
                <pitch>
                    <step>D</step>
                    <octave>4</octave>
                </pitch>
                <duration>3</duration>
                <voice>1</voice>
                <type>16th</type>
                <stem>up</stem>
                <beam number="1">begin</beam>
                <beam number="2">begin</beam>
                <lyric number="1">
                    <syllabic>single</syllabic>
                    <text>on</text>
                </lyric>
                <lyric number="2">
                    <syllabic>begin</syllabic>
                    <text>au</text>
                </lyric>
            </note>
            <note default-y="-40.00" default-x="81.56">
                <pitch>
                    <step>E</step>
                    <octave>4</octave>
                </pitch>
                <duration>3</duration>
                <voice>1</voice>
                <type>16th</type>
                <stem>up</stem>
                <beam number="1">continue</beam>
                <beam number="2">continue</beam>
                <lyric number="1">
                    <syllabic>single</syllabic>
                    <text>ne</text>
                </lyric>
                <lyric number="2">
                    <syllabic>end</syllabic>
                    <text>tour</text>
                </lyric>
            </note>
            <note default-y="-35.00" default-x="146.51">
                <pitch>
                    <step>F</step>
                    <alter>1</alter>
                    <octave>4</octave>
                </pitch>
                <duration>3</duration>
                <voice>1</voice>
                <type>16th</type>
                <stem>up</stem>
                <beam number="1">continue</beam>
                <beam number="2">continue</beam>
                <lyric number="1">
                    <syllabic>begin</syllabic>
                    <text>frap</text>
                </lyric>
                <lyric number="2">
                    <syllabic>single</syllabic>
                    <text>du</text>
                </lyric>
            </note>
            <note default-y="-30.00" default-x="211.46">
                <pitch>
                    <step>G</step>
                    <octave>4</octave>
                </pitch>
                <duration>3</duration>
                <voice>1</voice>
                <type>16th</type>
                <stem>up</stem>
                <beam number="1">end</beam>
                <beam number="2">end</beam>
                <lyric number="1">
                    <syllabic>end</syllabic>
                    <text>pe</text>
                </lyric>
                <lyric number="2">
                    <syllabic>begin</syllabic>
                    <text>re</text>
                </lyric>
            </note>
            <note default-y="-25.00" default-x="276.41">
                <pitch>
                    <step>A</step>
                    <octave>4</octave>
                </pitch>
                <duration>6</duration>
                <voice>1</voice>
                <type>eighth</type>
                <stem>up</stem>
                <beam number="1">begin</beam>
                <lyric number="1">
                    <syllabic>single</syllabic>
                    <text>pas,</text>
                </lyric>
                <lyric number="2">
                    <syllabic>end</syllabic>
                    <text>pas,</text>
                </lyric>
            </note>
            <note default-y="-45.00" default-x="380.32">
                <pitch>
                    <step>D</step>
                    <octave>4</octave>
                </pitch>
                <duration>3</duration>
                <voice>1</voice>
                <type>16th</type>
                <stem>up</stem>
                <beam number="1">continue</beam>
                <beam number="2">begin</beam>
                <lyric number="1">
                    <syllabic>single</syllabic>
                    <text>ceux</text>
                </lyric>
                <lyric number="2">
                    <syllabic>single</syllabic>
                    <text>tout</text>
                </lyric>
            </note>
            <note default-y="-40.00" default-x="445.27">
                <pitch>
                    <step>E</step>
                    <octave>4</octave>
                </pitch>
                <duration>3</duration>
                <voice>1</voice>
                <type>16th</type>
                <stem>up</stem>
                <beam number="1">end</beam>
                <beam number="2">end</beam>
                <lyric number="1">
                    <syllabic>single</syllabic>
                    <text>qui</text>
                </lyric>
                <lyric number="2">
                    <syllabic>single</syllabic>
                    <text>le</text>
                </lyric>
            </note>
        </measure>
        <measure width="516.05" number="6">
            <print new-system="yes">
                <system-layout>
                    <system-margins>
                        <left-margin>0.00</left-margin>
                        <right-margin>0.00</right-margin>
                    </system-margins>
                    <system-distance>198.99</system-distance>
                </system-layout>
            </print>
            <note default-y="-35.00" default-x="96.97">
                <pitch>
                    <step>F</step>
                    <alter>1</alter>
                    <octave>4</octave>
                </pitch>
                <duration>3</duration>
                <voice>1</voice>
                <type>16th</type>
                <stem>up</stem>
                <beam number="1">begin</beam>
                <beam number="2">begin</beam>
                <lyric number="1">
                    <syllabic>begin</syllabic>
                    <text>vi</text>
                </lyric>
                <lyric number="2">
                    <syllabic>single</syllabic>
                    <text>monde</text>
                </lyric>
            </note>
            <note default-y="-30.00" default-x="155.12">
                <pitch>
                    <step>G</step>
                    <octave>4</octave>
                </pitch>
                <duration>3</duration>
                <voice>1</voice>
                <type>16th</type>
                <stem>up</stem>
                <beam number="1">continue</beam>
                <beam number="2">end</beam>
                <lyric number="1">
                    <syllabic>end</syllabic>
                    <text>vent</text>
                </lyric>
                <lyric number="2">
                    <syllabic>single</syllabic>
                    <text>est</text>
                </lyric>
            </note>
            <note default-y="-25.00" default-x="209.13">
                <pitch>
                    <step>A</step>
                    <octave>4</octave>
                </pitch>
                <duration>6</duration>
                <voice>1</voice>
                <type>eighth</type>
                <stem>up</stem>
                <beam number="1">end</beam>
                <lyric number="1">
                    <syllabic>single</syllabic>
                    <text>là,</text>
                </lyric>
                <lyric number="2">
                    <syllabic>single</syllabic>
                    <text>là,</text>
                </lyric>
            </note>
            <note default-y="-45.00" default-x="295.55">
                <pitch>
                    <step>D</step>
                    <octave>4</octave>
                </pitch>
                <duration>3</duration>
                <voice>1</voice>
                <type>16th</type>
                <stem>up</stem>
                <beam number="1">begin</beam>
                <beam number="2">begin</beam>
                <lyric number="1">
                    <syllabic>single</syllabic>
                    <text>ont</text>
                </lyric>
                <lyric number="2">
                    <syllabic>single</syllabic>
                    <text>à</text>
                </lyric>
            </note>
            <note default-y="-40.00" default-x="349.56">
                <pitch>
                    <step>E</step>
                    <octave>4</octave>
                </pitch>
                <duration>3</duration>
                <voice>1</voice>
                <type>16th</type>
                <stem>up</stem>
                <beam number="1">continue</beam>
                <beam number="2">continue</beam>
                <lyric number="1">
                    <syllabic>begin</syllabic>
                    <text>je</text>
                </lyric>
                <lyric number="2">
                    <syllabic>single</syllabic>
                    <text>cinq</text>
                </lyric>
            </note>
            <note default-y="-35.00" default-x="406.43">
                <pitch>
                    <step>F</step>
                    <alter>1</alter>
                    <octave>4</octave>
                </pitch>
                <duration>3</duration>
                <voice>1</voice>
                <type>16th</type>
                <stem>up</stem>
                <beam number="1">continue</beam>
                <beam number="2">continue</beam>
                <lyric number="1">
                    <syllabic>end</syllabic>
                    <text>té</text>
                </lyric>
                <lyric number="2">
                    <syllabic>single</syllabic>
                    <text>heures</text>
                </lyric>
            </note>
            <note default-y="-45.00" default-x="460.44">
                <pitch>
                    <step>D</step>
                    <octave>4</octave>
                </pitch>
                <duration>3</duration>
                <voice>1</voice>
                <type>16th</type>
                <stem>up</stem>
                <beam number="1">end</beam>
                <beam number="2">end</beam>
                <lyric number="1">
                    <syllabic>single</syllabic>
                    <text>la</text>
                </lyric>
                <lyric number="2">
                    <syllabic>single</syllabic>
                    <text>du</text>
                </lyric>
            </note>
        </measure>
        <measure width="188.45" number="7">
            <direction>
                <direction-type>
                    <words default-y="100">DO</words>
                </direction-type>
            </direction>
            <note default-y="-40.00" default-x="24.54">
                <pitch>
                    <step>E</step>
                    <octave>4</octave>
                </pitch>
                <duration>12</duration>
                <voice>1</voice>
                <type>quarter</type>
                <stem>up</stem>
                <lyric number="1">
                    <syllabic>single</syllabic>
                    <text>clé</text>
                </lyric>
                <lyric number="2">
                    <syllabic>single</syllabic>
                    <text>soir.</text>
                </lyric>
            </note>
            <note>
                <rest/>
                <duration>12</duration>
                <voice>1</voice>
                <type>quarter</type>
            </note>
            <barline location="right">
                <bar-style>light-heavy</bar-style>
                <repeat direction="backward"/>
            </barline>
        </measure>
        <measure width="372.66" number="8">
            <direction>
                <direction-type>
                    <words default-y="100">Mim</words>
                </direction-type>
            </direction>
            <note>
                <rest/>
                <duration>9</duration>
                <voice>1</voice>
                <type>eighth</type>
                <dot/>
            </note>
            <direction placement="above">
                <direction-type>
                    <words>REFRAIN</words>
                </direction-type>
            </direction>
            <note default-y="-40.00" default-x="111.70">
                <pitch>
                    <step>E</step>
                    <octave>4</octave>
                </pitch>
                <duration>3</duration>
                <voice>1</voice>
                <type>16th</type>
                <stem>up</stem>
                <lyric number="1">
                    <syllabic>single</syllabic>
                    <text>Quand</text>
                </lyric>
            </note>
            <note default-y="-40.00" default-x="166.64">
                <pitch>
                    <step>E</step>
                    <octave>4</octave>
                </pitch>
                <duration>3</duration>
                <voice>1</voice>
                <type>16th</type>
                <stem>up</stem>
                <beam number="1">begin</beam>
                <beam number="2">begin</beam>
                <lyric number="1">
                    <syllabic>single</syllabic>
                    <text>San</text>
                </lyric>
            </note>
            <note default-y="-30.00" default-x="217.75">
                <pitch>
                    <step>G</step>
                    <octave>4</octave>
                </pitch>
                <duration>3</duration>
                <voice>1</voice>
                <type>16th</type>
                <stem>up</stem>
                <beam number="1">continue</beam>
                <beam number="2">continue</beam>
                <lyric number="1">
                    <syllabic>begin</syllabic>
                    <text>Fran</text>
                </lyric>
            </note>
            <note default-y="-40.00" default-x="268.85">
                <pitch>
                    <step>E</step>
                    <octave>4</octave>
                </pitch>
                <duration>3</duration>
                <voice>1</voice>
                <type>16th</type>
                <stem>up</stem>
                <beam number="1">continue</beam>
                <beam number="2">continue</beam>
                <lyric number="1">
                    <syllabic>middle</syllabic>
                    <text>cis</text>
                </lyric>
            </note>
            <note default-y="-20.00" default-x="319.96">
                <pitch>
                    <step>B</step>
                    <octave>4</octave>
                </pitch>
                <duration>3</duration>
                <voice>1</voice>
                <type>16th</type>
                <stem>up</stem>
                <beam number="1">end</beam>
                <beam number="2">end</beam>
                <lyric number="1">
                    <syllabic>end</syllabic>
                    <text>co</text>
                </lyric>
            </note>
        </measure>
        <measure width="302.64" number="9">
            <print new-system="yes">
                <system-layout>
                    <system-margins>
                        <left-margin>0.00</left-margin>
                        <right-margin>0.00</right-margin>
                    </system-margins>
                    <system-distance>198.99</system-distance>
                </system-layout>
            </print>
            <direction>
                <direction-type>
                    <words default-y="100">SOL</words>
                </direction-type>
            </direction>
            <note default-y="-20.00" default-x="64.15">
                <pitch>
                    <step>B</step>
                    <octave>4</octave>
                </pitch>
                <duration>6</duration>
                <voice>1</voice>
                <type>eighth</type>
                <stem>up</stem>
                <beam number="1">begin</beam>
            </note>
            <note default-y="-25.00" default-x="117.65">
                <pitch>
                    <step>A</step>
                    <octave>4</octave>
                </pitch>
                <duration>3</duration>
                <voice>1</voice>
                <type>16th</type>
                <stem>up</stem>
                <beam number="1">continue</beam>
                <beam number="2">begin</beam>
                <lyric number="1">
                    <syllabic>begin</syllabic>
                    <text>s'em</text>
                </lyric>
            </note>
            <note default-y="-30.00" default-x="160.61">
                <pitch>
                    <step>G</step>
                    <octave>4</octave>
                </pitch>
                <duration>3</duration>
                <tie type="start"/>
                <voice>1</voice>
                <type>16th</type>
                <stem>up</stem>
                <beam number="1">end</beam>
                <beam number="2">end</beam>
                <notations>
                    <tied type="start"/>
                </notations>
                <lyric number="1">
                    <syllabic>middle</syllabic>
                    <text>bru</text>
                </lyric>
            </note>
            <note default-y="-30.00" default-x="194.05">
                <pitch>
                    <step>G</step>
                    <octave>4</octave>
                </pitch>
                <duration>6</duration>
                <tie type="stop"/>
                <voice>1</voice>
                <type>eighth</type>
                <stem>up</stem>
                <beam number="1">begin</beam>
                <notations>
                    <tied type="stop"/>
                </notations>
            </note>
            <note default-y="-25.00" default-x="247.54">
                <pitch>
                    <step>A</step>
                    <octave>4</octave>
                </pitch>
                <duration>6</duration>
                <voice>1</voice>
                <type>eighth</type>
                <stem>up</stem>
                <beam number="1">end</beam>
                <lyric number="1">
                    <syllabic>end</syllabic>
                    <text>me,</text>
                </lyric>
            </note>
        </measure>
        <measure width="319.45" number="10">
            <direction>
                <direction-type>
                    <words default-y="100">LA</words>
                </direction-type>
            </direction>
            <note>
                <rest/>
                <duration>9</duration>
                <voice>1</voice>
                <type>eighth</type>
                <dot/>
            </note>
            <note default-y="-40.00" default-x="94.00">
                <pitch>
                    <step>E</step>
                    <octave>4</octave>
                </pitch>
                <duration>3</duration>
                <voice>1</voice>
                <type>16th</type>
                <stem>up</stem>
                <lyric number="1">
                    <syllabic>single</syllabic>
                    <text>quand</text>
                </lyric>
            </note>
            <note default-y="-40.00" default-x="146.39">
                <pitch>
                    <step>E</step>
                    <octave>4</octave>
                </pitch>
                <duration>3</duration>
                <voice>1</voice>
                <type>16th</type>
                <stem>up</stem>
                <beam number="1">begin</beam>
                <beam number="2">begin</beam>
                <lyric number="1">
                    <syllabic>single</syllabic>
                    <text>San</text>
                </lyric>
            </note>
            <note default-y="-30.00" default-x="191.75">
                <pitch>
                    <step>G</step>
                    <octave>4</octave>
                </pitch>
                <duration>3</duration>
                <voice>1</voice>
                <type>16th</type>
                <stem>up</stem>
                <beam number="1">continue</beam>
                <beam number="2">continue</beam>
                <lyric number="1">
                    <syllabic>begin</syllabic>
                    <text>Fran</text>
                </lyric>
            </note>
            <note default-y="-40.00" default-x="233.78">
                <pitch>
                    <step>E</step>
                    <octave>4</octave>
                </pitch>
                <duration>3</duration>
                <voice>1</voice>
                <type>16th</type>
                <stem>up</stem>
                <beam number="1">continue</beam>
                <beam number="2">continue</beam>
                <lyric number="1">
                    <syllabic>middle</syllabic>
                    <text>cis</text>
                </lyric>
            </note>
            <note default-y="-30.00" default-x="275.81">
                <pitch>
                    <step>G</step>
                    <octave>4</octave>
                </pitch>
                <duration>3</duration>
                <tie type="start"/>
                <voice>1</voice>
                <type>16th</type>
                <stem>up</stem>
                <beam number="1">end</beam>
                <beam number="2">end</beam>
                <notations>
                    <tied type="start"/>
                </notations>
                <lyric number="1">
                    <syllabic>end</syllabic>
                    <text>co</text>
                </lyric>
            </note>
        </measure>
        <measure width="228.91" number="11">
            <direction>
                <direction-type>
                    <words default-y="100">DO</words>
                </direction-type>
            </direction>
            <note default-y="-30.00" default-x="12.00">
                <pitch>
                    <step>G</step>
                    <octave>4</octave>
                </pitch>
                <duration>6</duration>
                <tie type="stop"/>
                <voice>1</voice>
                <type>eighth</type>
                <stem>up</stem>
                <beam number="1">begin</beam>
                <notations>
                    <tied type="stop"/>
                </notations>
            </note>
            <note default-y="-35.00" default-x="62.66">
                <pitch>
                    <step>F</step>
                    <alter>1</alter>
                    <octave>4</octave>
                </pitch>
                <duration>3</duration>
                <voice>1</voice>
                <type>16th</type>
                <stem>up</stem>
                <beam number="1">continue</beam>
                <beam number="2">begin</beam>
                <lyric number="1">
                    <syllabic>single</syllabic>
                    <text>s'al</text>
                </lyric>
            </note>
            <note default-y="-45.00" default-x="94.33">
                <pitch>
                    <step>D</step>
                    <octave>4</octave>
                </pitch>
                <duration>3</duration>
                <tie type="start"/>
                <voice>1</voice>
                <type>16th</type>
                <stem>up</stem>
                <beam number="1">end</beam>
                <beam number="2">end</beam>
                <notations>
                    <tied type="start"/>
                </notations>
                <lyric number="1">
                    <syllabic>begin</syllabic>
                    <text>lu</text>
                </lyric>
            </note>
            <note default-y="-45.00" default-x="125.99">
                <pitch>
                    <step>D</step>
                    <octave>4</octave>
                </pitch>
                <duration>6</duration>
                <tie type="stop"/>
                <voice>1</voice>
                <type>eighth</type>
                <stem>up</stem>
                <beam number="1">begin</beam>
                <notations>
                    <tied type="stop"/>
                </notations>
            </note>
            <note default-y="-40.00" default-x="176.65">
                <pitch>
                    <step>E</step>
                    <octave>4</octave>
                </pitch>
                <duration>6</duration>
                <voice>1</voice>
                <type>eighth</type>
                <stem>up</stem>
                <beam number="1">end</beam>
                <lyric number="1">
                    <syllabic>end</syllabic>
                    <text>me.</text>
                </lyric>
            </note>
        </measure>
        <measure width="226.17" number="12">
            <note>
                <rest/>
                <duration>12</duration>
                <voice>1</voice>
                <type>quarter</type>
            </note>
            <note default-y="-45.00" default-x="94.57">
                <pitch>
                    <step>D</step>
                    <octave>4</octave>
                </pitch>
                <duration>4</duration>
                <voice>1</voice>
                <type>eighth</type>
                <time-modification>
                    <actual-notes>3</actual-notes>
                    <normal-notes>2</normal-notes>
                </time-modification>
                <stem>up</stem>
                <beam number="1">begin</beam>
                <notations>
                    <tuplet type="start" bracket="no"/>
                </notations>
                <lyric number="1">
                    <syllabic>single</syllabic>
                    <text>San</text>
                </lyric>
            </note>
            <note default-y="-40.00" default-x="139.93">
                <pitch>
                    <step>E</step>
                    <octave>4</octave>
                </pitch>
                <duration>4</duration>
                <voice>1</voice>
                <type>eighth</type>
                <time-modification>
                    <actual-notes>3</actual-notes>
                    <normal-notes>2</normal-notes>
                </time-modification>
                <stem>up</stem>
                <beam number="1">continue</beam>
                <lyric number="1">
                    <syllabic>begin</syllabic>
                    <text>Fran</text>
                </lyric>
            </note>
            <note default-y="-45.00" default-x="182.25">
                <pitch>
                    <step>D</step>
                    <octave>4</octave>
                </pitch>
                <duration>4</duration>
                <voice>1</voice>
                <type>eighth</type>
                <time-modification>
                    <actual-notes>3</actual-notes>
                    <normal-notes>2</normal-notes>
                </time-modification>
                <stem>up</stem>
                <beam number="1">end</beam>
                <notations>
                    <tuplet type="stop"/>
                </notations>
                <lyric number="1">
                    <syllabic>middle</syllabic>
                    <text>cis</text>
                </lyric>
            </note>
        </measure>
        <measure width="294.65" number="13">
            <print new-system="yes">
                <system-layout>
                    <system-margins>
                        <left-margin>0.00</left-margin>
                        <right-margin>0.00</right-margin>
                    </system-margins>
                    <system-distance>173.07</system-distance>
                </system-layout>
            </print>
            <direction>
                <direction-type>
                    <words default-y="100">Sim</words>
                </direction-type>
            </direction>
            <note default-y="-55.00" default-x="79.38">
                <pitch>
                    <step>B</step>
                    <octave>3</octave>
                </pitch>
                <duration>24</duration>
                <voice>1</voice>
                <type>half</type>
                <stem>up</stem>
                <lyric number="1">
                    <syllabic>end</syllabic>
                    <text>co,</text>
                </lyric>
            </note>
        </measure>
        <measure width="374.52" number="14">
            <note>
                <rest/>
                <duration>12</duration>
                <voice>1</voice>
                <type>quarter</type>
            </note>
            <note default-y="-55.00" default-x="140.07">
                <pitch>
                    <step>B</step>
                    <octave>3</octave>
                </pitch>
                <duration>3</duration>
                <voice>1</voice>
                <type>16th</type>
                <stem>up</stem>
                <beam number="1">begin</beam>
                <beam number="2">begin</beam>
                <lyric number="1">
                    <syllabic>single</syllabic>
                    <text>ou</text>
                </lyric>
            </note>
            <note default-y="-45.00" default-x="198.28">
                <pitch>
                    <step>D</step>
                    <octave>4</octave>
                </pitch>
                <duration>3</duration>
                <voice>1</voice>
                <type>16th</type>
                <stem>up</stem>
                <beam number="1">continue</beam>
                <beam number="2">continue</beam>
                <lyric number="1">
                    <syllabic>begin</syllabic>
                    <text>ê</text>
                </lyric>
            </note>
            <note default-y="-40.00" default-x="256.50">
                <pitch>
                    <step>E</step>
                    <octave>4</octave>
                </pitch>
                <duration>3</duration>
                <voice>1</voice>
                <type>16th</type>
                <stem>up</stem>
                <beam number="1">continue</beam>
                <beam number="2">continue</beam>
                <lyric number="1">
                    <syllabic>middle</syllabic>
                    <text>tes</text>
                </lyric>
            </note>
            <note default-y="-40.00" default-x="314.71">
                <pitch>
                    <step>E</step>
                    <octave>4</octave>
                </pitch>
                <duration>3</duration>
                <tie type="start"/>
                <voice>1</voice>
                <type>16th</type>
                <stem>up</stem>
                <beam number="1">end</beam>
                <beam number="2">end</beam>
                <notations>
                    <tied type="start"/>
                </notations>
                <lyric number="1">
                    <syllabic>end</syllabic>
                    <text>vous ?</text>
                </lyric>
            </note>
        </measure>
        <measure width="407.99" number="15">
            <direction>
                <direction-type>
                    <words default-y="100">Mim</words>
                </direction-type>
            </direction>
            <note default-y="-40.00" default-x="12.00">
                <pitch>
                    <step>E</step>
                    <octave>4</octave>
                </pitch>
                <duration>6</duration>
                <tie type="stop"/>
                <voice>1</voice>
                <type>eighth</type>
                <stem>up</stem>
                <notations>
                    <tied type="stop"/>
                </notations>
            </note>
            <direction>
                <direction-type>
                    <words default-y="100">SOL</words>
                </direction-type>
            </direction>
            <note>
                <rest/>
                <duration>6</duration>
                <voice>1</voice>
                <type>eighth</type>
            </note>
            <direction>
                <direction-type>
                    <words default-y="100">SOL</words>
                </direction-type>
            </direction>
            <note default-y="-20.00" default-x="187.29">
                <pitch>
                    <step>B</step>
                    <octave>4</octave>
                </pitch>
                <duration>3</duration>
                <voice>1</voice>
                <type>16th</type>
                <stem>up</stem>
                <beam number="1">begin</beam>
                <beam number="2">begin</beam>
                <lyric number="1">
                    <syllabic>begin</syllabic>
                    <text>Liz</text>
                </lyric>
            </note>
            <note default-y="-25.00" default-x="242.06">
                <pitch>
                    <step>A</step>
                    <octave>4</octave>
                </pitch>
                <duration>3</duration>
                <voice>1</voice>
                <type>16th</type>
                <stem>up</stem>
                <beam number="1">continue</beam>
                <beam number="2">continue</beam>
                <lyric number="1">
                    <syllabic>end</syllabic>
                    <text>zard</text>
                </lyric>
            </note>
            <note default-y="-30.00" default-x="296.84">
                <pitch>
                    <step>G</step>
                    <octave>4</octave>
                </pitch>
                <duration>3</duration>
                <voice>1</voice>
                <type>16th</type>
                <stem>up</stem>
                <beam number="1">continue</beam>
                <beam number="2">continue</beam>
                <lyric number="1">
                    <syllabic>single</syllabic>
                    <text>et</text>
                </lyric>
            </note>
            <note default-y="-25.00" default-x="351.62">
                <pitch>
                    <step>A</step>
                    <octave>4</octave>
                </pitch>
                <duration>3</duration>
                <voice>1</voice>
                <type>16th</type>
                <stem>up</stem>
                <beam number="1">end</beam>
                <beam number="2">end</beam>
                <lyric number="1">
                    <syllabic>single</syllabic>
                    <text>Luc,</text>
                </lyric>
            </note>
        </measure>
        <measure width="349.18" number="16">
            <print new-system="yes">
                <system-layout>
                    <system-margins>
                        <left-margin>0.00</left-margin>
                        <right-margin>0.00</right-margin>
                    </system-margins>
                    <system-distance>173.07</system-distance>
                </system-layout>
            </print>
            <direction>
                <direction-type>
                    <words default-y="100">LA</words>
                </direction-type>
            </direction>
            <note default-y="-25.00" default-x="64.15">
                <pitch>
                    <step>A</step>
                    <octave>4</octave>
                </pitch>
                <duration>6</duration>
                <voice>1</voice>
                <type>eighth</type>
                <stem>up</stem>
            </note>
            <direction>
                <direction-type>
                    <words default-y="100">DO</words>
                </direction-type>
            </direction>
            <note>
                <rest/>
                <duration>6</duration>
                <voice>1</voice>
                <type>eighth</type>
            </note>
            <direction>
                <direction-type>
                    <words default-y="100">DO</words>
                </direction-type>
            </direction>
            <note default-y="-30.00" default-x="211.60">
                <pitch>
                    <step>G</step>
                    <octave>4</octave>
                </pitch>
                <duration>9</duration>
                <voice>1</voice>
                <type>eighth</type>
                <dot/>
                <stem>up</stem>
                <beam number="1">begin</beam>
                <lyric number="1">
                    <syllabic>begin</syllabic>
                    <text>Psyl</text>
                </lyric>
            </note>
            <note default-y="-40.00" default-x="301.50">
                <pitch>
                    <step>E</step>
                    <octave>4</octave>
                </pitch>
                <duration>3</duration>
                <tie type="start"/>
                <voice>1</voice>
                <type>16th</type>
                <stem>up</stem>
                <beam number="1">end</beam>
                <beam number="2">backward hook</beam>
                <notations>
                    <tied type="start"/>
                </notations>
                <lyric number="1">
                    <syllabic>end</syllabic>
                    <text>via,</text>
                </lyric>
            </note>
        </measure>
        <measure width="335.75" number="17">
            <direction>
                <direction-type>
                    <words default-y="100">
</words>
                </direction-type>
            </direction>
            <note default-y="-40.00" default-x="12.00">
                <pitch>
                    <step>E</step>
                    <octave>4</octave>
                </pitch>
                <duration>12</duration>
                <tie type="stop"/>
                <voice>1</voice>
                <type>quarter</type>
                <stem>up</stem>
                <notations>
                    <tied type="stop"/>
                    <fermata type="upright"></fermata>
                </notations>
            </note>
            <note default-y="-30.00" default-x="126.31">
                <pitch>
                    <step>G</step>
                    <octave>4</octave>
                </pitch>
                <duration>3</duration>
                <voice>1</voice>
                <type>16th</type>
                <stem>up</stem>
                <beam number="1">begin</beam>
                <beam number="2">begin</beam>
                <lyric number="1">
                    <syllabic>begin</syllabic>
                    <text>at</text>
                </lyric>
            </note>
            <note default-y="-40.00" default-x="178.27">
                <pitch>
                    <step>E</step>
                    <octave>4</octave>
                </pitch>
                <duration>3</duration>
                <voice>1</voice>
                <type>16th</type>
                <stem>up</stem>
                <beam number="1">continue</beam>
                <beam number="2">continue</beam>
                <lyric number="1">
                    <syllabic>middle</syllabic>
                    <text>ten</text>
                </lyric>
            </note>
            <note default-y="-45.00" default-x="230.23">
                <pitch>
                    <step>D</step>
                    <octave>4</octave>
                </pitch>
                <duration>3</duration>
                <voice>1</voice>
                <type>16th</type>
                <stem>up</stem>
                <beam number="1">continue</beam>
                <beam number="2">continue</beam>
                <lyric number="1">
                    <syllabic>middle</syllabic>
                    <text>dez</text>
                </lyric>
            </note>
            <note default-y="-40.00" default-x="282.19">
                <pitch>
                    <step>E</step>
                    <octave>4</octave>
                </pitch>
                <duration>3</duration>
                <tie type="start"/>
                <voice>1</voice>
                <type>16th</type>
                <stem>up</stem>
                <beam number="1">end</beam>
                <beam number="2">end</beam>
                <notations>
                    <tied type="start"/>
                </notations>
                <lyric number="1">
                    <syllabic>end</syllabic>
                    <text>moi.</text>
                </lyric>
            </note>
        </measure>
        <measure width="199.65" number="18">
            <direction>
                <direction-type>
                    <words default-y="100">Mim</words>
                </direction-type>
            </direction>
            <note default-y="-40.00" default-x="12.00">
                <pitch>
                    <step>E</step>
                    <octave>4</octave>
                </pitch>
                <duration>12</duration>
                <tie type="stop"/>
                <voice>1</voice>
                <type>quarter</type>
                <stem>up</stem>
                <notations>
                    <tied type="stop"/>
                </notations>
            </note>
            <note>
                <rest/>
                <duration>12</duration>
                <voice>1</voice>
                <type>quarter</type>
            </note>
        </measure>
        <measure width="192.59" number="19">
            <note>
                <rest>
                    <display-step>D</display-step>
                    <display-octave>5</display-octave>
                </rest>
                <duration>24</duration>
                <voice>1</voice>
            </note>
            <barline location="right">
                <bar-style>light-light</bar-style>
            </barline>
        </measure>
    </part>
</score-partwise>
