<?xml version="1.0" encoding="UTF-8"?>
<!DOCTYPE score-partwise PUBLIC "-//Recordare//DTD MusicXML 2.0 Partwise//EN" "http://www.musicxml.org/dtds/partwise.dtd">
<score-partwise version="2.0">
    <work>
        <work-number></work-number>
        <work-title></work-title>
    </work>
    <movement-number></movement-number>
    <movement-title>Bad Moon Rising</movement-title>
    <identification>
        <creator type="composer">J C Fogerty</creator>
        <creator type="poet"></creator>
        <rights>All Rights Reserved</rights>
        <encoding>
            <software>Sibelius 7.0.1</software>
            <software>Dolet 6.1 for Sibelius</software>
            <encoding-date>2012-01-22</encoding-date>
            <supports type="no" element="accidental"/>
            <supports type="no" element="transpose"/>
            <supports value="yes" type="yes" element="print" attribute="new-page"/>
            <supports value="yes" type="yes" element="print" attribute="new-system"/>
            <software>ProxyMusic 2.0 c</software>
        </encoding>
        <source>http://wikifonia.org/node/14242/revisions/19094/view</source>
    </identification>
    <defaults>
        <scaling>
            <millimeters>7</millimeters>
            <tenths>40</tenths>
        </scaling>
        <page-layout>
            <page-height>1697</page-height>
            <page-width>1200</page-width>
            <page-margins type="both">
                <left-margin>85.7143</left-margin>
                <right-margin>85.7143</right-margin>
                <top-margin>85.7143</top-margin>
                <bottom-margin>85.7143</bottom-margin>
            </page-margins>
        </page-layout>
        <system-layout>
            <system-margins>
                <left-margin>21.875</left-margin>
                <right-margin>0</right-margin>
            </system-margins>
            <system-distance>150</system-distance>
            <top-system-distance>72.8125</top-system-distance>
        </system-layout>
        <appearance>
            <line-width type="beam">5</line-width>
            <line-width type="heavy barline">5</line-width>
            <line-width type="leger">1.5625</line-width>
            <line-width type="light barline">1.5625</line-width>
            <line-width type="slur middle">2.1875</line-width>
            <line-width type="slur tip">0.625</line-width>
            <line-width type="staff">0.9375</line-width>
            <line-width type="stem">0.9375</line-width>
            <line-width type="tie middle">2.1875</line-width>
            <line-width type="tie tip">0.625</line-width>
            <note-size type="grace">60</note-size>
            <note-size type="cue">75</note-size>
        </appearance>
        <music-font font-family="Opus Std,music"/>
        <word-font font-family="Plantin MT Std"/>
    </defaults>
    <part-list>
        <score-part id="P1">
            <part-name print-object="no">[Unnamed (treble staff)]</part-name>
            <score-instrument id="P1-I1">
                <instrument-name></instrument-name>
            </score-instrument>
            <midi-instrument id="P1-I1">
                <volume>79</volume>
                <pan>0</pan>
            </midi-instrument>
        </score-part>
    </part-list>
    <part id="P1">
        <measure number="1">
            <print>
                <system-layout>
                    <system-margins>
                        <left-margin>21.875</left-margin>
                        <right-margin>0</right-margin>
                    </system-margins>
                    <top-system-distance>217.8125</top-system-distance>
                </system-layout>
                <staff-layout/>
            </print>
            <barline location="left">
                <bar-style>heavy-light</bar-style>
                <repeat direction="forward"/>
            </barline>
            <attributes>
                <divisions>768</divisions>
                <key>
                    <fifths>-1</fifths>
                    <mode>major</mode>
                </key>
                <time symbol="cut">
                    <beats>2</beats>
                    <beat-type>2</beat-type>
                </time>
                <clef>
                    <sign>G</sign>
                    <line>2</line>
                </clef>
            </attributes>
            <harmony relative-x="8" default-y="25" print-frame="no">
                <root>
                    <root-step>F</root-step>
                </root>
                <kind text="">major</kind>
            </harmony>
            <note>
                <pitch>
                    <step>A</step>
                    <octave>4</octave>
                </pitch>
                <duration>768</duration>
                <voice>1</voice>
                <type>quarter</type>
                <stem>up</stem>
                <lyric default-y="-80" number="1" name="verse">
                    <syllabic>single</syllabic>
                    <text>I</text>
                </lyric>
                <lyric default-y="-105" number="2" name="verse">
                    <syllabic>single</syllabic>
                    <text>I</text>
                </lyric>
                <lyric default-y="-130" number="3" name="verse">
                    <syllabic>single</syllabic>
                    <text>Hope</text>
                </lyric>
            </note>
            <note>
                <pitch>
                    <step>A</step>
                    <octave>4</octave>
                </pitch>
                <duration>1536</duration>
                <voice>1</voice>
                <type>half</type>
                <stem>up</stem>
                <lyric default-y="-80" number="1" name="verse">
                    <syllabic>single</syllabic>
                    <text>see</text>
                </lyric>
                <lyric default-y="-105" number="2" name="verse">
                    <syllabic>single</syllabic>
                    <text>hear</text>
                    <extend/>
                </lyric>
                <lyric default-y="-130" number="3" name="verse">
                    <syllabic>single</syllabic>
                    <text>you</text>
                    <extend/>
                </lyric>
            </note>
            <note>
                <pitch>
                    <step>F</step>
                    <octave>4</octave>
                </pitch>
                <duration>768</duration>
                <voice>1</voice>
                <type>quarter</type>
                <stem>up</stem>
                <lyric default-y="-80" number="1" name="verse">
                    <syllabic>single</syllabic>
                    <text>a</text>
                </lyric>
            </note>
        </measure>
        <measure number="2">
            <harmony relative-x="7" default-y="25" print-frame="no">
                <root>
                    <root-step>C</root-step>
                </root>
                <kind text="">major</kind>
            </harmony>
            <note>
                <pitch>
                    <step>G</step>
                    <octave>4</octave>
                </pitch>
                <duration>768</duration>
                <voice>1</voice>
                <type>quarter</type>
                <stem>up</stem>
                <notations>
                    <slur type="start" number="1"/>
                </notations>
                <lyric default-y="-105" number="2" name="verse">
                    <syllabic>begin</syllabic>
                    <text>hu</text>
                </lyric>
                <lyric default-y="-130" number="3" name="verse">
                    <syllabic>single</syllabic>
                    <text>got</text>
                </lyric>
            </note>
            <note>
                <pitch>
                    <step>F</step>
                    <octave>4</octave>
                </pitch>
                <duration>768</duration>
                <voice>1</voice>
                <type>quarter</type>
                <stem>up</stem>
                <notations>
                    <slur type="stop" number="1"/>
                </notations>
                <lyric relative-x="-20" default-y="-80" number="1" name="verse">
                    <syllabic>single</syllabic>
                    <text>bad</text>
                </lyric>
                <lyric default-y="-105" number="2" name="verse">
                    <syllabic>middle</syllabic>
                    <text>ri</text>
                </lyric>
                <lyric default-y="-130" number="3" name="verse">
                    <syllabic>single</syllabic>
                    <text>your</text>
                </lyric>
            </note>
            <harmony relative-x="8" default-y="25" print-frame="no">
                <root>
                    <root-step>B</root-step>
                    <root-alter>-1</root-alter>
                </root>
                <kind text="">major</kind>
            </harmony>
            <note>
                <pitch>
                    <step>G</step>
                    <octave>4</octave>
                </pitch>
                <duration>768</duration>
                <voice>1</voice>
                <type>quarter</type>
                <stem>up</stem>
                <lyric relative-x="-6" default-y="-80" number="1" name="verse">
                    <syllabic>single</syllabic>
                    <text>moon</text>
                </lyric>
                <lyric default-y="-105" number="2" name="verse">
                    <syllabic>end</syllabic>
                    <text>canes</text>
                </lyric>
                <lyric default-y="-130" number="3" name="verse">
                    <syllabic>single</syllabic>
                    <text>things</text>
                </lyric>
            </note>
            <note>
                <pitch>
                    <step>F</step>
                    <octave>4</octave>
                </pitch>
                <duration>768</duration>
                <voice>1</voice>
                <type>quarter</type>
                <stem>up</stem>
                <lyric relative-x="-1" default-y="-80" number="1" name="verse">
                    <syllabic>begin</syllabic>
                    <text>a</text>
                </lyric>
                <lyric default-y="-105" number="2" name="verse">
                    <syllabic>begin</syllabic>
                    <text>a</text>
                </lyric>
                <lyric default-y="-130" number="3" name="verse">
                    <syllabic>begin</syllabic>
                    <text>to</text>
                </lyric>
            </note>
        </measure>
        <measure number="3">
            <harmony relative-x="7" default-y="25" print-frame="no">
                <root>
                    <root-step>F</root-step>
                </root>
                <kind text="">major</kind>
            </harmony>
            <note>
                <pitch>
                    <step>A</step>
                    <octave>4</octave>
                </pitch>
                <duration>768</duration>
                <voice>1</voice>
                <type>quarter</type>
                <stem>up</stem>
                <lyric relative-x="-1" default-y="-80" number="1" name="verse">
                    <syllabic>middle</syllabic>
                    <text>ri</text>
                </lyric>
                <lyric default-y="-105" number="2" name="verse">
                    <syllabic>middle</syllabic>
                    <text>blow</text>
                </lyric>
                <lyric default-y="-130" number="3" name="verse">
                    <syllabic>middle</syllabic>
                    <text>geth</text>
                </lyric>
            </note>
            <note>
                <pitch>
                    <step>F</step>
                    <octave>4</octave>
                </pitch>
                <duration>2304</duration>
                <tie type="start"/>
                <voice>1</voice>
                <type>half</type>
                <dot/>
                <stem>up</stem>
                <notations>
                    <tied type="start"/>
                </notations>
                <lyric relative-x="51" default-y="-80" number="1" name="verse">
                    <syllabic>end</syllabic>
                    <text>sing</text>
                    <extend/>
                </lyric>
                <lyric default-y="-105" number="2" name="verse">
                    <syllabic>end</syllabic>
                    <text>ing.</text>
                    <extend/>
                </lyric>
                <lyric default-y="-130" number="3" name="verse">
                    <syllabic>end</syllabic>
                    <text>er.</text>
                    <extend/>
                </lyric>
            </note>
        </measure>
        <measure number="4">
            <note>
                <pitch>
                    <step>F</step>
                    <octave>4</octave>
                </pitch>
                <duration>2304</duration>
                <tie type="stop"/>
                <voice>1</voice>
                <type>half</type>
                <dot/>
                <stem>up</stem>
                <notations>
                    <tied type="stop"/>
                </notations>
            </note>
            <note>
                <rest/>
                <duration>768</duration>
                <voice>1</voice>
                <type>quarter</type>
            </note>
        </measure>
        <measure number="5">
            <note>
                <pitch>
                    <step>A</step>
                    <octave>4</octave>
                </pitch>
                <duration>768</duration>
                <voice>1</voice>
                <type>quarter</type>
                <stem>up</stem>
                <lyric default-y="-80" number="1" name="verse">
                    <syllabic>single</syllabic>
                    <text>I</text>
                </lyric>
                <lyric default-y="-105" number="2" name="verse">
                    <syllabic>single</syllabic>
                    <text>I</text>
                </lyric>
                <lyric default-y="-130" number="3" name="verse">
                    <syllabic>single</syllabic>
                    <text>Hope</text>
                </lyric>
            </note>
            <note>
                <pitch>
                    <step>A</step>
                    <octave>4</octave>
                </pitch>
                <duration>1536</duration>
                <voice>1</voice>
                <type>half</type>
                <stem>up</stem>
                <lyric default-y="-105" number="2" name="verse">
                    <syllabic>single</syllabic>
                    <text>know</text>
                </lyric>
                <lyric default-y="-130" number="3" name="verse">
                    <syllabic>single</syllabic>
                    <text>you</text>
                </lyric>
            </note>
            <note>
                <pitch>
                    <step>F</step>
                    <octave>4</octave>
                </pitch>
                <duration>768</duration>
                <voice>1</voice>
                <type>quarter</type>
                <stem>up</stem>
                <lyric relative-x="-36" default-y="-80" number="1" name="verse">
                    <syllabic>single</syllabic>
                    <text>see</text>
                </lyric>
                <lyric default-y="-105" number="2" name="verse">
                    <syllabic>single</syllabic>
                    <text>the</text>
                </lyric>
                <lyric default-y="-130" number="3" name="verse">
                    <syllabic>single</syllabic>
                    <text>are</text>
                </lyric>
            </note>
        </measure>
        <measure number="6">
            <print new-system="yes"/>
            <harmony relative-x="7" default-y="25" print-frame="no">
                <root>
                    <root-step>C</root-step>
                </root>
                <kind text="">major</kind>
            </harmony>
            <note>
                <pitch>
                    <step>G</step>
                    <octave>4</octave>
                </pitch>
                <duration>768</duration>
                <voice>1</voice>
                <type>quarter</type>
                <stem>up</stem>
                <lyric relative-x="-5" default-y="-80" number="1" name="verse">
                    <syllabic>begin</syllabic>
                    <text>trou</text>
                </lyric>
                <lyric default-y="-105" number="2" name="verse">
                    <syllabic>single</syllabic>
                    <text>end</text>
                </lyric>
                <lyric default-y="-130" number="3" name="verse">
                    <syllabic>single</syllabic>
                    <text>quite</text>
                </lyric>
            </note>
            <note>
                <pitch>
                    <step>F</step>
                    <octave>4</octave>
                </pitch>
                <duration>1152</duration>
                <voice>1</voice>
                <type>quarter</type>
                <dot/>
                <stem>up</stem>
                <lyric relative-x="-5" default-y="-80" number="1" name="verse">
                    <syllabic>end</syllabic>
                    <text>ble</text>
                </lyric>
                <lyric default-y="-105" number="2" name="verse">
                    <syllabic>single</syllabic>
                    <text>is</text>
                </lyric>
                <lyric default-y="-130" number="3" name="verse">
                    <syllabic>begin</syllabic>
                    <text>pre</text>
                </lyric>
            </note>
            <harmony relative-x="8" default-y="25" print-frame="no">
                <root>
                    <root-step>B</root-step>
                    <root-alter>-1</root-alter>
                </root>
                <kind text="">major</kind>
            </harmony>
            <note>
                <pitch>
                    <step>A</step>
                    <octave>4</octave>
                </pitch>
                <duration>384</duration>
                <voice>1</voice>
                <type>eighth</type>
                <stem>up</stem>
                <lyric relative-x="-5" default-y="-80" number="1" name="verse">
                    <syllabic>single</syllabic>
                    <text>on</text>
                </lyric>
                <lyric default-y="-105" number="2" name="verse">
                    <syllabic>begin</syllabic>
                    <text>co</text>
                </lyric>
                <lyric default-y="-130" number="3" name="verse">
                    <syllabic>end</syllabic>
                    <text>pared</text>
                </lyric>
            </note>
            <note>
                <pitch>
                    <step>F</step>
                    <octave>4</octave>
                </pitch>
                <duration>768</duration>
                <voice>1</voice>
                <type>quarter</type>
                <stem>up</stem>
                <lyric relative-x="-5" default-y="-80" number="1" name="verse">
                    <syllabic>single</syllabic>
                    <text>the</text>
                </lyric>
                <lyric default-y="-105" number="2" name="verse">
                    <syllabic>end</syllabic>
                    <text>ming</text>
                </lyric>
                <lyric default-y="-130" number="3" name="verse">
                    <syllabic>single</syllabic>
                    <text>to</text>
                </lyric>
            </note>
        </measure>
        <measure number="7">
            <harmony relative-x="8" default-y="25" print-frame="no">
                <root>
                    <root-step>F</root-step>
                </root>
                <kind text="">major</kind>
            </harmony>
            <note>
                <pitch>
                    <step>F</step>
                    <octave>4</octave>
                </pitch>
                <duration>3072</duration>
                <tie type="start"/>
                <voice>1</voice>
                <type>whole</type>
                <stem>up</stem>
                <notations>
                    <tied type="start"/>
                </notations>
                <lyric relative-x="-5" default-y="-80" number="1" name="verse">
                    <syllabic>single</syllabic>
                    <text>way.</text>
                    <extend/>
                </lyric>
                <lyric default-y="-105" number="2" name="verse">
                    <syllabic>single</syllabic>
                    <text>soon.</text>
                    <extend/>
                </lyric>
                <lyric default-y="-130" number="3" name="verse">
                    <syllabic>single</syllabic>
                    <text>die.</text>
                    <extend/>
                </lyric>
            </note>
        </measure>
        <measure number="8">
            <note>
                <pitch>
                    <step>F</step>
                    <octave>4</octave>
                </pitch>
                <duration>2304</duration>
                <tie type="stop"/>
                <voice>1</voice>
                <type>half</type>
                <dot/>
                <stem>up</stem>
                <notations>
                    <tied type="stop"/>
                </notations>
            </note>
            <note>
                <rest/>
                <duration>768</duration>
                <voice>1</voice>
                <type>quarter</type>
            </note>
        </measure>
        <measure number="9">
            <note>
                <pitch>
                    <step>A</step>
                    <octave>4</octave>
                </pitch>
                <duration>768</duration>
                <voice>1</voice>
                <type>quarter</type>
                <stem>up</stem>
                <lyric relative-x="-5" default-y="-80" number="1" name="verse">
                    <syllabic>single</syllabic>
                    <text>I</text>
                </lyric>
                <lyric default-y="-105" number="2" name="verse">
                    <syllabic>single</syllabic>
                    <text>I</text>
                </lyric>
                <lyric default-y="-130" number="3" name="verse">
                    <syllabic>single</syllabic>
                    <text>Looks</text>
                </lyric>
            </note>
            <note>
                <pitch>
                    <step>A</step>
                    <octave>4</octave>
                </pitch>
                <duration>1536</duration>
                <voice>1</voice>
                <type>half</type>
                <stem>up</stem>
                <lyric default-y="-105" number="2" name="verse">
                    <syllabic>single</syllabic>
                    <text>fear</text>
                    <extend/>
                </lyric>
                <lyric default-y="-130" number="3" name="verse">
                    <syllabic>single</syllabic>
                    <text>like</text>
                </lyric>
            </note>
            <note>
                <pitch>
                    <step>F</step>
                    <octave>4</octave>
                </pitch>
                <duration>768</duration>
                <voice>1</voice>
                <type>quarter</type>
                <stem>up</stem>
                <lyric relative-x="-28" default-y="-80" number="1" name="verse">
                    <syllabic>single</syllabic>
                    <text>see</text>
                </lyric>
                <lyric default-y="-130" number="3" name="verse">
                    <syllabic>single</syllabic>
                    <text>we're</text>
                </lyric>
            </note>
        </measure>
        <measure number="10">
            <harmony relative-x="7" default-y="25" print-frame="no">
                <root>
                    <root-step>C</root-step>
                </root>
                <kind text="">major</kind>
            </harmony>
            <note>
                <pitch>
                    <step>G</step>
                    <octave>4</octave>
                </pitch>
                <duration>768</duration>
                <voice>1</voice>
                <type>quarter</type>
                <stem>up</stem>
                <notations>
                    <slur type="start" number="1"/>
                </notations>
                <lyric default-y="-105" number="2" name="verse">
                    <syllabic>begin</syllabic>
                    <text>ri</text>
                </lyric>
                <lyric default-y="-130" number="3" name="verse">
                    <syllabic>single</syllabic>
                    <text>in</text>
                </lyric>
            </note>
            <note>
                <pitch>
                    <step>F</step>
                    <octave>4</octave>
                </pitch>
                <duration>768</duration>
                <voice>1</voice>
                <type>quarter</type>
                <stem>up</stem>
                <notations>
                    <slur type="stop" number="1"/>
                </notations>
                <lyric relative-x="-17" default-y="-80" number="1" name="verse">
                    <syllabic>single</syllabic>
                    <text>earth</text>
                </lyric>
                <lyric default-y="-105" number="2" name="verse">
                    <syllabic>end</syllabic>
                    <text>vers</text>
                </lyric>
                <lyric default-y="-130" number="3" name="verse">
                    <syllabic>single</syllabic>
                    <text>for</text>
                </lyric>
            </note>
            <harmony relative-x="8" default-y="25" print-frame="no">
                <root>
                    <root-step>B</root-step>
                    <root-alter>-1</root-alter>
                </root>
                <kind text="">major</kind>
            </harmony>
            <note>
                <pitch>
                    <step>G</step>
                    <octave>4</octave>
                </pitch>
                <duration>768</duration>
                <voice>1</voice>
                <type>quarter</type>
                <stem>up</stem>
                <lyric relative-x="-11" default-y="-80" number="1" name="verse">
                    <syllabic>single</syllabic>
                    <text>quakes</text>
                </lyric>
                <lyric default-y="-105" number="2" name="verse">
                    <syllabic>begin</syllabic>
                    <text>o</text>
                </lyric>
                <lyric default-y="-130" number="3" name="verse">
                    <syllabic>begin</syllabic>
                    <text>nas</text>
                </lyric>
            </note>
            <note>
                <pitch>
                    <step>F</step>
                    <octave>4</octave>
                </pitch>
                <duration>768</duration>
                <voice>1</voice>
                <type>quarter</type>
                <stem>up</stem>
                <lyric relative-x="15" default-y="-80" number="1" name="verse">
                    <syllabic>single</syllabic>
                    <text>and</text>
                </lyric>
                <lyric default-y="-105" number="2" name="verse">
                    <syllabic>middle</syllabic>
                    <text>ver</text>
                </lyric>
                <lyric default-y="-130" number="3" name="verse">
                    <syllabic>end</syllabic>
                    <text>ty</text>
                </lyric>
            </note>
        </measure>
        <measure number="11">
            <harmony relative-x="8" default-y="25" print-frame="no">
                <root>
                    <root-step>F</root-step>
                </root>
                <kind text="">major</kind>
            </harmony>
            <note>
                <pitch>
                    <step>A</step>
                    <octave>4</octave>
                </pitch>
                <duration>768</duration>
                <voice>1</voice>
                <type>quarter</type>
                <stem>up</stem>
                <lyric relative-x="15" default-y="-80" number="1" name="verse">
                    <syllabic>begin</syllabic>
                    <text>light</text>
                </lyric>
                <lyric default-y="-105" number="2" name="verse">
                    <syllabic>end</syllabic>
                    <text>flow</text>
                </lyric>
                <lyric default-y="-130" number="3" name="verse">
                    <syllabic>begin</syllabic>
                    <text>wea</text>
                </lyric>
            </note>
            <note>
                <pitch>
                    <step>F</step>
                    <octave>4</octave>
                </pitch>
                <duration>2304</duration>
                <voice>1</voice>
                <type>half</type>
                <dot/>
                <stem>up</stem>
                <notations>
                    <slur type="start" number="1"/>
                </notations>
                <lyric relative-x="15" default-y="-80" number="1" name="verse">
                    <syllabic>end</syllabic>
                    <text>nin.</text>
                    <extend/>
                </lyric>
                <lyric default-y="-105" number="2" name="verse">
                    <syllabic>single</syllabic>
                    <text>ing.</text>
                    <extend/>
                </lyric>
                <lyric default-y="-130" number="3" name="verse">
                    <syllabic>end</syllabic>
                    <text>ther.</text>
                    <extend/>
                </lyric>
            </note>
        </measure>
        <measure number="12">
            <print new-system="yes"/>
            <note>
                <pitch>
                    <step>F</step>
                    <octave>4</octave>
                </pitch>
                <duration>2304</duration>
                <voice>1</voice>
                <type>half</type>
                <dot/>
                <stem>up</stem>
                <notations>
                    <slur type="stop" number="1"/>
                </notations>
            </note>
            <note>
                <rest/>
                <duration>768</duration>
                <voice>1</voice>
                <type>quarter</type>
            </note>
        </measure>
        <measure number="13">
            <note>
                <pitch>
                    <step>A</step>
                    <octave>4</octave>
                </pitch>
                <duration>768</duration>
                <voice>1</voice>
                <type>quarter</type>
                <stem>up</stem>
                <lyric relative-x="15" default-y="-80" number="1" name="verse">
                    <syllabic>single</syllabic>
                    <text>I</text>
                </lyric>
                <lyric default-y="-105" number="2" name="verse">
                    <syllabic>single</syllabic>
                    <text>I</text>
                </lyric>
                <lyric default-y="-130" number="3" name="verse">
                    <syllabic>single</syllabic>
                    <text>One</text>
                </lyric>
            </note>
            <note>
                <pitch>
                    <step>A</step>
                    <octave>4</octave>
                </pitch>
                <duration>1536</duration>
                <voice>1</voice>
                <type>half</type>
                <stem>down</stem>
                <lyric relative-x="26" default-y="-80" number="1" name="verse">
                    <syllabic>single</syllabic>
                    <text>see</text>
                    <extend/>
                </lyric>
                <lyric default-y="-105" number="2" name="verse">
                    <syllabic>single</syllabic>
                    <text>hear</text>
                </lyric>
                <lyric default-y="-130" number="3" name="verse">
                    <syllabic>single</syllabic>
                    <text>eye</text>
                </lyric>
            </note>
            <note>
                <pitch>
                    <step>F</step>
                    <octave>4</octave>
                </pitch>
                <duration>768</duration>
                <voice>1</voice>
                <type>quarter</type>
                <stem>up</stem>
                <lyric default-y="-105" number="2" name="verse">
                    <syllabic>single</syllabic>
                    <text>the</text>
                </lyric>
                <lyric default-y="-130" number="3" name="verse">
                    <syllabic>single</syllabic>
                    <text>is</text>
                </lyric>
            </note>
        </measure>
        <measure number="14">
            <harmony relative-x="8" default-y="25" print-frame="no">
                <root>
                    <root-step>C</root-step>
                </root>
                <kind text="">major</kind>
            </harmony>
            <note>
                <pitch>
                    <step>G</step>
                    <octave>4</octave>
                </pitch>
                <duration>768</duration>
                <voice>1</voice>
                <type>quarter</type>
                <stem>down</stem>
                <lyric relative-x="15" default-y="-80" number="1" name="verse">
                    <syllabic>single</syllabic>
                    <text>bad</text>
                    <extend/>
                </lyric>
                <lyric default-y="-105" number="2" name="verse">
                    <syllabic>single</syllabic>
                    <text>voice</text>
                </lyric>
                <lyric default-y="-130" number="3" name="verse">
                    <syllabic>begin</syllabic>
                    <text>ta</text>
                </lyric>
            </note>
            <note>
                <pitch>
                    <step>F</step>
                    <octave>4</octave>
                </pitch>
                <duration>768</duration>
                <voice>1</voice>
                <type>quarter</type>
                <stem>up</stem>
                <lyric default-y="-105" number="2" name="verse">
                    <syllabic>single</syllabic>
                    <text>of</text>
                </lyric>
                <lyric default-y="-130" number="3" name="verse">
                    <syllabic>end</syllabic>
                    <text>ken</text>
                </lyric>
            </note>
            <harmony relative-x="8" default-y="25" print-frame="no">
                <root>
                    <root-step>B</root-step>
                    <root-alter>-1</root-alter>
                </root>
                <kind text="">major</kind>
            </harmony>
            <note>
                <pitch>
                    <step>A</step>
                    <octave>4</octave>
                </pitch>
                <duration>768</duration>
                <voice>1</voice>
                <type>quarter</type>
                <stem>up</stem>
                <lyric relative-x="15" default-y="-80" number="1" name="verse">
                    <syllabic>single</syllabic>
                    <text>times</text>
                </lyric>
                <lyric default-y="-105" number="2" name="verse">
                    <syllabic>single</syllabic>
                    <text>rage</text>
                </lyric>
                <lyric default-y="-130" number="3" name="verse">
                    <syllabic>single</syllabic>
                    <text>for</text>
                </lyric>
            </note>
            <note>
                <pitch>
                    <step>F</step>
                    <octave>4</octave>
                </pitch>
                <duration>768</duration>
                <voice>1</voice>
                <type>quarter</type>
                <stem>up</stem>
                <lyric relative-x="15" default-y="-80" number="1" name="verse">
                    <syllabic>begin</syllabic>
                    <text>to</text>
                </lyric>
                <lyric default-y="-105" number="2" name="verse">
                    <syllabic>single</syllabic>
                    <text>and</text>
                </lyric>
                <lyric default-y="-130" number="3" name="verse">
                    <syllabic>single</syllabic>
                    <text>an</text>
                </lyric>
            </note>
        </measure>
        <measure number="15">
            <harmony relative-x="7" default-y="25" print-frame="no">
                <root>
                    <root-step>F</root-step>
                </root>
                <kind text="">major</kind>
            </harmony>
            <note>
                <pitch>
                    <step>F</step>
                    <octave>4</octave>
                </pitch>
                <duration>3072</duration>
                <tie type="start"/>
                <voice>1</voice>
                <type>whole</type>
                <stem>up</stem>
                <notations>
                    <tied type="start"/>
                </notations>
                <lyric relative-x="15" default-y="-80" number="1" name="verse">
                    <syllabic>end</syllabic>
                    <text>day</text>
                    <extend/>
                </lyric>
                <lyric default-y="-105" number="2" name="verse">
                    <syllabic>single</syllabic>
                    <text>ruin.</text>
                </lyric>
                <lyric default-y="-130" number="3" name="verse">
                    <syllabic>single</syllabic>
                    <text>eye.</text>
                </lyric>
            </note>
        </measure>
        <measure number="16">
            <note>
                <pitch>
                    <step>F</step>
                    <octave>4</octave>
                </pitch>
                <duration>2304</duration>
                <tie type="stop"/>
                <voice>1</voice>
                <type>half</type>
                <dot/>
                <stem>up</stem>
                <notations>
                    <tied type="stop"/>
                </notations>
            </note>
            <note>
                <rest/>
                <duration>768</duration>
                <voice>1</voice>
                <type>quarter</type>
            </note>
            <barline location="right">
                <bar-style>light-light</bar-style>
            </barline>
        </measure>
        <measure number="17">
            <harmony relative-x="8" default-y="25" print-frame="no">
                <root>
                    <root-step>B</root-step>
                    <root-alter>-1</root-alter>
                </root>
                <kind text="">major</kind>
            </harmony>
            <note>
                <pitch>
                    <step>B</step>
                    <alter>-1</alter>
                    <octave>4</octave>
                </pitch>
                <duration>768</duration>
                <voice>1</voice>
                <type>quarter</type>
                <stem>down</stem>
                <lyric relative-x="15" default-y="-80" number="1" name="verse">
                    <syllabic>single</syllabic>
                    <text>Don't</text>
                </lyric>
            </note>
            <note>
                <pitch>
                    <step>B</step>
                    <alter>-1</alter>
                    <octave>4</octave>
                </pitch>
                <duration>768</duration>
                <voice>1</voice>
                <type>quarter</type>
                <stem>up</stem>
                <lyric relative-x="15" default-y="-80" number="1" name="verse">
                    <syllabic>single</syllabic>
                    <text>go</text>
                </lyric>
            </note>
            <note>
                <pitch>
                    <step>B</step>
                    <alter>-1</alter>
                    <octave>4</octave>
                </pitch>
                <duration>768</duration>
                <voice>1</voice>
                <type>quarter</type>
                <stem>down</stem>
                <lyric relative-x="15" default-y="-80" number="1" name="verse">
                    <syllabic>single</syllabic>
                    <text>'round</text>
                </lyric>
            </note>
            <note>
                <pitch>
                    <step>G</step>
                    <octave>4</octave>
                </pitch>
                <duration>768</duration>
                <voice>1</voice>
                <type>quarter</type>
                <stem>up</stem>
                <lyric relative-x="15" default-y="-80" number="1" name="verse">
                    <syllabic>begin</syllabic>
                    <text>to</text>
                </lyric>
            </note>
        </measure>
        <measure number="18">
            <print new-system="yes"/>
            <note>
                <pitch>
                    <step>F</step>
                    <octave>4</octave>
                </pitch>
                <duration>768</duration>
                <voice>1</voice>
                <type>quarter</type>
                <stem>up</stem>
                <notations>
                    <slur type="start" number="1"/>
                </notations>
                <lyric relative-x="15" default-y="-80" number="1" name="verse">
                    <syllabic>end</syllabic>
                    <text>night</text>
                    <extend/>
                </lyric>
            </note>
            <note>
                <pitch>
                    <step>G</step>
                    <octave>4</octave>
                </pitch>
                <duration>1536</duration>
                <voice>1</voice>
                <type>half</type>
                <stem>up</stem>
                <notations>
                    <slur type="stop" number="1"/>
                </notations>
            </note>
            <note>
                <pitch>
                    <step>F</step>
                    <octave>4</octave>
                </pitch>
                <duration>768</duration>
                <voice>1</voice>
                <type>quarter</type>
                <stem>up</stem>
                <lyric relative-x="15" default-y="-80" number="1" name="verse">
                    <syllabic>single</syllabic>
                    <text>it's</text>
                </lyric>
            </note>
        </measure>
        <measure number="19">
            <note>
                <pitch>
                    <step>A</step>
                    <octave>4</octave>
                </pitch>
                <duration>768</duration>
                <voice>1</voice>
                <type>quarter</type>
                <stem>up</stem>
                <lyric relative-x="15" default-y="-80" number="1" name="verse">
                    <syllabic>single</syllabic>
                    <text>bound</text>
                </lyric>
            </note>
            <note>
                <pitch>
                    <step>A</step>
                    <octave>4</octave>
                </pitch>
                <duration>768</duration>
                <voice>1</voice>
                <type>quarter</type>
                <stem>up</stem>
                <lyric relative-x="15" default-y="-80" number="1" name="verse">
                    <syllabic>single</syllabic>
                    <text>to</text>
                </lyric>
            </note>
            <note>
                <pitch>
                    <step>A</step>
                    <octave>4</octave>
                </pitch>
                <duration>768</duration>
                <voice>1</voice>
                <type>quarter</type>
                <stem>up</stem>
                <lyric relative-x="15" default-y="-80" number="1" name="verse">
                    <syllabic>single</syllabic>
                    <text>take</text>
                </lyric>
            </note>
            <note>
                <pitch>
                    <step>G</step>
                    <octave>4</octave>
                </pitch>
                <duration>768</duration>
                <voice>1</voice>
                <type>quarter</type>
                <stem>up</stem>
                <lyric relative-x="15" default-y="-80" number="1" name="verse">
                    <syllabic>single</syllabic>
                    <text>your</text>
                </lyric>
            </note>
        </measure>
        <measure number="20">
            <note>
                <pitch>
                    <step>F</step>
                    <octave>4</octave>
                </pitch>
                <duration>768</duration>
                <voice>1</voice>
                <type>quarter</type>
                <stem>up</stem>
                <notations>
                    <slur type="start" number="1"/>
                </notations>
                <lyric relative-x="15" default-y="-80" number="1" name="verse">
                    <syllabic>single</syllabic>
                    <text>life.</text>
                    <extend/>
                </lyric>
            </note>
            <note>
                <pitch>
                    <step>D</step>
                    <octave>4</octave>
                </pitch>
                <duration>2304</duration>
                <voice>1</voice>
                <type>half</type>
                <dot/>
                <stem>up</stem>
                <notations>
                    <slur type="stop" number="1"/>
                </notations>
            </note>
        </measure>
        <measure number="21">
            <harmony relative-x="7" default-y="25" print-frame="no">
                <root>
                    <root-step>C</root-step>
                </root>
                <kind text="">major</kind>
            </harmony>
            <note>
                <pitch>
                    <step>G</step>
                    <octave>4</octave>
                </pitch>
                <duration>2304</duration>
                <voice>1</voice>
                <type>half</type>
                <dot/>
                <stem>up</stem>
                <lyric relative-x="15" default-y="-80" number="1" name="verse">
                    <syllabic>single</syllabic>
                    <text>There's</text>
                </lyric>
            </note>
            <note>
                <pitch>
                    <step>G</step>
                    <octave>4</octave>
                </pitch>
                <duration>768</duration>
                <voice>1</voice>
                <type>quarter</type>
                <stem>up</stem>
                <lyric relative-x="15" default-y="-80" number="1" name="verse">
                    <syllabic>single</syllabic>
                    <text>a</text>
                </lyric>
            </note>
        </measure>
        <measure number="22">
            <print new-system="yes"/>
            <harmony relative-x="8" default-y="25" print-frame="no">
                <root>
                    <root-step>B</root-step>
                    <root-alter>-1</root-alter>
                </root>
                <kind text="">major</kind>
            </harmony>
            <note>
                <pitch>
                    <step>G</step>
                    <octave>4</octave>
                </pitch>
                <duration>768</duration>
                <voice>1</voice>
                <type>quarter</type>
                <stem>up</stem>
                <lyric relative-x="15" default-y="-80" number="1" name="verse">
                    <syllabic>single</syllabic>
                    <text>bad</text>
                </lyric>
            </note>
            <note>
                <pitch>
                    <step>F</step>
                    <octave>4</octave>
                </pitch>
                <duration>768</duration>
                <voice>1</voice>
                <type>quarter</type>
                <stem>up</stem>
                <lyric relative-x="15" default-y="-80" number="1" name="verse">
                    <syllabic>single</syllabic>
                    <text>moon</text>
                </lyric>
            </note>
            <note>
                <pitch>
                    <step>F</step>
                    <octave>4</octave>
                </pitch>
                <duration>768</duration>
                <voice>1</voice>
                <type>quarter</type>
                <stem>up</stem>
                <lyric relative-x="15" default-y="-80" number="1" name="verse">
                    <syllabic>single</syllabic>
                    <text>on</text>
                </lyric>
            </note>
            <note>
                <pitch>
                    <step>F</step>
                    <octave>4</octave>
                </pitch>
                <duration>768</duration>
                <voice>1</voice>
                <type>quarter</type>
                <stem>up</stem>
                <lyric relative-x="15" default-y="-80" number="1" name="verse">
                    <syllabic>single</syllabic>
                    <text>the</text>
                </lyric>
            </note>
        </measure>
        <measure number="23">
            <harmony relative-x="7" default-y="25" print-frame="no">
                <root>
                    <root-step>F</root-step>
                </root>
                <kind text="">major</kind>
            </harmony>
            <note>
                <pitch>
                    <step>F</step>
                    <octave>4</octave>
                </pitch>
                <duration>3072</duration>
                <tie type="start"/>
                <voice>1</voice>
                <type>whole</type>
                <stem>up</stem>
                <notations>
                    <tied type="start"/>
                </notations>
                <lyric relative-x="15" default-y="-80" number="1" name="verse">
                    <syllabic>single</syllabic>
                    <text>rise</text>
                    <extend/>
                </lyric>
            </note>
        </measure>
        <measure number="24">
            <barline location="left">
                <ending type="start" number="1, 2"></ending>
            </barline>
            <note>
                <pitch>
                    <step>F</step>
                    <octave>4</octave>
                </pitch>
                <duration>2304</duration>
                <tie type="stop"/>
                <voice>1</voice>
                <type>half</type>
                <dot/>
                <stem>up</stem>
                <notations>
                    <tied type="stop"/>
                </notations>
            </note>
            <note>
                <rest/>
                <duration>768</duration>
                <voice>1</voice>
                <type>quarter</type>
            </note>
            <barline location="right">
                <bar-style>light-heavy</bar-style>
                <ending type="stop" number="1, 2"></ending>
                <repeat direction="backward"/>
            </barline>
        </measure>
        <measure number="25">
            <barline location="left">
                <ending type="start" number="3"></ending>
            </barline>
            <note>
                <pitch>
                    <step>F</step>
                    <octave>4</octave>
                </pitch>
                <duration>3072</duration>
                <voice>1</voice>
                <type>whole</type>
                <stem>up</stem>
            </note>
            <barline location="right">
                <bar-style>light-heavy</bar-style>
                <ending type="discontinue" number="3"></ending>
            </barline>
        </measure>
    </part>
</score-partwise>
