<?xml version="1.0" encoding="UTF-8"?>
<!DOCTYPE score-partwise PUBLIC "-//Recordare//DTD MusicXML 2.0 Partwise//EN" "http://www.musicxml.org/dtds/partwise.dtd">
<score-partwise version="2.0">
    <work>
        <work-number></work-number>
        <work-title></work-title>
    </work>
    <movement-number></movement-number>
    <movement-title>Mother</movement-title>
    <identification>
        <creator type="composer">Howard Johnson, Theodore Morse (c1915)</creator>
        <creator type="poet"></creator>
        <rights>All Rights Reserved</rights>
        <encoding>
            <software>Finale 2012 for Windows</software>
            <software>Dolet Light for Finale 2012</software>
            <encoding-date>2012-02-01</encoding-date>
            <supports value="yes" type="yes" element="print" attribute="new-system"/>
            <supports value="yes" type="yes" element="print" attribute="new-page"/>
            <software>ProxyMusic 2.0 c</software>
        </encoding>
        <source>http://wikifonia.org/node/14434/revisions/19345/view</source>
    </identification>
    <defaults>
        <scaling>
            <millimeters>6.0113</millimeters>
            <tenths>40</tenths>
        </scaling>
        <page-layout>
            <page-height>1977</page-height>
            <page-width>1397</page-width>
            <page-margins type="both">
                <left-margin>161</left-margin>
                <right-margin>161</right-margin>
                <top-margin>493</top-margin>
                <bottom-margin>493</bottom-margin>
            </page-margins>
        </page-layout>
        <system-layout>
            <system-margins>
                <left-margin>0</left-margin>
                <right-margin>0</right-margin>
            </system-margins>
            <system-distance>103</system-distance>
            <top-system-distance>60</top-system-distance>
        </system-layout>
        <appearance>
            <line-width type="stem">0.7487</line-width>
            <line-width type="beam">5</line-width>
            <line-width type="staff">0.7487</line-width>
            <line-width type="light barline">0.7487</line-width>
            <line-width type="heavy barline">5</line-width>
            <line-width type="leger">0.7487</line-width>
            <line-width type="ending">0.7487</line-width>
            <line-width type="wedge">0.7487</line-width>
            <line-width type="enclosure">0.7487</line-width>
            <line-width type="tuplet bracket">0.7487</line-width>
            <note-size type="grace">60</note-size>
            <note-size type="cue">60</note-size>
        </appearance>
        <music-font font-size="17" font-family="Maestro,engraved"/>
        <word-font font-size="8.5" font-family="Times New Roman"/>
        <lyric-font font-size="8.5" font-family="Times New Roman"/>
    </defaults>
    <credit page="1">
        <credit-words font-size="17" font-family="Arial" default-y="1858" default-x="682" justify="center" valign="top">Mother</credit-words>
    </credit>
    <credit page="1">
        <credit-words default-y="178" default-x="669" justify="center" valign="top">all rights reserved</credit-words>
    </credit>
    <credit page="1">
        <credit-words default-y="1851" default-x="112" valign="top">Arranged by Stuart Bradbury</credit-words>
    </credit>
    <credit page="1">
        <credit-words default-y="1809" default-x="959" valign="top">Howard Johnson, Theodore Morse (c1915)</credit-words>
    </credit>
    <part-list>
        <score-part id="P1">
            <part-name print-object="no">MusicXML Part</part-name>
            <score-instrument id="P1-I1">
                <instrument-name>Nylon String Guit.</instrument-name>
            </score-instrument>
            <midi-instrument id="P1-I1">
                <midi-channel>1</midi-channel>
                <midi-program>22</midi-program>
                <volume>78</volume>
                <pan>0</pan>
            </midi-instrument>
        </score-part>
    </part-list>
    <part id="P1">
        <measure width="1210" number="1">
            <print>
                <page-layout>
                    <page-height>1977</page-height>
                    <page-width>1397</page-width>
                    <page-margins>
                        <left-margin>100</left-margin>
                        <right-margin>86</right-margin>
                        <top-margin>102</top-margin>
                        <bottom-margin>246</bottom-margin>
                    </page-margins>
                </page-layout>
                <system-layout>
                    <system-margins>
                        <left-margin>0</left-margin>
                        <right-margin>2</right-margin>
                    </system-margins>
                    <top-system-distance>179</top-system-distance>
                </system-layout>
                <measure-numbering>system</measure-numbering>
            </print>
            <attributes>
                <divisions>2</divisions>
                <key>
                    <fifths>-1</fifths>
                    <mode>major</mode>
                </key>
                <time>
                    <beats>4</beats>
                    <beat-type>4</beat-type>
                </time>
                <clef>
                    <sign>G</sign>
                    <line>2</line>
                </clef>
                <staff-details>
                    <staff-size>116</staff-size>
                </staff-details>
            </attributes>
            <sound tempo="84"/>
            <harmony default-y="46">
                <root>
                    <root-step>F</root-step>
                </root>
                <kind halign="center" text="">major</kind>
            </harmony>
            <note default-x="116">
                <pitch>
                    <step>C</step>
                    <octave>5</octave>
                </pitch>
                <duration>1</duration>
                <voice>1</voice>
                <type>eighth</type>
                <stem default-y="-70">down</stem>
                <beam number="1">begin</beam>
                <lyric default-y="-87" number="1">
                    <syllabic>single</syllabic>
                    <text font-size="9.9">M</text>
                </lyric>
            </note>
            <note default-x="252">
                <pitch>
                    <step>A</step>
                    <octave>4</octave>
                </pitch>
                <duration>1</duration>
                <voice>1</voice>
                <type>eighth</type>
                <stem default-y="-70">down</stem>
                <beam number="1">continue</beam>
                <lyric default-y="-87" number="1">
                    <syllabic>single</syllabic>
                    <text font-size="9.9">is</text>
                </lyric>
            </note>
            <note default-x="389">
                <pitch>
                    <step>B</step>
                    <alter>-1</alter>
                    <octave>4</octave>
                </pitch>
                <duration>1</duration>
                <voice>1</voice>
                <type>eighth</type>
                <stem default-y="-70">down</stem>
                <beam number="1">continue</beam>
                <lyric default-y="-87" number="1">
                    <syllabic>single</syllabic>
                    <text font-size="9.9">for</text>
                </lyric>
            </note>
            <note default-x="526">
                <pitch>
                    <step>B</step>
                    <octave>4</octave>
                </pitch>
                <duration>1</duration>
                <voice>1</voice>
                <type>eighth</type>
                <accidental>natural</accidental>
                <stem default-y="-70">down</stem>
                <beam number="1">end</beam>
                <lyric default-y="-87" number="1">
                    <syllabic>single</syllabic>
                    <text font-size="9.9">the</text>
                </lyric>
            </note>
            <note default-x="663">
                <pitch>
                    <step>C</step>
                    <octave>5</octave>
                </pitch>
                <duration>1</duration>
                <voice>1</voice>
                <type>eighth</type>
                <stem default-y="23.5">up</stem>
                <beam number="1">begin</beam>
                <lyric default-y="-87" number="1">
                    <syllabic>begin</syllabic>
                    <text font-size="9.9">mil</text>
                </lyric>
            </note>
            <note default-x="800">
                <pitch>
                    <step>F</step>
                    <octave>4</octave>
                </pitch>
                <duration>1</duration>
                <voice>1</voice>
                <type>eighth</type>
                <stem default-y="21">up</stem>
                <beam number="1">continue</beam>
                <lyric default-y="-87" number="1">
                    <syllabic>end</syllabic>
                    <text font-size="9.9">lion</text>
                </lyric>
            </note>
            <harmony default-y="41">
                <root>
                    <root-step>F</root-step>
                </root>
                <kind halign="center" text="dim">diminished</kind>
            </harmony>
            <note default-x="936">
                <pitch>
                    <step>G</step>
                    <octave>4</octave>
                </pitch>
                <duration>1</duration>
                <voice>1</voice>
                <type>eighth</type>
                <stem default-y="19.5">up</stem>
                <beam number="1">continue</beam>
                <lyric default-y="-87" number="1">
                    <syllabic>single</syllabic>
                    <text font-size="9.9">things</text>
                </lyric>
            </note>
            <note default-x="1073">
                <pitch>
                    <step>D</step>
                    <octave>4</octave>
                </pitch>
                <duration>1</duration>
                <voice>1</voice>
                <type>eighth</type>
                <stem default-y="18">up</stem>
                <beam number="1">end</beam>
                <lyric default-y="-87" number="1">
                    <syllabic>single</syllabic>
                    <text font-size="9.9">she</text>
                </lyric>
            </note>
        </measure>
        <measure width="326" number="2">
            <print new-system="yes">
                <system-layout>
                    <system-margins>
                        <left-margin>1</left-margin>
                        <right-margin>0</right-margin>
                    </system-margins>
                    <system-distance>129</system-distance>
                </system-layout>
            </print>
            <harmony default-y="32">
                <root>
                    <root-step>C</root-step>
                </root>
                <kind halign="center" text="7">dominant</kind>
            </harmony>
            <note default-x="85">
                <pitch>
                    <step>F</step>
                    <octave>4</octave>
                </pitch>
                <duration>4</duration>
                <voice>1</voice>
                <type>half</type>
                <stem default-y="0.5">up</stem>
                <lyric default-y="-87" number="1">
                    <syllabic>single</syllabic>
                    <text font-size="9.9">gave</text>
                </lyric>
            </note>
            <note default-x="194">
                <pitch>
                    <step>E</step>
                    <octave>4</octave>
                </pitch>
                <duration>3</duration>
                <voice>1</voice>
                <type>quarter</type>
                <dot/>
                <stem default-y="-5">up</stem>
                <lyric relative-x="7" default-y="-87" number="1">
                    <syllabic>single</syllabic>
                    <text font-size="9.9">me,</text>
                </lyric>
            </note>
            <note default-x="283">
                <rest/>
                <duration>1</duration>
                <voice>1</voice>
                <type>eighth</type>
            </note>
        </measure>
        <measure width="659" number="3">
            <note default-x="13">
                <pitch>
                    <step>C</step>
                    <octave>5</octave>
                </pitch>
                <duration>1</duration>
                <voice>1</voice>
                <type>eighth</type>
                <stem default-y="23.5">up</stem>
                <beam number="1">begin</beam>
                <lyric default-y="-87" number="1">
                    <syllabic>single</syllabic>
                    <text font-size="9.9">O</text>
                </lyric>
            </note>
            <note default-x="94">
                <pitch>
                    <step>B</step>
                    <alter>-1</alter>
                    <octave>4</octave>
                </pitch>
                <duration>1</duration>
                <voice>1</voice>
                <type>eighth</type>
                <stem default-y="23.5">up</stem>
                <beam number="1">continue</beam>
                <lyric default-y="-87" number="1">
                    <syllabic>single</syllabic>
                    <text font-size="9.9">means</text>
                </lyric>
            </note>
            <note default-x="175">
                <pitch>
                    <step>F</step>
                    <alter>1</alter>
                    <octave>4</octave>
                </pitch>
                <duration>1</duration>
                <voice>1</voice>
                <type>eighth</type>
                <accidental>sharp</accidental>
                <stem default-y="23.5">up</stem>
                <beam number="1">continue</beam>
                <lyric default-y="-87" number="1">
                    <syllabic>begin</syllabic>
                    <text font-size="9.9">on</text>
                </lyric>
            </note>
            <note default-x="256">
                <pitch>
                    <step>G</step>
                    <octave>4</octave>
                </pitch>
                <duration>1</duration>
                <voice>1</voice>
                <type>eighth</type>
                <stem default-y="23.5">up</stem>
                <beam number="1">end</beam>
                <lyric default-y="-87" number="1">
                    <syllabic>end</syllabic>
                    <text font-size="9.9">ly</text>
                </lyric>
            </note>
            <note default-x="336">
                <pitch>
                    <step>C</step>
                    <octave>5</octave>
                </pitch>
                <duration>1</duration>
                <voice>1</voice>
                <type>eighth</type>
                <stem default-y="23.5">up</stem>
                <beam number="1">begin</beam>
                <lyric default-y="-87" number="1">
                    <syllabic>single</syllabic>
                    <text font-size="9.9">that</text>
                </lyric>
            </note>
            <note default-x="417">
                <pitch>
                    <step>B</step>
                    <alter>-1</alter>
                    <octave>4</octave>
                </pitch>
                <duration>1</duration>
                <voice>1</voice>
                <type>eighth</type>
                <stem default-y="23.5">up</stem>
                <beam number="1">continue</beam>
                <lyric default-y="-87" number="1">
                    <syllabic>single</syllabic>
                    <text font-size="9.9">she's</text>
                </lyric>
            </note>
            <note default-x="498">
                <pitch>
                    <step>D</step>
                    <octave>4</octave>
                </pitch>
                <duration>1</duration>
                <voice>1</voice>
                <type>eighth</type>
                <stem default-y="23.5">up</stem>
                <beam number="1">continue</beam>
                <lyric default-y="-87" number="1">
                    <syllabic>begin</syllabic>
                    <text font-size="9.9">grow</text>
                </lyric>
            </note>
            <note default-x="578">
                <pitch>
                    <step>B</step>
                    <alter>-1</alter>
                    <octave>4</octave>
                </pitch>
                <duration>1</duration>
                <voice>1</voice>
                <type>eighth</type>
                <stem default-y="23.5">up</stem>
                <beam number="1">end</beam>
                <lyric default-y="-87" number="1">
                    <syllabic>end</syllabic>
                    <text font-size="9.9">ing</text>
                </lyric>
            </note>
        </measure>
        <measure width="226" number="4">
            <harmony default-y="46">
                <root>
                    <root-step>F</root-step>
                </root>
                <kind halign="center" text="">major</kind>
            </harmony>
            <note default-x="14">
                <pitch>
                    <step>A</step>
                    <octave>4</octave>
                </pitch>
                <duration>6</duration>
                <voice>1</voice>
                <type>half</type>
                <dot/>
                <stem default-y="12">up</stem>
                <lyric default-y="-87" number="1">
                    <syllabic>single</syllabic>
                    <text font-size="9.9">old,</text>
                </lyric>
            </note>
        </measure>
        <measure width="470" number="5">
            <print new-system="yes">
                <system-layout>
                    <system-distance>147</system-distance>
                </system-layout>
            </print>
            <attributes>
                <staff-details>
                    <staff-size>111</staff-size>
                </staff-details>
            </attributes>
            <note default-x="80">
                <pitch>
                    <step>F</step>
                    <octave>4</octave>
                </pitch>
                <duration>1</duration>
                <voice>1</voice>
                <type>eighth</type>
                <stem default-y="0">up</stem>
                <beam number="1">begin</beam>
                <lyric default-y="-84" number="1">
                    <syllabic>single</syllabic>
                    <text font-size="9.4">T</text>
                </lyric>
            </note>
            <note default-x="126">
                <pitch>
                    <step>F</step>
                    <octave>4</octave>
                </pitch>
                <duration>1</duration>
                <voice>1</voice>
                <type>eighth</type>
                <stem default-y="0">up</stem>
                <beam number="1">continue</beam>
                <lyric default-y="-84" number="1">
                    <syllabic>single</syllabic>
                    <text font-size="9.4">is</text>
                </lyric>
            </note>
            <note default-x="174">
                <pitch>
                    <step>E</step>
                    <octave>4</octave>
                </pitch>
                <duration>1</duration>
                <voice>1</voice>
                <type>eighth</type>
                <stem default-y="0">up</stem>
                <beam number="1">continue</beam>
                <lyric default-y="-84" number="1">
                    <syllabic>single</syllabic>
                    <text font-size="9.4">for</text>
                </lyric>
            </note>
            <note default-x="222">
                <pitch>
                    <step>F</step>
                    <octave>4</octave>
                </pitch>
                <duration>1</duration>
                <voice>1</voice>
                <type>eighth</type>
                <stem default-y="0">up</stem>
                <beam number="1">end</beam>
                <lyric default-y="-84" number="1">
                    <syllabic>single</syllabic>
                    <text font-size="9.4">the</text>
                </lyric>
            </note>
            <harmony default-y="39">
                <root>
                    <root-step>B</root-step>
                    <root-alter>-1</root-alter>
                </root>
                <kind halign="center" text="">major</kind>
            </harmony>
            <note default-x="272">
                <pitch>
                    <step>G</step>
                    <octave>4</octave>
                </pitch>
                <duration>1</duration>
                <voice>1</voice>
                <type>eighth</type>
                <stem default-y="6">up</stem>
                <beam number="1">begin</beam>
                <lyric default-y="-84" number="1">
                    <syllabic>single</syllabic>
                    <text font-size="9.4">tears</text>
                </lyric>
            </note>
            <note default-x="323">
                <pitch>
                    <step>F</step>
                    <octave>4</octave>
                </pitch>
                <duration>1</duration>
                <voice>1</voice>
                <type>eighth</type>
                <stem default-y="6">up</stem>
                <beam number="1">continue</beam>
                <lyric default-y="-84" number="1">
                    <syllabic>single</syllabic>
                    <text font-size="9.4">were</text>
                </lyric>
            </note>
            <note default-x="374">
                <pitch>
                    <step>G</step>
                    <octave>4</octave>
                </pitch>
                <duration>1</duration>
                <voice>1</voice>
                <type>eighth</type>
                <stem default-y="6">up</stem>
                <beam number="1">continue</beam>
                <lyric default-y="-84" number="1">
                    <syllabic>single</syllabic>
                    <text font-size="9.4">shed</text>
                </lyric>
            </note>
            <harmony default-y="35">
                <root>
                    <root-step>B</root-step>
                    <root-alter>-1</root-alter>
                </root>
                <kind halign="center" text="7">dominant</kind>
            </harmony>
            <note default-x="423">
                <pitch>
                    <step>G</step>
                    <alter>1</alter>
                    <octave>4</octave>
                </pitch>
                <duration>1</duration>
                <voice>1</voice>
                <type>eighth</type>
                <accidental>sharp</accidental>
                <stem default-y="6">up</stem>
                <beam number="1">end</beam>
                <lyric default-y="-84" number="1">
                    <syllabic>single</syllabic>
                    <text font-size="9.4">to</text>
                </lyric>
            </note>
        </measure>
        <measure width="180" number="6">
            <harmony default-y="37">
                <root>
                    <root-step>F</root-step>
                </root>
                <kind halign="center" text="">major</kind>
            </harmony>
            <note default-x="13">
                <pitch>
                    <step>A</step>
                    <octave>4</octave>
                </pitch>
                <duration>4</duration>
                <voice>1</voice>
                <type>half</type>
                <stem default-y="12">up</stem>
                <notations>
                    <articulations>
                        <strong-accent default-y="-65" default-x="-59" placement="below" type="down"/>
                    </articulations>
                </notations>
                <lyric default-y="-84" number="1">
                    <syllabic>single</syllabic>
                    <text font-size="9.4">save</text>
                </lyric>
            </note>
            <harmony default-y="34">
                <root>
                    <root-step>D</root-step>
                </root>
                <kind halign="center" text="7">dominant</kind>
            </harmony>
            <note default-x="89">
                <pitch>
                    <step>C</step>
                    <octave>5</octave>
                </pitch>
                <duration>3</duration>
                <voice>1</voice>
                <type>quarter</type>
                <dot/>
                <stem default-y="-56">down</stem>
                <lyric relative-x="6" default-y="-84" number="1">
                    <syllabic>single</syllabic>
                    <text font-size="9.4">me,</text>
                </lyric>
            </note>
            <note default-x="151">
                <rest/>
                <duration>1</duration>
                <voice>1</voice>
                <type>eighth</type>
            </note>
        </measure>
        <measure width="387" number="7">
            <harmony default-y="39">
                <root>
                    <root-step>G</root-step>
                </root>
                <kind halign="center" text="7">dominant</kind>
            </harmony>
            <note default-x="14">
                <pitch>
                    <step>G</step>
                    <octave>4</octave>
                </pitch>
                <duration>1</duration>
                <voice>1</voice>
                <type>eighth</type>
                <stem default-y="17">up</stem>
                <beam number="1">begin</beam>
                <lyric default-y="-84" number="1">
                    <syllabic>single</syllabic>
                    <text font-size="9.4">H</text>
                </lyric>
            </note>
            <note default-x="61">
                <pitch>
                    <step>A</step>
                    <octave>4</octave>
                </pitch>
                <duration>1</duration>
                <voice>1</voice>
                <type>eighth</type>
                <stem default-y="19">up</stem>
                <beam number="1">continue</beam>
                <lyric default-y="-84" number="1">
                    <syllabic>single</syllabic>
                    <text font-size="9.4">is</text>
                </lyric>
            </note>
            <note default-x="107">
                <pitch>
                    <step>B</step>
                    <octave>4</octave>
                </pitch>
                <duration>1</duration>
                <voice>1</voice>
                <type>eighth</type>
                <accidental>natural</accidental>
                <stem default-y="20.5">up</stem>
                <beam number="1">continue</beam>
                <lyric default-y="-84" number="1">
                    <syllabic>single</syllabic>
                    <text font-size="9.4">for</text>
                </lyric>
            </note>
            <note default-x="153">
                <pitch>
                    <step>C</step>
                    <octave>5</octave>
                </pitch>
                <duration>1</duration>
                <voice>1</voice>
                <type>eighth</type>
                <stem default-y="22">up</stem>
                <beam number="1">end</beam>
                <lyric default-y="-84" number="1">
                    <syllabic>single</syllabic>
                    <text font-size="9.4">her</text>
                </lyric>
            </note>
            <note default-x="200">
                <pitch>
                    <step>D</step>
                    <octave>5</octave>
                </pitch>
                <duration>1</duration>
                <voice>1</voice>
                <type>eighth</type>
                <stem default-y="28">up</stem>
                <beam number="1">begin</beam>
                <lyric default-y="-84" number="1">
                    <syllabic>single</syllabic>
                    <text font-size="9.4">heart</text>
                </lyric>
            </note>
            <note default-x="246">
                <pitch>
                    <step>B</step>
                    <octave>4</octave>
                </pitch>
                <duration>1</duration>
                <voice>1</voice>
                <type>eighth</type>
                <stem default-y="28">up</stem>
                <beam number="1">continue</beam>
                <lyric default-y="-84" number="1">
                    <syllabic>single</syllabic>
                    <text font-size="9.4">of</text>
                </lyric>
            </note>
            <note default-x="293">
                <pitch>
                    <step>A</step>
                    <octave>4</octave>
                </pitch>
                <duration>1</duration>
                <voice>1</voice>
                <type>eighth</type>
                <stem default-y="28">up</stem>
                <beam number="1">continue</beam>
                <lyric default-y="-84" number="1">
                    <syllabic>begin</syllabic>
                    <text font-size="9.4">pur</text>
                </lyric>
            </note>
            <note default-x="340">
                <pitch>
                    <step>A</step>
                    <alter>-1</alter>
                    <octave>4</octave>
                </pitch>
                <duration>1</duration>
                <voice>1</voice>
                <type>eighth</type>
                <accidental>flat</accidental>
                <stem default-y="28">up</stem>
                <beam number="1">end</beam>
                <lyric default-y="-84" number="1">
                    <syllabic>end</syllabic>
                    <text font-size="9.4">est</text>
                </lyric>
            </note>
        </measure>
        <measure width="174" number="8">
            <harmony default-y="41">
                <root>
                    <root-step>C</root-step>
                </root>
                <kind halign="center" text="7">dominant</kind>
            </harmony>
            <note default-x="13">
                <pitch>
                    <step>G</step>
                    <octave>4</octave>
                </pitch>
                <duration>6</duration>
                <voice>1</voice>
                <type>half</type>
                <dot/>
                <stem default-y="6">up</stem>
                <notations>
                    <articulations>
                        <tenuto default-y="14" default-x="-114" placement="above"/>
                    </articulations>
                </notations>
                <lyric default-y="-84" number="1">
                    <syllabic>single</syllabic>
                    <text font-size="9.4">gold.</text>
                </lyric>
            </note>
            <note default-x="114">
                <rest/>
                <duration>1</duration>
                <voice>1</voice>
                <type>eighth</type>
            </note>
        </measure>
        <measure width="887" number="9">
            <print new-system="yes">
                <system-layout>
                    <system-margins>
                        <left-margin>1</left-margin>
                        <right-margin>0</right-margin>
                    </system-margins>
                    <system-distance>140</system-distance>
                </system-layout>
            </print>
            <attributes>
                <staff-details>
                    <staff-size>116</staff-size>
                </staff-details>
            </attributes>
            <harmony default-y="30">
                <root>
                    <root-step>F</root-step>
                </root>
                <kind halign="center" text="">major</kind>
            </harmony>
            <note default-x="84">
                <pitch>
                    <step>C</step>
                    <octave>5</octave>
                </pitch>
                <duration>1</duration>
                <voice>1</voice>
                <type>eighth</type>
                <stem default-y="23.5">up</stem>
                <beam number="1">begin</beam>
                <lyric default-y="-87" number="1">
                    <syllabic>single</syllabic>
                    <text font-size="9.9">E</text>
                </lyric>
            </note>
            <note default-x="185">
                <pitch>
                    <step>A</step>
                    <octave>4</octave>
                </pitch>
                <duration>1</duration>
                <voice>1</voice>
                <type>eighth</type>
                <stem default-y="23.5">up</stem>
                <beam number="1">continue</beam>
                <lyric default-y="-87" number="1">
                    <syllabic>single</syllabic>
                    <text font-size="9.9">is</text>
                </lyric>
            </note>
            <note default-x="285">
                <pitch>
                    <step>B</step>
                    <alter>-1</alter>
                    <octave>4</octave>
                </pitch>
                <duration>1</duration>
                <voice>1</voice>
                <type>eighth</type>
                <stem default-y="23.5">up</stem>
                <beam number="1">continue</beam>
                <lyric default-y="-87" number="1">
                    <syllabic>single</syllabic>
                    <text font-size="9.9">for</text>
                </lyric>
            </note>
            <note default-x="385">
                <pitch>
                    <step>B</step>
                    <octave>4</octave>
                </pitch>
                <duration>1</duration>
                <voice>1</voice>
                <type>eighth</type>
                <accidental>natural</accidental>
                <stem default-y="23.5">up</stem>
                <beam number="1">end</beam>
                <lyric default-y="-87" number="1">
                    <syllabic>single</syllabic>
                    <text font-size="9.9">her</text>
                </lyric>
            </note>
            <note default-x="485">
                <pitch>
                    <step>C</step>
                    <octave>5</octave>
                </pitch>
                <duration>1</duration>
                <voice>1</voice>
                <type>eighth</type>
                <stem default-y="23.5">up</stem>
                <beam number="1">begin</beam>
                <lyric default-y="-87" number="1">
                    <syllabic>single</syllabic>
                    <text font-size="9.9">eyes</text>
                </lyric>
            </note>
            <note default-x="586">
                <pitch>
                    <step>F</step>
                    <octave>4</octave>
                </pitch>
                <duration>1</duration>
                <voice>1</voice>
                <type>eighth</type>
                <stem default-y="22">up</stem>
                <beam number="1">continue</beam>
                <lyric default-y="-87" number="1">
                    <syllabic>single</syllabic>
                    <text font-size="9.9">with</text>
                </lyric>
            </note>
            <harmony default-y="30">
                <root>
                    <root-step>F</root-step>
                </root>
                <kind halign="center" text="dim">diminished</kind>
            </harmony>
            <note default-x="686">
                <pitch>
                    <step>G</step>
                    <octave>4</octave>
                </pitch>
                <duration>1</duration>
                <voice>1</voice>
                <type>eighth</type>
                <stem default-y="19">up</stem>
                <beam number="1">continue</beam>
                <lyric default-y="-87" number="1">
                    <syllabic>begin</syllabic>
                    <text font-size="9.9">Love</text>
                </lyric>
            </note>
            <note default-x="786">
                <pitch>
                    <step>D</step>
                    <octave>4</octave>
                </pitch>
                <duration>1</duration>
                <voice>1</voice>
                <type>eighth</type>
                <stem default-y="17.5">up</stem>
                <beam number="1">end</beam>
                <lyric default-y="-87" number="1">
                    <syllabic>end</syllabic>
                    <text font-size="9.9">light</text>
                </lyric>
            </note>
        </measure>
        <measure width="324" number="10">
            <harmony default-y="30">
                <root>
                    <root-step>C</root-step>
                </root>
                <kind halign="center" text="7">dominant</kind>
            </harmony>
            <note default-x="14">
                <pitch>
                    <step>F</step>
                    <octave>4</octave>
                </pitch>
                <duration>4</duration>
                <voice>1</voice>
                <type>half</type>
                <stem default-y="0.5">up</stem>
                <lyric default-y="-87" number="1">
                    <syllabic>begin</syllabic>
                    <text font-size="9.9">shin</text>
                </lyric>
            </note>
            <note default-x="154">
                <pitch>
                    <step>E</step>
                    <octave>4</octave>
                </pitch>
                <duration>3</duration>
                <voice>1</voice>
                <type>quarter</type>
                <dot/>
                <stem default-y="-5">up</stem>
                <lyric relative-x="7" default-y="-87" number="1">
                    <syllabic>end</syllabic>
                    <text font-size="9.9">ing,</text>
                </lyric>
            </note>
            <note default-x="269">
                <rest/>
                <duration>1</duration>
                <voice>1</voice>
                <type>eighth</type>
            </note>
        </measure>
        <measure width="582" number="11">
            <print new-system="yes">
                <system-layout>
                    <system-margins>
                        <left-margin>0</left-margin>
                        <right-margin>1</right-margin>
                    </system-margins>
                    <system-distance>148</system-distance>
                </system-layout>
            </print>
            <note default-x="82">
                <pitch>
                    <step>G</step>
                    <octave>4</octave>
                </pitch>
                <duration>1</duration>
                <voice>1</voice>
                <type>eighth</type>
                <stem default-y="6">up</stem>
                <beam number="1">begin</beam>
                <lyric default-y="-87" number="1">
                    <syllabic>single</syllabic>
                    <text font-size="9.9">R</text>
                </lyric>
            </note>
            <note default-x="144">
                <pitch>
                    <step>G</step>
                    <octave>4</octave>
                </pitch>
                <duration>1</duration>
                <voice>1</voice>
                <type>eighth</type>
                <stem default-y="6">up</stem>
                <beam number="1">continue</beam>
                <lyric default-y="-87" number="1">
                    <syllabic>single</syllabic>
                    <text font-size="9.9">means</text>
                </lyric>
            </note>
            <note default-x="207">
                <pitch>
                    <step>F</step>
                    <alter>1</alter>
                    <octave>4</octave>
                </pitch>
                <duration>1</duration>
                <voice>1</voice>
                <type>eighth</type>
                <accidental>sharp</accidental>
                <stem default-y="6">up</stem>
                <beam number="1">continue</beam>
                <lyric default-y="-87" number="1">
                    <syllabic>single</syllabic>
                    <text font-size="9.9">right</text>
                </lyric>
            </note>
            <note default-x="269">
                <pitch>
                    <step>G</step>
                    <octave>4</octave>
                </pitch>
                <duration>1</duration>
                <voice>1</voice>
                <type>eighth</type>
                <stem default-y="6">up</stem>
                <beam number="1">end</beam>
                <lyric default-y="-87" number="1">
                    <syllabic>single</syllabic>
                    <text font-size="9.9">and</text>
                </lyric>
            </note>
            <note default-x="332">
                <pitch>
                    <step>C</step>
                    <octave>5</octave>
                </pitch>
                <duration>1</duration>
                <voice>1</voice>
                <type>eighth</type>
                <stem default-y="23">up</stem>
                <beam number="1">begin</beam>
                <lyric default-y="-87" number="1">
                    <syllabic>single</syllabic>
                    <text font-size="9.9">right</text>
                </lyric>
            </note>
            <note default-x="394">
                <pitch>
                    <step>G</step>
                    <octave>4</octave>
                </pitch>
                <duration>1</duration>
                <voice>1</voice>
                <type>eighth</type>
                <stem default-y="21.5">up</stem>
                <beam number="1">continue</beam>
                <lyric default-y="-87" number="1">
                    <syllabic>single</syllabic>
                    <text font-size="9.9">she'll</text>
                </lyric>
            </note>
            <note default-x="457">
                <pitch>
                    <step>A</step>
                    <octave>4</octave>
                </pitch>
                <duration>1</duration>
                <voice>1</voice>
                <type>eighth</type>
                <stem default-y="19">up</stem>
                <beam number="1">continue</beam>
                <lyric default-y="-87" number="1">
                    <syllabic>begin</syllabic>
                    <text font-size="9.9">al</text>
                </lyric>
            </note>
            <harmony default-y="35">
                <root>
                    <root-step>G</root-step>
                </root>
                <kind halign="center" text="m">minor</kind>
            </harmony>
            <note default-x="519">
                <pitch>
                    <step>B</step>
                    <alter>-1</alter>
                    <octave>4</octave>
                </pitch>
                <duration>1</duration>
                <voice>1</voice>
                <type>eighth</type>
                <stem default-y="17.5">up</stem>
                <beam number="1">end</beam>
                <lyric default-y="-87" number="1">
                    <syllabic>end</syllabic>
                    <text font-size="9.9">ways</text>
                </lyric>
            </note>
        </measure>
        <measure width="171" number="12">
            <harmony default-y="35">
                <root>
                    <root-step>A</root-step>
                </root>
                <kind halign="center" text="">major</kind>
            </harmony>
            <note default-x="13">
                <pitch>
                    <step>A</step>
                    <octave>4</octave>
                </pitch>
                <duration>6</duration>
                <voice>1</voice>
                <type>half</type>
                <dot/>
                <stem default-y="12">up</stem>
                <lyric default-y="-87" number="1">
                    <syllabic>single</syllabic>
                    <text font-size="9.9">be,</text>
                </lyric>
            </note>
            <note default-x="113">
                <rest/>
                <duration>1</duration>
                <voice>1</voice>
                <type>eighth</type>
            </note>
        </measure>
        <measure width="458" number="13">
            <harmony default-y="35">
                <root>
                    <root-step>D</root-step>
                </root>
                <kind halign="center" text="dim">diminished</kind>
            </harmony>
            <note default-x="28">
                <pitch>
                    <step>A</step>
                    <alter>-1</alter>
                    <octave>4</octave>
                </pitch>
                <duration>1</duration>
                <voice>1</voice>
                <type>eighth</type>
                <accidental>flat</accidental>
                <stem default-y="11.5">up</stem>
                <beam number="1">begin</beam>
                <lyric default-y="-87" number="1">
                    <syllabic>single</syllabic>
                    <text font-size="9.9">Put</text>
                </lyric>
            </note>
            <note default-x="81">
                <pitch>
                    <step>A</step>
                    <alter>-1</alter>
                    <octave>4</octave>
                </pitch>
                <duration>1</duration>
                <voice>1</voice>
                <type>eighth</type>
                <stem default-y="11.5">up</stem>
                <beam number="1">continue</beam>
                <lyric default-y="-87" number="1">
                    <syllabic>single</syllabic>
                    <text font-size="9.9">them</text>
                </lyric>
            </note>
            <note default-x="134">
                <pitch>
                    <step>G</step>
                    <octave>4</octave>
                </pitch>
                <duration>1</duration>
                <voice>1</voice>
                <type>eighth</type>
                <stem default-y="11.5">up</stem>
                <beam number="1">continue</beam>
                <lyric default-y="-87" number="1">
                    <syllabic>single</syllabic>
                    <text font-size="9.9">all</text>
                </lyric>
            </note>
            <note default-x="188">
                <pitch>
                    <step>F</step>
                    <octave>4</octave>
                </pitch>
                <duration>1</duration>
                <voice>1</voice>
                <type>eighth</type>
                <stem default-y="11.5">up</stem>
                <beam number="1">end</beam>
                <lyric default-y="-87" number="1">
                    <syllabic>begin</syllabic>
                    <text font-size="9.9">to</text>
                </lyric>
            </note>
            <harmony default-y="35">
                <root>
                    <root-step>D</root-step>
                    <root-alter>-1</root-alter>
                </root>
                <kind halign="center" text="7">dominant</kind>
            </harmony>
            <note default-x="242">
                <pitch>
                    <step>A</step>
                    <alter>-1</alter>
                    <octave>4</octave>
                </pitch>
                <duration>1</duration>
                <voice>1</voice>
                <type>eighth</type>
                <stem default-y="11.5">up</stem>
                <beam number="1">begin</beam>
                <lyric default-y="-87" number="1">
                    <syllabic>middle</syllabic>
                    <text font-size="9.9">geth</text>
                </lyric>
            </note>
            <note default-x="296">
                <pitch>
                    <step>A</step>
                    <alter>-1</alter>
                    <octave>4</octave>
                </pitch>
                <duration>1</duration>
                <voice>1</voice>
                <type>eighth</type>
                <stem default-y="11.5">up</stem>
                <beam number="1">continue</beam>
                <lyric default-y="-87" number="1">
                    <syllabic>end</syllabic>
                    <text font-size="9.9">er</text>
                </lyric>
            </note>
            <note default-x="349">
                <pitch>
                    <step>G</step>
                    <octave>4</octave>
                </pitch>
                <duration>1</duration>
                <voice>1</voice>
                <type>eighth</type>
                <stem default-y="11.5">up</stem>
                <beam number="1">continue</beam>
                <lyric default-y="-87" number="1">
                    <syllabic>single</syllabic>
                    <text font-size="9.9">they</text>
                </lyric>
            </note>
            <note default-x="403">
                <pitch>
                    <step>F</step>
                    <octave>4</octave>
                </pitch>
                <duration>1</duration>
                <voice>1</voice>
                <type>eighth</type>
                <stem default-y="11.5">up</stem>
                <beam number="1">end</beam>
                <lyric default-y="-87" number="1">
                    <syllabic>single</syllabic>
                    <text font-size="9.9">spell</text>
                </lyric>
            </note>
        </measure>
        <measure width="381" number="14">
            <print new-system="yes">
                <system-layout>
                    <system-margins>
                        <left-margin>1</left-margin>
                        <right-margin>0</right-margin>
                    </system-margins>
                    <system-distance>165</system-distance>
                </system-layout>
            </print>
            <harmony default-y="31">
                <root>
                    <root-step>F</root-step>
                </root>
                <kind halign="center" text="">major</kind>
            </harmony>
            <note default-x="85">
                <pitch>
                    <step>C</step>
                    <octave>5</octave>
                </pitch>
                <duration>4</duration>
                <voice>1</voice>
                <type>half</type>
                <stem default-y="-58">down</stem>
                <lyric relative-x="11" default-y="-87" number="1">
                    <syllabic>begin</syllabic>
                    <text font-size="9.9">MOTH</text>
                </lyric>
            </note>
            <harmony default-y="29">
                <root>
                    <root-step>D</root-step>
                </root>
                <kind halign="center" text="7">dominant</kind>
            </harmony>
            <note default-x="219">
                <pitch>
                    <step>A</step>
                    <octave>4</octave>
                </pitch>
                <duration>3</duration>
                <voice>1</voice>
                <type>quarter</type>
                <dot/>
                <accidental>natural</accidental>
                <stem default-y="12">up</stem>
                <lyric default-y="-87" number="1">
                    <syllabic>end</syllabic>
                    <text font-size="9.9">ER</text>
                </lyric>
            </note>
            <note default-x="330">
                <pitch>
                    <step>A</step>
                    <octave>4</octave>
                </pitch>
                <duration>1</duration>
                <voice>1</voice>
                <type>eighth</type>
                <stem default-y="12">up</stem>
                <lyric default-y="-87" number="1">
                    <syllabic>single</syllabic>
                    <text font-size="9.9">A</text>
                </lyric>
            </note>
        </measure>
        <measure width="587" number="15">
            <harmony default-y="29">
                <root>
                    <root-step>G</root-step>
                </root>
                <kind halign="center" text="m">minor</kind>
            </harmony>
            <note default-x="13">
                <pitch>
                    <step>G</step>
                    <octave>4</octave>
                </pitch>
                <duration>1</duration>
                <voice>1</voice>
                <type>eighth</type>
                <stem default-y="17.5">up</stem>
                <beam number="1">begin</beam>
                <lyric default-y="-87" number="1">
                    <syllabic>single</syllabic>
                    <text font-size="9.9">word</text>
                </lyric>
            </note>
            <note default-x="93">
                <pitch>
                    <step>A</step>
                    <octave>4</octave>
                </pitch>
                <duration>1</duration>
                <voice>1</voice>
                <type>eighth</type>
                <stem default-y="19">up</stem>
                <beam number="1">continue</beam>
                <lyric default-y="-87" number="1">
                    <syllabic>single</syllabic>
                    <text font-size="9.9">that</text>
                </lyric>
            </note>
            <note default-x="172">
                <pitch>
                    <step>B</step>
                    <alter>-1</alter>
                    <octave>4</octave>
                </pitch>
                <duration>1</duration>
                <voice>1</voice>
                <type>eighth</type>
                <stem default-y="21.5">up</stem>
                <beam number="1">continue</beam>
                <lyric default-y="-87" number="1">
                    <syllabic>single</syllabic>
                    <text font-size="9.9">means</text>
                </lyric>
            </note>
            <note default-x="251">
                <pitch>
                    <step>C</step>
                    <octave>5</octave>
                </pitch>
                <duration>1</duration>
                <voice>1</voice>
                <type>eighth</type>
                <stem default-y="23">up</stem>
                <beam number="1">end</beam>
                <lyric default-y="-87" number="1">
                    <syllabic>single</syllabic>
                    <text font-size="9.9">the</text>
                </lyric>
            </note>
            <harmony default-y="29">
                <root>
                    <root-step>G</root-step>
                </root>
                <kind halign="center" text="7">dominant</kind>
            </harmony>
            <note default-x="330">
                <pitch>
                    <step>D</step>
                    <octave>5</octave>
                </pitch>
                <duration>2</duration>
                <voice>1</voice>
                <type>quarter</type>
                <stem default-y="-52.5">down</stem>
                <lyric default-y="-87" number="1">
                    <syllabic>single</syllabic>
                    <text font-size="9.9">world</text>
                </lyric>
            </note>
            <harmony default-y="29">
                <root>
                    <root-step>C</root-step>
                </root>
                <kind halign="center" text="7">dominant</kind>
            </harmony>
            <note default-x="458">
                <pitch>
                    <step>C</step>
                    <octave>5</octave>
                </pitch>
                <duration>2</duration>
                <voice>1</voice>
                <type>quarter</type>
                <stem default-y="-58">down</stem>
                <lyric default-y="-87" number="1">
                    <syllabic>single</syllabic>
                    <text font-size="9.9">to</text>
                </lyric>
            </note>
        </measure>
        <measure width="243" number="16">
            <harmony default-y="27">
                <root>
                    <root-step>F</root-step>
                </root>
                <kind halign="center" text="">major</kind>
            </harmony>
            <note default-x="14">
                <pitch>
                    <step>F</step>
                    <octave>5</octave>
                </pitch>
                <duration>6</duration>
                <voice>1</voice>
                <type>half</type>
                <dot/>
                <stem default-y="-41">down</stem>
                <lyric default-y="-87" number="1">
                    <syllabic>single</syllabic>
                    <text font-size="9.9">me.</text>
                </lyric>
            </note>
            <note default-x="166">
                <rest/>
                <duration>2</duration>
                <voice>1</voice>
                <type>quarter</type>
            </note>
            <barline location="right">
                <bar-style>light-light</bar-style>
            </barline>
        </measure>
    </part>
</score-partwise>
