<?xml version="1.0" encoding="UTF-8"?>
<!DOCTYPE score-partwise PUBLIC "-//Recordare//DTD MusicXML 2.0 Partwise//EN" "http://www.musicxml.org/dtds/partwise.dtd">
<score-partwise version="2.0">
    <work>
        <work-number></work-number>
        <work-title></work-title>
    </work>
    <movement-number></movement-number>
    <movement-title>Out Of Nowhere</movement-title>
    <identification>
        <creator type="composer">Johnny Green</creator>
        <creator type="poet">Edward Heyman</creator>
        <rights>All Rights Reserved</rights>
        <encoding>
            <software>MuseScore 1.0</software>
            <encoding-date>2012-02-02</encoding-date>
            <software>ProxyMusic 2.0 c</software>
        </encoding>
        <source>http://wikifonia.org/node/14448/revisions/19366/view</source>
    </identification>
    <defaults>
        <scaling>
            <millimeters>7.056</millimeters>
            <tenths>40</tenths>
        </scaling>
        <page-layout>
            <page-height>1683.67</page-height>
            <page-width>1190.48</page-width>
            <page-margins type="even">
                <left-margin>56.6893</left-margin>
                <right-margin>56.6893</right-margin>
                <top-margin>56.6893</top-margin>
                <bottom-margin>113.379</bottom-margin>
            </page-margins>
            <page-margins type="odd">
                <left-margin>56.6893</left-margin>
                <right-margin>56.6893</right-margin>
                <top-margin>56.6893</top-margin>
                <bottom-margin>113.379</bottom-margin>
            </page-margins>
        </page-layout>
    </defaults>
    <credit page="1">
        <credit-words font-size="24" default-y="1626.98" default-x="595.238" justify="center" valign="top">Out Of Nowhere</credit-words>
    </credit>
    <part-list>
        <part-group type="start" number="1">
            <group-symbol>brace</group-symbol>
        </part-group>
        <score-part id="P1">
            <part-name>Piano</part-name>
            <part-abbreviation>Pno.</part-abbreviation>
            <score-instrument id="P1-I3">
                <instrument-name>Piano</instrument-name>
            </score-instrument>
            <midi-instrument id="P1-I3">
                <midi-channel>1</midi-channel>
                <midi-program>1</midi-program>
            </midi-instrument>
        </score-part>
    </part-list>
    <part id="P1">
        <measure width="318.19" number="1">
            <print>
                <system-layout>
                    <system-margins>
                        <left-margin>87.10</left-margin>
                        <right-margin>0.00</right-margin>
                    </system-margins>
                    <top-system-distance>228.77</top-system-distance>
                </system-layout>
            </print>
            <barline location="left">
                <bar-style>heavy-light</bar-style>
                <repeat direction="forward"/>
            </barline>
            <attributes>
                <divisions>6</divisions>
                <key>
                    <fifths>1</fifths>
                    <mode>major</mode>
                </key>
                <time>
                    <beats>4</beats>
                    <beat-type>4</beat-type>
                </time>
                <clef>
                    <sign>G</sign>
                    <line>2</line>
                </clef>
            </attributes>
            <harmony print-frame="no">
                <root>
                    <root-step>G</root-step>
                </root>
                <kind text="">major</kind>
            </harmony>
            <note default-y="-45.00" default-x="111.56">
                <pitch>
                    <step>D</step>
                    <octave>4</octave>
                </pitch>
                <duration>3</duration>
                <voice>1</voice>
                <type>eighth</type>
                <stem>up</stem>
                <beam number="1">begin</beam>
                <lyric number="1">
                    <syllabic>single</syllabic>
                    <text>You</text>
                </lyric>
            </note>
            <note default-y="-40.00" default-x="161.65">
                <pitch>
                    <step>E</step>
                    <octave>4</octave>
                </pitch>
                <duration>3</duration>
                <voice>1</voice>
                <type>eighth</type>
                <stem>up</stem>
                <beam number="1">continue</beam>
                <lyric number="1">
                    <syllabic>single</syllabic>
                    <text>came</text>
                </lyric>
            </note>
            <note default-y="-35.00" default-x="202.03">
                <pitch>
                    <step>F</step>
                    <alter>1</alter>
                    <octave>4</octave>
                </pitch>
                <duration>3</duration>
                <voice>1</voice>
                <type>eighth</type>
                <stem>up</stem>
                <beam number="1">continue</beam>
                <lyric number="1">
                    <syllabic>single</syllabic>
                    <text>to</text>
                </lyric>
            </note>
            <note default-y="-25.00" default-x="226.83">
                <pitch>
                    <step>A</step>
                    <octave>4</octave>
                </pitch>
                <duration>3</duration>
                <tie type="start"/>
                <voice>1</voice>
                <type>eighth</type>
                <stem>up</stem>
                <beam number="1">end</beam>
                <notations>
                    <tied type="start"/>
                </notations>
                <lyric number="1">
                    <syllabic>single</syllabic>
                    <text>me</text>
                    <extend/>
                </lyric>
            </note>
            <note default-y="-25.00" default-x="262.03">
                <pitch>
                    <step>A</step>
                    <octave>4</octave>
                </pitch>
                <duration>12</duration>
                <tie type="stop"/>
                <tie type="start"/>
                <voice>1</voice>
                <type>half</type>
                <stem>up</stem>
                <notations>
                    <tied type="stop"/>
                    <tied type="start"/>
                </notations>
            </note>
        </measure>
        <measure width="193.17" number="2">
            <note default-y="-25.00" default-x="12.00">
                <pitch>
                    <step>A</step>
                    <octave>4</octave>
                </pitch>
                <duration>6</duration>
                <tie type="stop"/>
                <voice>1</voice>
                <type>quarter</type>
                <stem>up</stem>
                <notations>
                    <tied type="stop"/>
                </notations>
            </note>
            <note default-y="-30.00" default-x="56.89">
                <pitch>
                    <step>G</step>
                    <octave>4</octave>
                </pitch>
                <duration>6</duration>
                <voice>1</voice>
                <type>quarter</type>
                <stem>up</stem>
                <lyric number="1">
                    <syllabic>single</syllabic>
                    <text>from</text>
                </lyric>
            </note>
            <note default-y="-45.00" default-x="101.79">
                <pitch>
                    <step>D</step>
                    <octave>4</octave>
                </pitch>
                <duration>6</duration>
                <voice>1</voice>
                <type>quarter</type>
                <stem>up</stem>
                <lyric number="1">
                    <syllabic>single</syllabic>
                    <text>out</text>
                </lyric>
            </note>
            <note default-y="-40.00" default-x="146.68">
                <pitch>
                    <step>E</step>
                    <octave>4</octave>
                </pitch>
                <duration>6</duration>
                <voice>1</voice>
                <type>quarter</type>
                <stem>up</stem>
                <lyric number="1">
                    <syllabic>single</syllabic>
                    <text>of</text>
                </lyric>
            </note>
        </measure>
        <measure width="149.90" number="3">
            <harmony print-frame="no">
                <root>
                    <root-step>B</root-step>
                    <root-alter>-1</root-alter>
                </root>
                <kind text="m7">minor-seventh</kind>
            </harmony>
            <note default-y="-35.00" default-x="16.61">
                <pitch>
                    <step>F</step>
                    <octave>4</octave>
                </pitch>
                <duration>12</duration>
                <voice>1</voice>
                <type>half</type>
                <accidental>natural</accidental>
                <stem>up</stem>
                <lyric number="1">
                    <syllabic>begin</syllabic>
                    <text>no</text>
                </lyric>
            </note>
            <note default-y="-35.00" default-x="72.80">
                <pitch>
                    <step>F</step>
                    <octave>4</octave>
                </pitch>
                <duration>12</duration>
                <tie type="start"/>
                <voice>1</voice>
                <type>half</type>
                <stem>up</stem>
                <notations>
                    <tied type="start"/>
                </notations>
                <lyric number="1">
                    <syllabic>end</syllabic>
                    <text>where,</text>
                    <extend/>
                </lyric>
            </note>
        </measure>
        <measure width="81.69" number="4">
            <harmony print-frame="no">
                <root>
                    <root-step>E</root-step>
                    <root-alter>-1</root-alter>
                </root>
                <kind text="7">dominant</kind>
            </harmony>
            <note default-y="-35.00" default-x="12.00">
                <pitch>
                    <step>F</step>
                    <octave>4</octave>
                </pitch>
                <duration>24</duration>
                <tie type="stop"/>
                <voice>1</voice>
                <type>whole</type>
                <notations>
                    <tied type="stop"/>
                </notations>
            </note>
        </measure>
        <measure width="247.04" number="5">
            <harmony print-frame="no">
                <root>
                    <root-step>G</root-step>
                </root>
                <kind text="">major</kind>
            </harmony>
            <note default-y="-45.00" default-x="22.44">
                <pitch>
                    <step>D</step>
                    <octave>4</octave>
                </pitch>
                <duration>3</duration>
                <voice>1</voice>
                <type>eighth</type>
                <stem>up</stem>
                <beam number="1">begin</beam>
                <lyric number="1">
                    <syllabic>single</syllabic>
                    <text>you</text>
                </lyric>
            </note>
            <note default-y="-40.00" default-x="67.35">
                <pitch>
                    <step>E</step>
                    <octave>4</octave>
                </pitch>
                <duration>3</duration>
                <voice>1</voice>
                <type>eighth</type>
                <stem>up</stem>
                <beam number="1">continue</beam>
                <lyric number="1">
                    <syllabic>single</syllabic>
                    <text>took</text>
                </lyric>
            </note>
            <note default-y="-35.00" default-x="109.67">
                <pitch>
                    <step>F</step>
                    <alter>1</alter>
                    <octave>4</octave>
                </pitch>
                <duration>3</duration>
                <voice>1</voice>
                <type>eighth</type>
                <stem>up</stem>
                <beam number="1">continue</beam>
                <lyric number="1">
                    <syllabic>single</syllabic>
                    <text>my</text>
                </lyric>
            </note>
            <note default-y="-25.00" default-x="135.43">
                <pitch>
                    <step>A</step>
                    <octave>4</octave>
                </pitch>
                <duration>3</duration>
                <tie type="start"/>
                <voice>1</voice>
                <type>eighth</type>
                <stem>up</stem>
                <beam number="1">end</beam>
                <notations>
                    <tied type="start"/>
                </notations>
                <lyric number="1">
                    <syllabic>single</syllabic>
                    <text>heart</text>
                    <extend/>
                </lyric>
            </note>
            <note default-y="-25.00" default-x="188.76">
                <pitch>
                    <step>A</step>
                    <octave>4</octave>
                </pitch>
                <duration>12</duration>
                <tie type="stop"/>
                <tie type="start"/>
                <voice>1</voice>
                <type>half</type>
                <stem>up</stem>
                <notations>
                    <tied type="stop"/>
                    <tied type="start"/>
                </notations>
            </note>
        </measure>
        <measure width="317.47" number="6">
            <print new-system="yes">
                <system-layout>
                    <system-margins>
                        <left-margin>75.53</left-margin>
                        <right-margin>-0.00</right-margin>
                    </system-margins>
                    <system-distance>153.73</system-distance>
                </system-layout>
            </print>
            <note default-y="-25.00" default-x="64.15">
                <pitch>
                    <step>A</step>
                    <octave>4</octave>
                </pitch>
                <duration>6</duration>
                <tie type="stop"/>
                <voice>1</voice>
                <type>quarter</type>
                <stem>up</stem>
                <notations>
                    <tied type="stop"/>
                </notations>
            </note>
            <note default-y="-30.00" default-x="127.08">
                <pitch>
                    <step>G</step>
                    <octave>4</octave>
                </pitch>
                <duration>6</duration>
                <voice>1</voice>
                <type>quarter</type>
                <stem>up</stem>
                <lyric number="1">
                    <syllabic>single</syllabic>
                    <text>and</text>
                </lyric>
            </note>
            <note default-y="-45.00" default-x="190.01">
                <pitch>
                    <step>D</step>
                    <octave>4</octave>
                </pitch>
                <duration>6</duration>
                <voice>1</voice>
                <type>quarter</type>
                <stem>up</stem>
                <lyric number="1">
                    <syllabic>single</syllabic>
                    <text>found</text>
                </lyric>
            </note>
            <note default-y="-40.00" default-x="252.94">
                <pitch>
                    <step>E</step>
                    <octave>4</octave>
                </pitch>
                <duration>6</duration>
                <voice>1</voice>
                <type>quarter</type>
                <stem>up</stem>
                <lyric number="1">
                    <syllabic>single</syllabic>
                    <text>it</text>
                </lyric>
            </note>
        </measure>
        <measure width="175.97" number="7">
            <harmony print-frame="no">
                <root>
                    <root-step>B</root-step>
                </root>
                <kind text="m7">minor-seventh</kind>
            </harmony>
            <harmony relative-x="3400.00" print-frame="no">
                <root>
                    <root-step>E</root-step>
                </root>
                <kind text="9">dominant-ninth</kind>
            </harmony>
            <note default-y="-35.00" default-x="17.50">
                <pitch>
                    <step>F</step>
                    <alter>1</alter>
                    <octave>4</octave>
                </pitch>
                <duration>24</duration>
                <tie type="start"/>
                <voice>1</voice>
                <type>whole</type>
                <notations>
                    <tied type="start"/>
                </notations>
                <lyric number="1">
                    <syllabic>single</syllabic>
                    <text>free.</text>
                    <extend/>
                </lyric>
            </note>
        </measure>
        <measure width="164.09" number="8">
            <harmony print-frame="no">
                <root>
                    <root-step>B</root-step>
                </root>
                <kind text="m7">minor-seventh</kind>
            </harmony>
            <note default-y="-35.00" default-x="17.50">
                <pitch>
                    <step>F</step>
                    <alter>1</alter>
                    <octave>4</octave>
                </pitch>
                <duration>12</duration>
                <tie type="stop"/>
                <voice>1</voice>
                <type>half</type>
                <stem>up</stem>
                <notations>
                    <tied type="stop"/>
                </notations>
            </note>
            <harmony print-frame="no">
                <root>
                    <root-step>E</root-step>
                </root>
                <kind text="7">dominant</kind>
            </harmony>
            <note>
                <rest/>
                <duration>12</duration>
                <voice>1</voice>
                <type>half</type>
            </note>
        </measure>
        <measure width="344.03" number="9">
            <harmony print-frame="no">
                <root>
                    <root-step>A</root-step>
                </root>
                <kind text="m7">minor-seventh</kind>
            </harmony>
            <note default-y="-40.00" default-x="40.48">
                <pitch>
                    <step>E</step>
                    <octave>4</octave>
                </pitch>
                <duration>3</duration>
                <voice>1</voice>
                <type>eighth</type>
                <stem>up</stem>
                <beam number="1">begin</beam>
                <lyric number="1">
                    <syllabic>begin</syllabic>
                    <text>Won</text>
                </lyric>
            </note>
            <note default-y="-35.00" default-x="83.70">
                <pitch>
                    <step>F</step>
                    <octave>4</octave>
                </pitch>
                <duration>3</duration>
                <voice>1</voice>
                <type>eighth</type>
                <accidental>natural</accidental>
                <stem>up</stem>
                <beam number="1">continue</beam>
                <lyric number="1">
                    <syllabic>middle</syllabic>
                    <text>der</text>
                </lyric>
            </note>
            <note default-y="-40.00" default-x="126.28">
                <pitch>
                    <step>E</step>
                    <octave>4</octave>
                </pitch>
                <duration>3</duration>
                <voice>1</voice>
                <type>eighth</type>
                <stem>up</stem>
                <beam number="1">continue</beam>
                <lyric number="1">
                    <syllabic>end</syllabic>
                    <text>ful</text>
                </lyric>
            </note>
            <note default-y="-15.00" default-x="168.87">
                <pitch>
                    <step>C</step>
                    <octave>5</octave>
                </pitch>
                <duration>3</duration>
                <tie type="start"/>
                <voice>1</voice>
                <type>eighth</type>
                <stem>up</stem>
                <beam number="1">end</beam>
                <notations>
                    <tied type="start"/>
                </notations>
                <lyric number="1">
                    <syllabic>single</syllabic>
                    <text>dreams,</text>
                    <extend/>
                </lyric>
            </note>
            <note default-y="-15.00" default-x="248.75">
                <pitch>
                    <step>C</step>
                    <octave>5</octave>
                </pitch>
                <duration>12</duration>
                <tie type="stop"/>
                <voice>1</voice>
                <type>half</type>
                <stem>down</stem>
                <notations>
                    <tied type="stop"/>
                </notations>
            </note>
        </measure>
        <measure width="356.09" number="10">
            <print new-system="yes">
                <system-layout>
                    <system-margins>
                        <left-margin>75.53</left-margin>
                        <right-margin>0.00</right-margin>
                    </system-margins>
                    <system-distance>153.73</system-distance>
                </system-layout>
            </print>
            <harmony print-frame="no">
                <root>
                    <root-step>B</root-step>
                </root>
                <kind text="m7b5">half-diminished</kind>
            </harmony>
            <note default-y="-40.00" default-x="85.58">
                <pitch>
                    <step>E</step>
                    <octave>4</octave>
                </pitch>
                <duration>3</duration>
                <voice>1</voice>
                <type>eighth</type>
                <stem>up</stem>
                <beam number="1">begin</beam>
                <lyric number="1">
                    <syllabic>begin</syllabic>
                    <text>won</text>
                </lyric>
            </note>
            <note default-y="-30.00" default-x="127.25">
                <pitch>
                    <step>G</step>
                    <octave>4</octave>
                </pitch>
                <duration>3</duration>
                <voice>1</voice>
                <type>eighth</type>
                <stem>up</stem>
                <beam number="1">continue</beam>
                <lyric number="1">
                    <syllabic>middle</syllabic>
                    <text>der</text>
                </lyric>
            </note>
            <note default-y="-40.00" default-x="161.80">
                <pitch>
                    <step>E</step>
                    <octave>4</octave>
                </pitch>
                <duration>3</duration>
                <voice>1</voice>
                <type>eighth</type>
                <stem>up</stem>
                <beam number="1">continue</beam>
                <lyric number="1">
                    <syllabic>end</syllabic>
                    <text>ful</text>
                </lyric>
            </note>
            <harmony print-frame="no">
                <root>
                    <root-step>E</root-step>
                </root>
                <kind text="7">dominant</kind>
            </harmony>
            <note default-y="-20.00" default-x="187.10">
                <pitch>
                    <step>B</step>
                    <octave>4</octave>
                </pitch>
                <duration>3</duration>
                <tie type="start"/>
                <voice>1</voice>
                <type>eighth</type>
                <stem>up</stem>
                <beam number="1">end</beam>
                <notations>
                    <tied type="start"/>
                </notations>
                <lyric number="1">
                    <syllabic>single</syllabic>
                    <text>schemes</text>
                    <extend/>
                </lyric>
            </note>
            <note default-y="-20.00" default-x="272.84">
                <pitch>
                    <step>B</step>
                    <octave>4</octave>
                </pitch>
                <duration>6</duration>
                <tie type="stop"/>
                <voice>1</voice>
                <type>quarter</type>
                <stem>down</stem>
                <notations>
                    <tied type="stop"/>
                </notations>
            </note>
            <note default-y="-40.00" default-x="314.02">
                <pitch>
                    <step>E</step>
                    <octave>4</octave>
                </pitch>
                <duration>6</duration>
                <voice>1</voice>
                <type>quarter</type>
                <stem>up</stem>
                <lyric number="1">
                    <syllabic>single</syllabic>
                    <text>from</text>
                </lyric>
            </note>
        </measure>
        <measure width="75.36" number="11">
            <harmony print-frame="no">
                <root>
                    <root-step>A</root-step>
                </root>
                <kind text="m7">minor-seventh</kind>
            </harmony>
            <note default-y="-20.00" default-x="30.51">
                <pitch>
                    <step>B</step>
                    <octave>4</octave>
                </pitch>
                <duration>24</duration>
                <voice>1</voice>
                <type>whole</type>
                <lyric number="1">
                    <syllabic>begin</syllabic>
                    <text>no</text>
                </lyric>
            </note>
        </measure>
        <measure width="102.23" number="12">
            <note default-y="-25.00" default-x="47.34">
                <pitch>
                    <step>A</step>
                    <octave>4</octave>
                </pitch>
                <duration>24</duration>
                <voice>1</voice>
                <type>whole</type>
                <lyric number="1">
                    <syllabic>end</syllabic>
                    <text>where</text>
                </lyric>
            </note>
        </measure>
        <measure width="209.84" number="13">
            <harmony print-frame="no">
                <root>
                    <root-step>E</root-step>
                    <root-alter>-1</root-alter>
                </root>
                <kind text="7">dominant</kind>
            </harmony>
            <note default-y="-20.00" default-x="44.11">
                <pitch>
                    <step>B</step>
                    <alter>-1</alter>
                    <octave>4</octave>
                </pitch>
                <duration>4</duration>
                <voice>1</voice>
                <type>quarter</type>
                <accidental>flat</accidental>
                <time-modification>
                    <actual-notes>3</actual-notes>
                    <normal-notes>2</normal-notes>
                </time-modification>
                <stem>down</stem>
                <notations>
                    <tuplet type="start" bracket="yes"/>
                </notations>
                <lyric number="1">
                    <syllabic>single</syllabic>
                    <text>made</text>
                </lyric>
            </note>
            <note default-y="-25.00" default-x="87.07">
                <pitch>
                    <step>A</step>
                    <octave>4</octave>
                </pitch>
                <duration>4</duration>
                <voice>1</voice>
                <type>quarter</type>
                <time-modification>
                    <actual-notes>3</actual-notes>
                    <normal-notes>2</normal-notes>
                </time-modification>
                <stem>up</stem>
                <lyric number="1">
                    <syllabic>begin</syllabic>
                    <text>ev</text>
                </lyric>
            </note>
            <note default-y="-30.00" default-x="117.41">
                <pitch>
                    <step>G</step>
                    <octave>4</octave>
                </pitch>
                <duration>4</duration>
                <voice>1</voice>
                <type>quarter</type>
                <time-modification>
                    <actual-notes>3</actual-notes>
                    <normal-notes>2</normal-notes>
                </time-modification>
                <stem>up</stem>
                <notations>
                    <tuplet type="stop"/>
                </notations>
                <lyric number="1">
                    <syllabic>end</syllabic>
                    <text>'ry</text>
                </lyric>
            </note>
            <note default-y="-30.00" default-x="159.69">
                <pitch>
                    <step>G</step>
                    <octave>4</octave>
                </pitch>
                <duration>12</duration>
                <voice>1</voice>
                <type>half</type>
                <stem>up</stem>
                <lyric number="1">
                    <syllabic>single</syllabic>
                    <text>hour,</text>
                </lyric>
            </note>
        </measure>
        <measure width="258.04" number="14">
            <note default-y="-30.00" default-x="45.41">
                <pitch>
                    <step>G</step>
                    <octave>4</octave>
                </pitch>
                <duration>4</duration>
                <voice>1</voice>
                <type>quarter</type>
                <time-modification>
                    <actual-notes>3</actual-notes>
                    <normal-notes>2</normal-notes>
                </time-modification>
                <stem>up</stem>
                <notations>
                    <tuplet type="start" bracket="yes"/>
                </notations>
                <lyric number="1">
                    <syllabic>single</syllabic>
                    <text>sweet</text>
                </lyric>
            </note>
            <note default-y="-25.00" default-x="88.40">
                <pitch>
                    <step>A</step>
                    <octave>4</octave>
                </pitch>
                <duration>4</duration>
                <voice>1</voice>
                <type>quarter</type>
                <time-modification>
                    <actual-notes>3</actual-notes>
                    <normal-notes>2</normal-notes>
                </time-modification>
                <stem>up</stem>
                <lyric number="1">
                    <syllabic>single</syllabic>
                    <text>as</text>
                </lyric>
            </note>
            <note default-y="-20.00" default-x="117.85">
                <pitch>
                    <step>B</step>
                    <alter>-1</alter>
                    <octave>4</octave>
                </pitch>
                <duration>4</duration>
                <voice>1</voice>
                <type>quarter</type>
                <accidental>flat</accidental>
                <time-modification>
                    <actual-notes>3</actual-notes>
                    <normal-notes>2</normal-notes>
                </time-modification>
                <stem>down</stem>
                <notations>
                    <tuplet type="stop"/>
                </notations>
                <lyric number="1">
                    <syllabic>single</syllabic>
                    <text>a</text>
                </lyric>
            </note>
            <note default-y="-20.00" default-x="157.73">
                <pitch>
                    <step>B</step>
                    <alter>-1</alter>
                    <octave>4</octave>
                </pitch>
                <duration>4</duration>
                <voice>1</voice>
                <type>quarter</type>
                <time-modification>
                    <actual-notes>3</actual-notes>
                    <normal-notes>2</normal-notes>
                </time-modification>
                <stem>down</stem>
                <notations>
                    <tuplet type="start" bracket="yes"/>
                </notations>
                <lyric number="1">
                    <syllabic>begin</syllabic>
                    <text>flow</text>
                </lyric>
            </note>
            <note default-y="-30.00" default-x="194.87">
                <pitch>
                    <step>G</step>
                    <octave>4</octave>
                </pitch>
                <duration>4</duration>
                <voice>1</voice>
                <type>quarter</type>
                <time-modification>
                    <actual-notes>3</actual-notes>
                    <normal-notes>2</normal-notes>
                </time-modification>
                <stem>up</stem>
                <lyric number="1">
                    <syllabic>end</syllabic>
                    <text>er</text>
                </lyric>
            </note>
            <note default-y="-20.00" default-x="226.99">
                <pitch>
                    <step>B</step>
                    <alter>-1</alter>
                    <octave>4</octave>
                </pitch>
                <duration>4</duration>
                <voice>1</voice>
                <type>quarter</type>
                <time-modification>
                    <actual-notes>3</actual-notes>
                    <normal-notes>2</normal-notes>
                </time-modification>
                <stem>down</stem>
                <notations>
                    <tuplet type="stop"/>
                </notations>
                <lyric number="1">
                    <syllabic>single</syllabic>
                    <text>for</text>
                </lyric>
            </note>
        </measure>
        <measure width="192.64" number="15">
            <print new-system="yes">
                <system-layout>
                    <system-margins>
                        <left-margin>75.53</left-margin>
                        <right-margin>0.00</right-margin>
                    </system-margins>
                    <system-distance>153.73</system-distance>
                </system-layout>
            </print>
            <harmony print-frame="no">
                <root>
                    <root-step>A</root-step>
                </root>
                <kind text="m">minor</kind>
            </harmony>
            <harmony relative-x="209.43" print-frame="no">
                <root>
                    <root-step>B</root-step>
                    <root-alter>-1</root-alter>
                </root>
                <kind text="m">minor</kind>
            </harmony>
            <harmony relative-x="2252.83" print-frame="no">
                <root>
                    <root-step>B</root-step>
                </root>
                <kind text="m">minor</kind>
            </harmony>
            <harmony relative-x="4022.64" print-frame="no">
                <root>
                    <root-step>C</root-step>
                </root>
                <kind text="">major</kind>
            </harmony>
            <note default-y="-10.00" default-x="64.15">
                <pitch>
                    <step>D</step>
                    <octave>5</octave>
                </pitch>
                <duration>24</duration>
                <voice>1</voice>
                <type>whole</type>
            </note>
        </measure>
        <measure width="159.09" number="16">
            <harmony relative-x="1032.08" print-frame="no">
                <root>
                    <root-step>B</root-step>
                </root>
                <kind text="m">minor</kind>
            </harmony>
            <harmony relative-x="2722.64" print-frame="no">
                <root>
                    <root-step>A</root-step>
                </root>
                <kind text="m">minor</kind>
            </harmony>
            <note default-y="-10.00" default-x="17.50">
                <pitch>
                    <step>D</step>
                    <octave>5</octave>
                </pitch>
                <duration>12</duration>
                <voice>1</voice>
                <type>half</type>
                <stem>down</stem>
            </note>
            <harmony relative-x="1766.04" print-frame="no">
                <root>
                    <root-step>D</root-step>
                </root>
                <kind text="7">dominant</kind>
            </harmony>
            <note>
                <rest/>
                <duration>12</duration>
                <voice>1</voice>
                <type>half</type>
            </note>
        </measure>
        <measure width="262.33" number="17">
            <harmony print-frame="no">
                <root>
                    <root-step>G</root-step>
                </root>
                <kind text="">major</kind>
            </harmony>
            <note default-y="-45.00" default-x="27.99">
                <pitch>
                    <step>D</step>
                    <octave>4</octave>
                </pitch>
                <duration>3</duration>
                <voice>1</voice>
                <type>eighth</type>
                <stem>up</stem>
                <beam number="1">begin</beam>
                <lyric number="1">
                    <syllabic>single</syllabic>
                    <text>If</text>
                </lyric>
            </note>
            <note default-y="-40.00" default-x="63.98">
                <pitch>
                    <step>E</step>
                    <octave>4</octave>
                </pitch>
                <duration>3</duration>
                <voice>1</voice>
                <type>eighth</type>
                <stem>up</stem>
                <beam number="1">continue</beam>
                <lyric number="1">
                    <syllabic>single</syllabic>
                    <text>you</text>
                </lyric>
            </note>
            <note default-y="-35.00" default-x="119.26">
                <pitch>
                    <step>F</step>
                    <alter>1</alter>
                    <octave>4</octave>
                </pitch>
                <duration>3</duration>
                <voice>1</voice>
                <type>eighth</type>
                <stem>up</stem>
                <beam number="1">continue</beam>
                <lyric number="1">
                    <syllabic>single</syllabic>
                    <text>should</text>
                </lyric>
            </note>
            <note default-y="-25.00" default-x="155.71">
                <pitch>
                    <step>A</step>
                    <octave>4</octave>
                </pitch>
                <duration>3</duration>
                <tie type="start"/>
                <voice>1</voice>
                <type>eighth</type>
                <stem>up</stem>
                <beam number="1">end</beam>
                <notations>
                    <tied type="start"/>
                </notations>
                <lyric number="1">
                    <syllabic>single</syllabic>
                    <text>go</text>
                    <extend/>
                </lyric>
            </note>
            <note default-y="-25.00" default-x="188.53">
                <pitch>
                    <step>A</step>
                    <octave>4</octave>
                </pitch>
                <duration>12</duration>
                <tie type="stop"/>
                <tie type="start"/>
                <voice>1</voice>
                <type>half</type>
                <stem>up</stem>
                <notations>
                    <tied type="stop"/>
                    <tied type="start"/>
                </notations>
            </note>
        </measure>
        <measure width="210.90" number="18">
            <note default-y="-25.00" default-x="17.50">
                <pitch>
                    <step>A</step>
                    <octave>4</octave>
                </pitch>
                <duration>6</duration>
                <tie type="stop"/>
                <voice>1</voice>
                <type>quarter</type>
                <stem>up</stem>
                <notations>
                    <tied type="stop"/>
                </notations>
            </note>
            <note default-y="-30.00" default-x="65.45">
                <pitch>
                    <step>G</step>
                    <octave>4</octave>
                </pitch>
                <duration>6</duration>
                <voice>1</voice>
                <type>quarter</type>
                <stem>up</stem>
                <lyric number="1">
                    <syllabic>single</syllabic>
                    <text>back</text>
                </lyric>
            </note>
            <note default-y="-45.00" default-x="113.40">
                <pitch>
                    <step>D</step>
                    <octave>4</octave>
                </pitch>
                <duration>6</duration>
                <voice>1</voice>
                <type>quarter</type>
                <stem>up</stem>
                <lyric number="1">
                    <syllabic>single</syllabic>
                    <text>to</text>
                </lyric>
            </note>
            <note default-y="-40.00" default-x="161.35">
                <pitch>
                    <step>E</step>
                    <octave>4</octave>
                </pitch>
                <duration>6</duration>
                <voice>1</voice>
                <type>quarter</type>
                <stem>up</stem>
                <lyric number="1">
                    <syllabic>single</syllabic>
                    <text>your</text>
                </lyric>
            </note>
        </measure>
        <measure width="176.61" number="19">
            <harmony print-frame="no">
                <root>
                    <root-step>B</root-step>
                    <root-alter>-1</root-alter>
                </root>
                <kind text="m7">minor-seventh</kind>
            </harmony>
            <note default-y="-35.00" default-x="30.51">
                <pitch>
                    <step>F</step>
                    <octave>4</octave>
                </pitch>
                <duration>12</duration>
                <voice>1</voice>
                <type>half</type>
                <accidental>natural</accidental>
                <stem>up</stem>
                <lyric number="1">
                    <syllabic>begin</syllabic>
                    <text>no</text>
                </lyric>
            </note>
            <note default-y="-35.00" default-x="99.51">
                <pitch>
                    <step>F</step>
                    <octave>4</octave>
                </pitch>
                <duration>12</duration>
                <tie type="start"/>
                <voice>1</voice>
                <type>half</type>
                <stem>up</stem>
                <notations>
                    <tied type="start"/>
                </notations>
                <lyric number="1">
                    <syllabic>end</syllabic>
                    <text>where,</text>
                    <extend/>
                </lyric>
            </note>
        </measure>
        <measure width="182.87" number="20">
            <print new-system="yes">
                <system-layout>
                    <system-margins>
                        <left-margin>75.53</left-margin>
                        <right-margin>0.00</right-margin>
                    </system-margins>
                    <system-distance>153.73</system-distance>
                </system-layout>
            </print>
            <harmony print-frame="no">
                <root>
                    <root-step>E</root-step>
                    <root-alter>-1</root-alter>
                </root>
                <kind text="7">dominant</kind>
            </harmony>
            <note default-y="-35.00" default-x="64.15">
                <pitch>
                    <step>F</step>
                    <octave>4</octave>
                </pitch>
                <duration>24</duration>
                <tie type="stop"/>
                <voice>1</voice>
                <type>whole</type>
                <notations>
                    <tied type="stop"/>
                </notations>
            </note>
        </measure>
        <measure width="295.72" number="21">
            <harmony print-frame="no">
                <root>
                    <root-step>G</root-step>
                </root>
                <kind text="">major</kind>
            </harmony>
            <note default-y="-45.00" default-x="38.28">
                <pitch>
                    <step>D</step>
                    <octave>4</octave>
                </pitch>
                <duration>3</duration>
                <voice>1</voice>
                <type>eighth</type>
                <stem>up</stem>
                <beam number="1">begin</beam>
                <lyric number="1">
                    <syllabic>begin</syllabic>
                    <text>leav</text>
                </lyric>
            </note>
            <note default-y="-40.00" default-x="79.31">
                <pitch>
                    <step>E</step>
                    <octave>4</octave>
                </pitch>
                <duration>3</duration>
                <voice>1</voice>
                <type>eighth</type>
                <stem>up</stem>
                <beam number="1">continue</beam>
                <lyric number="1">
                    <syllabic>end</syllabic>
                    <text>ing</text>
                </lyric>
            </note>
            <note default-y="-35.00" default-x="118.99">
                <pitch>
                    <step>F</step>
                    <alter>1</alter>
                    <octave>4</octave>
                </pitch>
                <duration>3</duration>
                <voice>1</voice>
                <type>eighth</type>
                <stem>up</stem>
                <beam number="1">continue</beam>
                <lyric number="1">
                    <syllabic>single</syllabic>
                    <text>me</text>
                </lyric>
            </note>
            <note default-y="-25.00" default-x="158.67">
                <pitch>
                    <step>A</step>
                    <octave>4</octave>
                </pitch>
                <duration>3</duration>
                <tie type="start"/>
                <voice>1</voice>
                <type>eighth</type>
                <stem>up</stem>
                <beam number="1">end</beam>
                <notations>
                    <tied type="start"/>
                </notations>
                <lyric number="1">
                    <syllabic>single</syllabic>
                    <text>with</text>
                    <extend/>
                </lyric>
            </note>
            <note default-y="-25.00" default-x="206.82">
                <pitch>
                    <step>A</step>
                    <octave>4</octave>
                </pitch>
                <duration>12</duration>
                <tie type="stop"/>
                <tie type="start"/>
                <voice>1</voice>
                <type>half</type>
                <stem>up</stem>
                <notations>
                    <tied type="stop"/>
                    <tied type="start"/>
                </notations>
            </note>
        </measure>
        <measure width="230.95" number="22">
            <note default-y="-25.00" default-x="17.50">
                <pitch>
                    <step>A</step>
                    <octave>4</octave>
                </pitch>
                <duration>6</duration>
                <tie type="stop"/>
                <voice>1</voice>
                <type>quarter</type>
                <stem>up</stem>
                <notations>
                    <tied type="stop"/>
                </notations>
            </note>
            <note default-y="-30.00" default-x="70.46">
                <pitch>
                    <step>G</step>
                    <octave>4</octave>
                </pitch>
                <duration>6</duration>
                <voice>1</voice>
                <type>quarter</type>
                <stem>up</stem>
                <lyric number="1">
                    <syllabic>single</syllabic>
                    <text>a</text>
                </lyric>
            </note>
            <note default-y="-45.00" default-x="123.43">
                <pitch>
                    <step>D</step>
                    <octave>4</octave>
                </pitch>
                <duration>6</duration>
                <voice>1</voice>
                <type>quarter</type>
                <stem>up</stem>
                <lyric number="1">
                    <syllabic>begin</syllabic>
                    <text>mem</text>
                </lyric>
            </note>
            <note default-y="-40.00" default-x="176.39">
                <pitch>
                    <step>E</step>
                    <octave>4</octave>
                </pitch>
                <duration>6</duration>
                <voice>1</voice>
                <type>quarter</type>
                <stem>up</stem>
                <lyric number="1">
                    <syllabic>middle</syllabic>
                    <text>o</text>
                </lyric>
            </note>
        </measure>
        <measure width="142.70" number="23">
            <harmony print-frame="no">
                <root>
                    <root-step>B</root-step>
                </root>
                <kind text="m7">minor-seventh</kind>
            </harmony>
            <harmony relative-x="3000.00" print-frame="no">
                <root>
                    <root-step>E</root-step>
                </root>
                <kind text="9">dominant-ninth</kind>
            </harmony>
            <note default-y="-35.00" default-x="17.50">
                <pitch>
                    <step>F</step>
                    <alter>1</alter>
                    <octave>4</octave>
                </pitch>
                <duration>24</duration>
                <tie type="start"/>
                <voice>1</voice>
                <type>whole</type>
                <notations>
                    <tied type="start"/>
                </notations>
                <lyric number="1">
                    <syllabic>end</syllabic>
                    <text>ry,</text>
                    <extend/>
                </lyric>
            </note>
        </measure>
        <measure width="149.32" number="24">
            <harmony print-frame="no">
                <root>
                    <root-step>B</root-step>
                </root>
                <kind text="m7">minor-seventh</kind>
            </harmony>
            <note default-y="-35.00" default-x="17.50">
                <pitch>
                    <step>F</step>
                    <alter>1</alter>
                    <octave>4</octave>
                </pitch>
                <duration>12</duration>
                <tie type="stop"/>
                <voice>1</voice>
                <type>half</type>
                <stem>up</stem>
                <notations>
                    <tied type="stop"/>
                </notations>
            </note>
            <harmony relative-x="300.00" print-frame="no">
                <root>
                    <root-step>E</root-step>
                </root>
                <kind text="7">dominant</kind>
            </harmony>
            <note>
                <rest/>
                <duration>12</duration>
                <voice>1</voice>
                <type>half</type>
            </note>
        </measure>
        <measure width="259.83" number="25">
            <print new-system="yes">
                <system-layout>
                    <system-margins>
                        <left-margin>75.53</left-margin>
                        <right-margin>-0.00</right-margin>
                    </system-margins>
                    <system-distance>153.73</system-distance>
                </system-layout>
            </print>
            <harmony print-frame="no">
                <root>
                    <root-step>A</root-step>
                </root>
                <kind text="m7">minor-seventh</kind>
            </harmony>
            <note default-y="-40.00" default-x="77.97">
                <pitch>
                    <step>E</step>
                    <octave>4</octave>
                </pitch>
                <duration>3</duration>
                <voice>1</voice>
                <type>eighth</type>
                <stem>up</stem>
                <beam number="1">begin</beam>
                <lyric number="1">
                    <syllabic>single</syllabic>
                    <text>I'll</text>
                </lyric>
            </note>
            <note default-y="-35.00" default-x="105.56">
                <pitch>
                    <step>F</step>
                    <octave>4</octave>
                </pitch>
                <duration>3</duration>
                <voice>1</voice>
                <type>eighth</type>
                <accidental>natural</accidental>
                <stem>up</stem>
                <beam number="1">continue</beam>
                <lyric number="1">
                    <syllabic>begin</syllabic>
                    <text>al</text>
                </lyric>
            </note>
            <note default-y="-40.00" default-x="148.04">
                <pitch>
                    <step>E</step>
                    <octave>4</octave>
                </pitch>
                <duration>3</duration>
                <voice>1</voice>
                <type>eighth</type>
                <stem>up</stem>
                <beam number="1">continue</beam>
                <lyric number="1">
                    <syllabic>end</syllabic>
                    <text>ways</text>
                </lyric>
            </note>
            <note default-y="-15.00" default-x="177.36">
                <pitch>
                    <step>C</step>
                    <octave>5</octave>
                </pitch>
                <duration>3</duration>
                <tie type="start"/>
                <voice>1</voice>
                <type>eighth</type>
                <stem>up</stem>
                <beam number="1">end</beam>
                <notations>
                    <tied type="start"/>
                </notations>
                <lyric number="1">
                    <syllabic>single</syllabic>
                    <text>wait</text>
                    <extend/>
                </lyric>
            </note>
            <note default-y="-15.00" default-x="224.22">
                <pitch>
                    <step>C</step>
                    <octave>5</octave>
                </pitch>
                <duration>12</duration>
                <tie type="stop"/>
                <voice>1</voice>
                <type>half</type>
                <stem>down</stem>
                <notations>
                    <tied type="stop"/>
                </notations>
            </note>
        </measure>
        <measure width="263.23" number="26">
            <harmony print-frame="no">
                <root>
                    <root-step>B</root-step>
                </root>
                <kind text="m7b5">half-diminished</kind>
            </harmony>
            <note default-y="-40.00" default-x="32.45">
                <pitch>
                    <step>E</step>
                    <octave>4</octave>
                </pitch>
                <duration>4</duration>
                <voice>1</voice>
                <type>quarter</type>
                <time-modification>
                    <actual-notes>3</actual-notes>
                    <normal-notes>2</normal-notes>
                </time-modification>
                <stem>up</stem>
                <notations>
                    <tuplet type="start" bracket="yes"/>
                </notations>
                <lyric number="1">
                    <syllabic>single</syllabic>
                    <text>for</text>
                </lyric>
            </note>
            <note default-y="-35.00" default-x="74.13">
                <pitch>
                    <step>F</step>
                    <octave>4</octave>
                </pitch>
                <duration>4</duration>
                <voice>1</voice>
                <type>quarter</type>
                <accidental>natural</accidental>
                <time-modification>
                    <actual-notes>3</actual-notes>
                    <normal-notes>2</normal-notes>
                </time-modification>
                <stem>up</stem>
                <lyric number="1">
                    <syllabic>single</syllabic>
                    <text>your</text>
                </lyric>
            </note>
            <note default-y="-40.00" default-x="111.27">
                <pitch>
                    <step>E</step>
                    <octave>4</octave>
                </pitch>
                <duration>4</duration>
                <voice>1</voice>
                <type>quarter</type>
                <time-modification>
                    <actual-notes>3</actual-notes>
                    <normal-notes>2</normal-notes>
                </time-modification>
                <stem>up</stem>
                <notations>
                    <tuplet type="stop"/>
                </notations>
                <lyric number="1">
                    <syllabic>begin</syllabic>
                    <text>re</text>
                </lyric>
            </note>
            <harmony print-frame="no">
                <root>
                    <root-step>E</root-step>
                </root>
                <kind text="7">dominant</kind>
            </harmony>
            <note default-y="-20.00" default-x="148.56">
                <pitch>
                    <step>B</step>
                    <octave>4</octave>
                </pitch>
                <duration>4</duration>
                <voice>1</voice>
                <type>quarter</type>
                <time-modification>
                    <actual-notes>3</actual-notes>
                    <normal-notes>2</normal-notes>
                </time-modification>
                <stem>down</stem>
                <notations>
                    <tuplet type="start" bracket="yes"/>
                </notations>
                <lyric number="1">
                    <syllabic>end</syllabic>
                    <text>turn</text>
                </lyric>
            </note>
            <note default-y="-15.00" default-x="188.94">
                <pitch>
                    <step>C</step>
                    <octave>5</octave>
                </pitch>
                <duration>4</duration>
                <voice>1</voice>
                <type>quarter</type>
                <time-modification>
                    <actual-notes>3</actual-notes>
                    <normal-notes>2</normal-notes>
                </time-modification>
                <stem>down</stem>
                <lyric number="1">
                    <syllabic>single</syllabic>
                    <text>out</text>
                </lyric>
            </note>
            <note default-y="-10.00" default-x="225.29">
                <pitch>
                    <step>D</step>
                    <octave>5</octave>
                </pitch>
                <duration>4</duration>
                <voice>1</voice>
                <type>quarter</type>
                <time-modification>
                    <actual-notes>3</actual-notes>
                    <normal-notes>2</normal-notes>
                </time-modification>
                <stem>down</stem>
                <notations>
                    <tuplet type="stop"/>
                </notations>
                <lyric number="1">
                    <syllabic>single</syllabic>
                    <text>of</text>
                </lyric>
            </note>
        </measure>
        <measure width="78.76" number="27">
            <harmony print-frame="no">
                <root>
                    <root-step>A</root-step>
                </root>
                <kind text="m7">minor-seventh</kind>
            </harmony>
            <note default-y="-5.00" default-x="30.51">
                <pitch>
                    <step>E</step>
                    <octave>5</octave>
                </pitch>
                <duration>24</duration>
                <voice>1</voice>
                <type>whole</type>
                <lyric number="1">
                    <syllabic>begin</syllabic>
                    <text>no</text>
                </lyric>
            </note>
        </measure>
        <measure width="112.11" number="28">
            <harmony print-frame="no">
                <root>
                    <root-step>F</root-step>
                </root>
                <kind text="7#11">dominant</kind>
                <degree>
                    <degree-value>11</degree-value>
                    <degree-alter>1</degree-alter>
                    <degree-type>add</degree-type>
                </degree>
            </harmony>
            <note default-y="-20.00" default-x="50.58">
                <pitch>
                    <step>B</step>
                    <octave>4</octave>
                </pitch>
                <duration>24</duration>
                <voice>1</voice>
                <type>whole</type>
                <lyric number="1">
                    <syllabic>end</syllabic>
                    <text>where;</text>
                </lyric>
            </note>
        </measure>
        <measure width="287.64" number="29">
            <harmony print-frame="no">
                <root>
                    <root-step>B</root-step>
                </root>
                <kind text="m7">minor-seventh</kind>
            </harmony>
            <note default-y="-25.00" default-x="36.34">
                <pitch>
                    <step>A</step>
                    <octave>4</octave>
                </pitch>
                <duration>3</duration>
                <voice>1</voice>
                <type>eighth</type>
                <stem>up</stem>
                <lyric number="1">
                    <syllabic>begin</syllabic>
                    <text>hop</text>
                </lyric>
            </note>
            <note default-y="-35.00" default-x="78.76">
                <pitch>
                    <step>F</step>
                    <alter>1</alter>
                    <octave>4</octave>
                </pitch>
                <duration>6</duration>
                <voice>1</voice>
                <type>quarter</type>
                <stem>up</stem>
                <lyric number="1">
                    <syllabic>end</syllabic>
                    <text>ing</text>
                </lyric>
            </note>
            <note default-y="-30.00" default-x="127.37">
                <pitch>
                    <step>G</step>
                    <octave>4</octave>
                </pitch>
                <duration>3</duration>
                <voice>1</voice>
                <type>eighth</type>
                <stem>up</stem>
                <lyric number="1">
                    <syllabic>single</syllabic>
                    <text>you'll</text>
                </lyric>
            </note>
            <harmony print-frame="no">
                <root>
                    <root-step>B</root-step>
                    <root-alter>-1</root-alter>
                </root>
                <kind text="dim">diminished</kind>
            </harmony>
            <note default-y="-40.00" default-x="184.74">
                <pitch>
                    <step>E</step>
                    <octave>4</octave>
                </pitch>
                <duration>6</duration>
                <voice>1</voice>
                <type>quarter</type>
                <stem>up</stem>
                <lyric number="1">
                    <syllabic>single</syllabic>
                    <text>bring</text>
                </lyric>
            </note>
            <note default-y="-35.00" default-x="237.42">
                <pitch>
                    <step>F</step>
                    <alter>1</alter>
                    <octave>4</octave>
                </pitch>
                <duration>6</duration>
                <voice>1</voice>
                <type>quarter</type>
                <stem>up</stem>
                <lyric number="1">
                    <syllabic>single</syllabic>
                    <text>your</text>
                </lyric>
            </note>
        </measure>
        <measure width="258.09" number="30">
            <print new-system="yes">
                <system-layout>
                    <system-margins>
                        <left-margin>75.53</left-margin>
                        <right-margin>0.00</right-margin>
                    </system-margins>
                    <system-distance>153.73</system-distance>
                </system-layout>
            </print>
            <harmony print-frame="no">
                <root>
                    <root-step>A</root-step>
                </root>
                <kind text="m7">minor-seventh</kind>
            </harmony>
            <note default-y="-45.00" default-x="85.58">
                <pitch>
                    <step>D</step>
                    <octave>4</octave>
                </pitch>
                <duration>12</duration>
                <voice>1</voice>
                <type>half</type>
                <stem>up</stem>
                <lyric number="1">
                    <syllabic>single</syllabic>
                    <text>love</text>
                </lyric>
            </note>
            <harmony print-frame="no">
                <root>
                    <root-step>D</root-step>
                </root>
                <kind text="7">dominant</kind>
            </harmony>
            <note default-y="-20.00" default-x="171.03">
                <pitch>
                    <step>B</step>
                    <octave>4</octave>
                </pitch>
                <duration>12</duration>
                <voice>1</voice>
                <type>half</type>
                <stem>down</stem>
                <lyric number="1">
                    <syllabic>single</syllabic>
                    <text>to</text>
                </lyric>
            </note>
        </measure>
        <measure width="196.28" number="31">
            <barline location="left">
                <ending type="start" number="1"></ending>
            </barline>
            <harmony print-frame="no">
                <root>
                    <root-step>G</root-step>
                </root>
                <kind text="">major</kind>
            </harmony>
            <note default-y="-30.00" default-x="36.01">
                <pitch>
                    <step>G</step>
                    <octave>4</octave>
                </pitch>
                <duration>12</duration>
                <voice>1</voice>
                <type>half</type>
                <stem>up</stem>
                <lyric number="1">
                    <syllabic>single</syllabic>
                    <text>me.</text>
                </lyric>
            </note>
            <harmony print-frame="no">
                <root>
                    <root-step>A</root-step>
                </root>
                <kind text="dim">diminished</kind>
            </harmony>
            <note>
                <rest/>
                <duration>12</duration>
                <voice>1</voice>
                <type>half</type>
            </note>
        </measure>
        <measure width="187.76" number="32">
            <harmony print-frame="no">
                <root>
                    <root-step>A</root-step>
                </root>
                <kind text="m7">minor-seventh</kind>
            </harmony>
            <note>
                <rest/>
                <duration>12</duration>
                <voice>1</voice>
                <type>half</type>
            </note>
            <harmony print-frame="no">
                <root>
                    <root-step>D</root-step>
                </root>
                <kind text="7">dominant</kind>
            </harmony>
            <note>
                <rest/>
                <duration>12</duration>
                <voice>1</voice>
                <type>half</type>
            </note>
            <barline location="right">
                <bar-style>light-heavy</bar-style>
                <ending type="stop" number="1"></ending>
                <repeat direction="backward"/>
            </barline>
        </measure>
        <measure width="177.28" number="33">
            <barline location="left">
                <ending type="start" number="2"></ending>
            </barline>
            <harmony print-frame="no">
                <root>
                    <root-step>G</root-step>
                </root>
                <kind text="7">dominant</kind>
            </harmony>
            <harmony relative-x="2800.00" print-frame="no">
                <root>
                    <root-step>C</root-step>
                </root>
                <kind text="m">minor</kind>
            </harmony>
            <note default-y="-30.00" default-x="17.50">
                <pitch>
                    <step>G</step>
                    <octave>4</octave>
                </pitch>
                <duration>24</duration>
                <tie type="start"/>
                <voice>1</voice>
                <type>whole</type>
                <notations>
                    <tied type="start"/>
                </notations>
                <lyric number="1">
                    <syllabic>single</syllabic>
                    <text>me.</text>
                    <extend/>
                </lyric>
            </note>
        </measure>
        <measure width="182.16" number="34">
            <harmony print-frame="no">
                <root>
                    <root-step>G</root-step>
                </root>
                <kind text="">major</kind>
            </harmony>
            <note default-y="-30.00" default-x="17.50">
                <pitch>
                    <step>G</step>
                    <octave>4</octave>
                </pitch>
                <duration>18</duration>
                <tie type="stop"/>
                <voice>1</voice>
                <type>half</type>
                <dot/>
                <stem>up</stem>
                <notations>
                    <tied type="stop"/>
                </notations>
            </note>
            <note>
                <rest/>
                <duration>6</duration>
                <voice>1</voice>
                <type>quarter</type>
            </note>
            <barline location="right">
                <bar-style>light-heavy</bar-style>
                <ending type="stop" number="2"></ending>
            </barline>
        </measure>
    </part>
</score-partwise>
