<?xml version="1.0" encoding="UTF-8"?>
<!DOCTYPE score-partwise PUBLIC "-//Recordare//DTD MusicXML 2.0 Partwise//EN" "http://www.musicxml.org/dtds/partwise.dtd">
<score-partwise version="2.0">
    <work>
        <work-number></work-number>
        <work-title></work-title>
    </work>
    <movement-number></movement-number>
    <movement-title>The Ballad of the Green Berets</movement-title>
    <identification>
        <creator type="composer">S.Sgt Barry Sadler</creator>
        <creator type="poet">S.Sgt Barry Sadler</creator>
        <rights>All Rights Reserved</rights>
        <encoding>
            <software>Sibelius 7.0.1</software>
            <software>Dolet 6.1 for Sibelius</software>
            <encoding-date>2012-02-18</encoding-date>
            <supports type="no" element="accidental"/>
            <supports type="no" element="transpose"/>
            <supports value="yes" type="yes" element="print" attribute="new-page"/>
            <supports value="yes" type="yes" element="print" attribute="new-system"/>
            <software>ProxyMusic 2.0 c</software>
        </encoding>
        <source>http://wikifonia.org/node/14926/revisions/19922/view</source>
    </identification>
    <defaults>
        <scaling>
            <millimeters>6</millimeters>
            <tenths>40</tenths>
        </scaling>
        <page-layout>
            <page-height>1980</page-height>
            <page-width>1400</page-width>
            <page-margins type="both">
                <left-margin>121.875</left-margin>
                <right-margin>100</right-margin>
                <top-margin>100</top-margin>
                <bottom-margin>100</bottom-margin>
            </page-margins>
        </page-layout>
        <system-layout>
            <system-margins>
                <left-margin>21.875</left-margin>
                <right-margin>0</right-margin>
            </system-margins>
            <system-distance>232.5</system-distance>
            <top-system-distance>72.8125</top-system-distance>
        </system-layout>
        <appearance>
            <line-width type="beam">5</line-width>
            <line-width type="heavy barline">5</line-width>
            <line-width type="leger">1.5625</line-width>
            <line-width type="light barline">1.5625</line-width>
            <line-width type="slur middle">2.1875</line-width>
            <line-width type="slur tip">0.625</line-width>
            <line-width type="staff">0.9375</line-width>
            <line-width type="stem">0.9375</line-width>
            <line-width type="tie middle">2.1875</line-width>
            <line-width type="tie tip">0.625</line-width>
            <note-size type="grace">60</note-size>
            <note-size type="cue">75</note-size>
        </appearance>
        <music-font font-family="Opus Std,music"/>
        <word-font font-family="Plantin MT Std"/>
    </defaults>
    <part-list>
        <score-part id="P1">
            <part-name print-object="no">[Piano]</part-name>
            <score-instrument id="P1-I1">
                <instrument-name></instrument-name>
            </score-instrument>
            <midi-instrument id="P1-I1">
                <volume>79</volume>
                <pan>0</pan>
            </midi-instrument>
        </score-part>
    </part-list>
    <part id="P1">
        <measure number="1">
            <print>
                <system-layout>
                    <top-system-distance>20</top-system-distance>
                </system-layout>
                <staff-layout/>
            </print>
            <attributes>
                <divisions>768</divisions>
                <key>
                    <fifths>0</fifths>
                    <mode>major</mode>
                </key>
                <time>
                    <beats>4</beats>
                    <beat-type>4</beat-type>
                </time>
                <clef>
                    <sign>G</sign>
                    <line>2</line>
                </clef>
            </attributes>
            <harmony relative-x="8" default-y="25" print-frame="no">
                <root>
                    <root-step text="">C</root-step>
                </root>
                <kind text="N.C.">none</kind>
            </harmony>
            <note>
                <pitch>
                    <step>E</step>
                    <octave>4</octave>
                </pitch>
                <duration>768</duration>
                <voice>1</voice>
                <type>quarter</type>
                <stem>up</stem>
                <lyric default-y="-80" number="1" name="verse">
                    <syllabic>single</syllabic>
                    <text>1.Figh</text>
                </lyric>
            </note>
            <note>
                <pitch>
                    <step>E</step>
                    <octave>4</octave>
                </pitch>
                <duration>768</duration>
                <voice>1</voice>
                <type>quarter</type>
                <stem>up</stem>
                <lyric default-y="-80" number="1" name="verse">
                    <syllabic>single</syllabic>
                    <text>ting</text>
                </lyric>
            </note>
            <harmony relative-x="8" default-y="25" print-frame="no">
                <root>
                    <root-step>C</root-step>
                </root>
                <kind text="">major</kind>
            </harmony>
            <note>
                <pitch>
                    <step>E</step>
                    <octave>4</octave>
                </pitch>
                <duration>1536</duration>
                <tie type="start"/>
                <voice>1</voice>
                <type>half</type>
                <stem>up</stem>
                <notations>
                    <tied type="start"/>
                </notations>
                <lyric default-y="-80" number="1" name="verse">
                    <syllabic>begin</syllabic>
                    <text>sol</text>
                    <extend/>
                </lyric>
            </note>
        </measure>
        <measure number="2">
            <print new-system="no"/>
            <barline location="left">
                <bar-style>heavy-light</bar-style>
                <repeat direction="forward"/>
            </barline>
            <note>
                <pitch>
                    <step>E</step>
                    <octave>4</octave>
                </pitch>
                <duration>768</duration>
                <tie type="stop"/>
                <voice>1</voice>
                <type>quarter</type>
                <stem>up</stem>
                <notations>
                    <tied type="stop"/>
                </notations>
            </note>
            <note>
                <pitch>
                    <step>C</step>
                    <octave>4</octave>
                </pitch>
                <duration>768</duration>
                <voice>1</voice>
                <type>quarter</type>
                <stem>up</stem>
                <lyric default-y="-80" number="1" name="verse">
                    <syllabic>end</syllabic>
                    <text>diers</text>
                </lyric>
                <lyric default-y="-105" number="2" name="verse">
                    <syllabic>begin</syllabic>
                    <text>u</text>
                </lyric>
                <lyric default-y="-130" number="3" name="verse">
                    <syllabic>single</syllabic>
                    <text>off</text>
                </lyric>
                <lyric default-y="-155" number="4" name="verse">
                    <syllabic>begin</syllabic>
                    <text>up</text>
                </lyric>
                <lyric default-y="-180" number="5" name="verse">
                    <syllabic>single</syllabic>
                    <text>a</text>
                </lyric>
            </note>
            <harmony relative-x="8" default-y="25" print-frame="no">
                <root>
                    <root-step>G</root-step>
                </root>
                <kind text="7">dominant</kind>
            </harmony>
            <note>
                <pitch>
                    <step>D</step>
                    <octave>4</octave>
                </pitch>
                <duration>768</duration>
                <voice>1</voice>
                <type>quarter</type>
                <stem>up</stem>
                <lyric default-y="-80" number="1" name="verse">
                    <syllabic>single</syllabic>
                    <text>from</text>
                </lyric>
                <lyric default-y="-105" number="2" name="verse">
                    <syllabic>end</syllabic>
                    <text>pon</text>
                </lyric>
                <lyric default-y="-130" number="3" name="verse">
                    <syllabic>begin</syllabic>
                    <text>na</text>
                </lyric>
                <lyric default-y="-155" number="4" name="verse">
                    <syllabic>end</syllabic>
                    <text>on</text>
                </lyric>
                <lyric default-y="-180" number="5" name="verse">
                    <syllabic>single</syllabic>
                    <text>young</text>
                </lyric>
            </note>
            <note>
                <pitch>
                    <step>D</step>
                    <octave>4</octave>
                </pitch>
                <duration>768</duration>
                <voice>1</voice>
                <type>quarter</type>
                <stem>up</stem>
                <lyric default-y="-80" number="1" name="verse">
                    <syllabic>single</syllabic>
                    <text>the</text>
                </lyric>
                <lyric default-y="-105" number="2" name="verse">
                    <syllabic>single</syllabic>
                    <text>their</text>
                </lyric>
                <lyric default-y="-130" number="3" name="verse">
                    <syllabic>end</syllabic>
                    <text>ture's</text>
                </lyric>
                <lyric default-y="-155" number="4" name="verse">
                    <syllabic>single</syllabic>
                    <text>their</text>
                </lyric>
                <lyric default-y="-180" number="5" name="verse">
                    <syllabic>single</syllabic>
                    <text>wife</text>
                </lyric>
            </note>
        </measure>
        <measure number="3">
            <print new-system="no"/>
            <note>
                <pitch>
                    <step>C</step>
                    <octave>4</octave>
                </pitch>
                <duration>3072</duration>
                <voice>1</voice>
                <type>whole</type>
                <stem>up</stem>
                <lyric default-y="-80" number="1" name="verse">
                    <syllabic>single</syllabic>
                    <text>sky.</text>
                </lyric>
                <lyric default-y="-105" number="2" name="verse">
                    <syllabic>single</syllabic>
                    <text>chest</text>
                </lyric>
                <lyric default-y="-130" number="3" name="verse">
                    <syllabic>single</syllabic>
                    <text>land</text>
                </lyric>
                <lyric default-y="-155" number="4" name="verse">
                    <syllabic>single</syllabic>
                    <text>chest</text>
                </lyric>
                <lyric default-y="-180" number="5" name="verse">
                    <syllabic>single</syllabic>
                    <text>waits</text>
                </lyric>
            </note>
        </measure>
        <measure number="4">
            <print new-system="no"/>
            <note>
                <pitch>
                    <step>G</step>
                    <octave>4</octave>
                </pitch>
                <duration>768</duration>
                <voice>1</voice>
                <type>quarter</type>
                <stem>up</stem>
                <lyric default-y="-80" number="1" name="verse">
                    <syllabic>single</syllabic>
                    <text>Fear</text>
                </lyric>
                <lyric default-y="-105" number="2" name="verse">
                    <syllabic>single</syllabic>
                    <text>These</text>
                </lyric>
                <lyric default-y="-130" number="3" name="verse">
                    <syllabic>single</syllabic>
                    <text>Trained</text>
                </lyric>
                <lyric default-y="-155" number="4" name="verse">
                    <syllabic>single</syllabic>
                    <text>These</text>
                </lyric>
                <lyric default-y="-180" number="5" name="verse">
                    <syllabic>single</syllabic>
                    <text>Her</text>
                </lyric>
            </note>
            <note>
                <pitch>
                    <step>G</step>
                    <octave>4</octave>
                </pitch>
                <duration>768</duration>
                <voice>1</voice>
                <type>quarter</type>
                <stem>up</stem>
                <lyric default-y="-80" number="1" name="verse">
                    <syllabic>single</syllabic>
                    <text>less</text>
                </lyric>
                <lyric default-y="-105" number="2" name="verse">
                    <syllabic>single</syllabic>
                    <text>are</text>
                </lyric>
                <lyric default-y="-130" number="3" name="verse">
                    <syllabic>single</syllabic>
                    <text>in</text>
                </lyric>
                <lyric default-y="-155" number="4" name="verse">
                    <syllabic>single</syllabic>
                    <text>are</text>
                </lyric>
                <lyric default-y="-180" number="5" name="verse">
                    <syllabic>single</syllabic>
                    <text>Green</text>
                </lyric>
            </note>
            <harmony relative-x="8" default-y="25" print-frame="no">
                <root>
                    <root-step>G</root-step>
                </root>
                <kind text="7">dominant</kind>
            </harmony>
            <note>
                <pitch>
                    <step>G</step>
                    <octave>4</octave>
                </pitch>
                <duration>1536</duration>
                <tie type="start"/>
                <voice>1</voice>
                <type>half</type>
                <stem>up</stem>
                <notations>
                    <tied type="start"/>
                </notations>
                <lyric default-y="-80" number="1" name="verse">
                    <syllabic>single</syllabic>
                    <text>men</text>
                    <extend/>
                </lyric>
                <lyric default-y="-105" number="2" name="verse">
                    <syllabic>single</syllabic>
                    <text>men,</text>
                    <extend/>
                </lyric>
                <lyric default-y="-130" number="3" name="verse">
                    <syllabic>single</syllabic>
                    <text>combat</text>
                </lyric>
                <lyric default-y="-155" number="4" name="verse">
                    <syllabic>single</syllabic>
                    <text>men,</text>
                    <extend/>
                </lyric>
                <lyric default-y="-180" number="5" name="verse">
                    <syllabic>begin</syllabic>
                    <text>Be</text>
                    <extend/>
                </lyric>
            </note>
        </measure>
        <measure number="5">
            <print new-system="no"/>
            <note>
                <pitch>
                    <step>G</step>
                    <octave>4</octave>
                </pitch>
                <duration>768</duration>
                <tie type="stop"/>
                <voice>1</voice>
                <type>quarter</type>
                <stem>up</stem>
                <notations>
                    <tied type="stop"/>
                </notations>
            </note>
            <note>
                <pitch>
                    <step>G</step>
                    <octave>4</octave>
                </pitch>
                <duration>768</duration>
                <voice>1</voice>
                <type>quarter</type>
                <stem>up</stem>
                <lyric default-y="-80" number="1" name="verse">
                    <syllabic>single</syllabic>
                    <text>who</text>
                </lyric>
                <lyric default-y="-105" number="2" name="verse">
                    <syllabic>begin</syllabic>
                    <text>A</text>
                </lyric>
                <lyric default-y="-155" number="4" name="verse">
                    <syllabic>begin</syllabic>
                    <text>A</text>
                </lyric>
                <lyric default-y="-180" number="5" name="verse">
                    <syllabic>end</syllabic>
                    <text>ret</text>
                </lyric>
            </note>
            <note>
                <pitch>
                    <step>A</step>
                    <octave>4</octave>
                </pitch>
                <duration>384</duration>
                <voice>1</voice>
                <type>eighth</type>
                <stem>up</stem>
                <beam number="1">begin</beam>
                <lyric default-y="-105" number="2" name="verse">
                    <syllabic>middle</syllabic>
                    <text>me</text>
                </lyric>
                <lyric default-y="-155" number="4" name="verse">
                    <syllabic>middle</syllabic>
                    <text>me</text>
                </lyric>
                <lyric default-y="-180" number="5" name="verse">
                    <syllabic>single</syllabic>
                    <text>has</text>
                </lyric>
            </note>
            <note>
                <pitch>
                    <step>G</step>
                    <octave>4</octave>
                </pitch>
                <duration>384</duration>
                <voice>1</voice>
                <type>eighth</type>
                <stem>up</stem>
                <beam number="1">end</beam>
                <lyric relative-x="-9" default-y="-80" number="1" name="verse">
                    <syllabic>single</syllabic>
                    <text>jump</text>
                </lyric>
                <lyric default-y="-105" number="2" name="verse">
                    <syllabic>middle</syllabic>
                    <text>ri</text>
                </lyric>
                <lyric relative-x="-18" default-y="-130" number="3" name="verse">
                    <syllabic>single</syllabic>
                    <text>hand</text>
                </lyric>
                <lyric default-y="-155" number="4" name="verse">
                    <syllabic>middle</syllabic>
                    <text>ri</text>
                </lyric>
                <lyric default-y="-180" number="5" name="verse">
                    <syllabic>single</syllabic>
                    <text>met</text>
                </lyric>
            </note>
            <note>
                <pitch>
                    <step>G</step>
                    <octave>4</octave>
                </pitch>
                <duration>768</duration>
                <voice>1</voice>
                <type>quarter</type>
                <stem>up</stem>
                <lyric relative-x="16" default-y="-80" number="1" name="verse">
                    <syllabic>single</syllabic>
                    <text>and</text>
                </lyric>
                <lyric default-y="-105" number="2" name="verse">
                    <syllabic>end</syllabic>
                    <text>ca's</text>
                </lyric>
                <lyric relative-x="11" default-y="-130" number="3" name="verse">
                    <syllabic>single</syllabic>
                    <text>to</text>
                </lyric>
                <lyric default-y="-155" number="4" name="verse">
                    <syllabic>end</syllabic>
                    <text>ca's</text>
                </lyric>
                <lyric default-y="-180" number="5" name="verse">
                    <syllabic>single</syllabic>
                    <text>his</text>
                </lyric>
            </note>
        </measure>
        <measure number="6">
            <print new-system="no"/>
            <harmony relative-x="8" default-y="25" print-frame="no">
                <root>
                    <root-step>C</root-step>
                </root>
                <kind text="">major</kind>
            </harmony>
            <note>
                <pitch>
                    <step>G</step>
                    <octave>4</octave>
                </pitch>
                <duration>3072</duration>
                <tie type="start"/>
                <voice>1</voice>
                <type>whole</type>
                <stem>up</stem>
                <notations>
                    <tied type="start"/>
                </notations>
                <lyric relative-x="16" default-y="-80" number="1" name="verse">
                    <syllabic>single</syllabic>
                    <text>die</text>
                </lyric>
                <lyric default-y="-105" number="2" name="verse">
                    <syllabic>single</syllabic>
                    <text>best</text>
                </lyric>
                <lyric relative-x="7" default-y="-130" number="3" name="verse">
                    <syllabic>single</syllabic>
                    <text>hand</text>
                </lyric>
                <lyric default-y="-155" number="4" name="verse">
                    <syllabic>single</syllabic>
                    <text>best</text>
                </lyric>
                <lyric default-y="-180" number="5" name="verse">
                    <syllabic>single</syllabic>
                    <text>fate.</text>
                </lyric>
            </note>
        </measure>
        <measure number="7">
            <print new-system="yes"/>
            <note>
                <pitch>
                    <step>G</step>
                    <octave>4</octave>
                </pitch>
                <duration>1536</duration>
                <tie type="stop"/>
                <voice>1</voice>
                <type>half</type>
                <stem>up</stem>
                <notations>
                    <tied type="stop"/>
                </notations>
            </note>
            <note>
                <pitch>
                    <step>C</step>
                    <octave>5</octave>
                </pitch>
                <duration>768</duration>
                <voice>1</voice>
                <type>quarter</type>
                <stem>down</stem>
                <lyric default-y="-80" number="1" name="verse">
                    <syllabic>single</syllabic>
                    <text>Men</text>
                </lyric>
                <lyric relative-x="-19" default-y="-105" number="2" name="verse">
                    <syllabic>single</syllabic>
                    <text>One</text>
                </lyric>
                <lyric default-y="-130" number="3" name="verse">
                    <syllabic>single</syllabic>
                    <text>Men</text>
                </lyric>
                <lyric default-y="-155" number="4" name="verse">
                    <syllabic>single</syllabic>
                    <text>One</text>
                </lyric>
                <lyric default-y="-180" number="5" name="verse">
                    <syllabic>single</syllabic>
                    <text>He</text>
                </lyric>
            </note>
            <note>
                <pitch>
                    <step>C</step>
                    <octave>5</octave>
                </pitch>
                <duration>768</duration>
                <voice>1</voice>
                <type>quarter</type>
                <stem>down</stem>
                <lyric default-y="-80" number="1" name="verse">
                    <syllabic>single</syllabic>
                    <text>who</text>
                </lyric>
                <lyric relative-x="-16" default-y="-105" number="2" name="verse">
                    <syllabic>single</syllabic>
                    <text>hundred</text>
                </lyric>
                <lyric default-y="-130" number="3" name="verse">
                    <syllabic>single</syllabic>
                    <text>who</text>
                </lyric>
                <lyric default-y="-155" number="4" name="verse">
                    <syllabic>single</syllabic>
                    <text>hundred</text>
                </lyric>
                <lyric default-y="-180" number="5" name="verse">
                    <syllabic>single</syllabic>
                    <text>has</text>
                </lyric>
            </note>
        </measure>
        <measure number="8">
            <print new-system="no"/>
            <harmony relative-x="8" default-y="25" print-frame="no">
                <root>
                    <root-step>F</root-step>
                </root>
                <kind text="">major</kind>
            </harmony>
            <note>
                <pitch>
                    <step>C</step>
                    <octave>5</octave>
                </pitch>
                <duration>3072</duration>
                <tie type="start"/>
                <voice>1</voice>
                <type>whole</type>
                <stem>down</stem>
                <notations>
                    <tied type="start"/>
                </notations>
                <lyric default-y="-80" number="1" name="verse">
                    <syllabic>single</syllabic>
                    <text>mean</text>
                </lyric>
                <lyric relative-x="18" default-y="-105" number="2" name="verse">
                    <syllabic>single</syllabic>
                    <text>men</text>
                </lyric>
                <lyric default-y="-130" number="3" name="verse">
                    <syllabic>single</syllabic>
                    <text>fight</text>
                </lyric>
                <lyric relative-x="16" default-y="-155" number="4" name="verse">
                    <syllabic>single</syllabic>
                    <text>men</text>
                </lyric>
                <lyric default-y="-180" number="5" name="verse">
                    <syllabic>single</syllabic>
                    <text>died</text>
                </lyric>
            </note>
        </measure>
        <measure number="9">
            <print new-system="no"/>
            <note>
                <pitch>
                    <step>C</step>
                    <octave>5</octave>
                </pitch>
                <duration>768</duration>
                <tie type="stop"/>
                <voice>1</voice>
                <type>quarter</type>
                <stem>down</stem>
                <notations>
                    <tied type="stop"/>
                </notations>
            </note>
            <note>
                <pitch>
                    <step>F</step>
                    <octave>4</octave>
                </pitch>
                <duration>768</duration>
                <voice>1</voice>
                <type>quarter</type>
                <stem>up</stem>
                <lyric default-y="-80" number="1" name="verse">
                    <syllabic>single</syllabic>
                    <text>just</text>
                </lyric>
                <lyric relative-x="2" default-y="-105" number="2" name="verse">
                    <syllabic>single</syllabic>
                    <text>we'll</text>
                </lyric>
                <lyric default-y="-130" number="3" name="verse">
                    <syllabic>single</syllabic>
                    <text>by</text>
                </lyric>
                <lyric relative-x="9" default-y="-155" number="4" name="verse">
                    <syllabic>single</syllabic>
                    <text>we'll</text>
                </lyric>
                <lyric default-y="-180" number="5" name="verse">
                    <syllabic>single</syllabic>
                    <text>for</text>
                </lyric>
            </note>
            <note>
                <pitch>
                    <step>A</step>
                    <octave>4</octave>
                </pitch>
                <duration>768</duration>
                <voice>1</voice>
                <type>quarter</type>
                <stem>up</stem>
                <lyric default-y="-80" number="1" name="verse">
                    <syllabic>single</syllabic>
                    <text>what</text>
                </lyric>
                <lyric relative-x="13" default-y="-105" number="2" name="verse">
                    <syllabic>single</syllabic>
                    <text>test</text>
                </lyric>
                <lyric default-y="-130" number="3" name="verse">
                    <syllabic>single</syllabic>
                    <text>night</text>
                </lyric>
                <lyric relative-x="21" default-y="-155" number="4" name="verse">
                    <syllabic>single</syllabic>
                    <text>test</text>
                </lyric>
                <lyric default-y="-180" number="5" name="verse">
                    <syllabic>single</syllabic>
                    <text>those</text>
                </lyric>
            </note>
            <note>
                <pitch>
                    <step>G</step>
                    <octave>4</octave>
                </pitch>
                <duration>768</duration>
                <voice>1</voice>
                <type>quarter</type>
                <stem>up</stem>
                <lyric default-y="-80" number="1" name="verse">
                    <syllabic>single</syllabic>
                    <text>they</text>
                </lyric>
                <lyric relative-x="13" default-y="-105" number="2" name="verse">
                    <syllabic>begin</syllabic>
                    <text>to</text>
                </lyric>
                <lyric default-y="-130" number="3" name="verse">
                    <syllabic>single</syllabic>
                    <text>and</text>
                </lyric>
                <lyric relative-x="21" default-y="-155" number="4" name="verse">
                    <syllabic>begin</syllabic>
                    <text>to</text>
                </lyric>
                <lyric default-y="-180" number="5" name="verse">
                    <syllabic>begin</syllabic>
                    <text>o</text>
                </lyric>
            </note>
        </measure>
        <measure number="10">
            <print new-system="no"/>
            <harmony relative-x="8" default-y="25" print-frame="no">
                <root>
                    <root-step>C</root-step>
                </root>
                <kind text="">major</kind>
            </harmony>
            <note>
                <pitch>
                    <step>G</step>
                    <octave>4</octave>
                </pitch>
                <duration>3072</duration>
                <tie type="start"/>
                <voice>1</voice>
                <type>whole</type>
                <stem>up</stem>
                <notations>
                    <tied type="start"/>
                </notations>
                <lyric default-y="-80" number="1" name="verse">
                    <syllabic>single</syllabic>
                    <text>say</text>
                </lyric>
                <lyric relative-x="13" default-y="-105" number="2" name="verse">
                    <syllabic>end</syllabic>
                    <text>day</text>
                </lyric>
                <lyric default-y="-130" number="3" name="verse">
                    <syllabic>single</syllabic>
                    <text>day.</text>
                </lyric>
                <lyric relative-x="21" default-y="-155" number="4" name="verse">
                    <syllabic>end</syllabic>
                    <text>day</text>
                </lyric>
                <lyric default-y="-180" number="5" name="verse">
                    <syllabic>end</syllabic>
                    <text>pressed</text>
                </lyric>
            </note>
        </measure>
        <measure number="11">
            <print new-system="no"/>
            <note>
                <pitch>
                    <step>G</step>
                    <octave>4</octave>
                </pitch>
                <duration>1536</duration>
                <tie type="stop"/>
                <voice>1</voice>
                <type>half</type>
                <stem>up</stem>
                <notations>
                    <tied type="stop"/>
                </notations>
            </note>
            <note>
                <pitch>
                    <step>E</step>
                    <octave>4</octave>
                </pitch>
                <duration>768</duration>
                <voice>1</voice>
                <type>quarter</type>
                <stem>up</stem>
                <lyric default-y="-80" number="1" name="verse">
                    <syllabic>single</syllabic>
                    <text>The</text>
                </lyric>
                <lyric relative-x="-11" default-y="-105" number="2" name="verse">
                    <syllabic>single</syllabic>
                    <text>But</text>
                </lyric>
                <lyric default-y="-130" number="3" name="verse">
                    <syllabic>begin</syllabic>
                    <text>Cour</text>
                </lyric>
                <lyric default-y="-155" number="4" name="verse">
                    <syllabic>single</syllabic>
                    <text>But</text>
                </lyric>
                <lyric default-y="-180" number="5" name="verse">
                    <syllabic>begin</syllabic>
                    <text>Leav</text>
                </lyric>
            </note>
            <note>
                <pitch>
                    <step>E</step>
                    <octave>4</octave>
                </pitch>
                <duration>768</duration>
                <voice>1</voice>
                <type>quarter</type>
                <stem>up</stem>
                <lyric default-y="-80" number="1" name="verse">
                    <syllabic>single</syllabic>
                    <text>brave</text>
                </lyric>
                <lyric default-y="-105" number="2" name="verse">
                    <syllabic>single</syllabic>
                    <text>only</text>
                </lyric>
                <lyric default-y="-130" number="3" name="verse">
                    <syllabic>end</syllabic>
                    <text>age</text>
                </lyric>
                <lyric default-y="-155" number="4" name="verse">
                    <syllabic>single</syllabic>
                    <text>only</text>
                </lyric>
                <lyric default-y="-180" number="5" name="verse">
                    <syllabic>end</syllabic>
                    <text>ing</text>
                </lyric>
            </note>
        </measure>
        <measure number="12">
            <print new-system="no"/>
            <harmony relative-x="8" default-y="25" print-frame="no">
                <root>
                    <root-step>G</root-step>
                </root>
                <kind text="7">dominant</kind>
            </harmony>
            <note>
                <pitch>
                    <step>D</step>
                    <octave>4</octave>
                </pitch>
                <duration>3072</duration>
                <tie type="start"/>
                <voice>1</voice>
                <type>whole</type>
                <stem>up</stem>
                <notations>
                    <tied type="start"/>
                </notations>
                <lyric default-y="-80" number="1" name="verse">
                    <syllabic>single</syllabic>
                    <text>men</text>
                </lyric>
                <lyric default-y="-105" number="2" name="verse">
                    <syllabic>single</syllabic>
                    <text>three</text>
                </lyric>
                <lyric default-y="-130" number="3" name="verse">
                    <syllabic>single</syllabic>
                    <text>deep</text>
                </lyric>
                <lyric default-y="-155" number="4" name="verse">
                    <syllabic>single</syllabic>
                    <text>three</text>
                </lyric>
                <lyric default-y="-180" number="5" name="verse">
                    <syllabic>single</syllabic>
                    <text>her</text>
                </lyric>
            </note>
        </measure>
        <measure number="13">
            <print new-system="no"/>
            <note>
                <pitch>
                    <step>D</step>
                    <octave>4</octave>
                </pitch>
                <duration>768</duration>
                <tie type="stop"/>
                <voice>1</voice>
                <type>quarter</type>
                <stem>up</stem>
                <notations>
                    <tied type="stop"/>
                </notations>
            </note>
            <note>
                <pitch>
                    <step>G</step>
                    <octave>3</octave>
                </pitch>
                <duration>384</duration>
                <voice>1</voice>
                <type>eighth</type>
                <stem>up</stem>
                <beam number="1">begin</beam>
                <lyric default-y="-80" number="1" name="verse">
                    <syllabic>single</syllabic>
                    <text>of</text>
                </lyric>
                <lyric default-y="-105" number="2" name="verse">
                    <syllabic>single</syllabic>
                    <text>win</text>
                </lyric>
                <lyric default-y="-130" number="3" name="verse">
                    <syllabic>single</syllabic>
                    <text>from</text>
                </lyric>
                <lyric relative-x="4" default-y="-155" number="4" name="verse">
                    <syllabic>single</syllabic>
                    <text>win</text>
                </lyric>
            </note>
            <note>
                <pitch>
                    <step>G</step>
                    <octave>3</octave>
                </pitch>
                <duration>384</duration>
                <voice>1</voice>
                <type>eighth</type>
                <stem>up</stem>
                <beam number="1">end</beam>
                <lyric default-y="-80" number="1" name="verse">
                    <syllabic>single</syllabic>
                    <text>the</text>
                </lyric>
                <lyric default-y="-105" number="2" name="verse">
                    <syllabic>single</syllabic>
                    <text>the</text>
                </lyric>
                <lyric default-y="-130" number="3" name="verse">
                    <syllabic>single</syllabic>
                    <text>the</text>
                </lyric>
                <lyric default-y="-155" number="4" name="verse">
                    <syllabic>single</syllabic>
                    <text>the</text>
                </lyric>
                <lyric relative-x="-19" default-y="-180" number="5" name="verse">
                    <syllabic>single</syllabic>
                    <text>this</text>
                </lyric>
            </note>
            <note>
                <pitch>
                    <step>A</step>
                    <octave>3</octave>
                </pitch>
                <duration>768</duration>
                <voice>1</voice>
                <type>quarter</type>
                <stem>up</stem>
                <lyric default-y="-80" number="1" name="verse">
                    <syllabic>single</syllabic>
                    <text>Green</text>
                </lyric>
                <lyric relative-x="-1" default-y="-105" number="2" name="verse">
                    <syllabic>single</syllabic>
                    <text>Green</text>
                </lyric>
                <lyric default-y="-130" number="3" name="verse">
                    <syllabic>single</syllabic>
                    <text>Green</text>
                </lyric>
                <lyric relative-x="1" default-y="-155" number="4" name="verse">
                    <syllabic>single</syllabic>
                    <text>Green</text>
                </lyric>
                <lyric default-y="-180" number="5" name="verse">
                    <syllabic>single</syllabic>
                    <text>last</text>
                </lyric>
            </note>
            <note>
                <pitch>
                    <step>B</step>
                    <octave>3</octave>
                </pitch>
                <duration>768</duration>
                <voice>1</voice>
                <type>quarter</type>
                <stem>up</stem>
                <lyric default-y="-80" number="1" name="verse">
                    <syllabic>begin</syllabic>
                    <text>Be</text>
                </lyric>
                <lyric default-y="-105" number="2" name="verse">
                    <syllabic>begin</syllabic>
                    <text>Be</text>
                </lyric>
                <lyric default-y="-130" number="3" name="verse">
                    <syllabic>begin</syllabic>
                    <text>Be</text>
                </lyric>
                <lyric relative-x="1" default-y="-155" number="4" name="verse">
                    <syllabic>begin</syllabic>
                    <text>Be</text>
                </lyric>
                <lyric default-y="-180" number="5" name="verse">
                    <syllabic>begin</syllabic>
                    <text>re</text>
                </lyric>
            </note>
        </measure>
        <measure number="14">
            <print new-system="yes"/>
            <barline location="left">
                <ending type="start" number="1, 2, 3, 4, 5"></ending>
            </barline>
            <harmony relative-x="8" default-y="25" print-frame="no">
                <root>
                    <root-step>C</root-step>
                </root>
                <kind text="">major</kind>
            </harmony>
            <note>
                <pitch>
                    <step>C</step>
                    <octave>4</octave>
                </pitch>
                <duration>3072</duration>
                <tie type="start"/>
                <voice>1</voice>
                <type>whole</type>
                <stem>up</stem>
                <notations>
                    <tied type="start"/>
                </notations>
                <lyric default-y="-80" number="1" name="verse">
                    <syllabic>end</syllabic>
                    <text>ret.</text>
                </lyric>
                <lyric default-y="-105" number="2" name="verse">
                    <syllabic>end</syllabic>
                    <text>ret.</text>
                </lyric>
                <lyric default-y="-130" number="3" name="verse">
                    <syllabic>end</syllabic>
                    <text>ret.</text>
                </lyric>
                <lyric relative-x="1" default-y="-155" number="4" name="verse">
                    <syllabic>end</syllabic>
                    <text>ret.</text>
                </lyric>
            </note>
        </measure>
        <measure number="15">
            <print new-system="no"/>
            <note>
                <pitch>
                    <step>C</step>
                    <octave>4</octave>
                </pitch>
                <duration>1536</duration>
                <tie type="stop"/>
                <voice>1</voice>
                <type>half</type>
                <stem>up</stem>
                <notations>
                    <tied type="stop"/>
                </notations>
            </note>
            <note>
                <pitch>
                    <step>E</step>
                    <octave>4</octave>
                </pitch>
                <duration>768</duration>
                <voice>1</voice>
                <type>quarter</type>
                <stem>up</stem>
                <lyric relative-x="-15" default-y="-80" number="1" name="verse">
                    <syllabic>begin</syllabic>
                    <text>2.Sil</text>
                </lyric>
                <lyric relative-x="10" default-y="-105" number="2" name="verse">
                    <syllabic>single</syllabic>
                    <text>3.Trained</text>
                </lyric>
                <lyric relative-x="-15" default-y="-130" number="3" name="verse">
                    <syllabic>begin</syllabic>
                    <text>4.Sil</text>
                </lyric>
                <lyric relative-x="-4" default-y="-155" number="4" name="verse">
                    <syllabic>single</syllabic>
                    <text>5.Back</text>
                </lyric>
            </note>
            <note>
                <pitch>
                    <step>E</step>
                    <octave>4</octave>
                </pitch>
                <duration>768</duration>
                <voice>1</voice>
                <type>quarter</type>
                <stem>up</stem>
                <lyric default-y="-80" number="1" name="verse">
                    <syllabic>end</syllabic>
                    <text>ver</text>
                </lyric>
                <lyric default-y="-105" number="2" name="verse">
                    <syllabic>single</syllabic>
                    <text>to</text>
                </lyric>
                <lyric default-y="-130" number="3" name="verse">
                    <syllabic>end</syllabic>
                    <text>ver</text>
                </lyric>
                <lyric default-y="-155" number="4" name="verse">
                    <syllabic>single</syllabic>
                    <text>at</text>
                </lyric>
            </note>
        </measure>
        <measure number="16">
            <print new-system="no"/>
            <note>
                <pitch>
                    <step>E</step>
                    <octave>4</octave>
                </pitch>
                <duration>3072</duration>
                <voice>1</voice>
                <type>whole</type>
                <stem>up</stem>
                <lyric relative-x="19" default-y="-80" number="1" name="verse">
                    <syllabic>single</syllabic>
                    <text>wings</text>
                </lyric>
                <lyric default-y="-105" number="2" name="verse">
                    <syllabic>single</syllabic>
                    <text>live</text>
                </lyric>
                <lyric relative-x="16" default-y="-130" number="3" name="verse">
                    <syllabic>single</syllabic>
                    <text>wings</text>
                </lyric>
                <lyric default-y="-155" number="4" name="verse">
                    <syllabic>single</syllabic>
                    <text>home</text>
                </lyric>
            </note>
            <barline location="right">
                <bar-style>light-heavy</bar-style>
                <ending type="stop" number="1, 2, 3, 4, 5"></ending>
                <repeat direction="backward"/>
            </barline>
        </measure>
        <measure number="17">
            <print new-system="no"/>
            <barline location="left">
                <ending type="start" number="6"></ending>
            </barline>
            <harmony relative-x="8" default-y="25" print-frame="no">
                <root>
                    <root-step>C</root-step>
                </root>
                <kind text="">major</kind>
            </harmony>
            <note>
                <pitch>
                    <step>C</step>
                    <octave>4</octave>
                </pitch>
                <duration>3072</duration>
                <tie type="start"/>
                <voice>1</voice>
                <type>whole</type>
                <stem>up</stem>
                <notations>
                    <tied type="start"/>
                </notations>
                <lyric relative-x="19" default-y="-80" number="1" name="verse">
                    <syllabic>single</syllabic>
                    <text>quest.</text>
                </lyric>
            </note>
            <barline location="right">
                <ending type="discontinue" number="6"></ending>
            </barline>
        </measure>
        <measure number="18">
            <print new-system="no"/>
            <note>
                <pitch>
                    <step>C</step>
                    <octave>4</octave>
                </pitch>
                <duration>768</duration>
                <tie type="stop"/>
                <voice>1</voice>
                <type>quarter</type>
                <stem>up</stem>
                <notations>
                    <tied type="stop"/>
                </notations>
            </note>
            <note>
                <pitch>
                    <step>E</step>
                    <octave>4</octave>
                </pitch>
                <duration>768</duration>
                <voice>1</voice>
                <type>quarter</type>
                <stem>up</stem>
                <lyric default-y="-80" number="1" name="verse">
                    <syllabic>single</syllabic>
                    <text>6.Put</text>
                </lyric>
            </note>
            <note>
                <pitch>
                    <step>E</step>
                    <octave>4</octave>
                </pitch>
                <duration>768</duration>
                <voice>1</voice>
                <type>quarter</type>
                <stem>up</stem>
                <lyric default-y="-80" number="1" name="verse">
                    <syllabic>begin</syllabic>
                    <text>sil</text>
                </lyric>
            </note>
            <note>
                <pitch>
                    <step>E</step>
                    <octave>4</octave>
                </pitch>
                <duration>768</duration>
                <tie type="start"/>
                <voice>1</voice>
                <type>quarter</type>
                <stem>up</stem>
                <notations>
                    <tied type="start"/>
                </notations>
                <lyric relative-x="22" default-y="-80" number="1" name="verse">
                    <syllabic>end</syllabic>
                    <text>ver</text>
                </lyric>
            </note>
        </measure>
        <measure number="19">
            <print new-system="no"/>
            <note>
                <pitch>
                    <step>E</step>
                    <octave>4</octave>
                </pitch>
                <duration>768</duration>
                <tie type="stop"/>
                <voice>1</voice>
                <type>quarter</type>
                <stem>up</stem>
                <notations>
                    <tied type="stop"/>
                </notations>
            </note>
            <note>
                <pitch>
                    <step>C</step>
                    <octave>4</octave>
                </pitch>
                <duration>768</duration>
                <voice>1</voice>
                <type>quarter</type>
                <stem>up</stem>
                <lyric relative-x="-15" default-y="-80" number="1" name="verse">
                    <syllabic>single</syllabic>
                    <text>wings</text>
                </lyric>
            </note>
            <harmony relative-x="8" default-y="25" print-frame="no">
                <root>
                    <root-step>G</root-step>
                </root>
                <kind text="7">dominant</kind>
            </harmony>
            <note>
                <pitch>
                    <step>D</step>
                    <octave>4</octave>
                </pitch>
                <duration>768</duration>
                <voice>1</voice>
                <type>quarter</type>
                <stem>up</stem>
                <lyric relative-x="-15" default-y="-80" number="1" name="verse">
                    <syllabic>single</syllabic>
                    <text>on</text>
                </lyric>
            </note>
            <note>
                <pitch>
                    <step>D</step>
                    <octave>4</octave>
                </pitch>
                <duration>768</duration>
                <voice>1</voice>
                <type>quarter</type>
                <stem>up</stem>
                <lyric relative-x="-15" default-y="-80" number="1" name="verse">
                    <syllabic>single</syllabic>
                    <text>my</text>
                </lyric>
            </note>
        </measure>
        <measure number="20">
            <print new-system="no"/>
            <note>
                <pitch>
                    <step>E</step>
                    <octave>4</octave>
                </pitch>
                <duration>768</duration>
                <voice>1</voice>
                <type>quarter</type>
                <stem>up</stem>
                <lyric relative-x="-15" default-y="-80" number="1" name="verse">
                    <syllabic>single</syllabic>
                    <text>son's</text>
                </lyric>
            </note>
            <note>
                <pitch>
                    <step>C</step>
                    <octave>4</octave>
                </pitch>
                <duration>2304</duration>
                <tie type="start"/>
                <voice>1</voice>
                <type>half</type>
                <dot/>
                <stem>up</stem>
                <notations>
                    <tied type="start"/>
                </notations>
                <lyric relative-x="-15" default-y="-80" number="1" name="verse">
                    <syllabic>single</syllabic>
                    <text>chest</text>
                </lyric>
            </note>
        </measure>
        <measure number="21">
            <print new-system="no"/>
            <note>
                <pitch>
                    <step>C</step>
                    <octave>4</octave>
                </pitch>
                <duration>3072</duration>
                <tie type="stop"/>
                <voice>1</voice>
                <type>whole</type>
                <stem>up</stem>
                <notations>
                    <tied type="stop"/>
                </notations>
            </note>
        </measure>
        <measure number="22">
            <print new-system="yes"/>
            <note>
                <pitch>
                    <step>G</step>
                    <octave>4</octave>
                </pitch>
                <duration>768</duration>
                <voice>1</voice>
                <type>quarter</type>
                <stem>up</stem>
                <lyric default-y="-80" number="1" name="verse">
                    <syllabic>single</syllabic>
                    <text>Make</text>
                </lyric>
            </note>
            <note>
                <pitch>
                    <step>G</step>
                    <octave>4</octave>
                </pitch>
                <duration>768</duration>
                <voice>1</voice>
                <type>quarter</type>
                <stem>up</stem>
                <lyric default-y="-80" number="1" name="verse">
                    <syllabic>single</syllabic>
                    <text>him</text>
                </lyric>
            </note>
            <harmony relative-x="8" default-y="25" print-frame="no">
                <root>
                    <root-step>G</root-step>
                </root>
                <kind text="7">dominant</kind>
            </harmony>
            <note>
                <pitch>
                    <step>G</step>
                    <octave>4</octave>
                </pitch>
                <duration>1536</duration>
                <voice>1</voice>
                <type>half</type>
                <stem>up</stem>
                <lyric default-y="-80" number="1" name="verse">
                    <syllabic>single</syllabic>
                    <text>one</text>
                </lyric>
            </note>
        </measure>
        <measure number="23">
            <print new-system="no"/>
            <note>
                <pitch>
                    <step>G</step>
                    <octave>4</octave>
                </pitch>
                <duration>768</duration>
                <voice>1</voice>
                <type>quarter</type>
                <stem>up</stem>
                <lyric default-y="-80" number="1" name="verse">
                    <syllabic>single</syllabic>
                    <text>of</text>
                </lyric>
            </note>
            <note>
                <pitch>
                    <step>G</step>
                    <octave>4</octave>
                </pitch>
                <duration>768</duration>
                <voice>1</voice>
                <type>quarter</type>
                <stem>up</stem>
                <lyric default-y="-80" number="1" name="verse">
                    <syllabic>begin</syllabic>
                    <text>A</text>
                </lyric>
            </note>
            <note>
                <pitch>
                    <step>A</step>
                    <octave>4</octave>
                </pitch>
                <duration>384</duration>
                <voice>1</voice>
                <type>eighth</type>
                <stem>up</stem>
                <beam number="1">begin</beam>
                <lyric default-y="-80" number="1" name="verse">
                    <syllabic>middle</syllabic>
                    <text>me</text>
                </lyric>
            </note>
            <note>
                <pitch>
                    <step>G</step>
                    <octave>4</octave>
                </pitch>
                <duration>384</duration>
                <voice>1</voice>
                <type>eighth</type>
                <stem>up</stem>
                <beam number="1">end</beam>
                <lyric default-y="-80" number="1" name="verse">
                    <syllabic>middle</syllabic>
                    <text>ri</text>
                </lyric>
            </note>
            <note>
                <pitch>
                    <step>G</step>
                    <octave>4</octave>
                </pitch>
                <duration>768</duration>
                <voice>1</voice>
                <type>quarter</type>
                <stem>up</stem>
                <lyric default-y="-80" number="1" name="verse">
                    <syllabic>end</syllabic>
                    <text>ca's</text>
                </lyric>
            </note>
        </measure>
        <measure number="24">
            <print new-system="no"/>
            <harmony relative-x="8" default-y="25" print-frame="no">
                <root>
                    <root-step>C</root-step>
                </root>
                <kind text="">major</kind>
            </harmony>
            <note>
                <pitch>
                    <step>G</step>
                    <octave>4</octave>
                </pitch>
                <duration>3072</duration>
                <tie type="start"/>
                <voice>1</voice>
                <type>whole</type>
                <stem>up</stem>
                <notations>
                    <tied type="start"/>
                </notations>
                <lyric default-y="-80" number="1" name="verse">
                    <syllabic>single</syllabic>
                    <text>best.</text>
                </lyric>
            </note>
        </measure>
        <measure number="25">
            <print new-system="no"/>
            <note>
                <pitch>
                    <step>G</step>
                    <octave>4</octave>
                </pitch>
                <duration>1536</duration>
                <tie type="stop"/>
                <voice>1</voice>
                <type>half</type>
                <stem>up</stem>
                <notations>
                    <tied type="stop"/>
                </notations>
                <lyric default-y="-80" number="1" name="verse">
                    <syllabic>single</syllabic>
                    <text>He'll</text>
                </lyric>
            </note>
            <note>
                <pitch>
                    <step>C</step>
                    <octave>5</octave>
                </pitch>
                <duration>768</duration>
                <voice>1</voice>
                <type>quarter</type>
                <stem>down</stem>
                <lyric default-y="-80" number="1" name="verse">
                    <syllabic>single</syllabic>
                    <text>be</text>
                </lyric>
            </note>
            <note>
                <pitch>
                    <step>C</step>
                    <octave>5</octave>
                </pitch>
                <duration>768</duration>
                <voice>1</voice>
                <type>quarter</type>
                <stem>down</stem>
                <lyric default-y="-80" number="1" name="verse">
                    <syllabic>single</syllabic>
                    <text>a</text>
                </lyric>
            </note>
        </measure>
        <measure number="26">
            <print new-system="no"/>
            <harmony relative-x="8" default-y="25" print-frame="no">
                <root>
                    <root-step>F</root-step>
                </root>
                <kind text="">major</kind>
            </harmony>
            <note>
                <pitch>
                    <step>C</step>
                    <octave>5</octave>
                </pitch>
                <duration>3072</duration>
                <tie type="start"/>
                <voice>1</voice>
                <type>whole</type>
                <stem>down</stem>
                <notations>
                    <tied type="start"/>
                </notations>
                <lyric relative-x="20" default-y="-80" number="1" name="verse">
                    <syllabic>single</syllabic>
                    <text>man</text>
                </lyric>
            </note>
        </measure>
        <measure number="27">
            <print new-system="no"/>
            <note>
                <pitch>
                    <step>C</step>
                    <octave>5</octave>
                </pitch>
                <duration>768</duration>
                <tie type="stop"/>
                <voice>1</voice>
                <type>quarter</type>
                <stem>down</stem>
                <notations>
                    <tied type="stop"/>
                </notations>
            </note>
            <note>
                <pitch>
                    <step>F</step>
                    <octave>4</octave>
                </pitch>
                <duration>768</duration>
                <voice>1</voice>
                <type>quarter</type>
                <stem>up</stem>
                <lyric relative-x="-8" default-y="-80" number="1" name="verse">
                    <syllabic>single</syllabic>
                    <text>they'll</text>
                </lyric>
            </note>
            <note>
                <pitch>
                    <step>A</step>
                    <octave>4</octave>
                </pitch>
                <duration>768</duration>
                <voice>1</voice>
                <type>quarter</type>
                <stem>up</stem>
                <lyric relative-x="-8" default-y="-80" number="1" name="verse">
                    <syllabic>single</syllabic>
                    <text>test</text>
                </lyric>
            </note>
            <note>
                <pitch>
                    <step>G</step>
                    <octave>4</octave>
                </pitch>
                <duration>768</duration>
                <voice>1</voice>
                <type>quarter</type>
                <stem>up</stem>
                <lyric relative-x="-8" default-y="-80" number="1" name="verse">
                    <syllabic>single</syllabic>
                    <text>one</text>
                </lyric>
            </note>
        </measure>
        <measure number="28">
            <print new-system="yes"/>
            <harmony relative-x="8" default-y="25" print-frame="no">
                <root>
                    <root-step>C</root-step>
                </root>
                <kind text="">major</kind>
            </harmony>
            <note>
                <pitch>
                    <step>G</step>
                    <octave>4</octave>
                </pitch>
                <duration>3072</duration>
                <tie type="start"/>
                <voice>1</voice>
                <type>whole</type>
                <stem>up</stem>
                <notations>
                    <tied type="start"/>
                </notations>
                <lyric relative-x="26" default-y="-96" number="1" name="verse">
                    <syllabic>single</syllabic>
                    <text>day.</text>
                </lyric>
            </note>
        </measure>
        <measure number="29">
            <note>
                <pitch>
                    <step>G</step>
                    <octave>4</octave>
                </pitch>
                <duration>1536</duration>
                <tie type="stop"/>
                <voice>1</voice>
                <type>half</type>
                <stem>up</stem>
                <notations>
                    <tied type="stop"/>
                </notations>
            </note>
            <note>
                <pitch>
                    <step>E</step>
                    <octave>4</octave>
                </pitch>
                <duration>768</duration>
                <voice>1</voice>
                <type>quarter</type>
                <stem>up</stem>
                <lyric relative-x="-8" default-y="-96" number="1" name="verse">
                    <syllabic>single</syllabic>
                    <text>Make</text>
                </lyric>
            </note>
            <note>
                <pitch>
                    <step>E</step>
                    <octave>4</octave>
                </pitch>
                <duration>768</duration>
                <voice>1</voice>
                <type>quarter</type>
                <stem>up</stem>
                <lyric relative-x="-8" default-y="-96" number="1" name="verse">
                    <syllabic>single</syllabic>
                    <text>him</text>
                </lyric>
            </note>
        </measure>
        <measure number="30">
            <harmony relative-x="8" default-y="25" print-frame="no">
                <root>
                    <root-step>G</root-step>
                </root>
                <kind text="7">dominant</kind>
            </harmony>
            <note>
                <pitch>
                    <step>D</step>
                    <octave>4</octave>
                </pitch>
                <duration>3072</duration>
                <tie type="start"/>
                <voice>1</voice>
                <type>whole</type>
                <stem>up</stem>
                <notations>
                    <tied type="start"/>
                </notations>
                <lyric relative-x="51" default-y="-96" number="1" name="verse">
                    <syllabic>single</syllabic>
                    <text>win</text>
                </lyric>
            </note>
        </measure>
        <measure number="31">
            <note>
                <pitch>
                    <step>D</step>
                    <octave>4</octave>
                </pitch>
                <duration>768</duration>
                <tie type="stop"/>
                <voice>1</voice>
                <type>quarter</type>
                <stem>up</stem>
                <notations>
                    <tied type="stop"/>
                </notations>
            </note>
            <note>
                <pitch>
                    <step>G</step>
                    <octave>3</octave>
                </pitch>
                <duration>768</duration>
                <voice>1</voice>
                <type>quarter</type>
                <stem>up</stem>
                <lyric relative-x="-10" default-y="-96" number="1" name="verse">
                    <syllabic>single</syllabic>
                    <text>the</text>
                </lyric>
            </note>
            <note>
                <pitch>
                    <step>A</step>
                    <octave>3</octave>
                </pitch>
                <duration>768</duration>
                <voice>1</voice>
                <type>quarter</type>
                <stem>up</stem>
                <lyric relative-x="-10" default-y="-96" number="1" name="verse">
                    <syllabic>single</syllabic>
                    <text>Green</text>
                </lyric>
            </note>
            <note>
                <pitch>
                    <step>B</step>
                    <octave>3</octave>
                </pitch>
                <duration>768</duration>
                <voice>1</voice>
                <type>quarter</type>
                <stem>up</stem>
                <lyric relative-x="-10" default-y="-96" number="1" name="verse">
                    <syllabic>begin</syllabic>
                    <text>Be</text>
                </lyric>
            </note>
        </measure>
        <measure number="32">
            <harmony relative-x="8" default-y="25" print-frame="no">
                <root>
                    <root-step>C</root-step>
                </root>
                <kind text="">major</kind>
            </harmony>
            <note>
                <pitch>
                    <step>C</step>
                    <octave>4</octave>
                </pitch>
                <duration>3072</duration>
                <tie type="start"/>
                <voice>1</voice>
                <type>whole</type>
                <stem>up</stem>
                <notations>
                    <tied type="start"/>
                </notations>
                <lyric relative-x="-10" default-y="-96" number="1" name="verse">
                    <syllabic>end</syllabic>
                    <text>ret.</text>
                </lyric>
            </note>
        </measure>
        <measure number="33">
            <note>
                <pitch>
                    <step>C</step>
                    <octave>4</octave>
                </pitch>
                <duration>3072</duration>
                <tie type="stop"/>
                <voice>1</voice>
                <type>whole</type>
                <stem>up</stem>
                <notations>
                    <tied type="stop"/>
                </notations>
            </note>
            <barline location="right">
                <bar-style>light-heavy</bar-style>
            </barline>
        </measure>
    </part>
</score-partwise>
