<?xml version="1.0" encoding="UTF-8"?>
<!DOCTYPE score-partwise PUBLIC "-//Recordare//DTD MusicXML 2.0 Partwise//EN" "http://www.musicxml.org/dtds/partwise.dtd">
<score-partwise version="2.0">
    <work>
        <work-number></work-number>
        <work-title></work-title>
    </work>
    <movement-number></movement-number>
    <movement-title>Laplace</movement-title>
    <identification>
        <creator type="composer">Adam Fine</creator>
        <creator type="poet"></creator>
        <rights>All Rights Reserved</rights>
        <encoding>
            <software>Finale 2012 for Windows</software>
            <software>Dolet Light for Finale 2012</software>
            <encoding-date>2012-02-19</encoding-date>
            <supports value="yes" type="yes" element="print" attribute="new-system"/>
            <supports value="yes" type="yes" element="print" attribute="new-page"/>
            <software>ProxyMusic 2.0 c</software>
        </encoding>
        <source>http://wikifonia.org/node/14940/revisions/19940/view</source>
    </identification>
    <defaults>
        <scaling>
            <millimeters>7.2319</millimeters>
            <tenths>40</tenths>
        </scaling>
        <page-layout>
            <page-height>1545</page-height>
            <page-width>1194</page-width>
            <page-margins type="both">
                <left-margin>140</left-margin>
                <right-margin>70</right-margin>
                <top-margin>70</top-margin>
                <bottom-margin>70</bottom-margin>
            </page-margins>
        </page-layout>
        <system-layout>
            <system-margins>
                <left-margin>0</left-margin>
                <right-margin>0</right-margin>
            </system-margins>
            <system-distance>121</system-distance>
            <top-system-distance>70</top-system-distance>
        </system-layout>
        <appearance>
            <line-width type="stem">0.7487</line-width>
            <line-width type="beam">5</line-width>
            <line-width type="staff">0.7487</line-width>
            <line-width type="light barline">0.7487</line-width>
            <line-width type="heavy barline">5</line-width>
            <line-width type="leger">0.7487</line-width>
            <line-width type="ending">0.7487</line-width>
            <line-width type="wedge">0.7487</line-width>
            <line-width type="enclosure">0.7487</line-width>
            <line-width type="tuplet bracket">0.7487</line-width>
            <note-size type="grace">60</note-size>
            <note-size type="cue">60</note-size>
        </appearance>
        <music-font font-size="20.5" font-family="Maestro,engraved"/>
        <word-font font-size="10.25" font-family="Segoe UI"/>
        <lyric-font font-size="10.25" font-family="Times New Roman"/>
    </defaults>
    <credit page="1">
        <credit-words font-weight="bold" font-size="36" font-family="Sawasdee" default-y="1402" default-x="140" valign="bottom">Laplace</credit-words>
    </credit>
    <credit page="1">
        <credit-words font-size="10" font-family="Sawasdee" default-y="1403" default-x="388" justify="right" valign="bottom">by Adam Fine</credit-words>
    </credit>
    <credit page="1">
        <credit-words font-size="9" font-family="Sawasdee" default-y="70" default-x="1124" justify="right" valign="bottom">copyright © 2009 Little Zaide Music
all rights reserved
www.littlezaide.com</credit-words>
    </credit>
    <credit page="1">
        <credit-words font-size="10" font-family="Sawasdee" default-y="1362" default-x="652" valign="top">(solos only	  )</credit-words>
    </credit>
    <part-list>
        <score-part id="P1">
            <part-name print-object="no">MusicXML Part</part-name>
            <score-instrument id="P1-I1">
                <instrument-name>ARIA Player</instrument-name>
            </score-instrument>
            <midi-device>ARIA Player</midi-device>
            <midi-instrument id="P1-I1">
                <midi-channel>1</midi-channel>
                <midi-program>1</midi-program>
                <volume>80</volume>
                <pan>0</pan>
            </midi-instrument>
        </score-part>
    </part-list>
    <part id="P1">
        <measure width="334" number="1">
            <print>
                <system-layout>
                    <top-system-distance>180</top-system-distance>
                </system-layout>
            </print>
            <attributes>
                <divisions>4</divisions>
                <key>
                    <fifths>-5</fifths>
                    <mode>major</mode>
                </key>
                <time symbol="common">
                    <beats>4</beats>
                    <beat-type>4</beat-type>
                </time>
                <clef>
                    <sign>G</sign>
                    <line>2</line>
                </clef>
            </attributes>
            <sound tempo="200"/>
            <harmony font-weight="bold" font-family="Sawasdee" default-y="18">
                <root>
                    <root-step>D</root-step>
                    <root-alter>-1</root-alter>
                </root>
                <kind halign="center" text="">major</kind>
            </harmony>
            <direction placement="above" directive="yes">
                <direction-type>
                    <words font-weight="bold" font-size="12" font-family="Sawasdee" relative-x="-67" default-y="28">allegro</words>
                </direction-type>
            </direction>
            <note default-x="150">
                <pitch>
                    <step>C</step>
                    <octave>5</octave>
                </pitch>
                <duration>12</duration>
                <instrument id="P1-I1"/>
                <voice>1</voice>
                <type>half</type>
                <dot/>
                <stem default-y="-50.5">down</stem>
            </note>
            <note default-x="275">
                <pitch>
                    <step>D</step>
                    <alter>-1</alter>
                    <octave>5</octave>
                </pitch>
                <duration>4</duration>
                <instrument id="P1-I1"/>
                <voice>1</voice>
                <type>quarter</type>
                <stem default-y="-45">down</stem>
            </note>
        </measure>
        <measure width="278" number="2">
            <note default-x="14">
                <pitch>
                    <step>E</step>
                    <alter>-1</alter>
                    <octave>5</octave>
                </pitch>
                <duration>4</duration>
                <instrument id="P1-I1"/>
                <voice>1</voice>
                <type>quarter</type>
                <stem default-y="-40">down</stem>
            </note>
            <note default-x="76">
                <pitch>
                    <step>F</step>
                    <octave>5</octave>
                </pitch>
                <duration>2</duration>
                <instrument id="P1-I1"/>
                <voice>1</voice>
                <type>eighth</type>
                <stem default-y="-30">down</stem>
                <beam number="1">begin</beam>
            </note>
            <note default-x="114">
                <pitch>
                    <step>E</step>
                    <alter>-1</alter>
                    <octave>5</octave>
                </pitch>
                <duration>2</duration>
                <tie type="start"/>
                <instrument id="P1-I1"/>
                <voice>1</voice>
                <type>eighth</type>
                <stem default-y="-32.5">down</stem>
                <beam number="1">end</beam>
                <notations>
                    <tied type="start"/>
                </notations>
            </note>
            <note default-x="153">
                <pitch>
                    <step>E</step>
                    <alter>-1</alter>
                    <octave>5</octave>
                </pitch>
                <duration>4</duration>
                <tie type="stop"/>
                <instrument id="P1-I1"/>
                <voice>1</voice>
                <type>quarter</type>
                <stem default-y="-40">down</stem>
                <notations>
                    <tied type="stop"/>
                </notations>
            </note>
            <note default-x="215">
                <pitch>
                    <step>D</step>
                    <alter>-1</alter>
                    <octave>5</octave>
                </pitch>
                <duration>4</duration>
                <instrument id="P1-I1"/>
                <voice>1</voice>
                <type>quarter</type>
                <stem default-y="-45">down</stem>
            </note>
        </measure>
        <measure width="168" number="3">
            <harmony font-weight="bold" font-family="Sawasdee" default-y="17">
                <root>
                    <root-step>A</root-step>
                    <root-alter>-1</root-alter>
                </root>
                <kind halign="center" text="7">dominant</kind>
            </harmony>
            <harmony font-weight="bold" font-family="Sawasdee" default-y="45">
                <root>
                    <root-step>G</root-step>
                    <root-alter>-1</root-alter>
                </root>
                <kind halign="center" text="7">dominant</kind>
            </harmony>
            <note default-x="13">
                <pitch>
                    <step>C</step>
                    <octave>5</octave>
                </pitch>
                <duration>16</duration>
                <tie type="start"/>
                <instrument id="P1-I1"/>
                <voice>1</voice>
                <type>whole</type>
                <notations>
                    <tied type="start"/>
                </notations>
            </note>
        </measure>
        <measure width="204" number="4">
            <note default-x="14">
                <pitch>
                    <step>C</step>
                    <octave>5</octave>
                </pitch>
                <duration>8</duration>
                <tie type="stop"/>
                <instrument id="P1-I1"/>
                <voice>1</voice>
                <type>half</type>
                <stem default-y="-50.5">down</stem>
                <notations>
                    <tied type="stop"/>
                </notations>
            </note>
            <note default-x="108">
                <pitch>
                    <step>A</step>
                    <alter>-1</alter>
                    <octave>4</octave>
                </pitch>
                <duration>8</duration>
                <instrument id="P1-I1"/>
                <voice>1</voice>
                <type>half</type>
                <stem default-y="10.5">up</stem>
            </note>
        </measure>
        <measure width="217" number="5">
            <print new-system="yes">
                <system-layout>
                    <system-distance>128</system-distance>
                </system-layout>
            </print>
            <harmony font-weight="bold" font-family="Sawasdee" default-y="17">
                <root>
                    <root-step>D</root-step>
                    <root-alter>-1</root-alter>
                </root>
                <kind halign="center" text="">major</kind>
            </harmony>
            <note default-x="15">
                <pitch>
                    <step>C</step>
                    <octave>5</octave>
                </pitch>
                <duration>12</duration>
                <instrument id="P1-I1"/>
                <voice>1</voice>
                <type>half</type>
                <dot/>
                <stem default-y="-50">down</stem>
            </note>
            <note default-x="152">
                <pitch>
                    <step>D</step>
                    <alter>-1</alter>
                    <octave>5</octave>
                </pitch>
                <duration>4</duration>
                <instrument id="P1-I1"/>
                <voice>1</voice>
                <type>quarter</type>
                <stem default-y="-45.5">down</stem>
            </note>
        </measure>
        <measure width="303" number="6">
            <note default-x="14">
                <pitch>
                    <step>E</step>
                    <alter>-1</alter>
                    <octave>5</octave>
                </pitch>
                <duration>4</duration>
                <instrument id="P1-I1"/>
                <voice>1</voice>
                <type>quarter</type>
                <stem default-y="-40">down</stem>
            </note>
            <note default-x="82">
                <pitch>
                    <step>F</step>
                    <octave>5</octave>
                </pitch>
                <duration>2</duration>
                <instrument id="P1-I1"/>
                <voice>1</voice>
                <type>eighth</type>
                <stem default-y="-30">down</stem>
                <beam number="1">begin</beam>
            </note>
            <note default-x="124">
                <pitch>
                    <step>E</step>
                    <alter>-1</alter>
                    <octave>5</octave>
                </pitch>
                <duration>2</duration>
                <tie type="start"/>
                <instrument id="P1-I1"/>
                <voice>1</voice>
                <type>eighth</type>
                <stem default-y="-32">down</stem>
                <beam number="1">end</beam>
                <notations>
                    <tied type="start"/>
                </notations>
            </note>
            <note default-x="166">
                <pitch>
                    <step>E</step>
                    <alter>-1</alter>
                    <octave>5</octave>
                </pitch>
                <duration>4</duration>
                <tie type="stop"/>
                <instrument id="P1-I1"/>
                <voice>1</voice>
                <type>quarter</type>
                <stem default-y="-40">down</stem>
                <notations>
                    <tied type="stop"/>
                </notations>
            </note>
            <note default-x="234">
                <pitch>
                    <step>D</step>
                    <alter>-1</alter>
                    <octave>5</octave>
                </pitch>
                <duration>4</duration>
                <instrument id="P1-I1"/>
                <voice>1</voice>
                <type>quarter</type>
                <stem default-y="-45.5">down</stem>
            </note>
        </measure>
        <measure width="242" number="7">
            <harmony font-weight="bold" font-family="Sawasdee" default-y="14">
                <root>
                    <root-step>A</root-step>
                    <root-alter>-1</root-alter>
                </root>
                <kind halign="center" text="mi7">minor-seventh</kind>
            </harmony>
            <note default-x="25">
                <pitch>
                    <step>C</step>
                    <alter>-1</alter>
                    <octave>5</octave>
                </pitch>
                <duration>8</duration>
                <instrument id="P1-I1"/>
                <voice>1</voice>
                <type>half</type>
                <accidental>flat</accidental>
                <stem default-y="-50">down</stem>
            </note>
            <note default-x="133">
                <pitch>
                    <step>E</step>
                    <alter>-1</alter>
                    <octave>5</octave>
                </pitch>
                <duration>8</duration>
                <instrument id="P1-I1"/>
                <voice>1</voice>
                <type>half</type>
                <stem default-y="-40">down</stem>
            </note>
        </measure>
        <measure width="221" number="8">
            <harmony font-weight="bold" font-family="Sawasdee" default-y="17">
                <root>
                    <root-step>D</root-step>
                    <root-alter>-1</root-alter>
                </root>
                <kind halign="center" text="7">dominant</kind>
            </harmony>
            <note default-x="14">
                <pitch>
                    <step>D</step>
                    <alter>-1</alter>
                    <octave>5</octave>
                </pitch>
                <duration>12</duration>
                <instrument id="P1-I1"/>
                <voice>1</voice>
                <type>half</type>
                <dot/>
                <stem default-y="-45.5">down</stem>
            </note>
            <note default-x="152">
                <rest/>
                <duration>4</duration>
                <instrument id="P1-I1"/>
                <voice>1</voice>
                <type>quarter</type>
            </note>
            <barline location="right">
                <bar-style>light-light</bar-style>
            </barline>
        </measure>
        <measure width="265" number="9">
            <print new-system="yes">
                <system-layout>
                    <system-distance>128</system-distance>
                </system-layout>
            </print>
            <barline location="left">
                <ending print-object="yes" font-size="8.5" font-family="Times New Roman" default-y="71" type="start" number="1" end-length="61"></ending>
            </barline>
            <harmony font-weight="bold" font-family="Sawasdee" default-y="17">
                <root>
                    <root-step>G</root-step>
                    <root-alter>-1</root-alter>
                </root>
                <kind halign="center" text="">major</kind>
            </harmony>
            <note default-x="20">
                <pitch>
                    <step>B</step>
                    <alter>-1</alter>
                    <octave>4</octave>
                </pitch>
                <duration>6</duration>
                <instrument id="P1-I1"/>
                <voice>1</voice>
                <type>quarter</type>
                <dot/>
                <stem default-y="-55">down</stem>
            </note>
            <note default-x="93">
                <pitch>
                    <step>B</step>
                    <alter>-1</alter>
                    <octave>4</octave>
                </pitch>
                <duration>2</duration>
                <instrument id="P1-I1"/>
                <voice>1</voice>
                <type>eighth</type>
                <stem default-y="-55">down</stem>
            </note>
            <note default-x="127">
                <pitch>
                    <step>D</step>
                    <alter>-1</alter>
                    <octave>5</octave>
                </pitch>
                <duration>2</duration>
                <instrument id="P1-I1"/>
                <voice>1</voice>
                <type>eighth</type>
                <stem default-y="-50">down</stem>
                <beam number="1">begin</beam>
            </note>
            <note default-x="161">
                <pitch>
                    <step>C</step>
                    <octave>5</octave>
                </pitch>
                <duration>2</duration>
                <instrument id="P1-I1"/>
                <voice>1</voice>
                <type>eighth</type>
                <stem default-y="-52">down</stem>
                <beam number="1">continue</beam>
            </note>
            <note default-x="196">
                <pitch>
                    <step>C</step>
                    <alter>-1</alter>
                    <octave>5</octave>
                </pitch>
                <duration>2</duration>
                <instrument id="P1-I1"/>
                <voice>1</voice>
                <type>eighth</type>
                <accidental>flat</accidental>
                <stem default-y="-53">down</stem>
                <beam number="1">continue</beam>
            </note>
            <note default-x="230">
                <pitch>
                    <step>B</step>
                    <alter>-1</alter>
                    <octave>4</octave>
                </pitch>
                <duration>2</duration>
                <instrument id="P1-I1"/>
                <voice>1</voice>
                <type>eighth</type>
                <stem default-y="-55">down</stem>
                <beam number="1">end</beam>
            </note>
        </measure>
        <measure width="186" number="10">
            <harmony font-weight="bold" font-family="Sawasdee" default-y="17">
                <root>
                    <root-step>G</root-step>
                    <root-alter>-1</root-alter>
                </root>
                <kind halign="center" text="mi7">minor-seventh</kind>
            </harmony>
            <note default-x="34">
                <pitch>
                    <step>B</step>
                    <alter>-2</alter>
                    <octave>4</octave>
                </pitch>
                <duration>16</duration>
                <instrument id="P1-I1"/>
                <voice>1</voice>
                <type>whole</type>
                <accidental>flat-flat</accidental>
            </note>
        </measure>
        <measure width="248" number="11">
            <harmony font-weight="bold" font-family="Sawasdee" default-y="17">
                <root>
                    <root-step>D</root-step>
                    <root-alter>-1</root-alter>
                </root>
                <kind halign="center" text="">major</kind>
                <bass>
                    <bass-step>F</bass-step>
                </bass>
            </harmony>
            <note default-x="13">
                <pitch>
                    <step>A</step>
                    <alter>-1</alter>
                    <octave>4</octave>
                </pitch>
                <duration>8</duration>
                <instrument id="P1-I1"/>
                <voice>1</voice>
                <type>half</type>
                <stem default-y="10">up</stem>
            </note>
            <note default-x="105">
                <rest/>
                <duration>2</duration>
                <instrument id="P1-I1"/>
                <voice>1</voice>
                <type>eighth</type>
            </note>
            <note default-x="141">
                <pitch>
                    <step>D</step>
                    <alter>-1</alter>
                    <octave>5</octave>
                </pitch>
                <duration>2</duration>
                <instrument id="P1-I1"/>
                <voice>1</voice>
                <type>eighth</type>
                <stem default-y="-45">down</stem>
                <beam number="1">begin</beam>
            </note>
            <note default-x="176">
                <pitch>
                    <step>E</step>
                    <alter>-1</alter>
                    <octave>5</octave>
                </pitch>
                <duration>2</duration>
                <instrument id="P1-I1"/>
                <voice>1</voice>
                <type>eighth</type>
                <stem default-y="-42.5">down</stem>
                <beam number="1">continue</beam>
            </note>
            <note default-x="211">
                <pitch>
                    <step>F</step>
                    <octave>5</octave>
                </pitch>
                <duration>2</duration>
                <tie type="start"/>
                <instrument id="P1-I1"/>
                <voice>1</voice>
                <type>eighth</type>
                <stem default-y="-40">down</stem>
                <beam number="1">end</beam>
                <notations>
                    <tied type="start"/>
                </notations>
            </note>
        </measure>
        <measure width="285" number="12">
            <note default-x="14">
                <pitch>
                    <step>F</step>
                    <octave>5</octave>
                </pitch>
                <duration>4</duration>
                <tie type="stop"/>
                <instrument id="P1-I1"/>
                <voice>1</voice>
                <type>quarter</type>
                <stem default-y="-35">down</stem>
                <notations>
                    <tied type="stop"/>
                </notations>
            </note>
            <note default-x="74">
                <pitch>
                    <step>E</step>
                    <alter>-1</alter>
                    <octave>5</octave>
                </pitch>
                <duration>2</duration>
                <instrument id="P1-I1"/>
                <voice>1</voice>
                <type>eighth</type>
                <stem default-y="-40">down</stem>
                <beam number="1">begin</beam>
            </note>
            <note default-x="111">
                <pitch>
                    <step>D</step>
                    <alter>-1</alter>
                    <octave>5</octave>
                </pitch>
                <duration>2</duration>
                <tie type="start"/>
                <instrument id="P1-I1"/>
                <voice>1</voice>
                <type>eighth</type>
                <stem default-y="-42.5">down</stem>
                <beam number="1">end</beam>
                <notations>
                    <tied type="start"/>
                </notations>
            </note>
            <note default-x="149">
                <pitch>
                    <step>D</step>
                    <alter>-1</alter>
                    <octave>5</octave>
                </pitch>
                <duration>4</duration>
                <tie type="stop"/>
                <instrument id="P1-I1"/>
                <voice>1</voice>
                <type>quarter</type>
                <stem default-y="-45">down</stem>
                <notations>
                    <tied type="stop"/>
                </notations>
            </note>
            <note default-x="209">
                <pitch>
                    <step>C</step>
                    <octave>5</octave>
                </pitch>
                <duration>2</duration>
                <instrument id="P1-I1"/>
                <voice>1</voice>
                <type>eighth</type>
                <stem default-y="-50">down</stem>
                <beam number="1">begin</beam>
            </note>
            <note default-x="246">
                <pitch>
                    <step>B</step>
                    <alter>-1</alter>
                    <octave>4</octave>
                </pitch>
                <duration>2</duration>
                <tie type="start"/>
                <instrument id="P1-I1"/>
                <voice>1</voice>
                <type>eighth</type>
                <stem default-y="-55">down</stem>
                <beam number="1">end</beam>
                <notations>
                    <tied type="start"/>
                </notations>
            </note>
        </measure>
        <measure width="201" number="13">
            <print new-system="yes">
                <system-layout>
                    <system-distance>128</system-distance>
                </system-layout>
            </print>
            <harmony font-weight="bold" font-family="Sawasdee" default-y="17">
                <root>
                    <root-step>B</root-step>
                    <root-alter>-1</root-alter>
                </root>
                <kind halign="center" text="7">dominant</kind>
            </harmony>
            <note default-x="18">
                <pitch>
                    <step>B</step>
                    <alter>-1</alter>
                    <octave>4</octave>
                </pitch>
                <duration>8</duration>
                <tie type="stop"/>
                <instrument id="P1-I1"/>
                <voice>1</voice>
                <type>half</type>
                <stem default-y="-55.5">down</stem>
                <notations>
                    <tied type="stop"/>
                </notations>
            </note>
            <note default-x="107">
                <rest/>
                <duration>8</duration>
                <instrument id="P1-I1"/>
                <voice>1</voice>
                <type>half</type>
            </note>
        </measure>
        <measure width="260" number="14">
            <note default-x="14">
                <rest/>
                <duration>8</duration>
                <instrument id="P1-I1"/>
                <voice>1</voice>
                <type>half</type>
            </note>
            <note default-x="112">
                <rest/>
                <duration>2</duration>
                <instrument id="P1-I1"/>
                <voice>1</voice>
                <type>eighth</type>
            </note>
            <note default-x="149">
                <pitch>
                    <step>B</step>
                    <alter>-1</alter>
                    <octave>4</octave>
                </pitch>
                <duration>2</duration>
                <instrument id="P1-I1"/>
                <voice>1</voice>
                <type>eighth</type>
                <stem default-y="-55">down</stem>
                <beam number="1">begin</beam>
            </note>
            <note default-x="186">
                <pitch>
                    <step>C</step>
                    <octave>5</octave>
                </pitch>
                <duration>2</duration>
                <instrument id="P1-I1"/>
                <voice>1</voice>
                <type>eighth</type>
                <stem default-y="-52.5">down</stem>
                <beam number="1">continue</beam>
            </note>
            <note default-x="223">
                <pitch>
                    <step>D</step>
                    <alter>-1</alter>
                    <octave>5</octave>
                </pitch>
                <duration>2</duration>
                <tie type="start"/>
                <instrument id="P1-I1"/>
                <voice>1</voice>
                <type>eighth</type>
                <stem default-y="-50">down</stem>
                <beam number="1">end</beam>
                <notations>
                    <tied type="start"/>
                </notations>
            </note>
        </measure>
        <measure width="309" number="15">
            <harmony font-weight="bold" font-family="Sawasdee" default-y="17">
                <root>
                    <root-step>E</root-step>
                    <root-alter>-1</root-alter>
                </root>
                <kind halign="center" text="mi7">minor-seventh</kind>
            </harmony>
            <note default-x="14">
                <pitch>
                    <step>D</step>
                    <alter>-1</alter>
                    <octave>5</octave>
                </pitch>
                <duration>2</duration>
                <tie type="stop"/>
                <instrument id="P1-I1"/>
                <voice>1</voice>
                <type>eighth</type>
                <stem default-y="-55">down</stem>
                <beam number="1">begin</beam>
                <notations>
                    <tied type="stop"/>
                </notations>
            </note>
            <note default-x="52">
                <pitch>
                    <step>B</step>
                    <alter>-1</alter>
                    <octave>4</octave>
                </pitch>
                <duration>2</duration>
                <instrument id="P1-I1"/>
                <voice>1</voice>
                <type>eighth</type>
                <stem default-y="-55">down</stem>
                <beam number="1">continue</beam>
            </note>
            <note default-x="91">
                <pitch>
                    <step>D</step>
                    <alter>-1</alter>
                    <octave>5</octave>
                </pitch>
                <duration>2</duration>
                <instrument id="P1-I1"/>
                <voice>1</voice>
                <type>eighth</type>
                <stem default-y="-55">down</stem>
                <beam number="1">continue</beam>
            </note>
            <note default-x="130">
                <pitch>
                    <step>F</step>
                    <octave>5</octave>
                </pitch>
                <duration>2</duration>
                <tie type="start"/>
                <instrument id="P1-I1"/>
                <voice>1</voice>
                <type>eighth</type>
                <stem default-y="-55">down</stem>
                <beam number="1">end</beam>
                <notations>
                    <tied type="start"/>
                </notations>
            </note>
            <note default-x="168">
                <pitch>
                    <step>F</step>
                    <octave>5</octave>
                </pitch>
                <duration>4</duration>
                <tie type="stop"/>
                <instrument id="P1-I1"/>
                <voice>1</voice>
                <type>quarter</type>
                <stem default-y="-35.5">down</stem>
                <notations>
                    <tied type="stop"/>
                </notations>
            </note>
            <note default-x="231">
                <pitch>
                    <step>E</step>
                    <alter>-1</alter>
                    <octave>5</octave>
                </pitch>
                <duration>2</duration>
                <instrument id="P1-I1"/>
                <voice>1</voice>
                <type>eighth</type>
                <stem default-y="-40">down</stem>
                <beam number="1">begin</beam>
            </note>
            <note default-x="269">
                <pitch>
                    <step>D</step>
                    <alter>-1</alter>
                    <octave>5</octave>
                </pitch>
                <duration>2</duration>
                <tie type="start"/>
                <instrument id="P1-I1"/>
                <voice>1</voice>
                <type>eighth</type>
                <stem default-y="-42">down</stem>
                <beam number="1">end</beam>
                <notations>
                    <tied type="start"/>
                </notations>
            </note>
        </measure>
        <measure width="213" number="16">
            <harmony font-weight="bold" font-family="Sawasdee" default-y="17">
                <root>
                    <root-step>A</root-step>
                    <root-alter>-1</root-alter>
                </root>
                <kind halign="center" text="7sus">suspended-fourth</kind>
                <degree print-object="no">
                    <degree-value>7</degree-value>
                    <degree-alter>0</degree-alter>
                    <degree-type>add</degree-type>
                </degree>
            </harmony>
            <note default-x="14">
                <pitch>
                    <step>D</step>
                    <alter>-1</alter>
                    <octave>5</octave>
                </pitch>
                <duration>8</duration>
                <tie type="stop"/>
                <instrument id="P1-I1"/>
                <voice>1</voice>
                <type>half</type>
                <stem default-y="-45">down</stem>
                <notations>
                    <tied type="stop"/>
                </notations>
            </note>
            <harmony font-weight="bold" font-family="Sawasdee" default-y="17">
                <root>
                    <root-step>A</root-step>
                    <root-alter>-1</root-alter>
                </root>
                <kind halign="center" text="7">dominant</kind>
            </harmony>
            <note default-x="104">
                <pitch>
                    <step>C</step>
                    <octave>5</octave>
                </pitch>
                <duration>8</duration>
                <instrument id="P1-I1"/>
                <voice>1</voice>
                <type>half</type>
                <stem default-y="-50">down</stem>
            </note>
            <barline location="right">
                <bar-style>light-heavy</bar-style>
                <ending print-object="yes" type="stop" number="1"></ending>
                <repeat direction="backward"/>
            </barline>
        </measure>
        <measure width="239" number="17">
            <print new-system="yes">
                <system-layout>
                    <system-distance>128</system-distance>
                </system-layout>
            </print>
            <barline location="left">
                <ending print-object="yes" font-size="8.5" font-family="Times New Roman" default-y="67" type="start" number="2" end-length="57"></ending>
            </barline>
            <harmony font-weight="bold" font-family="Sawasdee" default-y="17">
                <root>
                    <root-step>G</root-step>
                    <root-alter>-1</root-alter>
                </root>
                <kind halign="center" text="">major</kind>
            </harmony>
            <note default-x="15">
                <pitch>
                    <step>B</step>
                    <alter>-1</alter>
                    <octave>4</octave>
                </pitch>
                <duration>6</duration>
                <instrument id="P1-I1"/>
                <voice>1</voice>
                <type>quarter</type>
                <dot/>
                <stem default-y="-55">down</stem>
            </note>
            <note default-x="81">
                <pitch>
                    <step>B</step>
                    <alter>-1</alter>
                    <octave>4</octave>
                </pitch>
                <duration>2</duration>
                <instrument id="P1-I1"/>
                <voice>1</voice>
                <type>eighth</type>
                <stem default-y="-55">down</stem>
            </note>
            <note default-x="113">
                <pitch>
                    <step>D</step>
                    <alter>-1</alter>
                    <octave>5</octave>
                </pitch>
                <duration>2</duration>
                <instrument id="P1-I1"/>
                <voice>1</voice>
                <type>eighth</type>
                <stem default-y="-50">down</stem>
                <beam number="1">begin</beam>
            </note>
            <note default-x="144">
                <pitch>
                    <step>C</step>
                    <octave>5</octave>
                </pitch>
                <duration>2</duration>
                <instrument id="P1-I1"/>
                <voice>1</voice>
                <type>eighth</type>
                <stem default-y="-51.5">down</stem>
                <beam number="1">continue</beam>
            </note>
            <note default-x="176">
                <pitch>
                    <step>C</step>
                    <alter>-1</alter>
                    <octave>5</octave>
                </pitch>
                <duration>2</duration>
                <instrument id="P1-I1"/>
                <voice>1</voice>
                <type>eighth</type>
                <accidental>flat</accidental>
                <stem default-y="-53.5">down</stem>
                <beam number="1">continue</beam>
            </note>
            <note default-x="207">
                <pitch>
                    <step>B</step>
                    <alter>-1</alter>
                    <octave>4</octave>
                </pitch>
                <duration>2</duration>
                <instrument id="P1-I1"/>
                <voice>1</voice>
                <type>eighth</type>
                <stem default-y="-55">down</stem>
                <beam number="1">end</beam>
            </note>
            <barline location="right">
                <ending type="discontinue" number="2"></ending>
            </barline>
        </measure>
        <measure width="256" number="18">
            <harmony font-weight="bold" font-family="Sawasdee" default-y="17">
                <root>
                    <root-step>G</root-step>
                    <root-alter>-1</root-alter>
                </root>
                <kind halign="center" text="mi7">minor-seventh</kind>
            </harmony>
            <note default-x="34">
                <pitch>
                    <step>B</step>
                    <alter>-2</alter>
                    <octave>4</octave>
                </pitch>
                <duration>8</duration>
                <instrument id="P1-I1"/>
                <voice>1</voice>
                <type>half</type>
                <accidental>flat-flat</accidental>
                <stem default-y="-55">down</stem>
            </note>
            <note default-x="122">
                <rest/>
                <duration>2</duration>
                <instrument id="P1-I1"/>
                <voice>1</voice>
                <type>eighth</type>
            </note>
            <note default-x="155">
                <pitch>
                    <step>D</step>
                    <alter>-1</alter>
                    <octave>5</octave>
                </pitch>
                <duration>2</duration>
                <instrument id="P1-I1"/>
                <voice>1</voice>
                <type>eighth</type>
                <stem default-y="-45">down</stem>
                <beam number="1">begin</beam>
            </note>
            <note default-x="188">
                <pitch>
                    <step>E</step>
                    <alter>-1</alter>
                    <octave>5</octave>
                </pitch>
                <duration>2</duration>
                <instrument id="P1-I1"/>
                <voice>1</voice>
                <type>eighth</type>
                <stem default-y="-42">down</stem>
                <beam number="1">continue</beam>
            </note>
            <note default-x="222">
                <pitch>
                    <step>F</step>
                    <octave>5</octave>
                </pitch>
                <duration>2</duration>
                <tie type="start"/>
                <instrument id="P1-I1"/>
                <voice>1</voice>
                <type>eighth</type>
                <stem default-y="-40">down</stem>
                <beam number="1">end</beam>
                <notations>
                    <tied type="start"/>
                </notations>
            </note>
        </measure>
        <measure width="208" number="19">
            <harmony font-weight="bold" font-family="Sawasdee" default-y="22">
                <root>
                    <root-step>D</root-step>
                    <root-alter>-1</root-alter>
                </root>
                <kind halign="center" text="">major</kind>
                <bass>
                    <bass-step>F</bass-step>
                </bass>
            </harmony>
            <note default-x="14">
                <pitch>
                    <step>F</step>
                    <octave>5</octave>
                </pitch>
                <duration>4</duration>
                <tie type="stop"/>
                <instrument id="P1-I1"/>
                <voice>1</voice>
                <type>quarter</type>
                <stem default-y="-35">down</stem>
                <notations>
                    <tied type="stop"/>
                </notations>
            </note>
            <note default-x="62">
                <pitch>
                    <step>G</step>
                    <alter>-1</alter>
                    <octave>5</octave>
                </pitch>
                <duration>4</duration>
                <instrument id="P1-I1"/>
                <voice>1</voice>
                <type>quarter</type>
                <stem default-y="-30.5">down</stem>
            </note>
            <note default-x="111">
                <pitch>
                    <step>A</step>
                    <alter>-1</alter>
                    <octave>5</octave>
                </pitch>
                <duration>4</duration>
                <instrument id="P1-I1"/>
                <voice>1</voice>
                <type>quarter</type>
                <stem default-y="-25">down</stem>
            </note>
            <note default-x="159">
                <pitch>
                    <step>B</step>
                    <alter>-1</alter>
                    <octave>5</octave>
                </pitch>
                <duration>4</duration>
                <instrument id="P1-I1"/>
                <voice>1</voice>
                <type>quarter</type>
                <stem default-y="-20">down</stem>
            </note>
        </measure>
        <measure width="280" number="20">
            <harmony font-weight="bold" font-family="Sawasdee" default-y="42">
                <root>
                    <root-step>B</root-step>
                    <root-alter>-1</root-alter>
                </root>
                <kind halign="center">dominant</kind>
                <degree>
                    <degree-value>9</degree-value>
                    <degree-alter>-1</degree-alter>
                    <degree-type>add</degree-type>
                </degree>
            </harmony>
            <note default-x="25">
                <pitch>
                    <step>C</step>
                    <alter>-1</alter>
                    <octave>6</octave>
                </pitch>
                <duration>4</duration>
                <instrument id="P1-I1"/>
                <voice>1</voice>
                <type>quarter</type>
                <accidental>flat</accidental>
                <stem default-y="-20">down</stem>
            </note>
            <note default-x="78">
                <pitch>
                    <step>B</step>
                    <alter>-1</alter>
                    <octave>5</octave>
                </pitch>
                <duration>2</duration>
                <instrument id="P1-I1"/>
                <voice>1</voice>
                <type>eighth</type>
                <stem default-y="-20">down</stem>
                <beam number="1">begin</beam>
            </note>
            <note default-x="111">
                <pitch>
                    <step>A</step>
                    <alter>-1</alter>
                    <octave>5</octave>
                </pitch>
                <duration>2</duration>
                <instrument id="P1-I1"/>
                <voice>1</voice>
                <type>eighth</type>
                <stem default-y="-22">down</stem>
                <beam number="1">end</beam>
            </note>
            <note default-x="144">
                <rest/>
                <duration>2</duration>
                <instrument id="P1-I1"/>
                <voice>1</voice>
                <type>eighth</type>
            </note>
            <note default-x="177">
                <pitch>
                    <step>A</step>
                    <alter>-1</alter>
                    <octave>5</octave>
                </pitch>
                <duration>2</duration>
                <instrument id="P1-I1"/>
                <voice>1</voice>
                <type>eighth</type>
                <stem default-y="-30">down</stem>
                <beam number="1">begin</beam>
            </note>
            <note default-x="210">
                <pitch>
                    <step>G</step>
                    <alter>-1</alter>
                    <octave>5</octave>
                </pitch>
                <duration>2</duration>
                <instrument id="P1-I1"/>
                <voice>1</voice>
                <type>eighth</type>
                <stem default-y="-30">down</stem>
                <beam number="1">continue</beam>
            </note>
            <note default-x="243">
                <pitch>
                    <step>A</step>
                    <alter>-1</alter>
                    <octave>5</octave>
                </pitch>
                <duration>2</duration>
                <tie type="start"/>
                <instrument id="P1-I1"/>
                <voice>1</voice>
                <type>eighth</type>
                <stem default-y="-30">down</stem>
                <beam number="1">end</beam>
                <notations>
                    <tied type="start"/>
                </notations>
            </note>
        </measure>
        <measure width="292" number="21">
            <print new-system="yes">
                <system-layout>
                    <system-distance>128</system-distance>
                </system-layout>
            </print>
            <harmony font-weight="bold" font-family="Sawasdee" default-y="35">
                <root>
                    <root-step>E</root-step>
                    <root-alter>-1</root-alter>
                </root>
                <kind halign="center" text="mi7">minor-seventh</kind>
            </harmony>
            <note default-x="17">
                <pitch>
                    <step>A</step>
                    <alter>-1</alter>
                    <octave>5</octave>
                </pitch>
                <duration>8</duration>
                <tie type="stop"/>
                <instrument id="P1-I1"/>
                <voice>1</voice>
                <type>half</type>
                <stem default-y="-25.5">down</stem>
                <notations>
                    <tied type="stop"/>
                </notations>
            </note>
            <note default-x="125">
                <rest/>
                <duration>2</duration>
                <instrument id="P1-I1"/>
                <voice>1</voice>
                <type>eighth</type>
            </note>
            <note default-x="167">
                <pitch>
                    <step>A</step>
                    <alter>-1</alter>
                    <octave>5</octave>
                </pitch>
                <duration>2</duration>
                <instrument id="P1-I1"/>
                <voice>1</voice>
                <type>eighth</type>
                <stem default-y="-30">down</stem>
                <beam number="1">begin</beam>
            </note>
            <note default-x="208">
                <pitch>
                    <step>G</step>
                    <alter>-1</alter>
                    <octave>5</octave>
                </pitch>
                <duration>2</duration>
                <instrument id="P1-I1"/>
                <voice>1</voice>
                <type>eighth</type>
                <stem default-y="-30">down</stem>
                <beam number="1">continue</beam>
            </note>
            <note default-x="250">
                <pitch>
                    <step>A</step>
                    <alter>-1</alter>
                    <octave>5</octave>
                </pitch>
                <duration>2</duration>
                <tie type="start"/>
                <instrument id="P1-I1"/>
                <voice>1</voice>
                <type>eighth</type>
                <stem default-y="-30">down</stem>
                <beam number="1">end</beam>
                <notations>
                    <tied type="start"/>
                </notations>
            </note>
        </measure>
        <measure width="331" number="22">
            <harmony font-weight="bold" font-family="Sawasdee" default-y="35">
                <root>
                    <root-step>A</root-step>
                    <root-alter>-1</root-alter>
                </root>
                <kind halign="center">dominant</kind>
                <degree>
                    <degree-value>9</degree-value>
                    <degree-alter>-1</degree-alter>
                    <degree-type>add</degree-type>
                </degree>
            </harmony>
            <note default-x="16">
                <pitch>
                    <step>A</step>
                    <alter>-1</alter>
                    <octave>5</octave>
                </pitch>
                <duration>8</duration>
                <tie type="stop"/>
                <instrument id="P1-I1"/>
                <voice>1</voice>
                <type>half</type>
                <stem default-y="-25.5">down</stem>
                <notations>
                    <tied type="stop"/>
                </notations>
            </note>
            <note default-x="135">
                <pitch>
                    <step>C</step>
                    <alter>-1</alter>
                    <octave>6</octave>
                </pitch>
                <duration>4</duration>
                <tie type="start"/>
                <instrument id="P1-I1"/>
                <voice>1</voice>
                <type>quarter</type>
                <accidental>flat</accidental>
                <stem default-y="-20">down</stem>
                <notations>
                    <tied type="start"/>
                </notations>
            </note>
            <note default-x="210">
                <pitch>
                    <step>C</step>
                    <octave>6</octave>
                </pitch>
                <duration>2</duration>
                <instrument id="P1-I1"/>
                <voice>1</voice>
                <type>eighth</type>
                <stem default-y="-20">down</stem>
                <beam number="1">begin</beam>
            </note>
            <note default-x="257">
                <pitch>
                    <step>B</step>
                    <alter>-1</alter>
                    <octave>5</octave>
                </pitch>
                <duration>1</duration>
                <instrument id="P1-I1"/>
                <voice>1</voice>
                <type>16th</type>
                <stem default-y="-20">down</stem>
                <beam number="1">continue</beam>
                <beam number="2">begin</beam>
            </note>
            <note default-x="298">
                <pitch>
                    <step>B</step>
                    <alter>-2</alter>
                    <octave>5</octave>
                </pitch>
                <duration>1</duration>
                <instrument id="P1-I1"/>
                <voice>1</voice>
                <type>16th</type>
                <accidental>flat-flat</accidental>
                <stem default-y="-20">down</stem>
                <beam number="1">end</beam>
                <beam number="2">end</beam>
            </note>
        </measure>
        <measure width="181" number="23">
            <direction placement="below">
                <direction-type>
                    <words font-weight="bold" font-size="12" font-family="Sawasdee" default-y="-71" justify="right">to ending </words>
                </direction-type>
                <direction-type>
                    <coda/>
                </direction-type>
                <sound dalsegno="25"/>
            </direction>
            <harmony font-weight="bold" font-family="Sawasdee" default-y="35">
                <root>
                    <root-step>D</root-step>
                    <root-alter>-1</root-alter>
                </root>
                <kind halign="center" text="">major</kind>
            </harmony>
            <note default-x="16">
                <pitch>
                    <step>A</step>
                    <alter>-1</alter>
                    <octave>5</octave>
                </pitch>
                <duration>16</duration>
                <instrument id="P1-I1"/>
                <voice>1</voice>
                <type>whole</type>
            </note>
        </measure>
        <measure width="180" number="24">
            <harmony font-weight="bold" font-family="Sawasdee" default-y="35">
                <root>
                    <root-step>A</root-step>
                    <root-alter>-1</root-alter>
                </root>
                <kind halign="center" text="7">dominant</kind>
            </harmony>
            <note>
                <rest/>
                <duration>16</duration>
                <voice>1</voice>
            </note>
            <direction placement="below">
                <direction-type>
                    <words font-weight="bold" font-size="12" font-family="Sawasdee" default-y="-69" default-x="170" justify="right">DC for solos</words>
                </direction-type>
            </direction>
            <barline location="right">
                <bar-style>heavy</bar-style>
            </barline>
        </measure>
        <measure width="164" number="25">
            <print new-system="yes">
                <system-layout>
                    <system-margins>
                        <left-margin>0</left-margin>
                        <right-margin>161</right-margin>
                    </system-margins>
                    <system-distance>128</system-distance>
                </system-layout>
            </print>
            <attributes>
                <measure-style>
                    <slash use-stems="yes" type="start"/>
                </measure-style>
            </attributes>
            <harmony font-weight="bold" font-family="Sawasdee" default-y="17">
                <root>
                    <root-step>G</root-step>
                    <root-alter>-1</root-alter>
                </root>
                <kind halign="center" text="mi7">minor-seventh</kind>
            </harmony>
            <direction placement="above">
                <direction-type>
                    <coda default-y="46" default-x="16"/>
                </direction-type>
                <sound divisions="4" coda="25"/>
            </direction>
            <note default-x="22">
                <pitch>
                    <step>G</step>
                    <alter>-1</alter>
                    <octave>3</octave>
                </pitch>
                <duration>16</duration>
                <instrument id="P1-I1"/>
                <voice>1</voice>
                <type>whole</type>
            </note>
        </measure>
        <measure width="158" number="26">
            <harmony font-weight="bold" font-family="Sawasdee" default-y="17">
                <root>
                    <root-step>D</root-step>
                    <root-alter>-1</root-alter>
                </root>
                <kind halign="center" text="">major</kind>
                <bass>
                    <bass-step>F</bass-step>
                </bass>
            </harmony>
            <note default-x="16">
                <pitch>
                    <step>F</step>
                    <octave>3</octave>
                </pitch>
                <duration>16</duration>
                <instrument id="P1-I1"/>
                <voice>1</voice>
                <type>whole</type>
            </note>
        </measure>
        <measure width="171" number="27">
            <harmony font-weight="bold" font-family="Sawasdee" default-y="17">
                <root>
                    <root-step>E</root-step>
                </root>
                <kind halign="center" text="ma7">major-seventh</kind>
            </harmony>
            <note default-x="24">
                <pitch>
                    <step>E</step>
                    <octave>3</octave>
                </pitch>
                <duration>16</duration>
                <instrument id="P1-I1"/>
                <voice>1</voice>
                <type>whole</type>
                <accidental>natural</accidental>
            </note>
        </measure>
        <measure width="158" number="28">
            <harmony font-weight="bold" font-family="Sawasdee" default-y="18">
                <root>
                    <root-step>E</root-step>
                    <root-alter>-1</root-alter>
                </root>
                <kind halign="center" text="mi7">minor-seventh</kind>
            </harmony>
            <note default-x="17">
                <pitch>
                    <step>E</step>
                    <alter>-1</alter>
                    <octave>3</octave>
                </pitch>
                <duration>16</duration>
                <instrument id="P1-I1"/>
                <voice>1</voice>
                <type>whole</type>
            </note>
        </measure>
        <measure width="171" number="29">
            <harmony font-weight="bold" font-family="Sawasdee" default-y="17">
                <root>
                    <root-step>D</root-step>
                </root>
                <kind halign="center">major-seventh</kind>
                <degree>
                    <degree-value>11</degree-value>
                    <degree-alter>1</degree-alter>
                    <degree-type>add</degree-type>
                </degree>
            </harmony>
            <note default-x="25">
                <pitch>
                    <step>D</step>
                    <octave>3</octave>
                </pitch>
                <duration>16</duration>
                <instrument id="P1-I1"/>
                <voice>1</voice>
                <type>whole</type>
                <accidental>natural</accidental>
                <notations>
                    <fermata default-y="-53" default-x="-2" type="inverted"></fermata>
                </notations>
            </note>
            <barline location="right">
                <bar-style>light-heavy</bar-style>
            </barline>
        </measure>
    </part>
</score-partwise>
