<?xml version="1.0" encoding="UTF-8"?>
<!DOCTYPE score-partwise PUBLIC "-//Recordare//DTD MusicXML 2.0 Partwise//EN" "http://www.musicxml.org/dtds/partwise.dtd">
<score-partwise version="2.0">
    <work>
        <work-number></work-number>
        <work-title></work-title>
    </work>
    <movement-number></movement-number>
    <movement-title>A quoi ça sert l'amour ?</movement-title>
    <identification>
        <creator type="composer">Michel Emer</creator>
        <creator type="poet">Michel Emer</creator>
        <rights>All Rights Reserved</rights>
        <encoding>
            <software>MuseScore 0.9.5</software>
            <encoding-date>2009-03-22</encoding-date>
            <software>ProxyMusic 2.0 c</software>
        </encoding>
        <source>http://wikifonia.org/node/1529/revisions/1957/view</source>
    </identification>
    <defaults>
        <scaling>
            <millimeters>5.7</millimeters>
            <tenths>40</tenths>
        </scaling>
        <page-layout>
            <page-margins type="both">
                <left-margin>62.9921</left-margin>
                <right-margin>62.9921</right-margin>
                <top-margin>62.9921</top-margin>
                <bottom-margin>125.984</bottom-margin>
            </page-margins>
        </page-layout>
    </defaults>
    <part-list>
        <score-part id="P1">
            <part-name></part-name>
            <score-instrument id="P1-I3">
                <instrument-name></instrument-name>
            </score-instrument>
            <midi-instrument id="P1-I3">
                <midi-channel>1</midi-channel>
                <midi-program>1</midi-program>
            </midi-instrument>
        </score-part>
    </part-list>
    <part id="P1">
        <measure number="1">
            <attributes>
                <divisions>2</divisions>
                <key>
                    <fifths>0</fifths>
                    <mode>major</mode>
                </key>
                <time>
                    <beats>4</beats>
                    <beat-type>4</beat-type>
                </time>
                <clef>
                    <sign>G</sign>
                    <line>2</line>
                </clef>
            </attributes>
            <note>
                <rest/>
                <duration>2</duration>
                <voice>1</voice>
                <type>quarter</type>
            </note>
            <note>
                <pitch>
                    <step>C</step>
                    <octave>5</octave>
                </pitch>
                <duration>2</duration>
                <voice>1</voice>
                <type>quarter</type>
                <stem>down</stem>
                <lyric number="1">
                    <syllabic>single</syllabic>
                    <text>A</text>
                </lyric>
            </note>
            <note>
                <pitch>
                    <step>C</step>
                    <octave>5</octave>
                </pitch>
                <duration>2</duration>
                <voice>1</voice>
                <type>quarter</type>
                <stem>down</stem>
                <lyric number="1">
                    <syllabic>single</syllabic>
                    <text>quoi</text>
                </lyric>
            </note>
            <note>
                <pitch>
                    <step>B</step>
                    <octave>4</octave>
                </pitch>
                <duration>2</duration>
                <voice>1</voice>
                <type>quarter</type>
                <stem>down</stem>
                <lyric number="1">
                    <syllabic>single</syllabic>
                    <text>ça</text>
                </lyric>
            </note>
        </measure>
        <measure number="2">
            <barline location="left">
                <bar-style>heavy-light</bar-style>
                <repeat direction="forward"/>
            </barline>
            <harmony print-frame="yes">
                <root>
                    <root-step>C</root-step>
                </root>
                <kind text="">major</kind>
            </harmony>
            <direction>
                <direction-type>
                    <words default-y="100">Monter d'un demi ton à chaque reprise</words>
                </direction-type>
            </direction>
            <note>
                <pitch>
                    <step>B</step>
                    <octave>4</octave>
                </pitch>
                <duration>2</duration>
                <voice>1</voice>
                <type>quarter</type>
                <stem>down</stem>
                <lyric number="1">
                    <syllabic>single</syllabic>
                    <text>sert</text>
                </lyric>
                <lyric number="2">
                    <syllabic>begin</syllabic>
                    <text>ten</text>
                </lyric>
                <lyric number="3">
                    <syllabic>single</syllabic>
                    <text>dit</text>
                </lyric>
                <lyric number="4">
                    <syllabic>single</syllabic>
                    <text>très</text>
                </lyric>
                <lyric number="5">
                    <syllabic>single</syllabic>
                    <text>j'ai</text>
                </lyric>
                <lyric number="6">
                    <syllabic>single</syllabic>
                    <text>le</text>
                </lyric>
            </note>
            <direction>
                <direction-type>
                    <words default-y="100"> </words>
                </direction-type>
            </direction>
            <note>
                <pitch>
                    <step>A</step>
                    <octave>4</octave>
                </pitch>
                <duration>1</duration>
                <voice>1</voice>
                <type>eighth</type>
                <stem>up</stem>
                <beam number="1">begin</beam>
                <lyric number="1">
                    <syllabic>begin</syllabic>
                    <text>l'a</text>
                </lyric>
                <lyric number="2">
                    <syllabic>end</syllabic>
                    <text>du</text>
                </lyric>
                <lyric number="3">
                    <syllabic>begin</syllabic>
                    <text>sou</text>
                </lyric>
                <lyric number="4">
                    <syllabic>begin</syllabic>
                    <text>jo</text>
                </lyric>
                <lyric number="5">
                    <syllabic>begin</syllabic>
                    <text>com</text>
                </lyric>
                <lyric number="6">
                    <syllabic>begin</syllabic>
                    <text>der</text>
                </lyric>
            </note>
            <note>
                <pitch>
                    <step>A</step>
                    <octave>4</octave>
                </pitch>
                <duration>1</duration>
                <tie type="start"/>
                <voice>1</voice>
                <type>eighth</type>
                <stem>up</stem>
                <beam number="1">end</beam>
                <notations>
                    <tied type="start"/>
                </notations>
                <lyric number="1">
                    <syllabic>end</syllabic>
                    <text>mour?</text>
                    <extend/>
                </lyric>
                <lyric number="2">
                    <syllabic>single</syllabic>
                    <text>dire</text>
                    <extend/>
                </lyric>
                <lyric number="3">
                    <syllabic>end</syllabic>
                    <text>vent</text>
                    <extend/>
                </lyric>
                <lyric number="4">
                    <syllabic>end</syllabic>
                    <text>li</text>
                    <extend/>
                </lyric>
                <lyric number="5">
                    <syllabic>single</syllabic>
                    <text>pris</text>
                    <extend/>
                </lyric>
                <lyric number="6">
                    <syllabic>end</syllabic>
                    <text>nier</text>
                    <extend/>
                </lyric>
            </note>
            <note>
                <pitch>
                    <step>A</step>
                    <octave>4</octave>
                </pitch>
                <duration>4</duration>
                <tie type="stop"/>
                <voice>1</voice>
                <type>half</type>
                <stem>up</stem>
                <notations>
                    <tied type="stop"/>
                </notations>
            </note>
        </measure>
        <measure number="3">
            <note>
                <rest/>
                <duration>2</duration>
                <voice>1</voice>
                <type>quarter</type>
            </note>
            <note>
                <pitch>
                    <step>C</step>
                    <octave>5</octave>
                </pitch>
                <duration>2</duration>
                <voice>1</voice>
                <type>quarter</type>
                <stem>down</stem>
                <lyric number="1">
                    <syllabic>single</syllabic>
                    <text>On</text>
                </lyric>
                <lyric number="2">
                    <syllabic>single</syllabic>
                    <text>Que</text>
                </lyric>
                <lyric number="3">
                    <syllabic>begin</syllabic>
                    <text>Qu'l'a</text>
                </lyric>
                <lyric number="4">
                    <syllabic>single</syllabic>
                    <text>Mais</text>
                </lyric>
                <lyric number="5">
                    <syllabic>single</syllabic>
                    <text>Sans</text>
                </lyric>
                <lyric number="6">
                    <syllabic>single</syllabic>
                    <text>Mais</text>
                </lyric>
            </note>
            <note>
                <pitch>
                    <step>C</step>
                    <octave>5</octave>
                </pitch>
                <duration>2</duration>
                <voice>1</voice>
                <type>quarter</type>
                <stem>down</stem>
                <lyric number="1">
                    <syllabic>begin</syllabic>
                    <text>ra</text>
                </lyric>
                <lyric number="2">
                    <syllabic>begin</syllabic>
                    <text>l'a</text>
                </lyric>
                <lyric number="3">
                    <syllabic>end</syllabic>
                    <text>mour</text>
                </lyric>
                <lyric number="4">
                    <syllabic>single</syllabic>
                    <text>quand</text>
                </lyric>
                <lyric number="5">
                    <syllabic>begin</syllabic>
                    <text>a</text>
                </lyric>
                <lyric number="6">
                    <syllabic>single</syllabic>
                    <text>toi</text>
                </lyric>
            </note>
            <note>
                <pitch>
                    <step>B</step>
                    <octave>4</octave>
                </pitch>
                <duration>2</duration>
                <voice>1</voice>
                <type>quarter</type>
                <stem>down</stem>
                <lyric number="1">
                    <syllabic>middle</syllabic>
                    <text>con</text>
                </lyric>
                <lyric number="2">
                    <syllabic>end</syllabic>
                    <text>mour</text>
                </lyric>
                <lyric number="3">
                    <syllabic>single</syllabic>
                    <text>est</text>
                </lyric>
                <lyric number="4">
                    <syllabic>single</syllabic>
                    <text>tout</text>
                </lyric>
                <lyric number="5">
                    <syllabic>end</syllabic>
                    <text>mour</text>
                </lyric>
                <lyric number="6">
                    <syllabic>single</syllabic>
                    <text>t'es</text>
                </lyric>
            </note>
        </measure>
        <measure number="4">
            <harmony print-frame="yes">
                <root>
                    <root-step>G</root-step>
                </root>
                <kind text="">major</kind>
            </harmony>
            <note>
                <pitch>
                    <step>B</step>
                    <octave>4</octave>
                </pitch>
                <duration>2</duration>
                <voice>1</voice>
                <type>quarter</type>
                <stem>down</stem>
                <lyric number="1">
                    <syllabic>end</syllabic>
                    <text>te</text>
                </lyric>
                <lyric number="2">
                    <syllabic>single</syllabic>
                    <text>fait</text>
                </lyric>
                <lyric number="3">
                    <syllabic>begin</syllabic>
                    <text>de</text>
                </lyric>
                <lyric number="4">
                    <syllabic>single</syllabic>
                    <text>est</text>
                </lyric>
                <lyric number="5">
                    <syllabic>single</syllabic>
                    <text>dans</text>
                </lyric>
                <lyric number="6">
                    <syllabic>single</syllabic>
                    <text>le</text>
                </lyric>
            </note>
            <note>
                <pitch>
                    <step>A</step>
                    <octave>4</octave>
                </pitch>
                <duration>1</duration>
                <voice>1</voice>
                <type>eighth</type>
                <stem>up</stem>
                <beam number="1">begin</beam>
                <lyric number="1">
                    <syllabic>begin</syllabic>
                    <text>tou</text>
                </lyric>
                <lyric number="2">
                    <syllabic>begin</syllabic>
                    <text>souf</text>
                </lyric>
                <lyric number="3">
                    <syllabic>middle</syllabic>
                    <text>ce</text>
                </lyric>
                <lyric number="4">
                    <syllabic>begin</syllabic>
                    <text>fi</text>
                </lyric>
                <lyric number="5">
                    <syllabic>single</syllabic>
                    <text>la</text>
                </lyric>
                <lyric number="6">
                    <syllabic>begin</syllabic>
                    <text>pre</text>
                </lyric>
            </note>
            <note>
                <pitch>
                    <step>A</step>
                    <octave>4</octave>
                </pitch>
                <duration>1</duration>
                <tie type="start"/>
                <voice>1</voice>
                <type>eighth</type>
                <stem>up</stem>
                <beam number="1">end</beam>
                <notations>
                    <tied type="start"/>
                </notations>
                <lyric number="1">
                    <syllabic>end</syllabic>
                    <text>jours</text>
                    <extend/>
                </lyric>
                <lyric number="2">
                    <syllabic>end</syllabic>
                    <text>frir</text>
                    <extend/>
                </lyric>
                <lyric number="3">
                    <syllabic>end</syllabic>
                    <text>vant</text>
                    <extend/>
                </lyric>
                <lyric number="4">
                    <syllabic>end</syllabic>
                    <text>ni</text>
                    <extend/>
                </lyric>
                <lyric number="5">
                    <syllabic>single</syllabic>
                    <text>vie</text>
                    <extend/>
                </lyric>
                <lyric number="6">
                    <syllabic>single</syllabic>
                    <text>mier!</text>
                    <extend/>
                </lyric>
            </note>
            <note>
                <pitch>
                    <step>A</step>
                    <octave>4</octave>
                </pitch>
                <duration>4</duration>
                <tie type="stop"/>
                <voice>1</voice>
                <type>half</type>
                <stem>up</stem>
                <notations>
                    <tied type="stop"/>
                </notations>
            </note>
        </measure>
        <measure number="5">
            <print new-system="yes"/>
            <note>
                <rest/>
                <duration>2</duration>
                <voice>1</voice>
                <type>quarter</type>
            </note>
            <note>
                <pitch>
                    <step>C</step>
                    <octave>5</octave>
                </pitch>
                <duration>2</duration>
                <voice>1</voice>
                <type>quarter</type>
                <stem>down</stem>
                <lyric number="1">
                    <syllabic>single</syllabic>
                    <text>Des</text>
                </lyric>
                <lyric number="2">
                    <syllabic>single</syllabic>
                    <text>Que</text>
                </lyric>
                <lyric number="3">
                    <syllabic>single</syllabic>
                    <text>Qu'il</text>
                </lyric>
                <lyric number="4">
                    <syllabic>single</syllabic>
                    <text>Il</text>
                </lyric>
                <lyric number="5">
                    <syllabic>single</syllabic>
                    <text>Sans</text>
                </lyric>
                <lyric number="6">
                    <syllabic>begin</syllabic>
                    <text>A</text>
                </lyric>
            </note>
            <note>
                <pitch>
                    <step>C</step>
                    <octave>5</octave>
                </pitch>
                <duration>2</duration>
                <voice>1</voice>
                <type>quarter</type>
                <stem>down</stem>
                <lyric number="1">
                    <syllabic>begin</syllabic>
                    <text>his</text>
                </lyric>
                <lyric number="2">
                    <syllabic>begin</syllabic>
                    <text>l'a</text>
                </lyric>
                <lyric number="3">
                    <syllabic>single</syllabic>
                    <text>y'en</text>
                </lyric>
                <lyric number="4">
                    <syllabic>single</syllabic>
                    <text>ne</text>
                </lyric>
                <lyric number="5">
                    <syllabic>single</syllabic>
                    <text>ses</text>
                </lyric>
                <lyric number="6">
                    <syllabic>end</syllabic>
                    <text>vant</text>
                </lyric>
            </note>
            <note>
                <pitch>
                    <step>B</step>
                    <octave>4</octave>
                </pitch>
                <duration>2</duration>
                <voice>1</voice>
                <type>quarter</type>
                <stem>down</stem>
                <lyric number="1">
                    <syllabic>end</syllabic>
                    <text>toires</text>
                </lyric>
                <lyric number="2">
                    <syllabic>end</syllabic>
                    <text>mour</text>
                </lyric>
                <lyric number="3">
                    <syllabic>single</syllabic>
                    <text>a</text>
                </lyric>
                <lyric number="4">
                    <syllabic>single</syllabic>
                    <text>vous</text>
                </lyric>
                <lyric number="5">
                    <syllabic>single</syllabic>
                    <text>joies,</text>
                </lyric>
                <lyric number="6">
                    <syllabic>single</syllabic>
                    <text>toi.</text>
                </lyric>
            </note>
        </measure>
        <measure number="6">
            <note>
                <pitch>
                    <step>B</step>
                    <octave>4</octave>
                </pitch>
                <duration>2</duration>
                <voice>1</voice>
                <type>quarter</type>
                <stem>down</stem>
                <lyric number="1">
                    <syllabic>begin</syllabic>
                    <text>in</text>
                </lyric>
                <lyric number="2">
                    <syllabic>single</syllabic>
                    <text>fait</text>
                </lyric>
                <lyric number="3">
                    <syllabic>single</syllabic>
                    <text>un</text>
                </lyric>
                <lyric number="4">
                    <syllabic>begin</syllabic>
                    <text>res</text>
                </lyric>
                <lyric number="5">
                    <syllabic>single</syllabic>
                    <text>ses</text>
                </lyric>
                <lyric number="6">
                    <syllabic>begin</syllabic>
                    <text>y'a</text>
                </lyric>
            </note>
            <note>
                <pitch>
                    <step>A</step>
                    <octave>4</octave>
                </pitch>
                <duration>1</duration>
                <voice>1</voice>
                <type>eighth</type>
                <stem>up</stem>
                <beam number="1">begin</beam>
                <lyric number="1">
                    <syllabic>middle</syllabic>
                    <text>sen</text>
                </lyric>
                <lyric number="2">
                    <syllabic>begin</syllabic>
                    <text>pleu</text>
                </lyric>
                <lyric number="3">
                    <syllabic>single</syllabic>
                    <text>sur</text>
                </lyric>
                <lyric number="4">
                    <syllabic>end</syllabic>
                    <text>te</text>
                </lyric>
                <lyric number="5">
                    <syllabic>begin</syllabic>
                    <text>cha</text>
                </lyric>
                <lyric number="6">
                    <syllabic>end</syllabic>
                    <text>vait</text>
                </lyric>
            </note>
            <note>
                <pitch>
                    <step>A</step>
                    <octave>4</octave>
                </pitch>
                <duration>1</duration>
                <tie type="start"/>
                <voice>1</voice>
                <type>eighth</type>
                <stem>up</stem>
                <beam number="1">end</beam>
                <notations>
                    <tied type="start"/>
                </notations>
                <lyric number="1">
                    <syllabic>end</syllabic>
                    <text>sées</text>
                    <extend/>
                </lyric>
                <lyric number="2">
                    <syllabic>end</syllabic>
                    <text>rer</text>
                    <extend/>
                </lyric>
                <lyric number="3">
                    <syllabic>single</syllabic>
                    <text>deux</text>
                    <extend/>
                </lyric>
                <lyric number="4">
                    <syllabic>single</syllabic>
                    <text>rien</text>
                    <extend/>
                </lyric>
                <lyric number="5">
                    <syllabic>end</syllabic>
                    <text>grins</text>
                    <extend/>
                </lyric>
                <lyric number="6">
                    <syllabic>single</syllabic>
                    <text>rien</text>
                    <extend/>
                </lyric>
            </note>
            <note>
                <pitch>
                    <step>A</step>
                    <octave>4</octave>
                </pitch>
                <duration>4</duration>
                <tie type="stop"/>
                <voice>1</voice>
                <type>half</type>
                <stem>up</stem>
                <notations>
                    <tied type="stop"/>
                </notations>
            </note>
        </measure>
        <measure number="7">
            <note>
                <rest/>
                <duration>2</duration>
                <voice>1</voice>
                <type>quarter</type>
            </note>
            <note>
                <pitch>
                    <step>C</step>
                    <octave>5</octave>
                </pitch>
                <duration>2</duration>
                <voice>1</voice>
                <type>quarter</type>
                <stem>down</stem>
                <lyric number="1">
                    <syllabic>single</syllabic>
                    <text>A</text>
                </lyric>
                <lyric number="2">
                    <syllabic>single</syllabic>
                    <text>A</text>
                </lyric>
                <lyric number="3">
                    <syllabic>single</syllabic>
                    <text>Qui</text>
                </lyric>
                <lyric number="4">
                    <syllabic>single</syllabic>
                    <text>Qu'un</text>
                </lyric>
                <lyric number="5">
                    <syllabic>single</syllabic>
                    <text>On</text>
                </lyric>
                <lyric number="6">
                    <syllabic>begin</syllabic>
                    <text>A</text>
                </lyric>
            </note>
            <note>
                <pitch>
                    <step>C</step>
                    <octave>5</octave>
                </pitch>
                <duration>2</duration>
                <voice>1</voice>
                <type>quarter</type>
                <stem>down</stem>
                <lyric number="1">
                    <syllabic>single</syllabic>
                    <text>quoi</text>
                </lyric>
                <lyric number="2">
                    <syllabic>single</syllabic>
                    <text>quoi</text>
                </lyric>
                <lyric number="3">
                    <syllabic>single</syllabic>
                    <text>n'est</text>
                </lyric>
                <lyric number="4">
                    <syllabic>begin</syllabic>
                    <text>im</text>
                </lyric>
                <lyric number="5">
                    <syllabic>single</syllabic>
                    <text>a</text>
                </lyric>
                <lyric number="6">
                    <syllabic>end</syllabic>
                    <text>près</text>
                </lyric>
            </note>
            <note>
                <pitch>
                    <step>B</step>
                    <octave>4</octave>
                </pitch>
                <duration>2</duration>
                <voice>1</voice>
                <type>quarter</type>
                <stem>down</stem>
                <lyric number="1">
                    <syllabic>single</syllabic>
                    <text>ça</text>
                </lyric>
                <lyric number="2">
                    <syllabic>single</syllabic>
                    <text>ça</text>
                </lyric>
                <lyric number="3">
                    <syllabic>begin</syllabic>
                    <text>ja</text>
                </lyric>
                <lyric number="4">
                    <syllabic>middle</syllabic>
                    <text>men</text>
                </lyric>
                <lyric number="5">
                    <syllabic>begin</syllabic>
                    <text>vé</text>
                </lyric>
                <lyric number="6">
                    <syllabic>single</syllabic>
                    <text>toi</text>
                </lyric>
            </note>
        </measure>
        <measure number="8">
            <harmony print-frame="yes">
                <root>
                    <root-step>C</root-step>
                </root>
                <kind text="">major</kind>
            </harmony>
            <note>
                <pitch>
                    <step>B</step>
                    <octave>4</octave>
                </pitch>
                <duration>2</duration>
                <voice>1</voice>
                <type>quarter</type>
                <stem>down</stem>
                <lyric number="1">
                    <syllabic>single</syllabic>
                    <text>sert</text>
                </lyric>
                <lyric number="2">
                    <syllabic>single</syllabic>
                    <text>sert</text>
                </lyric>
                <lyric number="3">
                    <syllabic>end</syllabic>
                    <text>mais</text>
                </lyric>
                <lyric number="5">
                    <syllabic>end</syllabic>
                    <text>cu</text>
                </lyric>
                <lyric number="6">
                    <syllabic>single</syllabic>
                    <text>je</text>
                </lyric>
            </note>
            <note>
                <pitch>
                    <step>A</step>
                    <octave>4</octave>
                </pitch>
                <duration>1</duration>
                <voice>1</voice>
                <type>eighth</type>
                <stem>up</stem>
                <beam number="1">begin</beam>
                <lyric number="1">
                    <syllabic>begin</syllabic>
                    <text>d'ai</text>
                </lyric>
                <lyric number="2">
                    <syllabic>begin</syllabic>
                    <text>d'ai</text>
                </lyric>
                <lyric number="3">
                    <syllabic>begin</syllabic>
                    <text>heu</text>
                </lyric>
                <lyric number="4">
                    <syllabic>begin</syllabic>
                    <text>cha</text>
                </lyric>
                <lyric number="5">
                    <syllabic>single</syllabic>
                    <text>pour</text>
                </lyric>
                <lyric number="6">
                    <syllabic>single</syllabic>
                    <text>suis</text>
                </lyric>
            </note>
            <note>
                <pitch>
                    <step>A</step>
                    <octave>4</octave>
                </pitch>
                <duration>1</duration>
                <tie type="start"/>
                <voice>1</voice>
                <type>eighth</type>
                <stem>up</stem>
                <beam number="1">end</beam>
                <notations>
                    <tied type="start"/>
                </notations>
                <lyric number="1">
                    <syllabic>end</syllabic>
                    <text>mer?</text>
                    <extend/>
                </lyric>
                <lyric number="2">
                    <syllabic>end</syllabic>
                    <text>mer?</text>
                    <extend/>
                </lyric>
                <lyric number="3">
                    <syllabic>end</syllabic>
                    <text>reux</text>
                    <extend/>
                </lyric>
                <lyric number="4">
                    <syllabic>end</syllabic>
                    <text>grin</text>
                    <extend/>
                </lyric>
                <lyric number="5">
                    <syllabic>single</syllabic>
                    <text>rien</text>
                    <extend/>
                </lyric>
                <lyric number="6">
                    <syllabic>single</syllabic>
                    <text>bien!</text>
                    <extend/>
                </lyric>
            </note>
            <note>
                <pitch>
                    <step>A</step>
                    <octave>4</octave>
                </pitch>
                <duration>4</duration>
                <tie type="stop"/>
                <voice>1</voice>
                <type>half</type>
                <stem>up</stem>
                <notations>
                    <tied type="stop"/>
                </notations>
            </note>
        </measure>
        <measure number="9">
            <print new-system="yes"/>
            <harmony print-frame="yes">
                <root>
                    <root-step>C</root-step>
                </root>
                <kind text="7">dominant</kind>
            </harmony>
            <note>
                <rest/>
                <duration>2</duration>
                <voice>1</voice>
                <type>quarter</type>
            </note>
            <note>
                <pitch>
                    <step>E</step>
                    <octave>5</octave>
                </pitch>
                <duration>2</duration>
                <voice>1</voice>
                <type>quarter</type>
                <stem>down</stem>
                <lyric number="1">
                    <syllabic>begin</syllabic>
                    <text>L'a</text>
                </lyric>
                <lyric number="2">
                    <syllabic>begin</syllabic>
                    <text>L'a</text>
                </lyric>
                <lyric number="3">
                    <syllabic>single</syllabic>
                    <text>Même</text>
                </lyric>
                <lyric number="4">
                    <syllabic>single</syllabic>
                    <text>Tout</text>
                </lyric>
                <lyric number="5">
                    <syllabic>single</syllabic>
                    <text>Mais</text>
                </lyric>
                <lyric number="6">
                    <syllabic>single</syllabic>
                    <text>C'est</text>
                </lyric>
            </note>
            <note>
                <pitch>
                    <step>E</step>
                    <octave>5</octave>
                </pitch>
                <duration>2</duration>
                <voice>1</voice>
                <type>quarter</type>
                <stem>down</stem>
                <lyric number="1">
                    <syllabic>end</syllabic>
                    <text>mour</text>
                </lyric>
                <lyric number="2">
                    <syllabic>end</syllabic>
                    <text>mour</text>
                </lyric>
                <lyric number="3">
                    <syllabic>single</syllabic>
                    <text>quand</text>
                </lyric>
                <lyric number="4">
                    <syllabic>single</syllabic>
                    <text>ce</text>
                </lyric>
                <lyric number="5">
                    <syllabic>single</syllabic>
                    <text>oui!</text>
                </lyric>
                <lyric number="6">
                    <syllabic>single</syllabic>
                    <text>toi</text>
                </lyric>
            </note>
            <note>
                <pitch>
                    <step>D</step>
                    <octave>5</octave>
                </pitch>
                <duration>2</duration>
                <voice>1</voice>
                <type>quarter</type>
                <stem>down</stem>
                <lyric number="1">
                    <syllabic>single</syllabic>
                    <text>ne</text>
                </lyric>
                <lyric number="2">
                    <syllabic>single</syllabic>
                    <text>ça</text>
                </lyric>
                <lyric number="3">
                    <syllabic>single</syllabic>
                    <text>on</text>
                </lyric>
                <lyric number="4">
                    <syllabic>single</syllabic>
                    <text>qui</text>
                </lyric>
                <lyric number="5">
                    <syllabic>begin</syllabic>
                    <text>re</text>
                </lyric>
                <lyric number="6">
                    <syllabic>single</syllabic>
                    <text>que</text>
                </lyric>
            </note>
        </measure>
        <measure number="10">
            <note>
                <pitch>
                    <step>D</step>
                    <octave>5</octave>
                </pitch>
                <duration>2</duration>
                <voice>1</voice>
                <type>quarter</type>
                <stem>down</stem>
                <lyric number="1">
                    <syllabic>begin</syllabic>
                    <text>s'ex</text>
                </lyric>
                <lyric number="2">
                    <syllabic>single</syllabic>
                    <text>sert</text>
                </lyric>
                <lyric number="3">
                    <syllabic>single</syllabic>
                    <text>l'a</text>
                </lyric>
                <lyric number="4">
                    <syllabic>begin</syllabic>
                    <text>main</text>
                </lyric>
                <lyric number="5">
                    <syllabic>middle</syllabic>
                    <text>gar</text>
                </lyric>
                <lyric number="6">
                    <syllabic>single</syllabic>
                    <text>je</text>
                </lyric>
            </note>
            <note>
                <pitch>
                    <step>C</step>
                    <octave>5</octave>
                </pitch>
                <duration>1</duration>
                <voice>1</voice>
                <type>eighth</type>
                <stem>down</stem>
                <beam number="1">begin</beam>
                <lyric number="1">
                    <syllabic>end</syllabic>
                    <text>plique</text>
                </lyric>
                <lyric number="2">
                    <syllabic>single</syllabic>
                    <text>à</text>
                </lyric>
                <lyric number="3">
                    <syllabic>begin</syllabic>
                    <text>per</text>
                </lyric>
                <lyric number="4">
                    <syllabic>begin</syllabic>
                    <text>te</text>
                </lyric>
                <lyric number="5">
                    <syllabic>end</syllabic>
                    <text>de</text>
                </lyric>
                <lyric number="6">
                    <syllabic>begin</syllabic>
                    <text>vou</text>
                </lyric>
            </note>
            <note>
                <pitch>
                    <step>C</step>
                    <octave>5</octave>
                </pitch>
                <duration>1</duration>
                <tie type="start"/>
                <voice>1</voice>
                <type>eighth</type>
                <stem>down</stem>
                <beam number="1">end</beam>
                <notations>
                    <tied type="start"/>
                </notations>
                <lyric number="1">
                    <syllabic>single</syllabic>
                    <text>pas!</text>
                    <extend/>
                </lyric>
                <lyric number="2">
                    <syllabic>single</syllabic>
                    <text>quoi?</text>
                    <extend/>
                </lyric>
                <lyric number="3">
                    <syllabic>end</syllabic>
                    <text>du</text>
                    <extend/>
                </lyric>
                <lyric number="4">
                    <syllabic>single</syllabic>
                    <text>nant</text>
                    <extend/>
                </lyric>
                <lyric number="5">
                    <syllabic>single</syllabic>
                    <text>moi</text>
                    <extend/>
                </lyric>
                <lyric number="6">
                    <syllabic>end</syllabic>
                    <text>lais</text>
                    <extend/>
                </lyric>
            </note>
            <note>
                <pitch>
                    <step>C</step>
                    <octave>5</octave>
                </pitch>
                <duration>4</duration>
                <tie type="stop"/>
                <voice>1</voice>
                <type>half</type>
                <stem>down</stem>
                <notations>
                    <tied type="stop"/>
                </notations>
            </note>
        </measure>
        <measure number="11">
            <note>
                <rest/>
                <duration>2</duration>
                <voice>1</voice>
                <type>quarter</type>
            </note>
            <note>
                <pitch>
                    <step>E</step>
                    <octave>5</octave>
                </pitch>
                <duration>2</duration>
                <voice>1</voice>
                <type>quarter</type>
                <stem>down</stem>
                <lyric number="1">
                    <syllabic>single</syllabic>
                    <text>C'est</text>
                </lyric>
                <lyric number="2">
                    <syllabic>single</syllabic>
                    <text>A</text>
                </lyric>
                <lyric number="3">
                    <syllabic>begin</syllabic>
                    <text>L'a</text>
                </lyric>
                <lyric number="4">
                    <syllabic>single</syllabic>
                    <text>Te</text>
                </lyric>
                <lyric number="5">
                    <syllabic>single</syllabic>
                    <text>A</text>
                </lyric>
                <lyric number="6">
                    <syllabic>single</syllabic>
                    <text>C'est</text>
                </lyric>
            </note>
            <note>
                <pitch>
                    <step>E</step>
                    <octave>5</octave>
                </pitch>
                <duration>2</duration>
                <voice>1</voice>
                <type>quarter</type>
                <stem>down</stem>
                <lyric number="1">
                    <syllabic>begin</syllabic>
                    <text>u</text>
                </lyric>
                <lyric number="2">
                    <syllabic>single</syllabic>
                    <text>nous</text>
                </lyric>
                <lyric number="3">
                    <syllabic>end</syllabic>
                    <text>mour</text>
                </lyric>
                <lyric number="4">
                    <syllabic>begin</syllabic>
                    <text>sem</text>
                </lyric>
                <lyric number="5">
                    <syllabic>begin</syllabic>
                    <text>cha</text>
                </lyric>
                <lyric number="6">
                    <syllabic>single</syllabic>
                    <text>toi</text>
                </lyric>
            </note>
            <note>
                <pitch>
                    <step>D</step>
                    <octave>5</octave>
                </pitch>
                <duration>2</duration>
                <voice>1</voice>
                <type>quarter</type>
                <stem>down</stem>
                <lyric number="1">
                    <syllabic>end</syllabic>
                    <text>ne</text>
                </lyric>
                <lyric number="2">
                    <syllabic>begin</syllabic>
                    <text>don</text>
                </lyric>
                <lyric number="3">
                    <syllabic>single</syllabic>
                    <text>qu'on</text>
                </lyric>
                <lyric number="4">
                    <syllabic>end</syllabic>
                    <text>ble</text>
                </lyric>
                <lyric number="5">
                    <syllabic>end</syllabic>
                    <text>que</text>
                </lyric>
                <lyric number="6">
                    <syllabic>single</syllabic>
                    <text>qu'il</text>
                </lyric>
            </note>
        </measure>
        <measure number="12">
            <harmony print-frame="yes">
                <root>
                    <root-step>F</root-step>
                </root>
                <kind text="">major</kind>
            </harmony>
            <note>
                <pitch>
                    <step>D</step>
                    <octave>5</octave>
                </pitch>
                <duration>2</duration>
                <voice>1</voice>
                <type>quarter</type>
                <stem>down</stem>
                <lyric number="1">
                    <syllabic>single</syllabic>
                    <text>chose</text>
                </lyric>
                <lyric number="2">
                    <syllabic>end</syllabic>
                    <text>ner</text>
                </lyric>
                <lyric number="3">
                    <syllabic>single</syllabic>
                    <text>a</text>
                </lyric>
                <lyric number="4">
                    <syllabic>begin</syllabic>
                    <text>dé</text>
                </lyric>
                <lyric number="5">
                    <syllabic>single</syllabic>
                    <text>fois</text>
                </lyric>
                <lyric number="6">
                    <syllabic>single</syllabic>
                    <text>me</text>
                </lyric>
            </note>
            <note>
                <pitch>
                    <step>C</step>
                    <octave>5</octave>
                </pitch>
                <duration>1</duration>
                <voice>1</voice>
                <type>eighth</type>
                <stem>down</stem>
                <beam number="1">begin</beam>
                <lyric number="1">
                    <syllabic>single</syllabic>
                    <text>comme</text>
                </lyric>
                <lyric number="2">
                    <syllabic>single</syllabic>
                    <text>d'la</text>
                </lyric>
                <lyric number="3">
                    <syllabic>begin</syllabic>
                    <text>con</text>
                </lyric>
                <lyric number="4">
                    <syllabic>middle</syllabic>
                    <text>chi</text>
                </lyric>
                <lyric number="5">
                    <syllabic>single</syllabic>
                    <text>j'y</text>
                </lyric>
                <lyric number="6">
                    <syllabic>begin</syllabic>
                    <text>fal</text>
                </lyric>
            </note>
            <note>
                <pitch>
                    <step>C</step>
                    <octave>5</octave>
                </pitch>
                <duration>1</duration>
                <tie type="start"/>
                <voice>1</voice>
                <type>eighth</type>
                <stem>down</stem>
                <beam number="1">end</beam>
                <notations>
                    <tied type="start"/>
                </notations>
                <lyric number="1">
                    <syllabic>single</syllabic>
                    <text>ça</text>
                    <extend/>
                </lyric>
                <lyric number="2">
                    <syllabic>single</syllabic>
                    <text>joie</text>
                    <extend/>
                </lyric>
                <lyric number="3">
                    <syllabic>end</syllabic>
                    <text>nu</text>
                    <extend/>
                </lyric>
                <lyric number="4">
                    <syllabic>end</syllabic>
                    <text>rant</text>
                    <extend/>
                </lyric>
                <lyric number="5">
                    <syllabic>single</syllabic>
                    <text>crois</text>
                    <extend/>
                </lyric>
                <lyric number="6">
                    <syllabic>end</syllabic>
                    <text>lait!</text>
                    <extend/>
                </lyric>
            </note>
            <note>
                <pitch>
                    <step>C</step>
                    <octave>5</octave>
                </pitch>
                <duration>4</duration>
                <tie type="stop"/>
                <voice>1</voice>
                <type>half</type>
                <stem>down</stem>
                <notations>
                    <tied type="stop"/>
                </notations>
            </note>
        </measure>
        <measure number="13">
            <print new-system="yes"/>
            <note>
                <rest/>
                <duration>2</duration>
                <voice>1</voice>
                <type>quarter</type>
            </note>
            <note>
                <pitch>
                    <step>E</step>
                    <octave>5</octave>
                </pitch>
                <duration>2</duration>
                <voice>1</voice>
                <type>quarter</type>
                <stem>down</stem>
                <lyric number="1">
                    <syllabic>single</syllabic>
                    <text>Qui</text>
                </lyric>
                <lyric number="2">
                    <syllabic>begin</syllabic>
                    <text>A</text>
                </lyric>
                <lyric number="3">
                    <syllabic>single</syllabic>
                    <text>Vous</text>
                </lyric>
                <lyric number="4">
                    <syllabic>begin</syllabic>
                    <text>De</text>
                </lyric>
                <lyric number="5">
                    <syllabic>single</syllabic>
                    <text>Et</text>
                </lyric>
                <lyric number="6">
                    <syllabic>single</syllabic>
                    <text>Toi</text>
                </lyric>
            </note>
            <note>
                <pitch>
                    <step>E</step>
                    <octave>5</octave>
                </pitch>
                <duration>2</duration>
                <voice>1</voice>
                <type>quarter</type>
                <stem>down</stem>
                <lyric number="1">
                    <syllabic>single</syllabic>
                    <text>vient</text>
                </lyric>
                <lyric number="2">
                    <syllabic>end</syllabic>
                    <text>vec</text>
                </lyric>
                <lyric number="3">
                    <syllabic>single</syllabic>
                    <text>laisse</text>
                </lyric>
                <lyric number="4">
                    <syllabic>end</syllabic>
                    <text>main</text>
                </lyric>
                <lyric number="5">
                    <syllabic>single</syllabic>
                    <text>j'y</text>
                </lyric>
                <lyric number="6">
                    <syllabic>single</syllabic>
                    <text>que</text>
                </lyric>
            </note>
            <note>
                <pitch>
                    <step>D</step>
                    <octave>5</octave>
                </pitch>
                <duration>2</duration>
                <voice>1</voice>
                <type>quarter</type>
                <stem>down</stem>
                <lyric number="1">
                    <syllabic>single</syllabic>
                    <text>on</text>
                </lyric>
                <lyric number="2">
                    <syllabic>single</syllabic>
                    <text>des</text>
                </lyric>
                <lyric number="3">
                    <syllabic>single</syllabic>
                    <text>un</text>
                </lyric>
                <lyric number="4">
                    <syllabic>begin</syllabic>
                    <text>se</text>
                </lyric>
                <lyric number="5">
                    <syllabic>begin</syllabic>
                    <text>croi</text>
                </lyric>
                <lyric number="6">
                    <syllabic>begin</syllabic>
                    <text>j'ai</text>
                </lyric>
            </note>
        </measure>
        <measure number="14">
            <harmony print-frame="yes">
                <root>
                    <root-step>D</root-step>
                </root>
                <kind text="">major</kind>
            </harmony>
            <note>
                <pitch>
                    <step>D</step>
                    <octave>5</octave>
                </pitch>
                <duration>2</duration>
                <voice>1</voice>
                <type>quarter</type>
                <stem>down</stem>
                <lyric number="1">
                    <syllabic>single</syllabic>
                    <text>ne</text>
                </lyric>
                <lyric number="2">
                    <syllabic>single</syllabic>
                    <text>larmes</text>
                </lyric>
                <lyric number="3">
                    <syllabic>single</syllabic>
                    <text>goût</text>
                </lyric>
                <lyric number="4">
                    <syllabic>end</syllabic>
                    <text>ra</text>
                </lyric>
                <lyric number="5">
                    <syllabic>end</syllabic>
                    <text>rais</text>
                </lyric>
                <lyric number="6">
                    <syllabic>end</syllabic>
                    <text>m'rai</text>
                </lyric>
            </note>
            <note>
                <pitch>
                    <step>C</step>
                    <octave>5</octave>
                </pitch>
                <duration>1</duration>
                <voice>1</voice>
                <type>eighth</type>
                <stem>down</stem>
                <beam number="1">begin</beam>
                <lyric number="1">
                    <syllabic>single</syllabic>
                    <text>sait</text>
                </lyric>
                <lyric number="2">
                    <syllabic>single</syllabic>
                    <text>aux</text>
                </lyric>
                <lyric number="3">
                    <syllabic>single</syllabic>
                    <text>de</text>
                </lyric>
                <lyric number="4">
                    <syllabic>single</syllabic>
                    <text>pour</text>
                </lyric>
                <lyric number="5">
                    <syllabic>begin</syllabic>
                    <text>tou</text>
                </lyric>
                <lyric number="6">
                    <syllabic>begin</syllabic>
                    <text>tou</text>
                </lyric>
            </note>
            <note>
                <pitch>
                    <step>C</step>
                    <octave>5</octave>
                </pitch>
                <duration>1</duration>
                <tie type="start"/>
                <voice>1</voice>
                <type>eighth</type>
                <stem>down</stem>
                <beam number="1">end</beam>
                <notations>
                    <tied type="start"/>
                </notations>
                <lyric number="1">
                    <syllabic>single</syllabic>
                    <text>d'où</text>
                    <extend/>
                </lyric>
                <lyric number="2">
                    <syllabic>single</syllabic>
                    <text>yeux</text>
                    <extend/>
                </lyric>
                <lyric number="3">
                    <syllabic>single</syllabic>
                    <text>miel</text>
                    <extend/>
                </lyric>
                <lyric number="4">
                    <syllabic>single</syllabic>
                    <text>toi</text>
                    <extend/>
                </lyric>
                <lyric number="5">
                    <syllabic>end</syllabic>
                    <text>jours</text>
                    <extend/>
                </lyric>
                <lyric number="6">
                    <syllabic>end</syllabic>
                    <text>jours</text>
                    <extend/>
                </lyric>
            </note>
            <note>
                <pitch>
                    <step>C</step>
                    <octave>5</octave>
                </pitch>
                <duration>4</duration>
                <tie type="stop"/>
                <voice>1</voice>
                <type>half</type>
                <stem>down</stem>
                <notations>
                    <tied type="stop"/>
                </notations>
            </note>
        </measure>
        <measure number="15">
            <note>
                <rest/>
                <duration>2</duration>
                <voice>1</voice>
                <type>quarter</type>
            </note>
            <note>
                <pitch>
                    <step>E</step>
                    <octave>5</octave>
                </pitch>
                <duration>2</duration>
                <voice>1</voice>
                <type>quarter</type>
                <stem>down</stem>
                <lyric number="1">
                    <syllabic>single</syllabic>
                    <text>Et</text>
                </lyric>
                <lyric number="2">
                    <syllabic>single</syllabic>
                    <text>C'est</text>
                </lyric>
                <lyric number="3">
                    <syllabic>begin</syllabic>
                    <text>L'a</text>
                </lyric>
                <lyric number="4">
                    <syllabic>single</syllabic>
                    <text>Un</text>
                </lyric>
                <lyric number="5">
                    <syllabic>single</syllabic>
                    <text>Ca</text>
                </lyric>
                <lyric number="6">
                    <syllabic>single</syllabic>
                    <text>Ca</text>
                </lyric>
            </note>
            <note>
                <pitch>
                    <step>E</step>
                    <octave>5</octave>
                </pitch>
                <duration>2</duration>
                <voice>1</voice>
                <type>quarter</type>
                <stem>down</stem>
                <lyric number="1">
                    <syllabic>single</syllabic>
                    <text>vous</text>
                </lyric>
                <lyric number="2">
                    <syllabic>single</syllabic>
                    <text>triste</text>
                </lyric>
                <lyric number="3">
                    <syllabic>end</syllabic>
                    <text>mour</text>
                </lyric>
                <lyric number="4">
                    <syllabic>begin</syllabic>
                    <text>sou</text>
                </lyric>
                <lyric number="5">
                    <syllabic>single</syllabic>
                    <text>sert</text>
                </lyric>
                <lyric number="6">
                    <syllabic>single</syllabic>
                    <text>sert</text>
                </lyric>
            </note>
            <note>
                <pitch>
                    <step>D</step>
                    <octave>5</octave>
                </pitch>
                <duration>2</duration>
                <voice>1</voice>
                <type>quarter</type>
                <stem>down</stem>
                <lyric number="1">
                    <syllabic>single</syllabic>
                    <text>prend</text>
                </lyric>
                <lyric number="2">
                    <syllabic>single</syllabic>
                    <text>et</text>
                </lyric>
                <lyric number="3">
                    <syllabic>single</syllabic>
                    <text>c'est</text>
                </lyric>
                <lyric number="4">
                    <syllabic>middle</syllabic>
                    <text>ve</text>
                </lyric>
                <lyric number="5">
                    <syllabic>single</syllabic>
                    <text>à</text>
                </lyric>
                <lyric number="6">
                    <syllabic>single</syllabic>
                    <text>à</text>
                </lyric>
            </note>
        </measure>
        <measure number="16">
            <note>
                <rest/>
                <duration>2</duration>
                <voice>1</voice>
                <type>quarter</type>
            </note>
            <note>
                <pitch>
                    <step>C</step>
                    <octave>5</octave>
                </pitch>
                <duration>4</duration>
                <voice>1</voice>
                <type>half</type>
                <stem>down</stem>
                <lyric number="1">
                    <syllabic>single</syllabic>
                    <text>tout</text>
                </lyric>
                <lyric number="2">
                    <syllabic>begin</syllabic>
                    <text>mer</text>
                </lyric>
                <lyric number="3">
                    <syllabic>begin</syllabic>
                    <text>é</text>
                </lyric>
                <lyric number="4">
                    <syllabic>end</syllabic>
                    <text>nir</text>
                </lyric>
                <lyric number="5">
                    <syllabic>single</syllabic>
                    <text>ça</text>
                </lyric>
                <lyric number="6">
                    <syllabic>single</syllabic>
                    <text>ça</text>
                </lyric>
            </note>
            <harmony print-frame="yes">
                <root>
                    <root-step>G</root-step>
                </root>
                <kind text="">major</kind>
            </harmony>
            <note>
                <pitch>
                    <step>D</step>
                    <octave>5</octave>
                </pitch>
                <duration>2</duration>
                <voice>1</voice>
                <type>quarter</type>
                <stem>down</stem>
                <lyric number="1">
                    <syllabic>single</syllabic>
                    <text>à</text>
                </lyric>
                <lyric number="2">
                    <syllabic>middle</syllabic>
                    <text>veil</text>
                </lyric>
                <lyric number="3">
                    <syllabic>middle</syllabic>
                    <text>ter</text>
                </lyric>
                <lyric number="4">
                    <syllabic>single</syllabic>
                    <text>de</text>
                </lyric>
                <lyric number="5">
                    <syllabic>begin</syllabic>
                    <text>l'a</text>
                </lyric>
                <lyric number="6">
                    <syllabic>begin</syllabic>
                    <text>l'a</text>
                </lyric>
            </note>
        </measure>
        <measure number="17">
            <print new-system="yes"/>
            <barline location="left">
                <ending type="start" number="1-5"></ending>
            </barline>
            <harmony print-frame="yes">
                <root>
                    <root-step>G</root-step>
                    <root-alter>1</root-alter>
                </root>
                <kind text="">major</kind>
            </harmony>
            <harmony print-frame="yes">
                <root>
                    <root-step>C</root-step>
                </root>
                <kind text="">major</kind>
            </harmony>
            <note>
                <pitch>
                    <step>C</step>
                    <octave>5</octave>
                </pitch>
                <duration>6</duration>
                <voice>1</voice>
                <type>half</type>
                <dot/>
                <stem>down</stem>
                <lyric number="1">
                    <syllabic>single</syllabic>
                    <text>coup.</text>
                </lyric>
                <lyric number="2">
                    <syllabic>end</syllabic>
                    <text>leux.</text>
                </lyric>
                <lyric number="3">
                    <syllabic>end</syllabic>
                    <text>nel.</text>
                </lyric>
                <lyric number="4">
                    <syllabic>single</syllabic>
                    <text>joie.</text>
                </lyric>
                <lyric number="5">
                    <syllabic>end</syllabic>
                    <text>mour!</text>
                </lyric>
            </note>
            <note>
                <rest/>
                <duration>2</duration>
                <voice>1</voice>
                <type>quarter</type>
            </note>
            <barline location="right">
                <bar-style>light-light</bar-style>
            </barline>
        </measure>
        <measure number="18">
            <harmony print-frame="yes">
                <root>
                    <root-step>C</root-step>
                    <root-alter>1</root-alter>
                </root>
                <kind text="">major</kind>
            </harmony>
            <note>
                <rest/>
                <duration>2</duration>
                <voice>1</voice>
                <type>quarter</type>
            </note>
            <note>
                <pitch>
                    <step>C</step>
                    <alter>1</alter>
                    <octave>5</octave>
                </pitch>
                <duration>2</duration>
                <voice>1</voice>
                <type>quarter</type>
                <accidental>sharp</accidental>
                <stem>down</stem>
                <lyric number="1">
                    <syllabic>single</syllabic>
                    <text>Moi</text>
                </lyric>
                <lyric number="2">
                    <syllabic>begin</syllabic>
                    <text>Pour</text>
                </lyric>
                <lyric number="3">
                    <syllabic>single</syllabic>
                    <text>Tout</text>
                </lyric>
                <lyric number="4">
                    <syllabic>single</syllabic>
                    <text>En</text>
                </lyric>
                <lyric number="5">
                    <syllabic>single</syllabic>
                    <text>Mais</text>
                </lyric>
            </note>
            <note>
                <pitch>
                    <step>C</step>
                    <alter>1</alter>
                    <octave>5</octave>
                </pitch>
                <duration>2</duration>
                <voice>1</voice>
                <type>quarter</type>
                <stem>down</stem>
                <lyric number="1">
                    <syllabic>single</syllabic>
                    <text>j'ai</text>
                </lyric>
                <lyric number="2">
                    <syllabic>end</syllabic>
                    <text>tant</text>
                </lyric>
                <lyric number="3">
                    <syllabic>single</syllabic>
                    <text>ça,</text>
                </lyric>
                <lyric number="4">
                    <syllabic>single</syllabic>
                    <text>somme,</text>
                </lyric>
                <lyric number="5">
                    <syllabic>single</syllabic>
                    <text>toi,</text>
                </lyric>
            </note>
            <note>
                <pitch>
                    <step>C</step>
                    <octave>5</octave>
                </pitch>
                <duration>2</duration>
                <voice>1</voice>
                <type>quarter</type>
                <accidental>natural</accidental>
                <stem>down</stem>
                <lyric number="1">
                    <syllabic>begin</syllabic>
                    <text>en</text>
                </lyric>
                <lyric number="2">
                    <syllabic>single</syllabic>
                    <text>on</text>
                </lyric>
                <lyric number="3">
                    <syllabic>single</syllabic>
                    <text>c'est</text>
                </lyric>
                <lyric number="4">
                    <syllabic>single</syllabic>
                    <text>si</text>
                </lyric>
                <lyric number="5">
                    <syllabic>single</syllabic>
                    <text>t'es</text>
                </lyric>
            </note>
            <barline location="right">
                <bar-style>light-heavy</bar-style>
                <ending type="stop" number="1-5"></ending>
                <repeat direction="backward"/>
            </barline>
        </measure>
        <measure number="19">
            <barline location="left">
                <ending type="start" number="6."></ending>
            </barline>
            <note>
                <pitch>
                    <step>C</step>
                    <octave>5</octave>
                </pitch>
                <duration>8</duration>
                <voice>1</voice>
                <type>whole</type>
                <notations>
                    <slur type="start" number="1"/>
                </notations>
                <lyric number="1">
                    <syllabic>end</syllabic>
                    <text>mour!</text>
                    <extend/>
                </lyric>
            </note>
            <barline location="right">
                <ending type="discontinue" number="6."></ending>
            </barline>
        </measure>
        <measure number="20">
            <note>
                <pitch>
                    <step>D</step>
                    <octave>5</octave>
                </pitch>
                <duration>8</duration>
                <voice>1</voice>
                <type>whole</type>
            </note>
        </measure>
        <measure number="21">
            <note>
                <pitch>
                    <step>C</step>
                    <octave>5</octave>
                </pitch>
                <duration>8</duration>
                <voice>1</voice>
                <type>whole</type>
                <notations>
                    <slur type="stop" number="1"/>
                </notations>
            </note>
            <barline location="right">
                <bar-style>light-heavy</bar-style>
            </barline>
        </measure>
    </part>
</score-partwise>
