<?xml version="1.0" encoding="UTF-8"?>
<!DOCTYPE score-partwise PUBLIC "-//Recordare//DTD MusicXML 2.0 Partwise//EN" "http://www.musicxml.org/dtds/partwise.dtd">
<score-partwise version="2.0">
    <work>
        <work-number></work-number>
        <work-title></work-title>
    </work>
    <movement-number></movement-number>
    <movement-title>Detour Ahead</movement-title>
    <identification>
        <creator type="composer">Herb Ellis, John Frigo, Lou Carter</creator>
        <creator type="poet"></creator>
        <rights>All Rights Reserved</rights>
        <encoding>
            <software>Finale 2011 for Macintosh</software>
            <software>Dolet Light for Finale 2011</software>
            <encoding-date>2012-03-26</encoding-date>
            <supports value="yes" type="yes" element="print" attribute="new-system"/>
            <supports value="yes" type="yes" element="print" attribute="new-page"/>
            <software>ProxyMusic 2.0 c</software>
        </encoding>
        <source>http://wikifonia.org/node/15448/revisions/20560/view</source>
    </identification>
    <defaults>
        <scaling>
            <millimeters>7.2319</millimeters>
            <tenths>40</tenths>
        </scaling>
        <page-layout>
            <page-height>1545</page-height>
            <page-width>1194</page-width>
            <page-margins type="both">
                <left-margin>70</left-margin>
                <right-margin>70</right-margin>
                <top-margin>65</top-margin>
                <bottom-margin>88</bottom-margin>
            </page-margins>
        </page-layout>
        <system-layout>
            <system-margins>
                <left-margin>0</left-margin>
                <right-margin>0</right-margin>
            </system-margins>
            <system-distance>121</system-distance>
            <top-system-distance>70</top-system-distance>
        </system-layout>
        <appearance>
            <line-width type="stem">1.4583</line-width>
            <line-width type="beam">5</line-width>
            <line-width type="staff">1.4583</line-width>
            <line-width type="light barline">1.4583</line-width>
            <line-width type="heavy barline">5</line-width>
            <line-width type="leger">1.4583</line-width>
            <line-width type="ending">1.4583</line-width>
            <line-width type="wedge">1.4583</line-width>
            <line-width type="enclosure">1.4583</line-width>
            <line-width type="tuplet bracket">1.4583</line-width>
            <note-size type="grace">60</note-size>
            <note-size type="cue">60</note-size>
        </appearance>
        <music-font font-size="20.5" font-family="Broadway Copyist"/>
        <word-font font-size="10.25" font-family="Broadway Copyist Text"/>
        <lyric-font font-size="12" font-family="Broadway Copyist Text"/>
    </defaults>
    <credit page="1">
        <credit-words font-size="28" default-y="1462" default-x="597" justify="center" valign="top">Detour Ahead</credit-words>
    </credit>
    <credit page="1">
        <credit-words font-size="10" default-y="29" default-x="611" justify="center" valign="bottom">COPYRIGHT</credit-words>
    </credit>
    <credit page="1">
        <credit-words font-size="12" default-y="1369" default-x="865" valign="top">Herb Ellis/John Frigo/ Lou Carter</credit-words>
    </credit>
    <credit page="1">
        <credit-words font-size="12" default-y="1364" default-x="147" valign="top">Med. Ballad</credit-words>
    </credit>
    <part-list>
        <score-part id="P1">
            <part-name print-object="no">MusicXML Part</part-name>
            <score-instrument id="P1-I1">
                <instrument-name>Grand Piano</instrument-name>
            </score-instrument>
            <midi-instrument id="P1-I1">
                <midi-channel>1</midi-channel>
                <midi-program>1</midi-program>
                <volume>80</volume>
                <pan>0</pan>
            </midi-instrument>
        </score-part>
    </part-list>
    <part id="P1">
        <measure width="310" number="1">
            <print>
                <system-layout>
                    <top-system-distance>211</top-system-distance>
                </system-layout>
                <measure-numbering>system</measure-numbering>
            </print>
            <attributes>
                <divisions>24</divisions>
                <key>
                    <fifths>0</fifths>
                    <mode>major</mode>
                </key>
                <time>
                    <beats>4</beats>
                    <beat-type>4</beat-type>
                </time>
                <clef>
                    <sign>G</sign>
                    <line>2</line>
                </clef>
            </attributes>
            <sound tempo="120"/>
            <harmony font-size="15.4" default-y="12">
                <root>
                    <root-step>C</root-step>
                </root>
                <kind halign="center" text="maj7">major-seventh</kind>
            </harmony>
            <note default-x="88">
                <pitch>
                    <step>E</step>
                    <octave>4</octave>
                </pitch>
                <duration>24</duration>
                <voice>1</voice>
                <type>quarter</type>
                <stem default-y="-4">up</stem>
                <lyric relative-x="9" default-y="-80" number="1">
                    <syllabic>single</syllabic>
                    <text>1.</text>
                    <elision> </elision>
                    <syllabic>single</syllabic>
                    <text>Smooth</text>
                </lyric>
                <lyric relative-x="8" default-y="-97" number="2">
                    <syllabic>single</syllabic>
                    <text>2.</text>
                    <elision> </elision>
                    <syllabic>single</syllabic>
                    <text>Wake</text>
                </lyric>
            </note>
            <note default-x="158">
                <pitch>
                    <step>G</step>
                    <octave>4</octave>
                </pitch>
                <duration>72</duration>
                <voice>1</voice>
                <type>half</type>
                <dot/>
                <stem default-y="6">up</stem>
                <lyric default-y="-80" number="1">
                    <syllabic>single</syllabic>
                    <text>road,</text>
                </lyric>
                <lyric default-y="-97" number="2">
                    <syllabic>single</syllabic>
                    <text>up,</text>
                </lyric>
            </note>
            <harmony font-size="15.4" default-y="10">
                <root>
                    <root-step>F</root-step>
                    <root-alter>1</root-alter>
                </root>
                <kind halign="center">dominant</kind>
                <degree>
                    <degree-value>9</degree-value>
                    <degree-alter>-1</degree-alter>
                    <degree-type>add</degree-type>
                </degree>
                <offset>-24</offset>
            </harmony>
        </measure>
        <measure width="250" number="2">
            <harmony font-size="15.4" relative-x="12" default-y="12">
                <root>
                    <root-step>B</root-step>
                </root>
                <kind halign="center">dominant</kind>
                <degree>
                    <degree-value>5</degree-value>
                    <degree-alter>1</degree-alter>
                    <degree-type>alter</degree-type>
                </degree>
            </harmony>
            <note default-x="11">
                <pitch>
                    <step>B</step>
                    <octave>4</octave>
                </pitch>
                <duration>24</duration>
                <voice>1</voice>
                <type>quarter</type>
                <stem default-y="-55.5">down</stem>
                <lyric default-y="-80" number="1">
                    <syllabic>single</syllabic>
                    <text>clear</text>
                </lyric>
                <lyric default-y="-97" number="2">
                    <syllabic>single</syllabic>
                    <text>slow</text>
                </lyric>
            </note>
            <note default-x="72">
                <pitch>
                    <step>G</step>
                    <octave>4</octave>
                </pitch>
                <duration>48</duration>
                <tie type="start"/>
                <voice>1</voice>
                <type>half</type>
                <stem default-y="6">up</stem>
                <notations>
                    <tied type="start"/>
                </notations>
                <lyric justify="left" default-y="-80" number="1">
                    <syllabic>single</syllabic>
                    <text>day,</text>
                    <extend/>
                </lyric>
                <lyric justify="left" default-y="-97" number="2">
                    <syllabic>single</syllabic>
                    <text>down,</text>
                    <extend/>
                </lyric>
            </note>
            <note default-x="172">
                <pitch>
                    <step>G</step>
                    <octave>4</octave>
                </pitch>
                <duration>12</duration>
                <tie type="stop"/>
                <voice>1</voice>
                <type>eighth</type>
                <stem default-y="5">up</stem>
                <beam number="1">begin</beam>
                <notations>
                    <tied type="stop"/>
                </notations>
            </note>
            <note default-x="211">
                <pitch>
                    <step>G</step>
                    <octave>4</octave>
                </pitch>
                <duration>12</duration>
                <voice>1</voice>
                <type>eighth</type>
                <stem default-y="5">up</stem>
                <beam number="1">end</beam>
                <lyric default-y="-80" number="1">
                    <syllabic>single</syllabic>
                    <text>but</text>
                </lyric>
                <lyric default-y="-97" number="2">
                    <syllabic>begin</syllabic>
                    <text>be</text>
                </lyric>
            </note>
        </measure>
        <measure width="494" number="3">
            <harmony font-size="15.4" default-y="23">
                <root>
                    <root-step>F</root-step>
                </root>
                <kind halign="center" text="maj7">major-seventh</kind>
            </harmony>
            <note default-x="10">
                <pitch>
                    <step>A</step>
                    <octave>4</octave>
                </pitch>
                <duration>12</duration>
                <voice>1</voice>
                <type>eighth</type>
                <stem default-y="20">up</stem>
                <beam number="1">begin</beam>
                <lyric default-y="-80" number="1">
                    <syllabic>single</syllabic>
                    <text>why</text>
                </lyric>
                <lyric default-y="-97" number="2">
                    <syllabic>end</syllabic>
                    <text>rofre</text>
                </lyric>
            </note>
            <note default-x="76">
                <pitch>
                    <step>C</step>
                    <octave>5</octave>
                </pitch>
                <duration>12</duration>
                <voice>1</voice>
                <type>eighth</type>
                <stem default-y="20">up</stem>
                <beam number="1">continue</beam>
                <lyric default-y="-80" number="1">
                    <syllabic>single</syllabic>
                    <text>am</text>
                </lyric>
                <lyric default-y="-97" number="2">
                    <syllabic>single</syllabic>
                    <text>you</text>
                </lyric>
            </note>
            <harmony font-size="15.4" default-y="23">
                <root>
                    <root-step>E</root-step>
                </root>
                <kind halign="center" use-symbols="yes">minor-seventh</kind>
            </harmony>
            <note default-x="141">
                <pitch>
                    <step>B</step>
                    <octave>4</octave>
                </pitch>
                <duration>12</duration>
                <voice>1</voice>
                <type>eighth</type>
                <stem default-y="20">up</stem>
                <beam number="1">continue</beam>
                <lyric default-y="-80" number="1">
                    <syllabic>single</syllabic>
                    <text>I</text>
                </lyric>
                <lyric default-y="-97" number="2">
                    <syllabic>single</syllabic>
                    <text>crash</text>
                </lyric>
            </note>
            <note default-x="207">
                <pitch>
                    <step>G</step>
                    <octave>4</octave>
                </pitch>
                <duration>12</duration>
                <voice>1</voice>
                <type>eighth</type>
                <stem default-y="20">up</stem>
                <beam number="1">end</beam>
                <lyric default-y="-80" number="1">
                    <syllabic>single</syllabic>
                    <text>the</text>
                </lyric>
                <lyric default-y="-97" number="2">
                    <syllabic>single</syllabic>
                    <text>and</text>
                </lyric>
            </note>
            <harmony font-size="15.4" default-y="18">
                <root>
                    <root-step>A</root-step>
                </root>
                <kind halign="center" use-symbols="yes">minor-seventh</kind>
            </harmony>
            <note default-x="272">
                <pitch>
                    <step>A</step>
                    <octave>4</octave>
                </pitch>
                <duration>6</duration>
                <voice>1</voice>
                <type>16th</type>
                <stem default-y="10">up</stem>
                <beam number="1">begin</beam>
                <beam number="2">begin</beam>
                <lyric default-y="-80" number="1">
                    <syllabic>begin</syllabic>
                    <text>on</text>
                </lyric>
                <lyric default-y="-97" number="2">
                    <syllabic>single</syllabic>
                    <text>break</text>
                </lyric>
            </note>
            <note default-x="316">
                <pitch>
                    <step>G</step>
                    <octave>4</octave>
                </pitch>
                <duration>6</duration>
                <voice>1</voice>
                <type>16th</type>
                <stem default-y="5">up</stem>
                <beam number="1">end</beam>
                <beam number="2">end</beam>
                <lyric default-y="-80" number="1">
                    <syllabic>end</syllabic>
                    <text>ly</text>
                </lyric>
                <lyric default-y="-97" number="2">
                    <syllabic>single</syllabic>
                    <text>your</text>
                </lyric>
            </note>
            <harmony font-size="15.4" default-y="18">
                <root>
                    <root-step>A</root-step>
                </root>
                <kind halign="center" use-symbols="yes">minor-seventh</kind>
            </harmony>
            <note default-x="360">
                <pitch>
                    <step>E</step>
                    <octave>4</octave>
                </pitch>
                <duration>36</duration>
                <voice>1</voice>
                <type>quarter</type>
                <dot/>
                <stem default-y="-4">up</stem>
                <lyric default-y="-80" number="1">
                    <syllabic>single</syllabic>
                    <text>one</text>
                </lyric>
                <lyric default-y="-97" number="2">
                    <syllabic>single</syllabic>
                    <text>heart,</text>
                </lyric>
            </note>
        </measure>
        <measure width="286" number="4">
            <print new-system="yes">
                <system-layout>
                    <system-distance>120</system-distance>
                </system-layout>
            </print>
            <harmony font-size="15.4" default-y="18">
                <root>
                    <root-step>D</root-step>
                </root>
                <kind halign="center" text="7">dominant</kind>
            </harmony>
            <note default-x="12">
                <pitch>
                    <step>D</step>
                    <octave>4</octave>
                </pitch>
                <duration>16</duration>
                <voice>1</voice>
                <type>quarter</type>
                <time-modification>
                    <actual-notes>3</actual-notes>
                    <normal-notes>2</normal-notes>
                </time-modification>
                <stem default-y="-9">up</stem>
                <notations>
                    <tuplet placement="above" type="start" number="1"/>
                </notations>
                <lyric default-y="-89" number="1">
                    <syllabic>begin</syllabic>
                    <text>trav</text>
                </lyric>
                <lyric default-y="-103" number="2">
                    <syllabic>begin</syllabic>
                    <text>gul</text>
                </lyric>
            </note>
            <note default-x="65">
                <pitch>
                    <step>E</step>
                    <octave>4</octave>
                </pitch>
                <duration>16</duration>
                <voice>1</voice>
                <type>quarter</type>
                <time-modification>
                    <actual-notes>3</actual-notes>
                    <normal-notes>2</normal-notes>
                </time-modification>
                <stem default-y="-4">up</stem>
                <lyric default-y="-80" number="1">
                    <syllabic>end</syllabic>
                    <text>'lin'</text>
                </lyric>
                <lyric default-y="-97" number="2">
                    <syllabic>middle</syllabic>
                    <text>li</text>
                </lyric>
            </note>
            <note default-x="118">
                <pitch>
                    <step>D</step>
                    <octave>4</octave>
                </pitch>
                <duration>16</duration>
                <voice>1</voice>
                <type>quarter</type>
                <time-modification>
                    <actual-notes>3</actual-notes>
                    <normal-notes>2</normal-notes>
                </time-modification>
                <stem default-y="-9">up</stem>
                <notations>
                    <tuplet type="stop" number="1"/>
                </notations>
                <lyric default-y="-80" number="1">
                    <syllabic>single</syllabic>
                    <text>this</text>
                </lyric>
                <lyric default-y="-97" number="2">
                    <syllabic>end</syllabic>
                    <text>ble</text>
                </lyric>
            </note>
            <harmony font-size="15.4" default-y="13">
                <root>
                    <root-step>D</root-step>
                </root>
                <kind halign="center" use-symbols="yes">minor-seventh</kind>
            </harmony>
            <harmony font-size="15.4" default-y="13">
                <root>
                    <root-step>G</root-step>
                </root>
                <kind halign="center" text="7">dominant</kind>
                <offset>24</offset>
            </harmony>
            <note default-x="170">
                <pitch>
                    <step>E</step>
                    <octave>4</octave>
                </pitch>
                <duration>48</duration>
                <voice>1</voice>
                <type>half</type>
                <stem default-y="-4">up</stem>
                <lyric default-y="-80" number="1">
                    <syllabic>single</syllabic>
                    <text>way?</text>
                </lyric>
                <lyric default-y="-97" number="2">
                    <syllabic>single</syllabic>
                    <text>clown.</text>
                </lyric>
            </note>
        </measure>
        <measure width="505" number="5">
            <note default-x="10">
                <rest/>
                <duration>12</duration>
                <voice>1</voice>
                <type>eighth</type>
            </note>
            <harmony font-size="15.4" default-y="13">
                <root>
                    <root-step>G</root-step>
                </root>
                <kind halign="center" use-symbols="yes">minor-seventh</kind>
            </harmony>
            <note default-x="72">
                <pitch>
                    <step>G</step>
                    <octave>4</octave>
                </pitch>
                <duration>12</duration>
                <voice>1</voice>
                <type>eighth</type>
                <stem default-y="5">up</stem>
                <beam number="1">begin</beam>
                <lyric default-y="-80" number="1">
                    <syllabic>single</syllabic>
                    <text>How</text>
                </lyric>
                <lyric default-y="-97" number="2">
                    <syllabic>single</syllabic>
                    <text>You</text>
                </lyric>
            </note>
            <note default-x="134">
                <pitch>
                    <step>G</step>
                    <octave>4</octave>
                </pitch>
                <duration>12</duration>
                <voice>1</voice>
                <type>eighth</type>
                <stem default-y="7.5">up</stem>
                <beam number="1">continue</beam>
                <lyric default-y="-80" number="1">
                    <syllabic>single</syllabic>
                    <text>strange</text>
                </lyric>
                <lyric default-y="-97" number="2">
                    <syllabic>single</syllabic>
                    <text>fool,</text>
                </lyric>
            </note>
            <note default-x="195">
                <pitch>
                    <step>A</step>
                    <octave>4</octave>
                </pitch>
                <duration>12</duration>
                <voice>1</voice>
                <type>eighth</type>
                <stem default-y="10">up</stem>
                <beam number="1">end</beam>
                <lyric default-y="-80" number="1">
                    <syllabic>single</syllabic>
                    <text>the</text>
                </lyric>
                <lyric default-y="-97" number="2">
                    <syllabic>single</syllabic>
                    <text>you're</text>
                </lyric>
            </note>
            <harmony font-size="15.4" default-y="18">
                <root>
                    <root-step>C</root-step>
                </root>
                <kind halign="center" text="7">dominant</kind>
            </harmony>
            <note default-x="257">
                <pitch>
                    <step>B</step>
                    <alter>-1</alter>
                    <octave>4</octave>
                </pitch>
                <duration>12</duration>
                <voice>1</voice>
                <type>eighth</type>
                <accidental>flat</accidental>
                <stem default-y="15">up</stem>
                <beam number="1">begin</beam>
                <lyric default-y="-80" number="1">
                    <syllabic>single</syllabic>
                    <text>road</text>
                </lyric>
                <lyric default-y="-97" number="2">
                    <syllabic>begin</syllabic>
                    <text>Head</text>
                </lyric>
            </note>
            <note default-x="319">
                <pitch>
                    <step>A</step>
                    <octave>4</octave>
                </pitch>
                <duration>12</duration>
                <voice>1</voice>
                <type>eighth</type>
                <stem default-y="13">up</stem>
                <beam number="1">continue</beam>
                <lyric default-y="-80" number="1">
                    <syllabic>single</syllabic>
                    <text>to</text>
                </lyric>
                <lyric default-y="-97" number="2">
                    <syllabic>end</syllabic>
                    <text>ed</text>
                </lyric>
            </note>
            <note default-x="380">
                <pitch>
                    <step>G</step>
                    <octave>4</octave>
                </pitch>
                <duration>12</duration>
                <voice>1</voice>
                <type>eighth</type>
                <stem default-y="12">up</stem>
                <beam number="1">continue</beam>
                <lyric default-y="-80" number="1">
                    <syllabic>single</syllabic>
                    <text>love</text>
                </lyric>
                <lyric default-y="-97" number="2">
                    <syllabic>single</syllabic>
                    <text>in</text>
                </lyric>
            </note>
            <note default-x="441">
                <pitch>
                    <step>E</step>
                    <octave>4</octave>
                </pitch>
                <duration>12</duration>
                <voice>1</voice>
                <type>eighth</type>
                <stem default-y="10">up</stem>
                <beam number="1">end</beam>
                <lyric default-y="-80" number="1">
                    <syllabic>single</syllabic>
                    <text>should</text>
                </lyric>
                <lyric default-y="-97" number="2">
                    <syllabic>single</syllabic>
                    <text>the</text>
                </lyric>
            </note>
        </measure>
        <measure width="263" number="6">
            <harmony font-size="15.4" default-y="9">
                <root>
                    <root-step>F</root-step>
                </root>
                <kind halign="center" text="maj7">major-seventh</kind>
            </harmony>
            <note default-x="13">
                <pitch>
                    <step>C</step>
                    <octave>4</octave>
                </pitch>
                <duration>36</duration>
                <voice>1</voice>
                <type>quarter</type>
                <dot/>
                <stem default-y="-14">up</stem>
                <lyric default-y="-80" number="1">
                    <syllabic>single</syllabic>
                    <text>be</text>
                </lyric>
                <lyric default-y="-97" number="2">
                    <syllabic>single</syllabic>
                    <text>wrong</text>
                </lyric>
            </note>
            <harmony font-size="15.4" relative-x="14" default-y="8">
                <root>
                    <root-step>B</root-step>
                    <root-alter>-1</root-alter>
                </root>
                <kind halign="center" text="7">dominant</kind>
            </harmony>
            <note default-x="98">
                <pitch>
                    <step>C</step>
                    <octave>4</octave>
                </pitch>
                <duration>12</duration>
                <voice>1</voice>
                <type>eighth</type>
                <stem default-y="-14">up</stem>
                <lyric default-y="-80" number="1">
                    <syllabic>single</syllabic>
                    <text>so</text>
                </lyric>
                <lyric default-y="-97" number="2">
                    <syllabic>begin</syllabic>
                    <text>di</text>
                </lyric>
            </note>
            <note default-x="138">
                <pitch>
                    <step>G</step>
                    <octave>4</octave>
                </pitch>
                <duration>12</duration>
                <voice>1</voice>
                <type>eighth</type>
                <stem default-y="6">up</stem>
                <lyric default-y="-80" number="1">
                    <syllabic>begin</syllabic>
                    <text>eas</text>
                </lyric>
                <lyric default-y="-97" number="2">
                    <syllabic>middle</syllabic>
                    <text>rec</text>
                </lyric>
            </note>
            <note default-x="177">
                <pitch>
                    <step>F</step>
                    <octave>4</octave>
                </pitch>
                <duration>36</duration>
                <voice>1</voice>
                <type>quarter</type>
                <dot/>
                <stem default-y="0.5">up</stem>
                <lyric default-y="-80" number="1">
                    <syllabic>end</syllabic>
                    <text>y,</text>
                </lyric>
                <lyric default-y="-97" number="2">
                    <syllabic>end</syllabic>
                    <text>tion,</text>
                </lyric>
            </note>
        </measure>
        <measure width="518" number="7">
            <print new-system="yes">
                <system-layout>
                    <system-distance>117</system-distance>
                </system-layout>
            </print>
            <harmony font-size="15.4" default-y="23">
                <root>
                    <root-step>C</root-step>
                </root>
                <kind halign="center" text="maj7">major-seventh</kind>
            </harmony>
            <note default-x="15">
                <pitch>
                    <step>C</step>
                    <octave>4</octave>
                </pitch>
                <duration>12</duration>
                <voice>1</voice>
                <type>eighth</type>
                <stem default-y="5">up</stem>
                <beam number="1">begin</beam>
                <lyric relative-x="17" default-y="-76" number="1">
                    <syllabic>single</syllabic>
                    <text>can</text>
                </lyric>
                <lyric relative-x="15" default-y="-100" number="2">
                    <syllabic>single</syllabic>
                    <text>can't</text>
                </lyric>
            </note>
            <note default-x="81">
                <pitch>
                    <step>D</step>
                    <octave>4</octave>
                </pitch>
                <duration>12</duration>
                <voice>1</voice>
                <type>eighth</type>
                <stem default-y="7">up</stem>
                <beam number="1">continue</beam>
                <lyric default-y="-80" number="1">
                    <syllabic>single</syllabic>
                    <text>there</text>
                </lyric>
                <lyric default-y="-102" number="2">
                    <syllabic>single</syllabic>
                    <text>you</text>
                </lyric>
            </note>
            <note default-x="147">
                <pitch>
                    <step>E</step>
                    <octave>4</octave>
                </pitch>
                <duration>12</duration>
                <voice>1</voice>
                <type>eighth</type>
                <stem default-y="8">up</stem>
                <beam number="1">continue</beam>
                <lyric default-y="-80" number="1">
                    <syllabic>single</syllabic>
                    <text>be</text>
                </lyric>
                <lyric default-y="-102" number="2">
                    <syllabic>single</syllabic>
                    <text>see</text>
                </lyric>
            </note>
            <note default-x="213">
                <pitch>
                    <step>A</step>
                    <octave>4</octave>
                </pitch>
                <duration>12</duration>
                <voice>1</voice>
                <type>eighth</type>
                <stem default-y="10">up</stem>
                <beam number="1">end</beam>
                <lyric default-y="-80" number="1">
                    <syllabic>single</syllabic>
                    <text>a</text>
                </lyric>
                <lyric default-y="-102" number="2">
                    <syllabic>single</syllabic>
                    <text>the</text>
                </lyric>
            </note>
            <harmony font-size="15.4" default-y="23">
                <root>
                    <root-step>A</root-step>
                </root>
                <kind halign="center" use-symbols="yes">minor-seventh</kind>
            </harmony>
            <note default-x="279">
                <pitch>
                    <step>E</step>
                    <octave>4</octave>
                </pitch>
                <duration>12</duration>
                <voice>1</voice>
                <type>eighth</type>
                <stem default-y="-4">up</stem>
                <lyric default-y="-80" number="1">
                    <syllabic>begin</syllabic>
                    <text>de</text>
                </lyric>
                <lyric default-y="-102" number="2">
                    <syllabic>begin</syllabic>
                    <text>de</text>
                </lyric>
            </note>
            <note default-x="344">
                <pitch>
                    <step>C</step>
                    <octave>4</octave>
                </pitch>
                <duration>24</duration>
                <voice>1</voice>
                <type>quarter</type>
                <stem default-y="-14">up</stem>
                <lyric default-y="-80" number="1">
                    <syllabic>end</syllabic>
                    <text>tour</text>
                </lyric>
                <lyric default-y="-102" number="2">
                    <syllabic>end</syllabic>
                    <text>tour</text>
                </lyric>
            </note>
            <note default-x="451">
                <pitch>
                    <step>E</step>
                    <octave>4</octave>
                </pitch>
                <duration>12</duration>
                <voice>1</voice>
                <type>eighth</type>
                <stem default-y="-4">up</stem>
                <lyric default-y="-80" number="1">
                    <syllabic>begin</syllabic>
                    <text>a</text>
                </lyric>
                <lyric default-y="-102" number="2">
                    <syllabic>begin</syllabic>
                    <text>a</text>
                </lyric>
            </note>
        </measure>
        <measure width="266" number="8">
            <barline location="left">
                <ending font-size="8.5" default-y="40" type="start" number="1" end-length="30"></ending>
            </barline>
            <harmony font-size="15.4" default-y="8">
                <root>
                    <root-step>A</root-step>
                    <root-alter>-1</root-alter>
                </root>
                <kind halign="center">dominant</kind>
                <degree>
                    <degree-value>5</degree-value>
                    <degree-alter>-1</degree-alter>
                    <degree-type>alter</degree-type>
                </degree>
                <offset>24</offset>
            </harmony>
            <harmony font-size="15.4" relative-x="12" default-y="9">
                <root>
                    <root-step>D</root-step>
                </root>
                <kind halign="center" use-symbols="yes">minor-seventh</kind>
                <offset>48</offset>
            </harmony>
            <note default-x="10">
                <pitch>
                    <step>D</step>
                    <octave>4</octave>
                </pitch>
                <duration>96</duration>
                <voice>1</voice>
                <type>whole</type>
                <lyric default-y="-80" number="1">
                    <syllabic>end</syllabic>
                    <text>head?</text>
                </lyric>
            </note>
            <harmony font-size="15.4" relative-x="20" default-y="9">
                <root>
                    <root-step>G</root-step>
                </root>
                <kind halign="center" text="7">dominant</kind>
                <offset>-24</offset>
            </harmony>
            <barline location="right">
                <bar-style>light-heavy</bar-style>
                <ending type="stop" number="1"></ending>
                <repeat direction="backward"/>
            </barline>
        </measure>
        <measure width="270" number="9">
            <barline location="left">
                <ending font-size="8.5" default-y="40" type="start" number="2" end-length="30"></ending>
            </barline>
            <note default-x="12">
                <pitch>
                    <step>C</step>
                    <octave>4</octave>
                </pitch>
                <duration>48</duration>
                <voice>1</voice>
                <type>half</type>
                <stem default-y="-14">up</stem>
                <lyric default-y="-102" number="2">
                    <syllabic>end</syllabic>
                    <text>head?</text>
                </lyric>
            </note>
            <harmony font-size="15.4" default-y="9">
                <root>
                    <root-step>F</root-step>
                    <root-alter>1</root-alter>
                </root>
                <kind halign="center" use-symbols="yes">minor-seventh</kind>
                <degree>
                    <degree-value>5</degree-value>
                    <degree-alter>-1</degree-alter>
                    <degree-type>alter</degree-type>
                </degree>
                <offset>-24</offset>
            </harmony>
            <harmony font-size="15.4" relative-x="16" default-y="10">
                <root>
                    <root-step>B</root-step>
                </root>
                <kind halign="center" text="7">dominant</kind>
            </harmony>
            <note default-x="120">
                <rest/>
                <duration>24</duration>
                <voice>1</voice>
                <type>quarter</type>
            </note>
            <note default-x="186">
                <rest/>
                <duration>12</duration>
                <voice>1</voice>
                <type>eighth</type>
            </note>
            <note default-x="227">
                <pitch>
                    <step>B</step>
                    <octave>4</octave>
                </pitch>
                <duration>12</duration>
                <voice>1</voice>
                <type>eighth</type>
                <stem default-y="-55.5">down</stem>
                <lyric default-y="-102" number="2">
                    <syllabic>single</syllabic>
                    <text>The</text>
                </lyric>
            </note>
            <barline location="right">
                <ending type="discontinue" number="2"></ending>
            </barline>
        </measure>
        <measure width="284" number="10">
            <print new-system="yes">
                <system-layout>
                    <system-distance>116</system-distance>
                </system-layout>
            </print>
            <harmony font-size="15.4" default-y="23">
                <root>
                    <root-step>E</root-step>
                </root>
                <kind halign="center" use-symbols="yes">minor-seventh</kind>
            </harmony>
            <note default-x="13">
                <pitch>
                    <step>B</step>
                    <octave>4</octave>
                </pitch>
                <duration>16</duration>
                <voice>1</voice>
                <type>quarter</type>
                <time-modification>
                    <actual-notes>3</actual-notes>
                    <normal-notes>2</normal-notes>
                </time-modification>
                <stem default-y="-56">down</stem>
                <notations>
                    <tuplet placement="above" type="start" number="1"/>
                </notations>
                <lyric default-y="-97" number="2">
                    <syllabic>begin</syllabic>
                    <text>far</text>
                </lyric>
            </note>
            <note default-x="58">
                <pitch>
                    <step>G</step>
                    <octave>4</octave>
                </pitch>
                <duration>16</duration>
                <voice>1</voice>
                <type>quarter</type>
                <time-modification>
                    <actual-notes>3</actual-notes>
                    <normal-notes>2</normal-notes>
                </time-modification>
                <stem default-y="6">up</stem>
                <lyric default-y="-97" number="2">
                    <syllabic>end</syllabic>
                    <text>ther</text>
                </lyric>
            </note>
            <note default-x="103">
                <pitch>
                    <step>A</step>
                    <octave>4</octave>
                </pitch>
                <duration>16</duration>
                <voice>1</voice>
                <type>quarter</type>
                <time-modification>
                    <actual-notes>3</actual-notes>
                    <normal-notes>2</normal-notes>
                </time-modification>
                <stem default-y="11">up</stem>
                <notations>
                    <tuplet type="stop" number="1"/>
                </notations>
                <lyric default-y="-97" number="2">
                    <syllabic>single</syllabic>
                    <text>you</text>
                </lyric>
            </note>
            <note default-x="148">
                <pitch>
                    <step>B</step>
                    <octave>4</octave>
                </pitch>
                <duration>12</duration>
                <voice>1</voice>
                <type>eighth</type>
                <stem default-y="-56">down</stem>
                <lyric default-y="-97" number="2">
                    <syllabic>begin</syllabic>
                    <text>trav</text>
                </lyric>
            </note>
            <note default-x="185">
                <pitch>
                    <step>C</step>
                    <octave>5</octave>
                </pitch>
                <duration>24</duration>
                <voice>1</voice>
                <type>quarter</type>
                <stem default-y="-50.5">down</stem>
                <lyric default-y="-97" number="2">
                    <syllabic>end</syllabic>
                    <text>el,</text>
                </lyric>
            </note>
            <note default-x="245">
                <pitch>
                    <step>B</step>
                    <octave>4</octave>
                </pitch>
                <duration>12</duration>
                <voice>1</voice>
                <type>eighth</type>
                <stem default-y="-56">down</stem>
                <lyric default-y="-97" number="2">
                    <syllabic>single</syllabic>
                    <text>the</text>
                </lyric>
            </note>
        </measure>
        <measure width="283" number="11">
            <harmony font-size="15.4" default-y="16">
                <root>
                    <root-step>B</root-step>
                </root>
                <kind halign="center" text="7alt">dominant</kind>
                <degree print-object="no">
                    <degree-value>5</degree-value>
                    <degree-alter>0</degree-alter>
                    <degree-type>subtract</degree-type>
                </degree>
                <degree print-object="no">
                    <degree-value>9</degree-value>
                    <degree-alter>-1</degree-alter>
                    <degree-type>add</degree-type>
                </degree>
                <degree print-object="no">
                    <degree-value>9</degree-value>
                    <degree-alter>1</degree-alter>
                    <degree-type>add</degree-type>
                </degree>
                <degree print-object="no">
                    <degree-value>11</degree-value>
                    <degree-alter>1</degree-alter>
                    <degree-type>add</degree-type>
                </degree>
                <degree print-object="no">
                    <degree-value>13</degree-value>
                    <degree-alter>-1</degree-alter>
                    <degree-type>add</degree-type>
                </degree>
            </harmony>
            <note default-x="10">
                <pitch>
                    <step>A</step>
                    <octave>4</octave>
                </pitch>
                <duration>12</duration>
                <voice>1</voice>
                <type>eighth</type>
                <stem default-y="10">up</stem>
                <beam number="1">begin</beam>
                <lyric default-y="-97" number="2">
                    <syllabic>begin</syllabic>
                    <text>hard</text>
                </lyric>
            </note>
            <note default-x="46">
                <pitch>
                    <step>G</step>
                    <octave>4</octave>
                </pitch>
                <duration>12</duration>
                <voice>1</voice>
                <type>eighth</type>
                <stem default-y="8.5">up</stem>
                <beam number="1">continue</beam>
                <lyric default-y="-97" number="2">
                    <syllabic>end</syllabic>
                    <text>er</text>
                </lyric>
            </note>
            <note default-x="81">
                <pitch>
                    <step>F</step>
                    <octave>4</octave>
                </pitch>
                <duration>12</duration>
                <voice>1</voice>
                <type>eighth</type>
                <stem default-y="7">up</stem>
                <beam number="1">continue</beam>
                <lyric default-y="-97" number="2">
                    <syllabic>single</syllabic>
                    <text>to</text>
                </lyric>
            </note>
            <note default-x="117">
                <pitch>
                    <step>G</step>
                    <octave>4</octave>
                </pitch>
                <duration>12</duration>
                <voice>1</voice>
                <type>eighth</type>
                <stem default-y="5">up</stem>
                <beam number="1">end</beam>
                <lyric default-y="-97" number="2">
                    <syllabic>begin</syllabic>
                    <text>un</text>
                </lyric>
            </note>
            <note default-x="153">
                <pitch>
                    <step>A</step>
                    <octave>4</octave>
                </pitch>
                <duration>12</duration>
                <voice>1</voice>
                <type>eighth</type>
                <stem default-y="11">up</stem>
                <lyric default-y="-97" number="2">
                    <syllabic>middle</syllabic>
                    <text>rav</text>
                </lyric>
            </note>
            <note default-x="189">
                <pitch>
                    <step>B</step>
                    <octave>4</octave>
                </pitch>
                <duration>24</duration>
                <voice>1</voice>
                <type>quarter</type>
                <stem default-y="-56">down</stem>
                <lyric default-y="-97" number="2">
                    <syllabic>end</syllabic>
                    <text>el</text>
                </lyric>
            </note>
            <note default-x="246">
                <pitch>
                    <step>A</step>
                    <octave>4</octave>
                </pitch>
                <duration>12</duration>
                <voice>1</voice>
                <type>eighth</type>
                <stem default-y="11">up</stem>
                <lyric default-y="-97" number="2">
                    <syllabic>single</syllabic>
                    <text>the</text>
                </lyric>
            </note>
        </measure>
        <measure width="251" number="12">
            <harmony font-size="15.4" default-y="15">
                <root>
                    <root-step>E</root-step>
                </root>
                <kind halign="center" text="maj7">major-seventh</kind>
            </harmony>
            <note default-x="24">
                <pitch>
                    <step>G</step>
                    <alter>1</alter>
                    <octave>4</octave>
                </pitch>
                <duration>48</duration>
                <voice>1</voice>
                <type>half</type>
                <accidental>sharp</accidental>
                <stem default-y="6">up</stem>
                <lyric default-y="-97" number="2">
                    <syllabic>single</syllabic>
                    <text>web</text>
                </lyric>
            </note>
            <note default-x="113">
                <rest/>
                <duration>12</duration>
                <voice>1</voice>
                <type>eighth</type>
            </note>
            <note default-x="147">
                <pitch>
                    <step>E</step>
                    <octave>4</octave>
                </pitch>
                <duration>12</duration>
                <voice>1</voice>
                <type>eighth</type>
                <stem default-y="0">up</stem>
                <beam number="1">begin</beam>
                <lyric default-y="-97" number="2">
                    <syllabic>single</syllabic>
                    <text>he</text>
                </lyric>
            </note>
            <note default-x="181">
                <pitch>
                    <step>F</step>
                    <alter>1</alter>
                    <octave>4</octave>
                </pitch>
                <duration>12</duration>
                <voice>1</voice>
                <type>eighth</type>
                <accidental>sharp</accidental>
                <stem default-y="3">up</stem>
                <beam number="1">continue</beam>
                <lyric default-y="-97" number="2">
                    <syllabic>single</syllabic>
                    <text>spins</text>
                </lyric>
            </note>
            <note default-x="215">
                <pitch>
                    <step>G</step>
                    <alter>1</alter>
                    <octave>4</octave>
                </pitch>
                <duration>12</duration>
                <voice>1</voice>
                <type>eighth</type>
                <stem default-y="5">up</stem>
                <beam number="1">end</beam>
                <lyric default-y="-97" number="2">
                    <syllabic>begin</syllabic>
                    <text>a</text>
                </lyric>
            </note>
        </measure>
        <measure width="235" number="13">
            <harmony font-size="15.4" default-y="13">
                <root>
                    <root-step>F</root-step>
                    <root-alter>1</root-alter>
                </root>
                <kind halign="center" use-symbols="yes">minor-seventh</kind>
                <degree>
                    <degree-value>5</degree-value>
                    <degree-alter>-1</degree-alter>
                    <degree-type>alter</degree-type>
                </degree>
            </harmony>
            <note default-x="24">
                <pitch>
                    <step>F</step>
                    <alter>1</alter>
                    <octave>4</octave>
                </pitch>
                <duration>24</duration>
                <voice>1</voice>
                <type>quarter</type>
                <accidental>sharp</accidental>
                <stem default-y="1">up</stem>
                <lyric default-y="-97" number="2">
                    <syllabic>end</syllabic>
                    <text>round</text>
                </lyric>
            </note>
            <note default-x="79">
                <pitch>
                    <step>F</step>
                    <alter>1</alter>
                    <octave>4</octave>
                </pitch>
                <duration>48</duration>
                <voice>1</voice>
                <type>half</type>
                <stem default-y="1">up</stem>
                <lyric relative-x="5" default-y="-97" number="2">
                    <syllabic>single</syllabic>
                    <text>you.</text>
                </lyric>
            </note>
            <harmony font-size="15.4" relative-x="11" default-y="15">
                <root>
                    <root-step>B</root-step>
                </root>
                <kind halign="center" text="7">dominant</kind>
                <offset>-24</offset>
            </harmony>
            <note default-x="166">
                <rest/>
                <duration>12</duration>
                <voice>1</voice>
                <type>eighth</type>
            </note>
            <note default-x="200">
                <pitch>
                    <step>B</step>
                    <octave>4</octave>
                </pitch>
                <duration>12</duration>
                <voice>1</voice>
                <type>eighth</type>
                <stem default-y="-56">down</stem>
                <lyric default-y="-97" number="2">
                    <syllabic>single</syllabic>
                    <text>Turn</text>
                </lyric>
            </note>
        </measure>
        <measure width="359" number="14">
            <print new-system="yes">
                <system-layout>
                    <system-distance>123</system-distance>
                </system-layout>
            </print>
            <harmony font-size="15.4" default-y="23">
                <root>
                    <root-step>E</root-step>
                </root>
                <kind halign="center" use-symbols="yes">minor-seventh</kind>
            </harmony>
            <note default-x="13">
                <pitch>
                    <step>B</step>
                    <octave>4</octave>
                </pitch>
                <duration>16</duration>
                <voice>1</voice>
                <type>quarter</type>
                <time-modification>
                    <actual-notes>3</actual-notes>
                    <normal-notes>2</normal-notes>
                </time-modification>
                <stem default-y="-55.5">down</stem>
                <notations>
                    <tuplet placement="above" type="start" number="1"/>
                </notations>
                <lyric default-y="-90" number="2">
                    <syllabic>single</syllabic>
                    <text>back</text>
                </lyric>
            </note>
            <note default-x="70">
                <pitch>
                    <step>G</step>
                    <octave>4</octave>
                </pitch>
                <duration>16</duration>
                <voice>1</voice>
                <type>quarter</type>
                <time-modification>
                    <actual-notes>3</actual-notes>
                    <normal-notes>2</normal-notes>
                </time-modification>
                <stem default-y="6">up</stem>
                <lyric default-y="-90" number="2">
                    <syllabic>single</syllabic>
                    <text>while</text>
                </lyric>
            </note>
            <note default-x="128">
                <pitch>
                    <step>A</step>
                    <octave>4</octave>
                </pitch>
                <duration>16</duration>
                <voice>1</voice>
                <type>quarter</type>
                <time-modification>
                    <actual-notes>3</actual-notes>
                    <normal-notes>2</normal-notes>
                </time-modification>
                <stem default-y="11">up</stem>
                <notations>
                    <tuplet type="stop" number="1"/>
                </notations>
                <lyric default-y="-90" number="2">
                    <syllabic>single</syllabic>
                    <text>there's</text>
                </lyric>
            </note>
            <note default-x="185">
                <pitch>
                    <step>B</step>
                    <octave>4</octave>
                </pitch>
                <duration>24</duration>
                <voice>1</voice>
                <type>quarter</type>
                <stem default-y="-55.5">down</stem>
                <lyric default-y="-90" number="2">
                    <syllabic>single</syllabic>
                    <text>time,</text>
                </lyric>
            </note>
            <note default-x="262">
                <pitch>
                    <step>C</step>
                    <octave>5</octave>
                </pitch>
                <duration>12</duration>
                <voice>1</voice>
                <type>eighth</type>
                <stem default-y="-50">down</stem>
                <beam number="1">begin</beam>
                <lyric default-y="-90" number="2">
                    <syllabic>single</syllabic>
                    <text>can't</text>
                </lyric>
            </note>
            <note default-x="310">
                <pitch>
                    <step>B</step>
                    <octave>4</octave>
                </pitch>
                <duration>12</duration>
                <voice>1</voice>
                <type>eighth</type>
                <stem default-y="-55">down</stem>
                <beam number="1">end</beam>
                <lyric default-y="-90" number="2">
                    <syllabic>single</syllabic>
                    <text>you</text>
                </lyric>
            </note>
        </measure>
        <measure width="290" number="15">
            <harmony font-size="15.4" default-y="18">
                <root>
                    <root-step>B</root-step>
                </root>
                <kind halign="center" text="7alt">dominant</kind>
                <degree print-object="no">
                    <degree-value>5</degree-value>
                    <degree-alter>0</degree-alter>
                    <degree-type>subtract</degree-type>
                </degree>
                <degree print-object="no">
                    <degree-value>9</degree-value>
                    <degree-alter>-1</degree-alter>
                    <degree-type>add</degree-type>
                </degree>
                <degree print-object="no">
                    <degree-value>9</degree-value>
                    <degree-alter>1</degree-alter>
                    <degree-type>add</degree-type>
                </degree>
                <degree print-object="no">
                    <degree-value>11</degree-value>
                    <degree-alter>1</degree-alter>
                    <degree-type>add</degree-type>
                </degree>
                <degree print-object="no">
                    <degree-value>13</degree-value>
                    <degree-alter>-1</degree-alter>
                    <degree-type>add</degree-type>
                </degree>
            </harmony>
            <note default-x="10">
                <pitch>
                    <step>A</step>
                    <octave>4</octave>
                </pitch>
                <duration>12</duration>
                <voice>1</voice>
                <type>eighth</type>
                <stem default-y="10">up</stem>
                <beam number="1">begin</beam>
                <lyric default-y="-90" number="2">
                    <syllabic>single</syllabic>
                    <text>see</text>
                </lyric>
            </note>
            <note default-x="50">
                <pitch>
                    <step>G</step>
                    <octave>4</octave>
                </pitch>
                <duration>12</duration>
                <voice>1</voice>
                <type>eighth</type>
                <stem default-y="8.5">up</stem>
                <beam number="1">continue</beam>
                <lyric relative-x="5" default-y="-90" number="2">
                    <syllabic>single</syllabic>
                    <text>the</text>
                </lyric>
            </note>
            <note default-x="89">
                <pitch>
                    <step>F</step>
                    <octave>4</octave>
                </pitch>
                <duration>12</duration>
                <voice>1</voice>
                <type>eighth</type>
                <accidental parentheses="yes">natural</accidental>
                <stem default-y="6.5">up</stem>
                <beam number="1">continue</beam>
                <lyric default-y="-90" number="2">
                    <syllabic>begin</syllabic>
                    <text>dan</text>
                </lyric>
            </note>
            <note default-x="127">
                <pitch>
                    <step>G</step>
                    <octave>4</octave>
                </pitch>
                <duration>12</duration>
                <voice>1</voice>
                <type>eighth</type>
                <stem default-y="5">up</stem>
                <beam number="1">end</beam>
                <lyric default-y="-90" number="2">
                    <syllabic>end</syllabic>
                    <text>ger</text>
                </lyric>
            </note>
            <note default-x="167">
                <pitch>
                    <step>A</step>
                    <octave>4</octave>
                </pitch>
                <duration>36</duration>
                <voice>1</voice>
                <type>quarter</type>
                <dot/>
                <stem default-y="11">up</stem>
                <lyric default-y="-90" number="2">
                    <syllabic>single</syllabic>
                    <text>sign;</text>
                </lyric>
            </note>
            <note default-x="250">
                <pitch>
                    <step>B</step>
                    <octave>4</octave>
                </pitch>
                <duration>12</duration>
                <voice>1</voice>
                <type>eighth</type>
                <stem default-y="-55.5">down</stem>
                <lyric default-y="-90" number="2">
                    <syllabic>single</syllabic>
                    <text>soft</text>
                </lyric>
            </note>
        </measure>
        <measure width="210" number="16">
            <harmony font-size="15.4" default-y="16">
                <root>
                    <root-step>E</root-step>
                </root>
                <kind halign="center" text="maj7">major-seventh</kind>
            </harmony>
            <note default-x="24">
                <pitch>
                    <step>G</step>
                    <alter>1</alter>
                    <octave>4</octave>
                </pitch>
                <duration>24</duration>
                <voice>1</voice>
                <type>quarter</type>
                <accidental>sharp</accidental>
                <stem default-y="6">up</stem>
                <lyric default-y="-90" number="2">
                    <syllabic>begin</syllabic>
                    <text>shoul</text>
                </lyric>
            </note>
            <note default-x="75">
                <pitch>
                    <step>G</step>
                    <alter>1</alter>
                    <octave>4</octave>
                </pitch>
                <duration>48</duration>
                <voice>1</voice>
                <type>half</type>
                <stem default-y="6">up</stem>
                <lyric default-y="-90" number="2">
                    <syllabic>end</syllabic>
                    <text>ders</text>
                </lyric>
            </note>
            <note default-x="158">
                <pitch>
                    <step>G</step>
                    <alter>1</alter>
                    <octave>4</octave>
                </pitch>
                <duration>24</duration>
                <voice>1</voice>
                <type>quarter</type>
                <stem default-y="6">up</stem>
                <lyric default-y="-90" number="2">
                    <syllabic>begin</syllabic>
                    <text>sur</text>
                </lyric>
            </note>
        </measure>
        <measure width="194" number="17">
            <harmony font-size="15.4" default-y="18">
                <root>
                    <root-step>D</root-step>
                    <root-alter>-1</root-alter>
                </root>
                <kind halign="center">dominant-ninth</kind>
                <degree>
                    <degree-value>11</degree-value>
                    <degree-alter>1</degree-alter>
                    <degree-type>add</degree-type>
                </degree>
            </harmony>
            <note default-x="31">
                <pitch>
                    <step>G</step>
                    <octave>4</octave>
                </pitch>
                <duration>24</duration>
                <voice>1</voice>
                <type>quarter</type>
                <accidental parentheses="yes">natural</accidental>
                <stem default-y="6">up</stem>
                <lyric default-y="-90" number="2">
                    <syllabic>end</syllabic>
                    <text>round</text>
                </lyric>
            </note>
            <note default-x="82">
                <pitch>
                    <step>G</step>
                    <octave>4</octave>
                </pitch>
                <duration>72</duration>
                <voice>1</voice>
                <type>half</type>
                <dot/>
                <stem default-y="6">up</stem>
                <lyric default-y="-90" number="2">
                    <syllabic>single</syllabic>
                    <text>you.</text>
                </lyric>
            </note>
        </measure>
        <measure width="218" number="18">
            <print new-system="yes">
                <system-layout>
                    <system-distance>129</system-distance>
                </system-layout>
            </print>
            <harmony font-size="15.4" default-y="23">
                <root>
                    <root-step>C</root-step>
                </root>
                <kind halign="center" text="maj7">major-seventh</kind>
            </harmony>
            <note default-x="12">
                <pitch>
                    <step>E</step>
                    <octave>4</octave>
                </pitch>
                <duration>24</duration>
                <voice>1</voice>
                <type>quarter</type>
                <stem default-y="-4">up</stem>
                <lyric relative-x="9" default-y="-90" number="2">
                    <syllabic>single</syllabic>
                    <text>Smooth</text>
                </lyric>
            </note>
            <harmony font-size="15.4" default-y="23">
                <root>
                    <root-step>F</root-step>
                    <root-alter>1</root-alter>
                </root>
                <kind halign="center">dominant</kind>
                <degree>
                    <degree-value>9</degree-value>
                    <degree-alter>-1</degree-alter>
                    <degree-type>add</degree-type>
                </degree>
                <offset>24</offset>
            </harmony>
            <note default-x="77">
                <pitch>
                    <step>G</step>
                    <octave>4</octave>
                </pitch>
                <duration>72</duration>
                <voice>1</voice>
                <type>half</type>
                <dot/>
                <stem default-y="6">up</stem>
                <lyric default-y="-90" number="2">
                    <syllabic>single</syllabic>
                    <text>road,</text>
                </lyric>
            </note>
        </measure>
        <measure width="229" number="19">
            <harmony font-size="15.4" default-y="23">
                <root>
                    <root-step>B</root-step>
                </root>
                <kind halign="center">dominant</kind>
                <degree>
                    <degree-value>5</degree-value>
                    <degree-alter>1</degree-alter>
                    <degree-type>alter</degree-type>
                </degree>
            </harmony>
            <note default-x="11">
                <pitch>
                    <step>B</step>
                    <octave>4</octave>
                </pitch>
                <duration>24</duration>
                <voice>1</voice>
                <type>quarter</type>
                <stem default-y="-55.5">down</stem>
                <lyric default-y="-90" number="2">
                    <syllabic>single</syllabic>
                    <text>clear</text>
                </lyric>
            </note>
            <note default-x="67">
                <pitch>
                    <step>G</step>
                    <octave>4</octave>
                </pitch>
                <duration>48</duration>
                <tie type="start"/>
                <voice>1</voice>
                <type>half</type>
                <stem default-y="6">up</stem>
                <notations>
                    <tied type="start"/>
                </notations>
                <lyric justify="left" default-y="-90" number="2">
                    <syllabic>single</syllabic>
                    <text>night;</text>
                    <extend/>
                </lyric>
            </note>
            <note default-x="158">
                <pitch>
                    <step>G</step>
                    <octave>4</octave>
                </pitch>
                <duration>12</duration>
                <tie type="stop"/>
                <voice>1</voice>
                <type>eighth</type>
                <stem default-y="5">up</stem>
                <beam number="1">begin</beam>
                <notations>
                    <tied type="stop"/>
                </notations>
            </note>
            <note default-x="193">
                <pitch>
                    <step>G</step>
                    <octave>4</octave>
                </pitch>
                <duration>12</duration>
                <voice>1</voice>
                <type>eighth</type>
                <stem default-y="5">up</stem>
                <beam number="1">end</beam>
                <lyric default-y="-90" number="2">
                    <syllabic>single</syllabic>
                    <text>oh,</text>
                </lyric>
            </note>
        </measure>
        <measure width="359" number="20">
            <harmony font-size="15.4" default-y="26">
                <root>
                    <root-step>F</root-step>
                </root>
                <kind halign="center" text="maj7">major-seventh</kind>
            </harmony>
            <note default-x="10">
                <pitch>
                    <step>A</step>
                    <octave>4</octave>
                </pitch>
                <duration>12</duration>
                <voice>1</voice>
                <type>eighth</type>
                <stem default-y="20">up</stem>
                <beam number="1">begin</beam>
                <lyric default-y="-90" number="2">
                    <syllabic>begin</syllabic>
                    <text>luck</text>
                </lyric>
            </note>
            <note default-x="56">
                <pitch>
                    <step>C</step>
                    <octave>5</octave>
                </pitch>
                <duration>12</duration>
                <voice>1</voice>
                <type>eighth</type>
                <stem default-y="20">up</stem>
                <beam number="1">continue</beam>
                <lyric default-y="-90" number="2">
                    <syllabic>end</syllabic>
                    <text>y</text>
                </lyric>
            </note>
            <harmony font-size="15.4" default-y="23">
                <root>
                    <root-step>E</root-step>
                </root>
                <kind halign="center" use-symbols="yes">minor-seventh</kind>
            </harmony>
            <note default-x="101">
                <pitch>
                    <step>B</step>
                    <octave>4</octave>
                </pitch>
                <duration>12</duration>
                <voice>1</voice>
                <type>eighth</type>
                <stem default-y="20">up</stem>
                <beam number="1">continue</beam>
                <lyric default-y="-90" number="2">
                    <syllabic>single</syllabic>
                    <text>me,</text>
                </lyric>
            </note>
            <note default-x="150">
                <pitch>
                    <step>G</step>
                    <octave>4</octave>
                </pitch>
                <duration>12</duration>
                <voice>1</voice>
                <type>eighth</type>
                <stem default-y="20">up</stem>
                <beam number="1">end</beam>
                <lyric default-y="-90" number="2">
                    <syllabic>single</syllabic>
                    <text>that</text>
                </lyric>
            </note>
            <harmony font-size="15.4" default-y="23">
                <root>
                    <root-step>A</root-step>
                </root>
                <kind halign="center" use-symbols="yes">minor-seventh</kind>
            </harmony>
            <note default-x="198">
                <pitch>
                    <step>A</step>
                    <octave>4</octave>
                </pitch>
                <duration>6</duration>
                <voice>1</voice>
                <type>16th</type>
                <stem default-y="10">up</stem>
                <beam number="1">begin</beam>
                <beam number="2">begin</beam>
                <lyric default-y="-90" number="2">
                    <syllabic>begin</syllabic>
                    <text>sud</text>
                </lyric>
            </note>
            <note default-x="231">
                <pitch>
                    <step>G</step>
                    <octave>4</octave>
                </pitch>
                <duration>6</duration>
                <voice>1</voice>
                <type>16th</type>
                <stem default-y="5">up</stem>
                <beam number="1">end</beam>
                <beam number="2">end</beam>
                <lyric default-y="-90" number="2">
                    <syllabic>middle</syllabic>
                    <text>den</text>
                </lyric>
            </note>
            <harmony font-size="15.4" default-y="23">
                <root>
                    <root-step>A</root-step>
                </root>
                <kind halign="center" use-symbols="yes">minor-seventh</kind>
            </harmony>
            <note default-x="262">
                <pitch>
                    <step>E</step>
                    <octave>4</octave>
                </pitch>
                <duration>36</duration>
                <voice>1</voice>
                <type>quarter</type>
                <dot/>
                <stem default-y="-4">up</stem>
                <lyric default-y="-90" number="2">
                    <syllabic>end</syllabic>
                    <text>ly</text>
                </lyric>
            </note>
        </measure>
        <measure width="247" number="21">
            <harmony font-size="15.4" default-y="23">
                <root>
                    <root-step>D</root-step>
                </root>
                <kind halign="center" text="7">dominant</kind>
            </harmony>
            <note default-x="10">
                <pitch>
                    <step>D</step>
                    <octave>4</octave>
                </pitch>
                <duration>16</duration>
                <voice>1</voice>
                <type>quarter</type>
                <time-modification>
                    <actual-notes>3</actual-notes>
                    <normal-notes>2</normal-notes>
                </time-modification>
                <stem default-y="-9">up</stem>
                <notations>
                    <tuplet placement="above" type="start" number="1"/>
                </notations>
                <lyric default-y="-90" number="2">
                    <syllabic>single</syllabic>
                    <text>I</text>
                </lyric>
            </note>
            <note default-x="56">
                <pitch>
                    <step>E</step>
                    <octave>4</octave>
                </pitch>
                <duration>16</duration>
                <voice>1</voice>
                <type>quarter</type>
                <time-modification>
                    <actual-notes>3</actual-notes>
                    <normal-notes>2</normal-notes>
                </time-modification>
                <stem default-y="-4">up</stem>
                <lyric default-y="-90" number="2">
                    <syllabic>single</syllabic>
                    <text>saw</text>
                </lyric>
            </note>
            <note default-x="102">
                <pitch>
                    <step>D</step>
                    <octave>4</octave>
                </pitch>
                <duration>16</duration>
                <voice>1</voice>
                <type>quarter</type>
                <time-modification>
                    <actual-notes>3</actual-notes>
                    <normal-notes>2</normal-notes>
                </time-modification>
                <stem default-y="-9">up</stem>
                <notations>
                    <tuplet type="stop" number="1"/>
                </notations>
                <lyric default-y="-90" number="2">
                    <syllabic>single</syllabic>
                    <text>the</text>
                </lyric>
            </note>
            <harmony font-size="15.4" default-y="23">
                <root>
                    <root-step>D</root-step>
                </root>
                <kind halign="center" use-symbols="yes">minor-seventh</kind>
            </harmony>
            <harmony font-size="15.4" default-y="23">
                <root>
                    <root-step>G</root-step>
                </root>
                <kind halign="center" text="7">dominant</kind>
                <offset>24</offset>
            </harmony>
            <note default-x="147">
                <pitch>
                    <step>E</step>
                    <octave>4</octave>
                </pitch>
                <duration>48</duration>
                <voice>1</voice>
                <type>half</type>
                <stem default-y="-4">up</stem>
                <lyric default-y="-90" number="2">
                    <syllabic>single</syllabic>
                    <text>light.</text>
                </lyric>
            </note>
        </measure>
        <measure width="371" number="22">
            <print new-system="yes">
                <system-layout>
                    <system-distance>112</system-distance>
                </system-layout>
            </print>
            <note default-x="12">
                <rest/>
                <duration>12</duration>
                <voice>1</voice>
                <type>eighth</type>
            </note>
            <harmony font-size="15.4" default-y="15">
                <root>
                    <root-step>G</root-step>
                </root>
                <kind halign="center" use-symbols="yes">minor-seventh</kind>
            </harmony>
            <note default-x="57">
                <pitch>
                    <step>G</step>
                    <octave>4</octave>
                </pitch>
                <duration>12</duration>
                <voice>1</voice>
                <type>eighth</type>
                <stem default-y="5">up</stem>
                <beam number="1">begin</beam>
                <lyric default-y="-77" number="2">
                    <syllabic>single</syllabic>
                    <text>I'm</text>
                </lyric>
            </note>
            <note default-x="102">
                <pitch>
                    <step>G</step>
                    <octave>4</octave>
                </pitch>
                <duration>12</duration>
                <voice>1</voice>
                <type>eighth</type>
                <stem default-y="7.5">up</stem>
                <beam number="1">continue</beam>
                <lyric default-y="-77" number="2">
                    <syllabic>begin</syllabic>
                    <text>turn</text>
                </lyric>
            </note>
            <note default-x="146">
                <pitch>
                    <step>A</step>
                    <octave>4</octave>
                </pitch>
                <duration>12</duration>
                <voice>1</voice>
                <type>eighth</type>
                <stem default-y="10">up</stem>
                <beam number="1">end</beam>
                <lyric default-y="-77" number="2">
                    <syllabic>end</syllabic>
                    <text>ing</text>
                </lyric>
            </note>
            <harmony font-size="15.4" default-y="15">
                <root>
                    <root-step>C</root-step>
                </root>
                <kind halign="center" text="7">dominant</kind>
            </harmony>
            <note default-x="191">
                <pitch>
                    <step>B</step>
                    <alter>-1</alter>
                    <octave>4</octave>
                </pitch>
                <duration>12</duration>
                <voice>1</voice>
                <type>eighth</type>
                <accidental>flat</accidental>
                <stem default-y="15">up</stem>
                <beam number="1">begin</beam>
                <lyric default-y="-77" number="2">
                    <syllabic>single</syllabic>
                    <text>back</text>
                </lyric>
            </note>
            <note default-x="236">
                <pitch>
                    <step>A</step>
                    <octave>4</octave>
                </pitch>
                <duration>12</duration>
                <voice>1</voice>
                <type>eighth</type>
                <stem default-y="13">up</stem>
                <beam number="1">continue</beam>
                <lyric default-y="-77" number="2">
                    <syllabic>begin</syllabic>
                    <text>a</text>
                </lyric>
            </note>
            <note default-x="280">
                <pitch>
                    <step>G</step>
                    <octave>4</octave>
                </pitch>
                <duration>12</duration>
                <voice>1</voice>
                <type>eighth</type>
                <stem default-y="12">up</stem>
                <beam number="1">continue</beam>
                <lyric default-y="-77" number="2">
                    <syllabic>end</syllabic>
                    <text>way</text>
                </lyric>
            </note>
            <note default-x="325">
                <pitch>
                    <step>E</step>
                    <octave>4</octave>
                </pitch>
                <duration>12</duration>
                <voice>1</voice>
                <type>eighth</type>
                <stem default-y="10">up</stem>
                <beam number="1">end</beam>
                <lyric default-y="-77" number="2">
                    <syllabic>single</syllabic>
                    <text>from</text>
                </lyric>
            </note>
        </measure>
        <measure width="252" number="23">
            <harmony font-size="15.4" default-y="15">
                <root>
                    <root-step>F</root-step>
                </root>
                <kind halign="center" text="maj7">major-seventh</kind>
            </harmony>
            <note default-x="14">
                <pitch>
                    <step>C</step>
                    <octave>4</octave>
                </pitch>
                <duration>36</duration>
                <voice>1</voice>
                <type>quarter</type>
                <dot/>
                <stem default-y="-14">up</stem>
                <lyric default-y="-77" number="2">
                    <syllabic>single</syllabic>
                    <text>all</text>
                </lyric>
            </note>
            <note default-x="94">
                <pitch>
                    <step>C</step>
                    <octave>4</octave>
                </pitch>
                <duration>12</duration>
                <voice>1</voice>
                <type>eighth</type>
                <stem default-y="-14">up</stem>
                <lyric default-y="-77" number="2">
                    <syllabic>single</syllabic>
                    <text>this</text>
                </lyric>
            </note>
            <harmony font-size="15.4" default-y="15">
                <root>
                    <root-step>B</root-step>
                    <root-alter>-1</root-alter>
                </root>
                <kind halign="center" text="7">dominant</kind>
            </harmony>
            <note default-x="132">
                <pitch>
                    <step>G</step>
                    <octave>4</octave>
                </pitch>
                <duration>12</duration>
                <voice>1</voice>
                <type>eighth</type>
                <stem default-y="6">up</stem>
                <lyric default-y="-77" number="2">
                    <syllabic>begin</syllabic>
                    <text>trou</text>
                </lyric>
            </note>
            <note default-x="171">
                <pitch>
                    <step>F</step>
                    <octave>4</octave>
                </pitch>
                <duration>36</duration>
                <voice>1</voice>
                <type>quarter</type>
                <dot/>
                <stem default-y="1">up</stem>
                <lyric default-y="-77" number="2">
                    <syllabic>end</syllabic>
                    <text>ble.</text>
                </lyric>
            </note>
        </measure>
        <measure width="202" number="24">
            <harmony font-size="15.4" default-y="15">
                <root>
                    <root-step>C</root-step>
                </root>
                <kind halign="center" text="maj7">major-seventh</kind>
            </harmony>
            <note default-x="10">
                <pitch>
                    <step>E</step>
                    <octave>4</octave>
                </pitch>
                <duration>24</duration>
                <voice>1</voice>
                <type>quarter</type>
                <stem default-y="-4">up</stem>
                <lyric relative-x="9" default-y="-77" number="2">
                    <syllabic>single</syllabic>
                    <text>Smooth</text>
                </lyric>
            </note>
            <harmony font-size="15.4" default-y="15">
                <root>
                    <root-step>E</root-step>
                </root>
                <kind halign="center">dominant</kind>
                <degree>
                    <degree-value>9</degree-value>
                    <degree-alter>1</degree-alter>
                    <degree-type>add</degree-type>
                </degree>
                <offset>24</offset>
            </harmony>
            <note default-x="71">
                <pitch>
                    <step>G</step>
                    <octave>4</octave>
                </pitch>
                <duration>72</duration>
                <voice>1</voice>
                <type>half</type>
                <dot/>
                <stem default-y="6">up</stem>
                <lyric default-y="-77" number="2">
                    <syllabic>single</syllabic>
                    <text>road,</text>
                </lyric>
            </note>
        </measure>
        <measure width="229" number="25">
            <harmony font-size="15.4" default-y="15">
                <root>
                    <root-step>A</root-step>
                </root>
                <kind halign="center" use-symbols="yes">minor-seventh</kind>
            </harmony>
            <note default-x="10">
                <pitch>
                    <step>A</step>
                    <octave>4</octave>
                </pitch>
                <duration>24</duration>
                <voice>1</voice>
                <type>quarter</type>
                <stem default-y="11">up</stem>
                <lyric relative-x="8" default-y="-77" number="2">
                    <syllabic>single</syllabic>
                    <text>smooth</text>
                </lyric>
            </note>
            <note default-x="66">
                <pitch>
                    <step>C</step>
                    <octave>5</octave>
                </pitch>
                <duration>48</duration>
                <voice>1</voice>
                <type>half</type>
                <stem default-y="-51">down</stem>
                <lyric relative-x="9" default-y="-77" number="2">
                    <syllabic>single</syllabic>
                    <text>road,</text>
                </lyric>
            </note>
            <harmony font-size="15.4" default-y="15">
                <root>
                    <root-step>E</root-step>
                    <root-alter>-1</root-alter>
                </root>
                <kind halign="center" text="7">dominant</kind>
                <offset>-24</offset>
            </harmony>
            <note default-x="157">
                <rest/>
                <duration>12</duration>
                <voice>1</voice>
                <type>eighth</type>
            </note>
            <note default-x="192">
                <pitch>
                    <step>A</step>
                    <octave>4</octave>
                </pitch>
                <duration>12</duration>
                <voice>1</voice>
                <type>eighth</type>
                <stem default-y="11">up</stem>
                <lyric default-y="-77" number="2">
                    <syllabic>single</syllabic>
                    <text>no</text>
                </lyric>
            </note>
        </measure>
        <measure width="598" number="26">
            <print new-system="yes">
                <system-layout>
                    <system-distance>92</system-distance>
                </system-layout>
            </print>
            <harmony font-size="15.4" default-y="11">
                <root>
                    <root-step>D</root-step>
                </root>
                <kind halign="center" text="7">dominant</kind>
            </harmony>
            <note default-x="12">
                <pitch>
                    <step>A</step>
                    <octave>4</octave>
                </pitch>
                <duration>24</duration>
                <voice>1</voice>
                <type>quarter</type>
                <stem default-y="11">up</stem>
                <lyric default-y="-97" number="2">
                    <syllabic>begin</syllabic>
                    <text>de</text>
                </lyric>
            </note>
            <note default-x="174">
                <pitch>
                    <step>C</step>
                    <octave>4</octave>
                </pitch>
                <duration>48</duration>
                <voice>1</voice>
                <type>half</type>
                <stem default-y="-14">up</stem>
                <lyric default-y="-97" number="2">
                    <syllabic>end</syllabic>
                    <text>trour</text>
                </lyric>
            </note>
            <harmony font-size="15.4" default-y="13">
                <root>
                    <root-step>G</root-step>
                </root>
                <kind halign="center" text="7sus4">suspended-fourth</kind>
                <degree print-object="no">
                    <degree-value>7</degree-value>
                    <degree-alter>0</degree-alter>
                    <degree-type>add</degree-type>
                </degree>
            </harmony>
            <note default-x="435">
                <pitch>
                    <step>C</step>
                    <octave>4</octave>
                </pitch>
                <duration>24</duration>
                <voice>1</voice>
                <type>quarter</type>
                <stem default-y="-14">up</stem>
                <lyric default-y="-97" number="2">
                    <syllabic>begin</syllabic>
                    <text>a</text>
                </lyric>
            </note>
        </measure>
        <measure width="456" number="27">
            <harmony font-size="15.4" default-y="11">
                <root>
                    <root-step>C</root-step>
                </root>
                <kind halign="center" text="6">major-sixth</kind>
            </harmony>
            <direction>
                <direction-type>
                    <words font-size="15.4" default-y="11" justify="center">(G7#5)</words>
                </direction-type>
                <offset>48</offset>
            </direction>
            <note default-x="13">
                <pitch>
                    <step>C</step>
                    <octave>4</octave>
                </pitch>
                <duration>96</duration>
                <voice>1</voice>
                <type>whole</type>
                <lyric default-y="-97" number="2">
                    <syllabic>end</syllabic>
                    <text>head</text>
                </lyric>
            </note>
            <barline location="right">
                <bar-style>light-heavy</bar-style>
            </barline>
        </measure>
    </part>
</score-partwise>
