<?xml version="1.0" encoding="UTF-8"?>
<!DOCTYPE score-partwise PUBLIC "-//Recordare//DTD MusicXML 2.0 Partwise//EN" "http://www.musicxml.org/dtds/partwise.dtd">
<score-partwise version="2.0">
    <work>
        <work-number></work-number>
        <work-title></work-title>
    </work>
    <movement-number></movement-number>
    <movement-title>Emily</movement-title>
    <identification>
        <creator type="composer">Johnny Mandel</creator>
        <creator type="poet">Johnny Mercer</creator>
        <rights>All Rights Reserved</rights>
        <encoding>
            <encoding-date>2012-04-21</encoding-date>
            <encoder>William Stokes</encoder>
            <software>Sibelius 7.0.0</software>
            <software>Direct export, not from Dolet</software>
            <encoding-description>Sibelius / MusicXML 2.0</encoding-description>
            <supports value="yes" type="yes" element="print" attribute="new-system"/>
            <supports value="yes" type="yes" element="print" attribute="new-page"/>
            <supports type="yes" element="accidental"/>
            <supports type="yes" element="beam"/>
            <supports type="yes" element="stem"/>
            <software>ProxyMusic 2.0 c</software>
        </encoding>
        <source>http://wikifonia.org/node/15764/revisions/20977/view</source>
    </identification>
    <defaults>
        <scaling>
            <millimeters>215.9</millimeters>
            <tenths>1166</tenths>
        </scaling>
        <page-layout>
            <page-height>1510</page-height>
            <page-width>1166</page-width>
            <page-margins type="both">
                <left-margin>80</left-margin>
                <right-margin>80</right-margin>
                <top-margin>80</top-margin>
                <bottom-margin>80</bottom-margin>
            </page-margins>
        </page-layout>
        <system-layout>
            <system-margins>
                <left-margin>21</left-margin>
                <right-margin>0</right-margin>
            </system-margins>
            <system-distance>92</system-distance>
        </system-layout>
        <appearance>
            <line-width type="stem">0.9375</line-width>
            <line-width type="beam">5</line-width>
            <line-width type="staff">0.9375</line-width>
            <line-width type="light barline">1.5625</line-width>
            <line-width type="heavy barline">5</line-width>
            <line-width type="leger">1.5625</line-width>
            <line-width type="ending">1.5625</line-width>
            <line-width type="wedge">1.25</line-width>
            <line-width type="enclosure">0.9375</line-width>
            <line-width type="tuplet bracket">1.25</line-width>
            <line-width type="bracket">5</line-width>
            <line-width type="dashes">1.5625</line-width>
            <line-width type="extend">0.9375</line-width>
            <line-width type="octave shift">1.5625</line-width>
            <line-width type="pedal">1.5625</line-width>
            <line-width type="slur middle">1.5625</line-width>
            <line-width type="slur tip">0.625</line-width>
            <line-width type="tie middle">1.5625</line-width>
            <line-width type="tie tip">0.625</line-width>
            <note-size type="cue">75</note-size>
            <note-size type="grace">60</note-size>
        </appearance>
        <music-font font-size="20.9764" font-family="Opus Std"/>
        <lyric-font font-size="12.127" font-family="Plantin MT Std"/>
        <lyric-language/>
    </defaults>
    <credit page="1">
        <credit-words font-size="23.2707" font-family="Plantin MT Std" default-y="1390" default-x="583" justify="center" valign="middle">Emily</credit-words>
    </credit>
    <credit page="1">
        <credit-words font-size="11.6353" font-family="Plantin MT Std" default-y="1368" default-x="1085" justify="right" valign="middle">Johnny Mandel</credit-words>
    </credit>
    <part-list>
        <score-part id="P1">
            <part-name>P1</part-name>
            <score-instrument id="P1-I1">
                <instrument-name> </instrument-name>
            </score-instrument>
        </score-part>
    </part-list>
    <part id="P1">
        <measure width="292" number="1">
            <print new-page="yes">
                <system-layout>
                    <system-margins>
                        <left-margin>22</left-margin>
                        <right-margin>0</right-margin>
                    </system-margins>
                    <top-system-distance>146</top-system-distance>
                </system-layout>
            </print>
            <attributes>
                <divisions>256</divisions>
                <key color="#000000">
                    <fifths>0</fifths>
                    <mode>major</mode>
                </key>
                <time color="#000000">
                    <beats>3</beats>
                    <beat-type>4</beat-type>
                </time>
                <staves>1</staves>
                <clef color="#000000" number="1">
                    <sign>G</sign>
                    <line>2</line>
                </clef>
                <staff-details print-object="yes" number="1"/>
            </attributes>
            <harmony default-y="25" color="#000000">
                <root>
                    <root-step>C</root-step>
                </root>
                <kind>major-sixth</kind>
                <staff>1</staff>
            </harmony>
            <note default-x="76" color="#000000">
                <pitch>
                    <step>E</step>
                    <octave>4</octave>
                </pitch>
                <duration>128</duration>
                <instrument id="P1-I1"/>
                <voice>1</voice>
                <type>eighth</type>
                <stem>up</stem>
                <staff>1</staff>
                <beam number="1">begin</beam>
            </note>
            <note default-x="126" color="#000000">
                <pitch>
                    <step>B</step>
                    <octave>4</octave>
                </pitch>
                <duration>128</duration>
                <instrument id="P1-I1"/>
                <voice>1</voice>
                <type>eighth</type>
                <stem>up</stem>
                <staff>1</staff>
                <beam number="1">end</beam>
            </note>
            <note default-x="175" color="#000000">
                <pitch>
                    <step>G</step>
                    <octave>4</octave>
                </pitch>
                <duration>512</duration>
                <instrument id="P1-I1"/>
                <voice>1</voice>
                <type>half</type>
                <stem>up</stem>
                <staff>1</staff>
            </note>
        </measure>
        <measure width="231" number="2">
            <harmony default-y="25" color="#000000">
                <root>
                    <root-step>A</root-step>
                </root>
                <kind>minor-seventh</kind>
                <staff>1</staff>
            </harmony>
            <note default-x="15" color="#000000">
                <pitch>
                    <step>E</step>
                    <octave>4</octave>
                </pitch>
                <duration>128</duration>
                <instrument id="P1-I1"/>
                <voice>1</voice>
                <type>eighth</type>
                <stem>up</stem>
                <staff>1</staff>
                <beam number="1">begin</beam>
            </note>
            <note default-x="65" color="#000000">
                <pitch>
                    <step>B</step>
                    <octave>4</octave>
                </pitch>
                <duration>128</duration>
                <instrument id="P1-I1"/>
                <voice>1</voice>
                <type>eighth</type>
                <stem>up</stem>
                <staff>1</staff>
                <beam number="1">end</beam>
            </note>
            <note default-x="115" color="#000000">
                <pitch>
                    <step>G</step>
                    <octave>4</octave>
                </pitch>
                <duration>512</duration>
                <instrument id="P1-I1"/>
                <voice>1</voice>
                <type>half</type>
                <stem>up</stem>
                <staff>1</staff>
            </note>
        </measure>
        <measure width="231" number="3">
            <harmony default-y="25" color="#000000">
                <root>
                    <root-step>D</root-step>
                </root>
                <kind>minor-seventh</kind>
                <staff>1</staff>
            </harmony>
            <note default-x="15" color="#000000">
                <pitch>
                    <step>E</step>
                    <octave>4</octave>
                </pitch>
                <duration>128</duration>
                <instrument id="P1-I1"/>
                <voice>1</voice>
                <type>eighth</type>
                <stem>up</stem>
                <staff>1</staff>
                <beam number="1">begin</beam>
            </note>
            <note default-x="64" color="#000000">
                <pitch>
                    <step>B</step>
                    <octave>4</octave>
                </pitch>
                <duration>128</duration>
                <instrument id="P1-I1"/>
                <voice>1</voice>
                <type>eighth</type>
                <stem>up</stem>
                <staff>1</staff>
                <beam number="1">end</beam>
            </note>
            <note default-x="114" color="#000000">
                <pitch>
                    <step>G</step>
                    <octave>4</octave>
                </pitch>
                <duration>512</duration>
                <tie type="start"/>
                <instrument id="P1-I1"/>
                <voice>1</voice>
                <type>half</type>
                <stem>up</stem>
                <staff>1</staff>
                <notations>
                    <tied type="start"/>
                </notations>
            </note>
        </measure>
        <measure width="226" number="4">
            <harmony default-y="25" color="#000000">
                <root>
                    <root-step>G</root-step>
                </root>
                <kind>dominant</kind>
                <staff>1</staff>
            </harmony>
            <note default-x="15" color="#000000">
                <pitch>
                    <step>G</step>
                    <octave>4</octave>
                </pitch>
                <duration>256</duration>
                <instrument id="P1-I1"/>
                <voice>1</voice>
                <type>quarter</type>
                <stem>up</stem>
                <staff>1</staff>
            </note>
            <note default-x="84" color="#000000">
                <pitch>
                    <step>E</step>
                    <octave>4</octave>
                </pitch>
                <duration>384</duration>
                <instrument id="P1-I1"/>
                <voice>1</voice>
                <type>quarter</type>
                <dot/>
                <stem>up</stem>
                <staff>1</staff>
            </note>
            <note default-x="176" color="#000000">
                <pitch>
                    <step>D</step>
                    <octave>4</octave>
                </pitch>
                <duration>128</duration>
                <instrument id="P1-I1"/>
                <voice>1</voice>
                <type>eighth</type>
                <stem>up</stem>
                <staff>1</staff>
            </note>
        </measure>
        <measure width="315" number="5">
            <print new-system="yes">
                <system-layout>
                    <system-margins>
                        <left-margin>22</left-margin>
                        <right-margin>0</right-margin>
                    </system-margins>
                    <system-distance>81</system-distance>
                </system-layout>
            </print>
            <attributes>
                <staff-details print-object="yes" number="1"/>
            </attributes>
            <harmony default-y="25" color="#000000">
                <root>
                    <root-step>C</root-step>
                </root>
                <kind>major-sixth</kind>
                <staff>1</staff>
            </harmony>
            <note default-x="57" color="#000000">
                <pitch>
                    <step>C</step>
                    <octave>4</octave>
                </pitch>
                <duration>384</duration>
                <instrument id="P1-I1"/>
                <voice>1</voice>
                <type>quarter</type>
                <dot/>
                <stem>up</stem>
                <staff>1</staff>
            </note>
            <note default-x="170" color="#000000">
                <pitch>
                    <step>D</step>
                    <octave>4</octave>
                </pitch>
                <duration>128</duration>
                <instrument id="P1-I1"/>
                <voice>1</voice>
                <type>eighth</type>
                <stem>up</stem>
                <staff>1</staff>
            </note>
            <note default-x="231" color="#000000">
                <pitch>
                    <step>E</step>
                    <octave>4</octave>
                </pitch>
                <duration>256</duration>
                <instrument id="P1-I1"/>
                <voice>1</voice>
                <type>quarter</type>
                <stem>up</stem>
                <staff>1</staff>
            </note>
        </measure>
        <measure width="241" number="6">
            <harmony default-y="25" color="#000000">
                <root>
                    <root-step>G</root-step>
                </root>
                <kind>minor-seventh</kind>
                <staff>1</staff>
            </harmony>
            <note default-x="15" color="#000000">
                <pitch>
                    <step>A</step>
                    <octave>4</octave>
                </pitch>
                <duration>512</duration>
                <instrument id="P1-I1"/>
                <voice>1</voice>
                <type>half</type>
                <stem>up</stem>
                <staff>1</staff>
            </note>
            <backup>
                <duration>256</duration>
            </backup>
            <harmony default-y="25" color="#000000">
                <root>
                    <root-step>C</root-step>
                </root>
                <kind>dominant</kind>
                <staff>1</staff>
            </harmony>
            <forward>
                <duration>256</duration>
            </forward>
            <note default-x="157" color="#000000">
                <pitch>
                    <step>G</step>
                    <octave>4</octave>
                </pitch>
                <duration>256</duration>
                <instrument id="P1-I1"/>
                <voice>1</voice>
                <type>quarter</type>
                <stem>up</stem>
                <staff>1</staff>
            </note>
        </measure>
        <measure width="184" number="7">
            <harmony default-y="25" color="#000000">
                <root>
                    <root-step>F</root-step>
                </root>
                <kind>major-seventh</kind>
                <staff>1</staff>
            </harmony>
            <note default-x="15" color="#000000">
                <pitch>
                    <step>C</step>
                    <octave>4</octave>
                </pitch>
                <duration>768</duration>
                <tie type="start"/>
                <instrument id="P1-I1"/>
                <voice>1</voice>
                <type>half</type>
                <dot/>
                <stem>up</stem>
                <staff>1</staff>
                <notations>
                    <tied type="start"/>
                </notations>
            </note>
        </measure>
        <measure width="241" number="8">
            <harmony default-y="25" color="#000000">
                <root>
                    <root-step>B</root-step>
                    <root-alter>-1</root-alter>
                </root>
                <kind>dominant-ninth</kind>
                <staff>1</staff>
            </harmony>
            <note default-x="15" color="#000000">
                <pitch>
                    <step>C</step>
                    <octave>4</octave>
                </pitch>
                <duration>512</duration>
                <instrument id="P1-I1"/>
                <voice>1</voice>
                <type>half</type>
                <stem>up</stem>
                <staff>1</staff>
            </note>
            <note default-x="157" color="#000000">
                <pitch>
                    <step>D</step>
                    <octave>4</octave>
                </pitch>
                <duration>256</duration>
                <instrument id="P1-I1"/>
                <voice>1</voice>
                <type>quarter</type>
                <stem>up</stem>
                <staff>1</staff>
            </note>
        </measure>
        <measure width="280" number="9">
            <print new-system="yes">
                <system-layout>
                    <system-margins>
                        <left-margin>22</left-margin>
                        <right-margin>0</right-margin>
                    </system-margins>
                    <system-distance>81</system-distance>
                </system-layout>
            </print>
            <attributes>
                <staff-details print-object="yes" number="1"/>
            </attributes>
            <harmony default-y="25" color="#000000">
                <root>
                    <root-step>A</root-step>
                </root>
                <kind>major-seventh</kind>
                <staff>1</staff>
            </harmony>
            <note default-x="57" color="#000000">
                <pitch>
                    <step>E</step>
                    <octave>4</octave>
                </pitch>
                <duration>128</duration>
                <instrument id="P1-I1"/>
                <voice>1</voice>
                <type>eighth</type>
                <stem>up</stem>
                <staff>1</staff>
            </note>
            <note default-x="108" color="#000000">
                <pitch>
                    <step>A</step>
                    <octave>3</octave>
                </pitch>
                <duration>128</duration>
                <instrument id="P1-I1"/>
                <voice>1</voice>
                <type>eighth</type>
                <stem>up</stem>
                <staff>1</staff>
            </note>
            <note default-x="160" color="#000000">
                <pitch>
                    <step>A</step>
                    <octave>3</octave>
                </pitch>
                <duration>512</duration>
                <instrument id="P1-I1"/>
                <voice>1</voice>
                <type>half</type>
                <stem>up</stem>
                <staff>1</staff>
            </note>
        </measure>
        <measure width="237" number="10">
            <harmony default-y="25" color="#000000">
                <root>
                    <root-step>F</root-step>
                    <root-alter>1</root-alter>
                </root>
                <kind>minor-seventh</kind>
                <staff>1</staff>
            </harmony>
            <note default-x="15" color="#000000">
                <pitch>
                    <step>E</step>
                    <octave>4</octave>
                </pitch>
                <duration>128</duration>
                <instrument id="P1-I1"/>
                <voice>1</voice>
                <type>eighth</type>
                <stem>up</stem>
                <staff>1</staff>
            </note>
            <note default-x="66" color="#000000">
                <pitch>
                    <step>A</step>
                    <octave>3</octave>
                </pitch>
                <duration>128</duration>
                <instrument id="P1-I1"/>
                <voice>1</voice>
                <type>eighth</type>
                <stem>up</stem>
                <staff>1</staff>
            </note>
            <note default-x="117" color="#000000">
                <pitch>
                    <step>A</step>
                    <octave>3</octave>
                </pitch>
                <duration>512</duration>
                <instrument id="P1-I1"/>
                <voice>1</voice>
                <type>half</type>
                <stem>up</stem>
                <staff>1</staff>
            </note>
        </measure>
        <measure width="237" number="11">
            <harmony default-y="25" color="#000000">
                <root>
                    <root-step>B</root-step>
                </root>
                <kind>minor-seventh</kind>
                <staff>1</staff>
            </harmony>
            <note default-x="15" color="#000000">
                <pitch>
                    <step>E</step>
                    <octave>4</octave>
                </pitch>
                <duration>128</duration>
                <instrument id="P1-I1"/>
                <voice>1</voice>
                <type>eighth</type>
                <stem>up</stem>
                <staff>1</staff>
                <beam number="1">begin</beam>
            </note>
            <note default-x="66" color="#000000">
                <pitch>
                    <step>A</step>
                    <octave>3</octave>
                </pitch>
                <duration>128</duration>
                <instrument id="P1-I1"/>
                <voice>1</voice>
                <type>eighth</type>
                <stem>up</stem>
                <staff>1</staff>
                <beam number="1">end</beam>
            </note>
            <note default-x="117" color="#000000">
                <pitch>
                    <step>A</step>
                    <octave>3</octave>
                </pitch>
                <duration>512</duration>
                <tie type="start"/>
                <instrument id="P1-I1"/>
                <voice>1</voice>
                <type>half</type>
                <stem>up</stem>
                <staff>1</staff>
                <notations>
                    <tied type="start"/>
                </notations>
            </note>
        </measure>
        <measure width="227" number="12">
            <harmony default-y="25" color="#000000">
                <root>
                    <root-step>E</root-step>
                </root>
                <kind text="7sus4">major</kind>
                <staff>1</staff>
            </harmony>
            <note default-x="15" color="#000000">
                <pitch>
                    <step>A</step>
                    <octave>3</octave>
                </pitch>
                <duration>256</duration>
                <instrument id="P1-I1"/>
                <voice>1</voice>
                <type>quarter</type>
                <stem>up</stem>
                <staff>1</staff>
            </note>
            <note default-x="85" color="#000000">
                <pitch>
                    <step>A</step>
                    <octave>3</octave>
                </pitch>
                <duration>256</duration>
                <instrument id="P1-I1"/>
                <voice>1</voice>
                <type>quarter</type>
                <stem>up</stem>
                <staff>1</staff>
            </note>
            <note default-x="156" color="#000000">
                <pitch>
                    <step>B</step>
                    <octave>3</octave>
                </pitch>
                <duration>256</duration>
                <instrument id="P1-I1"/>
                <voice>1</voice>
                <type>quarter</type>
                <stem>up</stem>
                <staff>1</staff>
            </note>
        </measure>
        <measure width="320" number="13">
            <print new-system="yes">
                <system-layout>
                    <system-margins>
                        <left-margin>22</left-margin>
                        <right-margin>0</right-margin>
                    </system-margins>
                    <system-distance>81</system-distance>
                </system-layout>
            </print>
            <attributes>
                <staff-details print-object="yes" number="1"/>
            </attributes>
            <harmony default-y="25" color="#000000">
                <root>
                    <root-step>A</root-step>
                </root>
                <kind>minor-seventh</kind>
                <staff>1</staff>
            </harmony>
            <note default-x="57" color="#000000">
                <pitch>
                    <step>C</step>
                    <octave>4</octave>
                </pitch>
                <duration>256</duration>
                <instrument id="P1-I1"/>
                <voice>1</voice>
                <type>quarter</type>
                <stem>up</stem>
                <staff>1</staff>
            </note>
            <note default-x="145" color="#000000">
                <pitch>
                    <step>D</step>
                    <octave>4</octave>
                </pitch>
                <duration>256</duration>
                <instrument id="P1-I1"/>
                <voice>1</voice>
                <type>quarter</type>
                <stem>up</stem>
                <staff>1</staff>
            </note>
            <note default-x="232" color="#000000">
                <pitch>
                    <step>E</step>
                    <octave>4</octave>
                </pitch>
                <duration>256</duration>
                <instrument id="P1-I1"/>
                <voice>1</voice>
                <type>quarter</type>
                <stem>up</stem>
                <staff>1</staff>
            </note>
        </measure>
        <measure width="278" number="14">
            <harmony default-y="25" color="#000000">
                <root>
                    <root-step>D</root-step>
                </root>
                <kind>dominant</kind>
                <staff>1</staff>
            </harmony>
            <note default-x="15" color="#000000">
                <pitch>
                    <step>D</step>
                    <octave>5</octave>
                </pitch>
                <duration>256</duration>
                <instrument id="P1-I1"/>
                <voice>1</voice>
                <type>quarter</type>
                <stem>down</stem>
                <staff>1</staff>
            </note>
            <note default-x="102" color="#000000">
                <pitch>
                    <step>C</step>
                    <octave>5</octave>
                </pitch>
                <duration>256</duration>
                <instrument id="P1-I1"/>
                <voice>1</voice>
                <type>quarter</type>
                <stem>down</stem>
                <staff>1</staff>
            </note>
            <note default-x="190" color="#000000">
                <pitch>
                    <step>A</step>
                    <octave>4</octave>
                </pitch>
                <duration>256</duration>
                <instrument id="P1-I1"/>
                <voice>1</voice>
                <type>quarter</type>
                <stem>up</stem>
                <staff>1</staff>
            </note>
        </measure>
        <measure width="191" number="15">
            <harmony default-y="25" color="#000000">
                <root>
                    <root-step>D</root-step>
                </root>
                <kind>minor-seventh</kind>
                <staff>1</staff>
            </harmony>
            <note default-x="15" color="#000000">
                <pitch>
                    <step>D</step>
                    <octave>4</octave>
                </pitch>
                <duration>768</duration>
                <instrument id="P1-I1"/>
                <voice>1</voice>
                <type>half</type>
                <dot/>
                <stem>up</stem>
                <staff>1</staff>
            </note>
        </measure>
        <measure width="192" number="16">
            <harmony default-y="25" color="#000000">
                <root>
                    <root-step>G</root-step>
                </root>
                <kind>augmented</kind>
                <staff>1</staff>
            </harmony>
            <note default-x="15" color="#000000">
                <pitch>
                    <step>D</step>
                    <alter>1</alter>
                    <octave>4</octave>
                </pitch>
                <duration>768</duration>
                <instrument id="P1-I1"/>
                <voice>1</voice>
                <type>half</type>
                <dot/>
                <accidental>sharp</accidental>
                <stem>up</stem>
                <staff>1</staff>
            </note>
        </measure>
        <measure width="279" number="17">
            <print new-system="yes">
                <system-layout>
                    <system-margins>
                        <left-margin>22</left-margin>
                        <right-margin>0</right-margin>
                    </system-margins>
                    <system-distance>81</system-distance>
                </system-layout>
            </print>
            <attributes>
                <staff-details print-object="yes" number="1"/>
            </attributes>
            <harmony default-y="25" color="#000000">
                <root>
                    <root-step>C</root-step>
                </root>
                <kind>major-sixth</kind>
                <staff>1</staff>
            </harmony>
            <note default-x="57" color="#000000">
                <pitch>
                    <step>E</step>
                    <octave>4</octave>
                </pitch>
                <duration>128</duration>
                <instrument id="P1-I1"/>
                <voice>1</voice>
                <type>eighth</type>
                <stem>up</stem>
                <staff>1</staff>
            </note>
            <note default-x="108" color="#000000">
                <pitch>
                    <step>B</step>
                    <octave>4</octave>
                </pitch>
                <duration>128</duration>
                <instrument id="P1-I1"/>
                <voice>1</voice>
                <type>eighth</type>
                <stem>down</stem>
                <staff>1</staff>
            </note>
            <note default-x="159" color="#000000">
                <pitch>
                    <step>G</step>
                    <octave>4</octave>
                </pitch>
                <duration>512</duration>
                <instrument id="P1-I1"/>
                <voice>1</voice>
                <type>half</type>
                <stem>up</stem>
                <staff>1</staff>
            </note>
        </measure>
        <measure width="236" number="18">
            <harmony default-y="25" color="#000000">
                <root>
                    <root-step>A</root-step>
                </root>
                <kind>minor-seventh</kind>
                <staff>1</staff>
            </harmony>
            <note default-x="15" color="#000000">
                <pitch>
                    <step>E</step>
                    <octave>4</octave>
                </pitch>
                <duration>128</duration>
                <instrument id="P1-I1"/>
                <voice>1</voice>
                <type>eighth</type>
                <stem>up</stem>
                <staff>1</staff>
            </note>
            <note default-x="65" color="#000000">
                <pitch>
                    <step>B</step>
                    <octave>4</octave>
                </pitch>
                <duration>128</duration>
                <instrument id="P1-I1"/>
                <voice>1</voice>
                <type>eighth</type>
                <stem>down</stem>
                <staff>1</staff>
                <beam number="1">begin</beam>
            </note>
            <note default-x="116" color="#000000">
                <pitch>
                    <step>G</step>
                    <octave>4</octave>
                </pitch>
                <duration>512</duration>
                <instrument id="P1-I1"/>
                <voice>1</voice>
                <type>half</type>
                <stem>up</stem>
                <staff>1</staff>
            </note>
        </measure>
        <measure width="236" number="19">
            <harmony default-y="25" color="#000000">
                <root>
                    <root-step>D</root-step>
                </root>
                <kind>minor-seventh</kind>
                <staff>1</staff>
            </harmony>
            <note default-x="15" color="#000000">
                <pitch>
                    <step>E</step>
                    <octave>4</octave>
                </pitch>
                <duration>128</duration>
                <instrument id="P1-I1"/>
                <voice>1</voice>
                <type>eighth</type>
                <stem>up</stem>
                <staff>1</staff>
                <beam number="1">begin</beam>
            </note>
            <note default-x="65" color="#000000">
                <pitch>
                    <step>B</step>
                    <octave>4</octave>
                </pitch>
                <duration>128</duration>
                <instrument id="P1-I1"/>
                <voice>1</voice>
                <type>eighth</type>
                <stem>up</stem>
                <staff>1</staff>
                <beam number="1">end</beam>
            </note>
            <note default-x="116" color="#000000">
                <pitch>
                    <step>G</step>
                    <octave>4</octave>
                </pitch>
                <duration>512</duration>
                <tie type="start"/>
                <instrument id="P1-I1"/>
                <voice>1</voice>
                <type>half</type>
                <stem>up</stem>
                <staff>1</staff>
                <notations>
                    <tied type="start"/>
                </notations>
            </note>
        </measure>
        <measure width="231" number="20">
            <harmony default-y="25" color="#000000">
                <root>
                    <root-step>G</root-step>
                </root>
                <kind>dominant</kind>
                <staff>1</staff>
            </harmony>
            <note default-x="15" color="#000000">
                <pitch>
                    <step>G</step>
                    <octave>4</octave>
                </pitch>
                <duration>256</duration>
                <instrument id="P1-I1"/>
                <voice>1</voice>
                <type>quarter</type>
                <stem>up</stem>
                <staff>1</staff>
            </note>
            <note default-x="85" color="#000000">
                <pitch>
                    <step>E</step>
                    <octave>4</octave>
                </pitch>
                <duration>384</duration>
                <instrument id="P1-I1"/>
                <voice>1</voice>
                <type>quarter</type>
                <dot/>
                <stem>up</stem>
                <staff>1</staff>
            </note>
            <note default-x="180" color="#000000">
                <pitch>
                    <step>D</step>
                    <octave>4</octave>
                </pitch>
                <duration>128</duration>
                <instrument id="P1-I1"/>
                <voice>1</voice>
                <type>eighth</type>
                <stem>up</stem>
                <staff>1</staff>
            </note>
        </measure>
        <measure width="323" number="21">
            <print new-system="yes">
                <system-layout>
                    <system-margins>
                        <left-margin>22</left-margin>
                        <right-margin>0</right-margin>
                    </system-margins>
                    <system-distance>81</system-distance>
                </system-layout>
            </print>
            <attributes>
                <staff-details print-object="yes" number="1"/>
            </attributes>
            <harmony default-y="25" color="#000000">
                <root>
                    <root-step>C</root-step>
                </root>
                <kind>major-seventh</kind>
                <staff>1</staff>
            </harmony>
            <note default-x="57" color="#000000">
                <pitch>
                    <step>C</step>
                    <octave>4</octave>
                </pitch>
                <duration>384</duration>
                <instrument id="P1-I1"/>
                <voice>1</voice>
                <type>quarter</type>
                <dot/>
                <stem>up</stem>
                <staff>1</staff>
            </note>
            <note default-x="174" color="#000000">
                <pitch>
                    <step>D</step>
                    <octave>4</octave>
                </pitch>
                <duration>128</duration>
                <instrument id="P1-I1"/>
                <voice>1</voice>
                <type>eighth</type>
                <stem>up</stem>
                <staff>1</staff>
            </note>
            <note default-x="236" color="#000000">
                <pitch>
                    <step>E</step>
                    <octave>4</octave>
                </pitch>
                <duration>256</duration>
                <instrument id="P1-I1"/>
                <voice>1</voice>
                <type>quarter</type>
                <stem>up</stem>
                <staff>1</staff>
            </note>
        </measure>
        <measure width="280" number="22">
            <harmony default-y="25" color="#000000">
                <root>
                    <root-step>C</root-step>
                </root>
                <kind>augmented</kind>
                <staff>1</staff>
            </harmony>
            <note default-x="15" color="#000000">
                <pitch>
                    <step>E</step>
                    <octave>5</octave>
                </pitch>
                <duration>384</duration>
                <instrument id="P1-I1"/>
                <voice>1</voice>
                <type>quarter</type>
                <dot/>
                <stem>down</stem>
                <staff>1</staff>
            </note>
            <note default-x="131" color="#000000">
                <pitch>
                    <step>D</step>
                    <octave>5</octave>
                </pitch>
                <duration>128</duration>
                <instrument id="P1-I1"/>
                <voice>1</voice>
                <type>eighth</type>
                <stem>down</stem>
                <staff>1</staff>
            </note>
            <note default-x="194" color="#000000">
                <pitch>
                    <step>C</step>
                    <octave>5</octave>
                </pitch>
                <duration>256</duration>
                <instrument id="P1-I1"/>
                <voice>1</voice>
                <type>quarter</type>
                <stem>down</stem>
                <staff>1</staff>
            </note>
        </measure>
        <measure width="189" number="23">
            <harmony default-y="25" color="#000000">
                <root>
                    <root-step>F</root-step>
                </root>
                <kind>major-seventh</kind>
                <staff>1</staff>
            </harmony>
            <note default-x="15" color="#000000">
                <pitch>
                    <step>A</step>
                    <octave>4</octave>
                </pitch>
                <duration>768</duration>
                <instrument id="P1-I1"/>
                <voice>1</voice>
                <type>half</type>
                <dot/>
                <stem>up</stem>
                <staff>1</staff>
            </note>
        </measure>
        <measure width="189" number="24">
            <harmony default-y="25" color="#000000">
                <root>
                    <root-step>E</root-step>
                </root>
                <kind>dominant</kind>
                <degree>
                    <degree-value>9</degree-value>
                    <degree-alter>-1</degree-alter>
                    <degree-type>add</degree-type>
                </degree>
                <staff>1</staff>
            </harmony>
            <note default-x="15" color="#000000">
                <pitch>
                    <step>B</step>
                    <octave>4</octave>
                </pitch>
                <duration>768</duration>
                <instrument id="P1-I1"/>
                <voice>1</voice>
                <type>half</type>
                <dot/>
                <stem>down</stem>
                <staff>1</staff>
            </note>
        </measure>
        <measure width="280" number="25">
            <print new-system="yes">
                <system-layout>
                    <system-margins>
                        <left-margin>22</left-margin>
                        <right-margin>0</right-margin>
                    </system-margins>
                    <system-distance>81</system-distance>
                </system-layout>
            </print>
            <attributes>
                <staff-details print-object="yes" number="1"/>
            </attributes>
            <harmony default-y="25" color="#000000">
                <root>
                    <root-step>A</root-step>
                </root>
                <kind>minor-seventh</kind>
                <staff>1</staff>
            </harmony>
            <note default-x="57" color="#000000">
                <pitch>
                    <step>C</step>
                    <octave>5</octave>
                </pitch>
                <duration>256</duration>
                <instrument id="P1-I1"/>
                <voice>1</voice>
                <type>quarter</type>
                <stem>down</stem>
                <staff>1</staff>
            </note>
            <note default-x="131" color="#000000">
                <pitch>
                    <step>B</step>
                    <octave>4</octave>
                </pitch>
                <duration>256</duration>
                <instrument id="P1-I1"/>
                <voice>1</voice>
                <type>quarter</type>
                <stem>down</stem>
                <staff>1</staff>
            </note>
            <note default-x="206" color="#000000">
                <pitch>
                    <step>A</step>
                    <octave>4</octave>
                </pitch>
                <duration>256</duration>
                <instrument id="P1-I1"/>
                <voice>1</voice>
                <type>quarter</type>
                <stem>up</stem>
                <staff>1</staff>
            </note>
        </measure>
        <measure width="215" number="26">
            <harmony default-y="25" color="#000000">
                <root>
                    <root-step>B</root-step>
                </root>
                <kind>dominant</kind>
                <degree>
                    <degree-value>9</degree-value>
                    <degree-alter>-1</degree-alter>
                    <degree-type>add</degree-type>
                </degree>
                <staff>1</staff>
            </harmony>
            <note default-x="15" color="#000000">
                <pitch>
                    <step>G</step>
                    <octave>4</octave>
                </pitch>
                <duration>512</duration>
                <instrument id="P1-I1"/>
                <voice>1</voice>
                <type>half</type>
                <stem>up</stem>
                <staff>1</staff>
            </note>
            <note default-x="141" color="#000000">
                <pitch>
                    <step>F</step>
                    <alter>1</alter>
                    <octave>4</octave>
                </pitch>
                <duration>256</duration>
                <instrument id="P1-I1"/>
                <voice>1</voice>
                <type>quarter</type>
                <accidental>sharp</accidental>
                <stem>up</stem>
                <staff>1</staff>
            </note>
        </measure>
        <measure width="248" number="27">
            <harmony default-y="25" color="#000000">
                <root>
                    <root-step>E</root-step>
                </root>
                <kind>minor-seventh</kind>
                <staff>1</staff>
            </harmony>
            <note default-x="15" color="#000000">
                <pitch>
                    <step>G</step>
                    <octave>4</octave>
                </pitch>
                <duration>128</duration>
                <instrument id="P1-I1"/>
                <voice>1</voice>
                <type>eighth</type>
                <stem>up</stem>
                <staff>1</staff>
                <beam number="1">begin</beam>
            </note>
            <note default-x="68" color="#000000">
                <pitch>
                    <step>A</step>
                    <octave>4</octave>
                </pitch>
                <duration>128</duration>
                <instrument id="P1-I1"/>
                <voice>1</voice>
                <type>eighth</type>
                <stem>up</stem>
                <staff>1</staff>
                <beam number="1">end</beam>
            </note>
            <note default-x="122" color="#000000">
                <pitch>
                    <step>B</step>
                    <octave>4</octave>
                </pitch>
                <duration>512</duration>
                <tie type="start"/>
                <instrument id="P1-I1"/>
                <voice>1</voice>
                <type>half</type>
                <stem>down</stem>
                <staff>1</staff>
                <notations>
                    <tied type="start"/>
                </notations>
            </note>
        </measure>
        <measure width="238" number="28">
            <harmony default-y="25" color="#000000">
                <root>
                    <root-step>A</root-step>
                </root>
                <kind>dominant</kind>
                <staff>1</staff>
            </harmony>
            <note default-x="15" color="#000000">
                <pitch>
                    <step>B</step>
                    <octave>4</octave>
                </pitch>
                <duration>256</duration>
                <instrument id="P1-I1"/>
                <voice>1</voice>
                <type>quarter</type>
                <stem>down</stem>
                <staff>1</staff>
            </note>
            <note default-x="89" color="#000000">
                <pitch>
                    <step>A</step>
                    <octave>4</octave>
                </pitch>
                <duration>256</duration>
                <instrument id="P1-I1"/>
                <voice>1</voice>
                <type>quarter</type>
                <stem>up</stem>
                <staff>1</staff>
            </note>
            <note default-x="163" color="#000000">
                <pitch>
                    <step>G</step>
                    <octave>4</octave>
                </pitch>
                <duration>256</duration>
                <instrument id="P1-I1"/>
                <voice>1</voice>
                <type>quarter</type>
                <stem>up</stem>
                <staff>1</staff>
            </note>
        </measure>
        <measure width="256" number="29">
            <print new-system="yes">
                <system-layout>
                    <system-margins>
                        <left-margin>22</left-margin>
                        <right-margin>0</right-margin>
                    </system-margins>
                    <system-distance>81</system-distance>
                </system-layout>
            </print>
            <attributes>
                <staff-details print-object="yes" number="1"/>
            </attributes>
            <harmony default-y="25" color="#000000">
                <root>
                    <root-step>D</root-step>
                </root>
                <kind>minor-seventh</kind>
                <staff>1</staff>
            </harmony>
            <note default-x="57" color="#000000">
                <pitch>
                    <step>G</step>
                    <octave>4</octave>
                </pitch>
                <duration>256</duration>
                <instrument id="P1-I1"/>
                <voice>1</voice>
                <type>quarter</type>
                <stem>up</stem>
                <staff>1</staff>
            </note>
            <note default-x="131" color="#000000">
                <pitch>
                    <step>A</step>
                    <octave>4</octave>
                </pitch>
                <duration>512</duration>
                <instrument id="P1-I1"/>
                <voice>1</voice>
                <type>half</type>
                <stem>up</stem>
                <staff>1</staff>
            </note>
        </measure>
        <measure width="242" number="30">
            <harmony default-y="25" color="#000000">
                <root>
                    <root-step>G</root-step>
                </root>
                <kind>dominant</kind>
                <staff>1</staff>
            </harmony>
            <note default-x="15" color="#000000">
                <pitch>
                    <step>A</step>
                    <octave>4</octave>
                </pitch>
                <duration>256</duration>
                <instrument id="P1-I1"/>
                <voice>1</voice>
                <type>quarter</type>
                <stem>up</stem>
                <staff>1</staff>
            </note>
            <note default-x="89" color="#000000">
                <pitch>
                    <step>G</step>
                    <octave>4</octave>
                </pitch>
                <duration>384</duration>
                <instrument id="P1-I1"/>
                <voice>1</voice>
                <type>quarter</type>
                <dot/>
                <stem>up</stem>
                <staff>1</staff>
            </note>
            <note default-x="188" color="#000000">
                <pitch>
                    <step>F</step>
                    <octave>4</octave>
                </pitch>
                <duration>128</duration>
                <instrument id="P1-I1"/>
                <voice>1</voice>
                <type>eighth</type>
                <stem>up</stem>
                <staff>1</staff>
            </note>
        </measure>
        <measure width="247" number="31">
            <harmony default-y="25" color="#000000">
                <root>
                    <root-step>B</root-step>
                    <root-alter>-1</root-alter>
                </root>
                <kind>dominant</kind>
                <staff>1</staff>
            </harmony>
            <note default-x="15" color="#000000">
                <pitch>
                    <step>E</step>
                    <octave>4</octave>
                </pitch>
                <duration>128</duration>
                <instrument id="P1-I1"/>
                <voice>1</voice>
                <type>eighth</type>
                <stem>up</stem>
                <staff>1</staff>
                <beam number="1">begin</beam>
            </note>
            <note default-x="68" color="#000000">
                <pitch>
                    <step>F</step>
                    <octave>4</octave>
                </pitch>
                <duration>128</duration>
                <instrument id="P1-I1"/>
                <voice>1</voice>
                <type>eighth</type>
                <stem>up</stem>
                <staff>1</staff>
                <beam number="1">end</beam>
            </note>
            <note default-x="121" color="#000000">
                <pitch>
                    <step>G</step>
                    <octave>4</octave>
                </pitch>
                <duration>512</duration>
                <instrument id="P1-I1"/>
                <voice>1</voice>
                <type>half</type>
                <stem>up</stem>
                <staff>1</staff>
            </note>
        </measure>
        <measure width="236" number="32">
            <harmony default-y="25" color="#000000">
                <root>
                    <root-step>A</root-step>
                </root>
                <kind>dominant</kind>
                <staff>1</staff>
            </harmony>
            <note default-x="15" color="#000000">
                <pitch>
                    <step>G</step>
                    <octave>4</octave>
                </pitch>
                <duration>256</duration>
                <instrument id="P1-I1"/>
                <voice>1</voice>
                <type>quarter</type>
                <stem>up</stem>
                <staff>1</staff>
            </note>
            <note default-x="89" color="#000000">
                <pitch>
                    <step>A</step>
                    <octave>4</octave>
                </pitch>
                <duration>256</duration>
                <instrument id="P1-I1"/>
                <voice>1</voice>
                <type>quarter</type>
                <stem>up</stem>
                <staff>1</staff>
            </note>
            <note default-x="162" color="#000000">
                <pitch>
                    <step>B</step>
                    <octave>4</octave>
                </pitch>
                <duration>256</duration>
                <instrument id="P1-I1"/>
                <voice>1</voice>
                <type>quarter</type>
                <stem>down</stem>
                <staff>1</staff>
            </note>
        </measure>
        <measure width="280" number="33">
            <print new-system="yes">
                <system-layout>
                    <system-margins>
                        <left-margin>22</left-margin>
                        <right-margin>0</right-margin>
                    </system-margins>
                    <system-distance>81</system-distance>
                </system-layout>
            </print>
            <attributes>
                <staff-details print-object="yes" number="1"/>
            </attributes>
            <harmony default-y="25" color="#000000">
                <root>
                    <root-step>F</root-step>
                    <root-alter>1</root-alter>
                </root>
                <kind>minor-seventh</kind>
                <degree>
                    <degree-value>5</degree-value>
                    <degree-alter>-1</degree-alter>
                    <degree-type>add</degree-type>
                </degree>
                <staff>1</staff>
            </harmony>
            <note default-x="57" color="#000000">
                <pitch>
                    <step>C</step>
                    <octave>5</octave>
                </pitch>
                <duration>256</duration>
                <instrument id="P1-I1"/>
                <voice>1</voice>
                <type>quarter</type>
                <stem>down</stem>
                <staff>1</staff>
            </note>
            <note default-x="131" color="#000000">
                <pitch>
                    <step>B</step>
                    <octave>4</octave>
                </pitch>
                <duration>256</duration>
                <instrument id="P1-I1"/>
                <voice>1</voice>
                <type>quarter</type>
                <stem>down</stem>
                <staff>1</staff>
            </note>
            <note default-x="206" color="#000000">
                <pitch>
                    <step>A</step>
                    <octave>4</octave>
                </pitch>
                <duration>256</duration>
                <instrument id="P1-I1"/>
                <voice>1</voice>
                <type>quarter</type>
                <stem>up</stem>
                <staff>1</staff>
            </note>
        </measure>
        <measure width="215" number="34">
            <harmony default-y="25" color="#000000">
                <root>
                    <root-step>F</root-step>
                </root>
                <kind>minor-seventh</kind>
                <staff>1</staff>
            </harmony>
            <note default-x="15" color="#000000">
                <pitch>
                    <step>G</step>
                    <octave>4</octave>
                </pitch>
                <duration>512</duration>
                <instrument id="P1-I1"/>
                <voice>1</voice>
                <type>half</type>
                <stem>up</stem>
                <staff>1</staff>
            </note>
            <note default-x="141" color="#000000">
                <pitch>
                    <step>F</step>
                    <octave>4</octave>
                </pitch>
                <duration>256</duration>
                <instrument id="P1-I1"/>
                <voice>1</voice>
                <type>quarter</type>
                <stem>up</stem>
                <staff>1</staff>
            </note>
        </measure>
        <measure width="248" number="35">
            <harmony default-y="25" color="#000000">
                <root>
                    <root-step>E</root-step>
                </root>
                <kind>minor-seventh</kind>
                <staff>1</staff>
            </harmony>
            <note default-x="15" color="#000000">
                <pitch>
                    <step>E</step>
                    <octave>4</octave>
                </pitch>
                <duration>128</duration>
                <instrument id="P1-I1"/>
                <voice>1</voice>
                <type>eighth</type>
                <stem>up</stem>
                <staff>1</staff>
                <beam number="1">begin</beam>
            </note>
            <note default-x="68" color="#000000">
                <pitch>
                    <step>B</step>
                    <octave>4</octave>
                </pitch>
                <duration>128</duration>
                <instrument id="P1-I1"/>
                <voice>1</voice>
                <type>eighth</type>
                <stem>up</stem>
                <staff>1</staff>
                <beam number="1">end</beam>
            </note>
            <note default-x="122" color="#000000">
                <pitch>
                    <step>G</step>
                    <octave>4</octave>
                </pitch>
                <duration>512</duration>
                <instrument id="P1-I1"/>
                <voice>1</voice>
                <type>half</type>
                <stem>up</stem>
                <staff>1</staff>
            </note>
        </measure>
        <measure width="238" number="36">
            <harmony default-y="25" color="#000000">
                <root>
                    <root-step>A</root-step>
                </root>
                <kind>dominant</kind>
                <staff>1</staff>
            </harmony>
            <note default-x="15" color="#000000">
                <pitch>
                    <step>G</step>
                    <octave>4</octave>
                </pitch>
                <duration>256</duration>
                <instrument id="P1-I1"/>
                <voice>1</voice>
                <type>quarter</type>
                <stem>up</stem>
                <staff>1</staff>
            </note>
            <note default-x="89" color="#000000">
                <pitch>
                    <step>G</step>
                    <octave>4</octave>
                </pitch>
                <duration>256</duration>
                <instrument id="P1-I1"/>
                <voice>1</voice>
                <type>quarter</type>
                <stem>up</stem>
                <staff>1</staff>
            </note>
            <note default-x="163" color="#000000">
                <pitch>
                    <step>F</step>
                    <octave>4</octave>
                </pitch>
                <duration>256</duration>
                <instrument id="P1-I1"/>
                <voice>1</voice>
                <type>quarter</type>
                <stem>up</stem>
                <staff>1</staff>
            </note>
        </measure>
        <measure width="304" number="37">
            <print new-system="yes">
                <system-layout>
                    <system-margins>
                        <left-margin>22</left-margin>
                        <right-margin>0</right-margin>
                    </system-margins>
                    <system-distance>81</system-distance>
                </system-layout>
            </print>
            <attributes>
                <staff-details print-object="yes" number="1"/>
            </attributes>
            <harmony default-y="25" color="#000000">
                <root>
                    <root-step>D</root-step>
                </root>
                <kind>minor-seventh</kind>
                <staff>1</staff>
            </harmony>
            <note default-x="57" color="#000000">
                <pitch>
                    <step>E</step>
                    <octave>4</octave>
                </pitch>
                <duration>128</duration>
                <instrument id="P1-I1"/>
                <voice>1</voice>
                <type>eighth</type>
                <stem>up</stem>
                <staff>1</staff>
                <beam number="1">begin</beam>
            </note>
            <note default-x="114" color="#000000">
                <pitch>
                    <step>B</step>
                    <octave>4</octave>
                </pitch>
                <duration>128</duration>
                <instrument id="P1-I1"/>
                <voice>1</voice>
                <type>eighth</type>
                <stem>up</stem>
                <staff>1</staff>
                <beam number="1">end</beam>
            </note>
            <note default-x="171" color="#000000">
                <pitch>
                    <step>G</step>
                    <octave>4</octave>
                </pitch>
                <duration>512</duration>
                <instrument id="P1-I1"/>
                <voice>1</voice>
                <type>half</type>
                <stem>up</stem>
                <staff>1</staff>
            </note>
        </measure>
        <measure width="262" number="38">
            <harmony default-y="25" color="#000000">
                <root>
                    <root-step>G</root-step>
                </root>
                <kind>dominant</kind>
                <staff>1</staff>
            </harmony>
            <note default-x="15" color="#000000">
                <pitch>
                    <step>E</step>
                    <octave>4</octave>
                </pitch>
                <duration>128</duration>
                <instrument id="P1-I1"/>
                <voice>1</voice>
                <type>eighth</type>
                <stem>up</stem>
                <staff>1</staff>
            </note>
            <note default-x="71" color="#000000">
                <pitch>
                    <step>B</step>
                    <octave>4</octave>
                </pitch>
                <duration>128</duration>
                <instrument id="P1-I1"/>
                <voice>1</voice>
                <type>eighth</type>
                <stem>down</stem>
                <staff>1</staff>
                <beam number="1">begin</beam>
            </note>
            <note default-x="128" color="#000000">
                <pitch>
                    <step>G</step>
                    <octave>4</octave>
                </pitch>
                <duration>512</duration>
                <instrument id="P1-I1"/>
                <voice>1</voice>
                <type>half</type>
                <stem>up</stem>
                <staff>1</staff>
            </note>
        </measure>
        <measure width="173" number="39">
            <harmony default-y="25" color="#000000">
                <root>
                    <root-step>C</root-step>
                </root>
                <kind>major-sixth</kind>
                <staff>1</staff>
            </harmony>
            <note default-x="15" color="#000000">
                <pitch>
                    <step>C</step>
                    <octave>5</octave>
                </pitch>
                <duration>768</duration>
                <instrument id="P1-I1"/>
                <voice>1</voice>
                <type>half</type>
                <dot/>
                <stem>down</stem>
                <staff>1</staff>
            </note>
        </measure>
        <measure width="242" number="40">
            <note default-x="15" color="#000000">
                <pitch>
                    <step>C</step>
                    <octave>5</octave>
                </pitch>
                <duration>512</duration>
                <instrument id="P1-I1"/>
                <voice>1</voice>
                <type>half</type>
                <stem>down</stem>
                <staff>1</staff>
            </note>
            <note default-x="148">
                <rest/>
                <duration>256</duration>
                <instrument id="P1-I1"/>
                <voice>1</voice>
                <type>quarter</type>
                <staff>1</staff>
            </note>
            <barline location="right">
                <bar-style>light-heavy</bar-style>
            </barline>
        </measure>
    </part>
</score-partwise>
