<?xml version="1.0" encoding="UTF-8"?>
<!DOCTYPE score-partwise PUBLIC "-//Recordare//DTD MusicXML 2.0 Partwise//EN" "http://www.musicxml.org/dtds/partwise.dtd">
<score-partwise version="2.0">
    <work>
        <work-number></work-number>
        <work-title></work-title>
    </work>
    <movement-number></movement-number>
    <movement-title>Heart Beat Tango</movement-title>
    <identification>
        <creator type="composer">Celestine Akins</creator>
        <creator type="poet">Celestine Akins</creator>
        <rights>All Rights Reserved</rights>
        <encoding>
            <software>PrintMusic 2011 for Windows</software>
            <software>Dolet Light for PrintMusic 2011</software>
            <encoding-date>2012-04-25</encoding-date>
            <supports value="yes" type="yes" element="print" attribute="new-system"/>
            <supports value="yes" type="yes" element="print" attribute="new-page"/>
            <software>ProxyMusic 2.0 c</software>
        </encoding>
        <source>http://wikifonia.org/node/15863/revisions/21262/view</source>
    </identification>
    <defaults>
        <scaling>
            <millimeters>7.2319</millimeters>
            <tenths>40</tenths>
        </scaling>
        <page-layout>
            <page-height>1545</page-height>
            <page-width>1194</page-width>
            <page-margins type="both">
                <left-margin>70</left-margin>
                <right-margin>70</right-margin>
                <top-margin>88</top-margin>
                <bottom-margin>88</bottom-margin>
            </page-margins>
        </page-layout>
        <system-layout>
            <system-margins>
                <left-margin>0</left-margin>
                <right-margin>0</right-margin>
            </system-margins>
            <system-distance>121</system-distance>
            <top-system-distance>70</top-system-distance>
        </system-layout>
        <appearance>
            <line-width type="stem">0.7487</line-width>
            <line-width type="beam">5</line-width>
            <line-width type="staff">0.7487</line-width>
            <line-width type="light barline">0.7487</line-width>
            <line-width type="heavy barline">5</line-width>
            <line-width type="leger">0.7487</line-width>
            <line-width type="ending">1.4583</line-width>
            <line-width type="wedge">1.4583</line-width>
            <line-width type="enclosure">0.7487</line-width>
            <line-width type="tuplet bracket">0.7487</line-width>
            <note-size type="grace">60</note-size>
            <note-size type="cue">60</note-size>
        </appearance>
        <music-font font-size="20.5" font-family="Maestro"/>
        <word-font font-size="10.25" font-family="Times New Roman"/>
        <lyric-font font-size="10.25" font-family="Times New Roman"/>
    </defaults>
    <credit page="1">
        <credit-words font-weight="bold" font-size="24" default-y="1437" default-x="599" justify="center" valign="top">Heart Beat Tango</credit-words>
    </credit>
    <credit page="1">
        <credit-words font-weight="bold" font-size="12" default-y="1376" default-x="1124" justify="right" valign="top">Celestine Akins</credit-words>
    </credit>
    <credit page="1">
        <credit-words font-size="10" default-y="70" default-x="597" justify="center" valign="bottom">© 2011</credit-words>
    </credit>
    <part-list>
        <score-part id="P1">
            <part-name print-object="no">MusicXML Part</part-name>
            <score-instrument id="P1-I8">
                <instrument-name>String Ensemble 1</instrument-name>
            </score-instrument>
            <midi-instrument id="P1-I8">
                <midi-channel>8</midi-channel>
                <midi-program>50</midi-program>
                <volume>80</volume>
                <pan>0</pan>
            </midi-instrument>
        </score-part>
    </part-list>
    <part id="P1">
        <measure width="283" number="1">
            <print>
                <system-layout>
                    <top-system-distance>211</top-system-distance>
                </system-layout>
                <measure-numbering>system</measure-numbering>
            </print>
            <attributes>
                <divisions>2</divisions>
                <key>
                    <fifths>-1</fifths>
                    <mode>major</mode>
                </key>
                <time>
                    <beats>4</beats>
                    <beat-type>4</beat-type>
                </time>
                <clef>
                    <sign>G</sign>
                    <line>2</line>
                </clef>
            </attributes>
            <sound tempo="95"/>
            <note default-x="110">
                <pitch>
                    <step>E</step>
                    <octave>4</octave>
                </pitch>
                <duration>2</duration>
                <instrument id="P1-I8"/>
                <voice>1</voice>
                <type>quarter</type>
                <stem default-y="-5">up</stem>
                <lyric default-y="-80" number="1">
                    <syllabic>single</syllabic>
                    <text>Let</text>
                </lyric>
            </note>
            <note default-x="147">
                <pitch>
                    <step>G</step>
                    <octave>4</octave>
                </pitch>
                <duration>1</duration>
                <instrument id="P1-I8"/>
                <voice>1</voice>
                <type>eighth</type>
                <stem default-y="5.5">up</stem>
                <lyric default-y="-80" number="1">
                    <syllabic>single</syllabic>
                    <text>our</text>
                </lyric>
            </note>
            <note default-x="194">
                <pitch>
                    <step>C</step>
                    <octave>5</octave>
                </pitch>
                <duration>2</duration>
                <instrument id="P1-I8"/>
                <voice>1</voice>
                <type>quarter</type>
                <stem default-y="-50.5">down</stem>
                <lyric default-y="-80" number="1">
                    <syllabic>single</syllabic>
                    <text>hearts</text>
                </lyric>
            </note>
            <harmony default-y="34">
                <root>
                    <root-step>C</root-step>
                </root>
                <kind halign="center" text="">major</kind>
            </harmony>
            <note default-x="235">
                <pitch>
                    <step>E</step>
                    <octave>5</octave>
                </pitch>
                <duration>3</duration>
                <tie type="start"/>
                <instrument id="P1-I8"/>
                <voice>1</voice>
                <type>quarter</type>
                <dot/>
                <stem default-y="-40">down</stem>
                <notations>
                    <tied type="start"/>
                </notations>
                <lyric justify="left" default-y="-80" number="1">
                    <syllabic>single</syllabic>
                    <text>beat</text>
                    <extend/>
                </lyric>
            </note>
        </measure>
        <measure width="175" number="2">
            <harmony default-y="34">
                <root>
                    <root-step>C</root-step>
                </root>
                <kind halign="center" text="">major</kind>
            </harmony>
            <note default-x="14">
                <pitch>
                    <step>E</step>
                    <octave>5</octave>
                </pitch>
                <duration>1</duration>
                <tie type="stop"/>
                <instrument id="P1-I8"/>
                <voice>1</voice>
                <type>eighth</type>
                <stem default-y="-40">down</stem>
                <notations>
                    <tied type="stop"/>
                </notations>
            </note>
            <note default-x="37">
                <pitch>
                    <step>D</step>
                    <octave>5</octave>
                </pitch>
                <duration>2</duration>
                <instrument id="P1-I8"/>
                <voice>1</voice>
                <type>quarter</type>
                <stem default-y="-45">down</stem>
                <lyric default-y="-80" number="1">
                    <syllabic>single</syllabic>
                    <text>to</text>
                </lyric>
            </note>
            <note default-x="72">
                <pitch>
                    <step>C</step>
                    <octave>5</octave>
                </pitch>
                <duration>1</duration>
                <instrument id="P1-I8"/>
                <voice>1</voice>
                <type>eighth</type>
                <stem default-y="-50.5">down</stem>
                <lyric default-y="-80" number="1">
                    <syllabic>single</syllabic>
                    <text>the</text>
                </lyric>
            </note>
            <note default-x="102">
                <pitch>
                    <step>C</step>
                    <octave>5</octave>
                </pitch>
                <duration>2</duration>
                <instrument id="P1-I8"/>
                <voice>1</voice>
                <type>quarter</type>
                <stem default-y="-50.5">down</stem>
                <lyric relative-x="3" default-y="-80" number="1">
                    <syllabic>single</syllabic>
                    <text>tan</text>
                </lyric>
            </note>
            <harmony default-y="34">
                <root>
                    <root-step>G</root-step>
                </root>
                <kind halign="center" text="">major</kind>
            </harmony>
            <note default-x="139">
                <pitch>
                    <step>B</step>
                    <octave>4</octave>
                </pitch>
                <duration>2</duration>
                <tie type="start"/>
                <instrument id="P1-I8"/>
                <voice>1</voice>
                <type>quarter</type>
                <accidental>natural</accidental>
                <stem default-y="-55">down</stem>
                <notations>
                    <tied type="start"/>
                </notations>
                <lyric justify="left" default-y="-80" number="1">
                    <syllabic>single</syllabic>
                    <text>go</text>
                    <extend/>
                </lyric>
            </note>
        </measure>
        <measure width="201" number="3">
            <harmony default-y="34">
                <root>
                    <root-step>G</root-step>
                </root>
                <kind halign="center" text="">major</kind>
            </harmony>
            <note default-x="27">
                <pitch>
                    <step>B</step>
                    <octave>4</octave>
                </pitch>
                <duration>2</duration>
                <tie type="stop"/>
                <instrument id="P1-I8"/>
                <voice>1</voice>
                <type>quarter</type>
                <stem default-y="-55">down</stem>
                <notations>
                    <tied type="stop"/>
                </notations>
            </note>
            <note default-x="63">
                <rest/>
                <duration>1</duration>
                <instrument id="P1-I8"/>
                <voice>1</voice>
                <type>eighth</type>
            </note>
            <note default-x="85">
                <pitch>
                    <step>D</step>
                    <octave>4</octave>
                </pitch>
                <duration>2</duration>
                <instrument id="P1-I8"/>
                <voice>1</voice>
                <type>quarter</type>
                <stem default-y="-9.5">up</stem>
                <lyric default-y="-80" number="1">
                    <syllabic>single</syllabic>
                    <text>Lets</text>
                </lyric>
            </note>
            <note default-x="125">
                <pitch>
                    <step>F</step>
                    <octave>4</octave>
                </pitch>
                <duration>1</duration>
                <instrument id="P1-I8"/>
                <voice>1</voice>
                <type>eighth</type>
                <stem default-y="0">up</stem>
                <lyric default-y="-80" number="1">
                    <syllabic>single</syllabic>
                    <text>pre</text>
                </lyric>
            </note>
            <note default-x="164">
                <pitch>
                    <step>B</step>
                    <octave>4</octave>
                </pitch>
                <duration>2</duration>
                <instrument id="P1-I8"/>
                <voice>1</voice>
                <type>quarter</type>
                <accidental>natural</accidental>
                <stem default-y="-55">down</stem>
                <lyric default-y="-80" number="1">
                    <syllabic>single</syllabic>
                    <text>tend</text>
                </lyric>
            </note>
        </measure>
        <measure width="176" number="4">
            <harmony default-y="34">
                <root>
                    <root-step>C</root-step>
                </root>
                <kind halign="center" text="">major</kind>
            </harmony>
            <note default-x="14">
                <pitch>
                    <step>C</step>
                    <octave>5</octave>
                </pitch>
                <duration>4</duration>
                <instrument id="P1-I8"/>
                <voice>1</voice>
                <type>half</type>
                <stem default-y="-50.5">down</stem>
                <lyric default-y="-80" number="1">
                    <syllabic>single</syllabic>
                    <text>we're</text>
                </lyric>
            </note>
            <note default-x="73">
                <pitch>
                    <step>B</step>
                    <octave>4</octave>
                </pitch>
                <duration>2</duration>
                <instrument id="P1-I8"/>
                <voice>1</voice>
                <type>quarter</type>
                <accidental>natural</accidental>
                <stem default-y="-55">down</stem>
                <lyric default-y="-80" number="1">
                    <syllabic>single</syllabic>
                    <text>back</text>
                </lyric>
            </note>
            <note default-x="108">
                <pitch>
                    <step>B</step>
                    <alter>-1</alter>
                    <octave>4</octave>
                </pitch>
                <duration>1</duration>
                <instrument id="P1-I8"/>
                <voice>1</voice>
                <type>eighth</type>
                <accidental>flat</accidental>
                <stem default-y="15">up</stem>
                <beam number="1">begin</beam>
                <lyric default-y="-80" number="1">
                    <syllabic>single</syllabic>
                    <text>a</text>
                </lyric>
            </note>
            <harmony default-y="34">
                <root>
                    <root-step>A</root-step>
                </root>
                <kind halign="center" text="">major</kind>
            </harmony>
            <note default-x="131">
                <pitch>
                    <step>A</step>
                    <octave>4</octave>
                </pitch>
                <duration>1</duration>
                <tie type="start"/>
                <instrument id="P1-I8"/>
                <voice>1</voice>
                <type>eighth</type>
                <stem default-y="10">up</stem>
                <beam number="1">end</beam>
                <notations>
                    <tied type="start"/>
                </notations>
                <lyric justify="left" default-y="-80" number="1">
                    <syllabic>single</syllabic>
                    <text>gain</text>
                    <extend/>
                </lyric>
            </note>
        </measure>
        <measure width="218" number="5">
            <harmony default-y="34">
                <root>
                    <root-step>A</root-step>
                </root>
                <kind halign="center" text="">major</kind>
            </harmony>
            <note default-x="14">
                <pitch>
                    <step>A</step>
                    <octave>4</octave>
                </pitch>
                <duration>4</duration>
                <tie type="stop"/>
                <instrument id="P1-I8"/>
                <voice>1</voice>
                <type>half</type>
                <stem default-y="10.5">up</stem>
                <notations>
                    <tied type="stop"/>
                </notations>
            </note>
            <note default-x="73">
                <rest/>
                <duration>1</duration>
                <instrument id="P1-I8"/>
                <voice>1</voice>
                <type>eighth</type>
            </note>
            <note default-x="101">
                <pitch>
                    <step>A</step>
                    <alter>-1</alter>
                    <octave>4</octave>
                </pitch>
                <duration>1</duration>
                <instrument id="P1-I8"/>
                <voice>1</voice>
                <type>eighth</type>
                <accidental>flat</accidental>
                <stem default-y="10">up</stem>
                <beam number="1">begin</beam>
                <lyric default-y="-80" number="1">
                    <syllabic>single</syllabic>
                    <text>Let</text>
                </lyric>
            </note>
            <note default-x="137">
                <pitch>
                    <step>A</step>
                    <octave>4</octave>
                </pitch>
                <duration>1</duration>
                <instrument id="P1-I8"/>
                <voice>1</voice>
                <type>eighth</type>
                <accidental>natural</accidental>
                <stem default-y="12.5">up</stem>
                <beam number="1">continue</beam>
                <lyric default-y="-80" number="1">
                    <syllabic>single</syllabic>
                    <text>our</text>
                </lyric>
            </note>
            <note default-x="180">
                <pitch>
                    <step>B</step>
                    <alter>-1</alter>
                    <octave>4</octave>
                </pitch>
                <duration>1</duration>
                <instrument id="P1-I8"/>
                <voice>1</voice>
                <type>eighth</type>
                <stem default-y="15">up</stem>
                <beam number="1">end</beam>
                <lyric default-y="-80" number="1">
                    <syllabic>single</syllabic>
                    <text>mem</text>
                </lyric>
            </note>
        </measure>
        <measure width="230" number="6">
            <print new-system="yes">
                <system-layout>
                    <system-distance>114</system-distance>
                </system-layout>
            </print>
            <harmony default-y="34">
                <root>
                    <root-step>A</root-step>
                </root>
                <kind halign="center" text="">major</kind>
            </harmony>
            <note default-x="40">
                <pitch>
                    <step>A</step>
                    <octave>4</octave>
                </pitch>
                <duration>1</duration>
                <instrument id="P1-I8"/>
                <voice>1</voice>
                <type>eighth</type>
                <stem default-y="10">up</stem>
                <beam number="1">begin</beam>
                <lyric default-y="-80" number="1">
                    <syllabic>single</syllabic>
                    <text>or</text>
                </lyric>
            </note>
            <note default-x="71">
                <pitch>
                    <step>B</step>
                    <alter>-1</alter>
                    <octave>4</octave>
                </pitch>
                <duration>1</duration>
                <instrument id="P1-I8"/>
                <voice>1</voice>
                <type>eighth</type>
                <stem default-y="15">up</stem>
                <beam number="1">end</beam>
                <lyric default-y="-80" number="1">
                    <syllabic>single</syllabic>
                    <text>ies</text>
                </lyric>
            </note>
            <note default-x="101">
                <pitch>
                    <step>A</step>
                    <octave>4</octave>
                </pitch>
                <duration>4</duration>
                <instrument id="P1-I8"/>
                <voice>1</voice>
                <type>half</type>
                <stem default-y="11">up</stem>
                <lyric default-y="-80" number="1">
                    <syllabic>single</syllabic>
                    <text>go</text>
                </lyric>
            </note>
            <note default-x="166">
                <pitch>
                    <step>A</step>
                    <alter>-1</alter>
                    <octave>4</octave>
                </pitch>
                <duration>1</duration>
                <instrument id="P1-I8"/>
                <voice>1</voice>
                <type>eighth</type>
                <accidental>flat</accidental>
                <stem default-y="10">up</stem>
                <beam number="1">begin</beam>
                <lyric default-y="-80" number="1">
                    <syllabic>single</syllabic>
                    <text>back</text>
                </lyric>
            </note>
            <note default-x="202">
                <pitch>
                    <step>A</step>
                    <octave>4</octave>
                </pitch>
                <duration>1</duration>
                <instrument id="P1-I8"/>
                <voice>1</voice>
                <type>eighth</type>
                <accidental>natural</accidental>
                <stem default-y="10">up</stem>
                <beam number="1">end</beam>
                <lyric default-y="-80" number="1">
                    <syllabic>single</syllabic>
                    <text>to</text>
                </lyric>
            </note>
        </measure>
        <measure width="196" number="7">
            <note default-x="13">
                <pitch>
                    <step>E</step>
                    <octave>5</octave>
                </pitch>
                <duration>1</duration>
                <instrument id="P1-I8"/>
                <voice>1</voice>
                <type>eighth</type>
                <stem default-y="-40">down</stem>
                <beam number="1">begin</beam>
                <lyric default-y="-80" number="1">
                    <syllabic>single</syllabic>
                    <text>mem</text>
                </lyric>
            </note>
            <note default-x="51">
                <pitch>
                    <step>D</step>
                    <octave>5</octave>
                </pitch>
                <duration>1</duration>
                <instrument id="P1-I8"/>
                <voice>1</voice>
                <type>eighth</type>
                <stem default-y="-42.5">down</stem>
                <beam number="1">end</beam>
                <lyric default-y="-80" number="1">
                    <syllabic>single</syllabic>
                    <text>or</text>
                </lyric>
            </note>
            <note default-x="76">
                <pitch>
                    <step>E</step>
                    <octave>5</octave>
                </pitch>
                <duration>1</duration>
                <instrument id="P1-I8"/>
                <voice>1</voice>
                <type>eighth</type>
                <stem default-y="-40">down</stem>
                <lyric default-y="-80" number="1">
                    <syllabic>single</syllabic>
                    <text>y</text>
                </lyric>
            </note>
            <harmony default-y="34">
                <root>
                    <root-step>C</root-step>
                </root>
                <kind halign="center" text="">major</kind>
            </harmony>
            <note default-x="107">
                <pitch>
                    <step>D</step>
                    <octave>5</octave>
                </pitch>
                <duration>4</duration>
                <instrument id="P1-I8"/>
                <voice>1</voice>
                <type>half</type>
                <stem default-y="-45.5">down</stem>
                <lyric default-y="-80" number="1">
                    <syllabic>single</syllabic>
                    <text>lane</text>
                </lyric>
            </note>
            <note default-x="171">
                <rest/>
                <duration>1</duration>
                <instrument id="P1-I8"/>
                <voice>1</voice>
                <type>eighth</type>
            </note>
        </measure>
        <measure width="240" number="8">
            <note default-x="14">
                <pitch>
                    <step>E</step>
                    <octave>5</octave>
                </pitch>
                <duration>1</duration>
                <instrument id="P1-I8"/>
                <voice>1</voice>
                <type>eighth</type>
                <stem default-y="-40">down</stem>
                <lyric default-y="-80" number="1">
                    <syllabic>single</syllabic>
                    <text>and</text>
                </lyric>
            </note>
            <harmony default-y="34">
                <root>
                    <root-step>F</root-step>
                </root>
                <kind halign="center" text="">major</kind>
            </harmony>
            <note default-x="53">
                <pitch>
                    <step>F</step>
                    <octave>5</octave>
                </pitch>
                <duration>2</duration>
                <instrument id="P1-I8"/>
                <voice>1</voice>
                <type>quarter</type>
                <stem default-y="-35">down</stem>
                <lyric default-y="-80" number="1">
                    <syllabic>single</syllabic>
                    <text>lets</text>
                </lyric>
            </note>
            <note default-x="93">
                <pitch>
                    <step>F</step>
                    <octave>5</octave>
                </pitch>
                <duration>2</duration>
                <instrument id="P1-I8"/>
                <voice>1</voice>
                <type>quarter</type>
                <stem default-y="-35">down</stem>
                <lyric default-y="-80" number="1">
                    <syllabic>single</syllabic>
                    <text>be</text>
                </lyric>
            </note>
            <note default-x="138">
                <pitch>
                    <step>E</step>
                    <octave>5</octave>
                </pitch>
                <duration>1</duration>
                <instrument id="P1-I8"/>
                <voice>1</voice>
                <type>eighth</type>
                <stem default-y="-40">down</stem>
                <lyric default-y="-80" number="1">
                    <syllabic>single</syllabic>
                    <text>sweet</text>
                </lyric>
            </note>
            <note default-x="195">
                <pitch>
                    <step>D</step>
                    <octave>5</octave>
                </pitch>
                <duration>2</duration>
                <instrument id="P1-I8"/>
                <voice>1</voice>
                <type>quarter</type>
                <stem default-y="-45.5">down</stem>
                <lyric default-y="-80" number="1">
                    <syllabic>single</syllabic>
                    <text>hearts</text>
                </lyric>
            </note>
        </measure>
        <measure width="188" number="9">
            <note default-x="26">
                <pitch>
                    <step>B</step>
                    <octave>4</octave>
                </pitch>
                <duration>1</duration>
                <instrument id="P1-I8"/>
                <voice>1</voice>
                <type>eighth</type>
                <accidental>natural</accidental>
                <stem default-y="-55">down</stem>
                <lyric default-y="-80" number="1">
                    <syllabic>single</syllabic>
                    <text>a</text>
                </lyric>
            </note>
            <harmony default-y="34">
                <root>
                    <root-step>F</root-step>
                </root>
                <kind halign="center" text="">major</kind>
            </harmony>
            <note default-x="57">
                <pitch>
                    <step>A</step>
                    <octave>4</octave>
                </pitch>
                <duration>4</duration>
                <instrument id="P1-I8"/>
                <voice>1</voice>
                <type>half</type>
                <stem default-y="11">up</stem>
                <lyric default-y="-80" number="1">
                    <syllabic>single</syllabic>
                    <text>gain</text>
                </lyric>
            </note>
            <note default-x="120">
                <rest/>
                <duration>1</duration>
                <instrument id="P1-I8"/>
                <voice>1</voice>
                <type>eighth</type>
            </note>
            <note default-x="148">
                <pitch>
                    <step>E</step>
                    <octave>4</octave>
                </pitch>
                <duration>2</duration>
                <instrument id="P1-I8"/>
                <voice>1</voice>
                <type>quarter</type>
                <stem default-y="-4.5">up</stem>
                <lyric default-y="-80" number="1">
                    <syllabic>single</syllabic>
                    <text>Lets</text>
                </lyric>
            </note>
        </measure>
        <measure width="200" number="10">
            <note default-x="13">
                <pitch>
                    <step>G</step>
                    <octave>4</octave>
                </pitch>
                <duration>1</duration>
                <instrument id="P1-I8"/>
                <voice>1</voice>
                <type>eighth</type>
                <stem default-y="5">up</stem>
                <lyric default-y="-80" number="1">
                    <syllabic>single</syllabic>
                    <text>re</text>
                </lyric>
            </note>
            <note default-x="54">
                <pitch>
                    <step>C</step>
                    <octave>5</octave>
                </pitch>
                <duration>2</duration>
                <instrument id="P1-I8"/>
                <voice>1</voice>
                <type>quarter</type>
                <stem default-y="-50">down</stem>
                <lyric default-y="-80" number="1">
                    <syllabic>single</syllabic>
                    <text>mem</text>
                </lyric>
            </note>
            <harmony default-y="34">
                <root>
                    <root-step>C</root-step>
                </root>
                <kind halign="center" text="">major</kind>
            </harmony>
            <note default-x="101">
                <pitch>
                    <step>E</step>
                    <octave>5</octave>
                </pitch>
                <duration>4</duration>
                <instrument id="P1-I8"/>
                <voice>1</voice>
                <type>half</type>
                <stem default-y="-40">down</stem>
                <lyric default-y="-80" number="1">
                    <syllabic>single</syllabic>
                    <text>ber</text>
                </lyric>
            </note>
            <note default-x="165">
                <pitch>
                    <step>D</step>
                    <octave>5</octave>
                </pitch>
                <duration>1</duration>
                <tie type="start"/>
                <instrument id="P1-I8"/>
                <voice>1</voice>
                <type>eighth</type>
                <stem default-y="-45.5">down</stem>
                <notations>
                    <tied type="start"/>
                </notations>
                <lyric justify="left" default-y="-80" number="1">
                    <syllabic>single</syllabic>
                    <text>all</text>
                    <extend/>
                </lyric>
            </note>
        </measure>
        <measure width="231" number="11">
            <print new-system="yes">
                <system-layout>
                    <system-distance>114</system-distance>
                </system-layout>
            </print>
            <harmony default-y="34">
                <root>
                    <root-step>C</root-step>
                </root>
                <kind halign="center" text="">major</kind>
            </harmony>
            <note default-x="40">
                <pitch>
                    <step>D</step>
                    <octave>5</octave>
                </pitch>
                <duration>1</duration>
                <tie type="stop"/>
                <instrument id="P1-I8"/>
                <voice>1</voice>
                <type>eighth</type>
                <stem default-y="-45">down</stem>
                <beam number="1">begin</beam>
                <notations>
                    <tied type="stop"/>
                </notations>
            </note>
            <note default-x="66">
                <pitch>
                    <step>C</step>
                    <octave>5</octave>
                </pitch>
                <duration>1</duration>
                <instrument id="P1-I8"/>
                <voice>1</voice>
                <type>eighth</type>
                <stem default-y="-50">down</stem>
                <beam number="1">end</beam>
                <lyric default-y="-80" number="1">
                    <syllabic>single</syllabic>
                    <text>our</text>
                </lyric>
            </note>
            <note default-x="110">
                <pitch>
                    <step>C</step>
                    <octave>5</octave>
                </pitch>
                <duration>2</duration>
                <instrument id="P1-I8"/>
                <voice>1</voice>
                <type>quarter</type>
                <stem default-y="-50">down</stem>
                <lyric default-y="-80" number="1">
                    <syllabic>single</syllabic>
                    <text>vows</text>
                </lyric>
            </note>
            <harmony default-y="34">
                <root>
                    <root-step>G</root-step>
                </root>
                <kind halign="center" text="">major</kind>
            </harmony>
            <note default-x="162">
                <pitch>
                    <step>B</step>
                    <octave>4</octave>
                </pitch>
                <duration>4</duration>
                <instrument id="P1-I8"/>
                <voice>1</voice>
                <type>half</type>
                <accidental>natural</accidental>
                <stem default-y="-55">down</stem>
                <lyric default-y="-80" number="1">
                    <syllabic>single</syllabic>
                    <text>dear</text>
                </lyric>
            </note>
        </measure>
        <measure width="217" number="12">
            <note default-x="13">
                <rest/>
                <duration>1</duration>
                <instrument id="P1-I8"/>
                <voice>1</voice>
                <type>eighth</type>
            </note>
            <note default-x="39">
                <pitch>
                    <step>D</step>
                    <octave>4</octave>
                </pitch>
                <duration>2</duration>
                <instrument id="P1-I8"/>
                <voice>1</voice>
                <type>quarter</type>
                <stem default-y="-10">up</stem>
                <lyric default-y="-80" number="1">
                    <syllabic>single</syllabic>
                    <text>Let</text>
                </lyric>
            </note>
            <note default-x="81">
                <pitch>
                    <step>F</step>
                    <octave>4</octave>
                </pitch>
                <duration>1</duration>
                <instrument id="P1-I8"/>
                <voice>1</voice>
                <type>eighth</type>
                <stem default-y="0.5">up</stem>
                <lyric relative-x="3" default-y="-80" number="1">
                    <syllabic>single</syllabic>
                    <text>our</text>
                </lyric>
            </note>
            <note default-x="122">
                <pitch>
                    <step>B</step>
                    <octave>4</octave>
                </pitch>
                <duration>2</duration>
                <instrument id="P1-I8"/>
                <voice>1</voice>
                <type>quarter</type>
                <accidental>natural</accidental>
                <stem default-y="-55">down</stem>
                <lyric default-y="-80" number="1">
                    <syllabic>single</syllabic>
                    <text>lips</text>
                </lyric>
            </note>
            <harmony default-y="34">
                <root>
                    <root-step>C</root-step>
                </root>
                <kind halign="center" text="">major</kind>
            </harmony>
            <note default-x="164">
                <pitch>
                    <step>C</step>
                    <octave>5</octave>
                </pitch>
                <duration>2</duration>
                <tie type="start"/>
                <instrument id="P1-I8"/>
                <voice>1</voice>
                <type>quarter</type>
                <stem default-y="-50">down</stem>
                <notations>
                    <tied type="start"/>
                </notations>
                <lyric justify="left" default-y="-80" number="1">
                    <syllabic>single</syllabic>
                    <text>meet</text>
                    <extend/>
                </lyric>
            </note>
        </measure>
        <measure width="170" number="13">
            <harmony default-y="34">
                <root>
                    <root-step>C</root-step>
                </root>
                <kind halign="center" text="">major</kind>
            </harmony>
            <note default-x="14">
                <pitch>
                    <step>C</step>
                    <octave>5</octave>
                </pitch>
                <duration>2</duration>
                <tie type="stop"/>
                <instrument id="P1-I8"/>
                <voice>1</voice>
                <type>quarter</type>
                <stem default-y="-50">down</stem>
                <notations>
                    <tied type="stop"/>
                </notations>
            </note>
            <note default-x="53">
                <pitch>
                    <step>B</step>
                    <octave>4</octave>
                </pitch>
                <duration>2</duration>
                <instrument id="P1-I8"/>
                <voice>1</voice>
                <type>quarter</type>
                <accidental>natural</accidental>
                <stem default-y="-55">down</stem>
                <lyric default-y="-80" number="1">
                    <syllabic>single</syllabic>
                    <text>once</text>
                </lyric>
            </note>
            <note default-x="92">
                <pitch>
                    <step>B</step>
                    <alter>-1</alter>
                    <octave>4</octave>
                </pitch>
                <duration>1</duration>
                <instrument id="P1-I8"/>
                <voice>1</voice>
                <type>eighth</type>
                <accidental>flat</accidental>
                <stem default-y="-55">down</stem>
                <lyric default-y="-80" number="1">
                    <syllabic>single</syllabic>
                    <text>a</text>
                </lyric>
            </note>
            <harmony default-y="34">
                <root>
                    <root-step>A</root-step>
                </root>
                <kind halign="center" text="">major</kind>
            </harmony>
            <note default-x="117">
                <pitch>
                    <step>A</step>
                    <octave>4</octave>
                </pitch>
                <duration>3</duration>
                <tie type="start"/>
                <instrument id="P1-I8"/>
                <voice>1</voice>
                <type>quarter</type>
                <dot/>
                <stem default-y="10">up</stem>
                <notations>
                    <tied type="start"/>
                </notations>
                <lyric justify="left" default-y="-80" number="1">
                    <syllabic>single</syllabic>
                    <text>gain</text>
                    <extend/>
                </lyric>
            </note>
        </measure>
        <measure width="243" number="14">
            <note default-x="14">
                <pitch>
                    <step>A</step>
                    <octave>4</octave>
                </pitch>
                <duration>1</duration>
                <tie type="stop"/>
                <instrument id="P1-I8"/>
                <voice>1</voice>
                <type>eighth</type>
                <stem default-y="10">up</stem>
                <beam number="1">begin</beam>
                <notations>
                    <tied type="stop"/>
                </notations>
            </note>
            <note default-x="41">
                <rest/>
                <duration>1</duration>
                <instrument id="P1-I8"/>
                <voice>1</voice>
                <type>eighth</type>
            </note>
            <note default-x="69">
                <pitch>
                    <step>A</step>
                    <octave>4</octave>
                </pitch>
                <duration>1</duration>
                <instrument id="P1-I8"/>
                <voice>1</voice>
                <type>eighth</type>
                <stem default-y="10">up</stem>
                <beam number="1">continue</beam>
                <lyric default-y="-80" number="1">
                    <syllabic>single</syllabic>
                    <text>So</text>
                </lyric>
            </note>
            <note default-x="100">
                <pitch>
                    <step>A</step>
                    <alter>-1</alter>
                    <octave>4</octave>
                </pitch>
                <duration>1</duration>
                <instrument id="P1-I8"/>
                <voice>1</voice>
                <type>eighth</type>
                <accidental>flat</accidental>
                <stem default-y="10">up</stem>
                <beam number="1">end</beam>
                <lyric default-y="-80" number="1">
                    <syllabic>single</syllabic>
                    <text>if</text>
                </lyric>
            </note>
            <note default-x="133">
                <pitch>
                    <step>A</step>
                    <octave>4</octave>
                </pitch>
                <duration>1</duration>
                <instrument id="P1-I8"/>
                <voice>1</voice>
                <type>eighth</type>
                <accidental>natural</accidental>
                <stem default-y="10">up</stem>
                <lyric default-y="-80" number="1">
                    <syllabic>single</syllabic>
                    <text>you</text>
                </lyric>
            </note>
            <note default-x="165">
                <pitch>
                    <step>E</step>
                    <octave>5</octave>
                </pitch>
                <duration>2</duration>
                <instrument id="P1-I8"/>
                <voice>1</voice>
                <type>quarter</type>
                <stem default-y="-40.5">down</stem>
                <lyric justify="left" default-y="-80" number="1">
                    <syllabic>single</syllabic>
                    <text>loved</text>
                    <extend/>
                </lyric>
            </note>
            <harmony default-y="34">
                <root>
                    <root-step>C</root-step>
                </root>
                <kind halign="center" text="">major</kind>
            </harmony>
            <note default-x="210">
                <pitch>
                    <step>D</step>
                    <octave>5</octave>
                </pitch>
                <duration>1</duration>
                <tie type="start"/>
                <instrument id="P1-I8"/>
                <voice>1</voice>
                <type>eighth</type>
                <stem default-y="-45">down</stem>
                <notations>
                    <tied type="start"/>
                </notations>
            </note>
        </measure>
        <measure width="193" number="15">
            <harmony default-y="34">
                <root>
                    <root-step>C</root-step>
                </root>
                <kind halign="center" text="">major</kind>
            </harmony>
            <note default-x="14">
                <pitch>
                    <step>D</step>
                    <octave>5</octave>
                </pitch>
                <duration>2</duration>
                <tie type="stop"/>
                <tie type="start"/>
                <instrument id="P1-I8"/>
                <voice>1</voice>
                <type>quarter</type>
                <stem default-y="-45">down</stem>
                <notations>
                    <tied type="stop"/>
                    <tied type="start"/>
                </notations>
                <lyric justify="left" default-y="-80" number="1">
                    <syllabic>single</syllabic>
                    <text>me</text>
                    <extend/>
                </lyric>
            </note>
            <note default-x="54">
                <pitch>
                    <step>D</step>
                    <octave>5</octave>
                </pitch>
                <duration>2</duration>
                <tie type="stop"/>
                <instrument id="P1-I8"/>
                <voice>1</voice>
                <type>quarter</type>
                <stem default-y="-45">down</stem>
                <notations>
                    <tied type="stop"/>
                </notations>
            </note>
            <note default-x="94">
                <pitch>
                    <step>F</step>
                    <octave>5</octave>
                </pitch>
                <duration>2</duration>
                <instrument id="P1-I8"/>
                <voice>1</voice>
                <type>quarter</type>
                <stem default-y="-35">down</stem>
                <lyric default-y="-80" number="1">
                    <syllabic>single</syllabic>
                    <text>long</text>
                </lyric>
            </note>
            <note default-x="134">
                <pitch>
                    <step>E</step>
                    <octave>5</octave>
                </pitch>
                <duration>1</duration>
                <instrument id="P1-I8"/>
                <voice>1</voice>
                <type>eighth</type>
                <stem default-y="-40">down</stem>
                <beam number="1">begin</beam>
                <lyric default-y="-80" number="1">
                    <syllabic>single</syllabic>
                    <text>a</text>
                </lyric>
            </note>
            <note default-x="159">
                <pitch>
                    <step>D</step>
                    <octave>5</octave>
                </pitch>
                <duration>1</duration>
                <tie type="start"/>
                <instrument id="P1-I8"/>
                <voice>1</voice>
                <type>eighth</type>
                <stem default-y="-42.5">down</stem>
                <beam number="1">end</beam>
                <notations>
                    <tied type="start"/>
                </notations>
                <lyric justify="left" default-y="-80" number="1">
                    <syllabic>single</syllabic>
                    <text>go</text>
                    <extend/>
                </lyric>
            </note>
        </measure>
        <measure width="239" number="16">
            <print new-system="yes">
                <system-layout>
                    <system-distance>114</system-distance>
                </system-layout>
            </print>
            <harmony default-y="34">
                <root>
                    <root-step>C</root-step>
                </root>
                <kind halign="center" text="">major</kind>
            </harmony>
            <note default-x="40">
                <pitch>
                    <step>D</step>
                    <octave>5</octave>
                </pitch>
                <duration>1</duration>
                <tie type="stop"/>
                <instrument id="P1-I8"/>
                <voice>1</voice>
                <type>eighth</type>
                <stem default-y="-45">down</stem>
                <notations>
                    <tied type="stop"/>
                </notations>
            </note>
            <note default-x="67">
                <pitch>
                    <step>C</step>
                    <octave>5</octave>
                </pitch>
                <duration>4</duration>
                <instrument id="P1-I8"/>
                <voice>1</voice>
                <type>half</type>
                <stem default-y="-50">down</stem>
                <lyric default-y="-80" number="1">
                    <syllabic>single</syllabic>
                    <text>dear</text>
                </lyric>
            </note>
            <note default-x="136">
                <rest/>
                <duration>1</duration>
                <instrument id="P1-I8"/>
                <voice>1</voice>
                <type>eighth</type>
            </note>
            <note default-x="168">
                <pitch>
                    <step>B</step>
                    <octave>4</octave>
                </pitch>
                <duration>1</duration>
                <instrument id="P1-I8"/>
                <voice>1</voice>
                <type>eighth</type>
                <accidental>natural</accidental>
                <stem default-y="15">up</stem>
                <beam number="1">begin</beam>
                <lyric default-y="-80" number="1">
                    <syllabic>single</syllabic>
                    <text>Lets</text>
                </lyric>
            </note>
            <note default-x="207">
                <pitch>
                    <step>A</step>
                    <octave>4</octave>
                </pitch>
                <duration>1</duration>
                <instrument id="P1-I8"/>
                <voice>1</voice>
                <type>eighth</type>
                <stem default-y="10">up</stem>
                <beam number="1">end</beam>
                <lyric default-y="-80" number="1">
                    <syllabic>single</syllabic>
                    <text>pre</text>
                </lyric>
            </note>
        </measure>
        <measure width="265" number="17">
            <note default-x="14">
                <pitch>
                    <step>A</step>
                    <octave>4</octave>
                </pitch>
                <duration>2</duration>
                <instrument id="P1-I8"/>
                <voice>1</voice>
                <type>quarter</type>
                <stem default-y="10">up</stem>
                <lyric default-y="-80" number="1">
                    <syllabic>single</syllabic>
                    <text>tend</text>
                </lyric>
            </note>
            <note default-x="70">
                <pitch>
                    <step>G</step>
                    <octave>4</octave>
                </pitch>
                <duration>2</duration>
                <instrument id="P1-I8"/>
                <voice>1</voice>
                <type>quarter</type>
                <stem default-y="5.5">up</stem>
                <lyric default-y="-80" number="1">
                    <syllabic>single</syllabic>
                    <text>we're</text>
                </lyric>
            </note>
            <harmony default-y="34">
                <root>
                    <root-step>F</root-step>
                </root>
                <kind halign="center" text="">major</kind>
            </harmony>
            <note default-x="129">
                <pitch>
                    <step>D</step>
                    <octave>5</octave>
                </pitch>
                <duration>1</duration>
                <instrument id="P1-I8"/>
                <voice>1</voice>
                <type>eighth</type>
                <stem default-y="-45">down</stem>
                <lyric default-y="-80" number="1">
                    <syllabic>single</syllabic>
                    <text>sweet</text>
                </lyric>
            </note>
            <note default-x="186">
                <pitch>
                    <step>E</step>
                    <octave>5</octave>
                </pitch>
                <duration>2</duration>
                <instrument id="P1-I8"/>
                <voice>1</voice>
                <type>quarter</type>
                <stem default-y="-40">down</stem>
                <lyric default-y="-80" number="1">
                    <syllabic>single</syllabic>
                    <text>hearts</text>
                </lyric>
            </note>
            <note default-x="232">
                <pitch>
                    <step>G</step>
                    <octave>4</octave>
                </pitch>
                <duration>1</duration>
                <instrument id="P1-I8"/>
                <voice>1</voice>
                <type>eighth</type>
                <stem default-y="5.5">up</stem>
                <lyric default-y="-80" number="1">
                    <syllabic>single</syllabic>
                    <text>a</text>
                </lyric>
            </note>
        </measure>
        <measure width="158" number="18">
            <note default-x="14">
                <pitch>
                    <step>C</step>
                    <octave>5</octave>
                </pitch>
                <duration>4</duration>
                <instrument id="P1-I8"/>
                <voice>1</voice>
                <type>half</type>
                <stem default-y="-50">down</stem>
                <lyric default-y="-80" number="1">
                    <syllabic>single</syllabic>
                    <text>gain</text>
                </lyric>
            </note>
            <note default-x="78">
                <rest/>
                <duration>2</duration>
                <instrument id="P1-I8"/>
                <voice>1</voice>
                <type>quarter</type>
            </note>
            <note default-x="118">
                <pitch>
                    <step>E</step>
                    <octave>4</octave>
                </pitch>
                <duration>2</duration>
                <instrument id="P1-I8"/>
                <voice>1</voice>
                <type>quarter</type>
                <stem default-y="-5">up</stem>
                <lyric default-y="-80" number="1">
                    <syllabic>single</syllabic>
                    <text>Lets</text>
                </lyric>
            </note>
        </measure>
        <measure width="210" number="19">
            <note default-x="14">
                <pitch>
                    <step>G</step>
                    <octave>4</octave>
                </pitch>
                <duration>1</duration>
                <instrument id="P1-I8"/>
                <voice>1</voice>
                <type>eighth</type>
                <stem default-y="5.5">up</stem>
                <lyric default-y="-80" number="1">
                    <syllabic>single</syllabic>
                    <text>pre</text>
                </lyric>
            </note>
            <note default-x="53">
                <pitch>
                    <step>C</step>
                    <octave>5</octave>
                </pitch>
                <duration>2</duration>
                <instrument id="P1-I8"/>
                <voice>1</voice>
                <type>quarter</type>
                <stem default-y="-50">down</stem>
                <lyric default-y="-80" number="1">
                    <syllabic>single</syllabic>
                    <text>tend</text>
                </lyric>
            </note>
            <harmony default-y="34">
                <root>
                    <root-step>C</root-step>
                </root>
                <kind halign="center" text="">major</kind>
            </harmony>
            <note default-x="99">
                <pitch>
                    <step>E</step>
                    <octave>5</octave>
                </pitch>
                <duration>4</duration>
                <instrument id="P1-I8"/>
                <voice>1</voice>
                <type>half</type>
                <stem default-y="-40">down</stem>
                <lyric default-y="-80" number="1">
                    <syllabic>single</syllabic>
                    <text>we</text>
                </lyric>
            </note>
            <note default-x="171">
                <pitch>
                    <step>D</step>
                    <octave>5</octave>
                </pitch>
                <duration>1</duration>
                <tie type="start"/>
                <instrument id="P1-I8"/>
                <voice>1</voice>
                <type>eighth</type>
                <stem default-y="-45">down</stem>
                <notations>
                    <tied type="start"/>
                </notations>
                <lyric justify="left" default-y="-80" number="1">
                    <syllabic>single</syllabic>
                    <text>nev</text>
                    <extend/>
                </lyric>
            </note>
        </measure>
        <measure width="180" number="20">
            <harmony default-y="34">
                <root>
                    <root-step>C</root-step>
                </root>
                <kind halign="center" text="">major</kind>
            </harmony>
            <note default-x="13">
                <pitch>
                    <step>D</step>
                    <octave>5</octave>
                </pitch>
                <duration>1</duration>
                <tie type="stop"/>
                <instrument id="P1-I8"/>
                <voice>1</voice>
                <type>eighth</type>
                <stem default-y="-45">down</stem>
                <beam number="1">begin</beam>
                <notations>
                    <tied type="stop"/>
                </notations>
            </note>
            <note default-x="39">
                <pitch>
                    <step>C</step>
                    <octave>5</octave>
                </pitch>
                <duration>1</duration>
                <instrument id="P1-I8"/>
                <voice>1</voice>
                <type>eighth</type>
                <stem default-y="-50">down</stem>
                <beam number="1">end</beam>
                <lyric default-y="-80" number="1">
                    <syllabic>single</syllabic>
                    <text>er</text>
                </lyric>
            </note>
            <note default-x="72">
                <pitch>
                    <step>C</step>
                    <octave>5</octave>
                </pitch>
                <duration>2</duration>
                <instrument id="P1-I8"/>
                <voice>1</voice>
                <type>quarter</type>
                <stem default-y="-50">down</stem>
                <lyric default-y="-80" number="1">
                    <syllabic>single</syllabic>
                    <text>part</text>
                </lyric>
            </note>
            <harmony default-y="34">
                <root>
                    <root-step>G</root-step>
                </root>
                <kind halign="center" text="">major</kind>
            </harmony>
            <note default-x="113">
                <pitch>
                    <step>B</step>
                    <octave>4</octave>
                </pitch>
                <duration>4</duration>
                <instrument id="P1-I8"/>
                <voice>1</voice>
                <type>half</type>
                <accidental>natural</accidental>
                <stem default-y="-55.5">down</stem>
                <lyric default-y="-80" number="1">
                    <syllabic>single</syllabic>
                    <text>ed</text>
                </lyric>
            </note>
        </measure>
        <measure width="215" number="21">
            <print new-system="yes">
                <system-layout>
                    <system-distance>114</system-distance>
                </system-layout>
            </print>
            <note default-x="40">
                <pitch>
                    <step>D</step>
                    <octave>4</octave>
                </pitch>
                <duration>2</duration>
                <instrument id="P1-I8"/>
                <voice>1</voice>
                <type>quarter</type>
                <stem default-y="-9.5">up</stem>
                <lyric default-y="-80" number="1">
                    <syllabic>single</syllabic>
                    <text>As</text>
                </lyric>
            </note>
            <note default-x="80">
                <pitch>
                    <step>F</step>
                    <octave>4</octave>
                </pitch>
                <duration>1</duration>
                <instrument id="P1-I8"/>
                <voice>1</voice>
                <type>eighth</type>
                <stem default-y="1">up</stem>
                <lyric default-y="-80" number="1">
                    <syllabic>single</syllabic>
                    <text>we</text>
                </lyric>
            </note>
            <note default-x="120">
                <pitch>
                    <step>B</step>
                    <octave>4</octave>
                </pitch>
                <duration>2</duration>
                <instrument id="P1-I8"/>
                <voice>1</voice>
                <type>quarter</type>
                <accidental>natural</accidental>
                <stem default-y="-55.5">down</stem>
                <lyric default-y="-80" number="1">
                    <syllabic>single</syllabic>
                    <text>did</text>
                </lyric>
            </note>
            <harmony default-y="34">
                <root>
                    <root-step>C</root-step>
                </root>
                <kind halign="center" text="">major</kind>
            </harmony>
            <note default-x="161">
                <pitch>
                    <step>C</step>
                    <octave>5</octave>
                </pitch>
                <duration>3</duration>
                <tie type="start"/>
                <instrument id="P1-I8"/>
                <voice>1</voice>
                <type>quarter</type>
                <dot/>
                <stem default-y="-50">down</stem>
                <notations>
                    <tied type="start"/>
                </notations>
                <lyric justify="left" default-y="-80" number="1">
                    <syllabic>single</syllabic>
                    <text>so</text>
                    <extend/>
                </lyric>
            </note>
        </measure>
        <measure width="177" number="22">
            <harmony default-y="34">
                <root>
                    <root-step>C</root-step>
                </root>
                <kind halign="center" text="">major</kind>
            </harmony>
            <note default-x="14">
                <pitch>
                    <step>C</step>
                    <octave>5</octave>
                </pitch>
                <duration>1</duration>
                <tie type="stop"/>
                <instrument id="P1-I8"/>
                <voice>1</voice>
                <type>eighth</type>
                <stem default-y="-50">down</stem>
                <notations>
                    <tied type="stop"/>
                </notations>
            </note>
            <note default-x="45">
                <pitch>
                    <step>B</step>
                    <octave>4</octave>
                </pitch>
                <duration>2</duration>
                <instrument id="P1-I8"/>
                <voice>1</voice>
                <type>quarter</type>
                <accidental>natural</accidental>
                <stem default-y="-55.5">down</stem>
                <lyric default-y="-80" number="1">
                    <syllabic>single</syllabic>
                    <text>long</text>
                </lyric>
            </note>
            <note default-x="85">
                <pitch>
                    <step>B</step>
                    <alter>-1</alter>
                    <octave>4</octave>
                </pitch>
                <duration>1</duration>
                <instrument id="P1-I8"/>
                <voice>1</voice>
                <type>eighth</type>
                <accidental>flat</accidental>
                <stem default-y="-55.5">down</stem>
                <lyric default-y="-80" number="1">
                    <syllabic>single</syllabic>
                    <text>a</text>
                </lyric>
            </note>
            <harmony default-y="34">
                <root>
                    <root-step>A</root-step>
                </root>
                <kind halign="center" text="">major</kind>
            </harmony>
            <note default-x="111">
                <pitch>
                    <step>A</step>
                    <octave>4</octave>
                </pitch>
                <duration>4</duration>
                <instrument id="P1-I8"/>
                <voice>1</voice>
                <type>half</type>
                <stem default-y="10.5">up</stem>
                <lyric default-y="-80" number="1">
                    <syllabic>single</syllabic>
                    <text>go</text>
                </lyric>
            </note>
        </measure>
        <measure width="251" number="23">
            <note default-x="14">
                <rest/>
                <duration>1</duration>
                <instrument id="P1-I8"/>
                <voice>1</voice>
                <type>eighth</type>
            </note>
            <harmony default-y="34">
                <root>
                    <root-step>A</root-step>
                </root>
                <kind halign="center" text="">major</kind>
            </harmony>
            <note default-x="39">
                <pitch>
                    <step>A</step>
                    <octave>4</octave>
                </pitch>
                <duration>1</duration>
                <instrument id="P1-I8"/>
                <voice>1</voice>
                <type>eighth</type>
                <stem default-y="10">up</stem>
                <beam number="1">begin</beam>
                <lyric default-y="-80" number="1">
                    <syllabic>single</syllabic>
                    <text>So</text>
                </lyric>
            </note>
            <note default-x="73">
                <pitch>
                    <step>A</step>
                    <alter>-1</alter>
                    <octave>4</octave>
                </pitch>
                <duration>1</duration>
                <instrument id="P1-I8"/>
                <voice>1</voice>
                <type>eighth</type>
                <accidental>flat</accidental>
                <stem default-y="10">up</stem>
                <beam number="1">continue</beam>
                <lyric default-y="-80" number="1">
                    <syllabic>single</syllabic>
                    <text>let</text>
                </lyric>
            </note>
            <note default-x="108">
                <pitch>
                    <step>A</step>
                    <octave>4</octave>
                </pitch>
                <duration>1</duration>
                <instrument id="P1-I8"/>
                <voice>1</voice>
                <type>eighth</type>
                <accidental>natural</accidental>
                <stem default-y="10">up</stem>
                <beam number="1">end</beam>
                <lyric default-y="-80" number="1">
                    <syllabic>single</syllabic>
                    <text>our</text>
                </lyric>
            </note>
            <note default-x="155">
                <pitch>
                    <step>E</step>
                    <octave>5</octave>
                </pitch>
                <duration>2</duration>
                <instrument id="P1-I8"/>
                <voice>1</voice>
                <type>quarter</type>
                <stem default-y="-40">down</stem>
                <lyric default-y="-80" number="1">
                    <syllabic>single</syllabic>
                    <text>hearts</text>
                </lyric>
            </note>
            <harmony default-y="34">
                <root>
                    <root-step>C</root-step>
                </root>
                <kind halign="center" text="">major</kind>
            </harmony>
            <note default-x="201">
                <pitch>
                    <step>D</step>
                    <octave>5</octave>
                </pitch>
                <duration>2</duration>
                <tie type="start"/>
                <instrument id="P1-I8"/>
                <voice>1</voice>
                <type>quarter</type>
                <stem default-y="-45">down</stem>
                <notations>
                    <tied type="start"/>
                </notations>
                <lyric justify="left" default-y="-80" number="1">
                    <syllabic>single</syllabic>
                    <text>beat</text>
                    <extend/>
                </lyric>
            </note>
        </measure>
        <measure width="210" number="24">
            <harmony default-y="34">
                <root>
                    <root-step>C</root-step>
                </root>
                <kind halign="center" text="">major</kind>
            </harmony>
            <note default-x="14">
                <pitch>
                    <step>D</step>
                    <octave>5</octave>
                </pitch>
                <duration>2</duration>
                <tie type="stop"/>
                <instrument id="P1-I8"/>
                <voice>1</voice>
                <type>quarter</type>
                <stem default-y="-45">down</stem>
                <notations>
                    <tied type="stop"/>
                </notations>
            </note>
            <note default-x="54">
                <pitch>
                    <step>F</step>
                    <octave>5</octave>
                </pitch>
                <duration>2</duration>
                <instrument id="P1-I8"/>
                <voice>1</voice>
                <type>quarter</type>
                <stem default-y="-35.5">down</stem>
                <lyric default-y="-80" number="1">
                    <syllabic>single</syllabic>
                    <text>to</text>
                </lyric>
            </note>
            <note default-x="96">
                <pitch>
                    <step>E</step>
                    <octave>5</octave>
                </pitch>
                <duration>1</duration>
                <instrument id="P1-I8"/>
                <voice>1</voice>
                <type>eighth</type>
                <stem default-y="-40">down</stem>
                <lyric default-y="-80" number="1">
                    <syllabic>single</syllabic>
                    <text>the</text>
                </lyric>
            </note>
            <note default-x="134">
                <pitch>
                    <step>D</step>
                    <octave>5</octave>
                </pitch>
                <duration>2</duration>
                <instrument id="P1-I8"/>
                <voice>1</voice>
                <type>quarter</type>
                <stem default-y="-45">down</stem>
                <lyric default-y="-80" number="1">
                    <syllabic>single</syllabic>
                    <text>tang</text>
                </lyric>
            </note>
            <harmony default-y="34">
                <root>
                    <root-step>C</root-step>
                </root>
                <kind halign="center" text="">major</kind>
            </harmony>
            <note default-x="175">
                <pitch>
                    <step>C</step>
                    <octave>5</octave>
                </pitch>
                <duration>1</duration>
                <tie type="start"/>
                <instrument id="P1-I8"/>
                <voice>1</voice>
                <type>eighth</type>
                <stem default-y="-50">down</stem>
                <notations>
                    <tied type="start"/>
                </notations>
                <lyric justify="left" default-y="-80" number="1">
                    <syllabic>single</syllabic>
                    <text>o</text>
                    <extend/>
                </lyric>
            </note>
        </measure>
        <measure width="201" number="25">
            <harmony default-y="34">
                <root>
                    <root-step>C</root-step>
                </root>
                <kind halign="center" text="">major</kind>
            </harmony>
            <note default-x="14">
                <pitch>
                    <step>C</step>
                    <octave>5</octave>
                </pitch>
                <duration>3</duration>
                <tie type="stop"/>
                <instrument id="P1-I8"/>
                <voice>1</voice>
                <type>quarter</type>
                <dot/>
                <stem default-y="-50">down</stem>
                <notations>
                    <tied type="stop"/>
                </notations>
            </note>
            <note default-x="68">
                <rest/>
                <duration>1</duration>
                <instrument id="P1-I8"/>
                <voice>1</voice>
                <type>eighth</type>
            </note>
            <note default-x="98">
                <pitch>
                    <step>B</step>
                    <octave>4</octave>
                </pitch>
                <duration>2</duration>
                <instrument id="P1-I8"/>
                <voice>1</voice>
                <type>quarter</type>
                <accidental>natural</accidental>
                <stem default-y="-55.5">down</stem>
                <lyric default-y="-80" number="1">
                    <syllabic>single</syllabic>
                    <text>As</text>
                </lyric>
            </note>
            <note default-x="139">
                <pitch>
                    <step>A</step>
                    <octave>4</octave>
                </pitch>
                <duration>1</duration>
                <instrument id="P1-I8"/>
                <voice>1</voice>
                <type>eighth</type>
                <stem default-y="10">up</stem>
                <beam number="1">begin</beam>
                <lyric default-y="-80" number="1">
                    <syllabic>single</syllabic>
                    <text>we</text>
                </lyric>
            </note>
            <harmony default-y="34">
                <root>
                    <root-step>C</root-step>
                </root>
                <kind halign="center" text="">major</kind>
            </harmony>
            <note default-x="167">
                <pitch>
                    <step>A</step>
                    <octave>4</octave>
                </pitch>
                <duration>1</duration>
                <tie type="start"/>
                <instrument id="P1-I8"/>
                <voice>1</voice>
                <type>eighth</type>
                <stem default-y="10">up</stem>
                <beam number="1">end</beam>
                <notations>
                    <tied type="start"/>
                </notations>
                <lyric justify="left" default-y="-80" number="1">
                    <syllabic>single</syllabic>
                    <text>do</text>
                    <extend/>
                </lyric>
            </note>
        </measure>
        <measure width="603" number="26">
            <print new-system="yes">
                <system-layout>
                    <system-distance>114</system-distance>
                </system-layout>
            </print>
            <harmony default-y="34">
                <root>
                    <root-step>C</root-step>
                </root>
                <kind halign="center" text="">major</kind>
            </harmony>
            <note default-x="40">
                <pitch>
                    <step>A</step>
                    <octave>4</octave>
                </pitch>
                <duration>1</duration>
                <tie type="stop"/>
                <instrument id="P1-I8"/>
                <voice>1</voice>
                <type>eighth</type>
                <stem default-y="10.5">up</stem>
                <notations>
                    <tied type="stop"/>
                </notations>
            </note>
            <note default-x="118">
                <pitch>
                    <step>G</step>
                    <octave>4</octave>
                </pitch>
                <duration>2</duration>
                <instrument id="P1-I8"/>
                <voice>1</voice>
                <type>quarter</type>
                <stem default-y="6">up</stem>
                <lyric default-y="-80" number="1">
                    <syllabic>single</syllabic>
                    <text>the</text>
                </lyric>
            </note>
            <harmony default-y="34">
                <root>
                    <root-step>F</root-step>
                </root>
                <kind halign="center" text="">major</kind>
            </harmony>
            <note default-x="244">
                <pitch>
                    <step>D</step>
                    <octave>5</octave>
                </pitch>
                <duration>1</duration>
                <instrument id="P1-I8"/>
                <voice>1</voice>
                <type>eighth</type>
                <stem default-y="-45">down</stem>
                <lyric default-y="-80" number="1">
                    <syllabic>single</syllabic>
                    <text>tang</text>
                </lyric>
            </note>
            <note default-x="321">
                <pitch>
                    <step>E</step>
                    <octave>5</octave>
                </pitch>
                <duration>2</duration>
                <instrument id="P1-I8"/>
                <voice>1</voice>
                <type>quarter</type>
                <stem default-y="-40">down</stem>
                <lyric default-y="-80" number="1">
                    <syllabic>single</syllabic>
                    <text>o</text>
                </lyric>
            </note>
            <note default-x="447">
                <pitch>
                    <step>G</step>
                    <octave>4</octave>
                </pitch>
                <duration>1</duration>
                <instrument id="P1-I8"/>
                <voice>1</voice>
                <type>eighth</type>
                <stem default-y="15">up</stem>
                <beam number="1">begin</beam>
                <lyric default-y="-80" number="1">
                    <syllabic>single</syllabic>
                    <text>to</text>
                </lyric>
            </note>
            <harmony default-y="34">
                <root>
                    <root-step>C</root-step>
                </root>
                <kind halign="center" text="">major</kind>
            </harmony>
            <note default-x="525">
                <pitch>
                    <step>C</step>
                    <octave>5</octave>
                </pitch>
                <duration>1</duration>
                <tie type="start"/>
                <instrument id="P1-I8"/>
                <voice>1</voice>
                <type>eighth</type>
                <stem default-y="20">up</stem>
                <beam number="1">end</beam>
                <notations>
                    <tied type="start"/>
                </notations>
                <lyric justify="left" default-y="-80" number="1">
                    <syllabic>single</syllabic>
                    <text>night</text>
                    <extend/>
                </lyric>
            </note>
        </measure>
        <measure width="451" number="27">
            <harmony default-y="34">
                <root>
                    <root-step>C</root-step>
                </root>
                <kind halign="center" text="">major</kind>
            </harmony>
            <note default-x="14">
                <pitch>
                    <step>C</step>
                    <octave>5</octave>
                </pitch>
                <duration>3</duration>
                <tie type="stop"/>
                <instrument id="P1-I8"/>
                <voice>1</voice>
                <type>quarter</type>
                <dot/>
                <stem default-y="-50.5">down</stem>
                <notations>
                    <tied type="stop"/>
                </notations>
            </note>
            <note default-x="141">
                <rest/>
                <duration>1</duration>
                <instrument id="P1-I8"/>
                <voice>1</voice>
                <type>eighth</type>
            </note>
            <note default-x="201">
                <rest/>
                <duration>1</duration>
                <instrument id="P1-I8"/>
                <voice>1</voice>
                <type>eighth</type>
            </note>
            <note default-x="261">
                <rest/>
                <duration>1</duration>
                <instrument id="P1-I8"/>
                <voice>1</voice>
                <type>eighth</type>
            </note>
            <note default-x="321">
                <rest/>
                <duration>1</duration>
                <instrument id="P1-I8"/>
                <voice>1</voice>
                <type>eighth</type>
            </note>
            <note default-x="380">
                <rest/>
                <duration>1</duration>
                <instrument id="P1-I8"/>
                <voice>1</voice>
                <type>eighth</type>
            </note>
            <barline location="right">
                <bar-style>light-heavy</bar-style>
            </barline>
        </measure>
    </part>
</score-partwise>
