<?xml version="1.0" encoding="UTF-8"?>
<!DOCTYPE score-partwise PUBLIC "-//Recordare//DTD MusicXML 2.0 Partwise//EN" "http://www.musicxml.org/dtds/partwise.dtd">
<score-partwise version="2.0">
    <work>
        <work-number></work-number>
        <work-title></work-title>
    </work>
    <movement-number></movement-number>
    <movement-title>Ainda bem</movement-title>
    <identification>
        <creator type="composer">Vanessa da Matta</creator>
        <creator type="poet"></creator>
        <rights>Creative Commons BY-NC-SA</rights>
        <encoding>
            <encoding-date>2012-05-05</encoding-date>
            <encoder>Murilo</encoder>
            <software>Sibelius 7.0.3</software>
            <software>Direct export, not from Dolet</software>
            <encoding-description>Sibelius / MusicXML 2.0</encoding-description>
            <supports value="yes" type="yes" element="print" attribute="new-system"/>
            <supports value="yes" type="yes" element="print" attribute="new-page"/>
            <supports type="yes" element="accidental"/>
            <supports type="yes" element="beam"/>
            <supports type="yes" element="stem"/>
            <software>ProxyMusic 2.0 c</software>
        </encoding>
        <source>http://wikifonia.org/node/15969/revisions/21272/view</source>
    </identification>
    <defaults>
        <scaling>
            <millimeters>210</millimeters>
            <tenths>1200</tenths>
        </scaling>
        <page-layout>
            <page-height>1697</page-height>
            <page-width>1200</page-width>
            <page-margins type="both">
                <left-margin>72</left-margin>
                <right-margin>72</right-margin>
                <top-margin>72</top-margin>
                <bottom-margin>72</bottom-margin>
            </page-margins>
        </page-layout>
        <system-layout>
            <system-margins>
                <left-margin>21</left-margin>
                <right-margin>0</right-margin>
            </system-margins>
            <system-distance>92</system-distance>
        </system-layout>
        <appearance>
            <line-width type="stem">0.9375</line-width>
            <line-width type="beam">5</line-width>
            <line-width type="staff">0.9375</line-width>
            <line-width type="light barline">1.5625</line-width>
            <line-width type="heavy barline">5</line-width>
            <line-width type="leger">1.5625</line-width>
            <line-width type="ending">1.5625</line-width>
            <line-width type="wedge">1.25</line-width>
            <line-width type="enclosure">0.9375</line-width>
            <line-width type="tuplet bracket">1.25</line-width>
            <line-width type="bracket">5</line-width>
            <line-width type="dashes">1.5625</line-width>
            <line-width type="extend">0.9375</line-width>
            <line-width type="octave shift">1.5625</line-width>
            <line-width type="pedal">1.5625</line-width>
            <line-width type="slur middle">1.5625</line-width>
            <line-width type="slur tip">0.625</line-width>
            <line-width type="tie middle">1.5625</line-width>
            <line-width type="tie tip">0.625</line-width>
            <note-size type="cue">75</note-size>
            <note-size type="grace">60</note-size>
        </appearance>
        <music-font font-size="19.8425" font-family="Opus Std"/>
        <lyric-font font-size="11.4715" font-family="Plantin MT Std"/>
        <lyric-language/>
    </defaults>
    <credit page="1">
        <credit-words font-weight="normal" font-style="normal" font-size="22.0128" font-family="Plantin MT Std" default-y="1561" default-x="600" justify="center" valign="middle">Ainda bem</credit-words>
    </credit>
    <credit page="1">
        <credit-words font-weight="normal" font-style="normal" font-size="11.0064" font-family="Plantin MT Std" default-y="1491" default-x="1127" justify="right" valign="middle">Vanessa da Matta</credit-words>
    </credit>
    <credit page="1">
        <credit-words font-weight="normal" font-style="normal" font-size="10.0763" font-family="Plantin MT Std" default-y="72" default-x="600" justify="center" valign="middle">Copyright © Murilo 2012</credit-words>
    </credit>
    <part-list>
        <score-part id="P1">
            <part-name>Violin</part-name>
            <part-name-display>
                <display-text>Violin</display-text>
            </part-name-display>
            <score-instrument id="P1-I1">
                <instrument-name>Violin</instrument-name>
            </score-instrument>
        </score-part>
    </part-list>
    <part id="P1">
        <measure width="258" number="1">
            <print new-page="yes">
                <system-layout>
                    <system-margins>
                        <left-margin>85</left-margin>
                        <right-margin>0</right-margin>
                    </system-margins>
                    <top-system-distance>218</top-system-distance>
                </system-layout>
            </print>
            <attributes>
                <divisions>256</divisions>
                <key color="#000000">
                    <fifths>1</fifths>
                    <mode>major</mode>
                </key>
                <time color="#000000">
                    <beats>4</beats>
                    <beat-type>4</beat-type>
                </time>
                <staves>1</staves>
                <clef color="#000000" number="1">
                    <sign>G</sign>
                    <line>2</line>
                </clef>
                <staff-details print-object="yes" number="1"/>
            </attributes>
            <harmony default-y="25" color="#000000">
                <root>
                    <root-step>G</root-step>
                </root>
                <kind>major</kind>
                <staff>1</staff>
            </harmony>
            <note default-x="88" color="#000000">
                <pitch>
                    <step>G</step>
                    <octave>4</octave>
                </pitch>
                <duration>256</duration>
                <instrument id="P1-I1"/>
                <voice>1</voice>
                <type>quarter</type>
                <stem>up</stem>
                <staff>1</staff>
            </note>
            <note default-x="125" color="#000000">
                <pitch>
                    <step>D</step>
                    <octave>5</octave>
                </pitch>
                <duration>512</duration>
                <instrument id="P1-I1"/>
                <voice>1</voice>
                <type>half</type>
                <stem>down</stem>
                <staff>1</staff>
            </note>
            <note default-x="189" color="#000000">
                <pitch>
                    <step>G</step>
                    <octave>4</octave>
                </pitch>
                <duration>64</duration>
                <instrument id="P1-I1"/>
                <voice>1</voice>
                <type>16th</type>
                <stem>up</stem>
                <staff>1</staff>
                <beam number="1">begin</beam>
            </note>
            <note default-x="210" color="#000000">
                <pitch>
                    <step>A</step>
                    <octave>4</octave>
                </pitch>
                <duration>64</duration>
                <instrument id="P1-I1"/>
                <voice>1</voice>
                <type>16th</type>
                <stem>up</stem>
                <staff>1</staff>
                <beam number="1">continue</beam>
            </note>
            <note default-x="230" color="#000000">
                <pitch>
                    <step>B</step>
                    <octave>4</octave>
                </pitch>
                <duration>128</duration>
                <instrument id="P1-I1"/>
                <voice>1</voice>
                <type>eighth</type>
                <stem>up</stem>
                <staff>1</staff>
                <beam number="1">end</beam>
            </note>
        </measure>
        <measure width="185" number="2">
            <harmony default-y="25" color="#000000">
                <root>
                    <root-step>B</root-step>
                </root>
                <kind>minor-seventh</kind>
                <staff>1</staff>
            </harmony>
            <note default-x="15" color="#000000">
                <pitch>
                    <step>A</step>
                    <octave>4</octave>
                </pitch>
                <duration>256</duration>
                <instrument id="P1-I1"/>
                <voice>1</voice>
                <type>quarter</type>
                <stem>up</stem>
                <staff>1</staff>
            </note>
            <note default-x="52" color="#000000">
                <pitch>
                    <step>D</step>
                    <octave>5</octave>
                </pitch>
                <duration>512</duration>
                <instrument id="P1-I1"/>
                <voice>1</voice>
                <type>half</type>
                <stem>down</stem>
                <staff>1</staff>
            </note>
            <note default-x="116" color="#000000">
                <pitch>
                    <step>G</step>
                    <octave>4</octave>
                </pitch>
                <duration>64</duration>
                <instrument id="P1-I1"/>
                <voice>1</voice>
                <type>16th</type>
                <stem>up</stem>
                <staff>1</staff>
                <beam number="1">begin</beam>
            </note>
            <note default-x="136" color="#000000">
                <pitch>
                    <step>A</step>
                    <octave>4</octave>
                </pitch>
                <duration>64</duration>
                <instrument id="P1-I1"/>
                <voice>1</voice>
                <type>16th</type>
                <stem>up</stem>
                <staff>1</staff>
                <beam number="1">continue</beam>
            </note>
            <note default-x="157" color="#000000">
                <pitch>
                    <step>B</step>
                    <octave>4</octave>
                </pitch>
                <duration>128</duration>
                <instrument id="P1-I1"/>
                <voice>1</voice>
                <type>eighth</type>
                <stem>up</stem>
                <staff>1</staff>
                <beam number="1">end</beam>
            </note>
        </measure>
        <measure width="153" number="3">
            <harmony default-y="25" color="#000000">
                <root>
                    <root-step>C</root-step>
                </root>
                <kind>major</kind>
                <staff>1</staff>
            </harmony>
            <note default-x="15" color="#000000">
                <pitch>
                    <step>A</step>
                    <octave>4</octave>
                </pitch>
                <duration>256</duration>
                <instrument id="P1-I1"/>
                <voice>1</voice>
                <type>quarter</type>
                <stem>up</stem>
                <staff>1</staff>
            </note>
            <note default-x="52" color="#000000">
                <pitch>
                    <step>B</step>
                    <octave>4</octave>
                </pitch>
                <duration>256</duration>
                <instrument id="P1-I1"/>
                <voice>1</voice>
                <type>quarter</type>
                <stem>down</stem>
                <staff>1</staff>
            </note>
            <note default-x="90" color="#000000">
                <pitch>
                    <step>G</step>
                    <octave>4</octave>
                </pitch>
                <duration>512</duration>
                <instrument id="P1-I1"/>
                <voice>1</voice>
                <type>half</type>
                <stem>up</stem>
                <staff>1</staff>
            </note>
        </measure>
        <measure width="176" number="4">
            <barline location="left">
                <ending type="start" number="1"></ending>
            </barline>
            <harmony default-y="25" color="#000000">
                <root>
                    <root-step>C</root-step>
                </root>
                <kind>minor-sixth</kind>
                <staff>1</staff>
            </harmony>
            <note default-x="15" color="#000000">
                <pitch>
                    <step>A</step>
                    <octave>4</octave>
                </pitch>
                <duration>256</duration>
                <instrument id="P1-I1"/>
                <voice>1</voice>
                <type>quarter</type>
                <stem>up</stem>
                <staff>1</staff>
            </note>
            <note default-x="52" color="#000000">
                <pitch>
                    <step>B</step>
                    <octave>4</octave>
                </pitch>
                <duration>256</duration>
                <instrument id="P1-I1"/>
                <voice>1</voice>
                <type>quarter</type>
                <stem>down</stem>
                <staff>1</staff>
            </note>
            <note default-x="90" color="#000000">
                <pitch>
                    <step>G</step>
                    <octave>4</octave>
                </pitch>
                <duration>512</duration>
                <instrument id="P1-I1"/>
                <voice>1</voice>
                <type>half</type>
                <stem>up</stem>
                <staff>1</staff>
            </note>
            <barline location="right">
                <ending type="stop" number="1"></ending>
                <repeat direction="backward"/>
            </barline>
        </measure>
        <measure width="196" number="5">
            <barline location="left">
                <ending type="start" number="2"></ending>
            </barline>
            <harmony default-y="25" color="#000000">
                <root>
                    <root-step>C</root-step>
                </root>
                <kind>minor-sixth</kind>
                <staff>1</staff>
            </harmony>
            <note default-x="15" color="#000000">
                <pitch>
                    <step>A</step>
                    <octave>4</octave>
                </pitch>
                <duration>256</duration>
                <instrument id="P1-I1"/>
                <voice>1</voice>
                <type>quarter</type>
                <stem>up</stem>
                <staff>1</staff>
            </note>
            <note default-x="52" color="#000000">
                <pitch>
                    <step>B</step>
                    <octave>4</octave>
                </pitch>
                <duration>256</duration>
                <instrument id="P1-I1"/>
                <voice>1</voice>
                <type>quarter</type>
                <stem>down</stem>
                <staff>1</staff>
            </note>
            <harmony default-y="25" color="#000000">
                <root>
                    <root-step>G</root-step>
                </root>
                <kind>major</kind>
                <staff>1</staff>
            </harmony>
            <note default-x="90" color="#000000">
                <pitch>
                    <step>G</step>
                    <octave>4</octave>
                </pitch>
                <duration>256</duration>
                <tie type="start"/>
                <instrument id="P1-I1"/>
                <voice>1</voice>
                <type>quarter</type>
                <stem>up</stem>
                <staff>1</staff>
                <notations>
                    <tied type="start"/>
                </notations>
            </note>
            <note default-x="127" color="#000000">
                <pitch>
                    <step>G</step>
                    <octave>4</octave>
                </pitch>
                <duration>64</duration>
                <tie type="stop"/>
                <instrument id="P1-I1"/>
                <voice>1</voice>
                <type>16th</type>
                <stem>down</stem>
                <staff>1</staff>
                <beam number="1">begin</beam>
                <notations>
                    <tied type="stop"/>
                </notations>
            </note>
            <note default-x="148" color="#000000">
                <pitch>
                    <step>D</step>
                    <octave>5</octave>
                </pitch>
                <duration>64</duration>
                <instrument id="P1-I1"/>
                <voice>1</voice>
                <type>16th</type>
                <stem>down</stem>
                <staff>1</staff>
                <beam number="1">continue</beam>
            </note>
            <note default-x="169" color="#000000">
                <pitch>
                    <step>G</step>
                    <octave>5</octave>
                </pitch>
                <duration>128</duration>
                <instrument id="P1-I1"/>
                <voice>1</voice>
                <type>eighth</type>
                <stem>down</stem>
                <staff>1</staff>
                <beam number="1">end</beam>
            </note>
            <barline location="right">
                <ending type="discontinue" number="2"></ending>
            </barline>
        </measure>
        <measure width="295" number="6">
            <print new-system="yes">
                <system-layout>
                    <system-margins>
                        <left-margin>22</left-margin>
                        <right-margin>0</right-margin>
                    </system-margins>
                    <system-distance>92</system-distance>
                </system-layout>
            </print>
            <attributes>
                <staff-details print-object="yes" number="1"/>
            </attributes>
            <harmony default-y="25" color="#000000">
                <root>
                    <root-step>G</root-step>
                </root>
                <kind>major-seventh</kind>
                <staff>1</staff>
            </harmony>
            <note default-x="70" color="#000000">
                <pitch>
                    <step>F</step>
                    <alter>1</alter>
                    <octave>5</octave>
                </pitch>
                <duration>256</duration>
                <instrument id="P1-I1"/>
                <voice>1</voice>
                <type>quarter</type>
                <stem>down</stem>
                <staff>1</staff>
            </note>
            <note default-x="107" color="#000000">
                <pitch>
                    <step>D</step>
                    <octave>5</octave>
                </pitch>
                <duration>256</duration>
                <tie type="start"/>
                <instrument id="P1-I1"/>
                <voice>1</voice>
                <type>quarter</type>
                <stem>down</stem>
                <staff>1</staff>
                <notations>
                    <tied type="start"/>
                </notations>
            </note>
            <note default-x="144" color="#000000">
                <pitch>
                    <step>D</step>
                    <octave>5</octave>
                </pitch>
                <duration>64</duration>
                <tie type="stop"/>
                <instrument id="P1-I1"/>
                <voice>1</voice>
                <type>16th</type>
                <stem>down</stem>
                <staff>1</staff>
                <beam number="1">begin</beam>
                <notations>
                    <tied type="stop"/>
                </notations>
            </note>
            <note default-x="165" color="#000000">
                <pitch>
                    <step>B</step>
                    <octave>4</octave>
                </pitch>
                <duration>64</duration>
                <instrument id="P1-I1"/>
                <voice>1</voice>
                <type>16th</type>
                <stem>down</stem>
                <staff>1</staff>
                <beam number="1">continue</beam>
            </note>
            <note default-x="186" color="#000000">
                <pitch>
                    <step>E</step>
                    <octave>5</octave>
                </pitch>
                <duration>64</duration>
                <instrument id="P1-I1"/>
                <voice>1</voice>
                <type>16th</type>
                <stem>down</stem>
                <staff>1</staff>
                <beam number="1">continue</beam>
            </note>
            <note default-x="206" color="#000000">
                <pitch>
                    <step>D</step>
                    <octave>5</octave>
                </pitch>
                <duration>64</duration>
                <instrument id="P1-I1"/>
                <voice>1</voice>
                <type>16th</type>
                <stem>down</stem>
                <staff>1</staff>
                <beam number="1">end</beam>
            </note>
            <note default-x="227" color="#000000">
                <pitch>
                    <step>B</step>
                    <octave>4</octave>
                </pitch>
                <duration>64</duration>
                <instrument id="P1-I1"/>
                <voice>1</voice>
                <type>16th</type>
                <stem>up</stem>
                <staff>1</staff>
                <beam number="1">begin</beam>
            </note>
            <note default-x="248" color="#000000">
                <pitch>
                    <step>A</step>
                    <octave>4</octave>
                </pitch>
                <duration>64</duration>
                <instrument id="P1-I1"/>
                <voice>1</voice>
                <type>16th</type>
                <stem>up</stem>
                <staff>1</staff>
                <beam number="1">continue</beam>
            </note>
            <note default-x="269" color="#000000">
                <pitch>
                    <step>G</step>
                    <octave>4</octave>
                </pitch>
                <duration>128</duration>
                <instrument id="P1-I1"/>
                <voice>1</voice>
                <type>eighth</type>
                <stem>up</stem>
                <staff>1</staff>
                <beam number="1">end</beam>
            </note>
        </measure>
        <measure width="184" number="7">
            <note default-x="15" color="#000000">
                <pitch>
                    <step>A</step>
                    <octave>4</octave>
                </pitch>
                <duration>256</duration>
                <instrument id="P1-I1"/>
                <voice>1</voice>
                <type>quarter</type>
                <stem>up</stem>
                <staff>1</staff>
            </note>
            <note default-x="52" color="#000000">
                <pitch>
                    <step>D</step>
                    <octave>5</octave>
                </pitch>
                <duration>512</duration>
                <tie type="start"/>
                <instrument id="P1-I1"/>
                <voice>1</voice>
                <type>half</type>
                <stem>down</stem>
                <staff>1</staff>
                <notations>
                    <tied type="start"/>
                </notations>
            </note>
            <note default-x="115" color="#000000">
                <pitch>
                    <step>D</step>
                    <octave>5</octave>
                </pitch>
                <duration>64</duration>
                <tie type="stop"/>
                <instrument id="P1-I1"/>
                <voice>1</voice>
                <type>16th</type>
                <stem>down</stem>
                <staff>1</staff>
                <beam number="1">begin</beam>
                <notations>
                    <tied type="stop"/>
                </notations>
            </note>
            <note default-x="136" color="#000000">
                <pitch>
                    <step>D</step>
                    <octave>5</octave>
                </pitch>
                <duration>64</duration>
                <instrument id="P1-I1"/>
                <voice>1</voice>
                <type>16th</type>
                <stem>down</stem>
                <staff>1</staff>
                <beam number="1">continue</beam>
            </note>
            <note default-x="157" color="#000000">
                <pitch>
                    <step>G</step>
                    <octave>5</octave>
                </pitch>
                <duration>128</duration>
                <instrument id="P1-I1"/>
                <voice>1</voice>
                <type>eighth</type>
                <stem>down</stem>
                <staff>1</staff>
                <beam number="1">end</beam>
            </note>
        </measure>
        <measure width="240" number="8">
            <note default-x="15" color="#000000">
                <pitch>
                    <step>F</step>
                    <alter>1</alter>
                    <octave>5</octave>
                </pitch>
                <duration>256</duration>
                <instrument id="P1-I1"/>
                <voice>1</voice>
                <type>quarter</type>
                <stem>down</stem>
                <staff>1</staff>
            </note>
            <note default-x="52" color="#000000">
                <pitch>
                    <step>D</step>
                    <octave>5</octave>
                </pitch>
                <duration>256</duration>
                <tie type="start"/>
                <instrument id="P1-I1"/>
                <voice>1</voice>
                <type>quarter</type>
                <stem>down</stem>
                <staff>1</staff>
                <notations>
                    <tied type="start"/>
                </notations>
            </note>
            <note default-x="89" color="#000000">
                <pitch>
                    <step>D</step>
                    <octave>5</octave>
                </pitch>
                <duration>64</duration>
                <tie type="stop"/>
                <instrument id="P1-I1"/>
                <voice>1</voice>
                <type>16th</type>
                <stem>down</stem>
                <staff>1</staff>
                <beam number="1">begin</beam>
                <notations>
                    <tied type="stop"/>
                </notations>
            </note>
            <note default-x="110" color="#000000">
                <pitch>
                    <step>B</step>
                    <octave>4</octave>
                </pitch>
                <duration>64</duration>
                <instrument id="P1-I1"/>
                <voice>1</voice>
                <type>16th</type>
                <stem>down</stem>
                <staff>1</staff>
                <beam number="1">continue</beam>
            </note>
            <note default-x="131" color="#000000">
                <pitch>
                    <step>B</step>
                    <octave>4</octave>
                </pitch>
                <duration>64</duration>
                <instrument id="P1-I1"/>
                <voice>1</voice>
                <type>16th</type>
                <stem>down</stem>
                <staff>1</staff>
                <beam number="1">continue</beam>
            </note>
            <note default-x="151" color="#000000">
                <pitch>
                    <step>B</step>
                    <octave>4</octave>
                </pitch>
                <duration>64</duration>
                <instrument id="P1-I1"/>
                <voice>1</voice>
                <type>16th</type>
                <stem>down</stem>
                <staff>1</staff>
                <beam number="1">end</beam>
            </note>
            <note default-x="172" color="#000000">
                <pitch>
                    <step>B</step>
                    <octave>4</octave>
                </pitch>
                <duration>64</duration>
                <instrument id="P1-I1"/>
                <voice>1</voice>
                <type>16th</type>
                <stem>up</stem>
                <staff>1</staff>
                <beam number="1">begin</beam>
            </note>
            <note default-x="193" color="#000000">
                <pitch>
                    <step>A</step>
                    <octave>4</octave>
                </pitch>
                <duration>64</duration>
                <instrument id="P1-I1"/>
                <voice>1</voice>
                <type>16th</type>
                <stem>up</stem>
                <staff>1</staff>
                <beam number="1">continue</beam>
            </note>
            <note default-x="214" color="#000000">
                <pitch>
                    <step>G</step>
                    <octave>4</octave>
                </pitch>
                <duration>128</duration>
                <instrument id="P1-I1"/>
                <voice>1</voice>
                <type>eighth</type>
                <stem>up</stem>
                <staff>1</staff>
                <beam number="1">end</beam>
            </note>
        </measure>
        <measure width="167" number="9">
            <harmony default-y="25" color="#000000">
                <root>
                    <root-step>B</root-step>
                </root>
                <kind>minor-seventh</kind>
                <staff>1</staff>
            </harmony>
            <note default-x="15" color="#000000">
                <pitch>
                    <step>A</step>
                    <octave>4</octave>
                </pitch>
                <duration>256</duration>
                <instrument id="P1-I1"/>
                <voice>1</voice>
                <type>quarter</type>
                <stem>up</stem>
                <staff>1</staff>
            </note>
            <note default-x="52" color="#000000">
                <pitch>
                    <step>F</step>
                    <alter>1</alter>
                    <octave>5</octave>
                </pitch>
                <duration>256</duration>
                <tie type="start"/>
                <instrument id="P1-I1"/>
                <voice>1</voice>
                <type>quarter</type>
                <stem>down</stem>
                <staff>1</staff>
                <notations>
                    <tied type="start"/>
                </notations>
            </note>
            <note default-x="90" color="#000000">
                <pitch>
                    <step>F</step>
                    <alter>1</alter>
                    <octave>5</octave>
                </pitch>
                <duration>384</duration>
                <tie type="stop"/>
                <instrument id="P1-I1"/>
                <voice>1</voice>
                <type>quarter</type>
                <dot/>
                <stem>down</stem>
                <staff>1</staff>
                <notations>
                    <tied type="stop"/>
                </notations>
            </note>
            <note default-x="140" color="#000000">
                <pitch>
                    <step>G</step>
                    <octave>5</octave>
                </pitch>
                <duration>128</duration>
                <instrument id="P1-I1"/>
                <voice>1</voice>
                <type>eighth</type>
                <stem>down</stem>
                <staff>1</staff>
            </note>
        </measure>
        <measure width="144" number="10">
            <harmony default-y="25" color="#000000">
                <root>
                    <root-step>C</root-step>
                </root>
                <kind>major</kind>
                <staff>1</staff>
            </harmony>
            <note default-x="15" color="#000000">
                <pitch>
                    <step>E</step>
                    <octave>5</octave>
                </pitch>
                <duration>768</duration>
                <tie type="start"/>
                <instrument id="P1-I1"/>
                <voice>1</voice>
                <type>half</type>
                <dot/>
                <stem>down</stem>
                <staff>1</staff>
                <notations>
                    <tied type="start"/>
                </notations>
            </note>
            <note default-x="90" color="#000000">
                <pitch>
                    <step>E</step>
                    <octave>5</octave>
                </pitch>
                <duration>128</duration>
                <tie type="stop"/>
                <instrument id="P1-I1"/>
                <voice>1</voice>
                <type>eighth</type>
                <stem>down</stem>
                <staff>1</staff>
                <beam number="1">begin</beam>
                <notations>
                    <tied type="stop"/>
                </notations>
            </note>
            <note default-x="117" color="#000000">
                <pitch>
                    <step>G</step>
                    <octave>5</octave>
                </pitch>
                <duration>128</duration>
                <instrument id="P1-I1"/>
                <voice>1</voice>
                <type>eighth</type>
                <stem>down</stem>
                <staff>1</staff>
                <beam number="1">end</beam>
            </note>
        </measure>
        <measure width="208" number="11">
            <print new-system="yes">
                <system-layout>
                    <system-margins>
                        <left-margin>22</left-margin>
                        <right-margin>0</right-margin>
                    </system-margins>
                    <system-distance>92</system-distance>
                </system-layout>
            </print>
            <attributes>
                <staff-details print-object="yes" number="1"/>
            </attributes>
            <harmony default-y="25" color="#000000">
                <root>
                    <root-step>C</root-step>
                </root>
                <kind>minor-sixth</kind>
                <staff>1</staff>
            </harmony>
            <note default-x="70" color="#000000">
                <pitch>
                    <step>E</step>
                    <alter>-1</alter>
                    <octave>5</octave>
                </pitch>
                <duration>768</duration>
                <tie type="start"/>
                <instrument id="P1-I1"/>
                <voice>1</voice>
                <type>half</type>
                <dot/>
                <accidental>flat</accidental>
                <stem>down</stem>
                <staff>1</staff>
                <notations>
                    <tied type="start"/>
                </notations>
            </note>
            <harmony default-y="25" color="#000000">
                <root>
                    <root-step>G</root-step>
                </root>
                <kind>major</kind>
                <staff>1</staff>
            </harmony>
            <note default-x="142" color="#000000">
                <pitch>
                    <step>E</step>
                    <alter>-1</alter>
                    <octave>5</octave>
                </pitch>
                <duration>64</duration>
                <tie type="stop"/>
                <instrument id="P1-I1"/>
                <voice>1</voice>
                <type>16th</type>
                <stem>down</stem>
                <staff>1</staff>
                <beam number="1">begin</beam>
                <notations>
                    <tied type="stop"/>
                </notations>
            </note>
            <note default-x="162" color="#000000">
                <pitch>
                    <step>D</step>
                    <octave>5</octave>
                </pitch>
                <duration>64</duration>
                <instrument id="P1-I1"/>
                <voice>1</voice>
                <type>16th</type>
                <stem>down</stem>
                <staff>1</staff>
                <beam number="1">continue</beam>
            </note>
            <note default-x="182" color="#000000">
                <pitch>
                    <step>G</step>
                    <octave>5</octave>
                </pitch>
                <duration>128</duration>
                <instrument id="P1-I1"/>
                <voice>1</voice>
                <type>eighth</type>
                <stem>down</stem>
                <staff>1</staff>
                <beam number="1">end</beam>
            </note>
        </measure>
        <measure width="254" number="12">
            <harmony default-y="25" color="#000000">
                <root>
                    <root-step>G</root-step>
                </root>
                <kind>major-seventh</kind>
                <staff>1</staff>
            </harmony>
            <note default-x="15" color="#000000">
                <pitch>
                    <step>F</step>
                    <alter>1</alter>
                    <octave>5</octave>
                </pitch>
                <duration>128</duration>
                <instrument id="P1-I1"/>
                <voice>1</voice>
                <type>eighth</type>
                <stem>down</stem>
                <staff>1</staff>
                <beam number="1">begin</beam>
            </note>
            <note default-x="40" color="#000000">
                <pitch>
                    <step>D</step>
                    <octave>5</octave>
                </pitch>
                <duration>128</duration>
                <tie type="start"/>
                <instrument id="P1-I1"/>
                <voice>1</voice>
                <type>eighth</type>
                <stem>down</stem>
                <staff>1</staff>
                <beam number="1">end</beam>
                <notations>
                    <tied type="start"/>
                </notations>
            </note>
            <note default-x="66" color="#000000">
                <pitch>
                    <step>D</step>
                    <octave>5</octave>
                </pitch>
                <duration>256</duration>
                <tie type="stop"/>
                <tie type="start"/>
                <instrument id="P1-I1"/>
                <voice>1</voice>
                <type>quarter</type>
                <stem>down</stem>
                <staff>1</staff>
                <notations>
                    <tied type="stop"/>
                    <tied type="start"/>
                </notations>
            </note>
            <note default-x="102" color="#000000">
                <pitch>
                    <step>D</step>
                    <octave>5</octave>
                </pitch>
                <duration>64</duration>
                <tie type="stop"/>
                <instrument id="P1-I1"/>
                <voice>1</voice>
                <type>16th</type>
                <stem>down</stem>
                <staff>1</staff>
                <beam number="1">begin</beam>
                <notations>
                    <tied type="stop"/>
                </notations>
            </note>
            <note default-x="122" color="#000000">
                <pitch>
                    <step>B</step>
                    <octave>4</octave>
                </pitch>
                <duration>64</duration>
                <instrument id="P1-I1"/>
                <voice>1</voice>
                <type>16th</type>
                <stem>down</stem>
                <staff>1</staff>
                <beam number="1">continue</beam>
            </note>
            <note default-x="148" color="#000000">
                <pitch>
                    <step>E</step>
                    <octave>5</octave>
                </pitch>
                <duration>64</duration>
                <instrument id="P1-I1"/>
                <voice>1</voice>
                <type>16th</type>
                <accidental>natural</accidental>
                <stem>down</stem>
                <staff>1</staff>
                <beam number="1">continue</beam>
            </note>
            <note default-x="168" color="#000000">
                <pitch>
                    <step>D</step>
                    <octave>5</octave>
                </pitch>
                <duration>64</duration>
                <instrument id="P1-I1"/>
                <voice>1</voice>
                <type>16th</type>
                <stem>down</stem>
                <staff>1</staff>
                <beam number="1">end</beam>
            </note>
            <note default-x="188" color="#000000">
                <pitch>
                    <step>B</step>
                    <octave>4</octave>
                </pitch>
                <duration>64</duration>
                <instrument id="P1-I1"/>
                <voice>1</voice>
                <type>16th</type>
                <stem>up</stem>
                <staff>1</staff>
                <beam number="1">begin</beam>
            </note>
            <note default-x="208" color="#000000">
                <pitch>
                    <step>A</step>
                    <octave>4</octave>
                </pitch>
                <duration>64</duration>
                <instrument id="P1-I1"/>
                <voice>1</voice>
                <type>16th</type>
                <stem>up</stem>
                <staff>1</staff>
                <beam number="1">continue</beam>
            </note>
            <note default-x="228" color="#000000">
                <pitch>
                    <step>G</step>
                    <octave>4</octave>
                </pitch>
                <duration>128</duration>
                <instrument id="P1-I1"/>
                <voice>1</voice>
                <type>eighth</type>
                <stem>up</stem>
                <staff>1</staff>
                <beam number="1">end</beam>
            </note>
        </measure>
        <measure width="177" number="13">
            <note default-x="15" color="#000000">
                <pitch>
                    <step>A</step>
                    <octave>4</octave>
                </pitch>
                <duration>256</duration>
                <instrument id="P1-I1"/>
                <voice>1</voice>
                <type>quarter</type>
                <stem>up</stem>
                <staff>1</staff>
            </note>
            <note default-x="50" color="#000000">
                <pitch>
                    <step>D</step>
                    <octave>5</octave>
                </pitch>
                <duration>512</duration>
                <tie type="start"/>
                <instrument id="P1-I1"/>
                <voice>1</voice>
                <type>half</type>
                <stem>down</stem>
                <staff>1</staff>
                <notations>
                    <tied type="start"/>
                </notations>
            </note>
            <note default-x="111" color="#000000">
                <pitch>
                    <step>D</step>
                    <octave>5</octave>
                </pitch>
                <duration>64</duration>
                <tie type="stop"/>
                <instrument id="P1-I1"/>
                <voice>1</voice>
                <type>16th</type>
                <stem>down</stem>
                <staff>1</staff>
                <beam number="1">begin</beam>
                <notations>
                    <tied type="stop"/>
                </notations>
            </note>
            <note default-x="131" color="#000000">
                <pitch>
                    <step>D</step>
                    <octave>5</octave>
                </pitch>
                <duration>64</duration>
                <instrument id="P1-I1"/>
                <voice>1</voice>
                <type>16th</type>
                <stem>down</stem>
                <staff>1</staff>
                <beam number="1">continue</beam>
            </note>
            <note default-x="151" color="#000000">
                <pitch>
                    <step>G</step>
                    <octave>5</octave>
                </pitch>
                <duration>128</duration>
                <instrument id="P1-I1"/>
                <voice>1</voice>
                <type>eighth</type>
                <stem>down</stem>
                <staff>1</staff>
                <beam number="1">end</beam>
            </note>
        </measure>
        <measure width="231" number="14">
            <note default-x="15" color="#000000">
                <pitch>
                    <step>F</step>
                    <alter>1</alter>
                    <octave>5</octave>
                </pitch>
                <duration>256</duration>
                <instrument id="P1-I1"/>
                <voice>1</voice>
                <type>quarter</type>
                <stem>down</stem>
                <staff>1</staff>
            </note>
            <note default-x="50" color="#000000">
                <pitch>
                    <step>D</step>
                    <octave>5</octave>
                </pitch>
                <duration>256</duration>
                <tie type="start"/>
                <instrument id="P1-I1"/>
                <voice>1</voice>
                <type>quarter</type>
                <stem>down</stem>
                <staff>1</staff>
                <notations>
                    <tied type="start"/>
                </notations>
            </note>
            <note default-x="86" color="#000000">
                <pitch>
                    <step>D</step>
                    <octave>5</octave>
                </pitch>
                <duration>64</duration>
                <tie type="stop"/>
                <instrument id="P1-I1"/>
                <voice>1</voice>
                <type>16th</type>
                <stem>down</stem>
                <staff>1</staff>
                <beam number="1">begin</beam>
                <notations>
                    <tied type="stop"/>
                </notations>
            </note>
            <note default-x="106" color="#000000">
                <pitch>
                    <step>B</step>
                    <octave>4</octave>
                </pitch>
                <duration>64</duration>
                <instrument id="P1-I1"/>
                <voice>1</voice>
                <type>16th</type>
                <stem>down</stem>
                <staff>1</staff>
                <beam number="1">continue</beam>
            </note>
            <note default-x="126" color="#000000">
                <pitch>
                    <step>B</step>
                    <octave>4</octave>
                </pitch>
                <duration>64</duration>
                <instrument id="P1-I1"/>
                <voice>1</voice>
                <type>16th</type>
                <stem>down</stem>
                <staff>1</staff>
                <beam number="1">continue</beam>
            </note>
            <note default-x="146" color="#000000">
                <pitch>
                    <step>B</step>
                    <octave>4</octave>
                </pitch>
                <duration>64</duration>
                <instrument id="P1-I1"/>
                <voice>1</voice>
                <type>16th</type>
                <stem>down</stem>
                <staff>1</staff>
                <beam number="1">end</beam>
            </note>
            <note default-x="166" color="#000000">
                <pitch>
                    <step>B</step>
                    <octave>4</octave>
                </pitch>
                <duration>64</duration>
                <instrument id="P1-I1"/>
                <voice>1</voice>
                <type>16th</type>
                <stem>up</stem>
                <staff>1</staff>
                <beam number="1">begin</beam>
            </note>
            <note default-x="186" color="#000000">
                <pitch>
                    <step>A</step>
                    <octave>4</octave>
                </pitch>
                <duration>64</duration>
                <instrument id="P1-I1"/>
                <voice>1</voice>
                <type>16th</type>
                <stem>up</stem>
                <staff>1</staff>
                <beam number="1">continue</beam>
            </note>
            <note default-x="205" color="#000000">
                <pitch>
                    <step>G</step>
                    <octave>4</octave>
                </pitch>
                <duration>128</duration>
                <instrument id="P1-I1"/>
                <voice>1</voice>
                <type>eighth</type>
                <stem>up</stem>
                <staff>1</staff>
                <beam number="1">end</beam>
            </note>
        </measure>
        <measure width="161" number="15">
            <harmony default-y="25" color="#000000">
                <root>
                    <root-step>B</root-step>
                </root>
                <kind>minor-seventh</kind>
                <staff>1</staff>
            </harmony>
            <note default-x="15" color="#000000">
                <pitch>
                    <step>A</step>
                    <octave>4</octave>
                </pitch>
                <duration>256</duration>
                <instrument id="P1-I1"/>
                <voice>1</voice>
                <type>quarter</type>
                <stem>up</stem>
                <staff>1</staff>
            </note>
            <note default-x="50" color="#000000">
                <pitch>
                    <step>F</step>
                    <alter>1</alter>
                    <octave>5</octave>
                </pitch>
                <duration>256</duration>
                <tie type="start"/>
                <instrument id="P1-I1"/>
                <voice>1</voice>
                <type>quarter</type>
                <stem>down</stem>
                <staff>1</staff>
                <notations>
                    <tied type="start"/>
                </notations>
            </note>
            <note default-x="86" color="#000000">
                <pitch>
                    <step>F</step>
                    <alter>1</alter>
                    <octave>5</octave>
                </pitch>
                <duration>384</duration>
                <tie type="stop"/>
                <instrument id="P1-I1"/>
                <voice>1</voice>
                <type>quarter</type>
                <dot/>
                <stem>down</stem>
                <staff>1</staff>
                <notations>
                    <tied type="stop"/>
                </notations>
            </note>
            <note default-x="135" color="#000000">
                <pitch>
                    <step>G</step>
                    <octave>5</octave>
                </pitch>
                <duration>128</duration>
                <instrument id="P1-I1"/>
                <voice>1</voice>
                <type>eighth</type>
                <stem>down</stem>
                <staff>1</staff>
            </note>
        </measure>
        <measure width="233" number="16">
            <print new-system="yes">
                <system-layout>
                    <system-margins>
                        <left-margin>22</left-margin>
                        <right-margin>0</right-margin>
                    </system-margins>
                    <system-distance>92</system-distance>
                </system-layout>
            </print>
            <attributes>
                <staff-details print-object="yes" number="1"/>
            </attributes>
            <harmony default-y="25" color="#000000">
                <root>
                    <root-step>C</root-step>
                </root>
                <kind>major</kind>
                <staff>1</staff>
            </harmony>
            <note default-x="70" color="#000000">
                <pitch>
                    <step>E</step>
                    <octave>5</octave>
                </pitch>
                <duration>768</duration>
                <tie type="start"/>
                <instrument id="P1-I1"/>
                <voice>1</voice>
                <type>half</type>
                <dot/>
                <stem>down</stem>
                <staff>1</staff>
                <notations>
                    <tied type="start"/>
                </notations>
            </note>
            <note default-x="165" color="#000000">
                <pitch>
                    <step>E</step>
                    <octave>5</octave>
                </pitch>
                <duration>128</duration>
                <tie type="stop"/>
                <instrument id="P1-I1"/>
                <voice>1</voice>
                <type>eighth</type>
                <stem>down</stem>
                <staff>1</staff>
                <beam number="1">begin</beam>
                <notations>
                    <tied type="stop"/>
                </notations>
            </note>
            <note default-x="199" color="#000000">
                <pitch>
                    <step>G</step>
                    <octave>5</octave>
                </pitch>
                <duration>128</duration>
                <instrument id="P1-I1"/>
                <voice>1</voice>
                <type>eighth</type>
                <stem>down</stem>
                <staff>1</staff>
                <beam number="1">end</beam>
            </note>
        </measure>
        <measure width="176" number="17">
            <harmony default-y="25" color="#000000">
                <root>
                    <root-step>C</root-step>
                </root>
                <kind>minor-sixth</kind>
                <staff>1</staff>
            </harmony>
            <note default-x="15" color="#000000">
                <pitch>
                    <step>E</step>
                    <alter>-1</alter>
                    <octave>5</octave>
                </pitch>
                <duration>768</duration>
                <tie type="start"/>
                <instrument id="P1-I1"/>
                <voice>1</voice>
                <type>half</type>
                <dot/>
                <accidental>flat</accidental>
                <stem>down</stem>
                <staff>1</staff>
                <notations>
                    <tied type="start"/>
                </notations>
            </note>
            <note default-x="110" color="#000000">
                <pitch>
                    <step>E</step>
                    <alter>-1</alter>
                    <octave>5</octave>
                </pitch>
                <duration>192</duration>
                <tie type="stop"/>
                <instrument id="P1-I1"/>
                <voice>1</voice>
                <type>eighth</type>
                <dot/>
                <stem>down</stem>
                <staff>1</staff>
                <beam number="1">begin</beam>
                <notations>
                    <tied type="stop"/>
                </notations>
            </note>
            <note default-x="150" color="#000000">
                <pitch>
                    <step>D</step>
                    <octave>5</octave>
                </pitch>
                <duration>64</duration>
                <instrument id="P1-I1"/>
                <voice>1</voice>
                <type>16th</type>
                <stem>down</stem>
                <staff>1</staff>
                <beam number="1">end</beam>
            </note>
        </measure>
        <measure width="302" number="18">
            <harmony default-y="25" color="#000000">
                <root>
                    <root-step>G</root-step>
                </root>
                <kind>major</kind>
                <staff>1</staff>
            </harmony>
            <note default-x="15" color="#000000">
                <pitch>
                    <step>A</step>
                    <octave>5</octave>
                </pitch>
                <duration>64</duration>
                <instrument id="P1-I1"/>
                <voice>1</voice>
                <type>16th</type>
                <stem>down</stem>
                <staff>1</staff>
                <beam number="1">begin</beam>
            </note>
            <note default-x="40" color="#000000">
                <pitch>
                    <step>A</step>
                    <octave>5</octave>
                </pitch>
                <duration>128</duration>
                <instrument id="P1-I1"/>
                <voice>1</voice>
                <type>eighth</type>
                <stem>down</stem>
                <staff>1</staff>
                <beam number="1">continue</beam>
            </note>
            <note default-x="75" color="#000000">
                <pitch>
                    <step>A</step>
                    <octave>5</octave>
                </pitch>
                <duration>64</duration>
                <instrument id="P1-I1"/>
                <voice>1</voice>
                <type>16th</type>
                <stem>down</stem>
                <staff>1</staff>
                <beam number="1">end</beam>
            </note>
            <note default-x="100" color="#000000">
                <pitch>
                    <step>A</step>
                    <octave>5</octave>
                </pitch>
                <duration>64</duration>
                <instrument id="P1-I1"/>
                <voice>1</voice>
                <type>16th</type>
                <stem>down</stem>
                <staff>1</staff>
                <beam number="1">begin</beam>
            </note>
            <note default-x="127" color="#000000">
                <pitch>
                    <step>G</step>
                    <octave>5</octave>
                </pitch>
                <duration>64</duration>
                <instrument id="P1-I1"/>
                <voice>1</voice>
                <type>16th</type>
                <stem>down</stem>
                <staff>1</staff>
                <beam number="1">continue</beam>
            </note>
            <note default-x="153" color="#000000">
                <pitch>
                    <step>E</step>
                    <octave>5</octave>
                </pitch>
                <duration>128</duration>
                <instrument id="P1-I1"/>
                <voice>1</voice>
                <type>eighth</type>
                <accidental>natural</accidental>
                <stem>down</stem>
                <staff>1</staff>
                <beam number="1">end</beam>
            </note>
            <note default-x="187" color="#000000">
                <pitch>
                    <step>A</step>
                    <octave>5</octave>
                </pitch>
                <duration>128</duration>
                <instrument id="P1-I1"/>
                <voice>1</voice>
                <type>eighth</type>
                <stem>down</stem>
                <staff>1</staff>
            </note>
            <note default-x="221" color="#000000">
                <pitch>
                    <step>A</step>
                    <octave>5</octave>
                </pitch>
                <duration>256</duration>
                <instrument id="P1-I1"/>
                <voice>1</voice>
                <type>quarter</type>
                <stem>down</stem>
                <staff>1</staff>
            </note>
            <note default-x="268" color="#000000">
                <pitch>
                    <step>E</step>
                    <octave>5</octave>
                </pitch>
                <duration>128</duration>
                <instrument id="P1-I1"/>
                <voice>1</voice>
                <type>eighth</type>
                <stem>down</stem>
                <staff>1</staff>
            </note>
        </measure>
        <measure width="320" number="19">
            <harmony default-y="25" color="#000000">
                <root>
                    <root-step>B</root-step>
                </root>
                <kind>minor-seventh</kind>
                <staff>1</staff>
            </harmony>
            <note default-x="15" color="#000000">
                <pitch>
                    <step>A</step>
                    <octave>5</octave>
                </pitch>
                <duration>64</duration>
                <instrument id="P1-I1"/>
                <voice>1</voice>
                <type>16th</type>
                <stem>down</stem>
                <staff>1</staff>
                <beam number="1">begin</beam>
            </note>
            <note default-x="40" color="#000000">
                <pitch>
                    <step>A</step>
                    <octave>5</octave>
                </pitch>
                <duration>128</duration>
                <instrument id="P1-I1"/>
                <voice>1</voice>
                <type>eighth</type>
                <stem>down</stem>
                <staff>1</staff>
                <beam number="1">continue</beam>
            </note>
            <note default-x="75" color="#000000">
                <pitch>
                    <step>A</step>
                    <octave>5</octave>
                </pitch>
                <duration>64</duration>
                <instrument id="P1-I1"/>
                <voice>1</voice>
                <type>16th</type>
                <stem>down</stem>
                <staff>1</staff>
                <beam number="1">end</beam>
            </note>
            <note default-x="101" color="#000000">
                <pitch>
                    <step>A</step>
                    <octave>5</octave>
                </pitch>
                <duration>64</duration>
                <instrument id="P1-I1"/>
                <voice>1</voice>
                <type>16th</type>
                <stem>down</stem>
                <staff>1</staff>
                <beam number="1">begin</beam>
            </note>
            <note default-x="127" color="#000000">
                <pitch>
                    <step>B</step>
                    <octave>5</octave>
                </pitch>
                <duration>64</duration>
                <instrument id="P1-I1"/>
                <voice>1</voice>
                <type>16th</type>
                <stem>down</stem>
                <staff>1</staff>
                <beam number="1">continue</beam>
            </note>
            <note default-x="153" color="#000000">
                <pitch>
                    <step>A</step>
                    <octave>5</octave>
                </pitch>
                <duration>64</duration>
                <instrument id="P1-I1"/>
                <voice>1</voice>
                <type>16th</type>
                <stem>down</stem>
                <staff>1</staff>
                <beam number="1">continue</beam>
            </note>
            <note default-x="179" color="#000000">
                <pitch>
                    <step>G</step>
                    <octave>5</octave>
                </pitch>
                <duration>64</duration>
                <instrument id="P1-I1"/>
                <voice>1</voice>
                <type>16th</type>
                <stem>down</stem>
                <staff>1</staff>
                <beam number="1">end</beam>
            </note>
            <note default-x="205" color="#000000">
                <pitch>
                    <step>E</step>
                    <octave>5</octave>
                </pitch>
                <duration>256</duration>
                <tie type="start"/>
                <instrument id="P1-I1"/>
                <voice>1</voice>
                <type>quarter</type>
                <stem>down</stem>
                <staff>1</staff>
                <notations>
                    <tied type="start"/>
                </notations>
            </note>
            <note default-x="252" color="#000000">
                <pitch>
                    <step>E</step>
                    <octave>5</octave>
                </pitch>
                <duration>128</duration>
                <tie type="stop"/>
                <instrument id="P1-I1"/>
                <voice>1</voice>
                <type>eighth</type>
                <stem>down</stem>
                <staff>1</staff>
                <beam number="1">begin</beam>
                <notations>
                    <tied type="stop"/>
                </notations>
            </note>
            <note default-x="286" color="#000000">
                <pitch>
                    <step>E</step>
                    <octave>5</octave>
                </pitch>
                <duration>128</duration>
                <instrument id="P1-I1"/>
                <voice>1</voice>
                <type>eighth</type>
                <stem>down</stem>
                <staff>1</staff>
                <beam number="1">end</beam>
            </note>
        </measure>
        <measure width="443" number="20">
            <print new-system="yes">
                <system-layout>
                    <system-margins>
                        <left-margin>22</left-margin>
                        <right-margin>0</right-margin>
                    </system-margins>
                    <system-distance>92</system-distance>
                </system-layout>
            </print>
            <attributes>
                <staff-details print-object="yes" number="1"/>
            </attributes>
            <harmony default-y="25" color="#000000">
                <root>
                    <root-step>C</root-step>
                </root>
                <kind>major</kind>
                <staff>1</staff>
            </harmony>
            <note default-x="70" color="#000000">
                <pitch>
                    <step>A</step>
                    <octave>5</octave>
                </pitch>
                <duration>64</duration>
                <instrument id="P1-I1"/>
                <voice>1</voice>
                <type>16th</type>
                <stem>down</stem>
                <staff>1</staff>
                <beam number="1">begin</beam>
            </note>
            <note default-x="98" color="#000000">
                <pitch>
                    <step>A</step>
                    <octave>5</octave>
                </pitch>
                <duration>128</duration>
                <instrument id="P1-I1"/>
                <voice>1</voice>
                <type>eighth</type>
                <stem>down</stem>
                <staff>1</staff>
                <beam number="1">continue</beam>
            </note>
            <note default-x="135" color="#000000">
                <pitch>
                    <step>A</step>
                    <octave>5</octave>
                </pitch>
                <duration>64</duration>
                <instrument id="P1-I1"/>
                <voice>1</voice>
                <type>16th</type>
                <stem>down</stem>
                <staff>1</staff>
                <beam number="1">end</beam>
            </note>
            <note default-x="163" color="#000000">
                <pitch>
                    <step>A</step>
                    <octave>5</octave>
                </pitch>
                <duration>64</duration>
                <instrument id="P1-I1"/>
                <voice>1</voice>
                <type>16th</type>
                <stem>down</stem>
                <staff>1</staff>
                <beam number="1">begin</beam>
            </note>
            <note default-x="191" color="#000000">
                <pitch>
                    <step>G</step>
                    <octave>5</octave>
                </pitch>
                <duration>64</duration>
                <instrument id="P1-I1"/>
                <voice>1</voice>
                <type>16th</type>
                <stem>down</stem>
                <staff>1</staff>
                <beam number="1">continue</beam>
            </note>
            <note default-x="220" color="#000000">
                <pitch>
                    <step>E</step>
                    <octave>5</octave>
                </pitch>
                <duration>128</duration>
                <instrument id="P1-I1"/>
                <voice>1</voice>
                <type>eighth</type>
                <stem>down</stem>
                <staff>1</staff>
                <beam number="1">end</beam>
            </note>
            <note default-x="256" color="#000000">
                <pitch>
                    <step>A</step>
                    <octave>5</octave>
                </pitch>
                <duration>64</duration>
                <instrument id="P1-I1"/>
                <voice>1</voice>
                <type>16th</type>
                <stem>down</stem>
                <staff>1</staff>
                <beam number="1">begin</beam>
            </note>
            <note default-x="285" color="#000000">
                <pitch>
                    <step>G</step>
                    <octave>5</octave>
                </pitch>
                <duration>128</duration>
                <instrument id="P1-I1"/>
                <voice>1</voice>
                <type>eighth</type>
                <stem>down</stem>
                <staff>1</staff>
                <beam number="1">continue</beam>
            </note>
            <note default-x="321" color="#000000">
                <pitch>
                    <step>E</step>
                    <octave>5</octave>
                </pitch>
                <duration>64</duration>
                <instrument id="P1-I1"/>
                <voice>1</voice>
                <type>16th</type>
                <stem>down</stem>
                <staff>1</staff>
                <beam number="1">end</beam>
            </note>
            <note default-x="350" color="#000000">
                <pitch>
                    <step>A</step>
                    <octave>5</octave>
                </pitch>
                <duration>64</duration>
                <instrument id="P1-I1"/>
                <voice>1</voice>
                <type>16th</type>
                <stem>down</stem>
                <staff>1</staff>
                <beam number="1">begin</beam>
            </note>
            <note default-x="378" color="#000000">
                <pitch>
                    <step>B</step>
                    <octave>5</octave>
                </pitch>
                <duration>64</duration>
                <instrument id="P1-I1"/>
                <voice>1</voice>
                <type>16th</type>
                <stem>down</stem>
                <staff>1</staff>
                <beam number="1">continue</beam>
            </note>
            <note default-x="406" color="#000000">
                <pitch>
                    <step>A</step>
                    <octave>5</octave>
                </pitch>
                <duration>128</duration>
                <instrument id="P1-I1"/>
                <voice>1</voice>
                <type>eighth</type>
                <stem>down</stem>
                <staff>1</staff>
                <beam number="1">end</beam>
            </note>
        </measure>
        <measure width="262" number="21">
            <harmony default-y="25" color="#000000">
                <root>
                    <root-step>C</root-step>
                </root>
                <kind>minor-sixth</kind>
                <staff>1</staff>
            </harmony>
            <note default-x="15" color="#000000">
                <pitch>
                    <step>G</step>
                    <octave>5</octave>
                </pitch>
                <duration>128</duration>
                <instrument id="P1-I1"/>
                <voice>1</voice>
                <type>eighth</type>
                <stem>down</stem>
                <staff>1</staff>
            </note>
            <note default-x="51" color="#000000">
                <pitch>
                    <step>E</step>
                    <alter>-1</alter>
                    <octave>5</octave>
                </pitch>
                <duration>256</duration>
                <instrument id="P1-I1"/>
                <voice>1</voice>
                <type>quarter</type>
                <accidental>flat</accidental>
                <stem>down</stem>
                <staff>1</staff>
            </note>
            <note default-x="102" color="#000000">
                <pitch>
                    <step>D</step>
                    <octave>5</octave>
                </pitch>
                <duration>128</duration>
                <instrument id="P1-I1"/>
                <voice>1</voice>
                <type>eighth</type>
                <stem>down</stem>
                <staff>1</staff>
            </note>
            <note default-x="139" color="#000000">
                <pitch>
                    <step>C</step>
                    <octave>5</octave>
                </pitch>
                <duration>256</duration>
                <tie type="start"/>
                <instrument id="P1-I1"/>
                <voice>1</voice>
                <type>quarter</type>
                <stem>down</stem>
                <staff>1</staff>
                <notations>
                    <tied type="start"/>
                </notations>
            </note>
            <note default-x="190" color="#000000">
                <pitch>
                    <step>C</step>
                    <octave>5</octave>
                </pitch>
                <duration>192</duration>
                <tie type="stop"/>
                <instrument id="P1-I1"/>
                <voice>1</voice>
                <type>eighth</type>
                <dot/>
                <stem>down</stem>
                <staff>1</staff>
                <beam number="1">begin</beam>
                <notations>
                    <tied type="stop"/>
                </notations>
            </note>
            <note default-x="234" color="#000000">
                <pitch>
                    <step>E</step>
                    <alter>-1</alter>
                    <octave>5</octave>
                </pitch>
                <duration>64</duration>
                <instrument id="P1-I1"/>
                <voice>1</voice>
                <type>16th</type>
                <stem>down</stem>
                <staff>1</staff>
                <beam number="1">end</beam>
            </note>
        </measure>
        <measure width="326" number="22">
            <harmony default-y="25" color="#000000">
                <root>
                    <root-step>G</root-step>
                </root>
                <kind>major</kind>
                <staff>1</staff>
            </harmony>
            <note default-x="15" color="#000000">
                <pitch>
                    <step>A</step>
                    <octave>5</octave>
                </pitch>
                <duration>64</duration>
                <instrument id="P1-I1"/>
                <voice>1</voice>
                <type>16th</type>
                <stem>down</stem>
                <staff>1</staff>
                <beam number="1">begin</beam>
            </note>
            <note default-x="43" color="#000000">
                <pitch>
                    <step>A</step>
                    <octave>5</octave>
                </pitch>
                <duration>128</duration>
                <instrument id="P1-I1"/>
                <voice>1</voice>
                <type>eighth</type>
                <stem>down</stem>
                <staff>1</staff>
                <beam number="1">continue</beam>
            </note>
            <note default-x="80" color="#000000">
                <pitch>
                    <step>A</step>
                    <octave>5</octave>
                </pitch>
                <duration>64</duration>
                <instrument id="P1-I1"/>
                <voice>1</voice>
                <type>16th</type>
                <stem>down</stem>
                <staff>1</staff>
                <beam number="1">end</beam>
            </note>
            <note default-x="108" color="#000000">
                <pitch>
                    <step>A</step>
                    <octave>5</octave>
                </pitch>
                <duration>64</duration>
                <instrument id="P1-I1"/>
                <voice>1</voice>
                <type>16th</type>
                <stem>down</stem>
                <staff>1</staff>
                <beam number="1">begin</beam>
            </note>
            <note default-x="136" color="#000000">
                <pitch>
                    <step>G</step>
                    <octave>5</octave>
                </pitch>
                <duration>64</duration>
                <instrument id="P1-I1"/>
                <voice>1</voice>
                <type>16th</type>
                <stem>down</stem>
                <staff>1</staff>
                <beam number="1">continue</beam>
            </note>
            <note default-x="164" color="#000000">
                <pitch>
                    <step>E</step>
                    <octave>5</octave>
                </pitch>
                <duration>128</duration>
                <instrument id="P1-I1"/>
                <voice>1</voice>
                <type>eighth</type>
                <accidental>natural</accidental>
                <stem>down</stem>
                <staff>1</staff>
                <beam number="1">end</beam>
            </note>
            <note default-x="201" color="#000000">
                <pitch>
                    <step>A</step>
                    <octave>5</octave>
                </pitch>
                <duration>128</duration>
                <instrument id="P1-I1"/>
                <voice>1</voice>
                <type>eighth</type>
                <stem>down</stem>
                <staff>1</staff>
            </note>
            <note default-x="238" color="#000000">
                <pitch>
                    <step>A</step>
                    <octave>5</octave>
                </pitch>
                <duration>256</duration>
                <instrument id="P1-I1"/>
                <voice>1</voice>
                <type>quarter</type>
                <stem>down</stem>
                <staff>1</staff>
            </note>
            <note default-x="289" color="#000000">
                <pitch>
                    <step>E</step>
                    <octave>5</octave>
                </pitch>
                <duration>128</duration>
                <instrument id="P1-I1"/>
                <voice>1</voice>
                <type>eighth</type>
                <stem>down</stem>
                <staff>1</staff>
            </note>
        </measure>
        <measure width="401" number="23">
            <print new-system="yes">
                <system-layout>
                    <system-margins>
                        <left-margin>22</left-margin>
                        <right-margin>0</right-margin>
                    </system-margins>
                    <system-distance>92</system-distance>
                </system-layout>
            </print>
            <attributes>
                <staff-details print-object="yes" number="1"/>
            </attributes>
            <harmony default-y="25" color="#000000">
                <root>
                    <root-step>B</root-step>
                </root>
                <kind>minor-seventh</kind>
                <staff>1</staff>
            </harmony>
            <note default-x="70" color="#000000">
                <pitch>
                    <step>A</step>
                    <octave>5</octave>
                </pitch>
                <duration>64</duration>
                <instrument id="P1-I1"/>
                <voice>1</voice>
                <type>16th</type>
                <stem>down</stem>
                <staff>1</staff>
                <beam number="1">begin</beam>
            </note>
            <note default-x="98" color="#000000">
                <pitch>
                    <step>A</step>
                    <octave>5</octave>
                </pitch>
                <duration>128</duration>
                <instrument id="P1-I1"/>
                <voice>1</voice>
                <type>eighth</type>
                <stem>down</stem>
                <staff>1</staff>
                <beam number="1">continue</beam>
            </note>
            <note default-x="135" color="#000000">
                <pitch>
                    <step>A</step>
                    <octave>5</octave>
                </pitch>
                <duration>64</duration>
                <instrument id="P1-I1"/>
                <voice>1</voice>
                <type>16th</type>
                <stem>down</stem>
                <staff>1</staff>
                <beam number="1">end</beam>
            </note>
            <note default-x="163" color="#000000">
                <pitch>
                    <step>A</step>
                    <octave>5</octave>
                </pitch>
                <duration>64</duration>
                <instrument id="P1-I1"/>
                <voice>1</voice>
                <type>16th</type>
                <stem>down</stem>
                <staff>1</staff>
                <beam number="1">begin</beam>
            </note>
            <note default-x="191" color="#000000">
                <pitch>
                    <step>B</step>
                    <octave>5</octave>
                </pitch>
                <duration>64</duration>
                <instrument id="P1-I1"/>
                <voice>1</voice>
                <type>16th</type>
                <stem>down</stem>
                <staff>1</staff>
                <beam number="1">continue</beam>
            </note>
            <note default-x="220" color="#000000">
                <pitch>
                    <step>A</step>
                    <octave>5</octave>
                </pitch>
                <duration>64</duration>
                <instrument id="P1-I1"/>
                <voice>1</voice>
                <type>16th</type>
                <stem>down</stem>
                <staff>1</staff>
                <beam number="1">continue</beam>
            </note>
            <note default-x="248" color="#000000">
                <pitch>
                    <step>G</step>
                    <octave>5</octave>
                </pitch>
                <duration>64</duration>
                <instrument id="P1-I1"/>
                <voice>1</voice>
                <type>16th</type>
                <stem>down</stem>
                <staff>1</staff>
                <beam number="1">end</beam>
            </note>
            <note default-x="276" color="#000000">
                <pitch>
                    <step>E</step>
                    <octave>5</octave>
                </pitch>
                <duration>256</duration>
                <tie type="start"/>
                <instrument id="P1-I1"/>
                <voice>1</voice>
                <type>quarter</type>
                <stem>down</stem>
                <staff>1</staff>
                <notations>
                    <tied type="start"/>
                </notations>
            </note>
            <note default-x="327" color="#000000">
                <pitch>
                    <step>E</step>
                    <octave>5</octave>
                </pitch>
                <duration>128</duration>
                <tie type="stop"/>
                <instrument id="P1-I1"/>
                <voice>1</voice>
                <type>eighth</type>
                <stem>down</stem>
                <staff>1</staff>
                <beam number="1">begin</beam>
                <notations>
                    <tied type="stop"/>
                </notations>
            </note>
            <note default-x="364" color="#000000">
                <pitch>
                    <step>E</step>
                    <octave>5</octave>
                </pitch>
                <duration>128</duration>
                <instrument id="P1-I1"/>
                <voice>1</voice>
                <type>eighth</type>
                <stem>down</stem>
                <staff>1</staff>
                <beam number="1">end</beam>
            </note>
        </measure>
        <measure width="389" number="24">
            <harmony default-y="25" color="#000000">
                <root>
                    <root-step>C</root-step>
                </root>
                <kind>major-sixth</kind>
                <staff>1</staff>
            </harmony>
            <note default-x="15" color="#000000">
                <pitch>
                    <step>A</step>
                    <octave>5</octave>
                </pitch>
                <duration>64</duration>
                <instrument id="P1-I1"/>
                <voice>1</voice>
                <type>16th</type>
                <stem>down</stem>
                <staff>1</staff>
                <beam number="1">begin</beam>
            </note>
            <note default-x="43" color="#000000">
                <pitch>
                    <step>A</step>
                    <octave>5</octave>
                </pitch>
                <duration>128</duration>
                <instrument id="P1-I1"/>
                <voice>1</voice>
                <type>eighth</type>
                <stem>down</stem>
                <staff>1</staff>
                <beam number="1">continue</beam>
            </note>
            <note default-x="80" color="#000000">
                <pitch>
                    <step>A</step>
                    <octave>5</octave>
                </pitch>
                <duration>64</duration>
                <instrument id="P1-I1"/>
                <voice>1</voice>
                <type>16th</type>
                <stem>down</stem>
                <staff>1</staff>
                <beam number="1">end</beam>
            </note>
            <note default-x="108" color="#000000">
                <pitch>
                    <step>A</step>
                    <octave>5</octave>
                </pitch>
                <duration>64</duration>
                <instrument id="P1-I1"/>
                <voice>1</voice>
                <type>16th</type>
                <stem>down</stem>
                <staff>1</staff>
                <beam number="1">begin</beam>
            </note>
            <note default-x="136" color="#000000">
                <pitch>
                    <step>G</step>
                    <octave>5</octave>
                </pitch>
                <duration>64</duration>
                <instrument id="P1-I1"/>
                <voice>1</voice>
                <type>16th</type>
                <stem>down</stem>
                <staff>1</staff>
                <beam number="1">continue</beam>
            </note>
            <note default-x="165" color="#000000">
                <pitch>
                    <step>E</step>
                    <octave>5</octave>
                </pitch>
                <duration>128</duration>
                <instrument id="P1-I1"/>
                <voice>1</voice>
                <type>eighth</type>
                <stem>down</stem>
                <staff>1</staff>
                <beam number="1">end</beam>
            </note>
            <note default-x="202" color="#000000">
                <pitch>
                    <step>A</step>
                    <octave>5</octave>
                </pitch>
                <duration>64</duration>
                <instrument id="P1-I1"/>
                <voice>1</voice>
                <type>16th</type>
                <stem>down</stem>
                <staff>1</staff>
                <beam number="1">begin</beam>
            </note>
            <note default-x="230" color="#000000">
                <pitch>
                    <step>G</step>
                    <octave>5</octave>
                </pitch>
                <duration>128</duration>
                <instrument id="P1-I1"/>
                <voice>1</voice>
                <type>eighth</type>
                <stem>down</stem>
                <staff>1</staff>
                <beam number="1">continue</beam>
            </note>
            <note default-x="267" color="#000000">
                <pitch>
                    <step>E</step>
                    <octave>5</octave>
                </pitch>
                <duration>64</duration>
                <instrument id="P1-I1"/>
                <voice>1</voice>
                <type>16th</type>
                <stem>down</stem>
                <staff>1</staff>
                <beam number="1">end</beam>
            </note>
            <note default-x="295" color="#000000">
                <pitch>
                    <step>A</step>
                    <octave>5</octave>
                </pitch>
                <duration>64</duration>
                <instrument id="P1-I1"/>
                <voice>1</voice>
                <type>16th</type>
                <stem>down</stem>
                <staff>1</staff>
                <beam number="1">begin</beam>
            </note>
            <note default-x="323" color="#000000">
                <pitch>
                    <step>B</step>
                    <octave>5</octave>
                </pitch>
                <duration>64</duration>
                <instrument id="P1-I1"/>
                <voice>1</voice>
                <type>16th</type>
                <stem>down</stem>
                <staff>1</staff>
                <beam number="1">continue</beam>
            </note>
            <direction>
                <direction-type>
                    <words font-weight="normal" font-style="italic" font-size="11.9365" font-family="Plantin MT Std" default-y="-70" default-x="874" justify="left" valign="middle">Termina com introdução.</words>
                </direction-type>
                <offset sound="no">127</offset>
                <voice>1</voice>
                <staff>1</staff>
            </direction>
            <note default-x="352" color="#000000">
                <pitch>
                    <step>A</step>
                    <octave>5</octave>
                </pitch>
                <duration>128</duration>
                <instrument id="P1-I1"/>
                <voice>1</voice>
                <type>eighth</type>
                <stem>down</stem>
                <staff>1</staff>
                <beam number="1">end</beam>
            </note>
        </measure>
        <measure width="242" number="25">
            <harmony default-y="25" color="#000000">
                <root>
                    <root-step>C</root-step>
                </root>
                <kind>minor-sixth</kind>
                <staff>1</staff>
            </harmony>
            <note default-x="15" color="#000000">
                <pitch>
                    <step>G</step>
                    <octave>5</octave>
                </pitch>
                <duration>128</duration>
                <instrument id="P1-I1"/>
                <voice>1</voice>
                <type>eighth</type>
                <stem>down</stem>
                <staff>1</staff>
            </note>
            <note default-x="52" color="#000000">
                <pitch>
                    <step>E</step>
                    <alter>-1</alter>
                    <octave>5</octave>
                </pitch>
                <duration>256</duration>
                <instrument id="P1-I1"/>
                <voice>1</voice>
                <type>quarter</type>
                <accidental>flat</accidental>
                <stem>down</stem>
                <staff>1</staff>
            </note>
            <note default-x="103" color="#000000">
                <pitch>
                    <step>D</step>
                    <octave>5</octave>
                </pitch>
                <duration>128</duration>
                <instrument id="P1-I1"/>
                <voice>1</voice>
                <type>eighth</type>
                <stem>down</stem>
                <staff>1</staff>
            </note>
            <direction>
                <direction-type>
                    <words font-weight="bold" font-style="normal" font-size="13.0217" font-family="Plantin MT Std" justify="right" valign="middle">D.C. al Fine</words>
                </direction-type>
                <offset sound="no">511</offset>
                <voice>1</voice>
                <staff>1</staff>
                <sound dacapo="yes">
                    <offset>1</offset>
                </sound>
            </direction>
            <note default-x="140" color="#000000">
                <pitch>
                    <step>C</step>
                    <octave>5</octave>
                </pitch>
                <duration>512</duration>
                <instrument id="P1-I1"/>
                <voice>1</voice>
                <type>half</type>
                <stem>down</stem>
                <staff>1</staff>
            </note>
            <barline location="right">
                <bar-style>light-heavy</bar-style>
            </barline>
        </measure>
    </part>
</score-partwise>
