<?xml version="1.0" encoding="UTF-8"?>
<!DOCTYPE score-partwise PUBLIC "-//Recordare//DTD MusicXML 2.0 Partwise//EN" "http://www.musicxml.org/dtds/partwise.dtd">
<score-partwise version="2.0">
    <work>
        <work-number></work-number>
        <work-title></work-title>
    </work>
    <movement-number></movement-number>
    <movement-title>Washington Square</movement-title>
    <identification>
        <creator type="composer">Bob Goldsteinn &amp; David Shire</creator>
        <creator type="poet"></creator>
        <rights>All Rights Reserved</rights>
        <encoding>
            <software>MuseScore 1.1</software>
            <encoding-date>2012-04-25</encoding-date>
            <software>ProxyMusic 2.0 c</software>
        </encoding>
        <source>http://wikifonia.org/node/15981/revisions/21285/view</source>
    </identification>
    <defaults>
        <scaling>
            <millimeters>7.05556</millimeters>
            <tenths>40</tenths>
        </scaling>
        <page-layout>
            <page-height>1683.78</page-height>
            <page-width>1190.55</page-width>
            <page-margins type="even">
                <left-margin>56.6929</left-margin>
                <right-margin>56.6929</right-margin>
                <top-margin>56.6929</top-margin>
                <bottom-margin>113.386</bottom-margin>
            </page-margins>
            <page-margins type="odd">
                <left-margin>56.6929</left-margin>
                <right-margin>56.6929</right-margin>
                <top-margin>56.6929</top-margin>
                <bottom-margin>113.386</bottom-margin>
            </page-margins>
        </page-layout>
    </defaults>
    <credit page="1">
        <credit-words font-size="24" default-y="1627.09" default-x="595.276" justify="center" valign="top">Washington Square</credit-words>
    </credit>
    <credit page="1">
        <credit-words font-size="14" default-y="1570.39" default-x="595.276" justify="center" valign="top">popularized by the Village Stompers</credit-words>
    </credit>
    <credit page="1">
        <credit-words font-size="12" default-y="1529.09" default-x="1133.86" justify="right" valign="top">Bobb Goldsteinn and David Shire</credit-words>
    </credit>
    <credit page="1">
        <credit-words font-size="8" default-y="113.386" default-x="595.276" justify="center" valign="bottom">WB Music Corp. and Chappell &amp; Co. Inc.</credit-words>
    </credit>
    <part-list>
        <score-part id="P1">
            <part-name>Voice</part-name>
            <part-abbreviation>Vo.</part-abbreviation>
            <score-instrument id="P1-I3">
                <instrument-name>Voice</instrument-name>
            </score-instrument>
            <midi-instrument id="P1-I3">
                <midi-channel>1</midi-channel>
                <midi-program>53</midi-program>
            </midi-instrument>
        </score-part>
    </part-list>
    <part id="P1">
        <measure width="127.68" number="1">
            <print>
                <system-layout>
                    <system-margins>
                        <left-margin>69.30</left-margin>
                        <right-margin>0.00</right-margin>
                    </system-margins>
                    <top-system-distance>262.49</top-system-distance>
                </system-layout>
            </print>
            <attributes>
                <divisions>4</divisions>
                <key>
                    <fifths>1</fifths>
                    <mode>major</mode>
                </key>
                <time>
                    <beats>4</beats>
                    <beat-type>4</beat-type>
                </time>
                <clef>
                    <sign>G</sign>
                    <line>2</line>
                </clef>
            </attributes>
            <note>
                <rest/>
                <duration>2</duration>
                <voice>1</voice>
            </note>
        </measure>
        <measure width="123.03" number="X1" implicit="yes">
            <note default-y="-55.00" default-x="42.92">
                <pitch>
                    <step>B</step>
                    <octave>3</octave>
                </pitch>
                <duration>2</duration>
                <voice>1</voice>
                <type>eighth</type>
                <stem>up</stem>
                <lyric number="1">
                    <syllabic>single</syllabic>
                    <text>1.From</text>
                </lyric>
                <lyric number="2">
                    <syllabic>single</syllabic>
                    <text>2.(An')</text>
                </lyric>
                <lyric number="3">
                    <syllabic>single</syllabic>
                    <text>3.(Near)</text>
                </lyric>
                <lyric number="4">
                    <syllabic>single</syllabic>
                    <text>4.(In)</text>
                </lyric>
                <lyric number="5">
                    <syllabic>single</syllabic>
                    <text>5.(We)</text>
                </lyric>
                <lyric number="6">
                    <syllabic>single</syllabic>
                    <text>6.(Say)</text>
                </lyric>
            </note>
        </measure>
        <measure width="369.70" number="2">
            <barline location="left">
                <bar-style>heavy-light</bar-style>
                <repeat direction="forward"/>
            </barline>
            <harmony print-frame="no">
                <root>
                    <root-step>E</root-step>
                </root>
                <kind text="m">minor</kind>
            </harmony>
            <note default-y="-40.00" default-x="30.48">
                <pitch>
                    <step>E</step>
                    <octave>4</octave>
                </pitch>
                <duration>4</duration>
                <voice>1</voice>
                <type>quarter</type>
                <stem>up</stem>
                <lyric number="1">
                    <syllabic>single</syllabic>
                    <text>Cape</text>
                </lyric>
                <lyric number="2">
                    <syllabic>single</syllabic>
                    <text>so</text>
                </lyric>
                <lyric number="3">
                    <syllabic>begin</syllabic>
                    <text>Ten</text>
                </lyric>
                <lyric number="4">
                    <syllabic>single</syllabic>
                    <text>New</text>
                </lyric>
                <lyric number="5">
                    <syllabic>begin</syllabic>
                    <text>can</text>
                </lyric>
                <lyric number="6">
                    <syllabic>single</syllabic>
                    <text>how's</text>
                </lyric>
            </note>
            <harmony print-frame="no">
                <root>
                    <root-step>B</root-step>
                </root>
                <kind text="">major</kind>
                <offset>4</offset>
            </harmony>
            <note default-y="-20.00" default-x="109.92">
                <pitch>
                    <step>B</step>
                    <octave>4</octave>
                </pitch>
                <duration>4</duration>
                <voice>1</voice>
                <type>quarter</type>
                <stem>up</stem>
                <lyric number="1">
                    <syllabic>single</syllabic>
                    <text>Cod</text>
                </lyric>
                <lyric number="2">
                    <syllabic>single</syllabic>
                    <text>I</text>
                </lyric>
                <lyric number="3">
                    <syllabic>middle</syllabic>
                    <text>nes</text>
                </lyric>
                <lyric number="4">
                    <syllabic>begin</syllabic>
                    <text>Or</text>
                </lyric>
                <lyric number="5">
                    <syllabic>end</syllabic>
                    <text>non</text>
                </lyric>
                <lyric number="6">
                    <syllabic>begin</syllabic>
                    <text>a</text>
                </lyric>
            </note>
            <harmony print-frame="no">
                <root>
                    <root-step>B</root-step>
                </root>
                <kind text="">major</kind>
            </harmony>
            <note default-y="-20.00" default-x="189.36">
                <pitch>
                    <step>B</step>
                    <octave>4</octave>
                </pitch>
                <duration>4</duration>
                <voice>1</voice>
                <type>quarter</type>
                <stem>up</stem>
                <lyric number="1">
                    <syllabic>single</syllabic>
                    <text>light</text>
                </lyric>
                <lyric number="2">
                    <syllabic>begin</syllabic>
                    <text>got</text>
                </lyric>
                <lyric number="3">
                    <syllabic>middle</syllabic>
                    <text>see,</text>
                </lyric>
                <lyric number="4">
                    <syllabic>end</syllabic>
                    <text>Leans</text>
                </lyric>
                <lyric number="5">
                    <syllabic>single</syllabic>
                    <text>balled</text>
                </lyric>
                <lyric number="6">
                    <syllabic>middle</syllabic>
                    <text>bout</text>
                </lyric>
            </note>
            <note default-y="-20.00" default-x="268.80">
                <pitch>
                    <step>B</step>
                    <octave>4</octave>
                </pitch>
                <duration>2</duration>
                <voice>1</voice>
                <type>eighth</type>
                <stem>up</stem>
                <beam number="1">begin</beam>
                <lyric number="1">
                    <syllabic>single</syllabic>
                    <text>to</text>
                </lyric>
                <lyric number="4">
                    <syllabic>begin</syllabic>
                    <text>we</text>
                </lyric>
            </note>
            <note default-y="-25.00" default-x="318.45">
                <pitch>
                    <step>A</step>
                    <octave>4</octave>
                </pitch>
                <duration>2</duration>
                <voice>1</voice>
                <type>eighth</type>
                <stem>up</stem>
                <beam number="1">end</beam>
                <lyric number="1">
                    <syllabic>single</syllabic>
                    <text>the</text>
                </lyric>
                <lyric number="2">
                    <syllabic>end</syllabic>
                    <text>my</text>
                </lyric>
                <lyric number="3">
                    <syllabic>end</syllabic>
                    <text>I</text>
                </lyric>
                <lyric number="5">
                    <syllabic>begin</syllabic>
                    <text>in</text>
                </lyric>
                <lyric number="6">
                    <syllabic>end</syllabic>
                    <text>a</text>
                </lyric>
            </note>
            <harmony print-frame="no">
                <root>
                    <root-step>E</root-step>
                </root>
                <kind text="m">minor</kind>
            </harmony>
            <backup>
                <duration>16</duration>
            </backup>
            <note print-object="no">
                <rest/>
                <duration>4</duration>
                <voice>2</voice>
                <type>quarter</type>
            </note>
            <harmony print-frame="no">
                <root>
                    <root-step>B</root-step>
                </root>
                <kind text="">major</kind>
                <offset>4</offset>
            </harmony>
            <note print-object="no">
                <rest/>
                <duration>4</duration>
                <voice>2</voice>
                <type>quarter</type>
            </note>
            <harmony print-frame="no">
                <root>
                    <root-step>B</root-step>
                </root>
                <kind text="">major</kind>
            </harmony>
            <note default-y="-20.00" default-x="189.36">
                <pitch>
                    <step>B</step>
                    <octave>4</octave>
                </pitch>
                <duration>6</duration>
                <voice>2</voice>
                <type>quarter</type>
                <dot/>
                <stem>down</stem>
            </note>
            <note default-y="-25.00" default-x="318.45">
                <pitch>
                    <step>A</step>
                    <octave>4</octave>
                </pitch>
                <duration>2</duration>
                <voice>2</voice>
                <type>eighth</type>
                <stem>down</stem>
            </note>
        </measure>
        <measure width="387.46" number="3">
            <harmony print-frame="no">
                <root>
                    <root-step>E</root-step>
                </root>
                <kind text="m">minor</kind>
            </harmony>
            <note default-y="-20.00" default-x="22.18">
                <pitch>
                    <step>B</step>
                    <octave>4</octave>
                </pitch>
                <duration>2</duration>
                <voice>1</voice>
                <type>eighth</type>
                <stem>up</stem>
                <lyric number="1">
                    <syllabic>begin</syllabic>
                    <text>Mis</text>
                </lyric>
                <lyric number="2">
                    <syllabic>begin</syllabic>
                    <text>ban</text>
                </lyric>
                <lyric number="3">
                    <syllabic>single</syllabic>
                    <text>met</text>
                </lyric>
                <lyric number="4">
                    <syllabic>end</syllabic>
                    <text>saw</text>
                </lyric>
                <lyric number="5">
                    <syllabic>end</syllabic>
                    <text>to</text>
                </lyric>
                <lyric number="6">
                    <syllabic>begin</syllabic>
                    <text>free</text>
                </lyric>
            </note>
            <note default-y="-25.00" default-x="72.69">
                <pitch>
                    <step>A</step>
                    <octave>4</octave>
                </pitch>
                <duration>4</duration>
                <voice>1</voice>
                <type>quarter</type>
                <stem>up</stem>
                <lyric number="1">
                    <syllabic>middle</syllabic>
                    <text>sis</text>
                </lyric>
                <lyric number="2">
                    <syllabic>end</syllabic>
                    <text>jo</text>
                </lyric>
                <lyric number="3">
                    <syllabic>single</syllabic>
                    <text>a</text>
                </lyric>
                <lyric number="4">
                    <syllabic>single</syllabic>
                    <text>a</text>
                </lyric>
                <lyric number="5">
                    <syllabic>single</syllabic>
                    <text>New</text>
                </lyric>
                <lyric number="6">
                    <syllabic>end</syllabic>
                    <text>dom</text>
                </lyric>
            </note>
            <note default-y="-30.00" default-x="153.51">
                <pitch>
                    <step>G</step>
                    <octave>4</octave>
                </pitch>
                <duration>2</duration>
                <voice>1</voice>
                <type>eighth</type>
                <stem>up</stem>
                <notations>
                    <slur type="start" number="1"/>
                </notations>
                <lyric number="1">
                    <syllabic>middle</syllabic>
                    <text>sip'</text>
                </lyric>
                <lyric number="2">
                    <syllabic>begin</syllabic>
                    <text>out,</text>
                </lyric>
                <lyric number="3">
                    <syllabic>begin</syllabic>
                    <text>guy</text>
                </lyric>
                <lyric number="4">
                    <syllabic>begin</syllabic>
                    <text>gal</text>
                </lyric>
                <lyric number="5">
                    <syllabic>begin</syllabic>
                    <text>York</text>
                </lyric>
                <lyric number="6">
                    <syllabic>begin</syllabic>
                    <text>song,</text>
                </lyric>
            </note>
            <note default-y="-30.00" default-x="204.02">
                <pitch>
                    <step>G</step>
                    <octave>4</octave>
                </pitch>
                <duration>6</duration>
                <voice>1</voice>
                <type>quarter</type>
                <dot/>
                <stem>up</stem>
                <notations>
                    <slur type="stop" number="1"/>
                </notations>
            </note>
            <note default-y="-55.00" default-x="335.34">
                <pitch>
                    <step>B</step>
                    <octave>3</octave>
                </pitch>
                <duration>2</duration>
                <voice>1</voice>
                <type>eighth</type>
                <stem>up</stem>
                <lyric number="1">
                    <syllabic>single</syllabic>
                    <text>to</text>
                </lyric>
                <lyric number="2">
                    <syllabic>end</syllabic>
                    <text>jes'</text>
                </lyric>
                <lyric number="3">
                    <syllabic>end</syllabic>
                    <text>who</text>
                </lyric>
                <lyric number="4">
                    <syllabic>middle</syllabic>
                    <text>a</text>
                </lyric>
                <lyric number="5">
                    <syllabic>end</syllabic>
                    <text>on</text>
                </lyric>
            </note>
            <harmony print-frame="no">
                <root>
                    <root-step>E</root-step>
                </root>
                <kind text="m">minor</kind>
            </harmony>
            <backup>
                <duration>16</duration>
            </backup>
            <note print-object="no">
                <rest/>
                <duration>2</duration>
                <voice>2</voice>
                <type>eighth</type>
            </note>
            <note print-object="no">
                <rest/>
                <duration>4</duration>
                <voice>2</voice>
                <type>quarter</type>
            </note>
            <note print-object="no">
                <rest/>
                <duration>2</duration>
                <voice>2</voice>
                <type>eighth</type>
            </note>
            <note default-y="-30.00" default-x="204.02">
                <pitch>
                    <step>G</step>
                    <octave>4</octave>
                </pitch>
                <duration>4</duration>
                <voice>2</voice>
                <type>quarter</type>
                <stem>down</stem>
            </note>
            <note default-y="-55.00" default-x="284.83">
                <pitch>
                    <step>B</step>
                    <octave>3</octave>
                </pitch>
                <duration>2</duration>
                <voice>2</voice>
                <type>eighth</type>
                <stem>down</stem>
                <beam number="1">begin</beam>
                <lyric number="6">
                    <syllabic>single</syllabic>
                    <text>or</text>
                </lyric>
            </note>
            <note default-y="-55.00" default-x="335.34">
                <pitch>
                    <step>B</step>
                    <octave>3</octave>
                </pitch>
                <duration>2</duration>
                <voice>2</voice>
                <type>eighth</type>
                <stem>down</stem>
                <beam number="1">end</beam>
                <lyric number="6">
                    <syllabic>single</syllabic>
                    <text>the</text>
                </lyric>
            </note>
        </measure>
        <measure width="371.27" number="4">
            <print new-system="yes">
                <system-layout>
                    <system-margins>
                        <left-margin>46.95</left-margin>
                        <right-margin>0.00</right-margin>
                    </system-margins>
                    <system-distance>291.93</system-distance>
                </system-layout>
            </print>
            <note default-y="-40.00" default-x="95.27">
                <pitch>
                    <step>E</step>
                    <octave>4</octave>
                </pitch>
                <duration>4</duration>
                <voice>1</voice>
                <type>quarter</type>
                <stem>up</stem>
                <lyric number="1">
                    <syllabic>single</syllabic>
                    <text>San</text>
                </lyric>
                <lyric number="2">
                    <syllabic>begin</syllabic>
                    <text>sit</text>
                </lyric>
                <lyric number="3">
                    <syllabic>single</syllabic>
                    <text>played</text>
                </lyric>
                <lyric number="4">
                    <syllabic>middle</syllabic>
                    <text>walk</text>
                </lyric>
                <lyric number="5">
                    <syllabic>single</syllabic>
                    <text>good</text>
                </lyric>
                <lyric number="6">
                    <syllabic>single</syllabic>
                    <text>ole'</text>
                </lyric>
            </note>
            <harmony print-frame="no">
                <root>
                    <root-step>C</root-step>
                </root>
                <kind text="">major</kind>
                <offset>4</offset>
            </harmony>
            <note default-y="-40.00" default-x="161.49">
                <pitch>
                    <step>E</step>
                    <octave>4</octave>
                </pitch>
                <duration>4</duration>
                <voice>1</voice>
                <type>quarter</type>
                <stem>up</stem>
                <lyric number="1">
                    <syllabic>begin</syllabic>
                    <text>Fran</text>
                </lyric>
                <lyric number="2">
                    <syllabic>end</syllabic>
                    <text>tin'</text>
                </lyric>
                <lyric number="3">
                    <syllabic>single</syllabic>
                    <text>twelve</text>
                </lyric>
                <lyric number="4">
                    <syllabic>end</syllabic>
                    <text>in'</text>
                </lyric>
                <lyric number="5">
                    <syllabic>single</syllabic>
                    <text>ole'</text>
                </lyric>
                <lyric number="6">
                    <syllabic>single</syllabic>
                    <text>&quot;Rock</text>
                </lyric>
            </note>
            <harmony print-frame="no">
                <root>
                    <root-step>C</root-step>
                </root>
                <kind text="">major</kind>
            </harmony>
            <note default-y="-30.00" default-x="223.34">
                <pitch>
                    <step>G</step>
                    <octave>4</octave>
                </pitch>
                <duration>2</duration>
                <voice>1</voice>
                <type>eighth</type>
                <stem>up</stem>
                <lyric number="1">
                    <syllabic>middle</syllabic>
                    <text>cis</text>
                </lyric>
                <lyric number="2">
                    <syllabic>begin</syllabic>
                    <text>catch</text>
                </lyric>
                <lyric number="3">
                    <syllabic>single</syllabic>
                    <text>string</text>
                </lyric>
                <lyric number="4">
                    <syllabic>single</syllabic>
                    <text>with</text>
                </lyric>
                <lyric number="5">
                    <syllabic>single</syllabic>
                    <text>U.</text>
                </lyric>
                <lyric number="6">
                    <syllabic>begin</syllabic>
                    <text>Is</text>
                </lyric>
            </note>
            <note default-y="-30.00" default-x="274.53">
                <pitch>
                    <step>G</step>
                    <octave>4</octave>
                </pitch>
                <duration>4</duration>
                <voice>1</voice>
                <type>quarter</type>
                <stem>up</stem>
                <lyric number="1">
                    <syllabic>end</syllabic>
                    <text>co</text>
                </lyric>
                <lyric number="2">
                    <syllabic>end</syllabic>
                    <text>in'</text>
                </lyric>
                <lyric number="3">
                    <syllabic>begin</syllabic>
                    <text>gui</text>
                </lyric>
                <lyric number="4">
                    <syllabic>single</syllabic>
                    <text>no</text>
                </lyric>
                <lyric number="5">
                    <syllabic>single</syllabic>
                    <text>S.</text>
                </lyric>
                <lyric number="6">
                    <syllabic>end</syllabic>
                    <text>land</text>
                </lyric>
            </note>
            <note default-y="-20.00" default-x="329.60">
                <pitch>
                    <step>B</step>
                    <octave>4</octave>
                </pitch>
                <duration>2</duration>
                <voice>1</voice>
                <type>eighth</type>
                <stem>down</stem>
                <notations>
                    <slur type="start" number="1"/>
                </notations>
                <lyric number="1">
                    <syllabic>single</syllabic>
                    <text>Bay,</text>
                </lyric>
                <lyric number="2">
                    <syllabic>begin</syllabic>
                    <text>dust,</text>
                </lyric>
                <lyric number="3">
                    <syllabic>middle</syllabic>
                    <text>tar,</text>
                </lyric>
                <lyric number="4">
                    <syllabic>begin</syllabic>
                    <text>shoes,</text>
                </lyric>
                <lyric number="5">
                    <syllabic>begin</syllabic>
                    <text>One,</text>
                </lyric>
                <lyric number="6">
                    <syllabic>begin</syllabic>
                    <text>Line!&quot;</text>
                </lyric>
            </note>
        </measure>
        <measure width="140.08" number="5">
            <harmony print-frame="no">
                <root>
                    <root-step>G</root-step>
                </root>
                <kind text="">major</kind>
            </harmony>
            <note default-y="-20.00" default-x="17.50">
                <pitch>
                    <step>B</step>
                    <octave>4</octave>
                </pitch>
                <duration>12</duration>
                <voice>1</voice>
                <type>half</type>
                <dot/>
                <stem>down</stem>
                <notations>
                    <slur type="stop" number="1"/>
                </notations>
            </note>
            <harmony print-frame="no">
                <root>
                    <root-step>B</root-step>
                </root>
                <kind text="">major</kind>
                <offset>2</offset>
            </harmony>
            <note>
                <rest/>
                <duration>2</duration>
                <voice>1</voice>
                <type>eighth</type>
            </note>
            <harmony print-frame="no">
                <root>
                    <root-step>B</root-step>
                </root>
                <kind text="">major</kind>
            </harmony>
            <note default-y="-55.00" default-x="93.47">
                <pitch>
                    <step>B</step>
                    <octave>3</octave>
                </pitch>
                <duration>2</duration>
                <voice>1</voice>
                <type>eighth</type>
                <stem>up</stem>
                <lyric number="1">
                    <syllabic>single</syllabic>
                    <text>They're</text>
                </lyric>
                <lyric number="2">
                    <syllabic>end</syllabic>
                    <text>An'</text>
                </lyric>
                <lyric number="3">
                    <syllabic>end</syllabic>
                    <text>He</text>
                </lyric>
                <lyric number="4">
                    <syllabic>end</syllabic>
                    <text>An'</text>
                </lyric>
                <lyric number="5">
                    <syllabic>end</syllabic>
                    <text>Till</text>
                </lyric>
                <lyric number="6">
                    <syllabic>end</syllabic>
                    <text>Or</text>
                </lyric>
            </note>
        </measure>
        <measure width="228.12" number="6">
            <harmony print-frame="no">
                <root>
                    <root-step>E</root-step>
                </root>
                <kind text="m">minor</kind>
            </harmony>
            <note default-y="-40.00" default-x="44.38">
                <pitch>
                    <step>E</step>
                    <octave>4</octave>
                </pitch>
                <duration>4</duration>
                <voice>1</voice>
                <type>quarter</type>
                <stem>up</stem>
                <lyric number="1">
                    <syllabic>begin</syllabic>
                    <text>talk</text>
                </lyric>
                <lyric number="2">
                    <syllabic>begin</syllabic>
                    <text>paint</text>
                </lyric>
                <lyric number="3">
                    <syllabic>begin</syllabic>
                    <text>al</text>
                </lyric>
                <lyric number="4">
                    <syllabic>single</syllabic>
                    <text>from</text>
                </lyric>
                <lyric number="5">
                    <syllabic>single</syllabic>
                    <text>up</text>
                </lyric>
                <lyric number="6">
                    <syllabic>single</syllabic>
                    <text>how's</text>
                </lyric>
            </note>
            <harmony print-frame="no">
                <root>
                    <root-step>B</root-step>
                </root>
                <kind text="">major</kind>
                <offset>4</offset>
            </harmony>
            <note default-y="-20.00" default-x="90.67">
                <pitch>
                    <step>B</step>
                    <octave>4</octave>
                </pitch>
                <duration>4</duration>
                <voice>1</voice>
                <type>quarter</type>
                <stem>down</stem>
                <lyric number="1">
                    <syllabic>end</syllabic>
                    <text>in'</text>
                </lyric>
                <lyric number="2">
                    <syllabic>end</syllabic>
                    <text>ed</text>
                </lyric>
                <lyric number="3">
                    <syllabic>end</syllabic>
                    <text>so</text>
                </lyric>
                <lyric number="4">
                    <syllabic>single</syllabic>
                    <text>her</text>
                </lyric>
                <lyric number="5">
                    <syllabic>begin</syllabic>
                    <text>a</text>
                </lyric>
                <lyric number="6">
                    <syllabic>begin</syllabic>
                    <text>a</text>
                </lyric>
            </note>
            <harmony print-frame="no">
                <root>
                    <root-step>B</root-step>
                </root>
                <kind text="">major</kind>
            </harmony>
            <note default-y="-20.00" default-x="137.45">
                <pitch>
                    <step>B</step>
                    <octave>4</octave>
                </pitch>
                <duration>6</duration>
                <voice>1</voice>
                <type>quarter</type>
                <dot/>
                <stem>down</stem>
                <lyric number="1">
                    <syllabic>single</syllabic>
                    <text>'bout</text>
                </lyric>
                <lyric number="2">
                    <syllabic>single</syllabic>
                    <text>right</text>
                </lyric>
                <lyric number="3">
                    <syllabic>single</syllabic>
                    <text>had</text>
                </lyric>
                <lyric number="4">
                    <syllabic>single</syllabic>
                    <text>throat</text>
                </lyric>
                <lyric number="5">
                    <syllabic>end</syllabic>
                    <text>head</text>
                </lyric>
                <lyric number="6">
                    <syllabic>end</syllabic>
                    <text>bout</text>
                </lyric>
            </note>
            <note default-y="-25.00" default-x="192.94">
                <pitch>
                    <step>A</step>
                    <octave>4</octave>
                </pitch>
                <duration>2</duration>
                <voice>1</voice>
                <type>eighth</type>
                <stem>up</stem>
                <lyric number="1">
                    <syllabic>single</syllabic>
                    <text>this</text>
                </lyric>
                <lyric number="2">
                    <syllabic>begin</syllabic>
                    <text>a</text>
                </lyric>
                <lyric number="3">
                    <syllabic>single</syllabic>
                    <text>a</text>
                </lyric>
                <lyric number="4">
                    <syllabic>single</syllabic>
                    <text>there</text>
                </lyric>
                <lyric number="5">
                    <syllabic>single</syllabic>
                    <text>we</text>
                </lyric>
                <lyric number="6">
                    <syllabic>single</syllabic>
                    <text>the</text>
                </lyric>
            </note>
        </measure>
        <measure width="290.75" number="7">
            <harmony print-frame="no">
                <root>
                    <root-step>E</root-step>
                </root>
                <kind text="m">minor</kind>
            </harmony>
            <note default-y="-20.00" default-x="47.36">
                <pitch>
                    <step>B</step>
                    <octave>4</octave>
                </pitch>
                <duration>2</duration>
                <voice>1</voice>
                <type>eighth</type>
                <stem>down</stem>
                <lyric number="1">
                    <syllabic>begin</syllabic>
                    <text>fa</text>
                </lyric>
                <lyric number="2">
                    <syllabic>end</syllabic>
                    <text>cross</text>
                </lyric>
                <lyric number="3">
                    <syllabic>begin</syllabic>
                    <text>might</text>
                </lyric>
                <lyric number="4">
                    <syllabic>single</syllabic>
                    <text>comes</text>
                </lyric>
                <lyric number="5">
                    <syllabic>single</syllabic>
                    <text>saw</text>
                </lyric>
                <lyric number="6">
                    <syllabic>single</syllabic>
                    <text>dust</text>
                </lyric>
            </note>
            <note default-y="-25.00" default-x="106.70">
                <pitch>
                    <step>A</step>
                    <octave>4</octave>
                </pitch>
                <duration>4</duration>
                <voice>1</voice>
                <type>quarter</type>
                <stem>up</stem>
                <lyric number="1">
                    <syllabic>end</syllabic>
                    <text>mous</text>
                </lyric>
                <lyric number="2">
                    <syllabic>single</syllabic>
                    <text>the</text>
                </lyric>
                <lyric number="3">
                    <syllabic>end</syllabic>
                    <text>y</text>
                </lyric>
                <lyric number="4">
                    <syllabic>single</syllabic>
                    <text>a</text>
                </lyric>
                <lyric number="5">
                    <syllabic>single</syllabic>
                    <text>the</text>
                </lyric>
                <lyric number="6">
                    <syllabic>single</syllabic>
                    <text>bowl</text>
                </lyric>
            </note>
            <note default-y="-30.00" default-x="166.34">
                <pitch>
                    <step>G</step>
                    <octave>4</octave>
                </pitch>
                <duration>2</duration>
                <voice>1</voice>
                <type>eighth</type>
                <stem>up</stem>
                <notations>
                    <slur type="start" number="1"/>
                </notations>
                <lyric number="1">
                    <syllabic>single</syllabic>
                    <text>place</text>
                </lyric>
                <lyric number="2">
                    <syllabic>single</syllabic>
                    <text>case:</text>
                </lyric>
                <lyric number="3">
                    <syllabic>single</syllabic>
                    <text>voice,</text>
                </lyric>
                <lyric number="4">
                    <syllabic>single</syllabic>
                    <text>growl,</text>
                </lyric>
                <lyric number="5">
                    <syllabic>single</syllabic>
                    <text>arch</text>
                </lyric>
                <lyric number="6">
                    <syllabic>single</syllabic>
                    <text>crop?</text>
                </lyric>
            </note>
            <note default-y="-30.00" default-x="200.50">
                <pitch>
                    <step>G</step>
                    <octave>4</octave>
                </pitch>
                <duration>6</duration>
                <voice>1</voice>
                <type>quarter</type>
                <dot/>
                <stem>up</stem>
                <notations>
                    <slur type="stop" number="1"/>
                </notations>
            </note>
            <note default-y="-55.00" default-x="253.06">
                <pitch>
                    <step>B</step>
                    <octave>3</octave>
                </pitch>
                <duration>2</duration>
                <voice>1</voice>
                <type>eighth</type>
                <stem>up</stem>
                <lyric number="1">
                    <syllabic>single</syllabic>
                    <text>down</text>
                </lyric>
                <lyric number="4">
                    <syllabic>single</syllabic>
                    <text>she</text>
                </lyric>
                <lyric number="5">
                    <syllabic>single</syllabic>
                    <text>a</text>
                </lyric>
                <lyric number="6">
                    <syllabic>single</syllabic>
                    <text>Or</text>
                </lyric>
            </note>
        </measure>
        <measure width="337.68" number="8">
            <print new-system="yes">
                <system-layout>
                    <system-margins>
                        <left-margin>46.95</left-margin>
                        <right-margin>0.00</right-margin>
                    </system-margins>
                    <system-distance>291.93</system-distance>
                </system-layout>
            </print>
            <harmony print-frame="no">
                <root>
                    <root-step>C</root-step>
                </root>
                <kind text="">major</kind>
            </harmony>
            <note default-y="-40.00" default-x="97.35">
                <pitch>
                    <step>E</step>
                    <octave>4</octave>
                </pitch>
                <duration>4</duration>
                <voice>1</voice>
                <type>quarter</type>
                <stem>up</stem>
                <lyric number="1">
                    <syllabic>begin</syllabic>
                    <text>Green</text>
                </lyric>
                <lyric number="2">
                    <syllabic>begin</syllabic>
                    <text>&quot;Green</text>
                </lyric>
                <lyric number="3">
                    <syllabic>single</syllabic>
                    <text>not</text>
                </lyric>
                <lyric number="4">
                    <syllabic>single</syllabic>
                    <text>sure</text>
                </lyric>
                <lyric number="5">
                    <syllabic>begin</syllabic>
                    <text>gleam</text>
                </lyric>
                <lyric number="6">
                    <syllabic>single</syllabic>
                    <text>men</text>
                </lyric>
            </note>
            <harmony print-frame="no">
                <root>
                    <root-step>B</root-step>
                </root>
                <kind text="m7">minor-seventh</kind>
                <offset>4</offset>
            </harmony>
            <note default-y="-40.00" default-x="157.49">
                <pitch>
                    <step>E</step>
                    <octave>4</octave>
                </pitch>
                <duration>4</duration>
                <voice>1</voice>
                <type>quarter</type>
                <stem>up</stem>
                <lyric number="1">
                    <syllabic>end</syllabic>
                    <text>wich</text>
                </lyric>
                <lyric number="2">
                    <syllabic>end</syllabic>
                    <text>wich</text>
                </lyric>
                <lyric number="3">
                    <syllabic>single</syllabic>
                    <text>to</text>
                </lyric>
                <lyric number="4">
                    <syllabic>single</syllabic>
                    <text>was</text>
                </lyric>
                <lyric number="5">
                    <syllabic>end</syllabic>
                    <text>in'</text>
                </lyric>
                <lyric number="6">
                    <syllabic>single</syllabic>
                    <text>who</text>
                </lyric>
            </note>
            <harmony print-frame="no">
                <root>
                    <root-step>B</root-step>
                </root>
                <kind text="m7">minor-seventh</kind>
            </harmony>
            <note default-y="-35.00" default-x="212.43">
                <pitch>
                    <step>F</step>
                    <alter>1</alter>
                    <octave>4</octave>
                </pitch>
                <duration>3</duration>
                <voice>1</voice>
                <type>eighth</type>
                <dot/>
                <stem>up</stem>
                <beam number="1">begin</beam>
                <lyric number="1">
                    <syllabic>begin</syllabic>
                    <text>Vil</text>
                </lyric>
                <lyric number="2">
                    <syllabic>begin</syllabic>
                    <text>Vil</text>
                </lyric>
                <lyric number="3">
                    <syllabic>begin</syllabic>
                    <text>men</text>
                </lyric>
                <lyric number="4">
                    <syllabic>begin</syllabic>
                    <text>sing</text>
                </lyric>
                <lyric number="5">
                    <syllabic>single</syllabic>
                    <text>bright</text>
                </lyric>
                <lyric number="6">
                    <syllabic>single</syllabic>
                    <text>work</text>
                </lyric>
            </note>
            <note default-y="-40.00" default-x="264.24">
                <pitch>
                    <step>E</step>
                    <octave>4</octave>
                </pitch>
                <duration>1</duration>
                <voice>1</voice>
                <type>16th</type>
                <stem>up</stem>
                <beam number="1">end</beam>
                <beam number="2">backward hook</beam>
                <lyric number="2">
                    <syllabic>end</syllabic>
                    <text>lage</text>
                </lyric>
                <lyric number="3">
                    <syllabic>end</syllabic>
                    <text>tion</text>
                </lyric>
                <lyric number="4">
                    <syllabic>end</syllabic>
                    <text>in'</text>
                </lyric>
                <lyric number="5">
                    <syllabic>single</syllabic>
                    <text>in</text>
                </lyric>
                <lyric number="6">
                    <syllabic>single</syllabic>
                    <text>in</text>
                </lyric>
            </note>
            <note default-y="-45.00" default-x="304.74">
                <pitch>
                    <step>D</step>
                    <octave>4</octave>
                </pitch>
                <duration>4</duration>
                <voice>1</voice>
                <type>quarter</type>
                <stem>up</stem>
                <lyric number="1">
                    <syllabic>end</syllabic>
                    <text>age</text>
                </lyric>
                <lyric number="2">
                    <syllabic>single</syllabic>
                    <text>or</text>
                </lyric>
                <lyric number="3">
                    <syllabic>single</syllabic>
                    <text>a</text>
                </lyric>
                <lyric number="4">
                    <syllabic>single</syllabic>
                    <text>the</text>
                </lyric>
                <lyric number="5">
                    <syllabic>single</syllabic>
                    <text>the</text>
                </lyric>
                <lyric number="6">
                    <syllabic>single</syllabic>
                    <text>a</text>
                </lyric>
            </note>
        </measure>
        <measure width="146.32" number="9">
            <harmony print-frame="no">
                <root>
                    <root-step>E</root-step>
                </root>
                <kind text="m">minor</kind>
            </harmony>
            <note default-y="-40.00" default-x="47.58">
                <pitch>
                    <step>E</step>
                    <octave>4</octave>
                </pitch>
                <duration>12</duration>
                <voice>1</voice>
                <type>half</type>
                <dot/>
                <stem>up</stem>
                <lyric number="1">
                    <syllabic>single</syllabic>
                    <text>way.</text>
                </lyric>
                <lyric number="2">
                    <syllabic>single</syllabic>
                    <text>Bust!&quot;</text>
                </lyric>
                <lyric number="3">
                    <syllabic>single</syllabic>
                    <text>car.</text>
                </lyric>
                <lyric number="4">
                    <syllabic>single</syllabic>
                    <text>blues.</text>
                </lyric>
                <lyric number="5">
                    <syllabic>single</syllabic>
                    <text>sun.</text>
                </lyric>
                <lyric number="6">
                    <syllabic>single</syllabic>
                    <text>mine?</text>
                </lyric>
            </note>
            <note default-y="-20.00" default-x="110.52">
                <pitch>
                    <step>B</step>
                    <octave>4</octave>
                </pitch>
                <duration>4</duration>
                <voice>1</voice>
                <type>quarter</type>
                <stem>down</stem>
                <lyric number="1">
                    <syllabic>single</syllabic>
                    <text>They</text>
                </lyric>
                <lyric number="2">
                    <syllabic>single</syllabic>
                    <text>My</text>
                </lyric>
                <lyric number="3">
                    <syllabic>single</syllabic>
                    <text>Each</text>
                </lyric>
                <lyric number="4">
                    <syllabic>single</syllabic>
                    <text>She</text>
                </lyric>
                <lyric number="5">
                    <syllabic>single</syllabic>
                    <text>As</text>
                </lyric>
                <lyric number="6">
                    <syllabic>single</syllabic>
                    <text>The</text>
                </lyric>
            </note>
        </measure>
        <measure width="231.96" number="10">
            <harmony print-frame="no">
                <root>
                    <root-step>G</root-step>
                </root>
                <kind text="">major</kind>
            </harmony>
            <note default-y="-10.00" default-x="44.24">
                <pitch>
                    <step>D</step>
                    <octave>5</octave>
                </pitch>
                <duration>6</duration>
                <voice>1</voice>
                <type>quarter</type>
                <dot/>
                <stem>down</stem>
                <lyric number="1">
                    <syllabic>begin</syllabic>
                    <text>hoo</text>
                </lyric>
                <lyric number="2">
                    <syllabic>single</syllabic>
                    <text>folks</text>
                </lyric>
                <lyric number="3">
                    <syllabic>single</syllabic>
                    <text>time</text>
                </lyric>
                <lyric number="4">
                    <syllabic>single</syllabic>
                    <text>sang</text>
                </lyric>
                <lyric number="5">
                    <syllabic>single</syllabic>
                    <text>far</text>
                </lyric>
                <lyric number="6">
                    <syllabic>single</syllabic>
                    <text>songs</text>
                </lyric>
            </note>
            <note default-y="-10.00" default-x="97.92">
                <pitch>
                    <step>D</step>
                    <octave>5</octave>
                </pitch>
                <duration>2</duration>
                <voice>1</voice>
                <type>eighth</type>
                <stem>down</stem>
                <lyric number="1">
                    <syllabic>middle</syllabic>
                    <text>ten</text>
                </lyric>
                <lyric number="2">
                    <syllabic>single</syllabic>
                    <text>were</text>
                </lyric>
                <lyric number="3">
                    <syllabic>single</syllabic>
                    <text>he</text>
                </lyric>
                <lyric number="4">
                    <syllabic>single</syllabic>
                    <text>for</text>
                </lyric>
                <lyric number="5">
                    <syllabic>single</syllabic>
                    <text>as</text>
                </lyric>
                <lyric number="6">
                    <syllabic>single</syllabic>
                    <text>and</text>
                </lyric>
            </note>
            <note default-y="-20.00" default-x="140.92">
                <pitch>
                    <step>B</step>
                    <octave>4</octave>
                </pitch>
                <duration>4</duration>
                <voice>1</voice>
                <type>quarter</type>
                <stem>down</stem>
                <lyric number="1">
                    <syllabic>middle</syllabic>
                    <text>an</text>
                </lyric>
                <lyric number="2">
                    <syllabic>single</syllabic>
                    <text>sad</text>
                </lyric>
                <lyric number="3">
                    <syllabic>single</syllabic>
                    <text>hit</text>
                </lyric>
                <lyric number="4">
                    <syllabic>single</syllabic>
                    <text>all</text>
                </lyric>
                <lyric number="5">
                    <syllabic>single</syllabic>
                    <text>all</text>
                </lyric>
                <lyric number="6">
                    <syllabic>begin</syllabic>
                    <text>le</text>
                </lyric>
            </note>
            <note default-y="-10.00" default-x="188.34">
                <pitch>
                    <step>D</step>
                    <octave>5</octave>
                </pitch>
                <duration>4</duration>
                <voice>1</voice>
                <type>quarter</type>
                <stem>down</stem>
                <lyric number="1">
                    <syllabic>end</syllabic>
                    <text>ny</text>
                </lyric>
                <lyric number="2">
                    <syllabic>single</syllabic>
                    <text>to</text>
                </lyric>
                <lyric number="3">
                    <syllabic>single</syllabic>
                    <text>those</text>
                </lyric>
                <lyric number="4">
                    <syllabic>begin</syllabic>
                    <text>hu</text>
                </lyric>
                <lyric number="5">
                    <syllabic>single</syllabic>
                    <text>the</text>
                </lyric>
                <lyric number="6">
                    <syllabic>end</syllabic>
                    <text>gends</text>
                </lyric>
            </note>
        </measure>
        <measure width="314.25" number="11">
            <harmony print-frame="no">
                <root>
                    <root-step>E</root-step>
                </root>
                <kind text="m">minor</kind>
            </harmony>
            <note default-y="-5.00" default-x="37.95">
                <pitch>
                    <step>E</step>
                    <octave>5</octave>
                </pitch>
                <duration>2</duration>
                <voice>1</voice>
                <type>eighth</type>
                <stem>up</stem>
                <lyric number="1">
                    <syllabic>single</syllabic>
                    <text>all</text>
                </lyric>
                <lyric number="2">
                    <syllabic>single</syllabic>
                    <text>see</text>
                </lyric>
                <lyric number="3">
                    <syllabic>single</syllabic>
                    <text>blue</text>
                </lyric>
                <lyric number="4">
                    <syllabic>middle</syllabic>
                    <text>man</text>
                </lyric>
                <lyric number="5">
                    <syllabic>single</syllabic>
                    <text>eye</text>
                </lyric>
                <lyric number="6">
                    <syllabic>single</syllabic>
                    <text>of</text>
                </lyric>
            </note>
            <note default-y="-10.00" default-x="90.23">
                <pitch>
                    <step>D</step>
                    <octave>5</octave>
                </pitch>
                <duration>4</duration>
                <voice>1</voice>
                <type>quarter</type>
                <stem>up</stem>
                <lyric number="1">
                    <syllabic>single</syllabic>
                    <text>the</text>
                </lyric>
                <lyric number="2">
                    <syllabic>single</syllabic>
                    <text>me</text>
                </lyric>
                <lyric number="3">
                    <syllabic>single</syllabic>
                    <text>grass</text>
                </lyric>
                <lyric number="4">
                    <syllabic>middle</syllabic>
                    <text>i</text>
                </lyric>
                <lyric number="5">
                    <syllabic>single</syllabic>
                    <text>could</text>
                </lyric>
                <lyric number="6">
                    <syllabic>single</syllabic>
                    <text>our</text>
                </lyric>
            </note>
            <note default-y="-20.00" default-x="154.27">
                <pitch>
                    <step>B</step>
                    <octave>4</octave>
                </pitch>
                <duration>2</duration>
                <voice>1</voice>
                <type>eighth</type>
                <stem>up</stem>
                <notations>
                    <slur type="start" number="1"/>
                </notations>
                <lyric number="1">
                    <syllabic>begin</syllabic>
                    <text>time</text>
                </lyric>
                <lyric number="2">
                    <syllabic>single</syllabic>
                    <text>go</text>
                </lyric>
                <lyric number="3">
                    <syllabic>begin</syllabic>
                    <text>chords,</text>
                </lyric>
                <lyric number="4">
                    <syllabic>middle</syllabic>
                    <text>ty,</text>
                </lyric>
                <lyric number="5">
                    <syllabic>single</syllabic>
                    <text>see,</text>
                </lyric>
                <lyric number="6">
                    <syllabic>begin</syllabic>
                    <text>land,</text>
                </lyric>
            </note>
            <note default-y="-20.00" default-x="192.20">
                <pitch>
                    <step>B</step>
                    <octave>4</octave>
                </pitch>
                <duration>6</duration>
                <voice>1</voice>
                <type>quarter</type>
                <dot/>
                <stem>up</stem>
                <notations>
                    <slur type="stop" number="1"/>
                </notations>
            </note>
            <note default-y="-55.00" default-x="280.48">
                <pitch>
                    <step>B</step>
                    <octave>3</octave>
                </pitch>
                <duration>2</duration>
                <voice>1</voice>
                <type>eighth</type>
                <stem>up</stem>
                <lyric number="1">
                    <syllabic>end</syllabic>
                    <text>with</text>
                </lyric>
                <lyric number="3">
                    <syllabic>end</syllabic>
                    <text>You</text>
                </lyric>
                <lyric number="4">
                    <syllabic>end</syllabic>
                    <text>this</text>
                </lyric>
                <lyric number="5">
                    <syllabic>single</syllabic>
                    <text>ten</text>
                </lyric>
                <lyric number="6">
                    <syllabic>end</syllabic>
                    <text>is</text>
                </lyric>
            </note>
            <harmony print-frame="no">
                <root>
                    <root-step>E</root-step>
                </root>
                <kind text="m">minor</kind>
            </harmony>
            <backup>
                <duration>16</duration>
            </backup>
            <note print-object="no">
                <rest/>
                <duration>2</duration>
                <voice>2</voice>
                <type>eighth</type>
            </note>
            <note print-object="no">
                <rest/>
                <duration>4</duration>
                <voice>2</voice>
                <type>quarter</type>
            </note>
            <note print-object="no">
                <rest/>
                <duration>2</duration>
                <voice>2</voice>
                <type>eighth</type>
            </note>
            <note print-object="no">
                <rest/>
                <duration>4</duration>
                <voice>2</voice>
                <type>quarter</type>
            </note>
            <note default-y="-55.00" default-x="239.96">
                <pitch>
                    <step>B</step>
                    <octave>3</octave>
                </pitch>
                <duration>2</duration>
                <voice>2</voice>
                <type>eighth</type>
                <stem>down</stem>
                <beam number="1">begin</beam>
                <lyric number="2">
                    <syllabic>single</syllabic>
                    <text>but</text>
                </lyric>
            </note>
            <note default-y="-55.00" default-x="280.48">
                <pitch>
                    <step>B</step>
                    <octave>3</octave>
                </pitch>
                <duration>2</duration>
                <voice>2</voice>
                <type>eighth</type>
                <stem>down</stem>
                <beam number="1">end</beam>
                <lyric number="2">
                    <syllabic>single</syllabic>
                    <text>I</text>
                </lyric>
            </note>
        </measure>
        <measure width="357.06" number="12">
            <print new-system="yes">
                <system-layout>
                    <system-margins>
                        <left-margin>46.95</left-margin>
                        <right-margin>0.00</right-margin>
                    </system-margins>
                    <system-distance>291.93</system-distance>
                </system-layout>
            </print>
            <note default-y="-40.00" default-x="87.74">
                <pitch>
                    <step>E</step>
                    <octave>4</octave>
                </pitch>
                <duration>4</duration>
                <voice>1</voice>
                <type>quarter</type>
                <stem>up</stem>
                <lyric number="1">
                    <syllabic>single</syllabic>
                    <text>folks</text>
                </lyric>
                <lyric number="2">
                    <syllabic>single</syllabic>
                    <text>got</text>
                </lyric>
                <lyric number="3">
                    <syllabic>single</syllabic>
                    <text>sure</text>
                </lyric>
                <lyric number="4">
                    <syllabic>single</syllabic>
                    <text>gal</text>
                </lyric>
                <lyric number="5">
                    <syllabic>begin</syllabic>
                    <text>thou</text>
                </lyric>
                <lyric number="6">
                    <syllabic>single</syllabic>
                    <text>gold</text>
                </lyric>
            </note>
            <harmony print-frame="no">
                <root>
                    <root-step>C</root-step>
                </root>
                <kind text="">major</kind>
                <offset>4</offset>
            </harmony>
            <note default-y="-40.00" default-x="151.48">
                <pitch>
                    <step>E</step>
                    <octave>4</octave>
                </pitch>
                <duration>4</duration>
                <voice>1</voice>
                <type>quarter</type>
                <stem>up</stem>
                <lyric number="1">
                    <syllabic>single</syllabic>
                    <text>from</text>
                </lyric>
                <lyric number="2">
                    <syllabic>single</syllabic>
                    <text>no</text>
                </lyric>
                <lyric number="3">
                    <syllabic>single</syllabic>
                    <text>smelled</text>
                </lyric>
                <lyric number="4">
                    <syllabic>single</syllabic>
                    <text>with</text>
                </lyric>
                <lyric number="5">
                    <syllabic>end</syllabic>
                    <text>sand</text>
                </lyric>
                <lyric number="6">
                    <syllabic>single</syllabic>
                    <text>we</text>
                </lyric>
            </note>
            <harmony print-frame="no">
                <root>
                    <root-step>C</root-step>
                </root>
                <kind text="">major</kind>
            </harmony>
            <note default-y="-30.00" default-x="218.35">
                <pitch>
                    <step>G</step>
                    <octave>4</octave>
                </pitch>
                <duration>2</duration>
                <voice>1</voice>
                <type>eighth</type>
                <stem>up</stem>
                <lyric number="1">
                    <syllabic>begin</syllabic>
                    <text>ev'</text>
                </lyric>
                <lyric number="2">
                    <syllabic>begin</syllabic>
                    <text>mean</text>
                </lyric>
                <lyric number="3">
                    <syllabic>begin</syllabic>
                    <text>moun</text>
                </lyric>
                <lyric number="4">
                    <syllabic>begin</syllabic>
                    <text>ra</text>
                </lyric>
                <lyric number="5">
                    <syllabic>single</syllabic>
                    <text>folks</text>
                </lyric>
                <lyric number="6">
                    <syllabic>single</syllabic>
                    <text>all</text>
                </lyric>
            </note>
            <note default-y="-30.00" default-x="267.63">
                <pitch>
                    <step>G</step>
                    <octave>4</octave>
                </pitch>
                <duration>4</duration>
                <voice>1</voice>
                <type>quarter</type>
                <stem>up</stem>
                <lyric number="1">
                    <syllabic>end</syllabic>
                    <text>ry</text>
                </lyric>
                <lyric number="2">
                    <syllabic>end</syllabic>
                    <text>in'</text>
                </lyric>
                <lyric number="3">
                    <syllabic>end</syllabic>
                    <text>tain</text>
                </lyric>
                <lyric number="4">
                    <syllabic>end</syllabic>
                    <text>ven</text>
                </lyric>
                <lyric number="5">
                    <syllabic>single</syllabic>
                    <text>was</text>
                </lyric>
                <lyric number="6">
                    <syllabic>single</syllabic>
                    <text>can</text>
                </lyric>
            </note>
            <note default-y="-20.00" default-x="321.60">
                <pitch>
                    <step>B</step>
                    <octave>4</octave>
                </pitch>
                <duration>2</duration>
                <voice>1</voice>
                <type>eighth</type>
                <stem>down</stem>
                <notations>
                    <slur type="start" number="1"/>
                </notations>
                <lyric number="1">
                    <syllabic>begin</syllabic>
                    <text>where,</text>
                </lyric>
                <lyric number="2">
                    <syllabic>begin</syllabic>
                    <text>there,</text>
                </lyric>
                <lyric number="3">
                    <syllabic>begin</syllabic>
                    <text>air,</text>
                </lyric>
                <lyric number="4">
                    <syllabic>begin</syllabic>
                    <text>hair,</text>
                </lyric>
                <lyric number="5">
                    <syllabic>begin</syllabic>
                    <text>there,</text>
                </lyric>
                <lyric number="6">
                    <syllabic>begin</syllabic>
                    <text>share,</text>
                </lyric>
            </note>
        </measure>
        <measure width="103.89" number="13">
            <harmony print-frame="no">
                <root>
                    <root-step>G</root-step>
                </root>
                <kind text="">major</kind>
            </harmony>
            <harmony print-frame="no">
                <root>
                    <root-step>B</root-step>
                </root>
                <kind text="">major</kind>
                <offset>8</offset>
            </harmony>
            <note default-y="-20.00" default-x="17.50">
                <pitch>
                    <step>B</step>
                    <octave>4</octave>
                </pitch>
                <duration>12</duration>
                <voice>1</voice>
                <type>half</type>
                <dot/>
                <stem>down</stem>
                <notations>
                    <slur type="stop" number="1"/>
                </notations>
            </note>
            <note default-y="-20.00" default-x="71.87">
                <pitch>
                    <step>B</step>
                    <octave>4</octave>
                </pitch>
                <duration>4</duration>
                <voice>1</voice>
                <type>quarter</type>
                <stem>down</stem>
                <lyric number="1">
                    <syllabic>end</syllabic>
                    <text>Come</text>
                </lyric>
                <lyric number="2">
                    <syllabic>end</syllabic>
                    <text>So</text>
                </lyric>
                <lyric number="3">
                    <syllabic>end</syllabic>
                    <text>I</text>
                </lyric>
                <lyric number="4">
                    <syllabic>end</syllabic>
                    <text>I</text>
                </lyric>
                <lyric number="5">
                    <syllabic>end</syllabic>
                    <text>An'</text>
                </lyric>
                <lyric number="6">
                    <syllabic>end</syllabic>
                    <text>So,</text>
                </lyric>
            </note>
        </measure>
        <measure width="259.77" number="14">
            <harmony print-frame="no">
                <root>
                    <root-step>G</root-step>
                </root>
                <kind text="">major</kind>
            </harmony>
            <note default-y="-10.00" default-x="42.96">
                <pitch>
                    <step>D</step>
                    <octave>5</octave>
                </pitch>
                <duration>6</duration>
                <voice>1</voice>
                <type>quarter</type>
                <dot/>
                <stem>down</stem>
                <lyric number="1">
                    <syllabic>begin</syllabic>
                    <text>Sun</text>
                </lyric>
                <lyric number="2">
                    <syllabic>single</syllabic>
                    <text>I</text>
                </lyric>
                <lyric number="3">
                    <syllabic>single</syllabic>
                    <text>said,</text>
                </lyric>
                <lyric number="4">
                    <syllabic>single</syllabic>
                    <text>said,</text>
                </lyric>
                <lyric number="5">
                    <syllabic>begin</syllabic>
                    <text>sing</text>
                </lyric>
                <lyric number="6">
                    <syllabic>single</syllabic>
                    <text>come</text>
                </lyric>
            </note>
            <note default-y="-10.00" default-x="102.65">
                <pitch>
                    <step>D</step>
                    <octave>5</octave>
                </pitch>
                <duration>2</duration>
                <voice>1</voice>
                <type>eighth</type>
                <stem>down</stem>
                <lyric number="1">
                    <syllabic>end</syllabic>
                    <text>day</text>
                </lyric>
                <lyric number="2">
                    <syllabic>single</syllabic>
                    <text>said</text>
                </lyric>
                <lyric number="3">
                    <syllabic>single</syllabic>
                    <text>&quot;Don't</text>
                </lyric>
                <lyric number="4">
                    <syllabic>single</syllabic>
                    <text>&quot;It's</text>
                </lyric>
                <lyric number="5">
                    <syllabic>end</syllabic>
                    <text>ing</text>
                </lyric>
                <lyric number="6">
                    <syllabic>single</syllabic>
                    <text>and</text>
                </lyric>
            </note>
            <note default-y="-20.00" default-x="167.58">
                <pitch>
                    <step>B</step>
                    <octave>4</octave>
                </pitch>
                <duration>4</duration>
                <voice>1</voice>
                <type>quarter</type>
                <stem>down</stem>
                <lyric number="1">
                    <syllabic>begin</syllabic>
                    <text>morn</text>
                </lyric>
                <lyric number="2">
                    <syllabic>begin</syllabic>
                    <text>&quot;Good</text>
                </lyric>
                <lyric number="3">
                    <syllabic>single</syllabic>
                    <text>waste</text>
                </lyric>
                <lyric number="4">
                    <syllabic>single</syllabic>
                    <text>for</text>
                </lyric>
                <lyric number="5">
                    <syllabic>single</syllabic>
                    <text>in</text>
                </lyric>
                <lyric number="6">
                    <syllabic>single</syllabic>
                    <text>join</text>
                </lyric>
            </note>
            <note default-y="-10.00" default-x="229.00">
                <pitch>
                    <step>D</step>
                    <octave>5</octave>
                </pitch>
                <duration>4</duration>
                <voice>1</voice>
                <type>quarter</type>
                <stem>down</stem>
                <lyric number="1">
                    <syllabic>end</syllabic>
                    <text>in'</text>
                </lyric>
                <lyric number="2">
                    <syllabic>end</syllabic>
                    <text>bye,</text>
                </lyric>
                <lyric number="3">
                    <syllabic>single</syllabic>
                    <text>it</text>
                </lyric>
                <lyric number="4">
                    <syllabic>single</syllabic>
                    <text>the</text>
                </lyric>
                <lyric number="5">
                    <syllabic>single</syllabic>
                    <text>sweet</text>
                </lyric>
                <lyric number="6">
                    <syllabic>single</syllabic>
                    <text>us</text>
                </lyric>
            </note>
        </measure>
        <measure width="309.49" number="15">
            <harmony print-frame="no">
                <root>
                    <root-step>E</root-step>
                </root>
                <kind text="m">minor</kind>
            </harmony>
            <note default-y="-5.00" default-x="44.84">
                <pitch>
                    <step>E</step>
                    <octave>5</octave>
                </pitch>
                <duration>2</duration>
                <voice>1</voice>
                <type>eighth</type>
                <stem>up</stem>
                <lyric number="1">
                    <syllabic>single</syllabic>
                    <text>rain</text>
                </lyric>
                <lyric number="2">
                    <syllabic>begin</syllabic>
                    <text>Kan</text>
                </lyric>
                <lyric number="3">
                    <syllabic>single</syllabic>
                    <text>on</text>
                </lyric>
                <lyric number="4">
                    <syllabic>single</syllabic>
                    <text>world</text>
                </lyric>
                <lyric number="5">
                    <syllabic>begin</syllabic>
                    <text>har</text>
                </lyric>
                <lyric number="6">
                    <syllabic>single</syllabic>
                    <text>folks</text>
                </lyric>
            </note>
            <note default-y="-10.00" default-x="96.63">
                <pitch>
                    <step>D</step>
                    <octave>5</octave>
                </pitch>
                <duration>4</duration>
                <voice>1</voice>
                <type>quarter</type>
                <stem>up</stem>
                <lyric number="1">
                    <syllabic>single</syllabic>
                    <text>or</text>
                </lyric>
                <lyric number="2">
                    <syllabic>end</syllabic>
                    <text>sas,</text>
                </lyric>
                <lyric number="3">
                    <syllabic>single</syllabic>
                    <text>the</text>
                </lyric>
                <lyric number="4">
                    <syllabic>single</syllabic>
                    <text>to</text>
                </lyric>
                <lyric number="5">
                    <syllabic>middle</syllabic>
                    <text>mo</text>
                </lyric>
                <lyric number="6">
                    <syllabic>single</syllabic>
                    <text>who</text>
                </lyric>
            </note>
            <note default-y="-20.00" default-x="162.08">
                <pitch>
                    <step>B</step>
                    <octave>4</octave>
                </pitch>
                <duration>2</duration>
                <voice>1</voice>
                <type>eighth</type>
                <stem>up</stem>
                <notations>
                    <slur type="start" number="1"/>
                    <slur type="start" number="2"/>
                </notations>
                <lyric number="1">
                    <syllabic>single</syllabic>
                    <text>shine	</text>
                </lyric>
                <lyric number="2">
                    <syllabic>single</syllabic>
                    <text>Mo.&quot;	</text>
                </lyric>
                <lyric number="3">
                    <syllabic>single</syllabic>
                    <text>wind.&quot;	</text>
                </lyric>
                <lyric number="4">
                    <syllabic>single</syllabic>
                    <text>hear,&quot;</text>
                </lyric>
                <lyric number="5">
                    <syllabic>middle</syllabic>
                    <text>ny</text>
                </lyric>
                <lyric number="6">
                    <syllabic>single</syllabic>
                    <text>stand</text>
                </lyric>
            </note>
            <note default-y="-20.00" default-x="207.08">
                <pitch>
                    <step>B</step>
                    <octave>4</octave>
                </pitch>
                <duration>2</duration>
                <voice>1</voice>
                <type>eighth</type>
                <stem>up</stem>
                <beam number="1">begin</beam>
                <notations>
                    <slur type="stop" number="1"/>
                    <slur type="stop" number="2"/>
                </notations>
            </note>
            <note default-y="-25.00" default-x="224.24">
                <pitch>
                    <step>A</step>
                    <octave>4</octave>
                </pitch>
                <duration>2</duration>
                <voice>1</voice>
                <type>eighth</type>
                <stem>up</stem>
                <beam number="1">end</beam>
            </note>
            <note default-y="-30.00" default-x="241.40">
                <pitch>
                    <step>G</step>
                    <octave>4</octave>
                </pitch>
                <duration>4</duration>
                <voice>1</voice>
                <type>quarter</type>
                <stem>up</stem>
            </note>
            <harmony print-frame="no">
                <root>
                    <root-step>E</root-step>
                </root>
                <kind text="m">minor</kind>
            </harmony>
            <backup>
                <duration>16</duration>
            </backup>
            <note print-object="no">
                <rest/>
                <duration>2</duration>
                <voice>2</voice>
                <type>eighth</type>
            </note>
            <note print-object="no">
                <rest/>
                <duration>4</duration>
                <voice>2</voice>
                <type>quarter</type>
            </note>
            <note print-object="no">
                <rest/>
                <duration>2</duration>
                <voice>2</voice>
                <type>eighth</type>
            </note>
            <note print-object="no">
                <rest/>
                <duration>2</duration>
                <voice>2</voice>
                <type>eighth</type>
            </note>
            <note print-object="no">
                <rest/>
                <duration>2</duration>
                <voice>2</voice>
                <type>eighth</type>
            </note>
            <note default-y="-30.00" default-x="241.40">
                <pitch>
                    <step>G</step>
                    <alter>-1</alter>
                    <octave>4</octave>
                </pitch>
                <duration>2</duration>
                <voice>2</voice>
                <type>eighth</type>
                <stem>down</stem>
                <beam number="1">begin</beam>
            </note>
            <note default-y="-55.00" default-x="283.62">
                <pitch>
                    <step>B</step>
                    <octave>3</octave>
                </pitch>
                <duration>2</duration>
                <voice>2</voice>
                <type>eighth</type>
                <stem>down</stem>
                <beam number="1">end</beam>
                <lyric number="2">
                    <syllabic>single</syllabic>
                    <text>&quot;And</text>
                </lyric>
                <lyric number="3">
                    <syllabic>single</syllabic>
                    <text>&quot;C</text>
                </lyric>
                <lyric number="4">
                    <syllabic>single</syllabic>
                    <text>&quot;C</text>
                </lyric>
                <lyric number="6">
                    <syllabic>single</syllabic>
                    <text>and</text>
                </lyric>
            </note>
        </measure>
        <measure width="419.37" number="16">
            <print new-page="yes">
                <system-layout>
                    <system-margins>
                        <left-margin>46.95</left-margin>
                        <right-margin>0.00</right-margin>
                    </system-margins>
                    <top-system-distance>70.00</top-system-distance>
                </system-layout>
            </print>
            <harmony print-frame="no">
                <root>
                    <root-step>C</root-step>
                </root>
                <kind text="">major</kind>
            </harmony>
            <note default-y="-40.00" default-x="90.25">
                <pitch>
                    <step>E</step>
                    <octave>4</octave>
                </pitch>
                <duration>4</duration>
                <voice>1</voice>
                <type>quarter</type>
                <stem>up</stem>
                <lyric number="1">
                    <syllabic>single</syllabic>
                    <text>right</text>
                </lyric>
                <lyric number="2">
                    <syllabic>begin</syllabic>
                    <text>hel</text>
                </lyric>
                <lyric number="3">
                    <syllabic>single</syllabic>
                    <text>'mon</text>
                </lyric>
                <lyric number="4">
                    <syllabic>single</syllabic>
                    <text>'mon</text>
                </lyric>
                <lyric number="5">
                    <syllabic>end</syllabic>
                    <text>Right</text>
                </lyric>
                <lyric number="6">
                    <syllabic>single</syllabic>
                    <text>sing</text>
                </lyric>
            </note>
            <harmony print-frame="no">
                <root>
                    <root-step>B</root-step>
                </root>
                <kind text="m7">minor-seventh</kind>
                <offset>4</offset>
            </harmony>
            <note default-y="-40.00" default-x="161.89">
                <pitch>
                    <step>E</step>
                    <octave>4</octave>
                </pitch>
                <duration>4</duration>
                <voice>1</voice>
                <type>quarter</type>
                <stem>up</stem>
                <lyric number="1">
                    <syllabic>single</syllabic>
                    <text>in</text>
                </lyric>
                <lyric number="2">
                    <syllabic>end</syllabic>
                    <text>lo</text>
                </lyric>
                <lyric number="3">
                    <syllabic>single</syllabic>
                    <text>to</text>
                </lyric>
                <lyric number="4">
                    <syllabic>single</syllabic>
                    <text>to</text>
                </lyric>
                <lyric number="5">
                    <syllabic>single</syllabic>
                    <text>in</text>
                </lyric>
                <lyric number="6">
                    <syllabic>single</syllabic>
                    <text>in</text>
                </lyric>
            </note>
            <harmony print-frame="no">
                <root>
                    <root-step>B</root-step>
                </root>
                <kind text="m7">minor-seventh</kind>
            </harmony>
            <note default-y="-35.00" default-x="233.54">
                <pitch>
                    <step>F</step>
                    <alter>1</alter>
                    <octave>4</octave>
                </pitch>
                <duration>3</duration>
                <voice>1</voice>
                <type>eighth</type>
                <dot/>
                <stem>up</stem>
                <beam number="1">begin</beam>
                <lyric number="1">
                    <syllabic>begin</syllabic>
                    <text>WASH</text>
                </lyric>
                <lyric number="2">
                    <syllabic>begin</syllabic>
                    <text>WASH</text>
                </lyric>
                <lyric number="3">
                    <syllabic>begin</syllabic>
                    <text>WASH</text>
                </lyric>
                <lyric number="4">
                    <syllabic>begin</syllabic>
                    <text>WASH</text>
                </lyric>
                <lyric number="5">
                    <syllabic>begin</syllabic>
                    <text>WASH</text>
                </lyric>
                <lyric number="6">
                    <syllabic>begin</syllabic>
                    <text>WASH</text>
                </lyric>
            </note>
            <note default-y="-40.00" default-x="297.07">
                <pitch>
                    <step>E</step>
                    <octave>4</octave>
                </pitch>
                <duration>1</duration>
                <voice>1</voice>
                <type>16th</type>
                <stem>up</stem>
                <beam number="1">end</beam>
                <beam number="2">backward hook</beam>
                <lyric number="1">
                    <syllabic>middle</syllabic>
                    <text>ING</text>
                </lyric>
                <lyric number="2">
                    <syllabic>middle</syllabic>
                    <text>ING</text>
                </lyric>
                <lyric number="3">
                    <syllabic>middle</syllabic>
                    <text>ING</text>
                </lyric>
                <lyric number="4">
                    <syllabic>middle</syllabic>
                    <text>ING</text>
                </lyric>
                <lyric number="5">
                    <syllabic>middle</syllabic>
                    <text>ING</text>
                </lyric>
                <lyric number="6">
                    <syllabic>middle</syllabic>
                    <text>ING</text>
                </lyric>
            </note>
            <note default-y="-45.00" default-x="346.12">
                <pitch>
                    <step>D</step>
                    <octave>4</octave>
                </pitch>
                <duration>4</duration>
                <voice>1</voice>
                <type>quarter</type>
                <stem>up</stem>
                <lyric number="1">
                    <syllabic>end</syllabic>
                    <text>TON</text>
                </lyric>
                <lyric number="2">
                    <syllabic>end</syllabic>
                    <text>TON</text>
                </lyric>
                <lyric number="3">
                    <syllabic>end</syllabic>
                    <text>TON</text>
                </lyric>
                <lyric number="4">
                    <syllabic>end</syllabic>
                    <text>TON</text>
                </lyric>
                <lyric number="5">
                    <syllabic>end</syllabic>
                    <text>TON</text>
                </lyric>
                <lyric number="6">
                    <syllabic>end</syllabic>
                    <text>TON</text>
                </lyric>
            </note>
        </measure>
        <measure width="381.63" number="17">
            <barline location="left">
                <ending type="start" number="1"></ending>
            </barline>
            <harmony print-frame="no">
                <root>
                    <root-step>E</root-step>
                </root>
                <kind text="m">minor</kind>
            </harmony>
            <note default-y="-40.00" default-x="98.50">
                <pitch>
                    <step>E</step>
                    <octave>4</octave>
                </pitch>
                <duration>12</duration>
                <voice>1</voice>
                <type>half</type>
                <dot/>
                <stem>up</stem>
                <lyric number="1">
                    <syllabic>single</syllabic>
                    <text>SQUARE.	</text>
                </lyric>
                <lyric number="2">
                    <syllabic>single</syllabic>
                    <text>SQUARE!&quot;	</text>
                </lyric>
                <lyric number="3">
                    <syllabic>single</syllabic>
                    <text>SQUARE!&quot;	</text>
                </lyric>
                <lyric number="4">
                    <syllabic>single</syllabic>
                    <text>SQUARE!&quot;	</text>
                </lyric>
                <lyric number="5">
                    <syllabic>single</syllabic>
                    <text>SQUARE.	</text>
                </lyric>
            </note>
            <note>
                <rest/>
                <duration>2</duration>
                <voice>1</voice>
                <type>eighth</type>
            </note>
            <note default-y="-55.00" default-x="307.63">
                <pitch>
                    <step>B</step>
                    <octave>3</octave>
                </pitch>
                <duration>2</duration>
                <voice>1</voice>
                <type>eighth</type>
                <stem>up</stem>
                <lyric number="1">
                    <syllabic>single</syllabic>
                    <text>2.An'</text>
                </lyric>
                <lyric number="2">
                    <syllabic>single</syllabic>
                    <text>3.Near</text>
                </lyric>
                <lyric number="3">
                    <syllabic>single</syllabic>
                    <text>4.In</text>
                </lyric>
                <lyric number="4">
                    <syllabic>single</syllabic>
                    <text>5.We</text>
                </lyric>
                <lyric number="5">
                    <syllabic>single</syllabic>
                    <text>6.Say</text>
                </lyric>
            </note>
            <barline location="right">
                <bar-style>light-heavy</bar-style>
                <ending type="stop" number="1"></ending>
                <repeat direction="backward"/>
            </barline>
        </measure>
        <measure width="229.22" number="18">
            <barline location="left">
                <ending type="start" number="1"></ending>
            </barline>
            <harmony print-frame="no">
                <root>
                    <root-step>E</root-step>
                </root>
                <kind text="m">minor</kind>
            </harmony>
            <note default-y="-40.00" default-x="66.45">
                <pitch>
                    <step>E</step>
                    <octave>4</octave>
                </pitch>
                <duration>16</duration>
                <voice>1</voice>
                <type>whole</type>
                <notations>
                    <fermata type="upright"></fermata>
                </notations>
                <lyric number="6">
                    <syllabic>single</syllabic>
                    <text>SQUARE.</text>
                </lyric>
            </note>
            <barline location="right">
                <bar-style>light-heavy</bar-style>
                <ending type="stop" number="1"></ending>
            </barline>
        </measure>
    </part>
</score-partwise>
