<?xml version="1.0" encoding="UTF-8"?>
<!DOCTYPE score-partwise PUBLIC "-//Recordare//DTD MusicXML 2.0 Partwise//EN" "http://www.musicxml.org/dtds/partwise.dtd">
<score-partwise version="2.0">
    <work>
        <work-number></work-number>
        <work-title></work-title>
    </work>
    <movement-number></movement-number>
    <movement-title>A Night In Tunisia</movement-title>
    <identification>
        <creator type="composer">Dizzy Gillespie</creator>
        <creator type="poet"></creator>
        <rights>All Rights Reserved</rights>
        <encoding>
            <software>Finale 2008 for Windows</software>
            <software>Dolet Light for Finale 2008</software>
            <encoding-date>2009-04-19</encoding-date>
            <software>ProxyMusic 2.0 c</software>
        </encoding>
        <source>http://wikifonia.org/node/1650/revisions/14306/view</source>
    </identification>
    <defaults>
        <scaling>
            <millimeters>6.5088</millimeters>
            <tenths>40</tenths>
        </scaling>
        <page-layout>
            <page-height>1717</page-height>
            <page-width>1327</page-width>
            <page-margins type="both">
                <left-margin>78</left-margin>
                <right-margin>78</right-margin>
                <top-margin>98</top-margin>
                <bottom-margin>98</bottom-margin>
            </page-margins>
        </page-layout>
        <system-layout>
            <system-margins>
                <left-margin>0</left-margin>
                <right-margin>0</right-margin>
            </system-margins>
            <system-distance>121</system-distance>
            <top-system-distance>70</top-system-distance>
        </system-layout>
        <music-font font-size="18.5" font-family="Jazz"/>
        <word-font font-size="10.8" font-family="JazzText"/>
    </defaults>
    <credit>
        <credit-words font-weight="bold" font-size="21.6" default-y="1620" default-x="663" justify="center" valign="top">Who Wants to Spend</credit-words>
    </credit>
    <credit>
        <credit-words font-weight="bold" font-size="10.8" default-y="1551" default-x="1249" justify="right" valign="top">Diz</credit-words>
    </credit>
    <credit>
        <credit-words font-size="12.6" default-y="1567" default-x="663" justify="center" valign="top">A Night in Tunisia?</credit-words>
    </credit>
    <credit>
        <credit-words font-size="12.6" default-y="1489" default-x="82" valign="top">bass:</credit-words>
    </credit>
    <part-list>
        <score-part id="P1">
            <part-name print-object="no">MusicXML Part</part-name>
            <score-instrument id="P1-I1">
                <instrument-name>Acoustic Grand Piano</instrument-name>
            </score-instrument>
            <midi-instrument id="P1-I1">
                <midi-channel>1</midi-channel>
                <midi-program>1</midi-program>
            </midi-instrument>
        </score-part>
    </part-list>
    <part id="P1">
        <measure width="498" number="0" implicit="yes">
            <print>
                <system-layout>
                    <top-system-distance>172</top-system-distance>
                </system-layout>
            </print>
            <attributes>
                <divisions>6</divisions>
                <key>
                    <fifths>-1</fifths>
                    <mode>major</mode>
                </key>
                <time>
                    <beats>4</beats>
                    <beat-type>4</beat-type>
                </time>
                <clef>
                    <sign>F</sign>
                    <line>4</line>
                </clef>
            </attributes>
            <sound tempo="180"/>
            <note default-x="128">
                <pitch>
                    <step>E</step>
                    <alter>-1</alter>
                    <octave>3</octave>
                </pitch>
                <duration>3</duration>
                <voice>1</voice>
                <type>eighth</type>
                <accidental>flat</accidental>
                <stem default-y="-50">down</stem>
                <beam number="1">begin</beam>
            </note>
            <note default-x="177">
                <pitch>
                    <step>B</step>
                    <alter>-1</alter>
                    <octave>3</octave>
                </pitch>
                <duration>3</duration>
                <voice>1</voice>
                <type>eighth</type>
                <stem default-y="-48.5">down</stem>
                <beam number="1">continue</beam>
            </note>
            <note default-x="225">
                <pitch>
                    <step>D</step>
                    <alter>-1</alter>
                    <octave>4</octave>
                </pitch>
                <duration>3</duration>
                <voice>1</voice>
                <type>eighth</type>
                <accidental>flat</accidental>
                <stem default-y="-47">down</stem>
                <beam number="1">continue</beam>
            </note>
            <note default-x="274">
                <pitch>
                    <step>E</step>
                    <alter>-1</alter>
                    <octave>4</octave>
                </pitch>
                <duration>3</duration>
                <tie type="start"/>
                <voice>1</voice>
                <type>eighth</type>
                <accidental>flat</accidental>
                <stem default-y="-45">down</stem>
                <beam number="1">end</beam>
                <notations>
                    <tied type="start"/>
                </notations>
            </note>
            <note default-x="322">
                <pitch>
                    <step>E</step>
                    <alter>-1</alter>
                    <octave>4</octave>
                </pitch>
                <duration>3</duration>
                <tie type="stop"/>
                <voice>1</voice>
                <type>eighth</type>
                <stem default-y="-20">down</stem>
                <notations>
                    <tied type="stop"/>
                </notations>
            </note>
            <note default-x="370">
                <pitch>
                    <step>D</step>
                    <alter>-1</alter>
                    <octave>4</octave>
                </pitch>
                <duration>6</duration>
                <voice>1</voice>
                <type>quarter</type>
                <stem default-y="-20">down</stem>
            </note>
            <note default-x="448">
                <pitch>
                    <step>B</step>
                    <alter>-1</alter>
                    <octave>3</octave>
                </pitch>
                <duration>3</duration>
                <voice>1</voice>
                <type>eighth</type>
                <stem default-y="-30.5">down</stem>
            </note>
        </measure>
        <measure width="329" number="X1" implicit="yes">
            <note default-x="10">
                <pitch>
                    <step>D</step>
                    <octave>3</octave>
                </pitch>
                <duration>3</duration>
                <voice>1</voice>
                <type>eighth</type>
                <stem default-y="-55">down</stem>
                <beam number="1">begin</beam>
            </note>
            <note default-x="52">
                <pitch>
                    <step>F</step>
                    <octave>3</octave>
                </pitch>
                <duration>3</duration>
                <voice>1</voice>
                <type>eighth</type>
                <stem default-y="-53">down</stem>
                <beam number="1">continue</beam>
            </note>
            <note default-x="93">
                <pitch>
                    <step>A</step>
                    <octave>3</octave>
                </pitch>
                <duration>3</duration>
                <voice>1</voice>
                <type>eighth</type>
                <stem default-y="-52">down</stem>
                <beam number="1">continue</beam>
            </note>
            <note default-x="135">
                <pitch>
                    <step>B</step>
                    <octave>3</octave>
                </pitch>
                <duration>3</duration>
                <tie type="start"/>
                <voice>1</voice>
                <type>eighth</type>
                <accidental>natural</accidental>
                <stem default-y="-50">down</stem>
                <beam number="1">end</beam>
                <notations>
                    <tied type="start"/>
                </notations>
            </note>
            <note default-x="177">
                <pitch>
                    <step>B</step>
                    <octave>3</octave>
                </pitch>
                <duration>3</duration>
                <tie type="stop"/>
                <voice>1</voice>
                <type>eighth</type>
                <stem default-y="-30.5">down</stem>
                <notations>
                    <tied type="stop"/>
                </notations>
            </note>
            <note default-x="218">
                <pitch>
                    <step>A</step>
                    <octave>3</octave>
                </pitch>
                <duration>6</duration>
                <voice>1</voice>
                <type>quarter</type>
                <stem default-y="-35.5">down</stem>
            </note>
            <note default-x="286">
                <pitch>
                    <step>F</step>
                    <octave>3</octave>
                </pitch>
                <duration>3</duration>
                <voice>1</voice>
                <type>eighth</type>
                <stem default-y="-45">down</stem>
            </note>
        </measure>
        <measure number="X2" implicit="yes">
            <attributes>
                <measure-style>
                    <measure-repeat type="start" slashes="2">2</measure-repeat>
                </measure-style>
            </attributes>
            <note>
                <pitch>
                    <step>E</step>
                    <alter>-1</alter>
                    <octave>3</octave>
                </pitch>
                <duration>3</duration>
                <voice>1</voice>
                <type>eighth</type>
                <accidental>flat</accidental>
                <stem>down</stem>
                <beam number="1">begin</beam>
            </note>
            <note>
                <pitch>
                    <step>B</step>
                    <alter>-1</alter>
                    <octave>3</octave>
                </pitch>
                <duration>3</duration>
                <voice>1</voice>
                <type>eighth</type>
                <stem>down</stem>
                <beam number="1">continue</beam>
            </note>
            <note>
                <pitch>
                    <step>D</step>
                    <alter>-1</alter>
                    <octave>4</octave>
                </pitch>
                <duration>3</duration>
                <voice>1</voice>
                <type>eighth</type>
                <accidental>flat</accidental>
                <stem>down</stem>
                <beam number="1">continue</beam>
            </note>
            <note>
                <pitch>
                    <step>E</step>
                    <alter>-1</alter>
                    <octave>4</octave>
                </pitch>
                <duration>3</duration>
                <tie type="start"/>
                <voice>1</voice>
                <type>eighth</type>
                <accidental>flat</accidental>
                <stem>down</stem>
                <beam number="1">end</beam>
                <notations>
                    <tied type="start"/>
                </notations>
            </note>
            <note>
                <pitch>
                    <step>E</step>
                    <alter>-1</alter>
                    <octave>4</octave>
                </pitch>
                <duration>3</duration>
                <tie type="stop"/>
                <voice>1</voice>
                <type>eighth</type>
                <stem>down</stem>
                <notations>
                    <tied type="stop"/>
                </notations>
            </note>
            <note>
                <pitch>
                    <step>D</step>
                    <alter>-1</alter>
                    <octave>4</octave>
                </pitch>
                <duration>6</duration>
                <voice>1</voice>
                <type>quarter</type>
                <stem>down</stem>
            </note>
            <note>
                <pitch>
                    <step>B</step>
                    <alter>-1</alter>
                    <octave>3</octave>
                </pitch>
                <duration>3</duration>
                <voice>1</voice>
                <type>eighth</type>
                <stem>down</stem>
            </note>
        </measure>
        <measure number="X3" implicit="yes">
            <note>
                <pitch>
                    <step>D</step>
                    <octave>3</octave>
                </pitch>
                <duration>3</duration>
                <voice>1</voice>
                <type>eighth</type>
                <stem>down</stem>
                <beam number="1">begin</beam>
            </note>
            <note>
                <pitch>
                    <step>F</step>
                    <octave>3</octave>
                </pitch>
                <duration>3</duration>
                <voice>1</voice>
                <type>eighth</type>
                <stem>down</stem>
                <beam number="1">continue</beam>
            </note>
            <note>
                <pitch>
                    <step>A</step>
                    <octave>3</octave>
                </pitch>
                <duration>3</duration>
                <voice>1</voice>
                <type>eighth</type>
                <stem>down</stem>
                <beam number="1">continue</beam>
            </note>
            <note>
                <pitch>
                    <step>B</step>
                    <octave>3</octave>
                </pitch>
                <duration>3</duration>
                <tie type="start"/>
                <voice>1</voice>
                <type>eighth</type>
                <accidental>natural</accidental>
                <stem>down</stem>
                <beam number="1">end</beam>
                <notations>
                    <tied type="start"/>
                </notations>
            </note>
            <note>
                <pitch>
                    <step>B</step>
                    <octave>3</octave>
                </pitch>
                <duration>3</duration>
                <tie type="stop"/>
                <voice>1</voice>
                <type>eighth</type>
                <stem>down</stem>
                <notations>
                    <tied type="stop"/>
                </notations>
            </note>
            <note>
                <pitch>
                    <step>A</step>
                    <octave>3</octave>
                </pitch>
                <duration>6</duration>
                <voice>1</voice>
                <type>quarter</type>
                <stem>down</stem>
            </note>
            <note>
                <pitch>
                    <step>F</step>
                    <octave>3</octave>
                </pitch>
                <duration>3</duration>
                <voice>1</voice>
                <type>eighth</type>
                <stem>down</stem>
            </note>
        </measure>
        <measure width="126" number="X4" implicit="yes">
            <print new-system="yes">
                <system-layout>
                    <system-distance>114</system-distance>
                </system-layout>
            </print>
            <attributes>
                <clef>
                    <sign>G</sign>
                    <line>2</line>
                </clef>
                <measure-style>
                    <measure-repeat type="stop"></measure-repeat>
                </measure-style>
            </attributes>
            <direction>
                <direction-type>
                    <words font-size="12.6" default-y="39" valign="top">Melody</words>
                </direction-type>
            </direction>
            <note default-x="77">
                <pitch>
                    <step>A</step>
                    <octave>3</octave>
                </pitch>
                <duration>3</duration>
                <voice>1</voice>
                <type>eighth</type>
                <stem default-y="-19">up</stem>
            </note>
        </measure>
        <measure width="291" number="X5" implicit="yes">
            <barline location="left">
                <bar-style>heavy-light</bar-style>
                <repeat direction="forward"/>
            </barline>
            <note default-x="32">
                <pitch>
                    <step>B</step>
                    <alter>-1</alter>
                    <octave>3</octave>
                </pitch>
                <duration>2</duration>
                <voice>1</voice>
                <type>eighth</type>
                <time-modification>
                    <actual-notes>3</actual-notes>
                    <normal-notes>2</normal-notes>
                </time-modification>
                <stem default-y="-10">up</stem>
                <beam number="1">begin</beam>
                <notations>
                    <tuplet placement="above" type="start" number="1" bracket="yes"/>
                </notations>
            </note>
            <note default-x="67">
                <pitch>
                    <step>D</step>
                    <alter>-1</alter>
                    <octave>4</octave>
                </pitch>
                <duration>2</duration>
                <voice>1</voice>
                <type>eighth</type>
                <accidental>flat</accidental>
                <time-modification>
                    <actual-notes>3</actual-notes>
                    <normal-notes>2</normal-notes>
                </time-modification>
                <stem default-y="-8.5">up</stem>
                <beam number="1">continue</beam>
            </note>
            <note default-x="95">
                <pitch>
                    <step>F</step>
                    <octave>4</octave>
                </pitch>
                <duration>2</duration>
                <voice>1</voice>
                <type>eighth</type>
                <time-modification>
                    <actual-notes>3</actual-notes>
                    <normal-notes>2</normal-notes>
                </time-modification>
                <stem default-y="-7.5">up</stem>
                <beam number="1">end</beam>
                <notations>
                    <tuplet type="stop" number="1"/>
                </notations>
            </note>
            <note default-x="123">
                <pitch>
                    <step>C</step>
                    <octave>5</octave>
                </pitch>
                <duration>12</duration>
                <voice>1</voice>
                <type>half</type>
                <stem default-y="-50">down</stem>
            </note>
            <note default-x="218">
                <pitch>
                    <step>B</step>
                    <alter>-1</alter>
                    <octave>4</octave>
                </pitch>
                <duration>3</duration>
                <voice>1</voice>
                <type>eighth</type>
                <stem default-y="15">up</stem>
                <beam number="1">begin</beam>
            </note>
            <note default-x="254">
                <pitch>
                    <step>F</step>
                    <octave>4</octave>
                </pitch>
                <duration>3</duration>
                <voice>1</voice>
                <type>eighth</type>
                <stem default-y="10">up</stem>
                <beam number="1">end</beam>
            </note>
        </measure>
        <measure width="255" number="X6" implicit="yes">
            <note default-x="25">
                <pitch>
                    <step>G</step>
                    <alter>1</alter>
                    <octave>4</octave>
                </pitch>
                <duration>3</duration>
                <voice>1</voice>
                <type>eighth</type>
                <accidental>sharp</accidental>
                <stem default-y="5.5">up</stem>
            </note>
            <note default-x="61">
                <pitch>
                    <step>A</step>
                    <octave>4</octave>
                </pitch>
                <duration>9</duration>
                <tie type="start"/>
                <voice>1</voice>
                <type>quarter</type>
                <dot/>
                <stem default-y="10.5">up</stem>
                <notations>
                    <tied type="start"/>
                </notations>
            </note>
            <note default-x="139">
                <pitch>
                    <step>A</step>
                    <octave>4</octave>
                </pitch>
                <duration>9</duration>
                <tie type="stop"/>
                <voice>1</voice>
                <type>quarter</type>
                <dot/>
                <stem default-y="10.5">up</stem>
                <notations>
                    <tied type="stop"/>
                </notations>
            </note>
            <note default-x="216">
                <pitch>
                    <step>A</step>
                    <octave>3</octave>
                </pitch>
                <duration>3</duration>
                <voice>1</voice>
                <type>eighth</type>
                <stem default-y="-19">up</stem>
            </note>
        </measure>
        <measure width="273" number="X7" implicit="yes">
            <note default-x="13">
                <pitch>
                    <step>B</step>
                    <alter>-1</alter>
                    <octave>3</octave>
                </pitch>
                <duration>2</duration>
                <voice>1</voice>
                <type>eighth</type>
                <time-modification>
                    <actual-notes>3</actual-notes>
                    <normal-notes>2</normal-notes>
                </time-modification>
                <stem default-y="-10">up</stem>
                <beam number="1">begin</beam>
                <notations>
                    <tuplet placement="above" type="start" number="1" bracket="yes"/>
                </notations>
            </note>
            <note default-x="49">
                <pitch>
                    <step>D</step>
                    <alter>-1</alter>
                    <octave>4</octave>
                </pitch>
                <duration>2</duration>
                <voice>1</voice>
                <type>eighth</type>
                <accidental>flat</accidental>
                <time-modification>
                    <actual-notes>3</actual-notes>
                    <normal-notes>2</normal-notes>
                </time-modification>
                <stem default-y="-8.5">up</stem>
                <beam number="1">continue</beam>
            </note>
            <note default-x="77">
                <pitch>
                    <step>F</step>
                    <octave>4</octave>
                </pitch>
                <duration>2</duration>
                <voice>1</voice>
                <type>eighth</type>
                <time-modification>
                    <actual-notes>3</actual-notes>
                    <normal-notes>2</normal-notes>
                </time-modification>
                <stem default-y="-7.5">up</stem>
                <beam number="1">end</beam>
                <notations>
                    <tuplet type="stop" number="1"/>
                </notations>
            </note>
            <note default-x="105">
                <pitch>
                    <step>C</step>
                    <octave>5</octave>
                </pitch>
                <duration>12</duration>
                <voice>1</voice>
                <type>half</type>
                <stem default-y="-50">down</stem>
            </note>
            <note default-x="199">
                <pitch>
                    <step>B</step>
                    <alter>-1</alter>
                    <octave>4</octave>
                </pitch>
                <duration>3</duration>
                <voice>1</voice>
                <type>eighth</type>
                <stem default-y="15">up</stem>
                <beam number="1">begin</beam>
            </note>
            <note default-x="236">
                <pitch>
                    <step>F</step>
                    <octave>4</octave>
                </pitch>
                <duration>3</duration>
                <voice>1</voice>
                <type>eighth</type>
                <stem default-y="10">up</stem>
                <beam number="1">end</beam>
            </note>
        </measure>
        <measure width="226" number="X8" implicit="yes">
            <note default-x="10">
                <pitch>
                    <step>A</step>
                    <octave>4</octave>
                </pitch>
                <duration>12</duration>
                <voice>1</voice>
                <type>half</type>
                <stem default-y="10.5">up</stem>
            </note>
            <note default-x="101">
                <rest/>
                <duration>6</duration>
                <voice>1</voice>
                <type>quarter</type>
            </note>
            <note default-x="156">
                <rest/>
                <duration>3</duration>
                <voice>1</voice>
                <type>eighth</type>
            </note>
            <note default-x="190">
                <pitch>
                    <step>A</step>
                    <octave>3</octave>
                </pitch>
                <duration>3</duration>
                <voice>1</voice>
                <type>eighth</type>
                <stem default-y="-19">up</stem>
            </note>
        </measure>
        <measure width="313" number="X9" implicit="yes">
            <print new-system="yes">
                <system-layout>
                    <system-distance>114</system-distance>
                </system-layout>
            </print>
            <note default-x="77">
                <pitch>
                    <step>B</step>
                    <alter>-1</alter>
                    <octave>3</octave>
                </pitch>
                <duration>2</duration>
                <voice>1</voice>
                <type>eighth</type>
                <time-modification>
                    <actual-notes>3</actual-notes>
                    <normal-notes>2</normal-notes>
                </time-modification>
                <stem default-y="-10">up</stem>
                <beam number="1">begin</beam>
                <notations>
                    <tuplet placement="above" type="start" number="1" bracket="yes"/>
                </notations>
            </note>
            <note default-x="112">
                <pitch>
                    <step>D</step>
                    <alter>-1</alter>
                    <octave>4</octave>
                </pitch>
                <duration>2</duration>
                <voice>1</voice>
                <type>eighth</type>
                <accidental>flat</accidental>
                <time-modification>
                    <actual-notes>3</actual-notes>
                    <normal-notes>2</normal-notes>
                </time-modification>
                <stem default-y="-9">up</stem>
                <beam number="1">continue</beam>
            </note>
            <note default-x="138">
                <pitch>
                    <step>F</step>
                    <octave>4</octave>
                </pitch>
                <duration>2</duration>
                <voice>1</voice>
                <type>eighth</type>
                <time-modification>
                    <actual-notes>3</actual-notes>
                    <normal-notes>2</normal-notes>
                </time-modification>
                <stem default-y="-7.5">up</stem>
                <beam number="1">end</beam>
                <notations>
                    <tuplet type="stop" number="1"/>
                </notations>
            </note>
            <note default-x="163">
                <pitch>
                    <step>C</step>
                    <octave>5</octave>
                </pitch>
                <duration>12</duration>
                <voice>1</voice>
                <type>half</type>
                <stem default-y="-50.5">down</stem>
            </note>
            <note default-x="247">
                <pitch>
                    <step>B</step>
                    <alter>-1</alter>
                    <octave>4</octave>
                </pitch>
                <duration>3</duration>
                <voice>1</voice>
                <type>eighth</type>
                <stem default-y="15">up</stem>
                <beam number="1">begin</beam>
            </note>
            <note default-x="279">
                <pitch>
                    <step>F</step>
                    <octave>4</octave>
                </pitch>
                <duration>3</duration>
                <voice>1</voice>
                <type>eighth</type>
                <stem default-y="10">up</stem>
                <beam number="1">end</beam>
            </note>
        </measure>
        <measure width="209" number="X10" implicit="yes">
            <note default-x="25">
                <pitch>
                    <step>G</step>
                    <alter>1</alter>
                    <octave>4</octave>
                </pitch>
                <duration>3</duration>
                <voice>1</voice>
                <type>eighth</type>
                <accidental>sharp</accidental>
                <stem default-y="5.5">up</stem>
            </note>
            <note default-x="56">
                <pitch>
                    <step>A</step>
                    <octave>4</octave>
                </pitch>
                <duration>9</duration>
                <tie type="start"/>
                <voice>1</voice>
                <type>quarter</type>
                <dot/>
                <stem default-y="11">up</stem>
                <notations>
                    <tied type="start"/>
                </notations>
            </note>
            <note default-x="124">
                <pitch>
                    <step>A</step>
                    <octave>4</octave>
                </pitch>
                <duration>12</duration>
                <tie type="stop"/>
                <voice>1</voice>
                <type>half</type>
                <stem default-y="11">up</stem>
                <notations>
                    <tied type="stop"/>
                </notations>
            </note>
        </measure>
        <measure width="265" number="X11" implicit="yes">
            <note default-x="10">
                <pitch>
                    <step>A</step>
                    <octave>4</octave>
                </pitch>
                <duration>3</duration>
                <voice>1</voice>
                <type>eighth</type>
                <stem default-y="15">up</stem>
                <beam number="1">begin</beam>
            </note>
            <note default-x="43">
                <pitch>
                    <step>B</step>
                    <alter>-1</alter>
                    <octave>4</octave>
                </pitch>
                <duration>3</duration>
                <voice>1</voice>
                <type>eighth</type>
                <stem default-y="15">up</stem>
                <beam number="1">continue</beam>
            </note>
            <note default-x="76">
                <pitch>
                    <step>A</step>
                    <octave>4</octave>
                </pitch>
                <duration>3</duration>
                <voice>1</voice>
                <type>eighth</type>
                <stem default-y="15">up</stem>
                <beam number="1">continue</beam>
            </note>
            <note default-x="110">
                <pitch>
                    <step>G</step>
                    <octave>4</octave>
                </pitch>
                <duration>3</duration>
                <voice>1</voice>
                <type>eighth</type>
                <stem default-y="15">up</stem>
                <beam number="1">end</beam>
            </note>
            <note default-x="143">
                <pitch>
                    <step>E</step>
                    <alter>-1</alter>
                    <octave>4</octave>
                </pitch>
                <duration>6</duration>
                <voice>1</voice>
                <type>quarter</type>
                <accidental>flat</accidental>
                <stem default-y="-4">up</stem>
            </note>
            <note default-x="196">
                <pitch>
                    <step>C</step>
                    <alter>1</alter>
                    <octave>4</octave>
                </pitch>
                <duration>3</duration>
                <voice>1</voice>
                <type>eighth</type>
                <accidental>sharp</accidental>
                <stem default-y="-20">up</stem>
                <beam number="1">begin</beam>
            </note>
            <note default-x="229">
                <pitch>
                    <step>D</step>
                    <octave>4</octave>
                </pitch>
                <duration>3</duration>
                <tie type="start"/>
                <voice>1</voice>
                <type>eighth</type>
                <stem default-y="-17">up</stem>
                <beam number="1">end</beam>
                <notations>
                    <tied type="start"/>
                </notations>
            </note>
        </measure>
        <measure width="224" number="X12" implicit="yes">
            <barline location="left">
                <ending font-size="7.7" default-y="40" type="start" number="1" end-length="30"></ending>
            </barline>
            <note default-x="10">
                <pitch>
                    <step>D</step>
                    <octave>4</octave>
                </pitch>
                <duration>12</duration>
                <tie type="stop"/>
                <voice>1</voice>
                <type>half</type>
                <stem default-y="-9">up</stem>
                <notations>
                    <tied type="stop"/>
                </notations>
            </note>
            <note default-x="92">
                <rest/>
                <duration>6</duration>
                <voice>1</voice>
                <type>quarter</type>
            </note>
            <note default-x="141">
                <rest/>
                <duration>3</duration>
                <voice>1</voice>
                <type>eighth</type>
            </note>
            <note default-x="172">
                <pitch>
                    <step>A</step>
                    <octave>3</octave>
                </pitch>
                <duration>3</duration>
                <voice>1</voice>
                <type>eighth</type>
                <stem default-y="-19.5">up</stem>
            </note>
            <barline location="right">
                <bar-style>light-heavy</bar-style>
                <ending type="stop" number="1"></ending>
                <repeat direction="backward"/>
            </barline>
        </measure>
        <measure width="161" number="X13" implicit="yes">
            <barline location="left">
                <ending font-size="7.7" default-y="40" type="start" number="2" end-length="30"></ending>
            </barline>
            <note default-x="8">
                <pitch>
                    <step>D</step>
                    <octave>4</octave>
                </pitch>
                <duration>18</duration>
                <voice>1</voice>
                <type>half</type>
                <dot/>
                <stem default-y="-9">up</stem>
            </note>
            <note default-x="111">
                <pitch>
                    <step>A</step>
                    <octave>4</octave>
                </pitch>
                <duration>6</duration>
                <voice>1</voice>
                <type>quarter</type>
                <stem default-y="11">up</stem>
            </note>
            <barline location="right">
                <ending type="discontinue" number="2"></ending>
            </barline>
        </measure>
        <measure width="299" number="X14" implicit="yes">
            <print new-system="yes">
                <system-layout>
                    <system-distance>114</system-distance>
                </system-layout>
            </print>
            <note default-x="74">
                <pitch>
                    <step>C</step>
                    <octave>5</octave>
                </pitch>
                <duration>12</duration>
                <voice>1</voice>
                <type>half</type>
                <stem default-y="-50.5">down</stem>
            </note>
            <note default-x="176">
                <pitch>
                    <step>A</step>
                    <octave>4</octave>
                </pitch>
                <duration>9</duration>
                <voice>1</voice>
                <type>quarter</type>
                <dot/>
                <stem default-y="11">up</stem>
            </note>
            <note default-x="259">
                <pitch>
                    <step>G</step>
                    <octave>4</octave>
                </pitch>
                <duration>3</duration>
                <voice>1</voice>
                <type>eighth</type>
                <stem default-y="6">up</stem>
            </note>
        </measure>
        <measure width="320" number="X15" implicit="yes">
            <note default-x="24">
                <pitch>
                    <step>F</step>
                    <alter>1</alter>
                    <octave>4</octave>
                </pitch>
                <duration>6</duration>
                <voice>1</voice>
                <type>quarter</type>
                <accidental>sharp</accidental>
                <stem default-y="0.5">up</stem>
            </note>
            <note default-x="90">
                <pitch>
                    <step>E</step>
                    <alter>-1</alter>
                    <octave>5</octave>
                </pitch>
                <duration>3</duration>
                <voice>1</voice>
                <type>eighth</type>
                <accidental>flat</accidental>
                <stem default-y="-40">down</stem>
                <beam number="1">begin</beam>
            </note>
            <note default-x="130">
                <pitch>
                    <step>D</step>
                    <octave>5</octave>
                </pitch>
                <duration>3</duration>
                <tie type="start"/>
                <voice>1</voice>
                <type>eighth</type>
                <stem default-y="-42.5">down</stem>
                <beam number="1">end</beam>
                <notations>
                    <tied type="start"/>
                </notations>
            </note>
            <note default-x="172">
                <pitch>
                    <step>D</step>
                    <octave>5</octave>
                </pitch>
                <duration>6</duration>
                <tie type="stop"/>
                <voice>1</voice>
                <type>quarter</type>
                <stem default-y="-45">down</stem>
                <notations>
                    <tied type="stop"/>
                </notations>
            </note>
            <note default-x="237">
                <pitch>
                    <step>C</step>
                    <octave>5</octave>
                </pitch>
                <duration>3</duration>
                <voice>1</voice>
                <type>eighth</type>
                <stem default-y="-55">down</stem>
                <beam number="1">begin</beam>
            </note>
            <note default-x="278">
                <pitch>
                    <step>A</step>
                    <octave>4</octave>
                </pitch>
                <duration>3</duration>
                <voice>1</voice>
                <type>eighth</type>
                <stem default-y="-60">down</stem>
                <beam number="1">end</beam>
            </note>
        </measure>
        <measure width="347" number="X16" implicit="yes">
            <note default-x="11">
                <pitch>
                    <step>B</step>
                    <alter>-1</alter>
                    <octave>4</octave>
                </pitch>
                <duration>3</duration>
                <voice>1</voice>
                <type>eighth</type>
                <stem default-y="-55.5">down</stem>
            </note>
            <note default-x="54">
                <pitch>
                    <step>G</step>
                    <octave>4</octave>
                </pitch>
                <duration>6</duration>
                <voice>1</voice>
                <type>quarter</type>
                <stem default-y="6">up</stem>
            </note>
            <note default-x="126">
                <pitch>
                    <step>F</step>
                    <alter>1</alter>
                    <octave>4</octave>
                </pitch>
                <duration>3</duration>
                <tie type="start"/>
                <voice>1</voice>
                <type>eighth</type>
                <accidental>sharp</accidental>
                <stem default-y="0.5">up</stem>
                <notations>
                    <tied type="start"/>
                </notations>
            </note>
            <note default-x="170">
                <pitch>
                    <step>F</step>
                    <alter>1</alter>
                    <octave>4</octave>
                </pitch>
                <duration>3</duration>
                <tie type="stop"/>
                <voice>1</voice>
                <type>eighth</type>
                <stem default-y="10">up</stem>
                <beam number="1">begin</beam>
                <notations>
                    <tied type="stop"/>
                </notations>
            </note>
            <note default-x="214">
                <pitch>
                    <step>G</step>
                    <octave>4</octave>
                </pitch>
                <duration>3</duration>
                <voice>1</voice>
                <type>eighth</type>
                <stem default-y="10">up</stem>
                <beam number="1">continue</beam>
            </note>
            <note default-x="257">
                <pitch>
                    <step>A</step>
                    <octave>4</octave>
                </pitch>
                <duration>3</duration>
                <voice>1</voice>
                <type>eighth</type>
                <stem default-y="10">up</stem>
                <beam number="1">continue</beam>
            </note>
            <note default-x="301">
                <pitch>
                    <step>G</step>
                    <octave>4</octave>
                </pitch>
                <duration>3</duration>
                <tie type="start"/>
                <voice>1</voice>
                <type>eighth</type>
                <stem default-y="10">up</stem>
                <beam number="1">end</beam>
                <notations>
                    <tied type="start"/>
                </notations>
            </note>
        </measure>
        <measure width="206" number="X17" implicit="yes">
            <note default-x="10">
                <pitch>
                    <step>G</step>
                    <octave>4</octave>
                </pitch>
                <duration>12</duration>
                <tie type="stop"/>
                <voice>1</voice>
                <type>half</type>
                <stem default-y="6">up</stem>
                <notations>
                    <tied type="stop"/>
                </notations>
            </note>
            <note default-x="105">
                <rest/>
                <duration>12</duration>
                <voice>1</voice>
                <type>half</type>
            </note>
        </measure>
        <measure width="298" number="X18" implicit="yes">
            <print new-system="yes">
                <system-layout>
                    <system-distance>114</system-distance>
                </system-layout>
            </print>
            <note default-x="74">
                <pitch>
                    <step>B</step>
                    <alter>-1</alter>
                    <octave>4</octave>
                </pitch>
                <duration>12</duration>
                <voice>1</voice>
                <type>half</type>
                <stem default-y="-55.5">down</stem>
            </note>
            <note default-x="175">
                <pitch>
                    <step>G</step>
                    <octave>4</octave>
                </pitch>
                <duration>9</duration>
                <voice>1</voice>
                <type>quarter</type>
                <dot/>
                <stem default-y="6">up</stem>
            </note>
            <note default-x="257">
                <pitch>
                    <step>F</step>
                    <octave>4</octave>
                </pitch>
                <duration>3</duration>
                <voice>1</voice>
                <type>eighth</type>
                <stem default-y="0">up</stem>
            </note>
        </measure>
        <measure width="314" number="X19" implicit="yes">
            <note default-x="10">
                <pitch>
                    <step>E</step>
                    <octave>4</octave>
                </pitch>
                <duration>6</duration>
                <voice>1</voice>
                <type>quarter</type>
                <stem default-y="-4.5">up</stem>
            </note>
            <note default-x="77">
                <pitch>
                    <step>D</step>
                    <alter>-1</alter>
                    <octave>5</octave>
                </pitch>
                <duration>3</duration>
                <voice>1</voice>
                <type>eighth</type>
                <accidental>flat</accidental>
                <stem default-y="-45">down</stem>
                <beam number="1">begin</beam>
            </note>
            <note default-x="119">
                <pitch>
                    <step>C</step>
                    <octave>5</octave>
                </pitch>
                <duration>3</duration>
                <tie type="start"/>
                <voice>1</voice>
                <type>eighth</type>
                <stem default-y="-50">down</stem>
                <beam number="1">end</beam>
                <notations>
                    <tied type="start"/>
                </notations>
            </note>
            <note default-x="161">
                <pitch>
                    <step>C</step>
                    <octave>5</octave>
                </pitch>
                <duration>6</duration>
                <tie type="stop"/>
                <voice>1</voice>
                <type>quarter</type>
                <stem default-y="-50.5">down</stem>
                <notations>
                    <tied type="stop"/>
                </notations>
            </note>
            <note default-x="229">
                <pitch>
                    <step>B</step>
                    <alter>-1</alter>
                    <octave>4</octave>
                </pitch>
                <duration>3</duration>
                <voice>1</voice>
                <type>eighth</type>
                <stem default-y="15">up</stem>
                <beam number="1">begin</beam>
            </note>
            <note default-x="270">
                <pitch>
                    <step>G</step>
                    <alter>1</alter>
                    <octave>4</octave>
                </pitch>
                <duration>3</duration>
                <voice>1</voice>
                <type>eighth</type>
                <accidental>sharp</accidental>
                <stem default-y="10">up</stem>
                <beam number="1">end</beam>
            </note>
        </measure>
        <measure width="289" number="X20" implicit="yes">
            <note default-x="10">
                <pitch>
                    <step>A</step>
                    <octave>4</octave>
                </pitch>
                <duration>9</duration>
                <voice>1</voice>
                <type>quarter</type>
                <dot/>
                <stem default-y="11">up</stem>
            </note>
            <note default-x="98">
                <pitch>
                    <step>F</step>
                    <octave>4</octave>
                </pitch>
                <duration>3</duration>
                <voice>1</voice>
                <type>eighth</type>
                <stem default-y="0">up</stem>
            </note>
            <note default-x="139">
                <pitch>
                    <step>G</step>
                    <octave>4</octave>
                </pitch>
                <duration>6</duration>
                <voice>1</voice>
                <type>quarter</type>
                <stem default-y="6">up</stem>
            </note>
            <note default-x="205">
                <pitch>
                    <step>F</step>
                    <octave>4</octave>
                </pitch>
                <duration>3</duration>
                <voice>1</voice>
                <type>eighth</type>
                <stem default-y="-5">up</stem>
                <beam number="1">begin</beam>
            </note>
            <note default-x="247">
                <pitch>
                    <step>E</step>
                    <octave>4</octave>
                </pitch>
                <duration>3</duration>
                <tie type="start"/>
                <voice>1</voice>
                <type>eighth</type>
                <stem default-y="-7">up</stem>
                <beam number="1">end</beam>
                <notations>
                    <tied type="start"/>
                </notations>
            </note>
        </measure>
        <measure width="270" number="X21" implicit="yes">
            <note default-x="10">
                <pitch>
                    <step>E</step>
                    <octave>4</octave>
                </pitch>
                <duration>12</duration>
                <tie type="stop"/>
                <voice>1</voice>
                <type>half</type>
                <stem default-y="-4.5">up</stem>
                <notations>
                    <tied type="stop"/>
                </notations>
            </note>
            <note default-x="111">
                <rest/>
                <duration>6</duration>
                <voice>1</voice>
                <type>quarter</type>
            </note>
            <note default-x="174">
                <rest/>
                <duration>3</duration>
                <voice>1</voice>
                <type>eighth</type>
            </note>
            <note default-x="212">
                <pitch>
                    <step>A</step>
                    <octave>3</octave>
                </pitch>
                <duration>3</duration>
                <voice>1</voice>
                <type>eighth</type>
                <stem default-y="-19">up</stem>
            </note>
            <barline location="right">
                <bar-style>light-heavy</bar-style>
                <repeat direction="backward"/>
            </barline>
        </measure>
        <measure width="341" number="X22" implicit="yes">
            <print new-system="yes">
                <system-layout>
                    <system-distance>114</system-distance>
                </system-layout>
            </print>
            <note default-x="74">
                <pitch>
                    <step>D</step>
                    <octave>4</octave>
                </pitch>
                <duration>9</duration>
                <voice>1</voice>
                <type>quarter</type>
                <dot/>
                <stem default-y="-9.5">up</stem>
            </note>
            <note default-x="156">
                <pitch>
                    <step>A</step>
                    <octave>4</octave>
                </pitch>
                <duration>3</duration>
                <voice>1</voice>
                <type>eighth</type>
                <stem default-y="10.5">up</stem>
            </note>
            <note default-x="196">
                <rest/>
                <duration>3</duration>
                <voice>1</voice>
                <type>eighth</type>
            </note>
            <note default-x="234">
                <pitch>
                    <step>A</step>
                    <octave>4</octave>
                </pitch>
                <duration>6</duration>
                <voice>1</voice>
                <type>quarter</type>
                <stem default-y="10.5">up</stem>
            </note>
            <note default-x="296">
                <pitch>
                    <step>A</step>
                    <octave>4</octave>
                </pitch>
                <duration>3</duration>
                <tie type="start"/>
                <voice>1</voice>
                <type>eighth</type>
                <stem default-y="10.5">up</stem>
                <notations>
                    <tied type="start"/>
                </notations>
            </note>
        </measure>
        <measure width="250" number="X23" implicit="yes">
            <note default-x="10">
                <pitch>
                    <step>A</step>
                    <octave>4</octave>
                </pitch>
                <duration>6</duration>
                <tie type="stop"/>
                <voice>1</voice>
                <type>quarter</type>
                <stem default-y="10.5">up</stem>
                <notations>
                    <tied type="stop"/>
                </notations>
            </note>
            <note default-x="64">
                <pitch>
                    <step>G</step>
                    <octave>4</octave>
                </pitch>
                <duration>3</duration>
                <voice>1</voice>
                <type>eighth</type>
                <stem default-y="5">up</stem>
                <beam number="1">begin</beam>
            </note>
            <note default-x="97">
                <pitch>
                    <step>E</step>
                    <octave>4</octave>
                </pitch>
                <duration>3</duration>
                <voice>1</voice>
                <type>eighth</type>
                <stem default-y="3">up</stem>
                <beam number="1">end</beam>
            </note>
            <note default-x="130">
                <pitch>
                    <step>A</step>
                    <octave>4</octave>
                </pitch>
                <duration>6</duration>
                <voice>1</voice>
                <type>quarter</type>
                <stem default-y="10.5">up</stem>
            </note>
            <note default-x="183">
                <pitch>
                    <step>G</step>
                    <octave>4</octave>
                </pitch>
                <duration>3</duration>
                <voice>1</voice>
                <type>eighth</type>
                <stem default-y="5">up</stem>
                <beam number="1">begin</beam>
            </note>
            <note default-x="216">
                <pitch>
                    <step>E</step>
                    <octave>4</octave>
                </pitch>
                <duration>3</duration>
                <voice>1</voice>
                <type>eighth</type>
                <stem default-y="3">up</stem>
                <beam number="1">end</beam>
            </note>
        </measure>
        <measure width="296" number="X24" implicit="yes">
            <note default-x="10">
                <pitch>
                    <step>A</step>
                    <octave>4</octave>
                </pitch>
                <duration>3</duration>
                <voice>1</voice>
                <type>eighth</type>
                <stem default-y="10">up</stem>
                <beam number="1">begin</beam>
            </note>
            <note default-x="47">
                <pitch>
                    <step>G</step>
                    <octave>4</octave>
                </pitch>
                <duration>3</duration>
                <voice>1</voice>
                <type>eighth</type>
                <stem default-y="10">up</stem>
                <beam number="1">continue</beam>
            </note>
            <note default-x="82">
                <pitch>
                    <step>E</step>
                    <octave>4</octave>
                </pitch>
                <duration>3</duration>
                <voice>1</voice>
                <type>eighth</type>
                <stem default-y="10">up</stem>
                <beam number="1">continue</beam>
            </note>
            <note default-x="119">
                <pitch>
                    <step>A</step>
                    <octave>4</octave>
                </pitch>
                <duration>3</duration>
                <voice>1</voice>
                <type>eighth</type>
                <stem default-y="10">up</stem>
                <beam number="1">end</beam>
            </note>
            <note default-x="156">
                <rest/>
                <duration>6</duration>
                <voice>1</voice>
                <type>quarter</type>
            </note>
            <note default-x="215">
                <rest/>
                <duration>3</duration>
                <voice>1</voice>
                <type>eighth</type>
            </note>
            <note default-x="250">
                <pitch>
                    <step>A</step>
                    <octave>4</octave>
                </pitch>
                <duration>3</duration>
                <tie type="start"/>
                <voice>1</voice>
                <type>eighth</type>
                <stem default-y="10.5">up</stem>
                <notations>
                    <tied type="start"/>
                </notations>
            </note>
        </measure>
        <measure width="283" number="X25" implicit="yes">
            <note default-x="10">
                <pitch>
                    <step>A</step>
                    <octave>4</octave>
                </pitch>
                <duration>6</duration>
                <tie type="stop"/>
                <voice>1</voice>
                <type>quarter</type>
                <stem default-y="10.5">up</stem>
                <notations>
                    <tied type="stop"/>
                </notations>
            </note>
            <note default-x="71">
                <pitch>
                    <step>F</step>
                    <octave>4</octave>
                </pitch>
                <duration>3</duration>
                <voice>1</voice>
                <type>eighth</type>
                <stem default-y="-5">up</stem>
                <beam number="1">begin</beam>
            </note>
            <note default-x="108">
                <pitch>
                    <step>D</step>
                    <alter>-1</alter>
                    <octave>4</octave>
                </pitch>
                <duration>3</duration>
                <voice>1</voice>
                <type>eighth</type>
                <accidental>flat</accidental>
                <stem default-y="-7.5">up</stem>
                <beam number="1">end</beam>
            </note>
            <note default-x="146">
                <pitch>
                    <step>A</step>
                    <octave>4</octave>
                </pitch>
                <duration>6</duration>
                <voice>1</voice>
                <type>quarter</type>
                <stem default-y="10.5">up</stem>
            </note>
            <note default-x="207">
                <pitch>
                    <step>F</step>
                    <octave>4</octave>
                </pitch>
                <duration>3</duration>
                <voice>1</voice>
                <type>eighth</type>
                <stem default-y="-5">up</stem>
                <beam number="1">begin</beam>
            </note>
            <note default-x="244">
                <pitch>
                    <step>D</step>
                    <alter>-1</alter>
                    <octave>4</octave>
                </pitch>
                <duration>3</duration>
                <voice>1</voice>
                <type>eighth</type>
                <accidental>flat</accidental>
                <stem default-y="-7.5">up</stem>
                <beam number="1">end</beam>
            </note>
        </measure>
        <measure width="366" number="X26" implicit="yes">
            <print new-system="yes">
                <system-layout>
                    <system-distance>114</system-distance>
                </system-layout>
            </print>
            <note default-x="74">
                <pitch>
                    <step>A</step>
                    <octave>4</octave>
                </pitch>
                <duration>3</duration>
                <voice>1</voice>
                <type>eighth</type>
                <stem default-y="10">up</stem>
                <beam number="1">begin</beam>
            </note>
            <note default-x="110">
                <pitch>
                    <step>F</step>
                    <octave>4</octave>
                </pitch>
                <duration>3</duration>
                <voice>1</voice>
                <type>eighth</type>
                <stem default-y="10">up</stem>
                <beam number="1">continue</beam>
            </note>
            <note default-x="151">
                <pitch>
                    <step>D</step>
                    <alter>-1</alter>
                    <octave>4</octave>
                </pitch>
                <duration>3</duration>
                <voice>1</voice>
                <type>eighth</type>
                <accidental>flat</accidental>
                <stem default-y="10">up</stem>
                <beam number="1">continue</beam>
            </note>
            <note default-x="188">
                <pitch>
                    <step>A</step>
                    <octave>4</octave>
                </pitch>
                <duration>3</duration>
                <voice>1</voice>
                <type>eighth</type>
                <stem default-y="10">up</stem>
                <beam number="1">end</beam>
            </note>
            <note default-x="224">
                <rest/>
                <duration>6</duration>
                <voice>1</voice>
                <type>quarter</type>
            </note>
            <note default-x="285">
                <rest/>
                <duration>3</duration>
                <voice>1</voice>
                <type>eighth</type>
            </note>
            <note default-x="321">
                <pitch>
                    <step>A</step>
                    <octave>4</octave>
                </pitch>
                <duration>3</duration>
                <tie type="start"/>
                <voice>1</voice>
                <type>eighth</type>
                <stem default-y="11">up</stem>
                <notations>
                    <tied type="start"/>
                </notations>
            </note>
        </measure>
        <measure width="243" number="X27" implicit="yes">
            <note default-x="10">
                <pitch>
                    <step>A</step>
                    <octave>4</octave>
                </pitch>
                <duration>6</duration>
                <tie type="stop"/>
                <voice>1</voice>
                <type>quarter</type>
                <stem default-y="11">up</stem>
                <notations>
                    <tied type="stop"/>
                </notations>
            </note>
            <note default-x="62">
                <pitch>
                    <step>F</step>
                    <octave>4</octave>
                </pitch>
                <duration>3</duration>
                <voice>1</voice>
                <type>eighth</type>
                <stem default-y="-5">up</stem>
                <beam number="1">begin</beam>
            </note>
            <note default-x="94">
                <pitch>
                    <step>D</step>
                    <octave>4</octave>
                </pitch>
                <duration>3</duration>
                <voice>1</voice>
                <type>eighth</type>
                <stem default-y="-7.5">up</stem>
                <beam number="1">end</beam>
            </note>
            <note default-x="126">
                <pitch>
                    <step>A</step>
                    <octave>4</octave>
                </pitch>
                <duration>6</duration>
                <voice>1</voice>
                <type>quarter</type>
                <stem default-y="11">up</stem>
            </note>
            <note default-x="178">
                <pitch>
                    <step>F</step>
                    <octave>4</octave>
                </pitch>
                <duration>3</duration>
                <voice>1</voice>
                <type>eighth</type>
                <stem default-y="-5">up</stem>
                <beam number="1">begin</beam>
            </note>
            <note default-x="210">
                <pitch>
                    <step>D</step>
                    <octave>4</octave>
                </pitch>
                <duration>3</duration>
                <voice>1</voice>
                <type>eighth</type>
                <stem default-y="-7.5">up</stem>
                <beam number="1">end</beam>
            </note>
        </measure>
        <measure width="287" number="X28" implicit="yes">
            <note default-x="10">
                <pitch>
                    <step>A</step>
                    <octave>4</octave>
                </pitch>
                <duration>3</duration>
                <voice>1</voice>
                <type>eighth</type>
                <stem default-y="10">up</stem>
                <beam number="1">begin</beam>
            </note>
            <note default-x="45">
                <pitch>
                    <step>F</step>
                    <octave>4</octave>
                </pitch>
                <duration>3</duration>
                <voice>1</voice>
                <type>eighth</type>
                <stem default-y="10">up</stem>
                <beam number="1">continue</beam>
            </note>
            <note default-x="80">
                <pitch>
                    <step>D</step>
                    <octave>4</octave>
                </pitch>
                <duration>3</duration>
                <voice>1</voice>
                <type>eighth</type>
                <stem default-y="10">up</stem>
                <beam number="1">continue</beam>
            </note>
            <note default-x="115">
                <pitch>
                    <step>A</step>
                    <octave>4</octave>
                </pitch>
                <duration>3</duration>
                <voice>1</voice>
                <type>eighth</type>
                <stem default-y="10">up</stem>
                <beam number="1">end</beam>
            </note>
            <note default-x="151">
                <rest/>
                <duration>6</duration>
                <voice>1</voice>
                <type>quarter</type>
            </note>
            <note default-x="208">
                <rest/>
                <duration>3</duration>
                <voice>1</voice>
                <type>eighth</type>
            </note>
            <note default-x="242">
                <pitch>
                    <step>A</step>
                    <octave>4</octave>
                </pitch>
                <duration>3</duration>
                <tie type="start"/>
                <voice>1</voice>
                <type>eighth</type>
                <stem default-y="11">up</stem>
                <notations>
                    <tied type="start"/>
                </notations>
            </note>
        </measure>
        <measure width="274" number="X29" implicit="yes">
            <note default-x="10">
                <pitch>
                    <step>A</step>
                    <octave>4</octave>
                </pitch>
                <duration>6</duration>
                <tie type="stop"/>
                <voice>1</voice>
                <type>quarter</type>
                <stem default-y="11">up</stem>
                <notations>
                    <tied type="stop"/>
                </notations>
            </note>
            <note default-x="69">
                <pitch>
                    <step>F</step>
                    <octave>4</octave>
                </pitch>
                <duration>3</duration>
                <voice>1</voice>
                <type>eighth</type>
                <stem default-y="-5">up</stem>
                <beam number="1">begin</beam>
            </note>
            <note default-x="105">
                <pitch>
                    <step>D</step>
                    <alter>-1</alter>
                    <octave>4</octave>
                </pitch>
                <duration>3</duration>
                <voice>1</voice>
                <type>eighth</type>
                <accidental>flat</accidental>
                <stem default-y="-7.5">up</stem>
                <beam number="1">end</beam>
            </note>
            <note default-x="142">
                <pitch>
                    <step>A</step>
                    <octave>4</octave>
                </pitch>
                <duration>6</duration>
                <voice>1</voice>
                <type>quarter</type>
                <stem default-y="11">up</stem>
            </note>
            <note default-x="200">
                <pitch>
                    <step>F</step>
                    <octave>4</octave>
                </pitch>
                <duration>3</duration>
                <voice>1</voice>
                <type>eighth</type>
                <stem default-y="-5">up</stem>
                <beam number="1">begin</beam>
            </note>
            <note default-x="236">
                <pitch>
                    <step>D</step>
                    <alter>-1</alter>
                    <octave>4</octave>
                </pitch>
                <duration>3</duration>
                <voice>1</voice>
                <type>eighth</type>
                <accidental>flat</accidental>
                <stem default-y="-7.5">up</stem>
                <beam number="1">end</beam>
            </note>
        </measure>
        <measure width="366" number="X30" implicit="yes">
            <print new-system="yes">
                <system-layout>
                    <system-distance>114</system-distance>
                </system-layout>
            </print>
            <note default-x="74">
                <pitch>
                    <step>A</step>
                    <octave>4</octave>
                </pitch>
                <duration>3</duration>
                <voice>1</voice>
                <type>eighth</type>
                <stem default-y="10">up</stem>
                <beam number="1">begin</beam>
            </note>
            <note default-x="110">
                <pitch>
                    <step>F</step>
                    <octave>4</octave>
                </pitch>
                <duration>3</duration>
                <voice>1</voice>
                <type>eighth</type>
                <stem default-y="10">up</stem>
                <beam number="1">continue</beam>
            </note>
            <note default-x="151">
                <pitch>
                    <step>D</step>
                    <alter>-1</alter>
                    <octave>4</octave>
                </pitch>
                <duration>3</duration>
                <voice>1</voice>
                <type>eighth</type>
                <accidental>flat</accidental>
                <stem default-y="10">up</stem>
                <beam number="1">continue</beam>
            </note>
            <note default-x="188">
                <pitch>
                    <step>A</step>
                    <octave>4</octave>
                </pitch>
                <duration>3</duration>
                <voice>1</voice>
                <type>eighth</type>
                <stem default-y="10">up</stem>
                <beam number="1">end</beam>
            </note>
            <note default-x="224">
                <rest/>
                <duration>6</duration>
                <voice>1</voice>
                <type>quarter</type>
            </note>
            <note default-x="285">
                <rest/>
                <duration>3</duration>
                <voice>1</voice>
                <type>eighth</type>
            </note>
            <note default-x="321">
                <pitch>
                    <step>A</step>
                    <octave>4</octave>
                </pitch>
                <duration>3</duration>
                <tie type="start"/>
                <voice>1</voice>
                <type>eighth</type>
                <stem default-y="11">up</stem>
                <notations>
                    <tied type="start"/>
                </notations>
            </note>
        </measure>
        <measure width="243" number="X31" implicit="yes">
            <note default-x="10">
                <pitch>
                    <step>A</step>
                    <octave>4</octave>
                </pitch>
                <duration>6</duration>
                <tie type="stop"/>
                <voice>1</voice>
                <type>quarter</type>
                <stem default-y="11">up</stem>
                <notations>
                    <tied type="stop"/>
                </notations>
            </note>
            <note default-x="62">
                <pitch>
                    <step>F</step>
                    <alter>1</alter>
                    <octave>4</octave>
                </pitch>
                <duration>3</duration>
                <voice>1</voice>
                <type>eighth</type>
                <accidental>sharp</accidental>
                <stem default-y="-5">up</stem>
                <beam number="1">begin</beam>
            </note>
            <note default-x="94">
                <pitch>
                    <step>D</step>
                    <octave>4</octave>
                </pitch>
                <duration>3</duration>
                <voice>1</voice>
                <type>eighth</type>
                <stem default-y="-7">up</stem>
                <beam number="1">end</beam>
            </note>
            <note default-x="126">
                <pitch>
                    <step>A</step>
                    <octave>4</octave>
                </pitch>
                <duration>6</duration>
                <voice>1</voice>
                <type>quarter</type>
                <stem default-y="11">up</stem>
            </note>
            <note default-x="178">
                <pitch>
                    <step>F</step>
                    <alter>1</alter>
                    <octave>4</octave>
                </pitch>
                <duration>3</duration>
                <voice>1</voice>
                <type>eighth</type>
                <stem default-y="-5">up</stem>
                <beam number="1">begin</beam>
            </note>
            <note default-x="210">
                <pitch>
                    <step>D</step>
                    <octave>4</octave>
                </pitch>
                <duration>3</duration>
                <voice>1</voice>
                <type>eighth</type>
                <stem default-y="-7">up</stem>
                <beam number="1">end</beam>
            </note>
        </measure>
        <measure width="287" number="X32" implicit="yes">
            <note default-x="10">
                <pitch>
                    <step>A</step>
                    <octave>4</octave>
                </pitch>
                <duration>3</duration>
                <voice>1</voice>
                <type>eighth</type>
                <stem default-y="10">up</stem>
                <beam number="1">begin</beam>
            </note>
            <note default-x="45">
                <pitch>
                    <step>F</step>
                    <octave>4</octave>
                </pitch>
                <duration>3</duration>
                <voice>1</voice>
                <type>eighth</type>
                <stem default-y="10">up</stem>
                <beam number="1">continue</beam>
            </note>
            <note default-x="80">
                <pitch>
                    <step>D</step>
                    <octave>4</octave>
                </pitch>
                <duration>3</duration>
                <voice>1</voice>
                <type>eighth</type>
                <stem default-y="10">up</stem>
                <beam number="1">continue</beam>
            </note>
            <note default-x="115">
                <pitch>
                    <step>A</step>
                    <octave>4</octave>
                </pitch>
                <duration>3</duration>
                <voice>1</voice>
                <type>eighth</type>
                <stem default-y="10">up</stem>
                <beam number="1">end</beam>
            </note>
            <note default-x="151">
                <rest/>
                <duration>6</duration>
                <voice>1</voice>
                <type>quarter</type>
            </note>
            <note default-x="208">
                <rest/>
                <duration>3</duration>
                <voice>1</voice>
                <type>eighth</type>
            </note>
            <note default-x="242">
                <pitch>
                    <step>A</step>
                    <octave>4</octave>
                </pitch>
                <duration>3</duration>
                <tie type="start"/>
                <voice>1</voice>
                <type>eighth</type>
                <stem default-y="11">up</stem>
                <notations>
                    <tied type="start"/>
                </notations>
            </note>
        </measure>
        <measure width="274" number="X33" implicit="yes">
            <note default-x="10">
                <pitch>
                    <step>A</step>
                    <octave>4</octave>
                </pitch>
                <duration>6</duration>
                <tie type="stop"/>
                <voice>1</voice>
                <type>quarter</type>
                <stem default-y="11">up</stem>
                <notations>
                    <tied type="stop"/>
                </notations>
            </note>
            <note default-x="69">
                <pitch>
                    <step>F</step>
                    <alter>-1</alter>
                    <octave>4</octave>
                </pitch>
                <duration>3</duration>
                <voice>1</voice>
                <type>eighth</type>
                <accidental>flat</accidental>
                <stem default-y="-5">up</stem>
                <beam number="1">begin</beam>
            </note>
            <note default-x="105">
                <pitch>
                    <step>D</step>
                    <alter>-1</alter>
                    <octave>4</octave>
                </pitch>
                <duration>3</duration>
                <voice>1</voice>
                <type>eighth</type>
                <accidental>flat</accidental>
                <stem default-y="-7">up</stem>
                <beam number="1">end</beam>
            </note>
            <note default-x="142">
                <pitch>
                    <step>A</step>
                    <octave>4</octave>
                </pitch>
                <duration>6</duration>
                <voice>1</voice>
                <type>quarter</type>
                <stem default-y="11">up</stem>
            </note>
            <note default-x="200">
                <pitch>
                    <step>F</step>
                    <alter>-1</alter>
                    <octave>4</octave>
                </pitch>
                <duration>3</duration>
                <voice>1</voice>
                <type>eighth</type>
                <stem default-y="-5">up</stem>
                <beam number="1">begin</beam>
            </note>
            <note default-x="236">
                <pitch>
                    <step>D</step>
                    <alter>-1</alter>
                    <octave>4</octave>
                </pitch>
                <duration>3</duration>
                <voice>1</voice>
                <type>eighth</type>
                <accidental>flat</accidental>
                <stem default-y="-7">up</stem>
                <beam number="1">end</beam>
            </note>
        </measure>
        <measure width="335" number="X34" implicit="yes">
            <print new-system="yes">
                <system-layout>
                    <system-distance>114</system-distance>
                </system-layout>
            </print>
            <note default-x="74">
                <pitch>
                    <step>A</step>
                    <octave>4</octave>
                </pitch>
                <duration>3</duration>
                <voice>1</voice>
                <type>eighth</type>
                <stem default-y="10">up</stem>
                <beam number="1">begin</beam>
            </note>
            <note default-x="108">
                <pitch>
                    <step>F</step>
                    <alter>-1</alter>
                    <octave>4</octave>
                </pitch>
                <duration>3</duration>
                <voice>1</voice>
                <type>eighth</type>
                <accidental>flat</accidental>
                <stem default-y="10">up</stem>
                <beam number="1">continue</beam>
            </note>
            <note default-x="142">
                <pitch>
                    <step>D</step>
                    <alter>-1</alter>
                    <octave>4</octave>
                </pitch>
                <duration>3</duration>
                <voice>1</voice>
                <type>eighth</type>
                <accidental>flat</accidental>
                <stem default-y="10">up</stem>
                <beam number="1">continue</beam>
            </note>
            <note default-x="176">
                <pitch>
                    <step>A</step>
                    <octave>4</octave>
                </pitch>
                <duration>3</duration>
                <voice>1</voice>
                <type>eighth</type>
                <stem default-y="10">up</stem>
                <beam number="1">end</beam>
            </note>
            <note default-x="211">
                <rest/>
                <duration>6</duration>
                <voice>1</voice>
                <type>quarter</type>
            </note>
            <note default-x="265">
                <pitch>
                    <step>A</step>
                    <octave>4</octave>
                </pitch>
                <duration>3</duration>
                <voice>1</voice>
                <type>eighth</type>
                <stem default-y="-60">down</stem>
                <beam number="1">begin</beam>
            </note>
            <note default-x="299">
                <pitch>
                    <step>C</step>
                    <octave>5</octave>
                </pitch>
                <duration>3</duration>
                <voice>1</voice>
                <type>eighth</type>
                <stem default-y="-55">down</stem>
                <beam number="1">end</beam>
            </note>
        </measure>
        <measure width="209" number="X35" implicit="yes">
            <attributes>
                <measure-style>
                    <slash use-stems="no" type="start"/>
                </measure-style>
            </attributes>
            <harmony font-size="13.8" default-y="12">
                <root>
                    <root-step>F</root-step>
                </root>
                <kind text="Maj7">major-seventh</kind>
            </harmony>
            <note default-x="11">
                <pitch>
                    <step>F</step>
                    <octave>5</octave>
                </pitch>
                <duration>6</duration>
                <voice>1</voice>
                <type>quarter</type>
                <stem>down</stem>
            </note>
            <note default-x="60">
                <pitch>
                    <step>F</step>
                    <octave>5</octave>
                </pitch>
                <duration>6</duration>
                <voice>1</voice>
                <type>quarter</type>
                <stem>down</stem>
            </note>
            <note default-x="109">
                <pitch>
                    <step>F</step>
                    <octave>5</octave>
                </pitch>
                <duration>6</duration>
                <voice>1</voice>
                <type>quarter</type>
                <stem>down</stem>
            </note>
            <note default-x="158">
                <pitch>
                    <step>F</step>
                    <octave>5</octave>
                </pitch>
                <duration>6</duration>
                <voice>1</voice>
                <type>quarter</type>
                <stem>down</stem>
            </note>
        </measure>
        <measure width="209" number="X36" implicit="yes">
            <note default-x="11">
                <pitch>
                    <step>F</step>
                    <octave>5</octave>
                </pitch>
                <duration>6</duration>
                <voice>1</voice>
                <type>quarter</type>
                <stem>down</stem>
            </note>
            <note default-x="60">
                <pitch>
                    <step>F</step>
                    <octave>5</octave>
                </pitch>
                <duration>6</duration>
                <voice>1</voice>
                <type>quarter</type>
                <stem>down</stem>
            </note>
            <note default-x="109">
                <pitch>
                    <step>F</step>
                    <octave>5</octave>
                </pitch>
                <duration>6</duration>
                <voice>1</voice>
                <type>quarter</type>
                <stem>down</stem>
            </note>
            <note default-x="158">
                <pitch>
                    <step>F</step>
                    <octave>5</octave>
                </pitch>
                <duration>6</duration>
                <voice>1</voice>
                <type>quarter</type>
                <stem>down</stem>
            </note>
        </measure>
        <measure width="209" number="X37" implicit="yes">
            <harmony font-size="13.8" default-y="12">
                <root>
                    <root-step>E</root-step>
                </root>
                <kind use-symbols="yes" parentheses-degrees="yes">minor-seventh</kind>
                <degree>
                    <degree-value>5</degree-value>
                    <degree-alter>-1</degree-alter>
                    <degree-type>alter</degree-type>
                </degree>
            </harmony>
            <note default-x="11">
                <pitch>
                    <step>E</step>
                    <octave>5</octave>
                </pitch>
                <duration>6</duration>
                <voice>1</voice>
                <type>quarter</type>
                <stem>down</stem>
            </note>
            <note default-x="60">
                <pitch>
                    <step>E</step>
                    <octave>5</octave>
                </pitch>
                <duration>6</duration>
                <voice>1</voice>
                <type>quarter</type>
                <stem>down</stem>
            </note>
            <note default-x="109">
                <pitch>
                    <step>E</step>
                    <octave>5</octave>
                </pitch>
                <duration>6</duration>
                <voice>1</voice>
                <type>quarter</type>
                <stem>down</stem>
            </note>
            <note default-x="158">
                <pitch>
                    <step>E</step>
                    <octave>5</octave>
                </pitch>
                <duration>6</duration>
                <voice>1</voice>
                <type>quarter</type>
                <stem>down</stem>
            </note>
        </measure>
        <measure width="209" number="X38" implicit="yes">
            <harmony font-size="13.8" default-y="12">
                <root>
                    <root-step>A</root-step>
                </root>
                <kind text="7" parentheses-degrees="yes">dominant</kind>
                <degree>
                    <degree-value>9</degree-value>
                    <degree-alter>-1</degree-alter>
                    <degree-type>add</degree-type>
                </degree>
            </harmony>
            <note default-x="10">
                <pitch>
                    <step>A</step>
                    <octave>4</octave>
                </pitch>
                <duration>6</duration>
                <voice>1</voice>
                <type>quarter</type>
                <stem>up</stem>
            </note>
            <note default-x="58">
                <pitch>
                    <step>A</step>
                    <octave>4</octave>
                </pitch>
                <duration>6</duration>
                <voice>1</voice>
                <type>quarter</type>
                <stem>up</stem>
            </note>
            <note default-x="105">
                <pitch>
                    <step>A</step>
                    <octave>4</octave>
                </pitch>
                <duration>6</duration>
                <voice>1</voice>
                <type>quarter</type>
                <stem>up</stem>
            </note>
            <note default-x="152">
                <pitch>
                    <step>A</step>
                    <octave>4</octave>
                </pitch>
                <duration>6</duration>
                <voice>1</voice>
                <type>quarter</type>
                <stem>up</stem>
            </note>
            <barline location="right">
                <bar-style>light-heavy</bar-style>
            </barline>
        </measure>
    </part>
</score-partwise>
