<?xml version="1.0" encoding="UTF-8"?>
<!DOCTYPE score-partwise PUBLIC "-//Recordare//DTD MusicXML 2.0 Partwise//EN" "http://www.musicxml.org/dtds/partwise.dtd">
<score-partwise version="2.0">
    <work>
        <work-number></work-number>
        <work-title></work-title>
    </work>
    <movement-number></movement-number>
    <movement-title>Daar is de lente, daar is de zon</movement-title>
    <identification>
        <creator type="composer">Jan De Wilde</creator>
        <creator type="poet"></creator>
        <rights>All Rights Reserved</rights>
        <encoding>
            <software>Sibelius 5.0</software>
            <software>Dolet 4 for Sibelius, Beta 2</software>
            <supports type="no" element="accidental"/>
            <supports type="no" element="transpose"/>
            <software>ProxyMusic 2.0 c</software>
        </encoding>
        <source>http://wikifonia.org/node/1653/revisions/2107/view</source>
    </identification>
    <defaults>
        <scaling>
            <millimeters>6</millimeters>
            <tenths>40</tenths>
        </scaling>
        <page-layout>
            <page-height>1980</page-height>
            <page-width>1400</page-width>
        </page-layout>
    </defaults>
    <part-list>
        <score-part id="P1">
            <part-name> </part-name>
            <part-abbreviation> </part-abbreviation>
        </score-part>
    </part-list>
    <part id="P1">
        <measure number="1">
            <attributes>
                <divisions>768</divisions>
                <key>
                    <fifths>1</fifths>
                    <mode>major</mode>
                </key>
                <time>
                    <beats>4</beats>
                    <beat-type>4</beat-type>
                </time>
                <clef>
                    <sign>G</sign>
                    <line>2</line>
                </clef>
            </attributes>
            <harmony relative-x="8" default-y="25" print-frame="no">
                <root>
                    <root-step>G</root-step>
                </root>
                <kind text="">major</kind>
            </harmony>
            <note>
                <pitch>
                    <step>B</step>
                    <octave>4</octave>
                </pitch>
                <duration>384</duration>
                <voice>1</voice>
                <type>eighth</type>
                <beam number="1">begin</beam>
                <lyric default-y="-80" number="1" name="verse">
                    <syllabic>single</syllabic>
                    <text>Daar</text>
                </lyric>
            </note>
            <note>
                <pitch>
                    <step>C</step>
                    <octave>5</octave>
                </pitch>
                <duration>384</duration>
                <voice>1</voice>
                <type>eighth</type>
                <beam number="1">continue</beam>
                <lyric default-y="-80" number="1" name="verse">
                    <syllabic>single</syllabic>
                    <text>is</text>
                </lyric>
            </note>
            <note>
                <pitch>
                    <step>B</step>
                    <octave>4</octave>
                </pitch>
                <duration>384</duration>
                <voice>1</voice>
                <type>eighth</type>
                <beam number="1">continue</beam>
                <lyric default-y="-80" number="1" name="verse">
                    <syllabic>single</syllabic>
                    <text>de</text>
                </lyric>
            </note>
            <harmony relative-x="8" default-y="25" print-frame="no">
                <root>
                    <root-step>D</root-step>
                </root>
                <kind text="">major</kind>
            </harmony>
            <note>
                <pitch>
                    <step>A</step>
                    <octave>4</octave>
                </pitch>
                <duration>384</duration>
                <tie type="start"/>
                <voice>1</voice>
                <type>eighth</type>
                <beam number="1">end</beam>
                <notations>
                    <tied type="start"/>
                </notations>
                <lyric default-y="-80" number="1" name="verse">
                    <syllabic>begin</syllabic>
                    <text>len</text>
                    <extend/>
                </lyric>
            </note>
            <note>
                <pitch>
                    <step>A</step>
                    <octave>4</octave>
                </pitch>
                <duration>384</duration>
                <tie type="stop"/>
                <voice>1</voice>
                <type>eighth</type>
                <beam number="1">begin</beam>
                <notations>
                    <tied type="stop"/>
                </notations>
            </note>
            <note>
                <pitch>
                    <step>D</step>
                    <octave>4</octave>
                </pitch>
                <duration>1152</duration>
                <voice>1</voice>
                <type>quarter</type>
                <dot/>
                <lyric default-y="-80" number="1" name="verse">
                    <syllabic>end</syllabic>
                    <text>te</text>
                </lyric>
            </note>
        </measure>
        <measure number="2">
            <harmony relative-x="8" default-y="25" print-frame="no">
                <root>
                    <root-step>G</root-step>
                </root>
                <kind text="">major</kind>
            </harmony>
            <note>
                <pitch>
                    <step>B</step>
                    <octave>4</octave>
                </pitch>
                <duration>384</duration>
                <voice>1</voice>
                <type>eighth</type>
                <beam number="1">begin</beam>
                <lyric default-y="-80" number="1" name="verse">
                    <syllabic>single</syllabic>
                    <text>daar</text>
                </lyric>
            </note>
            <note>
                <pitch>
                    <step>C</step>
                    <octave>5</octave>
                </pitch>
                <duration>384</duration>
                <voice>1</voice>
                <type>eighth</type>
                <beam number="1">continue</beam>
                <lyric default-y="-80" number="1" name="verse">
                    <syllabic>single</syllabic>
                    <text>is</text>
                </lyric>
            </note>
            <note>
                <pitch>
                    <step>B</step>
                    <octave>4</octave>
                </pitch>
                <duration>384</duration>
                <voice>1</voice>
                <type>eighth</type>
                <beam number="1">continue</beam>
                <lyric default-y="-80" number="1" name="verse">
                    <syllabic>single</syllabic>
                    <text>de</text>
                </lyric>
            </note>
            <harmony relative-x="8" default-y="25" print-frame="no">
                <root>
                    <root-step>D</root-step>
                </root>
                <kind text="">major</kind>
            </harmony>
            <note>
                <pitch>
                    <step>A</step>
                    <octave>4</octave>
                </pitch>
                <duration>384</duration>
                <tie type="start"/>
                <voice>1</voice>
                <type>eighth</type>
                <beam number="1">end</beam>
                <notations>
                    <tied type="start"/>
                </notations>
                <lyric default-y="-80" number="1" name="verse">
                    <syllabic>single</syllabic>
                    <text>zon</text>
                    <extend/>
                </lyric>
            </note>
            <note>
                <pitch>
                    <step>A</step>
                    <octave>4</octave>
                </pitch>
                <duration>384</duration>
                <tie type="stop"/>
                <tie type="start"/>
                <voice>1</voice>
                <type>eighth</type>
                <beam number="1">begin</beam>
                <notations>
                    <tied type="stop"/>
                    <tied type="start"/>
                </notations>
            </note>
            <note>
                <pitch>
                    <step>A</step>
                    <octave>4</octave>
                </pitch>
                <duration>768</duration>
                <tie type="stop"/>
                <voice>1</voice>
                <type>quarter</type>
                <notations>
                    <tied type="stop"/>
                </notations>
            </note>
            <note>
                <pitch>
                    <step>B</step>
                    <octave>4</octave>
                </pitch>
                <duration>384</duration>
                <voice>1</voice>
                <type>eighth</type>
                <lyric default-y="-80" number="1" name="verse">
                    <syllabic>begin</syllabic>
                    <text>bij</text>
                </lyric>
            </note>
        </measure>
        <measure number="3">
            <harmony relative-x="8" default-y="25" print-frame="no">
                <root>
                    <root-step>G</root-step>
                </root>
                <kind text="">major</kind>
            </harmony>
            <note>
                <pitch>
                    <step>B</step>
                    <octave>4</octave>
                </pitch>
                <duration>384</duration>
                <voice>1</voice>
                <type>eighth</type>
                <beam number="1">begin</beam>
                <lyric default-y="-80" number="1" name="verse">
                    <syllabic>end</syllabic>
                    <text>na</text>
                </lyric>
            </note>
            <note>
                <pitch>
                    <step>G</step>
                    <octave>4</octave>
                </pitch>
                <duration>384</duration>
                <voice>1</voice>
                <type>eighth</type>
                <beam number="1">continue</beam>
                <lyric default-y="-80" number="1" name="verse">
                    <syllabic>single</syllabic>
                    <text>maar</text>
                </lyric>
            </note>
            <note>
                <pitch>
                    <step>B</step>
                    <octave>4</octave>
                </pitch>
                <duration>384</duration>
                <voice>1</voice>
                <type>eighth</type>
                <beam number="1">continue</beam>
                <lyric default-y="-80" number="1" name="verse">
                    <syllabic>single</syllabic>
                    <text>ik</text>
                </lyric>
            </note>
            <harmony relative-x="8" default-y="25" print-frame="no">
                <root>
                    <root-step>C</root-step>
                </root>
                <kind text="">major</kind>
            </harmony>
            <note>
                <pitch>
                    <step>C</step>
                    <octave>5</octave>
                </pitch>
                <duration>384</duration>
                <tie type="start"/>
                <voice>1</voice>
                <type>eighth</type>
                <beam number="1">end</beam>
                <notations>
                    <tied type="start"/>
                </notations>
                <lyric default-y="-80" number="1" name="verse">
                    <syllabic>single</syllabic>
                    <text>denk</text>
                    <extend/>
                </lyric>
            </note>
            <note>
                <pitch>
                    <step>C</step>
                    <octave>5</octave>
                </pitch>
                <duration>384</duration>
                <tie type="stop"/>
                <voice>1</voice>
                <type>eighth</type>
                <beam number="1">begin</beam>
                <notations>
                    <tied type="stop"/>
                </notations>
            </note>
            <note>
                <pitch>
                    <step>C</step>
                    <octave>5</octave>
                </pitch>
                <duration>768</duration>
                <voice>1</voice>
                <type>quarter</type>
                <lyric default-y="-80" number="1" name="verse">
                    <syllabic>single</syllabic>
                    <text>dat</text>
                </lyric>
            </note>
            <note>
                <pitch>
                    <step>C</step>
                    <octave>5</octave>
                </pitch>
                <duration>384</duration>
                <voice>1</voice>
                <type>eighth</type>
                <lyric default-y="-80" number="1" name="verse">
                    <syllabic>single</syllabic>
                    <text>ze</text>
                </lyric>
            </note>
        </measure>
        <measure number="4">
            <harmony relative-x="8" default-y="25" print-frame="no">
                <root>
                    <root-step>F</root-step>
                </root>
                <kind text="">major</kind>
            </harmony>
            <note>
                <pitch>
                    <step>A</step>
                    <octave>4</octave>
                </pitch>
                <duration>384</duration>
                <voice>1</voice>
                <type>eighth</type>
                <beam number="1">begin</beam>
                <lyric default-y="-80" number="1" name="verse">
                    <syllabic>begin</syllabic>
                    <text>wel</text>
                </lyric>
            </note>
            <note>
                <pitch>
                    <step>A</step>
                    <octave>4</octave>
                </pitch>
                <duration>384</duration>
                <voice>1</voice>
                <type>eighth</type>
                <beam number="1">continue</beam>
                <lyric default-y="-80" number="1" name="verse">
                    <syllabic>end</syllabic>
                    <text>dra</text>
                </lyric>
            </note>
            <note>
                <pitch>
                    <step>A</step>
                    <octave>4</octave>
                </pitch>
                <duration>384</duration>
                <voice>1</voice>
                <type>eighth</type>
                <beam number="1">continue</beam>
                <lyric default-y="-80" number="1" name="verse">
                    <syllabic>single</syllabic>
                    <text>zal</text>
                </lyric>
            </note>
            <harmony relative-x="8" default-y="25" print-frame="no">
                <root>
                    <root-step>G</root-step>
                </root>
                <kind text="">major</kind>
            </harmony>
            <note>
                <pitch>
                    <step>B</step>
                    <octave>4</octave>
                </pitch>
                <duration>384</duration>
                <tie type="start"/>
                <voice>1</voice>
                <type>eighth</type>
                <beam number="1">end</beam>
                <notations>
                    <tied type="start"/>
                </notations>
                <lyric default-y="-80" number="1" name="verse">
                    <syllabic>begin</syllabic>
                    <text>ko</text>
                </lyric>
            </note>
            <note>
                <pitch>
                    <step>B</step>
                    <octave>4</octave>
                </pitch>
                <duration>384</duration>
                <tie type="stop"/>
                <voice>1</voice>
                <type>eighth</type>
                <beam number="1">begin</beam>
                <notations>
                    <tied type="stop"/>
                </notations>
            </note>
            <note>
                <pitch>
                    <step>G</step>
                    <octave>4</octave>
                </pitch>
                <duration>768</duration>
                <voice>1</voice>
                <type>quarter</type>
                <lyric default-y="-80" number="1" name="verse">
                    <syllabic>end</syllabic>
                    <text>men</text>
                </lyric>
            </note>
            <note>
                <pitch>
                    <step>D</step>
                    <octave>4</octave>
                </pitch>
                <duration>384</duration>
                <voice>1</voice>
                <type>eighth</type>
                <lyric default-y="-80" number="1" name="verse">
                    <syllabic>single</syllabic>
                    <text>de</text>
                </lyric>
            </note>
        </measure>
        <measure number="5">
            <print new-system="yes"/>
            <harmony relative-x="8" default-y="25" print-frame="no">
                <root>
                    <root-step>G</root-step>
                </root>
                <kind text="">major</kind>
            </harmony>
            <note>
                <pitch>
                    <step>B</step>
                    <octave>4</octave>
                </pitch>
                <duration>384</duration>
                <voice>1</voice>
                <type>eighth</type>
                <beam number="1">begin</beam>
                <lyric default-y="-80" number="1" name="verse">
                    <syllabic>begin</syllabic>
                    <text>fal</text>
                </lyric>
            </note>
            <note>
                <pitch>
                    <step>C</step>
                    <octave>5</octave>
                </pitch>
                <duration>384</duration>
                <voice>1</voice>
                <type>eighth</type>
                <beam number="1">continue</beam>
                <lyric default-y="-80" number="1" name="verse">
                    <syllabic>end</syllabic>
                    <text>lus</text>
                </lyric>
            </note>
            <note>
                <pitch>
                    <step>B</step>
                    <octave>4</octave>
                </pitch>
                <duration>384</duration>
                <voice>1</voice>
                <type>eighth</type>
                <beam number="1">continue</beam>
                <lyric default-y="-80" number="1" name="verse">
                    <syllabic>begin</syllabic>
                    <text>im</text>
                </lyric>
            </note>
            <harmony relative-x="8" default-y="25" print-frame="no">
                <root>
                    <root-step>D</root-step>
                </root>
                <kind text="">major</kind>
            </harmony>
            <note>
                <pitch>
                    <step>A</step>
                    <octave>4</octave>
                </pitch>
                <duration>384</duration>
                <tie type="start"/>
                <voice>1</voice>
                <type>eighth</type>
                <beam number="1">end</beam>
                <notations>
                    <tied type="start"/>
                </notations>
                <lyric default-y="-80" number="1" name="verse">
                    <syllabic>middle</syllabic>
                    <text>pu</text>
                    <extend/>
                </lyric>
            </note>
            <note>
                <pitch>
                    <step>A</step>
                    <octave>4</octave>
                </pitch>
                <duration>384</duration>
                <tie type="stop"/>
                <voice>1</voice>
                <type>eighth</type>
                <beam number="1">begin</beam>
                <notations>
                    <tied type="stop"/>
                </notations>
            </note>
            <note>
                <pitch>
                    <step>D</step>
                    <octave>4</octave>
                </pitch>
                <duration>384</duration>
                <voice>1</voice>
                <type>eighth</type>
                <beam number="1">end</beam>
                <lyric default-y="-80" number="1" name="verse">
                    <syllabic>middle</syllabic>
                    <text>di</text>
                </lyric>
            </note>
            <note>
                <pitch>
                    <step>D</step>
                    <octave>4</octave>
                </pitch>
                <duration>768</duration>
                <voice>1</voice>
                <type>quarter</type>
                <lyric default-y="-80" number="1" name="verse">
                    <syllabic>end</syllabic>
                    <text>cus</text>
                </lyric>
            </note>
        </measure>
        <measure number="6">
            <harmony relative-x="8" default-y="25" print-frame="no">
                <root>
                    <root-step>G</root-step>
                </root>
                <kind text="">major</kind>
            </harmony>
            <note>
                <pitch>
                    <step>B</step>
                    <octave>4</octave>
                </pitch>
                <duration>384</duration>
                <voice>1</voice>
                <type>eighth</type>
                <beam number="1">begin</beam>
                <lyric default-y="-80" number="1" name="verse">
                    <syllabic>single</syllabic>
                    <text>staat</text>
                </lyric>
            </note>
            <note>
                <pitch>
                    <step>C</step>
                    <octave>5</octave>
                </pitch>
                <duration>384</duration>
                <voice>1</voice>
                <type>eighth</type>
                <beam number="1">continue</beam>
                <lyric default-y="-80" number="1" name="verse">
                    <syllabic>single</syllabic>
                    <text>al</text>
                </lyric>
            </note>
            <note>
                <pitch>
                    <step>B</step>
                    <octave>4</octave>
                </pitch>
                <duration>384</duration>
                <voice>1</voice>
                <type>eighth</type>
                <beam number="1">continue</beam>
                <lyric default-y="-80" number="1" name="verse">
                    <syllabic>single</syllabic>
                    <text>in</text>
                </lyric>
            </note>
            <harmony relative-x="8" default-y="25" print-frame="no">
                <root>
                    <root-step>D</root-step>
                </root>
                <kind text="">major</kind>
            </harmony>
            <note>
                <pitch>
                    <step>A</step>
                    <octave>4</octave>
                </pitch>
                <duration>384</duration>
                <tie type="start"/>
                <voice>1</voice>
                <type>eighth</type>
                <beam number="1">end</beam>
                <notations>
                    <tied type="start"/>
                </notations>
                <lyric default-y="-80" number="1" name="verse">
                    <syllabic>single</syllabic>
                    <text>bloei</text>
                    <extend/>
                </lyric>
            </note>
            <note>
                <pitch>
                    <step>A</step>
                    <octave>4</octave>
                </pitch>
                <duration>768</duration>
                <tie type="stop"/>
                <voice>1</voice>
                <type>quarter</type>
                <notations>
                    <tied type="stop"/>
                </notations>
            </note>
            <note>
                <pitch>
                    <step>B</step>
                    <octave>4</octave>
                </pitch>
                <duration>384</duration>
                <voice>1</voice>
                <type>eighth</type>
                <beam number="1">begin</beam>
                <lyric default-y="-80" number="1" name="verse">
                    <syllabic>single</syllabic>
                    <text>en</text>
                </lyric>
            </note>
            <note>
                <pitch>
                    <step>B</step>
                    <octave>4</octave>
                </pitch>
                <duration>384</duration>
                <voice>1</voice>
                <type>eighth</type>
                <beam number="1">end</beam>
                <lyric default-y="-80" number="1" name="verse">
                    <syllabic>single</syllabic>
                    <text>de</text>
                </lyric>
            </note>
        </measure>
        <measure number="7">
            <harmony relative-x="8" default-y="25" print-frame="no">
                <root>
                    <root-step>G</root-step>
                </root>
                <kind text="">major</kind>
            </harmony>
            <note>
                <pitch>
                    <step>B</step>
                    <octave>4</octave>
                </pitch>
                <duration>768</duration>
                <voice>1</voice>
                <type>quarter</type>
                <lyric default-y="-80" number="1" name="verse">
                    <syllabic>begin</syllabic>
                    <text>blaad</text>
                </lyric>
            </note>
            <note>
                <pitch>
                    <step>G</step>
                    <octave>4</octave>
                </pitch>
                <duration>384</duration>
                <voice>1</voice>
                <type>eighth</type>
                <beam number="1">begin</beam>
                <lyric default-y="-80" number="1" name="verse">
                    <syllabic>end</syllabic>
                    <text>jes</text>
                </lyric>
            </note>
            <harmony relative-x="8" default-y="25" print-frame="no">
                <root>
                    <root-step>C</root-step>
                </root>
                <kind text="">major</kind>
            </harmony>
            <note>
                <pitch>
                    <step>C</step>
                    <octave>5</octave>
                </pitch>
                <duration>384</duration>
                <tie type="start"/>
                <voice>1</voice>
                <type>eighth</type>
                <beam number="1">end</beam>
                <notations>
                    <tied type="start"/>
                </notations>
                <lyric default-y="-80" number="1" name="verse">
                    <syllabic>begin</syllabic>
                    <text>krij</text>
                    <extend/>
                </lyric>
            </note>
            <note>
                <pitch>
                    <step>C</step>
                    <octave>5</octave>
                </pitch>
                <duration>768</duration>
                <tie type="stop"/>
                <voice>1</voice>
                <type>quarter</type>
                <notations>
                    <tied type="stop"/>
                </notations>
            </note>
            <note>
                <pitch>
                    <step>B</step>
                    <octave>4</octave>
                </pitch>
                <duration>768</duration>
                <voice>1</voice>
                <type>quarter</type>
                <lyric default-y="-80" number="1" name="verse">
                    <syllabic>end</syllabic>
                    <text>gen</text>
                </lyric>
            </note>
        </measure>
        <measure number="8">
            <harmony relative-x="8" default-y="25" print-frame="no">
                <root>
                    <root-step>D</root-step>
                </root>
                <kind text="">major</kind>
            </harmony>
            <note>
                <pitch>
                    <step>A</step>
                    <octave>4</octave>
                </pitch>
                <duration>1536</duration>
                <voice>1</voice>
                <type>half</type>
                <lyric default-y="-80" number="1" name="verse">
                    <syllabic>begin</syllabic>
                    <text>bo</text>
                </lyric>
            </note>
            <harmony relative-x="8" default-y="25" print-frame="no">
                <root>
                    <root-step>G</root-step>
                </root>
                <kind text="">major</kind>
            </harmony>
            <note>
                <pitch>
                    <step>G</step>
                    <octave>4</octave>
                </pitch>
                <duration>768</duration>
                <voice>1</voice>
                <type>quarter</type>
                <lyric default-y="-80" number="1" name="verse">
                    <syllabic>end</syllabic>
                    <text>men.</text>
                </lyric>
            </note>
            <note>
                <rest/>
                <duration>768</duration>
                <voice>1</voice>
                <type>quarter</type>
            </note>
            <barline location="right">
                <bar-style>light-heavy</bar-style>
            </barline>
        </measure>
    </part>
</score-partwise>
