<?xml version="1.0" encoding="UTF-8"?>
<!DOCTYPE score-partwise PUBLIC "-//Recordare//DTD MusicXML 2.0 Partwise//EN" "http://www.musicxml.org/dtds/partwise.dtd">
<score-partwise version="2.0">
    <work>
        <work-number></work-number>
        <work-title></work-title>
    </work>
    <movement-number></movement-number>
    <movement-title>My Bonnie</movement-title>
    <identification>
        <creator type="composer">Traditional</creator>
        <creator type="poet"></creator>
        <rights>All Rights Reserved</rights>
        <encoding>
            <software>Sibelius 5.0</software>
            <software>Dolet 4 for Sibelius, Beta 2</software>
            <supports type="no" element="accidental"/>
            <supports type="no" element="transpose"/>
            <software>ProxyMusic 2.0 c</software>
        </encoding>
        <source>http://wikifonia.org/node/1658/revisions/2113/view</source>
    </identification>
    <defaults>
        <scaling>
            <millimeters>6</millimeters>
            <tenths>40</tenths>
        </scaling>
        <page-layout>
            <page-height>1980</page-height>
            <page-width>1400</page-width>
        </page-layout>
    </defaults>
    <part-list>
        <score-part id="P1">
            <part-name> </part-name>
            <part-abbreviation> </part-abbreviation>
        </score-part>
    </part-list>
    <part id="P1">
        <measure number="0" implicit="yes">
            <attributes>
                <divisions>768</divisions>
                <key>
                    <fifths>1</fifths>
                    <mode>major</mode>
                </key>
                <time>
                    <beats>6</beats>
                    <beat-type>8</beat-type>
                </time>
                <clef>
                    <sign>G</sign>
                    <line>2</line>
                </clef>
            </attributes>
            <direction>
                <direction-type>
                    <words relative-x="-6" default-y="20" enclosure="rectangle">Verse</words>
                </direction-type>
            </direction>
            <note>
                <pitch>
                    <step>D</step>
                    <octave>4</octave>
                </pitch>
                <duration>384</duration>
                <voice>1</voice>
                <type>eighth</type>
                <lyric default-y="-80" number="1" name="verse">
                    <syllabic>single</syllabic>
                    <text>My</text>
                </lyric>
            </note>
        </measure>
        <measure number="1">
            <harmony relative-x="8" default-y="25" print-frame="no">
                <root>
                    <root-step>G</root-step>
                </root>
                <kind text="">major</kind>
            </harmony>
            <note>
                <pitch>
                    <step>B</step>
                    <octave>4</octave>
                </pitch>
                <duration>384</duration>
                <voice>1</voice>
                <type>eighth</type>
                <beam number="1">begin</beam>
                <lyric default-y="-80" number="1" name="verse">
                    <syllabic>begin</syllabic>
                    <text>bon</text>
                </lyric>
            </note>
            <note>
                <pitch>
                    <step>A</step>
                    <octave>4</octave>
                </pitch>
                <duration>384</duration>
                <voice>1</voice>
                <type>eighth</type>
                <beam number="1">continue</beam>
                <lyric default-y="-80" number="1" name="verse">
                    <syllabic>end</syllabic>
                    <text>nie</text>
                </lyric>
            </note>
            <note>
                <pitch>
                    <step>G</step>
                    <octave>4</octave>
                </pitch>
                <duration>384</duration>
                <voice>1</voice>
                <type>eighth</type>
                <beam number="1">end</beam>
                <lyric default-y="-80" number="1" name="verse">
                    <syllabic>single</syllabic>
                    <text>is</text>
                </lyric>
            </note>
            <harmony relative-x="8" default-y="25" print-frame="no">
                <root>
                    <root-step>C</root-step>
                </root>
                <kind text="">major</kind>
            </harmony>
            <note>
                <pitch>
                    <step>A</step>
                    <octave>4</octave>
                </pitch>
                <duration>384</duration>
                <voice>1</voice>
                <type>eighth</type>
                <beam number="1">begin</beam>
                <lyric default-y="-80" number="1" name="verse">
                    <syllabic>begin</syllabic>
                    <text>o</text>
                </lyric>
            </note>
            <note>
                <pitch>
                    <step>G</step>
                    <octave>4</octave>
                </pitch>
                <duration>384</duration>
                <voice>1</voice>
                <type>eighth</type>
                <beam number="1">continue</beam>
                <lyric default-y="-80" number="1" name="verse">
                    <syllabic>end</syllabic>
                    <text>ver</text>
                </lyric>
            </note>
            <note>
                <pitch>
                    <step>E</step>
                    <octave>4</octave>
                </pitch>
                <duration>384</duration>
                <voice>1</voice>
                <type>eighth</type>
                <beam number="1">end</beam>
                <lyric default-y="-80" number="1" name="verse">
                    <syllabic>single</syllabic>
                    <text>the</text>
                </lyric>
            </note>
        </measure>
        <measure number="2">
            <harmony relative-x="8" default-y="25" print-frame="no">
                <root>
                    <root-step>G</root-step>
                </root>
                <kind text="">major</kind>
            </harmony>
            <note>
                <pitch>
                    <step>D</step>
                    <octave>4</octave>
                </pitch>
                <duration>384</duration>
                <voice>1</voice>
                <type>eighth</type>
                <beam number="1">begin</beam>
                <lyric default-y="-80" number="1" name="verse">
                    <syllabic>begin</syllabic>
                    <text>o</text>
                </lyric>
            </note>
            <note>
                <pitch>
                    <step>B</step>
                    <octave>3</octave>
                </pitch>
                <duration>768</duration>
                <voice>1</voice>
                <type>quarter</type>
                <lyric default-y="-80" number="1" name="verse">
                    <syllabic>end</syllabic>
                    <text>cean,</text>
                </lyric>
            </note>
            <note>
                <rest/>
                <duration>768</duration>
                <voice>1</voice>
                <type>quarter</type>
            </note>
            <note>
                <pitch>
                    <step>D</step>
                    <octave>4</octave>
                </pitch>
                <duration>384</duration>
                <voice>1</voice>
                <type>eighth</type>
                <lyric default-y="-80" number="1" name="verse">
                    <syllabic>single</syllabic>
                    <text>my</text>
                </lyric>
            </note>
        </measure>
        <measure number="3">
            <harmony relative-x="8" default-y="25" print-frame="no">
                <root>
                    <root-step>G</root-step>
                </root>
                <kind text="">major</kind>
            </harmony>
            <note>
                <pitch>
                    <step>B</step>
                    <octave>4</octave>
                </pitch>
                <duration>384</duration>
                <voice>1</voice>
                <type>eighth</type>
                <beam number="1">begin</beam>
                <lyric default-y="-80" number="1" name="verse">
                    <syllabic>begin</syllabic>
                    <text>bon</text>
                </lyric>
            </note>
            <note>
                <pitch>
                    <step>A</step>
                    <octave>4</octave>
                </pitch>
                <duration>384</duration>
                <voice>1</voice>
                <type>eighth</type>
                <beam number="1">continue</beam>
                <lyric default-y="-80" number="1" name="verse">
                    <syllabic>end</syllabic>
                    <text>nie</text>
                </lyric>
            </note>
            <note>
                <pitch>
                    <step>G</step>
                    <octave>4</octave>
                </pitch>
                <duration>384</duration>
                <voice>1</voice>
                <type>eighth</type>
                <beam number="1">end</beam>
                <lyric default-y="-80" number="1" name="verse">
                    <syllabic>single</syllabic>
                    <text>is</text>
                </lyric>
            </note>
            <harmony relative-x="8" default-y="25" print-frame="no">
                <root>
                    <root-step>A</root-step>
                </root>
                <kind text="">major</kind>
            </harmony>
            <note>
                <pitch>
                    <step>G</step>
                    <octave>4</octave>
                </pitch>
                <duration>384</duration>
                <voice>1</voice>
                <type>eighth</type>
                <beam number="1">begin</beam>
                <lyric default-y="-80" number="1" name="verse">
                    <syllabic>begin</syllabic>
                    <text>o</text>
                </lyric>
            </note>
            <note>
                <pitch>
                    <step>F</step>
                    <alter>1</alter>
                    <octave>4</octave>
                </pitch>
                <duration>384</duration>
                <voice>1</voice>
                <type>eighth</type>
                <beam number="1">continue</beam>
                <lyric default-y="-80" number="1" name="verse">
                    <syllabic>end</syllabic>
                    <text>ver</text>
                </lyric>
            </note>
            <note>
                <pitch>
                    <step>G</step>
                    <octave>4</octave>
                </pitch>
                <duration>384</duration>
                <voice>1</voice>
                <type>eighth</type>
                <beam number="1">end</beam>
                <lyric default-y="-80" number="1" name="verse">
                    <syllabic>single</syllabic>
                    <text>the</text>
                </lyric>
            </note>
        </measure>
        <measure number="4">
            <harmony relative-x="8" default-y="25" print-frame="no">
                <root>
                    <root-step>D</root-step>
                </root>
                <kind text="7">dominant</kind>
            </harmony>
            <note>
                <pitch>
                    <step>A</step>
                    <octave>4</octave>
                </pitch>
                <duration>1152</duration>
                <voice>1</voice>
                <type>quarter</type>
                <dot/>
                <lyric default-y="-80" number="1" name="verse">
                    <syllabic>single</syllabic>
                    <text>sea,</text>
                </lyric>
            </note>
            <note>
                <rest/>
                <duration>768</duration>
                <voice>1</voice>
                <type>quarter</type>
            </note>
            <note>
                <pitch>
                    <step>D</step>
                    <octave>4</octave>
                </pitch>
                <duration>384</duration>
                <voice>1</voice>
                <type>eighth</type>
                <lyric default-y="-80" number="1" name="verse">
                    <syllabic>single</syllabic>
                    <text>my</text>
                </lyric>
            </note>
        </measure>
        <measure number="5">
            <print new-system="yes"/>
            <harmony relative-x="8" default-y="25" print-frame="no">
                <root>
                    <root-step>G</root-step>
                </root>
                <kind text="">major</kind>
            </harmony>
            <note>
                <pitch>
                    <step>B</step>
                    <octave>4</octave>
                </pitch>
                <duration>384</duration>
                <voice>1</voice>
                <type>eighth</type>
                <beam number="1">begin</beam>
                <lyric default-y="-80" number="1" name="verse">
                    <syllabic>begin</syllabic>
                    <text>bon</text>
                </lyric>
            </note>
            <note>
                <pitch>
                    <step>A</step>
                    <octave>4</octave>
                </pitch>
                <duration>384</duration>
                <voice>1</voice>
                <type>eighth</type>
                <beam number="1">continue</beam>
                <lyric default-y="-80" number="1" name="verse">
                    <syllabic>end</syllabic>
                    <text>nie</text>
                </lyric>
            </note>
            <note>
                <pitch>
                    <step>G</step>
                    <octave>4</octave>
                </pitch>
                <duration>384</duration>
                <voice>1</voice>
                <type>eighth</type>
                <beam number="1">end</beam>
                <lyric default-y="-80" number="1" name="verse">
                    <syllabic>single</syllabic>
                    <text>is</text>
                </lyric>
            </note>
            <harmony relative-x="8" default-y="25" print-frame="no">
                <root>
                    <root-step>C</root-step>
                </root>
                <kind text="">major</kind>
            </harmony>
            <note>
                <pitch>
                    <step>A</step>
                    <octave>4</octave>
                </pitch>
                <duration>384</duration>
                <voice>1</voice>
                <type>eighth</type>
                <beam number="1">begin</beam>
                <lyric default-y="-80" number="1" name="verse">
                    <syllabic>begin</syllabic>
                    <text>o</text>
                </lyric>
            </note>
            <note>
                <pitch>
                    <step>G</step>
                    <octave>4</octave>
                </pitch>
                <duration>384</duration>
                <voice>1</voice>
                <type>eighth</type>
                <beam number="1">continue</beam>
                <lyric default-y="-80" number="1" name="verse">
                    <syllabic>end</syllabic>
                    <text>ver</text>
                </lyric>
            </note>
            <note>
                <pitch>
                    <step>E</step>
                    <octave>4</octave>
                </pitch>
                <duration>384</duration>
                <voice>1</voice>
                <type>eighth</type>
                <beam number="1">end</beam>
                <lyric default-y="-80" number="1" name="verse">
                    <syllabic>single</syllabic>
                    <text>the</text>
                </lyric>
            </note>
        </measure>
        <measure number="6">
            <harmony relative-x="8" default-y="25" print-frame="no">
                <root>
                    <root-step>G</root-step>
                </root>
                <kind text="">major</kind>
            </harmony>
            <note>
                <pitch>
                    <step>D</step>
                    <octave>4</octave>
                </pitch>
                <duration>384</duration>
                <voice>1</voice>
                <type>eighth</type>
                <beam number="1">begin</beam>
                <lyric default-y="-80" number="1" name="verse">
                    <syllabic>begin</syllabic>
                    <text>o</text>
                </lyric>
            </note>
            <note>
                <pitch>
                    <step>B</step>
                    <octave>3</octave>
                </pitch>
                <duration>768</duration>
                <voice>1</voice>
                <type>quarter</type>
                <lyric default-y="-80" number="1" name="verse">
                    <syllabic>end</syllabic>
                    <text>cean,</text>
                </lyric>
            </note>
            <note>
                <rest/>
                <duration>768</duration>
                <voice>1</voice>
                <type>quarter</type>
            </note>
            <note>
                <pitch>
                    <step>D</step>
                    <octave>4</octave>
                </pitch>
                <duration>384</duration>
                <voice>1</voice>
                <type>eighth</type>
                <lyric default-y="-80" number="1" name="verse">
                    <syllabic>single</syllabic>
                    <text>o</text>
                </lyric>
            </note>
        </measure>
        <measure number="7">
            <harmony relative-x="8" default-y="25" print-frame="no">
                <root>
                    <root-step>C</root-step>
                </root>
                <kind text="">major</kind>
            </harmony>
            <note>
                <pitch>
                    <step>E</step>
                    <octave>4</octave>
                </pitch>
                <duration>384</duration>
                <voice>1</voice>
                <type>eighth</type>
                <beam number="1">begin</beam>
                <lyric default-y="-80" number="1" name="verse">
                    <syllabic>single</syllabic>
                    <text>bring</text>
                </lyric>
            </note>
            <note>
                <pitch>
                    <step>A</step>
                    <octave>4</octave>
                </pitch>
                <duration>384</duration>
                <voice>1</voice>
                <type>eighth</type>
                <beam number="1">continue</beam>
                <lyric default-y="-80" number="1" name="verse">
                    <syllabic>single</syllabic>
                    <text>back</text>
                </lyric>
            </note>
            <note>
                <pitch>
                    <step>G</step>
                    <octave>4</octave>
                </pitch>
                <duration>384</duration>
                <voice>1</voice>
                <type>eighth</type>
                <beam number="1">end</beam>
                <lyric default-y="-80" number="1" name="verse">
                    <syllabic>single</syllabic>
                    <text>my</text>
                </lyric>
            </note>
            <harmony relative-x="8" default-y="25" print-frame="no">
                <root>
                    <root-step>D</root-step>
                </root>
                <kind text="">major</kind>
            </harmony>
            <note>
                <pitch>
                    <step>F</step>
                    <alter>1</alter>
                    <octave>4</octave>
                </pitch>
                <duration>384</duration>
                <voice>1</voice>
                <type>eighth</type>
                <beam number="1">begin</beam>
                <lyric default-y="-80" number="1" name="verse">
                    <syllabic>begin</syllabic>
                    <text>bon</text>
                </lyric>
            </note>
            <note>
                <pitch>
                    <step>E</step>
                    <octave>4</octave>
                </pitch>
                <duration>384</duration>
                <voice>1</voice>
                <type>eighth</type>
                <beam number="1">continue</beam>
                <lyric default-y="-80" number="1" name="verse">
                    <syllabic>end</syllabic>
                    <text>nie</text>
                </lyric>
            </note>
            <note>
                <pitch>
                    <step>F</step>
                    <alter>1</alter>
                    <octave>4</octave>
                </pitch>
                <duration>384</duration>
                <voice>1</voice>
                <type>eighth</type>
                <beam number="1">end</beam>
                <lyric default-y="-80" number="1" name="verse">
                    <syllabic>single</syllabic>
                    <text>to</text>
                </lyric>
            </note>
        </measure>
        <measure number="8">
            <harmony relative-x="8" default-y="25" print-frame="no">
                <root>
                    <root-step>G</root-step>
                </root>
                <kind text="">major</kind>
            </harmony>
            <note>
                <pitch>
                    <step>G</step>
                    <octave>4</octave>
                </pitch>
                <duration>1152</duration>
                <tie type="start"/>
                <voice>1</voice>
                <type>quarter</type>
                <dot/>
                <notations>
                    <tied type="start"/>
                </notations>
                <lyric default-y="-80" number="1" name="verse">
                    <syllabic>single</syllabic>
                    <text>me.</text>
                    <extend/>
                </lyric>
            </note>
            <note>
                <pitch>
                    <step>G</step>
                    <octave>4</octave>
                </pitch>
                <duration>768</duration>
                <tie type="stop"/>
                <voice>1</voice>
                <type>quarter</type>
                <notations>
                    <tied type="stop"/>
                </notations>
            </note>
            <note>
                <rest/>
                <duration>384</duration>
                <voice>1</voice>
                <type>eighth</type>
            </note>
            <barline location="right">
                <bar-style>light-light</bar-style>
            </barline>
        </measure>
        <measure number="9">
            <print new-system="yes"/>
            <direction>
                <direction-type>
                    <words relative-x="-6" default-y="20" enclosure="rectangle">Chorus</words>
                </direction-type>
            </direction>
            <harmony relative-x="8" default-y="25" print-frame="no">
                <root>
                    <root-step>G</root-step>
                </root>
                <kind text="">major</kind>
            </harmony>
            <note>
                <pitch>
                    <step>D</step>
                    <octave>4</octave>
                </pitch>
                <duration>1152</duration>
                <voice>1</voice>
                <type>quarter</type>
                <dot/>
                <lyric default-y="-80" number="1" name="verse">
                    <syllabic>single</syllabic>
                    <text>Bring</text>
                </lyric>
            </note>
            <note>
                <pitch>
                    <step>G</step>
                    <octave>4</octave>
                </pitch>
                <duration>1152</duration>
                <voice>1</voice>
                <type>quarter</type>
                <dot/>
                <lyric default-y="-80" number="1" name="verse">
                    <syllabic>single</syllabic>
                    <text>back,</text>
                </lyric>
            </note>
        </measure>
        <measure number="10">
            <harmony relative-x="8" default-y="25" print-frame="no">
                <root>
                    <root-step>C</root-step>
                </root>
                <kind text="">major</kind>
            </harmony>
            <note>
                <pitch>
                    <step>E</step>
                    <octave>4</octave>
                </pitch>
                <duration>1152</duration>
                <voice>1</voice>
                <type>quarter</type>
                <dot/>
                <lyric default-y="-80" number="1" name="verse">
                    <syllabic>single</syllabic>
                    <text>bring</text>
                </lyric>
            </note>
            <note>
                <pitch>
                    <step>A</step>
                    <octave>4</octave>
                </pitch>
                <duration>768</duration>
                <voice>1</voice>
                <type>quarter</type>
                <lyric default-y="-80" number="1" name="verse">
                    <syllabic>single</syllabic>
                    <text>back,</text>
                </lyric>
            </note>
            <note>
                <pitch>
                    <step>G</step>
                    <octave>4</octave>
                </pitch>
                <duration>384</duration>
                <voice>1</voice>
                <type>eighth</type>
                <lyric default-y="-80" number="1" name="verse">
                    <syllabic>single</syllabic>
                    <text>o</text>
                </lyric>
            </note>
        </measure>
        <measure number="11">
            <harmony relative-x="8" default-y="25" print-frame="no">
                <root>
                    <root-step>D</root-step>
                </root>
                <kind text="">major</kind>
            </harmony>
            <note>
                <pitch>
                    <step>F</step>
                    <alter>1</alter>
                    <octave>4</octave>
                </pitch>
                <duration>384</duration>
                <voice>1</voice>
                <type>eighth</type>
                <beam number="1">begin</beam>
                <lyric default-y="-80" number="1" name="verse">
                    <syllabic>single</syllabic>
                    <text>bring</text>
                </lyric>
            </note>
            <note>
                <pitch>
                    <step>F</step>
                    <alter>1</alter>
                    <octave>4</octave>
                </pitch>
                <duration>384</duration>
                <voice>1</voice>
                <type>eighth</type>
                <beam number="1">continue</beam>
                <lyric default-y="-80" number="1" name="verse">
                    <syllabic>single</syllabic>
                    <text>back</text>
                </lyric>
            </note>
            <note>
                <pitch>
                    <step>F</step>
                    <alter>1</alter>
                    <octave>4</octave>
                </pitch>
                <duration>384</duration>
                <voice>1</voice>
                <type>eighth</type>
                <beam number="1">end</beam>
                <lyric default-y="-80" number="1" name="verse">
                    <syllabic>single</syllabic>
                    <text>my</text>
                </lyric>
            </note>
            <note>
                <pitch>
                    <step>F</step>
                    <alter>1</alter>
                    <octave>4</octave>
                </pitch>
                <duration>384</duration>
                <voice>1</voice>
                <type>eighth</type>
                <beam number="1">begin</beam>
                <lyric default-y="-80" number="1" name="verse">
                    <syllabic>begin</syllabic>
                    <text>bon</text>
                </lyric>
            </note>
            <note>
                <pitch>
                    <step>E</step>
                    <octave>4</octave>
                </pitch>
                <duration>384</duration>
                <voice>1</voice>
                <type>eighth</type>
                <beam number="1">continue</beam>
                <lyric default-y="-80" number="1" name="verse">
                    <syllabic>end</syllabic>
                    <text>nie</text>
                </lyric>
            </note>
            <note>
                <pitch>
                    <step>F</step>
                    <alter>1</alter>
                    <octave>4</octave>
                </pitch>
                <duration>384</duration>
                <voice>1</voice>
                <type>eighth</type>
                <beam number="1">end</beam>
                <lyric default-y="-80" number="1" name="verse">
                    <syllabic>single</syllabic>
                    <text>to</text>
                </lyric>
            </note>
        </measure>
        <measure number="12">
            <harmony relative-x="8" default-y="25" print-frame="no">
                <root>
                    <root-step>G</root-step>
                </root>
                <kind text="">major</kind>
            </harmony>
            <note>
                <pitch>
                    <step>G</step>
                    <octave>4</octave>
                </pitch>
                <duration>768</duration>
                <voice>1</voice>
                <type>quarter</type>
                <lyric default-y="-80" number="1" name="verse">
                    <syllabic>single</syllabic>
                    <text>me</text>
                </lyric>
            </note>
            <note>
                <pitch>
                    <step>A</step>
                    <octave>4</octave>
                </pitch>
                <duration>384</duration>
                <voice>1</voice>
                <type>eighth</type>
                <beam number="1">begin</beam>
                <lyric default-y="-80" number="1" name="verse">
                    <syllabic>single</syllabic>
                    <text>to</text>
                </lyric>
            </note>
            <note>
                <pitch>
                    <step>B</step>
                    <octave>4</octave>
                </pitch>
                <duration>1152</duration>
                <voice>1</voice>
                <type>quarter</type>
                <dot/>
                <lyric default-y="-80" number="1" name="verse">
                    <syllabic>single</syllabic>
                    <text>me.</text>
                </lyric>
            </note>
        </measure>
        <measure number="13">
            <print new-system="yes"/>
            <harmony relative-x="8" default-y="25" print-frame="no">
                <root>
                    <root-step>G</root-step>
                </root>
                <kind text="">major</kind>
            </harmony>
            <note>
                <pitch>
                    <step>D</step>
                    <octave>4</octave>
                </pitch>
                <duration>1152</duration>
                <voice>1</voice>
                <type>quarter</type>
                <dot/>
                <lyric default-y="-80" number="1" name="verse">
                    <syllabic>single</syllabic>
                    <text>Bring</text>
                </lyric>
            </note>
            <note>
                <pitch>
                    <step>G</step>
                    <octave>4</octave>
                </pitch>
                <duration>1152</duration>
                <voice>1</voice>
                <type>quarter</type>
                <dot/>
                <lyric default-y="-80" number="1" name="verse">
                    <syllabic>single</syllabic>
                    <text>back,</text>
                </lyric>
            </note>
        </measure>
        <measure number="14">
            <harmony relative-x="8" default-y="25" print-frame="no">
                <root>
                    <root-step>C</root-step>
                </root>
                <kind text="">major</kind>
            </harmony>
            <note>
                <pitch>
                    <step>E</step>
                    <octave>4</octave>
                </pitch>
                <duration>1152</duration>
                <voice>1</voice>
                <type>quarter</type>
                <dot/>
                <lyric default-y="-80" number="1" name="verse">
                    <syllabic>single</syllabic>
                    <text>bring</text>
                </lyric>
            </note>
            <note>
                <pitch>
                    <step>A</step>
                    <octave>4</octave>
                </pitch>
                <duration>768</duration>
                <voice>1</voice>
                <type>quarter</type>
                <lyric default-y="-80" number="1" name="verse">
                    <syllabic>single</syllabic>
                    <text>back,</text>
                </lyric>
            </note>
            <note>
                <pitch>
                    <step>G</step>
                    <octave>4</octave>
                </pitch>
                <duration>384</duration>
                <voice>1</voice>
                <type>eighth</type>
                <lyric default-y="-80" number="1" name="verse">
                    <syllabic>single</syllabic>
                    <text>o</text>
                </lyric>
            </note>
        </measure>
        <measure number="15">
            <harmony relative-x="8" default-y="25" print-frame="no">
                <root>
                    <root-step>D</root-step>
                </root>
                <kind text="">major</kind>
            </harmony>
            <note>
                <pitch>
                    <step>F</step>
                    <alter>1</alter>
                    <octave>4</octave>
                </pitch>
                <duration>384</duration>
                <voice>1</voice>
                <type>eighth</type>
                <beam number="1">begin</beam>
                <lyric default-y="-80" number="1" name="verse">
                    <syllabic>single</syllabic>
                    <text>bring</text>
                </lyric>
            </note>
            <note>
                <pitch>
                    <step>F</step>
                    <alter>1</alter>
                    <octave>4</octave>
                </pitch>
                <duration>384</duration>
                <voice>1</voice>
                <type>eighth</type>
                <beam number="1">continue</beam>
                <lyric default-y="-80" number="1" name="verse">
                    <syllabic>single</syllabic>
                    <text>back</text>
                </lyric>
            </note>
            <note>
                <pitch>
                    <step>F</step>
                    <alter>1</alter>
                    <octave>4</octave>
                </pitch>
                <duration>384</duration>
                <voice>1</voice>
                <type>eighth</type>
                <beam number="1">end</beam>
                <lyric default-y="-80" number="1" name="verse">
                    <syllabic>single</syllabic>
                    <text>my</text>
                </lyric>
            </note>
            <note>
                <pitch>
                    <step>F</step>
                    <alter>1</alter>
                    <octave>4</octave>
                </pitch>
                <duration>384</duration>
                <voice>1</voice>
                <type>eighth</type>
                <beam number="1">begin</beam>
                <lyric default-y="-80" number="1" name="verse">
                    <syllabic>begin</syllabic>
                    <text>bon</text>
                </lyric>
            </note>
            <note>
                <pitch>
                    <step>E</step>
                    <octave>4</octave>
                </pitch>
                <duration>384</duration>
                <voice>1</voice>
                <type>eighth</type>
                <beam number="1">continue</beam>
                <lyric default-y="-80" number="1" name="verse">
                    <syllabic>end</syllabic>
                    <text>nie</text>
                </lyric>
            </note>
            <note>
                <pitch>
                    <step>F</step>
                    <alter>1</alter>
                    <octave>4</octave>
                </pitch>
                <duration>384</duration>
                <voice>1</voice>
                <type>eighth</type>
                <beam number="1">end</beam>
                <lyric default-y="-80" number="1" name="verse">
                    <syllabic>single</syllabic>
                    <text>to</text>
                </lyric>
            </note>
        </measure>
        <measure number="16">
            <harmony relative-x="8" default-y="25" print-frame="no">
                <root>
                    <root-step>G</root-step>
                </root>
                <kind text="">major</kind>
            </harmony>
            <note>
                <pitch>
                    <step>G</step>
                    <octave>4</octave>
                </pitch>
                <duration>768</duration>
                <voice>1</voice>
                <type>quarter</type>
                <lyric default-y="-80" number="1" name="verse">
                    <syllabic>single</syllabic>
                    <text>me</text>
                </lyric>
            </note>
            <note>
                <pitch>
                    <step>B</step>
                    <octave>4</octave>
                </pitch>
                <duration>384</duration>
                <voice>1</voice>
                <type>eighth</type>
                <beam number="1">begin</beam>
                <lyric default-y="-80" number="1" name="verse">
                    <syllabic>single</syllabic>
                    <text>to</text>
                </lyric>
            </note>
            <note>
                <pitch>
                    <step>G</step>
                    <octave>4</octave>
                </pitch>
                <duration>768</duration>
                <voice>1</voice>
                <type>quarter</type>
                <lyric default-y="-80" number="1" name="verse">
                    <syllabic>single</syllabic>
                    <text>me.</text>
                </lyric>
            </note>
            <barline location="right">
                <bar-style>light-heavy</bar-style>
            </barline>
        </measure>
    </part>
</score-partwise>
