<?xml version="1.0" encoding="UTF-8"?>
<!DOCTYPE score-partwise PUBLIC "-//Recordare//DTD MusicXML 2.0 Partwise//EN" "http://www.musicxml.org/dtds/partwise.dtd">
<score-partwise version="2.0">
    <work>
        <work-number></work-number>
        <work-title></work-title>
    </work>
    <movement-number></movement-number>
    <movement-title>Tápláló szent kenyér</movement-title>
    <identification>
        <creator type="composer">Unknown</creator>
        <creator type="poet"></creator>
        <rights>Public Domain</rights>
        <encoding>
            <software>Finale 2008 for Windows</software>
            <software>Dolet Light for Finale 2008</software>
            <encoding-date>2009-04-21</encoding-date>
            <software>ProxyMusic 2.0 c</software>
        </encoding>
        <source>http://wikifonia.org/node/1664/revisions/2122/view</source>
    </identification>
    <defaults>
        <scaling>
            <millimeters>7.2319</millimeters>
            <tenths>40</tenths>
        </scaling>
        <page-layout>
            <page-height>1545</page-height>
            <page-width>1194</page-width>
            <page-margins type="both">
                <left-margin>70</left-margin>
                <right-margin>70</right-margin>
                <top-margin>88</top-margin>
                <bottom-margin>88</bottom-margin>
            </page-margins>
        </page-layout>
        <system-layout>
            <system-margins>
                <left-margin>0</left-margin>
                <right-margin>0</right-margin>
            </system-margins>
            <system-distance>121</system-distance>
            <top-system-distance>70</top-system-distance>
        </system-layout>
        <music-font font-size="20.5" font-family="Maestro"/>
        <word-font font-size="10.25" font-family="Times New Roman"/>
        <lyric-font font-size="10.25" font-family="Times New Roman" name="verse"/>
    </defaults>
    <credit>
        <credit-words font-weight="bold" font-size="24" default-y="1440" default-x="597" justify="center" valign="top"> 
</credit-words>
    </credit>
    <part-list>
        <score-part id="P1">
            <part-name print-object="no">MusicXML Part</part-name>
            <score-instrument id="P1-I1">
                <instrument-name>Grand Piano</instrument-name>
            </score-instrument>
            <midi-instrument id="P1-I1">
                <midi-channel>1</midi-channel>
                <midi-program>1</midi-program>
            </midi-instrument>
        </score-part>
    </part-list>
    <part id="P1">
        <measure width="294" number="1">
            <print>
                <system-layout>
                    <system-margins>
                        <left-margin>70</left-margin>
                        <right-margin>0</right-margin>
                    </system-margins>
                    <top-system-distance>211</top-system-distance>
                </system-layout>
            </print>
            <attributes>
                <divisions>2</divisions>
                <key>
                    <fifths>2</fifths>
                    <mode>major</mode>
                </key>
                <time symbol="common">
                    <beats>4</beats>
                    <beat-type>4</beat-type>
                </time>
                <clef>
                    <sign>G</sign>
                    <line>2</line>
                </clef>
            </attributes>
            <sound tempo="240"/>
            <note default-x="116">
                <rest/>
                <duration>2</duration>
                <voice>1</voice>
                <type>quarter</type>
            </note>
            <note default-x="160">
                <pitch>
                    <step>A</step>
                    <octave>3</octave>
                </pitch>
                <duration>2</duration>
                <voice>1</voice>
                <type>quarter</type>
                <stem default-y="-19">up</stem>
                <lyric default-y="-80" number="1">
                    <syllabic>begin</syllabic>
                    <text>Táp</text>
                </lyric>
            </note>
            <note default-x="204">
                <pitch>
                    <step>D</step>
                    <octave>4</octave>
                </pitch>
                <duration>2</duration>
                <voice>1</voice>
                <type>quarter</type>
                <stem default-y="-9">up</stem>
                <lyric default-y="-80" number="1">
                    <syllabic>middle</syllabic>
                    <text>lá</text>
                </lyric>
            </note>
            <note default-x="249">
                <pitch>
                    <step>E</step>
                    <octave>4</octave>
                </pitch>
                <duration>2</duration>
                <voice>1</voice>
                <type>quarter</type>
                <stem default-y="-4">up</stem>
                <lyric default-y="-80" number="1">
                    <syllabic>end</syllabic>
                    <text>ló</text>
                </lyric>
            </note>
        </measure>
        <measure width="261" number="2">
            <harmony default-y="40">
                <root>
                    <root-step>D</root-step>
                </root>
                <kind text="">major</kind>
            </harmony>
            <note default-x="24">
                <pitch>
                    <step>E</step>
                    <octave>4</octave>
                </pitch>
                <duration>2</duration>
                <voice>1</voice>
                <type>quarter</type>
                <stem default-y="-4">up</stem>
                <lyric default-y="-80" number="1">
                    <syllabic>single</syllabic>
                    <text>szent</text>
                </lyric>
            </note>
            <note default-x="79">
                <pitch>
                    <step>D</step>
                    <octave>4</octave>
                </pitch>
                <duration>1</duration>
                <voice>1</voice>
                <type>eighth</type>
                <stem default-y="-10">up</stem>
                <beam number="1">begin</beam>
                <lyric default-y="-80" number="1">
                    <syllabic>begin</syllabic>
                    <text>ke</text>
                </lyric>
            </note>
            <note default-x="111">
                <pitch>
                    <step>D</step>
                    <octave>4</octave>
                </pitch>
                <duration>1</duration>
                <tie type="start"/>
                <voice>1</voice>
                <type>eighth</type>
                <stem default-y="-10">up</stem>
                <beam number="1">end</beam>
                <notations>
                    <tied type="start"/>
                </notations>
                <lyric justify="left" default-y="-80" number="1">
                    <syllabic>end</syllabic>
                    <text>nyér,</text>
                    <extend/>
                </lyric>
            </note>
            <note default-x="176">
                <pitch>
                    <step>D</step>
                    <octave>4</octave>
                </pitch>
                <duration>4</duration>
                <tie type="stop"/>
                <voice>1</voice>
                <type>half</type>
                <stem default-y="-9">up</stem>
                <notations>
                    <tied type="stop"/>
                </notations>
            </note>
        </measure>
        <measure width="189" number="3">
            <note default-x="11">
                <rest/>
                <duration>2</duration>
                <voice>1</voice>
                <type>quarter</type>
            </note>
            <note default-x="55">
                <pitch>
                    <step>A</step>
                    <octave>3</octave>
                </pitch>
                <duration>2</duration>
                <voice>1</voice>
                <type>quarter</type>
                <stem default-y="-19">up</stem>
                <lyric default-y="-80" number="1">
                    <syllabic>begin</syllabic>
                    <text>táp</text>
                </lyric>
            </note>
            <note default-x="99">
                <pitch>
                    <step>D</step>
                    <octave>4</octave>
                </pitch>
                <duration>2</duration>
                <voice>1</voice>
                <type>quarter</type>
                <stem default-y="-9">up</stem>
                <lyric default-y="-80" number="1">
                    <syllabic>middle</syllabic>
                    <text>lá</text>
                </lyric>
            </note>
            <note default-x="143">
                <pitch>
                    <step>E</step>
                    <octave>4</octave>
                </pitch>
                <duration>2</duration>
                <voice>1</voice>
                <type>quarter</type>
                <stem default-y="-4">up</stem>
                <lyric default-y="-80" number="1">
                    <syllabic>end</syllabic>
                    <text>ló</text>
                </lyric>
            </note>
        </measure>
        <measure width="239" number="4">
            <harmony default-y="40">
                <root>
                    <root-step>B</root-step>
                </root>
                <kind text="m">minor</kind>
            </harmony>
            <note default-x="17">
                <pitch>
                    <step>E</step>
                    <octave>4</octave>
                </pitch>
                <duration>2</duration>
                <voice>1</voice>
                <type>quarter</type>
                <stem default-y="-4">up</stem>
                <lyric default-y="-80" number="1">
                    <syllabic>begin</syllabic>
                    <text>drá</text>
                </lyric>
            </note>
            <note default-x="67">
                <pitch>
                    <step>D</step>
                    <octave>4</octave>
                </pitch>
                <duration>1</duration>
                <voice>1</voice>
                <type>eighth</type>
                <stem default-y="-10">up</stem>
                <beam number="1">begin</beam>
                <lyric default-y="-80" number="1">
                    <syllabic>end</syllabic>
                    <text>ga</text>
                </lyric>
            </note>
            <note default-x="101">
                <pitch>
                    <step>D</step>
                    <octave>4</octave>
                </pitch>
                <duration>1</duration>
                <tie type="start"/>
                <voice>1</voice>
                <type>eighth</type>
                <stem default-y="-10">up</stem>
                <beam number="1">end</beam>
                <notations>
                    <tied type="start"/>
                </notations>
                <lyric justify="left" default-y="-80" number="1">
                    <syllabic>single</syllabic>
                    <text>vér,</text>
                    <extend/>
                </lyric>
            </note>
            <note default-x="157">
                <pitch>
                    <step>D</step>
                    <octave>4</octave>
                </pitch>
                <duration>4</duration>
                <tie type="stop"/>
                <voice>1</voice>
                <type>half</type>
                <stem default-y="-9">up</stem>
                <notations>
                    <tied type="stop"/>
                </notations>
            </note>
        </measure>
        <measure width="338" number="5">
            <print new-system="yes">
                <system-layout>
                    <system-distance>114</system-distance>
                </system-layout>
            </print>
            <note default-x="84">
                <rest/>
                <duration>2</duration>
                <voice>1</voice>
                <type>quarter</type>
            </note>
            <note default-x="143">
                <rest/>
                <duration>1</duration>
                <voice>1</voice>
                <type>eighth</type>
            </note>
            <note default-x="180">
                <pitch>
                    <step>B</step>
                    <octave>3</octave>
                </pitch>
                <duration>1</duration>
                <voice>1</voice>
                <type>eighth</type>
                <stem default-y="-19">up</stem>
                <lyric default-y="-80" number="1">
                    <syllabic>begin</syllabic>
                    <text>Be</text>
                </lyric>
            </note>
            <note default-x="217">
                <pitch>
                    <step>D</step>
                    <octave>4</octave>
                </pitch>
                <duration>2</duration>
                <voice>1</voice>
                <type>quarter</type>
                <stem default-y="-9">up</stem>
                <lyric default-y="-80" number="1">
                    <syllabic>middle</syllabic>
                    <text>töl</text>
                </lyric>
            </note>
            <note default-x="277">
                <pitch>
                    <step>F</step>
                    <alter>1</alter>
                    <octave>4</octave>
                </pitch>
                <duration>2</duration>
                <voice>1</voice>
                <type>quarter</type>
                <stem default-y="1">up</stem>
                <lyric default-y="-80" number="1">
                    <syllabic>end</syllabic>
                    <text>ti</text>
                </lyric>
            </note>
        </measure>
        <measure width="296" number="6">
            <harmony default-y="40">
                <root>
                    <root-step>E</root-step>
                </root>
                <kind text="m">minor</kind>
            </harmony>
            <note default-x="14">
                <pitch>
                    <step>F</step>
                    <alter>1</alter>
                    <octave>4</octave>
                </pitch>
                <duration>2</duration>
                <voice>1</voice>
                <type>quarter</type>
                <stem default-y="1">up</stem>
                <lyric default-y="-80" number="1">
                    <syllabic>begin</syllabic>
                    <text>szí</text>
                </lyric>
            </note>
            <note default-x="83">
                <pitch>
                    <step>E</step>
                    <octave>4</octave>
                </pitch>
                <duration>1</duration>
                <voice>1</voice>
                <type>eighth</type>
                <stem default-y="-5">up</stem>
                <beam number="1">begin</beam>
                <lyric default-y="-80" number="1">
                    <syllabic>middle</syllabic>
                    <text>ve</text>
                </lyric>
            </note>
            <note default-x="125">
                <pitch>
                    <step>E</step>
                    <octave>4</octave>
                </pitch>
                <duration>1</duration>
                <tie type="start"/>
                <voice>1</voice>
                <type>eighth</type>
                <stem default-y="-5">up</stem>
                <beam number="1">end</beam>
                <notations>
                    <tied type="start"/>
                </notations>
                <lyric justify="left" default-y="-80" number="1">
                    <syllabic>end</syllabic>
                    <text>met,</text>
                    <extend/>
                </lyric>
            </note>
            <note default-x="185">
                <pitch>
                    <step>E</step>
                    <octave>4</octave>
                </pitch>
                <duration>4</duration>
                <tie type="stop"/>
                <voice>1</voice>
                <type>half</type>
                <stem default-y="-4">up</stem>
                <notations>
                    <tied type="stop"/>
                </notations>
            </note>
        </measure>
        <measure width="242" number="7">
            <note default-x="11">
                <rest/>
                <duration>2</duration>
                <voice>1</voice>
                <type>quarter</type>
            </note>
            <note default-x="69">
                <pitch>
                    <step>E</step>
                    <octave>4</octave>
                </pitch>
                <duration>2</duration>
                <voice>1</voice>
                <type>quarter</type>
                <stem default-y="-4">up</stem>
                <lyric default-y="-80" number="1">
                    <syllabic>single</syllabic>
                    <text>a</text>
                </lyric>
            </note>
            <note default-x="127">
                <pitch>
                    <step>E</step>
                    <octave>4</octave>
                </pitch>
                <duration>3</duration>
                <voice>1</voice>
                <type>quarter</type>
                <dot/>
                <stem default-y="-4">up</stem>
                <lyric default-y="-80" number="1">
                    <syllabic>begin</syllabic>
                    <text>Vég</text>
                </lyric>
            </note>
            <note default-x="204">
                <pitch>
                    <step>D</step>
                    <octave>4</octave>
                </pitch>
                <duration>1</duration>
                <voice>1</voice>
                <type>eighth</type>
                <stem default-y="-9">up</stem>
                <lyric default-y="-80" number="1">
                    <syllabic>middle</syllabic>
                    <text>te</text>
                </lyric>
            </note>
        </measure>
        <measure width="177" number="8">
            <harmony default-y="40">
                <root>
                    <root-step>A</root-step>
                </root>
                <kind text="">major</kind>
            </harmony>
            <note default-x="18">
                <pitch>
                    <step>E</step>
                    <octave>4</octave>
                </pitch>
                <duration>8</duration>
                <voice>1</voice>
                <type>whole</type>
                <lyric default-y="-80" number="1">
                    <syllabic>end</syllabic>
                    <text>len.</text>
                </lyric>
            </note>
        </measure>
        <measure width="301" number="9">
            <print new-system="yes">
                <system-layout>
                    <system-distance>114</system-distance>
                </system-layout>
            </print>
            <note default-x="84">
                <rest/>
                <duration>2</duration>
                <voice>1</voice>
                <type>quarter</type>
            </note>
            <note default-x="138">
                <pitch>
                    <step>A</step>
                    <octave>3</octave>
                </pitch>
                <duration>2</duration>
                <voice>1</voice>
                <type>quarter</type>
                <stem default-y="-19">up</stem>
                <lyric default-y="-80" number="1">
                    <syllabic>begin</syllabic>
                    <text>Bé</text>
                </lyric>
            </note>
            <note default-x="192">
                <pitch>
                    <step>D</step>
                    <octave>4</octave>
                </pitch>
                <duration>2</duration>
                <voice>1</voice>
                <type>quarter</type>
                <stem default-y="-9">up</stem>
                <lyric default-y="-80" number="1">
                    <syllabic>middle</syllabic>
                    <text>kém</text>
                </lyric>
            </note>
            <note default-x="245">
                <pitch>
                    <step>E</step>
                    <octave>4</octave>
                </pitch>
                <duration>2</duration>
                <voice>1</voice>
                <type>quarter</type>
                <stem default-y="-4">up</stem>
                <lyric default-y="-80" number="1">
                    <syllabic>end</syllabic>
                    <text>nek</text>
                </lyric>
            </note>
        </measure>
        <measure width="260" number="10">
            <harmony default-y="40">
                <root>
                    <root-step>D</root-step>
                </root>
                <kind text="">major</kind>
            </harmony>
            <note default-x="12">
                <pitch>
                    <step>E</step>
                    <octave>4</octave>
                </pitch>
                <duration>2</duration>
                <voice>1</voice>
                <type>quarter</type>
                <stem default-y="-4">up</stem>
                <lyric default-y="-80" number="1">
                    <syllabic>begin</syllabic>
                    <text>zá</text>
                </lyric>
            </note>
            <note default-x="73">
                <pitch>
                    <step>D</step>
                    <octave>4</octave>
                </pitch>
                <duration>1</duration>
                <voice>1</voice>
                <type>eighth</type>
                <stem default-y="-10">up</stem>
                <beam number="1">begin</beam>
                <lyric default-y="-80" number="1">
                    <syllabic>middle</syllabic>
                    <text>lo</text>
                </lyric>
            </note>
            <note default-x="111">
                <pitch>
                    <step>D</step>
                    <octave>4</octave>
                </pitch>
                <duration>1</duration>
                <tie type="start"/>
                <voice>1</voice>
                <type>eighth</type>
                <stem default-y="-10">up</stem>
                <beam number="1">end</beam>
                <notations>
                    <tied type="start"/>
                </notations>
                <lyric justify="left" default-y="-80" number="1">
                    <syllabic>end</syllabic>
                    <text>ga,</text>
                    <extend/>
                </lyric>
            </note>
            <note default-x="160">
                <pitch>
                    <step>D</step>
                    <octave>4</octave>
                </pitch>
                <duration>4</duration>
                <tie type="stop"/>
                <voice>1</voice>
                <type>half</type>
                <stem default-y="-9">up</stem>
                <notations>
                    <tied type="stop"/>
                </notations>
            </note>
        </measure>
        <measure width="227" number="11">
            <note default-x="10">
                <rest/>
                <duration>2</duration>
                <voice>1</voice>
                <type>quarter</type>
            </note>
            <note default-x="64">
                <pitch>
                    <step>A</step>
                    <octave>3</octave>
                </pitch>
                <duration>2</duration>
                <voice>1</voice>
                <type>quarter</type>
                <stem default-y="-19">up</stem>
                <lyric default-y="-80" number="1">
                    <syllabic>begin</syllabic>
                    <text>lel</text>
                </lyric>
            </note>
            <note default-x="118">
                <pitch>
                    <step>D</step>
                    <octave>4</octave>
                </pitch>
                <duration>2</duration>
                <voice>1</voice>
                <type>quarter</type>
                <stem default-y="-9">up</stem>
                <lyric default-y="-80" number="1">
                    <syllabic>middle</syllabic>
                    <text>kem</text>
                </lyric>
            </note>
            <note default-x="172">
                <pitch>
                    <step>E</step>
                    <octave>4</octave>
                </pitch>
                <duration>2</duration>
                <voice>1</voice>
                <type>quarter</type>
                <stem default-y="-4">up</stem>
                <lyric default-y="-80" number="1">
                    <syllabic>end</syllabic>
                    <text>nek</text>
                </lyric>
            </note>
        </measure>
        <measure width="265" number="12">
            <harmony default-y="40">
                <root>
                    <root-step>B</root-step>
                </root>
                <kind text="m">minor</kind>
            </harmony>
            <note default-x="15">
                <pitch>
                    <step>E</step>
                    <octave>4</octave>
                </pitch>
                <duration>2</duration>
                <voice>1</voice>
                <type>quarter</type>
                <stem default-y="-4">up</stem>
                <lyric default-y="-80" number="1">
                    <syllabic>begin</syllabic>
                    <text>ott</text>
                </lyric>
            </note>
            <note default-x="77">
                <pitch>
                    <step>D</step>
                    <octave>4</octave>
                </pitch>
                <duration>1</duration>
                <voice>1</voice>
                <type>eighth</type>
                <stem default-y="-10">up</stem>
                <beam number="1">begin</beam>
                <lyric default-y="-80" number="1">
                    <syllabic>middle</syllabic>
                    <text>ho</text>
                </lyric>
            </note>
            <note default-x="115">
                <pitch>
                    <step>D</step>
                    <octave>4</octave>
                </pitch>
                <duration>1</duration>
                <tie type="start"/>
                <voice>1</voice>
                <type>eighth</type>
                <stem default-y="-10">up</stem>
                <beam number="1">end</beam>
                <notations>
                    <tied type="start"/>
                </notations>
                <lyric justify="left" default-y="-80" number="1">
                    <syllabic>end</syllabic>
                    <text>na,</text>
                    <extend/>
                </lyric>
            </note>
            <note default-x="163">
                <pitch>
                    <step>D</step>
                    <octave>4</octave>
                </pitch>
                <duration>4</duration>
                <tie type="stop"/>
                <voice>1</voice>
                <type>half</type>
                <stem default-y="-9">up</stem>
                <notations>
                    <tied type="stop"/>
                </notations>
            </note>
        </measure>
        <measure width="248" number="13">
            <print new-system="yes">
                <system-layout>
                    <system-distance>114</system-distance>
                </system-layout>
            </print>
            <note default-x="84">
                <rest/>
                <duration>2</duration>
                <voice>1</voice>
                <type>quarter</type>
            </note>
            <note default-x="125">
                <pitch>
                    <step>B</step>
                    <octave>3</octave>
                </pitch>
                <duration>2</duration>
                <voice>1</voice>
                <type>quarter</type>
                <stem default-y="-19">up</stem>
                <lyric default-y="-80" number="1">
                    <syllabic>begin</syllabic>
                    <text>For</text>
                </lyric>
            </note>
            <note default-x="165">
                <pitch>
                    <step>D</step>
                    <octave>4</octave>
                </pitch>
                <duration>2</duration>
                <voice>1</voice>
                <type>quarter</type>
                <stem default-y="-9">up</stem>
                <lyric default-y="-80" number="1">
                    <syllabic>end</syllabic>
                    <text>máld</text>
                </lyric>
            </note>
            <note default-x="206">
                <pitch>
                    <step>F</step>
                    <alter>1</alter>
                    <octave>4</octave>
                </pitch>
                <duration>2</duration>
                <voice>1</voice>
                <type>quarter</type>
                <stem default-y="1">up</stem>
                <lyric default-y="-80" number="1">
                    <syllabic>single</syllabic>
                    <text>át</text>
                </lyric>
            </note>
        </measure>
        <measure width="205" number="14">
            <harmony default-y="40">
                <root>
                    <root-step>E</root-step>
                </root>
                <kind text="m">minor</kind>
            </harmony>
            <note default-x="11">
                <pitch>
                    <step>F</step>
                    <alter>1</alter>
                    <octave>4</octave>
                </pitch>
                <duration>2</duration>
                <voice>1</voice>
                <type>quarter</type>
                <stem default-y="1">up</stem>
                <lyric default-y="-80" number="1">
                    <syllabic>begin</syllabic>
                    <text>é</text>
                </lyric>
            </note>
            <note default-x="52">
                <pitch>
                    <step>E</step>
                    <octave>4</octave>
                </pitch>
                <duration>1</duration>
                <voice>1</voice>
                <type>eighth</type>
                <stem default-y="-5">up</stem>
                <beam number="1">begin</beam>
                <lyric default-y="-80" number="1">
                    <syllabic>middle</syllabic>
                    <text>le</text>
                </lyric>
            </note>
            <note default-x="78">
                <pitch>
                    <step>E</step>
                    <octave>4</octave>
                </pitch>
                <duration>1</duration>
                <tie type="start"/>
                <voice>1</voice>
                <type>eighth</type>
                <stem default-y="-5">up</stem>
                <beam number="1">end</beam>
                <notations>
                    <tied type="start"/>
                </notations>
                <lyric default-y="-80" number="1">
                    <syllabic>end</syllabic>
                    <text>tem,</text>
                </lyric>
            </note>
            <note default-x="138">
                <pitch>
                    <step>E</step>
                    <octave>4</octave>
                </pitch>
                <duration>4</duration>
                <tie type="stop"/>
                <voice>1</voice>
                <type>half</type>
                <stem default-y="-4">up</stem>
                <notations>
                    <tied type="stop"/>
                </notations>
            </note>
        </measure>
        <measure width="158" number="15">
            <note default-x="10">
                <rest/>
                <duration>4</duration>
                <voice>1</voice>
                <type>half</type>
            </note>
            <note default-x="77">
                <pitch>
                    <step>E</step>
                    <octave>4</octave>
                </pitch>
                <duration>3</duration>
                <voice>1</voice>
                <type>quarter</type>
                <dot/>
                <stem default-y="-4">up</stem>
                <lyric default-y="-80" number="1">
                    <syllabic>single</syllabic>
                    <text>légy</text>
                </lyric>
            </note>
            <note default-x="130">
                <pitch>
                    <step>D</step>
                    <octave>4</octave>
                </pitch>
                <duration>1</duration>
                <voice>1</voice>
                <type>eighth</type>
                <stem default-y="-9">up</stem>
                <lyric default-y="-80" number="1">
                    <syllabic>begin</syllabic>
                    <text>ve</text>
                </lyric>
            </note>
        </measure>
        <measure width="147" number="16">
            <harmony default-y="40">
                <root>
                    <root-step>A</root-step>
                </root>
                <kind text="">major</kind>
            </harmony>
            <note default-x="22">
                <pitch>
                    <step>E</step>
                    <octave>4</octave>
                </pitch>
                <duration>8</duration>
                <voice>1</voice>
                <type>whole</type>
                <lyric default-y="-80" number="1">
                    <syllabic>end</syllabic>
                    <text>lem!</text>
                </lyric>
            </note>
            <barline location="right">
                <bar-style>light-heavy</bar-style>
                <repeat direction="backward"/>
            </barline>
        </measure>
        <measure width="156" number="17">
            <harmony default-y="40">
                <root>
                    <root-step>A</root-step>
                </root>
                <kind text="7">dominant</kind>
            </harmony>
            <direction>
                <direction-type>
                    <words font-size="12" default-y="29" valign="top">Legvégén</words>
                </direction-type>
            </direction>
            <note default-x="9">
                <rest/>
                <duration>4</duration>
                <voice>1</voice>
                <type>half</type>
            </note>
            <note default-x="75">
                <pitch>
                    <step>E</step>
                    <octave>4</octave>
                </pitch>
                <duration>3</duration>
                <voice>1</voice>
                <type>quarter</type>
                <dot/>
                <stem default-y="-4">up</stem>
                <lyric default-y="-80" number="1">
                    <syllabic>single</syllabic>
                    <text>Légy</text>
                </lyric>
            </note>
            <note default-x="129">
                <pitch>
                    <step>D</step>
                    <octave>4</octave>
                </pitch>
                <duration>1</duration>
                <voice>1</voice>
                <type>eighth</type>
                <stem default-y="-9">up</stem>
                <lyric default-y="-80" number="1">
                    <syllabic>begin</syllabic>
                    <text>ve</text>
                </lyric>
            </note>
        </measure>
        <measure width="139" number="18">
            <harmony default-y="40">
                <root>
                    <root-step>D</root-step>
                </root>
                <kind text="">major</kind>
            </harmony>
            <note default-x="22">
                <pitch>
                    <step>D</step>
                    <octave>4</octave>
                </pitch>
                <duration>8</duration>
                <voice>1</voice>
                <type>whole</type>
                <lyric default-y="-80" number="1">
                    <syllabic>end</syllabic>
                    <text>lem!</text>
                </lyric>
            </note>
            <barline location="right">
                <bar-style>light-heavy</bar-style>
            </barline>
        </measure>
        <measure width="312" number="19">
            <print new-system="yes">
                <system-layout>
                    <system-distance>114</system-distance>
                </system-layout>
            </print>
            <direction>
                <direction-type>
                    <words font-size="12" default-y="30" default-x="79" valign="top">Felsõ szólam</words>
                </direction-type>
            </direction>
            <note default-x="84">
                <rest/>
                <duration>2</duration>
                <voice>1</voice>
                <type>quarter</type>
            </note>
            <note default-x="140">
                <pitch>
                    <step>A</step>
                    <octave>3</octave>
                </pitch>
                <duration>2</duration>
                <voice>1</voice>
                <type>quarter</type>
                <stem default-y="-19">up</stem>
            </note>
            <note default-x="198">
                <pitch>
                    <step>D</step>
                    <octave>4</octave>
                </pitch>
                <duration>2</duration>
                <voice>1</voice>
                <type>quarter</type>
                <stem default-y="-9">up</stem>
            </note>
            <note default-x="254">
                <pitch>
                    <step>E</step>
                    <octave>4</octave>
                </pitch>
                <duration>2</duration>
                <voice>1</voice>
                <type>quarter</type>
                <stem default-y="-4">up</stem>
            </note>
        </measure>
        <measure width="250" number="20">
            <harmony default-y="40">
                <root>
                    <root-step>D</root-step>
                </root>
                <kind text="">major</kind>
            </harmony>
            <note default-x="10">
                <pitch>
                    <step>E</step>
                    <octave>4</octave>
                </pitch>
                <duration>2</duration>
                <voice>1</voice>
                <type>quarter</type>
                <stem default-y="-4">up</stem>
            </note>
            <note default-x="72">
                <pitch>
                    <step>F</step>
                    <alter>1</alter>
                    <octave>4</octave>
                </pitch>
                <duration>1</duration>
                <voice>1</voice>
                <type>eighth</type>
                <stem default-y="0">up</stem>
                <beam number="1">begin</beam>
            </note>
            <note default-x="110">
                <pitch>
                    <step>F</step>
                    <alter>1</alter>
                    <octave>4</octave>
                </pitch>
                <duration>1</duration>
                <tie type="start"/>
                <voice>1</voice>
                <type>eighth</type>
                <stem default-y="0">up</stem>
                <beam number="1">end</beam>
                <notations>
                    <tied type="start"/>
                </notations>
            </note>
            <note default-x="148">
                <pitch>
                    <step>F</step>
                    <alter>1</alter>
                    <octave>4</octave>
                </pitch>
                <duration>4</duration>
                <tie type="stop"/>
                <voice>1</voice>
                <type>half</type>
                <stem default-y="1">up</stem>
                <notations>
                    <tied type="stop"/>
                </notations>
            </note>
        </measure>
        <measure width="239" number="21">
            <note default-x="11">
                <rest/>
                <duration>2</duration>
                <voice>1</voice>
                <type>quarter</type>
            </note>
            <note default-x="67">
                <pitch>
                    <step>A</step>
                    <octave>3</octave>
                </pitch>
                <duration>2</duration>
                <voice>1</voice>
                <type>quarter</type>
                <stem default-y="-19">up</stem>
            </note>
            <note default-x="124">
                <pitch>
                    <step>D</step>
                    <octave>4</octave>
                </pitch>
                <duration>2</duration>
                <voice>1</voice>
                <type>quarter</type>
                <stem default-y="-9">up</stem>
            </note>
            <note default-x="180">
                <pitch>
                    <step>E</step>
                    <octave>4</octave>
                </pitch>
                <duration>2</duration>
                <voice>1</voice>
                <type>quarter</type>
                <stem default-y="-4">up</stem>
            </note>
        </measure>
        <measure width="252" number="22">
            <harmony default-y="40">
                <root>
                    <root-step>B</root-step>
                </root>
                <kind text="m">minor</kind>
            </harmony>
            <note default-x="10">
                <pitch>
                    <step>E</step>
                    <octave>4</octave>
                </pitch>
                <duration>2</duration>
                <voice>1</voice>
                <type>quarter</type>
                <stem default-y="-4">up</stem>
            </note>
            <note default-x="73">
                <pitch>
                    <step>F</step>
                    <alter>1</alter>
                    <octave>4</octave>
                </pitch>
                <duration>1</duration>
                <voice>1</voice>
                <type>eighth</type>
                <stem default-y="0">up</stem>
                <beam number="1">begin</beam>
            </note>
            <note default-x="111">
                <pitch>
                    <step>F</step>
                    <alter>1</alter>
                    <octave>4</octave>
                </pitch>
                <duration>1</duration>
                <tie type="start"/>
                <voice>1</voice>
                <type>eighth</type>
                <stem default-y="0">up</stem>
                <beam number="1">end</beam>
                <notations>
                    <tied type="start"/>
                </notations>
            </note>
            <note default-x="150">
                <pitch>
                    <step>F</step>
                    <alter>1</alter>
                    <octave>4</octave>
                </pitch>
                <duration>4</duration>
                <tie type="stop"/>
                <voice>1</voice>
                <type>half</type>
                <stem default-y="1">up</stem>
                <notations>
                    <tied type="stop"/>
                </notations>
            </note>
        </measure>
        <measure width="353" number="23">
            <print new-system="yes">
                <system-layout>
                    <system-distance>114</system-distance>
                </system-layout>
            </print>
            <note default-x="84">
                <rest/>
                <duration>2</duration>
                <voice>1</voice>
                <type>quarter</type>
            </note>
            <note default-x="147">
                <pitch>
                    <step>B</step>
                    <octave>3</octave>
                </pitch>
                <duration>1</duration>
                <voice>1</voice>
                <type>eighth</type>
                <stem default-y="-19">up</stem>
            </note>
            <note default-x="186">
                <pitch>
                    <step>D</step>
                    <octave>4</octave>
                </pitch>
                <duration>2</duration>
                <voice>1</voice>
                <type>quarter</type>
                <stem default-y="-9">up</stem>
            </note>
            <note default-x="249">
                <pitch>
                    <step>F</step>
                    <alter>1</alter>
                    <octave>4</octave>
                </pitch>
                <duration>2</duration>
                <voice>1</voice>
                <type>quarter</type>
                <stem default-y="1">up</stem>
            </note>
            <note default-x="313">
                <rest/>
                <duration>1</duration>
                <voice>1</voice>
                <type>eighth</type>
            </note>
        </measure>
        <measure width="270" number="24">
            <harmony default-y="40">
                <root>
                    <root-step>E</root-step>
                </root>
                <kind text="m">minor</kind>
            </harmony>
            <note default-x="11">
                <pitch>
                    <step>F</step>
                    <alter>1</alter>
                    <octave>4</octave>
                </pitch>
                <duration>2</duration>
                <voice>1</voice>
                <type>quarter</type>
                <stem default-y="1">up</stem>
            </note>
            <note default-x="78">
                <pitch>
                    <step>G</step>
                    <octave>4</octave>
                </pitch>
                <duration>1</duration>
                <voice>1</voice>
                <type>eighth</type>
                <stem default-y="5">up</stem>
                <beam number="1">begin</beam>
            </note>
            <note default-x="119">
                <pitch>
                    <step>G</step>
                    <octave>4</octave>
                </pitch>
                <duration>1</duration>
                <tie type="start"/>
                <voice>1</voice>
                <type>eighth</type>
                <stem default-y="5">up</stem>
                <beam number="1">end</beam>
                <notations>
                    <tied type="start"/>
                </notations>
            </note>
            <note default-x="161">
                <pitch>
                    <step>G</step>
                    <octave>4</octave>
                </pitch>
                <duration>4</duration>
                <tie type="stop"/>
                <voice>1</voice>
                <type>half</type>
                <stem default-y="6">up</stem>
                <notations>
                    <tied type="stop"/>
                </notations>
            </note>
        </measure>
        <measure width="253" number="25">
            <note default-x="10">
                <rest/>
                <duration>2</duration>
                <voice>1</voice>
                <type>quarter</type>
            </note>
            <note default-x="71">
                <pitch>
                    <step>G</step>
                    <octave>4</octave>
                </pitch>
                <duration>2</duration>
                <voice>1</voice>
                <type>quarter</type>
                <stem default-y="6">up</stem>
            </note>
            <note default-x="133">
                <pitch>
                    <step>G</step>
                    <octave>4</octave>
                </pitch>
                <duration>3</duration>
                <voice>1</voice>
                <type>quarter</type>
                <dot/>
                <stem default-y="6">up</stem>
            </note>
            <note default-x="214">
                <pitch>
                    <step>G</step>
                    <octave>4</octave>
                </pitch>
                <duration>1</duration>
                <voice>1</voice>
                <type>eighth</type>
                <stem default-y="6">up</stem>
            </note>
        </measure>
        <measure width="177" number="26">
            <harmony default-y="40">
                <root>
                    <root-step>A</root-step>
                </root>
                <kind text="">major</kind>
            </harmony>
            <note default-x="10">
                <pitch>
                    <step>A</step>
                    <octave>4</octave>
                </pitch>
                <duration>8</duration>
                <voice>1</voice>
                <type>whole</type>
            </note>
        </measure>
        <measure width="312" number="27">
            <print new-system="yes">
                <system-layout>
                    <system-distance>114</system-distance>
                </system-layout>
            </print>
            <note default-x="84">
                <rest/>
                <duration>2</duration>
                <voice>1</voice>
                <type>quarter</type>
            </note>
            <note default-x="140">
                <pitch>
                    <step>A</step>
                    <octave>3</octave>
                </pitch>
                <duration>2</duration>
                <voice>1</voice>
                <type>quarter</type>
                <stem default-y="-19">up</stem>
            </note>
            <note default-x="198">
                <pitch>
                    <step>D</step>
                    <octave>4</octave>
                </pitch>
                <duration>2</duration>
                <voice>1</voice>
                <type>quarter</type>
                <stem default-y="-9">up</stem>
            </note>
            <note default-x="254">
                <pitch>
                    <step>E</step>
                    <octave>4</octave>
                </pitch>
                <duration>2</duration>
                <voice>1</voice>
                <type>quarter</type>
                <stem default-y="-4">up</stem>
            </note>
        </measure>
        <measure width="250" number="28">
            <harmony default-y="40">
                <root>
                    <root-step>D</root-step>
                </root>
                <kind text="">major</kind>
            </harmony>
            <note default-x="10">
                <pitch>
                    <step>E</step>
                    <octave>4</octave>
                </pitch>
                <duration>2</duration>
                <voice>1</voice>
                <type>quarter</type>
                <stem default-y="-4">up</stem>
            </note>
            <note default-x="72">
                <pitch>
                    <step>F</step>
                    <alter>1</alter>
                    <octave>4</octave>
                </pitch>
                <duration>1</duration>
                <voice>1</voice>
                <type>eighth</type>
                <stem default-y="0">up</stem>
                <beam number="1">begin</beam>
            </note>
            <note default-x="110">
                <pitch>
                    <step>F</step>
                    <alter>1</alter>
                    <octave>4</octave>
                </pitch>
                <duration>1</duration>
                <tie type="start"/>
                <voice>1</voice>
                <type>eighth</type>
                <stem default-y="0">up</stem>
                <beam number="1">end</beam>
                <notations>
                    <tied type="start"/>
                </notations>
            </note>
            <note default-x="148">
                <pitch>
                    <step>F</step>
                    <alter>1</alter>
                    <octave>4</octave>
                </pitch>
                <duration>4</duration>
                <tie type="stop"/>
                <voice>1</voice>
                <type>half</type>
                <stem default-y="1">up</stem>
                <notations>
                    <tied type="stop"/>
                </notations>
            </note>
        </measure>
        <measure width="239" number="29">
            <note default-x="11">
                <rest/>
                <duration>2</duration>
                <voice>1</voice>
                <type>quarter</type>
            </note>
            <note default-x="67">
                <pitch>
                    <step>A</step>
                    <octave>3</octave>
                </pitch>
                <duration>2</duration>
                <voice>1</voice>
                <type>quarter</type>
                <stem default-y="-19">up</stem>
            </note>
            <note default-x="124">
                <pitch>
                    <step>D</step>
                    <octave>4</octave>
                </pitch>
                <duration>2</duration>
                <voice>1</voice>
                <type>quarter</type>
                <stem default-y="-9">up</stem>
            </note>
            <note default-x="180">
                <pitch>
                    <step>E</step>
                    <octave>4</octave>
                </pitch>
                <duration>2</duration>
                <voice>1</voice>
                <type>quarter</type>
                <stem default-y="-4">up</stem>
            </note>
        </measure>
        <measure width="252" number="30">
            <harmony default-y="40">
                <root>
                    <root-step>B</root-step>
                </root>
                <kind text="m">minor</kind>
            </harmony>
            <note default-x="10">
                <pitch>
                    <step>E</step>
                    <octave>4</octave>
                </pitch>
                <duration>2</duration>
                <voice>1</voice>
                <type>quarter</type>
                <stem default-y="-4">up</stem>
            </note>
            <note default-x="73">
                <pitch>
                    <step>F</step>
                    <alter>1</alter>
                    <octave>4</octave>
                </pitch>
                <duration>1</duration>
                <voice>1</voice>
                <type>eighth</type>
                <stem default-y="0">up</stem>
                <beam number="1">begin</beam>
            </note>
            <note default-x="111">
                <pitch>
                    <step>F</step>
                    <alter>1</alter>
                    <octave>4</octave>
                </pitch>
                <duration>1</duration>
                <tie type="start"/>
                <voice>1</voice>
                <type>eighth</type>
                <stem default-y="0">up</stem>
                <beam number="1">end</beam>
                <notations>
                    <tied type="start"/>
                </notations>
            </note>
            <note default-x="150">
                <pitch>
                    <step>F</step>
                    <alter>1</alter>
                    <octave>4</octave>
                </pitch>
                <duration>4</duration>
                <tie type="stop"/>
                <voice>1</voice>
                <type>half</type>
                <stem default-y="1">up</stem>
                <notations>
                    <tied type="stop"/>
                </notations>
            </note>
        </measure>
        <measure width="256" number="31">
            <print new-system="yes">
                <system-layout>
                    <system-distance>114</system-distance>
                </system-layout>
            </print>
            <note default-x="84">
                <rest/>
                <duration>2</duration>
                <voice>1</voice>
                <type>quarter</type>
            </note>
            <note default-x="126">
                <pitch>
                    <step>B</step>
                    <octave>3</octave>
                </pitch>
                <duration>2</duration>
                <voice>1</voice>
                <type>quarter</type>
                <stem default-y="-19">up</stem>
            </note>
            <note default-x="169">
                <pitch>
                    <step>D</step>
                    <octave>4</octave>
                </pitch>
                <duration>2</duration>
                <voice>1</voice>
                <type>quarter</type>
                <stem default-y="-9">up</stem>
            </note>
            <note default-x="212">
                <pitch>
                    <step>F</step>
                    <alter>1</alter>
                    <octave>4</octave>
                </pitch>
                <duration>2</duration>
                <voice>1</voice>
                <type>quarter</type>
                <stem default-y="1">up</stem>
            </note>
        </measure>
        <measure width="192" number="32">
            <harmony default-y="40">
                <root>
                    <root-step>E</root-step>
                </root>
                <kind text="m">minor</kind>
            </harmony>
            <note default-x="11">
                <pitch>
                    <step>F</step>
                    <alter>1</alter>
                    <octave>4</octave>
                </pitch>
                <duration>2</duration>
                <voice>1</voice>
                <type>quarter</type>
                <stem default-y="1">up</stem>
            </note>
            <note default-x="56">
                <pitch>
                    <step>G</step>
                    <octave>4</octave>
                </pitch>
                <duration>1</duration>
                <voice>1</voice>
                <type>eighth</type>
                <stem default-y="5">up</stem>
                <beam number="1">begin</beam>
            </note>
            <note default-x="84">
                <pitch>
                    <step>G</step>
                    <octave>4</octave>
                </pitch>
                <duration>1</duration>
                <tie type="start"/>
                <voice>1</voice>
                <type>eighth</type>
                <stem default-y="5">up</stem>
                <beam number="1">end</beam>
                <notations>
                    <tied type="start"/>
                </notations>
            </note>
            <note default-x="118">
                <pitch>
                    <step>G</step>
                    <octave>4</octave>
                </pitch>
                <duration>4</duration>
                <tie type="stop"/>
                <voice>1</voice>
                <type>half</type>
                <stem default-y="6">up</stem>
                <notations>
                    <tied type="stop"/>
                </notations>
            </note>
        </measure>
        <measure width="166" number="33">
            <note default-x="10">
                <rest/>
                <duration>4</duration>
                <voice>1</voice>
                <type>half</type>
            </note>
            <note default-x="81">
                <pitch>
                    <step>G</step>
                    <octave>4</octave>
                </pitch>
                <duration>3</duration>
                <voice>1</voice>
                <type>quarter</type>
                <dot/>
                <stem default-y="6">up</stem>
            </note>
            <note default-x="138">
                <pitch>
                    <step>G</step>
                    <octave>4</octave>
                </pitch>
                <duration>1</duration>
                <voice>1</voice>
                <type>eighth</type>
                <stem default-y="6">up</stem>
            </note>
        </measure>
        <measure width="144" number="34">
            <harmony default-y="40">
                <root>
                    <root-step>A</root-step>
                </root>
                <kind text="">major</kind>
            </harmony>
            <note default-x="10">
                <pitch>
                    <step>A</step>
                    <octave>4</octave>
                </pitch>
                <duration>8</duration>
                <voice>1</voice>
                <type>whole</type>
            </note>
            <barline location="right">
                <bar-style>light-heavy</bar-style>
                <repeat direction="backward"/>
            </barline>
        </measure>
        <measure width="170" number="35">
            <harmony default-y="40">
                <root>
                    <root-step>A</root-step>
                </root>
                <kind text="7">dominant</kind>
            </harmony>
            <direction>
                <direction-type>
                    <words font-size="12" default-y="28" default-x="5" valign="top">Legvégén</words>
                </direction-type>
            </direction>
            <note default-x="9">
                <rest/>
                <duration>4</duration>
                <voice>1</voice>
                <type>half</type>
            </note>
            <note default-x="83">
                <pitch>
                    <step>E</step>
                    <octave>4</octave>
                </pitch>
                <duration>3</duration>
                <voice>1</voice>
                <type>quarter</type>
                <dot/>
                <stem default-y="-4">up</stem>
            </note>
            <note default-x="141">
                <pitch>
                    <step>D</step>
                    <octave>4</octave>
                </pitch>
                <duration>1</duration>
                <voice>1</voice>
                <type>eighth</type>
                <stem default-y="-9">up</stem>
            </note>
        </measure>
        <measure width="126" number="36">
            <harmony default-y="40">
                <root>
                    <root-step>D</root-step>
                </root>
                <kind text="">major</kind>
            </harmony>
            <note default-x="10">
                <pitch>
                    <step>D</step>
                    <octave>4</octave>
                </pitch>
                <duration>8</duration>
                <voice>1</voice>
                <type>whole</type>
            </note>
            <barline location="right">
                <bar-style>light-heavy</bar-style>
            </barline>
        </measure>
    </part>
</score-partwise>
