<?xml version="1.0" encoding="UTF-8"?>
<!DOCTYPE score-partwise PUBLIC "-//Recordare//DTD MusicXML 2.0 Partwise//EN" "http://www.musicxml.org/dtds/partwise.dtd">
<score-partwise version="2.0">
    <work>
        <work-number></work-number>
        <work-title></work-title>
    </work>
    <movement-number></movement-number>
    <movement-title>Hajlékomba</movement-title>
    <identification>
        <creator type="composer">Unknown</creator>
        <creator type="poet"></creator>
        <rights>Public Domain</rights>
        <encoding>
            <software>Finale 2008 for Windows</software>
            <software>Dolet Light for Finale 2008</software>
            <encoding-date>2009-05-04</encoding-date>
            <software>ProxyMusic 2.0 c</software>
        </encoding>
        <source>http://wikifonia.org/node/1766/revisions/2249/view</source>
    </identification>
    <defaults>
        <scaling>
            <millimeters>7.2319</millimeters>
            <tenths>40</tenths>
        </scaling>
        <page-layout>
            <page-height>1545</page-height>
            <page-width>1194</page-width>
            <page-margins type="both">
                <left-margin>70</left-margin>
                <right-margin>70</right-margin>
                <top-margin>88</top-margin>
                <bottom-margin>88</bottom-margin>
            </page-margins>
        </page-layout>
        <system-layout>
            <system-margins>
                <left-margin>0</left-margin>
                <right-margin>0</right-margin>
            </system-margins>
            <system-distance>121</system-distance>
            <top-system-distance>70</top-system-distance>
        </system-layout>
        <music-font font-size="20.5" font-family="Maestro"/>
        <word-font font-size="10.25" font-family="Times New Roman"/>
        <lyric-font font-size="10.25" font-family="Times New Roman" name="verse"/>
    </defaults>
    <credit>
        <credit-words font-weight="bold" font-size="24" default-y="1440" default-x="597" justify="center" valign="top"> 
</credit-words>
    </credit>
    <part-list>
        <score-part id="P1">
            <part-name print-object="no">MusicXML Part</part-name>
            <score-instrument id="P1-I1">
                <instrument-name>Grand Piano</instrument-name>
            </score-instrument>
            <midi-instrument id="P1-I1">
                <midi-channel>1</midi-channel>
                <midi-program>1</midi-program>
            </midi-instrument>
        </score-part>
    </part-list>
    <part id="P1">
        <measure width="258" number="1">
            <print>
                <system-layout>
                    <system-margins>
                        <left-margin>70</left-margin>
                        <right-margin>0</right-margin>
                    </system-margins>
                    <top-system-distance>211</top-system-distance>
                </system-layout>
            </print>
            <attributes>
                <divisions>2</divisions>
                <key>
                    <fifths>-1</fifths>
                    <mode>minor</mode>
                </key>
                <time symbol="common">
                    <beats>4</beats>
                    <beat-type>4</beat-type>
                </time>
                <clef>
                    <sign>G</sign>
                    <line>2</line>
                </clef>
            </attributes>
            <sound tempo="120"/>
            <note default-x="106">
                <rest/>
                <duration>2</duration>
                <voice>1</voice>
                <type>quarter</type>
            </note>
            <note default-x="144">
                <pitch>
                    <step>A</step>
                    <octave>3</octave>
                </pitch>
                <duration>2</duration>
                <voice>1</voice>
                <type>quarter</type>
                <stem default-y="-19">up</stem>
                <lyric default-y="-80" number="1">
                    <syllabic>begin</syllabic>
                    <text>Haj</text>
                </lyric>
            </note>
            <note default-x="181">
                <pitch>
                    <step>D</step>
                    <octave>4</octave>
                </pitch>
                <duration>2</duration>
                <voice>1</voice>
                <type>quarter</type>
                <stem default-y="-9">up</stem>
                <lyric default-y="-80" number="1">
                    <syllabic>middle</syllabic>
                    <text>lé</text>
                </lyric>
            </note>
            <note default-x="219">
                <pitch>
                    <step>E</step>
                    <octave>4</octave>
                </pitch>
                <duration>2</duration>
                <voice>1</voice>
                <type>quarter</type>
                <stem default-y="-4">up</stem>
                <lyric default-y="-80" number="1">
                    <syllabic>middle</syllabic>
                    <text>kom</text>
                </lyric>
            </note>
        </measure>
        <measure width="132" number="2">
            <barline location="left">
                <bar-style>heavy-light</bar-style>
                <repeat direction="forward"/>
            </barline>
            <note default-x="31">
                <pitch>
                    <step>F</step>
                    <octave>4</octave>
                </pitch>
                <duration>8</duration>
                <tie type="start"/>
                <voice>1</voice>
                <type>whole</type>
                <notations>
                    <tied type="start"/>
                </notations>
                <lyric justify="left" default-y="-80" number="1">
                    <syllabic>end</syllabic>
                    <text>ba</text>
                    <extend/>
                </lyric>
            </note>
        </measure>
        <measure width="172" number="3">
            <note default-x="10">
                <pitch>
                    <step>F</step>
                    <octave>4</octave>
                </pitch>
                <duration>3</duration>
                <tie type="stop"/>
                <voice>1</voice>
                <type>quarter</type>
                <dot/>
                <stem default-y="1">up</stem>
                <notations>
                    <tied type="stop"/>
                </notations>
            </note>
            <note default-x="61">
                <pitch>
                    <step>F</step>
                    <octave>4</octave>
                </pitch>
                <duration>1</duration>
                <voice>1</voice>
                <type>eighth</type>
                <stem default-y="1">up</stem>
                <lyric default-y="-80" number="1">
                    <syllabic>begin</syllabic>
                    <text>ke</text>
                </lyric>
            </note>
            <note default-x="94">
                <pitch>
                    <step>G</step>
                    <octave>4</octave>
                </pitch>
                <duration>2</duration>
                <voice>1</voice>
                <type>quarter</type>
                <stem default-y="6">up</stem>
                <lyric default-y="-80" number="1">
                    <syllabic>middle</syllabic>
                    <text>köl</text>
                </lyric>
            </note>
            <note default-x="133">
                <pitch>
                    <step>F</step>
                    <octave>4</octave>
                </pitch>
                <duration>2</duration>
                <voice>1</voice>
                <type>quarter</type>
                <stem default-y="1">up</stem>
                <lyric default-y="-80" number="1">
                    <syllabic>middle</syllabic>
                    <text>töz</text>
                </lyric>
            </note>
        </measure>
        <measure width="118" number="4">
            <note default-x="16">
                <pitch>
                    <step>E</step>
                    <octave>4</octave>
                </pitch>
                <duration>8</duration>
                <tie type="start"/>
                <voice>1</voice>
                <type>whole</type>
                <notations>
                    <tied type="start"/>
                </notations>
                <lyric justify="left" default-y="-80" number="1">
                    <syllabic>end</syllabic>
                    <text>tél,</text>
                    <extend/>
                </lyric>
            </note>
        </measure>
        <measure width="165" number="5">
            <note default-x="10">
                <pitch>
                    <step>E</step>
                    <octave>4</octave>
                </pitch>
                <duration>2</duration>
                <tie type="stop"/>
                <voice>1</voice>
                <type>quarter</type>
                <stem default-y="-4">up</stem>
                <notations>
                    <tied type="stop"/>
                </notations>
            </note>
            <note default-x="49">
                <pitch>
                    <step>E</step>
                    <octave>4</octave>
                </pitch>
                <duration>2</duration>
                <voice>1</voice>
                <type>quarter</type>
                <stem default-y="-4">up</stem>
                <lyric default-y="-80" number="1">
                    <syllabic>begin</syllabic>
                    <text>lel</text>
                </lyric>
            </note>
            <note default-x="87">
                <pitch>
                    <step>F</step>
                    <octave>4</octave>
                </pitch>
                <duration>2</duration>
                <voice>1</voice>
                <type>quarter</type>
                <stem default-y="1">up</stem>
                <lyric default-y="-80" number="1">
                    <syllabic>middle</syllabic>
                    <text>kem</text>
                </lyric>
            </note>
            <note default-x="125">
                <pitch>
                    <step>G</step>
                    <octave>4</octave>
                </pitch>
                <duration>2</duration>
                <voice>1</voice>
                <type>quarter</type>
                <stem default-y="6">up</stem>
                <lyric default-y="-80" number="1">
                    <syllabic>end</syllabic>
                    <text>ben</text>
                </lyric>
            </note>
        </measure>
        <measure width="139" number="6">
            <note default-x="13">
                <pitch>
                    <step>A</step>
                    <octave>4</octave>
                </pitch>
                <duration>4</duration>
                <voice>1</voice>
                <type>half</type>
                <stem default-y="11">up</stem>
                <lyric default-y="-80" number="1">
                    <syllabic>begin</syllabic>
                    <text>bé</text>
                </lyric>
            </note>
            <note default-x="75">
                <pitch>
                    <step>E</step>
                    <octave>4</octave>
                </pitch>
                <duration>4</duration>
                <tie type="start"/>
                <voice>1</voice>
                <type>half</type>
                <stem default-y="-4">up</stem>
                <notations>
                    <tied type="start"/>
                </notations>
                <lyric justify="left" default-y="-80" number="1">
                    <syllabic>end</syllabic>
                    <text>kéd</text>
                    <extend/>
                </lyric>
            </note>
        </measure>
        <measure width="205" number="7">
            <print new-system="yes">
                <system-layout>
                    <system-distance>114</system-distance>
                </system-layout>
            </print>
            <note default-x="74">
                <pitch>
                    <step>E</step>
                    <octave>4</octave>
                </pitch>
                <duration>4</duration>
                <tie type="stop"/>
                <voice>1</voice>
                <type>half</type>
                <stem default-y="-4">up</stem>
                <notations>
                    <tied type="stop"/>
                </notations>
            </note>
            <note default-x="131">
                <pitch>
                    <step>F</step>
                    <octave>4</octave>
                </pitch>
                <duration>3</duration>
                <voice>1</voice>
                <type>quarter</type>
                <dot/>
                <stem default-y="1">up</stem>
                <lyric default-y="-80" number="1">
                    <syllabic>begin</syllabic>
                    <text>új</text>
                </lyric>
            </note>
            <note default-x="178">
                <pitch>
                    <step>E</step>
                    <octave>4</octave>
                </pitch>
                <duration>1</duration>
                <voice>1</voice>
                <type>eighth</type>
                <stem default-y="-4">up</stem>
                <lyric default-y="-80" number="1">
                    <syllabic>end</syllabic>
                    <text>ra</text>
                </lyric>
            </note>
        </measure>
        <measure width="107" number="8">
            <note default-x="13">
                <pitch>
                    <step>F</step>
                    <octave>4</octave>
                </pitch>
                <duration>8</duration>
                <tie type="start"/>
                <voice>1</voice>
                <type>whole</type>
                <notations>
                    <tied type="start"/>
                </notations>
                <lyric justify="left" default-y="-80" number="1">
                    <syllabic>single</syllabic>
                    <text>él,</text>
                    <extend/>
                </lyric>
            </note>
        </measure>
        <measure width="153" number="9">
            <note default-x="10">
                <pitch>
                    <step>F</step>
                    <octave>4</octave>
                </pitch>
                <duration>2</duration>
                <tie type="stop"/>
                <voice>1</voice>
                <type>quarter</type>
                <stem default-y="1">up</stem>
                <notations>
                    <tied type="stop"/>
                </notations>
            </note>
            <note default-x="45">
                <pitch>
                    <step>F</step>
                    <octave>4</octave>
                </pitch>
                <duration>2</duration>
                <voice>1</voice>
                <type>quarter</type>
                <stem default-y="1">up</stem>
                <lyric default-y="-80" number="1">
                    <syllabic>begin</syllabic>
                    <text>ál</text>
                </lyric>
            </note>
            <note default-x="81">
                <pitch>
                    <step>G</step>
                    <octave>4</octave>
                </pitch>
                <duration>2</duration>
                <voice>1</voice>
                <type>quarter</type>
                <stem default-y="6">up</stem>
                <lyric default-y="-80" number="1">
                    <syllabic>end</syllabic>
                    <text>dott</text>
                </lyric>
            </note>
            <note default-x="116">
                <pitch>
                    <step>A</step>
                    <octave>4</octave>
                </pitch>
                <duration>2</duration>
                <voice>1</voice>
                <type>quarter</type>
                <stem default-y="11">up</stem>
                <lyric default-y="-80" number="1">
                    <syllabic>begin</syllabic>
                    <text>le</text>
                </lyric>
            </note>
        </measure>
        <measure width="155" number="10">
            <note default-x="24">
                <pitch>
                    <step>B</step>
                    <alter>-1</alter>
                    <octave>4</octave>
                </pitch>
                <duration>4</duration>
                <voice>1</voice>
                <type>half</type>
                <stem default-y="-56">down</stem>
                <lyric default-y="-80" number="1">
                    <syllabic>end</syllabic>
                    <text>gyél,</text>
                </lyric>
            </note>
            <note default-x="81">
                <pitch>
                    <step>B</step>
                    <alter>-1</alter>
                    <octave>4</octave>
                </pitch>
                <duration>3</duration>
                <voice>1</voice>
                <type>quarter</type>
                <dot/>
                <stem default-y="-56">down</stem>
                <lyric default-y="-80" number="1">
                    <syllabic>single</syllabic>
                    <text>jó</text>
                </lyric>
            </note>
            <note default-x="127">
                <pitch>
                    <step>A</step>
                    <octave>4</octave>
                </pitch>
                <duration>1</duration>
                <voice>1</voice>
                <type>eighth</type>
                <stem default-y="11">up</stem>
                <lyric default-y="-80" number="1">
                    <syllabic>begin</syllabic>
                    <text>U</text>
                </lyric>
            </note>
        </measure>
        <measure width="164" number="11">
            <note default-x="22">
                <pitch>
                    <step>G</step>
                    <octave>4</octave>
                </pitch>
                <duration>2</duration>
                <voice>1</voice>
                <type>quarter</type>
                <stem default-y="6">up</stem>
                <lyric default-y="-80" number="1">
                    <syllabic>end</syllabic>
                    <text>ram,</text>
                </lyric>
            </note>
            <note default-x="57">
                <pitch>
                    <step>G</step>
                    <octave>4</octave>
                </pitch>
                <duration>2</duration>
                <voice>1</voice>
                <type>quarter</type>
                <stem default-y="6">up</stem>
                <lyric default-y="-80" number="1">
                    <syllabic>begin</syllabic>
                    <text>ál</text>
                </lyric>
            </note>
            <note default-x="92">
                <pitch>
                    <step>F</step>
                    <octave>4</octave>
                </pitch>
                <duration>2</duration>
                <voice>1</voice>
                <type>quarter</type>
                <stem default-y="1">up</stem>
                <lyric default-y="-80" number="1">
                    <syllabic>end</syllabic>
                    <text>dott</text>
                </lyric>
            </note>
            <note default-x="128">
                <pitch>
                    <step>G</step>
                    <octave>4</octave>
                </pitch>
                <duration>2</duration>
                <voice>1</voice>
                <type>quarter</type>
                <stem default-y="6">up</stem>
                <lyric default-y="-80" number="1">
                    <syllabic>begin</syllabic>
                    <text>le</text>
                </lyric>
            </note>
        </measure>
        <measure width="117" number="12">
            <note default-x="24">
                <pitch>
                    <step>A</step>
                    <octave>4</octave>
                </pitch>
                <duration>8</duration>
                <tie type="start"/>
                <voice>1</voice>
                <type>whole</type>
                <notations>
                    <tied type="start"/>
                </notations>
                <lyric justify="left" default-y="-80" number="1">
                    <syllabic>end</syllabic>
                    <text>gyél,</text>
                    <extend/>
                </lyric>
            </note>
        </measure>
        <measure width="152" number="13">
            <note default-x="10">
                <pitch>
                    <step>A</step>
                    <octave>4</octave>
                </pitch>
                <duration>2</duration>
                <tie type="stop"/>
                <voice>1</voice>
                <type>quarter</type>
                <stem default-y="11">up</stem>
                <notations>
                    <tied type="stop"/>
                </notations>
            </note>
            <note default-x="45">
                <pitch>
                    <step>A</step>
                    <octave>4</octave>
                </pitch>
                <duration>2</duration>
                <voice>1</voice>
                <type>quarter</type>
                <stem default-y="11">up</stem>
                <lyric default-y="-80" number="1">
                    <syllabic>begin</syllabic>
                    <text>áld</text>
                </lyric>
            </note>
            <note default-x="81">
                <pitch>
                    <step>G</step>
                    <octave>4</octave>
                </pitch>
                <duration>2</duration>
                <voice>1</voice>
                <type>quarter</type>
                <stem default-y="6">up</stem>
                <lyric default-y="-80" number="1">
                    <syllabic>end</syllabic>
                    <text>jon</text>
                </lyric>
            </note>
            <note default-x="116">
                <pitch>
                    <step>F</step>
                    <octave>4</octave>
                </pitch>
                <duration>2</duration>
                <voice>1</voice>
                <type>quarter</type>
                <stem default-y="1">up</stem>
                <lyric default-y="-80" number="1">
                    <syllabic>single</syllabic>
                    <text>a</text>
                </lyric>
            </note>
        </measure>
        <measure width="290" number="14">
            <print new-system="yes">
                <system-layout>
                    <system-distance>114</system-distance>
                </system-layout>
            </print>
            <note default-x="77">
                <pitch>
                    <step>G</step>
                    <octave>4</octave>
                </pitch>
                <duration>4</duration>
                <voice>1</voice>
                <type>half</type>
                <stem default-y="6">up</stem>
                <lyric default-y="-80" number="1">
                    <syllabic>begin</syllabic>
                    <text>lel</text>
                </lyric>
            </note>
            <note default-x="183">
                <pitch>
                    <step>G</step>
                    <octave>4</octave>
                </pitch>
                <duration>4</duration>
                <tie type="start"/>
                <voice>1</voice>
                <type>half</type>
                <stem default-y="6">up</stem>
                <notations>
                    <tied type="start"/>
                </notations>
                <lyric justify="left" default-y="-80" number="1">
                    <syllabic>end</syllabic>
                    <text>kem</text>
                    <extend/>
                </lyric>
            </note>
        </measure>
        <measure width="285" number="15">
            <note default-x="10">
                <pitch>
                    <step>G</step>
                    <octave>4</octave>
                </pitch>
                <duration>2</duration>
                <tie type="stop"/>
                <voice>1</voice>
                <type>quarter</type>
                <stem default-y="6">up</stem>
                <notations>
                    <tied type="stop"/>
                </notations>
            </note>
            <note default-x="80">
                <pitch>
                    <step>G</step>
                    <octave>4</octave>
                </pitch>
                <duration>2</duration>
                <voice>1</voice>
                <type>quarter</type>
                <stem default-y="6">up</stem>
                <lyric default-y="-80" number="1">
                    <syllabic>begin</syllabic>
                    <text>mind</text>
                </lyric>
            </note>
            <note default-x="149">
                <pitch>
                    <step>F</step>
                    <octave>4</octave>
                </pitch>
                <duration>1</duration>
                <voice>1</voice>
                <type>eighth</type>
                <stem default-y="1">up</stem>
                <lyric default-y="-80" number="1">
                    <syllabic>middle</syllabic>
                    <text>ö</text>
                </lyric>
            </note>
            <note default-x="192">
                <pitch>
                    <step>E</step>
                    <octave>4</octave>
                </pitch>
                <duration>3</duration>
                <voice>1</voice>
                <type>quarter</type>
                <dot/>
                <stem default-y="-4">up</stem>
                <lyric default-y="-80" number="1">
                    <syllabic>middle</syllabic>
                    <text>rök</text>
                </lyric>
            </note>
        </measure>
        <measure width="193" number="16">
            <note default-x="16">
                <pitch>
                    <step>D</step>
                    <octave>4</octave>
                </pitch>
                <duration>8</duration>
                <tie type="start"/>
                <voice>1</voice>
                <type>whole</type>
                <notations>
                    <tied type="start"/>
                </notations>
                <lyric justify="left" default-y="-80" number="1">
                    <syllabic>end</syllabic>
                    <text>ké!</text>
                    <extend/>
                </lyric>
            </note>
        </measure>
        <measure width="285" number="17">
            <note default-x="10">
                <pitch>
                    <step>D</step>
                    <octave>4</octave>
                </pitch>
                <duration>2</duration>
                <tie type="stop"/>
                <voice>1</voice>
                <type>quarter</type>
                <stem default-y="-9">up</stem>
                <notations>
                    <tied type="stop"/>
                </notations>
            </note>
            <note default-x="74">
                <pitch>
                    <step>A</step>
                    <octave>3</octave>
                </pitch>
                <duration>2</duration>
                <voice>1</voice>
                <type>quarter</type>
                <stem default-y="-19">up</stem>
                <lyric default-y="-80" number="1">
                    <syllabic>begin</syllabic>
                    <text>Haj</text>
                </lyric>
            </note>
            <note default-x="138">
                <pitch>
                    <step>D</step>
                    <octave>4</octave>
                </pitch>
                <duration>2</duration>
                <voice>1</voice>
                <type>quarter</type>
                <stem default-y="-9">up</stem>
                <lyric default-y="-80" number="1">
                    <syllabic>middle</syllabic>
                    <text>lé</text>
                </lyric>
            </note>
            <note default-x="202">
                <pitch>
                    <step>E</step>
                    <octave>4</octave>
                </pitch>
                <duration>2</duration>
                <voice>1</voice>
                <type>quarter</type>
                <stem default-y="-4">up</stem>
                <lyric default-y="-80" number="1">
                    <syllabic>middle</syllabic>
                    <text>kom</text>
                </lyric>
            </note>
            <barline location="right">
                <bar-style>light-heavy</bar-style>
                <repeat direction="backward"/>
            </barline>
        </measure>
        <measure width="222" number="18">
            <print new-system="yes">
                <system-layout>
                    <system-distance>114</system-distance>
                </system-layout>
            </print>
            <direction>
                <direction-type>
                    <words font-size="12" default-y="28" default-x="55" valign="top">Felsõ szólam</words>
                </direction-type>
            </direction>
            <note default-x="74">
                <rest/>
                <duration>2</duration>
                <voice>1</voice>
                <type>quarter</type>
            </note>
            <note default-x="111">
                <pitch>
                    <step>A</step>
                    <octave>3</octave>
                </pitch>
                <duration>2</duration>
                <voice>1</voice>
                <type>quarter</type>
                <stem default-y="-19">up</stem>
            </note>
            <note default-x="147">
                <pitch>
                    <step>D</step>
                    <octave>4</octave>
                </pitch>
                <duration>2</duration>
                <voice>1</voice>
                <type>quarter</type>
                <stem default-y="-9">up</stem>
            </note>
            <note default-x="183">
                <pitch>
                    <step>E</step>
                    <octave>4</octave>
                </pitch>
                <duration>2</duration>
                <voice>1</voice>
                <type>quarter</type>
                <stem default-y="-4">up</stem>
            </note>
        </measure>
        <measure width="125" number="19">
            <barline location="left">
                <bar-style>heavy-light</bar-style>
                <repeat direction="forward"/>
            </barline>
            <note default-x="28">
                <pitch>
                    <step>F</step>
                    <octave>4</octave>
                </pitch>
                <duration>8</duration>
                <tie type="start"/>
                <voice>1</voice>
                <type>whole</type>
                <notations>
                    <tied type="start"/>
                </notations>
            </note>
        </measure>
        <measure width="162" number="20">
            <note default-x="10">
                <pitch>
                    <step>F</step>
                    <octave>4</octave>
                </pitch>
                <duration>3</duration>
                <tie type="stop"/>
                <voice>1</voice>
                <type>quarter</type>
                <dot/>
                <stem default-y="1">up</stem>
                <notations>
                    <tied type="stop"/>
                </notations>
            </note>
            <note default-x="59">
                <pitch>
                    <step>A</step>
                    <octave>4</octave>
                </pitch>
                <duration>1</duration>
                <voice>1</voice>
                <type>eighth</type>
                <stem default-y="11">up</stem>
            </note>
            <note default-x="87">
                <pitch>
                    <step>B</step>
                    <alter>-1</alter>
                    <octave>4</octave>
                </pitch>
                <duration>2</duration>
                <voice>1</voice>
                <type>quarter</type>
                <stem default-y="-55.5">down</stem>
            </note>
            <note default-x="123">
                <pitch>
                    <step>A</step>
                    <octave>4</octave>
                </pitch>
                <duration>2</duration>
                <voice>1</voice>
                <type>quarter</type>
                <stem default-y="11">up</stem>
            </note>
        </measure>
        <measure width="108" number="21">
            <note default-x="10">
                <pitch>
                    <step>G</step>
                    <octave>4</octave>
                </pitch>
                <duration>8</duration>
                <tie type="start"/>
                <voice>1</voice>
                <type>whole</type>
                <notations>
                    <tied type="start"/>
                </notations>
            </note>
        </measure>
        <measure width="158" number="22">
            <note default-x="10">
                <pitch>
                    <step>G</step>
                    <octave>4</octave>
                </pitch>
                <duration>2</duration>
                <tie type="stop"/>
                <voice>1</voice>
                <type>quarter</type>
                <stem default-y="6">up</stem>
                <notations>
                    <tied type="stop"/>
                </notations>
            </note>
            <note default-x="47">
                <pitch>
                    <step>G</step>
                    <octave>4</octave>
                </pitch>
                <duration>2</duration>
                <voice>1</voice>
                <type>quarter</type>
                <stem default-y="6">up</stem>
            </note>
            <note default-x="84">
                <pitch>
                    <step>A</step>
                    <octave>4</octave>
                </pitch>
                <duration>2</duration>
                <voice>1</voice>
                <type>quarter</type>
                <stem default-y="11">up</stem>
            </note>
            <note default-x="120">
                <pitch>
                    <step>B</step>
                    <alter>-1</alter>
                    <octave>4</octave>
                </pitch>
                <duration>2</duration>
                <voice>1</voice>
                <type>quarter</type>
                <stem default-y="-55.5">down</stem>
            </note>
        </measure>
        <measure width="131" number="23">
            <note default-x="11">
                <pitch>
                    <step>C</step>
                    <octave>5</octave>
                </pitch>
                <duration>4</duration>
                <voice>1</voice>
                <type>half</type>
                <stem default-y="-50.5">down</stem>
            </note>
            <note default-x="70">
                <pitch>
                    <step>G</step>
                    <octave>4</octave>
                </pitch>
                <duration>4</duration>
                <tie type="start"/>
                <voice>1</voice>
                <type>half</type>
                <stem default-y="6">up</stem>
                <notations>
                    <tied type="start"/>
                </notations>
            </note>
        </measure>
        <measure width="149" number="24">
            <note default-x="10">
                <pitch>
                    <step>G</step>
                    <octave>4</octave>
                </pitch>
                <duration>4</duration>
                <tie type="stop"/>
                <voice>1</voice>
                <type>half</type>
                <stem default-y="6">up</stem>
                <notations>
                    <tied type="stop"/>
                </notations>
            </note>
            <note default-x="71">
                <pitch>
                    <step>A</step>
                    <octave>4</octave>
                </pitch>
                <duration>3</duration>
                <voice>1</voice>
                <type>quarter</type>
                <dot/>
                <stem default-y="11">up</stem>
            </note>
            <note default-x="121">
                <pitch>
                    <step>G</step>
                    <octave>4</octave>
                </pitch>
                <duration>1</duration>
                <voice>1</voice>
                <type>eighth</type>
                <stem default-y="6">up</stem>
            </note>
        </measure>
        <measure width="174" number="25">
            <print new-system="yes">
                <system-layout>
                    <system-distance>114</system-distance>
                </system-layout>
            </print>
            <note default-x="74">
                <pitch>
                    <step>A</step>
                    <octave>4</octave>
                </pitch>
                <duration>8</duration>
                <tie type="start"/>
                <voice>1</voice>
                <type>whole</type>
                <notations>
                    <tied type="start"/>
                </notations>
            </note>
        </measure>
        <measure width="163" number="26">
            <note default-x="10">
                <pitch>
                    <step>A</step>
                    <octave>4</octave>
                </pitch>
                <duration>2</duration>
                <tie type="stop"/>
                <voice>1</voice>
                <type>quarter</type>
                <stem default-y="11">up</stem>
                <notations>
                    <tied type="stop"/>
                </notations>
            </note>
            <note default-x="48">
                <pitch>
                    <step>A</step>
                    <octave>4</octave>
                </pitch>
                <duration>2</duration>
                <voice>1</voice>
                <type>quarter</type>
                <stem default-y="11">up</stem>
            </note>
            <note default-x="86">
                <pitch>
                    <step>B</step>
                    <alter>-1</alter>
                    <octave>4</octave>
                </pitch>
                <duration>2</duration>
                <voice>1</voice>
                <type>quarter</type>
                <stem default-y="-55.5">down</stem>
            </note>
            <note default-x="123">
                <pitch>
                    <step>C</step>
                    <octave>5</octave>
                </pitch>
                <duration>2</duration>
                <voice>1</voice>
                <type>quarter</type>
                <stem default-y="-50.5">down</stem>
            </note>
        </measure>
        <measure width="147" number="27">
            <note default-x="11">
                <pitch>
                    <step>D</step>
                    <octave>5</octave>
                </pitch>
                <duration>4</duration>
                <voice>1</voice>
                <type>half</type>
                <stem default-y="-46">down</stem>
            </note>
            <note default-x="72">
                <pitch>
                    <step>D</step>
                    <octave>5</octave>
                </pitch>
                <duration>3</duration>
                <voice>1</voice>
                <type>quarter</type>
                <dot/>
                <stem default-y="-46">down</stem>
            </note>
            <note default-x="122">
                <pitch>
                    <step>C</step>
                    <octave>5</octave>
                </pitch>
                <duration>1</duration>
                <voice>1</voice>
                <type>eighth</type>
                <stem default-y="-50.5">down</stem>
            </note>
        </measure>
        <measure width="163" number="28">
            <note default-x="11">
                <pitch>
                    <step>B</step>
                    <alter>-1</alter>
                    <octave>4</octave>
                </pitch>
                <duration>2</duration>
                <voice>1</voice>
                <type>quarter</type>
                <stem default-y="-55.5">down</stem>
            </note>
            <note default-x="49">
                <pitch>
                    <step>B</step>
                    <alter>-1</alter>
                    <octave>4</octave>
                </pitch>
                <duration>2</duration>
                <voice>1</voice>
                <type>quarter</type>
                <stem default-y="-55.5">down</stem>
            </note>
            <note default-x="86">
                <pitch>
                    <step>A</step>
                    <octave>4</octave>
                </pitch>
                <duration>2</duration>
                <voice>1</voice>
                <type>quarter</type>
                <stem default-y="11">up</stem>
            </note>
            <note default-x="124">
                <pitch>
                    <step>G</step>
                    <octave>4</octave>
                </pitch>
                <duration>2</duration>
                <voice>1</voice>
                <type>quarter</type>
                <stem default-y="6">up</stem>
            </note>
        </measure>
        <measure width="110" number="29">
            <note default-x="10">
                <pitch>
                    <step>A</step>
                    <octave>4</octave>
                </pitch>
                <duration>8</duration>
                <tie type="start"/>
                <voice>1</voice>
                <type>whole</type>
                <notations>
                    <tied type="start"/>
                </notations>
            </note>
        </measure>
        <measure width="162" number="30">
            <note default-x="10">
                <pitch>
                    <step>A</step>
                    <octave>4</octave>
                </pitch>
                <duration>2</duration>
                <tie type="stop"/>
                <voice>1</voice>
                <type>quarter</type>
                <stem default-y="11">up</stem>
                <notations>
                    <tied type="stop"/>
                </notations>
            </note>
            <note default-x="48">
                <pitch>
                    <step>A</step>
                    <octave>4</octave>
                </pitch>
                <duration>2</duration>
                <voice>1</voice>
                <type>quarter</type>
                <stem default-y="11">up</stem>
            </note>
            <note default-x="86">
                <pitch>
                    <step>G</step>
                    <octave>4</octave>
                </pitch>
                <duration>2</duration>
                <voice>1</voice>
                <type>quarter</type>
                <stem default-y="6">up</stem>
            </note>
            <note default-x="123">
                <pitch>
                    <step>F</step>
                    <octave>4</octave>
                </pitch>
                <duration>2</duration>
                <voice>1</voice>
                <type>quarter</type>
                <stem default-y="1">up</stem>
            </note>
        </measure>
        <measure width="134" number="31">
            <note default-x="10">
                <pitch>
                    <step>G</step>
                    <octave>4</octave>
                </pitch>
                <duration>4</duration>
                <voice>1</voice>
                <type>half</type>
                <stem default-y="6">up</stem>
            </note>
            <note default-x="72">
                <pitch>
                    <step>G</step>
                    <octave>4</octave>
                </pitch>
                <duration>4</duration>
                <tie type="start"/>
                <voice>1</voice>
                <type>half</type>
                <stem default-y="6">up</stem>
                <notations>
                    <tied type="start"/>
                </notations>
            </note>
        </measure>
        <measure width="431" number="32">
            <print new-system="yes">
                <system-layout>
                    <system-distance>114</system-distance>
                </system-layout>
            </print>
            <note default-x="74">
                <pitch>
                    <step>G</step>
                    <octave>4</octave>
                </pitch>
                <duration>2</duration>
                <tie type="stop"/>
                <voice>1</voice>
                <type>quarter</type>
                <stem default-y="6">up</stem>
                <notations>
                    <tied type="stop"/>
                </notations>
            </note>
            <note default-x="164">
                <pitch>
                    <step>G</step>
                    <octave>4</octave>
                </pitch>
                <duration>2</duration>
                <voice>1</voice>
                <type>quarter</type>
                <stem default-y="6">up</stem>
            </note>
            <note default-x="254">
                <pitch>
                    <step>F</step>
                    <octave>4</octave>
                </pitch>
                <duration>1</duration>
                <voice>1</voice>
                <type>eighth</type>
                <stem default-y="1">up</stem>
            </note>
            <note default-x="310">
                <pitch>
                    <step>E</step>
                    <octave>4</octave>
                </pitch>
                <duration>3</duration>
                <voice>1</voice>
                <type>quarter</type>
                <dot/>
                <stem default-y="-4">up</stem>
            </note>
        </measure>
        <measure width="245" number="33">
            <note default-x="10">
                <pitch>
                    <step>D</step>
                    <octave>4</octave>
                </pitch>
                <duration>8</duration>
                <tie type="start"/>
                <voice>1</voice>
                <type>whole</type>
                <notations>
                    <tied type="start"/>
                </notations>
            </note>
        </measure>
        <measure width="378" number="34">
            <note default-x="10">
                <pitch>
                    <step>D</step>
                    <octave>4</octave>
                </pitch>
                <duration>2</duration>
                <tie type="stop"/>
                <voice>1</voice>
                <type>quarter</type>
                <stem default-y="-9">up</stem>
                <notations>
                    <tied type="stop"/>
                </notations>
            </note>
            <note default-x="97">
                <pitch>
                    <step>A</step>
                    <octave>3</octave>
                </pitch>
                <duration>2</duration>
                <voice>1</voice>
                <type>quarter</type>
                <stem default-y="-19">up</stem>
            </note>
            <note default-x="185">
                <pitch>
                    <step>D</step>
                    <octave>4</octave>
                </pitch>
                <duration>2</duration>
                <voice>1</voice>
                <type>quarter</type>
                <stem default-y="-9">up</stem>
            </note>
            <note default-x="271">
                <pitch>
                    <step>E</step>
                    <octave>4</octave>
                </pitch>
                <duration>2</duration>
                <voice>1</voice>
                <type>quarter</type>
                <stem default-y="-4">up</stem>
            </note>
            <barline location="right">
                <bar-style>light-heavy</bar-style>
                <repeat direction="backward"/>
            </barline>
        </measure>
    </part>
</score-partwise>
