<?xml version="1.0" encoding="UTF-8"?>
<!DOCTYPE score-partwise PUBLIC "-//Recordare//DTD MusicXML 2.0 Partwise//EN" "http://www.musicxml.org/dtds/partwise.dtd">
<score-partwise version="2.0">
    <work>
        <work-number></work-number>
        <work-title></work-title>
    </work>
    <movement-number></movement-number>
    <movement-title>Akkor szép az erdő</movement-title>
    <identification>
        <creator type="composer">Hungarian folk song</creator>
        <creator type="poet"></creator>
        <rights>Public Domain</rights>
        <encoding>
            <software>Finale 2008 for Windows</software>
            <software>Dolet Light for Finale 2008</software>
            <encoding-date>2009-06-21</encoding-date>
            <software>ProxyMusic 2.0 c</software>
        </encoding>
        <source>http://wikifonia.org/node/2007/revisions/2581/view</source>
    </identification>
    <defaults>
        <scaling>
            <millimeters>7.2319</millimeters>
            <tenths>40</tenths>
        </scaling>
        <page-layout>
            <page-height>1545</page-height>
            <page-width>1194</page-width>
            <page-margins type="both">
                <left-margin>70</left-margin>
                <right-margin>70</right-margin>
                <top-margin>88</top-margin>
                <bottom-margin>88</bottom-margin>
            </page-margins>
        </page-layout>
        <system-layout>
            <system-margins>
                <left-margin>0</left-margin>
                <right-margin>0</right-margin>
            </system-margins>
            <system-distance>121</system-distance>
            <top-system-distance>70</top-system-distance>
        </system-layout>
        <music-font font-size="20.5" font-family="Maestro"/>
        <word-font font-size="10.25" font-family="Times New Roman"/>
        <lyric-font font-size="10.25" font-family="Times New Roman" name="verse"/>
    </defaults>
    <credit>
        <credit-words font-weight="bold" font-size="24" default-y="1440" default-x="597" justify="center" valign="top"> 
</credit-words>
    </credit>
    <part-list>
        <score-part id="P1">
            <part-name print-object="no">MusicXML Part</part-name>
            <score-instrument id="P1-I1">
                <instrument-name>Grand Piano</instrument-name>
            </score-instrument>
            <midi-instrument id="P1-I1">
                <midi-channel>1</midi-channel>
                <midi-program>1</midi-program>
            </midi-instrument>
        </score-part>
    </part-list>
    <part id="P1">
        <measure width="268" number="1">
            <print>
                <system-layout>
                    <system-margins>
                        <left-margin>70</left-margin>
                        <right-margin>0</right-margin>
                    </system-margins>
                    <top-system-distance>211</top-system-distance>
                </system-layout>
            </print>
            <attributes>
                <divisions>2</divisions>
                <key>
                    <fifths>0</fifths>
                    <mode>major</mode>
                </key>
                <time>
                    <beats>2</beats>
                    <beat-type>4</beat-type>
                </time>
                <clef>
                    <sign>G</sign>
                    <line>2</line>
                </clef>
            </attributes>
            <sound tempo="120"/>
            <harmony default-y="40">
                <root>
                    <root-step>A</root-step>
                </root>
                <kind text="m">minor</kind>
            </harmony>
            <note default-x="85">
                <pitch>
                    <step>E</step>
                    <octave>4</octave>
                </pitch>
                <duration>1</duration>
                <voice>1</voice>
                <type>eighth</type>
                <stem default-y="-5">up</stem>
                <beam number="1">begin</beam>
                <lyric default-y="-80" number="1">
                    <syllabic>begin</syllabic>
                    <text>Ak</text>
                </lyric>
            </note>
            <note default-x="131">
                <pitch>
                    <step>E</step>
                    <octave>4</octave>
                </pitch>
                <duration>1</duration>
                <voice>1</voice>
                <type>eighth</type>
                <stem default-y="-5">up</stem>
                <beam number="1">end</beam>
                <lyric default-y="-80" number="1">
                    <syllabic>end</syllabic>
                    <text>kor</text>
                </lyric>
            </note>
            <note default-x="176">
                <pitch>
                    <step>E</step>
                    <octave>4</octave>
                </pitch>
                <duration>1</duration>
                <voice>1</voice>
                <type>eighth</type>
                <stem default-y="-5">up</stem>
                <beam number="1">begin</beam>
                <lyric default-y="-80" number="1">
                    <syllabic>single</syllabic>
                    <text>szép</text>
                </lyric>
            </note>
            <note default-x="221">
                <pitch>
                    <step>E</step>
                    <octave>4</octave>
                </pitch>
                <duration>1</duration>
                <voice>1</voice>
                <type>eighth</type>
                <stem default-y="-5">up</stem>
                <beam number="1">end</beam>
                <lyric default-y="-80" number="1">
                    <syllabic>single</syllabic>
                    <text>az</text>
                </lyric>
            </note>
        </measure>
        <measure width="109" number="2">
            <note default-x="12">
                <pitch>
                    <step>E</step>
                    <octave>4</octave>
                </pitch>
                <duration>2</duration>
                <voice>1</voice>
                <type>quarter</type>
                <stem default-y="-4">up</stem>
                <lyric default-y="-80" number="1">
                    <syllabic>begin</syllabic>
                    <text>er</text>
                </lyric>
            </note>
            <note default-x="60">
                <pitch>
                    <step>A</step>
                    <octave>4</octave>
                </pitch>
                <duration>2</duration>
                <voice>1</voice>
                <type>quarter</type>
                <stem default-y="11">up</stem>
                <lyric default-y="-80" number="1">
                    <syllabic>end</syllabic>
                    <text>dõ,</text>
                </lyric>
            </note>
        </measure>
        <measure width="163" number="3">
            <harmony default-y="40">
                <root>
                    <root-step>G</root-step>
                </root>
                <kind text="">major</kind>
            </harmony>
            <note default-x="15">
                <pitch>
                    <step>G</step>
                    <octave>4</octave>
                </pitch>
                <duration>1</duration>
                <voice>1</voice>
                <type>eighth</type>
                <stem default-y="5">up</stem>
                <beam number="1">begin</beam>
                <lyric default-y="-80" number="1">
                    <syllabic>begin</syllabic>
                    <text>mi</text>
                </lyric>
            </note>
            <note default-x="55">
                <pitch>
                    <step>E</step>
                    <octave>4</octave>
                </pitch>
                <duration>1</duration>
                <voice>1</voice>
                <type>eighth</type>
                <stem default-y="3">up</stem>
                <beam number="1">end</beam>
                <lyric default-y="-80" number="1">
                    <syllabic>end</syllabic>
                    <text>kor</text>
                </lyric>
            </note>
            <note default-x="98">
                <pitch>
                    <step>D</step>
                    <octave>4</octave>
                </pitch>
                <duration>2</duration>
                <voice>1</voice>
                <type>quarter</type>
                <stem default-y="-9">up</stem>
                <lyric default-y="-80" number="1">
                    <syllabic>single</syllabic>
                    <text>zöld,</text>
                </lyric>
            </note>
        </measure>
        <measure width="170" number="4">
            <note default-x="15">
                <pitch>
                    <step>D</step>
                    <octave>4</octave>
                </pitch>
                <duration>1</duration>
                <voice>1</voice>
                <type>eighth</type>
                <stem default-y="-10">up</stem>
                <beam number="1">begin</beam>
                <lyric default-y="-80" number="1">
                    <syllabic>begin</syllabic>
                    <text>mi</text>
                </lyric>
            </note>
            <note default-x="53">
                <pitch>
                    <step>D</step>
                    <octave>4</octave>
                </pitch>
                <duration>1</duration>
                <voice>1</voice>
                <type>eighth</type>
                <stem default-y="-10">up</stem>
                <beam number="1">end</beam>
                <lyric default-y="-80" number="1">
                    <syllabic>end</syllabic>
                    <text>kor</text>
                </lyric>
            </note>
            <note default-x="92">
                <pitch>
                    <step>D</step>
                    <octave>4</octave>
                </pitch>
                <duration>1</duration>
                <voice>1</voice>
                <type>eighth</type>
                <stem default-y="-10">up</stem>
                <beam number="1">begin</beam>
                <lyric default-y="-80" number="1">
                    <syllabic>single</syllabic>
                    <text>a</text>
                </lyric>
            </note>
            <note default-x="130">
                <pitch>
                    <step>D</step>
                    <octave>4</octave>
                </pitch>
                <duration>1</duration>
                <voice>1</voice>
                <type>eighth</type>
                <stem default-y="-10">up</stem>
                <beam number="1">end</beam>
                <lyric default-y="-80" number="1">
                    <syllabic>begin</syllabic>
                    <text>vad</text>
                </lyric>
            </note>
        </measure>
        <measure width="113" number="5">
            <note default-x="12">
                <pitch>
                    <step>D</step>
                    <octave>4</octave>
                </pitch>
                <duration>2</duration>
                <voice>1</voice>
                <type>quarter</type>
                <stem default-y="-9">up</stem>
                <lyric default-y="-80" number="1">
                    <syllabic>middle</syllabic>
                    <text>ga</text>
                </lyric>
            </note>
            <note default-x="62">
                <pitch>
                    <step>F</step>
                    <octave>4</octave>
                </pitch>
                <duration>2</duration>
                <voice>1</voice>
                <type>quarter</type>
                <stem default-y="1">up</stem>
                <lyric default-y="-80" number="1">
                    <syllabic>end</syllabic>
                    <text>lamb</text>
                </lyric>
            </note>
        </measure>
        <measure width="159" number="6">
            <harmony default-y="40">
                <root>
                    <root-step>C</root-step>
                </root>
                <kind text="">major</kind>
            </harmony>
            <note default-x="18">
                <pitch>
                    <step>E</step>
                    <octave>4</octave>
                </pitch>
                <duration>1</duration>
                <voice>1</voice>
                <type>eighth</type>
                <stem default-y="-5">up</stem>
                <beam number="1">begin</beam>
                <lyric default-y="-80" number="1">
                    <syllabic>begin</syllabic>
                    <text>ben</text>
                </lyric>
            </note>
            <note default-x="57">
                <pitch>
                    <step>D</step>
                    <octave>4</octave>
                </pitch>
                <duration>1</duration>
                <voice>1</voice>
                <type>eighth</type>
                <stem default-y="-7.5">up</stem>
                <beam number="1">end</beam>
                <lyric default-y="-80" number="1">
                    <syllabic>end</syllabic>
                    <text>ne</text>
                </lyric>
            </note>
            <note default-x="95">
                <pitch>
                    <step>C</step>
                    <octave>4</octave>
                </pitch>
                <duration>2</duration>
                <voice>1</voice>
                <type>quarter</type>
                <stem default-y="-14">up</stem>
                <lyric default-y="-80" number="1">
                    <syllabic>single</syllabic>
                    <text>költ,</text>
                </lyric>
            </note>
        </measure>
        <measure width="270" number="7">
            <print new-system="yes">
                <system-layout>
                    <system-distance>114</system-distance>
                </system-layout>
            </print>
            <barline location="left">
                <bar-style>heavy-light</bar-style>
                <repeat direction="forward"/>
            </barline>
            <harmony default-y="40">
                <root>
                    <root-step>A</root-step>
                </root>
                <kind text="m">minor</kind>
            </harmony>
            <note default-x="78">
                <pitch>
                    <step>A</step>
                    <octave>3</octave>
                </pitch>
                <duration>1</duration>
                <voice>1</voice>
                <type>eighth</type>
                <stem default-y="-20">up</stem>
                <beam number="1">begin</beam>
                <lyric default-y="-80" number="1">
                    <syllabic>begin</syllabic>
                    <text>o</text>
                </lyric>
            </note>
            <note default-x="125">
                <pitch>
                    <step>A</step>
                    <octave>3</octave>
                </pitch>
                <duration>1</duration>
                <voice>1</voice>
                <type>eighth</type>
                <stem default-y="-20">up</stem>
                <beam number="1">end</beam>
                <lyric default-y="-80" number="1">
                    <syllabic>end</syllabic>
                    <text>lyan</text>
                </lyric>
            </note>
            <note default-x="173">
                <pitch>
                    <step>A</step>
                    <octave>3</octave>
                </pitch>
                <duration>1</duration>
                <voice>1</voice>
                <type>eighth</type>
                <stem default-y="-20">up</stem>
                <beam number="1">begin</beam>
                <lyric default-y="-80" number="1">
                    <syllabic>single</syllabic>
                    <text>a</text>
                </lyric>
            </note>
            <note default-x="221">
                <pitch>
                    <step>A</step>
                    <octave>3</octave>
                </pitch>
                <duration>1</duration>
                <voice>1</voice>
                <type>eighth</type>
                <stem default-y="-20">up</stem>
                <beam number="1">end</beam>
                <lyric default-y="-80" number="1">
                    <syllabic>begin</syllabic>
                    <text>vad</text>
                </lyric>
            </note>
        </measure>
        <measure width="135" number="8">
            <note default-x="13">
                <pitch>
                    <step>A</step>
                    <octave>3</octave>
                </pitch>
                <duration>2</duration>
                <voice>1</voice>
                <type>quarter</type>
                <stem default-y="-19">up</stem>
                <lyric default-y="-80" number="1">
                    <syllabic>middle</syllabic>
                    <text>ga</text>
                </lyric>
            </note>
            <note default-x="73">
                <pitch>
                    <step>G</step>
                    <octave>3</octave>
                </pitch>
                <duration>2</duration>
                <voice>1</voice>
                <type>quarter</type>
                <stem default-y="-19">up</stem>
                <lyric default-y="-80" number="1">
                    <syllabic>end</syllabic>
                    <text>lamb,</text>
                </lyric>
            </note>
        </measure>
        <measure width="190" number="9">
            <harmony default-y="40">
                <root>
                    <root-step>C</root-step>
                </root>
                <kind text="">major</kind>
            </harmony>
            <note default-x="22">
                <pitch>
                    <step>C</step>
                    <octave>4</octave>
                </pitch>
                <duration>1</duration>
                <voice>1</voice>
                <type>eighth</type>
                <stem default-y="-20">up</stem>
                <beam number="1">begin</beam>
                <lyric default-y="-80" number="1">
                    <syllabic>single</syllabic>
                    <text>mint</text>
                </lyric>
            </note>
            <note default-x="69">
                <pitch>
                    <step>D</step>
                    <octave>4</octave>
                </pitch>
                <duration>1</duration>
                <voice>1</voice>
                <type>eighth</type>
                <stem default-y="-17">up</stem>
                <beam number="1">end</beam>
                <lyric default-y="-80" number="1">
                    <syllabic>single</syllabic>
                    <text>a</text>
                </lyric>
            </note>
            <note default-x="114">
                <pitch>
                    <step>E</step>
                    <octave>4</octave>
                </pitch>
                <duration>2</duration>
                <voice>1</voice>
                <type>quarter</type>
                <stem default-y="-4">up</stem>
                <lyric default-y="-80" number="1">
                    <syllabic>single</syllabic>
                    <text>lány,</text>
                </lyric>
            </note>
        </measure>
        <measure width="172" number="10">
            <harmony default-y="40">
                <root>
                    <root-step>G</root-step>
                </root>
                <kind text="">major</kind>
            </harmony>
            <note default-x="14">
                <pitch>
                    <step>E</step>
                    <octave>4</octave>
                </pitch>
                <duration>1</duration>
                <voice>1</voice>
                <type>eighth</type>
                <stem default-y="-5">up</stem>
                <beam number="1">begin</beam>
                <lyric default-y="-80" number="1">
                    <syllabic>begin</syllabic>
                    <text>sír</text>
                </lyric>
            </note>
            <note default-x="53">
                <pitch>
                    <step>E</step>
                    <octave>4</octave>
                </pitch>
                <duration>1</duration>
                <voice>1</voice>
                <type>eighth</type>
                <stem default-y="-5">up</stem>
                <beam number="1">end</beam>
                <lyric default-y="-80" number="1">
                    <syllabic>end</syllabic>
                    <text>va</text>
                </lyric>
            </note>
            <note default-x="92">
                <pitch>
                    <step>D</step>
                    <octave>4</octave>
                </pitch>
                <duration>1</duration>
                <voice>1</voice>
                <type>eighth</type>
                <stem default-y="-10">up</stem>
                <beam number="1">begin</beam>
                <lyric default-y="-80" number="1">
                    <syllabic>begin</syllabic>
                    <text>sé</text>
                </lyric>
            </note>
            <note default-x="131">
                <pitch>
                    <step>D</step>
                    <octave>4</octave>
                </pitch>
                <duration>1</duration>
                <voice>1</voice>
                <type>eighth</type>
                <stem default-y="-10">up</stem>
                <beam number="1">end</beam>
                <lyric default-y="-80" number="1">
                    <syllabic>end</syllabic>
                    <text>tál</text>
                </lyric>
            </note>
        </measure>
        <measure width="120" number="11">
            <note default-x="10">
                <pitch>
                    <step>E</step>
                    <octave>4</octave>
                </pitch>
                <duration>2</duration>
                <voice>1</voice>
                <type>quarter</type>
                <stem default-y="-4">up</stem>
                <lyric default-y="-80" number="1">
                    <syllabic>single</syllabic>
                    <text>a</text>
                </lyric>
            </note>
            <note default-x="65">
                <pitch>
                    <step>C</step>
                    <octave>4</octave>
                </pitch>
                <duration>2</duration>
                <voice>1</voice>
                <type>quarter</type>
                <stem default-y="-14">up</stem>
                <lyric default-y="-80" number="1">
                    <syllabic>begin</syllabic>
                    <text>pár</text>
                </lyric>
            </note>
        </measure>
        <measure width="166" number="12">
            <harmony default-y="40">
                <root>
                    <root-step>A</root-step>
                </root>
                <kind text="m">minor</kind>
            </harmony>
            <note default-x="13">
                <pitch>
                    <step>B</step>
                    <octave>3</octave>
                </pitch>
                <duration>1</duration>
                <voice>1</voice>
                <type>eighth</type>
                <stem default-y="-15">up</stem>
                <beam number="1">begin</beam>
                <lyric default-y="-80" number="1">
                    <syllabic>middle</syllabic>
                    <text>ja</text>
                </lyric>
            </note>
            <note default-x="50">
                <pitch>
                    <step>G</step>
                    <octave>3</octave>
                </pitch>
                <duration>1</duration>
                <voice>1</voice>
                <type>eighth</type>
                <stem default-y="-17">up</stem>
                <beam number="1">end</beam>
                <lyric default-y="-80" number="1">
                    <syllabic>middle</syllabic>
                    <text>u</text>
                </lyric>
            </note>
            <note default-x="87">
                <pitch>
                    <step>A</step>
                    <octave>3</octave>
                </pitch>
                <duration>2</duration>
                <voice>1</voice>
                <type>quarter</type>
                <stem default-y="-19">up</stem>
                <lyric default-y="-80" number="1">
                    <syllabic>end</syllabic>
                    <text>tán.</text>
                </lyric>
            </note>
            <barline location="right">
                <bar-style>light-heavy</bar-style>
                <repeat direction="backward"/>
            </barline>
        </measure>
    </part>
</score-partwise>
