<?xml version="1.0" encoding="UTF-8"?>
<!DOCTYPE score-partwise PUBLIC "-//Recordare//DTD MusicXML 2.0 Partwise//EN" "http://www.musicxml.org/dtds/partwise.dtd">
<score-partwise version="2.0">
    <work>
        <work-number></work-number>
        <work-title></work-title>
    </work>
    <movement-number></movement-number>
    <movement-title>On Broadway</movement-title>
    <identification>
        <creator type="composer">Barry Mann, Cynthia Weil, Jerry Lieber, Mike Stroller</creator>
        <creator type="poet">Barry Mann, Cynthia Weil, Jerry Lieber, Mike Stroller</creator>
        <rights>All Rights Reserved</rights>
        <encoding>
            <software>MuseScore 0.9.5</software>
            <encoding-date>2009-08-17</encoding-date>
            <software>ProxyMusic 2.0 c</software>
        </encoding>
        <source>http://wikifonia.org/node/2374/revisions/5453/view</source>
    </identification>
    <defaults>
        <scaling>
            <millimeters>7.056</millimeters>
            <tenths>40</tenths>
        </scaling>
        <page-layout>
            <page-height>1683.67</page-height>
            <page-width>1190.48</page-width>
            <page-margins type="both">
                <left-margin>56.6893</left-margin>
                <right-margin>56.6893</right-margin>
                <top-margin>56.6893</top-margin>
                <bottom-margin>113.379</bottom-margin>
            </page-margins>
        </page-layout>
    </defaults>
    <credit page="1">
        <credit-words font-size="24" default-y="1626.98" default-x="595.238" justify="center" valign="top">On Broadway</credit-words>
    </credit>
    <credit page="1">
        <credit-words font-size="12" default-y="1556.5" default-x="1133.79" justify="right" valign="top">Barry Mann, Cynthia Weil, Mike Stroller, Jerry Lieber</credit-words>
    </credit>
    <credit page="1">
        <credit-words font-size="12" default-y="1556.5" default-x="56.6893" justify="left" valign="top">Barry Mann, Cynthia Weil, Mike Stroller, Jerry Lieber</credit-words>
    </credit>
    <part-list>
        <score-part id="P1">
            <part-name></part-name>
            <score-instrument id="P1-I3">
                <instrument-name></instrument-name>
            </score-instrument>
            <midi-instrument id="P1-I3">
                <midi-channel>1</midi-channel>
                <midi-program>0</midi-program>
            </midi-instrument>
        </score-part>
    </part-list>
    <part id="P1">
        <measure width="455.81" number="1">
            <print>
                <system-layout>
                    <system-margins>
                        <left-margin>-0.00</left-margin>
                        <right-margin>-0.00</right-margin>
                    </system-margins>
                    <top-system-distance>258.94</top-system-distance>
                </system-layout>
            </print>
            <attributes>
                <divisions>480</divisions>
                <key>
                    <fifths>-5</fifths>
                    <mode>major</mode>
                </key>
                <time>
                    <beats>4</beats>
                    <beat-type>4</beat-type>
                </time>
                <clef>
                    <sign>G</sign>
                    <line>2</line>
                </clef>
            </attributes>
            <note>
                <rest/>
                <duration>240</duration>
                <voice>1</voice>
                <type>eighth</type>
            </note>
            <harmony print-frame="no">
                <root>
                    <root-step>D</root-step>
                    <root-alter>-1</root-alter>
                </root>
                <kind text="">major</kind>
            </harmony>
            <note default-y="-60.00" default-x="174.42">
                <pitch>
                    <step>A</step>
                    <alter>-1</alter>
                    <octave>3</octave>
                </pitch>
                <duration>240</duration>
                <voice>1</voice>
                <type>eighth</type>
                <stem>up</stem>
                <beam number="1">begin</beam>
                <lyric number="1">
                    <syllabic>single</syllabic>
                    <text>They</text>
                </lyric>
                <lyric number="2">
                    <syllabic>single</syllabic>
                    <text>They</text>
                </lyric>
                <lyric number="3">
                    <syllabic>single</syllabic>
                    <text>They</text>
                </lyric>
            </note>
            <note default-y="-35.00" default-x="220.45">
                <pitch>
                    <step>F</step>
                    <octave>4</octave>
                </pitch>
                <duration>240</duration>
                <voice>1</voice>
                <type>eighth</type>
                <stem>up</stem>
                <beam number="1">continue</beam>
                <lyric number="1">
                    <syllabic>single</syllabic>
                    <text>say</text>
                </lyric>
                <lyric number="2">
                    <syllabic>single</syllabic>
                    <text>say</text>
                </lyric>
                <lyric number="3">
                    <syllabic>single</syllabic>
                    <text>say</text>
                </lyric>
            </note>
            <note default-y="-45.00" default-x="266.49">
                <pitch>
                    <step>D</step>
                    <alter>-1</alter>
                    <octave>4</octave>
                </pitch>
                <duration>240</duration>
                <voice>1</voice>
                <type>eighth</type>
                <stem>up</stem>
                <beam number="1">end</beam>
                <lyric number="1">
                    <syllabic>single</syllabic>
                    <text>the</text>
                </lyric>
                <lyric number="2">
                    <syllabic>single</syllabic>
                    <text>the</text>
                </lyric>
                <lyric number="3">
                    <syllabic>single</syllabic>
                    <text>that</text>
                </lyric>
            </note>
            <harmony print-frame="no">
                <root>
                    <root-step>B</root-step>
                </root>
                <kind text="">major</kind>
                <bass>
                    <bass-step>D</bass-step>
                    <bass-alter>-1</bass-alter>
                </bass>
            </harmony>
            <note default-y="-40.00" default-x="312.53">
                <pitch>
                    <step>E</step>
                    <alter>-1</alter>
                    <octave>4</octave>
                </pitch>
                <duration>240</duration>
                <voice>1</voice>
                <type>eighth</type>
                <stem>up</stem>
                <lyric number="1">
                    <syllabic>begin</syllabic>
                    <text>ne</text>
                </lyric>
                <lyric number="2">
                    <syllabic>single</syllabic>
                    <text>girls</text>
                </lyric>
                <lyric number="3">
                    <syllabic>single</syllabic>
                    <text>I</text>
                </lyric>
            </note>
            <note default-y="-25.00" default-x="364.39">
                <pitch>
                    <step>A</step>
                    <alter>-1</alter>
                    <octave>4</octave>
                </pitch>
                <duration>720</duration>
                <voice>1</voice>
                <type>quarter</type>
                <dot/>
                <stem>up</stem>
                <lyric number="1">
                    <syllabic>end</syllabic>
                    <text>on</text>
                </lyric>
                <lyric number="2">
                    <syllabic>single</syllabic>
                    <text>are</text>
                </lyric>
                <lyric number="3">
                    <syllabic>single</syllabic>
                    <text>won't</text>
                </lyric>
            </note>
        </measure>
        <measure width="282.37" number="2">
            <harmony print-frame="no">
                <root>
                    <root-step>D</root-step>
                    <root-alter>-1</root-alter>
                </root>
                <kind text="">major</kind>
            </harmony>
            <note default-y="-35.00" default-x="33.52">
                <pitch>
                    <step>F</step>
                    <octave>4</octave>
                </pitch>
                <duration>480</duration>
                <voice>1</voice>
                <type>quarter</type>
                <stem>up</stem>
                <lyric number="1">
                    <syllabic>single</syllabic>
                    <text>lights</text>
                </lyric>
                <lyric number="2">
                    <syllabic>begin</syllabic>
                    <text>some</text>
                </lyric>
                <lyric number="3">
                    <syllabic>single</syllabic>
                    <text>last</text>
                </lyric>
            </note>
            <note default-y="-45.00" default-x="93.48">
                <pitch>
                    <step>D</step>
                    <alter>-1</alter>
                    <octave>4</octave>
                </pitch>
                <duration>240</duration>
                <voice>1</voice>
                <type>eighth</type>
                <stem>up</stem>
                <lyric number="1">
                    <syllabic>single</syllabic>
                    <text>are</text>
                </lyric>
                <lyric number="2">
                    <syllabic>end</syllabic>
                    <text>thin'</text>
                </lyric>
                <lyric number="3">
                    <syllabic>single</syllabic>
                    <text>too</text>
                </lyric>
            </note>
            <harmony print-frame="no">
                <root>
                    <root-step>B</root-step>
                </root>
                <kind text="">major</kind>
                <bass>
                    <bass-step>D</bass-step>
                    <bass-alter>-1</bass-alter>
                </bass>
            </harmony>
            <note default-y="-50.00" default-x="147.70">
                <pitch>
                    <step>C</step>
                    <octave>4</octave>
                </pitch>
                <duration>720</duration>
                <voice>1</voice>
                <type>quarter</type>
                <dot/>
                <stem>up</stem>
                <lyric number="1">
                    <syllabic>single</syllabic>
                    <text>bright</text>
                </lyric>
                <lyric number="2">
                    <syllabic>single</syllabic>
                    <text>else</text>
                </lyric>
                <lyric number="3">
                    <syllabic>single</syllabic>
                    <text>long</text>
                </lyric>
            </note>
            <note default-y="-40.00" default-x="220.81">
                <pitch>
                    <step>E</step>
                    <alter>-1</alter>
                    <octave>4</octave>
                </pitch>
                <duration>480</duration>
                <voice>1</voice>
                <type>quarter</type>
                <stem>up</stem>
                <lyric number="1">
                    <syllabic>single</syllabic>
                    <text>on</text>
                </lyric>
                <lyric number="2">
                    <syllabic>single</syllabic>
                    <text>on</text>
                </lyric>
                <lyric number="3">
                    <syllabic>single</syllabic>
                    <text>on</text>
                </lyric>
            </note>
        </measure>
        <measure width="217.25" number="3">
            <harmony print-frame="no">
                <root>
                    <root-step>D</root-step>
                    <root-alter>-1</root-alter>
                </root>
                <kind text="">major</kind>
            </harmony>
            <note default-y="-45.00" default-x="36.01">
                <pitch>
                    <step>D</step>
                    <alter>-1</alter>
                    <octave>4</octave>
                </pitch>
                <duration>720</duration>
                <voice>1</voice>
                <type>quarter</type>
                <dot/>
                <stem>up</stem>
                <lyric number="1">
                    <syllabic>end</syllabic>
                    <text>Broad</text>
                </lyric>
                <lyric number="2">
                    <syllabic>end</syllabic>
                    <text>Broad</text>
                </lyric>
                <lyric number="3">
                    <syllabic>begin</syllabic>
                    <text>Broad</text>
                </lyric>
            </note>
            <harmony print-frame="no">
                <root>
                    <root-step>B</root-step>
                </root>
                <kind text="">major</kind>
                <bass>
                    <bass-step>D</bass-step>
                    <bass-alter>-1</bass-alter>
                </bass>
            </harmony>
            <note default-y="-60.00" default-x="104.05">
                <pitch>
                    <step>A</step>
                    <alter>-1</alter>
                    <octave>3</octave>
                </pitch>
                <duration>240</duration>
                <tie type="start"/>
                <voice>1</voice>
                <type>eighth</type>
                <stem>up</stem>
                <notations>
                    <tied type="start"/>
                </notations>
                <lyric number="1">
                    <syllabic>single</syllabic>
                    <text>way</text>
                    <extend/>
                </lyric>
                <lyric number="2">
                    <syllabic>single</syllabic>
                    <text>way,</text>
                    <extend/>
                </lyric>
                <lyric number="3">
                    <syllabic>end</syllabic>
                    <text>way,</text>
                    <extend/>
                </lyric>
            </note>
            <note default-y="-60.00" default-x="138.92">
                <pitch>
                    <step>A</step>
                    <alter>-1</alter>
                    <octave>3</octave>
                </pitch>
                <duration>960</duration>
                <tie type="stop"/>
                <tie type="start"/>
                <voice>1</voice>
                <type>half</type>
                <stem>up</stem>
                <notations>
                    <tied type="stop"/>
                    <tied type="start"/>
                </notations>
            </note>
        </measure>
        <measure width="121.67" number="4">
            <harmony print-frame="no">
                <root>
                    <root-step>D</root-step>
                    <root-alter>-1</root-alter>
                </root>
                <kind text="">major</kind>
            </harmony>
            <harmony print-frame="no">
                <root>
                    <root-step>B</root-step>
                </root>
                <kind text="">major</kind>
                <bass>
                    <bass-step>D</bass-step>
                    <bass-alter>-1</bass-alter>
                </bass>
            </harmony>
            <note default-y="-60.00" default-x="15.00">
                <pitch>
                    <step>A</step>
                    <alter>-1</alter>
                    <octave>3</octave>
                </pitch>
                <duration>1920</duration>
                <tie type="stop"/>
                <voice>1</voice>
                <type>whole</type>
                <notations>
                    <tied type="stop"/>
                </notations>
            </note>
        </measure>
        <measure width="485.33" number="5">
            <print new-system="yes">
                <system-layout>
                    <system-margins>
                        <left-margin>-0.00</left-margin>
                        <right-margin>-0.00</right-margin>
                    </system-margins>
                    <system-distance>236.45</system-distance>
                </system-layout>
            </print>
            <harmony print-frame="no">
                <root>
                    <root-step>D</root-step>
                    <root-alter>-1</root-alter>
                </root>
                <kind text="">major</kind>
            </harmony>
            <note>
                <rest/>
                <duration>240</duration>
                <voice>1</voice>
                <type>eighth</type>
            </note>
            <note default-y="-60.00" default-x="158.42">
                <pitch>
                    <step>A</step>
                    <alter>-1</alter>
                    <octave>3</octave>
                </pitch>
                <duration>240</duration>
                <voice>1</voice>
                <type>eighth</type>
                <stem>up</stem>
                <beam number="1">begin</beam>
                <lyric number="1">
                    <syllabic>single</syllabic>
                    <text>They</text>
                </lyric>
                <lyric number="2">
                    <syllabic>single</syllabic>
                    <text>but</text>
                </lyric>
                <lyric number="3">
                    <syllabic>single</syllabic>
                    <text>I'll</text>
                </lyric>
            </note>
            <note default-y="-35.00" default-x="211.29">
                <pitch>
                    <step>F</step>
                    <octave>4</octave>
                </pitch>
                <duration>240</duration>
                <voice>1</voice>
                <type>eighth</type>
                <stem>up</stem>
                <beam number="1">continue</beam>
                <lyric number="1">
                    <syllabic>single</syllabic>
                    <text>say</text>
                </lyric>
                <lyric number="2">
                    <syllabic>begin</syllabic>
                    <text>look</text>
                </lyric>
                <lyric number="3">
                    <syllabic>single</syllabic>
                    <text>catch</text>
                </lyric>
            </note>
            <note default-y="-45.00" default-x="269.94">
                <pitch>
                    <step>D</step>
                    <alter>-1</alter>
                    <octave>4</octave>
                </pitch>
                <duration>240</duration>
                <voice>1</voice>
                <type>eighth</type>
                <stem>up</stem>
                <beam number="1">end</beam>
                <lyric number="1">
                    <syllabic>single</syllabic>
                    <text>there's</text>
                </lyric>
                <lyric number="2">
                    <syllabic>end</syllabic>
                    <text>in'</text>
                </lyric>
                <lyric number="3">
                    <syllabic>single</syllabic>
                    <text>a</text>
                </lyric>
            </note>
            <harmony print-frame="no">
                <root>
                    <root-step>B</root-step>
                </root>
                <kind text="">major</kind>
                <bass>
                    <bass-step>D</bass-step>
                    <bass-alter>-1</bass-alter>
                </bass>
            </harmony>
            <note default-y="-40.00" default-x="327.35">
                <pitch>
                    <step>E</step>
                    <alter>-1</alter>
                    <octave>4</octave>
                </pitch>
                <duration>240</duration>
                <voice>1</voice>
                <type>eighth</type>
                <stem>up</stem>
                <lyric number="1">
                    <syllabic>begin</syllabic>
                    <text>al</text>
                </lyric>
                <lyric number="2">
                    <syllabic>single</syllabic>
                    <text>at</text>
                </lyric>
                <lyric number="3">
                    <syllabic>begin</syllabic>
                    <text>Grey</text>
                </lyric>
            </note>
            <note default-y="-25.00" default-x="383.99">
                <pitch>
                    <step>A</step>
                    <alter>-1</alter>
                    <octave>4</octave>
                </pitch>
                <duration>720</duration>
                <voice>1</voice>
                <type>quarter</type>
                <dot/>
                <stem>up</stem>
                <lyric number="1">
                    <syllabic>end</syllabic>
                    <text>ways</text>
                </lyric>
                <lyric number="2">
                    <syllabic>single</syllabic>
                    <text>them</text>
                </lyric>
                <lyric number="3">
                    <syllabic>end</syllabic>
                    <text>hound</text>
                </lyric>
            </note>
        </measure>
        <measure width="352.18" number="6">
            <harmony print-frame="no">
                <root>
                    <root-step>D</root-step>
                    <root-alter>-1</root-alter>
                </root>
                <kind text="">major</kind>
            </harmony>
            <note default-y="-35.00" default-x="27.87">
                <pitch>
                    <step>F</step>
                    <octave>4</octave>
                </pitch>
                <duration>480</duration>
                <voice>1</voice>
                <type>quarter</type>
                <stem>up</stem>
                <lyric number="1">
                    <syllabic>begin</syllabic>
                    <text>mag</text>
                </lyric>
                <lyric number="2">
                    <syllabic>single</syllabic>
                    <text>just</text>
                </lyric>
                <lyric number="3">
                    <syllabic>single</syllabic>
                    <text>bus</text>
                </lyric>
            </note>
            <note default-y="-45.00" default-x="102.81">
                <pitch>
                    <step>D</step>
                    <alter>-1</alter>
                    <octave>4</octave>
                </pitch>
                <duration>240</duration>
                <voice>1</voice>
                <type>eighth</type>
                <stem>up</stem>
                <lyric number="1">
                    <syllabic>end</syllabic>
                    <text>ic</text>
                </lyric>
                <lyric number="2">
                    <syllabic>single</syllabic>
                    <text>gives</text>
                </lyric>
                <lyric number="3">
                    <syllabic>single</syllabic>
                    <text>for</text>
                </lyric>
            </note>
            <harmony print-frame="no">
                <root>
                    <root-step>B</root-step>
                </root>
                <kind text="">major</kind>
                <bass>
                    <bass-step>D</bass-step>
                    <bass-alter>-1</bass-alter>
                </bass>
            </harmony>
            <note default-y="-50.00" default-x="160.40">
                <pitch>
                    <step>C</step>
                    <alter>-1</alter>
                    <octave>4</octave>
                </pitch>
                <duration>720</duration>
                <voice>1</voice>
                <type>quarter</type>
                <dot/>
                <accidental>flat</accidental>
                <stem>up</stem>
                <lyric number="1">
                    <syllabic>single</syllabic>
                    <text>in</text>
                </lyric>
                <lyric number="2">
                    <syllabic>single</syllabic>
                    <text>me</text>
                </lyric>
                <lyric number="3">
                    <syllabic>single</syllabic>
                    <text>home,</text>
                </lyric>
            </note>
            <note default-y="-45.00" default-x="251.78">
                <pitch>
                    <step>D</step>
                    <alter>-1</alter>
                    <octave>4</octave>
                </pitch>
                <duration>240</duration>
                <voice>1</voice>
                <type>eighth</type>
                <stem>up</stem>
                <beam number="1">begin</beam>
                <lyric number="1">
                    <syllabic>single</syllabic>
                    <text>the</text>
                </lyric>
                <lyric number="2">
                    <syllabic>single</syllabic>
                    <text>the</text>
                </lyric>
                <lyric number="3">
                    <syllabic>single</syllabic>
                    <text>they</text>
                </lyric>
            </note>
            <note default-y="-60.00" default-x="303.73">
                <pitch>
                    <step>A</step>
                    <alter>-1</alter>
                    <octave>3</octave>
                </pitch>
                <duration>240</duration>
                <tie type="start"/>
                <voice>1</voice>
                <type>eighth</type>
                <stem>up</stem>
                <beam number="1">end</beam>
                <notations>
                    <tied type="start"/>
                </notations>
                <lyric number="1">
                    <syllabic>single</syllabic>
                    <text>air.</text>
                    <extend/>
                </lyric>
                <lyric number="2">
                    <syllabic>single</syllabic>
                    <text>blues,</text>
                    <extend/>
                </lyric>
                <lyric number="3">
                    <syllabic>single</syllabic>
                    <text>all</text>
                    <extend/>
                </lyric>
            </note>
        </measure>
        <measure width="119.80" number="7">
            <harmony print-frame="no">
                <root>
                    <root-step>D</root-step>
                    <root-alter>-1</root-alter>
                </root>
                <kind text="">major</kind>
            </harmony>
            <note default-y="-60.00" default-x="15.00">
                <pitch>
                    <step>A</step>
                    <alter>-1</alter>
                    <octave>3</octave>
                </pitch>
                <duration>1920</duration>
                <tie type="stop"/>
                <tie type="start"/>
                <voice>1</voice>
                <type>whole</type>
                <notations>
                    <tied type="stop"/>
                    <tied type="start"/>
                </notations>
            </note>
        </measure>
        <measure width="119.80" number="8">
            <harmony print-frame="no">
                <root>
                    <root-step>D</root-step>
                    <root-alter>-1</root-alter>
                </root>
                <kind text="">major</kind>
            </harmony>
            <note default-y="-60.00" default-x="15.00">
                <pitch>
                    <step>A</step>
                    <alter>-1</alter>
                    <octave>3</octave>
                </pitch>
                <duration>1920</duration>
                <tie type="stop"/>
                <voice>1</voice>
                <type>whole</type>
                <notations>
                    <tied type="stop"/>
                </notations>
            </note>
        </measure>
        <measure width="477.63" number="9">
            <print new-system="yes">
                <system-layout>
                    <system-margins>
                        <left-margin>-0.00</left-margin>
                        <right-margin>-0.00</right-margin>
                    </system-margins>
                    <system-distance>236.45</system-distance>
                </system-layout>
            </print>
            <harmony print-frame="no">
                <root>
                    <root-step>G</root-step>
                    <root-alter>-1</root-alter>
                </root>
                <kind text="">major</kind>
            </harmony>
            <note>
                <rest/>
                <duration>240</duration>
                <voice>1</voice>
                <type>eighth</type>
            </note>
            <note default-y="-45.00" default-x="152.63">
                <pitch>
                    <step>D</step>
                    <alter>-1</alter>
                    <octave>4</octave>
                </pitch>
                <duration>240</duration>
                <voice>1</voice>
                <type>eighth</type>
                <stem>up</stem>
                <beam number="1">begin</beam>
                <lyric number="1">
                    <syllabic>single</syllabic>
                    <text>But</text>
                </lyric>
                <lyric number="2">
                    <syllabic>single</syllabic>
                    <text>'cause</text>
                </lyric>
                <lyric number="3">
                    <syllabic>single</syllabic>
                    <text>But</text>
                </lyric>
            </note>
            <note default-y="-20.00" default-x="215.82">
                <pitch>
                    <step>B</step>
                    <alter>-1</alter>
                    <octave>4</octave>
                </pitch>
                <duration>240</duration>
                <voice>1</voice>
                <type>eighth</type>
                <stem>up</stem>
                <beam number="1">continue</beam>
                <lyric number="1">
                    <syllabic>single</syllabic>
                    <text>when</text>
                </lyric>
                <lyric number="2">
                    <syllabic>single</syllabic>
                    <text>how</text>
                </lyric>
                <lyric number="3">
                    <syllabic>single</syllabic>
                    <text>they're</text>
                </lyric>
            </note>
            <note default-y="-30.00" default-x="279.64">
                <pitch>
                    <step>G</step>
                    <alter>-1</alter>
                    <octave>4</octave>
                </pitch>
                <duration>240</duration>
                <voice>1</voice>
                <type>eighth</type>
                <stem>up</stem>
                <beam number="1">end</beam>
                <lyric number="1">
                    <syllabic>single</syllabic>
                    <text>you're</text>
                </lyric>
                <lyric number="2">
                    <syllabic>single</syllabic>
                    <text>ya</text>
                </lyric>
                <lyric number="3">
                    <syllabic>single</syllabic>
                    <text>dead</text>
                </lyric>
            </note>
            <harmony print-frame="no">
                <root>
                    <root-step>E</root-step>
                </root>
                <kind text="">major</kind>
                <bass>
                    <bass-step>G</bass-step>
                    <bass-alter>-1</bass-alter>
                </bass>
            </harmony>
            <note default-y="-25.00" default-x="342.07">
                <pitch>
                    <step>A</step>
                    <alter>-1</alter>
                    <octave>4</octave>
                </pitch>
                <duration>240</duration>
                <voice>1</voice>
                <type>eighth</type>
                <stem>up</stem>
                <lyric number="1">
                    <syllabic>begin</syllabic>
                    <text>walk</text>
                </lyric>
                <lyric number="2">
                    <syllabic>begin</syllabic>
                    <text>gon</text>
                </lyric>
                <lyric number="3">
                    <syllabic>single</syllabic>
                    <text>wrong</text>
                </lyric>
            </note>
            <note default-y="-10.00" default-x="387.59">
                <pitch>
                    <step>D</step>
                    <alter>-1</alter>
                    <octave>5</octave>
                </pitch>
                <duration>720</duration>
                <voice>1</voice>
                <type>quarter</type>
                <dot/>
                <stem>down</stem>
                <lyric number="1">
                    <syllabic>end</syllabic>
                    <text>in'</text>
                </lyric>
                <lyric number="2">
                    <syllabic>end</syllabic>
                    <text>na</text>
                </lyric>
                <lyric number="3">
                    <syllabic>single</syllabic>
                    <text>I</text>
                </lyric>
            </note>
        </measure>
        <measure width="265.53" number="10">
            <harmony print-frame="no">
                <root>
                    <root-step>G</root-step>
                    <root-alter>-1</root-alter>
                </root>
                <kind text="">major</kind>
            </harmony>
            <note default-y="-20.00" default-x="33.51">
                <pitch>
                    <step>B</step>
                    <alter>-1</alter>
                    <octave>4</octave>
                </pitch>
                <duration>480</duration>
                <voice>1</voice>
                <type>quarter</type>
                <stem>down</stem>
                <lyric number="1">
                    <syllabic>single</syllabic>
                    <text>down</text>
                </lyric>
                <lyric number="2">
                    <syllabic>single</syllabic>
                    <text>make</text>
                </lyric>
                <lyric number="3">
                    <syllabic>single</syllabic>
                    <text>know</text>
                </lyric>
            </note>
            <note default-y="-30.00" default-x="92.27">
                <pitch>
                    <step>G</step>
                    <alter>-1</alter>
                    <octave>4</octave>
                </pitch>
                <duration>240</duration>
                <voice>1</voice>
                <type>eighth</type>
                <stem>up</stem>
                <beam number="1">begin</beam>
                <lyric number="1">
                    <syllabic>single</syllabic>
                    <text>that</text>
                </lyric>
                <lyric number="2">
                    <syllabic>single</syllabic>
                    <text>some</text>
                </lyric>
                <lyric number="3">
                    <syllabic>single</syllabic>
                    <text>they</text>
                </lyric>
            </note>
            <harmony print-frame="no">
                <root>
                    <root-step>E</root-step>
                </root>
                <kind text="">major</kind>
                <bass>
                    <bass-step>G</bass-step>
                    <bass-alter>-1</bass-alter>
                </bass>
            </harmony>
            <note default-y="-25.00" default-x="146.40">
                <pitch>
                    <step>A</step>
                    <alter>-1</alter>
                    <octave>4</octave>
                </pitch>
                <duration>240</duration>
                <tie type="start"/>
                <voice>1</voice>
                <type>eighth</type>
                <stem>up</stem>
                <beam number="1">end</beam>
                <notations>
                    <tied type="start"/>
                </notations>
                <lyric number="1">
                    <syllabic>single</syllabic>
                    <text>street</text>
                    <extend/>
                </lyric>
                <lyric number="2">
                    <syllabic>single</syllabic>
                    <text>time</text>
                    <extend/>
                </lyric>
                <lyric number="3">
                    <syllabic>single</syllabic>
                    <text>are,</text>
                    <extend/>
                </lyric>
            </note>
            <note default-y="-25.00" default-x="183.13">
                <pitch>
                    <step>A</step>
                    <alter>-1</alter>
                    <octave>4</octave>
                </pitch>
                <duration>960</duration>
                <tie type="stop"/>
                <voice>1</voice>
                <type>half</type>
                <stem>up</stem>
                <notations>
                    <tied type="stop"/>
                </notations>
            </note>
        </measure>
        <measure width="333.94" number="11">
            <harmony print-frame="no">
                <root>
                    <root-step>G</root-step>
                    <root-alter>-1</root-alter>
                </root>
                <kind text="">major</kind>
            </harmony>
            <note>
                <rest/>
                <duration>240</duration>
                <voice>1</voice>
                <type>eighth</type>
            </note>
            <note default-y="-45.00" default-x="59.94">
                <pitch>
                    <step>D</step>
                    <alter>-1</alter>
                    <octave>4</octave>
                </pitch>
                <duration>240</duration>
                <voice>1</voice>
                <type>eighth</type>
                <stem>up</stem>
                <beam number="1">begin</beam>
                <lyric number="1">
                    <syllabic>single</syllabic>
                    <text>and</text>
                </lyric>
                <lyric number="2">
                    <syllabic>single</syllabic>
                    <text>when</text>
                </lyric>
                <lyric number="3">
                    <syllabic>single</syllabic>
                    <text>'cause</text>
                </lyric>
            </note>
            <note default-y="-20.00" default-x="109.84">
                <pitch>
                    <step>B</step>
                    <alter>-1</alter>
                    <octave>4</octave>
                </pitch>
                <duration>240</duration>
                <voice>1</voice>
                <type>eighth</type>
                <stem>up</stem>
                <beam number="1">continue</beam>
                <lyric number="1">
                    <syllabic>single</syllabic>
                    <text>you</text>
                </lyric>
                <lyric number="2">
                    <syllabic>single</syllabic>
                    <text>all</text>
                </lyric>
                <lyric number="3">
                    <syllabic>single</syllabic>
                    <text>I</text>
                </lyric>
            </note>
            <note default-y="-30.00" default-x="154.78">
                <pitch>
                    <step>G</step>
                    <alter>-1</alter>
                    <octave>4</octave>
                </pitch>
                <duration>240</duration>
                <voice>1</voice>
                <type>eighth</type>
                <stem>up</stem>
                <beam number="1">end</beam>
                <lyric number="1">
                    <syllabic>single</syllabic>
                    <text>ain't</text>
                </lyric>
                <lyric number="2">
                    <syllabic>single</syllabic>
                    <text>you</text>
                </lyric>
                <lyric number="3">
                    <syllabic>single</syllabic>
                    <text>can</text>
                </lyric>
            </note>
            <harmony print-frame="no">
                <root>
                    <root-step>E</root-step>
                </root>
                <kind text="">major</kind>
                <bass>
                    <bass-step>G</bass-step>
                    <bass-alter>-1</bass-alter>
                </bass>
            </harmony>
            <note default-y="-25.00" default-x="199.72">
                <pitch>
                    <step>A</step>
                    <alter>-1</alter>
                    <octave>4</octave>
                </pitch>
                <duration>240</duration>
                <voice>1</voice>
                <type>eighth</type>
                <stem>up</stem>
                <lyric number="1">
                    <syllabic>single</syllabic>
                    <text>had</text>
                </lyric>
                <lyric number="2">
                    <syllabic>single</syllabic>
                    <text>got</text>
                </lyric>
                <lyric number="3">
                    <syllabic>single</syllabic>
                    <text>play</text>
                </lyric>
            </note>
            <note default-y="-10.00" default-x="244.66">
                <pitch>
                    <step>D</step>
                    <alter>-1</alter>
                    <octave>5</octave>
                </pitch>
                <duration>720</duration>
                <voice>1</voice>
                <type>quarter</type>
                <dot/>
                <stem>down</stem>
                <lyric number="1">
                    <syllabic>begin</syllabic>
                    <text>e</text>
                </lyric>
                <lyric number="2">
                    <syllabic>single</syllabic>
                    <text>is</text>
                </lyric>
                <lyric number="3">
                    <syllabic>single</syllabic>
                    <text>this</text>
                </lyric>
            </note>
        </measure>
        <measure width="375.86" number="12">
            <print new-system="yes">
                <system-layout>
                    <system-margins>
                        <left-margin>-0.00</left-margin>
                        <right-margin>-0.00</right-margin>
                    </system-margins>
                    <system-distance>236.45</system-distance>
                </system-layout>
            </print>
            <harmony print-frame="no">
                <root>
                    <root-step>G</root-step>
                    <root-alter>-1</root-alter>
                </root>
                <kind text="">major</kind>
            </harmony>
            <note default-y="-20.00" default-x="136.45">
                <pitch>
                    <step>B</step>
                    <alter>-1</alter>
                    <octave>4</octave>
                </pitch>
                <duration>480</duration>
                <voice>1</voice>
                <type>quarter</type>
                <stem>down</stem>
                <lyric number="1">
                    <syllabic>end</syllabic>
                    <text>nough</text>
                </lyric>
                <lyric number="2">
                    <syllabic>single</syllabic>
                    <text>one</text>
                </lyric>
                <lyric number="3">
                    <syllabic>single</syllabic>
                    <text>hear</text>
                </lyric>
            </note>
            <note default-y="-30.00" default-x="199.45">
                <pitch>
                    <step>G</step>
                    <alter>-1</alter>
                    <octave>4</octave>
                </pitch>
                <duration>240</duration>
                <voice>1</voice>
                <type>eighth</type>
                <stem>up</stem>
                <beam number="1">begin</beam>
                <lyric number="1">
                    <syllabic>single</syllabic>
                    <text>to</text>
                </lyric>
                <lyric number="2">
                    <syllabic>single</syllabic>
                    <text>thin</text>
                </lyric>
                <lyric number="3">
                    <syllabic>begin</syllabic>
                    <text>gui</text>
                </lyric>
            </note>
            <harmony print-frame="no">
                <root>
                    <root-step>A</root-step>
                    <root-alter>-1</root-alter>
                </root>
                <kind text="">major</kind>
            </harmony>
            <note default-y="-25.00" default-x="248.27">
                <pitch>
                    <step>A</step>
                    <alter>-1</alter>
                    <octave>4</octave>
                </pitch>
                <duration>240</duration>
                <tie type="start"/>
                <voice>1</voice>
                <type>eighth</type>
                <stem>up</stem>
                <beam number="1">end</beam>
                <notations>
                    <tied type="start"/>
                </notations>
                <lyric number="1">
                    <syllabic>single</syllabic>
                    <text>eat,</text>
                    <extend/>
                </lyric>
                <lyric number="2">
                    <syllabic>single</syllabic>
                    <text>dime,</text>
                    <extend/>
                </lyric>
                <lyric number="3">
                    <syllabic>end</syllabic>
                    <text>tar,</text>
                    <extend/>
                </lyric>
            </note>
            <note default-y="-25.00" default-x="287.64">
                <pitch>
                    <step>A</step>
                    <alter>-1</alter>
                    <octave>4</octave>
                </pitch>
                <duration>960</duration>
                <tie type="stop"/>
                <voice>1</voice>
                <type>half</type>
                <stem>up</stem>
                <notations>
                    <tied type="stop"/>
                </notations>
            </note>
        </measure>
        <measure width="358.13" number="13">
            <harmony print-frame="no">
                <root>
                    <root-step>D</root-step>
                    <root-alter>-1</root-alter>
                </root>
                <kind text="">major</kind>
            </harmony>
            <note>
                <rest/>
                <duration>240</duration>
                <voice>1</voice>
                <type>eighth</type>
            </note>
            <note default-y="-60.00" default-x="62.56">
                <pitch>
                    <step>A</step>
                    <alter>-1</alter>
                    <octave>3</octave>
                </pitch>
                <duration>240</duration>
                <voice>1</voice>
                <type>eighth</type>
                <stem>up</stem>
                <beam number="1">begin</beam>
                <lyric number="1">
                    <syllabic>single</syllabic>
                    <text>the</text>
                </lyric>
                <lyric number="2">
                    <syllabic>single</syllabic>
                    <text>and</text>
                </lyric>
                <lyric number="3">
                    <syllabic>single</syllabic>
                    <text>and</text>
                </lyric>
            </note>
            <note default-y="-35.00" default-x="110.12">
                <pitch>
                    <step>F</step>
                    <octave>4</octave>
                </pitch>
                <duration>240</duration>
                <voice>1</voice>
                <type>eighth</type>
                <stem>up</stem>
                <beam number="1">continue</beam>
                <lyric number="1">
                    <syllabic>begin</syllabic>
                    <text>glit</text>
                </lyric>
                <lyric number="2">
                    <syllabic>single</syllabic>
                    <text>one</text>
                </lyric>
                <lyric number="3">
                    <syllabic>single</syllabic>
                    <text>I</text>
                </lyric>
            </note>
            <note default-y="-45.00" default-x="157.68">
                <pitch>
                    <step>D</step>
                    <alter>-1</alter>
                    <octave>4</octave>
                </pitch>
                <duration>240</duration>
                <voice>1</voice>
                <type>eighth</type>
                <stem>up</stem>
                <beam number="1">end</beam>
                <lyric number="1">
                    <syllabic>end</syllabic>
                    <text>ter</text>
                </lyric>
                <lyric number="2">
                    <syllabic>single</syllabic>
                    <text>thin</text>
                </lyric>
                <lyric number="3">
                    <syllabic>single</syllabic>
                    <text>won't</text>
                </lyric>
            </note>
            <harmony print-frame="no">
                <root>
                    <root-step>B</root-step>
                </root>
                <kind text="">major</kind>
                <bass>
                    <bass-step>D</bass-step>
                    <bass-alter>-1</bass-alter>
                </bass>
            </harmony>
            <note default-y="-40.00" default-x="210.71">
                <pitch>
                    <step>E</step>
                    <alter>-1</alter>
                    <octave>4</octave>
                </pitch>
                <duration>240</duration>
                <voice>1</voice>
                <type>eighth</type>
                <stem>up</stem>
                <lyric number="1">
                    <syllabic>single</syllabic>
                    <text>rubs</text>
                </lyric>
                <lyric number="2">
                    <syllabic>single</syllabic>
                    <text>dime</text>
                </lyric>
                <lyric number="3">
                    <syllabic>single</syllabic>
                    <text>quit</text>
                </lyric>
            </note>
            <note default-y="-25.00" default-x="263.75">
                <pitch>
                    <step>A</step>
                    <alter>-1</alter>
                    <octave>4</octave>
                </pitch>
                <duration>720</duration>
                <voice>1</voice>
                <type>quarter</type>
                <dot/>
                <stem>up</stem>
                <lyric number="1">
                    <syllabic>single</syllabic>
                    <text>right</text>
                </lyric>
                <lyric number="2">
                    <syllabic>single</syllabic>
                    <text>won't</text>
                </lyric>
                <lyric number="3">
                    <syllabic>single</syllabic>
                    <text>till</text>
                </lyric>
            </note>
        </measure>
        <measure width="343.10" number="14">
            <barline location="left">
                <ending type="start" number="1"></ending>
            </barline>
            <harmony print-frame="no">
                <root>
                    <root-step>D</root-step>
                    <root-alter>-1</root-alter>
                </root>
                <kind text="">major</kind>
            </harmony>
            <note default-y="-35.00" default-x="21.38">
                <pitch>
                    <step>F</step>
                    <octave>4</octave>
                </pitch>
                <duration>480</duration>
                <voice>1</voice>
                <type>quarter</type>
                <stem>up</stem>
                <lyric number="1">
                    <syllabic>single</syllabic>
                    <text>off</text>
                </lyric>
                <lyric number="2">
                    <syllabic>begin</syllabic>
                    <text>e</text>
                </lyric>
                <lyric number="3">
                    <syllabic>single</syllabic>
                    <text></text>
                </lyric>
            </note>
            <note default-y="-45.00" default-x="95.57">
                <pitch>
                    <step>D</step>
                    <alter>-1</alter>
                    <octave>4</octave>
                </pitch>
                <duration>240</duration>
                <voice>1</voice>
                <type>eighth</type>
                <stem>up</stem>
                <lyric number="1">
                    <syllabic>single</syllabic>
                    <text>and</text>
                </lyric>
                <lyric number="2">
                    <syllabic>end</syllabic>
                    <text>ven</text>
                </lyric>
            </note>
            <harmony print-frame="no">
                <root>
                    <root-step>B</root-step>
                </root>
                <kind text="">major</kind>
                <bass>
                    <bass-step>D</bass-step>
                    <bass-alter>-1</bass-alter>
                </bass>
            </harmony>
            <note default-y="-50.00" default-x="150.55">
                <pitch>
                    <step>C</step>
                    <alter>-1</alter>
                    <octave>4</octave>
                </pitch>
                <duration>720</duration>
                <voice>1</voice>
                <type>quarter</type>
                <dot/>
                <accidental>flat</accidental>
                <stem>up</stem>
                <lyric number="1">
                    <syllabic>single</syllabic>
                    <text>you're</text>
                </lyric>
                <lyric number="2">
                    <syllabic>single</syllabic>
                    <text>shine</text>
                </lyric>
            </note>
            <note default-y="-45.00" default-x="241.01">
                <pitch>
                    <step>D</step>
                    <alter>-1</alter>
                    <octave>4</octave>
                </pitch>
                <duration>240</duration>
                <voice>1</voice>
                <type>eighth</type>
                <stem>up</stem>
                <beam number="1">begin</beam>
                <lyric number="1">
                    <syllabic>begin</syllabic>
                    <text>no</text>
                </lyric>
                <lyric number="2">
                    <syllabic>single</syllabic>
                    <text>your</text>
                </lyric>
            </note>
            <note default-y="-60.00" default-x="295.13">
                <pitch>
                    <step>A</step>
                    <alter>-1</alter>
                    <octave>3</octave>
                </pitch>
                <duration>240</duration>
                <tie type="start"/>
                <voice>1</voice>
                <type>eighth</type>
                <stem>up</stem>
                <beam number="1">end</beam>
                <notations>
                    <tied type="start"/>
                </notations>
                <lyric number="1">
                    <syllabic>end</syllabic>
                    <text>where</text>
                    <extend/>
                </lyric>
                <lyric number="2">
                    <syllabic>single</syllabic>
                    <text>shoes</text>
                    <extend/>
                </lyric>
            </note>
        </measure>
        <measure width="225.84" number="15">
            <print new-system="yes">
                <system-layout>
                    <system-margins>
                        <left-margin>-0.00</left-margin>
                        <right-margin>-0.00</right-margin>
                    </system-margins>
                    <system-distance>236.45</system-distance>
                </system-layout>
            </print>
            <harmony print-frame="no">
                <root>
                    <root-step>D</root-step>
                    <root-alter>-1</root-alter>
                </root>
                <kind text="">major</kind>
            </harmony>
            <note default-y="-60.00" default-x="107.30">
                <pitch>
                    <step>A</step>
                    <alter>-1</alter>
                    <octave>3</octave>
                </pitch>
                <duration>1440</duration>
                <tie type="stop"/>
                <voice>1</voice>
                <type>half</type>
                <dot/>
                <stem>up</stem>
                <notations>
                    <tied type="stop"/>
                </notations>
            </note>
            <harmony print-frame="no">
                <root>
                    <root-step>B</root-step>
                </root>
                <kind text="">major</kind>
                <bass>
                    <bass-step>D</bass-step>
                    <bass-alter>-1</bass-alter>
                </bass>
            </harmony>
            <note default-y="-40.00" default-x="184.61">
                <pitch>
                    <step>E</step>
                    <alter>-1</alter>
                    <octave>4</octave>
                </pitch>
                <duration>480</duration>
                <voice>1</voice>
                <type>quarter</type>
                <stem>up</stem>
                <lyric number="1">
                    <syllabic>single</syllabic>
                    <text>on</text>
                </lyric>
                <lyric number="2">
                    <syllabic>single</syllabic>
                    <text>on</text>
                </lyric>
            </note>
        </measure>
        <measure width="219.24" number="16">
            <harmony print-frame="no">
                <root>
                    <root-step>D</root-step>
                    <root-alter>-1</root-alter>
                </root>
                <kind text="">major</kind>
            </harmony>
            <note default-y="-45.00" default-x="36.01">
                <pitch>
                    <step>D</step>
                    <alter>-1</alter>
                    <octave>4</octave>
                </pitch>
                <duration>720</duration>
                <voice>1</voice>
                <type>quarter</type>
                <dot/>
                <stem>up</stem>
                <lyric number="1">
                    <syllabic>begin</syllabic>
                    <text>Broad</text>
                </lyric>
                <lyric number="2">
                    <syllabic>begin</syllabic>
                    <text>Broad</text>
                </lyric>
            </note>
            <harmony print-frame="no">
                <root>
                    <root-step>B</root-step>
                </root>
                <kind text="">major</kind>
                <bass>
                    <bass-step>D</bass-step>
                    <bass-alter>-1</bass-alter>
                </bass>
            </harmony>
            <note default-y="-60.00" default-x="99.67">
                <pitch>
                    <step>A</step>
                    <alter>-1</alter>
                    <octave>3</octave>
                </pitch>
                <duration>240</duration>
                <tie type="start"/>
                <voice>1</voice>
                <type>eighth</type>
                <stem>up</stem>
                <notations>
                    <tied type="start"/>
                </notations>
                <lyric number="1">
                    <syllabic>end</syllabic>
                    <text>way.</text>
                    <extend/>
                </lyric>
                <lyric number="2">
                    <syllabic>end</syllabic>
                    <text>way.</text>
                    <extend/>
                </lyric>
            </note>
            <note default-y="-60.00" default-x="132.30">
                <pitch>
                    <step>A</step>
                    <alter>-1</alter>
                    <octave>3</octave>
                </pitch>
                <duration>960</duration>
                <tie type="stop"/>
                <voice>1</voice>
                <type>half</type>
                <stem>up</stem>
                <notations>
                    <tied type="stop"/>
                </notations>
            </note>
            <barline location="right">
                <bar-style>light-heavy</bar-style>
                <ending type="stop" number="1"></ending>
                <repeat direction="backward"/>
            </barline>
        </measure>
        <measure width="213.90" number="17">
            <barline location="left">
                <ending type="start" number="2"></ending>
            </barline>
            <harmony print-frame="no">
                <root>
                    <root-step>D</root-step>
                    <root-alter>-1</root-alter>
                </root>
                <kind text="">major</kind>
            </harmony>
            <note default-y="-35.00" default-x="23.01">
                <pitch>
                    <step>F</step>
                    <octave>4</octave>
                </pitch>
                <duration>480</duration>
                <voice>1</voice>
                <type>quarter</type>
                <stem>up</stem>
                <lyric number="1">
                    <syllabic>single</syllabic>
                    <text>I'm</text>
                </lyric>
            </note>
            <note default-y="-45.00" default-x="68.28">
                <pitch>
                    <step>D</step>
                    <alter>-1</alter>
                    <octave>4</octave>
                </pitch>
                <duration>240</duration>
                <voice>1</voice>
                <type>eighth</type>
                <stem>up</stem>
                <lyric number="1">
                    <syllabic>single</syllabic>
                    <text>a</text>
                </lyric>
            </note>
            <harmony print-frame="no">
                <root>
                    <root-step>B</root-step>
                </root>
                <kind text="">major</kind>
                <bass>
                    <bass-step>D</bass-step>
                    <bass-alter>-1</bass-alter>
                </bass>
            </harmony>
            <note default-y="-50.00" default-x="111.84">
                <pitch>
                    <step>C</step>
                    <alter>-1</alter>
                    <octave>4</octave>
                </pitch>
                <duration>720</duration>
                <voice>1</voice>
                <type>quarter</type>
                <dot/>
                <accidental>flat</accidental>
                <stem>up</stem>
                <lyric number="1">
                    <syllabic>single</syllabic>
                    <text>star</text>
                </lyric>
            </note>
            <note default-y="-60.00" default-x="167.03">
                <pitch>
                    <step>A</step>
                    <alter>-1</alter>
                    <octave>3</octave>
                </pitch>
                <duration>480</duration>
                <voice>1</voice>
                <type>quarter</type>
                <stem>up</stem>
                <lyric number="1">
                    <syllabic>single</syllabic>
                    <text>on</text>
                </lyric>
            </note>
            <barline location="right">
                <ending type="discontinue" number="2"></ending>
            </barline>
        </measure>
        <measure width="201.51" number="18">
            <note default-y="-50.00" default-x="36.01">
                <pitch>
                    <step>C</step>
                    <alter>-1</alter>
                    <octave>4</octave>
                </pitch>
                <duration>720</duration>
                <voice>1</voice>
                <type>quarter</type>
                <dot/>
                <accidental>flat</accidental>
                <stem>up</stem>
                <lyric number="1">
                    <syllabic>begin</syllabic>
                    <text>Broad</text>
                </lyric>
            </note>
            <harmony print-frame="no">
                <root>
                    <root-step>D</root-step>
                    <root-alter>-1</root-alter>
                </root>
                <kind text="">major</kind>
            </harmony>
            <note default-y="-45.00" default-x="98.09">
                <pitch>
                    <step>D</step>
                    <alter>-1</alter>
                    <octave>4</octave>
                </pitch>
                <duration>960</duration>
                <voice>1</voice>
                <type>half</type>
                <stem>up</stem>
                <lyric number="1">
                    <syllabic>middle</syllabic>
                    <text>way.</text>
                </lyric>
            </note>
            <note>
                <rest/>
                <duration>240</duration>
                <voice>1</voice>
                <type>eighth</type>
            </note>
        </measure>
        <measure width="105.30" number="19">
            <note>
                <rest/>
                <duration>1920</duration>
                <voice>1</voice>
            </note>
        </measure>
        <measure width="111.30" number="20">
            <note>
                <rest/>
                <duration>1920</duration>
                <voice>1</voice>
            </note>
            <barline location="right">
                <bar-style>light-heavy</bar-style>
            </barline>
        </measure>
    </part>
</score-partwise>
