<?xml version="1.0" encoding="UTF-8"?>
<!DOCTYPE score-partwise PUBLIC "-//Recordare//DTD MusicXML 2.0 Partwise//EN" "http://www.musicxml.org/dtds/partwise.dtd">
<score-partwise version="2.0">
    <work>
        <work-number></work-number>
        <work-title></work-title>
    </work>
    <movement-number></movement-number>
    <movement-title>Gan Ainm</movement-title>
    <identification>
        <creator type="composer">Traditional Irish</creator>
        <creator type="poet"></creator>
        <rights>All Rights Reserved</rights>
        <encoding>
            <software>ABC4J</software>
            <encoding-date>2009-08-19</encoding-date>
            <software>ProxyMusic 2.0 c</software>
        </encoding>
        <source>http://www.wikifonia.org/node/2382/revisions/2996/view</source>
    </identification>
    <part-list>
        <score-part id="P1">
            <part-name></part-name>
        </score-part>
    </part-list>
    <part id="P1">
        <measure number="1">
            <attributes>
                <divisions>480</divisions>
                <key>
                    <fifths>2</fifths>
                    <mode>major</mode>
                </key>
                <time>
                    <beats>6</beats>
                    <beat-type>8</beat-type>
                </time>
                <clef>
                    <sign>G</sign>
                    <line>2</line>
                </clef>
            </attributes>
            <note>
                <pitch>
                    <step>E</step>
                    <alter>0</alter>
                    <octave>5</octave>
                </pitch>
                <duration>240</duration>
                <type>eighth</type>
                <beam number="1">end</beam>
            </note>
        </measure>
        <measure number="2">
            <note>
                <pitch>
                    <step>C</step>
                    <alter>1</alter>
                    <octave>5</octave>
                </pitch>
                <duration>240</duration>
                <type>eighth</type>
                <beam number="1">begin</beam>
            </note>
            <note>
                <pitch>
                    <step>A</step>
                    <alter>0</alter>
                    <octave>4</octave>
                </pitch>
                <duration>240</duration>
                <type>eighth</type>
                <beam number="1">continue</beam>
            </note>
            <note>
                <pitch>
                    <step>A</step>
                    <alter>0</alter>
                    <octave>4</octave>
                </pitch>
                <duration>240</duration>
                <type>eighth</type>
                <beam number="1">end</beam>
            </note>
            <note>
                <pitch>
                    <step>C</step>
                    <alter>1</alter>
                    <octave>5</octave>
                </pitch>
                <duration>240</duration>
                <type>eighth</type>
                <beam number="1">begin</beam>
            </note>
            <note>
                <pitch>
                    <step>A</step>
                    <alter>0</alter>
                    <octave>4</octave>
                </pitch>
                <duration>240</duration>
                <type>eighth</type>
                <beam number="1">continue</beam>
            </note>
            <note>
                <pitch>
                    <step>A</step>
                    <alter>0</alter>
                    <octave>4</octave>
                </pitch>
                <duration>240</duration>
                <type>eighth</type>
                <beam number="1">end</beam>
            </note>
        </measure>
        <measure number="3">
            <note>
                <pitch>
                    <step>B</step>
                    <alter>0</alter>
                    <octave>4</octave>
                </pitch>
                <duration>240</duration>
                <type>eighth</type>
                <beam number="1">begin</beam>
            </note>
            <note>
                <pitch>
                    <step>G</step>
                    <alter>0</alter>
                    <octave>4</octave>
                </pitch>
                <duration>240</duration>
                <type>eighth</type>
                <beam number="1">continue</beam>
            </note>
            <note>
                <pitch>
                    <step>G</step>
                    <alter>0</alter>
                    <octave>4</octave>
                </pitch>
                <duration>240</duration>
                <type>eighth</type>
                <beam number="1">end</beam>
            </note>
            <note>
                <pitch>
                    <step>D</step>
                    <alter>0</alter>
                    <octave>5</octave>
                </pitch>
                <duration>480</duration>
                <type>quarter</type>
            </note>
            <note>
                <pitch>
                    <step>B</step>
                    <alter>0</alter>
                    <octave>4</octave>
                </pitch>
                <duration>240</duration>
                <type>eighth</type>
                <beam number="1">end</beam>
            </note>
        </measure>
        <measure number="4">
            <note>
                <pitch>
                    <step>C</step>
                    <alter>1</alter>
                    <octave>5</octave>
                </pitch>
                <duration>240</duration>
                <type>eighth</type>
                <beam number="1">begin</beam>
            </note>
            <note>
                <pitch>
                    <step>A</step>
                    <alter>0</alter>
                    <octave>4</octave>
                </pitch>
                <duration>240</duration>
                <type>eighth</type>
                <beam number="1">continue</beam>
            </note>
            <note>
                <pitch>
                    <step>A</step>
                    <alter>0</alter>
                    <octave>4</octave>
                </pitch>
                <duration>240</duration>
                <type>eighth</type>
                <beam number="1">end</beam>
            </note>
            <note>
                <pitch>
                    <step>C</step>
                    <alter>1</alter>
                    <octave>5</octave>
                </pitch>
                <duration>240</duration>
                <type>eighth</type>
                <beam number="1">begin</beam>
            </note>
            <note>
                <pitch>
                    <step>A</step>
                    <alter>0</alter>
                    <octave>4</octave>
                </pitch>
                <duration>240</duration>
                <type>eighth</type>
                <beam number="1">continue</beam>
            </note>
            <note>
                <pitch>
                    <step>A</step>
                    <alter>0</alter>
                    <octave>4</octave>
                </pitch>
                <duration>240</duration>
                <type>eighth</type>
                <beam number="1">end</beam>
            </note>
        </measure>
        <measure number="5">
            <note>
                <pitch>
                    <step>C</step>
                    <alter>1</alter>
                    <octave>5</octave>
                </pitch>
                <duration>240</duration>
                <type>eighth</type>
                <beam number="1">begin</beam>
            </note>
            <note>
                <pitch>
                    <step>A</step>
                    <alter>0</alter>
                    <octave>4</octave>
                </pitch>
                <duration>240</duration>
                <type>eighth</type>
                <beam number="1">continue</beam>
            </note>
            <note>
                <pitch>
                    <step>A</step>
                    <alter>0</alter>
                    <octave>4</octave>
                </pitch>
                <duration>240</duration>
                <type>eighth</type>
                <beam number="1">end</beam>
            </note>
            <note>
                <pitch>
                    <step>E</step>
                    <alter>0</alter>
                    <octave>5</octave>
                </pitch>
                <duration>480</duration>
                <type>quarter</type>
            </note>
            <note>
                <pitch>
                    <step>C</step>
                    <alter>1</alter>
                    <octave>5</octave>
                </pitch>
                <duration>240</duration>
                <type>eighth</type>
                <beam number="1">end</beam>
            </note>
        </measure>
        <measure number="6">
            <print new-system="yes"/>
            <note>
                <pitch>
                    <step>B</step>
                    <alter>0</alter>
                    <octave>4</octave>
                </pitch>
                <duration>240</duration>
                <type>eighth</type>
                <beam number="1">begin</beam>
            </note>
            <note>
                <pitch>
                    <step>B</step>
                    <alter>0</alter>
                    <octave>4</octave>
                </pitch>
                <duration>240</duration>
                <type>eighth</type>
                <beam number="1">continue</beam>
            </note>
            <note>
                <pitch>
                    <step>B</step>
                    <alter>0</alter>
                    <octave>4</octave>
                </pitch>
                <duration>240</duration>
                <type>eighth</type>
                <beam number="1">end</beam>
            </note>
            <note>
                <pitch>
                    <step>C</step>
                    <alter>1</alter>
                    <octave>5</octave>
                </pitch>
                <duration>240</duration>
                <type>eighth</type>
                <beam number="1">begin</beam>
            </note>
            <note>
                <pitch>
                    <step>A</step>
                    <alter>0</alter>
                    <octave>4</octave>
                </pitch>
                <duration>240</duration>
                <type>eighth</type>
                <beam number="1">continue</beam>
            </note>
            <note>
                <pitch>
                    <step>A</step>
                    <alter>0</alter>
                    <octave>4</octave>
                </pitch>
                <duration>240</duration>
                <type>eighth</type>
                <beam number="1">end</beam>
            </note>
        </measure>
        <measure number="7">
            <note>
                <pitch>
                    <step>B</step>
                    <alter>0</alter>
                    <octave>4</octave>
                </pitch>
                <duration>240</duration>
                <type>eighth</type>
                <beam number="1">begin</beam>
            </note>
            <note>
                <pitch>
                    <step>G</step>
                    <alter>0</alter>
                    <octave>4</octave>
                </pitch>
                <duration>240</duration>
                <type>eighth</type>
                <beam number="1">continue</beam>
            </note>
            <note>
                <pitch>
                    <step>B</step>
                    <alter>0</alter>
                    <octave>4</octave>
                </pitch>
                <duration>240</duration>
                <type>eighth</type>
                <beam number="1">end</beam>
            </note>
            <note>
                <pitch>
                    <step>D</step>
                    <alter>0</alter>
                    <octave>5</octave>
                </pitch>
                <duration>480</duration>
                <type>quarter</type>
            </note>
            <note>
                <pitch>
                    <step>B</step>
                    <alter>0</alter>
                    <octave>4</octave>
                </pitch>
                <duration>240</duration>
                <type>eighth</type>
                <beam number="1">end</beam>
            </note>
        </measure>
        <measure number="8">
            <note>
                <pitch>
                    <step>C</step>
                    <alter>1</alter>
                    <octave>5</octave>
                </pitch>
                <duration>240</duration>
                <type>eighth</type>
                <beam number="1">begin</beam>
            </note>
            <note>
                <pitch>
                    <step>E</step>
                    <alter>0</alter>
                    <octave>5</octave>
                </pitch>
                <duration>240</duration>
                <type>eighth</type>
                <beam number="1">continue</beam>
            </note>
            <note>
                <pitch>
                    <step>C</step>
                    <alter>1</alter>
                    <octave>5</octave>
                </pitch>
                <duration>240</duration>
                <type>eighth</type>
                <beam number="1">end</beam>
            </note>
            <note>
                <pitch>
                    <step>D</step>
                    <alter>0</alter>
                    <octave>5</octave>
                </pitch>
                <duration>480</duration>
                <type>quarter</type>
            </note>
            <note>
                <pitch>
                    <step>B</step>
                    <alter>0</alter>
                    <octave>4</octave>
                </pitch>
                <duration>240</duration>
                <type>eighth</type>
                <beam number="1">end</beam>
            </note>
        </measure>
        <measure number="9">
            <note>
                <pitch>
                    <step>C</step>
                    <alter>1</alter>
                    <octave>5</octave>
                </pitch>
                <duration>240</duration>
                <type>eighth</type>
                <beam number="1">begin</beam>
            </note>
            <note>
                <pitch>
                    <step>A</step>
                    <alter>0</alter>
                    <octave>4</octave>
                </pitch>
                <duration>240</duration>
                <type>eighth</type>
                <beam number="1">continue</beam>
            </note>
            <note>
                <pitch>
                    <step>A</step>
                    <alter>0</alter>
                    <octave>4</octave>
                </pitch>
                <duration>240</duration>
                <type>eighth</type>
                <beam number="1">end</beam>
            </note>
            <note>
                <pitch>
                    <step>A</step>
                    <alter>0</alter>
                    <octave>4</octave>
                </pitch>
                <duration>480</duration>
                <type>quarter</type>
            </note>
            <note>
                <pitch>
                    <step>E</step>
                    <alter>0</alter>
                    <octave>5</octave>
                </pitch>
                <duration>240</duration>
                <type>eighth</type>
                <beam number="1">end</beam>
            </note>
        </measure>
        <measure number="10">
            <print new-system="yes"/>
            <note>
                <pitch>
                    <step>C</step>
                    <alter>1</alter>
                    <octave>5</octave>
                </pitch>
                <duration>240</duration>
                <type>eighth</type>
                <beam number="1">begin</beam>
            </note>
            <note>
                <pitch>
                    <step>A</step>
                    <alter>0</alter>
                    <octave>4</octave>
                </pitch>
                <duration>240</duration>
                <type>eighth</type>
                <beam number="1">continue</beam>
            </note>
            <note>
                <pitch>
                    <step>A</step>
                    <alter>0</alter>
                    <octave>4</octave>
                </pitch>
                <duration>240</duration>
                <type>eighth</type>
                <beam number="1">end</beam>
            </note>
            <note>
                <pitch>
                    <step>C</step>
                    <alter>1</alter>
                    <octave>5</octave>
                </pitch>
                <duration>240</duration>
                <type>eighth</type>
                <beam number="1">begin</beam>
            </note>
            <note>
                <pitch>
                    <step>A</step>
                    <alter>0</alter>
                    <octave>4</octave>
                </pitch>
                <duration>240</duration>
                <type>eighth</type>
                <beam number="1">continue</beam>
            </note>
            <note>
                <pitch>
                    <step>A</step>
                    <alter>0</alter>
                    <octave>4</octave>
                </pitch>
                <duration>240</duration>
                <type>eighth</type>
                <beam number="1">end</beam>
            </note>
        </measure>
        <measure number="11">
            <note>
                <pitch>
                    <step>B</step>
                    <alter>0</alter>
                    <octave>4</octave>
                </pitch>
                <duration>240</duration>
                <type>eighth</type>
                <beam number="1">begin</beam>
            </note>
            <note>
                <pitch>
                    <step>G</step>
                    <alter>0</alter>
                    <octave>4</octave>
                </pitch>
                <duration>240</duration>
                <type>eighth</type>
                <beam number="1">continue</beam>
            </note>
            <note>
                <pitch>
                    <step>G</step>
                    <alter>0</alter>
                    <octave>4</octave>
                </pitch>
                <duration>240</duration>
                <type>eighth</type>
                <beam number="1">end</beam>
            </note>
            <note>
                <pitch>
                    <step>D</step>
                    <alter>0</alter>
                    <octave>5</octave>
                </pitch>
                <duration>480</duration>
                <type>quarter</type>
            </note>
            <note>
                <pitch>
                    <step>B</step>
                    <alter>0</alter>
                    <octave>4</octave>
                </pitch>
                <duration>240</duration>
                <type>eighth</type>
                <beam number="1">end</beam>
            </note>
        </measure>
        <measure number="12">
            <note>
                <pitch>
                    <step>C</step>
                    <alter>1</alter>
                    <octave>5</octave>
                </pitch>
                <duration>240</duration>
                <type>eighth</type>
                <beam number="1">begin</beam>
            </note>
            <note>
                <pitch>
                    <step>A</step>
                    <alter>0</alter>
                    <octave>4</octave>
                </pitch>
                <duration>240</duration>
                <type>eighth</type>
                <beam number="1">continue</beam>
            </note>
            <note>
                <pitch>
                    <step>A</step>
                    <alter>0</alter>
                    <octave>4</octave>
                </pitch>
                <duration>240</duration>
                <type>eighth</type>
                <beam number="1">end</beam>
            </note>
            <note>
                <pitch>
                    <step>E</step>
                    <alter>0</alter>
                    <octave>5</octave>
                </pitch>
                <duration>240</duration>
                <type>eighth</type>
                <beam number="1">begin</beam>
            </note>
            <note>
                <pitch>
                    <step>A</step>
                    <alter>0</alter>
                    <octave>4</octave>
                </pitch>
                <duration>240</duration>
                <type>eighth</type>
                <beam number="1">continue</beam>
            </note>
            <note>
                <pitch>
                    <step>A</step>
                    <alter>0</alter>
                    <octave>4</octave>
                </pitch>
                <duration>240</duration>
                <type>eighth</type>
                <beam number="1">end</beam>
            </note>
        </measure>
        <measure number="13">
            <note>
                <pitch>
                    <step>C</step>
                    <alter>1</alter>
                    <octave>5</octave>
                </pitch>
                <duration>240</duration>
                <type>eighth</type>
                <beam number="1">begin</beam>
            </note>
            <note>
                <pitch>
                    <step>A</step>
                    <alter>0</alter>
                    <octave>4</octave>
                </pitch>
                <duration>240</duration>
                <type>eighth</type>
                <beam number="1">continue</beam>
            </note>
            <note>
                <pitch>
                    <step>A</step>
                    <alter>0</alter>
                    <octave>4</octave>
                </pitch>
                <duration>240</duration>
                <type>eighth</type>
                <beam number="1">end</beam>
            </note>
            <note>
                <pitch>
                    <step>E</step>
                    <alter>0</alter>
                    <octave>5</octave>
                </pitch>
                <duration>480</duration>
                <type>quarter</type>
            </note>
            <note>
                <pitch>
                    <step>D</step>
                    <alter>0</alter>
                    <octave>5</octave>
                </pitch>
                <duration>240</duration>
                <type>eighth</type>
                <beam number="1">end</beam>
            </note>
        </measure>
        <measure number="14">
            <print new-system="yes"/>
            <note>
                <pitch>
                    <step>C</step>
                    <alter>1</alter>
                    <octave>5</octave>
                </pitch>
                <duration>240</duration>
                <type>eighth</type>
                <beam number="1">begin</beam>
            </note>
            <note>
                <pitch>
                    <step>A</step>
                    <alter>0</alter>
                    <octave>4</octave>
                </pitch>
                <duration>240</duration>
                <type>eighth</type>
                <beam number="1">continue</beam>
            </note>
            <note>
                <pitch>
                    <step>A</step>
                    <alter>0</alter>
                    <octave>4</octave>
                </pitch>
                <duration>240</duration>
                <type>eighth</type>
                <beam number="1">end</beam>
            </note>
            <note>
                <pitch>
                    <step>E</step>
                    <alter>0</alter>
                    <octave>5</octave>
                </pitch>
                <duration>240</duration>
                <type>eighth</type>
                <beam number="1">begin</beam>
            </note>
            <note>
                <pitch>
                    <step>A</step>
                    <alter>0</alter>
                    <octave>4</octave>
                </pitch>
                <duration>240</duration>
                <type>eighth</type>
                <beam number="1">continue</beam>
            </note>
            <note>
                <pitch>
                    <step>A</step>
                    <alter>0</alter>
                    <octave>4</octave>
                </pitch>
                <duration>240</duration>
                <type>eighth</type>
                <beam number="1">end</beam>
            </note>
        </measure>
        <measure number="15">
            <note>
                <pitch>
                    <step>B</step>
                    <alter>0</alter>
                    <octave>4</octave>
                </pitch>
                <duration>240</duration>
                <type>eighth</type>
                <beam number="1">begin</beam>
            </note>
            <note>
                <pitch>
                    <step>G</step>
                    <alter>0</alter>
                    <octave>4</octave>
                </pitch>
                <duration>240</duration>
                <type>eighth</type>
                <beam number="1">continue</beam>
            </note>
            <note>
                <pitch>
                    <step>G</step>
                    <alter>0</alter>
                    <octave>4</octave>
                </pitch>
                <duration>240</duration>
                <type>eighth</type>
                <beam number="1">end</beam>
            </note>
            <note>
                <pitch>
                    <step>D</step>
                    <alter>0</alter>
                    <octave>5</octave>
                </pitch>
                <duration>480</duration>
                <type>quarter</type>
            </note>
            <note>
                <pitch>
                    <step>B</step>
                    <alter>0</alter>
                    <octave>4</octave>
                </pitch>
                <duration>240</duration>
                <type>eighth</type>
                <beam number="1">end</beam>
            </note>
        </measure>
        <measure number="16">
            <note>
                <pitch>
                    <step>C</step>
                    <alter>1</alter>
                    <octave>5</octave>
                </pitch>
                <duration>240</duration>
                <type>eighth</type>
                <beam number="1">begin</beam>
            </note>
            <note>
                <pitch>
                    <step>E</step>
                    <alter>0</alter>
                    <octave>5</octave>
                </pitch>
                <duration>240</duration>
                <type>eighth</type>
                <beam number="1">continue</beam>
            </note>
            <note>
                <pitch>
                    <step>C</step>
                    <alter>1</alter>
                    <octave>5</octave>
                </pitch>
                <duration>240</duration>
                <type>eighth</type>
                <beam number="1">end</beam>
            </note>
            <note>
                <pitch>
                    <step>D</step>
                    <alter>0</alter>
                    <octave>5</octave>
                </pitch>
                <duration>480</duration>
                <type>quarter</type>
            </note>
            <note>
                <pitch>
                    <step>B</step>
                    <alter>0</alter>
                    <octave>4</octave>
                </pitch>
                <duration>240</duration>
                <type>eighth</type>
                <beam number="1">end</beam>
            </note>
        </measure>
        <measure number="17">
            <note>
                <pitch>
                    <step>C</step>
                    <alter>1</alter>
                    <octave>5</octave>
                </pitch>
                <duration>240</duration>
                <type>eighth</type>
                <beam number="1">begin</beam>
            </note>
            <note>
                <pitch>
                    <step>A</step>
                    <alter>0</alter>
                    <octave>4</octave>
                </pitch>
                <duration>240</duration>
                <type>eighth</type>
                <beam number="1">continue</beam>
            </note>
            <note>
                <pitch>
                    <step>A</step>
                    <alter>0</alter>
                    <octave>4</octave>
                </pitch>
                <duration>240</duration>
                <type>eighth</type>
                <beam number="1">end</beam>
            </note>
            <note>
                <pitch>
                    <step>A</step>
                    <alter>0</alter>
                    <octave>4</octave>
                </pitch>
                <duration>480</duration>
                <type>quarter</type>
            </note>
            <note>
                <pitch>
                    <step>E</step>
                    <alter>0</alter>
                    <octave>5</octave>
                </pitch>
                <duration>240</duration>
                <type>eighth</type>
                <beam number="1">end</beam>
            </note>
        </measure>
        <measure number="18">
            <print new-system="yes"/>
            <note>
                <pitch>
                    <step>C</step>
                    <alter>1</alter>
                    <octave>5</octave>
                </pitch>
                <duration>240</duration>
                <type>eighth</type>
                <beam number="1">begin</beam>
            </note>
            <note>
                <pitch>
                    <step>A</step>
                    <alter>0</alter>
                    <octave>4</octave>
                </pitch>
                <duration>240</duration>
                <type>eighth</type>
                <beam number="1">continue</beam>
            </note>
            <note>
                <pitch>
                    <step>A</step>
                    <alter>0</alter>
                    <octave>4</octave>
                </pitch>
                <duration>240</duration>
                <type>eighth</type>
                <beam number="1">end</beam>
            </note>
            <note>
                <pitch>
                    <step>C</step>
                    <alter>1</alter>
                    <octave>5</octave>
                </pitch>
                <duration>240</duration>
                <type>eighth</type>
                <beam number="1">begin</beam>
            </note>
            <note>
                <pitch>
                    <step>A</step>
                    <alter>0</alter>
                    <octave>4</octave>
                </pitch>
                <duration>240</duration>
                <type>eighth</type>
                <beam number="1">continue</beam>
            </note>
            <note>
                <pitch>
                    <step>A</step>
                    <alter>0</alter>
                    <octave>4</octave>
                </pitch>
                <duration>240</duration>
                <type>eighth</type>
                <beam number="1">end</beam>
            </note>
        </measure>
        <measure number="19">
            <note>
                <pitch>
                    <step>B</step>
                    <alter>0</alter>
                    <octave>4</octave>
                </pitch>
                <duration>240</duration>
                <type>eighth</type>
                <beam number="1">begin</beam>
            </note>
            <note>
                <pitch>
                    <step>G</step>
                    <alter>0</alter>
                    <octave>4</octave>
                </pitch>
                <duration>240</duration>
                <type>eighth</type>
                <beam number="1">continue</beam>
            </note>
            <note>
                <pitch>
                    <step>G</step>
                    <alter>0</alter>
                    <octave>4</octave>
                </pitch>
                <duration>240</duration>
                <type>eighth</type>
                <beam number="1">end</beam>
            </note>
            <note>
                <pitch>
                    <step>D</step>
                    <alter>0</alter>
                    <octave>5</octave>
                </pitch>
                <duration>480</duration>
                <type>quarter</type>
            </note>
            <note>
                <pitch>
                    <step>B</step>
                    <alter>0</alter>
                    <octave>4</octave>
                </pitch>
                <duration>240</duration>
                <type>eighth</type>
                <beam number="1">end</beam>
            </note>
        </measure>
        <measure number="20">
            <note>
                <pitch>
                    <step>C</step>
                    <alter>1</alter>
                    <octave>5</octave>
                </pitch>
                <duration>240</duration>
                <type>eighth</type>
                <beam number="1">begin</beam>
            </note>
            <note>
                <pitch>
                    <step>A</step>
                    <alter>0</alter>
                    <octave>4</octave>
                </pitch>
                <duration>240</duration>
                <type>eighth</type>
                <beam number="1">continue</beam>
            </note>
            <note>
                <pitch>
                    <step>A</step>
                    <alter>0</alter>
                    <octave>4</octave>
                </pitch>
                <duration>240</duration>
                <type>eighth</type>
                <beam number="1">end</beam>
            </note>
            <note>
                <pitch>
                    <step>E</step>
                    <alter>0</alter>
                    <octave>5</octave>
                </pitch>
                <duration>240</duration>
                <type>eighth</type>
                <beam number="1">begin</beam>
            </note>
            <note>
                <pitch>
                    <step>A</step>
                    <alter>0</alter>
                    <octave>4</octave>
                </pitch>
                <duration>240</duration>
                <type>eighth</type>
                <beam number="1">continue</beam>
            </note>
            <note>
                <pitch>
                    <step>A</step>
                    <alter>0</alter>
                    <octave>4</octave>
                </pitch>
                <duration>240</duration>
                <type>eighth</type>
                <beam number="1">end</beam>
            </note>
        </measure>
        <measure number="21">
            <note>
                <pitch>
                    <step>C</step>
                    <alter>1</alter>
                    <octave>5</octave>
                </pitch>
                <duration>240</duration>
                <type>eighth</type>
                <beam number="1">begin</beam>
            </note>
            <note>
                <pitch>
                    <step>A</step>
                    <alter>0</alter>
                    <octave>4</octave>
                </pitch>
                <duration>240</duration>
                <type>eighth</type>
                <beam number="1">continue</beam>
            </note>
            <note>
                <pitch>
                    <step>A</step>
                    <alter>0</alter>
                    <octave>4</octave>
                </pitch>
                <duration>240</duration>
                <type>eighth</type>
                <beam number="1">end</beam>
            </note>
            <note>
                <pitch>
                    <step>E</step>
                    <alter>0</alter>
                    <octave>5</octave>
                </pitch>
                <duration>480</duration>
                <type>quarter</type>
            </note>
            <note>
                <pitch>
                    <step>D</step>
                    <alter>0</alter>
                    <octave>5</octave>
                </pitch>
                <duration>240</duration>
                <type>eighth</type>
                <beam number="1">end</beam>
            </note>
        </measure>
        <measure number="22">
            <print new-system="yes"/>
            <note>
                <pitch>
                    <step>D</step>
                    <alter>0</alter>
                    <octave>5</octave>
                </pitch>
                <duration>240</duration>
                <type>eighth</type>
                <beam number="1">begin</beam>
            </note>
            <note>
                <pitch>
                    <step>B</step>
                    <alter>0</alter>
                    <octave>4</octave>
                </pitch>
                <duration>240</duration>
                <type>eighth</type>
                <beam number="1">continue</beam>
            </note>
            <note>
                <pitch>
                    <step>B</step>
                    <alter>0</alter>
                    <octave>4</octave>
                </pitch>
                <duration>240</duration>
                <type>eighth</type>
                <beam number="1">end</beam>
            </note>
            <note>
                <pitch>
                    <step>C</step>
                    <alter>1</alter>
                    <octave>5</octave>
                </pitch>
                <duration>240</duration>
                <type>eighth</type>
                <beam number="1">begin</beam>
            </note>
            <note>
                <pitch>
                    <step>A</step>
                    <alter>0</alter>
                    <octave>4</octave>
                </pitch>
                <duration>240</duration>
                <type>eighth</type>
                <beam number="1">continue</beam>
            </note>
            <note>
                <pitch>
                    <step>A</step>
                    <alter>0</alter>
                    <octave>4</octave>
                </pitch>
                <duration>240</duration>
                <type>eighth</type>
                <beam number="1">end</beam>
            </note>
        </measure>
        <measure number="23">
            <note>
                <pitch>
                    <step>B</step>
                    <alter>0</alter>
                    <octave>4</octave>
                </pitch>
                <duration>240</duration>
                <type>eighth</type>
                <beam number="1">begin</beam>
            </note>
            <note>
                <pitch>
                    <step>G</step>
                    <alter>0</alter>
                    <octave>4</octave>
                </pitch>
                <duration>240</duration>
                <type>eighth</type>
                <beam number="1">continue</beam>
            </note>
            <note>
                <pitch>
                    <step>G</step>
                    <alter>0</alter>
                    <octave>4</octave>
                </pitch>
                <duration>240</duration>
                <type>eighth</type>
                <beam number="1">end</beam>
            </note>
            <note>
                <pitch>
                    <step>D</step>
                    <alter>0</alter>
                    <octave>5</octave>
                </pitch>
                <duration>480</duration>
                <type>quarter</type>
            </note>
            <note>
                <pitch>
                    <step>B</step>
                    <alter>0</alter>
                    <octave>4</octave>
                </pitch>
                <duration>240</duration>
                <type>eighth</type>
                <beam number="1">end</beam>
            </note>
        </measure>
        <measure number="24">
            <note>
                <pitch>
                    <step>C</step>
                    <alter>1</alter>
                    <octave>5</octave>
                </pitch>
                <duration>240</duration>
                <type>eighth</type>
                <beam number="1">begin</beam>
            </note>
            <note>
                <pitch>
                    <step>E</step>
                    <alter>0</alter>
                    <octave>5</octave>
                </pitch>
                <duration>240</duration>
                <type>eighth</type>
                <beam number="1">continue</beam>
            </note>
            <note>
                <pitch>
                    <step>C</step>
                    <alter>1</alter>
                    <octave>5</octave>
                </pitch>
                <duration>240</duration>
                <type>eighth</type>
                <beam number="1">end</beam>
            </note>
            <note>
                <pitch>
                    <step>D</step>
                    <alter>0</alter>
                    <octave>5</octave>
                </pitch>
                <duration>480</duration>
                <type>quarter</type>
            </note>
            <note>
                <pitch>
                    <step>B</step>
                    <alter>0</alter>
                    <octave>4</octave>
                </pitch>
                <duration>240</duration>
                <type>eighth</type>
                <beam number="1">end</beam>
            </note>
        </measure>
        <measure number="25">
            <note>
                <pitch>
                    <step>C</step>
                    <alter>1</alter>
                    <octave>5</octave>
                </pitch>
                <duration>240</duration>
                <type>eighth</type>
                <beam number="1">begin</beam>
            </note>
            <note>
                <pitch>
                    <step>A</step>
                    <alter>0</alter>
                    <octave>4</octave>
                </pitch>
                <duration>240</duration>
                <type>eighth</type>
                <beam number="1">continue</beam>
            </note>
            <note>
                <pitch>
                    <step>A</step>
                    <alter>0</alter>
                    <octave>4</octave>
                </pitch>
                <duration>240</duration>
                <type>eighth</type>
                <beam number="1">end</beam>
            </note>
            <note>
                <pitch>
                    <step>A</step>
                    <alter>0</alter>
                    <octave>4</octave>
                </pitch>
                <duration>480</duration>
                <type>quarter</type>
            </note>
            <note>
                <pitch>
                    <step>G</step>
                    <alter>0</alter>
                    <octave>5</octave>
                </pitch>
                <duration>240</duration>
                <type>eighth</type>
                <beam number="1">end</beam>
            </note>
        </measure>
        <measure number="26">
            <print new-system="yes"/>
            <note>
                <pitch>
                    <step>F</step>
                    <alter>1</alter>
                    <octave>5</octave>
                </pitch>
                <duration>240</duration>
                <type>eighth</type>
                <beam number="1">begin</beam>
            </note>
            <note>
                <pitch>
                    <step>D</step>
                    <alter>0</alter>
                    <octave>5</octave>
                </pitch>
                <duration>240</duration>
                <type>eighth</type>
                <beam number="1">continue</beam>
            </note>
            <note>
                <pitch>
                    <step>D</step>
                    <alter>0</alter>
                    <octave>5</octave>
                </pitch>
                <duration>240</duration>
                <type>eighth</type>
                <beam number="1">end</beam>
            </note>
            <note>
                <pitch>
                    <step>A</step>
                    <alter>0</alter>
                    <octave>5</octave>
                </pitch>
                <duration>240</duration>
                <type>eighth</type>
                <beam number="1">begin</beam>
            </note>
            <note>
                <pitch>
                    <step>D</step>
                    <alter>0</alter>
                    <octave>5</octave>
                </pitch>
                <duration>240</duration>
                <type>eighth</type>
                <beam number="1">continue</beam>
            </note>
            <note>
                <pitch>
                    <step>D</step>
                    <alter>0</alter>
                    <octave>5</octave>
                </pitch>
                <duration>240</duration>
                <type>eighth</type>
                <beam number="1">end</beam>
            </note>
        </measure>
        <measure number="27">
            <note>
                <pitch>
                    <step>E</step>
                    <alter>0</alter>
                    <octave>5</octave>
                </pitch>
                <duration>240</duration>
                <type>eighth</type>
                <beam number="1">begin</beam>
            </note>
            <note>
                <pitch>
                    <step>C</step>
                    <alter>1</alter>
                    <octave>5</octave>
                </pitch>
                <duration>240</duration>
                <type>eighth</type>
                <beam number="1">continue</beam>
            </note>
            <note>
                <pitch>
                    <step>C</step>
                    <alter>1</alter>
                    <octave>5</octave>
                </pitch>
                <duration>240</duration>
                <type>eighth</type>
                <beam number="1">end</beam>
            </note>
            <note>
                <pitch>
                    <step>G</step>
                    <alter>0</alter>
                    <octave>5</octave>
                </pitch>
                <duration>480</duration>
                <type>quarter</type>
            </note>
            <note>
                <pitch>
                    <step>E</step>
                    <alter>0</alter>
                    <octave>5</octave>
                </pitch>
                <duration>240</duration>
                <type>eighth</type>
                <beam number="1">end</beam>
            </note>
        </measure>
        <measure number="28">
            <note>
                <pitch>
                    <step>F</step>
                    <alter>1</alter>
                    <octave>5</octave>
                </pitch>
                <duration>240</duration>
                <type>eighth</type>
                <beam number="1">begin</beam>
            </note>
            <note>
                <pitch>
                    <step>D</step>
                    <alter>0</alter>
                    <octave>5</octave>
                </pitch>
                <duration>240</duration>
                <type>eighth</type>
                <beam number="1">continue</beam>
            </note>
            <note>
                <pitch>
                    <step>D</step>
                    <alter>0</alter>
                    <octave>5</octave>
                </pitch>
                <duration>240</duration>
                <type>eighth</type>
                <beam number="1">end</beam>
            </note>
            <note>
                <pitch>
                    <step>A</step>
                    <alter>0</alter>
                    <octave>5</octave>
                </pitch>
                <duration>240</duration>
                <type>eighth</type>
                <beam number="1">begin</beam>
            </note>
            <note>
                <pitch>
                    <step>D</step>
                    <alter>0</alter>
                    <octave>5</octave>
                </pitch>
                <duration>240</duration>
                <type>eighth</type>
                <beam number="1">continue</beam>
            </note>
            <note>
                <pitch>
                    <step>D</step>
                    <alter>0</alter>
                    <octave>5</octave>
                </pitch>
                <duration>240</duration>
                <type>eighth</type>
                <beam number="1">end</beam>
            </note>
        </measure>
        <measure number="29">
            <note>
                <pitch>
                    <step>F</step>
                    <alter>1</alter>
                    <octave>5</octave>
                </pitch>
                <duration>240</duration>
                <type>eighth</type>
                <beam number="1">begin</beam>
            </note>
            <note>
                <pitch>
                    <step>D</step>
                    <alter>0</alter>
                    <octave>5</octave>
                </pitch>
                <duration>240</duration>
                <type>eighth</type>
                <beam number="1">continue</beam>
            </note>
            <note>
                <pitch>
                    <step>D</step>
                    <alter>0</alter>
                    <octave>5</octave>
                </pitch>
                <duration>240</duration>
                <type>eighth</type>
                <beam number="1">end</beam>
            </note>
            <note>
                <pitch>
                    <step>A</step>
                    <alter>0</alter>
                    <octave>5</octave>
                </pitch>
                <duration>480</duration>
                <type>quarter</type>
            </note>
            <note>
                <pitch>
                    <step>F</step>
                    <alter>1</alter>
                    <octave>5</octave>
                </pitch>
                <duration>240</duration>
                <type>eighth</type>
                <beam number="1">end</beam>
            </note>
        </measure>
        <measure number="30">
            <print new-system="yes"/>
            <note>
                <pitch>
                    <step>G</step>
                    <alter>0</alter>
                    <octave>5</octave>
                </pitch>
                <duration>480</duration>
                <type>quarter</type>
            </note>
            <note>
                <pitch>
                    <step>E</step>
                    <alter>0</alter>
                    <octave>5</octave>
                </pitch>
                <duration>240</duration>
                <type>eighth</type>
                <beam number="1">end</beam>
            </note>
            <note>
                <pitch>
                    <step>F</step>
                    <alter>1</alter>
                    <octave>5</octave>
                </pitch>
                <duration>240</duration>
                <type>eighth</type>
                <beam number="1">begin</beam>
            </note>
            <note>
                <pitch>
                    <step>D</step>
                    <alter>0</alter>
                    <octave>5</octave>
                </pitch>
                <duration>240</duration>
                <type>eighth</type>
                <beam number="1">continue</beam>
            </note>
            <note>
                <pitch>
                    <step>D</step>
                    <alter>0</alter>
                    <octave>5</octave>
                </pitch>
                <duration>240</duration>
                <type>eighth</type>
                <beam number="1">end</beam>
            </note>
        </measure>
        <measure number="31">
            <note>
                <pitch>
                    <step>E</step>
                    <alter>0</alter>
                    <octave>5</octave>
                </pitch>
                <duration>240</duration>
                <type>eighth</type>
                <beam number="1">begin</beam>
            </note>
            <note>
                <pitch>
                    <step>D</step>
                    <alter>0</alter>
                    <octave>5</octave>
                </pitch>
                <duration>240</duration>
                <type>eighth</type>
                <beam number="1">continue</beam>
            </note>
            <note>
                <pitch>
                    <step>D</step>
                    <alter>0</alter>
                    <octave>5</octave>
                </pitch>
                <duration>240</duration>
                <type>eighth</type>
                <beam number="1">end</beam>
            </note>
            <note>
                <pitch>
                    <step>G</step>
                    <alter>0</alter>
                    <octave>5</octave>
                </pitch>
                <duration>480</duration>
                <type>quarter</type>
            </note>
            <note>
                <pitch>
                    <step>E</step>
                    <alter>0</alter>
                    <octave>5</octave>
                </pitch>
                <duration>240</duration>
                <type>eighth</type>
                <beam number="1">end</beam>
            </note>
        </measure>
        <measure number="32">
            <note>
                <pitch>
                    <step>F</step>
                    <alter>1</alter>
                    <octave>5</octave>
                </pitch>
                <duration>240</duration>
                <type>eighth</type>
                <beam number="1">begin</beam>
            </note>
            <note>
                <pitch>
                    <step>A</step>
                    <alter>0</alter>
                    <octave>5</octave>
                </pitch>
                <duration>240</duration>
                <type>eighth</type>
                <beam number="1">continue</beam>
            </note>
            <note>
                <pitch>
                    <step>F</step>
                    <alter>1</alter>
                    <octave>5</octave>
                </pitch>
                <duration>240</duration>
                <type>eighth</type>
                <beam number="1">end</beam>
            </note>
            <note>
                <pitch>
                    <step>G</step>
                    <alter>0</alter>
                    <octave>5</octave>
                </pitch>
                <duration>480</duration>
                <type>quarter</type>
            </note>
            <note>
                <pitch>
                    <step>E</step>
                    <alter>0</alter>
                    <octave>5</octave>
                </pitch>
                <duration>240</duration>
                <type>eighth</type>
                <beam number="1">end</beam>
            </note>
        </measure>
        <measure number="33">
            <note>
                <pitch>
                    <step>F</step>
                    <alter>1</alter>
                    <octave>5</octave>
                </pitch>
                <duration>240</duration>
                <type>eighth</type>
                <beam number="1">begin</beam>
            </note>
            <note>
                <pitch>
                    <step>D</step>
                    <alter>0</alter>
                    <octave>5</octave>
                </pitch>
                <duration>240</duration>
                <type>eighth</type>
                <beam number="1">continue</beam>
            </note>
            <note>
                <pitch>
                    <step>D</step>
                    <alter>0</alter>
                    <octave>5</octave>
                </pitch>
                <duration>240</duration>
                <type>eighth</type>
                <beam number="1">end</beam>
            </note>
            <note>
                <pitch>
                    <step>D</step>
                    <alter>0</alter>
                    <octave>5</octave>
                </pitch>
                <duration>480</duration>
                <type>quarter</type>
            </note>
            <note>
                <pitch>
                    <step>G</step>
                    <alter>0</alter>
                    <octave>5</octave>
                </pitch>
                <duration>240</duration>
                <type>eighth</type>
                <beam number="1">end</beam>
            </note>
        </measure>
        <measure number="34">
            <print new-system="yes"/>
            <note>
                <pitch>
                    <step>F</step>
                    <alter>1</alter>
                    <octave>5</octave>
                </pitch>
                <duration>240</duration>
                <type>eighth</type>
                <beam number="1">begin</beam>
            </note>
            <note>
                <pitch>
                    <step>E</step>
                    <alter>0</alter>
                    <octave>5</octave>
                </pitch>
                <duration>240</duration>
                <type>eighth</type>
                <beam number="1">continue</beam>
            </note>
            <note>
                <pitch>
                    <step>D</step>
                    <alter>0</alter>
                    <octave>5</octave>
                </pitch>
                <duration>240</duration>
                <type>eighth</type>
                <beam number="1">end</beam>
            </note>
            <note>
                <pitch>
                    <step>C</step>
                    <alter>1</alter>
                    <octave>5</octave>
                </pitch>
                <duration>480</duration>
                <type>quarter</type>
            </note>
            <note>
                <pitch>
                    <step>A</step>
                    <alter>0</alter>
                    <octave>4</octave>
                </pitch>
                <duration>240</duration>
                <type>eighth</type>
                <beam number="1">end</beam>
            </note>
        </measure>
        <measure number="35">
            <note>
                <pitch>
                    <step>E</step>
                    <alter>0</alter>
                    <octave>5</octave>
                </pitch>
                <duration>240</duration>
                <type>eighth</type>
                <beam number="1">begin</beam>
            </note>
            <note>
                <pitch>
                    <step>C</step>
                    <alter>1</alter>
                    <octave>5</octave>
                </pitch>
                <duration>240</duration>
                <type>eighth</type>
                <beam number="1">continue</beam>
            </note>
            <note>
                <pitch>
                    <step>C</step>
                    <alter>1</alter>
                    <octave>5</octave>
                </pitch>
                <duration>240</duration>
                <type>eighth</type>
                <beam number="1">end</beam>
            </note>
            <note>
                <pitch>
                    <step>C</step>
                    <alter>1</alter>
                    <octave>5</octave>
                </pitch>
                <duration>480</duration>
                <type>quarter</type>
            </note>
            <note>
                <pitch>
                    <step>G</step>
                    <alter>0</alter>
                    <octave>5</octave>
                </pitch>
                <duration>240</duration>
                <type>eighth</type>
                <beam number="1">end</beam>
            </note>
        </measure>
        <measure number="36">
            <note>
                <pitch>
                    <step>F</step>
                    <alter>1</alter>
                    <octave>5</octave>
                </pitch>
                <duration>240</duration>
                <type>eighth</type>
                <beam number="1">begin</beam>
            </note>
            <note>
                <pitch>
                    <step>E</step>
                    <alter>0</alter>
                    <octave>5</octave>
                </pitch>
                <duration>240</duration>
                <type>eighth</type>
                <beam number="1">continue</beam>
            </note>
            <note>
                <pitch>
                    <step>D</step>
                    <alter>0</alter>
                    <octave>5</octave>
                </pitch>
                <duration>240</duration>
                <type>eighth</type>
                <beam number="1">end</beam>
            </note>
            <note>
                <pitch>
                    <step>C</step>
                    <alter>1</alter>
                    <octave>5</octave>
                </pitch>
                <duration>480</duration>
                <type>quarter</type>
            </note>
            <note>
                <pitch>
                    <step>A</step>
                    <alter>0</alter>
                    <octave>4</octave>
                </pitch>
                <duration>240</duration>
                <type>eighth</type>
                <beam number="1">end</beam>
            </note>
        </measure>
        <measure number="37">
            <note>
                <pitch>
                    <step>F</step>
                    <alter>1</alter>
                    <octave>5</octave>
                </pitch>
                <duration>240</duration>
                <type>eighth</type>
                <beam number="1">begin</beam>
            </note>
            <note>
                <pitch>
                    <step>D</step>
                    <alter>0</alter>
                    <octave>5</octave>
                </pitch>
                <duration>240</duration>
                <type>eighth</type>
                <beam number="1">continue</beam>
            </note>
            <note>
                <pitch>
                    <step>D</step>
                    <alter>0</alter>
                    <octave>5</octave>
                </pitch>
                <duration>240</duration>
                <type>eighth</type>
                <beam number="1">end</beam>
            </note>
            <note>
                <pitch>
                    <step>D</step>
                    <alter>0</alter>
                    <octave>5</octave>
                </pitch>
                <duration>480</duration>
                <type>quarter</type>
            </note>
            <note>
                <pitch>
                    <step>E</step>
                    <alter>0</alter>
                    <octave>5</octave>
                </pitch>
                <duration>240</duration>
                <type>eighth</type>
                <beam number="1">end</beam>
            </note>
        </measure>
        <measure number="38">
            <print new-system="yes"/>
            <note>
                <pitch>
                    <step>F</step>
                    <alter>1</alter>
                    <octave>5</octave>
                </pitch>
                <duration>240</duration>
                <type>eighth</type>
                <beam number="1">begin</beam>
            </note>
            <note>
                <pitch>
                    <step>E</step>
                    <alter>0</alter>
                    <octave>5</octave>
                </pitch>
                <duration>240</duration>
                <type>eighth</type>
                <beam number="1">continue</beam>
            </note>
            <note>
                <pitch>
                    <step>D</step>
                    <alter>0</alter>
                    <octave>5</octave>
                </pitch>
                <duration>240</duration>
                <type>eighth</type>
                <beam number="1">end</beam>
            </note>
            <note>
                <pitch>
                    <step>C</step>
                    <alter>1</alter>
                    <octave>5</octave>
                </pitch>
                <duration>480</duration>
                <type>quarter</type>
            </note>
            <note>
                <pitch>
                    <step>A</step>
                    <alter>0</alter>
                    <octave>4</octave>
                </pitch>
                <duration>240</duration>
                <type>eighth</type>
                <beam number="1">end</beam>
            </note>
        </measure>
        <measure number="39">
            <note>
                <pitch>
                    <step>C</step>
                    <alter>1</alter>
                    <octave>5</octave>
                </pitch>
                <duration>240</duration>
                <type>eighth</type>
                <beam number="1">begin</beam>
            </note>
            <note>
                <pitch>
                    <step>C</step>
                    <alter>1</alter>
                    <octave>5</octave>
                </pitch>
                <duration>240</duration>
                <type>eighth</type>
                <beam number="1">continue</beam>
            </note>
            <note>
                <pitch>
                    <step>C</step>
                    <alter>1</alter>
                    <octave>5</octave>
                </pitch>
                <duration>240</duration>
                <type>eighth</type>
                <beam number="1">end</beam>
            </note>
            <note>
                <pitch>
                    <step>G</step>
                    <alter>0</alter>
                    <octave>5</octave>
                </pitch>
                <duration>480</duration>
                <type>quarter</type>
            </note>
            <note>
                <pitch>
                    <step>E</step>
                    <alter>0</alter>
                    <octave>5</octave>
                </pitch>
                <duration>240</duration>
                <type>eighth</type>
                <beam number="1">end</beam>
            </note>
        </measure>
        <measure number="40">
            <note>
                <pitch>
                    <step>F</step>
                    <alter>1</alter>
                    <octave>5</octave>
                </pitch>
                <duration>240</duration>
                <type>eighth</type>
                <beam number="1">begin</beam>
            </note>
            <note>
                <pitch>
                    <step>A</step>
                    <alter>0</alter>
                    <octave>5</octave>
                </pitch>
                <duration>240</duration>
                <type>eighth</type>
                <beam number="1">continue</beam>
            </note>
            <note>
                <pitch>
                    <step>F</step>
                    <alter>1</alter>
                    <octave>5</octave>
                </pitch>
                <duration>240</duration>
                <type>eighth</type>
                <beam number="1">end</beam>
            </note>
            <note>
                <pitch>
                    <step>G</step>
                    <alter>0</alter>
                    <octave>5</octave>
                </pitch>
                <duration>480</duration>
                <type>quarter</type>
            </note>
            <note>
                <pitch>
                    <step>E</step>
                    <alter>0</alter>
                    <octave>5</octave>
                </pitch>
                <duration>240</duration>
                <type>eighth</type>
                <beam number="1">end</beam>
            </note>
        </measure>
        <measure number="41">
            <note>
                <pitch>
                    <step>F</step>
                    <alter>1</alter>
                    <octave>5</octave>
                </pitch>
                <duration>240</duration>
                <type>eighth</type>
                <beam number="1">begin</beam>
            </note>
            <note>
                <pitch>
                    <step>D</step>
                    <alter>0</alter>
                    <octave>5</octave>
                </pitch>
                <duration>240</duration>
                <type>eighth</type>
                <beam number="1">continue</beam>
            </note>
            <note>
                <pitch>
                    <step>D</step>
                    <alter>0</alter>
                    <octave>5</octave>
                </pitch>
                <duration>240</duration>
                <type>eighth</type>
                <beam number="1">end</beam>
            </note>
            <note>
                <pitch>
                    <step>D</step>
                    <alter>0</alter>
                    <octave>5</octave>
                </pitch>
                <duration>480</duration>
                <type>quarter</type>
            </note>
        </measure>
    </part>
</score-partwise>
