<?xml version="1.0" encoding="UTF-8"?>
<!DOCTYPE score-partwise PUBLIC "-//Recordare//DTD MusicXML 2.0 Partwise//EN" "http://www.musicxml.org/dtds/partwise.dtd">
<score-partwise version="2.0">
    <work>
        <work-number></work-number>
        <work-title></work-title>
    </work>
    <movement-number></movement-number>
    <movement-title>Hogy ne sírjon az az anya</movement-title>
    <identification>
        <creator type="composer">Hungarian folk song</creator>
        <creator type="poet"></creator>
        <rights>Public Domain</rights>
        <encoding>
            <software>MuseScore 0.9.4</software>
            <encoding-date>2009-08-24</encoding-date>
            <software>ProxyMusic 2.0 c</software>
        </encoding>
        <source>http://wikifonia.org/node/2418/revisions/3035/view</source>
    </identification>
    <part-list>
        <score-part id="P1">
            <part-name>Voice</part-name>
            <score-instrument id="P1-I3">
                <instrument-name>Voice</instrument-name>
            </score-instrument>
            <midi-instrument id="P1-I3">
                <midi-channel>1</midi-channel>
                <midi-program>53</midi-program>
            </midi-instrument>
        </score-part>
    </part-list>
    <part id="P1">
        <measure number="1">
            <attributes>
                <divisions>480</divisions>
                <key>
                    <fifths>0</fifths>
                    <mode>major</mode>
                </key>
                <time>
                    <beats>4</beats>
                    <beat-type>4</beat-type>
                </time>
                <clef>
                    <sign>G</sign>
                    <line>2</line>
                </clef>
            </attributes>
            <note>
                <pitch>
                    <step>C</step>
                    <octave>4</octave>
                </pitch>
                <duration>480</duration>
                <voice>1</voice>
                <type>quarter</type>
                <stem>up</stem>
                <lyric number="1">
                    <syllabic>single</syllabic>
                    <text>Hogy</text>
                </lyric>
            </note>
            <note>
                <pitch>
                    <step>C</step>
                    <octave>4</octave>
                </pitch>
                <duration>480</duration>
                <voice>1</voice>
                <type>quarter</type>
                <stem>up</stem>
                <lyric number="1">
                    <syllabic>single</syllabic>
                    <text>ne</text>
                </lyric>
            </note>
            <note>
                <pitch>
                    <step>E</step>
                    <octave>4</octave>
                </pitch>
                <duration>240</duration>
                <voice>1</voice>
                <type>eighth</type>
                <stem>up</stem>
                <beam number="1">begin</beam>
                <lyric number="1">
                    <syllabic>begin</syllabic>
                    <text>sír</text>
                </lyric>
            </note>
            <note>
                <pitch>
                    <step>D</step>
                    <octave>4</octave>
                </pitch>
                <duration>240</duration>
                <voice>1</voice>
                <type>eighth</type>
                <stem>up</stem>
                <beam number="1">continue</beam>
                <lyric number="1">
                    <syllabic>end</syllabic>
                    <text>jon</text>
                </lyric>
            </note>
            <note>
                <pitch>
                    <step>A</step>
                    <octave>3</octave>
                </pitch>
                <duration>240</duration>
                <voice>1</voice>
                <type>eighth</type>
                <stem>up</stem>
                <beam number="1">continue</beam>
                <lyric number="1">
                    <syllabic>single</syllabic>
                    <text>az</text>
                </lyric>
            </note>
            <note>
                <pitch>
                    <step>B</step>
                    <octave>3</octave>
                </pitch>
                <duration>240</duration>
                <voice>1</voice>
                <type>eighth</type>
                <stem>up</stem>
                <beam number="1">end</beam>
                <lyric number="1">
                    <syllabic>single</syllabic>
                    <text>az</text>
                </lyric>
            </note>
        </measure>
        <measure number="2">
            <note>
                <pitch>
                    <step>C</step>
                    <octave>4</octave>
                </pitch>
                <duration>960</duration>
                <voice>1</voice>
                <type>half</type>
                <stem>up</stem>
                <lyric number="1">
                    <syllabic>begin</syllabic>
                    <text>a</text>
                </lyric>
            </note>
            <note>
                <pitch>
                    <step>G</step>
                    <octave>3</octave>
                </pitch>
                <duration>960</duration>
                <voice>1</voice>
                <type>half</type>
                <stem>up</stem>
                <lyric number="1">
                    <syllabic>end</syllabic>
                    <text>nya,</text>
                </lyric>
            </note>
        </measure>
        <measure number="3">
            <note>
                <pitch>
                    <step>E</step>
                    <octave>4</octave>
                </pitch>
                <duration>480</duration>
                <voice>1</voice>
                <type>quarter</type>
                <stem>up</stem>
                <lyric number="1">
                    <syllabic>begin</syllabic>
                    <text>ki</text>
                </lyric>
            </note>
            <note>
                <pitch>
                    <step>E</step>
                    <octave>4</octave>
                </pitch>
                <duration>480</duration>
                <voice>1</voice>
                <type>quarter</type>
                <stem>up</stem>
                <lyric number="1">
                    <syllabic>end</syllabic>
                    <text>nek</text>
                </lyric>
            </note>
            <note>
                <pitch>
                    <step>D</step>
                    <octave>4</octave>
                </pitch>
                <duration>240</duration>
                <voice>1</voice>
                <type>eighth</type>
                <stem>up</stem>
                <beam number="1">begin</beam>
                <lyric number="1">
                    <syllabic>single</syllabic>
                    <text>két</text>
                </lyric>
            </note>
            <note>
                <pitch>
                    <step>C</step>
                    <octave>4</octave>
                </pitch>
                <duration>240</duration>
                <voice>1</voice>
                <type>eighth</type>
                <stem>up</stem>
                <beam number="1">continue</beam>
                <lyric number="1">
                    <syllabic>begin</syllabic>
                    <text>fi</text>
                </lyric>
            </note>
            <note>
                <pitch>
                    <step>E</step>
                    <octave>4</octave>
                </pitch>
                <duration>240</duration>
                <voice>1</voice>
                <type>eighth</type>
                <stem>up</stem>
                <beam number="1">continue</beam>
                <lyric number="1">
                    <syllabic>end</syllabic>
                    <text>a</text>
                </lyric>
            </note>
            <note>
                <pitch>
                    <step>G</step>
                    <octave>4</octave>
                </pitch>
                <duration>240</duration>
                <voice>1</voice>
                <type>eighth</type>
                <stem>up</stem>
                <beam number="1">end</beam>
                <lyric number="1">
                    <syllabic>begin</syllabic>
                    <text>ka</text>
                </lyric>
            </note>
        </measure>
        <measure number="4">
            <note>
                <pitch>
                    <step>D</step>
                    <octave>4</octave>
                </pitch>
                <duration>960</duration>
                <voice>1</voice>
                <type>half</type>
                <stem>up</stem>
                <lyric number="1">
                    <syllabic>middle</syllabic>
                    <text>to</text>
                </lyric>
            </note>
            <note>
                <pitch>
                    <step>D</step>
                    <octave>4</octave>
                </pitch>
                <duration>960</duration>
                <voice>1</voice>
                <type>half</type>
                <stem>up</stem>
                <lyric number="1">
                    <syllabic>end</syllabic>
                    <text>na,</text>
                </lyric>
            </note>
        </measure>
        <measure number="5">
            <print new-system="yes"/>
            <barline location="left">
                <bar-style>heavy-light</bar-style>
                <repeat direction="forward"/>
            </barline>
            <note>
                <pitch>
                    <step>E</step>
                    <octave>4</octave>
                </pitch>
                <duration>480</duration>
                <voice>1</voice>
                <type>quarter</type>
                <stem>up</stem>
                <lyric number="1">
                    <syllabic>single</syllabic>
                    <text>a</text>
                </lyric>
            </note>
            <note>
                <pitch>
                    <step>G</step>
                    <octave>4</octave>
                </pitch>
                <duration>480</duration>
                <voice>1</voice>
                <type>quarter</type>
                <stem>up</stem>
                <lyric number="1">
                    <syllabic>begin</syllabic>
                    <text>har</text>
                </lyric>
            </note>
            <note>
                <pitch>
                    <step>F</step>
                    <octave>4</octave>
                </pitch>
                <duration>240</duration>
                <voice>1</voice>
                <type>eighth</type>
                <stem>up</stem>
                <beam number="1">begin</beam>
                <lyric number="1">
                    <syllabic>middle</syllabic>
                    <text>mad</text>
                </lyric>
            </note>
            <note>
                <pitch>
                    <step>E</step>
                    <octave>4</octave>
                </pitch>
                <duration>240</duration>
                <voice>1</voice>
                <type>eighth</type>
                <stem>up</stem>
                <beam number="1">continue</beam>
                <lyric number="1">
                    <syllabic>end</syllabic>
                    <text>ik</text>
                </lyric>
            </note>
            <note>
                <pitch>
                    <step>D</step>
                    <octave>4</octave>
                </pitch>
                <duration>240</duration>
                <voice>1</voice>
                <type>eighth</type>
                <stem>up</stem>
                <beam number="1">continue</beam>
                <lyric number="1">
                    <syllabic>begin</syllabic>
                    <text>el</text>
                </lyric>
            </note>
            <note>
                <pitch>
                    <step>D</step>
                    <octave>4</octave>
                </pitch>
                <duration>240</duration>
                <voice>1</voice>
                <type>eighth</type>
                <stem>up</stem>
                <beam number="1">end</beam>
                <lyric number="1">
                    <syllabic>middle</syllabic>
                    <text>in</text>
                </lyric>
            </note>
        </measure>
        <measure number="6">
            <note>
                <pitch>
                    <step>A</step>
                    <octave>3</octave>
                </pitch>
                <duration>960</duration>
                <voice>1</voice>
                <type>half</type>
                <stem>up</stem>
                <lyric number="1">
                    <syllabic>middle</syllabic>
                    <text>dít</text>
                </lyric>
            </note>
            <note>
                <pitch>
                    <step>D</step>
                    <octave>4</octave>
                </pitch>
                <duration>960</duration>
                <voice>1</voice>
                <type>half</type>
                <stem>up</stem>
                <lyric number="1">
                    <syllabic>end</syllabic>
                    <text>va,</text>
                </lyric>
            </note>
        </measure>
        <measure number="7">
            <note>
                <pitch>
                    <step>C</step>
                    <octave>4</octave>
                </pitch>
                <duration>480</duration>
                <voice>1</voice>
                <type>quarter</type>
                <stem>up</stem>
                <lyric number="1">
                    <syllabic>single</syllabic>
                    <text>a</text>
                </lyric>
            </note>
            <note>
                <pitch>
                    <step>F</step>
                    <octave>4</octave>
                </pitch>
                <duration>480</duration>
                <voice>1</voice>
                <type>quarter</type>
                <stem>up</stem>
                <lyric number="1">
                    <syllabic>begin</syllabic>
                    <text>ne</text>
                </lyric>
            </note>
            <note>
                <pitch>
                    <step>E</step>
                    <octave>4</octave>
                </pitch>
                <duration>240</duration>
                <voice>1</voice>
                <type>eighth</type>
                <stem>up</stem>
                <beam number="1">begin</beam>
                <lyric number="1">
                    <syllabic>middle</syllabic>
                    <text>gye</text>
                </lyric>
            </note>
            <note>
                <pitch>
                    <step>D</step>
                    <octave>4</octave>
                </pitch>
                <duration>240</duration>
                <voice>1</voice>
                <type>eighth</type>
                <stem>up</stem>
                <beam number="1">continue</beam>
                <lyric number="1">
                    <syllabic>end</syllabic>
                    <text>dik</text>
                </lyric>
            </note>
            <note>
                <pitch>
                    <step>E</step>
                    <octave>4</octave>
                </pitch>
                <duration>240</duration>
                <voice>1</voice>
                <type>eighth</type>
                <stem>up</stem>
                <beam number="1">continue</beam>
                <lyric number="1">
                    <syllabic>single</syllabic>
                    <text>fel</text>
                </lyric>
            </note>
            <note>
                <pitch>
                    <step>D</step>
                    <octave>4</octave>
                </pitch>
                <duration>240</duration>
                <voice>1</voice>
                <type>eighth</type>
                <stem>up</stem>
                <beam number="1">end</beam>
                <lyric number="1">
                    <syllabic>single</syllabic>
                    <text>van</text>
                </lyric>
            </note>
        </measure>
        <measure number="8">
            <note>
                <pitch>
                    <step>C</step>
                    <octave>4</octave>
                </pitch>
                <duration>960</duration>
                <voice>1</voice>
                <type>half</type>
                <stem>up</stem>
                <lyric number="1">
                    <syllabic>begin</syllabic>
                    <text>ír</text>
                </lyric>
            </note>
            <note>
                <pitch>
                    <step>C</step>
                    <octave>4</octave>
                </pitch>
                <duration>960</duration>
                <voice>1</voice>
                <type>half</type>
                <stem>up</stem>
                <lyric number="1">
                    <syllabic>middle</syllabic>
                    <text>va.</text>
                </lyric>
            </note>
            <barline location="right">
                <bar-style>light-heavy</bar-style>
                <repeat direction="backward"/>
            </barline>
        </measure>
    </part>
</score-partwise>
