<?xml version="1.0" encoding="UTF-8"?>
<!DOCTYPE score-partwise PUBLIC "-//Recordare//DTD MusicXML 2.0 Partwise//EN" "http://www.musicxml.org/dtds/partwise.dtd">
<score-partwise version="2.0">
    <work>
        <work-number></work-number>
        <work-title></work-title>
    </work>
    <movement-number></movement-number>
    <movement-title>Take Five w/solo</movement-title>
    <identification>
        <creator type="composer">Paul Desmond</creator>
        <creator type="poet"></creator>
        <rights>All Rights Reserved</rights>
        <encoding>
            <software>PDFtoMusic Pro v1.2 Build 7A1F (c) Myriad - http://www.myriad-online.com</software>
            <software>ProxyMusic 2.0 c</software>
        </encoding>
        <source>http://wikifonia.org/node/2440/revisions/4123/view</source>
    </identification>
    <defaults>
        <scaling>
            <millimeters>7.236988</millimeters>
            <tenths>40</tenths>
        </scaling>
        <page-layout>
            <page-height>1544.289</page-height>
            <page-width>1193.314</page-width>
            <page-margins type="both">
                <left-margin>55.272</left-margin>
                <right-margin>55.272</right-margin>
                <top-margin>55.272</top-margin>
                <bottom-margin>55.272</bottom-margin>
            </page-margins>
        </page-layout>
    </defaults>
    <credit>
        <credit-words font-weight="normal" font-style="normal" font-size="12" font-family="Times New Roman" default-y="1443.442" default-x="1053.486" justify="left" valign="baseline">Alto</credit-words>
    </credit>
    <credit>
        <credit-words font-weight="normal" font-style="normal" font-size="12" font-family="Times New Roman" default-y="1438.996" default-x="85.684" justify="left" valign="baseline">Paul Desmond
Dave Brubeck Time Out</credit-words>
    </credit>
    <credit>
        <credit-words font-weight="normal" font-style="normal" font-size="24" font-family="Times New Roman" default-y="1419.459" default-x="539.518" justify="left" valign="baseline">Take 5</credit-words>
    </credit>
    <credit>
        <credit-words font-weight="normal" font-style="normal" font-size="17" font-family="Times New Roman" justify="left" valign="baseline">-</credit-words>
    </credit>
    <credit>
        <credit-words font-weight="normal" font-style="normal" font-size="17" font-family="Times New Roman" justify="left" valign="baseline">-</credit-words>
    </credit>
    <credit>
        <credit-words font-weight="normal" font-style="normal" font-size="17" font-family="Times New Roman" justify="left" valign="baseline">-</credit-words>
    </credit>
    <credit>
        <credit-words font-weight="normal" font-style="normal" font-size="17" font-family="Times New Roman" justify="left" valign="baseline">-</credit-words>
    </credit>
    <credit>
        <credit-words font-weight="normal" font-style="normal" font-size="10" font-family="Times New Roman" default-y="96.050" default-x="614.668" justify="center" valign="baseline">www.saxsolos.com
2002</credit-words>
    </credit>
    <part-list>
        <score-part id="P1">
            <part-name></part-name>
            <score-instrument id="P1-I1">
                <instrument-name>Instrument 1</instrument-name>
            </score-instrument>
            <midi-instrument id="P1-I1">
                <midi-channel>1</midi-channel>
                <midi-bank>1</midi-bank>
                <midi-program>1</midi-program>
            </midi-instrument>
        </score-part>
    </part-list>
    <part id="P1">
        <measure width="288" number="1">
            <print>
                <system-layout>
                    <system-margins>
                        <left-margin>49.962</left-margin>
                        <right-margin>14.624</right-margin>
                    </system-margins>
                    <top-system-distance>237.617</top-system-distance>
                </system-layout>
            </print>
            <attributes>
                <divisions>6720</divisions>
                <key>
                    <fifths>-3</fifths>
                    <mode>major</mode>
                </key>
                <time>
                    <beats>5</beats>
                    <beat-type>4</beat-type>
                </time>
                <clef number="1">
                    <sign>G</sign>
                    <line>2</line>
                </clef>
                <staff-details print-object="yes" number="1">
                    <staff-lines>5</staff-lines>
                    <staff-size>100.61</staff-size>
                </staff-details>
                <measure-style>
                    <multiple-rest>11</multiple-rest>
                </measure-style>
            </attributes>
        </measure>
        <measure number="2"/>
        <measure number="3"/>
        <measure number="4"/>
        <measure number="5"/>
        <measure number="6"/>
        <measure number="7"/>
        <measure number="8"/>
        <measure number="9"/>
        <measure number="10"/>
        <measure number="11"/>
        <measure width="194" number="12">
            <note>
                <rest/>
                <duration>20160</duration>
                <voice>1</voice>
                <type>half</type>
                <dot/>
            </note>
            <note>
                <pitch>
                    <step>G</step>
                    <octave>4</octave>
                </pitch>
                <duration>3360</duration>
                <voice>1</voice>
                <type>eighth</type>
                <stem default-y="14.37">up</stem>
                <beam number="1">begin</beam>
            </note>
            <note>
                <pitch>
                    <step>C</step>
                    <octave>5</octave>
                </pitch>
                <duration>3360</duration>
                <voice>1</voice>
                <type>eighth</type>
                <stem default-y="19.17">up</stem>
                <beam number="1">end</beam>
            </note>
            <note>
                <pitch>
                    <step>E</step>
                    <alter>-1</alter>
                    <octave>5</octave>
                </pitch>
                <duration>3360</duration>
                <voice>1</voice>
                <type>eighth</type>
                <stem default-y="-42.79">down</stem>
                <beam number="1">begin</beam>
            </note>
            <direction placement="below">
                <direction-type>
                    <words font-weight="normal" font-style="normal" font-size="15" font-family="Times New Roman" relative-x="-216.38" default-y="-127.62">C</words>
                </direction-type>
                <offset>-30240.00</offset>
            </direction>
            <direction placement="below">
                <direction-type>
                    <words font-weight="normal" font-style="normal" font-size="15" font-family="Times New Roman" relative-x="-126.19" default-y="-127.62">G</words>
                </direction-type>
                <offset>-30240.00</offset>
            </direction>
            <direction placement="below">
                <direction-type>
                    <words font-weight="normal" font-style="normal" font-size="15" font-family="Times New Roman" relative-x="4.42" default-y="-127.62">C</words>
                </direction-type>
                <offset>-30240.00</offset>
            </direction>
            <direction placement="below">
                <direction-type>
                    <words font-weight="normal" font-style="normal" font-size="15" font-family="Times New Roman" relative-x="2.27" default-y="-127.62">G</words>
                </direction-type>
                <offset>-10080.00</offset>
            </direction>
            <note>
                <pitch>
                    <step>F</step>
                    <octave>5</octave>
                </pitch>
                <duration>3360</duration>
                <voice>1</voice>
                <type>eighth</type>
                <stem default-y="-40.23">down</stem>
                <beam number="1">end</beam>
            </note>
        </measure>
        <measure width="310" number="13">
            <note>
                <pitch>
                    <step>F</step>
                    <alter>1</alter>
                    <octave>5</octave>
                </pitch>
                <duration>3360</duration>
                <voice>1</voice>
                <type>eighth</type>
                <accidental>sharp</accidental>
                <stem default-y="-30.35">down</stem>
                <beam number="1">begin</beam>
            </note>
            <note>
                <pitch>
                    <step>G</step>
                    <octave>5</octave>
                </pitch>
                <duration>3360</duration>
                <voice>1</voice>
                <type>eighth</type>
                <stem default-y="-27.91">down</stem>
                <beam number="1">end</beam>
            </note>
            <note>
                <pitch>
                    <step>F</step>
                    <alter>1</alter>
                    <octave>5</octave>
                </pitch>
                <duration>3360</duration>
                <voice>1</voice>
                <type>eighth</type>
                <stem default-y="-32.91">down</stem>
                <beam number="1">begin</beam>
            </note>
            <note>
                <pitch>
                    <step>F</step>
                    <octave>5</octave>
                </pitch>
                <duration>3360</duration>
                <voice>1</voice>
                <type>eighth</type>
                <accidental>natural</accidental>
                <stem default-y="-32.91">down</stem>
                <beam number="1">end</beam>
            </note>
            <note>
                <pitch>
                    <step>E</step>
                    <alter>-1</alter>
                    <octave>5</octave>
                </pitch>
                <duration>3360</duration>
                <voice>1</voice>
                <type>eighth</type>
                <stem default-y="-40.35">down</stem>
            </note>
            <note>
                <rest>
                    <display-step>A</display-step>
                    <display-octave>4</display-octave>
                </rest>
                <duration>3360</duration>
                <voice>1</voice>
                <type>eighth</type>
            </note>
            <note>
                <pitch>
                    <step>G</step>
                    <octave>4</octave>
                </pitch>
                <duration>3360</duration>
                <voice>1</voice>
                <type>eighth</type>
                <stem default-y="9.42">up</stem>
                <beam number="1">begin</beam>
            </note>
            <note>
                <pitch>
                    <step>A</step>
                    <alter>-1</alter>
                    <octave>4</octave>
                </pitch>
                <duration>1680</duration>
                <voice>1</voice>
                <type>16th</type>
                <stem default-y="9.42">up</stem>
                <beam number="1">continue</beam>
            </note>
            <note>
                <pitch>
                    <step>A</step>
                    <octave>4</octave>
                </pitch>
                <duration>1680</duration>
                <voice>1</voice>
                <type>16th</type>
                <accidental>natural</accidental>
                <stem default-y="9.42">up</stem>
                <beam number="1">end</beam>
            </note>
            <note>
                <pitch>
                    <step>B</step>
                    <alter>-1</alter>
                    <octave>4</octave>
                </pitch>
                <duration>3360</duration>
                <voice>1</voice>
                <type>eighth</type>
                <stem default-y="-55.23">down</stem>
            </note>
            <direction placement="below">
                <direction-type>
                    <words font-weight="normal" font-style="normal" font-size="15" font-family="Times New Roman" relative-x="1.37" default-y="-127.62">C</words>
                </direction-type>
                <offset>-30240.00</offset>
            </direction>
            <direction placement="below">
                <direction-type>
                    <words font-weight="normal" font-style="normal" font-size="15" font-family="Times New Roman" relative-x="-2.89" default-y="-127.62">G</words>
                </direction-type>
                <offset>-10080.00</offset>
            </direction>
            <note>
                <rest>
                    <display-step>A</display-step>
                    <display-octave>4</display-octave>
                </rest>
                <duration>3360</duration>
                <voice>1</voice>
                <type>eighth</type>
            </note>
        </measure>
        <measure width="218" number="14">
            <note>
                <pitch>
                    <step>C</step>
                    <octave>5</octave>
                </pitch>
                <duration>20160</duration>
                <voice>1</voice>
                <type>half</type>
                <dot/>
                <stem default-y="-50.23">down</stem>
            </note>
            <note>
                <pitch>
                    <step>D</step>
                    <octave>5</octave>
                </pitch>
                <duration>3360</duration>
                <voice>1</voice>
                <type>eighth</type>
                <stem default-y="-42.79">down</stem>
                <beam number="1">begin</beam>
            </note>
            <note>
                <pitch>
                    <step>E</step>
                    <alter>-1</alter>
                    <octave>5</octave>
                </pitch>
                <duration>3360</duration>
                <voice>1</voice>
                <type>eighth</type>
                <stem default-y="-44.42">down</stem>
                <beam number="1">continue</beam>
            </note>
            <note>
                <pitch>
                    <step>D</step>
                    <octave>5</octave>
                </pitch>
                <duration>3360</duration>
                <voice>1</voice>
                <type>eighth</type>
                <stem default-y="-46.16">down</stem>
                <beam number="1">continue</beam>
            </note>
            <note>
                <pitch>
                    <step>C</step>
                    <octave>5</octave>
                </pitch>
                <duration>3360</duration>
                <voice>1</voice>
                <type>eighth</type>
                <stem default-y="-47.79">down</stem>
                <beam number="1">end</beam>
            </note>
            <direction placement="below">
                <direction-type>
                    <words font-weight="normal" font-style="normal" font-size="15" font-family="Times New Roman" relative-x="-4.14" default-y="-127.62">C</words>
                </direction-type>
                <offset>-33600.00</offset>
            </direction>
            <direction placement="below">
                <direction-type>
                    <words font-weight="normal" font-style="normal" font-size="15" font-family="Times New Roman" relative-x="-7.57" default-y="-127.62">G</words>
                </direction-type>
                <offset>-13440.00</offset>
            </direction>
            <note>
                <pitch>
                    <step>B</step>
                    <alter>-1</alter>
                    <octave>4</octave>
                </pitch>
                <duration>6720</duration>
                <voice>1</voice>
                <type>quarter</type>
                <stem default-y="-55.23">down</stem>
            </note>
        </measure>
        <measure width="306" number="15">
            <print new-system="yes">
                <system-layout>
                    <system-margins>
                        <left-margin>49.962</left-margin>
                        <right-margin>14.624</right-margin>
                    </system-margins>
                    <system-distance>127.872</system-distance>
                </system-layout>
            </print>
            <attributes>
                <staff-details print-object="yes" number="1"/>
            </attributes>
            <note>
                <pitch>
                    <step>C</step>
                    <octave>5</octave>
                </pitch>
                <duration>20160</duration>
                <voice>1</voice>
                <type>half</type>
                <dot/>
                <stem default-y="-50.82">down</stem>
            </note>
            <note>
                <pitch>
                    <step>B</step>
                    <alter>-1</alter>
                    <octave>4</octave>
                </pitch>
                <duration>1680</duration>
                <voice>1</voice>
                <type>16th</type>
                <stem default-y="19.65">up</stem>
                <beam number="1">begin</beam>
            </note>
            <note>
                <pitch>
                    <step>C</step>
                    <octave>5</octave>
                </pitch>
                <duration>1680</duration>
                <voice>1</voice>
                <type>16th</type>
                <stem default-y="19.65">up</stem>
                <beam number="1">continue</beam>
            </note>
            <note>
                <pitch>
                    <step>B</step>
                    <alter>-1</alter>
                    <octave>4</octave>
                </pitch>
                <duration>1680</duration>
                <voice>1</voice>
                <type>16th</type>
                <stem default-y="19.65">up</stem>
                <beam number="1">continue</beam>
            </note>
            <note>
                <pitch>
                    <step>G</step>
                    <octave>4</octave>
                </pitch>
                <duration>1680</duration>
                <voice>1</voice>
                <type>16th</type>
                <stem default-y="19.65">up</stem>
                <beam number="1">end</beam>
            </note>
            <note>
                <pitch>
                    <step>F</step>
                    <octave>4</octave>
                </pitch>
                <duration>6720</duration>
                <voice>1</voice>
                <type>quarter</type>
                <stem default-y="-0.35">up</stem>
            </note>
        </measure>
        <measure width="191" number="16">
            <note>
                <pitch>
                    <step>G</step>
                    <octave>4</octave>
                </pitch>
                <duration>20160</duration>
                <voice>1</voice>
                <type>half</type>
                <dot/>
                <stem default-y="4.71">up</stem>
            </note>
            <note>
                <pitch>
                    <step>G</step>
                    <octave>4</octave>
                </pitch>
                <duration>3360</duration>
                <voice>1</voice>
                <type>eighth</type>
                <stem default-y="14.66">up</stem>
                <beam number="1">begin</beam>
            </note>
            <note>
                <pitch>
                    <step>C</step>
                    <octave>5</octave>
                </pitch>
                <duration>3360</duration>
                <voice>1</voice>
                <type>eighth</type>
                <stem default-y="19.39">up</stem>
                <beam number="1">end</beam>
            </note>
            <note>
                <pitch>
                    <step>E</step>
                    <alter>-1</alter>
                    <octave>5</octave>
                </pitch>
                <duration>3360</duration>
                <voice>1</voice>
                <type>eighth</type>
                <stem default-y="-43.18">down</stem>
                <beam number="1">begin</beam>
            </note>
            <note>
                <pitch>
                    <step>F</step>
                    <octave>5</octave>
                </pitch>
                <duration>3360</duration>
                <voice>1</voice>
                <type>eighth</type>
                <stem default-y="-40.71">down</stem>
                <beam number="1">end</beam>
            </note>
        </measure>
        <measure width="308" number="17">
            <note>
                <pitch>
                    <step>F</step>
                    <alter>1</alter>
                    <octave>5</octave>
                </pitch>
                <duration>3360</duration>
                <voice>1</voice>
                <type>eighth</type>
                <accidental>sharp</accidental>
                <stem default-y="-30.59">down</stem>
                <beam number="1">begin</beam>
            </note>
            <note>
                <pitch>
                    <step>G</step>
                    <octave>5</octave>
                </pitch>
                <duration>3360</duration>
                <voice>1</voice>
                <type>eighth</type>
                <stem default-y="-28.12">down</stem>
                <beam number="1">end</beam>
            </note>
            <note>
                <pitch>
                    <step>F</step>
                    <alter>1</alter>
                    <octave>5</octave>
                </pitch>
                <duration>3360</duration>
                <voice>1</voice>
                <type>eighth</type>
                <stem default-y="-33.18">down</stem>
                <beam number="1">begin</beam>
            </note>
            <note>
                <pitch>
                    <step>F</step>
                    <octave>5</octave>
                </pitch>
                <duration>3360</duration>
                <voice>1</voice>
                <type>eighth</type>
                <accidental>natural</accidental>
                <stem default-y="-33.18">down</stem>
                <beam number="1">end</beam>
            </note>
            <note>
                <pitch>
                    <step>E</step>
                    <alter>-1</alter>
                    <octave>5</octave>
                </pitch>
                <duration>3360</duration>
                <voice>1</voice>
                <type>eighth</type>
                <stem default-y="-40.71">down</stem>
            </note>
            <note>
                <rest>
                    <display-step>A</display-step>
                    <display-octave>4</display-octave>
                </rest>
                <duration>3360</duration>
                <voice>1</voice>
                <type>eighth</type>
            </note>
            <note>
                <pitch>
                    <step>G</step>
                    <octave>4</octave>
                </pitch>
                <duration>3360</duration>
                <voice>1</voice>
                <type>eighth</type>
                <stem default-y="9.65">up</stem>
                <beam number="1">begin</beam>
            </note>
            <note>
                <pitch>
                    <step>A</step>
                    <alter>-1</alter>
                    <octave>4</octave>
                </pitch>
                <duration>1680</duration>
                <voice>1</voice>
                <type>16th</type>
                <stem default-y="9.65">up</stem>
                <beam number="1">continue</beam>
            </note>
            <note>
                <pitch>
                    <step>A</step>
                    <octave>4</octave>
                </pitch>
                <duration>1680</duration>
                <voice>1</voice>
                <type>16th</type>
                <accidental>natural</accidental>
                <stem default-y="9.65">up</stem>
                <beam number="1">end</beam>
            </note>
            <note>
                <pitch>
                    <step>B</step>
                    <alter>-1</alter>
                    <octave>4</octave>
                </pitch>
                <duration>3360</duration>
                <voice>1</voice>
                <type>eighth</type>
                <stem default-y="-55.76">down</stem>
            </note>
            <note>
                <rest>
                    <display-step>A</display-step>
                    <display-octave>4</display-octave>
                </rest>
                <duration>3360</duration>
                <voice>1</voice>
                <type>eighth</type>
            </note>
        </measure>
        <measure width="217" number="18">
            <note>
                <pitch>
                    <step>C</step>
                    <octave>5</octave>
                </pitch>
                <duration>20160</duration>
                <voice>1</voice>
                <type>half</type>
                <dot/>
                <stem default-y="-50.82">down</stem>
            </note>
            <note>
                <pitch>
                    <step>B</step>
                    <alter>-1</alter>
                    <octave>4</octave>
                </pitch>
                <duration>1680</duration>
                <voice>1</voice>
                <type>16th</type>
                <stem default-y="19.65">up</stem>
                <beam number="1">begin</beam>
            </note>
            <note>
                <pitch>
                    <step>C</step>
                    <octave>5</octave>
                </pitch>
                <duration>1680</duration>
                <voice>1</voice>
                <type>16th</type>
                <stem default-y="19.65">up</stem>
                <beam number="1">continue</beam>
            </note>
            <note>
                <pitch>
                    <step>B</step>
                    <alter>-1</alter>
                    <octave>4</octave>
                </pitch>
                <duration>1680</duration>
                <voice>1</voice>
                <type>16th</type>
                <stem default-y="19.65">up</stem>
                <beam number="1">continue</beam>
            </note>
            <note>
                <pitch>
                    <step>G</step>
                    <octave>4</octave>
                </pitch>
                <duration>1680</duration>
                <voice>1</voice>
                <type>16th</type>
                <stem default-y="19.65">up</stem>
                <beam number="1">end</beam>
            </note>
            <note>
                <pitch>
                    <step>F</step>
                    <octave>4</octave>
                </pitch>
                <duration>6720</duration>
                <voice>1</voice>
                <type>quarter</type>
                <stem default-y="-0.35">up</stem>
            </note>
        </measure>
        <measure width="312" number="19">
            <print new-system="yes">
                <system-layout>
                    <system-margins>
                        <left-margin>49.962</left-margin>
                        <right-margin>14.624</right-margin>
                    </system-margins>
                    <system-distance>131.148</system-distance>
                </system-layout>
            </print>
            <attributes>
                <staff-details print-object="yes" number="1"/>
            </attributes>
            <direction placement="above">
                <direction-type>
                    <words font-weight="normal" font-style="normal" font-size="15" font-family="Times New Roman" relative-x="-8.58" default-y="39.13">C</words>
                </direction-type>
            </direction>
            <note>
                <pitch>
                    <step>G</step>
                    <octave>4</octave>
                </pitch>
                <duration>20160</duration>
                <voice>1</voice>
                <type>half</type>
                <dot/>
                <stem default-y="4.53">up</stem>
            </note>
            <direction placement="above">
                <direction-type>
                    <words font-weight="normal" font-style="normal" font-size="17" font-family="Times New Roman" relative-x="7.00" default-y="39.13">-</words>
                </direction-type>
                <offset>-20160.00</offset>
            </direction>
            <direction placement="above">
                <direction-type>
                    <words font-weight="normal" font-style="normal" font-size="15" font-family="Times New Roman" relative-x="-9.25" default-y="39.13">G</words>
                </direction-type>
            </direction>
            <note>
                <pitch>
                    <step>D</step>
                    <octave>5</octave>
                </pitch>
                <duration>3360</duration>
                <voice>1</voice>
                <type>eighth</type>
                <stem default-y="-42.79">down</stem>
                <beam number="1">begin</beam>
            </note>
            <direction placement="above">
                <direction-type>
                    <words font-weight="normal" font-style="normal" font-size="17" font-family="Times New Roman" relative-x="7.47" default-y="39.13">-</words>
                </direction-type>
                <offset>-3360.00</offset>
            </direction>
            <note>
                <pitch>
                    <step>E</step>
                    <alter>-1</alter>
                    <octave>5</octave>
                </pitch>
                <duration>3360</duration>
                <voice>1</voice>
                <type>eighth</type>
                <stem default-y="-44.53">down</stem>
                <beam number="1">continue</beam>
            </note>
            <note>
                <pitch>
                    <step>D</step>
                    <octave>5</octave>
                </pitch>
                <duration>3360</duration>
                <voice>1</voice>
                <type>eighth</type>
                <stem default-y="-46.16">down</stem>
                <beam number="1">continue</beam>
            </note>
            <note>
                <pitch>
                    <step>C</step>
                    <octave>5</octave>
                </pitch>
                <duration>3360</duration>
                <voice>1</voice>
                <type>eighth</type>
                <stem default-y="-47.79">down</stem>
                <beam number="1">end</beam>
            </note>
            <direction placement="below">
                <direction-type>
                    <words font-weight="normal" font-style="normal" font-size="15" font-family="Times New Roman" relative-x="-4.29" default-y="-126.80">F</words>
                </direction-type>
                <offset>-33600.00</offset>
            </direction>
            <direction placement="below">
                <direction-type>
                    <words font-weight="normal" font-style="normal" font-size="15" font-family="Times New Roman" relative-x="-2.00" default-y="-126.80">Bb7</words>
                </direction-type>
                <offset>-3360.00</offset>
            </direction>
            <note>
                <pitch>
                    <step>B</step>
                    <alter>-1</alter>
                    <octave>4</octave>
                </pitch>
                <duration>6720</duration>
                <voice>1</voice>
                <type>quarter</type>
                <stem default-y="-55.23">down</stem>
            </note>
        </measure>
        <measure width="173" number="20">
            <direction placement="above">
                <direction-type>
                    <words font-weight="normal" font-style="normal" font-size="15" font-family="Times New Roman" relative-x="-8.53" default-y="39.13">C</words>
                </direction-type>
            </direction>
            <note>
                <pitch>
                    <step>C</step>
                    <octave>5</octave>
                </pitch>
                <duration>26880</duration>
                <voice>1</voice>
                <type>whole</type>
                <stem>none</stem>
            </note>
            <direction placement="above">
                <direction-type>
                    <words font-weight="normal" font-style="normal" font-size="17" font-family="Times New Roman" relative-x="7.05" default-y="39.13">-</words>
                </direction-type>
                <offset>-26880.00</offset>
            </direction>
            <direction placement="above">
                <direction-type>
                    <words font-weight="normal" font-style="normal" font-size="15" font-family="Times New Roman" relative-x="-30.24" default-y="37.97">G</words>
                </direction-type>
            </direction>
            <direction placement="above">
                <direction-type>
                    <words font-weight="normal" font-style="normal" font-size="17" font-family="Times New Roman" relative-x="-13.52" default-y="37.97">-</words>
                </direction-type>
            </direction>
            <direction placement="below">
                <direction-type>
                    <words font-weight="normal" font-style="normal" font-size="15" font-family="Times New Roman" relative-x="60.35" default-y="-126.80">Eb</words>
                </direction-type>
                <offset>-26880.00</offset>
            </direction>
            <note>
                <rest>
                    <display-step>B</display-step>
                    <display-octave>4</display-octave>
                </rest>
                <duration>6720</duration>
                <voice>1</voice>
                <type>quarter</type>
            </note>
            <barline location="right">
                <bar-style>light-light</bar-style>
            </barline>
        </measure>
        <measure width="266" number="21">
            <direction placement="above">
                <direction-type>
                    <words font-weight="normal" font-style="normal" font-size="15" font-family="Times New Roman" relative-x="-12.31" default-y="39.13">Ab</words>
                </direction-type>
            </direction>
            <note>
                <pitch>
                    <step>C</step>
                    <octave>6</octave>
                </pitch>
                <duration>3360</duration>
                <voice>1</voice>
                <type>eighth</type>
                <stem default-y="-20.47">down</stem>
            </note>
            <note>
                <pitch>
                    <step>E</step>
                    <alter>-1</alter>
                    <octave>6</octave>
                </pitch>
                <duration>6720</duration>
                <voice>1</voice>
                <type>quarter</type>
                <stem default-y="-20.47">down</stem>
            </note>
            <note>
                <pitch>
                    <step>C</step>
                    <octave>6</octave>
                </pitch>
                <duration>3360</duration>
                <voice>1</voice>
                <type>eighth</type>
                <stem default-y="-20.47">down</stem>
            </note>
            <note>
                <pitch>
                    <step>A</step>
                    <alter>-1</alter>
                    <octave>5</octave>
                </pitch>
                <duration>6720</duration>
                <voice>1</voice>
                <type>quarter</type>
                <stem default-y="-25.47">down</stem>
            </note>
            <direction placement="above">
                <direction-type>
                    <words font-weight="normal" font-style="normal" font-size="15" font-family="Times New Roman" relative-x="-6.82" default-y="39.13">F</words>
                </direction-type>
            </direction>
            <note>
                <pitch>
                    <step>F</step>
                    <octave>5</octave>
                </pitch>
                <duration>3360</duration>
                <voice>1</voice>
                <type>eighth</type>
                <stem default-y="-30.35">down</stem>
                <beam number="1">begin</beam>
            </note>
            <direction placement="above">
                <direction-type>
                    <words font-weight="normal" font-style="normal" font-size="17" font-family="Times New Roman" relative-x="4.83" default-y="39.13">-</words>
                </direction-type>
                <offset>-3360.00</offset>
            </direction>
            <note>
                <pitch>
                    <step>G</step>
                    <octave>5</octave>
                </pitch>
                <duration>3360</duration>
                <voice>1</voice>
                <type>eighth</type>
                <stem default-y="-27.91">down</stem>
                <beam number="1">end</beam>
            </note>
            <note>
                <pitch>
                    <step>A</step>
                    <alter>-1</alter>
                    <octave>5</octave>
                </pitch>
                <duration>3360</duration>
                <voice>1</voice>
                <type>eighth</type>
                <stem default-y="-22.91">down</stem>
                <beam number="1">begin</beam>
            </note>
            <direction placement="below">
                <direction-type>
                    <words font-weight="normal" font-style="normal" font-size="15" font-family="Times New Roman" relative-x="-10.27" default-y="-126.80">Ab</words>
                </direction-type>
            </direction>
            <note>
                <pitch>
                    <step>A</step>
                    <octave>5</octave>
                </pitch>
                <duration>3360</duration>
                <voice>1</voice>
                <type>eighth</type>
                <accidental>natural</accidental>
                <stem default-y="-22.91">down</stem>
                <beam number="1">end</beam>
            </note>
        </measure>
        <measure width="259" number="22">
            <direction placement="above">
                <direction-type>
                    <words font-weight="normal" font-style="normal" font-size="15" font-family="Times New Roman" relative-x="-9.37" default-y="39.13">G</words>
                </direction-type>
            </direction>
            <note>
                <pitch>
                    <step>B</step>
                    <alter>-1</alter>
                    <octave>5</octave>
                </pitch>
                <duration>3360</duration>
                <voice>1</voice>
                <type>eighth</type>
                <stem default-y="-20.47">down</stem>
            </note>
            <direction placement="above">
                <direction-type>
                    <words font-weight="normal" font-style="normal" font-size="17" font-family="Times New Roman" relative-x="7.47" default-y="39.13">-</words>
                </direction-type>
                <offset>-3360.00</offset>
            </direction>
            <note>
                <pitch>
                    <step>D</step>
                    <octave>6</octave>
                </pitch>
                <duration>6720</duration>
                <voice>1</voice>
                <type>quarter</type>
                <stem default-y="-20.47">down</stem>
            </note>
            <note>
                <pitch>
                    <step>B</step>
                    <alter>-1</alter>
                    <octave>5</octave>
                </pitch>
                <duration>3360</duration>
                <voice>1</voice>
                <type>eighth</type>
                <stem default-y="-20.47">down</stem>
            </note>
            <note>
                <pitch>
                    <step>G</step>
                    <octave>5</octave>
                </pitch>
                <duration>6720</duration>
                <voice>1</voice>
                <type>quarter</type>
                <stem default-y="-30.47">down</stem>
            </note>
            <direction placement="above">
                <direction-type>
                    <words font-weight="normal" font-style="normal" font-size="15" font-family="Times New Roman" relative-x="-8.59" default-y="39.13">C</words>
                </direction-type>
            </direction>
            <note>
                <pitch>
                    <step>E</step>
                    <alter>-1</alter>
                    <octave>5</octave>
                </pitch>
                <duration>3360</duration>
                <voice>1</voice>
                <type>eighth</type>
                <stem default-y="-42.79">down</stem>
                <beam number="1">begin</beam>
            </note>
            <direction placement="above">
                <direction-type>
                    <words font-weight="normal" font-style="normal" font-size="17" font-family="Times New Roman" relative-x="6.99" default-y="39.13">-</words>
                </direction-type>
                <offset>-3360.00</offset>
            </direction>
            <note>
                <pitch>
                    <step>F</step>
                    <octave>5</octave>
                </pitch>
                <duration>3360</duration>
                <voice>1</voice>
                <type>eighth</type>
                <stem default-y="-40.35">down</stem>
                <beam number="1">end</beam>
            </note>
            <note>
                <pitch>
                    <step>F</step>
                    <alter>1</alter>
                    <octave>5</octave>
                </pitch>
                <duration>3360</duration>
                <voice>1</voice>
                <type>eighth</type>
                <accidental>sharp</accidental>
                <stem default-y="-30.35">down</stem>
                <beam number="1">begin</beam>
            </note>
            <direction placement="below">
                <direction-type>
                    <words font-weight="normal" font-style="normal" font-size="15" font-family="Times New Roman" relative-x="-21.34" default-y="-126.80">F</words>
                </direction-type>
                <offset>-10080.00</offset>
            </direction>
            <note>
                <pitch>
                    <step>G</step>
                    <octave>5</octave>
                </pitch>
                <duration>3360</duration>
                <voice>1</voice>
                <type>eighth</type>
                <stem default-y="-27.91">down</stem>
                <beam number="1">end</beam>
            </note>
        </measure>
        <measure width="386" number="23">
            <print new-system="yes">
                <system-layout>
                    <system-margins>
                        <left-margin>49.962</left-margin>
                        <right-margin>14.624</right-margin>
                    </system-margins>
                    <system-distance>127.053</system-distance>
                </system-layout>
            </print>
            <attributes>
                <staff-details print-object="yes" number="1"/>
            </attributes>
            <note>
                <pitch>
                    <step>A</step>
                    <alter>-1</alter>
                    <octave>5</octave>
                </pitch>
                <duration>3360</duration>
                <voice>1</voice>
                <type>eighth</type>
                <stem default-y="-25.65">down</stem>
            </note>
            <note>
                <pitch>
                    <step>C</step>
                    <octave>6</octave>
                </pitch>
                <duration>6720</duration>
                <voice>1</voice>
                <type>quarter</type>
                <stem default-y="-20.59">down</stem>
            </note>
            <note>
                <pitch>
                    <step>A</step>
                    <alter>-1</alter>
                    <octave>5</octave>
                </pitch>
                <duration>3360</duration>
                <voice>1</voice>
                <type>eighth</type>
                <stem default-y="-25.65">down</stem>
            </note>
            <note>
                <pitch>
                    <step>F</step>
                    <octave>5</octave>
                </pitch>
                <duration>6720</duration>
                <voice>1</voice>
                <type>quarter</type>
                <stem default-y="-35.76">down</stem>
            </note>
            <note>
                <pitch>
                    <step>D</step>
                    <octave>5</octave>
                </pitch>
                <duration>3360</duration>
                <voice>1</voice>
                <type>eighth</type>
                <stem default-y="-43.29">down</stem>
                <beam number="1">begin</beam>
            </note>
            <note>
                <pitch>
                    <step>E</step>
                    <alter>-1</alter>
                    <octave>5</octave>
                </pitch>
                <duration>3360</duration>
                <voice>1</voice>
                <type>eighth</type>
                <stem default-y="-38.24">down</stem>
                <beam number="1">end</beam>
            </note>
            <note>
                <pitch>
                    <step>F</step>
                    <octave>5</octave>
                </pitch>
                <duration>3360</duration>
                <voice>1</voice>
                <type>eighth</type>
                <stem default-y="-33.18">down</stem>
                <beam number="1">begin</beam>
            </note>
            <note>
                <pitch>
                    <step>F</step>
                    <alter>1</alter>
                    <octave>5</octave>
                </pitch>
                <duration>3360</duration>
                <voice>1</voice>
                <type>eighth</type>
                <accidental>sharp</accidental>
                <stem default-y="-33.18">down</stem>
                <beam number="1">end</beam>
            </note>
        </measure>
        <measure width="336" number="24">
            <note>
                <pitch>
                    <step>G</step>
                    <octave>5</octave>
                </pitch>
                <duration>3360</duration>
                <voice>1</voice>
                <type>eighth</type>
                <stem default-y="-28.12">down</stem>
                <beam number="1">begin</beam>
            </note>
            <note>
                <pitch>
                    <step>F</step>
                    <alter>1</alter>
                    <octave>5</octave>
                </pitch>
                <duration>3360</duration>
                <voice>1</voice>
                <type>eighth</type>
                <accidental>sharp</accidental>
                <stem default-y="-30.59">down</stem>
                <beam number="1">end</beam>
            </note>
            <note>
                <pitch>
                    <step>G</step>
                    <octave>5</octave>
                </pitch>
                <duration>3360</duration>
                <voice>1</voice>
                <type>eighth</type>
                <stem default-y="-33.18">down</stem>
                <beam number="1">begin</beam>
            </note>
            <note>
                <pitch>
                    <step>A</step>
                    <alter>-1</alter>
                    <octave>5</octave>
                </pitch>
                <duration>3360</duration>
                <voice>1</voice>
                <type>eighth</type>
                <stem default-y="-30.59">down</stem>
                <beam number="1">end</beam>
            </note>
            <note>
                <pitch>
                    <step>B</step>
                    <alter>-1</alter>
                    <octave>5</octave>
                </pitch>
                <duration>6720</duration>
                <voice>1</voice>
                <type>quarter</type>
                <stem default-y="-20.59">down</stem>
            </note>
            <note>
                <pitch>
                    <step>B</step>
                    <alter>-1</alter>
                    <octave>5</octave>
                </pitch>
                <duration>3360</duration>
                <voice>1</voice>
                <type>eighth</type>
                <stem default-y="-18.00">down</stem>
                <beam number="1">begin</beam>
            </note>
            <note>
                <pitch>
                    <step>A</step>
                    <octave>5</octave>
                </pitch>
                <duration>3360</duration>
                <voice>1</voice>
                <type>eighth</type>
                <accidental>natural</accidental>
                <stem default-y="-20.59">down</stem>
                <beam number="1">end</beam>
            </note>
            <note>
                <pitch>
                    <step>B</step>
                    <alter>-1</alter>
                    <octave>5</octave>
                </pitch>
                <duration>3360</duration>
                <voice>1</voice>
                <type>eighth</type>
                <stem default-y="-18.12">down</stem>
                <beam number="1">begin</beam>
            </note>
            <note>
                <pitch>
                    <step>B</step>
                    <octave>5</octave>
                </pitch>
                <duration>3360</duration>
                <voice>1</voice>
                <type>eighth</type>
                <accidental>natural</accidental>
                <stem default-y="-18.12">down</stem>
                <beam number="1">end</beam>
            </note>
        </measure>
        <measure width="300" number="25">
            <note>
                <pitch>
                    <step>C</step>
                    <octave>6</octave>
                </pitch>
                <duration>3360</duration>
                <voice>1</voice>
                <type>eighth</type>
                <stem default-y="-20.59">down</stem>
            </note>
            <note>
                <pitch>
                    <step>E</step>
                    <alter>-1</alter>
                    <octave>6</octave>
                </pitch>
                <duration>6720</duration>
                <voice>1</voice>
                <type>quarter</type>
                <stem default-y="-20.59">down</stem>
            </note>
            <note>
                <pitch>
                    <step>C</step>
                    <octave>6</octave>
                </pitch>
                <duration>3360</duration>
                <voice>1</voice>
                <type>eighth</type>
                <stem default-y="-20.59">down</stem>
            </note>
            <note>
                <pitch>
                    <step>A</step>
                    <alter>-1</alter>
                    <octave>5</octave>
                </pitch>
                <duration>6720</duration>
                <voice>1</voice>
                <type>quarter</type>
                <stem default-y="-25.65">down</stem>
            </note>
            <note>
                <pitch>
                    <step>F</step>
                    <octave>5</octave>
                </pitch>
                <duration>3360</duration>
                <voice>1</voice>
                <type>eighth</type>
                <stem default-y="-30.59">down</stem>
                <beam number="1">begin</beam>
            </note>
            <note>
                <pitch>
                    <step>G</step>
                    <octave>5</octave>
                </pitch>
                <duration>3360</duration>
                <voice>1</voice>
                <type>eighth</type>
                <stem default-y="-28.12">down</stem>
                <beam number="1">end</beam>
            </note>
            <note>
                <pitch>
                    <step>A</step>
                    <alter>-1</alter>
                    <octave>5</octave>
                </pitch>
                <duration>3360</duration>
                <voice>1</voice>
                <type>eighth</type>
                <stem default-y="-23.18">down</stem>
                <beam number="1">begin</beam>
            </note>
            <note>
                <pitch>
                    <step>A</step>
                    <octave>5</octave>
                </pitch>
                <duration>3360</duration>
                <voice>1</voice>
                <type>eighth</type>
                <accidental>natural</accidental>
                <stem default-y="-23.18">down</stem>
                <beam number="1">end</beam>
            </note>
        </measure>
        <measure width="322" number="26">
            <print new-system="yes">
                <system-layout>
                    <system-margins>
                        <left-margin>49.962</left-margin>
                        <right-margin>14.624</right-margin>
                    </system-margins>
                    <system-distance>133.253</system-distance>
                </system-layout>
            </print>
            <attributes>
                <staff-details print-object="yes" number="1"/>
            </attributes>
            <direction placement="above">
                <direction-type>
                    <words font-weight="normal" font-style="normal" font-size="15" font-family="Times New Roman" relative-x="-9.25" default-y="39.13">G</words>
                </direction-type>
            </direction>
            <note>
                <pitch>
                    <step>B</step>
                    <alter>-1</alter>
                    <octave>5</octave>
                </pitch>
                <duration>3360</duration>
                <voice>1</voice>
                <type>eighth</type>
                <stem default-y="-20.47">down</stem>
            </note>
            <direction placement="above">
                <direction-type>
                    <words font-weight="normal" font-style="normal" font-size="17" font-family="Times New Roman" relative-x="7.47" default-y="39.13">-</words>
                </direction-type>
                <offset>-3360.00</offset>
            </direction>
            <note>
                <pitch>
                    <step>D</step>
                    <octave>6</octave>
                </pitch>
                <duration>6720</duration>
                <voice>1</voice>
                <type>quarter</type>
                <stem default-y="-20.47">down</stem>
            </note>
            <note>
                <pitch>
                    <step>B</step>
                    <alter>-1</alter>
                    <octave>5</octave>
                </pitch>
                <duration>3360</duration>
                <voice>1</voice>
                <type>eighth</type>
                <stem default-y="-20.47">down</stem>
            </note>
            <note>
                <pitch>
                    <step>G</step>
                    <octave>5</octave>
                </pitch>
                <duration>6720</duration>
                <voice>1</voice>
                <type>quarter</type>
                <stem default-y="-30.47">down</stem>
            </note>
            <direction placement="above">
                <direction-type>
                    <words font-weight="normal" font-style="normal" font-size="15" font-family="Times New Roman" relative-x="-8.59" default-y="39.13">C</words>
                </direction-type>
            </direction>
            <note>
                <pitch>
                    <step>E</step>
                    <alter>-1</alter>
                    <octave>5</octave>
                </pitch>
                <duration>3360</duration>
                <voice>1</voice>
                <type>eighth</type>
                <stem default-y="-42.79">down</stem>
                <beam number="1">begin</beam>
            </note>
            <direction placement="above">
                <direction-type>
                    <words font-weight="normal" font-style="normal" font-size="17" font-family="Times New Roman" relative-x="6.99" default-y="39.13">-</words>
                </direction-type>
                <offset>-3360.00</offset>
            </direction>
            <note>
                <pitch>
                    <step>F</step>
                    <octave>5</octave>
                </pitch>
                <duration>3360</duration>
                <voice>1</voice>
                <type>eighth</type>
                <stem default-y="-40.23">down</stem>
                <beam number="1">end</beam>
            </note>
            <note>
                <pitch>
                    <step>F</step>
                    <alter>1</alter>
                    <octave>5</octave>
                </pitch>
                <duration>3360</duration>
                <voice>1</voice>
                <type>eighth</type>
                <accidental>sharp</accidental>
                <stem default-y="-30.35">down</stem>
                <beam number="1">begin</beam>
            </note>
            <direction placement="below">
                <direction-type>
                    <words font-weight="normal" font-style="normal" font-size="15" font-family="Times New Roman" relative-x="-11.11" default-y="-120.99">C</words>
                </direction-type>
                <offset>-30240.00</offset>
            </direction>
            <direction placement="below">
                <direction-type>
                    <words font-weight="normal" font-style="normal" font-size="15" font-family="Times New Roman" relative-x="-5.41" default-y="-120.99">G</words>
                </direction-type>
                <offset>-16800.00</offset>
            </direction>
            <direction placement="below">
                <direction-type>
                    <words font-weight="normal" font-style="normal" font-size="15" font-family="Times New Roman" relative-x="7.25" default-y="-120.99">C</words>
                </direction-type>
            </direction>
            <note>
                <pitch>
                    <step>G</step>
                    <octave>5</octave>
                </pitch>
                <duration>3360</duration>
                <voice>1</voice>
                <type>eighth</type>
                <stem default-y="-27.91">down</stem>
                <beam number="1">end</beam>
            </note>
        </measure>
        <measure width="224" number="27">
            <direction placement="above">
                <direction-type>
                    <words font-weight="normal" font-style="normal" font-size="15" font-family="Times New Roman" relative-x="-6.94" default-y="39.13">F</words>
                </direction-type>
            </direction>
            <note>
                <pitch>
                    <step>A</step>
                    <alter>-1</alter>
                    <octave>5</octave>
                </pitch>
                <duration>3360</duration>
                <voice>1</voice>
                <type>eighth</type>
                <stem default-y="-25.47">down</stem>
            </note>
            <direction placement="above">
                <direction-type>
                    <words font-weight="normal" font-style="normal" font-size="17" font-family="Times New Roman" relative-x="4.83" default-y="39.13">-</words>
                </direction-type>
                <offset>-3360.00</offset>
            </direction>
            <note>
                <pitch>
                    <step>C</step>
                    <octave>6</octave>
                </pitch>
                <duration>6720</duration>
                <voice>1</voice>
                <type>quarter</type>
                <stem default-y="-20.47">down</stem>
            </note>
            <note>
                <pitch>
                    <step>A</step>
                    <alter>-1</alter>
                    <octave>5</octave>
                </pitch>
                <duration>3360</duration>
                <voice>1</voice>
                <type>eighth</type>
                <stem default-y="-25.47">down</stem>
            </note>
            <note>
                <pitch>
                    <step>F</step>
                    <octave>5</octave>
                </pitch>
                <duration>6720</duration>
                <voice>1</voice>
                <type>quarter</type>
                <stem default-y="-35.35">down</stem>
            </note>
            <direction placement="above">
                <direction-type>
                    <words font-weight="normal" font-style="normal" font-size="15" font-family="Times New Roman" relative-x="-12.20" default-y="39.13">Bb7</words>
                </direction-type>
            </direction>
            <note>
                <pitch>
                    <step>D</step>
                    <octave>5</octave>
                </pitch>
                <duration>3360</duration>
                <voice>1</voice>
                <type>eighth</type>
                <stem default-y="-42.79">down</stem>
                <beam number="1">begin</beam>
            </note>
            <note>
                <pitch>
                    <step>F</step>
                    <octave>5</octave>
                </pitch>
                <duration>3360</duration>
                <voice>1</voice>
                <type>eighth</type>
                <stem default-y="-37.79">down</stem>
                <beam number="1">end</beam>
            </note>
            <note>
                <pitch>
                    <step>B</step>
                    <alter>-1</alter>
                    <octave>5</octave>
                </pitch>
                <duration>3360</duration>
                <voice>1</voice>
                <type>eighth</type>
                <stem default-y="-17.91">down</stem>
                <beam number="1">begin</beam>
            </note>
            <direction placement="below">
                <direction-type>
                    <words font-weight="normal" font-style="normal" font-size="15" font-family="Times New Roman" relative-x="-0.01" default-y="-120.99">G</words>
                </direction-type>
                <offset>-20160.00</offset>
            </direction>
            <direction placement="below">
                <direction-type>
                    <words font-weight="normal" font-style="normal" font-size="15" font-family="Times New Roman" relative-x="-1.63" default-y="-120.99">C</words>
                </direction-type>
            </direction>
            <note>
                <pitch>
                    <step>A</step>
                    <alter>-1</alter>
                    <octave>5</octave>
                </pitch>
                <duration>3360</duration>
                <voice>1</voice>
                <type>eighth</type>
                <stem default-y="-20.35">down</stem>
                <beam number="1">end</beam>
            </note>
        </measure>
        <measure width="178" number="28">
            <direction placement="above">
                <direction-type>
                    <words font-weight="normal" font-style="normal" font-size="15" font-family="Times New Roman" relative-x="-9.48" default-y="39.13">D</words>
                </direction-type>
            </direction>
            <note>
                <pitch>
                    <step>G</step>
                    <octave>5</octave>
                </pitch>
                <duration>20160</duration>
                <voice>1</voice>
                <type>half</type>
                <dot/>
                <stem default-y="-30.47">down</stem>
            </note>
            <direction placement="above">
                <direction-type>
                    <words font-weight="normal" font-style="normal" font-size="17" font-family="Times New Roman" relative-x="7.48" default-y="39.13">-</words>
                </direction-type>
                <offset>-20160.00</offset>
            </direction>
            <direction placement="above">
                <direction-type>
                    <words font-weight="normal" font-style="normal" font-size="15" font-family="Times New Roman" relative-x="-8.05" default-y="39.13">G</words>
                </direction-type>
            </direction>
            <note>
                <pitch>
                    <step>G</step>
                    <octave>4</octave>
                </pitch>
                <duration>960</duration>
                <voice>1</voice>
                <type>eighth</type>
                <time-modification>
                    <actual-notes>7</actual-notes>
                    <normal-notes>2</normal-notes>
                </time-modification>
                <stem default-y="14.37">up</stem>
                <beam number="1">begin</beam>
                <notations>
                    <tuplet type="start" bracket="no"/>
                </notations>
            </note>
            <note>
                <pitch>
                    <step>C</step>
                    <octave>5</octave>
                </pitch>
                <duration>960</duration>
                <voice>1</voice>
                <type>eighth</type>
                <time-modification>
                    <actual-notes>7</actual-notes>
                    <normal-notes>2</normal-notes>
                </time-modification>
                <stem default-y="19.15">up</stem>
                <beam number="1">end</beam>
                <notations>
                    <tuplet type="stop"/>
                </notations>
            </note>
            <note>
                <pitch>
                    <step>E</step>
                    <alter>-1</alter>
                    <octave>5</octave>
                </pitch>
                <duration>3360</duration>
                <voice>1</voice>
                <type>eighth</type>
                <stem default-y="-42.79">down</stem>
                <beam number="1">begin</beam>
            </note>
            <direction placement="below">
                <direction-type>
                    <words font-weight="normal" font-style="normal" font-size="15" font-family="Times New Roman" relative-x="-30.61" default-y="-120.99">G</words>
                </direction-type>
                <offset>-5280.00</offset>
            </direction>
            <note>
                <pitch>
                    <step>F</step>
                    <octave>5</octave>
                </pitch>
                <duration>3360</duration>
                <voice>1</voice>
                <type>eighth</type>
                <stem default-y="-40.23">down</stem>
                <beam number="1">end</beam>
            </note>
            <barline location="right">
                <bar-style>light-light</bar-style>
            </barline>
        </measure>
        <measure width="285" number="29">
            <direction placement="above">
                <direction-type>
                    <words font-weight="normal" font-style="normal" font-size="15" font-family="Times New Roman" relative-x="-8.59" default-y="39.13">C</words>
                </direction-type>
            </direction>
            <note>
                <pitch>
                    <step>F</step>
                    <alter>1</alter>
                    <octave>5</octave>
                </pitch>
                <duration>3360</duration>
                <voice>1</voice>
                <type>eighth</type>
                <accidental>sharp</accidental>
                <stem default-y="-30.35">down</stem>
                <beam number="1">begin</beam>
            </note>
            <direction placement="above">
                <direction-type>
                    <words font-weight="normal" font-style="normal" font-size="17" font-family="Times New Roman" relative-x="6.99" default-y="39.13">-</words>
                </direction-type>
                <offset>-3360.00</offset>
            </direction>
            <note>
                <pitch>
                    <step>G</step>
                    <octave>5</octave>
                </pitch>
                <duration>3360</duration>
                <voice>1</voice>
                <type>eighth</type>
                <stem default-y="-27.91">down</stem>
                <beam number="1">end</beam>
            </note>
            <note>
                <pitch>
                    <step>F</step>
                    <alter>1</alter>
                    <octave>5</octave>
                </pitch>
                <duration>3360</duration>
                <voice>1</voice>
                <type>eighth</type>
                <stem default-y="-32.91">down</stem>
                <beam number="1">begin</beam>
            </note>
            <note>
                <pitch>
                    <step>F</step>
                    <octave>5</octave>
                </pitch>
                <duration>3360</duration>
                <voice>1</voice>
                <type>eighth</type>
                <accidental>natural</accidental>
                <stem default-y="-32.91">down</stem>
                <beam number="1">end</beam>
            </note>
            <note>
                <pitch>
                    <step>E</step>
                    <alter>-1</alter>
                    <octave>5</octave>
                </pitch>
                <duration>3360</duration>
                <voice>1</voice>
                <type>eighth</type>
                <stem default-y="-40.35">down</stem>
            </note>
            <note>
                <rest>
                    <display-step>A</display-step>
                    <display-octave>4</display-octave>
                </rest>
                <duration>3360</duration>
                <voice>1</voice>
                <type>eighth</type>
            </note>
            <direction placement="above">
                <direction-type>
                    <words font-weight="normal" font-style="normal" font-size="15" font-family="Times New Roman" relative-x="-9.37" default-y="39.13">G</words>
                </direction-type>
            </direction>
            <note>
                <pitch>
                    <step>G</step>
                    <octave>4</octave>
                </pitch>
                <duration>3360</duration>
                <voice>1</voice>
                <type>eighth</type>
                <stem default-y="9.42">up</stem>
                <beam number="1">begin</beam>
            </note>
            <direction placement="above">
                <direction-type>
                    <words font-weight="normal" font-style="normal" font-size="17" font-family="Times New Roman" relative-x="7.47" default-y="39.13">-</words>
                </direction-type>
                <offset>-3360.00</offset>
            </direction>
            <note>
                <pitch>
                    <step>A</step>
                    <alter>-1</alter>
                    <octave>4</octave>
                </pitch>
                <duration>1680</duration>
                <voice>1</voice>
                <type>16th</type>
                <stem default-y="9.42">up</stem>
                <beam number="1">continue</beam>
            </note>
            <note>
                <pitch>
                    <step>A</step>
                    <octave>4</octave>
                </pitch>
                <duration>1680</duration>
                <voice>1</voice>
                <type>16th</type>
                <accidental>natural</accidental>
                <stem default-y="9.42">up</stem>
                <beam number="1">end</beam>
            </note>
            <direction placement="below">
                <direction-type>
                    <words font-weight="normal" font-style="normal" font-size="15" font-family="Times New Roman" relative-x="-28.27" default-y="-120.99">C</words>
                </direction-type>
                <offset>-26880.00</offset>
            </direction>
            <direction placement="below">
                <direction-type>
                    <words font-weight="normal" font-style="normal" font-size="15" font-family="Times New Roman" relative-x="7.01" default-y="-120.99">G</words>
                </direction-type>
                <offset>-10080.00</offset>
            </direction>
            <note>
                <pitch>
                    <step>B</step>
                    <alter>-1</alter>
                    <octave>4</octave>
                </pitch>
                <duration>6720</duration>
                <voice>1</voice>
                <type>quarter</type>
                <stem default-y="-55.23">down</stem>
            </note>
        </measure>
        <measure width="308" number="30">
            <print new-system="yes">
                <system-layout>
                    <system-margins>
                        <left-margin>49.962</left-margin>
                        <right-margin>14.624</right-margin>
                    </system-margins>
                    <system-distance>121.203</system-distance>
                </system-layout>
            </print>
            <attributes>
                <staff-details print-object="yes" number="1"/>
            </attributes>
            <note>
                <pitch>
                    <step>C</step>
                    <octave>5</octave>
                </pitch>
                <duration>20160</duration>
                <voice>1</voice>
                <type>half</type>
                <dot/>
                <stem default-y="-50.82">down</stem>
            </note>
            <note>
                <pitch>
                    <step>D</step>
                    <octave>5</octave>
                </pitch>
                <duration>3360</duration>
                <voice>1</voice>
                <type>eighth</type>
                <stem default-y="-43.29">down</stem>
                <beam number="1">begin</beam>
            </note>
            <note>
                <pitch>
                    <step>E</step>
                    <alter>-1</alter>
                    <octave>5</octave>
                </pitch>
                <duration>3360</duration>
                <voice>1</voice>
                <type>eighth</type>
                <stem default-y="-44.94">down</stem>
                <beam number="1">continue</beam>
            </note>
            <note>
                <pitch>
                    <step>D</step>
                    <octave>5</octave>
                </pitch>
                <duration>3360</duration>
                <voice>1</voice>
                <type>eighth</type>
                <stem default-y="-46.59">down</stem>
                <beam number="1">continue</beam>
            </note>
            <note>
                <pitch>
                    <step>C</step>
                    <octave>5</octave>
                </pitch>
                <duration>3360</duration>
                <voice>1</voice>
                <type>eighth</type>
                <stem default-y="-48.24">down</stem>
                <beam number="1">end</beam>
            </note>
            <direction placement="below">
                <direction-type>
                    <words font-weight="normal" font-style="normal" font-size="15" font-family="Times New Roman" relative-x="-8.58" default-y="-125.71">C</words>
                </direction-type>
                <offset>-33600.00</offset>
            </direction>
            <direction placement="below">
                <direction-type>
                    <words font-weight="normal" font-style="normal" font-size="15" font-family="Times New Roman" relative-x="-23.77" default-y="-125.71">G</words>
                </direction-type>
                <offset>-13440.00</offset>
            </direction>
            <direction placement="below">
                <direction-type>
                    <words font-weight="normal" font-style="normal" font-size="15" font-family="Times New Roman" relative-x="24.29" default-y="-125.71">C</words>
                </direction-type>
            </direction>
            <note>
                <pitch>
                    <step>B</step>
                    <alter>-1</alter>
                    <octave>4</octave>
                </pitch>
                <duration>6720</duration>
                <voice>1</voice>
                <type>quarter</type>
                <stem default-y="-55.76">down</stem>
            </note>
        </measure>
        <measure width="218" number="31">
            <note>
                <pitch>
                    <step>C</step>
                    <octave>5</octave>
                </pitch>
                <duration>20160</duration>
                <voice>1</voice>
                <type>half</type>
                <dot/>
                <stem default-y="-50.82">down</stem>
            </note>
            <note>
                <pitch>
                    <step>B</step>
                    <alter>-1</alter>
                    <octave>4</octave>
                </pitch>
                <duration>1680</duration>
                <voice>1</voice>
                <type>16th</type>
                <stem default-y="19.65">up</stem>
                <beam number="1">begin</beam>
            </note>
            <note>
                <pitch>
                    <step>C</step>
                    <octave>5</octave>
                </pitch>
                <duration>1680</duration>
                <voice>1</voice>
                <type>16th</type>
                <stem default-y="19.65">up</stem>
                <beam number="1">continue</beam>
            </note>
            <note>
                <pitch>
                    <step>B</step>
                    <alter>-1</alter>
                    <octave>4</octave>
                </pitch>
                <duration>1680</duration>
                <voice>1</voice>
                <type>16th</type>
                <stem default-y="19.65">up</stem>
                <beam number="1">continue</beam>
            </note>
            <note>
                <pitch>
                    <step>G</step>
                    <octave>4</octave>
                </pitch>
                <duration>1680</duration>
                <voice>1</voice>
                <type>16th</type>
                <stem default-y="19.65">up</stem>
                <beam number="1">end</beam>
            </note>
            <direction placement="below">
                <direction-type>
                    <words font-weight="normal" font-style="normal" font-size="15" font-family="Times New Roman" relative-x="-45.13" default-y="-125.71">G</words>
                </direction-type>
                <offset>-6720.00</offset>
            </direction>
            <direction placement="below">
                <direction-type>
                    <words font-weight="normal" font-style="normal" font-size="15" font-family="Times New Roman" relative-x="3.05" default-y="-125.71">C</words>
                </direction-type>
            </direction>
            <note>
                <pitch>
                    <step>F</step>
                    <octave>4</octave>
                </pitch>
                <duration>6720</duration>
                <voice>1</voice>
                <type>quarter</type>
                <stem default-y="-0.35">up</stem>
            </note>
        </measure>
        <measure width="193" number="32">
            <note>
                <pitch>
                    <step>G</step>
                    <octave>4</octave>
                </pitch>
                <duration>20160</duration>
                <voice>1</voice>
                <type>half</type>
                <dot/>
                <stem default-y="4.71">up</stem>
            </note>
            <note>
                <pitch>
                    <step>G</step>
                    <octave>4</octave>
                </pitch>
                <duration>3360</duration>
                <voice>1</voice>
                <type>eighth</type>
                <stem default-y="14.54">up</stem>
                <beam number="1">begin</beam>
            </note>
            <note>
                <pitch>
                    <step>C</step>
                    <octave>5</octave>
                </pitch>
                <duration>3360</duration>
                <voice>1</voice>
                <type>eighth</type>
                <stem default-y="19.39">up</stem>
                <beam number="1">end</beam>
            </note>
            <note>
                <pitch>
                    <step>E</step>
                    <alter>-1</alter>
                    <octave>5</octave>
                </pitch>
                <duration>3360</duration>
                <voice>1</voice>
                <type>eighth</type>
                <stem default-y="-43.18">down</stem>
                <beam number="1">begin</beam>
            </note>
            <direction placement="below">
                <direction-type>
                    <words font-weight="normal" font-style="normal" font-size="15" font-family="Times New Roman" relative-x="-2.11" default-y="-125.71">C</words>
                </direction-type>
                <offset>-6720.00</offset>
            </direction>
            <note>
                <pitch>
                    <step>F</step>
                    <octave>5</octave>
                </pitch>
                <duration>3360</duration>
                <voice>1</voice>
                <type>eighth</type>
                <stem default-y="-40.71">down</stem>
                <beam number="1">end</beam>
            </note>
        </measure>
        <measure width="302" number="33">
            <note>
                <pitch>
                    <step>F</step>
                    <alter>1</alter>
                    <octave>5</octave>
                </pitch>
                <duration>3360</duration>
                <voice>1</voice>
                <type>eighth</type>
                <accidental>sharp</accidental>
                <stem default-y="-30.59">down</stem>
                <beam number="1">begin</beam>
            </note>
            <note>
                <pitch>
                    <step>G</step>
                    <octave>5</octave>
                </pitch>
                <duration>3360</duration>
                <voice>1</voice>
                <type>eighth</type>
                <stem default-y="-28.12">down</stem>
                <beam number="1">end</beam>
            </note>
            <note>
                <pitch>
                    <step>F</step>
                    <alter>1</alter>
                    <octave>5</octave>
                </pitch>
                <duration>3360</duration>
                <voice>1</voice>
                <type>eighth</type>
                <stem default-y="-33.18">down</stem>
                <beam number="1">begin</beam>
            </note>
            <note>
                <pitch>
                    <step>F</step>
                    <octave>5</octave>
                </pitch>
                <duration>3360</duration>
                <voice>1</voice>
                <type>eighth</type>
                <accidental>natural</accidental>
                <stem default-y="-33.18">down</stem>
                <beam number="1">end</beam>
            </note>
            <note>
                <pitch>
                    <step>E</step>
                    <alter>-1</alter>
                    <octave>5</octave>
                </pitch>
                <duration>3360</duration>
                <voice>1</voice>
                <type>eighth</type>
                <stem default-y="-40.71">down</stem>
            </note>
            <note>
                <rest>
                    <display-step>A</display-step>
                    <display-octave>4</display-octave>
                </rest>
                <duration>3360</duration>
                <voice>1</voice>
                <type>eighth</type>
            </note>
            <note>
                <pitch>
                    <step>G</step>
                    <octave>4</octave>
                </pitch>
                <duration>3360</duration>
                <voice>1</voice>
                <type>eighth</type>
                <stem default-y="9.65">up</stem>
                <beam number="1">begin</beam>
            </note>
            <note>
                <pitch>
                    <step>A</step>
                    <alter>-1</alter>
                    <octave>4</octave>
                </pitch>
                <duration>1680</duration>
                <voice>1</voice>
                <type>16th</type>
                <stem default-y="9.65">up</stem>
                <beam number="1">continue</beam>
            </note>
            <note>
                <pitch>
                    <step>A</step>
                    <octave>4</octave>
                </pitch>
                <duration>1680</duration>
                <voice>1</voice>
                <type>16th</type>
                <accidental>natural</accidental>
                <stem default-y="9.65">up</stem>
                <beam number="1">end</beam>
            </note>
            <direction placement="below">
                <direction-type>
                    <words font-weight="normal" font-style="normal" font-size="15" font-family="Times New Roman" relative-x="2.63" default-y="-125.71">G</words>
                </direction-type>
                <offset>-23520.00</offset>
            </direction>
            <direction placement="below">
                <direction-type>
                    <words font-weight="normal" font-style="normal" font-size="15" font-family="Times New Roman" relative-x="-12.31" default-y="-125.71">C</words>
                </direction-type>
                <offset>-13440.00</offset>
            </direction>
            <direction placement="below">
                <direction-type>
                    <words font-weight="normal" font-style="normal" font-size="15" font-family="Times New Roman" relative-x="-5.89" default-y="-125.71">G</words>
                </direction-type>
                <offset>-1680.00</offset>
            </direction>
            <note>
                <pitch>
                    <step>B</step>
                    <alter>-1</alter>
                    <octave>4</octave>
                </pitch>
                <duration>6720</duration>
                <voice>1</voice>
                <type>quarter</type>
                <stem default-y="-55.76">down</stem>
            </note>
        </measure>
        <measure width="287" number="34">
            <print new-system="yes">
                <system-layout>
                    <system-margins>
                        <left-margin>49.962</left-margin>
                        <right-margin>14.624</right-margin>
                    </system-margins>
                    <system-distance>124.596</system-distance>
                </system-layout>
            </print>
            <attributes>
                <staff-details print-object="yes" number="1"/>
            </attributes>
            <note>
                <pitch>
                    <step>C</step>
                    <octave>5</octave>
                </pitch>
                <duration>20160</duration>
                <voice>1</voice>
                <type>half</type>
                <dot/>
                <stem default-y="-50.82">down</stem>
            </note>
            <note>
                <pitch>
                    <step>B</step>
                    <alter>-1</alter>
                    <octave>4</octave>
                </pitch>
                <duration>1680</duration>
                <voice>1</voice>
                <type>16th</type>
                <stem default-y="19.65">up</stem>
                <beam number="1">begin</beam>
            </note>
            <note>
                <pitch>
                    <step>C</step>
                    <octave>5</octave>
                </pitch>
                <duration>1680</duration>
                <voice>1</voice>
                <type>16th</type>
                <stem default-y="19.65">up</stem>
                <beam number="1">continue</beam>
            </note>
            <note>
                <pitch>
                    <step>B</step>
                    <alter>-1</alter>
                    <octave>4</octave>
                </pitch>
                <duration>1680</duration>
                <voice>1</voice>
                <type>16th</type>
                <stem default-y="19.65">up</stem>
                <beam number="1">continue</beam>
            </note>
            <note>
                <pitch>
                    <step>G</step>
                    <octave>4</octave>
                </pitch>
                <duration>1680</duration>
                <voice>1</voice>
                <type>16th</type>
                <stem default-y="19.65">up</stem>
                <beam number="1">end</beam>
            </note>
            <note>
                <pitch>
                    <step>F</step>
                    <octave>4</octave>
                </pitch>
                <duration>6720</duration>
                <voice>1</voice>
                <type>quarter</type>
                <stem default-y="-0.35">up</stem>
            </note>
        </measure>
        <measure width="197" number="35">
            <note>
                <pitch>
                    <step>G</step>
                    <octave>4</octave>
                </pitch>
                <duration>20160</duration>
                <voice>1</voice>
                <type>half</type>
                <dot/>
                <stem default-y="4.71">up</stem>
            </note>
            <note>
                <pitch>
                    <step>D</step>
                    <octave>5</octave>
                </pitch>
                <duration>3360</duration>
                <voice>1</voice>
                <type>eighth</type>
                <stem default-y="-43.18">down</stem>
                <beam number="1">begin</beam>
            </note>
            <note>
                <pitch>
                    <step>E</step>
                    <alter>-1</alter>
                    <octave>5</octave>
                </pitch>
                <duration>3360</duration>
                <voice>1</voice>
                <type>eighth</type>
                <stem default-y="-44.94">down</stem>
                <beam number="1">continue</beam>
            </note>
            <note>
                <pitch>
                    <step>D</step>
                    <octave>5</octave>
                </pitch>
                <duration>3360</duration>
                <voice>1</voice>
                <type>eighth</type>
                <stem default-y="-46.59">down</stem>
                <beam number="1">continue</beam>
            </note>
            <note>
                <pitch>
                    <step>C</step>
                    <octave>5</octave>
                </pitch>
                <duration>3360</duration>
                <voice>1</voice>
                <type>eighth</type>
                <stem default-y="-48.24">down</stem>
                <beam number="1">end</beam>
            </note>
            <note>
                <pitch>
                    <step>B</step>
                    <alter>-1</alter>
                    <octave>4</octave>
                </pitch>
                <duration>6720</duration>
                <voice>1</voice>
                <type>quarter</type>
                <stem default-y="-55.77">down</stem>
            </note>
        </measure>
        <measure width="153" number="36">
            <note>
                <pitch>
                    <step>C</step>
                    <octave>5</octave>
                </pitch>
                <duration>20160</duration>
                <voice>1</voice>
                <type>half</type>
                <dot/>
                <stem default-y="-50.82">down</stem>
            </note>
            <note>
                <rest/>
                <duration>13440</duration>
                <voice>1</voice>
                <type>half</type>
            </note>
            <barline location="right">
                <bar-style>heavy</bar-style>
            </barline>
        </measure>
        <measure width="202" number="37">
            <barline location="left">
                <bar-style>heavy</bar-style>
            </barline>
            <note>
                <pitch>
                    <step>G</step>
                    <octave>5</octave>
                </pitch>
                <duration>13440</duration>
                <voice>1</voice>
                <type>half</type>
                <stem default-y="-30.71">down</stem>
                <notations>
                    <tied placement="above" orientation="over" type="start" number="1"/>
                </notations>
            </note>
            <note>
                <pitch>
                    <step>G</step>
                    <octave>5</octave>
                </pitch>
                <duration>3360</duration>
                <voice>1</voice>
                <type>eighth</type>
                <stem default-y="-53.29">down</stem>
                <beam number="1">begin</beam>
                <notations>
                    <tied type="stop" number="1"/>
                </notations>
            </note>
            <note>
                <pitch>
                    <step>C</step>
                    <octave>5</octave>
                </pitch>
                <duration>1680</duration>
                <voice>1</voice>
                <type>16th</type>
                <stem default-y="-55.41">down</stem>
                <beam number="1">continue</beam>
            </note>
            <note>
                <pitch>
                    <step>A</step>
                    <octave>4</octave>
                </pitch>
                <duration>1680</duration>
                <voice>1</voice>
                <type>16th</type>
                <accidental>natural</accidental>
                <stem default-y="-58.35">down</stem>
                <beam number="1">end</beam>
            </note>
            <note>
                <pitch>
                    <step>G</step>
                    <octave>4</octave>
                </pitch>
                <duration>13440</duration>
                <voice>1</voice>
                <type>half</type>
                <stem default-y="4.71">up</stem>
            </note>
        </measure>
        <measure width="183" number="38">
            <note>
                <pitch>
                    <step>C</step>
                    <octave>5</octave>
                </pitch>
                <duration>10080</duration>
                <voice>1</voice>
                <type>quarter</type>
                <dot/>
                <stem default-y="-50.82">down</stem>
            </note>
            <note>
                <pitch>
                    <step>D</step>
                    <octave>5</octave>
                </pitch>
                <duration>3360</duration>
                <voice>1</voice>
                <type>eighth</type>
                <stem default-y="-45.76">down</stem>
            </note>
            <note>
                <pitch>
                    <step>E</step>
                    <alter>-1</alter>
                    <octave>5</octave>
                </pitch>
                <duration>3360</duration>
                <voice>1</voice>
                <type>eighth</type>
                <stem default-y="-40.71">down</stem>
            </note>
            <note>
                <rest>
                    <display-step>A</display-step>
                    <display-octave>4</display-octave>
                </rest>
                <duration>3360</duration>
                <voice>1</voice>
                <type>eighth</type>
            </note>
            <note>
                <rest/>
                <duration>13440</duration>
                <voice>1</voice>
                <type>half</type>
            </note>
        </measure>
    </part>
</score-partwise>
