<?xml version="1.0" encoding="UTF-8"?>
<!DOCTYPE score-partwise PUBLIC "-//Recordare//DTD MusicXML 2.0 Partwise//EN" "http://www.musicxml.org/dtds/partwise.dtd">
<score-partwise version="2.0">
    <work>
        <work-number></work-number>
        <work-title></work-title>
    </work>
    <movement-number></movement-number>
    <movement-title>Daniel</movement-title>
    <identification>
        <creator type="composer">Elton John, Bernie Taupin</creator>
        <creator type="poet"></creator>
        <rights>All Rights Reserved</rights>
        <encoding>
            <software>MuseScore 0.9.5</software>
            <encoding-date>2009-09-18</encoding-date>
            <software>ProxyMusic 2.0 c</software>
        </encoding>
        <source>http://www.wikifonia.org/node/2688/revisions/3375/view</source>
    </identification>
    <defaults>
        <scaling>
            <millimeters>7.056</millimeters>
            <tenths>40</tenths>
        </scaling>
        <page-layout>
            <page-height>1683.67</page-height>
            <page-width>1190.48</page-width>
            <page-margins type="both">
                <left-margin>56.6893</left-margin>
                <right-margin>56.6893</right-margin>
                <top-margin>56.6893</top-margin>
                <bottom-margin>113.379</bottom-margin>
            </page-margins>
        </page-layout>
    </defaults>
    <credit page="1">
        <credit-words font-size="24" default-y="1626.98" default-x="595.238" justify="center" valign="top">Daniel</credit-words>
    </credit>
    <credit page="1">
        <credit-words font-size="12" default-y="1556.5" default-x="1133.79" justify="right" valign="top">Elton John and Bernie Taupin</credit-words>
    </credit>
    <part-list>
        <part-group type="start" number="1">
            <group-symbol>brace</group-symbol>
        </part-group>
        <score-part id="P1">
            <part-name>Piano</part-name>
            <score-instrument id="P1-I3">
                <instrument-name>Piano</instrument-name>
            </score-instrument>
            <midi-instrument id="P1-I3">
                <midi-channel>1</midi-channel>
                <midi-program>1</midi-program>
            </midi-instrument>
        </score-part>
    </part-list>
    <part id="P1">
        <measure width="262.76" number="1">
            <print>
                <system-layout>
                    <system-margins>
                        <left-margin>86.73</left-margin>
                        <right-margin>0.00</right-margin>
                    </system-margins>
                    <top-system-distance>204.31</top-system-distance>
                </system-layout>
            </print>
            <attributes>
                <divisions>480</divisions>
                <key>
                    <fifths>0</fifths>
                    <mode>major</mode>
                </key>
                <time>
                    <beats>4</beats>
                    <beat-type>4</beat-type>
                </time>
                <clef>
                    <sign>G</sign>
                    <line>2</line>
                </clef>
            </attributes>
            <note>
                <rest/>
                <duration>240</duration>
                <voice>1</voice>
                <type>eighth</type>
            </note>
            <note>
                <rest/>
                <duration>240</duration>
                <voice>1</voice>
                <type>eighth</type>
            </note>
            <harmony print-frame="no">
                <root>
                    <root-step>C</root-step>
                </root>
                <kind text="">major</kind>
            </harmony>
            <note default-y="-15.00" default-x="134.67">
                <pitch>
                    <step>C</step>
                    <octave>5</octave>
                </pitch>
                <duration>480</duration>
                <voice>1</voice>
                <type>quarter</type>
                <stem>down</stem>
                <lyric number="1">
                    <syllabic>begin</syllabic>
                    <text>Dan</text>
                </lyric>
            </note>
            <note default-y="-15.00" default-x="176.83">
                <pitch>
                    <step>C</step>
                    <octave>5</octave>
                </pitch>
                <duration>480</duration>
                <voice>1</voice>
                <type>quarter</type>
                <stem>down</stem>
                <lyric number="1">
                    <syllabic>middle</syllabic>
                    <text>iel</text>
                </lyric>
            </note>
            <note default-y="-15.00" default-x="219.00">
                <pitch>
                    <step>C</step>
                    <octave>5</octave>
                </pitch>
                <duration>480</duration>
                <voice>1</voice>
                <type>quarter</type>
                <stem>down</stem>
                <lyric number="1">
                    <syllabic>single</syllabic>
                    <text>is</text>
                </lyric>
            </note>
        </measure>
        <measure width="286.62" number="2">
            <note default-y="-15.00" default-x="25.99">
                <pitch>
                    <step>C</step>
                    <octave>5</octave>
                </pitch>
                <duration>240</duration>
                <voice>1</voice>
                <type>eighth</type>
                <stem>down</stem>
                <beam number="1">begin</beam>
                <lyric number="1">
                    <syllabic>begin</syllabic>
                    <text>trav</text>
                </lyric>
            </note>
            <note default-y="-15.00" default-x="69.01">
                <pitch>
                    <step>C</step>
                    <octave>5</octave>
                </pitch>
                <duration>240</duration>
                <voice>1</voice>
                <type>eighth</type>
                <stem>down</stem>
                <beam number="1">end</beam>
                <lyric number="1">
                    <syllabic>end</syllabic>
                    <text>'ling</text>
                </lyric>
            </note>
            <note default-y="-15.00" default-x="103.27">
                <pitch>
                    <step>C</step>
                    <octave>5</octave>
                </pitch>
                <duration>480</duration>
                <voice>1</voice>
                <type>quarter</type>
                <stem>down</stem>
                <lyric number="1">
                    <syllabic>begin</syllabic>
                    <text>to</text>
                </lyric>
            </note>
            <note default-y="-15.00" default-x="157.13">
                <pitch>
                    <step>C</step>
                    <octave>5</octave>
                </pitch>
                <duration>240</duration>
                <voice>1</voice>
                <type>eighth</type>
                <stem>down</stem>
                <beam number="1">begin</beam>
                <lyric number="1">
                    <syllabic>end</syllabic>
                    <text>night</text>
                </lyric>
            </note>
            <note default-y="-20.00" default-x="197.50">
                <pitch>
                    <step>B</step>
                    <octave>4</octave>
                </pitch>
                <duration>240</duration>
                <voice>1</voice>
                <type>eighth</type>
                <stem>down</stem>
                <beam number="1">end</beam>
                <lyric number="1">
                    <syllabic>single</syllabic>
                    <text>on</text>
                </lyric>
            </note>
            <note default-y="-25.00" default-x="231.17">
                <pitch>
                    <step>A</step>
                    <octave>4</octave>
                </pitch>
                <duration>480</duration>
                <voice>1</voice>
                <type>quarter</type>
                <stem>up</stem>
                <lyric number="1">
                    <syllabic>single</syllabic>
                    <text>a</text>
                </lyric>
            </note>
        </measure>
        <measure width="146.71" number="3">
            <harmony print-frame="no">
                <root>
                    <root-step>D</root-step>
                </root>
                <kind text="m">minor</kind>
            </harmony>
            <harmony print-frame="no">
                <root>
                    <root-step>D</root-step>
                </root>
                <kind text="m">minor</kind>
            </harmony>
            <harmony print-frame="no">
                <root>
                    <root-step>D</root-step>
                </root>
                <kind text="m">minor</kind>
            </harmony>
            <note default-y="-35.00" default-x="34.91">
                <pitch>
                    <step>F</step>
                    <octave>4</octave>
                </pitch>
                <duration>960</duration>
                <voice>1</voice>
                <type>half</type>
                <stem>up</stem>
                <lyric number="1">
                    <syllabic>single</syllabic>
                    <text>'plane</text>
                </lyric>
            </note>
            <note>
                <rest/>
                <duration>960</duration>
                <voice>1</voice>
                <type>half</type>
            </note>
        </measure>
        <measure width="95.40" number="4">
            <note>
                <rest/>
                <duration>1920</duration>
                <voice>1</voice>
            </note>
        </measure>
        <measure width="198.87" number="5">
            <note default-y="-20.00" default-x="15.00">
                <pitch>
                    <step>B</step>
                    <octave>4</octave>
                </pitch>
                <duration>480</duration>
                <voice>1</voice>
                <type>quarter</type>
                <stem>down</stem>
                <lyric number="1">
                    <syllabic>single</syllabic>
                    <text>I</text>
                </lyric>
            </note>
            <note default-y="-20.00" default-x="60.57">
                <pitch>
                    <step>B</step>
                    <octave>4</octave>
                </pitch>
                <duration>480</duration>
                <voice>1</voice>
                <type>quarter</type>
                <stem>down</stem>
                <lyric number="1">
                    <syllabic>single</syllabic>
                    <text>can</text>
                </lyric>
            </note>
            <harmony print-frame="no">
                <root>
                    <root-step>G</root-step>
                </root>
                <kind text="">major</kind>
            </harmony>
            <note default-y="-20.00" default-x="106.14">
                <pitch>
                    <step>B</step>
                    <octave>4</octave>
                </pitch>
                <duration>480</duration>
                <voice>1</voice>
                <type>quarter</type>
                <stem>down</stem>
                <lyric number="1">
                    <syllabic>single</syllabic>
                    <text>see</text>
                </lyric>
            </note>
            <note default-y="-15.00" default-x="151.70">
                <pitch>
                    <step>C</step>
                    <octave>5</octave>
                </pitch>
                <duration>480</duration>
                <voice>1</voice>
                <type>quarter</type>
                <stem>down</stem>
                <lyric number="1">
                    <syllabic>single</syllabic>
                    <text>the</text>
                </lyric>
            </note>
        </measure>
        <measure width="286.63" number="6">
            <print new-system="yes">
                <system-layout>
                    <system-margins>
                        <left-margin>75.06</left-margin>
                        <right-margin>0.00</right-margin>
                    </system-margins>
                    <system-distance>129.51</system-distance>
                </system-layout>
            </print>
            <note default-y="-10.00" default-x="68.54">
                <pitch>
                    <step>D</step>
                    <octave>5</octave>
                </pitch>
                <duration>480</duration>
                <voice>1</voice>
                <type>quarter</type>
                <stem>down</stem>
                <lyric number="1">
                    <syllabic>single</syllabic>
                    <text>red</text>
                </lyric>
            </note>
            <note default-y="-20.00" default-x="122.66">
                <pitch>
                    <step>B</step>
                    <octave>4</octave>
                </pitch>
                <duration>480</duration>
                <voice>1</voice>
                <type>quarter</type>
                <stem>down</stem>
                <lyric number="1">
                    <syllabic>begin</syllabic>
                    <text>tail</text>
                </lyric>
            </note>
            <note default-y="-25.00" default-x="176.78">
                <pitch>
                    <step>A</step>
                    <octave>4</octave>
                </pitch>
                <duration>480</duration>
                <voice>1</voice>
                <type>quarter</type>
                <stem>up</stem>
                <lyric number="1">
                    <syllabic>end</syllabic>
                    <text>lights</text>
                </lyric>
            </note>
            <note default-y="-30.00" default-x="230.90">
                <pitch>
                    <step>G</step>
                    <octave>4</octave>
                </pitch>
                <duration>480</duration>
                <voice>1</voice>
                <type>quarter</type>
                <stem>up</stem>
            </note>
        </measure>
        <measure width="305.37" number="7">
            <harmony print-frame="no">
                <root>
                    <root-step>E</root-step>
                </root>
                <kind text="7">dominant</kind>
            </harmony>
            <note default-y="-5.00" default-x="29.74">
                <pitch>
                    <step>E</step>
                    <octave>5</octave>
                </pitch>
                <duration>240</duration>
                <voice>1</voice>
                <type>eighth</type>
                <stem>down</stem>
                <beam number="1">begin</beam>
                <lyric number="1">
                    <syllabic>begin</syllabic>
                    <text>head</text>
                </lyric>
            </note>
            <note default-y="0.00" default-x="71.36">
                <pitch>
                    <step>F</step>
                    <octave>5</octave>
                </pitch>
                <duration>240</duration>
                <voice>1</voice>
                <type>eighth</type>
                <stem>down</stem>
                <beam number="1">end</beam>
                <lyric number="1">
                    <syllabic>end</syllabic>
                    <text>ing</text>
                </lyric>
            </note>
            <note default-y="-5.00" default-x="108.84">
                <pitch>
                    <step>E</step>
                    <octave>5</octave>
                </pitch>
                <duration>480</duration>
                <voice>1</voice>
                <type>quarter</type>
                <stem>down</stem>
                <lyric number="1">
                    <syllabic>single</syllabic>
                    <text>for</text>
                </lyric>
            </note>
            <note default-y="-10.00" default-x="168.82">
                <pitch>
                    <step>D</step>
                    <octave>5</octave>
                </pitch>
                <duration>480</duration>
                <voice>1</voice>
                <type>quarter</type>
                <stem>down</stem>
                <lyric number="1">
                    <syllabic>single</syllabic>
                    <text>Spain</text>
                </lyric>
            </note>
            <note default-y="-5.00" default-x="228.80">
                <pitch>
                    <step>E</step>
                    <octave>5</octave>
                </pitch>
                <duration>240</duration>
                <voice>1</voice>
                <type>eighth</type>
                <stem>down</stem>
                <beam number="1">begin</beam>
            </note>
            <note default-y="-10.00" default-x="266.29">
                <pitch>
                    <step>D</step>
                    <octave>5</octave>
                </pitch>
                <duration>240</duration>
                <voice>1</voice>
                <type>eighth</type>
                <stem>down</stem>
                <beam number="1">end</beam>
            </note>
        </measure>
        <measure width="195.63" number="8">
            <harmony print-frame="no">
                <root>
                    <root-step>A</root-step>
                </root>
                <kind text="m">minor</kind>
            </harmony>
            <note default-y="-15.00" default-x="15.00">
                <pitch>
                    <step>C</step>
                    <octave>5</octave>
                </pitch>
                <duration>960</duration>
                <voice>1</voice>
                <type>half</type>
                <stem>down</stem>
            </note>
            <note default-y="-10.00" default-x="94.57">
                <pitch>
                    <step>D</step>
                    <octave>5</octave>
                </pitch>
                <duration>480</duration>
                <voice>1</voice>
                <type>quarter</type>
                <stem>down</stem>
                <lyric number="1">
                    <syllabic>single</syllabic>
                    <text>Oh</text>
                </lyric>
            </note>
            <note default-y="-15.00" default-x="144.30">
                <pitch>
                    <step>C</step>
                    <octave>5</octave>
                </pitch>
                <duration>480</duration>
                <voice>1</voice>
                <type>quarter</type>
                <stem>down</stem>
                <lyric number="1">
                    <syllabic>single</syllabic>
                    <text>and</text>
                </lyric>
            </note>
        </measure>
        <measure width="214.40" number="9">
            <harmony print-frame="no">
                <root>
                    <root-step>F</root-step>
                </root>
                <kind text="">major</kind>
            </harmony>
            <note>
                <rest/>
                <duration>480</duration>
                <voice>1</voice>
                <type>quarter</type>
            </note>
            <note default-y="-15.00" default-x="64.45">
                <pitch>
                    <step>C</step>
                    <octave>5</octave>
                </pitch>
                <duration>480</duration>
                <voice>1</voice>
                <type>quarter</type>
                <stem>down</stem>
                <lyric number="1">
                    <syllabic>single</syllabic>
                    <text>I</text>
                </lyric>
            </note>
            <note default-y="-15.00" default-x="113.90">
                <pitch>
                    <step>C</step>
                    <octave>5</octave>
                </pitch>
                <duration>480</duration>
                <voice>1</voice>
                <type>quarter</type>
                <stem>down</stem>
                <lyric number="1">
                    <syllabic>single</syllabic>
                    <text>can</text>
                </lyric>
            </note>
            <note default-y="-15.00" default-x="163.35">
                <pitch>
                    <step>C</step>
                    <octave>5</octave>
                </pitch>
                <duration>480</duration>
                <voice>1</voice>
                <type>quarter</type>
                <stem>down</stem>
                <lyric number="1">
                    <syllabic>single</syllabic>
                    <text>see</text>
                </lyric>
            </note>
        </measure>
        <measure width="308.56" number="10">
            <print new-system="yes">
                <system-layout>
                    <system-margins>
                        <left-margin>75.06</left-margin>
                        <right-margin>0.00</right-margin>
                    </system-margins>
                    <system-distance>129.51</system-distance>
                </system-layout>
            </print>
            <harmony print-frame="no">
                <root>
                    <root-step>G</root-step>
                </root>
                <kind text="">major</kind>
            </harmony>
            <note default-y="-10.00" default-x="72.92">
                <pitch>
                    <step>D</step>
                    <octave>5</octave>
                </pitch>
                <duration>480</duration>
                <voice>1</voice>
                <type>quarter</type>
                <stem>down</stem>
                <lyric number="1">
                    <syllabic>begin</syllabic>
                    <text>Dan</text>
                </lyric>
            </note>
            <note default-y="-20.00" default-x="116.77">
                <pitch>
                    <step>B</step>
                    <octave>4</octave>
                </pitch>
                <duration>240</duration>
                <voice>1</voice>
                <type>eighth</type>
                <stem>up</stem>
                <beam number="1">begin</beam>
                <lyric number="1">
                    <syllabic>end</syllabic>
                    <text>iel</text>
                </lyric>
            </note>
            <note default-y="-25.00" default-x="144.18">
                <pitch>
                    <step>A</step>
                    <octave>4</octave>
                </pitch>
                <duration>240</duration>
                <voice>1</voice>
                <type>eighth</type>
                <stem>up</stem>
                <beam number="1">end</beam>
            </note>
            <note default-y="-20.00" default-x="181.12">
                <pitch>
                    <step>B</step>
                    <octave>4</octave>
                </pitch>
                <duration>240</duration>
                <voice>1</voice>
                <type>eighth</type>
                <stem>up</stem>
                <beam number="1">begin</beam>
                <lyric number="1">
                    <syllabic>begin</syllabic>
                    <text>wav</text>
                </lyric>
            </note>
            <note default-y="-25.00" default-x="220.22">
                <pitch>
                    <step>A</step>
                    <octave>4</octave>
                </pitch>
                <duration>240</duration>
                <voice>1</voice>
                <type>eighth</type>
                <stem>up</stem>
                <beam number="1">end</beam>
                <lyric number="1">
                    <syllabic>end</syllabic>
                    <text>ing</text>
                </lyric>
            </note>
            <note default-y="-30.00" default-x="263.10">
                <pitch>
                    <step>G</step>
                    <octave>4</octave>
                </pitch>
                <duration>480</duration>
                <voice>1</voice>
                <type>quarter</type>
                <stem>up</stem>
                <lyric number="1">
                    <syllabic>begin</syllabic>
                    <text>good</text>
                </lyric>
            </note>
        </measure>
        <measure width="84.69" number="11">
            <harmony print-frame="no">
                <root>
                    <root-step>A</root-step>
                </root>
                <kind text="m">minor</kind>
            </harmony>
            <note default-y="-25.00" default-x="24.74">
                <pitch>
                    <step>A</step>
                    <octave>4</octave>
                </pitch>
                <duration>1920</duration>
                <voice>1</voice>
                <type>whole</type>
                <lyric number="1">
                    <syllabic>end</syllabic>
                    <text>bye</text>
                </lyric>
            </note>
        </measure>
        <measure width="149.80" number="12">
            <note>
                <rest/>
                <duration>480</duration>
                <voice>1</voice>
                <type>quarter</type>
            </note>
            <direction placement="below">
                <direction-type>
                    <bracket line-type="solid" default-y="-3712.89" default-x="-1164.09" type="start" number="1" line-end="none"/>
                </direction-type>
            </direction>
            <note>
                <rest/>
                <duration>480</duration>
                <voice>1</voice>
                <type>quarter</type>
            </note>
            <direction placement="above">
                <direction-type>
                    <bracket type="stop" number="1" line-end="none"/>
                </direction-type>
            </direction>
            <note default-y="-20.00" default-x="82.85">
                <pitch>
                    <step>B</step>
                    <octave>4</octave>
                </pitch>
                <duration>480</duration>
                <voice>1</voice>
                <type>quarter</type>
                <stem>down</stem>
                <lyric number="1">
                    <syllabic>single</syllabic>
                    <text>God</text>
                </lyric>
            </note>
            <note default-y="-15.00" default-x="115.52">
                <pitch>
                    <step>C</step>
                    <octave>5</octave>
                </pitch>
                <duration>480</duration>
                <voice>1</voice>
                <type>quarter</type>
                <stem>down</stem>
                <lyric number="1">
                    <syllabic>single</syllabic>
                    <text>it</text>
                </lyric>
            </note>
        </measure>
        <measure width="210.96" number="13">
            <harmony print-frame="no">
                <root>
                    <root-step>F</root-step>
                </root>
                <kind text="">major</kind>
            </harmony>
            <note default-y="-10.00" default-x="32.90">
                <pitch>
                    <step>D</step>
                    <octave>5</octave>
                </pitch>
                <duration>480</duration>
                <voice>1</voice>
                <type>quarter</type>
                <stem>down</stem>
                <lyric number="1">
                    <syllabic>single</syllabic>
                    <text>looks</text>
                </lyric>
            </note>
            <note default-y="-5.00" default-x="80.16">
                <pitch>
                    <step>E</step>
                    <octave>5</octave>
                </pitch>
                <duration>480</duration>
                <voice>1</voice>
                <type>quarter</type>
                <stem>down</stem>
                <lyric number="1">
                    <syllabic>single</syllabic>
                    <text>like</text>
                </lyric>
            </note>
            <note default-y="-15.00" default-x="123.23">
                <pitch>
                    <step>C</step>
                    <octave>5</octave>
                </pitch>
                <duration>480</duration>
                <voice>1</voice>
                <type>quarter</type>
                <stem>down</stem>
                <lyric number="1">
                    <syllabic>begin</syllabic>
                    <text>Dan</text>
                </lyric>
            </note>
            <note default-y="-25.00" default-x="166.30">
                <pitch>
                    <step>A</step>
                    <octave>4</octave>
                </pitch>
                <duration>480</duration>
                <voice>1</voice>
                <type>quarter</type>
                <stem>up</stem>
                <lyric number="1">
                    <syllabic>end</syllabic>
                    <text>iel</text>
                </lyric>
            </note>
        </measure>
        <measure width="70.15" number="14">
            <note>
                <rest/>
                <duration>1920</duration>
                <voice>1</voice>
            </note>
        </measure>
        <measure width="177.87" number="15">
            <harmony print-frame="no">
                <root>
                    <root-step>G</root-step>
                </root>
                <kind text="7">dominant</kind>
            </harmony>
            <note>
                <rest/>
                <duration>480</duration>
                <voice>1</voice>
                <type>quarter</type>
            </note>
            <note default-y="-30.00" default-x="55.32">
                <pitch>
                    <step>G</step>
                    <octave>4</octave>
                </pitch>
                <duration>480</duration>
                <voice>1</voice>
                <type>quarter</type>
                <stem>up</stem>
                <lyric number="1">
                    <syllabic>single</syllabic>
                    <text>must</text>
                </lyric>
            </note>
            <note default-y="-30.00" default-x="95.64">
                <pitch>
                    <step>G</step>
                    <octave>4</octave>
                </pitch>
                <duration>480</duration>
                <voice>1</voice>
                <type>quarter</type>
                <stem>up</stem>
                <lyric number="1">
                    <syllabic>single</syllabic>
                    <text>be</text>
                </lyric>
            </note>
            <note default-y="-30.00" default-x="135.95">
                <pitch>
                    <step>G</step>
                    <octave>4</octave>
                </pitch>
                <duration>480</duration>
                <voice>1</voice>
                <type>quarter</type>
                <stem>up</stem>
                <lyric number="1">
                    <syllabic>single</syllabic>
                    <text>the</text>
                </lyric>
            </note>
        </measure>
        <measure width="251.71" number="16">
            <print new-system="yes">
                <system-layout>
                    <system-margins>
                        <left-margin>75.06</left-margin>
                        <right-margin>0.00</right-margin>
                    </system-margins>
                    <system-distance>129.51</system-distance>
                </system-layout>
            </print>
            <note default-y="0.00" default-x="83.58">
                <pitch>
                    <step>F</step>
                    <octave>5</octave>
                </pitch>
                <duration>480</duration>
                <voice>1</voice>
                <type>quarter</type>
                <stem>down</stem>
                <lyric number="1">
                    <syllabic>single</syllabic>
                    <text>clouds</text>
                </lyric>
            </note>
            <direction>
                <direction-type>
                    <words default-y="100">To</words>
                </direction-type>
            </direction>
            <note default-y="-5.00" default-x="125.21">
                <pitch>
                    <step>E</step>
                    <octave>5</octave>
                </pitch>
                <duration>480</duration>
                <voice>1</voice>
                <type>quarter</type>
                <stem>down</stem>
            </note>
            <direction>
                <direction-type>
                    <words default-y="100">Coda</words>
                </direction-type>
            </direction>
            <note default-y="-15.00" default-x="166.85">
                <pitch>
                    <step>C</step>
                    <octave>5</octave>
                </pitch>
                <duration>480</duration>
                <voice>1</voice>
                <type>quarter</type>
                <stem>down</stem>
                <lyric number="1">
                    <syllabic>single</syllabic>
                    <text>in</text>
                </lyric>
            </note>
            <note default-y="-10.00" default-x="208.48">
                <pitch>
                    <step>D</step>
                    <octave>5</octave>
                </pitch>
                <duration>480</duration>
                <voice>1</voice>
                <type>quarter</type>
                <stem>down</stem>
                <lyric number="1">
                    <syllabic>single</syllabic>
                    <text>my</text>
                </lyric>
            </note>
        </measure>
        <measure width="114.00" number="17">
            <barline location="left">
                <ending type="start" number="1"></ending>
            </barline>
            <harmony print-frame="no">
                <root>
                    <root-step>C</root-step>
                </root>
                <kind text="">major</kind>
            </harmony>
            <note default-y="-15.00" default-x="31.31">
                <pitch>
                    <step>C</step>
                    <octave>5</octave>
                </pitch>
                <duration>1920</duration>
                <voice>1</voice>
                <type>whole</type>
                <lyric number="1">
                    <syllabic>single</syllabic>
                    <text>eyes.</text>
                </lyric>
            </note>
            <barline location="right">
                <ending type="stop" number="1"></ending>
            </barline>
        </measure>
        <measure width="173.08" number="18">
            <note default-y="-5.00" default-x="15.00">
                <pitch>
                    <step>E</step>
                    <octave>5</octave>
                </pitch>
                <duration>240</duration>
                <voice>1</voice>
                <type>eighth</type>
                <stem>down</stem>
                <beam number="1">begin</beam>
            </note>
            <direction placement="above">
                <direction-type>
                    <bracket line-type="solid" default-y="1401.04" default-x="-1480.51" type="start" number="1" line-end="none"/>
                </direction-type>
            </direction>
            <note default-y="-10.00" default-x="34.85">
                <pitch>
                    <step>D</step>
                    <octave>5</octave>
                </pitch>
                <duration>240</duration>
                <voice>1</voice>
                <type>eighth</type>
                <stem>down</stem>
                <beam number="1">end</beam>
            </note>
            <direction placement="above">
                <direction-type>
                    <bracket type="stop" number="1" line-end="none"/>
                </direction-type>
            </direction>
            <direction placement="above">
                <direction-type>
                    <bracket line-type="solid" default-y="1401.04" default-x="-1415.25" type="start" number="1" line-end="none"/>
                </direction-type>
            </direction>
            <note default-y="-15.00" default-x="54.70">
                <pitch>
                    <step>C</step>
                    <octave>5</octave>
                </pitch>
                <duration>480</duration>
                <voice>1</voice>
                <type>quarter</type>
                <stem>down</stem>
            </note>
            <direction placement="above">
                <direction-type>
                    <bracket type="stop" number="1" line-end="none"/>
                </direction-type>
            </direction>
            <note default-y="-20.00" default-x="86.46">
                <pitch>
                    <step>B</step>
                    <octave>4</octave>
                </pitch>
                <duration>240</duration>
                <voice>1</voice>
                <type>eighth</type>
                <stem>up</stem>
                <beam number="1">begin</beam>
            </note>
            <note default-y="-25.00" default-x="106.31">
                <pitch>
                    <step>A</step>
                    <octave>4</octave>
                </pitch>
                <duration>240</duration>
                <voice>1</voice>
                <type>eighth</type>
                <stem>up</stem>
                <beam number="1">end</beam>
            </note>
            <direction placement="above">
                <direction-type>
                    <bracket line-type="solid" default-y="1401.04" default-x="-3254.96" type="start" number="1" line-end="none"/>
                </direction-type>
            </direction>
            <direction placement="above">
                <direction-type>
                    <bracket line-type="solid" default-y="1413.11" default-x="-251.122" type="start" number="2" line-end="none"/>
                </direction-type>
            </direction>
            <note default-y="-30.00" default-x="126.16">
                <pitch>
                    <step>G</step>
                    <octave>4</octave>
                </pitch>
                <duration>480</duration>
                <voice>1</voice>
                <type>quarter</type>
                <stem>up</stem>
            </note>
            <barline location="right">
                <bar-style>light-heavy</bar-style>
                <repeat direction="backward"/>
            </barline>
        </measure>
        <measure width="118.39" number="19">
            <barline location="left">
                <ending type="start" number="2"></ending>
            </barline>
            <harmony print-frame="no">
                <root>
                    <root-step>C</root-step>
                </root>
                <kind text="">major</kind>
            </harmony>
            <direction placement="above">
                <direction-type>
                    <bracket type="stop" number="1" line-end="none"/>
                </direction-type>
            </direction>
            <direction placement="above">
                <direction-type>
                    <bracket type="stop" number="2" line-end="none"/>
                </direction-type>
            </direction>
            <note default-y="-15.00" default-x="33.50">
                <pitch>
                    <step>C</step>
                    <octave>5</octave>
                </pitch>
                <duration>1920</duration>
                <voice>1</voice>
                <type>whole</type>
                <lyric number="1">
                    <syllabic>single</syllabic>
                    <text>much</text>
                </lyric>
            </note>
            <barline location="right">
                <ending type="stop" number="2"></ending>
            </barline>
        </measure>
        <measure width="152.55" number="20">
            <note>
                <rest/>
                <duration>480</duration>
                <voice>1</voice>
                <type>quarter</type>
            </note>
            <note default-y="-5.00" default-x="48.99">
                <pitch>
                    <step>E</step>
                    <octave>5</octave>
                </pitch>
                <duration>480</duration>
                <voice>1</voice>
                <type>quarter</type>
                <stem>down</stem>
                <lyric number="1">
                    <syllabic>single</syllabic>
                    <text>Oh</text>
                </lyric>
            </note>
            <note default-y="-10.00" default-x="82.97">
                <pitch>
                    <step>D</step>
                    <octave>5</octave>
                </pitch>
                <duration>480</duration>
                <voice>1</voice>
                <type>quarter</type>
                <stem>down</stem>
            </note>
            <note default-y="-15.00" default-x="116.96">
                <pitch>
                    <step>C</step>
                    <octave>5</octave>
                </pitch>
                <duration>480</duration>
                <voice>1</voice>
                <type>quarter</type>
                <stem>down</stem>
            </note>
        </measure>
        <measure width="192.31" number="21">
            <harmony print-frame="no">
                <root>
                    <root-step>F</root-step>
                </root>
                <kind text="">major</kind>
            </harmony>
            <note>
                <rest/>
                <duration>480</duration>
                <voice>1</voice>
                <type>quarter</type>
            </note>
            <note default-y="-25.00" default-x="58.93">
                <pitch>
                    <step>A</step>
                    <octave>4</octave>
                </pitch>
                <duration>480</duration>
                <voice>1</voice>
                <type>quarter</type>
                <stem>up</stem>
                <lyric number="1">
                    <syllabic>begin</syllabic>
                    <text>Dan</text>
                </lyric>
            </note>
            <note default-y="-15.00" default-x="102.85">
                <pitch>
                    <step>C</step>
                    <octave>5</octave>
                </pitch>
                <duration>480</duration>
                <voice>1</voice>
                <type>quarter</type>
                <stem>down</stem>
                <lyric number="1">
                    <syllabic>end</syllabic>
                    <text>iel</text>
                </lyric>
            </note>
            <note default-y="-10.00" default-x="146.78">
                <pitch>
                    <step>D</step>
                    <octave>5</octave>
                </pitch>
                <duration>480</duration>
                <voice>1</voice>
                <type>quarter</type>
                <stem>down</stem>
                <lyric number="1">
                    <syllabic>single</syllabic>
                    <text>my</text>
                </lyric>
            </note>
        </measure>
        <measure width="262.42" number="22">
            <print new-system="yes">
                <system-layout>
                    <system-margins>
                        <left-margin>75.06</left-margin>
                        <right-margin>0.00</right-margin>
                    </system-margins>
                    <system-distance>129.51</system-distance>
                </system-layout>
            </print>
            <note default-y="-15.00" default-x="77.94">
                <pitch>
                    <step>C</step>
                    <octave>5</octave>
                </pitch>
                <duration>480</duration>
                <voice>1</voice>
                <type>quarter</type>
                <stem>down</stem>
                <lyric number="1">
                    <syllabic>begin</syllabic>
                    <text>broth</text>
                </lyric>
            </note>
            <note default-y="-25.00" default-x="123.66">
                <pitch>
                    <step>A</step>
                    <octave>4</octave>
                </pitch>
                <duration>480</duration>
                <voice>1</voice>
                <type>quarter</type>
                <stem>up</stem>
                <lyric number="1">
                    <syllabic>end</syllabic>
                    <text>er</text>
                </lyric>
            </note>
            <note default-y="-25.00" default-x="169.38">
                <pitch>
                    <step>A</step>
                    <octave>4</octave>
                </pitch>
                <duration>480</duration>
                <voice>1</voice>
                <type>quarter</type>
                <stem>up</stem>
                <lyric number="1">
                    <syllabic>single</syllabic>
                    <text>you</text>
                </lyric>
            </note>
            <note default-y="-15.00" default-x="215.10">
                <pitch>
                    <step>C</step>
                    <octave>5</octave>
                </pitch>
                <duration>480</duration>
                <voice>1</voice>
                <type>quarter</type>
                <stem>down</stem>
                <lyric number="1">
                    <syllabic>single</syllabic>
                    <text>are</text>
                </lyric>
            </note>
        </measure>
        <measure width="191.82" number="23">
            <harmony print-frame="no">
                <root>
                    <root-step>C</root-step>
                </root>
                <kind text="">major</kind>
            </harmony>
            <note>
                <rest/>
                <duration>480</duration>
                <voice>1</voice>
                <type>quarter</type>
            </note>
            <note default-y="-5.00" default-x="58.80">
                <pitch>
                    <step>E</step>
                    <octave>5</octave>
                </pitch>
                <duration>480</duration>
                <voice>1</voice>
                <type>quarter</type>
                <stem>down</stem>
                <lyric number="1">
                    <syllabic>begin</syllabic>
                    <text>old</text>
                </lyric>
            </note>
            <note default-y="-15.00" default-x="102.61">
                <pitch>
                    <step>C</step>
                    <octave>5</octave>
                </pitch>
                <duration>480</duration>
                <voice>1</voice>
                <type>quarter</type>
                <stem>down</stem>
                <lyric number="1">
                    <syllabic>end</syllabic>
                    <text>er</text>
                </lyric>
            </note>
            <note default-y="-10.00" default-x="146.41">
                <pitch>
                    <step>D</step>
                    <octave>5</octave>
                </pitch>
                <duration>480</duration>
                <voice>1</voice>
                <type>quarter</type>
                <stem>down</stem>
                <lyric number="1">
                    <syllabic>single</syllabic>
                    <text>than</text>
                </lyric>
            </note>
        </measure>
        <measure width="205.52" number="24">
            <note default-y="-15.00" default-x="22.23">
                <pitch>
                    <step>C</step>
                    <octave>5</octave>
                </pitch>
                <duration>480</duration>
                <voice>1</voice>
                <type>quarter</type>
                <stem>down</stem>
                <lyric number="1">
                    <syllabic>single</syllabic>
                    <text>me</text>
                </lyric>
            </note>
            <note default-y="-5.00" default-x="67.65">
                <pitch>
                    <step>E</step>
                    <octave>5</octave>
                </pitch>
                <duration>480</duration>
                <voice>1</voice>
                <type>quarter</type>
                <stem>down</stem>
                <lyric number="1">
                    <syllabic>single</syllabic>
                    <text>do</text>
                </lyric>
            </note>
            <note default-y="-10.00" default-x="113.07">
                <pitch>
                    <step>D</step>
                    <octave>5</octave>
                </pitch>
                <duration>480</duration>
                <voice>1</voice>
                <type>quarter</type>
                <stem>down</stem>
                <lyric number="1">
                    <syllabic>single</syllabic>
                    <text>you</text>
                </lyric>
            </note>
            <note default-y="-15.00" default-x="158.50">
                <pitch>
                    <step>C</step>
                    <octave>5</octave>
                </pitch>
                <duration>480</duration>
                <voice>1</voice>
                <type>quarter</type>
                <stem>down</stem>
                <lyric number="1">
                    <syllabic>single</syllabic>
                    <text>still</text>
                </lyric>
            </note>
        </measure>
        <measure width="181.04" number="25">
            <harmony print-frame="no">
                <root>
                    <root-step>F</root-step>
                </root>
                <kind text="">major</kind>
            </harmony>
            <note default-y="-15.00" default-x="25.35">
                <pitch>
                    <step>C</step>
                    <octave>5</octave>
                </pitch>
                <duration>480</duration>
                <voice>1</voice>
                <type>quarter</type>
                <stem>down</stem>
                <lyric number="1">
                    <syllabic>single</syllabic>
                    <text>feel</text>
                </lyric>
            </note>
            <note default-y="-10.00" default-x="68.16">
                <pitch>
                    <step>D</step>
                    <octave>5</octave>
                </pitch>
                <duration>480</duration>
                <voice>1</voice>
                <type>quarter</type>
                <stem>down</stem>
                <lyric number="1">
                    <syllabic>single</syllabic>
                    <text>the</text>
                </lyric>
            </note>
            <note default-y="-25.00" default-x="110.96">
                <pitch>
                    <step>A</step>
                    <octave>4</octave>
                </pitch>
                <duration>960</duration>
                <voice>1</voice>
                <type>half</type>
                <stem>up</stem>
                <lyric number="1">
                    <syllabic>single</syllabic>
                    <text>pain</text>
                </lyric>
            </note>
        </measure>
        <measure width="161.24" number="26">
            <note>
                <rest/>
                <duration>480</duration>
                <voice>1</voice>
                <type>quarter</type>
            </note>
            <note>
                <rest/>
                <duration>480</duration>
                <voice>1</voice>
                <type>quarter</type>
            </note>
            <note default-y="-25.00" default-x="87.32">
                <pitch>
                    <step>A</step>
                    <octave>4</octave>
                </pitch>
                <duration>480</duration>
                <voice>1</voice>
                <type>quarter</type>
                <stem>up</stem>
                <lyric number="1">
                    <syllabic>single</syllabic>
                    <text>of</text>
                </lyric>
            </note>
            <note default-y="-15.00" default-x="123.48">
                <pitch>
                    <step>C</step>
                    <octave>5</octave>
                </pitch>
                <duration>480</duration>
                <voice>1</voice>
                <type>quarter</type>
                <stem>down</stem>
                <lyric number="1">
                    <syllabic>single</syllabic>
                    <text>the</text>
                </lyric>
            </note>
        </measure>
        <measure width="246.63" number="27">
            <print new-system="yes">
                <system-layout>
                    <system-margins>
                        <left-margin>75.06</left-margin>
                        <right-margin>0.00</right-margin>
                    </system-margins>
                    <system-distance>129.51</system-distance>
                </system-layout>
            </print>
            <harmony print-frame="no">
                <root>
                    <root-step>C</root-step>
                </root>
                <kind text="">major</kind>
            </harmony>
            <note default-y="-5.00" default-x="76.68">
                <pitch>
                    <step>E</step>
                    <octave>5</octave>
                </pitch>
                <duration>960</duration>
                <voice>1</voice>
                <type>half</type>
                <stem>down</stem>
                <lyric number="1">
                    <syllabic>single</syllabic>
                    <text>scars</text>
                </lyric>
            </note>
            <note default-y="-15.00" default-x="151.11">
                <pitch>
                    <step>C</step>
                    <octave>5</octave>
                </pitch>
                <duration>480</duration>
                <voice>1</voice>
                <type>quarter</type>
                <stem>down</stem>
                <lyric number="1">
                    <syllabic>single</syllabic>
                    <text>that</text>
                </lyric>
            </note>
            <note default-y="-10.00" default-x="198.51">
                <pitch>
                    <step>D</step>
                    <octave>5</octave>
                </pitch>
                <duration>480</duration>
                <voice>1</voice>
                <type>quarter</type>
                <stem>down</stem>
                <lyric number="1">
                    <syllabic>single</syllabic>
                    <text>won't</text>
                </lyric>
            </note>
        </measure>
        <measure width="257.55" number="28">
            <note default-y="-15.00" default-x="27.24">
                <pitch>
                    <step>C</step>
                    <octave>5</octave>
                </pitch>
                <duration>480</duration>
                <voice>1</voice>
                <type>quarter</type>
                <stem>down</stem>
                <lyric number="1">
                    <syllabic>single</syllabic>
                    <text>heal</text>
                </lyric>
            </note>
            <note default-y="-5.00" default-x="81.05">
                <pitch>
                    <step>E</step>
                    <octave>5</octave>
                </pitch>
                <duration>480</duration>
                <voice>1</voice>
                <type>quarter</type>
                <stem>down</stem>
                <lyric number="1">
                    <syllabic>single</syllabic>
                    <text>your</text>
                </lyric>
            </note>
            <note default-y="-10.00" default-x="134.87">
                <pitch>
                    <step>D</step>
                    <octave>5</octave>
                </pitch>
                <duration>480</duration>
                <voice>1</voice>
                <type>quarter</type>
                <stem>down</stem>
                <lyric number="1">
                    <syllabic>single</syllabic>
                    <text>eyes</text>
                </lyric>
            </note>
            <note default-y="-20.00" default-x="188.68">
                <pitch>
                    <step>B</step>
                    <octave>4</octave>
                </pitch>
                <duration>240</duration>
                <voice>1</voice>
                <type>eighth</type>
                <stem>down</stem>
                <beam number="1">begin</beam>
                <lyric number="1">
                    <syllabic>single</syllabic>
                    <text>have</text>
                </lyric>
            </note>
            <note default-y="-10.00" default-x="222.32">
                <pitch>
                    <step>D</step>
                    <octave>5</octave>
                </pitch>
                <duration>240</duration>
                <voice>1</voice>
                <type>eighth</type>
                <stem>down</stem>
                <beam number="1">end</beam>
            </note>
        </measure>
        <measure width="156.30" number="29">
            <harmony print-frame="no">
                <root>
                    <root-step>A</root-step>
                </root>
                <kind text="m">minor</kind>
            </harmony>
            <note default-y="-15.00" default-x="27.87">
                <pitch>
                    <step>C</step>
                    <octave>5</octave>
                </pitch>
                <duration>480</duration>
                <voice>1</voice>
                <type>quarter</type>
                <stem>down</stem>
                <lyric number="1">
                    <syllabic>single</syllabic>
                    <text>died</text>
                </lyric>
            </note>
            <note default-y="-25.00" default-x="63.10">
                <pitch>
                    <step>A</step>
                    <octave>4</octave>
                </pitch>
                <duration>960</duration>
                <voice>1</voice>
                <type>half</type>
                <stem>up</stem>
            </note>
            <note default-y="-25.00" default-x="119.47">
                <pitch>
                    <step>A</step>
                    <octave>4</octave>
                </pitch>
                <duration>480</duration>
                <voice>1</voice>
                <type>quarter</type>
                <stem>up</stem>
                <lyric number="1">
                    <syllabic>single</syllabic>
                    <text>But</text>
                </lyric>
            </note>
        </measure>
        <measure width="243.79" number="30">
            <note default-y="-5.00" default-x="25.37">
                <pitch>
                    <step>E</step>
                    <octave>5</octave>
                </pitch>
                <duration>480</duration>
                <voice>1</voice>
                <type>quarter</type>
                <stem>down</stem>
                <lyric number="1">
                    <syllabic>single</syllabic>
                    <text>you</text>
                </lyric>
            </note>
            <note default-y="-5.00" default-x="76.39">
                <pitch>
                    <step>E</step>
                    <octave>5</octave>
                </pitch>
                <duration>480</duration>
                <voice>1</voice>
                <type>quarter</type>
                <stem>down</stem>
                <lyric number="1">
                    <syllabic>single</syllabic>
                    <text>see</text>
                </lyric>
            </note>
            <note default-y="-15.00" default-x="127.40">
                <pitch>
                    <step>C</step>
                    <octave>5</octave>
                </pitch>
                <duration>480</duration>
                <voice>1</voice>
                <type>quarter</type>
                <stem>down</stem>
                <lyric number="1">
                    <syllabic>single</syllabic>
                    <text>more</text>
                </lyric>
            </note>
            <note default-y="-15.00" default-x="178.42">
                <pitch>
                    <step>C</step>
                    <octave>5</octave>
                </pitch>
                <duration>240</duration>
                <voice>1</voice>
                <type>eighth</type>
                <stem>down</stem>
                <beam number="1">begin</beam>
                <lyric number="1">
                    <syllabic>single</syllabic>
                    <text>than</text>
                </lyric>
            </note>
            <note default-y="-10.00" default-x="210.30">
                <pitch>
                    <step>D</step>
                    <octave>5</octave>
                </pitch>
                <duration>240</duration>
                <voice>1</voice>
                <type>eighth</type>
                <stem>down</stem>
                <beam number="1">end</beam>
            </note>
        </measure>
        <measure width="97.76" number="31">
            <harmony print-frame="no">
                <root>
                    <root-step>F</root-step>
                </root>
                <kind text="">major</kind>
            </harmony>
            <note default-y="-15.00" default-x="15.00">
                <pitch>
                    <step>C</step>
                    <octave>5</octave>
                </pitch>
                <duration>480</duration>
                <voice>1</voice>
                <type>quarter</type>
                <stem>down</stem>
                <lyric number="1">
                    <syllabic>single</syllabic>
                    <text>I</text>
                </lyric>
            </note>
            <note default-y="-25.00" default-x="42.50">
                <pitch>
                    <step>A</step>
                    <octave>4</octave>
                </pitch>
                <duration>1440</duration>
                <voice>1</voice>
                <type>half</type>
                <dot/>
                <stem>up</stem>
            </note>
        </measure>
        <measure width="268.06" number="32">
            <print new-system="yes">
                <system-layout>
                    <system-margins>
                        <left-margin>75.06</left-margin>
                        <right-margin>0.00</right-margin>
                    </system-margins>
                    <system-distance>129.51</system-distance>
                </system-layout>
            </print>
            <harmony print-frame="no">
                <root>
                    <root-step>F</root-step>
                </root>
                <kind text="m">minor</kind>
            </harmony>
            <note default-y="20.00" default-x="72.92">
                <pitch>
                    <step>C</step>
                    <octave>6</octave>
                </pitch>
                <duration>480</duration>
                <voice>1</voice>
                <type>quarter</type>
                <stem>down</stem>
                <lyric number="1">
                    <syllabic>begin</syllabic>
                    <text>Dan</text>
                </lyric>
            </note>
            <note default-y="10.00" default-x="121.30">
                <pitch>
                    <step>A</step>
                    <alter>-1</alter>
                    <octave>5</octave>
                </pitch>
                <duration>480</duration>
                <voice>1</voice>
                <type>quarter</type>
                <accidental>flat</accidental>
                <stem>down</stem>
                <lyric number="1">
                    <syllabic>end</syllabic>
                    <text>iel</text>
                </lyric>
            </note>
            <note default-y="0.00" default-x="169.69">
                <pitch>
                    <step>F</step>
                    <octave>5</octave>
                </pitch>
                <duration>480</duration>
                <voice>1</voice>
                <type>quarter</type>
                <stem>down</stem>
                <lyric number="1">
                    <syllabic>single</syllabic>
                    <text>you're</text>
                </lyric>
            </note>
            <note default-y="-15.00" default-x="218.07">
                <pitch>
                    <step>C</step>
                    <octave>5</octave>
                </pitch>
                <duration>480</duration>
                <voice>1</voice>
                <type>quarter</type>
                <stem>down</stem>
                <lyric number="1">
                    <syllabic>single</syllabic>
                    <text>a</text>
                </lyric>
            </note>
        </measure>
        <measure width="106.14" number="33">
            <harmony print-frame="no">
                <root>
                    <root-step>C</root-step>
                </root>
                <kind text="">major</kind>
            </harmony>
            <note default-y="-5.00" default-x="24.74">
                <pitch>
                    <step>E</step>
                    <octave>5</octave>
                </pitch>
                <duration>1920</duration>
                <voice>1</voice>
                <type>whole</type>
                <lyric number="1">
                    <syllabic>single</syllabic>
                    <text>star</text>
                </lyric>
            </note>
        </measure>
        <measure width="266.62" number="34">
            <harmony print-frame="no">
                <root>
                    <root-step>A</root-step>
                </root>
                <kind text="7">dominant</kind>
            </harmony>
            <note>
                <rest/>
                <duration>240</duration>
                <voice>1</voice>
                <type>eighth</type>
            </note>
            <note>
                <rest/>
                <duration>240</duration>
                <voice>1</voice>
                <type>eighth</type>
            </note>
            <note default-y="-5.00" default-x="79.11">
                <pitch>
                    <step>E</step>
                    <octave>5</octave>
                </pitch>
                <duration>240</duration>
                <voice>1</voice>
                <type>eighth</type>
                <stem>down</stem>
                <beam number="1">begin</beam>
                <lyric number="1">
                    <syllabic>single</syllabic>
                    <text>In</text>
                </lyric>
            </note>
            <note default-y="-5.00" default-x="111.16">
                <pitch>
                    <step>E</step>
                    <octave>5</octave>
                </pitch>
                <duration>240</duration>
                <voice>1</voice>
                <type>eighth</type>
                <stem>down</stem>
                <beam number="1">end</beam>
                <lyric number="1">
                    <syllabic>single</syllabic>
                    <text>the</text>
                </lyric>
            </note>
            <note default-y="-5.00" default-x="149.62">
                <pitch>
                    <step>E</step>
                    <octave>5</octave>
                </pitch>
                <duration>480</duration>
                <voice>1</voice>
                <type>quarter</type>
                <stem>down</stem>
                <lyric number="1">
                    <syllabic>single</syllabic>
                    <text>face</text>
                </lyric>
            </note>
            <note default-y="0.00" default-x="200.91">
                <pitch>
                    <step>F</step>
                    <octave>5</octave>
                </pitch>
                <duration>240</duration>
                <voice>1</voice>
                <type>eighth</type>
                <stem>down</stem>
                <beam number="1">begin</beam>
                <lyric number="1">
                    <syllabic>single</syllabic>
                    <text>of</text>
                </lyric>
            </note>
            <note default-y="5.00" default-x="232.96">
                <pitch>
                    <step>G</step>
                    <octave>5</octave>
                </pitch>
                <duration>240</duration>
                <voice>1</voice>
                <type>eighth</type>
                <stem>down</stem>
                <beam number="1">end</beam>
                <lyric number="1">
                    <syllabic>single</syllabic>
                    <text>the</text>
                </lyric>
            </note>
        </measure>
        <measure width="153.83" number="35">
            <harmony print-frame="no">
                <root>
                    <root-step>D</root-step>
                </root>
                <kind text="m">minor</kind>
            </harmony>
            <note default-y="-10.00" default-x="24.12">
                <pitch>
                    <step>D</step>
                    <octave>5</octave>
                </pitch>
                <duration>960</duration>
                <voice>1</voice>
                <type>half</type>
                <stem>down</stem>
                <lyric number="1">
                    <syllabic>single</syllabic>
                    <text>sky</text>
                </lyric>
            </note>
            <note default-y="-15.00" default-x="72.72">
                <pitch>
                    <step>C</step>
                    <octave>5</octave>
                </pitch>
                <duration>240</duration>
                <voice>1</voice>
                <type>eighth</type>
                <stem>down</stem>
                <beam number="1">begin</beam>
            </note>
            <note default-y="-10.00" default-x="94.81">
                <pitch>
                    <step>D</step>
                    <octave>5</octave>
                </pitch>
                <duration>240</duration>
                <voice>1</voice>
                <type>eighth</type>
                <stem>down</stem>
                <beam number="1">end</beam>
            </note>
            <note default-y="-15.00" default-x="116.89">
                <pitch>
                    <step>C</step>
                    <octave>5</octave>
                </pitch>
                <duration>480</duration>
                <voice>1</voice>
                <type>quarter</type>
                <stem>down</stem>
            </note>
        </measure>
        <measure width="96.40" number="36">
            <harmony print-frame="no">
                <root>
                    <root-step>G</root-step>
                </root>
                <kind text="">major</kind>
            </harmony>
            <note default-y="-20.00" default-x="15.00">
                <pitch>
                    <step>B</step>
                    <octave>4</octave>
                </pitch>
                <duration>1920</duration>
                <voice>1</voice>
                <type>whole</type>
            </note>
            <barline location="right">
                <bar-style>light-heavy</bar-style>
                <repeat direction="backward"/>
            </barline>
        </measure>
        <measure width="110.97" number="37">
            <barline location="left">
                <ending type="start" number="1"></ending>
            </barline>
            <direction>
                <direction-type>
                    <words default-y="100">CODA</words>
                </direction-type>
            </direction>
            <harmony print-frame="no">
                <root>
                    <root-step>C</root-step>
                </root>
                <kind text="">major</kind>
            </harmony>
            <note default-y="-15.00" default-x="28.49">
                <pitch>
                    <step>C</step>
                    <octave>5</octave>
                </pitch>
                <duration>1920</duration>
                <voice>1</voice>
                <type>whole</type>
                <lyric number="1">
                    <syllabic>single</syllabic>
                    <text>eyes</text>
                </lyric>
            </note>
            <barline location="right">
                <ending type="stop" number="1"></ending>
            </barline>
        </measure>
        <measure width="205.19" number="38">
            <print new-system="yes">
                <system-layout>
                    <system-margins>
                        <left-margin>75.06</left-margin>
                        <right-margin>0.00</right-margin>
                    </system-margins>
                    <system-distance>129.51</system-distance>
                </system-layout>
            </print>
            <note default-y="-5.00" default-x="67.91">
                <pitch>
                    <step>E</step>
                    <octave>5</octave>
                </pitch>
                <duration>480</duration>
                <voice>1</voice>
                <type>quarter</type>
                <stem>down</stem>
                <lyric number="1">
                    <syllabic>single</syllabic>
                    <text>Oh</text>
                </lyric>
            </note>
            <note default-y="-10.00" default-x="107.02">
                <pitch>
                    <step>D</step>
                    <octave>5</octave>
                </pitch>
                <duration>480</duration>
                <voice>1</voice>
                <type>quarter</type>
                <stem>down</stem>
                <lyric number="1">
                    <syllabic>single</syllabic>
                    <text>God</text>
                </lyric>
            </note>
            <note default-y="-15.00" default-x="139.21">
                <pitch>
                    <step>C</step>
                    <octave>5</octave>
                </pitch>
                <duration>480</duration>
                <voice>1</voice>
                <type>quarter</type>
                <stem>down</stem>
            </note>
            <note default-y="-10.00" default-x="171.40">
                <pitch>
                    <step>D</step>
                    <octave>5</octave>
                </pitch>
                <duration>480</duration>
                <voice>1</voice>
                <type>quarter</type>
                <stem>down</stem>
                <lyric number="1">
                    <syllabic>single</syllabic>
                    <text>it</text>
                </lyric>
            </note>
        </measure>
        <measure width="207.11" number="39">
            <harmony print-frame="no">
                <root>
                    <root-step>F</root-step>
                </root>
                <kind text="">major</kind>
            </harmony>
            <note default-y="-15.00" default-x="32.90">
                <pitch>
                    <step>C</step>
                    <octave>5</octave>
                </pitch>
                <duration>480</duration>
                <voice>1</voice>
                <type>quarter</type>
                <stem>down</stem>
                <lyric number="1">
                    <syllabic>single</syllabic>
                    <text>looks</text>
                </lyric>
            </note>
            <note default-y="-10.00" default-x="80.16">
                <pitch>
                    <step>D</step>
                    <octave>5</octave>
                </pitch>
                <duration>480</duration>
                <voice>1</voice>
                <type>quarter</type>
                <stem>down</stem>
                <lyric number="1">
                    <syllabic>single</syllabic>
                    <text>like</text>
                </lyric>
            </note>
            <note default-y="-15.00" default-x="121.94">
                <pitch>
                    <step>C</step>
                    <octave>5</octave>
                </pitch>
                <duration>480</duration>
                <voice>1</voice>
                <type>quarter</type>
                <stem>down</stem>
                <lyric number="1">
                    <syllabic>begin</syllabic>
                    <text>Dan</text>
                </lyric>
            </note>
            <note default-y="-25.00" default-x="163.72">
                <pitch>
                    <step>A</step>
                    <octave>4</octave>
                </pitch>
                <duration>480</duration>
                <voice>1</voice>
                <type>quarter</type>
                <stem>up</stem>
                <lyric number="1">
                    <syllabic>end</syllabic>
                    <text>iel</text>
                </lyric>
            </note>
        </measure>
        <measure width="66.29" number="40">
            <note>
                <rest/>
                <duration>1920</duration>
                <voice>1</voice>
            </note>
        </measure>
        <measure width="176.52" number="41">
            <harmony print-frame="no">
                <root>
                    <root-step>G</root-step>
                </root>
                <kind text="7">dominant</kind>
            </harmony>
            <note>
                <rest/>
                <duration>480</duration>
                <voice>1</voice>
                <type>quarter</type>
            </note>
            <note default-y="-30.00" default-x="54.98">
                <pitch>
                    <step>G</step>
                    <octave>4</octave>
                </pitch>
                <duration>480</duration>
                <voice>1</voice>
                <type>quarter</type>
                <stem>up</stem>
                <lyric number="1">
                    <syllabic>single</syllabic>
                    <text>Must</text>
                </lyric>
            </note>
            <note default-y="-30.00" default-x="94.96">
                <pitch>
                    <step>G</step>
                    <octave>4</octave>
                </pitch>
                <duration>480</duration>
                <voice>1</voice>
                <type>quarter</type>
                <stem>up</stem>
                <lyric number="1">
                    <syllabic>single</syllabic>
                    <text>be</text>
                </lyric>
            </note>
            <note default-y="-30.00" default-x="134.94">
                <pitch>
                    <step>G</step>
                    <octave>4</octave>
                </pitch>
                <duration>480</duration>
                <voice>1</voice>
                <type>quarter</type>
                <stem>up</stem>
                <lyric number="1">
                    <syllabic>single</syllabic>
                    <text>the</text>
                </lyric>
            </note>
        </measure>
        <measure width="183.33" number="42">
            <barline location="left">
                <ending type="start" number="2"></ending>
            </barline>
            <note default-y="0.00" default-x="37.90">
                <pitch>
                    <step>F</step>
                    <octave>5</octave>
                </pitch>
                <duration>480</duration>
                <voice>1</voice>
                <type>quarter</type>
                <stem>down</stem>
                <lyric number="1">
                    <syllabic>single</syllabic>
                    <text>clouds</text>
                </lyric>
            </note>
            <note default-y="-5.00" default-x="73.86">
                <pitch>
                    <step>E</step>
                    <octave>5</octave>
                </pitch>
                <duration>480</duration>
                <voice>1</voice>
                <type>quarter</type>
                <stem>down</stem>
            </note>
            <note default-y="-15.00" default-x="109.81">
                <pitch>
                    <step>C</step>
                    <octave>5</octave>
                </pitch>
                <duration>480</duration>
                <voice>1</voice>
                <type>quarter</type>
                <stem>down</stem>
                <lyric number="1">
                    <syllabic>single</syllabic>
                    <text>in</text>
                </lyric>
            </note>
            <note default-y="-10.00" default-x="145.77">
                <pitch>
                    <step>D</step>
                    <octave>5</octave>
                </pitch>
                <duration>480</duration>
                <voice>1</voice>
                <type>quarter</type>
                <stem>down</stem>
                <lyric number="1">
                    <syllabic>single</syllabic>
                    <text>my</text>
                </lyric>
            </note>
            <barline location="right">
                <ending type="stop" number="2"></ending>
            </barline>
        </measure>
        <measure width="91.30" number="43">
            <harmony print-frame="no">
                <root>
                    <root-step>C</root-step>
                </root>
                <kind text="">major</kind>
            </harmony>
            <note default-y="-15.00" default-x="31.31">
                <pitch>
                    <step>C</step>
                    <octave>5</octave>
                </pitch>
                <duration>1920</duration>
                <voice>1</voice>
                <type>whole</type>
                <lyric number="1">
                    <syllabic>single</syllabic>
                    <text>eyes.</text>
                </lyric>
            </note>
        </measure>
        <measure width="72.29" number="44">
            <note>
                <rest/>
                <duration>1920</duration>
                <voice>1</voice>
            </note>
            <barline location="right">
                <bar-style>light-heavy</bar-style>
            </barline>
        </measure>
    </part>
</score-partwise>
