<?xml version="1.0" encoding="UTF-8"?>
<!DOCTYPE score-partwise PUBLIC "-//Recordare//DTD MusicXML 2.0 Partwise//EN" "http://www.musicxml.org/dtds/partwise.dtd">
<score-partwise version="2.0">
    <work>
        <work-number></work-number>
        <work-title></work-title>
    </work>
    <movement-number></movement-number>
    <movement-title>This love</movement-title>
    <identification>
        <creator type="composer">Adam Levine, Jesse Charmichael</creator>
        <creator type="poet"></creator>
        <rights>All Rights Reserved</rights>
        <encoding>
            <software>Finale 2010 for Macintosh</software>
            <software>Dolet Light for Finale 2010</software>
            <encoding-date>2009-09-22</encoding-date>
            <supports value="yes" type="yes" element="print" attribute="new-system"/>
            <supports value="yes" type="yes" element="print" attribute="new-page"/>
            <software>ProxyMusic 2.0 c</software>
        </encoding>
        <source>http://www.wikifonia.org/node/2729/revisions/3428/view</source>
    </identification>
    <defaults>
        <scaling>
            <millimeters>8.4667</millimeters>
            <tenths>40</tenths>
        </scaling>
        <page-layout>
            <page-height>1320</page-height>
            <page-width>1020</page-width>
            <page-margins type="both">
                <left-margin>60</left-margin>
                <right-margin>57</right-margin>
                <top-margin>97</top-margin>
                <bottom-margin>80</bottom-margin>
            </page-margins>
        </page-layout>
        <system-layout>
            <system-margins>
                <left-margin>60</left-margin>
                <right-margin>27</right-margin>
            </system-margins>
            <system-distance>92</system-distance>
            <top-system-distance>92</top-system-distance>
        </system-layout>
        <staff-layout>
            <staff-distance>55</staff-distance>
        </staff-layout>
        <appearance>
            <line-width type="stem">0.7487</line-width>
            <line-width type="beam">5</line-width>
            <line-width type="staff">0.7487</line-width>
            <line-width type="light barline">0.7487</line-width>
            <line-width type="heavy barline">5</line-width>
            <line-width type="leger">0.7487</line-width>
            <line-width type="ending">1.4583</line-width>
            <line-width type="wedge">0.7487</line-width>
            <line-width type="enclosure">0.7487</line-width>
            <line-width type="tuplet bracket">0.7487</line-width>
            <note-size type="grace">60</note-size>
            <note-size type="cue">60</note-size>
        </appearance>
        <music-font font-size="24" font-family="Maestro"/>
        <word-font font-size="12" font-family="Times New Roman"/>
    </defaults>
    <credit page="1">
        <credit-words font-size="24" default-y="1260" default-x="510" justify="center" valign="top">This love</credit-words>
    </credit>
    <credit page="1">
        <credit-words font-size="12" default-y="1210" default-x="918" justify="right" valign="top">Adam Levine and Jesse Charmichael</credit-words>
    </credit>
    <part-list>
        <score-part id="P1">
            <part-name>Piano</part-name>
            <part-abbreviation>Pno</part-abbreviation>
            <score-instrument id="P1-I2">
                <instrument-name>Piano</instrument-name>
            </score-instrument>
            <midi-instrument id="P1-I2">
                <midi-channel>1</midi-channel>
                <midi-program>1</midi-program>
            </midi-instrument>
        </score-part>
    </part-list>
    <part id="P1">
        <measure width="238" number="1">
            <attributes>
                <divisions>8</divisions>
                <key>
                    <fifths>-3</fifths>
                    <mode>major</mode>
                </key>
                <time>
                    <beats>4</beats>
                    <beat-type>4</beat-type>
                </time>
                <staves>2</staves>
                <clef number="1">
                    <sign>G</sign>
                    <line>2</line>
                </clef>
                <clef number="2">
                    <sign>F</sign>
                    <line>4</line>
                </clef>
            </attributes>
            <direction placement="above">
                <direction-type>
                    <metronome font-size="12" font-family="EngraverTextT" default-y="15">
                        <beat-unit>quarter</beat-unit>
                        <per-minute>104</per-minute>
                    </metronome>
                </direction-type>
                <staff>1</staff>
                <sound tempo="104"/>
            </direction>
            <note default-x="168">
                <rest/>
                <duration>32</duration>
                <voice>1</voice>
                <type>whole</type>
                <staff>1</staff>
            </note>
            <backup>
                <duration>32</duration>
            </backup>
            <note default-x="168">
                <rest/>
                <duration>32</duration>
                <voice>2</voice>
                <type>whole</type>
                <staff>2</staff>
            </note>
        </measure>
        <measure width="327" number="2">
            <barline location="left">
                <bar-style>heavy-light</bar-style>
                <repeat direction="forward"/>
            </barline>
            <harmony default-y="34">
                <root>
                    <root-step>G</root-step>
                </root>
                <kind halign="center" text="7">dominant</kind>
                <bass>
                    <bass-step>B</bass-step>
                </bass>
                <staff>1</staff>
            </harmony>
            <note default-x="43">
                <pitch>
                    <step>B</step>
                    <octave>4</octave>
                </pitch>
                <duration>6</duration>
                <voice>1</voice>
                <type>eighth</type>
                <dot/>
                <accidental>natural</accidental>
                <stem default-y="-55">down</stem>
                <staff>1</staff>
                <beam number="1">begin</beam>
            </note>
            <note default-x="80">
                <pitch>
                    <step>B</step>
                    <octave>4</octave>
                </pitch>
                <duration>2</duration>
                <tie type="start"/>
                <voice>1</voice>
                <type>16th</type>
                <stem default-y="-55">down</stem>
                <staff>1</staff>
                <beam number="1">end</beam>
                <beam number="2">backward hook</beam>
                <notations>
                    <tied type="start"/>
                </notations>
            </note>
            <note default-x="113">
                <pitch>
                    <step>B</step>
                    <octave>4</octave>
                </pitch>
                <duration>4</duration>
                <tie type="stop"/>
                <voice>1</voice>
                <type>eighth</type>
                <stem default-y="-55">down</stem>
                <staff>1</staff>
                <beam number="1">begin</beam>
                <notations>
                    <tied type="stop"/>
                </notations>
            </note>
            <note default-x="141">
                <pitch>
                    <step>B</step>
                    <octave>4</octave>
                </pitch>
                <duration>3</duration>
                <voice>1</voice>
                <type>16th</type>
                <dot/>
                <stem default-y="-55">down</stem>
                <staff>1</staff>
                <beam number="1">end</beam>
                <beam number="2">backward hook</beam>
            </note>
            <note default-x="172">
                <pitch>
                    <step>B</step>
                    <octave>4</octave>
                </pitch>
                <duration>8</duration>
                <voice>1</voice>
                <type>quarter</type>
                <stem default-y="-55">down</stem>
                <staff>1</staff>
            </note>
            <note default-x="217">
                <pitch>
                    <step>E</step>
                    <alter>-1</alter>
                    <octave>4</octave>
                </pitch>
                <duration>2</duration>
                <voice>1</voice>
                <type>16th</type>
                <stem default-y="0">up</stem>
                <staff>1</staff>
                <beam number="1">begin</beam>
                <beam number="2">begin</beam>
            </note>
            <note default-x="238">
                <pitch>
                    <step>F</step>
                    <octave>4</octave>
                </pitch>
                <duration>2</duration>
                <voice>1</voice>
                <type>16th</type>
                <stem default-y="0">up</stem>
                <staff>1</staff>
                <beam number="1">continue</beam>
                <beam number="2">continue</beam>
            </note>
            <note default-x="259">
                <pitch>
                    <step>E</step>
                    <alter>-1</alter>
                    <octave>4</octave>
                </pitch>
                <duration>2</duration>
                <voice>1</voice>
                <type>16th</type>
                <stem default-y="0">up</stem>
                <staff>1</staff>
                <beam number="1">continue</beam>
                <beam number="2">continue</beam>
            </note>
            <note default-x="282">
                <pitch>
                    <step>C</step>
                    <octave>4</octave>
                </pitch>
                <duration>2</duration>
                <voice>1</voice>
                <type>16th</type>
                <stem default-y="0">up</stem>
                <staff>1</staff>
                <beam number="1">end</beam>
                <beam number="2">end</beam>
            </note>
            <note default-x="306">
                <rest/>
                <duration>1</duration>
                <voice>1</voice>
                <type>32nd</type>
                <staff>1</staff>
            </note>
            <backup>
                <duration>32</duration>
            </backup>
            <note default-x="164">
                <rest/>
                <duration>32</duration>
                <voice>2</voice>
                <type>whole</type>
                <staff>2</staff>
            </note>
        </measure>
        <measure width="253" number="3">
            <harmony default-y="34">
                <root>
                    <root-step>C</root-step>
                </root>
                <kind halign="center" text="m">minor</kind>
                <staff>1</staff>
            </harmony>
            <note default-x="16">
                <pitch>
                    <step>C</step>
                    <octave>5</octave>
                </pitch>
                <duration>4</duration>
                <voice>1</voice>
                <type>eighth</type>
                <stem default-y="-50">down</stem>
                <staff>1</staff>
                <beam number="1">begin</beam>
            </note>
            <note default-x="47">
                <pitch>
                    <step>C</step>
                    <octave>5</octave>
                </pitch>
                <duration>4</duration>
                <tie type="start"/>
                <voice>1</voice>
                <type>eighth</type>
                <stem default-y="-50">down</stem>
                <staff>1</staff>
                <beam number="1">continue</beam>
                <notations>
                    <tied type="start"/>
                </notations>
            </note>
            <note default-x="80">
                <pitch>
                    <step>C</step>
                    <octave>5</octave>
                </pitch>
                <duration>6</duration>
                <tie type="stop"/>
                <voice>1</voice>
                <type>eighth</type>
                <dot/>
                <stem default-y="-50">down</stem>
                <staff>1</staff>
                <beam number="1">continue</beam>
                <notations>
                    <tied type="stop"/>
                </notations>
            </note>
            <note default-x="117">
                <pitch>
                    <step>C</step>
                    <octave>5</octave>
                </pitch>
                <duration>4</duration>
                <voice>1</voice>
                <type>eighth</type>
                <stem default-y="-50">down</stem>
                <staff>1</staff>
                <beam number="1">end</beam>
            </note>
            <note default-x="148">
                <pitch>
                    <step>C</step>
                    <octave>5</octave>
                </pitch>
                <duration>8</duration>
                <voice>1</voice>
                <type>quarter</type>
                <stem default-y="-50">down</stem>
                <staff>1</staff>
            </note>
            <note default-x="204">
                <rest/>
                <duration>2</duration>
                <voice>1</voice>
                <type>16th</type>
                <staff>1</staff>
            </note>
            <note default-x="224">
                <rest/>
                <duration>4</duration>
                <voice>1</voice>
                <type>eighth</type>
                <staff>1</staff>
            </note>
            <backup>
                <duration>32</duration>
            </backup>
            <note default-x="16">
                <pitch>
                    <step>C</step>
                    <octave>2</octave>
                </pitch>
                <duration>4</duration>
                <voice>2</voice>
                <type>eighth</type>
                <stem default-y="-19.5">up</stem>
                <staff>2</staff>
            </note>
            <note default-x="47">
                <rest/>
                <duration>4</duration>
                <voice>2</voice>
                <type>eighth</type>
                <staff>2</staff>
            </note>
            <note default-x="80">
                <rest/>
                <duration>8</duration>
                <voice>2</voice>
                <type>quarter</type>
                <staff>2</staff>
            </note>
            <note default-x="131">
                <rest/>
                <duration>4</duration>
                <voice>2</voice>
                <type>eighth</type>
                <staff>2</staff>
            </note>
            <note default-x="162">
                <pitch>
                    <step>G</step>
                    <octave>2</octave>
                </pitch>
                <duration>4</duration>
                <voice>2</voice>
                <type>eighth</type>
                <stem default-y="-5">up</stem>
                <staff>2</staff>
                <beam number="1">begin</beam>
            </note>
            <note default-x="190">
                <pitch>
                    <step>G</step>
                    <octave>2</octave>
                </pitch>
                <duration>4</duration>
                <voice>2</voice>
                <type>eighth</type>
                <stem default-y="-5">up</stem>
                <staff>2</staff>
                <beam number="1">continue</beam>
            </note>
            <note default-x="224">
                <pitch>
                    <step>G</step>
                    <alter>-1</alter>
                    <octave>2</octave>
                </pitch>
                <duration>4</duration>
                <voice>2</voice>
                <type>eighth</type>
                <accidental>flat</accidental>
                <stem default-y="-5">up</stem>
                <staff>2</staff>
                <beam number="1">end</beam>
            </note>
        </measure>
        <measure width="342" number="4">
            <print new-system="yes"/>
            <harmony default-y="34">
                <root>
                    <root-step>F</root-step>
                </root>
                <kind halign="center" text="m7">minor-seventh</kind>
                <staff>1</staff>
            </harmony>
            <note default-x="98">
                <pitch>
                    <step>E</step>
                    <alter>-1</alter>
                    <octave>4</octave>
                </pitch>
                <duration>8</duration>
                <voice>1</voice>
                <type>quarter</type>
                <stem default-y="14">up</stem>
                <staff>1</staff>
            </note>
            <note default-x="98">
                <chord/>
                <pitch>
                    <step>A</step>
                    <alter>-1</alter>
                    <octave>4</octave>
                </pitch>
                <duration>8</duration>
                <voice>1</voice>
                <type>quarter</type>
                <stem>up</stem>
                <staff>1</staff>
            </note>
            <note default-x="98">
                <chord/>
                <pitch>
                    <step>C</step>
                    <octave>5</octave>
                </pitch>
                <duration>8</duration>
                <tie type="start"/>
                <voice>1</voice>
                <type>quarter</type>
                <stem>up</stem>
                <staff>1</staff>
                <notations>
                    <tied type="start"/>
                </notations>
            </note>
            <note default-x="160">
                <pitch>
                    <step>E</step>
                    <alter>-1</alter>
                    <octave>4</octave>
                </pitch>
                <duration>8</duration>
                <voice>1</voice>
                <type>quarter</type>
                <stem default-y="14">up</stem>
                <staff>1</staff>
            </note>
            <note default-x="160">
                <chord/>
                <pitch>
                    <step>A</step>
                    <alter>-1</alter>
                    <octave>4</octave>
                </pitch>
                <duration>8</duration>
                <voice>1</voice>
                <type>quarter</type>
                <stem>up</stem>
                <staff>1</staff>
            </note>
            <note default-x="160">
                <chord/>
                <pitch>
                    <step>C</step>
                    <octave>5</octave>
                </pitch>
                <duration>8</duration>
                <tie type="stop"/>
                <voice>1</voice>
                <type>quarter</type>
                <stem>up</stem>
                <staff>1</staff>
                <notations>
                    <tied type="stop"/>
                </notations>
            </note>
            <note default-x="210">
                <pitch>
                    <step>E</step>
                    <alter>-1</alter>
                    <octave>4</octave>
                </pitch>
                <duration>4</duration>
                <voice>1</voice>
                <type>eighth</type>
                <stem default-y="0">up</stem>
                <staff>1</staff>
                <beam number="1">begin</beam>
            </note>
            <note default-x="240">
                <pitch>
                    <step>F</step>
                    <octave>4</octave>
                </pitch>
                <duration>4</duration>
                <voice>1</voice>
                <type>eighth</type>
                <stem default-y="0">up</stem>
                <staff>1</staff>
                <beam number="1">continue</beam>
            </note>
            <note default-x="270">
                <pitch>
                    <step>E</step>
                    <alter>-1</alter>
                    <octave>4</octave>
                </pitch>
                <duration>4</duration>
                <voice>1</voice>
                <type>eighth</type>
                <stem default-y="0">up</stem>
                <staff>1</staff>
                <beam number="1">continue</beam>
            </note>
            <note default-x="301">
                <pitch>
                    <step>C</step>
                    <octave>4</octave>
                </pitch>
                <duration>2</duration>
                <voice>1</voice>
                <type>16th</type>
                <stem default-y="0">up</stem>
                <staff>1</staff>
                <beam number="1">end</beam>
                <beam number="2">backward hook</beam>
            </note>
            <note default-x="322">
                <rest/>
                <duration>2</duration>
                <voice>1</voice>
                <type>16th</type>
                <staff>1</staff>
            </note>
            <backup>
                <duration>32</duration>
            </backup>
            <note default-x="98">
                <pitch>
                    <step>F</step>
                    <octave>2</octave>
                </pitch>
                <duration>4</duration>
                <voice>2</voice>
                <type>eighth</type>
                <stem default-y="-9.5">up</stem>
                <staff>2</staff>
            </note>
            <note default-x="130">
                <rest/>
                <duration>4</duration>
                <voice>2</voice>
                <type>eighth</type>
                <staff>2</staff>
            </note>
            <note default-x="161">
                <rest/>
                <duration>8</duration>
                <voice>2</voice>
                <type>quarter</type>
                <staff>2</staff>
            </note>
            <note default-x="208">
                <rest/>
                <duration>16</duration>
                <voice>2</voice>
                <type>half</type>
                <staff>2</staff>
            </note>
        </measure>
        <measure width="248" number="5">
            <harmony default-y="34">
                <root>
                    <root-step>D</root-step>
                </root>
                <kind halign="center" text="dim7">diminished-seventh</kind>
                <staff>1</staff>
            </harmony>
            <note default-x="16">
                <pitch>
                    <step>D</step>
                    <octave>4</octave>
                </pitch>
                <duration>4</duration>
                <tie type="start"/>
                <voice>1</voice>
                <type>eighth</type>
                <stem default-y="15">up</stem>
                <staff>1</staff>
                <beam number="1">begin</beam>
                <notations>
                    <tied type="start"/>
                </notations>
            </note>
            <note default-x="16">
                <chord/>
                <pitch>
                    <step>F</step>
                    <octave>4</octave>
                </pitch>
                <duration>4</duration>
                <tie type="start"/>
                <voice>1</voice>
                <type>eighth</type>
                <stem>up</stem>
                <staff>1</staff>
                <notations>
                    <tied type="start"/>
                </notations>
            </note>
            <note default-x="16">
                <chord/>
                <pitch>
                    <step>A</step>
                    <alter>-1</alter>
                    <octave>4</octave>
                </pitch>
                <duration>4</duration>
                <tie type="start"/>
                <voice>1</voice>
                <type>eighth</type>
                <stem>up</stem>
                <staff>1</staff>
                <notations>
                    <tied type="start"/>
                </notations>
            </note>
            <note default-x="28">
                <chord/>
                <pitch>
                    <step>B</step>
                    <alter>-1</alter>
                    <octave>4</octave>
                </pitch>
                <duration>4</duration>
                <tie type="start"/>
                <voice>1</voice>
                <type>eighth</type>
                <stem>up</stem>
                <staff>1</staff>
                <notations>
                    <tied type="start"/>
                </notations>
            </note>
            <note default-x="61">
                <pitch>
                    <step>D</step>
                    <octave>4</octave>
                </pitch>
                <duration>4</duration>
                <tie type="stop"/>
                <voice>1</voice>
                <type>eighth</type>
                <stem default-y="15">up</stem>
                <staff>1</staff>
                <beam number="1">end</beam>
                <notations>
                    <tied type="stop"/>
                </notations>
            </note>
            <note default-x="61">
                <chord/>
                <pitch>
                    <step>F</step>
                    <octave>4</octave>
                </pitch>
                <duration>4</duration>
                <tie type="stop"/>
                <voice>1</voice>
                <type>eighth</type>
                <stem>up</stem>
                <staff>1</staff>
                <notations>
                    <tied type="stop"/>
                </notations>
            </note>
            <note default-x="61">
                <chord/>
                <pitch>
                    <step>A</step>
                    <alter>-1</alter>
                    <octave>4</octave>
                </pitch>
                <duration>4</duration>
                <tie type="stop"/>
                <voice>1</voice>
                <type>eighth</type>
                <stem>up</stem>
                <staff>1</staff>
                <notations>
                    <tied type="stop"/>
                </notations>
            </note>
            <note default-x="73">
                <chord/>
                <pitch>
                    <step>B</step>
                    <alter>-1</alter>
                    <octave>4</octave>
                </pitch>
                <duration>4</duration>
                <tie type="stop"/>
                <voice>1</voice>
                <type>eighth</type>
                <stem>up</stem>
                <staff>1</staff>
                <notations>
                    <tied type="stop"/>
                </notations>
            </note>
            <note default-x="98">
                <rest/>
                <duration>8</duration>
                <voice>1</voice>
                <type>quarter</type>
                <staff>1</staff>
            </note>
            <note default-x="148">
                <rest/>
                <duration>16</duration>
                <voice>1</voice>
                <type>half</type>
                <staff>1</staff>
            </note>
            <backup>
                <duration>32</duration>
            </backup>
            <note default-x="16">
                <pitch>
                    <step>D</step>
                    <octave>2</octave>
                </pitch>
                <duration>4</duration>
                <voice>2</voice>
                <type>eighth</type>
                <stem default-y="-19.5">up</stem>
                <staff>2</staff>
            </note>
            <note default-x="61">
                <rest/>
                <duration>4</duration>
                <voice>2</voice>
                <type>eighth</type>
                <staff>2</staff>
            </note>
            <note default-x="98">
                <rest/>
                <duration>8</duration>
                <voice>2</voice>
                <type>quarter</type>
                <staff>2</staff>
            </note>
            <note default-x="148">
                <rest/>
                <duration>16</duration>
                <voice>2</voice>
                <type>half</type>
                <staff>2</staff>
            </note>
            <barline location="right">
                <bar-style>light-heavy</bar-style>
                <repeat direction="backward"/>
            </barline>
        </measure>
        <measure width="228" number="6">
            <barline location="left">
                <bar-style>heavy-light</bar-style>
                <repeat direction="forward"/>
            </barline>
            <harmony default-y="34">
                <root>
                    <root-step>C</root-step>
                </root>
                <kind halign="center" text="">minor</kind>
                <staff>1</staff>
            </harmony>
            <note default-x="33">
                <pitch>
                    <step>G</step>
                    <octave>4</octave>
                </pitch>
                <duration>8</duration>
                <voice>1</voice>
                <type>quarter</type>
                <stem default-y="5.5">up</stem>
                <staff>1</staff>
            </note>
            <note default-x="79">
                <pitch>
                    <step>G</step>
                    <octave>4</octave>
                </pitch>
                <duration>8</duration>
                <voice>1</voice>
                <type>quarter</type>
                <stem default-y="5.5">up</stem>
                <staff>1</staff>
            </note>
            <note default-x="124">
                <pitch>
                    <step>G</step>
                    <octave>4</octave>
                </pitch>
                <duration>8</duration>
                <voice>1</voice>
                <type>quarter</type>
                <stem default-y="5.5">up</stem>
                <staff>1</staff>
            </note>
            <note default-x="170">
                <pitch>
                    <step>G</step>
                    <octave>4</octave>
                </pitch>
                <duration>4</duration>
                <voice>1</voice>
                <type>eighth</type>
                <stem default-y="5">up</stem>
                <staff>1</staff>
                <beam number="1">begin</beam>
            </note>
            <note default-x="198">
                <pitch>
                    <step>E</step>
                    <alter>-1</alter>
                    <octave>4</octave>
                </pitch>
                <duration>4</duration>
                <voice>1</voice>
                <type>eighth</type>
                <stem default-y="3">up</stem>
                <staff>1</staff>
                <beam number="1">end</beam>
            </note>
            <backup>
                <duration>32</duration>
            </backup>
            <note default-x="114">
                <rest/>
                <duration>32</duration>
                <voice>2</voice>
                <type>whole</type>
                <staff>2</staff>
            </note>
        </measure>
        <measure width="316" number="7">
            <print new-system="yes"/>
            <direction>
                <direction-type>
                    <words default-y="34" justify="center">BbBb</words>
                </direction-type>
                <staff>1</staff>
            </direction>
            <note default-x="100">
                <pitch>
                    <step>G</step>
                    <octave>4</octave>
                </pitch>
                <duration>4</duration>
                <voice>1</voice>
                <type>eighth</type>
                <stem default-y="5">up</stem>
                <staff>1</staff>
                <beam number="1">begin</beam>
            </note>
            <note default-x="128">
                <pitch>
                    <step>E</step>
                    <alter>-1</alter>
                    <octave>4</octave>
                </pitch>
                <duration>6</duration>
                <voice>1</voice>
                <type>eighth</type>
                <dot/>
                <stem default-y="3">up</stem>
                <staff>1</staff>
                <beam number="1">end</beam>
            </note>
            <note default-x="165">
                <rest/>
                <duration>4</duration>
                <voice>1</voice>
                <type>eighth</type>
                <staff>1</staff>
            </note>
            <note default-x="193">
                <pitch>
                    <step>G</step>
                    <octave>4</octave>
                </pitch>
                <duration>4</duration>
                <voice>1</voice>
                <type>eighth</type>
                <stem default-y="5">up</stem>
                <staff>1</staff>
                <beam number="1">begin</beam>
            </note>
            <direction>
                <direction-type>
                    <words default-y="34" justify="center">EbEb</words>
                </direction-type>
                <staff>1</staff>
            </direction>
            <note default-x="222">
                <pitch>
                    <step>E</step>
                    <alter>-1</alter>
                    <octave>4</octave>
                </pitch>
                <duration>6</duration>
                <voice>1</voice>
                <type>eighth</type>
                <dot/>
                <stem default-y="3">up</stem>
                <staff>1</staff>
                <beam number="1">end</beam>
            </note>
            <note default-x="259">
                <rest/>
                <duration>4</duration>
                <voice>1</voice>
                <type>eighth</type>
                <staff>1</staff>
            </note>
            <note default-x="287">
                <pitch>
                    <step>G</step>
                    <octave>4</octave>
                </pitch>
                <duration>4</duration>
                <voice>1</voice>
                <type>eighth</type>
                <stem default-y="5.5">up</stem>
                <staff>1</staff>
            </note>
            <backup>
                <duration>32</duration>
            </backup>
            <note default-x="192">
                <rest/>
                <duration>32</duration>
                <voice>2</voice>
                <type>whole</type>
                <staff>2</staff>
            </note>
        </measure>
        <measure width="268" number="8">
            <harmony default-y="34">
                <root>
                    <root-step>C</root-step>
                </root>
                <kind halign="center" text="m">minor</kind>
                <staff>1</staff>
            </harmony>
            <note default-x="15">
                <pitch>
                    <step>E</step>
                    <alter>-1</alter>
                    <octave>4</octave>
                </pitch>
                <duration>6</duration>
                <voice>1</voice>
                <type>eighth</type>
                <dot/>
                <stem default-y="-4.5">up</stem>
                <staff>1</staff>
            </note>
            <note default-x="58">
                <rest/>
                <duration>2</duration>
                <voice>1</voice>
                <type>16th</type>
                <staff>1</staff>
            </note>
            <note default-x="78">
                <rest/>
                <duration>2</duration>
                <voice>1</voice>
                <type>16th</type>
                <staff>1</staff>
            </note>
            <note default-x="97">
                <pitch>
                    <step>G</step>
                    <octave>4</octave>
                </pitch>
                <duration>4</duration>
                <voice>1</voice>
                <type>eighth</type>
                <stem default-y="5">up</stem>
                <staff>1</staff>
                <beam number="1">begin</beam>
            </note>
            <harmony default-y="34">
                <root>
                    <root-step>F</root-step>
                </root>
                <kind halign="center" text="m7">minor-seventh</kind>
                <staff>1</staff>
            </harmony>
            <note default-x="130">
                <pitch>
                    <step>C</step>
                    <octave>4</octave>
                </pitch>
                <duration>6</duration>
                <voice>1</voice>
                <type>eighth</type>
                <dot/>
                <stem default-y="3">up</stem>
                <staff>1</staff>
                <beam number="1">end</beam>
            </note>
            <note default-x="172">
                <rest/>
                <duration>2</duration>
                <voice>1</voice>
                <type>16th</type>
                <staff>1</staff>
            </note>
            <note default-x="192">
                <pitch>
                    <step>G</step>
                    <octave>4</octave>
                </pitch>
                <duration>6</duration>
                <voice>1</voice>
                <type>eighth</type>
                <dot/>
                <stem default-y="5.5">up</stem>
                <staff>1</staff>
            </note>
            <note default-x="235">
                <rest/>
                <duration>4</duration>
                <voice>1</voice>
                <type>eighth</type>
                <staff>1</staff>
            </note>
            <backup>
                <duration>32</duration>
            </backup>
            <note default-x="125">
                <rest/>
                <duration>32</duration>
                <voice>2</voice>
                <type>whole</type>
                <staff>2</staff>
            </note>
        </measure>
        <measure width="234" number="9">
            <direction>
                <direction-type>
                    <words default-y="34" justify="center">BbBb</words>
                </direction-type>
                <staff>1</staff>
            </direction>
            <note default-x="15">
                <pitch>
                    <step>F</step>
                    <octave>4</octave>
                </pitch>
                <duration>4</duration>
                <voice>1</voice>
                <type>eighth</type>
                <stem default-y="0">up</stem>
                <staff>1</staff>
                <beam number="1">begin</beam>
            </note>
            <note default-x="42">
                <pitch>
                    <step>E</step>
                    <alter>-1</alter>
                    <octave>4</octave>
                </pitch>
                <duration>4</duration>
                <voice>1</voice>
                <type>eighth</type>
                <stem default-y="0">up</stem>
                <staff>1</staff>
                <beam number="1">continue</beam>
            </note>
            <note default-x="70">
                <pitch>
                    <step>E</step>
                    <alter>-1</alter>
                    <octave>4</octave>
                </pitch>
                <duration>4</duration>
                <voice>1</voice>
                <type>eighth</type>
                <stem default-y="0">up</stem>
                <staff>1</staff>
                <beam number="1">continue</beam>
            </note>
            <note default-x="97">
                <pitch>
                    <step>F</step>
                    <octave>4</octave>
                </pitch>
                <duration>4</duration>
                <voice>1</voice>
                <type>eighth</type>
                <stem default-y="0">up</stem>
                <staff>1</staff>
                <beam number="1">end</beam>
            </note>
            <direction>
                <direction-type>
                    <words default-y="34" justify="center">EbEb</words>
                </direction-type>
                <staff>1</staff>
            </direction>
            <note default-x="124">
                <pitch>
                    <step>E</step>
                    <alter>-1</alter>
                    <octave>4</octave>
                </pitch>
                <duration>4</duration>
                <voice>1</voice>
                <type>eighth</type>
                <stem default-y="0">up</stem>
                <staff>1</staff>
                <beam number="1">begin</beam>
            </note>
            <note default-x="151">
                <pitch>
                    <step>F</step>
                    <octave>4</octave>
                </pitch>
                <duration>4</duration>
                <voice>1</voice>
                <type>eighth</type>
                <stem default-y="0">up</stem>
                <staff>1</staff>
                <beam number="1">continue</beam>
            </note>
            <note default-x="178">
                <pitch>
                    <step>E</step>
                    <alter>-1</alter>
                    <octave>4</octave>
                </pitch>
                <duration>4</duration>
                <voice>1</voice>
                <type>eighth</type>
                <stem default-y="0">up</stem>
                <staff>1</staff>
                <beam number="1">continue</beam>
            </note>
            <note default-x="206">
                <pitch>
                    <step>D</step>
                    <octave>4</octave>
                </pitch>
                <duration>4</duration>
                <voice>1</voice>
                <type>eighth</type>
                <stem default-y="0">up</stem>
                <staff>1</staff>
                <beam number="1">end</beam>
            </note>
            <backup>
                <duration>32</duration>
            </backup>
            <note default-x="108">
                <rest/>
                <duration>32</duration>
                <voice>2</voice>
                <type>whole</type>
                <staff>2</staff>
            </note>
        </measure>
        <measure width="313" number="10">
            <print new-system="yes"/>
            <harmony default-y="34">
                <root>
                    <root-step>C</root-step>
                </root>
                <kind halign="center" text="m">minor</kind>
                <staff>1</staff>
            </harmony>
            <note default-x="101">
                <pitch>
                    <step>C</step>
                    <octave>4</octave>
                </pitch>
                <duration>4</duration>
                <voice>1</voice>
                <type>eighth</type>
                <stem default-y="-14.5">up</stem>
                <staff>1</staff>
            </note>
            <note default-x="132">
                <rest/>
                <duration>4</duration>
                <voice>1</voice>
                <type>eighth</type>
                <staff>1</staff>
            </note>
            <harmony default-y="34">
                <root>
                    <root-step>F</root-step>
                </root>
                <kind halign="center" text="m7">minor-seventh</kind>
                <staff>1</staff>
            </harmony>
            <note default-x="163">
                <pitch>
                    <step>G</step>
                    <octave>4</octave>
                </pitch>
                <duration>8</duration>
                <voice>1</voice>
                <type>quarter</type>
                <stem default-y="5.5">up</stem>
                <staff>1</staff>
            </note>
            <note default-x="213">
                <pitch>
                    <step>G</step>
                    <octave>4</octave>
                </pitch>
                <duration>8</duration>
                <voice>1</voice>
                <type>quarter</type>
                <stem default-y="5.5">up</stem>
                <staff>1</staff>
            </note>
            <direction>
                <direction-type>
                    <words default-y="34" justify="center">BbBb</words>
                </direction-type>
                <staff>1</staff>
            </direction>
            <note default-x="262">
                <pitch>
                    <step>G</step>
                    <octave>4</octave>
                </pitch>
                <duration>8</duration>
                <voice>1</voice>
                <type>quarter</type>
                <stem default-y="5.5">up</stem>
                <staff>1</staff>
            </note>
            <backup>
                <duration>32</duration>
            </backup>
            <note default-x="190">
                <rest/>
                <duration>32</duration>
                <voice>2</voice>
                <type>whole</type>
                <staff>2</staff>
            </note>
        </measure>
        <measure width="242" number="11">
            <direction>
                <direction-type>
                    <words default-y="34" justify="center">EbEb</words>
                </direction-type>
                <staff>1</staff>
            </direction>
            <note default-x="15">
                <pitch>
                    <step>G</step>
                    <octave>4</octave>
                </pitch>
                <duration>4</duration>
                <voice>1</voice>
                <type>eighth</type>
                <stem default-y="5">up</stem>
                <staff>1</staff>
                <beam number="1">begin</beam>
            </note>
            <note default-x="45">
                <pitch>
                    <step>E</step>
                    <alter>-1</alter>
                    <octave>4</octave>
                </pitch>
                <duration>4</duration>
                <voice>1</voice>
                <type>eighth</type>
                <stem default-y="5">up</stem>
                <staff>1</staff>
                <beam number="1">continue</beam>
            </note>
            <note default-x="74">
                <pitch>
                    <step>F</step>
                    <octave>4</octave>
                </pitch>
                <duration>4</duration>
                <voice>1</voice>
                <type>eighth</type>
                <stem default-y="5">up</stem>
                <staff>1</staff>
                <beam number="1">continue</beam>
            </note>
            <note default-x="104">
                <pitch>
                    <step>G</step>
                    <octave>4</octave>
                </pitch>
                <duration>6</duration>
                <voice>1</voice>
                <type>eighth</type>
                <dot/>
                <stem default-y="5">up</stem>
                <staff>1</staff>
                <beam number="1">end</beam>
            </note>
            <note default-x="143">
                <rest/>
                <duration>4</duration>
                <voice>1</voice>
                <type>eighth</type>
                <staff>1</staff>
            </note>
            <note default-x="173">
                <pitch>
                    <step>F</step>
                    <octave>4</octave>
                </pitch>
                <duration>4</duration>
                <voice>1</voice>
                <type>eighth</type>
                <stem default-y="-5">up</stem>
                <staff>1</staff>
                <beam number="1">begin</beam>
            </note>
            <note default-x="202">
                <pitch>
                    <step>E</step>
                    <alter>-1</alter>
                    <octave>4</octave>
                </pitch>
                <duration>6</duration>
                <voice>1</voice>
                <type>eighth</type>
                <dot/>
                <stem default-y="-7">up</stem>
                <staff>1</staff>
                <beam number="1">end</beam>
            </note>
            <backup>
                <duration>32</duration>
            </backup>
            <note default-x="113">
                <rest/>
                <duration>32</duration>
                <voice>2</voice>
                <type>whole</type>
                <staff>2</staff>
            </note>
        </measure>
        <measure width="263" number="12">
            <harmony default-y="34">
                <root>
                    <root-step>C</root-step>
                </root>
                <kind halign="center" text="m">minor</kind>
                <staff>1</staff>
            </harmony>
            <note default-x="15">
                <rest/>
                <duration>4</duration>
                <voice>1</voice>
                <type>eighth</type>
                <staff>1</staff>
            </note>
            <note default-x="46">
                <pitch>
                    <step>G</step>
                    <octave>4</octave>
                </pitch>
                <duration>4</duration>
                <voice>1</voice>
                <type>eighth</type>
                <stem default-y="5">up</stem>
                <staff>1</staff>
                <beam number="1">begin</beam>
            </note>
            <note default-x="78">
                <pitch>
                    <step>E</step>
                    <alter>-1</alter>
                    <octave>4</octave>
                </pitch>
                <duration>6</duration>
                <voice>1</voice>
                <type>eighth</type>
                <dot/>
                <stem default-y="3">up</stem>
                <staff>1</staff>
                <beam number="1">end</beam>
            </note>
            <harmony default-y="34">
                <root>
                    <root-step>F</root-step>
                </root>
                <kind halign="center" text="m">minor</kind>
                <staff>1</staff>
            </harmony>
            <note default-x="119">
                <rest/>
                <duration>2</duration>
                <voice>1</voice>
                <type>16th</type>
                <staff>1</staff>
            </note>
            <note default-x="138">
                <pitch>
                    <step>G</step>
                    <octave>4</octave>
                </pitch>
                <duration>4</duration>
                <voice>1</voice>
                <type>eighth</type>
                <stem default-y="5">up</stem>
                <staff>1</staff>
                <beam number="1">begin</beam>
            </note>
            <note default-x="170">
                <pitch>
                    <step>C</step>
                    <octave>4</octave>
                </pitch>
                <duration>6</duration>
                <voice>1</voice>
                <type>eighth</type>
                <dot/>
                <stem default-y="3">up</stem>
                <staff>1</staff>
                <beam number="1">end</beam>
            </note>
            <note default-x="211">
                <rest/>
                <duration>2</duration>
                <voice>1</voice>
                <type>16th</type>
                <staff>1</staff>
            </note>
            <note default-x="231">
                <rest/>
                <duration>4</duration>
                <voice>1</voice>
                <type>eighth</type>
                <staff>1</staff>
            </note>
            <backup>
                <duration>32</duration>
            </backup>
            <note default-x="123">
                <rest/>
                <duration>32</duration>
                <voice>2</voice>
                <type>whole</type>
                <staff>2</staff>
            </note>
        </measure>
        <measure width="290" number="13">
            <print new-system="yes"/>
            <direction>
                <direction-type>
                    <words default-y="34" justify="center">BbBb</words>
                </direction-type>
                <staff>1</staff>
            </direction>
            <note default-x="100">
                <pitch>
                    <step>G</step>
                    <octave>4</octave>
                </pitch>
                <duration>6</duration>
                <voice>1</voice>
                <type>eighth</type>
                <dot/>
                <stem default-y="5.5">up</stem>
                <staff>1</staff>
            </note>
            <note default-x="136">
                <rest/>
                <duration>2</duration>
                <voice>1</voice>
                <type>16th</type>
                <staff>1</staff>
            </note>
            <note default-x="155">
                <pitch>
                    <step>F</step>
                    <octave>4</octave>
                </pitch>
                <duration>4</duration>
                <voice>1</voice>
                <type>eighth</type>
                <stem default-y="-5">up</stem>
                <staff>1</staff>
                <beam number="1">begin</beam>
            </note>
            <note default-x="177">
                <pitch>
                    <step>E</step>
                    <alter>-1</alter>
                    <octave>4</octave>
                </pitch>
                <duration>4</duration>
                <voice>1</voice>
                <type>eighth</type>
                <stem default-y="-7">up</stem>
                <staff>1</staff>
                <beam number="1">end</beam>
            </note>
            <note default-x="199">
                <pitch>
                    <step>E</step>
                    <alter>-1</alter>
                    <octave>4</octave>
                </pitch>
                <duration>4</duration>
                <voice>1</voice>
                <type>eighth</type>
                <stem default-y="0">up</stem>
                <staff>1</staff>
                <beam number="1">begin</beam>
            </note>
            <direction>
                <direction-type>
                    <words default-y="34" justify="center">AbAb</words>
                </direction-type>
                <staff>1</staff>
            </direction>
            <note default-x="222">
                <pitch>
                    <step>F</step>
                    <octave>4</octave>
                </pitch>
                <duration>4</duration>
                <voice>1</voice>
                <type>eighth</type>
                <stem default-y="0">up</stem>
                <staff>1</staff>
                <beam number="1">continue</beam>
            </note>
            <note default-x="244">
                <pitch>
                    <step>E</step>
                    <alter>-1</alter>
                    <octave>4</octave>
                </pitch>
                <duration>4</duration>
                <voice>1</voice>
                <type>eighth</type>
                <stem default-y="0">up</stem>
                <staff>1</staff>
                <beam number="1">continue</beam>
            </note>
            <note default-x="267">
                <pitch>
                    <step>D</step>
                    <octave>4</octave>
                </pitch>
                <duration>4</duration>
                <voice>1</voice>
                <type>eighth</type>
                <stem default-y="0">up</stem>
                <staff>1</staff>
                <beam number="1">end</beam>
            </note>
            <backup>
                <duration>32</duration>
            </backup>
            <note default-x="179">
                <rest/>
                <duration>32</duration>
                <voice>2</voice>
                <type>whole</type>
                <staff>2</staff>
            </note>
        </measure>
        <measure width="200" number="14">
            <direction>
                <direction-type>
                    <words default-y="34" justify="center">GG</words>
                </direction-type>
                <staff>1</staff>
            </direction>
            <note default-x="16">
                <pitch>
                    <step>C</step>
                    <octave>4</octave>
                </pitch>
                <duration>4</duration>
                <voice>1</voice>
                <type>eighth</type>
                <stem default-y="-14.5">up</stem>
                <staff>1</staff>
            </note>
            <note default-x="56">
                <pitch>
                    <step>B</step>
                    <octave>3</octave>
                </pitch>
                <duration>16</duration>
                <voice>1</voice>
                <type>half</type>
                <accidental>natural</accidental>
                <stem default-y="-19.5">up</stem>
                <staff>1</staff>
            </note>
            <note default-x="114">
                <rest/>
                <duration>4</duration>
                <voice>1</voice>
                <type>eighth</type>
                <staff>1</staff>
            </note>
            <note default-x="137">
                <pitch>
                    <step>B</step>
                    <octave>3</octave>
                </pitch>
                <duration>6</duration>
                <voice>1</voice>
                <type>eighth</type>
                <dot/>
                <stem default-y="-20">up</stem>
                <staff>1</staff>
                <beam number="1">begin</beam>
            </note>
            <note default-x="167">
                <pitch>
                    <step>D</step>
                    <octave>4</octave>
                </pitch>
                <duration>2</duration>
                <tie type="start"/>
                <voice>1</voice>
                <type>16th</type>
                <stem default-y="-17">up</stem>
                <staff>1</staff>
                <beam number="1">end</beam>
                <beam number="2">backward hook</beam>
                <notations>
                    <tied type="start"/>
                </notations>
            </note>
            <backup>
                <duration>32</duration>
            </backup>
            <note default-x="92">
                <rest/>
                <duration>32</duration>
                <voice>2</voice>
                <type>whole</type>
                <staff>2</staff>
            </note>
        </measure>
        <measure width="174" number="15">
            <harmony default-y="34">
                <root>
                    <root-step>C</root-step>
                </root>
                <kind halign="center" text="m">minor</kind>
                <staff>1</staff>
            </harmony>
            <note default-x="17">
                <pitch>
                    <step>D</step>
                    <octave>4</octave>
                </pitch>
                <duration>2</duration>
                <tie type="stop"/>
                <voice>1</voice>
                <type>16th</type>
                <stem default-y="-9.5">up</stem>
                <staff>1</staff>
                <notations>
                    <tied type="stop"/>
                </notations>
            </note>
            <note default-x="48">
                <pitch>
                    <step>C</step>
                    <octave>4</octave>
                </pitch>
                <duration>24</duration>
                <voice>1</voice>
                <type>half</type>
                <dot/>
                <stem default-y="-14.5">up</stem>
                <staff>1</staff>
            </note>
            <note default-x="126">
                <rest/>
                <duration>2</duration>
                <voice>1</voice>
                <type>16th</type>
                <staff>1</staff>
            </note>
            <note default-x="145">
                <pitch>
                    <step>G</step>
                    <octave>4</octave>
                </pitch>
                <duration>4</duration>
                <voice>1</voice>
                <type>eighth</type>
                <stem default-y="5.5">up</stem>
                <staff>1</staff>
            </note>
            <backup>
                <duration>32</duration>
            </backup>
            <note default-x="78">
                <rest/>
                <duration>32</duration>
                <voice>2</voice>
                <type>whole</type>
                <staff>2</staff>
            </note>
        </measure>
        <measure width="153" number="16">
            <harmony default-y="34">
                <root>
                    <root-step>F</root-step>
                </root>
                <kind halign="center" text="m">minor</kind>
                <staff>1</staff>
            </harmony>
            <note default-x="25">
                <pitch>
                    <step>G</step>
                    <alter>-1</alter>
                    <octave>4</octave>
                </pitch>
                <duration>4</duration>
                <voice>1</voice>
                <type>eighth</type>
                <accidental>flat</accidental>
                <stem default-y="5.5">up</stem>
                <staff>1</staff>
            </note>
            <note default-x="53">
                <pitch>
                    <step>F</step>
                    <octave>4</octave>
                </pitch>
                <duration>24</duration>
                <voice>1</voice>
                <type>half</type>
                <dot/>
                <stem default-y="0.5">up</stem>
                <staff>1</staff>
            </note>
            <note default-x="130">
                <rest/>
                <duration>4</duration>
                <voice>1</voice>
                <type>eighth</type>
                <staff>1</staff>
            </note>
            <backup>
                <duration>32</duration>
            </backup>
            <note default-x="68">
                <rest/>
                <duration>32</duration>
                <voice>2</voice>
                <type>whole</type>
                <staff>2</staff>
            </note>
        </measure>
        <measure width="427" number="17">
            <print new-page="yes"/>
            <harmony default-y="34">
                <root>
                    <root-step>G</root-step>
                </root>
                <kind halign="center" text="7">dominant</kind>
                <staff>1</staff>
            </harmony>
            <note default-x="100">
                <pitch>
                    <step>F</step>
                    <octave>4</octave>
                </pitch>
                <duration>6</duration>
                <voice>1</voice>
                <type>eighth</type>
                <dot/>
                <stem default-y="-5">up</stem>
                <staff>1</staff>
                <beam number="1">begin</beam>
            </note>
            <note default-x="153">
                <pitch>
                    <step>E</step>
                    <alter>-1</alter>
                    <octave>4</octave>
                </pitch>
                <duration>2</duration>
                <voice>1</voice>
                <type>16th</type>
                <stem default-y="-7">up</stem>
                <staff>1</staff>
                <beam number="1">end</beam>
                <beam number="2">backward hook</beam>
            </note>
            <note default-x="177">
                <rest/>
                <duration>2</duration>
                <voice>1</voice>
                <type>16th</type>
                <staff>1</staff>
            </note>
            <note default-x="202">
                <pitch>
                    <step>D</step>
                    <octave>4</octave>
                </pitch>
                <duration>4</duration>
                <voice>1</voice>
                <type>eighth</type>
                <stem default-y="-9.5">up</stem>
                <staff>1</staff>
            </note>
            <note default-x="242">
                <rest/>
                <duration>2</duration>
                <voice>1</voice>
                <type>16th</type>
                <staff>1</staff>
            </note>
            <note default-x="266">
                <pitch>
                    <step>C</step>
                    <octave>4</octave>
                </pitch>
                <duration>4</duration>
                <voice>1</voice>
                <type>eighth</type>
                <stem default-y="0">up</stem>
                <staff>1</staff>
                <beam number="1">begin</beam>
            </note>
            <note default-x="306">
                <pitch>
                    <step>D</step>
                    <octave>4</octave>
                </pitch>
                <duration>4</duration>
                <voice>1</voice>
                <type>eighth</type>
                <stem default-y="2">up</stem>
                <staff>1</staff>
                <beam number="1">continue</beam>
            </note>
            <note default-x="346">
                <pitch>
                    <step>E</step>
                    <alter>-1</alter>
                    <octave>4</octave>
                </pitch>
                <duration>4</duration>
                <voice>1</voice>
                <type>eighth</type>
                <stem default-y="3.5">up</stem>
                <staff>1</staff>
                <beam number="1">continue</beam>
            </note>
            <note default-x="386">
                <pitch>
                    <step>C</step>
                    <octave>4</octave>
                </pitch>
                <duration>4</duration>
                <tie type="start"/>
                <voice>1</voice>
                <type>eighth</type>
                <stem default-y="5">up</stem>
                <staff>1</staff>
                <beam number="1">end</beam>
                <notations>
                    <tied type="start"/>
                </notations>
            </note>
            <note default-x="386">
                <chord/>
                <pitch>
                    <step>E</step>
                    <alter>-1</alter>
                    <octave>4</octave>
                </pitch>
                <duration>4</duration>
                <tie type="start"/>
                <voice>1</voice>
                <type>eighth</type>
                <stem>up</stem>
                <staff>1</staff>
                <notations>
                    <tied type="start"/>
                </notations>
            </note>
            <note default-x="386">
                <chord/>
                <pitch>
                    <step>G</step>
                    <octave>4</octave>
                </pitch>
                <duration>4</duration>
                <tie type="start"/>
                <voice>1</voice>
                <type>eighth</type>
                <stem>up</stem>
                <staff>1</staff>
                <notations>
                    <tied type="start"/>
                </notations>
            </note>
            <backup>
                <duration>32</duration>
            </backup>
            <note default-x="247">
                <rest/>
                <duration>32</duration>
                <voice>2</voice>
                <type>whole</type>
                <staff>2</staff>
            </note>
        </measure>
        <measure width="234" number="18">
            <harmony default-y="34">
                <root>
                    <root-step>C</root-step>
                </root>
                <kind halign="center" text="m">minor</kind>
                <staff>1</staff>
            </harmony>
            <note default-x="20">
                <pitch>
                    <step>C</step>
                    <octave>4</octave>
                </pitch>
                <duration>12</duration>
                <tie type="stop"/>
                <voice>1</voice>
                <type>quarter</type>
                <dot/>
                <stem default-y="5.5">up</stem>
                <staff>1</staff>
                <notations>
                    <tied type="stop"/>
                </notations>
            </note>
            <note default-x="20">
                <chord/>
                <pitch>
                    <step>E</step>
                    <alter>-1</alter>
                    <octave>4</octave>
                </pitch>
                <duration>12</duration>
                <tie type="stop"/>
                <voice>1</voice>
                <type>quarter</type>
                <dot/>
                <stem>up</stem>
                <staff>1</staff>
                <notations>
                    <tied type="stop"/>
                </notations>
            </note>
            <note default-x="20">
                <chord/>
                <pitch>
                    <step>G</step>
                    <octave>4</octave>
                </pitch>
                <duration>12</duration>
                <tie type="stop"/>
                <voice>1</voice>
                <type>quarter</type>
                <dot/>
                <stem>up</stem>
                <staff>1</staff>
                <notations>
                    <tied type="stop"/>
                </notations>
            </note>
            <note default-x="92">
                <rest/>
                <duration>4</duration>
                <voice>1</voice>
                <type>eighth</type>
                <staff>1</staff>
            </note>
            <note default-x="124">
                <rest/>
                <duration>16</duration>
                <voice>1</voice>
                <type>half</type>
                <staff>1</staff>
            </note>
            <backup>
                <duration>32</duration>
            </backup>
            <note default-x="99">
                <rest/>
                <duration>32</duration>
                <voice>2</voice>
                <type>whole</type>
                <staff>2</staff>
            </note>
            <barline location="right">
                <bar-style>light-heavy</bar-style>
                <repeat direction="backward"/>
            </barline>
        </measure>
        <measure width="157" number="19">
            <note default-x="70">
                <rest/>
                <duration>32</duration>
                <voice>1</voice>
                <type>whole</type>
                <staff>1</staff>
            </note>
            <backup>
                <duration>32</duration>
            </backup>
            <note default-x="70">
                <rest/>
                <duration>32</duration>
                <voice>2</voice>
                <type>whole</type>
                <staff>2</staff>
            </note>
        </measure>
        <measure width="326" number="20">
            <print new-system="yes"/>
            <note default-x="197">
                <rest/>
                <duration>32</duration>
                <voice>1</voice>
                <type>whole</type>
                <staff>1</staff>
            </note>
            <backup>
                <duration>32</duration>
            </backup>
            <note default-x="197">
                <rest/>
                <duration>32</duration>
                <voice>2</voice>
                <type>whole</type>
                <staff>2</staff>
            </note>
        </measure>
        <measure width="241" number="21">
            <note default-x="112">
                <rest/>
                <duration>32</duration>
                <voice>1</voice>
                <type>whole</type>
                <staff>1</staff>
            </note>
            <backup>
                <duration>32</duration>
            </backup>
            <note default-x="112">
                <rest/>
                <duration>32</duration>
                <voice>2</voice>
                <type>whole</type>
                <staff>2</staff>
            </note>
        </measure>
        <measure width="251" number="22">
            <note default-x="112">
                <rest/>
                <duration>32</duration>
                <voice>1</voice>
                <type>whole</type>
                <staff>1</staff>
            </note>
            <backup>
                <duration>32</duration>
            </backup>
            <note default-x="112">
                <rest/>
                <duration>32</duration>
                <voice>2</voice>
                <type>whole</type>
                <staff>2</staff>
            </note>
            <barline location="right">
                <bar-style>light-heavy</bar-style>
            </barline>
        </measure>
    </part>
</score-partwise>
