<?xml version="1.0" encoding="UTF-8"?>
<!DOCTYPE score-partwise PUBLIC "-//Recordare//DTD MusicXML 2.0 Partwise//EN" "http://www.musicxml.org/dtds/partwise.dtd">
<score-partwise version="2.0">
    <work>
        <work-number></work-number>
        <work-title></work-title>
    </work>
    <movement-number></movement-number>
    <movement-title>smoke rasta</movement-title>
    <identification>
        <creator type="composer">jared</creator>
        <creator type="poet"></creator>
        <rights>All Rights Reserved</rights>
        <encoding>
            <software>Finale 2010 for Macintosh</software>
            <software>Dolet Light for Finale 2010</software>
            <encoding-date>2009-10-01</encoding-date>
            <supports value="yes" type="yes" element="print" attribute="new-system"/>
            <supports value="yes" type="yes" element="print" attribute="new-page"/>
            <software>ProxyMusic 2.0 c</software>
        </encoding>
        <source>http://www.wikifonia.org/node/2860/revisions/3614/view</source>
    </identification>
    <defaults>
        <scaling>
            <millimeters>8.4667</millimeters>
            <tenths>40</tenths>
        </scaling>
        <page-layout>
            <page-height>1320</page-height>
            <page-width>1020</page-width>
            <page-margins type="both">
                <left-margin>60</left-margin>
                <right-margin>57</right-margin>
                <top-margin>97</top-margin>
                <bottom-margin>80</bottom-margin>
            </page-margins>
        </page-layout>
        <system-layout>
            <system-margins>
                <left-margin>60</left-margin>
                <right-margin>27</right-margin>
            </system-margins>
            <system-distance>92</system-distance>
            <top-system-distance>92</top-system-distance>
        </system-layout>
        <staff-layout>
            <staff-distance>55</staff-distance>
        </staff-layout>
        <appearance>
            <line-width type="stem">0.7487</line-width>
            <line-width type="beam">5</line-width>
            <line-width type="staff">0.7487</line-width>
            <line-width type="light barline">0.7487</line-width>
            <line-width type="heavy barline">5</line-width>
            <line-width type="leger">0.7487</line-width>
            <line-width type="ending">1.4583</line-width>
            <line-width type="wedge">0.7487</line-width>
            <line-width type="enclosure">0.7487</line-width>
            <line-width type="tuplet bracket">0.7487</line-width>
            <note-size type="grace">60</note-size>
            <note-size type="cue">60</note-size>
        </appearance>
        <music-font font-size="24" font-family="Maestro"/>
        <word-font font-size="12" font-family="Times New Roman"/>
    </defaults>
    <credit page="1">
        <credit-words font-size="24" default-y="1260" default-x="510" justify="center" valign="top">slightly stoopid smoke rasta</credit-words>
    </credit>
    <credit page="1">
        <credit-words font-size="12" default-y="1210" default-x="918" justify="right" valign="top">jared tesla</credit-words>
    </credit>
    <part-list>
        <score-part id="P1">
            <part-name>Piano</part-name>
            <part-abbreviation>Pno</part-abbreviation>
            <score-instrument id="P1-I2">
                <instrument-name>Piano</instrument-name>
            </score-instrument>
            <midi-instrument id="P1-I2">
                <midi-channel>1</midi-channel>
                <midi-program>1</midi-program>
            </midi-instrument>
        </score-part>
    </part-list>
    <part id="P1">
        <measure width="316" number="1">
            <attributes>
                <divisions>4</divisions>
                <key>
                    <fifths>0</fifths>
                    <mode>major</mode>
                </key>
                <time>
                    <beats>4</beats>
                    <beat-type>4</beat-type>
                </time>
                <staves>2</staves>
                <clef number="1">
                    <sign>G</sign>
                    <line>2</line>
                </clef>
                <clef number="2">
                    <sign>F</sign>
                    <line>4</line>
                </clef>
            </attributes>
            <direction placement="above">
                <direction-type>
                    <metronome font-size="12" font-family="EngraverTextT" default-y="15">
                        <beat-unit>quarter</beat-unit>
                        <per-minute>80</per-minute>
                    </metronome>
                </direction-type>
                <staff>1</staff>
                <sound tempo="80"/>
            </direction>
            <note default-x="88">
                <pitch>
                    <step>C</step>
                    <octave>4</octave>
                </pitch>
                <duration>2</duration>
                <voice>1</voice>
                <type>eighth</type>
                <stem default-y="5">up</stem>
                <staff>1</staff>
                <beam number="1">begin</beam>
            </note>
            <note default-x="115">
                <pitch>
                    <step>G</step>
                    <octave>4</octave>
                </pitch>
                <duration>2</duration>
                <voice>1</voice>
                <type>eighth</type>
                <stem default-y="5">up</stem>
                <staff>1</staff>
                <beam number="1">continue</beam>
            </note>
            <note default-x="143">
                <pitch>
                    <step>G</step>
                    <octave>4</octave>
                </pitch>
                <duration>2</duration>
                <voice>1</voice>
                <type>eighth</type>
                <stem default-y="5">up</stem>
                <staff>1</staff>
                <beam number="1">continue</beam>
            </note>
            <note default-x="171">
                <pitch>
                    <step>G</step>
                    <octave>4</octave>
                </pitch>
                <duration>2</duration>
                <voice>1</voice>
                <type>eighth</type>
                <stem default-y="5">up</stem>
                <staff>1</staff>
                <beam number="1">end</beam>
            </note>
            <note default-x="199">
                <pitch>
                    <step>G</step>
                    <octave>4</octave>
                </pitch>
                <duration>1</duration>
                <voice>1</voice>
                <type>16th</type>
                <stem default-y="5">up</stem>
                <staff>1</staff>
                <beam number="1">begin</beam>
                <beam number="2">begin</beam>
            </note>
            <note default-x="217">
                <pitch>
                    <step>G</step>
                    <octave>4</octave>
                </pitch>
                <duration>1</duration>
                <voice>1</voice>
                <type>16th</type>
                <stem default-y="5">up</stem>
                <staff>1</staff>
                <beam number="1">end</beam>
                <beam number="2">end</beam>
            </note>
            <note default-x="235">
                <pitch>
                    <step>G</step>
                    <octave>4</octave>
                </pitch>
                <duration>4</duration>
                <voice>1</voice>
                <type>quarter</type>
                <stem default-y="5.5">up</stem>
                <staff>1</staff>
            </note>
            <note default-x="280">
                <pitch>
                    <step>F</step>
                    <octave>4</octave>
                </pitch>
                <duration>1</duration>
                <voice>1</voice>
                <type>16th</type>
                <stem default-y="-5">up</stem>
                <staff>1</staff>
                <beam number="1">begin</beam>
                <beam number="2">begin</beam>
            </note>
            <note default-x="298">
                <pitch>
                    <step>E</step>
                    <octave>4</octave>
                </pitch>
                <duration>1</duration>
                <voice>1</voice>
                <type>16th</type>
                <stem default-y="-7">up</stem>
                <staff>1</staff>
                <beam number="1">end</beam>
                <beam number="2">end</beam>
            </note>
            <backup>
                <duration>16</duration>
            </backup>
            <note default-x="88">
                <pitch>
                    <step>C</step>
                    <octave>2</octave>
                </pitch>
                <duration>16</duration>
                <voice>2</voice>
                <type>whole</type>
                <staff>2</staff>
            </note>
        </measure>
        <measure width="223" number="2">
            <note default-x="25">
                <pitch>
                    <step>B</step>
                    <alter>-1</alter>
                    <octave>3</octave>
                </pitch>
                <duration>4</duration>
                <voice>1</voice>
                <type>quarter</type>
                <accidental>flat</accidental>
                <stem default-y="-19.5">up</stem>
                <staff>1</staff>
            </note>
            <note default-x="67">
                <pitch>
                    <step>F</step>
                    <octave>4</octave>
                </pitch>
                <duration>2</duration>
                <voice>1</voice>
                <type>eighth</type>
                <stem default-y="0">up</stem>
                <staff>1</staff>
                <beam number="1">begin</beam>
            </note>
            <note default-x="93">
                <pitch>
                    <step>F</step>
                    <octave>4</octave>
                </pitch>
                <duration>2</duration>
                <voice>1</voice>
                <type>eighth</type>
                <stem default-y="0">up</stem>
                <staff>1</staff>
                <beam number="1">end</beam>
            </note>
            <note default-x="118">
                <pitch>
                    <step>F</step>
                    <octave>4</octave>
                </pitch>
                <duration>2</duration>
                <voice>1</voice>
                <type>eighth</type>
                <stem default-y="0">up</stem>
                <staff>1</staff>
                <beam number="1">begin</beam>
            </note>
            <note default-x="144">
                <pitch>
                    <step>F</step>
                    <octave>4</octave>
                </pitch>
                <duration>2</duration>
                <voice>1</voice>
                <type>eighth</type>
                <stem default-y="0">up</stem>
                <staff>1</staff>
                <beam number="1">continue</beam>
            </note>
            <note default-x="170">
                <pitch>
                    <step>E</step>
                    <octave>4</octave>
                </pitch>
                <duration>2</duration>
                <voice>1</voice>
                <type>eighth</type>
                <stem default-y="0">up</stem>
                <staff>1</staff>
                <beam number="1">continue</beam>
            </note>
            <note default-x="196">
                <pitch>
                    <step>D</step>
                    <octave>4</octave>
                </pitch>
                <duration>2</duration>
                <voice>1</voice>
                <type>eighth</type>
                <stem default-y="0">up</stem>
                <staff>1</staff>
                <beam number="1">end</beam>
            </note>
            <backup>
                <duration>16</duration>
            </backup>
            <note default-x="25">
                <pitch>
                    <step>B</step>
                    <alter>-1</alter>
                    <octave>2</octave>
                </pitch>
                <duration>16</duration>
                <voice>2</voice>
                <type>whole</type>
                <accidental>flat</accidental>
                <staff>2</staff>
            </note>
        </measure>
        <measure width="279" number="3">
            <note default-x="16">
                <pitch>
                    <step>F</step>
                    <octave>3</octave>
                </pitch>
                <duration>4</duration>
                <voice>1</voice>
                <type>quarter</type>
                <stem default-y="-19.5">up</stem>
                <staff>1</staff>
            </note>
            <note default-x="63">
                <pitch>
                    <step>C</step>
                    <octave>4</octave>
                </pitch>
                <duration>2</duration>
                <voice>1</voice>
                <type>eighth</type>
                <stem default-y="-15">up</stem>
                <staff>1</staff>
                <beam number="1">begin</beam>
            </note>
            <note default-x="94">
                <pitch>
                    <step>C</step>
                    <octave>4</octave>
                </pitch>
                <duration>2</duration>
                <voice>1</voice>
                <type>eighth</type>
                <stem default-y="-15">up</stem>
                <staff>1</staff>
                <beam number="1">end</beam>
            </note>
            <note default-x="124">
                <pitch>
                    <step>F</step>
                    <octave>3</octave>
                </pitch>
                <duration>2</duration>
                <voice>1</voice>
                <type>eighth</type>
                <stem default-y="-20">up</stem>
                <staff>1</staff>
                <beam number="1">begin</beam>
            </note>
            <note default-x="154">
                <pitch>
                    <step>F</step>
                    <octave>3</octave>
                </pitch>
                <duration>2</duration>
                <voice>1</voice>
                <type>eighth</type>
                <stem default-y="-19.5">up</stem>
                <staff>1</staff>
                <beam number="1">continue</beam>
            </note>
            <note default-x="185">
                <pitch>
                    <step>G</step>
                    <octave>3</octave>
                </pitch>
                <duration>1</duration>
                <voice>1</voice>
                <type>16th</type>
                <stem default-y="-19">up</stem>
                <staff>1</staff>
                <beam number="1">continue</beam>
                <beam number="2">begin</beam>
            </note>
            <note default-x="208">
                <pitch>
                    <step>A</step>
                    <octave>3</octave>
                </pitch>
                <duration>1</duration>
                <voice>1</voice>
                <type>16th</type>
                <stem default-y="-18">up</stem>
                <staff>1</staff>
                <beam number="1">continue</beam>
                <beam number="2">continue</beam>
            </note>
            <note default-x="232">
                <pitch>
                    <step>B</step>
                    <octave>3</octave>
                </pitch>
                <duration>1</duration>
                <voice>1</voice>
                <type>16th</type>
                <stem default-y="-18">up</stem>
                <staff>1</staff>
                <beam number="1">continue</beam>
                <beam number="2">continue</beam>
            </note>
            <note default-x="256">
                <pitch>
                    <step>C</step>
                    <octave>4</octave>
                </pitch>
                <duration>1</duration>
                <voice>1</voice>
                <type>16th</type>
                <stem default-y="-17">up</stem>
                <staff>1</staff>
                <beam number="1">end</beam>
                <beam number="2">end</beam>
            </note>
            <backup>
                <duration>16</duration>
            </backup>
            <note default-x="16">
                <pitch>
                    <step>F</step>
                    <octave>2</octave>
                </pitch>
                <duration>16</duration>
                <voice>2</voice>
                <type>whole</type>
                <staff>2</staff>
            </note>
        </measure>
        <measure width="288" number="4">
            <print new-system="yes"/>
            <note default-x="56">
                <pitch>
                    <step>C</step>
                    <octave>4</octave>
                </pitch>
                <duration>2</duration>
                <voice>1</voice>
                <type>eighth</type>
                <stem default-y="5">up</stem>
                <staff>1</staff>
                <beam number="1">begin</beam>
            </note>
            <note default-x="84">
                <pitch>
                    <step>G</step>
                    <octave>4</octave>
                </pitch>
                <duration>2</duration>
                <voice>1</voice>
                <type>eighth</type>
                <stem default-y="5">up</stem>
                <staff>1</staff>
                <beam number="1">continue</beam>
            </note>
            <note default-x="113">
                <pitch>
                    <step>G</step>
                    <octave>4</octave>
                </pitch>
                <duration>1</duration>
                <voice>1</voice>
                <type>16th</type>
                <stem default-y="5">up</stem>
                <staff>1</staff>
                <beam number="1">continue</beam>
                <beam number="2">begin</beam>
            </note>
            <note default-x="131">
                <pitch>
                    <step>G</step>
                    <octave>4</octave>
                </pitch>
                <duration>1</duration>
                <voice>1</voice>
                <type>16th</type>
                <stem default-y="5">up</stem>
                <staff>1</staff>
                <beam number="1">continue</beam>
                <beam number="2">continue</beam>
            </note>
            <note default-x="149">
                <pitch>
                    <step>G</step>
                    <octave>4</octave>
                </pitch>
                <duration>1</duration>
                <voice>1</voice>
                <type>16th</type>
                <stem default-y="5">up</stem>
                <staff>1</staff>
                <beam number="1">continue</beam>
                <beam number="2">continue</beam>
            </note>
            <note default-x="167">
                <pitch>
                    <step>G</step>
                    <octave>4</octave>
                </pitch>
                <duration>1</duration>
                <voice>1</voice>
                <type>16th</type>
                <stem default-y="5">up</stem>
                <staff>1</staff>
                <beam number="1">end</beam>
                <beam number="2">end</beam>
            </note>
            <note default-x="185">
                <pitch>
                    <step>G</step>
                    <octave>4</octave>
                </pitch>
                <duration>4</duration>
                <voice>1</voice>
                <type>quarter</type>
                <stem default-y="5.5">up</stem>
                <staff>1</staff>
            </note>
            <note default-x="230">
                <pitch>
                    <step>F</step>
                    <octave>4</octave>
                </pitch>
                <duration>2</duration>
                <voice>1</voice>
                <type>eighth</type>
                <stem default-y="-5">up</stem>
                <staff>1</staff>
                <beam number="1">begin</beam>
            </note>
            <note default-x="259">
                <pitch>
                    <step>E</step>
                    <octave>4</octave>
                </pitch>
                <duration>2</duration>
                <voice>1</voice>
                <type>eighth</type>
                <stem default-y="-7">up</stem>
                <staff>1</staff>
                <beam number="1">end</beam>
            </note>
            <backup>
                <duration>16</duration>
            </backup>
            <note default-x="56">
                <pitch>
                    <step>C</step>
                    <octave>2</octave>
                </pitch>
                <duration>16</duration>
                <voice>2</voice>
                <type>whole</type>
                <staff>2</staff>
            </note>
        </measure>
        <measure width="256" number="5">
            <note default-x="15">
                <pitch>
                    <step>F</step>
                    <octave>4</octave>
                </pitch>
                <duration>4</duration>
                <voice>1</voice>
                <type>quarter</type>
                <stem default-y="0.5">up</stem>
                <staff>1</staff>
            </note>
            <note default-x="61">
                <pitch>
                    <step>F</step>
                    <octave>5</octave>
                </pitch>
                <duration>1</duration>
                <voice>1</voice>
                <type>16th</type>
                <stem default-y="-45">down</stem>
                <staff>1</staff>
                <beam number="1">begin</beam>
                <beam number="2">begin</beam>
            </note>
            <note default-x="82">
                <pitch>
                    <step>F</step>
                    <octave>5</octave>
                </pitch>
                <duration>1</duration>
                <voice>1</voice>
                <type>16th</type>
                <stem default-y="-46">down</stem>
                <staff>1</staff>
                <beam number="1">continue</beam>
                <beam number="2">continue</beam>
            </note>
            <note default-x="112">
                <pitch>
                    <step>E</step>
                    <alter>-1</alter>
                    <octave>5</octave>
                </pitch>
                <duration>1</duration>
                <voice>1</voice>
                <type>16th</type>
                <accidental>flat</accidental>
                <stem default-y="-48">down</stem>
                <staff>1</staff>
                <beam number="1">continue</beam>
                <beam number="2">continue</beam>
            </note>
            <note default-x="133">
                <pitch>
                    <step>C</step>
                    <octave>5</octave>
                </pitch>
                <duration>1</duration>
                <voice>1</voice>
                <type>16th</type>
                <stem default-y="-50">down</stem>
                <staff>1</staff>
                <beam number="1">end</beam>
                <beam number="2">end</beam>
            </note>
            <note default-x="164">
                <pitch>
                    <step>A</step>
                    <alter>1</alter>
                    <octave>4</octave>
                </pitch>
                <duration>4</duration>
                <voice>1</voice>
                <type>quarter</type>
                <accidental>sharp</accidental>
                <stem default-y="10.5">up</stem>
                <staff>1</staff>
            </note>
            <note default-x="210">
                <pitch>
                    <step>C</step>
                    <octave>5</octave>
                </pitch>
                <duration>4</duration>
                <voice>1</voice>
                <type>quarter</type>
                <stem default-y="-50">down</stem>
                <staff>1</staff>
            </note>
            <backup>
                <duration>16</duration>
            </backup>
            <note default-x="120">
                <rest/>
                <duration>16</duration>
                <voice>2</voice>
                <type>whole</type>
                <staff>2</staff>
            </note>
        </measure>
        <measure width="273" number="6">
            <note default-x="16">
                <pitch>
                    <step>C</step>
                    <octave>4</octave>
                </pitch>
                <duration>4</duration>
                <voice>1</voice>
                <type>quarter</type>
                <stem default-y="-14.5">up</stem>
                <staff>1</staff>
            </note>
            <note default-x="67">
                <rest/>
                <duration>1</duration>
                <voice>1</voice>
                <type>16th</type>
                <staff>1</staff>
            </note>
            <note default-x="86">
                <pitch>
                    <step>A</step>
                    <octave>4</octave>
                </pitch>
                <duration>1</duration>
                <voice>1</voice>
                <type>16th</type>
                <stem default-y="-60">down</stem>
                <staff>1</staff>
                <beam number="1">begin</beam>
                <beam number="2">begin</beam>
            </note>
            <note default-x="106">
                <pitch>
                    <step>B</step>
                    <octave>4</octave>
                </pitch>
                <duration>1</duration>
                <voice>1</voice>
                <type>16th</type>
                <stem default-y="-57">down</stem>
                <staff>1</staff>
                <beam number="1">continue</beam>
                <beam number="2">continue</beam>
            </note>
            <note default-x="125">
                <pitch>
                    <step>C</step>
                    <octave>5</octave>
                </pitch>
                <duration>1</duration>
                <voice>1</voice>
                <type>16th</type>
                <stem default-y="-55">down</stem>
                <staff>1</staff>
                <beam number="1">end</beam>
                <beam number="2">end</beam>
            </note>
            <note default-x="145">
                <pitch>
                    <step>A</step>
                    <octave>4</octave>
                </pitch>
                <duration>1</duration>
                <voice>1</voice>
                <type>16th</type>
                <stem default-y="-60">down</stem>
                <staff>1</staff>
                <beam number="1">begin</beam>
                <beam number="2">begin</beam>
            </note>
            <note default-x="164">
                <pitch>
                    <step>B</step>
                    <octave>4</octave>
                </pitch>
                <duration>1</duration>
                <voice>1</voice>
                <type>16th</type>
                <stem default-y="-57">down</stem>
                <staff>1</staff>
                <beam number="1">continue</beam>
                <beam number="2">continue</beam>
            </note>
            <note default-x="183">
                <pitch>
                    <step>C</step>
                    <octave>5</octave>
                </pitch>
                <duration>1</duration>
                <voice>1</voice>
                <type>16th</type>
                <stem default-y="-55">down</stem>
                <staff>1</staff>
                <beam number="1">end</beam>
                <beam number="2">end</beam>
            </note>
            <note default-x="203">
                <rest/>
                <duration>1</duration>
                <voice>1</voice>
                <type>16th</type>
                <staff>1</staff>
            </note>
            <note default-x="222">
                <rest/>
                <duration>4</duration>
                <voice>1</voice>
                <type>quarter</type>
                <staff>1</staff>
            </note>
            <backup>
                <duration>16</duration>
            </backup>
            <note default-x="128">
                <rest/>
                <duration>16</duration>
                <voice>2</voice>
                <type>whole</type>
                <staff>2</staff>
            </note>
        </measure>
        <measure width="342" number="7">
            <print new-system="yes"/>
            <note default-x="55">
                <pitch>
                    <step>G</step>
                    <octave>4</octave>
                </pitch>
                <duration>4</duration>
                <voice>1</voice>
                <type>quarter</type>
                <stem default-y="5.5">up</stem>
                <staff>1</staff>
            </note>
            <note default-x="118">
                <pitch>
                    <step>D</step>
                    <octave>5</octave>
                </pitch>
                <duration>4</duration>
                <voice>1</voice>
                <type>quarter</type>
                <stem default-y="-45">down</stem>
                <staff>1</staff>
            </note>
            <note default-x="183">
                <pitch>
                    <step>B</step>
                    <alter>1</alter>
                    <octave>4</octave>
                </pitch>
                <duration>2</duration>
                <voice>1</voice>
                <type>eighth</type>
                <accidental>sharp</accidental>
                <stem default-y="15">up</stem>
                <staff>1</staff>
                <beam number="1">begin</beam>
            </note>
            <note default-x="222">
                <pitch>
                    <step>B</step>
                    <octave>4</octave>
                </pitch>
                <duration>2</duration>
                <voice>1</voice>
                <type>eighth</type>
                <accidental>natural</accidental>
                <stem default-y="15">up</stem>
                <staff>1</staff>
                <beam number="1">continue</beam>
            </note>
            <note default-x="262">
                <pitch>
                    <step>G</step>
                    <octave>4</octave>
                </pitch>
                <duration>2</duration>
                <voice>1</voice>
                <type>eighth</type>
                <stem default-y="15">up</stem>
                <staff>1</staff>
                <beam number="1">end</beam>
            </note>
            <note default-x="301">
                <rest/>
                <duration>2</duration>
                <voice>1</voice>
                <type>eighth</type>
                <staff>1</staff>
            </note>
            <backup>
                <duration>16</duration>
            </backup>
            <note default-x="182">
                <rest/>
                <duration>16</duration>
                <voice>2</voice>
                <type>whole</type>
                <staff>2</staff>
            </note>
        </measure>
        <measure width="290" number="8">
            <note default-x="15">
                <pitch>
                    <step>F</step>
                    <octave>4</octave>
                </pitch>
                <duration>4</duration>
                <voice>1</voice>
                <type>quarter</type>
                <stem default-y="0.5">up</stem>
                <staff>1</staff>
            </note>
            <note default-x="76">
                <pitch>
                    <step>A</step>
                    <octave>4</octave>
                </pitch>
                <duration>2</duration>
                <voice>1</voice>
                <type>eighth</type>
                <stem default-y="10">up</stem>
                <staff>1</staff>
                <beam number="1">begin</beam>
            </note>
            <note default-x="114">
                <pitch>
                    <step>A</step>
                    <octave>4</octave>
                </pitch>
                <duration>2</duration>
                <voice>1</voice>
                <type>eighth</type>
                <stem default-y="10">up</stem>
                <staff>1</staff>
                <beam number="1">end</beam>
            </note>
            <note default-x="152">
                <pitch>
                    <step>C</step>
                    <octave>5</octave>
                </pitch>
                <duration>4</duration>
                <voice>1</voice>
                <type>quarter</type>
                <stem default-y="-50">down</stem>
                <staff>1</staff>
            </note>
            <note default-x="213">
                <pitch>
                    <step>A</step>
                    <octave>4</octave>
                </pitch>
                <duration>2</duration>
                <voice>1</voice>
                <type>eighth</type>
                <stem default-y="10">up</stem>
                <staff>1</staff>
                <beam number="1">begin</beam>
            </note>
            <note default-x="251">
                <pitch>
                    <step>F</step>
                    <octave>4</octave>
                </pitch>
                <duration>2</duration>
                <voice>1</voice>
                <type>eighth</type>
                <stem default-y="5">up</stem>
                <staff>1</staff>
                <beam number="1">end</beam>
            </note>
            <backup>
                <duration>16</duration>
            </backup>
            <note default-x="136">
                <rest/>
                <duration>16</duration>
                <voice>2</voice>
                <type>whole</type>
                <staff>2</staff>
            </note>
        </measure>
        <measure width="186" number="9">
            <note default-x="80">
                <rest/>
                <duration>16</duration>
                <voice>1</voice>
                <type>whole</type>
                <staff>1</staff>
            </note>
            <backup>
                <duration>16</duration>
            </backup>
            <note default-x="80">
                <rest/>
                <duration>16</duration>
                <voice>2</voice>
                <type>whole</type>
                <staff>2</staff>
            </note>
            <barline location="right">
                <bar-style>light-heavy</bar-style>
            </barline>
        </measure>
    </part>
</score-partwise>
