<?xml version="1.0" encoding="UTF-8"?>
<!DOCTYPE score-partwise PUBLIC "-//Recordare//DTD MusicXML 2.0 Partwise//EN" "http://www.musicxml.org/dtds/partwise.dtd">
<score-partwise version="2.0">
    <work>
        <work-number></work-number>
        <work-title></work-title>
    </work>
    <movement-number></movement-number>
    <movement-title>Harsog a trombita büszke szava</movement-title>
    <identification>
        <creator type="composer">Hungarian folk song</creator>
        <creator type="poet"></creator>
        <rights>Public Domain</rights>
        <encoding>
            <software>MuseScore 0.9.5</software>
            <encoding-date>2009-10-03</encoding-date>
            <software>ProxyMusic 2.0 c</software>
        </encoding>
        <source>http://wikifonia.org/node/2885/revisions/3643/view</source>
    </identification>
    <defaults>
        <scaling>
            <millimeters>7.05556</millimeters>
            <tenths>40</tenths>
        </scaling>
        <page-layout>
            <page-height>1683.78</page-height>
            <page-width>1190.55</page-width>
            <page-margins type="both">
                <left-margin>56.6929</left-margin>
                <right-margin>56.6929</right-margin>
                <top-margin>56.6929</top-margin>
                <bottom-margin>113.386</bottom-margin>
            </page-margins>
        </page-layout>
    </defaults>
    <part-list>
        <score-part id="P1">
            <part-name>Voice</part-name>
            <score-instrument id="P1-I3">
                <instrument-name>Voice</instrument-name>
            </score-instrument>
            <midi-instrument id="P1-I3">
                <midi-channel>1</midi-channel>
                <midi-program>53</midi-program>
            </midi-instrument>
        </score-part>
    </part-list>
    <part id="P1">
        <measure width="207.93" number="1">
            <print>
                <system-layout>
                    <system-margins>
                        <left-margin>69.92</left-margin>
                        <right-margin>-0.00</right-margin>
                    </system-margins>
                    <top-system-distance>70.00</top-system-distance>
                </system-layout>
            </print>
            <attributes>
                <divisions>2</divisions>
                <key>
                    <fifths>0</fifths>
                    <mode>major</mode>
                </key>
                <time>
                    <beats>2</beats>
                    <beat-type>4</beat-type>
                </time>
                <clef>
                    <sign>G</sign>
                    <line>2</line>
                </clef>
            </attributes>
            <note default-y="-50.00" default-x="92.12">
                <pitch>
                    <step>C</step>
                    <octave>4</octave>
                </pitch>
                <duration>2</duration>
                <voice>1</voice>
                <type>quarter</type>
                <stem>up</stem>
                <lyric number="1">
                    <syllabic>begin</syllabic>
                    <text>Har</text>
                </lyric>
            </note>
            <note default-y="-55.00" default-x="142.88">
                <pitch>
                    <step>B</step>
                    <octave>3</octave>
                </pitch>
                <duration>1</duration>
                <voice>1</voice>
                <type>eighth</type>
                <stem>up</stem>
                <beam number="1">begin</beam>
                <lyric number="1">
                    <syllabic>end</syllabic>
                    <text>sok</text>
                </lyric>
            </note>
            <note default-y="-60.00" default-x="174.60">
                <pitch>
                    <step>A</step>
                    <octave>3</octave>
                </pitch>
                <duration>1</duration>
                <voice>1</voice>
                <type>eighth</type>
                <stem>up</stem>
                <beam number="1">end</beam>
                <lyric number="1">
                    <syllabic>single</syllabic>
                    <text>a</text>
                </lyric>
            </note>
        </measure>
        <measure width="142.77" number="2">
            <note default-y="-50.00" default-x="29.75">
                <pitch>
                    <step>C</step>
                    <octave>4</octave>
                </pitch>
                <duration>2</duration>
                <voice>1</voice>
                <type>quarter</type>
                <stem>up</stem>
                <lyric number="1">
                    <syllabic>begin</syllabic>
                    <text>trom</text>
                </lyric>
            </note>
            <note default-y="-55.00" default-x="79.27">
                <pitch>
                    <step>B</step>
                    <octave>3</octave>
                </pitch>
                <duration>1</duration>
                <voice>1</voice>
                <type>eighth</type>
                <stem>up</stem>
                <beam number="1">begin</beam>
                <lyric number="1">
                    <syllabic>middle</syllabic>
                    <text>bi</text>
                </lyric>
            </note>
            <note default-y="-60.00" default-x="110.22">
                <pitch>
                    <step>A</step>
                    <octave>3</octave>
                </pitch>
                <duration>1</duration>
                <voice>1</voice>
                <type>eighth</type>
                <stem>up</stem>
                <beam number="1">end</beam>
                <lyric number="1">
                    <syllabic>end</syllabic>
                    <text>ta</text>
                </lyric>
            </note>
        </measure>
        <measure width="151.82" number="3">
            <note default-y="-40.00" default-x="29.13">
                <pitch>
                    <step>E</step>
                    <octave>4</octave>
                </pitch>
                <duration>2</duration>
                <voice>1</voice>
                <type>quarter</type>
                <stem>up</stem>
                <lyric number="1">
                    <syllabic>begin</syllabic>
                    <text>büsz</text>
                </lyric>
            </note>
            <note default-y="-45.00" default-x="82.95">
                <pitch>
                    <step>D</step>
                    <octave>4</octave>
                </pitch>
                <duration>1</duration>
                <voice>1</voice>
                <type>eighth</type>
                <stem>up</stem>
                <beam number="1">begin</beam>
                <lyric number="1">
                    <syllabic>middle</syllabic>
                    <text>ke</text>
                </lyric>
            </note>
            <note default-y="-40.00" default-x="116.58">
                <pitch>
                    <step>E</step>
                    <octave>4</octave>
                </pitch>
                <duration>1</duration>
                <voice>1</voice>
                <type>eighth</type>
                <stem>up</stem>
                <beam number="1">end</beam>
                <lyric number="1">
                    <syllabic>middle</syllabic>
                    <text>sza</text>
                </lyric>
            </note>
        </measure>
        <measure width="88.68" number="4">
            <note default-y="-55.00" default-x="21.92">
                <pitch>
                    <step>B</step>
                    <octave>3</octave>
                </pitch>
                <duration>2</duration>
                <voice>1</voice>
                <type>quarter</type>
                <stem>up</stem>
                <lyric number="1">
                    <syllabic>end</syllabic>
                    <text>va,</text>
                </lyric>
            </note>
            <note>
                <rest/>
                <duration>2</duration>
                <voice>1</voice>
                <type>quarter</type>
            </note>
        </measure>
        <measure width="126.50" number="5">
            <note default-y="-35.00" default-x="17.85">
                <pitch>
                    <step>F</step>
                    <octave>4</octave>
                </pitch>
                <duration>2</duration>
                <voice>1</voice>
                <type>quarter</type>
                <stem>up</stem>
                <lyric number="1">
                    <syllabic>begin</syllabic>
                    <text>In</text>
                </lyric>
            </note>
            <note default-y="-40.00" default-x="65.43">
                <pitch>
                    <step>E</step>
                    <octave>4</octave>
                </pitch>
                <duration>1</duration>
                <voice>1</voice>
                <type>eighth</type>
                <stem>up</stem>
                <beam number="1">begin</beam>
                <lyric number="1">
                    <syllabic>end</syllabic>
                    <text>dul</text>
                </lyric>
            </note>
            <note default-y="-45.00" default-x="95.16">
                <pitch>
                    <step>D</step>
                    <octave>4</octave>
                </pitch>
                <duration>1</duration>
                <voice>1</voice>
                <type>eighth</type>
                <stem>up</stem>
                <beam number="1">end</beam>
                <lyric number="1">
                    <syllabic>single</syllabic>
                    <text>a</text>
                </lyric>
            </note>
        </measure>
        <measure width="158.06" number="6">
            <note default-y="-35.00" default-x="26.61">
                <pitch>
                    <step>F</step>
                    <octave>4</octave>
                </pitch>
                <duration>2</duration>
                <voice>1</voice>
                <type>quarter</type>
                <stem>up</stem>
                <lyric number="1">
                    <syllabic>begin</syllabic>
                    <text>cser</text>
                </lyric>
            </note>
            <note default-y="-40.00" default-x="83.01">
                <pitch>
                    <step>E</step>
                    <octave>4</octave>
                </pitch>
                <duration>1</duration>
                <voice>1</voice>
                <type>eighth</type>
                <stem>up</stem>
                <beam number="1">begin</beam>
                <lyric number="1">
                    <syllabic>middle</syllabic>
                    <text>ké</text>
                </lyric>
            </note>
            <note default-y="-45.00" default-x="121.21">
                <pitch>
                    <step>D</step>
                    <octave>4</octave>
                </pitch>
                <duration>1</duration>
                <voice>1</voice>
                <type>eighth</type>
                <stem>up</stem>
                <beam number="1">end</beam>
                <lyric number="1">
                    <syllabic>end</syllabic>
                    <text>szek</text>
                </lyric>
            </note>
        </measure>
        <measure width="131.49" number="7">
            <note default-y="-25.00" default-x="17.23">
                <pitch>
                    <step>A</step>
                    <octave>4</octave>
                </pitch>
                <duration>2</duration>
                <voice>1</voice>
                <type>quarter</type>
                <stem>up</stem>
                <lyric number="1">
                    <syllabic>single</syllabic>
                    <text>jó</text>
                </lyric>
            </note>
            <note default-y="-30.00" default-x="67.30">
                <pitch>
                    <step>G</step>
                    <alter>1</alter>
                    <octave>4</octave>
                </pitch>
                <duration>1</duration>
                <voice>1</voice>
                <type>eighth</type>
                <accidental>sharp</accidental>
                <stem>up</stem>
                <beam number="1">begin</beam>
                <lyric number="1">
                    <syllabic>begin</syllabic>
                    <text>csa</text>
                </lyric>
            </note>
            <note default-y="-25.00" default-x="98.60">
                <pitch>
                    <step>A</step>
                    <octave>4</octave>
                </pitch>
                <duration>1</duration>
                <voice>1</voice>
                <type>eighth</type>
                <stem>up</stem>
                <beam number="1">end</beam>
                <lyric number="1">
                    <syllabic>middle</syllabic>
                    <text>pa</text>
                </lyric>
            </note>
        </measure>
        <measure width="143.54" number="8">
            <print new-system="yes">
                <system-layout>
                    <system-margins>
                        <left-margin>47.28</left-margin>
                        <right-margin>-0.00</right-margin>
                    </system-margins>
                    <system-distance>105.20</system-distance>
                </system-layout>
            </print>
            <note default-y="-40.00" default-x="65.09">
                <pitch>
                    <step>E</step>
                    <octave>4</octave>
                </pitch>
                <duration>2</duration>
                <voice>1</voice>
                <type>quarter</type>
                <stem>up</stem>
                <lyric number="1">
                    <syllabic>end</syllabic>
                    <text>ta,</text>
                </lyric>
            </note>
            <note>
                <rest/>
                <duration>2</duration>
                <voice>1</voice>
                <type>quarter</type>
            </note>
        </measure>
        <measure width="164.38" number="9">
            <note default-y="-40.00" default-x="23.48">
                <pitch>
                    <step>E</step>
                    <octave>4</octave>
                </pitch>
                <duration>2</duration>
                <voice>1</voice>
                <type>quarter</type>
                <stem>up</stem>
                <lyric number="1">
                    <syllabic>begin</syllabic>
                    <text>Ma</text>
                </lyric>
            </note>
            <note default-y="-25.00" default-x="85.39">
                <pitch>
                    <step>A</step>
                    <octave>4</octave>
                </pitch>
                <duration>1</duration>
                <voice>1</voice>
                <type>eighth</type>
                <stem>up</stem>
                <beam number="1">begin</beam>
                <lyric number="1">
                    <syllabic>middle</syllabic>
                    <text>gya</text>
                </lyric>
            </note>
            <note default-y="-20.00" default-x="124.08">
                <pitch>
                    <step>B</step>
                    <octave>4</octave>
                </pitch>
                <duration>1</duration>
                <voice>1</voice>
                <type>eighth</type>
                <stem>up</stem>
                <beam number="1">end</beam>
                <lyric number="1">
                    <syllabic>end</syllabic>
                    <text>rok</text>
                </lyric>
            </note>
        </measure>
        <measure width="169.39" number="10">
            <note default-y="-15.00" default-x="25.99">
                <pitch>
                    <step>C</step>
                    <octave>5</octave>
                </pitch>
                <duration>2</duration>
                <voice>1</voice>
                <type>quarter</type>
                <stem>down</stem>
                <lyric number="1">
                    <syllabic>begin</syllabic>
                    <text>Asz</text>
                </lyric>
            </note>
            <note default-y="-20.00" default-x="89.01">
                <pitch>
                    <step>B</step>
                    <octave>4</octave>
                </pitch>
                <duration>1</duration>
                <voice>1</voice>
                <type>eighth</type>
                <stem>up</stem>
                <beam number="1">begin</beam>
                <lyric number="1">
                    <syllabic>middle</syllabic>
                    <text>szo</text>
                </lyric>
            </note>
            <note default-y="-25.00" default-x="128.40">
                <pitch>
                    <step>A</step>
                    <octave>4</octave>
                </pitch>
                <duration>1</duration>
                <voice>1</voice>
                <type>eighth</type>
                <stem>up</stem>
                <beam number="1">end</beam>
                <lyric number="1">
                    <syllabic>end</syllabic>
                    <text>nya</text>
                </lyric>
            </note>
        </measure>
        <measure width="134.72" number="11">
            <note default-y="-25.00" default-x="19.10">
                <pitch>
                    <step>A</step>
                    <octave>4</octave>
                </pitch>
                <duration>2</duration>
                <voice>1</voice>
                <type>quarter</type>
                <stem>up</stem>
                <lyric number="1">
                    <syllabic>begin</syllabic>
                    <text>ké</text>
                </lyric>
            </note>
            <note default-y="-45.00" default-x="69.78">
                <pitch>
                    <step>D</step>
                    <octave>4</octave>
                </pitch>
                <duration>1</duration>
                <voice>1</voice>
                <type>eighth</type>
                <stem>up</stem>
                <beam number="1">begin</beam>
                <lyric number="1">
                    <syllabic>middle</syllabic>
                    <text>pe</text>
                </lyric>
            </note>
            <note default-y="-35.00" default-x="101.45">
                <pitch>
                    <step>F</step>
                    <octave>4</octave>
                </pitch>
                <duration>1</duration>
                <voice>1</voice>
                <type>eighth</type>
                <stem>up</stem>
                <beam number="1">end</beam>
                <lyric number="1">
                    <syllabic>middle</syllabic>
                    <text>a</text>
                </lyric>
            </note>
        </measure>
        <measure width="103.47" number="12">
            <note default-y="-40.00" default-x="22.86">
                <pitch>
                    <step>E</step>
                    <octave>4</octave>
                </pitch>
                <duration>2</duration>
                <voice>1</voice>
                <type>quarter</type>
                <stem>up</stem>
                <lyric number="1">
                    <syllabic>end</syllabic>
                    <text>latt</text>
                </lyric>
            </note>
            <note>
                <rest/>
                <duration>2</duration>
                <voice>1</voice>
                <type>quarter</type>
            </note>
        </measure>
        <measure width="161.59" number="13">
            <note default-y="-25.00" default-x="26.62">
                <pitch>
                    <step>A</step>
                    <octave>4</octave>
                </pitch>
                <duration>2</duration>
                <voice>1</voice>
                <type>quarter</type>
                <stem>up</stem>
                <lyric number="1">
                    <syllabic>single</syllabic>
                    <text>Egy</text>
                </lyric>
            </note>
            <note default-y="-45.00" default-x="85.89">
                <pitch>
                    <step>D</step>
                    <octave>4</octave>
                </pitch>
                <duration>1</duration>
                <voice>1</voice>
                <type>eighth</type>
                <stem>up</stem>
                <beam number="1">begin</beam>
                <lyric number="1">
                    <syllabic>begin</syllabic>
                    <text>Is</text>
                </lyric>
            </note>
            <note default-y="-35.00" default-x="122.94">
                <pitch>
                    <step>F</step>
                    <octave>4</octave>
                </pitch>
                <duration>1</duration>
                <voice>1</voice>
                <type>eighth</type>
                <stem>up</stem>
                <beam number="1">end</beam>
                <lyric number="1">
                    <syllabic>end</syllabic>
                    <text>ten,</text>
                </lyric>
            </note>
        </measure>
        <measure width="152.80" number="14">
            <note default-y="-40.00" default-x="24.74">
                <pitch>
                    <step>E</step>
                    <octave>4</octave>
                </pitch>
                <duration>2</duration>
                <voice>1</voice>
                <type>quarter</type>
                <stem>up</stem>
                <lyric number="1">
                    <syllabic>single</syllabic>
                    <text>egy</text>
                </lyric>
            </note>
            <note default-y="-55.00" default-x="80.94">
                <pitch>
                    <step>B</step>
                    <octave>3</octave>
                </pitch>
                <duration>1</duration>
                <voice>1</voice>
                <type>eighth</type>
                <stem>up</stem>
                <beam number="1">begin</beam>
                <lyric number="1">
                    <syllabic>begin</syllabic>
                    <text>ha</text>
                </lyric>
            </note>
            <note default-y="-50.00" default-x="116.07">
                <pitch>
                    <step>C</step>
                    <octave>4</octave>
                </pitch>
                <duration>1</duration>
                <voice>1</voice>
                <type>eighth</type>
                <stem>up</stem>
                <beam number="1">end</beam>
                <lyric number="1">
                    <syllabic>end</syllabic>
                    <text>za,</text>
                </lyric>
            </note>
        </measure>
        <measure width="151.23" number="15">
            <print new-system="yes">
                <system-layout>
                    <system-margins>
                        <left-margin>47.28</left-margin>
                        <right-margin>807.42</right-margin>
                    </system-margins>
                    <system-distance>105.20</system-distance>
                </system-layout>
            </print>
            <note default-y="-45.00" default-x="70.42">
                <pitch>
                    <step>D</step>
                    <octave>4</octave>
                </pitch>
                <duration>2</duration>
                <voice>1</voice>
                <type>quarter</type>
                <stem>up</stem>
                <lyric number="1">
                    <syllabic>single</syllabic>
                    <text>egy</text>
                </lyric>
            </note>
            <note default-y="-50.00" default-x="97.63">
                <pitch>
                    <step>C</step>
                    <octave>4</octave>
                </pitch>
                <duration>1</duration>
                <voice>1</voice>
                <type>eighth</type>
                <stem>up</stem>
                <beam number="1">begin</beam>
                <lyric number="1">
                    <syllabic>begin</syllabic>
                    <text>a</text>
                </lyric>
            </note>
            <note default-y="-55.00" default-x="126.43">
                <pitch>
                    <step>B</step>
                    <octave>3</octave>
                </pitch>
                <duration>1</duration>
                <voice>1</voice>
                <type>eighth</type>
                <stem>up</stem>
                <beam number="1">end</beam>
                <lyric number="1">
                    <syllabic>middle</syllabic>
                    <text>ka</text>
                </lyric>
            </note>
        </measure>
        <measure width="71.23" number="16">
            <note default-y="-60.00" default-x="23.17">
                <pitch>
                    <step>A</step>
                    <octave>3</octave>
                </pitch>
                <duration>2</duration>
                <voice>1</voice>
                <type>quarter</type>
                <stem>up</stem>
                <lyric number="1">
                    <syllabic>end</syllabic>
                    <text>rat.</text>
                </lyric>
            </note>
            <note>
                <rest/>
                <duration>2</duration>
                <voice>1</voice>
                <type>quarter</type>
            </note>
            <barline location="right">
                <bar-style>light-heavy</bar-style>
            </barline>
        </measure>
    </part>
</score-partwise>
