<?xml version="1.0" encoding="UTF-8"?>
<!DOCTYPE score-partwise PUBLIC "-//Recordare//DTD MusicXML 2.0 Partwise//EN" "http://www.musicxml.org/dtds/partwise.dtd">
<score-partwise version="2.0">
    <work>
        <work-number></work-number>
        <work-title></work-title>
    </work>
    <movement-number></movement-number>
    <movement-title>My Way </movement-title>
    <identification>
        <creator type="composer">Claude Francois, Jacques Revaux </creator>
        <creator type="poet">Paul Anka</creator>
        <rights>All Rights Reserved</rights>
        <encoding>
            <software>PrintMusic 2011 for Windows</software>
            <software>Dolet Light for PrintMusic 2011</software>
            <encoding-date>2011-05-04</encoding-date>
            <supports value="yes" type="yes" element="print" attribute="new-system"/>
            <supports value="yes" type="yes" element="print" attribute="new-page"/>
            <software>ProxyMusic 2.0 c</software>
        </encoding>
        <source>http://wikifonia.org/node/2975/revisions/21183/view</source>
    </identification>
    <defaults>
        <scaling>
            <millimeters>7.1967</millimeters>
            <tenths>40</tenths>
        </scaling>
        <page-layout>
            <page-height>1553</page-height>
            <page-width>1200</page-width>
            <page-margins type="both">
                <left-margin>70</left-margin>
                <right-margin>70</right-margin>
                <top-margin>88</top-margin>
                <bottom-margin>88</bottom-margin>
            </page-margins>
        </page-layout>
        <system-layout>
            <system-margins>
                <left-margin>0</left-margin>
                <right-margin>0</right-margin>
            </system-margins>
            <system-distance>121</system-distance>
            <top-system-distance>70</top-system-distance>
        </system-layout>
        <appearance>
            <line-width type="stem">0.7487</line-width>
            <line-width type="beam">5</line-width>
            <line-width type="staff">0.7487</line-width>
            <line-width type="light barline">0.7487</line-width>
            <line-width type="heavy barline">5</line-width>
            <line-width type="leger">0.7487</line-width>
            <line-width type="ending">1.4583</line-width>
            <line-width type="wedge">1.4583</line-width>
            <line-width type="enclosure">0.7487</line-width>
            <line-width type="tuplet bracket">0.7487</line-width>
            <note-size type="grace">60</note-size>
            <note-size type="cue">60</note-size>
        </appearance>
        <music-font font-size="20.4" font-family="Maestro"/>
        <word-font font-size="10.2" font-family="Times New Roman"/>
        <lyric-font font-size="10.2" font-family="Times New Roman"/>
    </defaults>
    <credit page="1">
        <credit-words font-size="24" default-y="1447" default-x="600" justify="center" valign="top">My Way</credit-words>
    </credit>
    <credit page="1">
        <credit-words font-size="12" default-y="1383" default-x="1129" justify="right" valign="top">by Frank Sinatra</credit-words>
    </credit>
    <part-list>
        <score-part id="P1">
            <part-name print-object="no">MusicXML Part</part-name>
            <score-instrument id="P1-I2">
                <instrument-name>Acoustic Bass</instrument-name>
            </score-instrument>
            <midi-instrument id="P1-I2">
                <midi-channel>2</midi-channel>
                <midi-program>1</midi-program>
                <volume>80</volume>
                <pan>0</pan>
            </midi-instrument>
        </score-part>
    </part-list>
    <part id="P1">
        <measure width="224" number="1">
            <print>
                <system-layout>
                    <top-system-distance>211</top-system-distance>
                </system-layout>
                <measure-numbering>system</measure-numbering>
            </print>
            <attributes>
                <divisions>8</divisions>
                <key>
                    <fifths>-1</fifths>
                    <mode>major</mode>
                </key>
                <time>
                    <beats>4</beats>
                    <beat-type>4</beat-type>
                </time>
                <clef>
                    <sign>G</sign>
                    <line>2</line>
                </clef>
            </attributes>
            <sound tempo="120"/>
            <note default-x="110">
                <rest/>
                <duration>8</duration>
                <voice>1</voice>
                <type>quarter</type>
            </note>
            <note default-x="136">
                <rest/>
                <duration>8</duration>
                <voice>1</voice>
                <type>quarter</type>
            </note>
            <note default-x="162">
                <rest/>
                <duration>8</duration>
                <voice>1</voice>
                <type>quarter</type>
            </note>
            <note default-x="189">
                <pitch>
                    <step>C</step>
                    <octave>4</octave>
                </pitch>
                <duration>8</duration>
                <voice>1</voice>
                <type>quarter</type>
                <stem default-y="-14.5">up</stem>
                <lyric default-y="-75" number="1">
                    <syllabic>single</syllabic>
                    <text>And</text>
                </lyric>
            </note>
        </measure>
        <measure width="213" number="2">
            <barline location="left">
                <bar-style>heavy-light</bar-style>
                <repeat direction="forward"/>
            </barline>
            <harmony default-y="26">
                <root>
                    <root-step>F</root-step>
                </root>
                <kind halign="center" text="">major</kind>
            </harmony>
            <note default-x="31">
                <pitch>
                    <step>A</step>
                    <octave>4</octave>
                </pitch>
                <duration>16</duration>
                <voice>1</voice>
                <type>half</type>
                <stem default-y="10.5">up</stem>
                <lyric default-y="-75" number="1">
                    <syllabic>single</syllabic>
                    <text>now</text>
                </lyric>
                <lyric default-y="-97" number="2">
                    <syllabic>single</syllabic>
                    <text>loved,</text>
                </lyric>
            </note>
            <note default-x="58">
                <rest/>
                <duration>4</duration>
                <voice>1</voice>
                <type>eighth</type>
            </note>
            <note default-x="80">
                <pitch>
                    <step>C</step>
                    <octave>4</octave>
                </pitch>
                <duration>4</duration>
                <voice>1</voice>
                <type>eighth</type>
                <stem default-y="10">up</stem>
                <beam number="1">begin</beam>
                <lyric default-y="-75" number="1">
                    <syllabic>single</syllabic>
                    <text>the</text>
                </lyric>
                <lyric default-y="-97" number="2">
                    <syllabic>single</syllabic>
                    <text>I've</text>
                </lyric>
            </note>
            <note default-x="132">
                <pitch>
                    <step>A</step>
                    <octave>4</octave>
                </pitch>
                <duration>4</duration>
                <voice>1</voice>
                <type>eighth</type>
                <stem default-y="10">up</stem>
                <beam number="1">continue</beam>
                <lyric default-y="-75" number="1">
                    <syllabic>single</syllabic>
                    <text>end</text>
                </lyric>
                <lyric default-y="-97" number="2">
                    <syllabic>single</syllabic>
                    <text>laughed</text>
                </lyric>
            </note>
            <note default-x="184">
                <pitch>
                    <step>G</step>
                    <octave>4</octave>
                </pitch>
                <duration>4</duration>
                <voice>1</voice>
                <type>eighth</type>
                <stem default-y="10">up</stem>
                <beam number="1">end</beam>
                <lyric default-y="-75" number="1">
                    <syllabic>single</syllabic>
                    <text>is</text>
                </lyric>
                <lyric default-y="-97" number="2">
                    <syllabic>single</syllabic>
                    <text>and</text>
                </lyric>
            </note>
        </measure>
        <measure width="165" number="3">
            <harmony default-y="26">
                <root>
                    <root-step>A</root-step>
                </root>
                <kind halign="center" text="m">minor</kind>
            </harmony>
            <note default-x="14">
                <pitch>
                    <step>A</step>
                    <octave>4</octave>
                </pitch>
                <duration>16</duration>
                <voice>1</voice>
                <type>half</type>
                <stem default-y="10.5">up</stem>
                <lyric default-y="-75" number="1">
                    <syllabic>single</syllabic>
                    <text>near</text>
                </lyric>
                <lyric default-y="-97" number="2">
                    <syllabic>single</syllabic>
                    <text>cried.</text>
                </lyric>
            </note>
            <note default-x="38">
                <rest/>
                <duration>4</duration>
                <voice>1</voice>
                <type>eighth</type>
            </note>
            <note default-x="61">
                <pitch>
                    <step>C</step>
                    <octave>4</octave>
                </pitch>
                <duration>4</duration>
                <voice>1</voice>
                <type>eighth</type>
                <stem default-y="10">up</stem>
                <beam number="1">begin</beam>
                <lyric default-y="-75" number="1">
                    <syllabic>single</syllabic>
                    <text>and</text>
                </lyric>
                <lyric default-y="-97" number="2">
                    <syllabic>single</syllabic>
                    <text>I've</text>
                </lyric>
            </note>
            <note default-x="99">
                <pitch>
                    <step>A</step>
                    <octave>4</octave>
                </pitch>
                <duration>4</duration>
                <voice>1</voice>
                <type>eighth</type>
                <stem default-y="10">up</stem>
                <beam number="1">continue</beam>
                <lyric default-y="-75" number="1">
                    <syllabic>single</syllabic>
                    <text>so</text>
                </lyric>
                <lyric default-y="-97" number="2">
                    <syllabic>single</syllabic>
                    <text>had</text>
                </lyric>
            </note>
            <note default-x="136">
                <pitch>
                    <step>G</step>
                    <octave>4</octave>
                </pitch>
                <duration>4</duration>
                <voice>1</voice>
                <type>eighth</type>
                <stem default-y="10">up</stem>
                <beam number="1">end</beam>
                <lyric default-y="-75" number="1">
                    <syllabic>single</syllabic>
                    <text>I</text>
                </lyric>
                <lyric default-y="-97" number="2">
                    <syllabic>single</syllabic>
                    <text>my</text>
                </lyric>
            </note>
        </measure>
        <measure width="172" number="4">
            <harmony default-y="26">
                <root>
                    <root-step>C</root-step>
                </root>
                <kind halign="center" text="m">minor</kind>
            </harmony>
            <note default-x="13">
                <pitch>
                    <step>A</step>
                    <octave>4</octave>
                </pitch>
                <duration>16</duration>
                <voice>1</voice>
                <type>half</type>
                <stem default-y="10.5">up</stem>
                <lyric default-y="-75" number="1">
                    <syllabic>single</syllabic>
                    <text>face</text>
                </lyric>
                <lyric default-y="-97" number="2">
                    <syllabic>single</syllabic>
                    <text>fill</text>
                </lyric>
            </note>
            <note default-x="35">
                <rest/>
                <duration>4</duration>
                <voice>1</voice>
                <type>eighth</type>
            </note>
            <note default-x="57">
                <pitch>
                    <step>G</step>
                    <octave>4</octave>
                </pitch>
                <duration>4</duration>
                <voice>1</voice>
                <type>eighth</type>
                <stem default-y="10">up</stem>
                <beam number="1">begin</beam>
                <lyric default-y="-75" number="1">
                    <syllabic>single</syllabic>
                    <text>the</text>
                </lyric>
                <lyric default-y="-97" number="2">
                    <syllabic>single</syllabic>
                    <text>my</text>
                </lyric>
            </note>
            <note default-x="100">
                <pitch>
                    <step>A</step>
                    <octave>4</octave>
                </pitch>
                <duration>4</duration>
                <voice>1</voice>
                <type>eighth</type>
                <stem default-y="10">up</stem>
                <beam number="1">continue</beam>
                <lyric default-y="-75" number="1">
                    <syllabic>begin</syllabic>
                    <text>fi</text>
                </lyric>
                <lyric default-y="-97" number="2">
                    <syllabic>single</syllabic>
                    <text>share</text>
                </lyric>
            </note>
            <note default-x="142">
                <pitch>
                    <step>G</step>
                    <octave>4</octave>
                </pitch>
                <duration>4</duration>
                <voice>1</voice>
                <type>eighth</type>
                <stem default-y="10">up</stem>
                <beam number="1">end</beam>
                <lyric default-y="-75" number="1">
                    <syllabic>end</syllabic>
                    <text>nal</text>
                </lyric>
                <lyric default-y="-97" number="2">
                    <syllabic>single</syllabic>
                    <text>of</text>
                </lyric>
            </note>
        </measure>
        <measure width="119" number="5">
            <harmony default-y="26">
                <root>
                    <root-step>D</root-step>
                </root>
                <kind halign="center" text="7">dominant</kind>
            </harmony>
            <note default-x="13">
                <pitch>
                    <step>G</step>
                    <octave>4</octave>
                </pitch>
                <duration>8</duration>
                <voice>1</voice>
                <type>quarter</type>
                <stem default-y="6">up</stem>
                <lyric default-y="-75" number="1">
                    <syllabic>begin</syllabic>
                    <text>cur</text>
                </lyric>
                <lyric default-y="-97" number="2">
                    <syllabic>begin</syllabic>
                    <text>lo</text>
                </lyric>
            </note>
            <note default-x="47">
                <pitch>
                    <step>F</step>
                    <alter>1</alter>
                    <octave>4</octave>
                </pitch>
                <duration>16</duration>
                <voice>1</voice>
                <type>half</type>
                <accidental>sharp</accidental>
                <stem default-y="0">up</stem>
                <lyric default-y="-75" number="1">
                    <syllabic>end</syllabic>
                    <text>tain.</text>
                </lyric>
                <lyric default-y="-97" number="2">
                    <syllabic>end</syllabic>
                    <text>sing.</text>
                </lyric>
            </note>
            <note default-x="89">
                <pitch>
                    <step>D</step>
                    <octave>4</octave>
                </pitch>
                <duration>8</duration>
                <voice>1</voice>
                <type>quarter</type>
                <stem default-y="-9.5">up</stem>
                <lyric default-y="-75" number="1">
                    <syllabic>single</syllabic>
                    <text>My</text>
                </lyric>
                <lyric default-y="-97" number="2">
                    <syllabic>single</syllabic>
                    <text>And</text>
                </lyric>
            </note>
        </measure>
        <measure width="166" number="6">
            <harmony default-y="26">
                <root>
                    <root-step>G</root-step>
                </root>
                <kind halign="center" text="m">minor</kind>
            </harmony>
            <note default-x="14">
                <pitch>
                    <step>B</step>
                    <alter>-1</alter>
                    <octave>4</octave>
                </pitch>
                <duration>16</duration>
                <voice>1</voice>
                <type>half</type>
                <stem default-y="-55">down</stem>
                <lyric relative-x="3" default-y="-75" number="1">
                    <syllabic>single</syllabic>
                    <text>friend</text>
                </lyric>
                <lyric default-y="-97" number="2">
                    <syllabic>single</syllabic>
                    <text>now</text>
                </lyric>
            </note>
            <note default-x="41">
                <rest/>
                <duration>4</duration>
                <voice>1</voice>
                <type>eighth</type>
            </note>
            <note default-x="58">
                <pitch>
                    <step>D</step>
                    <octave>4</octave>
                </pitch>
                <duration>4</duration>
                <voice>1</voice>
                <type>eighth</type>
                <stem default-y="15">up</stem>
                <beam number="1">begin</beam>
                <lyric default-y="-75" number="1">
                    <syllabic>single</syllabic>
                    <text>I</text>
                </lyric>
                <lyric default-y="-97" number="2">
                    <syllabic>single</syllabic>
                    <text>as</text>
                </lyric>
            </note>
            <note default-x="95">
                <pitch>
                    <step>B</step>
                    <alter>-1</alter>
                    <octave>4</octave>
                </pitch>
                <duration>4</duration>
                <voice>1</voice>
                <type>eighth</type>
                <stem default-y="15">up</stem>
                <beam number="1">continue</beam>
                <lyric default-y="-75" number="1">
                    <syllabic>single</syllabic>
                    <text>say</text>
                </lyric>
                <lyric default-y="-97" number="2">
                    <syllabic>single</syllabic>
                    <text>tears</text>
                </lyric>
            </note>
            <note default-x="136">
                <pitch>
                    <step>A</step>
                    <octave>4</octave>
                </pitch>
                <duration>4</duration>
                <voice>1</voice>
                <type>eighth</type>
                <stem default-y="15">up</stem>
                <beam number="1">end</beam>
                <lyric default-y="-75" number="1">
                    <syllabic>single</syllabic>
                    <text>it</text>
                </lyric>
                <lyric default-y="-97" number="2">
                    <syllabic>begin</syllabic>
                    <text>sub</text>
                </lyric>
            </note>
        </measure>
        <measure width="202" number="7">
            <print new-system="yes">
                <system-layout>
                    <system-distance>114</system-distance>
                </system-layout>
            </print>
            <harmony default-y="26">
                <root>
                    <root-step>G</root-step>
                </root>
                <kind halign="center" text="m7">minor-seventh</kind>
            </harmony>
            <note default-x="40">
                <pitch>
                    <step>B</step>
                    <alter>-1</alter>
                    <octave>4</octave>
                </pitch>
                <duration>16</duration>
                <voice>1</voice>
                <type>half</type>
                <stem default-y="-55">down</stem>
                <lyric default-y="-75" number="1">
                    <syllabic>single</syllabic>
                    <text>clear</text>
                </lyric>
                <lyric default-y="-97" number="2">
                    <syllabic>end</syllabic>
                    <text>side</text>
                </lyric>
            </note>
            <note default-x="74">
                <rest/>
                <duration>4</duration>
                <voice>1</voice>
                <type>eighth</type>
            </note>
            <note default-x="94">
                <pitch>
                    <step>D</step>
                    <octave>4</octave>
                </pitch>
                <duration>4</duration>
                <voice>1</voice>
                <type>eighth</type>
                <stem default-y="15">up</stem>
                <beam number="1">begin</beam>
                <lyric default-y="-75" number="1">
                    <syllabic>single</syllabic>
                    <text>I'll</text>
                </lyric>
                <lyric default-y="-97" number="2">
                    <syllabic>single</syllabic>
                    <text>I</text>
                </lyric>
            </note>
            <note default-x="131">
                <pitch>
                    <step>B</step>
                    <alter>-1</alter>
                    <octave>4</octave>
                </pitch>
                <duration>4</duration>
                <voice>1</voice>
                <type>eighth</type>
                <stem default-y="15">up</stem>
                <beam number="1">continue</beam>
                <lyric default-y="-75" number="1">
                    <syllabic>single</syllabic>
                    <text>state</text>
                </lyric>
                <lyric default-y="-97" number="2">
                    <syllabic>single</syllabic>
                    <text>find</text>
                </lyric>
            </note>
            <note default-x="172">
                <pitch>
                    <step>A</step>
                    <octave>4</octave>
                </pitch>
                <duration>4</duration>
                <voice>1</voice>
                <type>eighth</type>
                <stem default-y="15">up</stem>
                <beam number="1">end</beam>
                <lyric default-y="-75" number="1">
                    <syllabic>single</syllabic>
                    <text>my</text>
                </lyric>
                <lyric default-y="-97" number="2">
                    <syllabic>single</syllabic>
                    <text>it</text>
                </lyric>
            </note>
        </measure>
        <measure width="188" number="8">
            <harmony default-y="26">
                <root>
                    <root-step>C</root-step>
                </root>
                <kind halign="center" text="7">dominant</kind>
            </harmony>
            <note default-x="14">
                <pitch>
                    <step>B</step>
                    <alter>-1</alter>
                    <octave>4</octave>
                </pitch>
                <duration>16</duration>
                <voice>1</voice>
                <type>half</type>
                <stem default-y="-55">down</stem>
                <lyric default-y="-75" number="1">
                    <syllabic>single</syllabic>
                    <text>case</text>
                </lyric>
                <lyric default-y="-97" number="2">
                    <syllabic>single</syllabic>
                    <text>all</text>
                </lyric>
            </note>
            <note default-x="48">
                <rest/>
                <duration>4</duration>
                <voice>1</voice>
                <type>eighth</type>
            </note>
            <note default-x="67">
                <pitch>
                    <step>C</step>
                    <octave>5</octave>
                </pitch>
                <duration>4</duration>
                <voice>1</voice>
                <type>eighth</type>
                <stem default-y="20">up</stem>
                <beam number="1">begin</beam>
                <lyric default-y="-75" number="1">
                    <syllabic>single</syllabic>
                    <text>of</text>
                </lyric>
            </note>
            <note default-x="111">
                <pitch>
                    <step>G</step>
                    <octave>4</octave>
                </pitch>
                <duration>4</duration>
                <voice>1</voice>
                <type>eighth</type>
                <stem default-y="18">up</stem>
                <beam number="1">continue</beam>
                <lyric default-y="-75" number="1">
                    <syllabic>single</syllabic>
                    <text>which</text>
                </lyric>
                <lyric default-y="-97" number="2">
                    <syllabic>single</syllabic>
                    <text>so</text>
                </lyric>
            </note>
            <note default-x="158">
                <pitch>
                    <step>G</step>
                    <octave>4</octave>
                </pitch>
                <duration>4</duration>
                <voice>1</voice>
                <type>eighth</type>
                <stem default-y="15">up</stem>
                <beam number="1">end</beam>
                <lyric default-y="-75" number="1">
                    <syllabic>single</syllabic>
                    <text>I'm</text>
                </lyric>
                <lyric default-y="-97" number="2">
                    <syllabic>begin</syllabic>
                    <text>a</text>
                </lyric>
            </note>
        </measure>
        <measure width="144" number="9">
            <harmony default-y="26">
                <root>
                    <root-step>F</root-step>
                </root>
                <kind halign="center" text="">major</kind>
            </harmony>
            <note default-x="14">
                <pitch>
                    <step>B</step>
                    <alter>-1</alter>
                    <octave>4</octave>
                </pitch>
                <duration>8</duration>
                <voice>1</voice>
                <type>quarter</type>
                <stem default-y="-55">down</stem>
                <lyric default-y="-75" number="1">
                    <syllabic>begin</syllabic>
                    <text>cer</text>
                </lyric>
                <lyric default-y="-97" number="2">
                    <syllabic>middle</syllabic>
                    <text>mus</text>
                </lyric>
            </note>
            <note default-x="47">
                <pitch>
                    <step>A</step>
                    <octave>4</octave>
                </pitch>
                <duration>16</duration>
                <voice>1</voice>
                <type>half</type>
                <stem default-y="10">up</stem>
                <lyric relative-x="8" default-y="-75" number="1">
                    <syllabic>end</syllabic>
                    <text>tain.</text>
                </lyric>
                <lyric relative-x="6" default-y="-97" number="2">
                    <syllabic>end</syllabic>
                    <text>ing.</text>
                </lyric>
            </note>
            <note default-x="86">
                <rest/>
                <duration>4</duration>
                <voice>1</voice>
                <type>eighth</type>
            </note>
            <note default-x="113">
                <pitch>
                    <step>B</step>
                    <octave>4</octave>
                </pitch>
                <duration>4</duration>
                <voice>1</voice>
                <type>eighth</type>
                <accidental>natural</accidental>
                <stem default-y="-55">down</stem>
                <lyric default-y="-75" number="1">
                    <syllabic>single</syllabic>
                    <text>I've</text>
                </lyric>
                <lyric default-y="-97" number="2">
                    <syllabic>single</syllabic>
                    <text>To</text>
                </lyric>
            </note>
        </measure>
        <measure width="181" number="10">
            <note default-x="14">
                <pitch>
                    <step>C</step>
                    <octave>5</octave>
                </pitch>
                <duration>16</duration>
                <voice>1</voice>
                <type>half</type>
                <stem default-y="-50.5">down</stem>
                <lyric default-y="-75" number="1">
                    <syllabic>single</syllabic>
                    <text>lived</text>
                </lyric>
                <lyric default-y="-97" number="2">
                    <syllabic>single</syllabic>
                    <text>think</text>
                </lyric>
            </note>
            <note default-x="46">
                <rest/>
                <duration>4</duration>
                <voice>1</voice>
                <type>eighth</type>
            </note>
            <note default-x="73">
                <pitch>
                    <step>B</step>
                    <octave>4</octave>
                </pitch>
                <duration>4</duration>
                <voice>1</voice>
                <type>eighth</type>
                <accidental>natural</accidental>
                <stem default-y="-55">down</stem>
                <beam number="1">begin</beam>
                <lyric default-y="-75" number="1">
                    <syllabic>single</syllabic>
                    <text>a</text>
                </lyric>
                <lyric default-y="-97" number="2">
                    <syllabic>single</syllabic>
                    <text>I</text>
                </lyric>
            </note>
            <note default-x="100">
                <pitch>
                    <step>C</step>
                    <octave>5</octave>
                </pitch>
                <duration>4</duration>
                <voice>1</voice>
                <type>eighth</type>
                <stem default-y="-53">down</stem>
                <beam number="1">continue</beam>
                <lyric default-y="-75" number="1">
                    <syllabic>single</syllabic>
                    <text>life</text>
                </lyric>
                <lyric default-y="-97" number="2">
                    <syllabic>single</syllabic>
                    <text>did</text>
                </lyric>
            </note>
            <note default-x="143">
                <pitch>
                    <step>D</step>
                    <octave>5</octave>
                </pitch>
                <duration>4</duration>
                <voice>1</voice>
                <type>eighth</type>
                <stem default-y="-50">down</stem>
                <beam number="1">end</beam>
                <lyric default-y="-75" number="1">
                    <syllabic>single</syllabic>
                    <text>that's</text>
                </lyric>
                <lyric default-y="-97" number="2">
                    <syllabic>single</syllabic>
                    <text>all</text>
                </lyric>
            </note>
        </measure>
        <measure width="185" number="11">
            <harmony default-y="26">
                <root>
                    <root-step>F</root-step>
                </root>
                <kind halign="center" text="7">dominant</kind>
            </harmony>
            <note default-x="14">
                <pitch>
                    <step>C</step>
                    <octave>5</octave>
                </pitch>
                <duration>16</duration>
                <voice>1</voice>
                <type>half</type>
                <stem default-y="-50.5">down</stem>
                <lyric default-y="-75" number="1">
                    <syllabic>single</syllabic>
                    <text>full</text>
                </lyric>
                <lyric default-y="-97" number="2">
                    <syllabic>single</syllabic>
                    <text>that</text>
                </lyric>
            </note>
            <note default-x="45">
                <rest/>
                <duration>4</duration>
                <voice>1</voice>
                <type>eighth</type>
            </note>
            <note default-x="69">
                <pitch>
                    <step>D</step>
                    <octave>5</octave>
                </pitch>
                <duration>4</duration>
                <voice>1</voice>
                <type>eighth</type>
                <stem default-y="-60">down</stem>
                <beam number="1">begin</beam>
                <lyric default-y="-75" number="1">
                    <syllabic>single</syllabic>
                    <text>I've</text>
                </lyric>
                <lyric default-y="-97" number="2">
                    <syllabic>single</syllabic>
                    <text>and</text>
                </lyric>
            </note>
            <note default-x="111">
                <pitch>
                    <step>A</step>
                    <octave>4</octave>
                </pitch>
                <duration>4</duration>
                <voice>1</voice>
                <type>eighth</type>
                <stem default-y="-60">down</stem>
                <beam number="1">continue</beam>
                <lyric default-y="-75" number="1">
                    <syllabic>begin</syllabic>
                    <text>trav</text>
                </lyric>
                <lyric default-y="-97" number="2">
                    <syllabic>single</syllabic>
                    <text>may</text>
                </lyric>
            </note>
            <note default-x="152">
                <pitch>
                    <step>C</step>
                    <octave>5</octave>
                </pitch>
                <duration>4</duration>
                <voice>1</voice>
                <type>eighth</type>
                <stem default-y="-60">down</stem>
                <beam number="1">end</beam>
                <lyric default-y="-75" number="1">
                    <syllabic>end</syllabic>
                    <text>eled</text>
                </lyric>
                <lyric default-y="-97" number="2">
                    <syllabic>single</syllabic>
                    <text>I</text>
                </lyric>
            </note>
        </measure>
        <measure width="160" number="12">
            <harmony default-y="26">
                <root>
                    <root-step>B</root-step>
                    <root-alter>-1</root-alter>
                </root>
                <kind halign="center" text="">major</kind>
            </harmony>
            <note default-x="14">
                <pitch>
                    <step>B</step>
                    <alter>-1</alter>
                    <octave>4</octave>
                </pitch>
                <duration>16</duration>
                <voice>1</voice>
                <type>half</type>
                <stem default-y="-55">down</stem>
                <lyric default-y="-75" number="1">
                    <syllabic>single</syllabic>
                    <text>each</text>
                </lyric>
                <lyric default-y="-97" number="2">
                    <syllabic>single</syllabic>
                    <text>say</text>
                </lyric>
            </note>
            <note default-x="48">
                <rest/>
                <duration>4</duration>
                <voice>1</voice>
                <type>eighth</type>
            </note>
            <note default-x="72">
                <pitch>
                    <step>B</step>
                    <alter>-1</alter>
                    <octave>4</octave>
                </pitch>
                <duration>4</duration>
                <voice>1</voice>
                <type>eighth</type>
                <stem default-y="15">up</stem>
                <beam number="1">begin</beam>
                <lyric default-y="-75" number="1">
                    <syllabic>single</syllabic>
                    <text>and</text>
                </lyric>
                <lyric default-y="-97" number="2">
                    <syllabic>single</syllabic>
                    <text>not</text>
                </lyric>
            </note>
            <note default-x="105">
                <pitch>
                    <step>B</step>
                    <alter>-1</alter>
                    <octave>4</octave>
                </pitch>
                <duration>4</duration>
                <voice>1</voice>
                <type>eighth</type>
                <stem default-y="15">up</stem>
                <beam number="1">continue</beam>
                <lyric default-y="-75" number="1">
                    <syllabic>begin</syllabic>
                    <text>ev'</text>
                </lyric>
                <lyric default-y="-97" number="2">
                    <syllabic>single</syllabic>
                    <text>in</text>
                </lyric>
            </note>
            <note default-x="134">
                <pitch>
                    <step>A</step>
                    <octave>4</octave>
                </pitch>
                <duration>4</duration>
                <voice>1</voice>
                <type>eighth</type>
                <stem default-y="15">up</stem>
                <beam number="1">end</beam>
                <lyric default-y="-75" number="1">
                    <syllabic>end</syllabic>
                    <text>ry</text>
                </lyric>
                <lyric default-y="-97" number="2">
                    <syllabic>single</syllabic>
                    <text>a</text>
                </lyric>
            </note>
        </measure>
        <measure width="146" number="13">
            <print new-system="yes">
                <system-layout>
                    <system-distance>114</system-distance>
                </system-layout>
            </print>
            <harmony default-y="26">
                <root>
                    <root-step>B</root-step>
                    <root-alter>-1</root-alter>
                </root>
                <kind halign="center" text="m">minor</kind>
            </harmony>
            <note default-x="40">
                <pitch>
                    <step>C</step>
                    <octave>5</octave>
                </pitch>
                <duration>8</duration>
                <voice>1</voice>
                <type>quarter</type>
                <stem default-y="-50">down</stem>
                <lyric default-y="-75" number="1">
                    <syllabic>begin</syllabic>
                    <text>high</text>
                </lyric>
                <lyric default-y="-97" number="2">
                    <syllabic>single</syllabic>
                    <text>shy</text>
                </lyric>
            </note>
            <note default-x="79">
                <pitch>
                    <step>B</step>
                    <alter>-1</alter>
                    <octave>4</octave>
                </pitch>
                <duration>16</duration>
                <voice>1</voice>
                <type>half</type>
                <stem default-y="-55">down</stem>
                <lyric default-y="-75" number="1">
                    <syllabic>end</syllabic>
                    <text>way</text>
                </lyric>
                <lyric default-y="-97" number="2">
                    <syllabic>single</syllabic>
                    <text>way.</text>
                </lyric>
            </note>
            <note default-x="118">
                <pitch>
                    <step>B</step>
                    <alter>-1</alter>
                    <octave>4</octave>
                </pitch>
                <duration>8</duration>
                <voice>1</voice>
                <type>quarter</type>
                <stem default-y="-55">down</stem>
                <lyric default-y="-75" number="1">
                    <syllabic>single</syllabic>
                    <text>and</text>
                </lyric>
                <lyric default-y="-97" number="2">
                    <syllabic>single</syllabic>
                    <text>Oh</text>
                </lyric>
            </note>
        </measure>
        <measure width="189" number="14">
            <harmony default-y="26">
                <root>
                    <root-step>F</root-step>
                </root>
                <kind halign="center" text="">major</kind>
            </harmony>
            <note default-x="13">
                <pitch>
                    <step>A</step>
                    <octave>4</octave>
                </pitch>
                <duration>16</duration>
                <voice>1</voice>
                <type>half</type>
                <stem default-y="10.5">up</stem>
                <lyric default-y="-75" number="1">
                    <syllabic>single</syllabic>
                    <text>more</text>
                </lyric>
                <lyric default-y="-97" number="2">
                    <syllabic>single</syllabic>
                    <text>no</text>
                </lyric>
            </note>
            <note default-x="34">
                <rest/>
                <duration>4</duration>
                <voice>1</voice>
                <type>eighth</type>
            </note>
            <note default-x="63">
                <pitch>
                    <step>C</step>
                    <octave>4</octave>
                </pitch>
                <duration>4</duration>
                <voice>1</voice>
                <type>eighth</type>
                <stem default-y="15">up</stem>
                <beam number="1">begin</beam>
                <lyric default-y="-75" number="1">
                    <syllabic>single</syllabic>
                    <text>much</text>
                </lyric>
                <lyric default-y="-97" number="2">
                    <syllabic>single</syllabic>
                    <text>Oh</text>
                </lyric>
            </note>
            <note default-x="113">
                <pitch>
                    <step>B</step>
                    <alter>-1</alter>
                    <octave>4</octave>
                </pitch>
                <duration>4</duration>
                <voice>1</voice>
                <type>eighth</type>
                <stem default-y="15">up</stem>
                <beam number="1">continue</beam>
                <lyric default-y="-75" number="1">
                    <syllabic>single</syllabic>
                    <text>more</text>
                </lyric>
                <lyric default-y="-97" number="2">
                    <syllabic>single</syllabic>
                    <text>no</text>
                </lyric>
            </note>
            <note default-x="157">
                <pitch>
                    <step>A</step>
                    <octave>4</octave>
                </pitch>
                <duration>4</duration>
                <voice>1</voice>
                <type>eighth</type>
                <stem default-y="15">up</stem>
                <beam number="1">end</beam>
                <lyric default-y="-75" number="1">
                    <syllabic>single</syllabic>
                    <text>than</text>
                </lyric>
                <lyric default-y="-97" number="2">
                    <syllabic>single</syllabic>
                    <text>not</text>
                </lyric>
            </note>
        </measure>
        <measure width="125" number="15">
            <note default-x="13">
                <pitch>
                    <step>G</step>
                    <octave>4</octave>
                </pitch>
                <duration>16</duration>
                <voice>1</voice>
                <type>half</type>
                <stem default-y="6">up</stem>
                <lyric default-y="-75" number="1">
                    <syllabic>single</syllabic>
                    <text>this.</text>
                </lyric>
                <lyric default-y="-97" number="2">
                    <syllabic>single</syllabic>
                    <text>me.</text>
                </lyric>
            </note>
            <harmony default-y="26">
                <root>
                    <root-step>C</root-step>
                </root>
                <kind halign="center" text="7">dominant</kind>
                <offset>-8</offset>
            </harmony>
            <note default-x="48">
                <pitch>
                    <step>E</step>
                    <octave>4</octave>
                </pitch>
                <duration>8</duration>
                <voice>1</voice>
                <type>quarter</type>
                <stem default-y="-4.5">up</stem>
                <lyric default-y="-75" number="1">
                    <syllabic>single</syllabic>
                    <text>I</text>
                </lyric>
                <lyric default-y="-97" number="2">
                    <syllabic>single</syllabic>
                    <text>I</text>
                </lyric>
            </note>
            <note default-x="74">
                <pitch>
                    <step>F</step>
                    <octave>4</octave>
                </pitch>
                <duration>4</duration>
                <voice>1</voice>
                <type>eighth</type>
                <stem default-y="0">up</stem>
                <beam number="1">begin</beam>
                <lyric default-y="-75" number="1">
                    <syllabic>single</syllabic>
                    <text>did</text>
                </lyric>
                <lyric default-y="-97" number="2">
                    <syllabic>single</syllabic>
                    <text>did</text>
                </lyric>
            </note>
            <note default-x="102">
                <pitch>
                    <step>G</step>
                    <octave>4</octave>
                </pitch>
                <duration>4</duration>
                <voice>1</voice>
                <type>eighth</type>
                <stem default-y="5">up</stem>
                <beam number="1">end</beam>
                <lyric default-y="-75" number="1">
                    <syllabic>single</syllabic>
                    <text>it</text>
                </lyric>
                <lyric default-y="-97" number="2">
                    <syllabic>single</syllabic>
                    <text>it</text>
                </lyric>
            </note>
        </measure>
        <measure width="85" number="16">
            <harmony default-y="26">
                <root>
                    <root-step>B</root-step>
                    <root-alter>-1</root-alter>
                </root>
                <kind halign="center" text="m">minor</kind>
            </harmony>
            <note default-x="13">
                <pitch>
                    <step>G</step>
                    <octave>4</octave>
                </pitch>
                <duration>32</duration>
                <voice>1</voice>
                <type>whole</type>
                <lyric default-y="-75" number="1">
                    <syllabic>single</syllabic>
                    <text>my</text>
                </lyric>
                <lyric default-y="-97" number="2">
                    <syllabic>single</syllabic>
                    <text>my</text>
                </lyric>
            </note>
        </measure>
        <measure width="165" number="17">
            <harmony default-y="26">
                <root>
                    <root-step>F</root-step>
                </root>
                <kind halign="center" text="">major</kind>
            </harmony>
            <note default-x="14">
                <pitch>
                    <step>F</step>
                    <octave>4</octave>
                </pitch>
                <duration>16</duration>
                <voice>1</voice>
                <type>half</type>
                <stem default-y="0">up</stem>
                <lyric default-y="-75" number="1">
                    <syllabic>single</syllabic>
                    <text>way.</text>
                </lyric>
                <lyric default-y="-97" number="2">
                    <syllabic>single</syllabic>
                    <text>way.</text>
                </lyric>
            </note>
            <note default-x="55">
                <pitch>
                    <step>A</step>
                    <octave>4</octave>
                </pitch>
                <duration>8</duration>
                <voice>1</voice>
                <type>quarter</type>
                <stem default-y="10.5">up</stem>
                <lyric default-y="-75" number="1">
                    <syllabic>single</syllabic>
                    <text>Yes</text>
                </lyric>
                <lyric default-y="-97" number="2">
                    <syllabic>single</syllabic>
                    <text>What</text>
                </lyric>
            </note>
            <note default-x="97">
                <pitch>
                    <step>B</step>
                    <alter>-1</alter>
                    <octave>4</octave>
                </pitch>
                <duration>4</duration>
                <voice>1</voice>
                <type>eighth</type>
                <stem default-y="-55">down</stem>
                <beam number="1">begin</beam>
                <lyric default-y="-75" number="1">
                    <syllabic>single</syllabic>
                    <text>there</text>
                </lyric>
                <lyric default-y="-97" number="2">
                    <syllabic>single</syllabic>
                    <text>is</text>
                </lyric>
            </note>
            <note default-x="136">
                <pitch>
                    <step>C</step>
                    <octave>5</octave>
                </pitch>
                <duration>4</duration>
                <voice>1</voice>
                <type>eighth</type>
                <stem default-y="-50">down</stem>
                <beam number="1">end</beam>
                <lyric default-y="-75" number="1">
                    <syllabic>single</syllabic>
                    <text>were</text>
                </lyric>
                <lyric default-y="-97" number="2">
                    <syllabic>single</syllabic>
                    <text>a</text>
                </lyric>
            </note>
        </measure>
        <measure width="178" number="18">
            <note default-x="14">
                <pitch>
                    <step>C</step>
                    <octave>5</octave>
                </pitch>
                <duration>16</duration>
                <voice>1</voice>
                <type>half</type>
                <stem default-y="-50">down</stem>
                <lyric default-y="-75" number="1">
                    <syllabic>single</syllabic>
                    <text>times</text>
                </lyric>
                <lyric default-y="-97" number="2">
                    <syllabic>single</syllabic>
                    <text>man?</text>
                </lyric>
            </note>
            <note default-x="37">
                <rest/>
                <duration>4</duration>
                <voice>1</voice>
                <type>eighth</type>
            </note>
            <note default-x="66">
                <pitch>
                    <step>D</step>
                    <octave>5</octave>
                </pitch>
                <duration>4</duration>
                <voice>1</voice>
                <type>eighth</type>
                <stem default-y="-50">down</stem>
                <beam number="1">begin</beam>
                <lyric default-y="-75" number="1">
                    <syllabic>single</syllabic>
                    <text>I'm</text>
                </lyric>
                <lyric default-y="-97" number="2">
                    <syllabic>single</syllabic>
                    <text>What</text>
                </lyric>
            </note>
            <note default-x="111">
                <pitch>
                    <step>C</step>
                    <octave>5</octave>
                </pitch>
                <duration>4</duration>
                <voice>1</voice>
                <type>eighth</type>
                <stem default-y="-53">down</stem>
                <beam number="1">continue</beam>
                <lyric default-y="-75" number="1">
                    <syllabic>single</syllabic>
                    <text>sure</text>
                </lyric>
                <lyric default-y="-97" number="2">
                    <syllabic>single</syllabic>
                    <text>has</text>
                </lyric>
            </note>
            <note default-x="148">
                <pitch>
                    <step>B</step>
                    <octave>4</octave>
                </pitch>
                <duration>4</duration>
                <voice>1</voice>
                <type>eighth</type>
                <accidental>natural</accidental>
                <stem default-y="-55">down</stem>
                <beam number="1">end</beam>
                <lyric default-y="-75" number="1">
                    <syllabic>single</syllabic>
                    <text>you</text>
                </lyric>
                <lyric default-y="-97" number="2">
                    <syllabic>single</syllabic>
                    <text>he</text>
                </lyric>
            </note>
        </measure>
        <measure width="171" number="19">
            <harmony default-y="26">
                <root>
                    <root-step>F</root-step>
                </root>
                <kind halign="center" text="7">dominant</kind>
            </harmony>
            <note default-x="14">
                <pitch>
                    <step>C</step>
                    <octave>5</octave>
                </pitch>
                <duration>16</duration>
                <voice>1</voice>
                <type>half</type>
                <stem default-y="-50">down</stem>
                <lyric default-y="-75" number="1">
                    <syllabic>single</syllabic>
                    <text>knew,</text>
                </lyric>
                <lyric default-y="-97" number="2">
                    <syllabic>single</syllabic>
                    <text>got?</text>
                </lyric>
            </note>
            <note default-x="39">
                <rest/>
                <duration>4</duration>
                <voice>1</voice>
                <type>eighth</type>
            </note>
            <note default-x="68">
                <pitch>
                    <step>B</step>
                    <alter>-1</alter>
                    <octave>4</octave>
                </pitch>
                <duration>4</duration>
                <voice>1</voice>
                <type>eighth</type>
                <stem default-y="-55">down</stem>
                <beam number="1">begin</beam>
                <lyric default-y="-75" number="1">
                    <syllabic>single</syllabic>
                    <text>when</text>
                </lyric>
                <lyric default-y="-97" number="2">
                    <syllabic>single</syllabic>
                    <text>If</text>
                </lyric>
            </note>
            <note default-x="105">
                <pitch>
                    <step>C</step>
                    <octave>5</octave>
                </pitch>
                <duration>4</duration>
                <voice>1</voice>
                <type>eighth</type>
                <stem default-y="-52">down</stem>
                <beam number="1">continue</beam>
                <lyric default-y="-75" number="1">
                    <syllabic>single</syllabic>
                    <text>I</text>
                </lyric>
                <lyric default-y="-97" number="2">
                    <syllabic>single</syllabic>
                    <text>not</text>
                </lyric>
            </note>
            <note default-x="141">
                <pitch>
                    <step>D</step>
                    <octave>5</octave>
                </pitch>
                <duration>4</duration>
                <voice>1</voice>
                <type>eighth</type>
                <stem default-y="-50">down</stem>
                <beam number="1">end</beam>
                <lyric default-y="-75" number="1">
                    <syllabic>single</syllabic>
                    <text>bit</text>
                </lyric>
                <lyric default-y="-97" number="2">
                    <syllabic>begin</syllabic>
                    <text>him</text>
                </lyric>
            </note>
        </measure>
        <measure width="215" number="20">
            <print new-system="yes">
                <system-layout>
                    <system-distance>114</system-distance>
                </system-layout>
            </print>
            <harmony default-y="26">
                <root>
                    <root-step>B</root-step>
                    <root-alter>-1</root-alter>
                </root>
                <kind halign="center" text="">major</kind>
            </harmony>
            <note default-x="40">
                <pitch>
                    <step>D</step>
                    <octave>5</octave>
                </pitch>
                <duration>16</duration>
                <voice>1</voice>
                <type>half</type>
                <stem default-y="-45">down</stem>
                <lyric default-y="-75" number="1">
                    <syllabic>single</syllabic>
                    <text>off</text>
                </lyric>
                <lyric default-y="-97" number="2">
                    <syllabic>end</syllabic>
                    <text>self</text>
                    <extend/>
                </lyric>
            </note>
            <note default-x="77">
                <pitch>
                    <step>C</step>
                    <octave>5</octave>
                </pitch>
                <duration>4</duration>
                <voice>1</voice>
                <type>eighth</type>
                <stem default-y="-50">down</stem>
                <beam number="1">begin</beam>
                <lyric default-y="-75" number="1">
                    <syllabic>single</syllabic>
                    <text>more</text>
                </lyric>
            </note>
            <note default-x="117">
                <pitch>
                    <step>C</step>
                    <octave>5</octave>
                </pitch>
                <duration>4</duration>
                <voice>1</voice>
                <type>eighth</type>
                <stem default-y="-50">down</stem>
                <beam number="1">continue</beam>
                <lyric default-y="-75" number="1">
                    <syllabic>single</syllabic>
                    <text>than</text>
                </lyric>
                <lyric default-y="-97" number="2">
                    <syllabic>single</syllabic>
                    <text>then</text>
                </lyric>
            </note>
            <note default-x="148">
                <pitch>
                    <step>D</step>
                    <octave>5</octave>
                </pitch>
                <duration>4</duration>
                <voice>1</voice>
                <type>eighth</type>
                <stem default-y="-50">down</stem>
                <beam number="1">continue</beam>
                <lyric default-y="-75" number="1">
                    <syllabic>single</syllabic>
                    <text>I</text>
                </lyric>
                <lyric default-y="-97" number="2">
                    <syllabic>single</syllabic>
                    <text>he</text>
                </lyric>
            </note>
            <note default-x="181">
                <pitch>
                    <step>C</step>
                    <octave>5</octave>
                </pitch>
                <duration>4</duration>
                <voice>1</voice>
                <type>eighth</type>
                <stem default-y="-50">down</stem>
                <beam number="1">end</beam>
                <lyric default-y="-75" number="1">
                    <syllabic>single</syllabic>
                    <text>could</text>
                </lyric>
                <lyric default-y="-97" number="2">
                    <syllabic>single</syllabic>
                    <text>has</text>
                </lyric>
            </note>
        </measure>
        <measure width="162" number="21">
            <note default-x="14">
                <pitch>
                    <step>D</step>
                    <octave>5</octave>
                </pitch>
                <duration>16</duration>
                <voice>1</voice>
                <type>half</type>
                <stem default-y="-45">down</stem>
                <lyric default-y="-75" number="1">
                    <syllabic>single</syllabic>
                    <text>chew.</text>
                </lyric>
                <lyric default-y="-97" number="2">
                    <syllabic>single</syllabic>
                    <text>not.</text>
                </lyric>
            </note>
            <note default-x="39">
                <rest/>
                <duration>4</duration>
                <voice>1</voice>
                <type>eighth</type>
            </note>
            <note default-x="61">
                <pitch>
                    <step>D</step>
                    <octave>5</octave>
                </pitch>
                <duration>4</duration>
                <voice>1</voice>
                <type>eighth</type>
                <stem default-y="-45">down</stem>
                <beam number="1">begin</beam>
                <lyric default-y="-75" number="1">
                    <syllabic>single</syllabic>
                    <text>But</text>
                </lyric>
                <lyric default-y="-97" number="2">
                    <syllabic>single</syllabic>
                    <text>To</text>
                </lyric>
            </note>
            <note default-x="99">
                <pitch>
                    <step>E</step>
                    <octave>5</octave>
                </pitch>
                <duration>4</duration>
                <voice>1</voice>
                <type>eighth</type>
                <stem default-y="-42">down</stem>
                <beam number="1">continue</beam>
                <lyric default-y="-75" number="1">
                    <syllabic>single</syllabic>
                    <text>thru</text>
                </lyric>
                <lyric default-y="-97" number="2">
                    <syllabic>single</syllabic>
                    <text>say</text>
                </lyric>
            </note>
            <note default-x="134">
                <pitch>
                    <step>F</step>
                    <octave>5</octave>
                </pitch>
                <duration>4</duration>
                <voice>1</voice>
                <type>eighth</type>
                <stem default-y="-40">down</stem>
                <beam number="1">end</beam>
                <lyric default-y="-75" number="1">
                    <syllabic>single</syllabic>
                    <text>it</text>
                </lyric>
                <lyric default-y="-97" number="2">
                    <syllabic>single</syllabic>
                    <text>the</text>
                </lyric>
            </note>
        </measure>
        <measure width="184" number="22">
            <harmony default-y="26">
                <root>
                    <root-step>G</root-step>
                </root>
                <kind halign="center" text="m7">minor-seventh</kind>
            </harmony>
            <note default-x="14">
                <pitch>
                    <step>F</step>
                    <octave>5</octave>
                </pitch>
                <duration>16</duration>
                <voice>1</voice>
                <type>half</type>
                <stem default-y="-35">down</stem>
                <lyric default-y="-75" number="1">
                    <syllabic>single</syllabic>
                    <text>all</text>
                </lyric>
                <lyric relative-x="4" default-y="-97" number="2">
                    <syllabic>single</syllabic>
                    <text>things</text>
                </lyric>
            </note>
            <note default-x="40">
                <rest/>
                <duration>4</duration>
                <voice>1</voice>
                <type>eighth</type>
            </note>
            <note default-x="66">
                <pitch>
                    <step>D</step>
                    <octave>5</octave>
                </pitch>
                <duration>4</duration>
                <voice>1</voice>
                <type>eighth</type>
                <stem default-y="-45">down</stem>
                <beam number="1">begin</beam>
                <lyric default-y="-75" number="1">
                    <syllabic>single</syllabic>
                    <text>when</text>
                </lyric>
                <lyric default-y="-97" number="2">
                    <syllabic>single</syllabic>
                    <text>he</text>
                </lyric>
            </note>
            <note default-x="113">
                <pitch>
                    <step>F</step>
                    <octave>5</octave>
                </pitch>
                <duration>4</duration>
                <voice>1</voice>
                <type>eighth</type>
                <stem default-y="-45">down</stem>
                <beam number="1">continue</beam>
                <lyric default-y="-75" number="1">
                    <syllabic>single</syllabic>
                    <text>there</text>
                </lyric>
                <lyric default-y="-97" number="2">
                    <syllabic>begin</syllabic>
                    <text>tru</text>
                </lyric>
            </note>
            <note default-x="155">
                <pitch>
                    <step>D</step>
                    <octave>5</octave>
                </pitch>
                <duration>4</duration>
                <voice>1</voice>
                <type>eighth</type>
                <stem default-y="-45">down</stem>
                <beam number="1">end</beam>
                <lyric default-y="-75" number="1">
                    <syllabic>single</syllabic>
                    <text>was</text>
                </lyric>
                <lyric default-y="-97" number="2">
                    <syllabic>end</syllabic>
                    <text>ly</text>
                </lyric>
            </note>
        </measure>
        <measure width="158" number="23">
            <harmony default-y="26">
                <root>
                    <root-step>C</root-step>
                </root>
                <kind halign="center" text="7">dominant</kind>
            </harmony>
            <note default-x="14">
                <pitch>
                    <step>E</step>
                    <octave>5</octave>
                </pitch>
                <duration>16</duration>
                <voice>1</voice>
                <type>half</type>
                <stem default-y="-40">down</stem>
                <lyric default-y="-75" number="1">
                    <syllabic>single</syllabic>
                    <text>doubt</text>
                </lyric>
                <lyric default-y="-97" number="2">
                    <syllabic>single</syllabic>
                    <text>feels</text>
                </lyric>
            </note>
            <note default-x="35">
                <rest/>
                <duration>4</duration>
                <voice>1</voice>
                <type>eighth</type>
            </note>
            <note default-x="58">
                <pitch>
                    <step>E</step>
                    <octave>5</octave>
                </pitch>
                <duration>4</duration>
                <voice>1</voice>
                <type>eighth</type>
                <stem default-y="-40">down</stem>
                <beam number="1">begin</beam>
                <lyric default-y="-75" number="1">
                    <syllabic>single</syllabic>
                    <text>I</text>
                </lyric>
                <lyric default-y="-97" number="2">
                    <syllabic>single</syllabic>
                    <text>and</text>
                </lyric>
            </note>
            <note default-x="95">
                <pitch>
                    <step>F</step>
                    <octave>5</octave>
                </pitch>
                <duration>4</duration>
                <voice>1</voice>
                <type>eighth</type>
                <stem default-y="-37">down</stem>
                <beam number="1">continue</beam>
                <lyric default-y="-75" number="1">
                    <syllabic>single</syllabic>
                    <text>ate</text>
                </lyric>
                <lyric default-y="-97" number="2">
                    <syllabic>single</syllabic>
                    <text>not</text>
                </lyric>
            </note>
            <note default-x="129">
                <pitch>
                    <step>G</step>
                    <octave>5</octave>
                </pitch>
                <duration>4</duration>
                <voice>1</voice>
                <type>eighth</type>
                <stem default-y="-35">down</stem>
                <beam number="1">end</beam>
                <lyric default-y="-75" number="1">
                    <syllabic>single</syllabic>
                    <text>it</text>
                </lyric>
                <lyric default-y="-97" number="2">
                    <syllabic>single</syllabic>
                    <text>the</text>
                </lyric>
            </note>
        </measure>
        <measure width="167" number="24">
            <harmony default-y="26">
                <root>
                    <root-step>A</root-step>
                </root>
                <kind halign="center" text="m7">minor-seventh</kind>
            </harmony>
            <note default-x="14">
                <pitch>
                    <step>G</step>
                    <octave>5</octave>
                </pitch>
                <duration>16</duration>
                <voice>1</voice>
                <type>half</type>
                <stem default-y="-30">down</stem>
                <lyric default-y="-75" number="1">
                    <syllabic>single</syllabic>
                    <text>up</text>
                </lyric>
                <lyric relative-x="4" default-y="-97" number="2">
                    <syllabic>single</syllabic>
                    <text>words</text>
                </lyric>
            </note>
            <note default-x="39">
                <rest/>
                <duration>4</duration>
                <voice>1</voice>
                <type>eighth</type>
            </note>
            <note default-x="60">
                <pitch>
                    <step>A</step>
                    <octave>5</octave>
                </pitch>
                <duration>4</duration>
                <voice>1</voice>
                <type>eighth</type>
                <stem default-y="-40">down</stem>
                <beam number="1">begin</beam>
                <lyric default-y="-75" number="1">
                    <syllabic>single</syllabic>
                    <text>and</text>
                </lyric>
                <lyric default-y="-97" number="2">
                    <syllabic>single</syllabic>
                    <text>of</text>
                </lyric>
            </note>
            <note default-x="96">
                <pitch>
                    <step>E</step>
                    <octave>5</octave>
                </pitch>
                <duration>4</duration>
                <voice>1</voice>
                <type>eighth</type>
                <stem default-y="-40">down</stem>
                <beam number="1">continue</beam>
                <lyric default-y="-75" number="1">
                    <syllabic>single</syllabic>
                    <text>spit</text>
                </lyric>
                <lyric default-y="-97" number="2">
                    <syllabic>single</syllabic>
                    <text>one</text>
                </lyric>
            </note>
            <note default-x="135">
                <pitch>
                    <step>G</step>
                    <octave>5</octave>
                </pitch>
                <duration>4</duration>
                <voice>1</voice>
                <type>eighth</type>
                <stem default-y="-40">down</stem>
                <beam number="1">end</beam>
                <lyric default-y="-75" number="1">
                    <syllabic>single</syllabic>
                    <text>it</text>
                </lyric>
                <lyric default-y="-97" number="2">
                    <syllabic>single</syllabic>
                    <text>who</text>
                </lyric>
            </note>
        </measure>
        <measure width="174" number="25">
            <harmony default-y="26">
                <root>
                    <root-step>D</root-step>
                </root>
                <kind halign="center" text="m">minor</kind>
            </harmony>
            <note default-x="14">
                <pitch>
                    <step>F</step>
                    <octave>5</octave>
                </pitch>
                <duration>16</duration>
                <voice>1</voice>
                <type>half</type>
                <stem default-y="-35">down</stem>
                <lyric default-y="-75" number="1">
                    <syllabic>single</syllabic>
                    <text>out.</text>
                </lyric>
                <lyric relative-x="5" default-y="-97" number="2">
                    <syllabic>single</syllabic>
                    <text>kneels.</text>
                </lyric>
            </note>
            <note default-x="45">
                <rest/>
                <duration>4</duration>
                <voice>1</voice>
                <type>eighth</type>
            </note>
            <note default-x="67">
                <pitch>
                    <step>D</step>
                    <octave>5</octave>
                </pitch>
                <duration>4</duration>
                <voice>1</voice>
                <type>eighth</type>
                <stem default-y="-45">down</stem>
                <beam number="1">begin</beam>
                <lyric default-y="-75" number="1">
                    <syllabic>single</syllabic>
                    <text>I</text>
                </lyric>
                <lyric default-y="-97" number="2">
                    <syllabic>single</syllabic>
                    <text>The</text>
                </lyric>
            </note>
            <note default-x="108">
                <pitch>
                    <step>E</step>
                    <octave>5</octave>
                </pitch>
                <duration>4</duration>
                <voice>1</voice>
                <type>eighth</type>
                <stem default-y="-42">down</stem>
                <beam number="1">continue</beam>
                <lyric default-y="-75" number="1">
                    <syllabic>single</syllabic>
                    <text>faced</text>
                </lyric>
                <lyric default-y="-97" number="2">
                    <syllabic>begin</syllabic>
                    <text>rec</text>
                </lyric>
            </note>
            <note default-x="146">
                <pitch>
                    <step>F</step>
                    <octave>5</octave>
                </pitch>
                <duration>4</duration>
                <voice>1</voice>
                <type>eighth</type>
                <stem default-y="-40">down</stem>
                <beam number="1">end</beam>
                <lyric default-y="-75" number="1">
                    <syllabic>single</syllabic>
                    <text>it</text>
                </lyric>
                <lyric default-y="-97" number="2">
                    <syllabic>end</syllabic>
                    <text>ord</text>
                </lyric>
            </note>
        </measure>
        <measure width="321" number="26">
            <print new-system="yes">
                <system-layout>
                    <system-distance>114</system-distance>
                </system-layout>
            </print>
            <harmony default-y="26">
                <root>
                    <root-step>G</root-step>
                </root>
                <kind halign="center" text="m7">minor-seventh</kind>
            </harmony>
            <note default-x="40">
                <pitch>
                    <step>F</step>
                    <octave>5</octave>
                </pitch>
                <duration>16</duration>
                <voice>1</voice>
                <type>half</type>
                <stem default-y="-35.5">down</stem>
                <lyric default-y="-75" number="1">
                    <syllabic>single</syllabic>
                    <text>all</text>
                </lyric>
                <lyric relative-x="4" default-y="-97" number="2">
                    <syllabic>single</syllabic>
                    <text>shows</text>
                </lyric>
            </note>
            <note default-x="143">
                <rest/>
                <duration>4</duration>
                <voice>1</voice>
                <type>eighth</type>
            </note>
            <note default-x="182">
                <pitch>
                    <step>D</step>
                    <octave>5</octave>
                </pitch>
                <duration>4</duration>
                <voice>1</voice>
                <type>eighth</type>
                <stem default-y="-45">down</stem>
                <beam number="1">begin</beam>
                <lyric default-y="-75" number="1">
                    <syllabic>single</syllabic>
                    <text>and</text>
                </lyric>
                <lyric default-y="-97" number="2">
                    <syllabic>single</syllabic>
                    <text>I</text>
                </lyric>
            </note>
            <note default-x="227">
                <pitch>
                    <step>F</step>
                    <octave>5</octave>
                </pitch>
                <duration>4</duration>
                <voice>1</voice>
                <type>eighth</type>
                <stem default-y="-45">down</stem>
                <beam number="1">continue</beam>
                <lyric default-y="-75" number="1">
                    <syllabic>single</syllabic>
                    <text>I</text>
                </lyric>
                <lyric default-y="-97" number="2">
                    <syllabic>single</syllabic>
                    <text>took</text>
                </lyric>
            </note>
            <note default-x="275">
                <pitch>
                    <step>D</step>
                    <octave>5</octave>
                </pitch>
                <duration>4</duration>
                <voice>1</voice>
                <type>eighth</type>
                <stem default-y="-45">down</stem>
                <beam number="1">end</beam>
                <lyric default-y="-75" number="1">
                    <syllabic>single</syllabic>
                    <text>stood</text>
                </lyric>
                <lyric default-y="-97" number="2">
                    <syllabic>single</syllabic>
                    <text>the</text>
                </lyric>
            </note>
        </measure>
        <measure width="244" number="27">
            <harmony default-y="26">
                <root>
                    <root-step>C</root-step>
                </root>
                <kind halign="center" text="7">dominant</kind>
            </harmony>
            <note default-x="14">
                <pitch>
                    <step>E</step>
                    <octave>5</octave>
                </pitch>
                <duration>16</duration>
                <voice>1</voice>
                <type>half</type>
                <stem default-y="-40.5">down</stem>
                <lyric default-y="-75" number="1">
                    <syllabic>single</syllabic>
                    <text>tall</text>
                </lyric>
                <lyric relative-x="4" default-y="-97" number="2">
                    <syllabic>single</syllabic>
                    <text>blows</text>
                </lyric>
            </note>
            <note default-x="102">
                <rest/>
                <duration>4</duration>
                <voice>1</voice>
                <type>eighth</type>
            </note>
            <note default-x="137">
                <pitch>
                    <step>E</step>
                    <octave>5</octave>
                </pitch>
                <duration>4</duration>
                <voice>1</voice>
                <type>eighth</type>
                <stem default-y="-40">down</stem>
                <beam number="1">begin</beam>
                <lyric default-y="-75" number="1">
                    <syllabic>single</syllabic>
                    <text>and</text>
                </lyric>
                <lyric default-y="-97" number="2">
                    <syllabic>single</syllabic>
                    <text>and</text>
                </lyric>
            </note>
            <note default-x="174">
                <pitch>
                    <step>F</step>
                    <octave>5</octave>
                </pitch>
                <duration>4</duration>
                <voice>1</voice>
                <type>eighth</type>
                <stem default-y="-37.5">down</stem>
                <beam number="1">continue</beam>
                <lyric default-y="-75" number="1">
                    <syllabic>single</syllabic>
                    <text>did</text>
                </lyric>
                <lyric default-y="-97" number="2">
                    <syllabic>single</syllabic>
                    <text>did</text>
                </lyric>
            </note>
            <note default-x="209">
                <pitch>
                    <step>G</step>
                    <octave>5</octave>
                </pitch>
                <duration>4</duration>
                <voice>1</voice>
                <type>eighth</type>
                <stem default-y="-35">down</stem>
                <beam number="1">end</beam>
                <lyric default-y="-75" number="1">
                    <syllabic>single</syllabic>
                    <text>it</text>
                </lyric>
                <lyric default-y="-97" number="2">
                    <syllabic>single</syllabic>
                    <text>it</text>
                    <extend/>
                </lyric>
            </note>
        </measure>
        <measure width="142" number="28">
            <harmony default-y="26">
                <root>
                    <root-step>B</root-step>
                    <root-alter>-1</root-alter>
                </root>
                <kind halign="center" text="m">minor</kind>
            </harmony>
            <note default-x="14">
                <pitch>
                    <step>G</step>
                    <octave>5</octave>
                </pitch>
                <duration>32</duration>
                <voice>1</voice>
                <type>whole</type>
                <lyric default-y="-75" number="1">
                    <syllabic>single</syllabic>
                    <text>my</text>
                </lyric>
            </note>
        </measure>
        <measure width="186" number="29">
            <barline location="left">
                <ending font-size="8.5" default-y="40" type="start" number="1" end-length="30">1</ending>
            </barline>
            <harmony default-y="26">
                <root>
                    <root-step>F</root-step>
                </root>
                <kind halign="center" text="">major</kind>
            </harmony>
            <note default-x="14">
                <pitch>
                    <step>F</step>
                    <octave>5</octave>
                </pitch>
                <duration>24</duration>
                <voice>1</voice>
                <type>half</type>
                <dot/>
                <stem default-y="-35.5">down</stem>
                <lyric default-y="-75" number="1">
                    <syllabic>single</syllabic>
                    <text>way.</text>
                </lyric>
            </note>
            <note default-x="118">
                <pitch>
                    <step>C</step>
                    <octave>4</octave>
                </pitch>
                <duration>8</duration>
                <voice>1</voice>
                <type>quarter</type>
                <stem default-y="-14.5">up</stem>
                <lyric default-y="-75" number="1">
                    <syllabic>single</syllabic>
                    <text>I've</text>
                    <extend/>
                </lyric>
            </note>
            <barline location="right">
                <bar-style>light-heavy</bar-style>
                <ending type="stop" number="1"></ending>
                <repeat direction="backward"/>
            </barline>
        </measure>
        <measure width="167" number="30">
            <barline location="left">
                <ending font-size="8.5" default-y="40" type="start" number="2" end-length="30">2</ending>
            </barline>
            <harmony default-y="26">
                <root>
                    <root-step>F</root-step>
                </root>
                <kind halign="center" text="">major</kind>
            </harmony>
            <note default-x="13">
                <pitch>
                    <step>F</step>
                    <octave>5</octave>
                </pitch>
                <duration>24</duration>
                <voice>1</voice>
                <type>half</type>
                <dot/>
                <stem default-y="-35.5">down</stem>
                <lyric default-y="-97" number="2">
                    <syllabic>single</syllabic>
                    <text>way.</text>
                </lyric>
            </note>
            <note default-x="111">
                <rest/>
                <duration>8</duration>
                <voice>1</voice>
                <type>quarter</type>
            </note>
            <barline location="right">
                <bar-style>light-heavy</bar-style>
                <ending type="discontinue" number="2"></ending>
            </barline>
        </measure>
    </part>
</score-partwise>
