<?xml version="1.0" encoding="UTF-8"?>
<!DOCTYPE score-partwise PUBLIC "-//Recordare//DTD MusicXML 2.0 Partwise//EN" "http://www.musicxml.org/dtds/partwise.dtd">
<score-partwise version="2.0">
    <work>
        <work-number></work-number>
        <work-title></work-title>
    </work>
    <movement-number></movement-number>
    <movement-title>Deep Purple</movement-title>
    <identification>
        <creator type="composer">Peter De Rose</creator>
        <creator type="poet">Mitchel Paarish</creator>
        <rights>All Rights Reserved</rights>
        <encoding>
            <software>Finale 2011 for Macintosh</software>
            <software>Dolet Light for Finale 2011</software>
            <encoding-date>2011-10-07</encoding-date>
            <supports value="yes" type="yes" element="print" attribute="new-system"/>
            <supports value="yes" type="yes" element="print" attribute="new-page"/>
            <software>ProxyMusic 2.0 c</software>
        </encoding>
        <source>http://wikifonia.org/node/3372/revisions/17511/view</source>
    </identification>
    <defaults>
        <scaling>
            <millimeters>7.0273</millimeters>
            <tenths>40</tenths>
        </scaling>
        <page-layout>
            <page-height>1691</page-height>
            <page-width>1195</page-width>
            <page-margins type="both">
                <left-margin>72</left-margin>
                <right-margin>72</right-margin>
                <top-margin>72</top-margin>
                <bottom-margin>108</bottom-margin>
            </page-margins>
        </page-layout>
        <system-layout>
            <system-margins>
                <left-margin>0</left-margin>
                <right-margin>0</right-margin>
            </system-margins>
            <system-distance>103</system-distance>
            <top-system-distance>60</top-system-distance>
        </system-layout>
        <appearance>
            <line-width type="stem">0.7487</line-width>
            <line-width type="beam">5</line-width>
            <line-width type="staff">0.7487</line-width>
            <line-width type="light barline">0.7487</line-width>
            <line-width type="heavy barline">5</line-width>
            <line-width type="leger">0.7487</line-width>
            <line-width type="ending">1.4583</line-width>
            <line-width type="wedge">1.4583</line-width>
            <line-width type="enclosure">0.7487</line-width>
            <line-width type="tuplet bracket">0.7487</line-width>
            <note-size type="grace">60</note-size>
            <note-size type="cue">60</note-size>
        </appearance>
        <music-font font-size="19.9" font-family="Maestro"/>
        <word-font font-size="10" font-family="Times New Roman"/>
        <lyric-font font-size="10" font-family="Times New Roman"/>
    </defaults>
    <credit page="1">
        <credit-words font-size="24" default-y="1618" default-x="598" justify="center" valign="top">Deep Purple</credit-words>
    </credit>
    <part-list>
        <score-part id="P1">
            <part-name>Voice</part-name>
            <score-instrument id="P1-I2">
                <instrument-name>Voice</instrument-name>
            </score-instrument>
            <midi-instrument id="P1-I2">
                <midi-channel>1</midi-channel>
                <midi-program>53</midi-program>
            </midi-instrument>
        </score-part>
    </part-list>
    <part id="P1">
        <measure width="280" number="1">
            <print>
                <system-layout>
                    <system-margins>
                        <left-margin>70</left-margin>
                        <right-margin>0</right-margin>
                    </system-margins>
                    <top-system-distance>261</top-system-distance>
                </system-layout>
                <measure-numbering>system</measure-numbering>
            </print>
            <attributes>
                <divisions>8</divisions>
                <key>
                    <fifths>-1</fifths>
                    <mode>major</mode>
                </key>
                <time>
                    <beats>4</beats>
                    <beat-type>4</beat-type>
                </time>
                <clef>
                    <sign>G</sign>
                    <line>2</line>
                </clef>
            </attributes>
            <sound tempo="120"/>
            <note default-x="108">
                <rest/>
                <duration>16</duration>
                <voice>1</voice>
                <type>half</type>
            </note>
            <note default-x="183">
                <pitch>
                    <step>C</step>
                    <octave>4</octave>
                </pitch>
                <duration>8</duration>
                <voice>1</voice>
                <type>quarter</type>
                <stem default-y="-14.5">up</stem>
                <lyric default-y="-80" number="1">
                    <syllabic>single</syllabic>
                    <text>When</text>
                </lyric>
            </note>
            <note default-x="229">
                <pitch>
                    <step>D</step>
                    <octave>4</octave>
                </pitch>
                <duration>8</duration>
                <voice>1</voice>
                <type>quarter</type>
                <stem default-y="-9.5">up</stem>
                <lyric default-y="-80" number="1">
                    <syllabic>single</syllabic>
                    <text>the</text>
                </lyric>
            </note>
            <barline location="right">
                <bar-style>light-light</bar-style>
            </barline>
        </measure>
        <measure width="166" number="2">
            <harmony default-y="40">
                <root>
                    <root-step>F</root-step>
                </root>
                <kind halign="center" text="">major</kind>
            </harmony>
            <note default-x="13">
                <pitch>
                    <step>C</step>
                    <octave>5</octave>
                </pitch>
                <duration>16</duration>
                <voice>1</voice>
                <type>half</type>
                <stem default-y="-50">down</stem>
                <lyric default-y="-80" number="1">
                    <syllabic>single</syllabic>
                    <text>deep</text>
                </lyric>
            </note>
            <note default-x="81">
                <pitch>
                    <step>C</step>
                    <octave>4</octave>
                </pitch>
                <duration>8</duration>
                <voice>1</voice>
                <type>quarter</type>
                <stem default-y="-14.5">up</stem>
                <lyric default-y="-80" number="1">
                    <syllabic>begin</syllabic>
                    <text>pur</text>
                </lyric>
            </note>
            <note default-x="123">
                <pitch>
                    <step>D</step>
                    <octave>4</octave>
                </pitch>
                <duration>8</duration>
                <voice>1</voice>
                <type>quarter</type>
                <stem default-y="-9.5">up</stem>
                <lyric default-y="-80" number="1">
                    <syllabic>end</syllabic>
                    <text>ple</text>
                </lyric>
            </note>
        </measure>
        <measure width="179" number="3">
            <harmony default-y="40">
                <root>
                    <root-step>F</root-step>
                    <root-alter>1</root-alter>
                </root>
                <kind halign="center" text="dim">diminished</kind>
            </harmony>
            <note default-x="25">
                <pitch>
                    <step>E</step>
                    <alter>-1</alter>
                    <octave>4</octave>
                </pitch>
                <duration>16</duration>
                <voice>1</voice>
                <type>half</type>
                <accidental>flat</accidental>
                <stem default-y="-4.5">up</stem>
                <lyric default-y="-80" number="1">
                    <syllabic>single</syllabic>
                    <text>falls,</text>
                </lyric>
            </note>
            <note default-x="94">
                <pitch>
                    <step>C</step>
                    <octave>4</octave>
                </pitch>
                <duration>8</duration>
                <voice>1</voice>
                <type>quarter</type>
                <stem default-y="-14.5">up</stem>
                <lyric default-y="-80" number="1">
                    <syllabic>begin</syllabic>
                    <text>ov</text>
                </lyric>
            </note>
            <note default-x="136">
                <pitch>
                    <step>C</step>
                    <alter>1</alter>
                    <octave>4</octave>
                </pitch>
                <duration>8</duration>
                <voice>1</voice>
                <type>quarter</type>
                <accidental>sharp</accidental>
                <stem default-y="-14.5">up</stem>
                <lyric default-y="-80" number="1">
                    <syllabic>end</syllabic>
                    <text>er</text>
                </lyric>
            </note>
        </measure>
        <measure width="184" number="4">
            <harmony default-y="40">
                <root>
                    <root-step>G</root-step>
                </root>
                <kind halign="center" text="m">minor</kind>
            </harmony>
            <note default-x="13">
                <pitch>
                    <step>D</step>
                    <octave>4</octave>
                </pitch>
                <duration>8</duration>
                <voice>1</voice>
                <type>quarter</type>
                <stem default-y="-9.5">up</stem>
                <lyric default-y="-80" number="1">
                    <syllabic>begin</syllabic>
                    <text>sleep</text>
                </lyric>
            </note>
            <note default-x="56">
                <pitch>
                    <step>G</step>
                    <octave>4</octave>
                </pitch>
                <duration>8</duration>
                <voice>1</voice>
                <type>quarter</type>
                <stem default-y="5.5">up</stem>
                <lyric default-y="-80" number="1">
                    <syllabic>end</syllabic>
                    <text>y</text>
                </lyric>
            </note>
            <note default-x="99">
                <pitch>
                    <step>B</step>
                    <alter>-1</alter>
                    <octave>4</octave>
                </pitch>
                <duration>8</duration>
                <voice>1</voice>
                <type>quarter</type>
                <stem default-y="-55">down</stem>
                <lyric default-y="-80" number="1">
                    <syllabic>begin</syllabic>
                    <text>gar</text>
                </lyric>
            </note>
            <note default-x="141">
                <pitch>
                    <step>D</step>
                    <octave>5</octave>
                </pitch>
                <duration>8</duration>
                <voice>1</voice>
                <type>quarter</type>
                <stem default-y="-45">down</stem>
                <lyric default-y="-80" number="1">
                    <syllabic>end</syllabic>
                    <text>den</text>
                </lyric>
            </note>
        </measure>
        <measure width="171" number="5">
            <harmony default-y="40">
                <root>
                    <root-step>C</root-step>
                </root>
                <kind halign="center" text="7">dominant</kind>
            </harmony>
            <note default-x="14">
                <pitch>
                    <step>C</step>
                    <octave>5</octave>
                </pitch>
                <duration>16</duration>
                <voice>1</voice>
                <type>half</type>
                <stem default-y="-50">down</stem>
                <lyric default-y="-80" number="1">
                    <syllabic>single</syllabic>
                    <text>walls,</text>
                </lyric>
            </note>
            <note default-x="84">
                <pitch>
                    <step>G</step>
                    <alter>1</alter>
                    <octave>4</octave>
                </pitch>
                <duration>8</duration>
                <voice>1</voice>
                <type>quarter</type>
                <accidental>sharp</accidental>
                <stem default-y="5.5">up</stem>
                <lyric default-y="-80" number="1">
                    <syllabic>single</syllabic>
                    <text>And</text>
                </lyric>
            </note>
            <note default-x="127">
                <pitch>
                    <step>A</step>
                    <octave>4</octave>
                </pitch>
                <duration>8</duration>
                <voice>1</voice>
                <type>quarter</type>
                <stem default-y="10.5">up</stem>
                <lyric default-y="-80" number="1">
                    <syllabic>single</syllabic>
                    <text>the</text>
                </lyric>
            </note>
        </measure>
        <measure width="233" number="6">
            <print new-system="yes">
                <system-layout>
                    <system-margins>
                        <left-margin>47</left-margin>
                        <right-margin>0</right-margin>
                    </system-margins>
                    <system-distance>186</system-distance>
                </system-layout>
            </print>
            <harmony default-y="40">
                <root>
                    <root-step>F</root-step>
                </root>
                <kind halign="center" text="">major</kind>
            </harmony>
            <note default-x="77">
                <pitch>
                    <step>G</step>
                    <octave>5</octave>
                </pitch>
                <duration>8</duration>
                <voice>1</voice>
                <type>quarter</type>
                <stem default-y="-30">down</stem>
                <lyric default-y="-80" number="1">
                    <syllabic>single</syllabic>
                    <text>stars</text>
                </lyric>
            </note>
            <note default-x="116">
                <pitch>
                    <step>F</step>
                    <octave>5</octave>
                </pitch>
                <duration>8</duration>
                <voice>1</voice>
                <type>quarter</type>
                <stem default-y="-35">down</stem>
                <lyric default-y="-80" number="1">
                    <syllabic>begin</syllabic>
                    <text>be</text>
                </lyric>
            </note>
            <note default-x="155">
                <pitch>
                    <step>C</step>
                    <octave>5</octave>
                </pitch>
                <duration>8</duration>
                <voice>1</voice>
                <type>quarter</type>
                <stem default-y="-50">down</stem>
                <lyric default-y="-80" number="1">
                    <syllabic>end</syllabic>
                    <text>gin</text>
                </lyric>
            </note>
            <note default-x="194">
                <pitch>
                    <step>A</step>
                    <octave>4</octave>
                </pitch>
                <duration>8</duration>
                <voice>1</voice>
                <type>quarter</type>
                <stem default-y="10.5">up</stem>
                <lyric default-y="-80" number="1">
                    <syllabic>single</syllabic>
                    <text>to</text>
                </lyric>
            </note>
        </measure>
        <measure width="170" number="7">
            <harmony default-y="40">
                <root>
                    <root-step>A</root-step>
                </root>
                <kind halign="center">minor-seventh</kind>
                <degree>
                    <degree-value>5</degree-value>
                    <degree-alter>-1</degree-alter>
                    <degree-type>alter</degree-type>
                </degree>
            </harmony>
            <note default-x="14">
                <pitch>
                    <step>G</step>
                    <octave>4</octave>
                </pitch>
                <duration>8</duration>
                <voice>1</voice>
                <type>quarter</type>
                <stem default-y="5.5">up</stem>
                <lyric default-y="-80" number="1">
                    <syllabic>begin</syllabic>
                    <text>flick</text>
                </lyric>
            </note>
            <note default-x="53">
                <pitch>
                    <step>G</step>
                    <alter>1</alter>
                    <octave>4</octave>
                </pitch>
                <duration>8</duration>
                <voice>1</voice>
                <type>quarter</type>
                <accidental>sharp</accidental>
                <stem default-y="5.5">up</stem>
                <lyric default-y="-80" number="1">
                    <syllabic>end</syllabic>
                    <text>er</text>
                </lyric>
            </note>
            <note default-x="91">
                <pitch>
                    <step>A</step>
                    <octave>4</octave>
                </pitch>
                <duration>8</duration>
                <voice>1</voice>
                <type>quarter</type>
                <stem default-y="10.5">up</stem>
                <lyric default-y="-80" number="1">
                    <syllabic>single</syllabic>
                    <text>in</text>
                </lyric>
            </note>
            <note default-x="131">
                <pitch>
                    <step>D</step>
                    <octave>5</octave>
                </pitch>
                <duration>8</duration>
                <voice>1</voice>
                <type>quarter</type>
                <stem default-y="-45">down</stem>
                <lyric default-y="-80" number="1">
                    <syllabic>single</syllabic>
                    <text>the</text>
                </lyric>
            </note>
        </measure>
        <measure width="115" number="8">
            <harmony default-y="40">
                <root>
                    <root-step>D</root-step>
                </root>
                <kind halign="center" text="7">dominant</kind>
            </harmony>
            <note default-x="13">
                <pitch>
                    <step>D</step>
                    <octave>4</octave>
                </pitch>
                <duration>32</duration>
                <tie type="start"/>
                <voice>1</voice>
                <type>whole</type>
                <notations>
                    <tied type="start"/>
                </notations>
                <lyric default-y="-80" number="1">
                    <syllabic>single</syllabic>
                    <text>sky</text>
                </lyric>
            </note>
            <harmony default-y="40">
                <root>
                    <root-step>E</root-step>
                </root>
                <kind halign="center" text="m7">minor-seventh</kind>
                <offset>-8</offset>
            </harmony>
        </measure>
        <measure width="180" number="9">
            <harmony default-y="40">
                <root>
                    <root-step>F</root-step>
                </root>
                <kind halign="center" use-symbols="yes">diminished</kind>
            </harmony>
            <note default-x="17">
                <pitch>
                    <step>D</step>
                    <octave>4</octave>
                </pitch>
                <duration>16</duration>
                <tie type="stop"/>
                <voice>1</voice>
                <type>half</type>
                <stem default-y="-9.5">up</stem>
                <notations>
                    <tied type="stop"/>
                </notations>
            </note>
            <harmony default-y="40">
                <root>
                    <root-step>D</root-step>
                </root>
                <kind halign="center" text="7">dominant</kind>
                <bass>
                    <bass-step>F</bass-step>
                    <bass-alter>1</bass-alter>
                </bass>
            </harmony>
            <note default-x="82">
                <pitch>
                    <step>C</step>
                    <alter>1</alter>
                    <octave>4</octave>
                </pitch>
                <duration>8</duration>
                <voice>1</voice>
                <type>quarter</type>
                <accidental>sharp</accidental>
                <stem default-y="-14.5">up</stem>
                <lyric default-y="-80" number="1">
                    <syllabic>single</syllabic>
                    <text>Through</text>
                </lyric>
            </note>
            <note default-x="138">
                <pitch>
                    <step>D</step>
                    <octave>4</octave>
                </pitch>
                <duration>8</duration>
                <voice>1</voice>
                <type>quarter</type>
                <stem default-y="-9.5">up</stem>
                <lyric default-y="-80" number="1">
                    <syllabic>single</syllabic>
                    <text>the</text>
                </lyric>
            </note>
        </measure>
        <measure width="153" number="10">
            <harmony default-y="40">
                <root>
                    <root-step>G</root-step>
                </root>
                <kind halign="center" text="m">minor</kind>
            </harmony>
            <note default-x="14">
                <pitch>
                    <step>C</step>
                    <octave>5</octave>
                </pitch>
                <duration>16</duration>
                <voice>1</voice>
                <type>half</type>
                <stem default-y="-50">down</stem>
                <lyric default-y="-80" number="1">
                    <syllabic>single</syllabic>
                    <text>mist</text>
                </lyric>
            </note>
            <note default-x="76">
                <pitch>
                    <step>B</step>
                    <octave>4</octave>
                </pitch>
                <duration>8</duration>
                <voice>1</voice>
                <type>quarter</type>
                <accidental>natural</accidental>
                <stem default-y="-55">down</stem>
                <lyric default-y="-80" number="1">
                    <syllabic>single</syllabic>
                    <text>of</text>
                </lyric>
            </note>
            <note default-x="114">
                <pitch>
                    <step>B</step>
                    <alter>-1</alter>
                    <octave>4</octave>
                </pitch>
                <duration>8</duration>
                <voice>1</voice>
                <type>quarter</type>
                <accidental>flat</accidental>
                <stem default-y="-55">down</stem>
                <lyric default-y="-80" number="1">
                    <syllabic>single</syllabic>
                    <text>a</text>
                </lyric>
            </note>
        </measure>
        <measure width="153" number="11">
            <harmony default-y="40">
                <root>
                    <root-step>B</root-step>
                    <root-alter>-1</root-alter>
                </root>
                <kind halign="center" text="">major</kind>
            </harmony>
            <note default-x="14">
                <pitch>
                    <step>A</step>
                    <octave>4</octave>
                </pitch>
                <duration>8</duration>
                <voice>1</voice>
                <type>quarter</type>
                <stem default-y="10.5">up</stem>
                <lyric default-y="-80" number="1">
                    <syllabic>begin</syllabic>
                    <text>mem</text>
                </lyric>
            </note>
            <note default-x="52">
                <pitch>
                    <step>G</step>
                    <alter>1</alter>
                    <octave>4</octave>
                </pitch>
                <duration>8</duration>
                <voice>1</voice>
                <type>quarter</type>
                <accidental>sharp</accidental>
                <stem default-y="5.5">up</stem>
                <lyric default-y="-80" number="1">
                    <syllabic>middle</syllabic>
                    <text>o</text>
                </lyric>
            </note>
            <note default-x="90">
                <pitch>
                    <step>G</step>
                    <octave>4</octave>
                </pitch>
                <duration>16</duration>
                <voice>1</voice>
                <type>half</type>
                <accidental>natural</accidental>
                <stem default-y="5.5">up</stem>
                <lyric default-y="-80" number="1">
                    <syllabic>end</syllabic>
                    <text>ry</text>
                </lyric>
            </note>
        </measure>
        <measure width="230" number="12">
            <print new-system="yes">
                <system-layout>
                    <system-margins>
                        <left-margin>47</left-margin>
                        <right-margin>0</right-margin>
                    </system-margins>
                    <system-distance>186</system-distance>
                </system-layout>
            </print>
            <harmony default-y="40">
                <root>
                    <root-step>A</root-step>
                </root>
                <kind halign="center" text="m7">minor-seventh</kind>
            </harmony>
            <note default-x="76">
                <pitch>
                    <step>G</step>
                    <octave>4</octave>
                </pitch>
                <duration>16</duration>
                <voice>1</voice>
                <type>half</type>
                <stem default-y="5.5">up</stem>
                <lyric default-y="-80" number="1">
                    <syllabic>single</syllabic>
                    <text>you</text>
                </lyric>
            </note>
            <harmony default-y="40">
                <root>
                    <root-step>A</root-step>
                </root>
                <kind halign="center" text="dim">diminished</kind>
            </harmony>
            <note default-x="145">
                <pitch>
                    <step>F</step>
                    <alter>1</alter>
                    <octave>4</octave>
                </pitch>
                <duration>8</duration>
                <voice>1</voice>
                <type>quarter</type>
                <accidental>sharp</accidental>
                <stem default-y="0.5">up</stem>
                <lyric default-y="-80" number="1">
                    <syllabic>begin</syllabic>
                    <text>wan</text>
                </lyric>
            </note>
            <note default-x="187">
                <pitch>
                    <step>F</step>
                    <octave>4</octave>
                </pitch>
                <duration>8</duration>
                <voice>1</voice>
                <type>quarter</type>
                <accidental>natural</accidental>
                <stem default-y="0.5">up</stem>
                <lyric default-y="-80" number="1">
                    <syllabic>end</syllabic>
                    <text>der</text>
                </lyric>
            </note>
        </measure>
        <measure width="164" number="13">
            <harmony default-y="40">
                <root>
                    <root-step>G</root-step>
                    <root-alter>1</root-alter>
                </root>
                <kind halign="center" text="dim">diminished</kind>
            </harmony>
            <note default-x="13">
                <pitch>
                    <step>E</step>
                    <octave>4</octave>
                </pitch>
                <duration>8</duration>
                <voice>1</voice>
                <type>quarter</type>
                <stem default-y="-4.5">up</stem>
                <lyric default-y="-80" number="1">
                    <syllabic>single</syllabic>
                    <text>back</text>
                </lyric>
            </note>
            <note default-x="55">
                <pitch>
                    <step>D</step>
                    <alter>1</alter>
                    <octave>4</octave>
                </pitch>
                <duration>8</duration>
                <voice>1</voice>
                <type>quarter</type>
                <accidental>sharp</accidental>
                <stem default-y="-9.5">up</stem>
                <lyric default-y="-80" number="1">
                    <syllabic>single</syllabic>
                    <text>to</text>
                </lyric>
            </note>
            <note default-x="96">
                <pitch>
                    <step>D</step>
                    <octave>4</octave>
                </pitch>
                <duration>16</duration>
                <voice>1</voice>
                <type>half</type>
                <accidental>natural</accidental>
                <stem default-y="-9.5">up</stem>
                <lyric default-y="-80" number="1">
                    <syllabic>single</syllabic>
                    <text>me</text>
                </lyric>
            </note>
        </measure>
        <measure width="162" number="14">
            <harmony default-y="40">
                <root>
                    <root-step>G</root-step>
                </root>
                <kind halign="center" text="m">minor</kind>
            </harmony>
            <note default-x="13">
                <pitch>
                    <step>D</step>
                    <octave>4</octave>
                </pitch>
                <duration>16</duration>
                <voice>1</voice>
                <type>half</type>
                <stem default-y="-9.5">up</stem>
                <lyric relative-x="7" default-y="-80" number="1">
                    <syllabic>begin</syllabic>
                    <text>Breath</text>
                </lyric>
            </note>
            <note default-x="80">
                <pitch>
                    <step>C</step>
                    <alter>1</alter>
                    <octave>4</octave>
                </pitch>
                <duration>8</duration>
                <voice>1</voice>
                <type>quarter</type>
                <accidental>sharp</accidental>
                <stem default-y="-15">up</stem>
                <lyric default-y="-80" number="1">
                    <syllabic>end</syllabic>
                    <text>ing</text>
                </lyric>
            </note>
            <note default-x="121">
                <pitch>
                    <step>C</step>
                    <octave>4</octave>
                </pitch>
                <duration>8</duration>
                <voice>1</voice>
                <type>quarter</type>
                <accidental>natural</accidental>
                <stem default-y="-15">up</stem>
                <lyric default-y="-80" number="1">
                    <syllabic>single</syllabic>
                    <text>my</text>
                </lyric>
            </note>
        </measure>
        <measure width="162" number="15">
            <harmony default-y="40">
                <root>
                    <root-step>C</root-step>
                </root>
                <kind halign="center" text="7">dominant</kind>
            </harmony>
            <note default-x="13">
                <pitch>
                    <step>G</step>
                    <octave>4</octave>
                </pitch>
                <duration>16</duration>
                <voice>1</voice>
                <type>half</type>
                <stem default-y="5.5">up</stem>
                <lyric default-y="-80" number="1">
                    <syllabic>single</syllabic>
                    <text>name</text>
                </lyric>
            </note>
            <note default-x="80">
                <pitch>
                    <step>G</step>
                    <alter>1</alter>
                    <octave>4</octave>
                </pitch>
                <duration>8</duration>
                <voice>1</voice>
                <type>quarter</type>
                <accidental>sharp</accidental>
                <stem default-y="5.5">up</stem>
                <lyric default-y="-80" number="1">
                    <syllabic>single</syllabic>
                    <text>with</text>
                </lyric>
            </note>
            <note default-x="120">
                <pitch>
                    <step>D</step>
                    <octave>5</octave>
                </pitch>
                <duration>8</duration>
                <voice>1</voice>
                <type>quarter</type>
                <stem default-y="-45">down</stem>
                <lyric default-y="-80" number="1">
                    <syllabic>single</syllabic>
                    <text>a</text>
                </lyric>
            </note>
        </measure>
        <measure width="122" number="16">
            <harmony default-y="40">
                <root>
                    <root-step>F</root-step>
                </root>
                <kind halign="center" text="">major</kind>
            </harmony>
            <note default-x="13">
                <pitch>
                    <step>A</step>
                    <octave>4</octave>
                </pitch>
                <duration>32</duration>
                <voice>1</voice>
                <type>whole</type>
                <lyric default-y="-80" number="1">
                    <syllabic>single</syllabic>
                    <text>sigh.</text>
                </lyric>
            </note>
        </measure>
        <measure width="164" number="17">
            <harmony default-y="40">
                <root>
                    <root-step>C</root-step>
                </root>
                <kind halign="center" text="7">dominant</kind>
            </harmony>
            <note default-x="13">
                <rest/>
                <duration>16</duration>
                <voice>1</voice>
                <type>half</type>
            </note>
            <note default-x="82">
                <pitch>
                    <step>C</step>
                    <octave>4</octave>
                </pitch>
                <duration>8</duration>
                <voice>1</voice>
                <type>quarter</type>
                <stem default-y="-15">up</stem>
                <lyric default-y="-80" number="1">
                    <syllabic>single</syllabic>
                    <text>In</text>
                </lyric>
            </note>
            <note default-x="122">
                <pitch>
                    <step>D</step>
                    <octave>4</octave>
                </pitch>
                <duration>8</duration>
                <voice>1</voice>
                <type>quarter</type>
                <stem default-y="-9.5">up</stem>
                <lyric default-y="-80" number="1">
                    <syllabic>single</syllabic>
                    <text>the</text>
                </lyric>
            </note>
        </measure>
        <measure width="270" number="18">
            <print new-system="yes">
                <system-layout>
                    <system-margins>
                        <left-margin>47</left-margin>
                        <right-margin>0</right-margin>
                    </system-margins>
                    <system-distance>186</system-distance>
                </system-layout>
            </print>
            <harmony default-y="40">
                <root>
                    <root-step>F</root-step>
                </root>
                <kind halign="center" text="">major</kind>
            </harmony>
            <note default-x="77">
                <pitch>
                    <step>C</step>
                    <octave>5</octave>
                </pitch>
                <duration>16</duration>
                <voice>1</voice>
                <type>half</type>
                <stem default-y="-50">down</stem>
                <lyric default-y="-80" number="1">
                    <syllabic>single</syllabic>
                    <text>still</text>
                </lyric>
            </note>
            <note default-x="163">
                <pitch>
                    <step>C</step>
                    <octave>4</octave>
                </pitch>
                <duration>8</duration>
                <voice>1</voice>
                <type>quarter</type>
                <stem default-y="-15">up</stem>
                <lyric default-y="-80" number="1">
                    <syllabic>single</syllabic>
                    <text>of</text>
                </lyric>
            </note>
            <note default-x="216">
                <pitch>
                    <step>D</step>
                    <octave>4</octave>
                </pitch>
                <duration>8</duration>
                <voice>1</voice>
                <type>quarter</type>
                <stem default-y="-10">up</stem>
                <lyric default-y="-80" number="1">
                    <syllabic>single</syllabic>
                    <text>the</text>
                </lyric>
            </note>
        </measure>
        <measure width="223" number="19">
            <harmony default-y="40">
                <root>
                    <root-step>F</root-step>
                    <root-alter>1</root-alter>
                </root>
                <kind halign="center" text="dim">diminished</kind>
            </harmony>
            <note default-x="25">
                <pitch>
                    <step>E</step>
                    <alter>-1</alter>
                    <octave>4</octave>
                </pitch>
                <duration>16</duration>
                <voice>1</voice>
                <type>half</type>
                <accidental>flat</accidental>
                <stem default-y="-5">up</stem>
                <lyric default-y="-80" number="1">
                    <syllabic>single</syllabic>
                    <text>night</text>
                </lyric>
            </note>
            <note default-x="114">
                <pitch>
                    <step>C</step>
                    <octave>4</octave>
                </pitch>
                <duration>8</duration>
                <voice>1</voice>
                <type>quarter</type>
                <stem default-y="-15">up</stem>
                <lyric default-y="-80" number="1">
                    <syllabic>single</syllabic>
                    <text>once</text>
                </lyric>
            </note>
            <note default-x="168">
                <pitch>
                    <step>C</step>
                    <alter>1</alter>
                    <octave>4</octave>
                </pitch>
                <duration>8</duration>
                <voice>1</voice>
                <type>quarter</type>
                <accidental>sharp</accidental>
                <stem default-y="-15">up</stem>
                <lyric default-y="-80" number="1">
                    <syllabic>begin</syllabic>
                    <text>a</text>
                </lyric>
            </note>
        </measure>
        <measure width="237" number="20">
            <harmony default-y="40">
                <root>
                    <root-step>G</root-step>
                </root>
                <kind halign="center" text="m">minor</kind>
            </harmony>
            <note default-x="13">
                <pitch>
                    <step>D</step>
                    <octave>4</octave>
                </pitch>
                <duration>8</duration>
                <voice>1</voice>
                <type>quarter</type>
                <stem default-y="-10">up</stem>
                <lyric default-y="-80" number="1">
                    <syllabic>end</syllabic>
                    <text>gain</text>
                </lyric>
            </note>
            <note default-x="69">
                <pitch>
                    <step>G</step>
                    <octave>4</octave>
                </pitch>
                <duration>8</duration>
                <voice>1</voice>
                <type>quarter</type>
                <stem default-y="5">up</stem>
                <lyric default-y="-80" number="1">
                    <syllabic>single</syllabic>
                    <text>I</text>
                </lyric>
            </note>
            <note default-x="125">
                <pitch>
                    <step>B</step>
                    <alter>-1</alter>
                    <octave>4</octave>
                </pitch>
                <duration>8</duration>
                <voice>1</voice>
                <type>quarter</type>
                <stem default-y="-55.5">down</stem>
                <lyric default-y="-80" number="1">
                    <syllabic>single</syllabic>
                    <text>hold</text>
                </lyric>
            </note>
            <note default-x="181">
                <pitch>
                    <step>D</step>
                    <octave>5</octave>
                </pitch>
                <duration>8</duration>
                <voice>1</voice>
                <type>quarter</type>
                <stem default-y="-45">down</stem>
                <lyric default-y="-80" number="1">
                    <syllabic>single</syllabic>
                    <text>you</text>
                </lyric>
            </note>
        </measure>
        <measure width="273" number="21">
            <harmony default-y="40">
                <root>
                    <root-step>C</root-step>
                </root>
                <kind halign="center" text="7">dominant</kind>
            </harmony>
            <note default-x="14">
                <pitch>
                    <step>C</step>
                    <octave>5</octave>
                </pitch>
                <duration>16</duration>
                <voice>1</voice>
                <type>half</type>
                <stem default-y="-50">down</stem>
                <lyric default-y="-80" number="1">
                    <syllabic>single</syllabic>
                    <text>tight,</text>
                </lyric>
            </note>
            <note default-x="129">
                <pitch>
                    <step>G</step>
                    <alter>1</alter>
                    <octave>4</octave>
                </pitch>
                <duration>8</duration>
                <voice>1</voice>
                <type>quarter</type>
                <accidental>sharp</accidental>
                <stem default-y="5">up</stem>
                <lyric default-y="-80" number="1">
                    <syllabic>single</syllabic>
                    <text>Though</text>
                </lyric>
            </note>
            <note default-x="200">
                <pitch>
                    <step>A</step>
                    <octave>4</octave>
                </pitch>
                <duration>8</duration>
                <voice>1</voice>
                <type>quarter</type>
                <stem default-y="10.5">up</stem>
                <lyric default-y="-80" number="1">
                    <syllabic>single</syllabic>
                    <text>you're</text>
                </lyric>
            </note>
        </measure>
        <measure width="308" number="22">
            <print new-system="yes">
                <system-layout>
                    <system-margins>
                        <left-margin>47</left-margin>
                        <right-margin>0</right-margin>
                    </system-margins>
                    <system-distance>186</system-distance>
                </system-layout>
            </print>
            <harmony default-y="40">
                <root>
                    <root-step>F</root-step>
                </root>
                <kind halign="center" text="">major</kind>
            </harmony>
            <note default-x="77">
                <pitch>
                    <step>G</step>
                    <octave>5</octave>
                </pitch>
                <duration>8</duration>
                <voice>1</voice>
                <type>quarter</type>
                <stem default-y="-30">down</stem>
                <lyric default-y="-80" number="1">
                    <syllabic>single</syllabic>
                    <text>gone,</text>
                </lyric>
            </note>
            <note default-x="136">
                <pitch>
                    <step>F</step>
                    <octave>5</octave>
                </pitch>
                <duration>8</duration>
                <voice>1</voice>
                <type>quarter</type>
                <stem default-y="-35">down</stem>
                <lyric default-y="-80" number="1">
                    <syllabic>single</syllabic>
                    <text>you're</text>
                </lyric>
            </note>
            <note default-x="194">
                <pitch>
                    <step>C</step>
                    <octave>5</octave>
                </pitch>
                <duration>8</duration>
                <voice>1</voice>
                <type>quarter</type>
                <stem default-y="-50.5">down</stem>
                <lyric default-y="-80" number="1">
                    <syllabic>single</syllabic>
                    <text>love</text>
                </lyric>
            </note>
            <note default-x="252">
                <pitch>
                    <step>A</step>
                    <octave>4</octave>
                </pitch>
                <duration>8</duration>
                <voice>1</voice>
                <type>quarter</type>
                <stem default-y="10">up</stem>
                <lyric default-y="-80" number="1">
                    <syllabic>single</syllabic>
                    <text>lives</text>
                </lyric>
            </note>
        </measure>
        <measure width="237" number="23">
            <harmony default-y="40">
                <root>
                    <root-step>A</root-step>
                </root>
                <kind halign="center">minor-seventh</kind>
                <degree>
                    <degree-value>5</degree-value>
                    <degree-alter>-1</degree-alter>
                    <degree-type>alter</degree-type>
                </degree>
            </harmony>
            <note default-x="13">
                <pitch>
                    <step>G</step>
                    <octave>4</octave>
                </pitch>
                <duration>8</duration>
                <voice>1</voice>
                <type>quarter</type>
                <stem default-y="5">up</stem>
                <lyric default-y="-80" number="1">
                    <syllabic>single</syllabic>
                    <text>on</text>
                </lyric>
            </note>
            <note default-x="69">
                <pitch>
                    <step>G</step>
                    <alter>1</alter>
                    <octave>4</octave>
                </pitch>
                <duration>8</duration>
                <voice>1</voice>
                <type>quarter</type>
                <accidental>sharp</accidental>
                <stem default-y="5">up</stem>
                <lyric default-y="-80" number="1">
                    <syllabic>single</syllabic>
                    <text>When</text>
                </lyric>
            </note>
            <note default-x="125">
                <pitch>
                    <step>A</step>
                    <octave>4</octave>
                </pitch>
                <duration>8</duration>
                <voice>1</voice>
                <type>quarter</type>
                <stem default-y="10">up</stem>
                <lyric default-y="-80" number="1">
                    <syllabic>begin</syllabic>
                    <text>moon</text>
                </lyric>
            </note>
            <note default-x="181">
                <pitch>
                    <step>D</step>
                    <octave>5</octave>
                </pitch>
                <duration>8</duration>
                <voice>1</voice>
                <type>quarter</type>
                <stem default-y="-45.5">down</stem>
                <lyric default-y="-80" number="1">
                    <syllabic>end</syllabic>
                    <text>light</text>
                </lyric>
            </note>
        </measure>
        <measure width="125" number="24">
            <harmony default-y="40">
                <root>
                    <root-step>D</root-step>
                </root>
                <kind halign="center" text="7">dominant</kind>
            </harmony>
            <harmony default-y="40">
                <root>
                    <root-step>E</root-step>
                </root>
                <kind halign="center" text="m7">minor-seventh</kind>
                <offset>16</offset>
            </harmony>
            <note default-x="14">
                <pitch>
                    <step>D</step>
                    <octave>4</octave>
                </pitch>
                <duration>32</duration>
                <tie type="start"/>
                <voice>1</voice>
                <type>whole</type>
                <notations>
                    <tied type="start"/>
                </notations>
                <lyric relative-x="6" default-y="-80" number="1">
                    <syllabic>single</syllabic>
                    <text>beams.</text>
                </lyric>
            </note>
        </measure>
        <measure width="167" number="25">
            <harmony default-y="40">
                <root>
                    <root-step>F</root-step>
                </root>
                <kind halign="center" use-symbols="yes">diminished</kind>
            </harmony>
            <note default-x="14">
                <pitch>
                    <step>D</step>
                    <octave>4</octave>
                </pitch>
                <duration>16</duration>
                <tie type="stop"/>
                <voice>1</voice>
                <type>half</type>
                <stem default-y="-9">up</stem>
                <notations>
                    <tied type="stop"/>
                </notations>
            </note>
            <harmony default-y="40">
                <root>
                    <root-step>D</root-step>
                </root>
                <kind halign="center" text="">major</kind>
                <bass>
                    <bass-step>F</bass-step>
                    <bass-alter>1</bass-alter>
                </bass>
            </harmony>
            <note default-x="82">
                <pitch>
                    <step>C</step>
                    <alter>1</alter>
                    <octave>4</octave>
                </pitch>
                <duration>8</duration>
                <voice>1</voice>
                <type>quarter</type>
                <accidental>sharp</accidental>
                <stem default-y="-14">up</stem>
                <lyric default-y="-80" number="1">
                    <syllabic>single</syllabic>
                    <text>And</text>
                </lyric>
            </note>
            <note default-x="124">
                <pitch>
                    <step>D</step>
                    <octave>4</octave>
                </pitch>
                <duration>8</duration>
                <voice>1</voice>
                <type>quarter</type>
                <stem default-y="-9">up</stem>
                <lyric default-y="-80" number="1">
                    <syllabic>single</syllabic>
                    <text>as</text>
                </lyric>
            </note>
        </measure>
        <measure width="168" number="26">
            <harmony default-y="40">
                <root>
                    <root-step>G</root-step>
                </root>
                <kind halign="center" text="m">minor</kind>
            </harmony>
            <note default-x="14">
                <pitch>
                    <step>C</step>
                    <octave>5</octave>
                </pitch>
                <duration>16</duration>
                <voice>1</voice>
                <type>half</type>
                <stem default-y="-50.5">down</stem>
                <lyric default-y="-80" number="1">
                    <syllabic>single</syllabic>
                    <text>long</text>
                </lyric>
            </note>
            <note default-x="82">
                <pitch>
                    <step>B</step>
                    <octave>4</octave>
                </pitch>
                <duration>8</duration>
                <voice>1</voice>
                <type>quarter</type>
                <accidental>natural</accidental>
                <stem default-y="-55.5">down</stem>
                <lyric default-y="-80" number="1">
                    <syllabic>single</syllabic>
                    <text>as</text>
                </lyric>
            </note>
            <note default-x="124">
                <pitch>
                    <step>B</step>
                    <alter>-1</alter>
                    <octave>4</octave>
                </pitch>
                <duration>8</duration>
                <voice>1</voice>
                <type>quarter</type>
                <accidental>flat</accidental>
                <stem default-y="-55.5">down</stem>
                <lyric default-y="-80" number="1">
                    <syllabic>single</syllabic>
                    <text>my</text>
                </lyric>
            </note>
        </measure>
        <measure width="237" number="27">
            <print new-system="yes">
                <system-layout>
                    <system-margins>
                        <left-margin>47</left-margin>
                        <right-margin>0</right-margin>
                    </system-margins>
                    <system-distance>186</system-distance>
                </system-layout>
            </print>
            <harmony default-y="40">
                <root>
                    <root-step>B</root-step>
                    <root-alter>-1</root-alter>
                </root>
                <kind halign="center" text="">major</kind>
            </harmony>
            <note default-x="76">
                <pitch>
                    <step>A</step>
                    <octave>4</octave>
                </pitch>
                <duration>8</duration>
                <voice>1</voice>
                <type>quarter</type>
                <stem default-y="11">up</stem>
                <lyric default-y="-80" number="1">
                    <syllabic>single</syllabic>
                    <text>heart</text>
                </lyric>
            </note>
            <note default-x="122">
                <pitch>
                    <step>G</step>
                    <alter>1</alter>
                    <octave>4</octave>
                </pitch>
                <duration>8</duration>
                <voice>1</voice>
                <type>quarter</type>
                <accidental>sharp</accidental>
                <stem default-y="6">up</stem>
                <lyric default-y="-80" number="1">
                    <syllabic>single</syllabic>
                    <text>will</text>
                </lyric>
            </note>
            <note default-x="167">
                <pitch>
                    <step>G</step>
                    <octave>4</octave>
                </pitch>
                <duration>16</duration>
                <voice>1</voice>
                <type>half</type>
                <accidental>natural</accidental>
                <stem default-y="6">up</stem>
                <lyric default-y="-80" number="1">
                    <syllabic>single</syllabic>
                    <text>beat,</text>
                </lyric>
            </note>
        </measure>
        <measure width="157" number="28">
            <harmony default-y="40">
                <root>
                    <root-step>A</root-step>
                </root>
                <kind halign="center" text="m7">minor-seventh</kind>
            </harmony>
            <note default-x="13">
                <pitch>
                    <step>G</step>
                    <octave>4</octave>
                </pitch>
                <duration>16</duration>
                <voice>1</voice>
                <type>half</type>
                <stem default-y="6">up</stem>
                <lyric default-y="-80" number="1">
                    <syllabic>begin</syllabic>
                    <text>lov</text>
                </lyric>
            </note>
            <note default-x="77">
                <pitch>
                    <step>F</step>
                    <alter>1</alter>
                    <octave>4</octave>
                </pitch>
                <duration>8</duration>
                <voice>1</voice>
                <type>quarter</type>
                <accidental>sharp</accidental>
                <stem default-y="1">up</stem>
                <lyric default-y="-80" number="1">
                    <syllabic>end</syllabic>
                    <text>er</text>
                </lyric>
            </note>
            <harmony default-y="40">
                <root>
                    <root-step>A</root-step>
                </root>
                <kind halign="center" text="dim">diminished</kind>
            </harmony>
            <note default-x="117">
                <pitch>
                    <step>F</step>
                    <octave>4</octave>
                </pitch>
                <duration>8</duration>
                <voice>1</voice>
                <type>quarter</type>
                <accidental>natural</accidental>
                <stem default-y="1">up</stem>
                <lyric default-y="-80" number="1">
                    <syllabic>single</syllabic>
                    <text>we'll</text>
                </lyric>
            </note>
        </measure>
        <measure width="175" number="29">
            <harmony default-y="40">
                <root>
                    <root-step>G</root-step>
                    <root-alter>1</root-alter>
                </root>
                <kind halign="center" text="dim">diminished</kind>
            </harmony>
            <note default-x="14">
                <pitch>
                    <step>E</step>
                    <octave>5</octave>
                </pitch>
                <duration>8</duration>
                <voice>1</voice>
                <type>quarter</type>
                <stem default-y="-40.5">down</stem>
                <lyric default-y="-80" number="1">
                    <syllabic>begin</syllabic>
                    <text>al</text>
                </lyric>
            </note>
            <note default-x="57">
                <pitch>
                    <step>D</step>
                    <alter>1</alter>
                    <octave>5</octave>
                </pitch>
                <duration>8</duration>
                <voice>1</voice>
                <type>quarter</type>
                <accidental>sharp</accidental>
                <stem default-y="-45.5">down</stem>
                <lyric default-y="-80" number="1">
                    <syllabic>end</syllabic>
                    <text>ways</text>
                </lyric>
            </note>
            <note default-x="107">
                <pitch>
                    <step>D</step>
                    <octave>5</octave>
                </pitch>
                <duration>16</duration>
                <voice>1</voice>
                <type>half</type>
                <accidental>natural</accidental>
                <stem default-y="-45.5">down</stem>
                <lyric default-y="-80" number="1">
                    <syllabic>single</syllabic>
                    <text>meet,</text>
                </lyric>
            </note>
        </measure>
        <measure width="155" number="30">
            <harmony default-y="40">
                <root>
                    <root-step>G</root-step>
                </root>
                <kind halign="center" text="m">minor</kind>
            </harmony>
            <note default-x="14">
                <pitch>
                    <step>D</step>
                    <octave>5</octave>
                </pitch>
                <duration>16</duration>
                <voice>1</voice>
                <type>half</type>
                <stem default-y="-45.5">down</stem>
                <lyric default-y="-80" number="1">
                    <syllabic>single</syllabic>
                    <text>Here</text>
                </lyric>
            </note>
            <note default-x="77">
                <pitch>
                    <step>C</step>
                    <alter>1</alter>
                    <octave>5</octave>
                </pitch>
                <duration>8</duration>
                <voice>1</voice>
                <type>quarter</type>
                <accidental>sharp</accidental>
                <stem default-y="-50">down</stem>
                <lyric default-y="-80" number="1">
                    <syllabic>single</syllabic>
                    <text>in</text>
                </lyric>
            </note>
            <note default-x="115">
                <pitch>
                    <step>C</step>
                    <octave>5</octave>
                </pitch>
                <duration>8</duration>
                <voice>1</voice>
                <type>quarter</type>
                <accidental>natural</accidental>
                <stem default-y="-50">down</stem>
                <lyric default-y="-80" number="1">
                    <syllabic>single</syllabic>
                    <text>my</text>
                </lyric>
            </note>
        </measure>
        <measure width="155" number="31">
            <harmony default-y="40">
                <root>
                    <root-step>C</root-step>
                </root>
                <kind halign="center" text="7">dominant</kind>
            </harmony>
            <note default-x="14">
                <pitch>
                    <step>G</step>
                    <octave>4</octave>
                </pitch>
                <duration>16</duration>
                <voice>1</voice>
                <type>half</type>
                <stem default-y="6">up</stem>
                <lyric default-y="-80" number="1">
                    <syllabic>single</syllabic>
                    <text>deep</text>
                </lyric>
            </note>
            <note default-x="77">
                <pitch>
                    <step>G</step>
                    <alter>1</alter>
                    <octave>4</octave>
                </pitch>
                <duration>8</duration>
                <voice>1</voice>
                <type>quarter</type>
                <accidental>sharp</accidental>
                <stem default-y="6">up</stem>
                <lyric default-y="-80" number="1">
                    <syllabic>single</syllabic>
                    <text>pur</text>
                </lyric>
            </note>
            <note default-x="116">
                <pitch>
                    <step>A</step>
                    <octave>4</octave>
                </pitch>
                <duration>8</duration>
                <voice>1</voice>
                <type>quarter</type>
                <stem default-y="11">up</stem>
                <lyric default-y="-80" number="1">
                    <syllabic>single</syllabic>
                    <text>ple</text>
                </lyric>
            </note>
        </measure>
        <measure width="125" number="32">
            <harmony default-y="40">
                <root>
                    <root-step>F</root-step>
                </root>
                <kind halign="center" text="">major</kind>
            </harmony>
            <note default-x="13">
                <pitch>
                    <step>F</step>
                    <octave>4</octave>
                </pitch>
                <duration>32</duration>
                <voice>1</voice>
                <type>whole</type>
                <lyric relative-x="9" default-y="-80" number="1">
                    <syllabic>single</syllabic>
                    <text>dreams.</text>
                </lyric>
            </note>
            <barline location="right">
                <bar-style>light-heavy</bar-style>
            </barline>
        </measure>
    </part>
</score-partwise>
