<?xml version="1.0" encoding="UTF-8"?>
<!DOCTYPE score-partwise PUBLIC "-//Recordare//DTD MusicXML 2.0 Partwise//EN" "http://www.musicxml.org/dtds/partwise.dtd">
<score-partwise version="2.0">
    <work>
        <work-number></work-number>
        <work-title></work-title>
    </work>
    <movement-number></movement-number>
    <movement-title>There's A Small Hotel</movement-title>
    <identification>
        <creator type="composer">Richard Rodgers</creator>
        <creator type="poet">Lorenz Hart</creator>
        <rights>All Rights Reserved</rights>
        <encoding>
            <software>MuseScore 0.9.5</software>
            <encoding-date>2009-11-30</encoding-date>
            <software>ProxyMusic 2.0 c</software>
        </encoding>
        <source>http://wikifonia.org/node/3528/revisions/4562/view</source>
    </identification>
    <defaults>
        <scaling>
            <millimeters>7.056</millimeters>
            <tenths>40</tenths>
        </scaling>
        <page-layout>
            <page-height>1683.67</page-height>
            <page-width>1190.48</page-width>
            <page-margins type="both">
                <left-margin>56.6893</left-margin>
                <right-margin>56.6893</right-margin>
                <top-margin>56.6893</top-margin>
                <bottom-margin>113.379</bottom-margin>
            </page-margins>
        </page-layout>
    </defaults>
    <credit page="1">
        <credit-words font-size="24" default-y="1626.98" default-x="595.238" justify="center" valign="top">There's A Small Hotel</credit-words>
    </credit>
    <part-list>
        <score-part id="P1">
            <part-name>Voice</part-name>
            <score-instrument id="P1-I3">
                <instrument-name>Voice</instrument-name>
            </score-instrument>
            <midi-instrument id="P1-I3">
                <midi-channel>1</midi-channel>
                <midi-program>53</midi-program>
            </midi-instrument>
        </score-part>
    </part-list>
    <part id="P1">
        <measure width="241.62" number="1">
            <print>
                <system-layout>
                    <system-margins>
                        <left-margin>69.92</left-margin>
                        <right-margin>0.00</right-margin>
                    </system-margins>
                    <top-system-distance>228.53</top-system-distance>
                </system-layout>
            </print>
            <attributes>
                <divisions>4</divisions>
                <key>
                    <fifths>1</fifths>
                    <mode>major</mode>
                </key>
                <time symbol="cut">
                    <beats>2</beats>
                    <beat-type>2</beat-type>
                </time>
                <clef>
                    <sign>G</sign>
                    <line>2</line>
                </clef>
            </attributes>
            <harmony print-frame="no">
                <root>
                    <root-step>G</root-step>
                </root>
                <kind text="Maj7">major-seventh</kind>
            </harmony>
            <note default-y="-25.00" default-x="125.16">
                <pitch>
                    <step>A</step>
                    <octave>4</octave>
                </pitch>
                <duration>8</duration>
                <voice>1</voice>
                <type>half</type>
                <stem>up</stem>
                <lyric number="1">
                    <syllabic>single</syllabic>
                    <text>There's</text>
                </lyric>
            </note>
            <note default-y="-30.00" default-x="182.59">
                <pitch>
                    <step>G</step>
                    <octave>4</octave>
                </pitch>
                <duration>8</duration>
                <voice>1</voice>
                <type>half</type>
                <stem>up</stem>
                <lyric number="1">
                    <syllabic>single</syllabic>
                    <text>a</text>
                </lyric>
            </note>
        </measure>
        <measure width="182.08" number="2">
            <note default-y="-25.00" default-x="32.88">
                <pitch>
                    <step>A</step>
                    <octave>4</octave>
                </pitch>
                <duration>4</duration>
                <voice>1</voice>
                <type>quarter</type>
                <stem>up</stem>
                <lyric number="1">
                    <syllabic>single</syllabic>
                    <text>small</text>
                </lyric>
            </note>
            <note default-y="-20.00" default-x="77.64">
                <pitch>
                    <step>B</step>
                    <octave>4</octave>
                </pitch>
                <duration>4</duration>
                <voice>1</voice>
                <type>quarter</type>
                <stem>down</stem>
                <lyric number="1">
                    <syllabic>begin</syllabic>
                    <text>hot</text>
                </lyric>
            </note>
            <note default-y="-30.00" default-x="117.19">
                <pitch>
                    <step>G</step>
                    <octave>4</octave>
                </pitch>
                <duration>8</duration>
                <voice>1</voice>
                <type>half</type>
                <stem>up</stem>
                <lyric number="1">
                    <syllabic>end</syllabic>
                    <text>tel</text>
                </lyric>
            </note>
        </measure>
        <measure width="132.31" number="3">
            <note default-y="-35.00" default-x="28.50">
                <pitch>
                    <step>F</step>
                    <alter>1</alter>
                    <octave>4</octave>
                </pitch>
                <duration>8</duration>
                <voice>1</voice>
                <type>half</type>
                <stem>up</stem>
                <lyric number="1">
                    <syllabic>single</syllabic>
                    <text>with</text>
                </lyric>
            </note>
            <note default-y="-40.00" default-x="79.60">
                <pitch>
                    <step>E</step>
                    <octave>4</octave>
                </pitch>
                <duration>8</duration>
                <voice>1</voice>
                <type>half</type>
                <stem>up</stem>
                <lyric number="1">
                    <syllabic>single</syllabic>
                    <text>a</text>
                </lyric>
            </note>
        </measure>
        <measure width="218.58" number="4">
            <harmony print-frame="no">
                <root>
                    <root-step>G</root-step>
                </root>
                <kind text="Maj7">major-seventh</kind>
                <bass>
                    <bass-step>B</bass-step>
                </bass>
            </harmony>
            <note default-y="-35.00" default-x="29.76">
                <pitch>
                    <step>F</step>
                    <alter>1</alter>
                    <octave>4</octave>
                </pitch>
                <duration>4</duration>
                <voice>1</voice>
                <type>quarter</type>
                <stem>up</stem>
                <lyric number="1">
                    <syllabic>begin</syllabic>
                    <text>wish</text>
                </lyric>
            </note>
            <note default-y="-30.00" default-x="76.56">
                <pitch>
                    <step>G</step>
                    <octave>4</octave>
                </pitch>
                <duration>4</duration>
                <voice>1</voice>
                <type>quarter</type>
                <stem>up</stem>
                <lyric number="1">
                    <syllabic>end</syllabic>
                    <text>ing</text>
                </lyric>
            </note>
            <harmony print-frame="no">
                <root>
                    <root-step>B</root-step>
                    <root-alter>-1</root-alter>
                </root>
                <kind text="dim7">diminished-seventh</kind>
            </harmony>
            <note default-y="-40.00" default-x="123.37">
                <pitch>
                    <step>E</step>
                    <octave>4</octave>
                </pitch>
                <duration>4</duration>
                <voice>1</voice>
                <type>quarter</type>
                <stem>up</stem>
                <lyric number="1">
                    <syllabic>single</syllabic>
                    <text>well;</text>
                </lyric>
            </note>
            <note default-y="-35.00" default-x="170.18">
                <pitch>
                    <step>F</step>
                    <alter>1</alter>
                    <octave>4</octave>
                </pitch>
                <duration>4</duration>
                <voice>1</voice>
                <type>quarter</type>
                <stem>up</stem>
                <lyric number="1">
                    <syllabic>single</syllabic>
                    <text>I</text>
                </lyric>
            </note>
        </measure>
        <measure width="232.59" number="5">
            <harmony print-frame="no">
                <root>
                    <root-step>A</root-step>
                </root>
                <kind text="m7">minor-seventh</kind>
            </harmony>
            <note default-y="-45.00" default-x="29.76">
                <pitch>
                    <step>D</step>
                    <octave>4</octave>
                </pitch>
                <duration>4</duration>
                <voice>1</voice>
                <type>quarter</type>
                <stem>up</stem>
                <lyric number="1">
                    <syllabic>single</syllabic>
                    <text>wish</text>
                </lyric>
            </note>
            <note default-y="-40.00" default-x="80.06">
                <pitch>
                    <step>E</step>
                    <octave>4</octave>
                </pitch>
                <duration>4</duration>
                <voice>1</voice>
                <type>quarter</type>
                <stem>up</stem>
                <lyric number="1">
                    <syllabic>single</syllabic>
                    <text>that</text>
                </lyric>
            </note>
            <harmony print-frame="no">
                <root>
                    <root-step>G</root-step>
                    <root-alter>1</root-alter>
                </root>
                <kind text="dim7">diminished-seventh</kind>
            </harmony>
            <note default-y="-55.00" default-x="130.37">
                <pitch>
                    <step>B</step>
                    <octave>3</octave>
                </pitch>
                <duration>4</duration>
                <voice>1</voice>
                <type>quarter</type>
                <stem>up</stem>
                <lyric number="1">
                    <syllabic>single</syllabic>
                    <text>we</text>
                </lyric>
            </note>
            <note default-y="-50.00" default-x="180.68">
                <pitch>
                    <step>C</step>
                    <octave>4</octave>
                </pitch>
                <duration>4</duration>
                <voice>1</voice>
                <type>quarter</type>
                <stem>up</stem>
                <lyric number="1">
                    <syllabic>single</syllabic>
                    <text>were</text>
                </lyric>
            </note>
        </measure>
        <measure width="217.48" number="6">
            <print new-system="yes">
                <system-layout>
                    <system-margins>
                        <left-margin>47.28</left-margin>
                        <right-margin>-0.00</right-margin>
                    </system-margins>
                    <system-distance>153.73</system-distance>
                </system-layout>
            </print>
            <harmony print-frame="no">
                <root>
                    <root-step>A</root-step>
                </root>
                <kind text="m9">minor-ninth</kind>
            </harmony>
            <note default-y="-45.00" default-x="92.71">
                <pitch>
                    <step>D</step>
                    <octave>4</octave>
                </pitch>
                <duration>12</duration>
                <voice>1</voice>
                <type>half</type>
                <dot/>
                <stem>up</stem>
                <lyric number="1">
                    <syllabic>single</syllabic>
                    <text>there</text>
                </lyric>
            </note>
            <harmony print-frame="no">
                <root>
                    <root-step>D</root-step>
                </root>
                <kind text="7">dominant</kind>
            </harmony>
            <note default-y="-45.00" default-x="174.14">
                <pitch>
                    <step>D</step>
                    <octave>4</octave>
                </pitch>
                <duration>4</duration>
                <voice>1</voice>
                <type>quarter</type>
                <stem>up</stem>
                <lyric number="1">
                    <syllabic>begin</syllabic>
                    <text>to</text>
                </lyric>
            </note>
        </measure>
        <measure width="150.23" number="7">
            <harmony print-frame="no">
                <root>
                    <root-step>G</root-step>
                </root>
                <kind text="Maj7">major-seventh</kind>
            </harmony>
            <note default-y="-25.00" default-x="27.87">
                <pitch>
                    <step>A</step>
                    <octave>4</octave>
                </pitch>
                <duration>8</duration>
                <voice>1</voice>
                <type>half</type>
                <stem>up</stem>
                <lyric number="1">
                    <syllabic>middle</syllabic>
                    <text>geth</text>
                </lyric>
            </note>
            <harmony print-frame="no">
                <root>
                    <root-step>E</root-step>
                </root>
                <kind text="m9">minor-ninth</kind>
            </harmony>
            <note default-y="-25.00" default-x="88.25">
                <pitch>
                    <step>A</step>
                    <octave>4</octave>
                </pitch>
                <duration>8</duration>
                <tie type="start"/>
                <voice>1</voice>
                <type>half</type>
                <stem>up</stem>
                <notations>
                    <tied type="start"/>
                </notations>
                <lyric number="1">
                    <syllabic>end</syllabic>
                    <text>er</text>
                </lyric>
            </note>
        </measure>
        <measure width="118.07" number="8">
            <harmony print-frame="no">
                <root>
                    <root-step>A</root-step>
                </root>
                <kind text="m7">minor-seventh</kind>
            </harmony>
            <note default-y="-25.00" default-x="15.00">
                <pitch>
                    <step>A</step>
                    <octave>4</octave>
                </pitch>
                <duration>12</duration>
                <voice>1</voice>
                <type>half</type>
                <dot/>
                <stem>up</stem>
            </note>
            <harmony print-frame="no">
                <root>
                    <root-step>D</root-step>
                </root>
                <kind text="7">dominant</kind>
            </harmony>
            <note>
                <rest/>
                <duration>4</duration>
                <voice>1</voice>
                <type>quarter</type>
            </note>
        </measure>
        <measure width="173.05" number="9">
            <harmony print-frame="no">
                <root>
                    <root-step>G</root-step>
                </root>
                <kind text="Maj7">major-seventh</kind>
            </harmony>
            <note default-y="-25.00" default-x="41.16">
                <pitch>
                    <step>A</step>
                    <octave>4</octave>
                </pitch>
                <duration>8</duration>
                <voice>1</voice>
                <type>half</type>
                <stem>up</stem>
                <lyric number="1">
                    <syllabic>single</syllabic>
                    <text>There's</text>
                </lyric>
            </note>
            <note default-y="-30.00" default-x="106.30">
                <pitch>
                    <step>G</step>
                    <octave>4</octave>
                </pitch>
                <duration>8</duration>
                <voice>1</voice>
                <type>half</type>
                <stem>up</stem>
                <lyric number="1">
                    <syllabic>single</syllabic>
                    <text>a</text>
                </lyric>
            </note>
        </measure>
        <measure width="201.17" number="10">
            <note default-y="-25.00" default-x="26.62">
                <pitch>
                    <step>A</step>
                    <octave>4</octave>
                </pitch>
                <duration>4</duration>
                <voice>1</voice>
                <type>quarter</type>
                <stem>up</stem>
                <lyric number="1">
                    <syllabic>begin</syllabic>
                    <text>brid</text>
                </lyric>
            </note>
            <note default-y="-20.00" default-x="74.66">
                <pitch>
                    <step>B</step>
                    <octave>4</octave>
                </pitch>
                <duration>4</duration>
                <voice>1</voice>
                <type>quarter</type>
                <stem>down</stem>
                <lyric number="1">
                    <syllabic>end</syllabic>
                    <text>al</text>
                </lyric>
            </note>
            <note default-y="-30.00" default-x="122.70">
                <pitch>
                    <step>G</step>
                    <octave>4</octave>
                </pitch>
                <duration>8</duration>
                <voice>1</voice>
                <type>half</type>
                <stem>up</stem>
                <lyric number="1">
                    <syllabic>single</syllabic>
                    <text>suite;</text>
                </lyric>
            </note>
        </measure>
        <measure width="169.83" number="11">
            <note default-y="-35.00" default-x="24.74">
                <pitch>
                    <step>F</step>
                    <alter>1</alter>
                    <octave>4</octave>
                </pitch>
                <duration>8</duration>
                <voice>1</voice>
                <type>half</type>
                <stem>up</stem>
                <lyric number="1">
                    <syllabic>single</syllabic>
                    <text>one</text>
                </lyric>
            </note>
            <note default-y="-40.00" default-x="96.49">
                <pitch>
                    <step>E</step>
                    <octave>4</octave>
                </pitch>
                <duration>8</duration>
                <voice>1</voice>
                <type>half</type>
                <stem>up</stem>
                <lyric number="1">
                    <syllabic>single</syllabic>
                    <text>room</text>
                </lyric>
            </note>
        </measure>
        <measure width="337.52" number="12">
            <print new-system="yes">
                <system-layout>
                    <system-margins>
                        <left-margin>47.28</left-margin>
                        <right-margin>-0.00</right-margin>
                    </system-margins>
                    <system-distance>153.73</system-distance>
                </system-layout>
            </print>
            <harmony print-frame="no">
                <root>
                    <root-step>G</root-step>
                </root>
                <kind text="Maj7">major-seventh</kind>
            </harmony>
            <note default-y="-35.00" default-x="97.11">
                <pitch>
                    <step>F</step>
                    <alter>1</alter>
                    <octave>4</octave>
                </pitch>
                <duration>4</duration>
                <voice>1</voice>
                <type>quarter</type>
                <stem>up</stem>
                <lyric number="1">
                    <syllabic>single</syllabic>
                    <text>bright</text>
                </lyric>
            </note>
            <note default-y="-30.00" default-x="156.81">
                <pitch>
                    <step>G</step>
                    <octave>4</octave>
                </pitch>
                <duration>4</duration>
                <voice>1</voice>
                <type>quarter</type>
                <stem>up</stem>
                <lyric number="1">
                    <syllabic>single</syllabic>
                    <text>and</text>
                </lyric>
            </note>
            <harmony print-frame="no">
                <root>
                    <root-step>B</root-step>
                    <root-alter>-1</root-alter>
                </root>
                <kind text="dim7">diminished-seventh</kind>
            </harmony>
            <note default-y="-40.00" default-x="216.52">
                <pitch>
                    <step>E</step>
                    <octave>4</octave>
                </pitch>
                <duration>4</duration>
                <voice>1</voice>
                <type>quarter</type>
                <stem>up</stem>
                <lyric number="1">
                    <syllabic>single</syllabic>
                    <text>neat,</text>
                </lyric>
            </note>
            <note default-y="-35.00" default-x="276.22">
                <pitch>
                    <step>F</step>
                    <alter>1</alter>
                    <octave>4</octave>
                </pitch>
                <duration>4</duration>
                <voice>1</voice>
                <type>quarter</type>
                <stem>up</stem>
                <lyric number="1">
                    <syllabic>begin</syllabic>
                    <text>com</text>
                </lyric>
            </note>
        </measure>
        <measure width="220.76" number="13">
            <harmony print-frame="no">
                <root>
                    <root-step>A</root-step>
                </root>
                <kind text="m7">minor-seventh</kind>
            </harmony>
            <note default-y="-45.00" default-x="30.37">
                <pitch>
                    <step>D</step>
                    <octave>4</octave>
                </pitch>
                <duration>4</duration>
                <voice>1</voice>
                <type>quarter</type>
                <stem>up</stem>
                <lyric number="1">
                    <syllabic>end</syllabic>
                    <text>plete</text>
                </lyric>
            </note>
            <note default-y="-40.00" default-x="77.57">
                <pitch>
                    <step>E</step>
                    <octave>4</octave>
                </pitch>
                <duration>4</duration>
                <voice>1</voice>
                <type>quarter</type>
                <stem>up</stem>
                <lyric number="1">
                    <syllabic>single</syllabic>
                    <text>for</text>
                </lyric>
            </note>
            <harmony print-frame="no">
                <root>
                    <root-step>G</root-step>
                    <root-alter>1</root-alter>
                </root>
                <kind text="dim7">diminished-seventh</kind>
            </harmony>
            <note default-y="-55.00" default-x="124.77">
                <pitch>
                    <step>B</step>
                    <octave>3</octave>
                </pitch>
                <duration>4</duration>
                <voice>1</voice>
                <type>quarter</type>
                <stem>up</stem>
                <lyric number="1">
                    <syllabic>single</syllabic>
                    <text>us</text>
                </lyric>
            </note>
            <note default-y="-50.00" default-x="171.96">
                <pitch>
                    <step>C</step>
                    <octave>4</octave>
                </pitch>
                <duration>4</duration>
                <voice>1</voice>
                <type>quarter</type>
                <stem>up</stem>
                <lyric number="1">
                    <syllabic>single</syllabic>
                    <text>to</text>
                </lyric>
            </note>
        </measure>
        <measure width="164.12" number="14">
            <harmony print-frame="no">
                <root>
                    <root-step>A</root-step>
                </root>
                <kind text="m7">minor-seventh</kind>
            </harmony>
            <note default-y="-45.00" default-x="32.25">
                <pitch>
                    <step>D</step>
                    <octave>4</octave>
                </pitch>
                <duration>12</duration>
                <voice>1</voice>
                <type>half</type>
                <dot/>
                <stem>up</stem>
                <lyric number="1">
                    <syllabic>single</syllabic>
                    <text>share</text>
                </lyric>
            </note>
            <harmony print-frame="no">
                <root>
                    <root-step>D</root-step>
                </root>
                <kind text="7">dominant</kind>
            </harmony>
            <note default-y="-45.00" default-x="118.37">
                <pitch>
                    <step>D</step>
                    <octave>4</octave>
                </pitch>
                <duration>4</duration>
                <voice>1</voice>
                <type>quarter</type>
                <stem>up</stem>
                <lyric number="1">
                    <syllabic>begin</syllabic>
                    <text>to</text>
                </lyric>
            </note>
        </measure>
        <measure width="183.51" number="15">
            <harmony print-frame="no">
                <root>
                    <root-step>G</root-step>
                </root>
                <kind text="">major</kind>
            </harmony>
            <note default-y="-20.00" default-x="27.87">
                <pitch>
                    <step>B</step>
                    <octave>4</octave>
                </pitch>
                <duration>8</duration>
                <voice>1</voice>
                <type>half</type>
                <stem>down</stem>
                <lyric number="1">
                    <syllabic>middle</syllabic>
                    <text>geth</text>
                </lyric>
            </note>
            <harmony print-frame="no">
                <root>
                    <root-step>G</root-step>
                </root>
                <kind text="Maj7">major-seventh</kind>
            </harmony>
            <note default-y="-20.00" default-x="104.89">
                <pitch>
                    <step>B</step>
                    <octave>4</octave>
                </pitch>
                <duration>8</duration>
                <tie type="start"/>
                <voice>1</voice>
                <type>half</type>
                <stem>down</stem>
                <notations>
                    <tied type="start"/>
                </notations>
                <lyric number="1">
                    <syllabic>end</syllabic>
                    <text>er</text>
                </lyric>
            </note>
        </measure>
        <measure width="123.91" number="16">
            <harmony print-frame="no">
                <root>
                    <root-step>G</root-step>
                </root>
                <kind text="7">dominant</kind>
            </harmony>
            <note default-y="-20.00" default-x="15.00">
                <pitch>
                    <step>B</step>
                    <octave>4</octave>
                </pitch>
                <duration>12</duration>
                <tie type="stop"/>
                <voice>1</voice>
                <type>half</type>
                <dot/>
                <stem>down</stem>
                <notations>
                    <tied type="stop"/>
                </notations>
            </note>
            <note>
                <rest/>
                <duration>4</duration>
                <voice>1</voice>
                <type>quarter</type>
            </note>
        </measure>
        <measure width="285.91" number="17">
            <print new-system="yes">
                <system-layout>
                    <system-margins>
                        <left-margin>47.28</left-margin>
                        <right-margin>0.00</right-margin>
                    </system-margins>
                    <system-distance>153.73</system-distance>
                </system-layout>
            </print>
            <harmony print-frame="no">
                <root>
                    <root-step>C</root-step>
                </root>
                <kind text="Maj7">major-seventh</kind>
            </harmony>
            <note default-y="-20.00" default-x="93.97">
                <pitch>
                    <step>B</step>
                    <octave>4</octave>
                </pitch>
                <duration>4</duration>
                <voice>1</voice>
                <type>quarter</type>
                <stem>down</stem>
                <lyric number="1">
                    <syllabic>begin</syllabic>
                    <text>Look</text>
                </lyric>
            </note>
            <note default-y="-15.00" default-x="143.06">
                <pitch>
                    <step>C</step>
                    <octave>5</octave>
                </pitch>
                <duration>4</duration>
                <voice>1</voice>
                <type>quarter</type>
                <stem>down</stem>
                <lyric number="1">
                    <syllabic>end</syllabic>
                    <text>ing</text>
                </lyric>
            </note>
            <harmony print-frame="no">
                <root>
                    <root-step>A</root-step>
                </root>
                <kind text="m7">minor-seventh</kind>
            </harmony>
            <note default-y="-30.00" default-x="192.14">
                <pitch>
                    <step>G</step>
                    <octave>4</octave>
                </pitch>
                <duration>6</duration>
                <voice>1</voice>
                <type>quarter</type>
                <dot/>
                <stem>up</stem>
                <lyric number="1">
                    <syllabic>single</syllabic>
                    <text>thru</text>
                </lyric>
            </note>
            <note default-y="-25.00" default-x="251.99">
                <pitch>
                    <step>A</step>
                    <octave>4</octave>
                </pitch>
                <duration>2</duration>
                <voice>1</voice>
                <type>eighth</type>
                <stem>up</stem>
                <lyric number="1">
                    <syllabic>single</syllabic>
                    <text>the</text>
                </lyric>
            </note>
        </measure>
        <measure width="219.80" number="18">
            <harmony print-frame="no">
                <root>
                    <root-step>D</root-step>
                </root>
                <kind text="m7">minor-seventh</kind>
            </harmony>
            <note default-y="-15.00" default-x="25.37">
                <pitch>
                    <step>C</step>
                    <octave>5</octave>
                </pitch>
                <duration>4</duration>
                <voice>1</voice>
                <type>quarter</type>
                <stem>down</stem>
                <lyric number="1">
                    <syllabic>begin</syllabic>
                    <text>win</text>
                </lyric>
            </note>
            <note default-y="-20.00" default-x="75.23">
                <pitch>
                    <step>B</step>
                    <octave>4</octave>
                </pitch>
                <duration>4</duration>
                <voice>1</voice>
                <type>quarter</type>
                <stem>down</stem>
                <lyric number="1">
                    <syllabic>end</syllabic>
                    <text>dow</text>
                </lyric>
            </note>
            <harmony print-frame="no">
                <root>
                    <root-step>G</root-step>
                </root>
                <kind text="7">dominant</kind>
            </harmony>
            <note default-y="-35.00" default-x="125.09">
                <pitch>
                    <step>F</step>
                    <octave>4</octave>
                </pitch>
                <duration>6</duration>
                <voice>1</voice>
                <type>quarter</type>
                <dot/>
                <accidental>natural</accidental>
                <stem>up</stem>
                <lyric number="1">
                    <syllabic>single</syllabic>
                    <text>you</text>
                </lyric>
            </note>
            <note default-y="-30.00" default-x="185.88">
                <pitch>
                    <step>G</step>
                    <octave>4</octave>
                </pitch>
                <duration>2</duration>
                <voice>1</voice>
                <type>eighth</type>
                <stem>up</stem>
                <lyric number="1">
                    <syllabic>single</syllabic>
                    <text>can</text>
                </lyric>
            </note>
        </measure>
        <measure width="182.50" number="19">
            <harmony print-frame="no">
                <root>
                    <root-step>C</root-step>
                </root>
                <kind text="Maj7">major-seventh</kind>
            </harmony>
            <note default-y="-20.00" default-x="22.86">
                <pitch>
                    <step>B</step>
                    <octave>4</octave>
                </pitch>
                <duration>4</duration>
                <voice>1</voice>
                <type>quarter</type>
                <stem>down</stem>
                <lyric number="1">
                    <syllabic>single</syllabic>
                    <text>see</text>
                </lyric>
            </note>
            <note default-y="-25.00" default-x="62.37">
                <pitch>
                    <step>A</step>
                    <octave>4</octave>
                </pitch>
                <duration>4</duration>
                <voice>1</voice>
                <type>quarter</type>
                <stem>up</stem>
                <lyric number="1">
                    <syllabic>single</syllabic>
                    <text>a</text>
                </lyric>
            </note>
            <harmony print-frame="no">
                <root>
                    <root-step>F</root-step>
                    <root-alter>1</root-alter>
                </root>
                <kind text="7b5">dominant</kind>
                <degree>
                    <degree-value>5</degree-value>
                    <degree-alter>-1</degree-alter>
                    <degree-type>alter</degree-type>
                </degree>
            </harmony>
            <note default-y="-40.00" default-x="101.88">
                <pitch>
                    <step>E</step>
                    <octave>4</octave>
                </pitch>
                <duration>4</duration>
                <voice>1</voice>
                <type>quarter</type>
                <stem>up</stem>
                <lyric number="1">
                    <syllabic>begin</syllabic>
                    <text>dis</text>
                </lyric>
            </note>
            <note default-y="-35.00" default-x="141.39">
                <pitch>
                    <step>F</step>
                    <alter>1</alter>
                    <octave>4</octave>
                </pitch>
                <duration>4</duration>
                <voice>1</voice>
                <type>quarter</type>
                <stem>up</stem>
                <lyric number="1">
                    <syllabic>end</syllabic>
                    <text>tant</text>
                </lyric>
            </note>
        </measure>
        <measure width="150.87" number="20">
            <harmony print-frame="no">
                <root>
                    <root-step>B</root-step>
                </root>
                <kind text="m7">minor-seventh</kind>
            </harmony>
            <note default-y="-25.00" default-x="31.63">
                <pitch>
                    <step>A</step>
                    <octave>4</octave>
                </pitch>
                <duration>4</duration>
                <voice>1</voice>
                <type>quarter</type>
                <stem>up</stem>
                <lyric number="1">
                    <syllabic>begin</syllabic>
                    <text>steep</text>
                </lyric>
            </note>
            <note default-y="-30.00" default-x="73.00">
                <pitch>
                    <step>G</step>
                    <alter>1</alter>
                    <octave>4</octave>
                </pitch>
                <duration>8</duration>
                <voice>1</voice>
                <type>half</type>
                <accidental>sharp</accidental>
                <stem>up</stem>
                <lyric number="1">
                    <syllabic>end</syllabic>
                    <text>le</text>
                </lyric>
            </note>
            <harmony print-frame="no">
                <root>
                    <root-step>E</root-step>
                </root>
                <kind text="7">dominant</kind>
            </harmony>
            <note>
                <rest/>
                <duration>4</duration>
                <voice>1</voice>
                <type>quarter</type>
            </note>
        </measure>
        <measure width="190.74" number="21">
            <harmony print-frame="no">
                <root>
                    <root-step>A</root-step>
                </root>
                <kind text="m7">minor-seventh</kind>
            </harmony>
            <note default-y="-20.00" default-x="22.87">
                <pitch>
                    <step>B</step>
                    <octave>4</octave>
                </pitch>
                <duration>4</duration>
                <voice>1</voice>
                <type>quarter</type>
                <stem>down</stem>
                <lyric number="1">
                    <syllabic>single</syllabic>
                    <text>not</text>
                </lyric>
            </note>
            <note default-y="-25.00" default-x="64.48">
                <pitch>
                    <step>A</step>
                    <octave>4</octave>
                </pitch>
                <duration>4</duration>
                <voice>1</voice>
                <type>quarter</type>
                <stem>up</stem>
                <lyric number="1">
                    <syllabic>single</syllabic>
                    <text>a</text>
                </lyric>
            </note>
            <harmony print-frame="no">
                <root>
                    <root-step>F</root-step>
                    <root-alter>1</root-alter>
                </root>
                <kind text="m7b5">half-diminished</kind>
            </harmony>
            <note default-y="-40.00" default-x="106.08">
                <pitch>
                    <step>E</step>
                    <octave>4</octave>
                </pitch>
                <duration>6</duration>
                <voice>1</voice>
                <type>quarter</type>
                <dot/>
                <stem>up</stem>
                <lyric number="1">
                    <syllabic>single</syllabic>
                    <text>sign</text>
                </lyric>
            </note>
            <note default-y="-35.00" default-x="156.82">
                <pitch>
                    <step>F</step>
                    <alter>1</alter>
                    <octave>4</octave>
                </pitch>
                <duration>2</duration>
                <voice>1</voice>
                <type>eighth</type>
                <stem>up</stem>
                <lyric number="1">
                    <syllabic>single</syllabic>
                    <text>of</text>
                </lyric>
            </note>
        </measure>
        <measure width="205.94" number="22">
            <print new-system="yes">
                <system-layout>
                    <system-margins>
                        <left-margin>47.28</left-margin>
                        <right-margin>0.00</right-margin>
                    </system-margins>
                    <system-distance>153.73</system-distance>
                </system-layout>
            </print>
            <harmony print-frame="no">
                <root>
                    <root-step>B</root-step>
                </root>
                <kind text="m7">minor-seventh</kind>
            </harmony>
            <note default-y="-25.00" default-x="86.46">
                <pitch>
                    <step>A</step>
                    <octave>4</octave>
                </pitch>
                <duration>4</duration>
                <voice>1</voice>
                <type>quarter</type>
                <stem>up</stem>
                <lyric number="1">
                    <syllabic>begin</syllabic>
                    <text>peo</text>
                </lyric>
            </note>
            <note default-y="-30.00" default-x="122.43">
                <pitch>
                    <step>G</step>
                    <alter>1</alter>
                    <octave>4</octave>
                </pitch>
                <duration>8</duration>
                <voice>1</voice>
                <type>half</type>
                <accidental>sharp</accidental>
                <stem>up</stem>
                <lyric number="1">
                    <syllabic>end</syllabic>
                    <text>ple</text>
                </lyric>
            </note>
            <harmony print-frame="no">
                <root>
                    <root-step>E</root-step>
                </root>
                <kind text="7">dominant</kind>
            </harmony>
            <note>
                <rest/>
                <duration>4</duration>
                <voice>1</voice>
                <type>quarter</type>
            </note>
        </measure>
        <measure width="179.86" number="23">
            <harmony print-frame="no">
                <root>
                    <root-step>D</root-step>
                </root>
                <kind text="m7b5">half-diminished</kind>
            </harmony>
            <note default-y="-35.00" default-x="27.87">
                <pitch>
                    <step>F</step>
                    <octave>4</octave>
                </pitch>
                <duration>4</duration>
                <voice>1</voice>
                <type>quarter</type>
                <accidental>natural</accidental>
                <stem>up</stem>
                <lyric number="1">
                    <syllabic>end</syllabic>
                    <text>who</text>
                </lyric>
            </note>
            <note default-y="-40.00" default-x="79.51">
                <pitch>
                    <step>E</step>
                    <octave>4</octave>
                </pitch>
                <duration>4</duration>
                <voice>1</voice>
                <type>quarter</type>
                <stem>up</stem>
                <lyric number="1">
                    <syllabic>single</syllabic>
                    <text>wants</text>
                </lyric>
            </note>
            <harmony print-frame="no">
                <root>
                    <root-step>E</root-step>
                </root>
                <kind text="7">dominant</kind>
            </harmony>
            <note>
                <rest/>
                <duration>8</duration>
                <voice>1</voice>
                <type>half</type>
            </note>
        </measure>
        <measure width="154.23" number="24">
            <harmony print-frame="no">
                <root>
                    <root-step>A</root-step>
                </root>
                <kind text="m7b5">half-diminished</kind>
            </harmony>
            <note default-y="-40.00" default-x="24.74">
                <pitch>
                    <step>E</step>
                    <alter>-1</alter>
                    <octave>4</octave>
                </pitch>
                <duration>4</duration>
                <voice>1</voice>
                <type>quarter</type>
                <accidental>flat</accidental>
                <stem>up</stem>
                <lyric number="1">
                    <syllabic>begin</syllabic>
                    <text>peo</text>
                </lyric>
            </note>
            <note default-y="-45.00" default-x="65.72">
                <pitch>
                    <step>D</step>
                    <octave>4</octave>
                </pitch>
                <duration>8</duration>
                <voice>1</voice>
                <type>half</type>
                <stem>up</stem>
                <lyric number="1">
                    <syllabic>end</syllabic>
                    <text>ple?</text>
                </lyric>
            </note>
            <harmony print-frame="no">
                <root>
                    <root-step>D</root-step>
                </root>
                <kind text="7">dominant</kind>
            </harmony>
            <note>
                <rest/>
                <duration>4</duration>
                <voice>1</voice>
                <type>quarter</type>
            </note>
        </measure>
        <measure width="150.69" number="25">
            <harmony print-frame="no">
                <root>
                    <root-step>G</root-step>
                </root>
                <kind text="Maj7">major-seventh</kind>
            </harmony>
            <note default-y="-25.00" default-x="35.38">
                <pitch>
                    <step>A</step>
                    <octave>4</octave>
                </pitch>
                <duration>8</duration>
                <voice>1</voice>
                <type>half</type>
                <stem>up</stem>
                <lyric number="1">
                    <syllabic>single</syllabic>
                    <text>When</text>
                </lyric>
            </note>
            <note default-y="-30.00" default-x="92.23">
                <pitch>
                    <step>G</step>
                    <octave>4</octave>
                </pitch>
                <duration>8</duration>
                <voice>1</voice>
                <type>half</type>
                <stem>up</stem>
                <lyric number="1">
                    <syllabic>single</syllabic>
                    <text>the</text>
                </lyric>
            </note>
        </measure>
        <measure width="171.66" number="26">
            <note default-y="-25.00" default-x="25.99">
                <pitch>
                    <step>A</step>
                    <octave>4</octave>
                </pitch>
                <duration>4</duration>
                <voice>1</voice>
                <type>quarter</type>
                <stem>up</stem>
                <lyric number="1">
                    <syllabic>begin</syllabic>
                    <text>stee</text>
                </lyric>
            </note>
            <note default-y="-20.00" default-x="66.01">
                <pitch>
                    <step>B</step>
                    <octave>4</octave>
                </pitch>
                <duration>4</duration>
                <voice>1</voice>
                <type>quarter</type>
                <stem>down</stem>
                <lyric number="1">
                    <syllabic>end</syllabic>
                    <text>ple</text>
                </lyric>
            </note>
            <note default-y="-30.00" default-x="106.03">
                <pitch>
                    <step>G</step>
                    <octave>4</octave>
                </pitch>
                <duration>8</duration>
                <voice>1</voice>
                <type>half</type>
                <stem>up</stem>
                <lyric number="1">
                    <syllabic>single</syllabic>
                    <text>bell</text>
                </lyric>
            </note>
        </measure>
        <measure width="167.45" number="27">
            <note default-y="-35.00" default-x="27.88">
                <pitch>
                    <step>F</step>
                    <alter>1</alter>
                    <octave>4</octave>
                </pitch>
                <duration>8</duration>
                <voice>1</voice>
                <type>half</type>
                <stem>up</stem>
                <lyric number="1">
                    <syllabic>single</syllabic>
                    <text>says</text>
                </lyric>
            </note>
            <note default-y="-40.00" default-x="96.87">
                <pitch>
                    <step>E</step>
                    <octave>4</octave>
                </pitch>
                <duration>8</duration>
                <voice>1</voice>
                <type>half</type>
                <stem>up</stem>
                <lyric number="1">
                    <syllabic>single</syllabic>
                    <text>&quot;Good</text>
                </lyric>
            </note>
        </measure>
        <measure width="333.69" number="28">
            <print new-system="yes">
                <system-layout>
                    <system-margins>
                        <left-margin>47.28</left-margin>
                        <right-margin>0.00</right-margin>
                    </system-margins>
                    <system-distance>153.73</system-distance>
                </system-layout>
            </print>
            <harmony print-frame="no">
                <root>
                    <root-step>G</root-step>
                </root>
                <kind text="Maj7">major-seventh</kind>
                <bass>
                    <bass-step>B</bass-step>
                </bass>
            </harmony>
            <note default-y="-35.00" default-x="93.36">
                <pitch>
                    <step>F</step>
                    <alter>1</alter>
                    <octave>4</octave>
                </pitch>
                <duration>4</duration>
                <voice>1</voice>
                <type>quarter</type>
                <stem>up</stem>
                <lyric number="1">
                    <syllabic>single</syllabic>
                    <text>night</text>
                </lyric>
            </note>
            <note default-y="-30.00" default-x="153.04">
                <pitch>
                    <step>G</step>
                    <octave>4</octave>
                </pitch>
                <duration>4</duration>
                <voice>1</voice>
                <type>quarter</type>
                <stem>up</stem>
                <lyric number="1">
                    <syllabic>single</syllabic>
                    <text>sleep</text>
                </lyric>
            </note>
            <harmony print-frame="no">
                <root>
                    <root-step>B</root-step>
                    <root-alter>-1</root-alter>
                </root>
                <kind text="dim7">diminished-seventh</kind>
            </harmony>
            <note default-y="-40.00" default-x="212.73">
                <pitch>
                    <step>E</step>
                    <octave>4</octave>
                </pitch>
                <duration>4</duration>
                <voice>1</voice>
                <type>quarter</type>
                <stem>up</stem>
                <lyric number="1">
                    <syllabic>single</syllabic>
                    <text>well</text>
                </lyric>
            </note>
            <note default-y="-35.00" default-x="272.41">
                <pitch>
                    <step>F</step>
                    <alter>1</alter>
                    <octave>4</octave>
                </pitch>
                <duration>4</duration>
                <voice>1</voice>
                <type>quarter</type>
                <stem>up</stem>
                <lyric number="1">
                    <syllabic>single</syllabic>
                    <text>we'll</text>
                </lyric>
            </note>
        </measure>
        <measure width="247.61" number="29">
            <harmony print-frame="no">
                <root>
                    <root-step>A</root-step>
                </root>
                <kind text="m7">minor-seventh</kind>
            </harmony>
            <note default-y="-45.00" default-x="33.51">
                <pitch>
                    <step>D</step>
                    <octave>4</octave>
                </pitch>
                <duration>4</duration>
                <voice>1</voice>
                <type>quarter</type>
                <stem>up</stem>
                <lyric number="1">
                    <syllabic>single</syllabic>
                    <text>thank</text>
                </lyric>
            </note>
            <note default-y="-40.00" default-x="86.63">
                <pitch>
                    <step>E</step>
                    <octave>4</octave>
                </pitch>
                <duration>4</duration>
                <voice>1</voice>
                <type>quarter</type>
                <stem>up</stem>
                <lyric number="1">
                    <syllabic>single</syllabic>
                    <text>the</text>
                </lyric>
            </note>
            <harmony print-frame="no">
                <root>
                    <root-step>G</root-step>
                    <root-alter>-1</root-alter>
                </root>
                <kind text="dim7">diminished-seventh</kind>
            </harmony>
            <note default-y="-55.00" default-x="139.76">
                <pitch>
                    <step>B</step>
                    <octave>3</octave>
                </pitch>
                <duration>4</duration>
                <voice>1</voice>
                <type>quarter</type>
                <stem>up</stem>
                <lyric number="1">
                    <syllabic>single</syllabic>
                    <text>small</text>
                </lyric>
            </note>
            <note default-y="-50.00" default-x="192.88">
                <pitch>
                    <step>C</step>
                    <octave>4</octave>
                </pitch>
                <duration>4</duration>
                <voice>1</voice>
                <type>quarter</type>
                <stem>up</stem>
                <lyric number="1">
                    <syllabic>begin</syllabic>
                    <text>ho</text>
                </lyric>
            </note>
        </measure>
        <measure width="254.71" number="30">
            <harmony print-frame="no">
                <root>
                    <root-step>A</root-step>
                </root>
                <kind text="m7">minor-seventh</kind>
            </harmony>
            <note default-y="-45.00" default-x="19.73">
                <pitch>
                    <step>D</step>
                    <octave>4</octave>
                </pitch>
                <duration>8</duration>
                <tie type="start"/>
                <voice>1</voice>
                <type>half</type>
                <stem>up</stem>
                <notations>
                    <tied type="start"/>
                </notations>
                <lyric number="1">
                    <syllabic>end</syllabic>
                    <text>tel</text>
                </lyric>
            </note>
            <harmony print-frame="no">
                <root>
                    <root-step>D</root-step>
                </root>
                <kind text="7">dominant</kind>
            </harmony>
            <note default-y="-45.00" default-x="85.21">
                <pitch>
                    <step>D</step>
                    <octave>4</octave>
                </pitch>
                <duration>3</duration>
                <voice>1</voice>
                <type>eighth</type>
                <dot/>
                <stem>up</stem>
                <beam number="1">begin</beam>
            </note>
            <note default-y="-45.00" default-x="130.84">
                <pitch>
                    <step>D</step>
                    <octave>4</octave>
                </pitch>
                <duration>1</duration>
                <voice>1</voice>
                <type>16th</type>
                <stem>up</stem>
                <beam number="1">continue</beam>
                <lyric number="1">
                    <syllabic>single</syllabic>
                    <text>We'll</text>
                </lyric>
            </note>
            <note default-y="-45.00" default-x="184.10">
                <pitch>
                    <step>D</step>
                    <alter>1</alter>
                    <octave>4</octave>
                </pitch>
                <duration>3</duration>
                <voice>1</voice>
                <type>eighth</type>
                <dot/>
                <accidental>sharp</accidental>
                <stem>up</stem>
                <beam number="1">continue</beam>
                <lyric number="1">
                    <syllabic>single</syllabic>
                    <text>creep</text>
                </lyric>
            </note>
            <note default-y="-40.00" default-x="229.73">
                <pitch>
                    <step>E</step>
                    <octave>4</octave>
                </pitch>
                <duration>1</duration>
                <voice>1</voice>
                <type>16th</type>
                <stem>up</stem>
                <beam number="1">end</beam>
                <lyric number="1">
                    <syllabic>begin</syllabic>
                    <text>in</text>
                </lyric>
            </note>
        </measure>
        <measure width="193.81" number="31">
            <harmony print-frame="no">
                <root>
                    <root-step>B</root-step>
                    <root-alter>-1</root-alter>
                </root>
                <kind text="">major</kind>
            </harmony>
            <note default-y="-35.00" default-x="17.23">
                <pitch>
                    <step>F</step>
                    <octave>4</octave>
                </pitch>
                <duration>4</duration>
                <voice>1</voice>
                <type>quarter</type>
                <accidental>natural</accidental>
                <stem>up</stem>
                <lyric number="1">
                    <syllabic>end</syllabic>
                    <text>to</text>
                </lyric>
            </note>
            <note default-y="-30.00" default-x="60.98">
                <pitch>
                    <step>G</step>
                    <octave>4</octave>
                </pitch>
                <duration>4</duration>
                <voice>1</voice>
                <type>quarter</type>
                <stem>up</stem>
                <lyric number="1">
                    <syllabic>single</syllabic>
                    <text>our</text>
                </lyric>
            </note>
            <harmony print-frame="no">
                <root>
                    <root-step>G</root-step>
                </root>
                <kind text="7">dominant</kind>
            </harmony>
            <note default-y="-45.00" default-x="104.72">
                <pitch>
                    <step>D</step>
                    <octave>4</octave>
                </pitch>
                <duration>4</duration>
                <voice>1</voice>
                <type>quarter</type>
                <stem>up</stem>
                <lyric number="1">
                    <syllabic>begin</syllabic>
                    <text>lit</text>
                </lyric>
            </note>
            <note default-y="-40.00" default-x="148.46">
                <pitch>
                    <step>E</step>
                    <alter>-1</alter>
                    <octave>4</octave>
                </pitch>
                <duration>4</duration>
                <voice>1</voice>
                <type>quarter</type>
                <accidental>flat</accidental>
                <stem>up</stem>
                <lyric number="1">
                    <syllabic>end</syllabic>
                    <text>tle</text>
                </lyric>
            </note>
        </measure>
        <measure width="327.37" number="32">
            <print new-system="yes">
                <system-layout>
                    <system-margins>
                        <left-margin>47.28</left-margin>
                        <right-margin>0.00</right-margin>
                    </system-margins>
                    <system-distance>153.73</system-distance>
                </system-layout>
            </print>
            <harmony print-frame="no">
                <root>
                    <root-step>C</root-step>
                </root>
                <kind text="m7">minor-seventh</kind>
            </harmony>
            <note default-y="-35.00" default-x="91.48">
                <pitch>
                    <step>F</step>
                    <octave>4</octave>
                </pitch>
                <duration>8</duration>
                <tie type="start"/>
                <voice>1</voice>
                <type>half</type>
                <accidental>natural</accidental>
                <stem>up</stem>
                <notations>
                    <tied type="start"/>
                </notations>
                <lyric number="1">
                    <syllabic>single</syllabic>
                    <text>shell</text>
                </lyric>
            </note>
            <harmony print-frame="no">
                <root>
                    <root-step>F</root-step>
                </root>
                <kind text="7">dominant</kind>
            </harmony>
            <note default-y="-35.00" default-x="162.69">
                <pitch>
                    <step>F</step>
                    <octave>4</octave>
                </pitch>
                <duration>3</duration>
                <tie type="stop"/>
                <voice>1</voice>
                <type>eighth</type>
                <dot/>
                <stem>up</stem>
                <beam number="1">begin</beam>
                <notations>
                    <tied type="stop"/>
                </notations>
            </note>
            <note default-y="-35.00" default-x="212.32">
                <pitch>
                    <step>F</step>
                    <octave>4</octave>
                </pitch>
                <duration>1</duration>
                <voice>1</voice>
                <type>16th</type>
                <stem>up</stem>
                <beam number="1">continue</beam>
                <lyric number="1">
                    <syllabic>single</syllabic>
                    <text>and</text>
                </lyric>
            </note>
            <note default-y="-40.00" default-x="247.66">
                <pitch>
                    <step>E</step>
                    <octave>4</octave>
                </pitch>
                <duration>3</duration>
                <voice>1</voice>
                <type>eighth</type>
                <dot/>
                <stem>up</stem>
                <beam number="1">continue</beam>
                <lyric number="1">
                    <syllabic>single</syllabic>
                    <text>we</text>
                </lyric>
            </note>
            <note default-y="-40.00" default-x="297.28">
                <pitch>
                    <step>E</step>
                    <alter>-1</alter>
                    <octave>4</octave>
                </pitch>
                <duration>1</duration>
                <voice>1</voice>
                <type>16th</type>
                <accidental>flat</accidental>
                <stem>up</stem>
                <beam number="1">end</beam>
                <lyric number="1">
                    <syllabic>single</syllabic>
                    <text>will</text>
                </lyric>
            </note>
        </measure>
        <measure width="261.96" number="33">
            <harmony print-frame="no">
                <root>
                    <root-step>G</root-step>
                </root>
                <kind text="">major</kind>
            </harmony>
            <note default-y="-45.00" default-x="33.51">
                <pitch>
                    <step>D</step>
                    <octave>4</octave>
                </pitch>
                <duration>4</duration>
                <voice>1</voice>
                <type>quarter</type>
                <stem>up</stem>
                <lyric number="1">
                    <syllabic>single</syllabic>
                    <text>thank</text>
                </lyric>
            </note>
            <note default-y="-40.00" default-x="90.22">
                <pitch>
                    <step>E</step>
                    <octave>4</octave>
                </pitch>
                <duration>4</duration>
                <voice>1</voice>
                <type>quarter</type>
                <stem>up</stem>
                <lyric number="1">
                    <syllabic>single</syllabic>
                    <text>the</text>
                </lyric>
            </note>
            <harmony print-frame="no">
                <root>
                    <root-step>E</root-step>
                </root>
                <kind text="7b9">dominant</kind>
                <degree>
                    <degree-value>9</degree-value>
                    <degree-alter>-1</degree-alter>
                    <degree-type>add</degree-type>
                </degree>
            </harmony>
            <note default-y="-55.00" default-x="146.94">
                <pitch>
                    <step>B</step>
                    <octave>3</octave>
                </pitch>
                <duration>4</duration>
                <voice>1</voice>
                <type>quarter</type>
                <stem>up</stem>
                <lyric number="1">
                    <syllabic>single</syllabic>
                    <text>small</text>
                </lyric>
            </note>
            <note default-y="-50.00" default-x="203.65">
                <pitch>
                    <step>C</step>
                    <octave>4</octave>
                </pitch>
                <duration>4</duration>
                <voice>1</voice>
                <type>quarter</type>
                <stem>up</stem>
                <lyric number="1">
                    <syllabic>begin</syllabic>
                    <text>ho</text>
                </lyric>
            </note>
        </measure>
        <measure width="145.35" number="34">
            <harmony print-frame="no">
                <root>
                    <root-step>A</root-step>
                </root>
                <kind text="m7">minor-seventh</kind>
            </harmony>
            <note default-y="-45.00" default-x="19.73">
                <pitch>
                    <step>D</step>
                    <octave>4</octave>
                </pitch>
                <duration>12</duration>
                <voice>1</voice>
                <type>half</type>
                <dot/>
                <stem>up</stem>
                <lyric number="1">
                    <syllabic>end</syllabic>
                    <text>tel</text>
                </lyric>
            </note>
            <harmony print-frame="no">
                <root>
                    <root-step>D</root-step>
                </root>
                <kind text="7">dominant</kind>
            </harmony>
            <note default-y="-45.00" default-x="101.72">
                <pitch>
                    <step>D</step>
                    <octave>4</octave>
                </pitch>
                <duration>4</duration>
                <voice>1</voice>
                <type>quarter</type>
                <stem>up</stem>
                <lyric number="1">
                    <syllabic>begin</syllabic>
                    <text>to</text>
                </lyric>
            </note>
        </measure>
        <measure width="160.65" number="35">
            <harmony print-frame="no">
                <root>
                    <root-step>G</root-step>
                </root>
                <kind text="Maj7">major-seventh</kind>
            </harmony>
            <note default-y="-10.00" default-x="27.87">
                <pitch>
                    <step>D</step>
                    <octave>5</octave>
                </pitch>
                <duration>8</duration>
                <voice>1</voice>
                <type>half</type>
                <stem>down</stem>
                <lyric number="1">
                    <syllabic>begin</syllabic>
                    <text>geth</text>
                </lyric>
            </note>
            <harmony print-frame="no">
                <root>
                    <root-step>A</root-step>
                    <root-alter>-1</root-alter>
                </root>
                <kind text="9">dominant-ninth</kind>
            </harmony>
            <note default-y="-10.00" default-x="93.46">
                <pitch>
                    <step>D</step>
                    <octave>5</octave>
                </pitch>
                <duration>8</duration>
                <tie type="start"/>
                <voice>1</voice>
                <type>half</type>
                <stem>down</stem>
                <notations>
                    <tied type="start"/>
                </notations>
                <lyric number="1">
                    <syllabic>end</syllabic>
                    <text>er</text>
                </lyric>
            </note>
        </measure>
        <measure width="134.49" number="36">
            <harmony print-frame="no">
                <root>
                    <root-step>G</root-step>
                </root>
                <kind text="Maj9">major-ninth</kind>
            </harmony>
            <note default-y="-10.00" default-x="15.00">
                <pitch>
                    <step>D</step>
                    <octave>5</octave>
                </pitch>
                <duration>12</duration>
                <tie type="stop"/>
                <voice>1</voice>
                <type>half</type>
                <dot/>
                <stem>down</stem>
                <notations>
                    <tied type="stop"/>
                </notations>
            </note>
            <note>
                <rest/>
                <duration>4</duration>
                <voice>1</voice>
                <type>quarter</type>
            </note>
            <barline location="right">
                <bar-style>light-heavy</bar-style>
            </barline>
        </measure>
    </part>
</score-partwise>
