<?xml version="1.0" encoding="UTF-8"?>
<!DOCTYPE score-partwise PUBLIC "-//Recordare//DTD MusicXML 2.0 Partwise//EN" "http://www.musicxml.org/dtds/partwise.dtd">
<score-partwise version="2.0">
    <work>
        <work-number></work-number>
        <work-title></work-title>
    </work>
    <movement-number></movement-number>
    <movement-title>Games That Lovers Play</movement-title>
    <identification>
        <creator type="composer">James Last</creator>
        <creator type="poet">Larry Kusik, Eddie Snyder</creator>
        <rights>All Rights Reserved</rights>
        <encoding>
            <software>MuseScore 0.9.5</software>
            <encoding-date>2009-12-02</encoding-date>
            <software>ProxyMusic 2.0 c</software>
        </encoding>
        <source>http://wikifonia.org/node/3539/revisions/4590/view</source>
    </identification>
    <defaults>
        <scaling>
            <millimeters>7.056</millimeters>
            <tenths>40</tenths>
        </scaling>
        <page-layout>
            <page-height>1683.67</page-height>
            <page-width>1190.48</page-width>
            <page-margins type="both">
                <left-margin>56.6893</left-margin>
                <right-margin>56.6893</right-margin>
                <top-margin>56.6893</top-margin>
                <bottom-margin>113.379</bottom-margin>
            </page-margins>
        </page-layout>
    </defaults>
    <credit page="1">
        <credit-words font-size="24" default-y="1626.98" default-x="595.238" justify="center" valign="top">Games that lovers play</credit-words>
    </credit>
    <credit page="1">
        <credit-words font-size="12" default-y="1556.5" default-x="1133.79" justify="right" valign="top">James Last</credit-words>
    </credit>
    <credit page="1">
        <credit-words font-size="12" default-y="1556.5" default-x="56.6893" justify="left" valign="top">Gunter Loose  English: Larry Kusik and Eddie Snyder</credit-words>
    </credit>
    <part-list>
        <part-group type="start" number="1">
            <group-symbol>brace</group-symbol>
        </part-group>
        <score-part id="P1">
            <part-name>Electric Piano</part-name>
            <score-instrument id="P1-I3">
                <instrument-name>Electric Piano</instrument-name>
            </score-instrument>
            <midi-instrument id="P1-I3">
                <midi-channel>1</midi-channel>
                <midi-program>5</midi-program>
            </midi-instrument>
        </score-part>
    </part-list>
    <part id="P1">
        <measure width="381.30" number="1">
            <print>
                <system-layout>
                    <system-margins>
                        <left-margin>169.77</left-margin>
                        <right-margin>0.00</right-margin>
                    </system-margins>
                    <top-system-distance>180.00</top-system-distance>
                </system-layout>
            </print>
            <attributes>
                <divisions>480</divisions>
                <key>
                    <fifths>-1</fifths>
                    <mode>major</mode>
                </key>
                <time>
                    <beats>4</beats>
                    <beat-type>4</beat-type>
                </time>
                <clef>
                    <sign>G</sign>
                    <line>2</line>
                </clef>
            </attributes>
            <harmony print-frame="no">
                <root>
                    <root-step>F</root-step>
                </root>
                <kind text="">major</kind>
            </harmony>
            <note default-y="-50.00" default-x="115.62">
                <pitch>
                    <step>C</step>
                    <octave>4</octave>
                </pitch>
                <duration>720</duration>
                <voice>1</voice>
                <type>quarter</type>
                <dot/>
                <stem>up</stem>
                <lyric number="1">
                    <syllabic>single</syllabic>
                    <text>There</text>
                </lyric>
                <lyric number="2">
                    <syllabic>begin</syllabic>
                    <text>Some</text>
                </lyric>
            </note>
            <note default-y="-45.00" default-x="197.18">
                <pitch>
                    <step>D</step>
                    <octave>4</octave>
                </pitch>
                <duration>240</duration>
                <voice>1</voice>
                <type>eighth</type>
                <stem>up</stem>
                <lyric number="1">
                    <syllabic>single</syllabic>
                    <text>are</text>
                </lyric>
                <lyric number="2">
                    <syllabic>end</syllabic>
                    <text>times</text>
                </lyric>
            </note>
            <direction>
                <direction-type>
                    <words default-y="100">BOSSA</words>
                </direction-type>
            </direction>
            <note default-y="-45.00" default-x="256.33">
                <pitch>
                    <step>D</step>
                    <octave>4</octave>
                </pitch>
                <duration>720</duration>
                <voice>1</voice>
                <type>quarter</type>
                <dot/>
                <stem>up</stem>
                <lyric number="1">
                    <syllabic>single</syllabic>
                    <text>games</text>
                </lyric>
                <lyric number="2">
                    <syllabic>begin</syllabic>
                    <text>lov</text>
                </lyric>
            </note>
            <direction>
                <direction-type>
                    <words default-y="100">NOVA</words>
                </direction-type>
            </direction>
            <note default-y="-40.00" default-x="337.89">
                <pitch>
                    <step>E</step>
                    <octave>4</octave>
                </pitch>
                <duration>240</duration>
                <voice>1</voice>
                <type>eighth</type>
                <stem>up</stem>
                <lyric number="1">
                    <syllabic>single</syllabic>
                    <text>that</text>
                </lyric>
                <lyric number="2">
                    <syllabic>end</syllabic>
                    <text>ers</text>
                </lyric>
            </note>
        </measure>
        <measure width="246.61" number="2">
            <note default-y="-40.00" default-x="27.87">
                <pitch>
                    <step>E</step>
                    <octave>4</octave>
                </pitch>
                <duration>720</duration>
                <voice>1</voice>
                <type>quarter</type>
                <dot/>
                <stem>up</stem>
                <lyric number="1">
                    <syllabic>begin</syllabic>
                    <text>man</text>
                </lyric>
                <lyric number="2">
                    <syllabic>single</syllabic>
                    <text>hurt</text>
                </lyric>
            </note>
            <note default-y="-35.00" default-x="92.90">
                <pitch>
                    <step>F</step>
                    <octave>4</octave>
                </pitch>
                <duration>240</duration>
                <voice>1</voice>
                <type>eighth</type>
                <stem>up</stem>
                <lyric number="1">
                    <syllabic>end</syllabic>
                    <text>y</text>
                </lyric>
                <lyric number="2">
                    <syllabic>single</syllabic>
                    <text>each</text>
                </lyric>
            </note>
            <note default-y="-40.00" default-x="138.34">
                <pitch>
                    <step>E</step>
                    <octave>4</octave>
                </pitch>
                <duration>480</duration>
                <voice>1</voice>
                <type>quarter</type>
                <stem>up</stem>
                <lyric number="1">
                    <syllabic>begin</syllabic>
                    <text>fool</text>
                </lyric>
                <lyric number="2">
                    <syllabic>begin</syllabic>
                    <text>oth</text>
                </lyric>
            </note>
            <note default-y="-45.00" default-x="191.68">
                <pitch>
                    <step>D</step>
                    <octave>4</octave>
                </pitch>
                <duration>480</duration>
                <voice>1</voice>
                <type>quarter</type>
                <stem>up</stem>
                <lyric number="1">
                    <syllabic>end</syllabic>
                    <text>ish</text>
                </lyric>
                <lyric number="2">
                    <syllabic>end</syllabic>
                    <text>er</text>
                </lyric>
            </note>
        </measure>
        <measure width="155.20" number="3">
            <harmony print-frame="no">
                <root>
                    <root-step>G</root-step>
                </root>
                <kind text="">major</kind>
            </harmony>
            <note default-y="-20.00" default-x="22.87">
                <pitch>
                    <step>B</step>
                    <alter>-1</alter>
                    <octave>4</octave>
                </pitch>
                <duration>1440</duration>
                <voice>1</voice>
                <type>half</type>
                <dot/>
                <stem>down</stem>
                <lyric number="1">
                    <syllabic>begin</syllabic>
                    <text>lov</text>
                </lyric>
                <lyric number="2">
                    <syllabic>begin</syllabic>
                    <text>tel</text>
                </lyric>
            </note>
            <note default-y="-35.00" default-x="109.30">
                <pitch>
                    <step>F</step>
                    <octave>4</octave>
                </pitch>
                <duration>480</duration>
                <voice>1</voice>
                <type>quarter</type>
                <stem>up</stem>
                <lyric number="1">
                    <syllabic>end</syllabic>
                    <text>ers</text>
                </lyric>
                <lyric number="2">
                    <syllabic>end</syllabic>
                    <text>ling</text>
                </lyric>
            </note>
        </measure>
        <measure width="124.21" number="4">
            <harmony print-frame="no">
                <root>
                    <root-step>C</root-step>
                </root>
                <kind text="7">dominant</kind>
            </harmony>
            <note default-y="-40.00" default-x="27.87">
                <pitch>
                    <step>E</step>
                    <octave>4</octave>
                </pitch>
                <duration>1920</duration>
                <voice>1</voice>
                <type>whole</type>
                <lyric number="1">
                    <syllabic>single</syllabic>
                    <text>play</text>
                </lyric>
                <lyric number="2">
                    <syllabic>single</syllabic>
                    <text>lies</text>
                </lyric>
            </note>
        </measure>
        <measure width="342.81" number="5">
            <print new-system="yes">
                <system-layout>
                    <system-margins>
                        <left-margin>109.38</left-margin>
                        <right-margin>0.00</right-margin>
                    </system-margins>
                    <system-distance>131.36</system-distance>
                </system-layout>
            </print>
            <note default-y="-50.00" default-x="93.32">
                <pitch>
                    <step>C</step>
                    <octave>4</octave>
                </pitch>
                <duration>720</duration>
                <voice>1</voice>
                <type>quarter</type>
                <dot/>
                <stem>up</stem>
                <lyric number="1">
                    <syllabic>begin</syllabic>
                    <text>Blind</text>
                </lyric>
                <lyric number="2">
                    <syllabic>begin</syllabic>
                    <text>act</text>
                </lyric>
            </note>
            <note default-y="-45.00" default-x="173.15">
                <pitch>
                    <step>D</step>
                    <octave>4</octave>
                </pitch>
                <duration>240</duration>
                <voice>1</voice>
                <type>eighth</type>
                <stem>up</stem>
                <lyric number="1">
                    <syllabic>end</syllabic>
                    <text>ly</text>
                </lyric>
                <lyric number="2">
                    <syllabic>end</syllabic>
                    <text>ing</text>
                </lyric>
            </note>
            <note default-y="-45.00" default-x="220.46">
                <pitch>
                    <step>D</step>
                    <octave>4</octave>
                </pitch>
                <duration>720</duration>
                <voice>1</voice>
                <type>quarter</type>
                <dot/>
                <stem>up</stem>
                <lyric number="1">
                    <syllabic>begin</syllabic>
                    <text>chas</text>
                </lyric>
                <lyric number="2">
                    <syllabic>single</syllabic>
                    <text>out</text>
                </lyric>
            </note>
            <note default-y="-40.00" default-x="300.29">
                <pitch>
                    <step>E</step>
                    <octave>4</octave>
                </pitch>
                <duration>240</duration>
                <voice>1</voice>
                <type>eighth</type>
                <stem>up</stem>
                <lyric number="1">
                    <syllabic>end</syllabic>
                    <text>ing</text>
                </lyric>
                <lyric number="2">
                    <syllabic>begin</syllabic>
                    <text>cha</text>
                </lyric>
            </note>
        </measure>
        <measure width="281.68" number="6">
            <note default-y="-40.00" default-x="32.25">
                <pitch>
                    <step>E</step>
                    <octave>4</octave>
                </pitch>
                <duration>720</duration>
                <voice>1</voice>
                <type>quarter</type>
                <dot/>
                <stem>up</stem>
                <lyric number="1">
                    <syllabic>begin</syllabic>
                    <text>hap</text>
                </lyric>
                <lyric number="2">
                    <syllabic>end</syllabic>
                    <text>rades</text>
                </lyric>
            </note>
            <note default-y="-35.00" default-x="108.19">
                <pitch>
                    <step>F</step>
                    <octave>4</octave>
                </pitch>
                <duration>240</duration>
                <voice>1</voice>
                <type>eighth</type>
                <stem>up</stem>
                <lyric number="1">
                    <syllabic>end</syllabic>
                    <text>py</text>
                </lyric>
                <lyric number="2">
                    <syllabic>begin</syllabic>
                    <text>be</text>
                </lyric>
            </note>
            <note default-y="-40.00" default-x="155.52">
                <pitch>
                    <step>E</step>
                    <octave>4</octave>
                </pitch>
                <duration>480</duration>
                <voice>1</voice>
                <type>quarter</type>
                <stem>up</stem>
                <lyric number="1">
                    <syllabic>begin</syllabic>
                    <text>end</text>
                </lyric>
                <lyric number="2">
                    <syllabic>end</syllabic>
                    <text>hind</text>
                </lyric>
            </note>
            <note default-y="-45.00" default-x="217.80">
                <pitch>
                    <step>D</step>
                    <octave>4</octave>
                </pitch>
                <duration>480</duration>
                <voice>1</voice>
                <type>quarter</type>
                <stem>up</stem>
                <lyric number="1">
                    <syllabic>end</syllabic>
                    <text>ings</text>
                </lyric>
                <lyric number="2">
                    <syllabic>single</syllabic>
                    <text>their</text>
                </lyric>
            </note>
        </measure>
        <measure width="200.86" number="7">
            <harmony print-frame="no">
                <root>
                    <root-step>F</root-step>
                </root>
                <kind text="">major</kind>
            </harmony>
            <note default-y="-25.00" default-x="32.87">
                <pitch>
                    <step>A</step>
                    <octave>4</octave>
                </pitch>
                <duration>1440</duration>
                <voice>1</voice>
                <type>half</type>
                <dot/>
                <stem>up</stem>
                <lyric number="1">
                    <syllabic>single</syllabic>
                    <text>come</text>
                </lyric>
                <lyric number="2">
                    <syllabic>begin</syllabic>
                    <text>smil</text>
                </lyric>
            </note>
            <note default-y="-40.00" default-x="142.88">
                <pitch>
                    <step>E</step>
                    <octave>4</octave>
                </pitch>
                <duration>480</duration>
                <voice>1</voice>
                <type>quarter</type>
                <stem>up</stem>
                <lyric number="1">
                    <syllabic>single</syllabic>
                    <text>what</text>
                </lyric>
                <lyric number="2">
                    <syllabic>end</syllabic>
                    <text>ing</text>
                </lyric>
            </note>
        </measure>
        <measure width="142.37" number="8">
            <note default-y="-45.00" default-x="28.49">
                <pitch>
                    <step>D</step>
                    <octave>4</octave>
                </pitch>
                <duration>1920</duration>
                <voice>1</voice>
                <type>whole</type>
                <lyric number="1">
                    <syllabic>single</syllabic>
                    <text>may</text>
                </lyric>
                <lyric number="2">
                    <syllabic>single</syllabic>
                    <text>eyes</text>
                </lyric>
            </note>
        </measure>
        <measure width="282.43" number="9">
            <print new-system="yes">
                <system-layout>
                    <system-margins>
                        <left-margin>109.38</left-margin>
                        <right-margin>0.00</right-margin>
                    </system-margins>
                    <system-distance>131.36</system-distance>
                </system-layout>
            </print>
            <harmony print-frame="no">
                <root>
                    <root-step>F</root-step>
                </root>
                <kind text="7">dominant</kind>
            </harmony>
            <note default-y="-35.00" default-x="87.04">
                <pitch>
                    <step>F</step>
                    <octave>4</octave>
                </pitch>
                <duration>720</duration>
                <voice>1</voice>
                <type>quarter</type>
                <dot/>
                <stem>up</stem>
                <lyric number="1">
                    <syllabic>begin</syllabic>
                    <text>Nev</text>
                </lyric>
                <lyric number="2">
                    <syllabic>single</syllabic>
                    <text>If</text>
                </lyric>
            </note>
            <note default-y="-30.00" default-x="144.43">
                <pitch>
                    <step>G</step>
                    <octave>4</octave>
                </pitch>
                <duration>240</duration>
                <voice>1</voice>
                <type>eighth</type>
                <stem>up</stem>
                <lyric number="1">
                    <syllabic>end</syllabic>
                    <text>er</text>
                </lyric>
                <lyric number="2">
                    <syllabic>single</syllabic>
                    <text>you</text>
                </lyric>
            </note>
            <note default-y="-30.00" default-x="191.12">
                <pitch>
                    <step>G</step>
                    <octave>4</octave>
                </pitch>
                <duration>720</duration>
                <voice>1</voice>
                <type>quarter</type>
                <dot/>
                <stem>up</stem>
                <lyric number="1">
                    <syllabic>begin</syllabic>
                    <text>car</text>
                </lyric>
                <lyric number="2">
                    <syllabic>single</syllabic>
                    <text>love</text>
                </lyric>
            </note>
            <note default-y="-25.00" default-x="248.51">
                <pitch>
                    <step>A</step>
                    <octave>4</octave>
                </pitch>
                <duration>240</duration>
                <voice>1</voice>
                <type>eighth</type>
                <stem>up</stem>
                <lyric number="1">
                    <syllabic>end</syllabic>
                    <text>ing</text>
                </lyric>
                <lyric number="2">
                    <syllabic>single</syllabic>
                    <text>me</text>
                </lyric>
            </note>
        </measure>
        <measure width="227.53" number="10">
            <note default-y="-25.00" default-x="27.87">
                <pitch>
                    <step>A</step>
                    <octave>4</octave>
                </pitch>
                <duration>720</duration>
                <voice>1</voice>
                <type>quarter</type>
                <dot/>
                <stem>up</stem>
                <lyric number="1">
                    <syllabic>single</syllabic>
                    <text>who</text>
                </lyric>
                <lyric number="2">
                    <syllabic>begin</syllabic>
                    <text>dar</text>
                </lyric>
            </note>
            <note default-y="-20.00" default-x="86.89">
                <pitch>
                    <step>B</step>
                    <alter>-1</alter>
                    <octave>4</octave>
                </pitch>
                <duration>240</duration>
                <voice>1</voice>
                <type>eighth</type>
                <stem>down</stem>
                <lyric number="1">
                    <syllabic>single</syllabic>
                    <text>gets</text>
                </lyric>
                <lyric number="2">
                    <syllabic>end</syllabic>
                    <text>ling</text>
                </lyric>
            </note>
            <note default-y="-25.00" default-x="129.13">
                <pitch>
                    <step>A</step>
                    <octave>4</octave>
                </pitch>
                <duration>480</duration>
                <voice>1</voice>
                <type>quarter</type>
                <stem>up</stem>
                <lyric number="1">
                    <syllabic>single</syllabic>
                    <text>hurt</text>
                </lyric>
                <lyric number="2">
                    <syllabic>single</syllabic>
                    <text>you</text>
                </lyric>
            </note>
            <note default-y="-35.00" default-x="177.53">
                <pitch>
                    <step>F</step>
                    <octave>4</octave>
                </pitch>
                <duration>480</duration>
                <voice>1</voice>
                <type>quarter</type>
                <stem>up</stem>
                <lyric number="1">
                    <syllabic>begin</syllabic>
                    <text>a</text>
                </lyric>
                <lyric number="2">
                    <syllabic>single</syllabic>
                    <text>must</text>
                </lyric>
            </note>
        </measure>
        <measure width="128.00" number="11">
            <harmony print-frame="no">
                <root>
                    <root-step>B</root-step>
                    <root-alter>-1</root-alter>
                </root>
                <kind text="">major</kind>
            </harmony>
            <note default-y="-10.00" default-x="28.51">
                <pitch>
                    <step>D</step>
                    <octave>5</octave>
                </pitch>
                <duration>1440</duration>
                <voice>1</voice>
                <type>half</type>
                <dot/>
                <stem>down</stem>
                <lyric number="1">
                    <syllabic>end</syllabic>
                    <text>long</text>
                </lyric>
                <lyric number="2">
                    <syllabic>begin</syllabic>
                    <text>re</text>
                </lyric>
            </note>
            <note default-y="-25.00" default-x="93.23">
                <pitch>
                    <step>A</step>
                    <octave>4</octave>
                </pitch>
                <duration>480</duration>
                <voice>1</voice>
                <type>quarter</type>
                <stem>up</stem>
                <lyric number="1">
                    <syllabic>single</syllabic>
                    <text>the</text>
                </lyric>
                <lyric number="2">
                    <syllabic>middle</syllabic>
                    <text>al</text>
                </lyric>
            </note>
        </measure>
        <measure width="92.18" number="12">
            <note default-y="-30.00" default-x="27.24">
                <pitch>
                    <step>G</step>
                    <octave>4</octave>
                </pitch>
                <duration>1920</duration>
                <voice>1</voice>
                <type>whole</type>
                <lyric number="1">
                    <syllabic>single</syllabic>
                    <text>way</text>
                </lyric>
                <lyric number="2">
                    <syllabic>end</syllabic>
                    <text>ize</text>
                </lyric>
            </note>
        </measure>
        <measure width="237.58" number="13">
            <harmony print-frame="no">
                <root>
                    <root-step>F</root-step>
                </root>
                <kind text="">major</kind>
            </harmony>
            <note default-y="-50.00" default-x="27.87">
                <pitch>
                    <step>C</step>
                    <octave>4</octave>
                </pitch>
                <duration>720</duration>
                <voice>1</voice>
                <type>quarter</type>
                <dot/>
                <stem>up</stem>
                <lyric number="1">
                    <syllabic>single</syllabic>
                    <text>Lets</text>
                </lyric>
                <lyric number="2">
                    <syllabic>single</syllabic>
                    <text>we</text>
                </lyric>
            </note>
            <note default-y="-45.00" default-x="89.01">
                <pitch>
                    <step>D</step>
                    <octave>4</octave>
                </pitch>
                <duration>240</duration>
                <voice>1</voice>
                <type>eighth</type>
                <stem>up</stem>
                <lyric number="1">
                    <syllabic>single</syllabic>
                    <text>not</text>
                </lyric>
                <lyric number="2">
                    <syllabic>single</syllabic>
                    <text>cant</text>
                </lyric>
            </note>
            <note default-y="-45.00" default-x="135.70">
                <pitch>
                    <step>D</step>
                    <octave>4</octave>
                </pitch>
                <duration>480</duration>
                <voice>1</voice>
                <type>quarter</type>
                <stem>up</stem>
                <lyric number="1">
                    <syllabic>single</syllabic>
                    <text>play</text>
                </lyric>
                <lyric number="2">
                    <syllabic>single</syllabic>
                    <text>play</text>
                </lyric>
            </note>
            <note default-y="-40.00" default-x="185.84">
                <pitch>
                    <step>E</step>
                    <octave>4</octave>
                </pitch>
                <duration>480</duration>
                <voice>1</voice>
                <type>quarter</type>
                <stem>up</stem>
                <lyric number="1">
                    <syllabic>single</syllabic>
                    <text>those</text>
                </lyric>
                <lyric number="2">
                    <syllabic>single</syllabic>
                    <text>those</text>
                </lyric>
            </note>
        </measure>
        <measure width="387.37" number="14">
            <print new-system="yes">
                <system-layout>
                    <system-margins>
                        <left-margin>109.38</left-margin>
                        <right-margin>0.00</right-margin>
                    </system-margins>
                    <system-distance>131.36</system-distance>
                </system-layout>
            </print>
            <harmony print-frame="no">
                <root>
                    <root-step>G</root-step>
                </root>
                <kind text="">major</kind>
            </harmony>
            <note default-y="-45.00" default-x="97.06">
                <pitch>
                    <step>D</step>
                    <octave>4</octave>
                </pitch>
                <duration>720</duration>
                <voice>1</voice>
                <type>quarter</type>
                <dot/>
                <stem>up</stem>
                <lyric number="1">
                    <syllabic>single</syllabic>
                    <text>games</text>
                </lyric>
                <lyric number="2">
                    <syllabic>single</syllabic>
                    <text>games</text>
                </lyric>
            </note>
            <note default-y="-40.00" default-x="188.63">
                <pitch>
                    <step>E</step>
                    <octave>4</octave>
                </pitch>
                <duration>240</duration>
                <voice>1</voice>
                <type>eighth</type>
                <stem>up</stem>
                <lyric number="1">
                    <syllabic>single</syllabic>
                    <text>that</text>
                </lyric>
                <lyric number="2">
                    <syllabic>single</syllabic>
                    <text>that</text>
                </lyric>
            </note>
            <harmony print-frame="no">
                <root>
                    <root-step>C</root-step>
                </root>
                <kind text="7">dominant</kind>
            </harmony>
            <note default-y="-40.00" default-x="235.57">
                <pitch>
                    <step>E</step>
                    <octave>4</octave>
                </pitch>
                <duration>480</duration>
                <voice>1</voice>
                <type>quarter</type>
                <stem>up</stem>
                <lyric number="1">
                    <syllabic>begin</syllabic>
                    <text>lov</text>
                </lyric>
                <lyric number="2">
                    <syllabic>begin</syllabic>
                    <text>lov</text>
                </lyric>
            </note>
            <note default-y="-50.00" default-x="310.67">
                <pitch>
                    <step>C</step>
                    <octave>4</octave>
                </pitch>
                <duration>480</duration>
                <voice>1</voice>
                <type>quarter</type>
                <stem>up</stem>
                <lyric number="1">
                    <syllabic>end</syllabic>
                    <text>ers</text>
                </lyric>
                <lyric number="2">
                    <syllabic>end</syllabic>
                    <text>ers</text>
                </lyric>
            </note>
        </measure>
        <measure width="201.67" number="15">
            <harmony print-frame="no">
                <root>
                    <root-step>F</root-step>
                </root>
                <kind text="">major</kind>
            </harmony>
            <note default-y="-35.00" default-x="29.88">
                <pitch>
                    <step>F</step>
                    <octave>4</octave>
                </pitch>
                <duration>1920</duration>
                <tie type="start"/>
                <voice>1</voice>
                <type>whole</type>
                <notations>
                    <tied type="start"/>
                </notations>
                <lyric number="1">
                    <syllabic>single</syllabic>
                    <text>play</text>
                </lyric>
                <lyric number="2">
                    <syllabic>single</syllabic>
                    <text>play.</text>
                </lyric>
            </note>
        </measure>
        <measure width="193.14" number="16">
            <note default-y="-35.00" default-x="15.00">
                <pitch>
                    <step>F</step>
                    <octave>4</octave>
                </pitch>
                <duration>1440</duration>
                <tie type="stop"/>
                <voice>1</voice>
                <type>half</type>
                <dot/>
                <stem>up</stem>
                <notations>
                    <tied type="stop"/>
                </notations>
            </note>
            <note>
                <rest/>
                <duration>480</duration>
                <voice>1</voice>
                <type>quarter</type>
            </note>
        </measure>
        <measure width="185.54" number="17">
            <note>
                <rest/>
                <duration>1920</duration>
                <voice>1</voice>
            </note>
            <barline location="right">
                <bar-style>light-heavy</bar-style>
            </barline>
        </measure>
    </part>
</score-partwise>
