<?xml version="1.0" encoding="UTF-8"?>
<!DOCTYPE score-partwise PUBLIC "-//Recordare//DTD MusicXML 2.0 Partwise//EN" "http://www.musicxml.org/dtds/partwise.dtd">
<score-partwise version="2.0">
    <work>
        <work-number></work-number>
        <work-title></work-title>
    </work>
    <movement-number></movement-number>
    <movement-title>Juke Box Saturday Night</movement-title>
    <identification>
        <creator type="composer">Paul McGrane</creator>
        <creator type="poet">Al Stillman</creator>
        <rights>All Rights Reserved</rights>
        <encoding>
            <software>MuseScore 0.9.5</software>
            <encoding-date>2009-12-05</encoding-date>
            <software>ProxyMusic 2.0 c</software>
        </encoding>
        <source>http://wikifonia.org/node/3678/revisions/4759/view</source>
    </identification>
    <defaults>
        <scaling>
            <millimeters>7.056</millimeters>
            <tenths>40</tenths>
        </scaling>
        <page-layout>
            <page-height>1683.67</page-height>
            <page-width>1190.48</page-width>
            <page-margins type="both">
                <left-margin>56.6893</left-margin>
                <right-margin>56.6893</right-margin>
                <top-margin>56.6893</top-margin>
                <bottom-margin>113.379</bottom-margin>
            </page-margins>
        </page-layout>
    </defaults>
    <credit page="1">
        <credit-words font-size="24" default-y="1626.98" default-x="595.238" justify="center" valign="top">Juke Box Saturday Night</credit-words>
    </credit>
    <part-list>
        <score-part id="P1">
            <part-name>Voice</part-name>
            <score-instrument id="P1-I3">
                <instrument-name>Voice</instrument-name>
            </score-instrument>
            <midi-instrument id="P1-I3">
                <midi-channel>1</midi-channel>
                <midi-program>53</midi-program>
            </midi-instrument>
        </score-part>
    </part-list>
    <part id="P1">
        <measure width="436.62" number="1">
            <print>
                <system-layout>
                    <system-margins>
                        <left-margin>69.92</left-margin>
                        <right-margin>-0.00</right-margin>
                    </system-margins>
                    <top-system-distance>204.31</top-system-distance>
                </system-layout>
            </print>
            <attributes>
                <divisions>4</divisions>
                <key>
                    <fifths>-1</fifths>
                    <mode>major</mode>
                </key>
                <time symbol="cut">
                    <beats>2</beats>
                    <beat-type>2</beat-type>
                </time>
                <clef>
                    <sign>G</sign>
                    <line>2</line>
                </clef>
            </attributes>
            <harmony print-frame="no">
                <root>
                    <root-step>F</root-step>
                </root>
                <kind text="">major</kind>
            </harmony>
            <note default-y="-35.00" default-x="111.83">
                <pitch>
                    <step>F</step>
                    <octave>4</octave>
                </pitch>
                <duration>3</duration>
                <voice>1</voice>
                <type>eighth</type>
                <dot/>
                <stem>up</stem>
                <beam number="1">begin</beam>
                <lyric number="1">
                    <syllabic>begin</syllabic>
                    <text>Mop</text>
                </lyric>
            </note>
            <note default-y="-50.00" default-x="161.91">
                <pitch>
                    <step>C</step>
                    <octave>4</octave>
                </pitch>
                <duration>1</duration>
                <voice>1</voice>
                <type>16th</type>
                <stem>up</stem>
                <beam number="1">continue</beam>
                <lyric number="1">
                    <syllabic>end</syllabic>
                    <text>pin'</text>
                </lyric>
            </note>
            <note default-y="-40.00" default-x="195.55">
                <pitch>
                    <step>E</step>
                    <octave>4</octave>
                </pitch>
                <duration>3</duration>
                <voice>1</voice>
                <type>eighth</type>
                <dot/>
                <stem>up</stem>
                <beam number="1">continue</beam>
                <lyric number="1">
                    <syllabic>single</syllabic>
                    <text>up</text>
                </lyric>
            </note>
            <note default-y="-35.00" default-x="245.63">
                <pitch>
                    <step>F</step>
                    <octave>4</octave>
                </pitch>
                <duration>1</duration>
                <tie type="start"/>
                <voice>1</voice>
                <type>16th</type>
                <stem>up</stem>
                <beam number="1">end</beam>
                <notations>
                    <tied type="start"/>
                </notations>
                <lyric number="1">
                    <syllabic>middle</syllabic>
                    <text>so</text>
                </lyric>
            </note>
            <note default-y="-35.00" default-x="271.30">
                <pitch>
                    <step>F</step>
                    <octave>4</octave>
                </pitch>
                <duration>3</duration>
                <tie type="stop"/>
                <voice>1</voice>
                <type>eighth</type>
                <dot/>
                <stem>up</stem>
                <beam number="1">begin</beam>
                <notations>
                    <tied type="stop"/>
                </notations>
            </note>
            <note default-y="-50.00" default-x="321.38">
                <pitch>
                    <step>C</step>
                    <octave>4</octave>
                </pitch>
                <duration>1</duration>
                <voice>1</voice>
                <type>16th</type>
                <stem>up</stem>
                <beam number="1">continue</beam>
                <lyric number="1">
                    <syllabic>end</syllabic>
                    <text>da</text>
                </lyric>
            </note>
            <note default-y="-40.00" default-x="356.45">
                <pitch>
                    <step>E</step>
                    <octave>4</octave>
                </pitch>
                <duration>3</duration>
                <voice>1</voice>
                <type>eighth</type>
                <dot/>
                <stem>up</stem>
                <beam number="1">continue</beam>
                <lyric number="1">
                    <syllabic>single</syllabic>
                    <text>pop</text>
                </lyric>
            </note>
            <note default-y="-35.00" default-x="406.53">
                <pitch>
                    <step>F</step>
                    <octave>4</octave>
                </pitch>
                <duration>1</duration>
                <tie type="start"/>
                <voice>1</voice>
                <type>16th</type>
                <stem>up</stem>
                <beam number="1">end</beam>
                <notations>
                    <tied type="start"/>
                </notations>
                <lyric number="1">
                    <syllabic>begin</syllabic>
                    <text>rick</text>
                </lyric>
            </note>
        </measure>
        <measure width="170.61" number="2">
            <note default-y="-35.00" default-x="15.00">
                <pitch>
                    <step>F</step>
                    <octave>4</octave>
                </pitch>
                <duration>2</duration>
                <tie type="stop"/>
                <voice>1</voice>
                <type>eighth</type>
                <stem>up</stem>
                <notations>
                    <tied type="stop"/>
                </notations>
            </note>
            <note default-y="-25.00" default-x="57.31">
                <pitch>
                    <step>A</step>
                    <octave>4</octave>
                </pitch>
                <duration>6</duration>
                <tie type="start"/>
                <voice>1</voice>
                <type>quarter</type>
                <dot/>
                <stem>up</stem>
                <notations>
                    <tied type="start"/>
                </notations>
                <lyric number="1">
                    <syllabic>end</syllabic>
                    <text>eys</text>
                </lyric>
            </note>
            <note default-y="-25.00" default-x="109.81">
                <pitch>
                    <step>A</step>
                    <octave>4</octave>
                </pitch>
                <duration>8</duration>
                <tie type="stop"/>
                <voice>1</voice>
                <type>half</type>
                <stem>up</stem>
                <notations>
                    <tied type="stop"/>
                </notations>
            </note>
        </measure>
        <measure width="269.80" number="3">
            <note default-y="-35.00" default-x="17.23">
                <pitch>
                    <step>F</step>
                    <octave>4</octave>
                </pitch>
                <duration>2</duration>
                <voice>1</voice>
                <type>eighth</type>
                <stem>up</stem>
                <lyric number="1">
                    <syllabic>single</syllabic>
                    <text>to</text>
                </lyric>
            </note>
            <note default-y="-50.00" default-x="59.54">
                <pitch>
                    <step>C</step>
                    <octave>4</octave>
                </pitch>
                <duration>4</duration>
                <voice>1</voice>
                <type>quarter</type>
                <stem>up</stem>
                <lyric number="1">
                    <syllabic>single</syllabic>
                    <text>our</text>
                </lyric>
            </note>
            <note default-y="-35.00" default-x="119.57">
                <pitch>
                    <step>F</step>
                    <octave>4</octave>
                </pitch>
                <duration>2</duration>
                <tie type="start"/>
                <voice>1</voice>
                <type>eighth</type>
                <stem>up</stem>
                <notations>
                    <tied type="start"/>
                </notations>
                <lyric number="1">
                    <syllabic>single</syllabic>
                    <text>hearts</text>
                </lyric>
            </note>
            <note default-y="-35.00" default-x="157.08">
                <pitch>
                    <step>F</step>
                    <octave>4</octave>
                </pitch>
                <duration>2</duration>
                <tie type="stop"/>
                <voice>1</voice>
                <type>eighth</type>
                <stem>up</stem>
                <notations>
                    <tied type="stop"/>
                </notations>
            </note>
            <note default-y="-30.00" default-x="195.00">
                <pitch>
                    <step>G</step>
                    <octave>4</octave>
                </pitch>
                <duration>6</duration>
                <voice>1</voice>
                <type>quarter</type>
                <dot/>
                <stem>up</stem>
                <lyric number="1">
                    <syllabic>begin</syllabic>
                    <text>de</text>
                </lyric>
            </note>
        </measure>
        <measure width="130.15" number="4">
            <harmony print-frame="no">
                <root>
                    <root-step>F</root-step>
                </root>
                <kind text="7">dominant</kind>
            </harmony>
            <note default-y="-25.00" default-x="29.13">
                <pitch>
                    <step>A</step>
                    <octave>4</octave>
                </pitch>
                <duration>16</duration>
                <voice>1</voice>
                <type>whole</type>
                <lyric number="1">
                    <syllabic>end</syllabic>
                    <text>light</text>
                </lyric>
            </note>
        </measure>
        <measure width="437.97" number="5">
            <print new-system="yes">
                <system-layout>
                    <system-margins>
                        <left-margin>47.28</left-margin>
                        <right-margin>-0.00</right-margin>
                    </system-margins>
                    <system-distance>129.51</system-distance>
                </system-layout>
            </print>
            <harmony print-frame="no">
                <root>
                    <root-step>B</root-step>
                    <root-alter>-1</root-alter>
                </root>
                <kind text="">major</kind>
            </harmony>
            <note default-y="-20.00" default-x="92.04">
                <pitch>
                    <step>B</step>
                    <alter>-1</alter>
                    <octave>4</octave>
                </pitch>
                <duration>3</duration>
                <voice>1</voice>
                <type>eighth</type>
                <dot/>
                <stem>up</stem>
                <beam number="1">begin</beam>
                <lyric number="1">
                    <syllabic>begin</syllabic>
                    <text>Danc</text>
                </lyric>
            </note>
            <note default-y="-35.00" default-x="146.78">
                <pitch>
                    <step>F</step>
                    <octave>4</octave>
                </pitch>
                <duration>1</duration>
                <voice>1</voice>
                <type>16th</type>
                <stem>up</stem>
                <beam number="1">continue</beam>
                <lyric number="1">
                    <syllabic>end</syllabic>
                    <text>in'</text>
                </lyric>
            </note>
            <note default-y="-25.00" default-x="174.83">
                <pitch>
                    <step>A</step>
                    <octave>4</octave>
                </pitch>
                <duration>3</duration>
                <voice>1</voice>
                <type>eighth</type>
                <dot/>
                <stem>up</stem>
                <beam number="1">continue</beam>
                <lyric number="1">
                    <syllabic>single</syllabic>
                    <text>to</text>
                </lyric>
            </note>
            <note default-y="-20.00" default-x="229.56">
                <pitch>
                    <step>B</step>
                    <alter>-1</alter>
                    <octave>4</octave>
                </pitch>
                <duration>1</duration>
                <tie type="start"/>
                <voice>1</voice>
                <type>16th</type>
                <stem>up</stem>
                <beam number="1">end</beam>
                <notations>
                    <tied type="start"/>
                </notations>
                <lyric number="1">
                    <syllabic>begin</syllabic>
                    <text>swing</text>
                </lyric>
            </note>
            <note default-y="-20.00" default-x="261.46">
                <pitch>
                    <step>B</step>
                    <alter>-1</alter>
                    <octave>4</octave>
                </pitch>
                <duration>3</duration>
                <tie type="stop"/>
                <voice>1</voice>
                <type>eighth</type>
                <dot/>
                <stem>up</stem>
                <beam number="1">begin</beam>
                <notations>
                    <tied type="stop"/>
                </notations>
            </note>
            <note default-y="-35.00" default-x="316.19">
                <pitch>
                    <step>F</step>
                    <octave>4</octave>
                </pitch>
                <duration>1</duration>
                <voice>1</voice>
                <type>16th</type>
                <stem>up</stem>
                <beam number="1">continue</beam>
                <lyric number="1">
                    <syllabic>middle</syllabic>
                    <text>er</text>
                </lyric>
            </note>
            <note default-y="-25.00" default-x="345.62">
                <pitch>
                    <step>A</step>
                    <octave>4</octave>
                </pitch>
                <duration>3</duration>
                <voice>1</voice>
                <type>eighth</type>
                <dot/>
                <stem>up</stem>
                <beam number="1">continue</beam>
                <lyric number="1">
                    <syllabic>single</syllabic>
                    <text>oo</text>
                </lyric>
            </note>
            <note default-y="-20.00" default-x="400.36">
                <pitch>
                    <step>B</step>
                    <alter>-1</alter>
                    <octave>4</octave>
                </pitch>
                <duration>1</duration>
                <tie type="start"/>
                <voice>1</voice>
                <type>16th</type>
                <stem>up</stem>
                <beam number="1">end</beam>
                <notations>
                    <tied type="start"/>
                </notations>
                <lyric number="1">
                    <syllabic>begin</syllabic>
                    <text>quick</text>
                </lyric>
            </note>
        </measure>
        <measure width="158.65" number="6">
            <note default-y="-20.00" default-x="15.00">
                <pitch>
                    <step>B</step>
                    <alter>-1</alter>
                    <octave>4</octave>
                </pitch>
                <duration>2</duration>
                <tie type="stop"/>
                <voice>1</voice>
                <type>eighth</type>
                <stem>down</stem>
                <notations>
                    <tied type="stop"/>
                </notations>
            </note>
            <note default-y="-10.00" default-x="48.50">
                <pitch>
                    <step>D</step>
                    <octave>5</octave>
                </pitch>
                <duration>6</duration>
                <tie type="start"/>
                <voice>1</voice>
                <type>quarter</type>
                <dot/>
                <stem>down</stem>
                <notations>
                    <tied type="start"/>
                </notations>
                <lyric number="1">
                    <syllabic>end</syllabic>
                    <text>ies,</text>
                </lyric>
            </note>
            <note default-y="-10.00" default-x="99.52">
                <pitch>
                    <step>D</step>
                    <octave>5</octave>
                </pitch>
                <duration>8</duration>
                <tie type="stop"/>
                <voice>1</voice>
                <type>half</type>
                <stem>down</stem>
                <notations>
                    <tied type="stop"/>
                </notations>
            </note>
        </measure>
        <measure width="322.35" number="7">
            <harmony print-frame="no">
                <root>
                    <root-step>F</root-step>
                </root>
                <kind text="">major</kind>
            </harmony>
            <note default-y="-15.00" default-x="29.13">
                <pitch>
                    <step>C</step>
                    <octave>5</octave>
                </pitch>
                <duration>4</duration>
                <voice>1</voice>
                <type>quarter</type>
                <stem>down</stem>
                <lyric number="1">
                    <syllabic>single</syllabic>
                    <text>Juke</text>
                </lyric>
            </note>
            <harmony print-frame="no">
                <root>
                    <root-step>A</root-step>
                    <root-alter>-1</root-alter>
                </root>
                <kind text="7+">augmented-seventh</kind>
            </harmony>
            <note default-y="-20.00" default-x="92.68">
                <pitch>
                    <step>B</step>
                    <octave>4</octave>
                </pitch>
                <duration>4</duration>
                <voice>1</voice>
                <type>quarter</type>
                <accidental>natural</accidental>
                <stem>down</stem>
                <lyric number="1">
                    <syllabic>single</syllabic>
                    <text>box</text>
                </lyric>
            </note>
            <harmony print-frame="no">
                <root>
                    <root-step>G</root-step>
                </root>
                <kind text="m7">minor-seventh</kind>
            </harmony>
            <note default-y="-20.00" default-x="156.22">
                <pitch>
                    <step>B</step>
                    <alter>-1</alter>
                    <octave>4</octave>
                </pitch>
                <duration>2</duration>
                <voice>1</voice>
                <type>eighth</type>
                <accidental>flat</accidental>
                <stem>up</stem>
                <beam number="1">begin</beam>
                <lyric number="1">
                    <syllabic>begin</syllabic>
                    <text>Sat</text>
                </lyric>
            </note>
            <note default-y="-30.00" default-x="195.94">
                <pitch>
                    <step>G</step>
                    <alter>1</alter>
                    <octave>4</octave>
                </pitch>
                <duration>2</duration>
                <voice>1</voice>
                <type>eighth</type>
                <accidental>sharp</accidental>
                <stem>up</stem>
                <beam number="1">continue</beam>
                <lyric number="1">
                    <syllabic>middle</syllabic>
                    <text>ur</text>
                </lyric>
            </note>
            <harmony print-frame="no">
                <root>
                    <root-step>C</root-step>
                </root>
                <kind text="7">dominant</kind>
            </harmony>
            <note default-y="-25.00" default-x="235.66">
                <pitch>
                    <step>A</step>
                    <octave>4</octave>
                </pitch>
                <duration>2</duration>
                <voice>1</voice>
                <type>eighth</type>
                <stem>up</stem>
                <beam number="1">continue</beam>
                <lyric number="1">
                    <syllabic>end</syllabic>
                    <text>day</text>
                </lyric>
            </note>
            <note default-y="-35.00" default-x="281.04">
                <pitch>
                    <step>F</step>
                    <octave>4</octave>
                </pitch>
                <duration>2</duration>
                <tie type="start"/>
                <voice>1</voice>
                <type>eighth</type>
                <stem>up</stem>
                <beam number="1">end</beam>
                <notations>
                    <tied type="start"/>
                </notations>
                <lyric number="1">
                    <syllabic>single</syllabic>
                    <text>night</text>
                </lyric>
            </note>
        </measure>
        <measure width="110.85" number="8">
            <harmony print-frame="no">
                <root>
                    <root-step>F</root-step>
                </root>
                <kind text="">major</kind>
            </harmony>
            <note default-y="-35.00" default-x="15.00">
                <pitch>
                    <step>F</step>
                    <octave>4</octave>
                </pitch>
                <duration>16</duration>
                <tie type="stop"/>
                <voice>1</voice>
                <type>whole</type>
                <notations>
                    <tied type="stop"/>
                </notations>
            </note>
        </measure>
        <measure width="435.88" number="9">
            <print new-system="yes">
                <system-layout>
                    <system-margins>
                        <left-margin>47.28</left-margin>
                        <right-margin>-0.00</right-margin>
                    </system-margins>
                    <system-distance>129.51</system-distance>
                </system-layout>
            </print>
            <harmony print-frame="no">
                <root>
                    <root-step>F</root-step>
                </root>
                <kind text="">major</kind>
            </harmony>
            <note default-y="-35.00" default-x="93.31">
                <pitch>
                    <step>F</step>
                    <octave>4</octave>
                </pitch>
                <duration>3</duration>
                <voice>1</voice>
                <type>eighth</type>
                <dot/>
                <stem>up</stem>
                <beam number="1">begin</beam>
                <lyric number="1">
                    <syllabic>begin</syllabic>
                    <text>Good</text>
                </lyric>
            </note>
            <note default-y="-50.00" default-x="145.78">
                <pitch>
                    <step>C</step>
                    <octave>4</octave>
                </pitch>
                <duration>1</duration>
                <voice>1</voice>
                <type>16th</type>
                <stem>up</stem>
                <beam number="1">continue</beam>
                <lyric number="1">
                    <syllabic>end</syllabic>
                    <text>man</text>
                </lyric>
            </note>
            <note default-y="-40.00" default-x="187.39">
                <pitch>
                    <step>E</step>
                    <octave>4</octave>
                </pitch>
                <duration>3</duration>
                <voice>1</voice>
                <type>eighth</type>
                <dot/>
                <stem>up</stem>
                <beam number="1">continue</beam>
                <lyric number="1">
                    <syllabic>single</syllabic>
                    <text>and</text>
                </lyric>
            </note>
            <note default-y="-35.00" default-x="239.86">
                <pitch>
                    <step>F</step>
                    <octave>4</octave>
                </pitch>
                <duration>1</duration>
                <tie type="start"/>
                <voice>1</voice>
                <type>16th</type>
                <stem>up</stem>
                <beam number="1">end</beam>
                <notations>
                    <tied type="start"/>
                </notations>
                <lyric number="1">
                    <syllabic>begin</syllabic>
                    <text>Ky</text>
                </lyric>
            </note>
            <note default-y="-35.00" default-x="266.75">
                <pitch>
                    <step>F</step>
                    <octave>4</octave>
                </pitch>
                <duration>3</duration>
                <tie type="stop"/>
                <voice>1</voice>
                <type>eighth</type>
                <dot/>
                <stem>up</stem>
                <beam number="1">begin</beam>
                <notations>
                    <tied type="stop"/>
                </notations>
            </note>
            <note default-y="-50.00" default-x="319.22">
                <pitch>
                    <step>C</step>
                    <octave>4</octave>
                </pitch>
                <duration>1</duration>
                <voice>1</voice>
                <type>16th</type>
                <stem>up</stem>
                <beam number="1">continue</beam>
                <lyric number="1">
                    <syllabic>end</syllabic>
                    <text>ser</text>
                </lyric>
            </note>
            <note default-y="-40.00" default-x="354.57">
                <pitch>
                    <step>E</step>
                    <octave>4</octave>
                </pitch>
                <duration>3</duration>
                <voice>1</voice>
                <type>eighth</type>
                <dot/>
                <stem>up</stem>
                <beam number="1">continue</beam>
                <lyric number="1">
                    <syllabic>single</syllabic>
                    <text>and</text>
                </lyric>
            </note>
            <note default-y="-35.00" default-x="407.04">
                <pitch>
                    <step>F</step>
                    <octave>4</octave>
                </pitch>
                <duration>1</duration>
                <tie type="start"/>
                <voice>1</voice>
                <type>16th</type>
                <stem>up</stem>
                <beam number="1">end</beam>
                <notations>
                    <tied type="start"/>
                </notations>
                <lyric number="1">
                    <syllabic>begin</syllabic>
                    <text>Mil</text>
                </lyric>
            </note>
        </measure>
        <measure width="158.79" number="10">
            <note default-y="-35.00" default-x="15.00">
                <pitch>
                    <step>F</step>
                    <octave>4</octave>
                </pitch>
                <duration>2</duration>
                <tie type="stop"/>
                <voice>1</voice>
                <type>eighth</type>
                <stem>up</stem>
                <notations>
                    <tied type="stop"/>
                </notations>
            </note>
            <note default-y="-25.00" default-x="54.17">
                <pitch>
                    <step>A</step>
                    <octave>4</octave>
                </pitch>
                <duration>6</duration>
                <tie type="start"/>
                <voice>1</voice>
                <type>quarter</type>
                <dot/>
                <stem>up</stem>
                <notations>
                    <tied type="start"/>
                </notations>
                <lyric number="1">
                    <syllabic>end</syllabic>
                    <text>ler</text>
                </lyric>
            </note>
            <note default-y="-25.00" default-x="102.59">
                <pitch>
                    <step>A</step>
                    <octave>4</octave>
                </pitch>
                <duration>8</duration>
                <tie type="stop"/>
                <voice>1</voice>
                <type>half</type>
                <stem>up</stem>
                <notations>
                    <tied type="stop"/>
                </notations>
            </note>
        </measure>
        <measure width="292.74" number="11">
            <note default-y="-35.00" default-x="27.87">
                <pitch>
                    <step>F</step>
                    <octave>4</octave>
                </pitch>
                <duration>2</duration>
                <voice>1</voice>
                <type>eighth</type>
                <stem>up</stem>
                <lyric number="1">
                    <syllabic>single</syllabic>
                    <text>help</text>
                </lyric>
            </note>
            <note default-y="-50.00" default-x="65.42">
                <pitch>
                    <step>C</step>
                    <octave>4</octave>
                </pitch>
                <duration>4</duration>
                <voice>1</voice>
                <type>quarter</type>
                <stem>up</stem>
                <lyric number="1">
                    <syllabic>single</syllabic>
                    <text>to</text>
                </lyric>
            </note>
            <note default-y="-35.00" default-x="125.49">
                <pitch>
                    <step>F</step>
                    <octave>4</octave>
                </pitch>
                <duration>2</duration>
                <tie type="start"/>
                <voice>1</voice>
                <type>eighth</type>
                <stem>up</stem>
                <notations>
                    <tied type="start"/>
                </notations>
                <lyric number="1">
                    <syllabic>single</syllabic>
                    <text>make</text>
                </lyric>
            </note>
            <note default-y="-35.00" default-x="163.04">
                <pitch>
                    <step>F</step>
                    <octave>4</octave>
                </pitch>
                <duration>2</duration>
                <tie type="stop"/>
                <voice>1</voice>
                <type>eighth</type>
                <stem>up</stem>
                <notations>
                    <tied type="stop"/>
                </notations>
            </note>
            <note default-y="-30.00" default-x="217.89">
                <pitch>
                    <step>G</step>
                    <octave>4</octave>
                </pitch>
                <duration>6</duration>
                <voice>1</voice>
                <type>quarter</type>
                <dot/>
                <stem>up</stem>
                <lyric number="1">
                    <syllabic>single</syllabic>
                    <text>things</text>
                </lyric>
            </note>
        </measure>
        <measure width="142.41" number="12">
            <harmony print-frame="no">
                <root>
                    <root-step>F</root-step>
                </root>
                <kind text="">major</kind>
            </harmony>
            <note default-y="-25.00" default-x="38.21">
                <pitch>
                    <step>A</step>
                    <octave>4</octave>
                </pitch>
                <duration>16</duration>
                <voice>1</voice>
                <type>whole</type>
                <lyric number="1">
                    <syllabic>single</syllabic>
                    <text>bright,</text>
                </lyric>
            </note>
        </measure>
        <measure width="416.00" number="13">
            <print new-system="yes">
                <system-layout>
                    <system-margins>
                        <left-margin>47.28</left-margin>
                        <right-margin>-0.00</right-margin>
                    </system-margins>
                    <system-distance>129.51</system-distance>
                </system-layout>
            </print>
            <harmony print-frame="no">
                <root>
                    <root-step>B</root-step>
                    <root-alter>-1</root-alter>
                </root>
                <kind text="">major</kind>
            </harmony>
            <note default-y="-20.00" default-x="85.80">
                <pitch>
                    <step>B</step>
                    <alter>-1</alter>
                    <octave>4</octave>
                </pitch>
                <duration>3</duration>
                <voice>1</voice>
                <type>eighth</type>
                <dot/>
                <stem>up</stem>
                <beam number="1">begin</beam>
                <lyric number="1">
                    <syllabic>begin</syllabic>
                    <text>mix</text>
                </lyric>
            </note>
            <note default-y="-35.00" default-x="136.22">
                <pitch>
                    <step>F</step>
                    <octave>4</octave>
                </pitch>
                <duration>1</duration>
                <voice>1</voice>
                <type>16th</type>
                <stem>up</stem>
                <beam number="1">continue</beam>
                <lyric number="1">
                    <syllabic>end</syllabic>
                    <text>in'</text>
                </lyric>
            </note>
            <note default-y="-25.00" default-x="168.79">
                <pitch>
                    <step>A</step>
                    <octave>4</octave>
                </pitch>
                <duration>3</duration>
                <voice>1</voice>
                <type>eighth</type>
                <dot/>
                <stem>up</stem>
                <beam number="1">continue</beam>
                <lyric number="1">
                    <syllabic>single</syllabic>
                    <text>hot</text>
                </lyric>
            </note>
            <note default-y="-20.00" default-x="219.21">
                <pitch>
                    <step>B</step>
                    <alter>-1</alter>
                    <octave>4</octave>
                </pitch>
                <duration>1</duration>
                <tie type="start"/>
                <voice>1</voice>
                <type>16th</type>
                <stem>up</stem>
                <beam number="1">end</beam>
                <notations>
                    <tied type="start"/>
                </notations>
                <lyric number="1">
                    <syllabic>single</syllabic>
                    <text>licks</text>
                </lyric>
            </note>
            <note default-y="-20.00" default-x="245.47">
                <pitch>
                    <step>B</step>
                    <alter>-1</alter>
                    <octave>4</octave>
                </pitch>
                <duration>3</duration>
                <tie type="stop"/>
                <voice>1</voice>
                <type>eighth</type>
                <dot/>
                <stem>up</stem>
                <beam number="1">begin</beam>
                <notations>
                    <tied type="stop"/>
                </notations>
            </note>
            <note default-y="-35.00" default-x="295.89">
                <pitch>
                    <step>F</step>
                    <octave>4</octave>
                </pitch>
                <duration>1</duration>
                <voice>1</voice>
                <type>16th</type>
                <stem>up</stem>
                <beam number="1">continue</beam>
                <lyric number="1">
                    <syllabic>single</syllabic>
                    <text>with</text>
                </lyric>
            </note>
            <note default-y="-25.00" default-x="338.13">
                <pitch>
                    <step>A</step>
                    <octave>4</octave>
                </pitch>
                <duration>3</duration>
                <voice>1</voice>
                <type>eighth</type>
                <dot/>
                <stem>up</stem>
                <beam number="1">continue</beam>
                <lyric number="1">
                    <syllabic>begin</syllabic>
                    <text>van</text>
                </lyric>
            </note>
            <note default-y="-20.00" default-x="388.55">
                <pitch>
                    <step>B</step>
                    <alter>-1</alter>
                    <octave>4</octave>
                </pitch>
                <duration>1</duration>
                <tie type="start"/>
                <voice>1</voice>
                <type>16th</type>
                <stem>up</stem>
                <beam number="1">end</beam>
                <notations>
                    <tied type="start"/>
                </notations>
                <lyric number="1">
                    <syllabic>middle</syllabic>
                    <text>il</text>
                </lyric>
            </note>
        </measure>
        <measure width="148.62" number="14">
            <note default-y="-20.00" default-x="15.00">
                <pitch>
                    <step>B</step>
                    <alter>-1</alter>
                    <octave>4</octave>
                </pitch>
                <duration>2</duration>
                <tie type="stop"/>
                <voice>1</voice>
                <type>eighth</type>
                <stem>down</stem>
                <notations>
                    <tied type="stop"/>
                </notations>
            </note>
            <note default-y="-10.00" default-x="44.11">
                <pitch>
                    <step>D</step>
                    <octave>5</octave>
                </pitch>
                <duration>6</duration>
                <tie type="start"/>
                <voice>1</voice>
                <type>quarter</type>
                <dot/>
                <stem>down</stem>
                <notations>
                    <tied type="start"/>
                </notations>
                <lyric number="1">
                    <syllabic>end</syllabic>
                    <text>la,</text>
                </lyric>
            </note>
            <note default-y="-10.00" default-x="92.48">
                <pitch>
                    <step>D</step>
                    <octave>5</octave>
                </pitch>
                <duration>8</duration>
                <tie type="stop"/>
                <voice>1</voice>
                <type>half</type>
                <stem>down</stem>
                <notations>
                    <tied type="stop"/>
                </notations>
            </note>
        </measure>
        <measure width="319.82" number="15">
            <harmony print-frame="no">
                <root>
                    <root-step>F</root-step>
                </root>
                <kind text="">major</kind>
            </harmony>
            <note default-y="-15.00" default-x="29.13">
                <pitch>
                    <step>C</step>
                    <octave>5</octave>
                </pitch>
                <duration>4</duration>
                <voice>1</voice>
                <type>quarter</type>
                <stem>down</stem>
                <lyric number="1">
                    <syllabic>single</syllabic>
                    <text>Juke</text>
                </lyric>
            </note>
            <harmony print-frame="no">
                <root>
                    <root-step>A</root-step>
                    <root-alter>-1</root-alter>
                </root>
                <kind text="7+">augmented-seventh</kind>
            </harmony>
            <note default-y="-20.00" default-x="92.02">
                <pitch>
                    <step>B</step>
                    <octave>4</octave>
                </pitch>
                <duration>4</duration>
                <voice>1</voice>
                <type>quarter</type>
                <accidental>natural</accidental>
                <stem>down</stem>
                <lyric number="1">
                    <syllabic>single</syllabic>
                    <text>box</text>
                </lyric>
            </note>
            <harmony print-frame="no">
                <root>
                    <root-step>G</root-step>
                </root>
                <kind text="m7">minor-seventh</kind>
            </harmony>
            <note default-y="-20.00" default-x="154.91">
                <pitch>
                    <step>B</step>
                    <alter>-1</alter>
                    <octave>4</octave>
                </pitch>
                <duration>2</duration>
                <voice>1</voice>
                <type>eighth</type>
                <accidental>flat</accidental>
                <stem>up</stem>
                <beam number="1">begin</beam>
                <lyric number="1">
                    <syllabic>begin</syllabic>
                    <text>Sat</text>
                </lyric>
            </note>
            <note default-y="-30.00" default-x="194.22">
                <pitch>
                    <step>G</step>
                    <alter>1</alter>
                    <octave>4</octave>
                </pitch>
                <duration>2</duration>
                <voice>1</voice>
                <type>eighth</type>
                <accidental>sharp</accidental>
                <stem>up</stem>
                <beam number="1">continue</beam>
                <lyric number="1">
                    <syllabic>middle</syllabic>
                    <text>ur</text>
                </lyric>
            </note>
            <harmony print-frame="no">
                <root>
                    <root-step>C</root-step>
                </root>
                <kind text="7">dominant</kind>
            </harmony>
            <note default-y="-25.00" default-x="233.53">
                <pitch>
                    <step>A</step>
                    <octave>4</octave>
                </pitch>
                <duration>2</duration>
                <voice>1</voice>
                <type>eighth</type>
                <stem>up</stem>
                <beam number="1">continue</beam>
                <lyric number="1">
                    <syllabic>end</syllabic>
                    <text>day</text>
                </lyric>
            </note>
            <note default-y="-35.00" default-x="278.91">
                <pitch>
                    <step>F</step>
                    <octave>4</octave>
                </pitch>
                <duration>2</duration>
                <tie type="start"/>
                <voice>1</voice>
                <type>eighth</type>
                <stem>up</stem>
                <beam number="1">end</beam>
                <notations>
                    <tied type="start"/>
                </notations>
                <lyric number="1">
                    <syllabic>single</syllabic>
                    <text>night</text>
                </lyric>
            </note>
        </measure>
        <measure width="145.38" number="16">
            <harmony print-frame="no">
                <root>
                    <root-step>F</root-step>
                </root>
                <kind text="">major</kind>
            </harmony>
            <harmony relative-x="500.00" print-frame="no">
                <root>
                    <root-step>G</root-step>
                </root>
                <kind text="Maj7">major-seventh</kind>
            </harmony>
            <harmony relative-x="4000.00" print-frame="no">
                <root>
                    <root-step>F</root-step>
                </root>
                <kind text="">major</kind>
            </harmony>
            <note default-y="-35.00" default-x="15.00">
                <pitch>
                    <step>F</step>
                    <octave>4</octave>
                </pitch>
                <duration>16</duration>
                <tie type="stop"/>
                <voice>1</voice>
                <type>whole</type>
                <notations>
                    <tied type="stop"/>
                </notations>
            </note>
        </measure>
        <measure width="304.79" number="17">
            <print new-system="yes">
                <system-layout>
                    <system-margins>
                        <left-margin>47.28</left-margin>
                        <right-margin>-0.00</right-margin>
                    </system-margins>
                    <system-distance>129.51</system-distance>
                </system-layout>
            </print>
            <harmony print-frame="no">
                <root>
                    <root-step>C</root-step>
                </root>
                <kind text="m7">minor-seventh</kind>
            </harmony>
            <note default-y="-30.00" default-x="91.42">
                <pitch>
                    <step>G</step>
                    <octave>4</octave>
                </pitch>
                <duration>2</duration>
                <voice>1</voice>
                <type>eighth</type>
                <stem>up</stem>
                <lyric number="1">
                    <syllabic>single</syllabic>
                    <text>They</text>
                </lyric>
            </note>
            <note default-y="-35.00" default-x="134.91">
                <pitch>
                    <step>F</step>
                    <octave>4</octave>
                </pitch>
                <duration>4</duration>
                <voice>1</voice>
                <type>quarter</type>
                <stem>up</stem>
                <lyric number="1">
                    <syllabic>single</syllabic>
                    <text>put</text>
                </lyric>
            </note>
            <note default-y="-30.00" default-x="180.37">
                <pitch>
                    <step>G</step>
                    <octave>4</octave>
                </pitch>
                <duration>2</duration>
                <tie type="start"/>
                <voice>1</voice>
                <type>eighth</type>
                <stem>up</stem>
                <notations>
                    <tied type="start"/>
                </notations>
                <lyric number="1">
                    <syllabic>single</syllabic>
                    <text>noth</text>
                </lyric>
            </note>
            <harmony print-frame="no">
                <root>
                    <root-step>F</root-step>
                </root>
                <kind text="7">dominant</kind>
            </harmony>
            <note default-y="-30.00" default-x="209.68">
                <pitch>
                    <step>G</step>
                    <octave>4</octave>
                </pitch>
                <duration>2</duration>
                <tie type="stop"/>
                <voice>1</voice>
                <type>eighth</type>
                <stem>up</stem>
                <notations>
                    <tied type="stop"/>
                </notations>
                <lyric number="1">
                    <syllabic>begin</syllabic>
                    <text>'</text>
                </lyric>
            </note>
            <note default-y="-35.00" default-x="247.76">
                <pitch>
                    <step>F</step>
                    <octave>4</octave>
                </pitch>
                <duration>6</duration>
                <voice>1</voice>
                <type>quarter</type>
                <dot/>
                <stem>up</stem>
                <lyric number="1">
                    <syllabic>end</syllabic>
                    <text>in'</text>
                </lyric>
            </note>
        </measure>
        <measure width="140.77" number="18">
            <harmony print-frame="no">
                <root>
                    <root-step>C</root-step>
                </root>
                <kind text="m7">minor-seventh</kind>
            </harmony>
            <note default-y="-10.00" default-x="26.62">
                <pitch>
                    <step>D</step>
                    <octave>5</octave>
                </pitch>
                <duration>6</duration>
                <voice>1</voice>
                <type>quarter</type>
                <dot/>
                <stem>down</stem>
                <lyric number="1">
                    <syllabic>single</syllabic>
                    <text>past</text>
                </lyric>
            </note>
            <note default-y="-15.00" default-x="69.25">
                <pitch>
                    <step>C</step>
                    <octave>5</octave>
                </pitch>
                <duration>2</duration>
                <tie type="start"/>
                <voice>1</voice>
                <type>eighth</type>
                <stem>down</stem>
                <notations>
                    <tied type="start"/>
                </notations>
                <lyric number="1">
                    <syllabic>single</syllabic>
                    <text>us</text>
                </lyric>
            </note>
            <harmony print-frame="no">
                <root>
                    <root-step>F</root-step>
                </root>
                <kind text="7">dominant</kind>
            </harmony>
            <note default-y="-15.00" default-x="91.10">
                <pitch>
                    <step>C</step>
                    <octave>5</octave>
                </pitch>
                <duration>8</duration>
                <tie type="stop"/>
                <voice>1</voice>
                <type>half</type>
                <stem>down</stem>
                <notations>
                    <tied type="stop"/>
                </notations>
            </note>
        </measure>
        <measure width="253.98" number="19">
            <harmony print-frame="no">
                <root>
                    <root-step>B</root-step>
                    <root-alter>-1</root-alter>
                </root>
                <kind text="">major</kind>
            </harmony>
            <note default-y="-30.00" default-x="22.23">
                <pitch>
                    <step>G</step>
                    <octave>4</octave>
                </pitch>
                <duration>4</duration>
                <voice>1</voice>
                <type>quarter</type>
                <stem>up</stem>
                <lyric number="1">
                    <syllabic>single</syllabic>
                    <text>me</text>
                </lyric>
            </note>
            <note default-y="-35.00" default-x="74.20">
                <pitch>
                    <step>F</step>
                    <octave>4</octave>
                </pitch>
                <duration>4</duration>
                <voice>1</voice>
                <type>quarter</type>
                <stem>up</stem>
                <lyric number="1">
                    <syllabic>single</syllabic>
                    <text>and</text>
                </lyric>
            </note>
            <harmony print-frame="no">
                <root>
                    <root-step>F</root-step>
                </root>
                <kind text="7#5">augmented-seventh</kind>
            </harmony>
            <note default-y="-25.00" default-x="126.17">
                <pitch>
                    <step>A</step>
                    <octave>4</octave>
                </pitch>
                <duration>2</duration>
                <voice>1</voice>
                <type>eighth</type>
                <stem>up</stem>
                <lyric number="1">
                    <syllabic>begin</syllabic>
                    <text>hon</text>
                </lyric>
            </note>
            <note default-y="-35.00" default-x="164.09">
                <pitch>
                    <step>F</step>
                    <octave>4</octave>
                </pitch>
                <duration>4</duration>
                <voice>1</voice>
                <type>quarter</type>
                <stem>up</stem>
                <lyric number="1">
                    <syllabic>end</syllabic>
                    <text>ey</text>
                </lyric>
            </note>
            <note default-y="-30.00" default-x="216.07">
                <pitch>
                    <step>G</step>
                    <octave>4</octave>
                </pitch>
                <duration>2</duration>
                <voice>1</voice>
                <type>eighth</type>
                <stem>up</stem>
                <lyric number="1">
                    <syllabic>single</syllabic>
                    <text>lamb,</text>
                </lyric>
            </note>
        </measure>
        <measure width="83.84" number="20">
            <harmony print-frame="no">
                <root>
                    <root-step>B</root-step>
                    <root-alter>-1</root-alter>
                </root>
                <kind text="">major</kind>
            </harmony>
            <note default-y="-30.00" default-x="15.00">
                <pitch>
                    <step>G</step>
                    <octave>4</octave>
                </pitch>
                <duration>16</duration>
                <voice>1</voice>
                <type>whole</type>
            </note>
        </measure>
        <measure width="246.43" number="21">
            <harmony print-frame="no">
                <root>
                    <root-step>D</root-step>
                </root>
                <kind text="m7">minor-seventh</kind>
            </harmony>
            <note default-y="-25.00" default-x="27.87">
                <pitch>
                    <step>A</step>
                    <octave>4</octave>
                </pitch>
                <duration>2</duration>
                <voice>1</voice>
                <type>eighth</type>
                <stem>up</stem>
                <lyric number="1">
                    <syllabic>begin</syllabic>
                    <text>mak</text>
                </lyric>
            </note>
            <note default-y="-30.00" default-x="65.95">
                <pitch>
                    <step>G</step>
                    <octave>4</octave>
                </pitch>
                <duration>4</duration>
                <voice>1</voice>
                <type>quarter</type>
                <stem>up</stem>
                <lyric number="1">
                    <syllabic>end</syllabic>
                    <text>in'</text>
                </lyric>
            </note>
            <note default-y="-25.00" default-x="111.77">
                <pitch>
                    <step>A</step>
                    <octave>4</octave>
                </pitch>
                <duration>2</duration>
                <tie type="start"/>
                <voice>1</voice>
                <type>eighth</type>
                <stem>up</stem>
                <notations>
                    <tied type="start"/>
                </notations>
                <lyric number="1">
                    <syllabic>single</syllabic>
                    <text>one</text>
                </lyric>
            </note>
            <harmony print-frame="no">
                <root>
                    <root-step>G</root-step>
                </root>
                <kind text="7">dominant</kind>
            </harmony>
            <note default-y="-25.00" default-x="140.40">
                <pitch>
                    <step>A</step>
                    <octave>4</octave>
                </pitch>
                <duration>2</duration>
                <tie type="stop"/>
                <voice>1</voice>
                <type>eighth</type>
                <stem>up</stem>
                <notations>
                    <tied type="stop"/>
                </notations>
            </note>
            <note default-y="-30.00" default-x="188.97">
                <pitch>
                    <step>G</step>
                    <octave>4</octave>
                </pitch>
                <duration>6</duration>
                <voice>1</voice>
                <type>quarter</type>
                <dot/>
                <stem>up</stem>
                <lyric number="1">
                    <syllabic>single</syllabic>
                    <text>coke</text>
                </lyric>
            </note>
        </measure>
        <measure width="268.96" number="22">
            <print new-system="yes">
                <system-layout>
                    <system-margins>
                        <left-margin>47.28</left-margin>
                        <right-margin>-0.00</right-margin>
                    </system-margins>
                    <system-distance>129.51</system-distance>
                </system-layout>
            </print>
            <harmony print-frame="no">
                <root>
                    <root-step>D</root-step>
                </root>
                <kind text="m7">minor-seventh</kind>
            </harmony>
            <note default-y="-5.00" default-x="83.92">
                <pitch>
                    <step>E</step>
                    <octave>5</octave>
                </pitch>
                <duration>6</duration>
                <voice>1</voice>
                <type>quarter</type>
                <dot/>
                <stem>down</stem>
                <lyric number="1">
                    <syllabic>single</syllabic>
                    <text>last</text>
                </lyric>
            </note>
            <harmony print-frame="no">
                <root>
                    <root-step>G</root-step>
                </root>
                <kind text="7">dominant</kind>
            </harmony>
            <note default-y="-10.00" default-x="150.87">
                <pitch>
                    <step>D</step>
                    <octave>5</octave>
                </pitch>
                <duration>4</duration>
                <tie type="start"/>
                <voice>1</voice>
                <type>quarter</type>
                <stem>down</stem>
                <notations>
                    <tied type="start"/>
                </notations>
                <lyric number="1">
                    <syllabic>single</syllabic>
                    <text>us,</text>
                </lyric>
            </note>
            <note default-y="-10.00" default-x="200.42">
                <pitch>
                    <step>D</step>
                    <octave>5</octave>
                </pitch>
                <duration>6</duration>
                <tie type="stop"/>
                <voice>1</voice>
                <type>quarter</type>
                <dot/>
                <stem>down</stem>
                <notations>
                    <tied type="stop"/>
                </notations>
            </note>
        </measure>
        <measure width="277.83" number="23">
            <harmony print-frame="no">
                <root>
                    <root-step>G</root-step>
                </root>
                <kind text="m7">minor-seventh</kind>
            </harmony>
            <note default-y="-15.00" default-x="19.89">
                <pitch>
                    <step>C</step>
                    <octave>5</octave>
                </pitch>
                <duration>2</duration>
                <voice>1</voice>
                <type>eighth</type>
                <stem>down</stem>
                <lyric number="1">
                    <syllabic>single</syllabic>
                    <text>'til</text>
                </lyric>
            </note>
            <note default-y="-15.00" default-x="56.75">
                <pitch>
                    <step>C</step>
                    <octave>5</octave>
                </pitch>
                <duration>6</duration>
                <voice>1</voice>
                <type>quarter</type>
                <dot/>
                <stem>down</stem>
                <lyric number="1">
                    <syllabic>single</syllabic>
                    <text>it's</text>
                </lyric>
            </note>
            <note default-y="-20.00" default-x="128.66">
                <pitch>
                    <step>B</step>
                    <alter>-1</alter>
                    <octave>4</octave>
                </pitch>
                <duration>4</duration>
                <voice>1</voice>
                <type>quarter</type>
                <stem>down</stem>
                <lyric number="1">
                    <syllabic>single</syllabic>
                    <text>time</text>
                </lyric>
            </note>
            <note default-y="-20.00" default-x="187.64">
                <pitch>
                    <step>B</step>
                    <alter>-1</alter>
                    <octave>4</octave>
                </pitch>
                <duration>2</duration>
                <voice>1</voice>
                <type>eighth</type>
                <stem>up</stem>
                <beam number="1">begin</beam>
                <lyric number="1">
                    <syllabic>single</syllabic>
                    <text>to</text>
                </lyric>
            </note>
            <note default-y="-30.00" default-x="235.53">
                <pitch>
                    <step>G</step>
                    <octave>4</octave>
                </pitch>
                <duration>2</duration>
                <tie type="start"/>
                <voice>1</voice>
                <type>eighth</type>
                <stem>up</stem>
                <beam number="1">end</beam>
                <notations>
                    <tied type="start"/>
                </notations>
                <lyric number="1">
                    <syllabic>single</syllabic>
                    <text>scram.</text>
                </lyric>
            </note>
        </measure>
        <measure width="110.06" number="24">
            <harmony print-frame="no">
                <root>
                    <root-step>C</root-step>
                </root>
                <kind text="7">dominant</kind>
            </harmony>
            <note default-y="-30.00" default-x="15.00">
                <pitch>
                    <step>G</step>
                    <octave>4</octave>
                </pitch>
                <duration>16</duration>
                <tie type="stop"/>
                <voice>1</voice>
                <type>whole</type>
                <notations>
                    <tied type="stop"/>
                </notations>
            </note>
        </measure>
        <measure width="372.97" number="25">
            <harmony print-frame="no">
                <root>
                    <root-step>F</root-step>
                </root>
                <kind text="">major</kind>
            </harmony>
            <note default-y="-35.00" default-x="29.75">
                <pitch>
                    <step>F</step>
                    <octave>4</octave>
                </pitch>
                <duration>3</duration>
                <voice>1</voice>
                <type>eighth</type>
                <dot/>
                <stem>up</stem>
                <beam number="1">begin</beam>
                <lyric number="1">
                    <syllabic>begin</syllabic>
                    <text>Mon</text>
                </lyric>
            </note>
            <note default-y="-50.00" default-x="82.37">
                <pitch>
                    <step>C</step>
                    <octave>4</octave>
                </pitch>
                <duration>1</duration>
                <voice>1</voice>
                <type>16th</type>
                <stem>up</stem>
                <beam number="1">continue</beam>
                <lyric number="1">
                    <syllabic>end</syllabic>
                    <text>ey,</text>
                </lyric>
            </note>
            <note default-y="-40.00" default-x="114.08">
                <pitch>
                    <step>E</step>
                    <octave>4</octave>
                </pitch>
                <duration>3</duration>
                <voice>1</voice>
                <type>eighth</type>
                <dot/>
                <stem>up</stem>
                <beam number="1">continue</beam>
                <lyric number="1">
                    <syllabic>single</syllabic>
                    <text>we</text>
                </lyric>
            </note>
            <note default-y="-35.00" default-x="166.69">
                <pitch>
                    <step>F</step>
                    <octave>4</octave>
                </pitch>
                <duration>1</duration>
                <tie type="start"/>
                <voice>1</voice>
                <type>16th</type>
                <stem>up</stem>
                <beam number="1">end</beam>
                <notations>
                    <tied type="start"/>
                </notations>
                <lyric number="1">
                    <syllabic>begin</syllabic>
                    <text>real</text>
                </lyric>
            </note>
            <note default-y="-35.00" default-x="193.66">
                <pitch>
                    <step>F</step>
                    <octave>4</octave>
                </pitch>
                <duration>3</duration>
                <tie type="stop"/>
                <voice>1</voice>
                <type>eighth</type>
                <dot/>
                <stem>up</stem>
                <beam number="1">begin</beam>
                <notations>
                    <tied type="stop"/>
                </notations>
            </note>
            <note default-y="-50.00" default-x="246.27">
                <pitch>
                    <step>C</step>
                    <octave>4</octave>
                </pitch>
                <duration>1</duration>
                <voice>1</voice>
                <type>16th</type>
                <stem>up</stem>
                <beam number="1">continue</beam>
                <lyric number="1">
                    <syllabic>end</syllabic>
                    <text>ly</text>
                </lyric>
            </note>
            <note default-y="-40.00" default-x="286.51">
                <pitch>
                    <step>E</step>
                    <octave>4</octave>
                </pitch>
                <duration>3</duration>
                <voice>1</voice>
                <type>eighth</type>
                <dot/>
                <stem>up</stem>
                <beam number="1">continue</beam>
                <lyric number="1">
                    <syllabic>single</syllabic>
                    <text>don't</text>
                </lyric>
            </note>
            <note default-y="-35.00" default-x="339.13">
                <pitch>
                    <step>F</step>
                    <octave>4</octave>
                </pitch>
                <duration>1</duration>
                <tie type="start"/>
                <voice>1</voice>
                <type>16th</type>
                <stem>up</stem>
                <beam number="1">end</beam>
                <notations>
                    <tied type="start"/>
                </notations>
                <lyric number="1">
                    <syllabic>single</syllabic>
                    <text>need</text>
                </lyric>
            </note>
        </measure>
        <measure width="207.17" number="26">
            <print new-system="yes">
                <system-layout>
                    <system-margins>
                        <left-margin>47.28</left-margin>
                        <right-margin>-0.00</right-margin>
                    </system-margins>
                    <system-distance>129.51</system-distance>
                </system-layout>
            </print>
            <note default-y="-35.00" default-x="67.30">
                <pitch>
                    <step>F</step>
                    <octave>4</octave>
                </pitch>
                <duration>2</duration>
                <tie type="stop"/>
                <voice>1</voice>
                <type>eighth</type>
                <stem>up</stem>
                <notations>
                    <tied type="stop"/>
                </notations>
            </note>
            <note default-y="-25.00" default-x="114.30">
                <pitch>
                    <step>A</step>
                    <octave>4</octave>
                </pitch>
                <duration>6</duration>
                <tie type="start"/>
                <voice>1</voice>
                <type>quarter</type>
                <dot/>
                <stem>up</stem>
                <notations>
                    <tied type="start"/>
                </notations>
                <lyric number="1">
                    <syllabic>single</syllabic>
                    <text>that,</text>
                </lyric>
            </note>
            <note default-y="-25.00" default-x="157.20">
                <pitch>
                    <step>A</step>
                    <octave>4</octave>
                </pitch>
                <duration>8</duration>
                <tie type="stop"/>
                <voice>1</voice>
                <type>half</type>
                <stem>up</stem>
                <notations>
                    <tied type="stop"/>
                </notations>
            </note>
        </measure>
        <measure width="247.23" number="27">
            <note default-y="-35.00" default-x="21.60">
                <pitch>
                    <step>F</step>
                    <octave>4</octave>
                </pitch>
                <duration>2</duration>
                <voice>1</voice>
                <type>eighth</type>
                <stem>up</stem>
                <lyric number="1">
                    <syllabic>single</syllabic>
                    <text>we</text>
                </lyric>
            </note>
            <note default-y="-50.00" default-x="73.29">
                <pitch>
                    <step>C</step>
                    <octave>4</octave>
                </pitch>
                <duration>4</duration>
                <voice>1</voice>
                <type>quarter</type>
                <stem>up</stem>
                <lyric number="1">
                    <syllabic>single</syllabic>
                    <text>make</text>
                </lyric>
            </note>
            <note default-y="-35.00" default-x="121.43">
                <pitch>
                    <step>F</step>
                    <octave>4</octave>
                </pitch>
                <duration>2</duration>
                <tie type="start"/>
                <voice>1</voice>
                <type>eighth</type>
                <stem>up</stem>
                <notations>
                    <tied type="start"/>
                </notations>
                <lyric number="1">
                    <syllabic>single</syllabic>
                    <text>out</text>
                </lyric>
            </note>
            <note default-y="-35.00" default-x="151.52">
                <pitch>
                    <step>F</step>
                    <octave>4</octave>
                </pitch>
                <duration>2</duration>
                <tie type="stop"/>
                <voice>1</voice>
                <type>eighth</type>
                <stem>up</stem>
                <notations>
                    <tied type="stop"/>
                </notations>
            </note>
            <note default-y="-30.00" default-x="186.93">
                <pitch>
                    <step>G</step>
                    <octave>4</octave>
                </pitch>
                <duration>6</duration>
                <voice>1</voice>
                <type>quarter</type>
                <dot/>
                <stem>up</stem>
                <lyric number="1">
                    <syllabic>begin</syllabic>
                    <text>al</text>
                </lyric>
            </note>
        </measure>
        <measure width="111.90" number="28">
            <harmony print-frame="no">
                <root>
                    <root-step>F</root-step>
                </root>
                <kind text="7">dominant</kind>
            </harmony>
            <note default-y="-25.00" default-x="32.57">
                <pitch>
                    <step>A</step>
                    <octave>4</octave>
                </pitch>
                <duration>16</duration>
                <voice>1</voice>
                <type>whole</type>
                <lyric number="1">
                    <syllabic>single</syllabic>
                    <text>right,</text>
                </lyric>
            </note>
        </measure>
        <measure width="317.77" number="29">
            <harmony print-frame="no">
                <root>
                    <root-step>B</root-step>
                    <root-alter>-1</root-alter>
                </root>
                <kind text="">major</kind>
            </harmony>
            <note default-y="-20.00" default-x="19.73">
                <pitch>
                    <step>B</step>
                    <alter>-1</alter>
                    <octave>4</octave>
                </pitch>
                <duration>3</duration>
                <voice>1</voice>
                <type>eighth</type>
                <dot/>
                <stem>up</stem>
                <beam number="1">begin</beam>
                <lyric number="1">
                    <syllabic>begin</syllabic>
                    <text>let</text>
                </lyric>
            </note>
            <note default-y="-35.00" default-x="63.47">
                <pitch>
                    <step>F</step>
                    <octave>4</octave>
                </pitch>
                <duration>1</duration>
                <voice>1</voice>
                <type>16th</type>
                <stem>up</stem>
                <beam number="1">continue</beam>
                <lyric number="1">
                    <syllabic>end</syllabic>
                    <text>tin'</text>
                </lyric>
            </note>
            <note default-y="-25.00" default-x="97.10">
                <pitch>
                    <step>A</step>
                    <octave>4</octave>
                </pitch>
                <duration>3</duration>
                <voice>1</voice>
                <type>eighth</type>
                <dot/>
                <stem>up</stem>
                <beam number="1">continue</beam>
                <lyric number="1">
                    <syllabic>single</syllabic>
                    <text>the</text>
                </lyric>
            </note>
            <note default-y="-20.00" default-x="140.84">
                <pitch>
                    <step>B</step>
                    <alter>-1</alter>
                    <octave>4</octave>
                </pitch>
                <duration>1</duration>
                <tie type="start"/>
                <voice>1</voice>
                <type>16th</type>
                <stem>up</stem>
                <beam number="1">end</beam>
                <notations>
                    <tied type="start"/>
                </notations>
                <lyric number="1">
                    <syllabic>middle</syllabic>
                    <text>oth</text>
                </lyric>
            </note>
            <note default-y="-20.00" default-x="163.26">
                <pitch>
                    <step>B</step>
                    <alter>-1</alter>
                    <octave>4</octave>
                </pitch>
                <duration>3</duration>
                <tie type="stop"/>
                <voice>1</voice>
                <type>eighth</type>
                <dot/>
                <stem>up</stem>
                <beam number="1">begin</beam>
                <notations>
                    <tied type="stop"/>
                </notations>
            </note>
            <note default-y="-35.00" default-x="207.00">
                <pitch>
                    <step>F</step>
                    <octave>4</octave>
                </pitch>
                <duration>1</duration>
                <voice>1</voice>
                <type>16th</type>
                <stem>up</stem>
                <beam number="1">continue</beam>
                <lyric number="1">
                    <syllabic>middle</syllabic>
                    <text>er</text>
                </lyric>
            </note>
            <note default-y="-25.00" default-x="242.07">
                <pitch>
                    <step>A</step>
                    <octave>4</octave>
                </pitch>
                <duration>3</duration>
                <voice>1</voice>
                <type>eighth</type>
                <dot/>
                <stem>up</stem>
                <beam number="1">continue</beam>
                <lyric number="1">
                    <syllabic>single</syllabic>
                    <text>guy</text>
                </lyric>
            </note>
            <note default-y="-20.00" default-x="285.81">
                <pitch>
                    <step>B</step>
                    <alter>-1</alter>
                    <octave>4</octave>
                </pitch>
                <duration>1</duration>
                <tie type="start"/>
                <voice>1</voice>
                <type>16th</type>
                <stem>up</stem>
                <beam number="1">end</beam>
                <notations>
                    <tied type="start"/>
                </notations>
                <lyric number="1">
                    <syllabic>single</syllabic>
                    <text>feed</text>
                </lyric>
            </note>
        </measure>
        <measure width="145.75" number="30">
            <note default-y="-20.00" default-x="15.00">
                <pitch>
                    <step>B</step>
                    <alter>-1</alter>
                    <octave>4</octave>
                </pitch>
                <duration>2</duration>
                <tie type="stop"/>
                <voice>1</voice>
                <type>eighth</type>
                <stem>down</stem>
                <notations>
                    <tied type="stop"/>
                </notations>
            </note>
            <note default-y="-10.00" default-x="52.88">
                <pitch>
                    <step>D</step>
                    <octave>5</octave>
                </pitch>
                <duration>6</duration>
                <tie type="start"/>
                <voice>1</voice>
                <type>quarter</type>
                <dot/>
                <stem>down</stem>
                <notations>
                    <tied type="start"/>
                </notations>
                <lyric number="1">
                    <syllabic>single</syllabic>
                    <text>that,</text>
                </lyric>
            </note>
            <note default-y="-10.00" default-x="95.78">
                <pitch>
                    <step>D</step>
                    <octave>5</octave>
                </pitch>
                <duration>8</duration>
                <tie type="stop"/>
                <voice>1</voice>
                <type>half</type>
                <stem>down</stem>
                <notations>
                    <tied type="stop"/>
                </notations>
            </note>
        </measure>
        <measure width="521.38" number="31">
            <print new-system="yes">
                <system-layout>
                    <system-margins>
                        <left-margin>47.28</left-margin>
                        <right-margin>-0.00</right-margin>
                    </system-margins>
                    <system-distance>129.51</system-distance>
                </system-layout>
            </print>
            <harmony print-frame="no">
                <root>
                    <root-step>F</root-step>
                </root>
                <kind text="">major</kind>
            </harmony>
            <note default-y="-15.00" default-x="88.93">
                <pitch>
                    <step>C</step>
                    <octave>5</octave>
                </pitch>
                <duration>4</duration>
                <voice>1</voice>
                <type>quarter</type>
                <stem>down</stem>
                <lyric number="1">
                    <syllabic>single</syllabic>
                    <text>Juke</text>
                </lyric>
            </note>
            <harmony print-frame="no">
                <root>
                    <root-step>A</root-step>
                    <root-alter>-1</root-alter>
                </root>
                <kind text="7+">augmented-seventh</kind>
            </harmony>
            <note default-y="-20.00" default-x="184.67">
                <pitch>
                    <step>B</step>
                    <octave>4</octave>
                </pitch>
                <duration>4</duration>
                <voice>1</voice>
                <type>quarter</type>
                <accidental>natural</accidental>
                <stem>down</stem>
                <lyric number="1">
                    <syllabic>single</syllabic>
                    <text>box</text>
                </lyric>
            </note>
            <harmony print-frame="no">
                <root>
                    <root-step>G</root-step>
                </root>
                <kind text="m7">minor-seventh</kind>
            </harmony>
            <note default-y="-20.00" default-x="280.42">
                <pitch>
                    <step>B</step>
                    <alter>-1</alter>
                    <octave>4</octave>
                </pitch>
                <duration>2</duration>
                <voice>1</voice>
                <type>eighth</type>
                <accidental>flat</accidental>
                <stem>up</stem>
                <beam number="1">begin</beam>
                <lyric number="1">
                    <syllabic>begin</syllabic>
                    <text>Sat</text>
                </lyric>
            </note>
            <note default-y="-30.00" default-x="340.26">
                <pitch>
                    <step>G</step>
                    <alter>1</alter>
                    <octave>4</octave>
                </pitch>
                <duration>2</duration>
                <voice>1</voice>
                <type>eighth</type>
                <accidental>sharp</accidental>
                <stem>up</stem>
                <beam number="1">continue</beam>
                <lyric number="1">
                    <syllabic>middle</syllabic>
                    <text>ur</text>
                </lyric>
            </note>
            <harmony print-frame="no">
                <root>
                    <root-step>C</root-step>
                </root>
                <kind text="7">dominant</kind>
            </harmony>
            <note default-y="-25.00" default-x="400.10">
                <pitch>
                    <step>A</step>
                    <octave>4</octave>
                </pitch>
                <duration>2</duration>
                <voice>1</voice>
                <type>eighth</type>
                <stem>up</stem>
                <beam number="1">continue</beam>
                <lyric number="1">
                    <syllabic>end</syllabic>
                    <text>day</text>
                </lyric>
            </note>
            <note default-y="-35.00" default-x="459.94">
                <pitch>
                    <step>F</step>
                    <octave>4</octave>
                </pitch>
                <duration>2</duration>
                <tie type="start"/>
                <voice>1</voice>
                <type>eighth</type>
                <stem>up</stem>
                <beam number="1">end</beam>
                <notations>
                    <tied type="start"/>
                </notations>
                <lyric number="1">
                    <syllabic>single</syllabic>
                    <text>night.</text>
                </lyric>
            </note>
        </measure>
        <measure width="258.00" number="32">
            <barline location="left">
                <ending type="start" number="1"></ending>
            </barline>
            <harmony print-frame="no">
                <root>
                    <root-step>F</root-step>
                </root>
                <kind text="">major</kind>
            </harmony>
            <harmony relative-x="3700.00" print-frame="no">
                <root>
                    <root-step>G</root-step>
                </root>
                <kind text="m7">minor-seventh</kind>
            </harmony>
            <harmony relative-x="8000.00" print-frame="no">
                <root>
                    <root-step>C</root-step>
                </root>
                <kind text="7">dominant</kind>
            </harmony>
            <note default-y="-35.00" default-x="15.00">
                <pitch>
                    <step>F</step>
                    <octave>4</octave>
                </pitch>
                <duration>16</duration>
                <tie type="start"/>
                <voice>1</voice>
                <type>whole</type>
                <notations>
                    <tied type="start"/>
                </notations>
            </note>
            <barline location="right">
                <bar-style>light-heavy</bar-style>
                <ending type="stop" number="1"></ending>
                <repeat direction="backward"/>
            </barline>
        </measure>
        <measure width="250.44" number="33">
            <barline location="left">
                <ending type="start" number="2"></ending>
            </barline>
            <harmony print-frame="no">
                <root>
                    <root-step>F</root-step>
                </root>
                <kind text="">major</kind>
            </harmony>
            <note default-y="-35.00" default-x="15.00">
                <pitch>
                    <step>F</step>
                    <octave>4</octave>
                </pitch>
                <duration>16</duration>
                <tie type="stop"/>
                <voice>1</voice>
                <type>whole</type>
                <notations>
                    <tied type="stop"/>
                </notations>
            </note>
            <barline location="right">
                <bar-style>light-heavy</bar-style>
                <ending type="stop" number="2"></ending>
            </barline>
        </measure>
    </part>
</score-partwise>
