<?xml version="1.0" encoding="UTF-8"?>
<!DOCTYPE score-partwise PUBLIC "-//Recordare//DTD MusicXML 2.0 Partwise//EN" "http://www.musicxml.org/dtds/partwise.dtd">
<score-partwise version="2.0">
    <work>
        <work-number></work-number>
        <work-title></work-title>
    </work>
    <movement-number></movement-number>
    <movement-title>La Marseillaise</movement-title>
    <identification>
        <creator type="composer">Claude Joseph Rouget de Lisle</creator>
        <creator type="poet"></creator>
        <rights>All Rights Reserved</rights>
        <encoding>
            <software>Sibelius 4.0</software>
            <software>Dolet 3.3 for Sibelius</software>
            <supports type="no" element="accidental"/>
            <supports type="no" element="transpose"/>
            <software>ProxyMusic 2.0 c</software>
        </encoding>
        <source>http://wikifonia.org/node/379/revisions/498/view</source>
    </identification>
    <defaults>
        <scaling>
            <millimeters>6</millimeters>
            <tenths>40</tenths>
        </scaling>
        <page-layout>
            <page-height>1980</page-height>
            <page-width>1400</page-width>
        </page-layout>
    </defaults>
    <part-list>
        <score-part id="P1">
            <part-name print-object="no">[treble staff]</part-name>
            <score-instrument id="P1-I1">
                <instrument-name>[treble staff]</instrument-name>
            </score-instrument>
            <midi-instrument id="P1-I1">
                <midi-channel>1</midi-channel>
                <midi-program>14</midi-program>
            </midi-instrument>
        </score-part>
    </part-list>
    <part id="P1">
        <measure number="1">
            <attributes>
                <divisions>768</divisions>
                <key>
                    <fifths>1</fifths>
                    <mode>major</mode>
                </key>
                <time>
                    <beats>4</beats>
                    <beat-type>4</beat-type>
                </time>
                <clef>
                    <sign>G</sign>
                    <line>2</line>
                </clef>
            </attributes>
            <note>
                <rest/>
                <duration>576</duration>
                <voice>1</voice>
                <type>eighth</type>
                <dot/>
            </note>
            <note>
                <pitch>
                    <step>D</step>
                    <octave>4</octave>
                </pitch>
                <duration>192</duration>
                <voice>1</voice>
                <type>16th</type>
                <beam number="1">continue</beam>
                <beam number="2">continue</beam>
                <lyric number="1" name="verse">
                    <syllabic>middle</syllabic>
                    <text>Al</text>
                </lyric>
            </note>
            <note>
                <pitch>
                    <step>D</step>
                    <octave>4</octave>
                </pitch>
                <duration>576</duration>
                <voice>1</voice>
                <type>eighth</type>
                <dot/>
                <beam number="1">begin</beam>
                <lyric number="1" name="verse">
                    <syllabic>end</syllabic>
                    <text>lons</text>
                </lyric>
            </note>
            <note>
                <pitch>
                    <step>D</step>
                    <octave>4</octave>
                </pitch>
                <duration>192</duration>
                <voice>1</voice>
                <type>16th</type>
                <beam number="1">continue</beam>
                <beam number="2">continue</beam>
                <lyric number="1" name="verse">
                    <syllabic>middle</syllabic>
                    <text>en</text>
                </lyric>
            </note>
        </measure>
        <measure number="2">
            <note>
                <pitch>
                    <step>G</step>
                    <octave>4</octave>
                </pitch>
                <duration>768</duration>
                <voice>1</voice>
                <type>quarter</type>
                <lyric number="1" name="verse">
                    <syllabic>end</syllabic>
                    <text>fants</text>
                </lyric>
            </note>
            <note>
                <pitch>
                    <step>G</step>
                    <octave>4</octave>
                </pitch>
                <duration>768</duration>
                <voice>1</voice>
                <type>quarter</type>
                <lyric number="1" name="verse">
                    <syllabic>end</syllabic>
                    <text>de</text>
                </lyric>
            </note>
            <note>
                <pitch>
                    <step>A</step>
                    <octave>4</octave>
                </pitch>
                <duration>768</duration>
                <voice>1</voice>
                <type>quarter</type>
                <lyric number="1" name="verse">
                    <syllabic>end</syllabic>
                    <text>la</text>
                </lyric>
            </note>
            <note>
                <pitch>
                    <step>A</step>
                    <octave>4</octave>
                </pitch>
                <duration>768</duration>
                <voice>1</voice>
                <type>quarter</type>
                <lyric number="1" name="verse">
                    <syllabic>middle</syllabic>
                    <text>Pa</text>
                </lyric>
            </note>
        </measure>
        <measure number="3">
            <print new-system="no"/>
            <note>
                <pitch>
                    <step>D</step>
                    <octave>5</octave>
                </pitch>
                <duration>1152</duration>
                <voice>1</voice>
                <type>quarter</type>
                <dot/>
                <notations>
                    <slur type="start" number="1"/>
                </notations>
                <lyric number="1" name="verse">
                    <syllabic>middle</syllabic>
                    <text>tri</text>
                    <extend/>
                </lyric>
            </note>
            <note>
                <pitch>
                    <step>B</step>
                    <octave>4</octave>
                </pitch>
                <duration>384</duration>
                <voice>1</voice>
                <type>eighth</type>
                <beam number="1">continue</beam>
                <notations>
                    <slur type="stop" number="1"/>
                </notations>
            </note>
            <note>
                <pitch>
                    <step>G</step>
                    <octave>4</octave>
                </pitch>
                <duration>384</duration>
                <voice>1</voice>
                <type>eighth</type>
                <beam number="1">begin</beam>
                <lyric number="1" name="verse">
                    <syllabic>end</syllabic>
                    <text>e</text>
                </lyric>
            </note>
            <note>
                <rest/>
                <duration>192</duration>
                <voice>1</voice>
                <type>16th</type>
            </note>
            <note>
                <pitch>
                    <step>G</step>
                    <octave>4</octave>
                </pitch>
                <duration>192</duration>
                <voice>1</voice>
                <type>16th</type>
                <beam number="1">continue</beam>
                <beam number="2">continue</beam>
                <lyric number="1" name="verse">
                    <syllabic>end</syllabic>
                    <text>le</text>
                </lyric>
            </note>
            <note>
                <pitch>
                    <step>B</step>
                    <octave>4</octave>
                </pitch>
                <duration>576</duration>
                <voice>1</voice>
                <type>eighth</type>
                <dot/>
                <beam number="1">begin</beam>
                <lyric number="1" name="verse">
                    <syllabic>end</syllabic>
                    <text>jour</text>
                </lyric>
            </note>
            <note>
                <pitch>
                    <step>G</step>
                    <octave>4</octave>
                </pitch>
                <duration>192</duration>
                <voice>1</voice>
                <type>16th</type>
                <beam number="1">continue</beam>
                <beam number="2">continue</beam>
                <lyric number="1" name="verse">
                    <syllabic>end</syllabic>
                    <text>de</text>
                </lyric>
            </note>
        </measure>
        <measure number="4">
            <print new-system="no"/>
            <note>
                <pitch>
                    <step>E</step>
                    <octave>4</octave>
                </pitch>
                <duration>768</duration>
                <voice>1</voice>
                <type>quarter</type>
                <lyric number="1" name="verse">
                    <syllabic>end</syllabic>
                    <text>gloire</text>
                </lyric>
            </note>
            <note>
                <pitch>
                    <step>C</step>
                    <octave>5</octave>
                </pitch>
                <duration>1536</duration>
                <voice>1</voice>
                <type>half</type>
                <lyric number="1" name="verse">
                    <syllabic>end</syllabic>
                    <text>est</text>
                </lyric>
            </note>
            <note>
                <pitch>
                    <step>A</step>
                    <octave>4</octave>
                </pitch>
                <duration>576</duration>
                <voice>1</voice>
                <type>eighth</type>
                <dot/>
                <beam number="1">continue</beam>
                <lyric number="1" name="verse">
                    <syllabic>middle</syllabic>
                    <text>ar</text>
                </lyric>
            </note>
            <note>
                <pitch>
                    <step>F</step>
                    <alter>1</alter>
                    <octave>4</octave>
                </pitch>
                <duration>192</duration>
                <voice>1</voice>
                <type>16th</type>
                <beam number="1">continue</beam>
                <beam number="2">continue</beam>
                <lyric number="1" name="verse">
                    <syllabic>middle</syllabic>
                    <text>ri</text>
                </lyric>
            </note>
        </measure>
        <measure number="5">
            <print new-system="yes"/>
            <note>
                <pitch>
                    <step>G</step>
                    <octave>4</octave>
                </pitch>
                <duration>1536</duration>
                <voice>1</voice>
                <type>half</type>
                <lyric number="1" name="verse">
                    <syllabic>end</syllabic>
                    <text>vé.</text>
                </lyric>
            </note>
            <note>
                <rest/>
                <duration>768</duration>
                <voice>1</voice>
                <type>quarter</type>
            </note>
            <note>
                <pitch>
                    <step>G</step>
                    <octave>4</octave>
                </pitch>
                <duration>576</duration>
                <voice>1</voice>
                <type>eighth</type>
                <dot/>
                <beam number="1">begin</beam>
                <lyric number="1" name="verse">
                    <syllabic>middle</syllabic>
                    <text>Con</text>
                </lyric>
            </note>
            <note>
                <pitch>
                    <step>A</step>
                    <octave>4</octave>
                </pitch>
                <duration>192</duration>
                <voice>1</voice>
                <type>16th</type>
                <beam number="1">continue</beam>
                <beam number="2">continue</beam>
                <lyric number="1" name="verse">
                    <syllabic>end</syllabic>
                    <text>tre</text>
                </lyric>
            </note>
        </measure>
        <measure number="6">
            <print new-system="no"/>
            <note>
                <pitch>
                    <step>B</step>
                    <octave>4</octave>
                </pitch>
                <duration>768</duration>
                <voice>1</voice>
                <type>quarter</type>
                <lyric number="1" name="verse">
                    <syllabic>end</syllabic>
                    <text>nous</text>
                </lyric>
            </note>
            <note>
                <pitch>
                    <step>B</step>
                    <octave>4</octave>
                </pitch>
                <duration>768</duration>
                <voice>1</voice>
                <type>quarter</type>
                <lyric number="1" name="verse">
                    <syllabic>end</syllabic>
                    <text>de</text>
                </lyric>
            </note>
            <note>
                <pitch>
                    <step>B</step>
                    <octave>4</octave>
                </pitch>
                <duration>768</duration>
                <voice>1</voice>
                <type>quarter</type>
                <lyric number="1" name="verse">
                    <syllabic>end</syllabic>
                    <text>la</text>
                </lyric>
            </note>
            <note>
                <pitch>
                    <step>C</step>
                    <octave>5</octave>
                </pitch>
                <duration>576</duration>
                <voice>1</voice>
                <type>eighth</type>
                <dot/>
                <beam number="1">begin</beam>
                <lyric number="1" name="verse">
                    <syllabic>middle</syllabic>
                    <text>ty</text>
                </lyric>
            </note>
            <note>
                <pitch>
                    <step>B</step>
                    <octave>4</octave>
                </pitch>
                <duration>192</duration>
                <voice>1</voice>
                <type>16th</type>
                <beam number="1">continue</beam>
                <beam number="2">continue</beam>
                <lyric number="1" name="verse">
                    <syllabic>middle</syllabic>
                    <text>ran</text>
                </lyric>
            </note>
        </measure>
        <measure number="7">
            <print new-system="no"/>
            <note>
                <pitch>
                    <step>B</step>
                    <octave>4</octave>
                </pitch>
                <duration>768</duration>
                <voice>1</voice>
                <type>quarter</type>
                <lyric number="1" name="verse">
                    <syllabic>middle</syllabic>
                    <text>ni</text>
                </lyric>
            </note>
            <note>
                <pitch>
                    <step>A</step>
                    <octave>4</octave>
                </pitch>
                <duration>768</duration>
                <voice>1</voice>
                <type>quarter</type>
                <lyric number="1" name="verse">
                    <syllabic>end</syllabic>
                    <text>e</text>
                </lyric>
            </note>
            <note>
                <rest/>
                <duration>768</duration>
                <voice>1</voice>
                <type>quarter</type>
            </note>
            <note>
                <pitch>
                    <step>A</step>
                    <octave>4</octave>
                </pitch>
                <duration>576</duration>
                <voice>1</voice>
                <type>eighth</type>
                <dot/>
                <beam number="1">begin</beam>
                <lyric number="1" name="verse">
                    <syllabic>middle</syllabic>
                    <text>L'é</text>
                </lyric>
            </note>
            <note>
                <pitch>
                    <step>B</step>
                    <octave>4</octave>
                </pitch>
                <duration>192</duration>
                <voice>1</voice>
                <type>16th</type>
                <beam number="1">continue</beam>
                <beam number="2">continue</beam>
                <lyric number="1" name="verse">
                    <syllabic>middle</syllabic>
                    <text>ten</text>
                </lyric>
            </note>
        </measure>
        <measure number="8">
            <print new-system="no"/>
            <note>
                <pitch>
                    <step>C</step>
                    <octave>5</octave>
                </pitch>
                <duration>768</duration>
                <voice>1</voice>
                <type>quarter</type>
                <lyric number="1" name="verse">
                    <syllabic>end</syllabic>
                    <text>dard</text>
                </lyric>
            </note>
            <note>
                <pitch>
                    <step>C</step>
                    <octave>5</octave>
                </pitch>
                <duration>768</duration>
                <voice>1</voice>
                <type>quarter</type>
                <lyric number="1" name="verse">
                    <syllabic>middle</syllabic>
                    <text>sang</text>
                </lyric>
            </note>
            <note>
                <pitch>
                    <step>C</step>
                    <octave>5</octave>
                </pitch>
                <duration>768</duration>
                <voice>1</voice>
                <type>quarter</type>
                <lyric number="1" name="verse">
                    <syllabic>end</syllabic>
                    <text>lant</text>
                </lyric>
            </note>
            <note>
                <pitch>
                    <step>D</step>
                    <octave>5</octave>
                </pitch>
                <duration>576</duration>
                <voice>1</voice>
                <type>eighth</type>
                <dot/>
                <beam number="1">begin</beam>
                <lyric number="1" name="verse">
                    <syllabic>end</syllabic>
                    <text>est</text>
                </lyric>
            </note>
            <note>
                <pitch>
                    <step>C</step>
                    <octave>5</octave>
                </pitch>
                <duration>192</duration>
                <voice>1</voice>
                <type>16th</type>
                <beam number="1">continue</beam>
                <beam number="2">continue</beam>
                <lyric number="1" name="verse">
                    <syllabic>middle</syllabic>
                    <text>le</text>
                </lyric>
            </note>
        </measure>
        <measure number="9">
            <print new-system="yes"/>
            <note>
                <pitch>
                    <step>B</step>
                    <octave>4</octave>
                </pitch>
                <duration>1536</duration>
                <voice>1</voice>
                <type>half</type>
                <lyric number="1" name="verse">
                    <syllabic>end</syllabic>
                    <text>vé,</text>
                </lyric>
            </note>
            <note>
                <rest/>
                <duration>768</duration>
                <voice>1</voice>
                <type>quarter</type>
            </note>
            <note>
                <pitch>
                    <step>D</step>
                    <octave>5</octave>
                </pitch>
                <duration>576</duration>
                <voice>1</voice>
                <type>eighth</type>
                <dot/>
                <beam number="1">begin</beam>
                <lyric number="1" name="verse">
                    <syllabic>middle</syllabic>
                    <text>L'é</text>
                </lyric>
            </note>
            <note>
                <pitch>
                    <step>D</step>
                    <octave>5</octave>
                </pitch>
                <duration>192</duration>
                <voice>1</voice>
                <type>16th</type>
                <beam number="1">continue</beam>
                <beam number="2">continue</beam>
                <lyric number="1" name="verse">
                    <syllabic>middle</syllabic>
                    <text>ten</text>
                </lyric>
            </note>
        </measure>
        <measure number="10">
            <print new-system="no"/>
            <note>
                <pitch>
                    <step>D</step>
                    <octave>5</octave>
                </pitch>
                <duration>768</duration>
                <voice>1</voice>
                <type>quarter</type>
                <notations>
                    <slur type="start" number="1"/>
                </notations>
                <lyric number="1" name="verse">
                    <syllabic>end</syllabic>
                    <text>dard</text>
                    <extend/>
                </lyric>
            </note>
            <note>
                <pitch>
                    <step>B</step>
                    <octave>4</octave>
                </pitch>
                <duration>576</duration>
                <voice>1</voice>
                <type>eighth</type>
                <dot/>
                <beam number="1">begin</beam>
                <notations>
                    <slur type="stop" number="1"/>
                </notations>
            </note>
            <note>
                <pitch>
                    <step>G</step>
                    <octave>4</octave>
                </pitch>
                <duration>192</duration>
                <voice>1</voice>
                <type>16th</type>
                <beam number="1">continue</beam>
                <beam number="2">continue</beam>
                <lyric number="1" name="verse">
                    <syllabic>middle</syllabic>
                    <text>sang</text>
                </lyric>
            </note>
            <note>
                <pitch>
                    <step>D</step>
                    <octave>5</octave>
                </pitch>
                <duration>768</duration>
                <voice>1</voice>
                <type>quarter</type>
                <lyric number="1" name="verse">
                    <syllabic>end</syllabic>
                    <text>lant</text>
                </lyric>
            </note>
            <note>
                <pitch>
                    <step>B</step>
                    <octave>4</octave>
                </pitch>
                <duration>576</duration>
                <voice>1</voice>
                <type>eighth</type>
                <dot/>
                <beam number="1">begin</beam>
                <lyric number="1" name="verse">
                    <syllabic>end</syllabic>
                    <text>est</text>
                </lyric>
            </note>
            <note>
                <pitch>
                    <step>G</step>
                    <octave>4</octave>
                </pitch>
                <duration>192</duration>
                <voice>1</voice>
                <type>16th</type>
                <beam number="1">continue</beam>
                <beam number="2">continue</beam>
                <lyric number="1" name="verse">
                    <syllabic>middle</syllabic>
                    <text>le</text>
                </lyric>
            </note>
        </measure>
        <measure number="11">
            <print new-system="no"/>
            <note>
                <pitch>
                    <step>D</step>
                    <octave>4</octave>
                </pitch>
                <duration>1536</duration>
                <voice>1</voice>
                <type>half</type>
                <lyric number="1" name="verse">
                    <syllabic>end</syllabic>
                    <text>vé,</text>
                </lyric>
            </note>
            <note>
                <rest/>
                <duration>576</duration>
                <voice>1</voice>
                <type>eighth</type>
                <dot/>
            </note>
            <note>
                <pitch>
                    <step>D</step>
                    <octave>4</octave>
                </pitch>
                <duration>192</duration>
                <voice>1</voice>
                <type>16th</type>
                <beam number="1">continue</beam>
                <beam number="2">continue</beam>
                <lyric number="1" name="verse">
                    <syllabic>middle</syllabic>
                    <text>En</text>
                </lyric>
            </note>
            <note>
                <pitch>
                    <step>D</step>
                    <octave>4</octave>
                </pitch>
                <duration>576</duration>
                <voice>1</voice>
                <type>eighth</type>
                <dot/>
                <beam number="1">begin</beam>
                <lyric number="1" name="verse">
                    <syllabic>middle</syllabic>
                    <text>ten</text>
                </lyric>
            </note>
            <note>
                <pitch>
                    <step>F</step>
                    <alter>1</alter>
                    <octave>4</octave>
                </pitch>
                <duration>192</duration>
                <voice>1</voice>
                <type>16th</type>
                <beam number="1">continue</beam>
                <beam number="2">continue</beam>
                <lyric number="1" name="verse">
                    <syllabic>middle</syllabic>
                    <text>dez</text>
                </lyric>
            </note>
        </measure>
        <measure number="12">
            <print new-system="no"/>
            <note>
                <pitch>
                    <step>A</step>
                    <octave>4</octave>
                </pitch>
                <duration>1536</duration>
                <voice>1</voice>
                <type>half</type>
                <lyric number="1" name="verse">
                    <syllabic>end</syllabic>
                    <text>vous</text>
                </lyric>
            </note>
            <note>
                <pitch>
                    <step>C</step>
                    <octave>5</octave>
                </pitch>
                <duration>768</duration>
                <voice>1</voice>
                <type>quarter</type>
                <lyric number="1" name="verse">
                    <syllabic>end</syllabic>
                    <text>dans</text>
                </lyric>
            </note>
            <note>
                <pitch>
                    <step>A</step>
                    <octave>4</octave>
                </pitch>
                <duration>576</duration>
                <voice>1</voice>
                <type>eighth</type>
                <dot/>
                <beam number="1">begin</beam>
                <lyric number="1" name="verse">
                    <syllabic>end</syllabic>
                    <text>nos</text>
                </lyric>
            </note>
            <note>
                <pitch>
                    <step>F</step>
                    <alter>1</alter>
                    <octave>4</octave>
                </pitch>
                <duration>192</duration>
                <voice>1</voice>
                <type>16th</type>
                <beam number="1">continue</beam>
                <beam number="2">continue</beam>
                <lyric number="1" name="verse">
                    <syllabic>middle</syllabic>
                    <text>cam</text>
                </lyric>
            </note>
        </measure>
        <measure number="13">
            <print new-system="yes"/>
            <note>
                <pitch>
                    <step>A</step>
                    <octave>4</octave>
                </pitch>
                <duration>768</duration>
                <voice>1</voice>
                <type>quarter</type>
                <lyric number="1" name="verse">
                    <syllabic>middle</syllabic>
                    <text>pag</text>
                </lyric>
            </note>
            <note>
                <pitch>
                    <step>G</step>
                    <octave>4</octave>
                </pitch>
                <duration>768</duration>
                <voice>1</voice>
                <type>quarter</type>
                <lyric number="1" name="verse">
                    <syllabic>end</syllabic>
                    <text>nes</text>
                </lyric>
            </note>
            <note>
                <pitch>
                    <step>F</step>
                    <octave>4</octave>
                </pitch>
                <duration>1536</duration>
                <voice>1</voice>
                <type>half</type>
                <lyric number="1" name="verse">
                    <syllabic>middle</syllabic>
                    <text>Mu</text>
                </lyric>
            </note>
        </measure>
        <measure number="14">
            <print new-system="no"/>
            <note>
                <pitch>
                    <step>E</step>
                    <octave>4</octave>
                </pitch>
                <duration>768</duration>
                <voice>1</voice>
                <type>quarter</type>
                <lyric number="1" name="verse">
                    <syllabic>end</syllabic>
                    <text>gir</text>
                </lyric>
            </note>
            <note>
                <pitch>
                    <step>G</step>
                    <octave>4</octave>
                </pitch>
                <duration>576</duration>
                <voice>1</voice>
                <type>eighth</type>
                <dot/>
                <beam number="1">begin</beam>
                <lyric number="1" name="verse">
                    <syllabic>end</syllabic>
                    <text>ces</text>
                </lyric>
            </note>
            <note>
                <pitch>
                    <step>G</step>
                    <octave>4</octave>
                </pitch>
                <duration>192</duration>
                <voice>1</voice>
                <type>16th</type>
                <beam number="1">continue</beam>
                <beam number="2">continue</beam>
                <lyric number="1" name="verse">
                    <syllabic>middle</syllabic>
                    <text>fé</text>
                </lyric>
            </note>
            <note>
                <pitch>
                    <step>G</step>
                    <octave>4</octave>
                </pitch>
                <duration>768</duration>
                <voice>1</voice>
                <type>quarter</type>
                <lyric number="1" name="verse">
                    <syllabic>middle</syllabic>
                    <text>ro</text>
                </lyric>
            </note>
            <note>
                <pitch>
                    <step>F</step>
                    <alter>1</alter>
                    <octave>4</octave>
                </pitch>
                <duration>576</duration>
                <voice>1</voice>
                <type>eighth</type>
                <dot/>
                <beam number="1">begin</beam>
                <lyric number="1" name="verse">
                    <syllabic>end</syllabic>
                    <text>ces</text>
                </lyric>
            </note>
            <note>
                <pitch>
                    <step>G</step>
                    <octave>4</octave>
                </pitch>
                <duration>192</duration>
                <voice>1</voice>
                <type>16th</type>
                <beam number="1">continue</beam>
                <beam number="2">continue</beam>
                <lyric number="1" name="verse">
                    <syllabic>middle</syllabic>
                    <text>sol</text>
                </lyric>
            </note>
        </measure>
        <measure number="15">
            <print new-system="no"/>
            <note>
                <pitch>
                    <step>A</step>
                    <octave>4</octave>
                </pitch>
                <duration>2304</duration>
                <voice>1</voice>
                <type>half</type>
                <dot/>
                <lyric number="1" name="verse">
                    <syllabic>end</syllabic>
                    <text>dats?</text>
                </lyric>
            </note>
            <note>
                <rest/>
                <duration>384</duration>
                <voice>1</voice>
                <type>eighth</type>
            </note>
            <note>
                <pitch>
                    <step>A</step>
                    <octave>4</octave>
                </pitch>
                <duration>384</duration>
                <voice>1</voice>
                <type>eighth</type>
                <beam number="1">continue</beam>
                <lyric number="1" name="verse">
                    <syllabic>end</syllabic>
                    <text>Ils</text>
                </lyric>
            </note>
        </measure>
        <measure number="16">
            <print new-system="no"/>
            <note>
                <pitch>
                    <step>B</step>
                    <alter>-1</alter>
                    <octave>4</octave>
                </pitch>
                <duration>1152</duration>
                <voice>1</voice>
                <type>quarter</type>
                <dot/>
                <lyric number="1" name="verse">
                    <syllabic>middle</syllabic>
                    <text>vien</text>
                </lyric>
            </note>
            <note>
                <pitch>
                    <step>B</step>
                    <alter>-1</alter>
                    <octave>4</octave>
                </pitch>
                <duration>384</duration>
                <voice>1</voice>
                <type>eighth</type>
                <beam number="1">continue</beam>
                <lyric number="1" name="verse">
                    <syllabic>end</syllabic>
                    <text>nent</text>
                </lyric>
            </note>
            <note>
                <pitch>
                    <step>B</step>
                    <alter>-1</alter>
                    <octave>4</octave>
                </pitch>
                <duration>384</duration>
                <voice>1</voice>
                <type>eighth</type>
                <beam number="1">begin</beam>
                <lyric number="1" name="verse">
                    <syllabic>middle</syllabic>
                    <text>jus</text>
                </lyric>
            </note>
            <note>
                <pitch>
                    <step>B</step>
                    <alter>-1</alter>
                    <octave>4</octave>
                </pitch>
                <duration>384</duration>
                <voice>1</voice>
                <type>eighth</type>
                <beam number="1">continue</beam>
                <lyric number="1" name="verse">
                    <syllabic>end</syllabic>
                    <text>que</text>
                </lyric>
            </note>
            <note>
                <pitch>
                    <step>C</step>
                    <octave>5</octave>
                </pitch>
                <duration>384</duration>
                <voice>1</voice>
                <type>eighth</type>
                <beam number="1">continue</beam>
                <lyric number="1" name="verse">
                    <syllabic>end</syllabic>
                    <text>dans</text>
                </lyric>
            </note>
            <note>
                <pitch>
                    <step>D</step>
                    <octave>5</octave>
                </pitch>
                <duration>384</duration>
                <voice>1</voice>
                <type>eighth</type>
                <beam number="1">continue</beam>
                <lyric number="1" name="verse">
                    <syllabic>end</syllabic>
                    <text>vos</text>
                </lyric>
            </note>
        </measure>
        <measure number="17">
            <print new-system="no"/>
            <note>
                <pitch>
                    <step>A</step>
                    <octave>4</octave>
                </pitch>
                <duration>2304</duration>
                <voice>1</voice>
                <type>half</type>
                <dot/>
                <lyric number="1" name="verse">
                    <syllabic>end</syllabic>
                    <text>bras</text>
                </lyric>
            </note>
            <note>
                <pitch>
                    <step>B</step>
                    <alter>-1</alter>
                    <octave>4</octave>
                </pitch>
                <duration>384</duration>
                <voice>1</voice>
                <type>eighth</type>
                <beam number="1">continue</beam>
                <lyric number="1" name="verse">
                    <syllabic>middle</syllabic>
                    <text>é</text>
                </lyric>
            </note>
            <note>
                <pitch>
                    <step>A</step>
                    <octave>4</octave>
                </pitch>
                <duration>384</duration>
                <voice>1</voice>
                <type>eighth</type>
                <beam number="1">continue</beam>
                <lyric number="1" name="verse">
                    <syllabic>middle</syllabic>
                    <text>gor</text>
                </lyric>
            </note>
        </measure>
        <measure number="18">
            <print new-system="yes"/>
            <note>
                <pitch>
                    <step>G</step>
                    <octave>4</octave>
                </pitch>
                <duration>1152</duration>
                <voice>1</voice>
                <type>quarter</type>
                <dot/>
                <lyric number="1" name="verse">
                    <syllabic>end</syllabic>
                    <text>ger</text>
                </lyric>
            </note>
            <note>
                <pitch>
                    <step>G</step>
                    <octave>4</octave>
                </pitch>
                <duration>384</duration>
                <voice>1</voice>
                <type>eighth</type>
                <beam number="1">continue</beam>
                <lyric number="1" name="verse">
                    <syllabic>end</syllabic>
                    <text>vos</text>
                </lyric>
            </note>
            <note>
                <pitch>
                    <step>G</step>
                    <octave>4</octave>
                </pitch>
                <duration>384</duration>
                <voice>1</voice>
                <type>eighth</type>
                <beam number="1">begin</beam>
                <notations>
                    <slur type="start" number="1"/>
                </notations>
                <lyric number="1" name="verse">
                    <syllabic>end</syllabic>
                    <text>fils,</text>
                    <extend/>
                </lyric>
            </note>
            <note>
                <pitch>
                    <step>B</step>
                    <alter>-1</alter>
                    <octave>4</octave>
                </pitch>
                <duration>384</duration>
                <voice>1</voice>
                <type>eighth</type>
                <beam number="1">continue</beam>
                <notations>
                    <slur type="stop" number="1"/>
                </notations>
            </note>
            <note>
                <pitch>
                    <step>A</step>
                    <octave>4</octave>
                </pitch>
                <duration>384</duration>
                <voice>1</voice>
                <type>eighth</type>
                <beam number="1">continue</beam>
                <lyric number="1" name="verse">
                    <syllabic>end</syllabic>
                    <text>vos</text>
                </lyric>
            </note>
            <note>
                <pitch>
                    <step>G</step>
                    <octave>4</octave>
                </pitch>
                <duration>384</duration>
                <voice>1</voice>
                <type>eighth</type>
                <beam number="1">continue</beam>
                <lyric number="1" name="verse">
                    <syllabic>middle</syllabic>
                    <text>com</text>
                </lyric>
            </note>
        </measure>
        <measure number="19">
            <print new-system="no"/>
            <note>
                <pitch>
                    <step>G</step>
                    <octave>4</octave>
                </pitch>
                <duration>768</duration>
                <voice>1</voice>
                <type>quarter</type>
                <lyric number="1" name="verse">
                    <syllabic>middle</syllabic>
                    <text>pag</text>
                </lyric>
            </note>
            <note>
                <pitch>
                    <step>F</step>
                    <alter>1</alter>
                    <octave>4</octave>
                </pitch>
                <duration>384</duration>
                <voice>1</voice>
                <type>eighth</type>
                <beam number="1">begin</beam>
                <lyric number="1" name="verse">
                    <syllabic>end</syllabic>
                    <text>nes</text>
                </lyric>
            </note>
            <note>
                <rest/>
                <duration>384</duration>
                <voice>1</voice>
                <type>eighth</type>
            </note>
            <note>
                <rest/>
                <duration>768</duration>
                <voice>1</voice>
                <type>quarter</type>
            </note>
            <note>
                <rest/>
                <duration>576</duration>
                <voice>1</voice>
                <type>eighth</type>
                <dot/>
            </note>
            <note>
                <pitch>
                    <step>D</step>
                    <octave>5</octave>
                </pitch>
                <duration>192</duration>
                <voice>1</voice>
                <type>16th</type>
                <beam number="1">continue</beam>
                <beam number="2">continue</beam>
                <lyric number="1" name="verse">
                    <syllabic>end</syllabic>
                    <text>Aux</text>
                </lyric>
            </note>
        </measure>
        <measure number="20">
            <print new-system="no"/>
            <note>
                <pitch>
                    <step>D</step>
                    <octave>5</octave>
                </pitch>
                <duration>1536</duration>
                <tie type="start"/>
                <voice>1</voice>
                <type>half</type>
                <notations>
                    <tied type="start"/>
                </notations>
                <lyric number="1" name="verse">
                    <syllabic>middle</syllabic>
                    <text>ar</text>
                    <extend/>
                </lyric>
            </note>
            <note>
                <pitch>
                    <step>D</step>
                    <octave>5</octave>
                </pitch>
                <duration>576</duration>
                <voice>1</voice>
                <type>eighth</type>
                <dot/>
                <beam number="1">begin</beam>
            </note>
            <note>
                <pitch>
                    <step>D</step>
                    <octave>5</octave>
                </pitch>
                <duration>192</duration>
                <voice>1</voice>
                <type>16th</type>
                <beam number="1">continue</beam>
                <beam number="2">continue</beam>
                <lyric number="1" name="verse">
                    <syllabic>end</syllabic>
                    <text>mes</text>
                </lyric>
            </note>
            <note>
                <pitch>
                    <step>B</step>
                    <octave>4</octave>
                </pitch>
                <duration>576</duration>
                <voice>1</voice>
                <type>eighth</type>
                <dot/>
                <beam number="1">begin</beam>
                <lyric number="1" name="verse">
                    <syllabic>middle</syllabic>
                    <text>ci</text>
                </lyric>
            </note>
            <note>
                <pitch>
                    <step>G</step>
                    <octave>4</octave>
                </pitch>
                <duration>192</duration>
                <voice>1</voice>
                <type>16th</type>
                <beam number="1">continue</beam>
                <beam number="2">continue</beam>
                <lyric number="1" name="verse">
                    <syllabic>middle</syllabic>
                    <text>toy</text>
                </lyric>
            </note>
        </measure>
        <measure number="21">
            <print new-system="no"/>
            <note>
                <pitch>
                    <step>A</step>
                    <octave>4</octave>
                </pitch>
                <duration>2304</duration>
                <voice>1</voice>
                <type>half</type>
                <dot/>
                <lyric number="1" name="verse">
                    <syllabic>end</syllabic>
                    <text>ens</text>
                </lyric>
            </note>
            <note>
                <rest/>
                <duration>576</duration>
                <voice>1</voice>
                <type>eighth</type>
                <dot/>
            </note>
            <note>
                <pitch>
                    <step>D</step>
                    <octave>5</octave>
                </pitch>
                <duration>192</duration>
                <voice>1</voice>
                <type>16th</type>
                <beam number="1">continue</beam>
                <beam number="2">continue</beam>
                <lyric number="1" name="verse">
                    <syllabic>middle</syllabic>
                    <text>For</text>
                </lyric>
            </note>
        </measure>
        <measure number="22">
            <print new-system="no"/>
            <note>
                <pitch>
                    <step>D</step>
                    <octave>5</octave>
                </pitch>
                <duration>1536</duration>
                <tie type="start"/>
                <voice>1</voice>
                <type>half</type>
                <notations>
                    <tied type="start"/>
                </notations>
                <lyric number="1" name="verse">
                    <syllabic>end</syllabic>
                    <text>mez</text>
                    <extend/>
                </lyric>
            </note>
            <note>
                <pitch>
                    <step>D</step>
                    <octave>5</octave>
                </pitch>
                <duration>576</duration>
                <voice>1</voice>
                <type>eighth</type>
                <dot/>
                <beam number="1">begin</beam>
            </note>
            <note>
                <pitch>
                    <step>D</step>
                    <octave>5</octave>
                </pitch>
                <duration>192</duration>
                <voice>1</voice>
                <type>16th</type>
                <beam number="1">continue</beam>
                <beam number="2">continue</beam>
                <lyric number="1" name="verse">
                    <syllabic>end</syllabic>
                    <text>vos</text>
                </lyric>
            </note>
            <note>
                <pitch>
                    <step>B</step>
                    <octave>4</octave>
                </pitch>
                <duration>576</duration>
                <voice>1</voice>
                <type>eighth</type>
                <dot/>
                <beam number="1">begin</beam>
                <lyric number="1" name="verse">
                    <syllabic>middle</syllabic>
                    <text>ba</text>
                </lyric>
            </note>
            <note>
                <pitch>
                    <step>G</step>
                    <octave>4</octave>
                </pitch>
                <duration>192</duration>
                <voice>1</voice>
                <type>16th</type>
                <beam number="1">continue</beam>
                <beam number="2">continue</beam>
                <lyric number="1" name="verse">
                    <syllabic>middle</syllabic>
                    <text>tail</text>
                </lyric>
            </note>
        </measure>
        <measure number="23">
            <print new-system="yes"/>
            <note>
                <pitch>
                    <step>A</step>
                    <octave>4</octave>
                </pitch>
                <duration>1536</duration>
                <tie type="start"/>
                <voice>1</voice>
                <type>half</type>
                <notations>
                    <tied type="start"/>
                </notations>
                <lyric number="1" name="verse">
                    <syllabic>end</syllabic>
                    <text>lons</text>
                    <extend/>
                </lyric>
            </note>
            <note>
                <pitch>
                    <step>A</step>
                    <octave>4</octave>
                </pitch>
                <duration>384</duration>
                <voice>1</voice>
                <type>eighth</type>
                <beam number="1">begin</beam>
            </note>
            <note>
                <rest/>
                <duration>384</duration>
                <voice>1</voice>
                <type>eighth</type>
            </note>
            <note>
                <pitch>
                    <step>D</step>
                    <octave>4</octave>
                </pitch>
                <duration>768</duration>
                <voice>1</voice>
                <type>quarter</type>
                <lyric number="1" name="verse">
                    <syllabic>middle</syllabic>
                    <text>Mar</text>
                </lyric>
            </note>
        </measure>
        <measure number="24">
            <print new-system="no"/>
            <note>
                <pitch>
                    <step>G</step>
                    <octave>4</octave>
                </pitch>
                <duration>1536</duration>
                <voice>1</voice>
                <type>half</type>
                <lyric number="1" name="verse">
                    <syllabic>end</syllabic>
                    <text>chons,</text>
                </lyric>
            </note>
            <note>
                <rest/>
                <duration>768</duration>
                <voice>1</voice>
                <type>quarter</type>
            </note>
            <note>
                <pitch>
                    <step>A</step>
                    <octave>4</octave>
                </pitch>
                <duration>768</duration>
                <voice>1</voice>
                <type>quarter</type>
                <lyric number="1" name="verse">
                    <syllabic>middle</syllabic>
                    <text>mar</text>
                </lyric>
            </note>
        </measure>
        <measure number="25">
            <print new-system="no"/>
            <note>
                <pitch>
                    <step>B</step>
                    <octave>4</octave>
                </pitch>
                <duration>1536</duration>
                <voice>1</voice>
                <type>half</type>
                <lyric number="1" name="verse">
                    <syllabic>end</syllabic>
                    <text>chons,</text>
                </lyric>
            </note>
            <note>
                <rest/>
                <duration>1536</duration>
                <voice>1</voice>
                <type>half</type>
            </note>
        </measure>
        <measure number="26">
            <print new-system="no"/>
            <note>
                <pitch>
                    <step>C</step>
                    <octave>5</octave>
                </pitch>
                <duration>1536</duration>
                <voice>1</voice>
                <type>half</type>
                <lyric number="1" name="verse">
                    <syllabic>end</syllabic>
                    <text>Qu'un</text>
                </lyric>
            </note>
            <note>
                <pitch>
                    <step>D</step>
                    <octave>5</octave>
                </pitch>
                <duration>768</duration>
                <voice>1</voice>
                <type>quarter</type>
                <lyric number="1" name="verse">
                    <syllabic>end</syllabic>
                    <text>sang</text>
                </lyric>
            </note>
            <note>
                <pitch>
                    <step>E</step>
                    <octave>5</octave>
                </pitch>
                <duration>768</duration>
                <voice>1</voice>
                <type>quarter</type>
                <lyric number="1" name="verse">
                    <syllabic>middle</syllabic>
                    <text>im</text>
                </lyric>
            </note>
        </measure>
        <measure number="27">
            <note>
                <pitch>
                    <step>A</step>
                    <octave>4</octave>
                </pitch>
                <duration>1536</duration>
                <tie type="start"/>
                <voice>1</voice>
                <type>half</type>
                <notations>
                    <tied type="start"/>
                </notations>
                <lyric number="1" name="verse">
                    <syllabic>end</syllabic>
                    <text>pur</text>
                    <extend/>
                </lyric>
            </note>
            <note>
                <pitch>
                    <step>A</step>
                    <octave>4</octave>
                </pitch>
                <duration>384</duration>
                <voice>1</voice>
                <type>eighth</type>
                <beam number="1">begin</beam>
            </note>
            <note>
                <rest/>
                <duration>384</duration>
                <voice>1</voice>
                <type>eighth</type>
            </note>
            <note>
                <pitch>
                    <step>E</step>
                    <octave>5</octave>
                </pitch>
                <duration>768</duration>
                <voice>1</voice>
                <type>quarter</type>
                <lyric number="1" name="verse">
                    <syllabic>middle</syllabic>
                    <text>A</text>
                </lyric>
            </note>
        </measure>
        <measure number="28">
            <note>
                <pitch>
                    <step>D</step>
                    <octave>5</octave>
                </pitch>
                <duration>1536</duration>
                <tie type="start"/>
                <voice>1</voice>
                <type>half</type>
                <notations>
                    <tied type="start"/>
                </notations>
                <lyric number="1" name="verse">
                    <syllabic>middle</syllabic>
                    <text>breu</text>
                    <extend/>
                </lyric>
            </note>
            <note>
                <pitch>
                    <step>D</step>
                    <octave>5</octave>
                </pitch>
                <duration>576</duration>
                <voice>1</voice>
                <type>eighth</type>
                <dot/>
                <beam number="1">begin</beam>
            </note>
            <note>
                <pitch>
                    <step>B</step>
                    <octave>4</octave>
                </pitch>
                <duration>192</duration>
                <voice>1</voice>
                <type>16th</type>
                <beam number="1">continue</beam>
                <beam number="2">continue</beam>
                <lyric number="1" name="verse">
                    <syllabic>end</syllabic>
                    <text>ve</text>
                </lyric>
            </note>
            <note>
                <pitch>
                    <step>C</step>
                    <octave>5</octave>
                </pitch>
                <duration>576</duration>
                <voice>1</voice>
                <type>eighth</type>
                <dot/>
                <beam number="1">begin</beam>
                <lyric number="1" name="verse">
                    <syllabic>end</syllabic>
                    <text>nos</text>
                </lyric>
            </note>
            <note>
                <pitch>
                    <step>A</step>
                    <octave>4</octave>
                </pitch>
                <duration>192</duration>
                <voice>1</voice>
                <type>16th</type>
                <beam number="1">continue</beam>
                <beam number="2">continue</beam>
                <lyric number="1" name="verse">
                    <syllabic>middle</syllabic>
                    <text>sil</text>
                </lyric>
            </note>
        </measure>
        <measure number="29">
            <note>
                <pitch>
                    <step>G</step>
                    <octave>4</octave>
                </pitch>
                <duration>1536</duration>
                <voice>1</voice>
                <type>half</type>
                <lyric number="1" name="verse">
                    <syllabic>end</syllabic>
                    <text>lons.</text>
                </lyric>
            </note>
            <barline location="right">
                <bar-style>light-heavy</bar-style>
            </barline>
        </measure>
    </part>
</score-partwise>
