<?xml version="1.0" encoding="UTF-8"?>
<!DOCTYPE score-partwise PUBLIC "-//Recordare//DTD MusicXML 2.0 Partwise//EN" "http://www.musicxml.org/dtds/partwise.dtd">
<score-partwise version="2.0">
    <work>
        <work-number></work-number>
        <work-title></work-title>
    </work>
    <movement-number></movement-number>
    <movement-title>Piel Canela </movement-title>
    <identification>
        <creator type="composer">Bobby Capo</creator>
        <creator type="poet"></creator>
        <rights>All Rights Reserved</rights>
        <encoding>
            <software>Finale 2009 for Windows</software>
            <software>Dolet Light for Finale 2009</software>
            <encoding-date>2010-02-08</encoding-date>
            <supports value="yes" type="yes" element="print" attribute="new-system"/>
            <supports value="yes" type="yes" element="print" attribute="new-page"/>
            <software>ProxyMusic 2.0 c</software>
        </encoding>
        <source>http://wikifonia.org/node/4224/revisions/6096/view</source>
    </identification>
    <defaults>
        <scaling>
            <millimeters>7.2319</millimeters>
            <tenths>40</tenths>
        </scaling>
        <page-layout>
            <page-height>1545</page-height>
            <page-width>1194</page-width>
            <page-margins type="both">
                <left-margin>70</left-margin>
                <right-margin>70</right-margin>
                <top-margin>88</top-margin>
                <bottom-margin>88</bottom-margin>
            </page-margins>
        </page-layout>
        <system-layout>
            <system-margins>
                <left-margin>0</left-margin>
                <right-margin>0</right-margin>
            </system-margins>
            <system-distance>121</system-distance>
            <top-system-distance>70</top-system-distance>
        </system-layout>
        <appearance>
            <line-width type="stem">0.8175</line-width>
            <line-width type="beam">4.2708</line-width>
            <line-width type="staff">0.8008</line-width>
            <line-width type="light barline">1.6016</line-width>
            <line-width type="heavy barline">4.2708</line-width>
            <line-width type="leger">1.6016</line-width>
            <line-width type="ending">1.2457</line-width>
            <line-width type="wedge">1.2457</line-width>
            <line-width type="enclosure">0.8008</line-width>
            <line-width type="tuplet bracket">0.8008</line-width>
            <note-size type="grace">60</note-size>
            <note-size type="cue">60</note-size>
        </appearance>
        <music-font font-size="20.5" font-family="Maestro"/>
        <word-font font-size="10.25" font-family="Times New Roman"/>
    </defaults>
    <credit page="1">
        <credit-words font-size="10" default-y="200" default-x="599" justify="center" valign="bottom">Transcripción: ALBERTO BETANCOURT</credit-words>
    </credit>
    <credit page="1">
        <credit-words font-weight="bold" font-size="24" default-y="1440" default-x="597" justify="center" valign="top">PIEL CANELA</credit-words>
    </credit>
    <credit page="1">
        <credit-words font-weight="bold" font-size="12" default-y="1355" default-x="1124" justify="right" valign="top">BOBBY CAPO</credit-words>
    </credit>
    <part-list>
        <score-part id="P1">
            <part-name print-object="no">MusicXML Part</part-name>
            <score-instrument id="P1-I1">
                <instrument-name>Grand Piano</instrument-name>
            </score-instrument>
            <midi-instrument id="P1-I1">
                <midi-channel>1</midi-channel>
                <midi-program>1</midi-program>
                <volume>80</volume>
                <pan>0</pan>
            </midi-instrument>
        </score-part>
    </part-list>
    <part id="P1">
        <measure width="167" number="1">
            <print>
                <system-layout>
                    <system-margins>
                        <left-margin>1</left-margin>
                        <right-margin>0</right-margin>
                    </system-margins>
                    <top-system-distance>211</top-system-distance>
                </system-layout>
            </print>
            <attributes>
                <divisions>12</divisions>
                <key>
                    <fifths>-1</fifths>
                    <mode>major</mode>
                </key>
                <time symbol="common">
                    <beats>4</beats>
                    <beat-type>4</beat-type>
                </time>
                <clef>
                    <sign>G</sign>
                    <line>2</line>
                </clef>
            </attributes>
            <direction placement="above" directive="yes">
                <direction-type>
                    <words font-weight="bold" font-size="12" default-y="9">Chacha</words>
                </direction-type>
                <sound tempo="108"/>
            </direction>
            <note default-x="99">
                <pitch>
                    <step>C</step>
                    <octave>4</octave>
                </pitch>
                <duration>6</duration>
                <voice>1</voice>
                <type>eighth</type>
                <stem default-y="-15">up</stem>
                <beam number="1">begin</beam>
            </note>
            <note default-x="129">
                <pitch>
                    <step>C</step>
                    <alter>1</alter>
                    <octave>4</octave>
                </pitch>
                <duration>6</duration>
                <voice>1</voice>
                <type>eighth</type>
                <accidental>sharp</accidental>
                <stem default-y="-15">up</stem>
                <beam number="1">end</beam>
            </note>
        </measure>
        <measure width="216" number="2">
            <harmony font-family="Arial" default-y="40">
                <root>
                    <root-step>G</root-step>
                </root>
                <kind halign="center" text="m7">minor-seventh</kind>
            </harmony>
            <note default-x="10">
                <pitch>
                    <step>D</step>
                    <octave>4</octave>
                </pitch>
                <duration>6</duration>
                <voice>1</voice>
                <type>eighth</type>
                <stem default-y="-9.5">up</stem>
            </note>
            <note default-x="36">
                <pitch>
                    <step>B</step>
                    <alter>-1</alter>
                    <octave>4</octave>
                </pitch>
                <duration>12</duration>
                <voice>1</voice>
                <type>quarter</type>
                <stem default-y="-55">down</stem>
            </note>
            <note default-x="72">
                <pitch>
                    <step>C</step>
                    <octave>4</octave>
                </pitch>
                <duration>3</duration>
                <voice>1</voice>
                <type>16th</type>
                <stem default-y="-15">up</stem>
                <beam number="1">begin</beam>
                <beam number="2">begin</beam>
            </note>
            <note default-x="103">
                <pitch>
                    <step>C</step>
                    <alter>1</alter>
                    <octave>4</octave>
                </pitch>
                <duration>3</duration>
                <voice>1</voice>
                <type>16th</type>
                <accidental>sharp</accidental>
                <stem default-y="-15">up</stem>
                <beam number="1">end</beam>
                <beam number="2">end</beam>
            </note>
            <harmony font-family="Arial" default-y="40">
                <root>
                    <root-step>C</root-step>
                </root>
                <kind halign="center" text="7">dominant</kind>
            </harmony>
            <note default-x="122">
                <pitch>
                    <step>D</step>
                    <octave>4</octave>
                </pitch>
                <duration>6</duration>
                <voice>1</voice>
                <type>eighth</type>
                <stem default-y="-9.5">up</stem>
            </note>
            <note default-x="148">
                <pitch>
                    <step>B</step>
                    <alter>-1</alter>
                    <octave>4</octave>
                </pitch>
                <duration>12</duration>
                <voice>1</voice>
                <type>quarter</type>
                <stem default-y="-55">down</stem>
            </note>
            <note default-x="184">
                <pitch>
                    <step>E</step>
                    <octave>4</octave>
                </pitch>
                <duration>6</duration>
                <voice>1</voice>
                <type>eighth</type>
                <stem default-y="-5">up</stem>
            </note>
        </measure>
        <measure width="187" number="3">
            <harmony font-family="Arial" default-y="40">
                <root>
                    <root-step>F</root-step>
                </root>
                <kind halign="center" text="">major</kind>
            </harmony>
            <note default-x="10">
                <pitch>
                    <step>G</step>
                    <octave>4</octave>
                </pitch>
                <duration>6</duration>
                <voice>1</voice>
                <type>eighth</type>
                <stem default-y="5.5">up</stem>
            </note>
            <note default-x="35">
                <pitch>
                    <step>F</step>
                    <octave>4</octave>
                </pitch>
                <duration>12</duration>
                <voice>1</voice>
                <type>quarter</type>
                <stem default-y="1">up</stem>
            </note>
            <note default-x="70">
                <pitch>
                    <step>E</step>
                    <octave>4</octave>
                </pitch>
                <duration>6</duration>
                <voice>1</voice>
                <type>eighth</type>
                <stem default-y="-5">up</stem>
            </note>
            <harmony font-family="Arial" default-y="40">
                <root>
                    <root-step>D</root-step>
                </root>
                <kind halign="center" text="m7">minor-seventh</kind>
            </harmony>
            <note default-x="94">
                <pitch>
                    <step>A</step>
                    <octave>4</octave>
                </pitch>
                <duration>8</duration>
                <voice>1</voice>
                <type>quarter</type>
                <time-modification>
                    <actual-notes>3</actual-notes>
                    <normal-notes>2</normal-notes>
                </time-modification>
                <stem default-y="10.5">up</stem>
                <notations>
                    <tuplet placement="above" type="start" number="1" bracket="yes"/>
                </notations>
            </note>
            <note default-x="123">
                <pitch>
                    <step>G</step>
                    <octave>4</octave>
                </pitch>
                <duration>8</duration>
                <voice>1</voice>
                <type>quarter</type>
                <time-modification>
                    <actual-notes>3</actual-notes>
                    <normal-notes>2</normal-notes>
                </time-modification>
                <stem default-y="5.5">up</stem>
            </note>
            <note default-x="152">
                <pitch>
                    <step>F</step>
                    <octave>4</octave>
                </pitch>
                <duration>8</duration>
                <voice>1</voice>
                <type>quarter</type>
                <time-modification>
                    <actual-notes>3</actual-notes>
                    <normal-notes>2</normal-notes>
                </time-modification>
                <stem default-y="1">up</stem>
                <notations>
                    <tuplet type="stop" number="1"/>
                </notations>
            </note>
        </measure>
        <measure width="231" number="4">
            <harmony font-family="Arial" default-y="40">
                <root>
                    <root-step>G</root-step>
                </root>
                <kind halign="center" text="7">dominant</kind>
            </harmony>
            <note default-x="10">
                <pitch>
                    <step>E</step>
                    <octave>4</octave>
                </pitch>
                <duration>6</duration>
                <voice>1</voice>
                <type>eighth</type>
                <stem default-y="-5">up</stem>
            </note>
            <note default-x="37">
                <pitch>
                    <step>D</step>
                    <octave>4</octave>
                </pitch>
                <duration>18</duration>
                <voice>1</voice>
                <type>quarter</type>
                <dot/>
                <stem default-y="-9.5">up</stem>
            </note>
            <note default-x="81">
                <pitch>
                    <step>C</step>
                    <alter>1</alter>
                    <octave>4</octave>
                </pitch>
                <duration>4</duration>
                <voice>1</voice>
                <type>eighth</type>
                <accidental>sharp</accidental>
                <time-modification>
                    <actual-notes>3</actual-notes>
                    <normal-notes>2</normal-notes>
                </time-modification>
                <stem default-y="-10">up</stem>
                <beam number="1">begin</beam>
                <notations>
                    <tuplet placement="above" type="start" number="1"/>
                </notations>
            </note>
            <note default-x="103">
                <pitch>
                    <step>D</step>
                    <octave>4</octave>
                </pitch>
                <duration>4</duration>
                <voice>1</voice>
                <type>eighth</type>
                <time-modification>
                    <actual-notes>3</actual-notes>
                    <normal-notes>2</normal-notes>
                </time-modification>
                <stem default-y="-10">up</stem>
                <beam number="1">continue</beam>
            </note>
            <note default-x="131">
                <pitch>
                    <step>D</step>
                    <alter>1</alter>
                    <octave>4</octave>
                </pitch>
                <duration>4</duration>
                <voice>1</voice>
                <type>eighth</type>
                <accidental>sharp</accidental>
                <time-modification>
                    <actual-notes>3</actual-notes>
                    <normal-notes>2</normal-notes>
                </time-modification>
                <stem default-y="-10">up</stem>
                <beam number="1">end</beam>
                <notations>
                    <tuplet type="stop" number="1"/>
                </notations>
            </note>
            <note default-x="153">
                <pitch>
                    <step>E</step>
                    <octave>4</octave>
                </pitch>
                <duration>4</duration>
                <voice>1</voice>
                <type>eighth</type>
                <time-modification>
                    <actual-notes>3</actual-notes>
                    <normal-notes>2</normal-notes>
                </time-modification>
                <stem default-y="0">up</stem>
                <beam number="1">begin</beam>
                <notations>
                    <tuplet placement="above" type="start" number="1"/>
                </notations>
            </note>
            <note default-x="174">
                <pitch>
                    <step>F</step>
                    <octave>4</octave>
                </pitch>
                <duration>4</duration>
                <voice>1</voice>
                <type>eighth</type>
                <time-modification>
                    <actual-notes>3</actual-notes>
                    <normal-notes>2</normal-notes>
                </time-modification>
                <stem default-y="0">up</stem>
                <beam number="1">continue</beam>
            </note>
            <note default-x="202">
                <pitch>
                    <step>F</step>
                    <alter>1</alter>
                    <octave>4</octave>
                </pitch>
                <duration>4</duration>
                <voice>1</voice>
                <type>eighth</type>
                <accidental>sharp</accidental>
                <time-modification>
                    <actual-notes>3</actual-notes>
                    <normal-notes>2</normal-notes>
                </time-modification>
                <stem default-y="0">up</stem>
                <beam number="1">end</beam>
                <notations>
                    <tuplet type="stop" number="1"/>
                </notations>
            </note>
        </measure>
        <measure width="252" number="5">
            <harmony font-family="Arial" default-y="40">
                <root>
                    <root-step>C</root-step>
                </root>
                <kind halign="center" text="7">dominant</kind>
            </harmony>
            <note default-x="10">
                <pitch>
                    <step>G</step>
                    <octave>4</octave>
                </pitch>
                <duration>6</duration>
                <voice>1</voice>
                <type>eighth</type>
                <stem default-y="5.5">up</stem>
            </note>
            <note default-x="42">
                <rest/>
                <duration>6</duration>
                <voice>1</voice>
                <type>eighth</type>
            </note>
            <harmony font-family="Arial" default-y="40">
                <root>
                    <root-step>F</root-step>
                    <root-alter>1</root-alter>
                </root>
                <kind halign="center" text="dim">diminished</kind>
            </harmony>
            <note default-x="65">
                <pitch>
                    <step>A</step>
                    <octave>4</octave>
                </pitch>
                <duration>12</duration>
                <voice>1</voice>
                <type>quarter</type>
                <stem default-y="10.5">up</stem>
                <notations>
                    <slur placement="above" type="start" number="1"/>
                </notations>
            </note>
            <harmony font-family="Arial" default-y="40">
                <root>
                    <root-step>G</root-step>
                </root>
                <kind halign="center" text="m7">minor-seventh</kind>
            </harmony>
            <note default-x="119">
                <pitch>
                    <step>B</step>
                    <alter>-1</alter>
                    <octave>4</octave>
                </pitch>
                <duration>6</duration>
                <voice>1</voice>
                <type>eighth</type>
                <stem default-y="15">up</stem>
                <notations>
                    <slur type="stop" number="1"/>
                </notations>
            </note>
            <note default-x="153">
                <rest/>
                <duration>6</duration>
                <voice>1</voice>
                <type>eighth</type>
            </note>
            <direction placement="above">
                <direction-type>
                    <words font-weight="bold" default-y="40">N.C.</words>
                </direction-type>
            </direction>
            <note default-x="181">
                <pitch>
                    <step>C</step>
                    <octave>4</octave>
                </pitch>
                <duration>6</duration>
                <voice>1</voice>
                <type>eighth</type>
                <stem default-y="-15">up</stem>
                <beam number="1">begin</beam>
            </note>
            <note default-x="213">
                <pitch>
                    <step>C</step>
                    <alter>1</alter>
                    <octave>4</octave>
                </pitch>
                <duration>6</duration>
                <voice>1</voice>
                <type>eighth</type>
                <accidental>sharp</accidental>
                <stem default-y="-15">up</stem>
                <beam number="1">end</beam>
            </note>
        </measure>
        <measure width="296" number="6">
            <print new-system="yes">
                <system-layout>
                    <system-distance>114</system-distance>
                </system-layout>
            </print>
            <barline location="left">
                <bar-style>heavy-light</bar-style>
                <repeat direction="forward"/>
            </barline>
            <direction placement="above">
                <direction-type>
                    <segno default-y="43" default-x="51"/>
                </direction-type>
                <sound segno="6" divisions="12"/>
            </direction>
            <harmony font-family="Arial" default-y="40">
                <root>
                    <root-step>G</root-step>
                </root>
                <kind halign="center" text="m7">minor-seventh</kind>
            </harmony>
            <note default-x="89">
                <pitch>
                    <step>D</step>
                    <octave>4</octave>
                </pitch>
                <duration>6</duration>
                <voice>1</voice>
                <type>eighth</type>
                <stem default-y="-10">up</stem>
                <beam number="1">begin</beam>
            </note>
            <note default-x="114">
                <pitch>
                    <step>D</step>
                    <octave>4</octave>
                </pitch>
                <duration>6</duration>
                <voice>1</voice>
                <type>eighth</type>
                <stem default-y="-10">up</stem>
                <beam number="1">continue</beam>
            </note>
            <note default-x="140">
                <pitch>
                    <step>D</step>
                    <octave>4</octave>
                </pitch>
                <duration>6</duration>
                <voice>1</voice>
                <type>eighth</type>
                <stem default-y="-10">up</stem>
                <beam number="1">continue</beam>
            </note>
            <note default-x="164">
                <pitch>
                    <step>D</step>
                    <octave>4</octave>
                </pitch>
                <duration>6</duration>
                <voice>1</voice>
                <type>eighth</type>
                <stem default-y="-10">up</stem>
                <beam number="1">end</beam>
            </note>
            <harmony font-family="Arial" default-y="40">
                <root>
                    <root-step>C</root-step>
                </root>
                <kind halign="center" text="7">dominant</kind>
            </harmony>
            <note default-x="189">
                <pitch>
                    <step>A</step>
                    <octave>4</octave>
                </pitch>
                <duration>6</duration>
                <voice>1</voice>
                <type>eighth</type>
                <stem default-y="10">up</stem>
                <beam number="1">begin</beam>
            </note>
            <note default-x="214">
                <pitch>
                    <step>A</step>
                    <octave>4</octave>
                </pitch>
                <duration>6</duration>
                <voice>1</voice>
                <type>eighth</type>
                <stem default-y="10">up</stem>
                <beam number="1">continue</beam>
            </note>
            <note default-x="239">
                <pitch>
                    <step>A</step>
                    <octave>4</octave>
                </pitch>
                <duration>6</duration>
                <voice>1</voice>
                <type>eighth</type>
                <stem default-y="10">up</stem>
                <beam number="1">continue</beam>
            </note>
            <note default-x="264">
                <pitch>
                    <step>A</step>
                    <octave>4</octave>
                </pitch>
                <duration>6</duration>
                <voice>1</voice>
                <type>eighth</type>
                <stem default-y="10">up</stem>
                <beam number="1">end</beam>
            </note>
        </measure>
        <measure width="195" number="7">
            <harmony font-family="Arial" default-y="40">
                <root>
                    <root-step>F</root-step>
                </root>
                <kind halign="center" text="">major</kind>
            </harmony>
            <note default-x="10">
                <pitch>
                    <step>G</step>
                    <octave>4</octave>
                </pitch>
                <duration>6</duration>
                <voice>1</voice>
                <type>eighth</type>
                <stem default-y="5">up</stem>
                <beam number="1">begin</beam>
            </note>
            <note default-x="35">
                <pitch>
                    <step>F</step>
                    <octave>4</octave>
                </pitch>
                <duration>6</duration>
                <tie type="start"/>
                <voice>1</voice>
                <type>eighth</type>
                <stem default-y="0">up</stem>
                <beam number="1">end</beam>
                <notations>
                    <tied type="start"/>
                </notations>
            </note>
            <note default-x="63">
                <pitch>
                    <step>F</step>
                    <octave>4</octave>
                </pitch>
                <duration>12</duration>
                <tie type="stop"/>
                <tie type="start"/>
                <voice>1</voice>
                <type>quarter</type>
                <stem default-y="0.5">up</stem>
                <notations>
                    <tied type="stop"/>
                    <tied type="start"/>
                </notations>
            </note>
            <note default-x="98">
                <pitch>
                    <step>F</step>
                    <octave>4</octave>
                </pitch>
                <duration>12</duration>
                <tie type="stop"/>
                <voice>1</voice>
                <type>quarter</type>
                <stem default-y="0.5">up</stem>
                <notations>
                    <tied type="stop"/>
                </notations>
            </note>
            <note default-x="132">
                <pitch>
                    <step>C</step>
                    <octave>4</octave>
                </pitch>
                <duration>6</duration>
                <voice>1</voice>
                <type>eighth</type>
                <stem default-y="-15">up</stem>
                <beam number="1">begin</beam>
            </note>
            <note default-x="163">
                <pitch>
                    <step>C</step>
                    <alter>1</alter>
                    <octave>4</octave>
                </pitch>
                <duration>6</duration>
                <voice>1</voice>
                <type>eighth</type>
                <accidental>sharp</accidental>
                <stem default-y="-15">up</stem>
                <beam number="1">end</beam>
            </note>
        </measure>
        <measure width="219" number="8">
            <harmony font-family="Arial" default-y="40">
                <root>
                    <root-step>G</root-step>
                </root>
                <kind halign="center" text="m7">minor-seventh</kind>
            </harmony>
            <note default-x="13">
                <pitch>
                    <step>D</step>
                    <octave>4</octave>
                </pitch>
                <duration>6</duration>
                <voice>1</voice>
                <type>eighth</type>
                <stem default-y="-10">up</stem>
                <beam number="1">begin</beam>
            </note>
            <note default-x="37">
                <pitch>
                    <step>D</step>
                    <octave>4</octave>
                </pitch>
                <duration>6</duration>
                <voice>1</voice>
                <type>eighth</type>
                <stem default-y="-10">up</stem>
                <beam number="1">continue</beam>
            </note>
            <note default-x="63">
                <pitch>
                    <step>D</step>
                    <octave>4</octave>
                </pitch>
                <duration>6</duration>
                <voice>1</voice>
                <type>eighth</type>
                <stem default-y="-10">up</stem>
                <beam number="1">continue</beam>
            </note>
            <note default-x="88">
                <pitch>
                    <step>D</step>
                    <octave>4</octave>
                </pitch>
                <duration>6</duration>
                <voice>1</voice>
                <type>eighth</type>
                <stem default-y="-10">up</stem>
                <beam number="1">end</beam>
            </note>
            <harmony font-family="Arial" default-y="40">
                <root>
                    <root-step>C</root-step>
                </root>
                <kind halign="center" text="7">dominant</kind>
            </harmony>
            <note default-x="113">
                <pitch>
                    <step>A</step>
                    <octave>4</octave>
                </pitch>
                <duration>6</duration>
                <voice>1</voice>
                <type>eighth</type>
                <stem default-y="10">up</stem>
                <beam number="1">begin</beam>
            </note>
            <note default-x="137">
                <pitch>
                    <step>A</step>
                    <octave>4</octave>
                </pitch>
                <duration>6</duration>
                <voice>1</voice>
                <type>eighth</type>
                <stem default-y="10">up</stem>
                <beam number="1">continue</beam>
            </note>
            <note default-x="162">
                <pitch>
                    <step>A</step>
                    <octave>4</octave>
                </pitch>
                <duration>6</duration>
                <voice>1</voice>
                <type>eighth</type>
                <stem default-y="10">up</stem>
                <beam number="1">continue</beam>
            </note>
            <note default-x="187">
                <pitch>
                    <step>A</step>
                    <octave>4</octave>
                </pitch>
                <duration>6</duration>
                <voice>1</voice>
                <type>eighth</type>
                <stem default-y="10">up</stem>
                <beam number="1">end</beam>
            </note>
        </measure>
        <measure width="127" number="9">
            <harmony font-family="Arial" default-y="40">
                <root>
                    <root-step>F</root-step>
                </root>
                <kind halign="center" text="">major</kind>
            </harmony>
            <note default-x="10">
                <pitch>
                    <step>C</step>
                    <octave>5</octave>
                </pitch>
                <duration>36</duration>
                <voice>1</voice>
                <type>half</type>
                <dot/>
                <stem default-y="-50">down</stem>
            </note>
            <note default-x="70">
                <pitch>
                    <step>B</step>
                    <alter>-1</alter>
                    <octave>4</octave>
                </pitch>
                <duration>6</duration>
                <voice>1</voice>
                <type>eighth</type>
                <stem default-y="15">up</stem>
                <beam number="1">begin</beam>
            </note>
            <note default-x="95">
                <pitch>
                    <step>A</step>
                    <octave>4</octave>
                </pitch>
                <duration>6</duration>
                <voice>1</voice>
                <type>eighth</type>
                <stem default-y="10">up</stem>
                <beam number="1">end</beam>
            </note>
        </measure>
        <measure width="217" number="10">
            <harmony font-family="Arial" default-y="40">
                <root>
                    <root-step>E</root-step>
                </root>
                <kind halign="center">minor-seventh</kind>
                <degree>
                    <degree-value>5</degree-value>
                    <degree-alter>-1</degree-alter>
                    <degree-type>alter</degree-type>
                </degree>
            </harmony>
            <note default-x="10">
                <pitch>
                    <step>B</step>
                    <alter>-1</alter>
                    <octave>4</octave>
                </pitch>
                <duration>6</duration>
                <voice>1</voice>
                <type>eighth</type>
                <stem default-y="15">up</stem>
                <beam number="1">begin</beam>
            </note>
            <note default-x="35">
                <pitch>
                    <step>A</step>
                    <octave>4</octave>
                </pitch>
                <duration>6</duration>
                <voice>1</voice>
                <type>eighth</type>
                <stem default-y="13.5">up</stem>
                <beam number="1">continue</beam>
            </note>
            <note default-x="60">
                <pitch>
                    <step>A</step>
                    <octave>4</octave>
                </pitch>
                <duration>6</duration>
                <voice>1</voice>
                <type>eighth</type>
                <stem default-y="12">up</stem>
                <beam number="1">continue</beam>
            </note>
            <note default-x="85">
                <pitch>
                    <step>G</step>
                    <octave>4</octave>
                </pitch>
                <duration>6</duration>
                <voice>1</voice>
                <type>eighth</type>
                <stem default-y="10">up</stem>
                <beam number="1">end</beam>
            </note>
            <harmony font-family="Arial" default-y="40">
                <root>
                    <root-step>A</root-step>
                </root>
                <kind halign="center" text="7">dominant</kind>
            </harmony>
            <note default-x="110">
                <pitch>
                    <step>G</step>
                    <octave>4</octave>
                </pitch>
                <duration>6</duration>
                <voice>1</voice>
                <type>eighth</type>
                <stem default-y="5">up</stem>
                <beam number="1">begin</beam>
            </note>
            <note default-x="135">
                <pitch>
                    <step>F</step>
                    <octave>4</octave>
                </pitch>
                <duration>6</duration>
                <voice>1</voice>
                <type>eighth</type>
                <stem default-y="3">up</stem>
                <beam number="1">continue</beam>
            </note>
            <note default-x="160">
                <pitch>
                    <step>F</step>
                    <octave>4</octave>
                </pitch>
                <duration>6</duration>
                <voice>1</voice>
                <type>eighth</type>
                <stem default-y="2">up</stem>
                <beam number="1">continue</beam>
            </note>
            <note default-x="185">
                <pitch>
                    <step>E</step>
                    <octave>4</octave>
                </pitch>
                <duration>6</duration>
                <voice>1</voice>
                <type>eighth</type>
                <stem default-y="0">up</stem>
                <beam number="1">end</beam>
            </note>
        </measure>
        <measure width="265" number="11">
            <print new-system="yes">
                <system-layout>
                    <system-distance>114</system-distance>
                </system-layout>
            </print>
            <harmony font-family="Arial" default-y="40">
                <root>
                    <root-step>D</root-step>
                </root>
                <kind halign="center" text="m">minor</kind>
            </harmony>
            <note default-x="71">
                <pitch>
                    <step>E</step>
                    <octave>4</octave>
                </pitch>
                <duration>6</duration>
                <voice>1</voice>
                <type>eighth</type>
                <stem default-y="-5">up</stem>
                <beam number="1">begin</beam>
            </note>
            <note default-x="99">
                <pitch>
                    <step>D</step>
                    <octave>4</octave>
                </pitch>
                <duration>6</duration>
                <tie type="start"/>
                <voice>1</voice>
                <type>eighth</type>
                <stem default-y="-10">up</stem>
                <beam number="1">end</beam>
                <notations>
                    <tied type="start"/>
                </notations>
            </note>
            <note default-x="126">
                <pitch>
                    <step>D</step>
                    <octave>4</octave>
                </pitch>
                <duration>12</duration>
                <tie type="stop"/>
                <tie type="start"/>
                <voice>1</voice>
                <type>quarter</type>
                <stem default-y="-9">up</stem>
                <notations>
                    <tied type="stop"/>
                    <tied type="start"/>
                </notations>
            </note>
            <note default-x="165">
                <pitch>
                    <step>D</step>
                    <octave>4</octave>
                </pitch>
                <duration>12</duration>
                <tie type="stop"/>
                <voice>1</voice>
                <type>quarter</type>
                <stem default-y="-9">up</stem>
                <notations>
                    <tied type="stop"/>
                </notations>
            </note>
            <note default-x="203">
                <pitch>
                    <step>A</step>
                    <octave>4</octave>
                </pitch>
                <duration>6</duration>
                <voice>1</voice>
                <type>eighth</type>
                <stem default-y="10">up</stem>
                <beam number="1">begin</beam>
            </note>
            <note default-x="231">
                <pitch>
                    <step>G</step>
                    <octave>4</octave>
                </pitch>
                <duration>6</duration>
                <voice>1</voice>
                <type>eighth</type>
                <stem default-y="5">up</stem>
                <beam number="1">end</beam>
            </note>
        </measure>
        <measure width="232" number="12">
            <harmony font-family="Arial" default-y="40">
                <root>
                    <root-step>G</root-step>
                </root>
                <kind halign="center" text="7">dominant</kind>
            </harmony>
            <note default-x="10">
                <pitch>
                    <step>A</step>
                    <octave>4</octave>
                </pitch>
                <duration>6</duration>
                <voice>1</voice>
                <type>eighth</type>
                <stem default-y="10">up</stem>
                <beam number="1">begin</beam>
            </note>
            <note default-x="37">
                <pitch>
                    <step>G</step>
                    <octave>4</octave>
                </pitch>
                <duration>6</duration>
                <voice>1</voice>
                <type>eighth</type>
                <stem default-y="8">up</stem>
                <beam number="1">continue</beam>
            </note>
            <note default-x="64">
                <pitch>
                    <step>G</step>
                    <octave>4</octave>
                </pitch>
                <duration>6</duration>
                <voice>1</voice>
                <type>eighth</type>
                <stem default-y="7">up</stem>
                <beam number="1">continue</beam>
            </note>
            <note default-x="91">
                <pitch>
                    <step>F</step>
                    <octave>4</octave>
                </pitch>
                <duration>6</duration>
                <voice>1</voice>
                <type>eighth</type>
                <stem default-y="5">up</stem>
                <beam number="1">end</beam>
            </note>
            <note default-x="118">
                <pitch>
                    <step>F</step>
                    <octave>4</octave>
                </pitch>
                <duration>6</duration>
                <voice>1</voice>
                <type>eighth</type>
                <stem default-y="0">up</stem>
                <beam number="1">begin</beam>
            </note>
            <note default-x="145">
                <pitch>
                    <step>E</step>
                    <octave>4</octave>
                </pitch>
                <duration>6</duration>
                <voice>1</voice>
                <type>eighth</type>
                <stem default-y="0">up</stem>
                <beam number="1">continue</beam>
            </note>
            <note default-x="172">
                <pitch>
                    <step>E</step>
                    <octave>4</octave>
                </pitch>
                <duration>6</duration>
                <voice>1</voice>
                <type>eighth</type>
                <stem default-y="0">up</stem>
                <beam number="1">continue</beam>
            </note>
            <note default-x="198">
                <pitch>
                    <step>F</step>
                    <octave>4</octave>
                </pitch>
                <duration>6</duration>
                <voice>1</voice>
                <type>eighth</type>
                <stem default-y="0">up</stem>
                <beam number="1">end</beam>
            </note>
        </measure>
        <measure width="160" number="13">
            <barline location="left">
                <ending font-size="8.5" default-y="33" type="start" number="1" end-length="23"></ending>
            </barline>
            <harmony font-family="Arial" default-y="40">
                <root>
                    <root-step>C</root-step>
                </root>
                <kind halign="center" text="7">dominant</kind>
            </harmony>
            <note default-x="10">
                <pitch>
                    <step>G</step>
                    <octave>4</octave>
                </pitch>
                <duration>36</duration>
                <voice>1</voice>
                <type>half</type>
                <dot/>
                <stem default-y="5.5">up</stem>
            </note>
            <note default-x="76">
                <pitch>
                    <step>C</step>
                    <octave>4</octave>
                </pitch>
                <duration>6</duration>
                <voice>1</voice>
                <type>eighth</type>
                <stem default-y="-15">up</stem>
                <beam number="1">begin</beam>
            </note>
            <note default-x="107">
                <pitch>
                    <step>C</step>
                    <alter>1</alter>
                    <octave>4</octave>
                </pitch>
                <duration>6</duration>
                <voice>1</voice>
                <type>eighth</type>
                <accidental>sharp</accidental>
                <stem default-y="-15">up</stem>
                <beam number="1">end</beam>
            </note>
            <barline location="right">
                <bar-style>light-heavy</bar-style>
                <ending type="stop" number="1"></ending>
                <repeat direction="backward"/>
            </barline>
        </measure>
        <measure width="187" number="14">
            <barline location="left">
                <ending font-size="8.5" default-y="37" type="start" number="1" end-length="27">2</ending>
            </barline>
            <harmony font-family="Arial" default-y="40">
                <root>
                    <root-step>C</root-step>
                </root>
                <kind halign="center" text="7">dominant</kind>
            </harmony>
            <note default-x="8">
                <pitch>
                    <step>G</step>
                    <octave>4</octave>
                </pitch>
                <duration>12</duration>
                <voice>1</voice>
                <type>quarter</type>
                <stem default-y="5.5">up</stem>
            </note>
            <note default-x="47">
                <rest/>
                <duration>6</duration>
                <voice>1</voice>
                <type>eighth</type>
            </note>
            <note default-x="74">
                <pitch>
                    <step>C</step>
                    <octave>4</octave>
                </pitch>
                <duration>6</duration>
                <voice>1</voice>
                <type>eighth</type>
                <stem default-y="-14.5">up</stem>
            </note>
            <note default-x="104">
                <pitch>
                    <step>D</step>
                    <octave>4</octave>
                </pitch>
                <duration>12</duration>
                <voice>1</voice>
                <type>quarter</type>
                <stem default-y="-9">up</stem>
            </note>
            <note default-x="142">
                <pitch>
                    <step>C</step>
                    <octave>4</octave>
                </pitch>
                <duration>12</duration>
                <voice>1</voice>
                <type>quarter</type>
                <stem default-y="-14.5">up</stem>
            </note>
            <barline location="right">
                <ending type="discontinue" number="1"></ending>
            </barline>
        </measure>
        <measure width="210" number="15">
            <harmony font-family="Arial" default-y="40">
                <root>
                    <root-step>C</root-step>
                </root>
                <kind halign="center" text="7">dominant</kind>
            </harmony>
            <note default-x="13">
                <pitch>
                    <step>D</step>
                    <octave>4</octave>
                </pitch>
                <duration>12</duration>
                <voice>1</voice>
                <type>quarter</type>
                <stem default-y="-9">up</stem>
            </note>
            <note default-x="51">
                <rest/>
                <duration>6</duration>
                <voice>1</voice>
                <type>eighth</type>
            </note>
            <note default-x="79">
                <pitch>
                    <step>C</step>
                    <octave>4</octave>
                </pitch>
                <duration>6</duration>
                <voice>1</voice>
                <type>eighth</type>
                <stem default-y="-14.5">up</stem>
            </note>
            <note default-x="108">
                <pitch>
                    <step>D</step>
                    <octave>4</octave>
                </pitch>
                <duration>12</duration>
                <voice>1</voice>
                <type>quarter</type>
                <stem default-y="-9">up</stem>
            </note>
            <note default-x="147">
                <rest/>
                <duration>6</duration>
                <voice>1</voice>
                <type>eighth</type>
            </note>
            <note default-x="174">
                <pitch>
                    <step>C</step>
                    <octave>4</octave>
                </pitch>
                <duration>6</duration>
                <voice>1</voice>
                <type>eighth</type>
                <stem default-y="-14.5">up</stem>
            </note>
        </measure>
        <measure width="269" number="16">
            <print new-system="yes">
                <system-layout>
                    <system-distance>114</system-distance>
                </system-layout>
            </print>
            <note default-x="71">
                <pitch>
                    <step>D</step>
                    <octave>4</octave>
                </pitch>
                <duration>12</duration>
                <voice>1</voice>
                <type>quarter</type>
                <stem default-y="-10">up</stem>
            </note>
            <note default-x="106">
                <rest/>
                <duration>6</duration>
                <voice>1</voice>
                <type>eighth</type>
            </note>
            <note default-x="132">
                <pitch>
                    <step>C</step>
                    <octave>4</octave>
                </pitch>
                <duration>6</duration>
                <voice>1</voice>
                <type>eighth</type>
                <stem default-y="-14.5">up</stem>
            </note>
            <note default-x="162">
                <pitch>
                    <step>D</step>
                    <octave>4</octave>
                </pitch>
                <duration>6</duration>
                <voice>1</voice>
                <type>eighth</type>
                <stem default-y="-10">up</stem>
                <beam number="1">begin</beam>
            </note>
            <note default-x="187">
                <pitch>
                    <step>D</step>
                    <octave>4</octave>
                </pitch>
                <duration>6</duration>
                <voice>1</voice>
                <type>eighth</type>
                <stem default-y="-10">up</stem>
                <beam number="1">continue</beam>
            </note>
            <note default-x="212">
                <pitch>
                    <step>D</step>
                    <octave>4</octave>
                </pitch>
                <duration>6</duration>
                <voice>1</voice>
                <type>eighth</type>
                <stem default-y="-10">up</stem>
                <beam number="1">continue</beam>
            </note>
            <note default-x="237">
                <pitch>
                    <step>C</step>
                    <octave>4</octave>
                </pitch>
                <duration>6</duration>
                <voice>1</voice>
                <type>eighth</type>
                <stem default-y="-10">up</stem>
                <beam number="1">end</beam>
            </note>
        </measure>
        <measure width="198" number="17">
            <harmony font-family="Arial" default-y="40">
                <root>
                    <root-step>F</root-step>
                </root>
                <kind halign="center" text="">major</kind>
            </harmony>
            <note default-x="13">
                <pitch>
                    <step>D</step>
                    <octave>4</octave>
                </pitch>
                <duration>12</duration>
                <voice>1</voice>
                <type>quarter</type>
                <stem default-y="-10">up</stem>
            </note>
            <note default-x="48">
                <rest/>
                <duration>6</duration>
                <voice>1</voice>
                <type>eighth</type>
            </note>
            <note default-x="73">
                <pitch>
                    <step>C</step>
                    <octave>4</octave>
                </pitch>
                <duration>6</duration>
                <voice>1</voice>
                <type>eighth</type>
                <stem default-y="-14.5">up</stem>
            </note>
            <note default-x="103">
                <pitch>
                    <step>D</step>
                    <octave>4</octave>
                </pitch>
                <duration>12</duration>
                <voice>1</voice>
                <type>quarter</type>
                <stem default-y="-10">up</stem>
            </note>
            <note default-x="138">
                <rest/>
                <duration>6</duration>
                <voice>1</voice>
                <type>eighth</type>
            </note>
            <note default-x="164">
                <pitch>
                    <step>C</step>
                    <octave>4</octave>
                </pitch>
                <duration>6</duration>
                <voice>1</voice>
                <type>eighth</type>
                <stem default-y="-14.5">up</stem>
            </note>
        </measure>
        <measure width="180" number="18">
            <note default-x="13">
                <pitch>
                    <step>D</step>
                    <octave>4</octave>
                </pitch>
                <duration>12</duration>
                <voice>1</voice>
                <type>quarter</type>
                <stem default-y="-10">up</stem>
            </note>
            <note default-x="48">
                <rest/>
                <duration>6</duration>
                <voice>1</voice>
                <type>eighth</type>
            </note>
            <note default-x="73">
                <pitch>
                    <step>C</step>
                    <octave>4</octave>
                </pitch>
                <duration>6</duration>
                <voice>1</voice>
                <type>eighth</type>
                <stem default-y="-14.5">up</stem>
            </note>
            <note default-x="103">
                <pitch>
                    <step>D</step>
                    <octave>4</octave>
                </pitch>
                <duration>12</duration>
                <voice>1</voice>
                <type>quarter</type>
                <stem default-y="-10">up</stem>
            </note>
            <note default-x="138">
                <pitch>
                    <step>C</step>
                    <octave>4</octave>
                </pitch>
                <duration>12</duration>
                <voice>1</voice>
                <type>quarter</type>
                <stem default-y="-14.5">up</stem>
            </note>
        </measure>
        <measure width="198" number="19">
            <harmony font-family="Arial" default-y="40">
                <root>
                    <root-step>C</root-step>
                </root>
                <kind halign="center" text="7">dominant</kind>
            </harmony>
            <note default-x="13">
                <pitch>
                    <step>D</step>
                    <octave>4</octave>
                </pitch>
                <duration>12</duration>
                <voice>1</voice>
                <type>quarter</type>
                <stem default-y="-10">up</stem>
            </note>
            <note default-x="48">
                <rest/>
                <duration>6</duration>
                <voice>1</voice>
                <type>eighth</type>
            </note>
            <note default-x="73">
                <pitch>
                    <step>C</step>
                    <octave>4</octave>
                </pitch>
                <duration>6</duration>
                <voice>1</voice>
                <type>eighth</type>
                <stem default-y="-14.5">up</stem>
            </note>
            <note default-x="103">
                <pitch>
                    <step>D</step>
                    <octave>4</octave>
                </pitch>
                <duration>12</duration>
                <voice>1</voice>
                <type>quarter</type>
                <stem default-y="-10">up</stem>
            </note>
            <note default-x="138">
                <rest/>
                <duration>6</duration>
                <voice>1</voice>
                <type>eighth</type>
            </note>
            <note default-x="164">
                <pitch>
                    <step>C</step>
                    <octave>4</octave>
                </pitch>
                <duration>6</duration>
                <voice>1</voice>
                <type>eighth</type>
                <stem default-y="-14.5">up</stem>
            </note>
        </measure>
        <measure width="208" number="20">
            <note default-x="13">
                <pitch>
                    <step>D</step>
                    <octave>4</octave>
                </pitch>
                <duration>12</duration>
                <voice>1</voice>
                <type>quarter</type>
                <stem default-y="-10">up</stem>
            </note>
            <note default-x="48">
                <rest/>
                <duration>6</duration>
                <voice>1</voice>
                <type>eighth</type>
            </note>
            <note default-x="73">
                <pitch>
                    <step>C</step>
                    <octave>4</octave>
                </pitch>
                <duration>6</duration>
                <voice>1</voice>
                <type>eighth</type>
                <stem default-y="-14.5">up</stem>
            </note>
            <note default-x="100">
                <pitch>
                    <step>B</step>
                    <alter>-1</alter>
                    <octave>4</octave>
                </pitch>
                <duration>6</duration>
                <voice>1</voice>
                <type>eighth</type>
                <stem default-y="15">up</stem>
                <beam number="1">begin</beam>
            </note>
            <note default-x="126">
                <pitch>
                    <step>B</step>
                    <alter>-1</alter>
                    <octave>4</octave>
                </pitch>
                <duration>6</duration>
                <voice>1</voice>
                <type>eighth</type>
                <stem default-y="15">up</stem>
                <beam number="1">continue</beam>
            </note>
            <note default-x="151">
                <pitch>
                    <step>B</step>
                    <alter>-1</alter>
                    <octave>4</octave>
                </pitch>
                <duration>6</duration>
                <voice>1</voice>
                <type>eighth</type>
                <stem default-y="15">up</stem>
                <beam number="1">continue</beam>
            </note>
            <note default-x="176">
                <pitch>
                    <step>A</step>
                    <octave>4</octave>
                </pitch>
                <duration>6</duration>
                <voice>1</voice>
                <type>eighth</type>
                <stem default-y="15">up</stem>
                <beam number="1">end</beam>
            </note>
        </measure>
        <measure width="147" number="21">
            <print new-system="yes">
                <system-layout>
                    <system-distance>114</system-distance>
                </system-layout>
            </print>
            <harmony font-family="Arial" default-y="40">
                <root>
                    <root-step>F</root-step>
                </root>
                <kind halign="center" text="">major</kind>
            </harmony>
            <note default-x="69">
                <pitch>
                    <step>C</step>
                    <octave>5</octave>
                </pitch>
                <duration>48</duration>
                <tie type="start"/>
                <voice>1</voice>
                <type>whole</type>
                <notations>
                    <tied type="start"/>
                </notations>
            </note>
        </measure>
        <measure width="156" number="22">
            <note default-x="10">
                <pitch>
                    <step>C</step>
                    <octave>5</octave>
                </pitch>
                <duration>24</duration>
                <tie type="stop"/>
                <voice>1</voice>
                <type>half</type>
                <stem default-y="-50.5">down</stem>
                <notations>
                    <tied type="stop"/>
                </notations>
            </note>
            <note default-x="61">
                <rest>
                    <display-step>A</display-step>
                    <display-octave>4</display-octave>
                </rest>
                <duration>12</duration>
                <voice>1</voice>
                <type>quarter</type>
            </note>
            <note default-x="98">
                <pitch>
                    <step>B</step>
                    <octave>4</octave>
                </pitch>
                <duration>6</duration>
                <voice>1</voice>
                <type>eighth</type>
                <accidental>natural</accidental>
                <stem default-y="-55">down</stem>
                <beam number="1">begin</beam>
            </note>
            <note default-x="124">
                <pitch>
                    <step>C</step>
                    <octave>5</octave>
                </pitch>
                <duration>6</duration>
                <voice>1</voice>
                <type>eighth</type>
                <stem default-y="-50">down</stem>
                <beam number="1">end</beam>
            </note>
        </measure>
        <measure width="187" number="23">
            <harmony font-family="Arial" default-y="40">
                <root>
                    <root-step>D</root-step>
                </root>
                <kind halign="center" text="7">dominant</kind>
            </harmony>
            <note default-x="22">
                <pitch>
                    <step>E</step>
                    <alter>-1</alter>
                    <octave>5</octave>
                </pitch>
                <duration>18</duration>
                <voice>1</voice>
                <type>quarter</type>
                <dot/>
                <accidental>flat</accidental>
                <stem default-y="-40">down</stem>
            </note>
            <note default-x="66">
                <pitch>
                    <step>D</step>
                    <octave>5</octave>
                </pitch>
                <duration>6</duration>
                <tie type="start"/>
                <voice>1</voice>
                <type>eighth</type>
                <stem default-y="-45">down</stem>
                <notations>
                    <tied type="start"/>
                </notations>
            </note>
            <note default-x="92">
                <pitch>
                    <step>D</step>
                    <octave>5</octave>
                </pitch>
                <duration>6</duration>
                <tie type="stop"/>
                <voice>1</voice>
                <type>eighth</type>
                <stem default-y="-45">down</stem>
                <notations>
                    <tied type="stop"/>
                </notations>
            </note>
            <note default-x="118">
                <pitch>
                    <step>D</step>
                    <octave>5</octave>
                </pitch>
                <duration>12</duration>
                <voice>1</voice>
                <type>quarter</type>
                <stem default-y="-45">down</stem>
            </note>
            <note default-x="154">
                <pitch>
                    <step>C</step>
                    <octave>5</octave>
                </pitch>
                <duration>6</duration>
                <voice>1</voice>
                <type>eighth</type>
                <stem default-y="-50.5">down</stem>
            </note>
        </measure>
        <measure width="177" number="24">
            <note default-x="10">
                <pitch>
                    <step>C</step>
                    <octave>5</octave>
                </pitch>
                <duration>18</duration>
                <voice>1</voice>
                <type>quarter</type>
                <dot/>
                <stem default-y="-50.5">down</stem>
            </note>
            <note default-x="55">
                <pitch>
                    <step>B</step>
                    <alter>-1</alter>
                    <octave>4</octave>
                </pitch>
                <duration>6</duration>
                <tie type="start"/>
                <voice>1</voice>
                <type>eighth</type>
                <stem default-y="-55.5">down</stem>
                <notations>
                    <tied type="start"/>
                </notations>
            </note>
            <note default-x="80">
                <pitch>
                    <step>B</step>
                    <alter>-1</alter>
                    <octave>4</octave>
                </pitch>
                <duration>6</duration>
                <tie type="stop"/>
                <voice>1</voice>
                <type>eighth</type>
                <stem default-y="-55.5">down</stem>
                <notations>
                    <tied type="stop"/>
                </notations>
            </note>
            <note default-x="106">
                <pitch>
                    <step>B</step>
                    <alter>-1</alter>
                    <octave>4</octave>
                </pitch>
                <duration>12</duration>
                <voice>1</voice>
                <type>quarter</type>
                <stem default-y="-55.5">down</stem>
            </note>
            <note default-x="143">
                <pitch>
                    <step>A</step>
                    <octave>4</octave>
                </pitch>
                <duration>6</duration>
                <voice>1</voice>
                <type>eighth</type>
                <stem default-y="10.5">up</stem>
            </note>
        </measure>
        <measure width="193" number="25">
            <harmony font-family="Arial" default-y="40">
                <root>
                    <root-step>G</root-step>
                </root>
                <kind halign="center" text="m7">minor-seventh</kind>
            </harmony>
            <note default-x="10">
                <pitch>
                    <step>A</step>
                    <octave>4</octave>
                </pitch>
                <duration>18</duration>
                <voice>1</voice>
                <type>quarter</type>
                <dot/>
                <stem default-y="10.5">up</stem>
            </note>
            <note default-x="54">
                <pitch>
                    <step>G</step>
                    <octave>4</octave>
                </pitch>
                <duration>6</duration>
                <voice>1</voice>
                <type>eighth</type>
                <stem default-y="5.5">up</stem>
            </note>
            <note default-x="82">
                <pitch>
                    <step>G</step>
                    <octave>4</octave>
                </pitch>
                <duration>6</duration>
                <voice>1</voice>
                <type>eighth</type>
                <stem default-y="15">up</stem>
                <beam number="1">begin</beam>
            </note>
            <note default-x="108">
                <pitch>
                    <step>A</step>
                    <octave>4</octave>
                </pitch>
                <duration>6</duration>
                <voice>1</voice>
                <type>eighth</type>
                <stem default-y="17">up</stem>
                <beam number="1">continue</beam>
            </note>
            <note default-x="134">
                <pitch>
                    <step>B</step>
                    <alter>-1</alter>
                    <octave>4</octave>
                </pitch>
                <duration>6</duration>
                <voice>1</voice>
                <type>eighth</type>
                <stem default-y="18">up</stem>
                <beam number="1">continue</beam>
            </note>
            <note default-x="160">
                <pitch>
                    <step>C</step>
                    <octave>5</octave>
                </pitch>
                <duration>6</duration>
                <voice>1</voice>
                <type>eighth</type>
                <stem default-y="20">up</stem>
                <beam number="1">end</beam>
            </note>
        </measure>
        <measure width="192" number="26">
            <harmony font-family="Arial" default-y="40">
                <root>
                    <root-step>C</root-step>
                </root>
                <kind halign="center">dominant</kind>
                <degree>
                    <degree-value>9</degree-value>
                    <degree-alter>-1</degree-alter>
                    <degree-type>add</degree-type>
                </degree>
            </harmony>
            <note default-x="22">
                <pitch>
                    <step>D</step>
                    <alter>-1</alter>
                    <octave>5</octave>
                </pitch>
                <duration>12</duration>
                <voice>1</voice>
                <type>quarter</type>
                <accidental>flat</accidental>
                <stem default-y="-45">down</stem>
            </note>
            <note default-x="58">
                <rest/>
                <duration>6</duration>
                <voice>1</voice>
                <type>eighth</type>
            </note>
            <direction placement="above">
                <direction-type>
                    <words font-weight="bold" relative-x="8" default-y="40">N.C.</words>
                </direction-type>
            </direction>
            <note default-x="84">
                <pitch>
                    <step>C</step>
                    <octave>4</octave>
                </pitch>
                <duration>6</duration>
                <voice>1</voice>
                <type>eighth</type>
                <stem default-y="-14.5">up</stem>
            </note>
            <note default-x="112">
                <pitch>
                    <step>D</step>
                    <octave>4</octave>
                </pitch>
                <duration>12</duration>
                <voice>1</voice>
                <type>quarter</type>
                <stem default-y="-9.5">up</stem>
            </note>
            <note default-x="149">
                <pitch>
                    <step>C</step>
                    <octave>4</octave>
                </pitch>
                <duration>12</duration>
                <voice>1</voice>
                <type>quarter</type>
                <stem default-y="-14.5">up</stem>
            </note>
        </measure>
        <measure width="259" number="27">
            <print new-system="yes">
                <system-layout>
                    <system-distance>114</system-distance>
                </system-layout>
            </print>
            <harmony font-family="Arial" default-y="40">
                <root>
                    <root-step>C</root-step>
                </root>
                <kind halign="center" text="7">dominant</kind>
            </harmony>
            <note default-x="69">
                <pitch>
                    <step>D</step>
                    <octave>4</octave>
                </pitch>
                <duration>12</duration>
                <voice>1</voice>
                <type>quarter</type>
                <stem default-y="-9.5">up</stem>
            </note>
            <note default-x="106">
                <rest/>
                <duration>6</duration>
                <voice>1</voice>
                <type>eighth</type>
            </note>
            <note default-x="133">
                <pitch>
                    <step>C</step>
                    <octave>4</octave>
                </pitch>
                <duration>6</duration>
                <voice>1</voice>
                <type>eighth</type>
                <stem default-y="-14">up</stem>
            </note>
            <note default-x="160">
                <pitch>
                    <step>D</step>
                    <octave>4</octave>
                </pitch>
                <duration>12</duration>
                <voice>1</voice>
                <type>quarter</type>
                <stem default-y="-9.5">up</stem>
            </note>
            <note default-x="198">
                <rest/>
                <duration>6</duration>
                <voice>1</voice>
                <type>eighth</type>
            </note>
            <note default-x="224">
                <pitch>
                    <step>C</step>
                    <octave>4</octave>
                </pitch>
                <duration>6</duration>
                <voice>1</voice>
                <type>eighth</type>
                <stem default-y="-14">up</stem>
            </note>
        </measure>
        <measure width="213" number="28">
            <note default-x="10">
                <pitch>
                    <step>D</step>
                    <octave>4</octave>
                </pitch>
                <duration>12</duration>
                <voice>1</voice>
                <type>quarter</type>
                <stem default-y="-9.5">up</stem>
            </note>
            <note default-x="47">
                <rest/>
                <duration>6</duration>
                <voice>1</voice>
                <type>eighth</type>
            </note>
            <note default-x="73">
                <pitch>
                    <step>C</step>
                    <octave>4</octave>
                </pitch>
                <duration>6</duration>
                <voice>1</voice>
                <type>eighth</type>
                <stem default-y="-14">up</stem>
            </note>
            <note default-x="101">
                <pitch>
                    <step>D</step>
                    <octave>4</octave>
                </pitch>
                <duration>6</duration>
                <voice>1</voice>
                <type>eighth</type>
                <stem default-y="-10">up</stem>
                <beam number="1">begin</beam>
            </note>
            <note default-x="127">
                <pitch>
                    <step>D</step>
                    <octave>4</octave>
                </pitch>
                <duration>6</duration>
                <voice>1</voice>
                <type>eighth</type>
                <stem default-y="-10">up</stem>
                <beam number="1">continue</beam>
            </note>
            <note default-x="153">
                <pitch>
                    <step>D</step>
                    <octave>4</octave>
                </pitch>
                <duration>6</duration>
                <voice>1</voice>
                <type>eighth</type>
                <stem default-y="-10">up</stem>
                <beam number="1">continue</beam>
            </note>
            <note default-x="180">
                <pitch>
                    <step>C</step>
                    <octave>4</octave>
                </pitch>
                <duration>6</duration>
                <voice>1</voice>
                <type>eighth</type>
                <stem default-y="-10">up</stem>
                <beam number="1">end</beam>
            </note>
        </measure>
        <measure width="200" number="29">
            <harmony font-family="Arial" default-y="40">
                <root>
                    <root-step>F</root-step>
                </root>
                <kind halign="center" text="">major</kind>
            </harmony>
            <note default-x="10">
                <pitch>
                    <step>D</step>
                    <octave>4</octave>
                </pitch>
                <duration>12</duration>
                <voice>1</voice>
                <type>quarter</type>
                <stem default-y="-9.5">up</stem>
            </note>
            <note default-x="47">
                <rest/>
                <duration>6</duration>
                <voice>1</voice>
                <type>eighth</type>
            </note>
            <note default-x="74">
                <pitch>
                    <step>C</step>
                    <octave>4</octave>
                </pitch>
                <duration>6</duration>
                <voice>1</voice>
                <type>eighth</type>
                <stem default-y="-14">up</stem>
            </note>
            <note default-x="102">
                <pitch>
                    <step>D</step>
                    <octave>4</octave>
                </pitch>
                <duration>12</duration>
                <voice>1</voice>
                <type>quarter</type>
                <stem default-y="-9.5">up</stem>
            </note>
            <note default-x="139">
                <rest/>
                <duration>6</duration>
                <voice>1</voice>
                <type>eighth</type>
            </note>
            <note default-x="165">
                <pitch>
                    <step>C</step>
                    <octave>4</octave>
                </pitch>
                <duration>6</duration>
                <voice>1</voice>
                <type>eighth</type>
                <stem default-y="-14">up</stem>
            </note>
        </measure>
        <measure width="182" number="30">
            <note default-x="10">
                <pitch>
                    <step>D</step>
                    <octave>4</octave>
                </pitch>
                <duration>12</duration>
                <voice>1</voice>
                <type>quarter</type>
                <stem default-y="-9.5">up</stem>
            </note>
            <note default-x="47">
                <rest/>
                <duration>6</duration>
                <voice>1</voice>
                <type>eighth</type>
            </note>
            <note default-x="74">
                <pitch>
                    <step>C</step>
                    <octave>4</octave>
                </pitch>
                <duration>6</duration>
                <voice>1</voice>
                <type>eighth</type>
                <stem default-y="-14">up</stem>
            </note>
            <note default-x="101">
                <pitch>
                    <step>D</step>
                    <octave>4</octave>
                </pitch>
                <duration>12</duration>
                <voice>1</voice>
                <type>quarter</type>
                <stem default-y="-9.5">up</stem>
            </note>
            <note default-x="138">
                <pitch>
                    <step>C</step>
                    <octave>4</octave>
                </pitch>
                <duration>12</duration>
                <voice>1</voice>
                <type>quarter</type>
                <stem default-y="-14">up</stem>
            </note>
        </measure>
        <measure width="200" number="31">
            <harmony font-family="Arial" default-y="40">
                <root>
                    <root-step>C</root-step>
                </root>
                <kind halign="center" text="7">dominant</kind>
            </harmony>
            <note default-x="10">
                <pitch>
                    <step>D</step>
                    <octave>4</octave>
                </pitch>
                <duration>12</duration>
                <voice>1</voice>
                <type>quarter</type>
                <stem default-y="-9.5">up</stem>
            </note>
            <note default-x="47">
                <rest/>
                <duration>6</duration>
                <voice>1</voice>
                <type>eighth</type>
            </note>
            <note default-x="74">
                <pitch>
                    <step>C</step>
                    <octave>4</octave>
                </pitch>
                <duration>6</duration>
                <voice>1</voice>
                <type>eighth</type>
                <stem default-y="-14">up</stem>
            </note>
            <note default-x="102">
                <pitch>
                    <step>D</step>
                    <octave>4</octave>
                </pitch>
                <duration>12</duration>
                <voice>1</voice>
                <type>quarter</type>
                <stem default-y="-9.5">up</stem>
            </note>
            <note default-x="139">
                <rest/>
                <duration>6</duration>
                <voice>1</voice>
                <type>eighth</type>
            </note>
            <note default-x="166">
                <pitch>
                    <step>C</step>
                    <octave>4</octave>
                </pitch>
                <duration>6</duration>
                <voice>1</voice>
                <type>eighth</type>
                <stem default-y="-14">up</stem>
            </note>
        </measure>
        <measure width="544" number="32">
            <print new-system="yes">
                <system-layout>
                    <system-distance>114</system-distance>
                </system-layout>
            </print>
            <note default-x="69">
                <pitch>
                    <step>D</step>
                    <octave>4</octave>
                </pitch>
                <duration>12</duration>
                <voice>1</voice>
                <type>quarter</type>
                <stem default-y="-9">up</stem>
            </note>
            <note default-x="156">
                <rest/>
                <duration>6</duration>
                <voice>1</voice>
                <type>eighth</type>
            </note>
            <note default-x="219">
                <pitch>
                    <step>C</step>
                    <octave>4</octave>
                </pitch>
                <duration>6</duration>
                <voice>1</voice>
                <type>eighth</type>
                <stem default-y="-15">up</stem>
            </note>
            <note default-x="280">
                <pitch>
                    <step>B</step>
                    <alter>-1</alter>
                    <octave>4</octave>
                </pitch>
                <duration>6</duration>
                <voice>1</voice>
                <type>eighth</type>
                <stem default-y="15">up</stem>
                <beam number="1">begin</beam>
            </note>
            <note default-x="343">
                <pitch>
                    <step>B</step>
                    <alter>-1</alter>
                    <octave>4</octave>
                </pitch>
                <duration>6</duration>
                <voice>1</voice>
                <type>eighth</type>
                <stem default-y="15">up</stem>
                <beam number="1">continue</beam>
            </note>
            <note default-x="405">
                <pitch>
                    <step>B</step>
                    <alter>-1</alter>
                    <octave>4</octave>
                </pitch>
                <duration>6</duration>
                <voice>1</voice>
                <type>eighth</type>
                <stem default-y="15">up</stem>
                <beam number="1">continue</beam>
            </note>
            <note default-x="468">
                <pitch>
                    <step>A</step>
                    <octave>4</octave>
                </pitch>
                <duration>6</duration>
                <voice>1</voice>
                <type>eighth</type>
                <stem default-y="15">up</stem>
                <beam number="1">end</beam>
            </note>
            <barline location="right">
                <bar-style>light-light</bar-style>
            </barline>
        </measure>
        <measure width="197" number="33">
            <harmony font-family="Arial" default-y="40">
                <root>
                    <root-step>F</root-step>
                </root>
                <kind halign="center" text="">major</kind>
            </harmony>
            <note default-x="8">
                <pitch>
                    <step>F</step>
                    <octave>4</octave>
                </pitch>
                <duration>48</duration>
                <tie type="start"/>
                <voice>1</voice>
                <type>whole</type>
                <notations>
                    <tied type="start"/>
                </notations>
            </note>
        </measure>
        <measure width="313" number="34">
            <direction placement="above">
                <direction-type>
                    <words font-weight="bold" font-style="italic" default-y="12">Fine</words>
                </direction-type>
            </direction>
            <note default-x="10">
                <pitch>
                    <step>F</step>
                    <octave>4</octave>
                </pitch>
                <duration>36</duration>
                <tie type="stop"/>
                <voice>1</voice>
                <type>half</type>
                <dot/>
                <stem default-y="0.5">up</stem>
                <notations>
                    <tied type="stop"/>
                </notations>
            </note>
            <note default-x="168">
                <pitch>
                    <step>C</step>
                    <octave>4</octave>
                </pitch>
                <duration>6</duration>
                <voice>1</voice>
                <type>eighth</type>
                <stem default-y="-15">up</stem>
                <beam number="1">begin</beam>
            </note>
            <direction placement="above">
                <direction-type>
                    <words font-style="italic" default-y="9" default-x="292" justify="right">D.S. al Fine</words>
                </direction-type>
            </direction>
            <note default-x="235">
                <pitch>
                    <step>C</step>
                    <alter>1</alter>
                    <octave>4</octave>
                </pitch>
                <duration>6</duration>
                <voice>1</voice>
                <type>eighth</type>
                <accidental>sharp</accidental>
                <stem default-y="-15">up</stem>
                <beam number="1">end</beam>
            </note>
            <barline location="right">
                <bar-style>light-light</bar-style>
            </barline>
        </measure>
    </part>
</score-partwise>
