<?xml version="1.0" encoding="UTF-8"?>
<!DOCTYPE score-partwise PUBLIC "-//Recordare//DTD MusicXML 2.0 Partwise//EN" "http://www.musicxml.org/dtds/partwise.dtd">
<score-partwise version="2.0">
    <work>
        <work-number></work-number>
        <work-title></work-title>
    </work>
    <movement-number></movement-number>
    <movement-title>I've given up on love</movement-title>
    <identification>
        <creator type="composer">Les Kettley</creator>
        <creator type="poet">Les Kettley</creator>
        <rights>All Rights Reserved</rights>
        <encoding>
            <software>Finale SongWriter 2010 for Windows</software>
            <software>Dolet Light for Finale SongWriter 2010</software>
            <encoding-date>2010-02-08</encoding-date>
            <supports value="yes" type="yes" element="print" attribute="new-system"/>
            <supports value="yes" type="yes" element="print" attribute="new-page"/>
            <software>ProxyMusic 2.0 c</software>
        </encoding>
        <source>http://wikifonia.org/node/4307/revisions/6107/view</source>
    </identification>
    <defaults>
        <scaling>
            <millimeters>7.2319</millimeters>
            <tenths>40</tenths>
        </scaling>
        <page-layout>
            <page-height>1545</page-height>
            <page-width>1194</page-width>
            <page-margins type="both">
                <left-margin>70</left-margin>
                <right-margin>70</right-margin>
                <top-margin>88</top-margin>
                <bottom-margin>88</bottom-margin>
            </page-margins>
        </page-layout>
        <system-layout>
            <system-margins>
                <left-margin>94</left-margin>
                <right-margin>0</right-margin>
            </system-margins>
            <system-distance>133</system-distance>
            <top-system-distance>133</top-system-distance>
        </system-layout>
        <appearance>
            <line-width type="stem">0.7487</line-width>
            <line-width type="beam">5</line-width>
            <line-width type="staff">0.7487</line-width>
            <line-width type="light barline">0.7487</line-width>
            <line-width type="heavy barline">5</line-width>
            <line-width type="leger">0.7487</line-width>
            <line-width type="ending">1.4583</line-width>
            <line-width type="wedge">1.4583</line-width>
            <line-width type="enclosure">0.7487</line-width>
            <line-width type="tuplet bracket">0.7487</line-width>
            <note-size type="grace">60</note-size>
            <note-size type="cue">60</note-size>
        </appearance>
        <music-font font-size="20.5" font-family="Maestro"/>
        <word-font font-size="13.7" font-family="Times New Roman"/>
        <lyric-font font-size="12" font-family="Times New Roman" name="verse"/>
    </defaults>
    <part-list>
        <score-part id="P1">
            <part-name print-object="no">MusicXML Part</part-name>
            <score-instrument id="P1-I1">
                <instrument-name>Grand Piano</instrument-name>
            </score-instrument>
            <midi-instrument id="P1-I1">
                <midi-channel>1</midi-channel>
                <midi-program>19</midi-program>
                <volume>80</volume>
                <pan>0</pan>
            </midi-instrument>
        </score-part>
    </part-list>
    <part id="P1">
        <measure width="515" number="1">
            <print>
                <system-layout>
                    <system-margins>
                        <left-margin>73</left-margin>
                        <right-margin>0</right-margin>
                    </system-margins>
                    <top-system-distance>211</top-system-distance>
                </system-layout>
            </print>
            <attributes>
                <divisions>8</divisions>
                <key>
                    <fifths>-1</fifths>
                    <mode>major</mode>
                </key>
                <time>
                    <beats>4</beats>
                    <beat-type>4</beat-type>
                </time>
                <clef>
                    <sign>G</sign>
                    <line>2</line>
                </clef>
            </attributes>
            <direction placement="above" directive="yes">
                <direction-type>
                    <metronome font-size="10.25" font-family="EngraverTextT" relative-x="-143" default-y="33">
                        <beat-unit>quarter</beat-unit>
                        <per-minute>100</per-minute>
                    </metronome>
                </direction-type>
                <sound tempo="100"/>
            </direction>
            <direction placement="below">
                <direction-type>
                    <words font-size="15.4" relative-x="-189" default-y="-72" valign="top">Chorus</words>
                </direction-type>
            </direction>
            <direction placement="below">
                <direction-type>
                    <words font-size="15.4" relative-x="-186" default-y="-1" valign="top">Intro</words>
                </direction-type>
            </direction>
            <note default-x="118">
                <pitch>
                    <step>G</step>
                    <octave>4</octave>
                </pitch>
                <duration>8</duration>
                <voice>1</voice>
                <type>quarter</type>
                <stem default-y="5.5">up</stem>
                <lyric default-y="-100" number="1">
                    <syllabic>single</syllabic>
                    <text>I've</text>
                </lyric>
            </note>
            <harmony font-size="12" default-y="34">
                <root>
                    <root-step>B</root-step>
                    <root-alter>-1</root-alter>
                </root>
                <kind halign="center" text="">major</kind>
            </harmony>
            <note default-x="202">
                <pitch>
                    <step>A</step>
                    <octave>4</octave>
                </pitch>
                <duration>4</duration>
                <voice>1</voice>
                <type>eighth</type>
                <stem default-y="10">up</stem>
                <beam number="1">begin</beam>
                <lyric default-y="-100" number="1">
                    <syllabic>begin</syllabic>
                    <text>giv</text>
                </lyric>
            </note>
            <direction placement="above">
                <direction-type>
                    <words font-size="23.9">I've given up on love</words>
                </direction-type>
            </direction>
            <note default-x="255">
                <pitch>
                    <step>B</step>
                    <alter>-1</alter>
                    <octave>4</octave>
                </pitch>
                <duration>4</duration>
                <voice>1</voice>
                <type>eighth</type>
                <stem default-y="15">up</stem>
                <beam number="1">end</beam>
                <lyric default-y="-100" number="1">
                    <syllabic>end</syllabic>
                    <text>en</text>
                </lyric>
            </note>
            <note default-x="306">
                <pitch>
                    <step>A</step>
                    <octave>4</octave>
                </pitch>
                <duration>4</duration>
                <voice>1</voice>
                <type>eighth</type>
                <stem default-y="10">up</stem>
                <beam number="1">begin</beam>
                <lyric default-y="-100" number="1">
                    <syllabic>single</syllabic>
                    <text>up,</text>
                </lyric>
            </note>
            <note default-x="358">
                <pitch>
                    <step>G</step>
                    <octave>4</octave>
                </pitch>
                <duration>4</duration>
                <voice>1</voice>
                <type>eighth</type>
                <stem default-y="12">up</stem>
                <beam number="1">continue</beam>
                <lyric default-y="-100" number="1">
                    <syllabic>single</syllabic>
                    <text>I've</text>
                </lyric>
            </note>
            <harmony font-size="12" default-y="34">
                <root>
                    <root-step>B</root-step>
                    <root-alter>-1</root-alter>
                </root>
                <kind halign="center" text="m">minor</kind>
            </harmony>
            <note default-x="410">
                <pitch>
                    <step>A</step>
                    <octave>4</octave>
                </pitch>
                <duration>4</duration>
                <voice>1</voice>
                <type>eighth</type>
                <stem default-y="13.5">up</stem>
                <beam number="1">continue</beam>
                <lyric default-y="-100" number="1">
                    <syllabic>begin</syllabic>
                    <text>giv</text>
                </lyric>
            </note>
            <note default-x="462">
                <pitch>
                    <step>B</step>
                    <alter>-1</alter>
                    <octave>4</octave>
                </pitch>
                <duration>4</duration>
                <voice>1</voice>
                <type>eighth</type>
                <stem default-y="15">up</stem>
                <beam number="1">end</beam>
                <lyric default-y="-100" number="1">
                    <syllabic>end</syllabic>
                    <text>en</text>
                </lyric>
            </note>
        </measure>
        <measure width="465" number="2">
            <note default-x="22">
                <pitch>
                    <step>A</step>
                    <octave>4</octave>
                </pitch>
                <duration>4</duration>
                <voice>1</voice>
                <type>eighth</type>
                <stem default-y="10">up</stem>
                <beam number="1">begin</beam>
                <lyric default-y="-100" number="1">
                    <syllabic>single</syllabic>
                    <text>up,</text>
                </lyric>
            </note>
            <note default-x="80">
                <pitch>
                    <step>G</step>
                    <octave>4</octave>
                </pitch>
                <duration>4</duration>
                <voice>1</voice>
                <type>eighth</type>
                <stem default-y="12">up</stem>
                <beam number="1">continue</beam>
                <lyric default-y="-100" number="1">
                    <syllabic>single</syllabic>
                    <text>I've</text>
                </lyric>
            </note>
            <direction placement="above">
                <direction-type>
                    <words default-y="160" valign="top">Lyric and Music by Les Kettley</words>
                </direction-type>
                <offset>-1</offset>
            </direction>
            <harmony font-size="12" default-y="34">
                <root>
                    <root-step>F</root-step>
                </root>
                <kind halign="center" text="">major</kind>
            </harmony>
            <note default-x="138">
                <pitch>
                    <step>A</step>
                    <octave>4</octave>
                </pitch>
                <duration>4</duration>
                <voice>1</voice>
                <type>eighth</type>
                <stem default-y="13.5">up</stem>
                <beam number="1">continue</beam>
                <lyric default-y="-100" number="1">
                    <syllabic>begin</syllabic>
                    <text>giv</text>
                </lyric>
            </note>
            <note default-x="196">
                <pitch>
                    <step>B</step>
                    <alter>-1</alter>
                    <octave>4</octave>
                </pitch>
                <duration>4</duration>
                <voice>1</voice>
                <type>eighth</type>
                <stem default-y="15">up</stem>
                <beam number="1">end</beam>
                <lyric default-y="-100" number="1">
                    <syllabic>end</syllabic>
                    <text>en</text>
                </lyric>
            </note>
            <note default-x="254">
                <pitch>
                    <step>A</step>
                    <octave>4</octave>
                </pitch>
                <duration>4</duration>
                <voice>1</voice>
                <type>eighth</type>
                <stem default-y="10">up</stem>
                <beam number="1">begin</beam>
                <lyric default-y="-100" number="1">
                    <syllabic>single</syllabic>
                    <text>up</text>
                </lyric>
            </note>
            <note default-x="312">
                <pitch>
                    <step>F</step>
                    <octave>4</octave>
                </pitch>
                <duration>4</duration>
                <voice>1</voice>
                <type>eighth</type>
                <stem default-y="5">up</stem>
                <beam number="1">end</beam>
                <lyric default-y="-100" number="1">
                    <syllabic>single</syllabic>
                    <text>on</text>
                </lyric>
            </note>
            <harmony font-size="12" default-y="34">
                <root>
                    <root-step>D</root-step>
                </root>
                <kind halign="center" text="m">minor</kind>
            </harmony>
            <note default-x="371">
                <pitch>
                    <step>A</step>
                    <octave>4</octave>
                </pitch>
                <duration>8</duration>
                <tie type="start"/>
                <voice>1</voice>
                <type>quarter</type>
                <stem default-y="10.5">up</stem>
                <notations>
                    <tied type="start"/>
                </notations>
                <lyric justify="left" default-y="-100" number="1">
                    <syllabic>single</syllabic>
                    <text>love,</text>
                    <extend/>
                </lyric>
            </note>
        </measure>
        <measure width="320" number="3">
            <print new-system="yes">
                <system-layout>
                    <system-margins>
                        <left-margin>1</left-margin>
                        <right-margin>0</right-margin>
                    </system-margins>
                    <system-distance>120</system-distance>
                </system-layout>
            </print>
            <note default-x="42">
                <pitch>
                    <step>A</step>
                    <octave>4</octave>
                </pitch>
                <duration>8</duration>
                <tie type="stop"/>
                <voice>1</voice>
                <type>quarter</type>
                <stem default-y="10.5">up</stem>
                <notations>
                    <tied type="stop"/>
                </notations>
            </note>
            <harmony font-size="12" default-y="26">
                <root>
                    <root-step>B</root-step>
                    <root-alter>-1</root-alter>
                </root>
                <kind halign="center" text="">major</kind>
            </harmony>
            <note default-x="101">
                <pitch>
                    <step>A</step>
                    <octave>4</octave>
                </pitch>
                <duration>4</duration>
                <voice>1</voice>
                <type>eighth</type>
                <stem default-y="10">up</stem>
                <beam number="1">begin</beam>
                <lyric default-y="-91" number="1">
                    <syllabic>begin</syllabic>
                    <text>giv</text>
                </lyric>
            </note>
            <note default-x="137">
                <pitch>
                    <step>B</step>
                    <alter>-1</alter>
                    <octave>4</octave>
                </pitch>
                <duration>4</duration>
                <voice>1</voice>
                <type>eighth</type>
                <stem default-y="15">up</stem>
                <beam number="1">end</beam>
                <lyric default-y="-91" number="1">
                    <syllabic>end</syllabic>
                    <text>en</text>
                </lyric>
            </note>
            <note default-x="174">
                <pitch>
                    <step>A</step>
                    <octave>4</octave>
                </pitch>
                <duration>4</duration>
                <voice>1</voice>
                <type>eighth</type>
                <stem default-y="10">up</stem>
                <beam number="1">begin</beam>
                <lyric default-y="-91" number="1">
                    <syllabic>single</syllabic>
                    <text>up</text>
                </lyric>
            </note>
            <note default-x="210">
                <pitch>
                    <step>G</step>
                    <octave>4</octave>
                </pitch>
                <duration>4</duration>
                <voice>1</voice>
                <type>eighth</type>
                <stem default-y="10">up</stem>
                <beam number="1">continue</beam>
                <lyric default-y="-91" number="1">
                    <syllabic>begin</syllabic>
                    <text>un</text>
                </lyric>
            </note>
            <harmony font-size="12" default-y="26">
                <root>
                    <root-step>B</root-step>
                    <root-alter>-1</root-alter>
                </root>
                <kind halign="center" text="m">minor</kind>
            </harmony>
            <note default-x="246">
                <pitch>
                    <step>A</step>
                    <octave>4</octave>
                </pitch>
                <duration>4</duration>
                <voice>1</voice>
                <type>eighth</type>
                <stem default-y="10">up</stem>
                <beam number="1">continue</beam>
                <lyric default-y="-91" number="1">
                    <syllabic>end</syllabic>
                    <text>til</text>
                </lyric>
            </note>
            <note default-x="283">
                <pitch>
                    <step>G</step>
                    <octave>4</octave>
                </pitch>
                <duration>4</duration>
                <voice>1</voice>
                <type>eighth</type>
                <stem default-y="10">up</stem>
                <beam number="1">end</beam>
                <lyric default-y="-91" number="1">
                    <syllabic>single</syllabic>
                    <text>the</text>
                </lyric>
            </note>
        </measure>
        <measure width="361" number="4">
            <harmony font-size="12" default-y="26">
                <root>
                    <root-step>B</root-step>
                    <root-alter>-1</root-alter>
                </root>
                <kind halign="center" text="">major</kind>
            </harmony>
            <note default-x="27">
                <pitch>
                    <step>F</step>
                    <octave>4</octave>
                </pitch>
                <duration>4</duration>
                <voice>1</voice>
                <type>eighth</type>
                <stem default-y="0">up</stem>
                <beam number="1">begin</beam>
                <lyric default-y="-91" number="1">
                    <syllabic>single</syllabic>
                    <text>time</text>
                </lyric>
            </note>
            <note default-x="71">
                <pitch>
                    <step>E</step>
                    <octave>4</octave>
                </pitch>
                <duration>4</duration>
                <voice>1</voice>
                <type>eighth</type>
                <stem default-y="0">up</stem>
                <beam number="1">continue</beam>
                <lyric default-y="-91" number="1">
                    <syllabic>single</syllabic>
                    <text>I</text>
                </lyric>
            </note>
            <harmony font-size="12" default-y="26">
                <root>
                    <root-step>C</root-step>
                </root>
                <kind halign="center" text="9">dominant-ninth</kind>
            </harmony>
            <note default-x="115">
                <pitch>
                    <step>D</step>
                    <octave>4</octave>
                </pitch>
                <duration>4</duration>
                <voice>1</voice>
                <type>eighth</type>
                <stem default-y="0">up</stem>
                <beam number="1">continue</beam>
                <lyric default-y="-91" number="1">
                    <syllabic>single</syllabic>
                    <text>fall</text>
                </lyric>
            </note>
            <note default-x="159">
                <pitch>
                    <step>F</step>
                    <octave>4</octave>
                </pitch>
                <duration>4</duration>
                <voice>1</voice>
                <type>eighth</type>
                <stem default-y="0">up</stem>
                <beam number="1">end</beam>
                <lyric default-y="-91" number="1">
                    <syllabic>single</syllabic>
                    <text>in</text>
                </lyric>
            </note>
            <harmony font-size="12" default-y="26">
                <root>
                    <root-step>C</root-step>
                </root>
                <kind halign="center" text="7">dominant</kind>
            </harmony>
            <note default-x="202">
                <pitch>
                    <step>E</step>
                    <octave>4</octave>
                </pitch>
                <duration>4</duration>
                <voice>1</voice>
                <type>eighth</type>
                <stem default-y="0">up</stem>
                <beam number="1">begin</beam>
                <lyric default-y="-91" number="1">
                    <syllabic>single</syllabic>
                    <text>love</text>
                </lyric>
            </note>
            <note default-x="246">
                <pitch>
                    <step>G</step>
                    <octave>4</octave>
                </pitch>
                <duration>4</duration>
                <voice>1</voice>
                <type>eighth</type>
                <stem default-y="5">up</stem>
                <beam number="1">end</beam>
                <lyric default-y="-91" number="1">
                    <syllabic>begin</syllabic>
                    <text>a</text>
                </lyric>
            </note>
            <harmony font-size="12" default-y="26">
                <root>
                    <root-step>F</root-step>
                </root>
                <kind halign="center" text="">major</kind>
            </harmony>
            <note default-x="290">
                <pitch>
                    <step>F</step>
                    <octave>4</octave>
                </pitch>
                <duration>8</duration>
                <tie type="start"/>
                <voice>1</voice>
                <type>quarter</type>
                <stem default-y="0">up</stem>
                <notations>
                    <tied type="start"/>
                </notations>
                <lyric justify="left" default-y="-91" number="1">
                    <syllabic>end</syllabic>
                    <text>gain.</text>
                    <extend/>
                </lyric>
            </note>
        </measure>
        <measure width="171" number="5">
            <note default-x="13">
                <pitch>
                    <step>F</step>
                    <octave>4</octave>
                </pitch>
                <duration>16</duration>
                <tie type="stop"/>
                <voice>1</voice>
                <type>half</type>
                <stem default-y="0">up</stem>
                <notations>
                    <tied type="stop"/>
                </notations>
            </note>
            <note default-x="83">
                <pitch>
                    <step>G</step>
                    <octave>4</octave>
                </pitch>
                <duration>8</duration>
                <voice>1</voice>
                <type>quarter</type>
                <stem default-y="5.5">up</stem>
            </note>
            <harmony font-size="12" default-y="26">
                <root>
                    <root-step>B</root-step>
                    <root-alter>-1</root-alter>
                </root>
                <kind halign="center" text="7">dominant</kind>
            </harmony>
            <note default-x="127">
                <pitch>
                    <step>A</step>
                    <alter>-1</alter>
                    <octave>4</octave>
                </pitch>
                <duration>8</duration>
                <tie type="start"/>
                <voice>1</voice>
                <type>quarter</type>
                <accidental>flat</accidental>
                <stem default-y="10.5">up</stem>
                <notations>
                    <tied type="start"/>
                </notations>
            </note>
        </measure>
        <measure width="201" number="6">
            <note default-x="13">
                <pitch>
                    <step>A</step>
                    <alter>-1</alter>
                    <octave>4</octave>
                </pitch>
                <duration>16</duration>
                <tie type="stop"/>
                <voice>1</voice>
                <type>half</type>
                <stem default-y="10.5">up</stem>
                <notations>
                    <tied type="stop"/>
                </notations>
            </note>
            <note default-x="82">
                <rest/>
                <duration>16</duration>
                <voice>1</voice>
                <type>half</type>
            </note>
        </measure>
        <measure width="459" number="7">
            <print new-system="yes">
                <system-layout>
                    <system-margins>
                        <left-margin>95</left-margin>
                        <right-margin>0</right-margin>
                    </system-margins>
                    <system-distance>108</system-distance>
                </system-layout>
            </print>
            <attributes>
                <key>
                    <fifths>-3</fifths>
                    <mode>major</mode>
                </key>
            </attributes>
            <note default-x="76">
                <pitch>
                    <step>G</step>
                    <octave>4</octave>
                </pitch>
                <duration>8</duration>
                <voice>1</voice>
                <type>quarter</type>
                <stem default-y="5">up</stem>
                <lyric default-y="-74" number="1">
                    <syllabic>single</syllabic>
                    <text>I've</text>
                </lyric>
                <lyric default-y="-107" number="2">
                    <syllabic>single</syllabic>
                    <text>Now</text>
                </lyric>
                <lyric default-y="-140" number="3">
                    <syllabic>single</syllabic>
                    <text>We</text>
                </lyric>
                <lyric default-y="-173" number="4">
                    <syllabic>single</syllabic>
                    <text>Why</text>
                </lyric>
            </note>
            <harmony font-size="12" default-y="26">
                <root>
                    <root-step>A</root-step>
                    <root-alter>-1</root-alter>
                </root>
                <kind halign="center" text="">major</kind>
            </harmony>
            <note default-x="161">
                <pitch>
                    <step>G</step>
                    <octave>4</octave>
                </pitch>
                <duration>4</duration>
                <voice>1</voice>
                <type>eighth</type>
                <stem default-y="5">up</stem>
                <beam number="1">begin</beam>
                <lyric default-y="-74" number="1">
                    <syllabic>begin</syllabic>
                    <text>giv</text>
                </lyric>
                <lyric default-y="-107" number="2">
                    <syllabic>single</syllabic>
                    <text>love</text>
                </lyric>
                <lyric default-y="-140" number="3">
                    <syllabic>single</syllabic>
                    <text>were</text>
                </lyric>
                <lyric default-y="-173" number="4">
                    <syllabic>single</syllabic>
                    <text>did</text>
                </lyric>
            </note>
            <note default-x="214">
                <pitch>
                    <step>A</step>
                    <alter>-1</alter>
                    <octave>4</octave>
                </pitch>
                <duration>4</duration>
                <voice>1</voice>
                <type>eighth</type>
                <stem default-y="10">up</stem>
                <beam number="1">end</beam>
                <lyric default-y="-74" number="1">
                    <syllabic>end</syllabic>
                    <text>en</text>
                </lyric>
                <lyric default-y="-107" number="2">
                    <syllabic>single</syllabic>
                    <text>is</text>
                </lyric>
                <lyric default-y="-140" number="3">
                    <syllabic>begin</syllabic>
                    <text>get</text>
                </lyric>
                <lyric default-y="-173" number="4">
                    <syllabic>single</syllabic>
                    <text>you</text>
                </lyric>
            </note>
            <note default-x="267">
                <pitch>
                    <step>G</step>
                    <octave>4</octave>
                </pitch>
                <duration>4</duration>
                <voice>1</voice>
                <type>eighth</type>
                <stem default-y="5">up</stem>
                <beam number="1">begin</beam>
                <lyric default-y="-74" number="1">
                    <syllabic>single</syllabic>
                    <text>up</text>
                </lyric>
                <lyric default-y="-107" number="2">
                    <syllabic>single</syllabic>
                    <text>not</text>
                </lyric>
                <lyric default-y="-140" number="3">
                    <syllabic>end</syllabic>
                    <text>ing</text>
                </lyric>
                <lyric default-y="-173" number="4">
                    <syllabic>single</syllabic>
                    <text>have</text>
                </lyric>
            </note>
            <note default-x="320">
                <pitch>
                    <step>F</step>
                    <octave>4</octave>
                </pitch>
                <duration>4</duration>
                <voice>1</voice>
                <type>eighth</type>
                <stem default-y="2.5">up</stem>
                <beam number="1">end</beam>
                <lyric default-y="-74" number="1">
                    <syllabic>single</syllabic>
                    <text>on</text>
                </lyric>
                <lyric default-y="-107" number="2">
                    <syllabic>single</syllabic>
                    <text>for</text>
                </lyric>
                <lyric default-y="-140" number="3">
                    <syllabic>single</syllabic>
                    <text>on</text>
                </lyric>
                <lyric default-y="-173" number="4">
                    <syllabic>single</syllabic>
                    <text>to</text>
                </lyric>
            </note>
            <note default-x="373">
                <pitch>
                    <step>G</step>
                    <octave>4</octave>
                </pitch>
                <duration>8</duration>
                <tie type="start"/>
                <voice>1</voice>
                <type>quarter</type>
                <stem default-y="5">up</stem>
                <notations>
                    <tied type="start"/>
                </notations>
                <lyric justify="left" default-y="-74" number="1">
                    <syllabic>single</syllabic>
                    <text>love,</text>
                    <extend/>
                </lyric>
                <lyric justify="left" default-y="-107" number="2">
                    <syllabic>single</syllabic>
                    <text>me,</text>
                    <extend/>
                </lyric>
                <lyric justify="left" default-y="-140" number="3">
                    <syllabic>single</syllabic>
                    <text>well,</text>
                    <extend/>
                </lyric>
                <lyric justify="left" default-y="-173" number="4">
                    <syllabic>single</syllabic>
                    <text>go,</text>
                    <extend/>
                </lyric>
            </note>
        </measure>
        <measure width="158" number="8">
            <note default-x="14">
                <pitch>
                    <step>G</step>
                    <octave>4</octave>
                </pitch>
                <duration>24</duration>
                <tie type="stop"/>
                <voice>1</voice>
                <type>half</type>
                <dot/>
                <stem default-y="5">up</stem>
                <notations>
                    <tied type="stop"/>
                </notations>
            </note>
            <harmony font-size="12" relative-x="-13" default-y="25">
                <root>
                    <root-step>A</root-step>
                    <root-alter>-1</root-alter>
                </root>
                <kind halign="center" text="m">minor</kind>
            </harmony>
            <note default-x="84">
                <pitch>
                    <step>F</step>
                    <octave>4</octave>
                </pitch>
                <duration>8</duration>
                <tie type="start"/>
                <voice>1</voice>
                <type>quarter</type>
                <stem default-y="0.5">up</stem>
                <notations>
                    <tied type="start"/>
                </notations>
                <lyric justify="left" default-y="-74" number="1">
                    <syllabic>single</syllabic>
                    <text>since</text>
                    <extend/>
                </lyric>
                <lyric justify="left" default-y="-107" number="2">
                    <syllabic>single</syllabic>
                    <text>since</text>
                    <extend/>
                </lyric>
                <lyric justify="left" default-y="-140" number="3">
                    <syllabic>single</syllabic>
                    <text>did</text>
                    <extend/>
                </lyric>
                <lyric justify="left" default-y="-173" number="4">
                    <syllabic>begin</syllabic>
                    <text>with</text>
                </lyric>
            </note>
        </measure>
        <measure width="258" number="9">
            <note default-x="13">
                <pitch>
                    <step>F</step>
                    <octave>4</octave>
                </pitch>
                <duration>4</duration>
                <tie type="stop"/>
                <voice>1</voice>
                <type>eighth</type>
                <stem default-y="0">up</stem>
                <beam number="1">begin</beam>
                <notations>
                    <tied type="stop"/>
                </notations>
            </note>
            <note default-x="42">
                <pitch>
                    <step>G</step>
                    <octave>4</octave>
                </pitch>
                <duration>4</duration>
                <voice>1</voice>
                <type>eighth</type>
                <stem default-y="5">up</stem>
                <beam number="1">end</beam>
                <lyric justify="left" default-y="-74" number="1">
                    <syllabic>single</syllabic>
                    <text>the</text>
                </lyric>
                <lyric justify="left" default-y="-107" number="2">
                    <syllabic>single</syllabic>
                    <text>the</text>
                </lyric>
                <lyric justify="left" default-y="-173" number="4">
                    <syllabic>end</syllabic>
                    <text>out</text>
                </lyric>
                <lyric justify="left" default-y="-140" number="5">
                    <syllabic>single</syllabic>
                    <text>you</text>
                    <extend/>
                </lyric>
            </note>
            <harmony font-size="12" default-y="26">
                <root>
                    <root-step>E</root-step>
                    <root-alter>-1</root-alter>
                </root>
                <kind halign="center" text="">major</kind>
            </harmony>
            <note default-x="99">
                <pitch>
                    <step>F</step>
                    <octave>4</octave>
                </pitch>
                <duration>16</duration>
                <voice>1</voice>
                <type>half</type>
                <stem default-y="0.5">up</stem>
                <lyric justify="left" default-y="-74" number="1">
                    <syllabic>single</syllabic>
                    <text>last</text>
                </lyric>
                <lyric justify="left" default-y="-107" number="2">
                    <syllabic>single</syllabic>
                    <text>last</text>
                </lyric>
                <lyric justify="left" default-y="-173" number="4">
                    <syllabic>single</syllabic>
                    <text>saying</text>
                </lyric>
                <lyric justify="left" relative-x="4" default-y="-140" number="5">
                    <syllabic>single</syllabic>
                    <text>have</text>
                    <extend/>
                </lyric>
            </note>
            <harmony font-size="12" default-y="26">
                <root>
                    <root-step>C</root-step>
                </root>
                <kind halign="center" text="m">minor</kind>
            </harmony>
            <note default-x="147">
                <pitch>
                    <step>E</step>
                    <alter>-1</alter>
                    <octave>4</octave>
                </pitch>
                <duration>8</duration>
                <tie type="start"/>
                <voice>1</voice>
                <type>quarter</type>
                <stem default-y="-4.5">up</stem>
                <notations>
                    <tied type="start"/>
                </notations>
                <lyric justify="left" default-y="-74" number="1">
                    <syllabic>single</syllabic>
                    <text>time,</text>
                    <extend/>
                </lyric>
                <lyric justify="left" default-y="-107" number="2">
                    <syllabic>single</syllabic>
                    <text>time,</text>
                    <extend/>
                </lyric>
                <lyric justify="left" default-y="-173" number="4">
                    <syllabic>single</syllabic>
                    <text>goodbye,</text>
                    <extend/>
                </lyric>
                <lyric justify="left" relative-x="5" default-y="-140" number="5">
                    <syllabic>single</syllabic>
                    <text>to</text>
                    <extend/>
                </lyric>
            </note>
        </measure>
        <measure width="83" number="10">
            <note default-x="21">
                <pitch>
                    <step>E</step>
                    <alter>-1</alter>
                    <octave>4</octave>
                </pitch>
                <duration>32</duration>
                <tie type="stop"/>
                <voice>1</voice>
                <type>whole</type>
                <notations>
                    <tied type="stop"/>
                </notations>
                <lyric justify="left" relative-x="-69" default-y="-139" number="5">
                    <syllabic>single</syllabic>
                    <text>go,</text>
                    <extend/>
                </lyric>
            </note>
        </measure>
        <measure width="463" number="11">
            <print new-system="yes">
                <system-layout>
                    <system-margins>
                        <left-margin>0</left-margin>
                        <right-margin>0</right-margin>
                    </system-margins>
                    <system-distance>187</system-distance>
                </system-layout>
            </print>
            <note default-x="74">
                <pitch>
                    <step>E</step>
                    <alter>-1</alter>
                    <octave>4</octave>
                </pitch>
                <duration>8</duration>
                <voice>1</voice>
                <type>quarter</type>
                <stem default-y="-5">up</stem>
                <lyric default-y="-82" number="1">
                    <syllabic>single</syllabic>
                    <text>I've</text>
                </lyric>
                <lyric default-y="-115" number="2">
                    <syllabic>single</syllabic>
                    <text>I've</text>
                </lyric>
                <lyric default-y="-145" number="3">
                    <syllabic>single</syllabic>
                    <text>why</text>
                </lyric>
                <lyric default-y="-175" number="4">
                    <syllabic>single</syllabic>
                    <text>was</text>
                </lyric>
            </note>
            <harmony font-size="12" default-y="19">
                <root>
                    <root-step>A</root-step>
                    <root-alter>-1</root-alter>
                </root>
                <kind halign="center" text="">major</kind>
            </harmony>
            <note default-x="160">
                <pitch>
                    <step>E</step>
                    <alter>-1</alter>
                    <octave>4</octave>
                </pitch>
                <duration>4</duration>
                <voice>1</voice>
                <type>eighth</type>
                <stem default-y="-10">up</stem>
                <beam number="1">begin</beam>
                <lyric default-y="-82" number="1">
                    <syllabic>begin</syllabic>
                    <text>giv</text>
                </lyric>
                <lyric default-y="-115" number="2">
                    <syllabic>begin</syllabic>
                    <text>giv</text>
                </lyric>
                <lyric default-y="-145" number="3">
                    <syllabic>single</syllabic>
                    <text>did</text>
                </lyric>
                <lyric default-y="-175" number="4">
                    <syllabic>single</syllabic>
                    <text>it</text>
                </lyric>
            </note>
            <note default-x="214">
                <pitch>
                    <step>F</step>
                    <octave>4</octave>
                </pitch>
                <duration>4</duration>
                <voice>1</voice>
                <type>eighth</type>
                <stem default-y="-7.5">up</stem>
                <beam number="1">end</beam>
                <lyric default-y="-82" number="1">
                    <syllabic>end</syllabic>
                    <text>en</text>
                </lyric>
                <lyric default-y="-115" number="2">
                    <syllabic>end</syllabic>
                    <text>en</text>
                </lyric>
                <lyric default-y="-145" number="3">
                    <syllabic>single</syllabic>
                    <text>you</text>
                </lyric>
                <lyric default-y="-175" number="4">
                    <syllabic>begin</syllabic>
                    <text>some</text>
                </lyric>
            </note>
            <note default-x="268">
                <pitch>
                    <step>E</step>
                    <alter>-1</alter>
                    <octave>4</octave>
                </pitch>
                <duration>4</duration>
                <voice>1</voice>
                <type>eighth</type>
                <stem default-y="-5">up</stem>
                <beam number="1">begin</beam>
                <lyric default-y="-82" number="1">
                    <syllabic>single</syllabic>
                    <text>up</text>
                </lyric>
                <lyric default-y="-115" number="2">
                    <syllabic>single</syllabic>
                    <text>up</text>
                </lyric>
                <lyric default-y="-145" number="3">
                    <syllabic>single</syllabic>
                    <text>have</text>
                </lyric>
                <lyric default-y="-175" number="4">
                    <syllabic>end</syllabic>
                    <text>thing</text>
                </lyric>
            </note>
            <note default-x="321">
                <pitch>
                    <step>C</step>
                    <octave>4</octave>
                </pitch>
                <duration>4</duration>
                <voice>1</voice>
                <type>eighth</type>
                <stem default-y="-7.5">up</stem>
                <beam number="1">end</beam>
                <lyric default-y="-82" number="1">
                    <syllabic>single</syllabic>
                    <text>on</text>
                </lyric>
                <lyric default-y="-115" number="2">
                    <syllabic>single</syllabic>
                    <text>on</text>
                </lyric>
                <lyric default-y="-145" number="3">
                    <syllabic>single</syllabic>
                    <text>to</text>
                </lyric>
                <lyric default-y="-175" number="4">
                    <syllabic>single</syllabic>
                    <text>I</text>
                </lyric>
            </note>
            <note default-x="375">
                <pitch>
                    <step>E</step>
                    <alter>-1</alter>
                    <octave>4</octave>
                </pitch>
                <duration>8</duration>
                <tie type="start"/>
                <voice>1</voice>
                <type>quarter</type>
                <stem default-y="-5">up</stem>
                <notations>
                    <tied type="start"/>
                </notations>
                <lyric justify="left" default-y="-82" number="1">
                    <syllabic>single</syllabic>
                    <text>love</text>
                    <extend/>
                </lyric>
                <lyric justify="left" default-y="-115" number="2">
                    <syllabic>single</syllabic>
                    <text>love,</text>
                    <extend/>
                </lyric>
                <lyric justify="left" default-y="-145" number="3">
                    <syllabic>single</syllabic>
                    <text>leave</text>
                    <extend/>
                </lyric>
                <lyric justify="left" default-y="-175" number="4">
                    <syllabic>single</syllabic>
                    <text>said</text>
                    <extend/>
                </lyric>
            </note>
        </measure>
        <measure width="191" number="12">
            <direction placement="above">
                <direction-type>
                    <words font-size="15.4" relative-x="-482" default-y="227" valign="top">Verses</words>
                </direction-type>
            </direction>
            <note default-x="17">
                <pitch>
                    <step>E</step>
                    <alter>-1</alter>
                    <octave>4</octave>
                </pitch>
                <duration>16</duration>
                <tie type="stop"/>
                <voice>1</voice>
                <type>half</type>
                <stem default-y="-5">up</stem>
                <notations>
                    <tied type="stop"/>
                </notations>
            </note>
            <harmony font-size="12" default-y="19">
                <root>
                    <root-step>A</root-step>
                    <root-alter>-1</root-alter>
                </root>
                <kind halign="center" text="m">minor</kind>
            </harmony>
            <note default-x="82">
                <pitch>
                    <step>D</step>
                    <alter>-1</alter>
                    <octave>4</octave>
                </pitch>
                <duration>8</duration>
                <voice>1</voice>
                <type>quarter</type>
                <accidental>flat</accidental>
                <stem default-y="-9.5">up</stem>
                <lyric default-y="-82" number="1">
                    <syllabic>begin</syllabic>
                    <text>un</text>
                </lyric>
                <lyric default-y="-115" number="2">
                    <syllabic>single</syllabic>
                    <text>now</text>
                </lyric>
                <lyric default-y="-145" number="3">
                    <syllabic>single</syllabic>
                    <text>I</text>
                </lyric>
                <lyric default-y="-175" number="4">
                    <syllabic>single</syllabic>
                    <text>I</text>
                </lyric>
            </note>
            <note default-x="141">
                <pitch>
                    <step>D</step>
                    <alter>-1</alter>
                    <octave>4</octave>
                </pitch>
                <duration>8</duration>
                <voice>1</voice>
                <type>quarter</type>
                <stem default-y="-9.5">up</stem>
                <lyric default-y="-82" number="1">
                    <syllabic>end</syllabic>
                    <text>til</text>
                </lyric>
                <lyric default-y="-115" number="2">
                    <syllabic>single</syllabic>
                    <text>you're</text>
                </lyric>
                <lyric default-y="-145" number="3">
                    <syllabic>single</syllabic>
                    <text>still</text>
                </lyric>
                <lyric default-y="-175" number="4">
                    <syllabic>single</syllabic>
                    <text>wish</text>
                </lyric>
            </note>
        </measure>
        <measure width="218" number="13">
            <note default-x="25">
                <pitch>
                    <step>B</step>
                    <octave>3</octave>
                </pitch>
                <duration>8</duration>
                <voice>1</voice>
                <type>quarter</type>
                <accidental>natural</accidental>
                <stem default-y="-19">up</stem>
                <lyric default-y="-82" number="1">
                    <syllabic>single</syllabic>
                    <text>the</text>
                </lyric>
                <lyric default-y="-115" number="2">
                    <syllabic>single</syllabic>
                    <text>no</text>
                </lyric>
                <lyric default-y="-145" number="3">
                    <syllabic>single</syllabic>
                    <text>do</text>
                </lyric>
                <lyric default-y="-175" number="4">
                    <syllabic>single</syllabic>
                    <text>I</text>
                </lyric>
            </note>
            <note default-x="75">
                <pitch>
                    <step>B</step>
                    <octave>3</octave>
                </pitch>
                <duration>16</duration>
                <voice>1</voice>
                <type>half</type>
                <stem default-y="-19">up</stem>
                <lyric default-y="-82" number="1">
                    <syllabic>single</syllabic>
                    <text>next</text>
                </lyric>
                <lyric default-y="-115" number="2">
                    <syllabic>begin</syllabic>
                    <text>long</text>
                </lyric>
                <lyric default-y="-145" number="3">
                    <syllabic>single</syllabic>
                    <text>not</text>
                </lyric>
                <lyric default-y="-175" number="4">
                    <syllabic>single</syllabic>
                    <text>knew</text>
                </lyric>
            </note>
            <harmony font-size="12" default-y="19">
                <root>
                    <root-step>E</root-step>
                    <root-alter>-1</root-alter>
                </root>
                <kind halign="center" text="">major</kind>
            </harmony>
            <note default-x="133">
                <pitch>
                    <step>B</step>
                    <alter>-1</alter>
                    <octave>3</octave>
                </pitch>
                <duration>8</duration>
                <tie type="start"/>
                <voice>1</voice>
                <type>quarter</type>
                <accidental>flat</accidental>
                <stem default-y="-19">up</stem>
                <notations>
                    <tied type="start"/>
                </notations>
                <lyric justify="left" default-y="-82" number="1">
                    <syllabic>single</syllabic>
                    <text>time,</text>
                    <extend/>
                </lyric>
                <lyric justify="left" default-y="-115" number="2">
                    <syllabic>end</syllabic>
                    <text>er</text>
                </lyric>
                <lyric justify="left" default-y="-145" number="3">
                    <syllabic>single</syllabic>
                    <text>know,</text>
                    <extend/>
                </lyric>
                <lyric justify="left" default-y="-175" number="4">
                    <syllabic>single</syllabic>
                    <text>why,</text>
                    <extend/>
                </lyric>
            </note>
        </measure>
        <measure width="182" number="14">
            <note default-x="33">
                <pitch>
                    <step>B</step>
                    <alter>-1</alter>
                    <octave>3</octave>
                </pitch>
                <duration>24</duration>
                <tie type="stop"/>
                <voice>1</voice>
                <type>half</type>
                <dot/>
                <stem default-y="-19">up</stem>
                <notations>
                    <tied type="stop"/>
                </notations>
                <lyric default-y="-115" number="2">
                    <syllabic>single</syllabic>
                    <text>mine,</text>
                </lyric>
            </note>
            <note default-x="134">
                <pitch>
                    <step>G</step>
                    <octave>4</octave>
                </pitch>
                <duration>8</duration>
                <voice>1</voice>
                <type>quarter</type>
                <stem default-y="5.5">up</stem>
                <lyric default-y="-82" number="1">
                    <syllabic>single</syllabic>
                    <text>I've</text>
                </lyric>
                <lyric default-y="-115" number="2">
                    <syllabic>single</syllabic>
                    <text>I</text>
                </lyric>
                <lyric default-y="-145" number="3">
                    <syllabic>single</syllabic>
                    <text>you</text>
                </lyric>
                <lyric default-y="-175" number="4">
                    <syllabic>single</syllabic>
                    <text>there's</text>
                </lyric>
            </note>
        </measure>
        <measure width="394" number="15">
            <print new-system="yes">
                <system-layout>
                    <system-margins>
                        <left-margin>0</left-margin>
                        <right-margin>0</right-margin>
                    </system-margins>
                    <system-distance>184</system-distance>
                </system-layout>
            </print>
            <harmony font-size="12" default-y="18">
                <root>
                    <root-step>A</root-step>
                    <root-alter>-1</root-alter>
                </root>
                <kind halign="center" text="">major</kind>
            </harmony>
            <note default-x="89">
                <pitch>
                    <step>G</step>
                    <octave>4</octave>
                </pitch>
                <duration>4</duration>
                <voice>1</voice>
                <type>eighth</type>
                <stem default-y="10">up</stem>
                <beam number="1">begin</beam>
                <lyric default-y="-79" number="1">
                    <syllabic>single</syllabic>
                    <text>had</text>
                </lyric>
                <lyric default-y="-112" number="2">
                    <syllabic>single</syllabic>
                    <text>thought</text>
                </lyric>
                <lyric default-y="-145" number="3">
                    <syllabic>single</syllabic>
                    <text>did</text>
                </lyric>
                <lyric default-y="-180" number="4">
                    <syllabic>single</syllabic>
                    <text>no</text>
                </lyric>
            </note>
            <note default-x="151">
                <pitch>
                    <step>A</step>
                    <alter>-1</alter>
                    <octave>4</octave>
                </pitch>
                <duration>4</duration>
                <voice>1</voice>
                <type>eighth</type>
                <stem default-y="10">up</stem>
                <beam number="1">continue</beam>
                <lyric default-y="-79" number="1">
                    <syllabic>begin</syllabic>
                    <text>en</text>
                </lyric>
                <lyric default-y="-112" number="2">
                    <syllabic>single</syllabic>
                    <text>our</text>
                </lyric>
                <lyric default-y="-145" number="3">
                    <syllabic>single</syllabic>
                    <text>not</text>
                </lyric>
                <lyric default-y="-180" number="4">
                    <syllabic>single</syllabic>
                    <text>one</text>
                </lyric>
            </note>
            <note default-x="201">
                <pitch>
                    <step>G</step>
                    <octave>4</octave>
                </pitch>
                <duration>4</duration>
                <voice>1</voice>
                <type>eighth</type>
                <stem default-y="10">up</stem>
                <beam number="1">continue</beam>
                <lyric default-y="-79" number="1">
                    <syllabic>end</syllabic>
                    <text>ough</text>
                </lyric>
                <lyric default-y="-112" number="2">
                    <syllabic>single</syllabic>
                    <text>love</text>
                </lyric>
                <lyric default-y="-145" number="3">
                    <syllabic>single</syllabic>
                    <text>seen</text>
                </lyric>
                <lyric default-y="-180" number="4">
                    <syllabic>single</syllabic>
                    <text>else</text>
                </lyric>
            </note>
            <note default-x="264">
                <pitch>
                    <step>F</step>
                    <octave>4</octave>
                </pitch>
                <duration>4</duration>
                <voice>1</voice>
                <type>eighth</type>
                <stem default-y="10">up</stem>
                <beam number="1">end</beam>
                <lyric default-y="-79" number="1">
                    <syllabic>single</syllabic>
                    <text>heart</text>
                </lyric>
                <lyric default-y="-112" number="2">
                    <syllabic>single</syllabic>
                    <text>would</text>
                </lyric>
                <lyric default-y="-145" number="3">
                    <syllabic>begin</syllabic>
                    <text>un</text>
                </lyric>
                <lyric default-y="-180" number="4">
                    <syllabic>single</syllabic>
                    <text>for</text>
                </lyric>
            </note>
            <note default-x="311">
                <pitch>
                    <step>G</step>
                    <octave>4</octave>
                </pitch>
                <duration>16</duration>
                <tie type="start"/>
                <voice>1</voice>
                <type>half</type>
                <stem default-y="5.5">up</stem>
                <notations>
                    <tied type="start"/>
                </notations>
                <lyric justify="left" default-y="-79" number="1">
                    <syllabic>single</syllabic>
                    <text>ache,</text>
                    <extend/>
                </lyric>
                <lyric justify="left" default-y="-112" number="2">
                    <syllabic>single</syllabic>
                    <text>last,</text>
                    <extend/>
                </lyric>
                <lyric justify="left" default-y="-145" number="3">
                    <syllabic>end</syllabic>
                    <text>happy</text>
                    <extend/>
                </lyric>
                <lyric justify="left" default-y="-180" number="4">
                    <syllabic>single</syllabic>
                    <text>me,</text>
                    <extend/>
                </lyric>
            </note>
        </measure>
        <measure width="263" number="16">
            <note default-x="17">
                <pitch>
                    <step>G</step>
                    <octave>4</octave>
                </pitch>
                <duration>8</duration>
                <tie type="stop"/>
                <voice>1</voice>
                <type>quarter</type>
                <stem default-y="5.5">up</stem>
                <notations>
                    <tied type="stop"/>
                </notations>
            </note>
            <harmony font-size="12" default-y="18">
                <root>
                    <root-step>A</root-step>
                    <root-alter>-1</root-alter>
                </root>
                <kind halign="center" text="m">minor</kind>
            </harmony>
            <note default-x="50">
                <pitch>
                    <step>F</step>
                    <octave>4</octave>
                </pitch>
                <duration>8</duration>
                <voice>1</voice>
                <type>quarter</type>
                <stem default-y="0.5">up</stem>
                <lyric default-y="-79" number="1">
                    <syllabic>single</syllabic>
                    <text>and</text>
                </lyric>
                <lyric default-y="-112" number="2">
                    <syllabic>begin</syllabic>
                    <text>un</text>
                </lyric>
                <lyric default-y="-145" number="3">
                    <syllabic>single</syllabic>
                    <text>in</text>
                </lyric>
                <lyric default-y="-180" number="4">
                    <syllabic>single</syllabic>
                    <text>will</text>
                </lyric>
            </note>
            <note default-x="96">
                <pitch>
                    <step>F</step>
                    <octave>4</octave>
                </pitch>
                <duration>4</duration>
                <voice>1</voice>
                <type>eighth</type>
                <stem default-y="0">up</stem>
                <beam number="1">begin</beam>
                <lyric default-y="-79" number="1">
                    <syllabic>begin</syllabic>
                    <text>en</text>
                </lyric>
                <lyric default-y="-112" number="2">
                    <syllabic>end</syllabic>
                    <text>til</text>
                </lyric>
                <lyric default-y="-145" number="3">
                    <syllabic>single</syllabic>
                    <text>fact</text>
                </lyric>
                <lyric default-y="-180" number="4">
                    <syllabic>single</syllabic>
                    <text>you</text>
                </lyric>
            </note>
            <note default-x="149">
                <pitch>
                    <step>F</step>
                    <octave>4</octave>
                </pitch>
                <duration>4</duration>
                <voice>1</voice>
                <type>eighth</type>
                <stem default-y="0">up</stem>
                <beam number="1">end</beam>
                <lyric default-y="-79" number="1">
                    <syllabic>end</syllabic>
                    <text>ough</text>
                </lyric>
                <lyric default-y="-112" number="2">
                    <syllabic>single</syllabic>
                    <text>the</text>
                </lyric>
                <lyric default-y="-145" number="3">
                    <syllabic>single</syllabic>
                    <text>we</text>
                </lyric>
                <lyric default-y="-180" number="4">
                    <syllabic>single</syllabic>
                    <text>come</text>
                </lyric>
            </note>
            <harmony font-size="12" default-y="18">
                <root>
                    <root-step>E</root-step>
                    <root-alter>-1</root-alter>
                </root>
                <kind halign="center" text="">major</kind>
            </harmony>
            <note default-x="192">
                <pitch>
                    <step>F</step>
                    <octave>4</octave>
                </pitch>
                <duration>8</duration>
                <tie type="start"/>
                <voice>1</voice>
                <type>quarter</type>
                <stem default-y="0.5">up</stem>
                <notations>
                    <tied type="start"/>
                </notations>
                <lyric justify="left" default-y="-79" number="1">
                    <syllabic>single</syllabic>
                    <text>of</text>
                    <extend/>
                </lyric>
                <lyric justify="left" default-y="-112" number="2">
                    <syllabic>single</syllabic>
                    <text>end</text>
                    <extend/>
                </lyric>
                <lyric justify="left" default-y="-145" number="3">
                    <syllabic>single</syllabic>
                    <text>had</text>
                    <extend/>
                </lyric>
                <lyric justify="left" default-y="-180" number="4">
                    <syllabic>single</syllabic>
                    <text>back</text>
                    <extend/>
                </lyric>
            </note>
        </measure>
        <measure width="158" number="17">
            <note default-x="13">
                <pitch>
                    <step>F</step>
                    <octave>4</octave>
                </pitch>
                <duration>4</duration>
                <tie type="stop"/>
                <voice>1</voice>
                <type>eighth</type>
                <stem default-y="-5">up</stem>
                <beam number="1">begin</beam>
                <notations>
                    <tied type="stop"/>
                </notations>
            </note>
            <note default-x="45">
                <pitch>
                    <step>E</step>
                    <alter>-1</alter>
                    <octave>4</octave>
                </pitch>
                <duration>4</duration>
                <voice>1</voice>
                <type>eighth</type>
                <stem default-y="-7">up</stem>
                <beam number="1">end</beam>
                <lyric default-y="-79" number="1">
                    <syllabic>single</syllabic>
                    <text>the</text>
                </lyric>
                <lyric default-y="-112" number="2">
                    <syllabic>single</syllabic>
                    <text>of</text>
                </lyric>
                <lyric default-y="-145" number="3">
                    <syllabic>single</syllabic>
                    <text>such</text>
                </lyric>
                <lyric default-y="-180" number="4">
                    <syllabic>single</syllabic>
                    <text>my</text>
                </lyric>
            </note>
            <harmony font-size="12" default-y="18">
                <root>
                    <root-step>C</root-step>
                </root>
                <kind halign="center" text="m">minor</kind>
            </harmony>
            <note default-x="84">
                <pitch>
                    <step>E</step>
                    <alter>-1</alter>
                    <octave>4</octave>
                </pitch>
                <duration>24</duration>
                <tie type="start"/>
                <voice>1</voice>
                <type>half</type>
                <dot/>
                <stem default-y="-4">up</stem>
                <notations>
                    <tied type="start"/>
                </notations>
                <lyric justify="left" default-y="-79" number="1">
                    <syllabic>single</syllabic>
                    <text>pain,</text>
                    <extend/>
                </lyric>
                <lyric justify="left" default-y="-112" number="2">
                    <syllabic>single</syllabic>
                    <text>time,</text>
                    <extend/>
                </lyric>
                <lyric justify="left" default-y="-145" number="3">
                    <syllabic>single</syllabic>
                    <text>fun,</text>
                    <extend/>
                </lyric>
                <lyric justify="left" default-y="-180" number="4">
                    <syllabic>single</syllabic>
                    <text>love,</text>
                    <extend/>
                </lyric>
            </note>
        </measure>
        <measure width="239" number="18">
            <note default-x="14">
                <pitch>
                    <step>E</step>
                    <alter>-1</alter>
                    <octave>4</octave>
                </pitch>
                <duration>8</duration>
                <tie type="stop"/>
                <voice>1</voice>
                <type>quarter</type>
                <stem default-y="-4">up</stem>
                <notations>
                    <tied type="stop"/>
                </notations>
            </note>
            <note default-x="45">
                <pitch>
                    <step>F</step>
                    <octave>4</octave>
                </pitch>
                <duration>8</duration>
                <voice>1</voice>
                <type>quarter</type>
                <stem default-y="0.5">up</stem>
                <lyric default-y="-79" number="1">
                    <syllabic>single</syllabic>
                    <text>I've</text>
                </lyric>
                <lyric default-y="-112" number="2">
                    <syllabic>single</syllabic>
                    <text>I've</text>
                </lyric>
                <lyric default-y="-145" number="3">
                    <syllabic>single</syllabic>
                    <text>I've</text>
                </lyric>
                <lyric default-y="-180" number="4">
                    <syllabic>begin</syllabic>
                    <text>un</text>
                </lyric>
            </note>
            <harmony font-size="12" default-y="18">
                <root>
                    <root-step>A</root-step>
                    <root-alter>-1</root-alter>
                </root>
                <kind halign="center" text="">major</kind>
            </harmony>
            <note default-x="88">
                <pitch>
                    <step>G</step>
                    <octave>4</octave>
                </pitch>
                <duration>4</duration>
                <voice>1</voice>
                <type>eighth</type>
                <stem default-y="5">up</stem>
                <beam number="1">begin</beam>
                <lyric default-y="-79" number="1">
                    <syllabic>begin</syllabic>
                    <text>giv</text>
                </lyric>
                <lyric default-y="-112" number="2">
                    <syllabic>begin</syllabic>
                    <text>giv</text>
                </lyric>
                <lyric default-y="-145" number="3">
                    <syllabic>begin</syllabic>
                    <text>giv</text>
                </lyric>
                <lyric default-y="-180" number="4">
                    <syllabic>end</syllabic>
                    <text>til</text>
                </lyric>
            </note>
            <note default-x="125">
                <pitch>
                    <step>F</step>
                    <octave>4</octave>
                </pitch>
                <duration>4</duration>
                <voice>1</voice>
                <type>eighth</type>
                <stem default-y="4.5">up</stem>
                <beam number="1">continue</beam>
                <lyric default-y="-79" number="1">
                    <syllabic>end</syllabic>
                    <text>en</text>
                </lyric>
                <lyric default-y="-112" number="2">
                    <syllabic>end</syllabic>
                    <text>en</text>
                </lyric>
                <lyric default-y="-145" number="3">
                    <syllabic>end</syllabic>
                    <text>en</text>
                </lyric>
                <lyric default-y="-180" number="4">
                    <syllabic>single</syllabic>
                    <text>that</text>
                </lyric>
            </note>
            <note default-x="170">
                <pitch>
                    <step>E</step>
                    <alter>-1</alter>
                    <octave>4</octave>
                </pitch>
                <duration>4</duration>
                <voice>1</voice>
                <type>eighth</type>
                <stem default-y="3.5">up</stem>
                <beam number="1">continue</beam>
                <lyric default-y="-79" number="1">
                    <syllabic>single</syllabic>
                    <text>up</text>
                </lyric>
                <lyric default-y="-112" number="2">
                    <syllabic>single</syllabic>
                    <text>up</text>
                </lyric>
                <lyric default-y="-145" number="3">
                    <syllabic>single</syllabic>
                    <text>up</text>
                </lyric>
                <lyric default-y="-180" number="4">
                    <syllabic>single</syllabic>
                    <text>day</text>
                </lyric>
            </note>
            <note default-x="209">
                <pitch>
                    <step>C</step>
                    <octave>4</octave>
                </pitch>
                <duration>4</duration>
                <voice>1</voice>
                <type>eighth</type>
                <stem default-y="2.5">up</stem>
                <beam number="1">end</beam>
                <lyric default-y="-79" number="1">
                    <syllabic>single</syllabic>
                    <text>on</text>
                </lyric>
                <lyric default-y="-112" number="2">
                    <syllabic>single</syllabic>
                    <text>on</text>
                </lyric>
                <lyric default-y="-145" number="3">
                    <syllabic>single</syllabic>
                    <text>on</text>
                </lyric>
                <lyric default-y="-180" number="4">
                    <syllabic>begin</syllabic>
                    <text>ar</text>
                </lyric>
            </note>
        </measure>
        <measure width="178" number="19">
            <print new-system="yes">
                <system-layout>
                    <system-margins>
                        <left-margin>0</left-margin>
                        <right-margin>0</right-margin>
                    </system-margins>
                    <system-distance>215</system-distance>
                </system-layout>
            </print>
            <barline location="left">
                <ending default-y="58" type="start" number="1" end-length="47"></ending>
            </barline>
            <direction placement="above">
                <direction-type>
                    <words font-size="15.4">2. 3.</words>
                </direction-type>
            </direction>
            <note default-x="60">
                <pitch>
                    <step>E</step>
                    <alter>-1</alter>
                    <octave>4</octave>
                </pitch>
                <duration>24</duration>
                <voice>1</voice>
                <type>half</type>
                <dot/>
                <stem default-y="-4">up</stem>
                <lyric default-y="-77" number="1">
                    <syllabic>single</syllabic>
                    <text>love,</text>
                </lyric>
                <lyric default-y="-108" number="2">
                    <syllabic>single</syllabic>
                    <text>love,</text>
                </lyric>
                <lyric default-y="-143" number="3">
                    <syllabic>single</syllabic>
                    <text>love,</text>
                </lyric>
            </note>
            <note default-x="124">
                <pitch>
                    <step>C</step>
                    <octave>4</octave>
                </pitch>
                <duration>4</duration>
                <voice>1</voice>
                <type>eighth</type>
                <stem default-y="-15">up</stem>
                <beam number="1">begin</beam>
                <lyric default-y="-77" number="1">
                    <syllabic>begin</syllabic>
                    <text>un</text>
                </lyric>
                <lyric default-y="-108" number="2">
                    <syllabic>begin</syllabic>
                    <text>un</text>
                </lyric>
                <lyric default-y="-143" number="3">
                    <syllabic>begin</syllabic>
                    <text>un</text>
                </lyric>
            </note>
            <note default-x="150">
                <pitch>
                    <step>C</step>
                    <octave>4</octave>
                </pitch>
                <duration>4</duration>
                <voice>1</voice>
                <type>eighth</type>
                <stem default-y="-15">up</stem>
                <beam number="1">end</beam>
                <lyric default-y="-77" number="1">
                    <syllabic>end</syllabic>
                    <text>til</text>
                </lyric>
                <lyric default-y="-108" number="2">
                    <syllabic>end</syllabic>
                    <text>til</text>
                </lyric>
                <lyric default-y="-143" number="3">
                    <syllabic>end</syllabic>
                    <text>til</text>
                </lyric>
            </note>
            <barline location="right">
                <ending type="discontinue" number="1"></ending>
            </barline>
        </measure>
        <measure width="305" number="20">
            <note default-x="27">
                <pitch>
                    <step>C</step>
                    <octave>4</octave>
                </pitch>
                <duration>4</duration>
                <voice>1</voice>
                <type>eighth</type>
                <stem default-y="-10">up</stem>
                <beam number="1">begin</beam>
                <lyric default-y="-77" number="1">
                    <syllabic>single</syllabic>
                    <text>I</text>
                </lyric>
                <lyric default-y="-108" number="2">
                    <syllabic>single</syllabic>
                    <text>once</text>
                </lyric>
                <lyric default-y="-143" number="3">
                    <syllabic>single</syllabic>
                    <text>the</text>
                </lyric>
            </note>
            <harmony font-size="12" default-y="23">
                <root>
                    <root-step>B</root-step>
                    <root-alter>-1</root-alter>
                </root>
                <kind halign="center" text="7">dominant</kind>
            </harmony>
            <note default-x="73">
                <pitch>
                    <step>D</step>
                    <octave>4</octave>
                </pitch>
                <duration>4</duration>
                <voice>1</voice>
                <type>eighth</type>
                <stem default-y="-9">up</stem>
                <beam number="1">continue</beam>
                <lyric default-y="-77" number="1">
                    <syllabic>single</syllabic>
                    <text>fall</text>
                </lyric>
                <lyric default-y="-108" number="2">
                    <syllabic>begin</syllabic>
                    <text>a</text>
                </lyric>
                <lyric default-y="-143" number="3">
                    <syllabic>single</syllabic>
                    <text>two</text>
                </lyric>
            </note>
            <note default-x="117">
                <pitch>
                    <step>E</step>
                    <alter>-1</alter>
                    <octave>4</octave>
                </pitch>
                <duration>4</duration>
                <voice>1</voice>
                <type>eighth</type>
                <stem default-y="-8">up</stem>
                <beam number="1">continue</beam>
                <lyric default-y="-77" number="1">
                    <syllabic>single</syllabic>
                    <text>in</text>
                </lyric>
                <lyric default-y="-108" number="2">
                    <syllabic>end</syllabic>
                    <text>gain</text>
                </lyric>
                <lyric default-y="-143" number="3">
                    <syllabic>single</syllabic>
                    <text>of</text>
                </lyric>
            </note>
            <note default-x="162">
                <pitch>
                    <step>F</step>
                    <octave>4</octave>
                </pitch>
                <duration>4</duration>
                <voice>1</voice>
                <type>eighth</type>
                <stem default-y="-7">up</stem>
                <beam number="1">end</beam>
                <lyric default-y="-77" number="1">
                    <syllabic>single</syllabic>
                    <text>love</text>
                </lyric>
                <lyric default-y="-108" number="2">
                    <syllabic>single</syllabic>
                    <text>you</text>
                </lyric>
                <lyric default-y="-143" number="3">
                    <syllabic>single</syllabic>
                    <text>us</text>
                </lyric>
            </note>
            <note default-x="203">
                <pitch>
                    <step>D</step>
                    <octave>4</octave>
                </pitch>
                <duration>4</duration>
                <voice>1</voice>
                <type>eighth</type>
                <stem default-y="-10">up</stem>
                <lyric default-y="-77" number="1">
                    <syllabic>begin</syllabic>
                    <text>a</text>
                </lyric>
                <lyric default-y="-108" number="2">
                    <syllabic>single</syllabic>
                    <text>are</text>
                </lyric>
                <lyric default-y="-143" number="3">
                    <syllabic>single</syllabic>
                    <text>are</text>
                </lyric>
            </note>
            <harmony font-size="12" default-y="23">
                <root>
                    <root-step>E</root-step>
                    <root-alter>-1</root-alter>
                </root>
                <kind halign="center" text="">major</kind>
            </harmony>
            <note default-x="232">
                <pitch>
                    <step>E</step>
                    <alter>-1</alter>
                    <octave>4</octave>
                </pitch>
                <duration>12</duration>
                <tie type="start"/>
                <voice>1</voice>
                <type>quarter</type>
                <dot/>
                <stem default-y="-4">up</stem>
                <notations>
                    <tied type="start"/>
                </notations>
                <lyric justify="left" default-y="-77" number="1">
                    <syllabic>end</syllabic>
                    <text>gain.</text>
                    <extend/>
                </lyric>
                <lyric justify="left" default-y="-108" number="2">
                    <syllabic>single</syllabic>
                    <text>mine.</text>
                    <extend/>
                </lyric>
                <lyric justify="left" default-y="-143" number="3">
                    <syllabic>single</syllabic>
                    <text>one.</text>
                    <extend/>
                </lyric>
            </note>
            <direction placement="below">
                <direction-type>
                    <words font-size="12"> Les Kettley
</words>
                </direction-type>
                <offset>-3</offset>
            </direction>
        </measure>
        <measure width="171" number="21">
            <attributes>
                <key>
                    <cancel>-3</cancel>
                    <fifths>-1</fifths>
                    <mode>major</mode>
                </key>
            </attributes>
            <note default-x="57">
                <pitch>
                    <step>E</step>
                    <alter>-1</alter>
                    <octave>4</octave>
                </pitch>
                <duration>12</duration>
                <tie type="stop"/>
                <voice>1</voice>
                <type>quarter</type>
                <dot/>
                <stem default-y="-4">up</stem>
                <notations>
                    <tied type="stop"/>
                </notations>
            </note>
            <harmony font-size="12" default-y="23">
                <root>
                    <root-step>C</root-step>
                </root>
                <kind halign="center" text="7">dominant</kind>
            </harmony>
            <note default-x="99">
                <pitch>
                    <step>E</step>
                    <octave>4</octave>
                </pitch>
                <duration>16</duration>
                <voice>1</voice>
                <type>half</type>
                <accidental>natural</accidental>
                <stem default-y="-4">up</stem>
            </note>
            <note default-x="151">
                <rest/>
                <duration>4</duration>
                <voice>1</voice>
                <type>eighth</type>
            </note>
            <direction placement="above">
                <direction-type>
                    <bracket line-type="solid" default-y="58" type="start" number="1" line-end="none"/>
                </direction-type>
            </direction>
        </measure>
        <measure width="132" number="22">
            <direction placement="above">
                <direction-type>
                    <words font-size="15.4">4.</words>
                </direction-type>
            </direction>
            <note default-x="32">
                <pitch>
                    <step>E</step>
                    <alter>-1</alter>
                    <octave>4</octave>
                </pitch>
                <duration>24</duration>
                <voice>1</voice>
                <type>half</type>
                <dot/>
                <accidental>flat</accidental>
                <stem default-y="-4">up</stem>
                <lyric default-y="-168" number="4">
                    <syllabic>end</syllabic>
                    <text>rives,</text>
                </lyric>
            </note>
            <note default-x="96">
                <pitch>
                    <step>C</step>
                    <octave>4</octave>
                </pitch>
                <duration>8</duration>
                <voice>1</voice>
                <type>quarter</type>
                <stem default-y="-14.5">up</stem>
                <lyric default-y="-168" number="4">
                    <syllabic>single</syllabic>
                    <text>I've</text>
                </lyric>
            </note>
        </measure>
        <measure width="157" number="23">
            <harmony font-size="12" default-y="23">
                <root>
                    <root-step>B</root-step>
                    <root-alter>-1</root-alter>
                </root>
                <kind halign="center" text="">major</kind>
            </harmony>
            <note default-x="21">
                <pitch>
                    <step>D</step>
                    <octave>4</octave>
                </pitch>
                <duration>8</duration>
                <voice>1</voice>
                <type>quarter</type>
                <stem default-y="-10">up</stem>
                <lyric default-y="-168" number="4">
                    <syllabic>begin</syllabic>
                    <text>giv</text>
                </lyric>
            </note>
            <note default-x="57">
                <pitch>
                    <step>E</step>
                    <alter>-1</alter>
                    <octave>4</octave>
                </pitch>
                <duration>8</duration>
                <voice>1</voice>
                <type>quarter</type>
                <accidental>flat</accidental>
                <stem default-y="-4">up</stem>
                <lyric default-y="-168" number="4">
                    <syllabic>end</syllabic>
                    <text>en</text>
                </lyric>
            </note>
            <harmony font-size="12" default-y="23">
                <root>
                    <root-step>B</root-step>
                    <root-alter>-1</root-alter>
                </root>
                <kind halign="center" text="7">dominant</kind>
            </harmony>
            <note default-x="89">
                <pitch>
                    <step>F</step>
                    <octave>4</octave>
                </pitch>
                <duration>8</duration>
                <voice>1</voice>
                <type>quarter</type>
                <stem default-y="0.5">up</stem>
                <lyric default-y="-168" number="4">
                    <syllabic>single</syllabic>
                    <text>up</text>
                </lyric>
            </note>
            <note default-x="128">
                <pitch>
                    <step>A</step>
                    <alter>-1</alter>
                    <octave>4</octave>
                </pitch>
                <duration>8</duration>
                <voice>1</voice>
                <type>quarter</type>
                <accidental>flat</accidental>
                <stem default-y="10">up</stem>
                <lyric default-y="-168" number="4">
                    <syllabic>single</syllabic>
                    <text>on</text>
                </lyric>
            </note>
        </measure>
        <measure width="112" number="24">
            <harmony font-size="12" default-y="23">
                <root>
                    <root-step>E</root-step>
                    <root-alter>-1</root-alter>
                </root>
                <kind halign="center" text="">major</kind>
            </harmony>
            <note default-x="29">
                <pitch>
                    <step>B</step>
                    <alter>-1</alter>
                    <octave>4</octave>
                </pitch>
                <duration>32</duration>
                <voice>1</voice>
                <type>whole</type>
                <lyric default-y="-168" number="4">
                    <syllabic>single</syllabic>
                    <text>love.</text>
                </lyric>
            </note>
            <direction placement="above">
                <direction-type>
                    <bracket relative-x="7" type="stop" number="1" line-end="none"/>
                </direction-type>
            </direction>
            <barline location="right">
                <bar-style>light-heavy</bar-style>
            </barline>
        </measure>
    </part>
</score-partwise>
