<?xml version="1.0" encoding="UTF-8"?>
<!DOCTYPE score-partwise PUBLIC "-//Recordare//DTD MusicXML 2.0 Partwise//EN" "http://www.musicxml.org/dtds/partwise.dtd">
<score-partwise version="2.0">
    <work>
        <work-number></work-number>
        <work-title></work-title>
    </work>
    <movement-number></movement-number>
    <movement-title>It Could Happen To You</movement-title>
    <identification>
        <creator type="composer">Jimmy Van Husen</creator>
        <creator type="poet">Johnny Burke</creator>
        <rights>All Rights Reserved</rights>
        <encoding>
            <software>MuseScore 0.9.5</software>
            <encoding-date>2010-01-27</encoding-date>
            <software>ProxyMusic 2.0 c</software>
        </encoding>
        <source>http://wikifonia.org/node/4347/revisions/9650/view</source>
    </identification>
    <defaults>
        <scaling>
            <millimeters>7.056</millimeters>
            <tenths>40</tenths>
        </scaling>
        <page-layout>
            <page-height>1683.67</page-height>
            <page-width>1190.48</page-width>
            <page-margins type="both">
                <left-margin>56.6893</left-margin>
                <right-margin>56.6893</right-margin>
                <top-margin>56.6893</top-margin>
                <bottom-margin>113.379</bottom-margin>
            </page-margins>
        </page-layout>
    </defaults>
    <credit page="1">
        <credit-words font-size="24" default-y="1626.98" default-x="595.238" justify="center" valign="top">It Could Happen To You</credit-words>
    </credit>
    <part-list>
        <score-part id="P1">
            <part-name>Voice</part-name>
            <score-instrument id="P1-I3">
                <instrument-name>Voice</instrument-name>
            </score-instrument>
            <midi-instrument id="P1-I3">
                <midi-channel>1</midi-channel>
                <midi-program>53</midi-program>
            </midi-instrument>
        </score-part>
    </part-list>
    <part id="P1">
        <measure width="268.37" number="1">
            <print>
                <system-layout>
                    <system-margins>
                        <left-margin>69.92</left-margin>
                        <right-margin>0.00</right-margin>
                    </system-margins>
                    <top-system-distance>260.82</top-system-distance>
                </system-layout>
            </print>
            <barline location="left">
                <bar-style>heavy-light</bar-style>
                <repeat direction="forward"/>
            </barline>
            <attributes>
                <divisions>1</divisions>
                <key>
                    <fifths>1</fifths>
                    <mode>major</mode>
                </key>
                <time>
                    <beats>4</beats>
                    <beat-type>4</beat-type>
                </time>
                <clef>
                    <sign>G</sign>
                    <line>2</line>
                </clef>
            </attributes>
            <harmony relative-x="9.41" print-frame="no">
                <root>
                    <root-step>G</root-step>
                </root>
                <kind text="">major</kind>
            </harmony>
            <note default-y="-45.00" default-x="138.33">
                <pitch>
                    <step>D</step>
                    <octave>4</octave>
                </pitch>
                <duration>3</duration>
                <voice>1</voice>
                <type>half</type>
                <dot/>
                <stem>up</stem>
                <lyric number="1">
                    <syllabic>single</syllabic>
                    <text>Hide</text>
                </lyric>
            </note>
            <note default-y="-40.00" default-x="223.24">
                <pitch>
                    <step>E</step>
                    <octave>4</octave>
                </pitch>
                <duration>1</duration>
                <voice>1</voice>
                <type>quarter</type>
                <stem>up</stem>
                <lyric number="1">
                    <syllabic>single</syllabic>
                    <text>your</text>
                </lyric>
            </note>
        </measure>
        <measure width="219.55" number="2">
            <harmony relative-x="9.41" print-frame="no">
                <root>
                    <root-step>G</root-step>
                    <root-alter>1</root-alter>
                </root>
                <kind text="dim7">diminished-seventh</kind>
            </harmony>
            <note default-y="-35.00" default-x="30.99">
                <pitch>
                    <step>F</step>
                    <octave>4</octave>
                </pitch>
                <duration>1</duration>
                <voice>1</voice>
                <type>quarter</type>
                <accidental>natural</accidental>
                <stem>up</stem>
                <lyric number="1">
                    <syllabic>single</syllabic>
                    <text>heart</text>
                </lyric>
            </note>
            <note default-y="-40.00" default-x="82.68">
                <pitch>
                    <step>E</step>
                    <octave>4</octave>
                </pitch>
                <duration>1</duration>
                <voice>1</voice>
                <type>quarter</type>
                <stem>up</stem>
                <lyric number="1">
                    <syllabic>single</syllabic>
                    <text>from</text>
                </lyric>
            </note>
            <note default-y="-20.00" default-x="135.25">
                <pitch>
                    <step>B</step>
                    <octave>4</octave>
                </pitch>
                <duration>2</duration>
                <voice>1</voice>
                <type>half</type>
                <stem>down</stem>
                <lyric number="1">
                    <syllabic>single</syllabic>
                    <text>sight,</text>
                </lyric>
            </note>
        </measure>
        <measure width="155.41" number="3">
            <harmony relative-x="9.41" print-frame="no">
                <root>
                    <root-step>A</root-step>
                </root>
                <kind text="m7">minor-seventh</kind>
            </harmony>
            <note default-y="-40.00" default-x="27.87">
                <pitch>
                    <step>E</step>
                    <octave>4</octave>
                </pitch>
                <duration>3</duration>
                <voice>1</voice>
                <type>half</type>
                <dot/>
                <stem>up</stem>
                <lyric number="1">
                    <syllabic>single</syllabic>
                    <text>lock</text>
                </lyric>
            </note>
            <note default-y="-35.00" default-x="111.13">
                <pitch>
                    <step>F</step>
                    <alter>1</alter>
                    <octave>4</octave>
                </pitch>
                <duration>1</duration>
                <voice>1</voice>
                <type>quarter</type>
                <stem>up</stem>
                <lyric number="1">
                    <syllabic>single</syllabic>
                    <text>your</text>
                </lyric>
            </note>
        </measure>
        <measure width="218.65" number="4">
            <harmony relative-x="9.41" print-frame="no">
                <root>
                    <root-step>B</root-step>
                    <root-alter>-1</root-alter>
                </root>
                <kind text="dim7">diminished-seventh</kind>
            </harmony>
            <note default-y="-30.00" default-x="41.01">
                <pitch>
                    <step>G</step>
                    <octave>4</octave>
                </pitch>
                <duration>1</duration>
                <voice>1</voice>
                <type>quarter</type>
                <stem>up</stem>
                <lyric number="1">
                    <syllabic>single</syllabic>
                    <text>dreams</text>
                </lyric>
            </note>
            <note default-y="-35.00" default-x="89.91">
                <pitch>
                    <step>F</step>
                    <alter>1</alter>
                    <octave>4</octave>
                </pitch>
                <duration>1</duration>
                <voice>1</voice>
                <type>quarter</type>
                <stem>up</stem>
                <lyric number="1">
                    <syllabic>single</syllabic>
                    <text>at</text>
                </lyric>
            </note>
            <note default-y="-15.00" default-x="138.81">
                <pitch>
                    <step>C</step>
                    <alter>1</alter>
                    <octave>5</octave>
                </pitch>
                <duration>2</duration>
                <voice>1</voice>
                <type>half</type>
                <accidental>sharp</accidental>
                <stem>down</stem>
                <lyric number="1">
                    <syllabic>single</syllabic>
                    <text>night.</text>
                </lyric>
            </note>
        </measure>
        <measure width="145.20" number="5">
            <harmony relative-x="9.41" print-frame="no">
                <root>
                    <root-step>G</root-step>
                </root>
                <kind text="">major</kind>
                <bass>
                    <bass-step>B</bass-step>
                </bass>
            </harmony>
            <note default-y="-10.00" default-x="15.35">
                <pitch>
                    <step>D</step>
                    <octave>5</octave>
                </pitch>
                <duration>2</duration>
                <voice>1</voice>
                <type>half</type>
                <stem>down</stem>
                <lyric number="1">
                    <syllabic>single</syllabic>
                    <text>It</text>
                </lyric>
            </note>
            <note default-y="-10.00" default-x="79.47">
                <pitch>
                    <step>D</step>
                    <octave>5</octave>
                </pitch>
                <duration>2</duration>
                <voice>1</voice>
                <type>half</type>
                <stem>down</stem>
                <lyric number="1">
                    <syllabic>single</syllabic>
                    <text>could</text>
                </lyric>
            </note>
        </measure>
        <measure width="210.84" number="6">
            <print new-system="yes">
                <system-layout>
                    <system-margins>
                        <left-margin>47.28</left-margin>
                        <right-margin>0.00</right-margin>
                    </system-margins>
                    <system-distance>186.02</system-distance>
                </system-layout>
            </print>
            <harmony relative-x="9.41" print-frame="no">
                <root>
                    <root-step>C</root-step>
                </root>
                <kind text="7">dominant</kind>
            </harmony>
            <note default-y="-10.00" default-x="86.46">
                <pitch>
                    <step>D</step>
                    <octave>5</octave>
                </pitch>
                <duration>1</duration>
                <voice>1</voice>
                <type>quarter</type>
                <stem>down</stem>
                <lyric number="1">
                    <syllabic>begin</syllabic>
                    <text>hap</text>
                </lyric>
            </note>
            <note default-y="-15.00" default-x="124.94">
                <pitch>
                    <step>C</step>
                    <octave>5</octave>
                </pitch>
                <duration>2</duration>
                <voice>1</voice>
                <type>half</type>
                <stem>down</stem>
                <lyric number="1">
                    <syllabic>end</syllabic>
                    <text>pen</text>
                </lyric>
            </note>
            <note default-y="-30.00" default-x="176.82">
                <pitch>
                    <step>G</step>
                    <octave>4</octave>
                </pitch>
                <duration>1</duration>
                <voice>1</voice>
                <type>quarter</type>
                <stem>up</stem>
                <lyric number="1">
                    <syllabic>single</syllabic>
                    <text>to</text>
                </lyric>
            </note>
        </measure>
        <measure width="90.61" number="7">
            <harmony relative-x="9.41" print-frame="no">
                <root>
                    <root-step>B</root-step>
                </root>
                <kind text="7">dominant</kind>
            </harmony>
            <note default-y="-20.00" default-x="28.19">
                <pitch>
                    <step>B</step>
                    <octave>4</octave>
                </pitch>
                <duration>4</duration>
                <tie type="start"/>
                <voice>1</voice>
                <type>whole</type>
                <notations>
                    <tied type="start"/>
                </notations>
                <lyric number="1">
                    <syllabic>single</syllabic>
                    <text>you.</text>
                </lyric>
            </note>
        </measure>
        <measure width="91.72" number="8">
            <harmony print-frame="no">
                <root>
                    <root-step>B</root-step>
                </root>
                <kind text="m7">minor-seventh</kind>
            </harmony>
            <harmony relative-x="2300.00" print-frame="no">
                <root>
                    <root-step>E</root-step>
                </root>
                <kind text="7">dominant</kind>
            </harmony>
            <note default-y="-20.00" default-x="15.00">
                <pitch>
                    <step>B</step>
                    <octave>4</octave>
                </pitch>
                <duration>4</duration>
                <tie type="stop"/>
                <voice>1</voice>
                <type>whole</type>
                <notations>
                    <tied type="stop"/>
                </notations>
            </note>
        </measure>
        <measure width="156.33" number="9">
            <harmony relative-x="9.41" print-frame="no">
                <root>
                    <root-step>A</root-step>
                </root>
                <kind text="m7">minor-seventh</kind>
            </harmony>
            <note default-y="-20.00" default-x="33.04">
                <pitch>
                    <step>B</step>
                    <octave>4</octave>
                </pitch>
                <duration>2</duration>
                <voice>1</voice>
                <type>half</type>
                <stem>down</stem>
                <lyric number="1">
                    <syllabic>single</syllabic>
                    <text>Don't</text>
                </lyric>
            </note>
            <note default-y="-20.00" default-x="93.88">
                <pitch>
                    <step>B</step>
                    <octave>4</octave>
                </pitch>
                <duration>2</duration>
                <voice>1</voice>
                <type>half</type>
                <stem>down</stem>
                <lyric number="1">
                    <syllabic>single</syllabic>
                    <text>count</text>
                </lyric>
            </note>
        </measure>
        <measure width="218.32" number="10">
            <harmony relative-x="9.41" print-frame="no">
                <root>
                    <root-step>C</root-step>
                </root>
                <kind text="m">minor</kind>
            </harmony>
            <note default-y="-20.00" default-x="29.13">
                <pitch>
                    <step>B</step>
                    <octave>4</octave>
                </pitch>
                <duration>1</duration>
                <voice>1</voice>
                <type>quarter</type>
                <stem>down</stem>
                <lyric number="1">
                    <syllabic>single</syllabic>
                    <text>stars</text>
                </lyric>
            </note>
            <note default-y="-15.00" default-x="75.28">
                <pitch>
                    <step>C</step>
                    <octave>5</octave>
                </pitch>
                <duration>1</duration>
                <voice>1</voice>
                <type>quarter</type>
                <stem>down</stem>
                <lyric number="1">
                    <syllabic>single</syllabic>
                    <text>or</text>
                </lyric>
            </note>
            <note default-y="-30.00" default-x="121.43">
                <pitch>
                    <step>G</step>
                    <octave>4</octave>
                </pitch>
                <duration>1</duration>
                <voice>1</voice>
                <type>quarter</type>
                <stem>up</stem>
                <lyric number="1">
                    <syllabic>single</syllabic>
                    <text>you</text>
                </lyric>
            </note>
            <note default-y="-25.00" default-x="170.57">
                <pitch>
                    <step>A</step>
                    <octave>4</octave>
                </pitch>
                <duration>1</duration>
                <voice>1</voice>
                <type>quarter</type>
                <stem>up</stem>
                <lyric number="1">
                    <syllabic>single</syllabic>
                    <text>might</text>
                </lyric>
            </note>
        </measure>
        <measure width="134.11" number="11">
            <harmony relative-x="9.41" print-frame="no">
                <root>
                    <root-step>G</root-step>
                </root>
                <kind text="">major</kind>
            </harmony>
            <note default-y="-20.00" default-x="30.38">
                <pitch>
                    <step>B</step>
                    <octave>4</octave>
                </pitch>
                <duration>2</duration>
                <voice>1</voice>
                <type>half</type>
                <stem>down</stem>
                <lyric number="1">
                    <syllabic>begin</syllabic>
                    <text>stum</text>
                </lyric>
            </note>
            <note default-y="-20.00" default-x="81.45">
                <pitch>
                    <step>B</step>
                    <octave>4</octave>
                </pitch>
                <duration>2</duration>
                <tie type="start"/>
                <voice>1</voice>
                <type>half</type>
                <stem>down</stem>
                <notations>
                    <tied type="start"/>
                </notations>
                <lyric number="1">
                    <syllabic>single</syllabic>
                    <text>ble,</text>
                </lyric>
            </note>
        </measure>
        <measure width="127.88" number="12">
            <harmony print-frame="no">
                <root>
                    <root-step>F</root-step>
                    <root-alter>1</root-alter>
                </root>
                <kind text="m7b5">half-diminished</kind>
            </harmony>
            <harmony relative-x="3200.00" print-frame="no">
                <root>
                    <root-step>B</root-step>
                </root>
                <kind text="7">dominant</kind>
            </harmony>
            <note default-y="-20.00" default-x="15.00">
                <pitch>
                    <step>B</step>
                    <octave>4</octave>
                </pitch>
                <duration>4</duration>
                <tie type="stop"/>
                <voice>1</voice>
                <type>whole</type>
                <notations>
                    <tied type="stop"/>
                </notations>
            </note>
        </measure>
        <measure width="205.80" number="13">
            <print new-system="yes">
                <system-layout>
                    <system-margins>
                        <left-margin>47.28</left-margin>
                        <right-margin>-0.00</right-margin>
                    </system-margins>
                    <system-distance>186.02</system-distance>
                </system-layout>
            </print>
            <harmony relative-x="9.41" print-frame="no">
                <root>
                    <root-step>E</root-step>
                </root>
                <kind text="m">minor</kind>
            </harmony>
            <note default-y="-30.00" default-x="93.98">
                <pitch>
                    <step>G</step>
                    <octave>4</octave>
                </pitch>
                <duration>2</duration>
                <voice>1</voice>
                <type>half</type>
                <stem>up</stem>
                <lyric number="1">
                    <syllabic>begin</syllabic>
                    <text>some</text>
                </lyric>
            </note>
            <harmony print-frame="no">
                <root>
                    <root-step>C</root-step>
                </root>
                <kind text="7">dominant</kind>
                <bass>
                    <bass-step>E</bass-step>
                </bass>
            </harmony>
            <note default-y="-30.00" default-x="149.09">
                <pitch>
                    <step>G</step>
                    <octave>4</octave>
                </pitch>
                <duration>2</duration>
                <voice>1</voice>
                <type>half</type>
                <stem>up</stem>
                <lyric number="1">
                    <syllabic>end</syllabic>
                    <text>one</text>
                </lyric>
            </note>
        </measure>
        <measure width="213.28" number="14">
            <harmony relative-x="9.41" print-frame="no">
                <root>
                    <root-step>A</root-step>
                </root>
                <kind text="7">dominant</kind>
            </harmony>
            <note default-y="-30.00" default-x="33.52">
                <pitch>
                    <step>G</step>
                    <octave>4</octave>
                </pitch>
                <duration>1</duration>
                <voice>1</voice>
                <type>quarter</type>
                <stem>up</stem>
                <lyric number="1">
                    <syllabic>single</syllabic>
                    <text>drops</text>
                </lyric>
            </note>
            <note default-y="-25.00" default-x="78.06">
                <pitch>
                    <step>A</step>
                    <octave>4</octave>
                </pitch>
                <duration>1</duration>
                <voice>1</voice>
                <type>quarter</type>
                <stem>up</stem>
                <lyric number="1">
                    <syllabic>single</syllabic>
                    <text>a</text>
                </lyric>
            </note>
            <note default-y="-40.00" default-x="122.60">
                <pitch>
                    <step>E</step>
                    <octave>4</octave>
                </pitch>
                <duration>1</duration>
                <voice>1</voice>
                <type>quarter</type>
                <stem>up</stem>
                <lyric number="1">
                    <syllabic>single</syllabic>
                    <text>sigh</text>
                </lyric>
            </note>
            <note default-y="-35.00" default-x="167.14">
                <pitch>
                    <step>F</step>
                    <alter>1</alter>
                    <octave>4</octave>
                </pitch>
                <duration>1</duration>
                <voice>1</voice>
                <type>quarter</type>
                <stem>up</stem>
                <lyric number="1">
                    <syllabic>single</syllabic>
                    <text>and</text>
                </lyric>
            </note>
        </measure>
        <measure width="147.85" number="15">
            <harmony relative-x="9.41" print-frame="no">
                <root>
                    <root-step>A</root-step>
                </root>
                <kind text="m7">minor-seventh</kind>
            </harmony>
            <note default-y="-30.00" default-x="33.51">
                <pitch>
                    <step>G</step>
                    <octave>4</octave>
                </pitch>
                <duration>2</duration>
                <voice>1</voice>
                <type>half</type>
                <stem>up</stem>
                <lyric number="1">
                    <syllabic>single</syllabic>
                    <text>down</text>
                </lyric>
            </note>
            <note default-y="-25.00" default-x="89.88">
                <pitch>
                    <step>A</step>
                    <octave>4</octave>
                </pitch>
                <duration>2</duration>
                <voice>1</voice>
                <type>half</type>
                <stem>up</stem>
                <lyric number="1">
                    <syllabic>single</syllabic>
                    <text>you</text>
                </lyric>
            </note>
        </measure>
        <measure width="132.18" number="16">
            <harmony print-frame="no">
                <root>
                    <root-step>A</root-step>
                </root>
                <kind text="m6">minor-sixth</kind>
            </harmony>
            <note default-y="-40.00" default-x="26.00">
                <pitch>
                    <step>E</step>
                    <octave>4</octave>
                </pitch>
                <duration>2</duration>
                <voice>1</voice>
                <type>half</type>
                <stem>up</stem>
                <lyric number="1">
                    <syllabic>begin</syllabic>
                    <text>tum</text>
                </lyric>
            </note>
            <harmony print-frame="no">
                <root>
                    <root-step>A</root-step>
                    <root-alter>-1</root-alter>
                </root>
                <kind text="9">dominant-ninth</kind>
            </harmony>
            <note default-y="-35.00" default-x="78.29">
                <pitch>
                    <step>F</step>
                    <alter>1</alter>
                    <octave>4</octave>
                </pitch>
                <duration>2</duration>
                <voice>1</voice>
                <type>half</type>
                <stem>up</stem>
                <lyric number="1">
                    <syllabic>single</syllabic>
                    <text>ble.</text>
                </lyric>
            </note>
        </measure>
        <measure width="144.05" number="17">
            <harmony relative-x="9.41" print-frame="no">
                <root>
                    <root-step>G</root-step>
                </root>
                <kind text="">major</kind>
            </harmony>
            <note default-y="-45.00" default-x="32.24">
                <pitch>
                    <step>D</step>
                    <octave>4</octave>
                </pitch>
                <duration>3</duration>
                <voice>1</voice>
                <type>half</type>
                <dot/>
                <stem>up</stem>
                <lyric number="1">
                    <syllabic>single</syllabic>
                    <text>Keep</text>
                </lyric>
            </note>
            <note default-y="-40.00" default-x="105.10">
                <pitch>
                    <step>E</step>
                    <octave>4</octave>
                </pitch>
                <duration>1</duration>
                <voice>1</voice>
                <type>quarter</type>
                <stem>up</stem>
                <lyric number="1">
                    <syllabic>single</syllabic>
                    <text>and</text>
                </lyric>
            </note>
        </measure>
        <measure width="186.66" number="18">
            <harmony print-frame="no">
                <root>
                    <root-step>G</root-step>
                    <root-alter>1</root-alter>
                </root>
                <kind text="dim7">diminished-seventh</kind>
            </harmony>
            <note default-y="-35.00" default-x="24.11">
                <pitch>
                    <step>F</step>
                    <octave>4</octave>
                </pitch>
                <duration>1</duration>
                <voice>1</voice>
                <type>quarter</type>
                <accidental>natural</accidental>
                <stem>up</stem>
                <lyric number="1">
                    <syllabic>single</syllabic>
                    <text>eye</text>
                </lyric>
            </note>
            <note default-y="-40.00" default-x="67.10">
                <pitch>
                    <step>E</step>
                    <octave>4</octave>
                </pitch>
                <duration>1</duration>
                <voice>1</voice>
                <type>quarter</type>
                <stem>up</stem>
                <lyric number="1">
                    <syllabic>single</syllabic>
                    <text>on</text>
                </lyric>
            </note>
            <note default-y="-20.00" default-x="116.27">
                <pitch>
                    <step>B</step>
                    <octave>4</octave>
                </pitch>
                <duration>2</duration>
                <voice>1</voice>
                <type>half</type>
                <stem>down</stem>
                <lyric number="1">
                    <syllabic>single</syllabic>
                    <text>spring,</text>
                </lyric>
            </note>
        </measure>
        <measure width="209.00" number="19">
            <print new-system="yes">
                <system-layout>
                    <system-margins>
                        <left-margin>47.28</left-margin>
                        <right-margin>-0.00</right-margin>
                    </system-margins>
                    <system-distance>186.02</system-distance>
                </system-layout>
            </print>
            <harmony relative-x="9.41" print-frame="no">
                <root>
                    <root-step>A</root-step>
                </root>
                <kind text="m7">minor-seventh</kind>
            </harmony>
            <note default-y="-40.00" default-x="85.21">
                <pitch>
                    <step>E</step>
                    <octave>4</octave>
                </pitch>
                <duration>3</duration>
                <voice>1</voice>
                <type>half</type>
                <dot/>
                <stem>up</stem>
                <lyric number="1">
                    <syllabic>single</syllabic>
                    <text>run</text>
                </lyric>
            </note>
            <note default-y="-35.00" default-x="166.00">
                <pitch>
                    <step>F</step>
                    <alter>1</alter>
                    <octave>4</octave>
                </pitch>
                <duration>1</duration>
                <voice>1</voice>
                <type>quarter</type>
                <stem>up</stem>
                <lyric number="1">
                    <syllabic>single</syllabic>
                    <text>when</text>
                </lyric>
            </note>
        </measure>
        <measure width="220.21" number="20">
            <harmony print-frame="no">
                <root>
                    <root-step>B</root-step>
                    <root-alter>-1</root-alter>
                </root>
                <kind text="dim7">diminished-seventh</kind>
            </harmony>
            <note default-y="-30.00" default-x="39.13">
                <pitch>
                    <step>G</step>
                    <octave>4</octave>
                </pitch>
                <duration>1</duration>
                <voice>1</voice>
                <type>quarter</type>
                <stem>up</stem>
                <lyric number="1">
                    <syllabic>single</syllabic>
                    <text>church</text>
                </lyric>
            </note>
            <note default-y="-35.00" default-x="97.03">
                <pitch>
                    <step>F</step>
                    <alter>1</alter>
                    <octave>4</octave>
                </pitch>
                <duration>1</duration>
                <voice>1</voice>
                <type>quarter</type>
                <stem>up</stem>
                <lyric number="1">
                    <syllabic>single</syllabic>
                    <text>bells</text>
                </lyric>
            </note>
            <note default-y="-15.00" default-x="145.22">
                <pitch>
                    <step>C</step>
                    <alter>1</alter>
                    <octave>5</octave>
                </pitch>
                <duration>2</duration>
                <voice>1</voice>
                <type>half</type>
                <accidental>sharp</accidental>
                <stem>down</stem>
                <lyric number="1">
                    <syllabic>single</syllabic>
                    <text>ring.</text>
                </lyric>
            </note>
        </measure>
        <measure width="138.34" number="21">
            <harmony relative-x="9.41" print-frame="no">
                <root>
                    <root-step>G</root-step>
                </root>
                <kind text="">major</kind>
                <bass>
                    <bass-step>B</bass-step>
                </bass>
            </harmony>
            <note default-y="-10.00" default-x="15.35">
                <pitch>
                    <step>D</step>
                    <octave>5</octave>
                </pitch>
                <duration>2</duration>
                <voice>1</voice>
                <type>half</type>
                <stem>down</stem>
                <lyric number="1">
                    <syllabic>single</syllabic>
                    <text>It</text>
                </lyric>
            </note>
            <note default-y="-10.00" default-x="76.04">
                <pitch>
                    <step>D</step>
                    <octave>5</octave>
                </pitch>
                <duration>2</duration>
                <voice>1</voice>
                <type>half</type>
                <stem>down</stem>
                <lyric number="1">
                    <syllabic>single</syllabic>
                    <text>could</text>
                </lyric>
            </note>
        </measure>
        <measure width="160.44" number="22">
            <harmony relative-x="9.41" print-frame="no">
                <root>
                    <root-step>C</root-step>
                </root>
                <kind text="7">dominant</kind>
            </harmony>
            <note default-y="-10.00" default-x="24.74">
                <pitch>
                    <step>D</step>
                    <octave>5</octave>
                </pitch>
                <duration>1</duration>
                <voice>1</voice>
                <type>quarter</type>
                <stem>down</stem>
                <lyric number="1">
                    <syllabic>begin</syllabic>
                    <text>hap</text>
                </lyric>
            </note>
            <note default-y="-15.00" default-x="63.22">
                <pitch>
                    <step>C</step>
                    <octave>5</octave>
                </pitch>
                <duration>2</duration>
                <voice>1</voice>
                <type>half</type>
                <stem>down</stem>
                <lyric number="1">
                    <syllabic>end</syllabic>
                    <text>pen</text>
                </lyric>
            </note>
            <note default-y="-30.00" default-x="122.06">
                <pitch>
                    <step>G</step>
                    <octave>4</octave>
                </pitch>
                <duration>1</duration>
                <voice>1</voice>
                <type>quarter</type>
                <stem>up</stem>
                <lyric number="1">
                    <syllabic>single</syllabic>
                    <text>to</text>
                </lyric>
            </note>
        </measure>
        <measure width="101.93" number="23">
            <harmony relative-x="9.41" print-frame="no">
                <root>
                    <root-step>B</root-step>
                </root>
                <kind text="7">dominant</kind>
            </harmony>
            <note default-y="-20.00" default-x="28.19">
                <pitch>
                    <step>B</step>
                    <octave>4</octave>
                </pitch>
                <duration>4</duration>
                <tie type="start"/>
                <voice>1</voice>
                <type>whole</type>
                <notations>
                    <tied type="start"/>
                </notations>
                <lyric number="1">
                    <syllabic>single</syllabic>
                    <text>you.</text>
                </lyric>
            </note>
        </measure>
        <measure width="199.89" number="24">
            <harmony print-frame="no">
                <root>
                    <root-step>B</root-step>
                </root>
                <kind text="m7">minor-seventh</kind>
            </harmony>
            <harmony relative-x="1900.00" print-frame="no">
                <root>
                    <root-step>E</root-step>
                </root>
                <kind text="7">dominant</kind>
            </harmony>
            <note default-y="-20.00" default-x="15.00">
                <pitch>
                    <step>B</step>
                    <octave>4</octave>
                </pitch>
                <duration>4</duration>
                <tie type="stop"/>
                <voice>1</voice>
                <type>whole</type>
                <notations>
                    <tied type="stop"/>
                </notations>
            </note>
        </measure>
        <measure width="193.07" number="25">
            <print new-system="yes">
                <system-layout>
                    <system-margins>
                        <left-margin>47.28</left-margin>
                        <right-margin>-0.00</right-margin>
                    </system-margins>
                    <system-distance>186.02</system-distance>
                </system-layout>
            </print>
            <harmony relative-x="9.41" print-frame="no">
                <root>
                    <root-step>A</root-step>
                </root>
                <kind text="m7">minor-seventh</kind>
            </harmony>
            <note default-y="-20.00" default-x="84.58">
                <pitch>
                    <step>B</step>
                    <octave>4</octave>
                </pitch>
                <duration>2</duration>
                <voice>1</voice>
                <type>half</type>
                <stem>down</stem>
                <lyric number="1">
                    <syllabic>single</syllabic>
                    <text>All</text>
                </lyric>
            </note>
            <note default-y="-20.00" default-x="138.03">
                <pitch>
                    <step>B</step>
                    <octave>4</octave>
                </pitch>
                <duration>2</duration>
                <voice>1</voice>
                <type>half</type>
                <stem>down</stem>
                <lyric number="1">
                    <syllabic>single</syllabic>
                    <text>I</text>
                </lyric>
            </note>
        </measure>
        <measure width="229.16" number="26">
            <harmony relative-x="9.41" print-frame="no">
                <root>
                    <root-step>C</root-step>
                </root>
                <kind text="m">minor</kind>
            </harmony>
            <note default-y="-20.00" default-x="22.87">
                <pitch>
                    <step>B</step>
                    <octave>4</octave>
                </pitch>
                <duration>1</duration>
                <voice>1</voice>
                <type>quarter</type>
                <stem>down</stem>
                <lyric number="1">
                    <syllabic>single</syllabic>
                    <text>did</text>
                </lyric>
            </note>
            <note default-y="-15.00" default-x="74.04">
                <pitch>
                    <step>C</step>
                    <octave>5</octave>
                </pitch>
                <duration>1</duration>
                <voice>1</voice>
                <type>quarter</type>
                <stem>down</stem>
                <lyric number="1">
                    <syllabic>single</syllabic>
                    <text>was</text>
                </lyric>
            </note>
            <note default-y="-30.00" default-x="125.22">
                <pitch>
                    <step>G</step>
                    <octave>4</octave>
                </pitch>
                <duration>1</duration>
                <voice>1</voice>
                <type>quarter</type>
                <stem>up</stem>
                <lyric number="1">
                    <syllabic>begin</syllabic>
                    <text>won</text>
                </lyric>
            </note>
            <note default-y="-25.00" default-x="176.39">
                <pitch>
                    <step>A</step>
                    <octave>4</octave>
                </pitch>
                <duration>1</duration>
                <voice>1</voice>
                <type>quarter</type>
                <stem>up</stem>
                <lyric number="1">
                    <syllabic>end</syllabic>
                    <text>der</text>
                </lyric>
            </note>
        </measure>
        <measure width="278.02" number="27">
            <harmony relative-x="9.41" print-frame="no">
                <root>
                    <root-step>G</root-step>
                </root>
                <kind text="">major</kind>
                <bass>
                    <bass-step>D</bass-step>
                </bass>
            </harmony>
            <note default-y="-20.00" default-x="27.87">
                <pitch>
                    <step>B</step>
                    <octave>4</octave>
                </pitch>
                <duration>1</duration>
                <voice>1</voice>
                <type>quarter</type>
                <stem>down</stem>
                <lyric number="1">
                    <syllabic>single</syllabic>
                    <text>how</text>
                </lyric>
            </note>
            <note default-y="-35.00" default-x="90.01">
                <pitch>
                    <step>F</step>
                    <alter>1</alter>
                    <octave>4</octave>
                </pitch>
                <duration>1</duration>
                <voice>1</voice>
                <type>quarter</type>
                <stem>up</stem>
                <lyric number="1">
                    <syllabic>single</syllabic>
                    <text>your</text>
                </lyric>
            </note>
            <harmony print-frame="no">
                <root>
                    <root-step>C</root-step>
                </root>
                <kind text="7">dominant</kind>
            </harmony>
            <note default-y="-25.00" default-x="152.15">
                <pitch>
                    <step>A</step>
                    <octave>4</octave>
                </pitch>
                <duration>1</duration>
                <voice>1</voice>
                <type>quarter</type>
                <stem>up</stem>
                <lyric number="1">
                    <syllabic>single</syllabic>
                    <text>arms</text>
                </lyric>
            </note>
            <note default-y="-30.00" default-x="214.28">
                <pitch>
                    <step>G</step>
                    <octave>4</octave>
                </pitch>
                <duration>1</duration>
                <voice>1</voice>
                <type>quarter</type>
                <stem>up</stem>
                <lyric number="1">
                    <syllabic>single</syllabic>
                    <text>would</text>
                </lyric>
            </note>
        </measure>
        <measure width="191.96" number="28">
            <harmony print-frame="no">
                <root>
                    <root-step>B</root-step>
                </root>
                <kind text="m7b5">half-diminished</kind>
            </harmony>
            <harmony relative-x="2475.00" print-frame="no">
                <root>
                    <root-step>E</root-step>
                </root>
                <kind text="7">dominant</kind>
            </harmony>
            <note default-y="-10.00" default-x="19.10">
                <pitch>
                    <step>D</step>
                    <octave>5</octave>
                </pitch>
                <duration>4</duration>
                <voice>1</voice>
                <type>whole</type>
                <lyric number="1">
                    <syllabic>single</syllabic>
                    <text>be</text>
                </lyric>
            </note>
        </measure>
        <measure width="137.61" number="29">
            <harmony print-frame="no">
                <root>
                    <root-step>A</root-step>
                </root>
                <kind text="m7">minor-seventh</kind>
            </harmony>
            <note default-y="-45.00" default-x="24.74">
                <pitch>
                    <step>D</step>
                    <octave>4</octave>
                </pitch>
                <duration>2</duration>
                <voice>1</voice>
                <type>half</type>
                <stem>up</stem>
                <lyric number="1">
                    <syllabic>single</syllabic>
                    <text>and</text>
                </lyric>
            </note>
            <note default-y="-45.00" default-x="80.38">
                <pitch>
                    <step>D</step>
                    <octave>4</octave>
                </pitch>
                <duration>2</duration>
                <voice>1</voice>
                <type>half</type>
                <stem>up</stem>
                <lyric number="1">
                    <syllabic>single</syllabic>
                    <text>it</text>
                </lyric>
            </note>
        </measure>
        <measure width="316.36" number="30">
            <print new-system="yes">
                <system-layout>
                    <system-margins>
                        <left-margin>47.28</left-margin>
                        <right-margin>-0.00</right-margin>
                    </system-margins>
                    <system-distance>186.02</system-distance>
                </system-layout>
            </print>
            <harmony relative-x="9.41" print-frame="no">
                <root>
                    <root-step>D</root-step>
                </root>
                <kind text="7">dominant</kind>
            </harmony>
            <note default-y="-15.00" default-x="86.46">
                <pitch>
                    <step>C</step>
                    <octave>5</octave>
                </pitch>
                <duration>1</duration>
                <voice>1</voice>
                <type>quarter</type>
                <stem>down</stem>
                <lyric number="1">
                    <syllabic>begin</syllabic>
                    <text>hap</text>
                </lyric>
            </note>
            <note default-y="-25.00" default-x="149.88">
                <pitch>
                    <step>A</step>
                    <octave>4</octave>
                </pitch>
                <duration>2</duration>
                <voice>1</voice>
                <type>half</type>
                <stem>up</stem>
                <lyric number="1">
                    <syllabic>end</syllabic>
                    <text>pened</text>
                </lyric>
            </note>
            <harmony print-frame="no">
                <root>
                    <root-step>D</root-step>
                </root>
                <kind text="7b9">dominant</kind>
                <degree>
                    <degree-value>9</degree-value>
                    <degree-alter>-1</degree-alter>
                    <degree-type>add</degree-type>
                </degree>
            </harmony>
            <note default-y="-20.00" default-x="251.35">
                <pitch>
                    <step>B</step>
                    <octave>4</octave>
                </pitch>
                <duration>1</duration>
                <voice>1</voice>
                <type>quarter</type>
                <stem>down</stem>
                <lyric number="1">
                    <syllabic>single</syllabic>
                    <text>to</text>
                </lyric>
            </note>
        </measure>
        <measure width="179.56" number="31">
            <barline location="left">
                <ending type="start" number="1"></ending>
            </barline>
            <harmony print-frame="no">
                <root>
                    <root-step>G</root-step>
                </root>
                <kind text="">major</kind>
            </harmony>
            <harmony relative-x="3125.00" print-frame="no">
                <root>
                    <root-step>E</root-step>
                </root>
                <kind text="m">minor</kind>
            </harmony>
            <note default-y="-30.00" default-x="22.23">
                <pitch>
                    <step>G</step>
                    <octave>4</octave>
                </pitch>
                <duration>4</duration>
                <tie type="start"/>
                <voice>1</voice>
                <type>whole</type>
                <notations>
                    <tied type="start"/>
                </notations>
                <lyric number="1">
                    <syllabic>single</syllabic>
                    <text>me</text>
                </lyric>
            </note>
            <barline location="right">
                <ending type="stop" number="1"></ending>
            </barline>
        </measure>
        <measure width="206.12" number="32">
            <harmony print-frame="no">
                <root>
                    <root-step>A</root-step>
                </root>
                <kind text="m7">minor-seventh</kind>
            </harmony>
            <note default-y="-30.00" default-x="15.00">
                <pitch>
                    <step>G</step>
                    <octave>4</octave>
                </pitch>
                <duration>3</duration>
                <tie type="stop"/>
                <voice>1</voice>
                <type>half</type>
                <dot/>
                <stem>up</stem>
                <notations>
                    <tied type="stop"/>
                </notations>
            </note>
            <harmony print-frame="no">
                <root>
                    <root-step>D</root-step>
                </root>
                <kind text="7">dominant</kind>
            </harmony>
            <note>
                <rest/>
                <duration>1</duration>
                <voice>1</voice>
                <type>quarter</type>
            </note>
            <barline location="right">
                <bar-style>light-heavy</bar-style>
                <repeat direction="backward"/>
            </barline>
        </measure>
        <measure width="160.89" number="33">
            <barline location="left">
                <ending type="start" number="2"></ending>
            </barline>
            <harmony print-frame="no">
                <root>
                    <root-step>G</root-step>
                </root>
                <kind text="">major</kind>
            </harmony>
            <harmony relative-x="1550.00" print-frame="no">
                <root>
                    <root-step>C</root-step>
                </root>
                <kind text="6">major-sixth</kind>
            </harmony>
            <harmony relative-x="3650.00" print-frame="no">
                <root>
                    <root-step>C</root-step>
                </root>
                <kind text="9">dominant-ninth</kind>
            </harmony>
            <note default-y="-30.00" default-x="15.00">
                <pitch>
                    <step>G</step>
                    <octave>4</octave>
                </pitch>
                <duration>4</duration>
                <tie type="start"/>
                <voice>1</voice>
                <type>whole</type>
                <notations>
                    <tied type="start"/>
                </notations>
            </note>
            <barline location="right">
                <ending type="stop" number="2"></ending>
            </barline>
        </measure>
        <measure width="166.89" number="34">
            <harmony print-frame="no">
                <root>
                    <root-step>G</root-step>
                </root>
                <kind text="">major</kind>
            </harmony>
            <note default-y="-30.00" default-x="15.00">
                <pitch>
                    <step>G</step>
                    <octave>4</octave>
                </pitch>
                <duration>4</duration>
                <tie type="stop"/>
                <voice>1</voice>
                <type>whole</type>
                <notations>
                    <tied type="stop"/>
                </notations>
            </note>
            <barline location="right">
                <bar-style>light-heavy</bar-style>
            </barline>
        </measure>
    </part>
</score-partwise>
