<?xml version="1.0" encoding="UTF-8"?>
<!DOCTYPE score-partwise PUBLIC "-//Recordare//DTD MusicXML 2.0 Partwise//EN" "http://www.musicxml.org/dtds/partwise.dtd">
<score-partwise version="2.0">
    <work>
        <work-number></work-number>
        <work-title></work-title>
    </work>
    <movement-number></movement-number>
    <movement-title>Full Moon And Empty Arms</movement-title>
    <identification>
        <creator type="composer">Buddy Kaye, Ted Mossman</creator>
        <creator type="poet"></creator>
        <rights>All Rights Reserved</rights>
        <encoding>
            <software>MuseScore 0.9.5</software>
            <encoding-date>2010-01-30</encoding-date>
            <software>ProxyMusic 2.0 c</software>
        </encoding>
        <source>http://wikifonia.org/node/4392/revisions/5908/view</source>
    </identification>
    <defaults>
        <scaling>
            <millimeters>7.056</millimeters>
            <tenths>40</tenths>
        </scaling>
        <page-layout>
            <page-height>1683.67</page-height>
            <page-width>1190.48</page-width>
            <page-margins type="both">
                <left-margin>56.6893</left-margin>
                <right-margin>56.6893</right-margin>
                <top-margin>56.6893</top-margin>
                <bottom-margin>113.379</bottom-margin>
            </page-margins>
        </page-layout>
    </defaults>
    <credit page="1">
        <credit-words font-size="24" default-y="1626.98" default-x="595.238" justify="center" valign="top">Full Moon And Empty Arms</credit-words>
    </credit>
    <part-list>
        <score-part id="P1">
            <part-name>Voice</part-name>
            <score-instrument id="P1-I3">
                <instrument-name>Voice</instrument-name>
            </score-instrument>
            <midi-instrument id="P1-I3">
                <midi-channel>1</midi-channel>
                <midi-program>53</midi-program>
            </midi-instrument>
        </score-part>
    </part-list>
    <part id="P1">
        <measure width="252.01" number="1">
            <print>
                <system-layout>
                    <system-margins>
                        <left-margin>69.92</left-margin>
                        <right-margin>0.00</right-margin>
                    </system-margins>
                    <top-system-distance>260.82</top-system-distance>
                </system-layout>
            </print>
            <attributes>
                <divisions>1</divisions>
                <key>
                    <fifths>0</fifths>
                    <mode>major</mode>
                </key>
                <time>
                    <beats>4</beats>
                    <beat-type>4</beat-type>
                </time>
                <clef>
                    <sign>G</sign>
                    <line>2</line>
                </clef>
            </attributes>
            <harmony print-frame="no">
                <root>
                    <root-step>C</root-step>
                </root>
                <kind text="">major</kind>
            </harmony>
            <note>
                <rest/>
                <duration>1</duration>
                <voice>1</voice>
                <type>quarter</type>
            </note>
            <note default-y="-30.00" default-x="122.87">
                <pitch>
                    <step>G</step>
                    <octave>4</octave>
                </pitch>
                <duration>1</duration>
                <voice>1</voice>
                <type>quarter</type>
                <stem>up</stem>
                <lyric number="1">
                    <syllabic>single</syllabic>
                    <text>Full</text>
                </lyric>
            </note>
            <note default-y="-15.00" default-x="172.63">
                <pitch>
                    <step>C</step>
                    <octave>5</octave>
                </pitch>
                <duration>2</duration>
                <tie type="start"/>
                <voice>1</voice>
                <type>half</type>
                <stem>down</stem>
                <notations>
                    <tied type="start"/>
                </notations>
                <lyric number="1">
                    <syllabic>single</syllabic>
                    <text>moon</text>
                </lyric>
            </note>
        </measure>
        <measure width="205.76" number="2">
            <harmony print-frame="no">
                <root>
                    <root-step>G</root-step>
                </root>
                <kind text="m7b5">half-diminished</kind>
            </harmony>
            <note default-y="-15.00" default-x="15.00">
                <pitch>
                    <step>C</step>
                    <octave>5</octave>
                </pitch>
                <duration>1</duration>
                <tie type="stop"/>
                <voice>1</voice>
                <type>quarter</type>
                <stem>down</stem>
                <notations>
                    <tied type="stop"/>
                </notations>
            </note>
            <note default-y="-20.00" default-x="62.29">
                <pitch>
                    <step>B</step>
                    <alter>-1</alter>
                    <octave>4</octave>
                </pitch>
                <duration>1</duration>
                <voice>1</voice>
                <type>quarter</type>
                <accidental>flat</accidental>
                <stem>down</stem>
                <lyric number="1">
                    <syllabic>single</syllabic>
                    <text>and</text>
                </lyric>
            </note>
            <note default-y="-30.00" default-x="109.58">
                <pitch>
                    <step>G</step>
                    <octave>4</octave>
                </pitch>
                <duration>1</duration>
                <voice>1</voice>
                <type>quarter</type>
                <stem>up</stem>
                <lyric number="1">
                    <syllabic>begin</syllabic>
                    <text>emp</text>
                </lyric>
            </note>
            <note default-y="-35.00" default-x="156.87">
                <pitch>
                    <step>F</step>
                    <octave>4</octave>
                </pitch>
                <duration>1</duration>
                <voice>1</voice>
                <type>quarter</type>
                <stem>up</stem>
                <lyric number="1">
                    <syllabic>end</syllabic>
                    <text>ty</text>
                </lyric>
            </note>
        </measure>
        <measure width="120.66" number="3">
            <harmony print-frame="no">
                <root>
                    <root-step>C</root-step>
                </root>
                <kind text="">major</kind>
            </harmony>
            <harmony relative-x="1400.00" print-frame="no">
                <root>
                    <root-step>G</root-step>
                </root>
                <kind text="7">dominant</kind>
            </harmony>
            <note default-y="-30.00" default-x="30.37">
                <pitch>
                    <step>G</step>
                    <octave>4</octave>
                </pitch>
                <duration>4</duration>
                <tie type="start"/>
                <voice>1</voice>
                <type>whole</type>
                <notations>
                    <tied type="start"/>
                </notations>
                <lyric number="1">
                    <syllabic>single</syllabic>
                    <text>arms</text>
                </lyric>
            </note>
        </measure>
        <measure width="219.54" number="4">
            <harmony print-frame="no">
                <root>
                    <root-step>C</root-step>
                </root>
                <kind text="">major</kind>
            </harmony>
            <note default-y="-30.00" default-x="15.00">
                <pitch>
                    <step>G</step>
                    <octave>4</octave>
                </pitch>
                <duration>1</duration>
                <tie type="stop"/>
                <voice>1</voice>
                <type>quarter</type>
                <stem>up</stem>
                <notations>
                    <tied type="stop"/>
                </notations>
            </note>
            <note default-y="-40.00" default-x="65.73">
                <pitch>
                    <step>E</step>
                    <octave>4</octave>
                </pitch>
                <duration>1</duration>
                <voice>1</voice>
                <type>quarter</type>
                <stem>up</stem>
                <lyric number="1">
                    <syllabic>single</syllabic>
                    <text>The</text>
                </lyric>
            </note>
            <note default-y="-35.00" default-x="116.47">
                <pitch>
                    <step>F</step>
                    <octave>4</octave>
                </pitch>
                <duration>1</duration>
                <voice>1</voice>
                <type>quarter</type>
                <stem>up</stem>
                <lyric number="1">
                    <syllabic>single</syllabic>
                    <text>moon</text>
                </lyric>
            </note>
            <harmony print-frame="no">
                <root>
                    <root-step>C</root-step>
                </root>
                <kind text="">major</kind>
            </harmony>
            <note default-y="-40.00" default-x="167.20">
                <pitch>
                    <step>E</step>
                    <octave>4</octave>
                </pitch>
                <duration>1</duration>
                <voice>1</voice>
                <type>quarter</type>
                <stem>up</stem>
                <lyric number="1">
                    <syllabic>single</syllabic>
                    <text>is</text>
                </lyric>
            </note>
        </measure>
        <measure width="209.22" number="5">
            <harmony print-frame="no">
                <root>
                    <root-step>A</root-step>
                    <root-alter>-1</root-alter>
                </root>
                <kind text="">major</kind>
            </harmony>
            <note default-y="-25.00" default-x="30.99">
                <pitch>
                    <step>A</step>
                    <alter>-1</alter>
                    <octave>4</octave>
                </pitch>
                <duration>1</duration>
                <voice>1</voice>
                <type>quarter</type>
                <accidental>flat</accidental>
                <stem>up</stem>
                <lyric number="1">
                    <syllabic>single</syllabic>
                    <text>there</text>
                </lyric>
            </note>
            <note default-y="-30.00" default-x="75.15">
                <pitch>
                    <step>G</step>
                    <octave>4</octave>
                </pitch>
                <duration>1</duration>
                <voice>1</voice>
                <type>quarter</type>
                <stem>up</stem>
                <lyric number="1">
                    <syllabic>single</syllabic>
                    <text>for</text>
                </lyric>
            </note>
            <harmony print-frame="no">
                <root>
                    <root-step>C</root-step>
                </root>
                <kind text="">major</kind>
            </harmony>
            <note default-y="-35.00" default-x="119.31">
                <pitch>
                    <step>F</step>
                    <octave>4</octave>
                </pitch>
                <duration>1</duration>
                <voice>1</voice>
                <type>quarter</type>
                <stem>up</stem>
                <lyric number="1">
                    <syllabic>single</syllabic>
                    <text>us</text>
                </lyric>
            </note>
            <note default-y="-40.00" default-x="163.47">
                <pitch>
                    <step>E</step>
                    <octave>4</octave>
                </pitch>
                <duration>1</duration>
                <voice>1</voice>
                <type>quarter</type>
                <stem>up</stem>
                <lyric number="1">
                    <syllabic>single</syllabic>
                    <text>to</text>
                </lyric>
            </note>
        </measure>
        <measure width="275.22" number="6">
            <print new-system="yes">
                <system-layout>
                    <system-margins>
                        <left-margin>47.28</left-margin>
                        <right-margin>0.00</right-margin>
                    </system-margins>
                    <system-distance>186.02</system-distance>
                </system-layout>
            </print>
            <harmony print-frame="no">
                <root>
                    <root-step>D</root-step>
                </root>
                <kind text="m7">minor-seventh</kind>
            </harmony>
            <note default-y="-30.00" default-x="77.93">
                <pitch>
                    <step>G</step>
                    <octave>4</octave>
                </pitch>
                <duration>1</duration>
                <voice>1</voice>
                <type>quarter</type>
                <stem>up</stem>
                <lyric number="1">
                    <syllabic>single</syllabic>
                    <text>share</text>
                </lyric>
            </note>
            <note default-y="-35.00" default-x="126.85">
                <pitch>
                    <step>F</step>
                    <octave>4</octave>
                </pitch>
                <duration>1</duration>
                <voice>1</voice>
                <type>quarter</type>
                <stem>up</stem>
                <lyric number="1">
                    <syllabic>single</syllabic>
                    <text>but</text>
                </lyric>
            </note>
            <harmony print-frame="no">
                <root>
                    <root-step>G</root-step>
                </root>
                <kind text="7">dominant</kind>
            </harmony>
            <note default-y="-40.00" default-x="175.77">
                <pitch>
                    <step>E</step>
                    <octave>4</octave>
                </pitch>
                <duration>1</duration>
                <voice>1</voice>
                <type>quarter</type>
                <stem>up</stem>
                <lyric number="1">
                    <syllabic>single</syllabic>
                    <text>where</text>
                </lyric>
            </note>
            <note default-y="-45.00" default-x="224.70">
                <pitch>
                    <step>D</step>
                    <octave>4</octave>
                </pitch>
                <duration>1</duration>
                <voice>1</voice>
                <type>quarter</type>
                <stem>up</stem>
                <lyric number="1">
                    <syllabic>single</syllabic>
                    <text>are</text>
                </lyric>
            </note>
        </measure>
        <measure width="112.51" number="7">
            <harmony print-frame="no">
                <root>
                    <root-step>C</root-step>
                </root>
                <kind text="">major</kind>
            </harmony>
            <harmony relative-x="1300.00" print-frame="no">
                <root>
                    <root-step>G</root-step>
                </root>
                <kind text="7">dominant</kind>
            </harmony>
            <note default-y="-30.00" default-x="30.38">
                <pitch>
                    <step>G</step>
                    <octave>4</octave>
                </pitch>
                <duration>4</duration>
                <tie type="start"/>
                <voice>1</voice>
                <type>whole</type>
                <notations>
                    <tied type="start"/>
                </notations>
                <lyric number="1">
                    <syllabic>single</syllabic>
                    <text>you?</text>
                </lyric>
            </note>
        </measure>
        <measure width="189.88" number="8">
            <harmony print-frame="no">
                <root>
                    <root-step>C</root-step>
                </root>
                <kind text="">major</kind>
            </harmony>
            <note default-y="-30.00" default-x="15.00">
                <pitch>
                    <step>G</step>
                    <octave>4</octave>
                </pitch>
                <duration>1</duration>
                <tie type="stop"/>
                <voice>1</voice>
                <type>quarter</type>
                <stem>up</stem>
                <notations>
                    <tied type="stop"/>
                </notations>
            </note>
            <note default-y="-50.00" default-x="57.42">
                <pitch>
                    <step>C</step>
                    <octave>4</octave>
                </pitch>
                <duration>1</duration>
                <voice>1</voice>
                <type>quarter</type>
                <stem>up</stem>
                <lyric number="1">
                    <syllabic>single</syllabic>
                    <text>A</text>
                </lyric>
            </note>
            <note default-y="-45.00" default-x="99.85">
                <pitch>
                    <step>D</step>
                    <octave>4</octave>
                </pitch>
                <duration>1</duration>
                <voice>1</voice>
                <type>quarter</type>
                <stem>up</stem>
                <lyric number="1">
                    <syllabic>single</syllabic>
                    <text>night</text>
                </lyric>
            </note>
            <note default-y="-45.00" default-x="145.86">
                <pitch>
                    <step>D</step>
                    <alter>1</alter>
                    <octave>4</octave>
                </pitch>
                <duration>1</duration>
                <voice>1</voice>
                <type>quarter</type>
                <accidental>sharp</accidental>
                <stem>up</stem>
                <lyric number="1">
                    <syllabic>single</syllabic>
                    <text>like</text>
                </lyric>
            </note>
        </measure>
        <measure width="88.04" number="9">
            <harmony print-frame="no">
                <root>
                    <root-step>E</root-step>
                </root>
                <kind text="7">dominant</kind>
            </harmony>
            <note default-y="-40.00" default-x="24.75">
                <pitch>
                    <step>E</step>
                    <octave>4</octave>
                </pitch>
                <duration>4</duration>
                <tie type="start"/>
                <voice>1</voice>
                <type>whole</type>
                <notations>
                    <tied type="start"/>
                </notations>
                <lyric number="1">
                    <syllabic>single</syllabic>
                    <text>this</text>
                </lyric>
            </note>
        </measure>
        <measure width="214.25" number="10">
            <harmony print-frame="no">
                <root>
                    <root-step>A</root-step>
                </root>
                <kind text="m">minor</kind>
            </harmony>
            <note default-y="-40.00" default-x="15.00">
                <pitch>
                    <step>E</step>
                    <octave>4</octave>
                </pitch>
                <duration>1</duration>
                <tie type="stop"/>
                <voice>1</voice>
                <type>quarter</type>
                <stem>up</stem>
                <notations>
                    <tied type="stop"/>
                </notations>
            </note>
            <note default-y="-50.00" default-x="60.96">
                <pitch>
                    <step>C</step>
                    <octave>4</octave>
                </pitch>
                <duration>1</duration>
                <voice>1</voice>
                <type>quarter</type>
                <stem>up</stem>
                <lyric number="1">
                    <syllabic>single</syllabic>
                    <text>could</text>
                </lyric>
            </note>
            <harmony print-frame="no">
                <root>
                    <root-step>F</root-step>
                </root>
                <kind text="m">minor</kind>
            </harmony>
            <note default-y="-40.00" default-x="120.72">
                <pitch>
                    <step>E</step>
                    <octave>4</octave>
                </pitch>
                <duration>1</duration>
                <voice>1</voice>
                <type>quarter</type>
                <stem>up</stem>
                <lyric number="1">
                    <syllabic>single</syllabic>
                    <text>weave</text>
                </lyric>
            </note>
            <note default-y="-35.00" default-x="166.68">
                <pitch>
                    <step>F</step>
                    <octave>4</octave>
                </pitch>
                <duration>1</duration>
                <voice>1</voice>
                <type>quarter</type>
                <stem>up</stem>
                <lyric number="1">
                    <syllabic>single</syllabic>
                    <text>a</text>
                </lyric>
            </note>
        </measure>
        <measure width="149.93" number="11">
            <harmony print-frame="no">
                <root>
                    <root-step>G</root-step>
                </root>
                <kind text="7">dominant</kind>
            </harmony>
            <note default-y="-30.00" default-x="30.99">
                <pitch>
                    <step>G</step>
                    <octave>4</octave>
                </pitch>
                <duration>1</duration>
                <voice>1</voice>
                <type>quarter</type>
                <stem>up</stem>
                <lyric number="1">
                    <syllabic>begin</syllabic>
                    <text>mem</text>
                </lyric>
            </note>
            <note default-y="-35.00" default-x="65.09">
                <pitch>
                    <step>F</step>
                    <octave>4</octave>
                </pitch>
                <duration>1</duration>
                <voice>1</voice>
                <type>quarter</type>
                <stem>up</stem>
                <lyric number="1">
                    <syllabic>middle</syllabic>
                    <text>o</text>
                </lyric>
            </note>
            <harmony print-frame="no">
                <root>
                    <root-step>C</root-step>
                </root>
                <kind text="">major</kind>
            </harmony>
            <note default-y="-40.00" default-x="97.10">
                <pitch>
                    <step>E</step>
                    <octave>4</octave>
                </pitch>
                <duration>2</duration>
                <tie type="start"/>
                <voice>1</voice>
                <type>half</type>
                <stem>up</stem>
                <notations>
                    <tied type="start"/>
                </notations>
                <lyric number="1">
                    <syllabic>end</syllabic>
                    <text>ry</text>
                </lyric>
            </note>
        </measure>
        <measure width="235.89" number="12">
            <print new-system="yes">
                <system-layout>
                    <system-margins>
                        <left-margin>47.28</left-margin>
                        <right-margin>0.00</right-margin>
                    </system-margins>
                    <system-distance>186.02</system-distance>
                </system-layout>
            </print>
            <note default-y="-40.00" default-x="53.18">
                <pitch>
                    <step>E</step>
                    <octave>4</octave>
                </pitch>
                <duration>1</duration>
                <tie type="stop"/>
                <voice>1</voice>
                <type>quarter</type>
                <stem>up</stem>
                <notations>
                    <tied type="stop"/>
                </notations>
            </note>
            <note default-y="-40.00" default-x="98.46">
                <pitch>
                    <step>E</step>
                    <octave>4</octave>
                </pitch>
                <duration>1</duration>
                <voice>1</voice>
                <type>quarter</type>
                <stem>up</stem>
                <lyric number="1">
                    <syllabic>single</syllabic>
                    <text>And</text>
                </lyric>
            </note>
            <harmony print-frame="no">
                <root>
                    <root-step>E</root-step>
                </root>
                <kind text="m">minor</kind>
            </harmony>
            <note default-y="-35.00" default-x="143.73">
                <pitch>
                    <step>F</step>
                    <alter>1</alter>
                    <octave>4</octave>
                </pitch>
                <duration>1</duration>
                <voice>1</voice>
                <type>quarter</type>
                <accidental>sharp</accidental>
                <stem>up</stem>
                <lyric number="1">
                    <syllabic>begin</syllabic>
                    <text>ev</text>
                </lyric>
            </note>
            <note default-y="-30.00" default-x="189.01">
                <pitch>
                    <step>G</step>
                    <octave>4</octave>
                </pitch>
                <duration>1</duration>
                <voice>1</voice>
                <type>quarter</type>
                <stem>up</stem>
                <lyric number="1">
                    <syllabic>end</syllabic>
                    <text>'ry</text>
                </lyric>
            </note>
        </measure>
        <measure width="110.67" number="13">
            <harmony print-frame="no">
                <root>
                    <root-step>A</root-step>
                </root>
                <kind text="m">minor</kind>
            </harmony>
            <harmony relative-x="500.00" print-frame="no">
                <root>
                    <root-step>A</root-step>
                </root>
                <kind text="m7">minor-seventh</kind>
            </harmony>
            <note default-y="-25.00" default-x="26.01">
                <pitch>
                    <step>A</step>
                    <octave>4</octave>
                </pitch>
                <duration>4</duration>
                <tie type="start"/>
                <voice>1</voice>
                <type>whole</type>
                <notations>
                    <tied type="start"/>
                </notations>
                <lyric number="1">
                    <syllabic>single</syllabic>
                    <text>kiss</text>
                </lyric>
            </note>
        </measure>
        <measure width="216.87" number="14">
            <harmony print-frame="no">
                <root>
                    <root-step>D</root-step>
                </root>
                <kind text="7">dominant</kind>
            </harmony>
            <note default-y="-25.00" default-x="15.00">
                <pitch>
                    <step>A</step>
                    <octave>4</octave>
                </pitch>
                <duration>1</duration>
                <tie type="stop"/>
                <voice>1</voice>
                <type>quarter</type>
                <stem>up</stem>
                <notations>
                    <tied type="stop"/>
                </notations>
            </note>
            <note default-y="-25.00" default-x="64.96">
                <pitch>
                    <step>A</step>
                    <octave>4</octave>
                </pitch>
                <duration>1</duration>
                <voice>1</voice>
                <type>quarter</type>
                <stem>up</stem>
                <lyric number="1">
                    <syllabic>single</syllabic>
                    <text>could</text>
                </lyric>
            </note>
            <note default-y="-20.00" default-x="115.35">
                <pitch>
                    <step>B</step>
                    <octave>4</octave>
                </pitch>
                <duration>1</duration>
                <voice>1</voice>
                <type>quarter</type>
                <stem>down</stem>
                <lyric number="1">
                    <syllabic>single</syllabic>
                    <text>start</text>
                </lyric>
            </note>
            <note default-y="-15.00" default-x="165.31">
                <pitch>
                    <step>C</step>
                    <octave>5</octave>
                </pitch>
                <duration>1</duration>
                <voice>1</voice>
                <type>quarter</type>
                <stem>down</stem>
                <lyric number="1">
                    <syllabic>single</syllabic>
                    <text>a</text>
                </lyric>
            </note>
        </measure>
        <measure width="162.70" number="15">
            <direction>
                <direction-type>
                    <words default-y="100">D m7/G</words>
                </direction-type>
            </direction>
            <note default-y="-10.00" default-x="36.62">
                <pitch>
                    <step>D</step>
                    <octave>5</octave>
                </pitch>
                <duration>3</duration>
                <voice>1</voice>
                <type>half</type>
                <dot/>
                <stem>down</stem>
                <lyric number="1">
                    <syllabic>single</syllabic>
                    <text>dream</text>
                </lyric>
            </note>
            <note default-y="-35.00" default-x="118.92">
                <pitch>
                    <step>F</step>
                    <octave>4</octave>
                </pitch>
                <duration>1</duration>
                <voice>1</voice>
                <type>quarter</type>
                <stem>up</stem>
                <lyric number="1">
                    <syllabic>single</syllabic>
                    <text>for</text>
                </lyric>
            </note>
        </measure>
        <measure width="113.61" number="16">
            <harmony print-frame="no">
                <root>
                    <root-step>G</root-step>
                </root>
                <kind text="9">dominant-ninth</kind>
            </harmony>
            <note default-y="-25.00" default-x="28.18">
                <pitch>
                    <step>A</step>
                    <octave>4</octave>
                </pitch>
                <duration>4</duration>
                <voice>1</voice>
                <type>whole</type>
                <lyric number="1">
                    <syllabic>single</syllabic>
                    <text>two.</text>
                </lyric>
            </note>
        </measure>
        <measure width="190.08" number="17">
            <harmony print-frame="no">
                <root>
                    <root-step>C</root-step>
                </root>
                <kind text="">major</kind>
            </harmony>
            <note>
                <rest/>
                <duration>1</duration>
                <voice>1</voice>
                <type>quarter</type>
            </note>
            <note default-y="-30.00" default-x="62.58">
                <pitch>
                    <step>G</step>
                    <octave>4</octave>
                </pitch>
                <duration>1</duration>
                <voice>1</voice>
                <type>quarter</type>
                <stem>up</stem>
                <lyric number="1">
                    <syllabic>single</syllabic>
                    <text>Full</text>
                </lyric>
            </note>
            <note default-y="-15.00" default-x="112.35">
                <pitch>
                    <step>C</step>
                    <octave>5</octave>
                </pitch>
                <duration>2</duration>
                <tie type="start"/>
                <voice>1</voice>
                <type>half</type>
                <stem>down</stem>
                <notations>
                    <tied type="start"/>
                </notations>
                <lyric number="1">
                    <syllabic>single</syllabic>
                    <text>moon</text>
                </lyric>
            </note>
        </measure>
        <measure width="247.33" number="18">
            <print new-system="yes">
                <system-layout>
                    <system-margins>
                        <left-margin>47.28</left-margin>
                        <right-margin>0.00</right-margin>
                    </system-margins>
                    <system-distance>186.02</system-distance>
                </system-layout>
            </print>
            <harmony print-frame="no">
                <root>
                    <root-step>G</root-step>
                </root>
                <kind text="m7b5">half-diminished</kind>
            </harmony>
            <note default-y="-15.00" default-x="53.18">
                <pitch>
                    <step>C</step>
                    <octave>5</octave>
                </pitch>
                <duration>1</duration>
                <tie type="stop"/>
                <voice>1</voice>
                <type>quarter</type>
                <stem>down</stem>
                <notations>
                    <tied type="stop"/>
                </notations>
            </note>
            <note default-y="-20.00" default-x="101.32">
                <pitch>
                    <step>B</step>
                    <alter>-1</alter>
                    <octave>4</octave>
                </pitch>
                <duration>1</duration>
                <voice>1</voice>
                <type>quarter</type>
                <accidental>flat</accidental>
                <stem>down</stem>
                <lyric number="1">
                    <syllabic>single</syllabic>
                    <text>and</text>
                </lyric>
            </note>
            <note default-y="-30.00" default-x="149.45">
                <pitch>
                    <step>G</step>
                    <octave>4</octave>
                </pitch>
                <duration>1</duration>
                <voice>1</voice>
                <type>quarter</type>
                <stem>up</stem>
                <lyric number="1">
                    <syllabic>begin</syllabic>
                    <text>emp</text>
                </lyric>
            </note>
            <note default-y="-35.00" default-x="197.59">
                <pitch>
                    <step>F</step>
                    <octave>4</octave>
                </pitch>
                <duration>1</duration>
                <voice>1</voice>
                <type>quarter</type>
                <stem>up</stem>
                <lyric number="1">
                    <syllabic>end</syllabic>
                    <text>ty</text>
                </lyric>
            </note>
        </measure>
        <measure width="124.05" number="19">
            <harmony print-frame="no">
                <root>
                    <root-step>C</root-step>
                </root>
                <kind text="">major</kind>
            </harmony>
            <harmony relative-x="1800.00" print-frame="no">
                <root>
                    <root-step>G</root-step>
                </root>
                <kind text="7">dominant</kind>
            </harmony>
            <note default-y="-30.00" default-x="30.37">
                <pitch>
                    <step>G</step>
                    <octave>4</octave>
                </pitch>
                <duration>4</duration>
                <tie type="start"/>
                <voice>1</voice>
                <type>whole</type>
                <notations>
                    <tied type="start"/>
                </notations>
                <lyric number="1">
                    <syllabic>single</syllabic>
                    <text>arms</text>
                </lyric>
            </note>
        </measure>
        <measure width="211.30" number="20">
            <harmony print-frame="no">
                <root>
                    <root-step>C</root-step>
                </root>
                <kind text="">major</kind>
            </harmony>
            <note default-y="-30.00" default-x="15.00">
                <pitch>
                    <step>G</step>
                    <octave>4</octave>
                </pitch>
                <duration>1</duration>
                <tie type="stop"/>
                <voice>1</voice>
                <type>quarter</type>
                <stem>up</stem>
                <notations>
                    <tied type="stop"/>
                </notations>
            </note>
            <note default-y="-40.00" default-x="63.67">
                <pitch>
                    <step>E</step>
                    <octave>4</octave>
                </pitch>
                <duration>1</duration>
                <voice>1</voice>
                <type>quarter</type>
                <stem>up</stem>
                <lyric number="1">
                    <syllabic>begin</syllabic>
                    <text>To</text>
                </lyric>
            </note>
            <note default-y="-35.00" default-x="112.35">
                <pitch>
                    <step>F</step>
                    <octave>4</octave>
                </pitch>
                <duration>1</duration>
                <voice>1</voice>
                <type>quarter</type>
                <stem>up</stem>
                <lyric number="1">
                    <syllabic>single</syllabic>
                    <text>night</text>
                </lyric>
            </note>
            <note default-y="-40.00" default-x="161.02">
                <pitch>
                    <step>E</step>
                    <octave>4</octave>
                </pitch>
                <duration>1</duration>
                <voice>1</voice>
                <type>quarter</type>
                <stem>up</stem>
                <lyric number="1">
                    <syllabic>single</syllabic>
                    <text>I'll</text>
                </lyric>
            </note>
        </measure>
        <measure width="210.68" number="21">
            <direction>
                <direction-type>
                    <words default-y="100">CAb</words>
                </direction-type>
            </direction>
            <note default-y="-25.00" default-x="23.49">
                <pitch>
                    <step>A</step>
                    <alter>-1</alter>
                    <octave>4</octave>
                </pitch>
                <duration>1</duration>
                <voice>1</voice>
                <type>quarter</type>
                <accidental>flat</accidental>
                <stem>up</stem>
                <lyric number="1">
                    <syllabic>single</syllabic>
                    <text>use</text>
                </lyric>
            </note>
            <note default-y="-30.00" default-x="69.89">
                <pitch>
                    <step>G</step>
                    <octave>4</octave>
                </pitch>
                <duration>1</duration>
                <voice>1</voice>
                <type>quarter</type>
                <stem>up</stem>
                <lyric number="1">
                    <syllabic>single</syllabic>
                    <text>the</text>
                </lyric>
            </note>
            <harmony print-frame="no">
                <root>
                    <root-step>C</root-step>
                </root>
                <kind text="">major</kind>
            </harmony>
            <note default-y="-35.00" default-x="116.29">
                <pitch>
                    <step>F</step>
                    <octave>4</octave>
                </pitch>
                <duration>1</duration>
                <voice>1</voice>
                <type>quarter</type>
                <stem>up</stem>
                <lyric number="1">
                    <syllabic>begin</syllabic>
                    <text>ma</text>
                </lyric>
            </note>
            <note default-y="-40.00" default-x="162.69">
                <pitch>
                    <step>E</step>
                    <octave>4</octave>
                </pitch>
                <duration>1</duration>
                <voice>1</voice>
                <type>quarter</type>
                <stem>up</stem>
                <lyric number="1">
                    <syllabic>end</syllabic>
                    <text>gic</text>
                </lyric>
            </note>
        </measure>
        <measure width="236.46" number="22">
            <harmony print-frame="no">
                <root>
                    <root-step>D</root-step>
                </root>
                <kind text="m7">minor-seventh</kind>
            </harmony>
            <note default-y="-30.00" default-x="34.14">
                <pitch>
                    <step>G</step>
                    <octave>4</octave>
                </pitch>
                <duration>1</duration>
                <voice>1</voice>
                <type>quarter</type>
                <stem>up</stem>
                <lyric number="1">
                    <syllabic>single</syllabic>
                    <text>moon</text>
                </lyric>
            </note>
            <note default-y="-35.00" default-x="84.32">
                <pitch>
                    <step>F</step>
                    <octave>4</octave>
                </pitch>
                <duration>1</duration>
                <voice>1</voice>
                <type>quarter</type>
                <stem>up</stem>
                <lyric number="1">
                    <syllabic>single</syllabic>
                    <text>to</text>
                </lyric>
            </note>
            <harmony print-frame="no">
                <root>
                    <root-step>G</root-step>
                </root>
                <kind text="7">dominant</kind>
            </harmony>
            <note default-y="-40.00" default-x="134.50">
                <pitch>
                    <step>E</step>
                    <octave>4</octave>
                </pitch>
                <duration>1</duration>
                <voice>1</voice>
                <type>quarter</type>
                <stem>up</stem>
                <lyric number="1">
                    <syllabic>single</syllabic>
                    <text>wish</text>
                </lyric>
            </note>
            <note default-y="-45.00" default-x="184.68">
                <pitch>
                    <step>D</step>
                    <octave>4</octave>
                </pitch>
                <duration>1</duration>
                <voice>1</voice>
                <type>quarter</type>
                <stem>up</stem>
                <lyric number="1">
                    <syllabic>begin</syllabic>
                    <text>up</text>
                </lyric>
            </note>
        </measure>
        <measure width="242.02" number="23">
            <print new-system="yes">
                <system-layout>
                    <system-margins>
                        <left-margin>47.28</left-margin>
                        <right-margin>0.00</right-margin>
                    </system-margins>
                    <system-distance>186.02</system-distance>
                </system-layout>
            </print>
            <harmony print-frame="no">
                <root>
                    <root-step>C</root-step>
                </root>
                <kind text="">major</kind>
            </harmony>
            <harmony relative-x="1950.00" print-frame="no">
                <root>
                    <root-step>D</root-step>
                </root>
                <kind text="m">minor</kind>
            </harmony>
            <harmony relative-x="4187.50" print-frame="no">
                <root>
                    <root-step>G</root-step>
                </root>
                <kind text="7">dominant</kind>
            </harmony>
            <note default-y="-30.00" default-x="68.23">
                <pitch>
                    <step>G</step>
                    <octave>4</octave>
                </pitch>
                <duration>4</duration>
                <tie type="start"/>
                <voice>1</voice>
                <type>whole</type>
                <notations>
                    <tied type="start"/>
                </notations>
                <lyric number="1">
                    <syllabic>end</syllabic>
                    <text>on.</text>
                </lyric>
            </note>
        </measure>
        <measure width="225.80" number="24">
            <harmony print-frame="no">
                <root>
                    <root-step>C</root-step>
                </root>
                <kind text="">major</kind>
            </harmony>
            <note default-y="-30.00" default-x="15.00">
                <pitch>
                    <step>G</step>
                    <octave>4</octave>
                </pitch>
                <duration>1</duration>
                <tie type="stop"/>
                <voice>1</voice>
                <type>quarter</type>
                <stem>up</stem>
                <notations>
                    <tied type="stop"/>
                </notations>
            </note>
            <note default-y="-50.00" default-x="67.30">
                <pitch>
                    <step>C</step>
                    <octave>4</octave>
                </pitch>
                <duration>1</duration>
                <voice>1</voice>
                <type>quarter</type>
                <stem>up</stem>
                <lyric number="1">
                    <syllabic>single</syllabic>
                    <text>And</text>
                </lyric>
            </note>
            <note default-y="-45.00" default-x="119.60">
                <pitch>
                    <step>D</step>
                    <octave>4</octave>
                </pitch>
                <duration>1</duration>
                <voice>1</voice>
                <type>quarter</type>
                <stem>up</stem>
                <lyric number="1">
                    <syllabic>single</syllabic>
                    <text>next</text>
                </lyric>
            </note>
            <note default-y="-45.00" default-x="171.90">
                <pitch>
                    <step>D</step>
                    <alter>1</alter>
                    <octave>4</octave>
                </pitch>
                <duration>1</duration>
                <voice>1</voice>
                <type>quarter</type>
                <accidental>sharp</accidental>
                <stem>up</stem>
                <lyric number="1">
                    <syllabic>single</syllabic>
                    <text>full</text>
                </lyric>
            </note>
        </measure>
        <measure width="137.29" number="25">
            <harmony print-frame="no">
                <root>
                    <root-step>E</root-step>
                </root>
                <kind text="7">dominant</kind>
            </harmony>
            <note default-y="-40.00" default-x="36.95">
                <pitch>
                    <step>E</step>
                    <octave>4</octave>
                </pitch>
                <duration>4</duration>
                <tie type="start"/>
                <voice>1</voice>
                <type>whole</type>
                <notations>
                    <tied type="start"/>
                </notations>
                <lyric number="1">
                    <syllabic>single</syllabic>
                    <text>moon,</text>
                </lyric>
            </note>
        </measure>
        <measure width="197.33" number="26">
            <harmony print-frame="no">
                <root>
                    <root-step>A</root-step>
                </root>
                <kind text="m">minor</kind>
            </harmony>
            <note default-y="-40.00" default-x="15.00">
                <pitch>
                    <step>E</step>
                    <octave>4</octave>
                </pitch>
                <duration>1</duration>
                <tie type="stop"/>
                <voice>1</voice>
                <type>quarter</type>
                <stem>up</stem>
                <notations>
                    <tied type="stop"/>
                </notations>
            </note>
            <note default-y="-50.00" default-x="60.18">
                <pitch>
                    <step>C</step>
                    <octave>4</octave>
                </pitch>
                <duration>1</duration>
                <voice>1</voice>
                <type>quarter</type>
                <stem>up</stem>
                <lyric number="1">
                    <syllabic>single</syllabic>
                    <text>if</text>
                </lyric>
            </note>
            <harmony print-frame="no">
                <root>
                    <root-step>F</root-step>
                </root>
                <kind text="m">minor</kind>
            </harmony>
            <note default-y="-40.00" default-x="105.36">
                <pitch>
                    <step>E</step>
                    <octave>4</octave>
                </pitch>
                <duration>1</duration>
                <voice>1</voice>
                <type>quarter</type>
                <stem>up</stem>
                <lyric number="1">
                    <syllabic>single</syllabic>
                    <text>my</text>
                </lyric>
            </note>
            <note default-y="-35.00" default-x="150.55">
                <pitch>
                    <step>F</step>
                    <octave>4</octave>
                </pitch>
                <duration>1</duration>
                <voice>1</voice>
                <type>quarter</type>
                <stem>up</stem>
                <lyric number="1">
                    <syllabic>single</syllabic>
                    <text>one</text>
                </lyric>
            </note>
        </measure>
        <measure width="227.39" number="27">
            <harmony print-frame="no">
                <root>
                    <root-step>G</root-step>
                </root>
                <kind text="7">dominant</kind>
            </harmony>
            <note default-y="-30.00" default-x="29.76">
                <pitch>
                    <step>G</step>
                    <octave>4</octave>
                </pitch>
                <duration>1</duration>
                <voice>1</voice>
                <type>quarter</type>
                <stem>up</stem>
                <lyric number="1">
                    <syllabic>single</syllabic>
                    <text>wish</text>
                </lyric>
            </note>
            <note default-y="-35.00" default-x="85.77">
                <pitch>
                    <step>F</step>
                    <octave>4</octave>
                </pitch>
                <duration>1</duration>
                <voice>1</voice>
                <type>quarter</type>
                <stem>up</stem>
                <lyric number="1">
                    <syllabic>single</syllabic>
                    <text>comes</text>
                </lyric>
            </note>
            <harmony print-frame="no">
                <root>
                    <root-step>C</root-step>
                </root>
                <kind text="">major</kind>
            </harmony>
            <note default-y="-40.00" default-x="139.63">
                <pitch>
                    <step>E</step>
                    <octave>4</octave>
                </pitch>
                <duration>2</duration>
                <tie type="start"/>
                <voice>1</voice>
                <type>half</type>
                <stem>up</stem>
                <notations>
                    <tied type="start"/>
                </notations>
                <lyric number="1">
                    <syllabic>single</syllabic>
                    <text>true</text>
                </lyric>
            </note>
        </measure>
        <measure width="259.98" number="28">
            <print new-system="yes">
                <system-layout>
                    <system-margins>
                        <left-margin>47.28</left-margin>
                        <right-margin>0.00</right-margin>
                    </system-margins>
                    <system-distance>186.02</system-distance>
                </system-layout>
            </print>
            <harmony print-frame="no">
                <root>
                    <root-step>C</root-step>
                </root>
                <kind text="Maj7">major-seventh</kind>
            </harmony>
            <note default-y="-40.00" default-x="53.18">
                <pitch>
                    <step>E</step>
                    <octave>4</octave>
                </pitch>
                <duration>1</duration>
                <tie type="stop"/>
                <voice>1</voice>
                <type>quarter</type>
                <stem>up</stem>
                <notations>
                    <tied type="stop"/>
                </notations>
            </note>
            <note default-y="-30.00" default-x="104.48">
                <pitch>
                    <step>G</step>
                    <octave>4</octave>
                </pitch>
                <duration>1</duration>
                <voice>1</voice>
                <type>quarter</type>
                <stem>up</stem>
                <lyric number="1">
                    <syllabic>single</syllabic>
                    <text>my</text>
                </lyric>
            </note>
            <note default-y="-15.00" default-x="155.78">
                <pitch>
                    <step>C</step>
                    <octave>5</octave>
                </pitch>
                <duration>1</duration>
                <voice>1</voice>
                <type>quarter</type>
                <stem>down</stem>
                <lyric number="1">
                    <syllabic>begin</syllabic>
                    <text>emp</text>
                </lyric>
            </note>
            <harmony print-frame="no">
                <root>
                    <root-step>D</root-step>
                </root>
                <kind text="m">minor</kind>
            </harmony>
            <note default-y="-10.00" default-x="207.08">
                <pitch>
                    <step>D</step>
                    <octave>5</octave>
                </pitch>
                <duration>1</duration>
                <voice>1</voice>
                <type>quarter</type>
                <stem>down</stem>
                <lyric number="1">
                    <syllabic>end</syllabic>
                    <text>ty</text>
                </lyric>
            </note>
        </measure>
        <measure width="181.45" number="29">
            <harmony print-frame="no">
                <root>
                    <root-step>E</root-step>
                </root>
                <kind text="7">dominant</kind>
            </harmony>
            <note default-y="-5.00" default-x="30.37">
                <pitch>
                    <step>E</step>
                    <octave>5</octave>
                </pitch>
                <duration>1</duration>
                <voice>1</voice>
                <type>quarter</type>
                <stem>down</stem>
                <lyric number="1">
                    <syllabic>single</syllabic>
                    <text>arms</text>
                </lyric>
            </note>
            <note default-y="0.00" default-x="81.02">
                <pitch>
                    <step>F</step>
                    <octave>5</octave>
                </pitch>
                <duration>3</duration>
                <tie type="start"/>
                <voice>1</voice>
                <type>half</type>
                <dot/>
                <stem>down</stem>
                <notations>
                    <tied type="start"/>
                </notations>
                <lyric number="1">
                    <syllabic>single</syllabic>
                    <text>will</text>
                </lyric>
            </note>
        </measure>
        <measure width="243.72" number="30">
            <harmony print-frame="no">
                <root>
                    <root-step>F</root-step>
                </root>
                <kind text="">major</kind>
            </harmony>
            <note default-y="0.00" default-x="15.00">
                <pitch>
                    <step>F</step>
                    <octave>5</octave>
                </pitch>
                <duration>1</duration>
                <tie type="stop"/>
                <voice>1</voice>
                <type>quarter</type>
                <stem>down</stem>
                <notations>
                    <tied type="stop"/>
                </notations>
            </note>
            <note default-y="-5.00" default-x="71.78">
                <pitch>
                    <step>E</step>
                    <octave>5</octave>
                </pitch>
                <duration>1</duration>
                <voice>1</voice>
                <type>quarter</type>
                <stem>down</stem>
                <lyric number="1">
                    <syllabic>single</syllabic>
                    <text>be</text>
                </lyric>
            </note>
            <harmony print-frame="no">
                <root>
                    <root-step>D</root-step>
                </root>
                <kind text="m7">minor-seventh</kind>
            </harmony>
            <note default-y="-15.00" default-x="128.56">
                <pitch>
                    <step>C</step>
                    <octave>5</octave>
                </pitch>
                <duration>1</duration>
                <voice>1</voice>
                <type>quarter</type>
                <stem>down</stem>
                <lyric number="1">
                    <syllabic>single</syllabic>
                    <text>filled</text>
                </lyric>
            </note>
            <harmony print-frame="no">
                <root>
                    <root-step>G</root-step>
                </root>
                <kind text="7">dominant</kind>
            </harmony>
            <note default-y="-10.00" default-x="185.34">
                <pitch>
                    <step>D</step>
                    <octave>5</octave>
                </pitch>
                <duration>1</duration>
                <voice>1</voice>
                <type>quarter</type>
                <stem>down</stem>
                <lyric number="1">
                    <syllabic>single</syllabic>
                    <text>with</text>
                </lyric>
            </note>
        </measure>
        <measure width="202.58" number="31">
            <barline location="left">
                <ending type="start" number="1"></ending>
            </barline>
            <harmony print-frame="no">
                <root>
                    <root-step>C</root-step>
                </root>
                <kind text="">major</kind>
            </harmony>
            <harmony relative-x="400.00" print-frame="no">
                <root>
                    <root-step>D</root-step>
                </root>
                <kind text="m9">minor-ninth</kind>
            </harmony>
            <harmony relative-x="2800.00" print-frame="no">
                <root>
                    <root-step>D</root-step>
                </root>
                <kind text="m7">minor-seventh</kind>
            </harmony>
            <harmony relative-x="5100.00" print-frame="no">
                <root>
                    <root-step>G</root-step>
                </root>
                <kind text="7">dominant</kind>
            </harmony>
            <note default-y="-15.00" default-x="28.19">
                <pitch>
                    <step>C</step>
                    <octave>5</octave>
                </pitch>
                <duration>4</duration>
                <voice>1</voice>
                <type>whole</type>
                <lyric number="1">
                    <syllabic>single</syllabic>
                    <text>you.</text>
                </lyric>
            </note>
            <barline location="right">
                <bar-style>light-heavy</bar-style>
                <ending type="stop" number="1"></ending>
                <repeat direction="backward"/>
            </barline>
        </measure>
        <measure width="142.09" number="32">
            <barline location="left">
                <ending type="start" number="2"></ending>
            </barline>
            <harmony print-frame="no">
                <root>
                    <root-step>C</root-step>
                </root>
                <kind text="">major</kind>
            </harmony>
            <note default-y="-15.00" default-x="28.19">
                <pitch>
                    <step>C</step>
                    <octave>5</octave>
                </pitch>
                <duration>4</duration>
                <voice>1</voice>
                <type>whole</type>
                <lyric number="1">
                    <syllabic>single</syllabic>
                    <text>you.</text>
                </lyric>
            </note>
            <barline location="right">
                <bar-style>light-heavy</bar-style>
                <ending type="stop" number="2"></ending>
            </barline>
        </measure>
    </part>
</score-partwise>
