<?xml version="1.0" encoding="UTF-8"?>
<!DOCTYPE score-partwise PUBLIC "-//Recordare//DTD MusicXML 2.0 Partwise//EN" "http://www.musicxml.org/dtds/partwise.dtd">
<score-partwise version="2.0">
    <work>
        <work-number></work-number>
        <work-title></work-title>
    </work>
    <movement-number></movement-number>
    <movement-title>You're My Everything</movement-title>
    <identification>
        <creator type="composer">Harry Warren</creator>
        <creator type="poet">Mort Dixon, Joe Young</creator>
        <rights>All Rights Reserved</rights>
        <encoding>
            <software>MuseScore 0.9.5</software>
            <encoding-date>2010-03-05</encoding-date>
            <software>ProxyMusic 2.0 c</software>
        </encoding>
        <source>http://wikifonia.org/node/4889/revisions/6625/view</source>
    </identification>
    <defaults>
        <scaling>
            <millimeters>7.056</millimeters>
            <tenths>40</tenths>
        </scaling>
        <page-layout>
            <page-height>1683.67</page-height>
            <page-width>1190.48</page-width>
            <page-margins type="both">
                <left-margin>56.6893</left-margin>
                <right-margin>56.6893</right-margin>
                <top-margin>56.6893</top-margin>
                <bottom-margin>113.379</bottom-margin>
            </page-margins>
        </page-layout>
    </defaults>
    <credit page="1">
        <credit-words font-size="24" default-y="1626.98" default-x="595.238" justify="center" valign="top">You're My Everything</credit-words>
    </credit>
    <part-list>
        <score-part id="P1">
            <part-name>Voice</part-name>
            <score-instrument id="P1-I3">
                <instrument-name>Voice</instrument-name>
            </score-instrument>
            <midi-instrument id="P1-I3">
                <midi-channel>1</midi-channel>
                <midi-program>53</midi-program>
            </midi-instrument>
        </score-part>
    </part-list>
    <part id="P1">
        <measure width="268.68" number="1">
            <print>
                <system-layout>
                    <system-margins>
                        <left-margin>69.92</left-margin>
                        <right-margin>-0.00</right-margin>
                    </system-margins>
                    <top-system-distance>228.53</top-system-distance>
                </system-layout>
            </print>
            <attributes>
                <divisions>2</divisions>
                <key>
                    <fifths>0</fifths>
                    <mode>major</mode>
                </key>
                <time symbol="cut">
                    <beats>2</beats>
                    <beat-type>2</beat-type>
                </time>
                <clef>
                    <sign>G</sign>
                    <line>2</line>
                </clef>
            </attributes>
            <note>
                <rest/>
                <duration>4</duration>
                <voice>1</voice>
                <type>half</type>
            </note>
            <harmony print-frame="no">
                <root>
                    <root-step>G</root-step>
                </root>
                <kind text="7">dominant</kind>
            </harmony>
            <note default-y="-5.00" default-x="151.51">
                <pitch>
                    <step>E</step>
                    <octave>5</octave>
                </pitch>
                <duration>3</duration>
                <voice>1</voice>
                <type>quarter</type>
                <dot/>
                <stem>down</stem>
                <lyric number="1">
                    <syllabic>single</syllabic>
                    <text>You're</text>
                </lyric>
            </note>
            <note default-y="-10.00" default-x="218.95">
                <pitch>
                    <step>D</step>
                    <octave>5</octave>
                </pitch>
                <duration>1</duration>
                <voice>1</voice>
                <type>eighth</type>
                <stem>down</stem>
                <lyric number="1">
                    <syllabic>single</syllabic>
                    <text>my</text>
                </lyric>
            </note>
        </measure>
        <measure width="180.15" number="2">
            <barline location="left">
                <bar-style>heavy-light</bar-style>
                <repeat direction="forward"/>
            </barline>
            <harmony print-frame="no">
                <root>
                    <root-step>C</root-step>
                </root>
                <kind text="">major</kind>
            </harmony>
            <note default-y="-10.00" default-x="19.10">
                <pitch>
                    <step>D</step>
                    <octave>5</octave>
                </pitch>
                <duration>3</duration>
                <voice>1</voice>
                <type>quarter</type>
                <dot/>
                <stem>down</stem>
                <lyric number="1">
                    <syllabic>begin</syllabic>
                    <text>ev</text>
                </lyric>
            </note>
            <note default-y="-15.00" default-x="74.61">
                <pitch>
                    <step>C</step>
                    <octave>5</octave>
                </pitch>
                <duration>1</duration>
                <voice>1</voice>
                <type>eighth</type>
                <stem>down</stem>
                <lyric number="1">
                    <syllabic>middle</syllabic>
                    <text>'ry</text>
                </lyric>
            </note>
            <note default-y="-40.00" default-x="115.95">
                <pitch>
                    <step>E</step>
                    <octave>4</octave>
                </pitch>
                <duration>4</duration>
                <tie type="start"/>
                <voice>1</voice>
                <type>half</type>
                <stem>up</stem>
                <notations>
                    <tied type="start"/>
                </notations>
                <lyric number="1">
                    <syllabic>end</syllabic>
                    <text>thing</text>
                </lyric>
            </note>
        </measure>
        <measure width="247.28" number="3">
            <note default-y="-40.00" default-x="15.00">
                <pitch>
                    <step>E</step>
                    <octave>4</octave>
                </pitch>
                <duration>4</duration>
                <tie type="stop"/>
                <voice>1</voice>
                <type>half</type>
                <stem>up</stem>
                <notations>
                    <tied type="stop"/>
                </notations>
            </note>
            <note default-y="-50.00" default-x="89.29">
                <pitch>
                    <step>C</step>
                    <octave>4</octave>
                </pitch>
                <duration>1</duration>
                <voice>1</voice>
                <type>eighth</type>
                <stem>up</stem>
                <beam number="1">begin</beam>
                <lyric number="1">
                    <syllabic>begin</syllabic>
                    <text>un</text>
                </lyric>
            </note>
            <note default-y="-40.00" default-x="123.06">
                <pitch>
                    <step>E</step>
                    <octave>4</octave>
                </pitch>
                <duration>1</duration>
                <voice>1</voice>
                <type>eighth</type>
                <stem>up</stem>
                <beam number="1">continue</beam>
                <lyric number="1">
                    <syllabic>middle</syllabic>
                    <text>der</text>
                </lyric>
            </note>
            <note default-y="-30.00" default-x="167.79">
                <pitch>
                    <step>G</step>
                    <octave>4</octave>
                </pitch>
                <duration>1</duration>
                <voice>1</voice>
                <type>eighth</type>
                <stem>up</stem>
                <beam number="1">continue</beam>
                <lyric number="1">
                    <syllabic>end</syllabic>
                    <text>neath</text>
                </lyric>
            </note>
            <note default-y="-15.00" default-x="211.91">
                <pitch>
                    <step>C</step>
                    <octave>5</octave>
                </pitch>
                <duration>1</duration>
                <voice>1</voice>
                <type>eighth</type>
                <stem>up</stem>
                <beam number="1">end</beam>
                <lyric number="1">
                    <syllabic>single</syllabic>
                    <text>the</text>
                </lyric>
            </note>
        </measure>
        <measure width="113.16" number="4">
            <harmony print-frame="no">
                <root>
                    <root-step>B</root-step>
                </root>
                <kind text="7">dominant</kind>
            </harmony>
            <note default-y="-20.00" default-x="27.26">
                <pitch>
                    <step>B</step>
                    <octave>4</octave>
                </pitch>
                <duration>8</duration>
                <tie type="start"/>
                <voice>1</voice>
                <type>whole</type>
                <notations>
                    <tied type="start"/>
                </notations>
                <lyric number="1">
                    <syllabic>single</syllabic>
                    <text>sun;</text>
                </lyric>
            </note>
        </measure>
        <measure width="197.91" number="5">
            <harmony print-frame="no">
                <root>
                    <root-step>E</root-step>
                </root>
                <kind text="7">dominant</kind>
            </harmony>
            <note default-y="-20.00" default-x="15.00">
                <pitch>
                    <step>B</step>
                    <octave>4</octave>
                </pitch>
                <duration>4</duration>
                <tie type="stop"/>
                <voice>1</voice>
                <type>half</type>
                <stem>down</stem>
                <notations>
                    <tied type="stop"/>
                </notations>
            </note>
            <harmony print-frame="no">
                <root>
                    <root-step>A</root-step>
                </root>
                <kind text="7">dominant</kind>
            </harmony>
            <note default-y="-25.00" default-x="92.44">
                <pitch>
                    <step>A</step>
                    <octave>4</octave>
                </pitch>
                <duration>3</duration>
                <voice>1</voice>
                <type>quarter</type>
                <dot/>
                <stem>up</stem>
                <lyric number="1">
                    <syllabic>single</syllabic>
                    <text>you're</text>
                </lyric>
            </note>
            <note default-y="-40.00" default-x="161.11">
                <pitch>
                    <step>E</step>
                    <octave>4</octave>
                </pitch>
                <duration>1</duration>
                <voice>1</voice>
                <type>eighth</type>
                <stem>up</stem>
                <lyric number="1">
                    <syllabic>single</syllabic>
                    <text>my</text>
                </lyric>
            </note>
        </measure>
        <measure width="229.66" number="6">
            <print new-system="yes">
                <system-layout>
                    <system-margins>
                        <left-margin>47.28</left-margin>
                        <right-margin>-0.00</right-margin>
                    </system-margins>
                    <system-distance>153.73</system-distance>
                </system-layout>
            </print>
            <harmony print-frame="no">
                <root>
                    <root-step>D</root-step>
                </root>
                <kind text="m">minor</kind>
            </harmony>
            <note default-y="-30.00" default-x="64.78">
                <pitch>
                    <step>G</step>
                    <octave>4</octave>
                </pitch>
                <duration>3</duration>
                <voice>1</voice>
                <type>quarter</type>
                <dot/>
                <stem>up</stem>
                <lyric number="1">
                    <syllabic>begin</syllabic>
                    <text>ev</text>
                </lyric>
            </note>
            <note default-y="-35.00" default-x="117.81">
                <pitch>
                    <step>F</step>
                    <octave>4</octave>
                </pitch>
                <duration>1</duration>
                <voice>1</voice>
                <type>eighth</type>
                <stem>up</stem>
                <lyric number="1">
                    <syllabic>middle</syllabic>
                    <text>'ry</text>
                </lyric>
            </note>
            <note default-y="-35.00" default-x="168.27">
                <pitch>
                    <step>F</step>
                    <octave>4</octave>
                </pitch>
                <duration>4</duration>
                <tie type="start"/>
                <voice>1</voice>
                <type>half</type>
                <stem>up</stem>
                <notations>
                    <tied type="start"/>
                </notations>
                <lyric number="1">
                    <syllabic>end</syllabic>
                    <text>thing</text>
                </lyric>
            </note>
        </measure>
        <measure width="231.43" number="7">
            <note default-y="-35.00" default-x="15.00">
                <pitch>
                    <step>F</step>
                    <octave>4</octave>
                </pitch>
                <duration>4</duration>
                <tie type="stop"/>
                <voice>1</voice>
                <type>half</type>
                <stem>up</stem>
                <notations>
                    <tied type="stop"/>
                </notations>
            </note>
            <harmony print-frame="no">
                <root>
                    <root-step>D</root-step>
                </root>
                <kind text="m7">minor-seventh</kind>
            </harmony>
            <note default-y="-35.00" default-x="87.49">
                <pitch>
                    <step>F</step>
                    <octave>4</octave>
                </pitch>
                <duration>1</duration>
                <voice>1</voice>
                <type>eighth</type>
                <stem>up</stem>
                <beam number="1">begin</beam>
                <lyric number="1">
                    <syllabic>single</syllabic>
                    <text>rolled</text>
                </lyric>
            </note>
            <note default-y="-25.00" default-x="130.98">
                <pitch>
                    <step>A</step>
                    <octave>4</octave>
                </pitch>
                <duration>1</duration>
                <voice>1</voice>
                <type>eighth</type>
                <stem>up</stem>
                <beam number="1">continue</beam>
                <lyric number="1">
                    <syllabic>single</syllabic>
                    <text>up</text>
                </lyric>
            </note>
            <note default-y="-15.00" default-x="163.93">
                <pitch>
                    <step>C</step>
                    <octave>5</octave>
                </pitch>
                <duration>1</duration>
                <voice>1</voice>
                <type>eighth</type>
                <stem>up</stem>
                <beam number="1">continue</beam>
                <lyric number="1">
                    <syllabic>begin</syllabic>
                    <text>in</text>
                </lyric>
            </note>
            <note default-y="-35.00" default-x="196.88">
                <pitch>
                    <step>F</step>
                    <octave>4</octave>
                </pitch>
                <duration>1</duration>
                <voice>1</voice>
                <type>eighth</type>
                <stem>up</stem>
                <beam number="1">end</beam>
                <lyric number="1">
                    <syllabic>single</syllabic>
                    <text>to</text>
                </lyric>
            </note>
        </measure>
        <measure width="157.40" number="8">
            <harmony print-frame="no">
                <root>
                    <root-step>G</root-step>
                </root>
                <kind text="7">dominant</kind>
            </harmony>
            <harmony relative-x="1700.00" print-frame="no">
                <root>
                    <root-step>F</root-step>
                    <root-alter>1</root-alter>
                </root>
                <kind text="m">minor</kind>
                <bass>
                    <bass-step>G</bass-step>
                </bass>
            </harmony>
            <note default-y="-40.00" default-x="27.56">
                <pitch>
                    <step>E</step>
                    <octave>4</octave>
                </pitch>
                <duration>8</duration>
                <tie type="start"/>
                <voice>1</voice>
                <type>whole</type>
                <notations>
                    <tied type="start"/>
                </notations>
                <lyric number="1">
                    <syllabic>single</syllabic>
                    <text>one.</text>
                </lyric>
            </note>
        </measure>
        <measure width="188.16" number="9">
            <harmony print-frame="no">
                <root>
                    <root-step>G</root-step>
                </root>
                <kind text="9">dominant-ninth</kind>
            </harmony>
            <note default-y="-40.00" default-x="15.00">
                <pitch>
                    <step>E</step>
                    <octave>4</octave>
                </pitch>
                <duration>4</duration>
                <tie type="stop"/>
                <voice>1</voice>
                <type>half</type>
                <stem>up</stem>
                <notations>
                    <tied type="stop"/>
                </notations>
            </note>
            <harmony print-frame="no">
                <root>
                    <root-step>G</root-step>
                </root>
                <kind text="7">dominant</kind>
            </harmony>
            <note default-y="-45.00" default-x="90.26">
                <pitch>
                    <step>D</step>
                    <octave>4</octave>
                </pitch>
                <duration>2</duration>
                <voice>1</voice>
                <type>quarter</type>
                <stem>up</stem>
                <lyric number="1">
                    <syllabic>single</syllabic>
                    <text>You're</text>
                </lyric>
            </note>
            <note default-y="-40.00" default-x="139.53">
                <pitch>
                    <step>E</step>
                    <octave>4</octave>
                </pitch>
                <duration>2</duration>
                <voice>1</voice>
                <type>quarter</type>
                <stem>up</stem>
                <lyric number="1">
                    <syllabic>single</syllabic>
                    <text>my</text>
                </lyric>
            </note>
        </measure>
        <measure width="223.17" number="10">
            <harmony print-frame="no">
                <root>
                    <root-step>C</root-step>
                </root>
                <kind text="">major</kind>
            </harmony>
            <note default-y="-30.00" default-x="19.74">
                <pitch>
                    <step>G</step>
                    <octave>4</octave>
                </pitch>
                <duration>2</duration>
                <voice>1</voice>
                <type>quarter</type>
                <stem>up</stem>
                <lyric number="1">
                    <syllabic>begin</syllabic>
                    <text>on</text>
                </lyric>
            </note>
            <note default-y="-30.00" default-x="69.91">
                <pitch>
                    <step>G</step>
                    <octave>4</octave>
                </pitch>
                <duration>2</duration>
                <voice>1</voice>
                <type>quarter</type>
                <stem>up</stem>
                <lyric number="1">
                    <syllabic>end</syllabic>
                    <text>ly</text>
                </lyric>
            </note>
            <note default-y="-30.00" default-x="120.09">
                <pitch>
                    <step>G</step>
                    <octave>4</octave>
                </pitch>
                <duration>2</duration>
                <voice>1</voice>
                <type>quarter</type>
                <stem>up</stem>
                <lyric number="1">
                    <syllabic>single</syllabic>
                    <text>dream,</text>
                </lyric>
            </note>
            <note default-y="-30.00" default-x="171.39">
                <pitch>
                    <step>G</step>
                    <octave>4</octave>
                </pitch>
                <duration>2</duration>
                <voice>1</voice>
                <type>quarter</type>
                <stem>up</stem>
                <lyric number="1">
                    <syllabic>single</syllabic>
                    <text>my</text>
                </lyric>
            </note>
        </measure>
        <measure width="241.28" number="11">
            <print new-system="yes">
                <system-layout>
                    <system-margins>
                        <left-margin>47.28</left-margin>
                        <right-margin>-0.00</right-margin>
                    </system-margins>
                    <system-distance>153.73</system-distance>
                </system-layout>
            </print>
            <harmony print-frame="no">
                <root>
                    <root-step>E</root-step>
                    <root-alter>-1</root-alter>
                </root>
                <kind text="m6">minor-sixth</kind>
            </harmony>
            <note default-y="-20.00" default-x="65.42">
                <pitch>
                    <step>B</step>
                    <alter>-1</alter>
                    <octave>4</octave>
                </pitch>
                <duration>2</duration>
                <voice>1</voice>
                <type>quarter</type>
                <accidental>flat</accidental>
                <stem>down</stem>
                <lyric number="1">
                    <syllabic>begin</syllabic>
                    <text>on</text>
                </lyric>
            </note>
            <note default-y="-20.00" default-x="108.98">
                <pitch>
                    <step>B</step>
                    <alter>-1</alter>
                    <octave>4</octave>
                </pitch>
                <duration>2</duration>
                <voice>1</voice>
                <type>quarter</type>
                <stem>down</stem>
                <lyric number="1">
                    <syllabic>end</syllabic>
                    <text>ly</text>
                </lyric>
            </note>
            <note default-y="-20.00" default-x="152.55">
                <pitch>
                    <step>B</step>
                    <alter>-1</alter>
                    <octave>4</octave>
                </pitch>
                <duration>2</duration>
                <voice>1</voice>
                <type>quarter</type>
                <stem>down</stem>
                <lyric number="1">
                    <syllabic>end</syllabic>
                    <text>real</text>
                </lyric>
            </note>
            <note default-y="-20.00" default-x="196.12">
                <pitch>
                    <step>B</step>
                    <alter>-1</alter>
                    <octave>4</octave>
                </pitch>
                <duration>2</duration>
                <voice>1</voice>
                <type>quarter</type>
                <stem>down</stem>
                <lyric number="1">
                    <syllabic>begin</syllabic>
                    <text>re</text>
                </lyric>
            </note>
        </measure>
        <measure width="158.98" number="12">
            <harmony print-frame="no">
                <root>
                    <root-step>D</root-step>
                </root>
                <kind text="m7">minor-seventh</kind>
            </harmony>
            <note default-y="-25.00" default-x="16.60">
                <pitch>
                    <step>A</step>
                    <octave>4</octave>
                </pitch>
                <duration>3</duration>
                <voice>1</voice>
                <type>quarter</type>
                <dot/>
                <stem>up</stem>
                <lyric number="1">
                    <syllabic>middle</syllabic>
                    <text>al</text>
                </lyric>
            </note>
            <note default-y="-30.00" default-x="64.88">
                <pitch>
                    <step>G</step>
                    <octave>4</octave>
                </pitch>
                <duration>1</duration>
                <voice>1</voice>
                <type>eighth</type>
                <stem>up</stem>
                <lyric number="1">
                    <syllabic>end</syllabic>
                    <text>i</text>
                </lyric>
            </note>
            <harmony print-frame="no">
                <root>
                    <root-step>G</root-step>
                </root>
                <kind text="7">dominant</kind>
            </harmony>
            <note default-y="-30.00" default-x="102.93">
                <pitch>
                    <step>G</step>
                    <octave>4</octave>
                </pitch>
                <duration>4</duration>
                <tie type="start"/>
                <voice>1</voice>
                <type>half</type>
                <stem>up</stem>
                <notations>
                    <tied type="start"/>
                </notations>
                <lyric number="1">
                    <syllabic>single</syllabic>
                    <text>ty.</text>
                </lyric>
            </note>
        </measure>
        <measure width="225.33" number="13">
            <note default-y="-30.00" default-x="15.00">
                <pitch>
                    <step>G</step>
                    <octave>4</octave>
                </pitch>
                <duration>4</duration>
                <tie type="stop"/>
                <voice>1</voice>
                <type>half</type>
                <stem>up</stem>
                <notations>
                    <tied type="stop"/>
                </notations>
            </note>
            <harmony print-frame="no">
                <root>
                    <root-step>A</root-step>
                </root>
                <kind text="m6">minor-sixth</kind>
            </harmony>
            <note default-y="-25.00" default-x="107.77">
                <pitch>
                    <step>A</step>
                    <octave>4</octave>
                </pitch>
                <duration>2</duration>
                <voice>1</voice>
                <type>quarter</type>
                <stem>up</stem>
                <lyric number="1">
                    <syllabic>single</syllabic>
                    <text>You're</text>
                </lyric>
            </note>
            <harmony print-frame="no">
                <root>
                    <root-step>D</root-step>
                </root>
                <kind text="dim7">diminished-seventh</kind>
            </harmony>
            <note default-y="-20.00" default-x="165.75">
                <pitch>
                    <step>B</step>
                    <octave>4</octave>
                </pitch>
                <duration>2</duration>
                <voice>1</voice>
                <type>quarter</type>
                <stem>down</stem>
                <lyric number="1">
                    <syllabic>single</syllabic>
                    <text>my</text>
                </lyric>
            </note>
        </measure>
        <measure width="185.24" number="14">
            <harmony print-frame="no">
                <root>
                    <root-step>A</root-step>
                </root>
                <kind text="m">minor</kind>
            </harmony>
            <note default-y="-15.00" default-x="15.00">
                <pitch>
                    <step>C</step>
                    <octave>5</octave>
                </pitch>
                <duration>2</duration>
                <voice>1</voice>
                <type>quarter</type>
                <stem>down</stem>
                <lyric number="1">
                    <syllabic>begin</syllabic>
                    <text>i</text>
                </lyric>
            </note>
            <note default-y="-15.00" default-x="57.16">
                <pitch>
                    <step>C</step>
                    <octave>5</octave>
                </pitch>
                <duration>2</duration>
                <voice>1</voice>
                <type>quarter</type>
                <stem>down</stem>
                <lyric number="1">
                    <syllabic>end</syllabic>
                    <text>dea</text>
                </lyric>
            </note>
            <note default-y="-15.00" default-x="99.32">
                <pitch>
                    <step>C</step>
                    <octave>5</octave>
                </pitch>
                <duration>2</duration>
                <voice>1</voice>
                <type>quarter</type>
                <stem>down</stem>
                <lyric number="1">
                    <syllabic>single</syllabic>
                    <text>of</text>
                </lyric>
            </note>
            <note default-y="-15.00" default-x="141.48">
                <pitch>
                    <step>C</step>
                    <octave>5</octave>
                </pitch>
                <duration>2</duration>
                <voice>1</voice>
                <type>quarter</type>
                <stem>down</stem>
                <lyric number="1">
                    <syllabic>single</syllabic>
                    <text>a</text>
                </lyric>
            </note>
        </measure>
        <measure width="218.99" number="15">
            <harmony print-frame="no">
                <root>
                    <root-step>D</root-step>
                </root>
                <kind text="7">dominant</kind>
            </harmony>
            <note default-y="-20.00" default-x="22.86">
                <pitch>
                    <step>B</step>
                    <octave>4</octave>
                </pitch>
                <duration>2</duration>
                <voice>1</voice>
                <type>quarter</type>
                <stem>down</stem>
                <lyric number="1">
                    <syllabic>begin</syllabic>
                    <text>per</text>
                </lyric>
            </note>
            <note default-y="-25.00" default-x="71.49">
                <pitch>
                    <step>A</step>
                    <octave>4</octave>
                </pitch>
                <duration>2</duration>
                <voice>1</voice>
                <type>quarter</type>
                <stem>up</stem>
                <lyric number="1">
                    <syllabic>end</syllabic>
                    <text>fect</text>
                </lyric>
            </note>
            <note default-y="-20.00" default-x="120.12">
                <pitch>
                    <step>B</step>
                    <octave>4</octave>
                </pitch>
                <duration>2</duration>
                <voice>1</voice>
                <type>quarter</type>
                <stem>down</stem>
                <lyric number="1">
                    <syllabic>begin</syllabic>
                    <text>per</text>
                </lyric>
            </note>
            <note default-y="-15.00" default-x="168.76">
                <pitch>
                    <step>C</step>
                    <octave>5</octave>
                </pitch>
                <duration>2</duration>
                <voice>1</voice>
                <type>quarter</type>
                <stem>down</stem>
                <lyric number="1">
                    <syllabic>middle</syllabic>
                    <text>son</text>
                </lyric>
            </note>
        </measure>
        <measure width="182.11" number="16">
            <print new-system="yes">
                <system-layout>
                    <system-margins>
                        <left-margin>47.28</left-margin>
                        <right-margin>-0.00</right-margin>
                    </system-margins>
                    <system-distance>153.73</system-distance>
                </system-layout>
            </print>
            <note default-y="-10.00" default-x="62.28">
                <pitch>
                    <step>D</step>
                    <octave>5</octave>
                </pitch>
                <duration>3</duration>
                <voice>1</voice>
                <type>quarter</type>
                <dot/>
                <stem>down</stem>
                <lyric number="1">
                    <syllabic>middle</syllabic>
                    <text>al</text>
                </lyric>
            </note>
            <note default-y="-30.00" default-x="99.96">
                <pitch>
                    <step>G</step>
                    <octave>4</octave>
                </pitch>
                <duration>1</duration>
                <voice>1</voice>
                <type>eighth</type>
                <stem>up</stem>
                <lyric number="1">
                    <syllabic>begin</syllabic>
                    <text>i</text>
                </lyric>
            </note>
            <note default-y="-30.00" default-x="138.02">
                <pitch>
                    <step>G</step>
                    <octave>4</octave>
                </pitch>
                <duration>4</duration>
                <tie type="start"/>
                <voice>1</voice>
                <type>half</type>
                <stem>up</stem>
                <notations>
                    <tied type="start"/>
                </notations>
                <lyric number="1">
                    <syllabic>end</syllabic>
                    <text>ty.</text>
                </lyric>
            </note>
        </measure>
        <measure width="188.11" number="17">
            <harmony print-frame="no">
                <root>
                    <root-step>G</root-step>
                </root>
                <kind text="7">dominant</kind>
            </harmony>
            <note default-y="-30.00" default-x="15.00">
                <pitch>
                    <step>G</step>
                    <octave>4</octave>
                </pitch>
                <duration>2</duration>
                <tie type="stop"/>
                <voice>1</voice>
                <type>quarter</type>
                <stem>up</stem>
                <notations>
                    <tied type="stop"/>
                </notations>
            </note>
            <note>
                <rest/>
                <duration>2</duration>
                <voice>1</voice>
                <type>quarter</type>
            </note>
            <note default-y="-5.00" default-x="104.29">
                <pitch>
                    <step>E</step>
                    <octave>5</octave>
                </pitch>
                <duration>3</duration>
                <voice>1</voice>
                <type>quarter</type>
                <dot/>
                <stem>down</stem>
                <lyric number="1">
                    <syllabic>single</syllabic>
                    <text>You're</text>
                </lyric>
            </note>
            <note default-y="-10.00" default-x="158.65">
                <pitch>
                    <step>D</step>
                    <octave>5</octave>
                </pitch>
                <duration>1</duration>
                <voice>1</voice>
                <type>eighth</type>
                <stem>down</stem>
                <lyric number="1">
                    <syllabic>single</syllabic>
                    <text>my</text>
                </lyric>
            </note>
        </measure>
        <measure width="166.36" number="18">
            <harmony print-frame="no">
                <root>
                    <root-step>C</root-step>
                </root>
                <kind text="">major</kind>
            </harmony>
            <note default-y="-10.00" default-x="19.10">
                <pitch>
                    <step>D</step>
                    <octave>5</octave>
                </pitch>
                <duration>3</duration>
                <voice>1</voice>
                <type>quarter</type>
                <dot/>
                <stem>down</stem>
                <lyric number="1">
                    <syllabic>begin</syllabic>
                    <text>ev</text>
                </lyric>
            </note>
            <note default-y="-15.00" default-x="66.81">
                <pitch>
                    <step>C</step>
                    <octave>5</octave>
                </pitch>
                <duration>1</duration>
                <voice>1</voice>
                <type>eighth</type>
                <stem>down</stem>
                <lyric number="1">
                    <syllabic>middle</syllabic>
                    <text>'ry</text>
                </lyric>
            </note>
            <note default-y="-40.00" default-x="110.96">
                <pitch>
                    <step>E</step>
                    <octave>4</octave>
                </pitch>
                <duration>4</duration>
                <tie type="start"/>
                <voice>1</voice>
                <type>half</type>
                <stem>up</stem>
                <notations>
                    <tied type="start"/>
                </notations>
                <lyric number="1">
                    <syllabic>single</syllabic>
                    <text>thing,</text>
                </lyric>
            </note>
        </measure>
        <measure width="208.06" number="19">
            <note default-y="-40.00" default-x="15.00">
                <pitch>
                    <step>E</step>
                    <octave>4</octave>
                </pitch>
                <duration>4</duration>
                <tie type="stop"/>
                <voice>1</voice>
                <type>half</type>
                <stem>up</stem>
                <notations>
                    <tied type="stop"/>
                </notations>
            </note>
            <note default-y="-50.00" default-x="75.28">
                <pitch>
                    <step>C</step>
                    <octave>4</octave>
                </pitch>
                <duration>1</duration>
                <voice>1</voice>
                <type>eighth</type>
                <stem>up</stem>
                <beam number="1">begin</beam>
                <lyric number="1">
                    <syllabic>begin</syllabic>
                    <text>ev</text>
                </lyric>
            </note>
            <note default-y="-40.00" default-x="104.87">
                <pitch>
                    <step>E</step>
                    <octave>4</octave>
                </pitch>
                <duration>1</duration>
                <voice>1</voice>
                <type>eighth</type>
                <stem>up</stem>
                <beam number="1">continue</beam>
                <lyric number="1">
                    <syllabic>middle</syllabic>
                    <text>'ry</text>
                </lyric>
            </note>
            <note default-y="-30.00" default-x="146.21">
                <pitch>
                    <step>G</step>
                    <octave>4</octave>
                </pitch>
                <duration>1</duration>
                <voice>1</voice>
                <type>eighth</type>
                <stem>up</stem>
                <beam number="1">continue</beam>
                <lyric number="1">
                    <syllabic>end</syllabic>
                    <text>thing</text>
                </lyric>
            </note>
            <note default-y="-15.00" default-x="179.06">
                <pitch>
                    <step>C</step>
                    <octave>5</octave>
                </pitch>
                <duration>1</duration>
                <voice>1</voice>
                <type>eighth</type>
                <stem>up</stem>
                <beam number="1">end</beam>
                <lyric number="1">
                    <syllabic>single</syllabic>
                    <text>I</text>
                </lyric>
            </note>
        </measure>
        <measure width="104.82" number="20">
            <harmony print-frame="no">
                <root>
                    <root-step>B</root-step>
                </root>
                <kind text="7">dominant</kind>
            </harmony>
            <note default-y="-20.00" default-x="32.88">
                <pitch>
                    <step>B</step>
                    <octave>4</octave>
                </pitch>
                <duration>8</duration>
                <tie type="start"/>
                <voice>1</voice>
                <type>whole</type>
                <notations>
                    <tied type="start"/>
                </notations>
                <lyric number="1">
                    <syllabic>single</syllabic>
                    <text>need;</text>
                </lyric>
            </note>
        </measure>
        <measure width="180.36" number="21">
            <harmony print-frame="no">
                <root>
                    <root-step>E</root-step>
                </root>
                <kind text="7">dominant</kind>
            </harmony>
            <note default-y="-20.00" default-x="15.00">
                <pitch>
                    <step>B</step>
                    <octave>4</octave>
                </pitch>
                <duration>4</duration>
                <tie type="stop"/>
                <voice>1</voice>
                <type>half</type>
                <stem>down</stem>
                <notations>
                    <tied type="stop"/>
                </notations>
            </note>
            <harmony print-frame="no">
                <root>
                    <root-step>A</root-step>
                </root>
                <kind text="7">dominant</kind>
            </harmony>
            <note default-y="-25.00" default-x="84.66">
                <pitch>
                    <step>A</step>
                    <octave>4</octave>
                </pitch>
                <duration>3</duration>
                <voice>1</voice>
                <type>quarter</type>
                <dot/>
                <stem>up</stem>
                <lyric number="1">
                    <syllabic>single</syllabic>
                    <text>You're</text>
                </lyric>
            </note>
            <note default-y="-40.00" default-x="146.44">
                <pitch>
                    <step>E</step>
                    <octave>4</octave>
                </pitch>
                <duration>1</duration>
                <voice>1</voice>
                <type>eighth</type>
                <stem>up</stem>
                <lyric number="1">
                    <syllabic>single</syllabic>
                    <text>the</text>
                </lyric>
            </note>
        </measure>
        <measure width="235.65" number="22">
            <print new-system="yes">
                <system-layout>
                    <system-margins>
                        <left-margin>47.28</left-margin>
                        <right-margin>-0.00</right-margin>
                    </system-margins>
                    <system-distance>153.73</system-distance>
                </system-layout>
            </print>
            <harmony print-frame="no">
                <root>
                    <root-step>D</root-step>
                </root>
                <kind text="m">minor</kind>
            </harmony>
            <note default-y="-30.00" default-x="75.44">
                <pitch>
                    <step>G</step>
                    <octave>4</octave>
                </pitch>
                <duration>3</duration>
                <voice>1</voice>
                <type>quarter</type>
                <dot/>
                <stem>up</stem>
                <lyric number="1">
                    <syllabic>single</syllabic>
                    <text>song</text>
                </lyric>
            </note>
            <note default-y="-35.00" default-x="128.33">
                <pitch>
                    <step>F</step>
                    <octave>4</octave>
                </pitch>
                <duration>1</duration>
                <voice>1</voice>
                <type>eighth</type>
                <stem>up</stem>
                <lyric number="1">
                    <syllabic>single</syllabic>
                    <text>I</text>
                </lyric>
            </note>
            <note default-y="-35.00" default-x="174.41">
                <pitch>
                    <step>F</step>
                    <octave>4</octave>
                </pitch>
                <duration>4</duration>
                <tie type="start"/>
                <voice>1</voice>
                <type>half</type>
                <stem>up</stem>
                <notations>
                    <tied type="start"/>
                </notations>
                <lyric number="1">
                    <syllabic>single</syllabic>
                    <text>sing</text>
                </lyric>
            </note>
        </measure>
        <measure width="237.20" number="23">
            <harmony print-frame="no">
                <root>
                    <root-step>D</root-step>
                </root>
                <kind text="m">minor</kind>
            </harmony>
            <note default-y="-35.00" default-x="15.00">
                <pitch>
                    <step>F</step>
                    <octave>4</octave>
                </pitch>
                <duration>4</duration>
                <tie type="stop"/>
                <voice>1</voice>
                <type>half</type>
                <stem>up</stem>
                <notations>
                    <tied type="stop"/>
                </notations>
            </note>
            <note default-y="-35.00" default-x="89.58">
                <pitch>
                    <step>F</step>
                    <octave>4</octave>
                </pitch>
                <duration>1</duration>
                <voice>1</voice>
                <type>eighth</type>
                <stem>up</stem>
                <beam number="1">begin</beam>
                <lyric number="1">
                    <syllabic>single</syllabic>
                    <text>and</text>
                </lyric>
            </note>
            <note default-y="-25.00" default-x="125.55">
                <pitch>
                    <step>A</step>
                    <octave>4</octave>
                </pitch>
                <duration>1</duration>
                <voice>1</voice>
                <type>eighth</type>
                <stem>up</stem>
                <beam number="1">continue</beam>
                <lyric number="1">
                    <syllabic>single</syllabic>
                    <text>the</text>
                </lyric>
            </note>
            <note default-y="-15.00" default-x="167.80">
                <pitch>
                    <step>C</step>
                    <octave>5</octave>
                </pitch>
                <duration>1</duration>
                <voice>1</voice>
                <type>eighth</type>
                <stem>up</stem>
                <beam number="1">continue</beam>
                <lyric number="1">
                    <syllabic>single</syllabic>
                    <text>book</text>
                </lyric>
            </note>
            <note default-y="-10.00" default-x="201.70">
                <pitch>
                    <step>D</step>
                    <octave>5</octave>
                </pitch>
                <duration>1</duration>
                <voice>1</voice>
                <type>eighth</type>
                <stem>up</stem>
                <beam number="1">end</beam>
                <lyric number="1">
                    <syllabic>single</syllabic>
                    <text>I</text>
                </lyric>
            </note>
        </measure>
        <measure width="158.68" number="24">
            <harmony print-frame="no">
                <root>
                    <root-step>E</root-step>
                </root>
                <kind text="">major</kind>
            </harmony>
            <harmony relative-x="2500.00" print-frame="no">
                <root>
                    <root-step>B</root-step>
                </root>
                <kind text="7">dominant</kind>
            </harmony>
            <note default-y="-20.00" default-x="30.68">
                <pitch>
                    <step>B</step>
                    <octave>4</octave>
                </pitch>
                <duration>8</duration>
                <tie type="start"/>
                <voice>1</voice>
                <type>whole</type>
                <notations>
                    <tied type="start"/>
                </notations>
                <lyric number="1">
                    <syllabic>single</syllabic>
                    <text>read.</text>
                </lyric>
            </note>
        </measure>
        <measure width="179.30" number="25">
            <harmony print-frame="no">
                <root>
                    <root-step>E</root-step>
                </root>
                <kind text="">major</kind>
            </harmony>
            <note default-y="-20.00" default-x="15.00">
                <pitch>
                    <step>B</step>
                    <octave>4</octave>
                </pitch>
                <duration>4</duration>
                <tie type="stop"/>
                <voice>1</voice>
                <type>half</type>
                <stem>down</stem>
                <notations>
                    <tied type="stop"/>
                </notations>
            </note>
            <note default-y="-25.00" default-x="87.31">
                <pitch>
                    <step>A</step>
                    <alter>1</alter>
                    <octave>4</octave>
                </pitch>
                <duration>2</duration>
                <voice>1</voice>
                <type>quarter</type>
                <accidental>sharp</accidental>
                <stem>up</stem>
                <lyric number="1">
                    <syllabic>single</syllabic>
                    <text>You're</text>
                </lyric>
            </note>
            <note default-y="-20.00" default-x="132.51">
                <pitch>
                    <step>B</step>
                    <octave>4</octave>
                </pitch>
                <duration>2</duration>
                <voice>1</voice>
                <type>quarter</type>
                <stem>down</stem>
                <lyric number="1">
                    <syllabic>begin</syllabic>
                    <text>a</text>
                </lyric>
            </note>
        </measure>
        <measure width="219.00" number="26">
            <harmony print-frame="no">
                <root>
                    <root-step>A</root-step>
                </root>
                <kind text="m">minor</kind>
            </harmony>
            <note default-y="-15.00" default-x="27.24">
                <pitch>
                    <step>C</step>
                    <octave>5</octave>
                </pitch>
                <duration>2</duration>
                <voice>1</voice>
                <type>quarter</type>
                <stem>down</stem>
                <lyric number="1">
                    <syllabic>end</syllabic>
                    <text>way</text>
                </lyric>
            </note>
            <note default-y="-15.00" default-x="74.78">
                <pitch>
                    <step>C</step>
                    <octave>5</octave>
                </pitch>
                <duration>2</duration>
                <voice>1</voice>
                <type>quarter</type>
                <stem>down</stem>
                <lyric number="1">
                    <syllabic>begin</syllabic>
                    <text>be</text>
                </lyric>
            </note>
            <note default-y="-15.00" default-x="122.32">
                <pitch>
                    <step>C</step>
                    <octave>5</octave>
                </pitch>
                <duration>2</duration>
                <voice>1</voice>
                <type>quarter</type>
                <stem>down</stem>
                <lyric number="1">
                    <syllabic>end</syllabic>
                    <text>yond</text>
                </lyric>
            </note>
            <note default-y="-15.00" default-x="169.86">
                <pitch>
                    <step>C</step>
                    <octave>5</octave>
                </pitch>
                <duration>2</duration>
                <voice>1</voice>
                <type>quarter</type>
                <stem>down</stem>
                <lyric number="1">
                    <syllabic>begin</syllabic>
                    <text>be</text>
                </lyric>
            </note>
        </measure>
        <measure width="239.07" number="27">
            <print new-system="yes">
                <system-layout>
                    <system-margins>
                        <left-margin>47.28</left-margin>
                        <right-margin>-0.00</right-margin>
                    </system-margins>
                    <system-distance>153.73</system-distance>
                </system-layout>
            </print>
            <harmony print-frame="no">
                <root>
                    <root-step>C</root-step>
                </root>
                <kind text="7">dominant</kind>
            </harmony>
            <note default-y="-10.00" default-x="69.16">
                <pitch>
                    <step>D</step>
                    <octave>5</octave>
                </pitch>
                <duration>6</duration>
                <voice>1</voice>
                <type>half</type>
                <dot/>
                <stem>down</stem>
                <lyric number="1">
                    <syllabic>end</syllabic>
                    <text>lief</text>
                </lyric>
            </note>
            <harmony print-frame="no">
                <root>
                    <root-step>C</root-step>
                </root>
                <kind text="+">augmented</kind>
            </harmony>
            <note default-y="-5.00" default-x="180.43">
                <pitch>
                    <step>E</step>
                    <octave>5</octave>
                </pitch>
                <duration>2</duration>
                <voice>1</voice>
                <type>quarter</type>
                <stem>down</stem>
                <lyric number="1">
                    <syllabic>single</syllabic>
                    <text>and</text>
                </lyric>
            </note>
        </measure>
        <measure width="300.35" number="28">
            <harmony print-frame="no">
                <root>
                    <root-step>F</root-step>
                </root>
                <kind text="6">major-sixth</kind>
            </harmony>
            <note default-y="-10.00" default-x="24.75">
                <pitch>
                    <step>D</step>
                    <octave>5</octave>
                </pitch>
                <duration>1</duration>
                <voice>1</voice>
                <type>eighth</type>
                <stem>up</stem>
                <beam number="1">begin</beam>
                <lyric number="1">
                    <syllabic>single</syllabic>
                    <text>just</text>
                </lyric>
            </note>
            <note default-y="-15.00" default-x="68.95">
                <pitch>
                    <step>C</step>
                    <octave>5</octave>
                </pitch>
                <duration>1</duration>
                <voice>1</voice>
                <type>eighth</type>
                <stem>up</stem>
                <beam number="1">continue</beam>
                <lyric number="1">
                    <syllabic>single</syllabic>
                    <text>to</text>
                </lyric>
            </note>
            <note default-y="-25.00" default-x="113.14">
                <pitch>
                    <step>A</step>
                    <octave>4</octave>
                </pitch>
                <duration>1</duration>
                <voice>1</voice>
                <type>eighth</type>
                <stem>up</stem>
                <beam number="1">continue</beam>
                <lyric number="1">
                    <syllabic>single</syllabic>
                    <text>make</text>
                </lyric>
            </note>
            <note default-y="-35.00" default-x="157.33">
                <pitch>
                    <step>F</step>
                    <octave>4</octave>
                </pitch>
                <duration>1</duration>
                <voice>1</voice>
                <type>eighth</type>
                <stem>up</stem>
                <beam number="1">end</beam>
                <lyric number="1">
                    <syllabic>single</syllabic>
                    <text>it</text>
                </lyric>
            </note>
            <note default-y="-45.00" default-x="201.53">
                <pitch>
                    <step>D</step>
                    <octave>4</octave>
                </pitch>
                <duration>4</duration>
                <tie type="start"/>
                <voice>1</voice>
                <type>half</type>
                <stem>up</stem>
                <notations>
                    <tied type="start"/>
                </notations>
                <lyric number="1">
                    <syllabic>single</syllabic>
                    <text>brief,</text>
                </lyric>
            </note>
        </measure>
        <measure width="225.60" number="29">
            <harmony print-frame="no">
                <root>
                    <root-step>F</root-step>
                </root>
                <kind text="m6">minor-sixth</kind>
            </harmony>
            <note default-y="-45.00" default-x="15.00">
                <pitch>
                    <step>D</step>
                    <octave>4</octave>
                </pitch>
                <duration>4</duration>
                <tie type="stop"/>
                <voice>1</voice>
                <type>half</type>
                <stem>up</stem>
                <notations>
                    <tied type="stop"/>
                </notations>
            </note>
            <note default-y="-40.00" default-x="107.89">
                <pitch>
                    <step>E</step>
                    <octave>4</octave>
                </pitch>
                <duration>2</duration>
                <voice>1</voice>
                <type>quarter</type>
                <stem>up</stem>
                <lyric number="1">
                    <syllabic>single</syllabic>
                    <text>You're</text>
                </lyric>
            </note>
            <note default-y="-35.00" default-x="165.95">
                <pitch>
                    <step>F</step>
                    <octave>4</octave>
                </pitch>
                <duration>2</duration>
                <voice>1</voice>
                <type>quarter</type>
                <stem>up</stem>
                <lyric number="1">
                    <syllabic>single</syllabic>
                    <text>my</text>
                </lyric>
            </note>
        </measure>
        <measure width="264.80" number="30">
            <harmony print-frame="no">
                <root>
                    <root-step>C</root-step>
                </root>
                <kind text="">major</kind>
                <bass>
                    <bass-step>E</bass-step>
                </bass>
            </harmony>
            <note default-y="-30.00" default-x="25.37">
                <pitch>
                    <step>G</step>
                    <octave>4</octave>
                </pitch>
                <duration>2</duration>
                <voice>1</voice>
                <type>quarter</type>
                <stem>up</stem>
                <lyric number="1">
                    <syllabic>begin</syllabic>
                    <text>win</text>
                </lyric>
            </note>
            <note default-y="-30.00" default-x="84.83">
                <pitch>
                    <step>G</step>
                    <octave>4</octave>
                </pitch>
                <duration>2</duration>
                <voice>1</voice>
                <type>quarter</type>
                <stem>up</stem>
                <lyric number="1">
                    <syllabic>end</syllabic>
                    <text>ter,</text>
                </lyric>
            </note>
            <harmony print-frame="no">
                <root>
                    <root-step>E</root-step>
                    <root-alter>-1</root-alter>
                </root>
                <kind text="m6">minor-sixth</kind>
            </harmony>
            <note default-y="-20.00" default-x="144.28">
                <pitch>
                    <step>B</step>
                    <alter>-1</alter>
                    <octave>4</octave>
                </pitch>
                <duration>2</duration>
                <voice>1</voice>
                <type>quarter</type>
                <accidental>flat</accidental>
                <stem>down</stem>
                <lyric number="1">
                    <syllabic>begin</syllabic>
                    <text>sum</text>
                </lyric>
            </note>
            <note default-y="-20.00" default-x="203.74">
                <pitch>
                    <step>B</step>
                    <alter>-1</alter>
                    <octave>4</octave>
                </pitch>
                <duration>2</duration>
                <voice>1</voice>
                <type>quarter</type>
                <stem>down</stem>
                <lyric number="1">
                    <syllabic>end</syllabic>
                    <text>mer,</text>
                </lyric>
            </note>
        </measure>
        <measure width="289.94" number="31">
            <print new-system="yes">
                <system-layout>
                    <system-margins>
                        <left-margin>47.28</left-margin>
                        <right-margin>0.00</right-margin>
                    </system-margins>
                    <system-distance>153.73</system-distance>
                </system-layout>
            </print>
            <harmony print-frame="no">
                <root>
                    <root-step>D</root-step>
                </root>
                <kind text="m7">minor-seventh</kind>
            </harmony>
            <note default-y="-25.00" default-x="85.14">
                <pitch>
                    <step>A</step>
                    <octave>4</octave>
                </pitch>
                <duration>2</duration>
                <voice>1</voice>
                <type>quarter</type>
                <stem>up</stem>
                <lyric number="1">
                    <syllabic>single</syllabic>
                    <text>spring,</text>
                </lyric>
            </note>
            <note default-y="-30.00" default-x="136.47">
                <pitch>
                    <step>G</step>
                    <octave>4</octave>
                </pitch>
                <duration>2</duration>
                <voice>1</voice>
                <type>quarter</type>
                <stem>up</stem>
                <lyric number="1">
                    <syllabic>single</syllabic>
                    <text>my</text>
                </lyric>
            </note>
            <harmony print-frame="no">
                <root>
                    <root-step>G</root-step>
                </root>
                <kind text="11">dominant-11th</kind>
            </harmony>
            <note default-y="-10.00" default-x="187.10">
                <pitch>
                    <step>D</step>
                    <octave>5</octave>
                </pitch>
                <duration>2</duration>
                <voice>1</voice>
                <type>quarter</type>
                <stem>down</stem>
                <lyric number="1">
                    <syllabic>begin</syllabic>
                    <text>ev</text>
                </lyric>
            </note>
            <note default-y="-5.00" default-x="237.72">
                <pitch>
                    <step>E</step>
                    <octave>5</octave>
                </pitch>
                <duration>2</duration>
                <voice>1</voice>
                <type>quarter</type>
                <stem>down</stem>
                <lyric number="1">
                    <syllabic>middle</syllabic>
                    <text>'ry</text>
                </lyric>
            </note>
        </measure>
        <measure width="141.13" number="32">
            <barline location="left">
                <ending type="start" number="1"></ending>
            </barline>
            <harmony print-frame="no">
                <root>
                    <root-step>C</root-step>
                </root>
                <kind text="">major</kind>
            </harmony>
            <note default-y="-15.00" default-x="34.46">
                <pitch>
                    <step>C</step>
                    <octave>5</octave>
                </pitch>
                <duration>8</duration>
                <tie type="start"/>
                <voice>1</voice>
                <type>whole</type>
                <notations>
                    <tied type="start"/>
                </notations>
                <lyric number="1">
                    <syllabic>end</syllabic>
                    <text>thing.</text>
                </lyric>
            </note>
            <barline location="right">
                <ending type="stop" number="1"></ending>
            </barline>
        </measure>
        <measure width="309.77" number="33">
            <harmony print-frame="no">
                <root>
                    <root-step>D</root-step>
                </root>
                <kind text="m7">minor-seventh</kind>
            </harmony>
            <note default-y="-15.00" default-x="15.00">
                <pitch>
                    <step>C</step>
                    <octave>5</octave>
                </pitch>
                <duration>2</duration>
                <tie type="stop"/>
                <voice>1</voice>
                <type>quarter</type>
                <stem>down</stem>
                <notations>
                    <tied type="stop"/>
                </notations>
            </note>
            <note>
                <rest/>
                <duration>2</duration>
                <voice>1</voice>
                <type>quarter</type>
            </note>
            <harmony print-frame="no">
                <root>
                    <root-step>G</root-step>
                </root>
                <kind text="7">dominant</kind>
            </harmony>
            <note default-y="-5.00" default-x="160.46">
                <pitch>
                    <step>E</step>
                    <octave>5</octave>
                </pitch>
                <duration>3</duration>
                <voice>1</voice>
                <type>quarter</type>
                <dot/>
                <stem>down</stem>
                <lyric number="1">
                    <syllabic>single</syllabic>
                    <text>You're</text>
                </lyric>
            </note>
            <note default-y="-10.00" default-x="249.15">
                <pitch>
                    <step>D</step>
                    <octave>5</octave>
                </pitch>
                <duration>1</duration>
                <voice>1</voice>
                <type>eighth</type>
                <stem>down</stem>
                <lyric number="1">
                    <syllabic>single</syllabic>
                    <text>my</text>
                </lyric>
            </note>
            <barline location="right">
                <bar-style>light-heavy</bar-style>
                <repeat direction="backward"/>
            </barline>
        </measure>
        <measure width="141.13" number="34">
            <barline location="left">
                <ending type="start" number="2"></ending>
            </barline>
            <harmony print-frame="no">
                <root>
                    <root-step>C</root-step>
                </root>
                <kind text="6">major-sixth</kind>
            </harmony>
            <note default-y="-15.00" default-x="34.46">
                <pitch>
                    <step>C</step>
                    <octave>5</octave>
                </pitch>
                <duration>8</duration>
                <tie type="start"/>
                <voice>1</voice>
                <type>whole</type>
                <notations>
                    <tied type="start"/>
                </notations>
                <lyric number="1">
                    <syllabic>single</syllabic>
                    <text>thing.</text>
                </lyric>
            </note>
            <barline location="right">
                <ending type="stop" number="2"></ending>
            </barline>
        </measure>
        <measure width="147.84" number="35">
            <note default-y="-15.00" default-x="15.00">
                <pitch>
                    <step>C</step>
                    <octave>5</octave>
                </pitch>
                <duration>2</duration>
                <tie type="stop"/>
                <voice>1</voice>
                <type>quarter</type>
                <stem>down</stem>
                <notations>
                    <tied type="stop"/>
                </notations>
            </note>
            <note>
                <rest/>
                <duration>2</duration>
                <voice>1</voice>
                <type>quarter</type>
            </note>
            <note>
                <rest/>
                <duration>4</duration>
                <voice>1</voice>
                <type>half</type>
            </note>
            <barline location="right">
                <bar-style>light-heavy</bar-style>
            </barline>
        </measure>
    </part>
</score-partwise>
