<?xml version="1.0" encoding="UTF-8"?>
<!DOCTYPE score-partwise PUBLIC "-//Recordare//DTD MusicXML 2.0 Partwise//EN" "http://www.musicxml.org/dtds/partwise.dtd">
<score-partwise version="2.0">
    <work>
        <work-number></work-number>
        <work-title></work-title>
    </work>
    <movement-number></movement-number>
    <movement-title>ANDANTE MAESTOSO PER PIANOFORTE</movement-title>
    <identification>
        <creator type="composer">ALBERTO MARAFIOTI</creator>
        <creator type="poet"></creator>
        <rights></rights>
        <encoding>
            <software>Finale SongWriter for Windows</software>
            <software>Dolet Light for Finale SongWriter 2007</software>
            <encoding-date>2007-07-07</encoding-date>
            <software>ProxyMusic 2.0 c</software>
        </encoding>
        <source>http://wikifonia.org/node/554/revisions/730/view</source>
    </identification>
    <part-list>
        <score-part id="P1">
            <part-name>Piano</part-name>
            <score-instrument id="P1-I1">
                <instrument-name>Acoustic Grand Piano</instrument-name>
            </score-instrument>
            <midi-instrument id="P1-I1">
                <midi-channel>1</midi-channel>
                <midi-program>1</midi-program>
            </midi-instrument>
        </score-part>
    </part-list>
    <part id="P1">
        <measure number="1">
            <attributes>
                <divisions>24</divisions>
                <key>
                    <fifths>6</fifths>
                    <mode>major</mode>
                </key>
                <time>
                    <beats>3</beats>
                    <beat-type>4</beat-type>
                </time>
                <staves>2</staves>
                <clef number="1">
                    <sign>G</sign>
                    <line>2</line>
                </clef>
                <clef number="2">
                    <sign>F</sign>
                    <line>4</line>
                </clef>
            </attributes>
            <sound tempo="120"/>
            <direction>
                <direction-type>
                    <words font-size="12" font-family="JazzText" default-y="66" default-x="51">p sonoro </words>
                </direction-type>
                <staff>2</staff>
            </direction>
            <note>
                <rest/>
                <duration>48</duration>
                <voice>1</voice>
                <type>half</type>
                <staff>1</staff>
            </note>
            <note>
                <pitch>
                    <step>F</step>
                    <alter>1</alter>
                    <octave>4</octave>
                </pitch>
                <duration>24</duration>
                <voice>1</voice>
                <type>quarter</type>
                <stem>up</stem>
                <staff>1</staff>
                <notations>
                    <ornaments>
                        <mordent placement="above"/>
                    </ornaments>
                </notations>
            </note>
            <note>
                <chord/>
                <pitch>
                    <step>A</step>
                    <alter>1</alter>
                    <octave>4</octave>
                </pitch>
                <duration>24</duration>
                <voice>1</voice>
                <type>quarter</type>
                <stem>up</stem>
                <staff>1</staff>
            </note>
            <backup>
                <duration>72</duration>
            </backup>
            <note>
                <rest/>
                <duration>48</duration>
                <voice>3</voice>
                <type>half</type>
                <staff>2</staff>
            </note>
            <direction>
                <direction-type>
                    <octave-shift default-y="-73" type="up" size="8"/>
                </direction-type>
                <offset>-16</offset>
                <staff>2</staff>
            </direction>
            <note>
                <pitch>
                    <step>F</step>
                    <alter>1</alter>
                    <octave>1</octave>
                </pitch>
                <duration>24</duration>
                <voice>3</voice>
                <type>quarter</type>
                <stem>up</stem>
                <staff>2</staff>
                <notations>
                    <slur type="start" number="1"/>
                </notations>
            </note>
            <note>
                <chord/>
                <pitch>
                    <step>F</step>
                    <alter>1</alter>
                    <octave>2</octave>
                </pitch>
                <duration>24</duration>
                <voice>3</voice>
                <type>quarter</type>
                <stem>up</stem>
                <staff>2</staff>
            </note>
            <direction>
                <direction-type>
                    <octave-shift type="stop" size="8"/>
                </direction-type>
                <offset>-8</offset>
                <staff>2</staff>
            </direction>
        </measure>
        <measure number="2">
            <note>
                <pitch>
                    <step>G</step>
                    <alter>1</alter>
                    <octave>4</octave>
                </pitch>
                <duration>18</duration>
                <voice>1</voice>
                <type>eighth</type>
                <dot/>
                <stem>up</stem>
                <staff>1</staff>
                <beam number="1">begin</beam>
                <notations>
                    <slur type="start" number="2"/>
                </notations>
            </note>
            <note>
                <pitch>
                    <step>A</step>
                    <alter>1</alter>
                    <octave>4</octave>
                </pitch>
                <duration>6</duration>
                <voice>1</voice>
                <type>16th</type>
                <stem>up</stem>
                <staff>1</staff>
                <beam number="1">end</beam>
                <beam number="2">backward hook</beam>
            </note>
            <note>
                <pitch>
                    <step>B</step>
                    <octave>4</octave>
                </pitch>
                <duration>18</duration>
                <voice>1</voice>
                <type>eighth</type>
                <dot/>
                <stem>up</stem>
                <staff>1</staff>
                <beam number="1">begin</beam>
            </note>
            <note>
                <pitch>
                    <step>C</step>
                    <alter>1</alter>
                    <octave>5</octave>
                </pitch>
                <duration>6</duration>
                <voice>1</voice>
                <type>16th</type>
                <stem>up</stem>
                <staff>1</staff>
                <beam number="1">end</beam>
                <beam number="2">backward hook</beam>
                <notations>
                    <slur type="stop" number="2"/>
                </notations>
            </note>
            <note>
                <pitch>
                    <step>A</step>
                    <alter>1</alter>
                    <octave>4</octave>
                </pitch>
                <duration>24</duration>
                <voice>1</voice>
                <type>quarter</type>
                <stem>up</stem>
                <staff>1</staff>
                <notations>
                    <ornaments>
                        <mordent placement="above"/>
                    </ornaments>
                </notations>
            </note>
            <backup>
                <duration>72</duration>
            </backup>
            <note relative-x="6">
                <pitch>
                    <step>F</step>
                    <alter>1</alter>
                    <octave>4</octave>
                </pitch>
                <duration>24</duration>
                <voice>2</voice>
                <type>quarter</type>
                <stem>down</stem>
                <staff>1</staff>
            </note>
            <note>
                <pitch>
                    <step>F</step>
                    <alter>1</alter>
                    <octave>4</octave>
                </pitch>
                <duration>24</duration>
                <voice>2</voice>
                <type>quarter</type>
                <stem>down</stem>
                <staff>1</staff>
            </note>
            <note>
                <pitch>
                    <step>E</step>
                    <alter>1</alter>
                    <octave>4</octave>
                </pitch>
                <duration>24</duration>
                <voice>2</voice>
                <type>quarter</type>
                <stem>down</stem>
                <staff>1</staff>
            </note>
            <backup>
                <duration>72</duration>
            </backup>
            <note>
                <pitch>
                    <step>F</step>
                    <alter>1</alter>
                    <octave>3</octave>
                </pitch>
                <duration>24</duration>
                <voice>3</voice>
                <type>quarter</type>
                <stem>down</stem>
                <staff>2</staff>
            </note>
            <note>
                <chord/>
                <pitch>
                    <step>B</step>
                    <octave>3</octave>
                </pitch>
                <duration>24</duration>
                <voice>3</voice>
                <type>quarter</type>
                <stem>down</stem>
                <staff>2</staff>
            </note>
            <note>
                <chord/>
                <pitch>
                    <step>C</step>
                    <alter>1</alter>
                    <octave>4</octave>
                </pitch>
                <duration>24</duration>
                <voice>3</voice>
                <type>quarter</type>
                <stem>down</stem>
                <staff>2</staff>
            </note>
            <note>
                <pitch>
                    <step>F</step>
                    <alter>1</alter>
                    <octave>3</octave>
                </pitch>
                <duration>24</duration>
                <voice>3</voice>
                <type>quarter</type>
                <stem>down</stem>
                <staff>2</staff>
                <notations>
                    <slur type="stop" number="1"/>
                </notations>
            </note>
            <note>
                <chord/>
                <pitch>
                    <step>A</step>
                    <alter>1</alter>
                    <octave>3</octave>
                </pitch>
                <duration>24</duration>
                <voice>3</voice>
                <type>quarter</type>
                <stem>down</stem>
                <staff>2</staff>
            </note>
            <note>
                <chord/>
                <pitch>
                    <step>C</step>
                    <alter>1</alter>
                    <octave>4</octave>
                </pitch>
                <duration>24</duration>
                <voice>3</voice>
                <type>quarter</type>
                <stem>down</stem>
                <staff>2</staff>
            </note>
            <direction>
                <direction-type>
                    <octave-shift default-y="-77" type="up" size="8"/>
                </direction-type>
                <offset>-8</offset>
                <staff>2</staff>
            </direction>
            <note>
                <pitch>
                    <step>E</step>
                    <alter>1</alter>
                    <octave>1</octave>
                </pitch>
                <duration>24</duration>
                <voice>3</voice>
                <type>quarter</type>
                <stem>up</stem>
                <staff>2</staff>
                <notations>
                    <slur type="start" number="1"/>
                </notations>
            </note>
            <note>
                <chord/>
                <pitch>
                    <step>E</step>
                    <alter>1</alter>
                    <octave>2</octave>
                </pitch>
                <duration>24</duration>
                <voice>3</voice>
                <type>quarter</type>
                <stem>up</stem>
                <staff>2</staff>
            </note>
            <direction>
                <direction-type>
                    <octave-shift type="stop" size="8"/>
                </direction-type>
                <offset>-8</offset>
                <staff>2</staff>
            </direction>
        </measure>
        <measure number="3">
            <note>
                <pitch>
                    <step>G</step>
                    <alter>1</alter>
                    <octave>4</octave>
                </pitch>
                <duration>18</duration>
                <voice>1</voice>
                <type>eighth</type>
                <dot/>
                <stem>up</stem>
                <staff>1</staff>
                <beam number="1">begin</beam>
                <notations>
                    <slur type="start" number="2"/>
                </notations>
            </note>
            <note>
                <pitch>
                    <step>A</step>
                    <alter>1</alter>
                    <octave>4</octave>
                </pitch>
                <duration>6</duration>
                <voice>1</voice>
                <type>16th</type>
                <stem>up</stem>
                <staff>1</staff>
                <beam number="1">end</beam>
                <beam number="2">backward hook</beam>
            </note>
            <note>
                <pitch>
                    <step>B</step>
                    <octave>4</octave>
                </pitch>
                <duration>18</duration>
                <voice>1</voice>
                <type>eighth</type>
                <dot/>
                <stem>up</stem>
                <staff>1</staff>
                <beam number="1">begin</beam>
            </note>
            <note>
                <pitch>
                    <step>C</step>
                    <alter>1</alter>
                    <octave>5</octave>
                </pitch>
                <duration>6</duration>
                <voice>1</voice>
                <type>16th</type>
                <stem>up</stem>
                <staff>1</staff>
                <beam number="1">end</beam>
                <beam number="2">backward hook</beam>
                <notations>
                    <slur type="stop" number="2"/>
                </notations>
            </note>
            <note>
                <pitch>
                    <step>A</step>
                    <alter>1</alter>
                    <octave>4</octave>
                </pitch>
                <duration>24</duration>
                <voice>1</voice>
                <type>quarter</type>
                <stem>up</stem>
                <staff>1</staff>
                <notations>
                    <ornaments>
                        <mordent relative-x="10" placement="above"/>
                    </ornaments>
                </notations>
            </note>
            <backup>
                <duration>72</duration>
            </backup>
            <note>
                <pitch>
                    <step>E</step>
                    <alter>1</alter>
                    <octave>4</octave>
                </pitch>
                <duration>24</duration>
                <voice>2</voice>
                <type>quarter</type>
                <stem>down</stem>
                <staff>1</staff>
            </note>
            <note>
                <pitch>
                    <step>E</step>
                    <alter>1</alter>
                    <octave>4</octave>
                </pitch>
                <duration>24</duration>
                <voice>2</voice>
                <type>quarter</type>
                <stem>down</stem>
                <staff>1</staff>
            </note>
            <note>
                <pitch>
                    <step>E</step>
                    <octave>4</octave>
                </pitch>
                <duration>24</duration>
                <voice>2</voice>
                <type>quarter</type>
                <accidental>natural</accidental>
                <stem>down</stem>
                <staff>1</staff>
            </note>
            <backup>
                <duration>72</duration>
            </backup>
            <note>
                <pitch>
                    <step>E</step>
                    <alter>1</alter>
                    <octave>3</octave>
                </pitch>
                <duration>24</duration>
                <voice>3</voice>
                <type>quarter</type>
                <stem>down</stem>
                <staff>2</staff>
            </note>
            <note>
                <chord/>
                <pitch>
                    <step>A</step>
                    <alter>1</alter>
                    <octave>3</octave>
                </pitch>
                <duration>24</duration>
                <voice>3</voice>
                <type>quarter</type>
                <stem>down</stem>
                <staff>2</staff>
            </note>
            <note>
                <chord/>
                <pitch>
                    <step>C</step>
                    <alter>1</alter>
                    <octave>4</octave>
                </pitch>
                <duration>24</duration>
                <voice>3</voice>
                <type>quarter</type>
                <stem>down</stem>
                <staff>2</staff>
            </note>
            <note>
                <pitch>
                    <step>E</step>
                    <alter>1</alter>
                    <octave>3</octave>
                </pitch>
                <duration>24</duration>
                <voice>3</voice>
                <type>quarter</type>
                <stem>down</stem>
                <staff>2</staff>
                <notations>
                    <slur type="stop" number="1"/>
                </notations>
            </note>
            <note>
                <chord/>
                <pitch>
                    <step>G</step>
                    <alter>1</alter>
                    <octave>3</octave>
                </pitch>
                <duration>24</duration>
                <voice>3</voice>
                <type>quarter</type>
                <stem>down</stem>
                <staff>2</staff>
            </note>
            <note>
                <chord/>
                <pitch>
                    <step>C</step>
                    <alter>1</alter>
                    <octave>4</octave>
                </pitch>
                <duration>24</duration>
                <voice>3</voice>
                <type>quarter</type>
                <stem>down</stem>
                <staff>2</staff>
            </note>
            <direction>
                <direction-type>
                    <octave-shift default-y="-79" type="up" size="8"/>
                </direction-type>
                <offset>-10</offset>
                <staff>2</staff>
            </direction>
            <note>
                <pitch>
                    <step>E</step>
                    <octave>1</octave>
                </pitch>
                <duration>24</duration>
                <voice>3</voice>
                <type>quarter</type>
                <accidental>natural</accidental>
                <stem>up</stem>
                <staff>2</staff>
                <notations>
                    <slur type="start" number="1"/>
                </notations>
            </note>
            <note>
                <chord/>
                <pitch>
                    <step>E</step>
                    <octave>2</octave>
                </pitch>
                <duration>24</duration>
                <voice>3</voice>
                <type>quarter</type>
                <accidental>natural</accidental>
                <stem>up</stem>
                <staff>2</staff>
            </note>
            <direction>
                <direction-type>
                    <octave-shift type="stop" size="8"/>
                </direction-type>
                <offset>-4</offset>
                <staff>2</staff>
            </direction>
        </measure>
        <measure number="4">
            <note>
                <pitch>
                    <step>G</step>
                    <alter>1</alter>
                    <octave>4</octave>
                </pitch>
                <duration>18</duration>
                <voice>1</voice>
                <type>eighth</type>
                <dot/>
                <stem>up</stem>
                <staff>1</staff>
                <beam number="1">begin</beam>
                <notations>
                    <slur type="start" number="2"/>
                </notations>
            </note>
            <note>
                <pitch>
                    <step>A</step>
                    <alter>1</alter>
                    <octave>4</octave>
                </pitch>
                <duration>6</duration>
                <voice>1</voice>
                <type>16th</type>
                <stem>up</stem>
                <staff>1</staff>
                <beam number="1">end</beam>
                <beam number="2">backward hook</beam>
            </note>
            <note>
                <pitch>
                    <step>B</step>
                    <octave>4</octave>
                </pitch>
                <duration>18</duration>
                <voice>1</voice>
                <type>eighth</type>
                <dot/>
                <stem>up</stem>
                <staff>1</staff>
                <beam number="1">begin</beam>
            </note>
            <note>
                <pitch>
                    <step>A</step>
                    <alter>1</alter>
                    <octave>4</octave>
                </pitch>
                <duration>6</duration>
                <voice>1</voice>
                <type>16th</type>
                <stem>up</stem>
                <staff>1</staff>
                <beam number="1">end</beam>
                <beam number="2">backward hook</beam>
                <notations>
                    <slur type="stop" number="2"/>
                </notations>
            </note>
            <note>
                <pitch>
                    <step>G</step>
                    <alter>1</alter>
                    <octave>4</octave>
                </pitch>
                <duration>24</duration>
                <voice>1</voice>
                <type>quarter</type>
                <stem>up</stem>
                <staff>1</staff>
                <notations>
                    <ornaments>
                        <mordent placement="above"/>
                    </ornaments>
                </notations>
            </note>
            <backup>
                <duration>72</duration>
            </backup>
            <note>
                <pitch>
                    <step>E</step>
                    <octave>4</octave>
                </pitch>
                <duration>24</duration>
                <voice>2</voice>
                <type>quarter</type>
                <accidental>natural</accidental>
                <stem>down</stem>
                <staff>1</staff>
            </note>
            <note>
                <pitch>
                    <step>E</step>
                    <octave>4</octave>
                </pitch>
                <duration>24</duration>
                <voice>2</voice>
                <type>quarter</type>
                <stem>down</stem>
                <staff>1</staff>
            </note>
            <note>
                <pitch>
                    <step>D</step>
                    <alter>1</alter>
                    <octave>4</octave>
                </pitch>
                <duration>24</duration>
                <voice>2</voice>
                <type>quarter</type>
                <stem>down</stem>
                <staff>1</staff>
            </note>
            <backup>
                <duration>72</duration>
            </backup>
            <note>
                <pitch>
                    <step>E</step>
                    <octave>3</octave>
                </pitch>
                <duration>24</duration>
                <voice>3</voice>
                <type>quarter</type>
                <accidental>natural</accidental>
                <stem>down</stem>
                <staff>2</staff>
            </note>
            <note>
                <chord/>
                <pitch>
                    <step>A</step>
                    <alter>1</alter>
                    <octave>3</octave>
                </pitch>
                <duration>24</duration>
                <voice>3</voice>
                <type>quarter</type>
                <stem>down</stem>
                <staff>2</staff>
            </note>
            <note>
                <chord/>
                <pitch>
                    <step>C</step>
                    <alter>1</alter>
                    <octave>4</octave>
                </pitch>
                <duration>24</duration>
                <voice>3</voice>
                <type>quarter</type>
                <stem>down</stem>
                <staff>2</staff>
            </note>
            <note>
                <pitch>
                    <step>E</step>
                    <octave>3</octave>
                </pitch>
                <duration>24</duration>
                <voice>3</voice>
                <type>quarter</type>
                <stem>down</stem>
                <staff>2</staff>
                <notations>
                    <slur type="stop" number="1"/>
                </notations>
            </note>
            <note>
                <chord/>
                <pitch>
                    <step>G</step>
                    <alter>1</alter>
                    <octave>3</octave>
                </pitch>
                <duration>24</duration>
                <voice>3</voice>
                <type>quarter</type>
                <stem>down</stem>
                <staff>2</staff>
            </note>
            <note>
                <chord/>
                <pitch>
                    <step>C</step>
                    <alter>1</alter>
                    <octave>4</octave>
                </pitch>
                <duration>24</duration>
                <voice>3</voice>
                <type>quarter</type>
                <stem>down</stem>
                <staff>2</staff>
            </note>
            <direction>
                <direction-type>
                    <octave-shift default-y="-80" type="up" size="8"/>
                </direction-type>
                <offset>-11</offset>
                <staff>2</staff>
            </direction>
            <note>
                <pitch>
                    <step>D</step>
                    <alter>1</alter>
                    <octave>1</octave>
                </pitch>
                <duration>24</duration>
                <voice>3</voice>
                <type>quarter</type>
                <stem>up</stem>
                <staff>2</staff>
                <notations>
                    <slur type="start" number="1"/>
                </notations>
            </note>
            <note>
                <chord/>
                <pitch>
                    <step>D</step>
                    <alter>1</alter>
                    <octave>2</octave>
                </pitch>
                <duration>24</duration>
                <voice>3</voice>
                <type>quarter</type>
                <stem>up</stem>
                <staff>2</staff>
            </note>
            <direction>
                <direction-type>
                    <octave-shift type="stop" size="8"/>
                </direction-type>
                <offset>-7</offset>
                <staff>2</staff>
            </direction>
        </measure>
        <measure number="5">
            <note>
                <pitch>
                    <step>F</step>
                    <alter>1</alter>
                    <octave>4</octave>
                </pitch>
                <duration>18</duration>
                <voice>1</voice>
                <type>eighth</type>
                <dot/>
                <stem>up</stem>
                <staff>1</staff>
                <beam number="1">begin</beam>
                <notations>
                    <slur type="start" number="2"/>
                </notations>
            </note>
            <note>
                <pitch>
                    <step>G</step>
                    <alter>1</alter>
                    <octave>4</octave>
                </pitch>
                <duration>6</duration>
                <voice>1</voice>
                <type>16th</type>
                <stem>up</stem>
                <staff>1</staff>
                <beam number="1">end</beam>
                <beam number="2">backward hook</beam>
            </note>
            <note>
                <pitch>
                    <step>A</step>
                    <alter>1</alter>
                    <octave>4</octave>
                </pitch>
                <duration>18</duration>
                <voice>1</voice>
                <type>eighth</type>
                <dot/>
                <stem>up</stem>
                <staff>1</staff>
                <beam number="1">begin</beam>
            </note>
            <note>
                <pitch>
                    <step>G</step>
                    <alter>1</alter>
                    <octave>4</octave>
                </pitch>
                <duration>6</duration>
                <voice>1</voice>
                <type>16th</type>
                <stem>up</stem>
                <staff>1</staff>
                <beam number="1">end</beam>
                <beam number="2">backward hook</beam>
                <notations>
                    <slur type="stop" number="2"/>
                </notations>
            </note>
            <note>
                <pitch>
                    <step>F</step>
                    <alter>1</alter>
                    <octave>4</octave>
                </pitch>
                <duration>24</duration>
                <voice>1</voice>
                <type>quarter</type>
                <stem>up</stem>
                <staff>1</staff>
                <notations>
                    <ornaments>
                        <mordent placement="above"/>
                    </ornaments>
                </notations>
            </note>
            <backup>
                <duration>72</duration>
            </backup>
            <note>
                <pitch>
                    <step>D</step>
                    <alter>1</alter>
                    <octave>4</octave>
                </pitch>
                <duration>24</duration>
                <voice>2</voice>
                <type>quarter</type>
                <stem>down</stem>
                <staff>1</staff>
            </note>
            <note>
                <pitch>
                    <step>D</step>
                    <alter>1</alter>
                    <octave>4</octave>
                </pitch>
                <duration>24</duration>
                <voice>2</voice>
                <type>quarter</type>
                <stem>down</stem>
                <staff>1</staff>
            </note>
            <note>
                <pitch>
                    <step>D</step>
                    <octave>4</octave>
                </pitch>
                <duration>24</duration>
                <voice>2</voice>
                <type>quarter</type>
                <accidental>natural</accidental>
                <stem>down</stem>
                <staff>1</staff>
            </note>
            <backup>
                <duration>72</duration>
            </backup>
            <note>
                <pitch>
                    <step>D</step>
                    <alter>1</alter>
                    <octave>3</octave>
                </pitch>
                <duration>24</duration>
                <voice>3</voice>
                <type>quarter</type>
                <stem>down</stem>
                <staff>2</staff>
            </note>
            <note>
                <chord/>
                <pitch>
                    <step>G</step>
                    <alter>1</alter>
                    <octave>3</octave>
                </pitch>
                <duration>24</duration>
                <voice>3</voice>
                <type>quarter</type>
                <stem>down</stem>
                <staff>2</staff>
            </note>
            <note>
                <chord/>
                <pitch>
                    <step>B</step>
                    <octave>3</octave>
                </pitch>
                <duration>24</duration>
                <voice>3</voice>
                <type>quarter</type>
                <stem>down</stem>
                <staff>2</staff>
            </note>
            <note>
                <pitch>
                    <step>D</step>
                    <alter>1</alter>
                    <octave>3</octave>
                </pitch>
                <duration>24</duration>
                <voice>3</voice>
                <type>quarter</type>
                <stem>down</stem>
                <staff>2</staff>
                <notations>
                    <slur type="stop" number="1"/>
                </notations>
            </note>
            <note>
                <chord/>
                <pitch>
                    <step>F</step>
                    <alter>1</alter>
                    <octave>3</octave>
                </pitch>
                <duration>24</duration>
                <voice>3</voice>
                <type>quarter</type>
                <stem>down</stem>
                <staff>2</staff>
            </note>
            <note>
                <chord/>
                <pitch>
                    <step>B</step>
                    <octave>3</octave>
                </pitch>
                <duration>24</duration>
                <voice>3</voice>
                <type>quarter</type>
                <stem>down</stem>
                <staff>2</staff>
            </note>
            <direction>
                <direction-type>
                    <octave-shift default-y="-82" type="up" size="8"/>
                </direction-type>
                <offset>-14</offset>
                <staff>2</staff>
            </direction>
            <note>
                <pitch>
                    <step>D</step>
                    <octave>1</octave>
                </pitch>
                <duration>24</duration>
                <voice>3</voice>
                <type>quarter</type>
                <accidental>natural</accidental>
                <stem>up</stem>
                <staff>2</staff>
                <notations>
                    <slur type="start" number="1"/>
                </notations>
            </note>
            <note>
                <chord/>
                <pitch>
                    <step>D</step>
                    <octave>2</octave>
                </pitch>
                <duration>24</duration>
                <voice>3</voice>
                <type>quarter</type>
                <accidental>natural</accidental>
                <stem>up</stem>
                <staff>2</staff>
            </note>
            <direction>
                <direction-type>
                    <octave-shift type="stop" size="8"/>
                </direction-type>
                <offset>-10</offset>
                <staff>2</staff>
            </direction>
        </measure>
        <measure number="6">
            <print new-system="yes"/>
            <note>
                <pitch>
                    <step>E</step>
                    <alter>1</alter>
                    <octave>4</octave>
                </pitch>
                <duration>18</duration>
                <voice>1</voice>
                <type>eighth</type>
                <dot/>
                <stem>up</stem>
                <staff>1</staff>
                <beam number="1">begin</beam>
                <notations>
                    <slur type="start" number="2"/>
                </notations>
            </note>
            <note>
                <pitch>
                    <step>F</step>
                    <alter>1</alter>
                    <octave>4</octave>
                </pitch>
                <duration>6</duration>
                <voice>1</voice>
                <type>16th</type>
                <stem>up</stem>
                <staff>1</staff>
                <beam number="1">end</beam>
                <beam number="2">backward hook</beam>
            </note>
            <note>
                <pitch>
                    <step>G</step>
                    <alter>1</alter>
                    <octave>4</octave>
                </pitch>
                <duration>18</duration>
                <voice>1</voice>
                <type>eighth</type>
                <dot/>
                <stem>up</stem>
                <staff>1</staff>
                <beam number="1">begin</beam>
            </note>
            <note>
                <pitch>
                    <step>A</step>
                    <alter>1</alter>
                    <octave>4</octave>
                </pitch>
                <duration>6</duration>
                <voice>1</voice>
                <type>16th</type>
                <stem>up</stem>
                <staff>1</staff>
                <beam number="1">end</beam>
                <beam number="2">backward hook</beam>
                <notations>
                    <slur type="stop" number="2"/>
                </notations>
            </note>
            <note>
                <pitch>
                    <step>F</step>
                    <alter>1</alter>
                    <octave>4</octave>
                </pitch>
                <duration>24</duration>
                <voice>1</voice>
                <type>quarter</type>
                <stem>up</stem>
                <staff>1</staff>
                <notations>
                    <ornaments>
                        <mordent placement="above"/>
                    </ornaments>
                </notations>
            </note>
            <backup>
                <duration>72</duration>
            </backup>
            <note relative-x="6">
                <pitch>
                    <step>D</step>
                    <octave>4</octave>
                </pitch>
                <duration>24</duration>
                <voice>2</voice>
                <type>quarter</type>
                <accidental>natural</accidental>
                <stem>down</stem>
                <staff>1</staff>
            </note>
            <note>
                <pitch>
                    <step>D</step>
                    <octave>4</octave>
                </pitch>
                <duration>24</duration>
                <voice>2</voice>
                <type>quarter</type>
                <stem>down</stem>
                <staff>1</staff>
            </note>
            <note>
                <pitch>
                    <step>C</step>
                    <alter>1</alter>
                    <octave>4</octave>
                </pitch>
                <duration>24</duration>
                <voice>2</voice>
                <type>quarter</type>
                <stem>down</stem>
                <staff>1</staff>
            </note>
            <backup>
                <duration>72</duration>
            </backup>
            <note>
                <pitch>
                    <step>D</step>
                    <octave>3</octave>
                </pitch>
                <duration>24</duration>
                <voice>3</voice>
                <type>quarter</type>
                <accidental>natural</accidental>
                <stem>down</stem>
                <staff>2</staff>
            </note>
            <note>
                <chord/>
                <pitch>
                    <step>G</step>
                    <alter>1</alter>
                    <octave>3</octave>
                </pitch>
                <duration>24</duration>
                <voice>3</voice>
                <type>quarter</type>
                <stem>down</stem>
                <staff>2</staff>
            </note>
            <note>
                <chord/>
                <pitch>
                    <step>B</step>
                    <octave>3</octave>
                </pitch>
                <duration>24</duration>
                <voice>3</voice>
                <type>quarter</type>
                <stem>down</stem>
                <staff>2</staff>
            </note>
            <note>
                <pitch>
                    <step>D</step>
                    <octave>3</octave>
                </pitch>
                <duration>24</duration>
                <voice>3</voice>
                <type>quarter</type>
                <stem>down</stem>
                <staff>2</staff>
                <notations>
                    <slur type="stop" number="1"/>
                </notations>
            </note>
            <note>
                <chord/>
                <pitch>
                    <step>F</step>
                    <alter>1</alter>
                    <octave>3</octave>
                </pitch>
                <duration>24</duration>
                <voice>3</voice>
                <type>quarter</type>
                <stem>down</stem>
                <staff>2</staff>
            </note>
            <note>
                <chord/>
                <pitch>
                    <step>B</step>
                    <octave>3</octave>
                </pitch>
                <duration>24</duration>
                <voice>3</voice>
                <type>quarter</type>
                <stem>down</stem>
                <staff>2</staff>
            </note>
            <direction>
                <direction-type>
                    <octave-shift default-y="-84" type="up" size="8"/>
                </direction-type>
                <offset>-13</offset>
                <staff>2</staff>
            </direction>
            <note>
                <pitch>
                    <step>C</step>
                    <alter>1</alter>
                    <octave>1</octave>
                </pitch>
                <duration>24</duration>
                <voice>3</voice>
                <type>quarter</type>
                <stem>up</stem>
                <staff>2</staff>
                <notations>
                    <slur type="start" number="1"/>
                </notations>
            </note>
            <note>
                <chord/>
                <pitch>
                    <step>C</step>
                    <alter>1</alter>
                    <octave>2</octave>
                </pitch>
                <duration>24</duration>
                <voice>3</voice>
                <type>quarter</type>
                <stem>up</stem>
                <staff>2</staff>
            </note>
            <direction>
                <direction-type>
                    <octave-shift type="stop" size="8"/>
                </direction-type>
                <offset>-10</offset>
                <staff>2</staff>
            </direction>
        </measure>
        <measure number="7">
            <note>
                <pitch>
                    <step>E</step>
                    <alter>1</alter>
                    <octave>4</octave>
                </pitch>
                <duration>18</duration>
                <voice>1</voice>
                <type>eighth</type>
                <dot/>
                <stem>up</stem>
                <staff>1</staff>
                <beam number="1">begin</beam>
                <notations>
                    <slur type="start" number="2"/>
                </notations>
            </note>
            <note>
                <pitch>
                    <step>F</step>
                    <alter>1</alter>
                    <octave>4</octave>
                </pitch>
                <duration>6</duration>
                <voice>1</voice>
                <type>16th</type>
                <stem>up</stem>
                <staff>1</staff>
                <beam number="1">end</beam>
                <beam number="2">backward hook</beam>
            </note>
            <note>
                <pitch>
                    <step>G</step>
                    <alter>1</alter>
                    <octave>4</octave>
                </pitch>
                <duration>18</duration>
                <voice>1</voice>
                <type>eighth</type>
                <dot/>
                <stem>up</stem>
                <staff>1</staff>
                <beam number="1">begin</beam>
            </note>
            <note>
                <pitch>
                    <step>A</step>
                    <alter>1</alter>
                    <octave>4</octave>
                </pitch>
                <duration>6</duration>
                <voice>1</voice>
                <type>16th</type>
                <stem>up</stem>
                <staff>1</staff>
                <beam number="1">end</beam>
                <beam number="2">backward hook</beam>
                <notations>
                    <slur type="stop" number="2"/>
                </notations>
            </note>
            <note>
                <pitch>
                    <step>G</step>
                    <alter>1</alter>
                    <octave>4</octave>
                </pitch>
                <duration>24</duration>
                <tie type="start"/>
                <voice>1</voice>
                <type>quarter</type>
                <stem>up</stem>
                <staff>1</staff>
                <notations>
                    <tied orientation="over" type="start"/>
                </notations>
            </note>
            <backup>
                <duration>72</duration>
            </backup>
            <note>
                <pitch>
                    <step>C</step>
                    <alter>1</alter>
                    <octave>4</octave>
                </pitch>
                <duration>24</duration>
                <voice>2</voice>
                <type>quarter</type>
                <stem>down</stem>
                <staff>1</staff>
            </note>
            <note>
                <pitch>
                    <step>C</step>
                    <alter>1</alter>
                    <octave>4</octave>
                </pitch>
                <duration>24</duration>
                <voice>2</voice>
                <type>quarter</type>
                <stem>down</stem>
                <staff>1</staff>
            </note>
            <note>
                <pitch>
                    <step>C</step>
                    <alter>1</alter>
                    <octave>4</octave>
                </pitch>
                <duration>24</duration>
                <tie type="start"/>
                <voice>2</voice>
                <type>quarter</type>
                <stem>down</stem>
                <staff>1</staff>
                <notations>
                    <tied orientation="under" type="start"/>
                </notations>
            </note>
            <backup>
                <duration>72</duration>
            </backup>
            <note>
                <pitch>
                    <step>C</step>
                    <alter>1</alter>
                    <octave>3</octave>
                </pitch>
                <duration>24</duration>
                <voice>3</voice>
                <type>quarter</type>
                <stem>down</stem>
                <staff>2</staff>
            </note>
            <note>
                <chord/>
                <pitch>
                    <step>G</step>
                    <alter>1</alter>
                    <octave>3</octave>
                </pitch>
                <duration>24</duration>
                <voice>3</voice>
                <type>quarter</type>
                <stem>down</stem>
                <staff>2</staff>
            </note>
            <note>
                <chord/>
                <pitch>
                    <step>B</step>
                    <octave>3</octave>
                </pitch>
                <duration>24</duration>
                <voice>3</voice>
                <type>quarter</type>
                <stem>down</stem>
                <staff>2</staff>
            </note>
            <note>
                <pitch>
                    <step>C</step>
                    <alter>1</alter>
                    <octave>3</octave>
                </pitch>
                <duration>24</duration>
                <voice>3</voice>
                <type>quarter</type>
                <stem>down</stem>
                <staff>2</staff>
                <notations>
                    <slur type="stop" number="1"/>
                </notations>
            </note>
            <note>
                <chord/>
                <pitch>
                    <step>F</step>
                    <alter>1</alter>
                    <octave>3</octave>
                </pitch>
                <duration>24</duration>
                <voice>3</voice>
                <type>quarter</type>
                <stem>down</stem>
                <staff>2</staff>
            </note>
            <note>
                <chord/>
                <pitch>
                    <step>B</step>
                    <octave>3</octave>
                </pitch>
                <duration>24</duration>
                <voice>3</voice>
                <type>quarter</type>
                <stem>down</stem>
                <staff>2</staff>
            </note>
            <direction>
                <direction-type>
                    <octave-shift default-y="-84" type="up" size="8"/>
                </direction-type>
                <offset>-10</offset>
                <staff>2</staff>
            </direction>
            <note>
                <pitch>
                    <step>C</step>
                    <alter>1</alter>
                    <octave>1</octave>
                </pitch>
                <duration>18</duration>
                <voice>3</voice>
                <type>eighth</type>
                <dot/>
                <stem>up</stem>
                <staff>2</staff>
                <beam number="1">begin</beam>
            </note>
            <note>
                <chord/>
                <pitch>
                    <step>C</step>
                    <alter>1</alter>
                    <octave>2</octave>
                </pitch>
                <duration>18</duration>
                <voice>3</voice>
                <type>eighth</type>
                <dot/>
                <stem>up</stem>
                <staff>2</staff>
            </note>
            <note>
                <pitch>
                    <step>F</step>
                    <alter>1</alter>
                    <octave>1</octave>
                </pitch>
                <duration>6</duration>
                <voice>3</voice>
                <type>16th</type>
                <stem>up</stem>
                <staff>2</staff>
                <beam number="1">end</beam>
                <beam number="2">backward hook</beam>
                <notations>
                    <slur type="start" number="1"/>
                </notations>
            </note>
            <note>
                <chord/>
                <pitch>
                    <step>F</step>
                    <alter>1</alter>
                    <octave>2</octave>
                </pitch>
                <duration>6</duration>
                <voice>3</voice>
                <type>16th</type>
                <stem>up</stem>
                <staff>2</staff>
            </note>
            <direction>
                <direction-type>
                    <octave-shift type="stop" size="8"/>
                </direction-type>
                <staff>2</staff>
            </direction>
        </measure>
        <measure number="8">
            <note>
                <pitch>
                    <step>G</step>
                    <alter>1</alter>
                    <octave>4</octave>
                </pitch>
                <duration>48</duration>
                <tie type="stop"/>
                <voice>1</voice>
                <type>half</type>
                <stem>up</stem>
                <staff>1</staff>
                <notations>
                    <tied type="stop"/>
                </notations>
            </note>
            <note>
                <pitch>
                    <step>F</step>
                    <alter>1</alter>
                    <octave>4</octave>
                </pitch>
                <duration>24</duration>
                <voice>1</voice>
                <type>quarter</type>
                <stem>up</stem>
                <staff>1</staff>
                <notations>
                    <technical>
                        <down-bow placement="above"/>
                        <down-bow placement="below"/>
                    </technical>
                </notations>
            </note>
            <backup>
                <duration>72</duration>
            </backup>
            <note>
                <pitch>
                    <step>C</step>
                    <alter>1</alter>
                    <octave>4</octave>
                </pitch>
                <duration>72</duration>
                <tie type="stop"/>
                <voice>2</voice>
                <type>half</type>
                <dot/>
                <stem>down</stem>
                <staff>1</staff>
                <notations>
                    <tied type="stop"/>
                </notations>
            </note>
            <backup>
                <duration>72</duration>
            </backup>
            <note>
                <pitch>
                    <step>G</step>
                    <alter>1</alter>
                    <octave>3</octave>
                </pitch>
                <duration>48</duration>
                <voice>3</voice>
                <type>half</type>
                <stem>up</stem>
                <staff>2</staff>
            </note>
            <note>
                <chord/>
                <pitch>
                    <step>B</step>
                    <octave>3</octave>
                </pitch>
                <duration>48</duration>
                <voice>3</voice>
                <type>half</type>
                <stem>up</stem>
                <staff>2</staff>
            </note>
            <note>
                <pitch>
                    <step>F</step>
                    <alter>1</alter>
                    <octave>3</octave>
                </pitch>
                <duration>24</duration>
                <voice>3</voice>
                <type>quarter</type>
                <stem>up</stem>
                <staff>2</staff>
                <notations>
                    <slur type="stop" number="1"/>
                </notations>
            </note>
            <note>
                <chord/>
                <pitch>
                    <step>A</step>
                    <alter>1</alter>
                    <octave>3</octave>
                </pitch>
                <duration>24</duration>
                <voice>3</voice>
                <type>quarter</type>
                <stem>up</stem>
                <staff>2</staff>
            </note>
            <backup>
                <duration>72</duration>
            </backup>
            <note>
                <pitch>
                    <step>C</step>
                    <alter>1</alter>
                    <octave>3</octave>
                </pitch>
                <duration>72</duration>
                <voice>4</voice>
                <type>half</type>
                <dot/>
                <stem>down</stem>
                <staff>2</staff>
            </note>
        </measure>
        <measure number="9">
            <attributes>
                <time symbol="common">
                    <beats>4</beats>
                    <beat-type>4</beat-type>
                </time>
                <clef number="1">
                    <sign>F</sign>
                    <line>4</line>
                </clef>
            </attributes>
            <note>
                <pitch>
                    <step>G</step>
                    <alter>1</alter>
                    <octave>2</octave>
                </pitch>
                <duration>24</duration>
                <voice>1</voice>
                <type>quarter</type>
                <stem>up</stem>
                <staff>1</staff>
            </note>
            <note>
                <chord/>
                <pitch>
                    <step>G</step>
                    <alter>1</alter>
                    <octave>3</octave>
                </pitch>
                <duration>24</duration>
                <voice>1</voice>
                <type>quarter</type>
                <stem>up</stem>
                <staff>1</staff>
            </note>
            <note>
                <pitch>
                    <step>F</step>
                    <alter>1</alter>
                    <octave>3</octave>
                </pitch>
                <duration>18</duration>
                <voice>1</voice>
                <type>eighth</type>
                <dot/>
                <stem>down</stem>
                <staff>1</staff>
                <beam number="1">begin</beam>
                <notations>
                    <slur type="start" number="1"/>
                </notations>
            </note>
            <note>
                <chord/>
                <pitch>
                    <step>A</step>
                    <alter>1</alter>
                    <octave>3</octave>
                </pitch>
                <duration>18</duration>
                <voice>1</voice>
                <type>eighth</type>
                <dot/>
                <stem>down</stem>
                <staff>1</staff>
            </note>
            <note>
                <pitch>
                    <step>E</step>
                    <alter>1</alter>
                    <octave>3</octave>
                </pitch>
                <duration>6</duration>
                <voice>1</voice>
                <type>16th</type>
                <stem>down</stem>
                <staff>1</staff>
                <beam number="1">end</beam>
                <beam number="2">backward hook</beam>
                <notations>
                    <slur type="stop" number="1"/>
                </notations>
            </note>
            <note>
                <chord/>
                <pitch>
                    <step>G</step>
                    <alter>1</alter>
                    <octave>3</octave>
                </pitch>
                <duration>6</duration>
                <voice>1</voice>
                <type>16th</type>
                <stem>down</stem>
                <staff>1</staff>
            </note>
            <note>
                <pitch>
                    <step>F</step>
                    <alter>1</alter>
                    <octave>3</octave>
                </pitch>
                <duration>18</duration>
                <voice>1</voice>
                <type>eighth</type>
                <dot/>
                <stem>down</stem>
                <staff>1</staff>
                <beam number="1">begin</beam>
            </note>
            <note>
                <chord/>
                <pitch>
                    <step>A</step>
                    <alter>1</alter>
                    <octave>3</octave>
                </pitch>
                <duration>18</duration>
                <voice>1</voice>
                <type>eighth</type>
                <dot/>
                <stem>down</stem>
                <staff>1</staff>
            </note>
            <note>
                <pitch>
                    <step>F</step>
                    <alter>1</alter>
                    <octave>3</octave>
                </pitch>
                <duration>6</duration>
                <voice>1</voice>
                <type>16th</type>
                <stem>down</stem>
                <staff>1</staff>
                <beam number="1">end</beam>
                <beam number="2">backward hook</beam>
            </note>
            <note>
                <chord/>
                <pitch>
                    <step>B</step>
                    <alter>1</alter>
                    <octave>3</octave>
                </pitch>
                <duration>6</duration>
                <voice>1</voice>
                <type>16th</type>
                <accidental>sharp</accidental>
                <stem>down</stem>
                <staff>1</staff>
            </note>
            <note>
                <pitch>
                    <step>F</step>
                    <alter>1</alter>
                    <octave>3</octave>
                </pitch>
                <duration>24</duration>
                <voice>1</voice>
                <type>quarter</type>
                <stem>down</stem>
                <staff>1</staff>
                <notations>
                    <slur type="start" number="1"/>
                </notations>
            </note>
            <note>
                <chord/>
                <pitch>
                    <step>B</step>
                    <alter>1</alter>
                    <octave>3</octave>
                </pitch>
                <duration>24</duration>
                <voice>1</voice>
                <type>quarter</type>
                <stem>down</stem>
                <staff>1</staff>
            </note>
            <backup>
                <duration>96</duration>
            </backup>
            <direction>
                <direction-type>
                    <octave-shift relative-x="-27" default-y="-97" type="up" size="8"/>
                </direction-type>
                <staff>2</staff>
            </direction>
            <note>
                <pitch>
                    <step>G</step>
                    <alter>1</alter>
                    <octave>1</octave>
                </pitch>
                <duration>24</duration>
                <voice>3</voice>
                <type>quarter</type>
                <stem>up</stem>
                <staff>2</staff>
                <notations>
                    <slur type="start" number="2"/>
                </notations>
            </note>
            <note>
                <chord/>
                <pitch>
                    <step>G</step>
                    <alter>1</alter>
                    <octave>2</octave>
                </pitch>
                <duration>24</duration>
                <voice>3</voice>
                <type>quarter</type>
                <stem>up</stem>
                <staff>2</staff>
            </note>
            <note>
                <pitch>
                    <step>F</step>
                    <alter>1</alter>
                    <octave>1</octave>
                </pitch>
                <duration>24</duration>
                <voice>3</voice>
                <type>quarter</type>
                <stem>up</stem>
                <staff>2</staff>
            </note>
            <note>
                <chord/>
                <pitch>
                    <step>F</step>
                    <alter>1</alter>
                    <octave>2</octave>
                </pitch>
                <duration>24</duration>
                <voice>3</voice>
                <type>quarter</type>
                <stem>up</stem>
                <staff>2</staff>
            </note>
            <note>
                <pitch>
                    <step>D</step>
                    <alter>1</alter>
                    <octave>1</octave>
                </pitch>
                <duration>24</duration>
                <voice>3</voice>
                <type>quarter</type>
                <stem>up</stem>
                <staff>2</staff>
            </note>
            <note>
                <chord/>
                <pitch>
                    <step>D</step>
                    <alter>1</alter>
                    <octave>2</octave>
                </pitch>
                <duration>24</duration>
                <voice>3</voice>
                <type>quarter</type>
                <stem>up</stem>
                <staff>2</staff>
            </note>
            <note>
                <pitch>
                    <step>C</step>
                    <alter>1</alter>
                    <octave>1</octave>
                </pitch>
                <duration>24</duration>
                <tie type="start"/>
                <voice>3</voice>
                <type>quarter</type>
                <stem>up</stem>
                <staff>2</staff>
                <notations>
                    <tied type="start"/>
                </notations>
            </note>
            <note>
                <chord/>
                <pitch>
                    <step>C</step>
                    <alter>1</alter>
                    <octave>2</octave>
                </pitch>
                <duration>24</duration>
                <tie type="start"/>
                <voice>3</voice>
                <type>quarter</type>
                <stem>up</stem>
                <staff>2</staff>
                <notations>
                    <tied type="start"/>
                </notations>
            </note>
        </measure>
        <measure number="10">
            <attributes>
                <time>
                    <beats>3</beats>
                    <beat-type>4</beat-type>
                </time>
                <clef number="1">
                    <sign>G</sign>
                    <line>2</line>
                </clef>
            </attributes>
            <direction>
                <direction-type>
                    <words font-size="12" font-family="JazzText" default-y="51" default-x="9">1</words>
                </direction-type>
                <staff>1</staff>
            </direction>
            <note>
                <pitch>
                    <step>C</step>
                    <alter>1</alter>
                    <octave>5</octave>
                </pitch>
                <duration>48</duration>
                <voice>1</voice>
                <type>half</type>
                <stem>up</stem>
                <staff>1</staff>
                <notations>
                    <slur type="stop" number="1"/>
                </notations>
            </note>
            <note>
                <pitch>
                    <step>B</step>
                    <octave>4</octave>
                </pitch>
                <duration>24</duration>
                <voice>1</voice>
                <type>quarter</type>
                <stem>up</stem>
                <staff>1</staff>
                <notations>
                    <slur type="start" number="1"/>
                </notations>
            </note>
            <backup>
                <duration>72</duration>
            </backup>
            <note>
                <pitch>
                    <step>C</step>
                    <alter>1</alter>
                    <octave>4</octave>
                </pitch>
                <duration>48</duration>
                <voice>2</voice>
                <type>half</type>
                <stem>down</stem>
                <staff>1</staff>
            </note>
            <note>
                <pitch>
                    <step>B</step>
                    <octave>3</octave>
                </pitch>
                <duration>8</duration>
                <voice>2</voice>
                <type>eighth</type>
                <time-modification>
                    <actual-notes>3</actual-notes>
                    <normal-notes>2</normal-notes>
                </time-modification>
                <stem>down</stem>
                <staff>1</staff>
                <beam number="1">begin</beam>
                <notations>
                    <tuplet placement="below" type="start" number="1"/>
                </notations>
            </note>
            <note>
                <pitch>
                    <step>C</step>
                    <alter>1</alter>
                    <octave>4</octave>
                </pitch>
                <duration>8</duration>
                <voice>2</voice>
                <type>eighth</type>
                <time-modification>
                    <actual-notes>3</actual-notes>
                    <normal-notes>2</normal-notes>
                </time-modification>
                <stem>down</stem>
                <staff>1</staff>
                <beam number="1">continue</beam>
            </note>
            <note>
                <pitch>
                    <step>G</step>
                    <alter>1</alter>
                    <octave>4</octave>
                </pitch>
                <duration>8</duration>
                <voice>2</voice>
                <type>eighth</type>
                <time-modification>
                    <actual-notes>3</actual-notes>
                    <normal-notes>2</normal-notes>
                </time-modification>
                <stem>down</stem>
                <staff>1</staff>
                <beam number="1">end</beam>
                <notations>
                    <tuplet type="stop" number="1"/>
                </notations>
            </note>
            <backup>
                <duration>72</duration>
            </backup>
            <note>
                <pitch>
                    <step>C</step>
                    <alter>1</alter>
                    <octave>1</octave>
                </pitch>
                <duration>24</duration>
                <tie type="stop"/>
                <tie type="start"/>
                <voice>3</voice>
                <type>quarter</type>
                <stem>up</stem>
                <staff>2</staff>
                <notations>
                    <tied type="stop"/>
                    <tied type="start"/>
                </notations>
            </note>
            <note>
                <chord/>
                <pitch>
                    <step>C</step>
                    <alter>1</alter>
                    <octave>2</octave>
                </pitch>
                <duration>24</duration>
                <tie type="stop"/>
                <tie type="start"/>
                <voice>3</voice>
                <type>quarter</type>
                <stem>up</stem>
                <staff>2</staff>
                <notations>
                    <tied type="stop"/>
                    <tied type="start"/>
                </notations>
            </note>
            <note>
                <pitch>
                    <step>C</step>
                    <alter>1</alter>
                    <octave>1</octave>
                </pitch>
                <duration>48</duration>
                <tie type="stop"/>
                <voice>3</voice>
                <type>half</type>
                <stem>up</stem>
                <staff>2</staff>
                <notations>
                    <tied type="stop"/>
                    <slur type="stop" number="2"/>
                </notations>
            </note>
            <note>
                <chord/>
                <pitch>
                    <step>C</step>
                    <alter>1</alter>
                    <octave>2</octave>
                </pitch>
                <duration>48</duration>
                <tie type="stop"/>
                <voice>3</voice>
                <type>half</type>
                <stem>up</stem>
                <staff>2</staff>
                <notations>
                    <tied type="stop"/>
                </notations>
            </note>
            <direction>
                <direction-type>
                    <octave-shift type="stop" size="8"/>
                </direction-type>
                <offset>-23</offset>
                <staff>2</staff>
            </direction>
            <barline location="right">
                <bar-style>light-heavy</bar-style>
                <repeat direction="backward"/>
            </barline>
        </measure>
        <measure number="11">
            <print new-system="yes"/>
            <attributes>
                <clef number="1">
                    <sign>F</sign>
                    <line>4</line>
                </clef>
            </attributes>
            <direction>
                <direction-type>
                    <words font-size="12" font-family="JazzText" default-y="50" default-x="114">2</words>
                </direction-type>
                <staff>1</staff>
            </direction>
            <note>
                <pitch>
                    <step>C</step>
                    <alter>1</alter>
                    <octave>4</octave>
                </pitch>
                <duration>48</duration>
                <voice>1</voice>
                <type>half</type>
                <stem>up</stem>
                <staff>1</staff>
                <notations>
                    <slur type="stop" number="1"/>
                </notations>
            </note>
            <note>
                <pitch>
                    <step>B</step>
                    <octave>3</octave>
                </pitch>
                <duration>12</duration>
                <voice>1</voice>
                <type>eighth</type>
                <stem>up</stem>
                <staff>1</staff>
                <beam number="1">begin</beam>
            </note>
            <note>
                <pitch>
                    <step>C</step>
                    <alter>1</alter>
                    <octave>4</octave>
                </pitch>
                <duration>12</duration>
                <voice>1</voice>
                <type>eighth</type>
                <stem>up</stem>
                <staff>1</staff>
                <beam number="1">end</beam>
            </note>
            <backup>
                <duration>72</duration>
            </backup>
            <note>
                <pitch>
                    <step>E</step>
                    <alter>1</alter>
                    <octave>3</octave>
                </pitch>
                <duration>72</duration>
                <voice>2</voice>
                <type>half</type>
                <dot/>
                <stem>down</stem>
                <staff>1</staff>
            </note>
            <backup>
                <duration>72</duration>
            </backup>
            <direction>
                <direction-type>
                    <octave-shift relative-x="-6" default-y="-96" type="up" size="8"/>
                </direction-type>
                <staff>2</staff>
            </direction>
            <note>
                <pitch>
                    <step>C</step>
                    <alter>1</alter>
                    <octave>1</octave>
                </pitch>
                <duration>72</duration>
                <voice>3</voice>
                <type>half</type>
                <dot/>
                <stem>up</stem>
                <staff>2</staff>
            </note>
            <note>
                <chord/>
                <pitch>
                    <step>C</step>
                    <alter>1</alter>
                    <octave>2</octave>
                </pitch>
                <duration>72</duration>
                <voice>3</voice>
                <type>half</type>
                <dot/>
                <stem>up</stem>
                <staff>2</staff>
            </note>
        </measure>
        <measure number="12">
            <note>
                <pitch>
                    <step>B</step>
                    <octave>3</octave>
                </pitch>
                <duration>48</duration>
                <voice>1</voice>
                <type>half</type>
                <stem>up</stem>
                <staff>1</staff>
            </note>
            <note>
                <pitch>
                    <step>C</step>
                    <alter>1</alter>
                    <octave>4</octave>
                </pitch>
                <duration>12</duration>
                <voice>1</voice>
                <type>eighth</type>
                <stem>up</stem>
                <staff>1</staff>
                <beam number="1">begin</beam>
            </note>
            <note>
                <pitch>
                    <step>B</step>
                    <octave>3</octave>
                </pitch>
                <duration>12</duration>
                <voice>1</voice>
                <type>eighth</type>
                <stem>up</stem>
                <staff>1</staff>
                <beam number="1">end</beam>
            </note>
            <backup>
                <duration>72</duration>
            </backup>
            <note>
                <pitch>
                    <step>F</step>
                    <alter>1</alter>
                    <octave>3</octave>
                </pitch>
                <duration>72</duration>
                <tie type="start"/>
                <voice>2</voice>
                <type>half</type>
                <dot/>
                <stem>down</stem>
                <staff>1</staff>
                <notations>
                    <tied orientation="under" type="start"/>
                </notations>
            </note>
            <backup>
                <duration>72</duration>
            </backup>
            <note>
                <pitch>
                    <step>F</step>
                    <alter>1</alter>
                    <octave>1</octave>
                </pitch>
                <duration>72</duration>
                <tie type="start"/>
                <voice>3</voice>
                <type>half</type>
                <dot/>
                <stem>up</stem>
                <staff>2</staff>
                <notations>
                    <tied type="start"/>
                </notations>
            </note>
            <note>
                <chord/>
                <pitch>
                    <step>F</step>
                    <alter>1</alter>
                    <octave>2</octave>
                </pitch>
                <duration>72</duration>
                <tie type="start"/>
                <voice>3</voice>
                <type>half</type>
                <dot/>
                <stem>up</stem>
                <staff>2</staff>
                <notations>
                    <tied type="start"/>
                </notations>
            </note>
        </measure>
        <measure number="13">
            <note>
                <pitch>
                    <step>A</step>
                    <alter>1</alter>
                    <octave>3</octave>
                </pitch>
                <duration>72</duration>
                <tie type="start"/>
                <voice>1</voice>
                <type>half</type>
                <dot/>
                <stem>up</stem>
                <staff>1</staff>
                <notations>
                    <tied orientation="over" type="start"/>
                </notations>
            </note>
            <backup>
                <duration>72</duration>
            </backup>
            <note>
                <pitch>
                    <step>F</step>
                    <alter>1</alter>
                    <octave>3</octave>
                </pitch>
                <duration>72</duration>
                <tie type="stop"/>
                <tie type="start"/>
                <voice>2</voice>
                <type>half</type>
                <dot/>
                <stem>down</stem>
                <staff>1</staff>
                <notations>
                    <tied type="stop"/>
                    <tied orientation="under" type="start"/>
                </notations>
            </note>
            <backup>
                <duration>72</duration>
            </backup>
            <note>
                <pitch>
                    <step>F</step>
                    <alter>1</alter>
                    <octave>1</octave>
                </pitch>
                <duration>72</duration>
                <tie type="stop"/>
                <tie type="start"/>
                <voice>3</voice>
                <type>half</type>
                <dot/>
                <stem>up</stem>
                <staff>2</staff>
                <notations>
                    <tied type="stop"/>
                    <tied type="start"/>
                </notations>
            </note>
            <note>
                <chord/>
                <pitch>
                    <step>F</step>
                    <alter>1</alter>
                    <octave>2</octave>
                </pitch>
                <duration>72</duration>
                <tie type="stop"/>
                <tie type="start"/>
                <voice>3</voice>
                <type>half</type>
                <dot/>
                <stem>up</stem>
                <staff>2</staff>
                <notations>
                    <tied type="stop"/>
                    <tied type="start"/>
                </notations>
            </note>
            <direction>
                <direction-type>
                    <octave-shift type="stop" size="8"/>
                </direction-type>
                <offset>-55</offset>
                <staff>2</staff>
            </direction>
            <barline location="right">
                <bar-style>light-heavy</bar-style>
            </barline>
        </measure>
    </part>
</score-partwise>
