<?xml version="1.0" encoding="UTF-8"?>
<!DOCTYPE score-partwise PUBLIC "-//Recordare//DTD MusicXML 2.0 Partwise//EN" "http://www.musicxml.org/dtds/partwise.dtd">
<score-partwise version="2.0">
    <work>
        <work-number></work-number>
        <work-title></work-title>
    </work>
    <movement-number></movement-number>
    <movement-title>Light Music Work #2</movement-title>
    <identification>
        <creator type="composer">R.C.O Lomboy</creator>
        <creator type="poet"></creator>
        <rights>All Rights Reserved</rights>
        <encoding>
            <software>MuseScore 0.9.5</software>
            <encoding-date>2010-05-24</encoding-date>
            <software>ProxyMusic 2.0 c</software>
        </encoding>
        <source>http://wikifonia.org/node/5954/revisions/11329/view</source>
    </identification>
    <defaults>
        <scaling>
            <millimeters>5.7</millimeters>
            <tenths>40</tenths>
        </scaling>
        <page-layout>
            <page-height>2084.21</page-height>
            <page-width>1473.68</page-width>
            <page-margins type="both">
                <left-margin>70.1754</left-margin>
                <right-margin>70.1754</right-margin>
                <top-margin>70.1754</top-margin>
                <bottom-margin>140.351</bottom-margin>
            </page-margins>
        </page-layout>
    </defaults>
    <credit page="1">
        <credit-words font-size="12" default-y="1950.58" default-x="1403.51" justify="right" valign="top">..RR..</credit-words>
    </credit>
    <part-list>
        <score-part id="P1">
            <part-name></part-name>
            <score-instrument id="P1-I3">
                <instrument-name></instrument-name>
            </score-instrument>
            <midi-instrument id="P1-I3">
                <midi-channel>1</midi-channel>
                <midi-program>41</midi-program>
            </midi-instrument>
        </score-part>
    </part-list>
    <part id="P1">
        <measure width="365.22" number="1">
            <print>
                <system-layout>
                    <system-margins>
                        <left-margin>-0.00</left-margin>
                        <right-margin>-0.00</right-margin>
                    </system-margins>
                    <top-system-distance>180.00</top-system-distance>
                </system-layout>
            </print>
            <attributes>
                <divisions>480</divisions>
                <key>
                    <fifths>0</fifths>
                    <mode>major</mode>
                </key>
                <time>
                    <beats>4</beats>
                    <beat-type>4</beat-type>
                </time>
                <clef>
                    <sign>G</sign>
                    <line>2</line>
                </clef>
            </attributes>
            <note default-y="-50.00" default-x="78.08">
                <pitch>
                    <step>C</step>
                    <octave>4</octave>
                </pitch>
                <duration>480</duration>
                <voice>1</voice>
                <type>quarter</type>
                <stem>up</stem>
            </note>
            <note default-y="-50.00" default-x="149.47">
                <pitch>
                    <step>C</step>
                    <octave>4</octave>
                </pitch>
                <duration>480</duration>
                <voice>1</voice>
                <type>quarter</type>
                <stem>up</stem>
            </note>
            <note default-y="-45.00" default-x="220.85">
                <pitch>
                    <step>D</step>
                    <octave>4</octave>
                </pitch>
                <duration>480</duration>
                <voice>1</voice>
                <type>quarter</type>
                <stem>up</stem>
            </note>
            <note default-y="-50.00" default-x="292.23">
                <pitch>
                    <step>C</step>
                    <octave>4</octave>
                </pitch>
                <duration>480</duration>
                <voice>1</voice>
                <type>quarter</type>
                <stem>up</stem>
            </note>
        </measure>
        <measure width="302.13" number="2">
            <note default-y="-55.00" default-x="15.00">
                <pitch>
                    <step>B</step>
                    <octave>3</octave>
                </pitch>
                <duration>480</duration>
                <voice>1</voice>
                <type>quarter</type>
                <stem>up</stem>
            </note>
            <note default-y="-55.00" default-x="86.38">
                <pitch>
                    <step>B</step>
                    <octave>3</octave>
                </pitch>
                <duration>480</duration>
                <voice>1</voice>
                <type>quarter</type>
                <stem>up</stem>
            </note>
            <note default-y="-45.00" default-x="157.77">
                <pitch>
                    <step>D</step>
                    <octave>4</octave>
                </pitch>
                <duration>480</duration>
                <voice>1</voice>
                <type>quarter</type>
                <stem>up</stem>
            </note>
            <note default-y="-50.00" default-x="229.15">
                <pitch>
                    <step>C</step>
                    <octave>4</octave>
                </pitch>
                <duration>480</duration>
                <voice>1</voice>
                <type>quarter</type>
                <stem>up</stem>
            </note>
        </measure>
        <measure width="302.13" number="3">
            <note default-y="-35.00" default-x="15.00">
                <pitch>
                    <step>F</step>
                    <octave>4</octave>
                </pitch>
                <duration>480</duration>
                <voice>1</voice>
                <type>quarter</type>
                <stem>up</stem>
            </note>
            <note default-y="-35.00" default-x="86.38">
                <pitch>
                    <step>F</step>
                    <octave>4</octave>
                </pitch>
                <duration>480</duration>
                <voice>1</voice>
                <type>quarter</type>
                <stem>up</stem>
            </note>
            <note default-y="-30.00" default-x="157.77">
                <pitch>
                    <step>G</step>
                    <octave>4</octave>
                </pitch>
                <duration>480</duration>
                <voice>1</voice>
                <type>quarter</type>
                <stem>up</stem>
            </note>
            <note default-y="-35.00" default-x="229.15">
                <pitch>
                    <step>F</step>
                    <octave>4</octave>
                </pitch>
                <duration>480</duration>
                <voice>1</voice>
                <type>quarter</type>
                <stem>up</stem>
            </note>
        </measure>
        <measure width="363.85" number="4">
            <note default-y="-30.00" default-x="15.00">
                <pitch>
                    <step>G</step>
                    <octave>4</octave>
                </pitch>
                <duration>480</duration>
                <voice>1</voice>
                <type>quarter</type>
                <stem>up</stem>
            </note>
            <note default-y="-20.00" default-x="88.11">
                <pitch>
                    <step>B</step>
                    <alter>-1</alter>
                    <octave>4</octave>
                </pitch>
                <duration>240</duration>
                <voice>1</voice>
                <type>eighth</type>
                <accidental>flat</accidental>
                <stem>up</stem>
                <beam number="1">begin</beam>
            </note>
            <note default-y="-25.00" default-x="133.80">
                <pitch>
                    <step>A</step>
                    <octave>4</octave>
                </pitch>
                <duration>240</duration>
                <voice>1</voice>
                <type>eighth</type>
                <stem>up</stem>
                <beam number="1">end</beam>
            </note>
            <note default-y="-30.00" default-x="179.49">
                <pitch>
                    <step>G</step>
                    <octave>4</octave>
                </pitch>
                <duration>240</duration>
                <voice>1</voice>
                <type>eighth</type>
                <stem>up</stem>
                <beam number="1">begin</beam>
            </note>
            <note default-y="-35.00" default-x="225.18">
                <pitch>
                    <step>F</step>
                    <octave>4</octave>
                </pitch>
                <duration>240</duration>
                <voice>1</voice>
                <type>eighth</type>
                <stem>up</stem>
                <beam number="1">continue</beam>
            </note>
            <note default-y="-40.00" default-x="270.87">
                <pitch>
                    <step>E</step>
                    <octave>4</octave>
                </pitch>
                <duration>240</duration>
                <voice>1</voice>
                <type>eighth</type>
                <stem>up</stem>
                <beam number="1">continue</beam>
            </note>
            <note default-y="-35.00" default-x="316.56">
                <pitch>
                    <step>F</step>
                    <octave>4</octave>
                </pitch>
                <duration>240</duration>
                <voice>1</voice>
                <type>eighth</type>
                <stem>up</stem>
                <beam number="1">end</beam>
            </note>
        </measure>
        <measure width="402.37" number="5">
            <print new-system="yes">
                <system-layout>
                    <system-margins>
                        <left-margin>-0.00</left-margin>
                        <right-margin>-0.00</right-margin>
                    </system-margins>
                    <system-distance>92.50</system-distance>
                </system-layout>
            </print>
            <note default-y="-30.00" default-x="53.18">
                <pitch>
                    <step>G</step>
                    <octave>4</octave>
                </pitch>
                <duration>240</duration>
                <voice>1</voice>
                <type>eighth</type>
                <stem>up</stem>
                <beam number="1">begin</beam>
            </note>
            <note default-y="-25.00" default-x="96.63">
                <pitch>
                    <step>A</step>
                    <octave>4</octave>
                </pitch>
                <duration>240</duration>
                <voice>1</voice>
                <type>eighth</type>
                <stem>up</stem>
                <beam number="1">continue</beam>
            </note>
            <note default-y="-40.00" default-x="140.08">
                <pitch>
                    <step>E</step>
                    <octave>4</octave>
                </pitch>
                <duration>240</duration>
                <voice>1</voice>
                <type>eighth</type>
                <stem>up</stem>
                <beam number="1">continue</beam>
            </note>
            <note default-y="-35.00" default-x="183.53">
                <pitch>
                    <step>F</step>
                    <octave>4</octave>
                </pitch>
                <duration>240</duration>
                <voice>1</voice>
                <type>eighth</type>
                <stem>up</stem>
                <beam number="1">end</beam>
            </note>
            <note default-y="-30.00" default-x="226.98">
                <pitch>
                    <step>G</step>
                    <octave>4</octave>
                </pitch>
                <duration>240</duration>
                <voice>1</voice>
                <type>eighth</type>
                <stem>up</stem>
                <beam number="1">begin</beam>
            </note>
            <note default-y="-35.00" default-x="270.43">
                <pitch>
                    <step>F</step>
                    <octave>4</octave>
                </pitch>
                <duration>240</duration>
                <voice>1</voice>
                <type>eighth</type>
                <stem>up</stem>
                <beam number="1">continue</beam>
            </note>
            <note default-y="-25.00" default-x="313.88">
                <pitch>
                    <step>A</step>
                    <octave>4</octave>
                </pitch>
                <duration>240</duration>
                <voice>1</voice>
                <type>eighth</type>
                <stem>up</stem>
                <beam number="1">continue</beam>
            </note>
            <note default-y="-40.00" default-x="357.32">
                <pitch>
                    <step>E</step>
                    <octave>4</octave>
                </pitch>
                <duration>240</duration>
                <voice>1</voice>
                <type>eighth</type>
                <stem>up</stem>
                <beam number="1">end</beam>
            </note>
        </measure>
        <measure width="250.51" number="6">
            <note default-y="-35.00" default-x="15.00">
                <pitch>
                    <step>F</step>
                    <octave>4</octave>
                </pitch>
                <duration>1920</duration>
                <voice>1</voice>
                <type>whole</type>
            </note>
        </measure>
        <measure width="366.81" number="7">
            <note default-y="-20.00" default-x="17.62">
                <pitch>
                    <step>B</step>
                    <alter>-1</alter>
                    <octave>4</octave>
                </pitch>
                <duration>240</duration>
                <voice>1</voice>
                <type>eighth</type>
                <accidental>flat</accidental>
                <stem>up</stem>
                <beam number="1">begin</beam>
            </note>
            <note default-y="-30.00" default-x="61.07">
                <pitch>
                    <step>G</step>
                    <octave>4</octave>
                </pitch>
                <duration>240</duration>
                <voice>1</voice>
                <type>eighth</type>
                <stem>up</stem>
                <beam number="1">continue</beam>
            </note>
            <note default-y="-25.00" default-x="104.52">
                <pitch>
                    <step>A</step>
                    <octave>4</octave>
                </pitch>
                <duration>240</duration>
                <voice>1</voice>
                <type>eighth</type>
                <stem>up</stem>
                <beam number="1">continue</beam>
            </note>
            <note default-y="-35.00" default-x="147.97">
                <pitch>
                    <step>F</step>
                    <octave>4</octave>
                </pitch>
                <duration>240</duration>
                <voice>1</voice>
                <type>eighth</type>
                <stem>up</stem>
                <beam number="1">end</beam>
            </note>
            <note default-y="-30.00" default-x="191.42">
                <pitch>
                    <step>G</step>
                    <octave>4</octave>
                </pitch>
                <duration>240</duration>
                <voice>1</voice>
                <type>eighth</type>
                <stem>up</stem>
                <beam number="1">begin</beam>
            </note>
            <note default-y="-25.00" default-x="234.87">
                <pitch>
                    <step>A</step>
                    <octave>4</octave>
                </pitch>
                <duration>240</duration>
                <voice>1</voice>
                <type>eighth</type>
                <stem>up</stem>
                <beam number="1">continue</beam>
            </note>
            <note default-y="-20.00" default-x="278.32">
                <pitch>
                    <step>B</step>
                    <alter>-1</alter>
                    <octave>4</octave>
                </pitch>
                <duration>240</duration>
                <voice>1</voice>
                <type>eighth</type>
                <stem>up</stem>
                <beam number="1">continue</beam>
            </note>
            <note default-y="-40.00" default-x="321.76">
                <pitch>
                    <step>E</step>
                    <octave>4</octave>
                </pitch>
                <duration>240</duration>
                <voice>1</voice>
                <type>eighth</type>
                <stem>up</stem>
                <beam number="1">end</beam>
            </note>
        </measure>
        <measure width="313.63" number="8">
            <note default-y="-35.00" default-x="15.00">
                <pitch>
                    <step>F</step>
                    <octave>4</octave>
                </pitch>
                <duration>720</duration>
                <voice>1</voice>
                <type>quarter</type>
                <dot/>
                <stem>up</stem>
            </note>
            <note default-y="-30.00" default-x="113.19">
                <pitch>
                    <step>G</step>
                    <octave>4</octave>
                </pitch>
                <duration>240</duration>
                <voice>1</voice>
                <type>eighth</type>
                <stem>up</stem>
            </note>
            <note default-y="-25.00" default-x="163.52">
                <pitch>
                    <step>A</step>
                    <octave>4</octave>
                </pitch>
                <duration>720</duration>
                <voice>1</voice>
                <type>quarter</type>
                <dot/>
                <stem>up</stem>
            </note>
            <note default-y="-30.00" default-x="261.71">
                <pitch>
                    <step>G</step>
                    <octave>4</octave>
                </pitch>
                <duration>240</duration>
                <voice>1</voice>
                <type>eighth</type>
                <stem>up</stem>
            </note>
        </measure>
        <measure width="310.62" number="9">
            <print new-system="yes">
                <system-layout>
                    <system-margins>
                        <left-margin>-0.00</left-margin>
                        <right-margin>-0.00</right-margin>
                    </system-margins>
                    <system-distance>92.50</system-distance>
                </system-layout>
            </print>
            <attributes>
                <key>
                    <fifths>-1</fifths>
                    <mode>major</mode>
                </key>
            </attributes>
            <note default-y="-40.00" default-x="67.30">
                <pitch>
                    <step>E</step>
                    <octave>4</octave>
                </pitch>
                <duration>480</duration>
                <voice>1</voice>
                <type>quarter</type>
                <stem>up</stem>
            </note>
            <note default-y="-35.00" default-x="149.21">
                <pitch>
                    <step>F</step>
                    <octave>4</octave>
                </pitch>
                <duration>1440</duration>
                <voice>1</voice>
                <type>half</type>
                <dot/>
                <stem>up</stem>
            </note>
        </measure>
        <measure width="360.80" number="10">
            <note default-y="-20.00" default-x="15.00">
                <pitch>
                    <step>B</step>
                    <alter>-1</alter>
                    <octave>4</octave>
                </pitch>
                <duration>240</duration>
                <voice>1</voice>
                <type>eighth</type>
                <stem>down</stem>
                <beam number="1">begin</beam>
            </note>
            <note default-y="-25.00" default-x="58.02">
                <pitch>
                    <step>A</step>
                    <octave>4</octave>
                </pitch>
                <duration>240</duration>
                <voice>1</voice>
                <type>eighth</type>
                <stem>down</stem>
                <beam number="1">continue</beam>
            </note>
            <note default-y="-20.00" default-x="101.05">
                <pitch>
                    <step>B</step>
                    <alter>-1</alter>
                    <octave>4</octave>
                </pitch>
                <duration>240</duration>
                <voice>1</voice>
                <type>eighth</type>
                <stem>down</stem>
                <beam number="1">continue</beam>
            </note>
            <note default-y="-15.00" default-x="144.07">
                <pitch>
                    <step>C</step>
                    <octave>5</octave>
                </pitch>
                <duration>240</duration>
                <voice>1</voice>
                <type>eighth</type>
                <stem>down</stem>
                <beam number="1">end</beam>
            </note>
            <note default-y="-10.00" default-x="187.10">
                <pitch>
                    <step>D</step>
                    <octave>5</octave>
                </pitch>
                <duration>240</duration>
                <voice>1</voice>
                <type>eighth</type>
                <stem>down</stem>
                <beam number="1">begin</beam>
            </note>
            <note default-y="-5.00" default-x="230.12">
                <pitch>
                    <step>E</step>
                    <octave>5</octave>
                </pitch>
                <duration>240</duration>
                <voice>1</voice>
                <type>eighth</type>
                <stem>down</stem>
                <beam number="1">continue</beam>
            </note>
            <note default-y="0.00" default-x="273.15">
                <pitch>
                    <step>F</step>
                    <octave>5</octave>
                </pitch>
                <duration>240</duration>
                <voice>1</voice>
                <type>eighth</type>
                <stem>down</stem>
                <beam number="1">continue</beam>
            </note>
            <note default-y="-35.00" default-x="316.17">
                <pitch>
                    <step>F</step>
                    <octave>4</octave>
                </pitch>
                <duration>240</duration>
                <voice>1</voice>
                <type>eighth</type>
                <stem>down</stem>
                <beam number="1">end</beam>
            </note>
        </measure>
        <measure width="318.32" number="11">
            <note default-y="-20.00" default-x="15.00">
                <pitch>
                    <step>B</step>
                    <alter>-1</alter>
                    <octave>4</octave>
                </pitch>
                <duration>240</duration>
                <voice>1</voice>
                <type>eighth</type>
                <stem>up</stem>
                <beam number="1">begin</beam>
            </note>
            <note default-y="-35.00" default-x="61.06">
                <pitch>
                    <step>F</step>
                    <octave>4</octave>
                </pitch>
                <duration>240</duration>
                <voice>1</voice>
                <type>eighth</type>
                <stem>up</stem>
                <beam number="1">end</beam>
            </note>
            <note default-y="-25.00" default-x="107.11">
                <pitch>
                    <step>A</step>
                    <octave>4</octave>
                </pitch>
                <duration>720</duration>
                <voice>1</voice>
                <type>quarter</type>
                <dot/>
                <stem>up</stem>
            </note>
            <note default-y="-35.00" default-x="196.97">
                <pitch>
                    <step>F</step>
                    <octave>4</octave>
                </pitch>
                <duration>240</duration>
                <voice>1</voice>
                <type>eighth</type>
                <stem>up</stem>
            </note>
            <note default-y="-30.00" default-x="243.03">
                <pitch>
                    <step>G</step>
                    <octave>4</octave>
                </pitch>
                <duration>480</duration>
                <tie type="start"/>
                <voice>1</voice>
                <type>quarter</type>
                <stem>up</stem>
                <notations>
                    <tied type="start"/>
                </notations>
            </note>
        </measure>
        <measure width="343.60" number="12">
            <note default-y="-30.00" default-x="15.00">
                <pitch>
                    <step>G</step>
                    <octave>4</octave>
                </pitch>
                <duration>480</duration>
                <tie type="stop"/>
                <voice>1</voice>
                <type>quarter</type>
                <stem>up</stem>
                <notations>
                    <tied type="stop"/>
                </notations>
            </note>
            <note default-y="-50.00" default-x="83.84">
                <pitch>
                    <step>C</step>
                    <octave>4</octave>
                </pitch>
                <duration>240</duration>
                <voice>1</voice>
                <type>eighth</type>
                <stem>up</stem>
                <beam number="1">begin</beam>
            </note>
            <note default-y="-55.00" default-x="126.87">
                <pitch>
                    <step>B</step>
                    <alter>-1</alter>
                    <octave>3</octave>
                </pitch>
                <duration>240</duration>
                <voice>1</voice>
                <type>eighth</type>
                <stem>up</stem>
                <beam number="1">end</beam>
            </note>
            <note default-y="-60.00" default-x="169.89">
                <pitch>
                    <step>A</step>
                    <octave>3</octave>
                </pitch>
                <duration>240</duration>
                <voice>1</voice>
                <type>eighth</type>
                <stem>up</stem>
                <beam number="1">begin</beam>
            </note>
            <note default-y="-45.00" default-x="212.92">
                <pitch>
                    <step>D</step>
                    <octave>4</octave>
                </pitch>
                <duration>240</duration>
                <voice>1</voice>
                <type>eighth</type>
                <stem>up</stem>
                <beam number="1">continue</beam>
            </note>
            <note default-y="-60.00" default-x="255.95">
                <pitch>
                    <step>A</step>
                    <octave>3</octave>
                </pitch>
                <duration>240</duration>
                <voice>1</voice>
                <type>eighth</type>
                <stem>up</stem>
                <beam number="1">continue</beam>
            </note>
            <note default-y="-55.00" default-x="298.97">
                <pitch>
                    <step>B</step>
                    <alter>-1</alter>
                    <octave>3</octave>
                </pitch>
                <duration>240</duration>
                <voice>1</voice>
                <type>eighth</type>
                <stem>up</stem>
                <beam number="1">end</beam>
            </note>
        </measure>
        <measure width="373.16" number="13">
            <print new-system="yes">
                <system-layout>
                    <system-margins>
                        <left-margin>-0.00</left-margin>
                        <right-margin>-0.00</right-margin>
                    </system-margins>
                    <system-distance>92.50</system-distance>
                </system-layout>
            </print>
            <note default-y="-50.00" default-x="67.30">
                <pitch>
                    <step>C</step>
                    <octave>4</octave>
                </pitch>
                <duration>1920</duration>
                <tie type="start"/>
                <voice>1</voice>
                <type>whole</type>
                <notations>
                    <tied type="start"/>
                </notations>
            </note>
        </measure>
        <measure width="320.86" number="14">
            <note default-y="-50.00" default-x="15.00">
                <pitch>
                    <step>C</step>
                    <octave>4</octave>
                </pitch>
                <duration>1920</duration>
                <tie type="stop"/>
                <voice>1</voice>
                <type>whole</type>
                <notations>
                    <tied type="stop"/>
                </notations>
            </note>
        </measure>
        <measure width="319.66" number="15">
            <note>
                <rest/>
                <duration>1920</duration>
                <voice>1</voice>
            </note>
        </measure>
        <measure width="319.66" number="16">
            <note>
                <rest/>
                <duration>1920</duration>
                <voice>1</voice>
            </note>
        </measure>
        <measure width="366.94" number="17">
            <print new-system="yes">
                <system-layout>
                    <system-margins>
                        <left-margin>-0.00</left-margin>
                        <right-margin>-0.00</right-margin>
                    </system-margins>
                    <system-distance>92.50</system-distance>
                </system-layout>
            </print>
            <note default-y="-25.00" default-x="67.30">
                <pitch>
                    <step>A</step>
                    <octave>4</octave>
                </pitch>
                <duration>480</duration>
                <voice>1</voice>
                <type>quarter</type>
                <stem>up</stem>
            </note>
            <note default-y="-30.00" default-x="149.52">
                <pitch>
                    <step>G</step>
                    <octave>4</octave>
                </pitch>
                <duration>240</duration>
                <voice>1</voice>
                <type>eighth</type>
                <stem>up</stem>
                <beam number="1">begin</beam>
            </note>
            <note default-y="-35.00" default-x="200.90">
                <pitch>
                    <step>F</step>
                    <octave>4</octave>
                </pitch>
                <duration>240</duration>
                <voice>1</voice>
                <type>eighth</type>
                <stem>up</stem>
                <beam number="1">end</beam>
            </note>
            <note default-y="-40.00" default-x="252.29">
                <pitch>
                    <step>E</step>
                    <octave>4</octave>
                </pitch>
                <duration>960</duration>
                <voice>1</voice>
                <type>half</type>
                <stem>up</stem>
            </note>
        </measure>
        <measure width="314.64" number="18">
            <note default-y="-45.00" default-x="15.00">
                <pitch>
                    <step>D</step>
                    <octave>4</octave>
                </pitch>
                <duration>480</duration>
                <voice>1</voice>
                <type>quarter</type>
                <stem>up</stem>
            </note>
            <note default-y="-50.00" default-x="97.22">
                <pitch>
                    <step>C</step>
                    <octave>4</octave>
                </pitch>
                <duration>240</duration>
                <voice>1</voice>
                <type>eighth</type>
                <stem>up</stem>
                <beam number="1">begin</beam>
            </note>
            <note default-y="-55.00" default-x="148.60">
                <pitch>
                    <step>B</step>
                    <alter>-1</alter>
                    <octave>3</octave>
                </pitch>
                <duration>240</duration>
                <voice>1</voice>
                <type>eighth</type>
                <stem>up</stem>
                <beam number="1">end</beam>
            </note>
            <note default-y="-60.00" default-x="199.99">
                <pitch>
                    <step>A</step>
                    <octave>3</octave>
                </pitch>
                <duration>960</duration>
                <voice>1</voice>
                <type>half</type>
                <stem>up</stem>
            </note>
        </measure>
        <measure width="382.72" number="19">
            <note default-y="-35.00" default-x="15.00">
                <pitch>
                    <step>F</step>
                    <octave>4</octave>
                </pitch>
                <duration>240</duration>
                <voice>1</voice>
                <type>eighth</type>
                <stem>up</stem>
                <beam number="1">begin</beam>
            </note>
            <note default-y="-20.00" default-x="60.76">
                <pitch>
                    <step>B</step>
                    <alter>-1</alter>
                    <octave>4</octave>
                </pitch>
                <duration>240</duration>
                <voice>1</voice>
                <type>eighth</type>
                <stem>up</stem>
                <beam number="1">continue</beam>
            </note>
            <note default-y="-25.00" default-x="106.53">
                <pitch>
                    <step>A</step>
                    <octave>4</octave>
                </pitch>
                <duration>240</duration>
                <voice>1</voice>
                <type>eighth</type>
                <stem>up</stem>
                <beam number="1">continue</beam>
            </note>
            <note default-y="-30.00" default-x="152.29">
                <pitch>
                    <step>G</step>
                    <octave>4</octave>
                </pitch>
                <duration>240</duration>
                <voice>1</voice>
                <type>eighth</type>
                <stem>up</stem>
                <beam number="1">end</beam>
            </note>
            <note default-y="-40.00" default-x="198.06">
                <pitch>
                    <step>E</step>
                    <octave>4</octave>
                </pitch>
                <duration>240</duration>
                <voice>1</voice>
                <type>eighth</type>
                <stem>up</stem>
                <beam number="1">begin</beam>
            </note>
            <note default-y="-30.00" default-x="243.82">
                <pitch>
                    <step>G</step>
                    <octave>4</octave>
                </pitch>
                <duration>240</duration>
                <voice>1</voice>
                <type>eighth</type>
                <stem>up</stem>
                <beam number="1">continue</beam>
            </note>
            <note default-y="-20.00" default-x="289.59">
                <pitch>
                    <step>B</step>
                    <alter>-1</alter>
                    <octave>4</octave>
                </pitch>
                <duration>240</duration>
                <voice>1</voice>
                <type>eighth</type>
                <stem>up</stem>
                <beam number="1">continue</beam>
            </note>
            <note default-y="-70.00" default-x="335.35">
                <pitch>
                    <step>F</step>
                    <octave>3</octave>
                </pitch>
                <duration>240</duration>
                <voice>1</voice>
                <type>eighth</type>
                <stem>up</stem>
                <beam number="1">end</beam>
            </note>
            <note default-y="-45.00" default-x="335.35">
                <chord/>
                <pitch>
                    <step>D</step>
                    <octave>4</octave>
                </pitch>
                <duration>240</duration>
                <voice>1</voice>
                <type>eighth</type>
                <stem>up</stem>
            </note>
            <note default-y="-35.00" default-x="335.35">
                <chord/>
                <pitch>
                    <step>F</step>
                    <octave>4</octave>
                </pitch>
                <duration>240</duration>
                <voice>1</voice>
                <type>eighth</type>
                <stem>up</stem>
            </note>
        </measure>
        <measure width="269.04" number="20">
            <note default-y="-30.00" default-x="15.00">
                <pitch>
                    <step>G</step>
                    <octave>4</octave>
                </pitch>
                <duration>1920</duration>
                <tie type="start"/>
                <voice>1</voice>
                <type>whole</type>
                <notations>
                    <tied type="start"/>
                </notations>
            </note>
        </measure>
        <measure width="98.82" number="21">
            <print new-system="yes">
                <system-layout>
                    <system-margins>
                        <left-margin>-0.00</left-margin>
                        <right-margin>1060.55</right-margin>
                    </system-margins>
                    <system-distance>92.50</system-distance>
                </system-layout>
            </print>
            <note default-y="-30.00" default-x="67.30">
                <pitch>
                    <step>G</step>
                    <octave>4</octave>
                </pitch>
                <duration>1920</duration>
                <tie type="stop"/>
                <tie type="start"/>
                <voice>1</voice>
                <type>whole</type>
                <notations>
                    <tied type="stop"/>
                    <tied type="start"/>
                </notations>
            </note>
        </measure>
        <measure width="46.52" number="22">
            <note default-y="-30.00" default-x="15.00">
                <pitch>
                    <step>G</step>
                    <octave>4</octave>
                </pitch>
                <duration>1920</duration>
                <tie type="stop"/>
                <tie type="start"/>
                <voice>1</voice>
                <type>whole</type>
                <notations>
                    <tied type="stop"/>
                    <tied type="start"/>
                </notations>
            </note>
        </measure>
        <measure width="46.52" number="23">
            <note default-y="-30.00" default-x="15.00">
                <pitch>
                    <step>G</step>
                    <octave>4</octave>
                </pitch>
                <duration>1920</duration>
                <tie type="stop"/>
                <voice>1</voice>
                <type>whole</type>
                <notations>
                    <tied type="stop"/>
                </notations>
            </note>
        </measure>
        <measure width="80.92" number="24">
            <note default-y="-30.00" default-x="15.00">
                <pitch>
                    <step>G</step>
                    <octave>4</octave>
                </pitch>
                <duration>480</duration>
                <voice>1</voice>
                <type>quarter</type>
                <stem>up</stem>
            </note>
            <note default-y="-40.00" default-x="32.20">
                <pitch>
                    <step>E</step>
                    <octave>4</octave>
                </pitch>
                <duration>480</duration>
                <voice>1</voice>
                <type>quarter</type>
                <stem>up</stem>
            </note>
            <note default-y="-35.00" default-x="49.40">
                <pitch>
                    <step>F</step>
                    <octave>4</octave>
                </pitch>
                <duration>960</duration>
                <voice>1</voice>
                <type>half</type>
                <stem>up</stem>
            </note>
            <barline location="right">
                <bar-style>light-heavy</bar-style>
            </barline>
        </measure>
    </part>
</score-partwise>
