<?xml version="1.0" encoding="UTF-8"?>
<!DOCTYPE score-partwise PUBLIC "-//Recordare//DTD MusicXML 2.0 Partwise//EN" "http://www.musicxml.org/dtds/partwise.dtd">
<score-partwise version="2.0">
    <work>
        <work-number></work-number>
        <work-title></work-title>
    </work>
    <movement-number></movement-number>
    <movement-title>Dolphin Dance</movement-title>
    <identification>
        <creator type="composer">Herbie Hancock</creator>
        <creator type="poet"></creator>
        <rights></rights>
        <encoding>
            <software>MuseScore 0.9.3</software>
            <encoding-date>2008-06-20</encoding-date>
            <software>ProxyMusic 2.0 c</software>
        </encoding>
        <source>http://wikifonia.org/node/601/revisions/7143/view</source>
    </identification>
    <part-list>
        <score-part id="P1">
            <part-name></part-name>
            <score-instrument id="P1-I3">
                <instrument-name></instrument-name>
            </score-instrument>
            <midi-instrument id="P1-I3">
                <midi-channel>1</midi-channel>
                <midi-program>1</midi-program>
            </midi-instrument>
        </score-part>
    </part-list>
    <part id="P1">
        <measure number="1">
            <attributes>
                <divisions>480</divisions>
                <key>
                    <fifths>0</fifths>
                    <mode>major</mode>
                </key>
                <time>
                    <beats>4</beats>
                    <beat-type>4</beat-type>
                </time>
                <clef>
                    <sign>G</sign>
                    <line>2</line>
                </clef>
            </attributes>
            <direction placement="above">
                <direction-type>
                    <words>Eb</words>
                </direction-type>
            </direction>
            <note>
                <rest/>
                <duration>960</duration>
                <voice>1</voice>
                <type>half</type>
            </note>
            <note>
                <pitch>
                    <step>G</step>
                    <octave>4</octave>
                </pitch>
                <duration>240</duration>
                <voice>1</voice>
                <type>eighth</type>
                <stem>up</stem>
                <beam number="1">begin</beam>
                <notations>
                    <slur type="start" number="1"/>
                </notations>
            </note>
            <note>
                <pitch>
                    <step>A</step>
                    <alter>-1</alter>
                    <octave>4</octave>
                </pitch>
                <duration>240</duration>
                <voice>1</voice>
                <type>eighth</type>
                <accidental>flat</accidental>
                <stem>up</stem>
                <beam number="1">continue</beam>
            </note>
            <note>
                <pitch>
                    <step>B</step>
                    <alter>-1</alter>
                    <octave>4</octave>
                </pitch>
                <duration>240</duration>
                <voice>1</voice>
                <type>eighth</type>
                <accidental>flat</accidental>
                <stem>down</stem>
                <beam number="1">continue</beam>
            </note>
            <note>
                <pitch>
                    <step>F</step>
                    <octave>4</octave>
                </pitch>
                <duration>240</duration>
                <tie type="start"/>
                <voice>1</voice>
                <type>eighth</type>
                <stem>up</stem>
                <beam number="1">end</beam>
                <notations>
                    <tied type="start"/>
                </notations>
            </note>
        </measure>
        <measure number="2">
            <direction placement="above">
                <direction-type>
                    <words>Bb-</words>
                </direction-type>
            </direction>
            <note>
                <pitch>
                    <step>F</step>
                    <octave>4</octave>
                </pitch>
                <duration>1920</duration>
                <tie type="stop"/>
                <voice>1</voice>
                <type>whole</type>
                <notations>
                    <tied type="stop"/>
                    <slur type="stop" number="1"/>
                </notations>
            </note>
        </measure>
        <measure number="3">
            <direction placement="above">
                <direction-type>
                    <words>Eb</words>
                </direction-type>
            </direction>
            <note>
                <rest/>
                <duration>960</duration>
                <voice>1</voice>
                <type>half</type>
            </note>
            <note>
                <pitch>
                    <step>G</step>
                    <octave>4</octave>
                </pitch>
                <duration>240</duration>
                <voice>1</voice>
                <type>eighth</type>
                <stem>up</stem>
                <beam number="1">begin</beam>
                <notations>
                    <slur type="start" number="1"/>
                </notations>
            </note>
            <note>
                <pitch>
                    <step>A</step>
                    <alter>-1</alter>
                    <octave>4</octave>
                </pitch>
                <duration>240</duration>
                <voice>1</voice>
                <type>eighth</type>
                <accidental>flat</accidental>
                <stem>up</stem>
                <beam number="1">continue</beam>
            </note>
            <note>
                <pitch>
                    <step>B</step>
                    <alter>-1</alter>
                    <octave>4</octave>
                </pitch>
                <duration>240</duration>
                <voice>1</voice>
                <type>eighth</type>
                <accidental>flat</accidental>
                <stem>down</stem>
                <beam number="1">continue</beam>
            </note>
            <note>
                <pitch>
                    <step>F</step>
                    <octave>4</octave>
                </pitch>
                <duration>240</duration>
                <tie type="start"/>
                <voice>1</voice>
                <type>eighth</type>
                <stem>up</stem>
                <beam number="1">end</beam>
                <notations>
                    <tied type="start"/>
                </notations>
            </note>
        </measure>
        <measure number="4">
            <harmony print-frame="no">
                <root>
                    <root-step>D</root-step>
                </root>
                <kind text="m7b5">half-diminished</kind>
            </harmony>
            <note>
                <pitch>
                    <step>F</step>
                    <octave>4</octave>
                </pitch>
                <duration>1920</duration>
                <tie type="stop"/>
                <voice>1</voice>
                <type>whole</type>
                <notations>
                    <tied type="stop"/>
                    <slur type="stop" number="1"/>
                </notations>
            </note>
            <direction placement="above">
                <direction-type>
                    <words>G7(#9)</words>
                </direction-type>
                <offset>-960</offset>
            </direction>
        </measure>
        <measure number="5">
            <print new-system="yes"/>
            <harmony print-frame="no">
                <root>
                    <root-step>C</root-step>
                </root>
                <kind text="m">minor</kind>
            </harmony>
            <note>
                <rest/>
                <duration>960</duration>
                <voice>1</voice>
                <type>half</type>
            </note>
            <note>
                <pitch>
                    <step>E</step>
                    <alter>-1</alter>
                    <octave>4</octave>
                </pitch>
                <duration>240</duration>
                <voice>1</voice>
                <type>eighth</type>
                <accidental>flat</accidental>
                <stem>up</stem>
                <beam number="1">begin</beam>
                <notations>
                    <slur type="start" number="1"/>
                </notations>
            </note>
            <note>
                <pitch>
                    <step>F</step>
                    <octave>4</octave>
                </pitch>
                <duration>240</duration>
                <voice>1</voice>
                <type>eighth</type>
                <stem>up</stem>
                <beam number="1">end</beam>
                <notations>
                    <slur type="stop" number="1"/>
                </notations>
            </note>
            <note>
                <rest/>
                <duration>240</duration>
                <voice>1</voice>
                <type>eighth</type>
            </note>
            <note>
                <pitch>
                    <step>G</step>
                    <octave>4</octave>
                </pitch>
                <duration>240</duration>
                <voice>1</voice>
                <type>eighth</type>
                <stem>up</stem>
            </note>
        </measure>
        <measure number="6">
            <direction placement="above">
                <direction-type>
                    <words>Ab7</words>
                </direction-type>
            </direction>
            <note>
                <pitch>
                    <step>D</step>
                    <octave>4</octave>
                </pitch>
                <duration>480</duration>
                <voice>1</voice>
                <type>quarter</type>
                <stem>up</stem>
                <notations>
                    <articulations>
                        <staccato/>
                    </articulations>
                </notations>
            </note>
            <note>
                <pitch>
                    <step>D</step>
                    <octave>4</octave>
                </pitch>
                <duration>1440</duration>
                <voice>1</voice>
                <type>half</type>
                <dot/>
                <stem>up</stem>
                <notations>
                    <articulations>
                        <tenuto/>
                    </articulations>
                </notations>
            </note>
        </measure>
        <measure number="7">
            <harmony print-frame="no">
                <root>
                    <root-step>C</root-step>
                </root>
                <kind text="m">minor</kind>
            </harmony>
            <note>
                <rest/>
                <duration>960</duration>
                <voice>1</voice>
                <type>half</type>
            </note>
            <note>
                <pitch>
                    <step>E</step>
                    <alter>-1</alter>
                    <octave>4</octave>
                </pitch>
                <duration>240</duration>
                <voice>1</voice>
                <type>eighth</type>
                <accidental>flat</accidental>
                <stem>up</stem>
                <beam number="1">begin</beam>
                <notations>
                    <slur type="start" number="1"/>
                </notations>
            </note>
            <note>
                <pitch>
                    <step>F</step>
                    <octave>4</octave>
                </pitch>
                <duration>240</duration>
                <voice>1</voice>
                <type>eighth</type>
                <stem>up</stem>
                <beam number="1">continue</beam>
            </note>
            <note>
                <pitch>
                    <step>G</step>
                    <octave>4</octave>
                </pitch>
                <duration>240</duration>
                <voice>1</voice>
                <type>eighth</type>
                <stem>up</stem>
                <beam number="1">continue</beam>
            </note>
            <note>
                <pitch>
                    <step>D</step>
                    <octave>4</octave>
                </pitch>
                <duration>240</duration>
                <tie type="start"/>
                <voice>1</voice>
                <type>eighth</type>
                <stem>up</stem>
                <beam number="1">end</beam>
                <notations>
                    <tied type="start"/>
                </notations>
            </note>
        </measure>
        <measure number="8">
            <harmony print-frame="no">
                <root>
                    <root-step>A</root-step>
                </root>
                <kind text="m">minor</kind>
            </harmony>
            <note>
                <pitch>
                    <step>D</step>
                    <octave>4</octave>
                </pitch>
                <duration>1440</duration>
                <tie type="stop"/>
                <voice>1</voice>
                <type>half</type>
                <dot/>
                <stem>up</stem>
                <notations>
                    <tied type="stop"/>
                </notations>
            </note>
            <harmony print-frame="no">
                <root>
                    <root-step>D</root-step>
                </root>
                <kind text="7">dominant</kind>
            </harmony>
            <note>
                <pitch>
                    <step>C</step>
                    <octave>4</octave>
                </pitch>
                <duration>480</duration>
                <voice>1</voice>
                <type>quarter</type>
                <stem>up</stem>
            </note>
        </measure>
        <measure number="9">
            <print new-system="yes"/>
            <harmony print-frame="no">
                <root>
                    <root-step>G</root-step>
                </root>
                <kind text="">major</kind>
            </harmony>
            <note>
                <pitch>
                    <step>B</step>
                    <octave>3</octave>
                </pitch>
                <duration>720</duration>
                <voice>1</voice>
                <type>quarter</type>
                <dot/>
                <stem>up</stem>
            </note>
            <note>
                <pitch>
                    <step>F</step>
                    <alter>1</alter>
                    <octave>4</octave>
                </pitch>
                <duration>240</duration>
                <tie type="start"/>
                <voice>1</voice>
                <type>eighth</type>
                <accidental>sharp</accidental>
                <stem>up</stem>
                <notations>
                    <tied type="start"/>
                </notations>
            </note>
            <note>
                <pitch>
                    <step>F</step>
                    <alter>1</alter>
                    <octave>4</octave>
                </pitch>
                <duration>960</duration>
                <tie type="stop"/>
                <tie type="start"/>
                <voice>1</voice>
                <type>half</type>
                <stem>up</stem>
                <notations>
                    <tied type="stop"/>
                    <tied type="start"/>
                </notations>
            </note>
        </measure>
        <measure number="10">
            <direction placement="above">
                <direction-type>
                    <words>Abm</words>
                </direction-type>
            </direction>
            <note>
                <pitch>
                    <step>F</step>
                    <alter>1</alter>
                    <octave>4</octave>
                </pitch>
                <duration>240</duration>
                <tie type="stop"/>
                <voice>1</voice>
                <type>eighth</type>
                <stem>up</stem>
                <notations>
                    <tied type="stop"/>
                    <slur type="stop" number="1"/>
                </notations>
            </note>
            <note>
                <pitch>
                    <step>G</step>
                    <alter>-1</alter>
                    <octave>4</octave>
                </pitch>
                <duration>480</duration>
                <voice>1</voice>
                <type>quarter</type>
                <accidental>flat</accidental>
                <stem>up</stem>
                <notations>
                    <articulations>
                        <staccato/>
                    </articulations>
                </notations>
            </note>
            <note>
                <pitch>
                    <step>G</step>
                    <alter>-1</alter>
                    <octave>4</octave>
                </pitch>
                <duration>240</duration>
                <voice>1</voice>
                <type>eighth</type>
                <stem>up</stem>
                <notations>
                    <slur type="start" number="1"/>
                </notations>
            </note>
            <note>
                <pitch>
                    <step>A</step>
                    <alter>-1</alter>
                    <octave>4</octave>
                </pitch>
                <duration>240</duration>
                <voice>1</voice>
                <type>eighth</type>
                <accidental>flat</accidental>
                <stem>up</stem>
                <beam number="1">begin</beam>
            </note>
            <note>
                <pitch>
                    <step>G</step>
                    <alter>-1</alter>
                    <octave>4</octave>
                </pitch>
                <duration>240</duration>
                <voice>1</voice>
                <type>eighth</type>
                <stem>up</stem>
                <beam number="1">continue</beam>
            </note>
            <note>
                <pitch>
                    <step>A</step>
                    <alter>-1</alter>
                    <octave>4</octave>
                </pitch>
                <duration>240</duration>
                <voice>1</voice>
                <type>eighth</type>
                <stem>up</stem>
                <beam number="1">continue</beam>
            </note>
            <note>
                <pitch>
                    <step>B</step>
                    <alter>-1</alter>
                    <octave>4</octave>
                </pitch>
                <duration>240</duration>
                <tie type="start"/>
                <voice>1</voice>
                <type>eighth</type>
                <accidental>flat</accidental>
                <stem>down</stem>
                <beam number="1">end</beam>
                <notations>
                    <tied type="start"/>
                </notations>
            </note>
        </measure>
        <measure number="11">
            <harmony print-frame="no">
                <root>
                    <root-step>F</root-step>
                </root>
                <kind text="m">minor</kind>
            </harmony>
            <note>
                <pitch>
                    <step>B</step>
                    <alter>-1</alter>
                    <octave>4</octave>
                </pitch>
                <duration>1920</duration>
                <tie type="stop"/>
                <tie type="start"/>
                <voice>1</voice>
                <type>whole</type>
                <notations>
                    <tied type="stop"/>
                    <tied type="start"/>
                </notations>
            </note>
        </measure>
        <measure number="12">
            <direction placement="above">
                <direction-type>
                    <words>Fm/Bb</words>
                </direction-type>
            </direction>
            <note>
                <pitch>
                    <step>B</step>
                    <alter>-1</alter>
                    <octave>4</octave>
                </pitch>
                <duration>960</duration>
                <tie type="stop"/>
                <voice>1</voice>
                <type>half</type>
                <stem>down</stem>
                <notations>
                    <tied type="stop"/>
                    <slur type="stop" number="1"/>
                </notations>
            </note>
            <note>
                <rest/>
                <duration>960</duration>
                <voice>1</voice>
                <type>half</type>
            </note>
        </measure>
        <measure number="13">
            <print new-system="yes"/>
            <harmony print-frame="no">
                <root>
                    <root-step>C</root-step>
                </root>
                <kind text="m">minor</kind>
            </harmony>
            <note>
                <pitch>
                    <step>G</step>
                    <octave>4</octave>
                </pitch>
                <duration>720</duration>
                <voice>1</voice>
                <type>quarter</type>
                <dot/>
                <stem>up</stem>
                <notations>
                    <slur type="start" number="1"/>
                </notations>
            </note>
            <note>
                <pitch>
                    <step>B</step>
                    <alter>-1</alter>
                    <octave>4</octave>
                </pitch>
                <duration>240</duration>
                <tie type="start"/>
                <voice>1</voice>
                <type>eighth</type>
                <accidental>flat</accidental>
                <stem>down</stem>
                <notations>
                    <tied type="start"/>
                </notations>
            </note>
            <note>
                <pitch>
                    <step>B</step>
                    <alter>-1</alter>
                    <octave>4</octave>
                </pitch>
                <duration>960</duration>
                <tie type="stop"/>
                <voice>1</voice>
                <type>half</type>
                <stem>down</stem>
                <notations>
                    <tied type="stop"/>
                </notations>
            </note>
        </measure>
        <measure number="14">
            <harmony print-frame="no">
                <root>
                    <root-step>C</root-step>
                </root>
                <kind text="m">minor</kind>
            </harmony>
            <note>
                <pitch>
                    <step>B</step>
                    <alter>-1</alter>
                    <octave>4</octave>
                </pitch>
                <duration>480</duration>
                <voice>1</voice>
                <type>quarter</type>
                <accidental>flat</accidental>
                <stem>down</stem>
                <notations>
                    <articulations>
                        <staccato/>
                        <tenuto/>
                    </articulations>
                </notations>
            </note>
            <note>
                <pitch>
                    <step>B</step>
                    <alter>-1</alter>
                    <octave>4</octave>
                </pitch>
                <duration>240</duration>
                <voice>1</voice>
                <type>eighth</type>
                <stem>down</stem>
                <beam number="1">begin</beam>
            </note>
            <note>
                <pitch>
                    <step>B</step>
                    <alter>-1</alter>
                    <octave>4</octave>
                </pitch>
                <duration>240</duration>
                <voice>1</voice>
                <type>eighth</type>
                <stem>down</stem>
                <beam number="1">end</beam>
            </note>
            <note>
                <pitch>
                    <step>C</step>
                    <octave>5</octave>
                </pitch>
                <duration>240</duration>
                <voice>1</voice>
                <type>eighth</type>
                <stem>down</stem>
                <beam number="1">begin</beam>
            </note>
            <note>
                <pitch>
                    <step>B</step>
                    <alter>-1</alter>
                    <octave>4</octave>
                </pitch>
                <duration>240</duration>
                <voice>1</voice>
                <type>eighth</type>
                <stem>down</stem>
                <beam number="1">continue</beam>
            </note>
            <note>
                <pitch>
                    <step>C</step>
                    <octave>5</octave>
                </pitch>
                <duration>240</duration>
                <voice>1</voice>
                <type>eighth</type>
                <stem>down</stem>
                <beam number="1">continue</beam>
            </note>
            <note>
                <pitch>
                    <step>D</step>
                    <octave>5</octave>
                </pitch>
                <duration>240</duration>
                <tie type="start"/>
                <voice>1</voice>
                <type>eighth</type>
                <stem>down</stem>
                <beam number="1">end</beam>
                <notations>
                    <tied type="start"/>
                </notations>
            </note>
        </measure>
        <measure number="15">
            <harmony print-frame="no">
                <root>
                    <root-step>A</root-step>
                </root>
                <kind text="m">minor</kind>
            </harmony>
            <note>
                <pitch>
                    <step>D</step>
                    <octave>5</octave>
                </pitch>
                <duration>1920</duration>
                <tie type="stop"/>
                <tie type="start"/>
                <voice>1</voice>
                <type>whole</type>
                <notations>
                    <tied type="stop"/>
                    <tied type="start"/>
                </notations>
            </note>
        </measure>
        <measure number="16">
            <harmony print-frame="no">
                <root>
                    <root-step>D</root-step>
                </root>
                <kind text="7">dominant</kind>
            </harmony>
            <note>
                <pitch>
                    <step>D</step>
                    <octave>5</octave>
                </pitch>
                <duration>960</duration>
                <tie type="stop"/>
                <voice>1</voice>
                <type>half</type>
                <stem>down</stem>
                <notations>
                    <tied type="stop"/>
                    <slur type="stop" number="1"/>
                </notations>
            </note>
            <note>
                <rest/>
                <duration>960</duration>
                <voice>1</voice>
                <type>half</type>
            </note>
            <barline location="right">
                <bar-style>light-light</bar-style>
            </barline>
        </measure>
        <measure number="17">
            <print new-system="yes"/>
            <harmony print-frame="no">
                <root>
                    <root-step>G</root-step>
                </root>
                <kind text="">major</kind>
            </harmony>
            <note>
                <rest/>
                <duration>960</duration>
                <voice>1</voice>
                <type>half</type>
            </note>
            <note>
                <pitch>
                    <step>B</step>
                    <octave>4</octave>
                </pitch>
                <duration>240</duration>
                <voice>1</voice>
                <type>eighth</type>
                <stem>down</stem>
                <beam number="1">begin</beam>
                <notations>
                    <slur type="start" number="1"/>
                </notations>
            </note>
            <note>
                <pitch>
                    <step>C</step>
                    <octave>5</octave>
                </pitch>
                <duration>240</duration>
                <voice>1</voice>
                <type>eighth</type>
                <stem>down</stem>
                <beam number="1">continue</beam>
            </note>
            <note>
                <pitch>
                    <step>D</step>
                    <octave>5</octave>
                </pitch>
                <duration>240</duration>
                <voice>1</voice>
                <type>eighth</type>
                <stem>down</stem>
                <beam number="1">continue</beam>
            </note>
            <note>
                <pitch>
                    <step>A</step>
                    <octave>4</octave>
                </pitch>
                <duration>240</duration>
                <tie type="start"/>
                <voice>1</voice>
                <type>eighth</type>
                <stem>up</stem>
                <beam number="1">end</beam>
                <notations>
                    <tied type="start"/>
                </notations>
            </note>
        </measure>
        <measure number="18">
            <harmony print-frame="no">
                <root>
                    <root-step>D</root-step>
                </root>
                <kind text="m">minor</kind>
            </harmony>
            <note>
                <pitch>
                    <step>A</step>
                    <octave>4</octave>
                </pitch>
                <duration>1920</duration>
                <tie type="stop"/>
                <tie type="start"/>
                <voice>1</voice>
                <type>whole</type>
                <notations>
                    <tied type="stop"/>
                    <tied type="start"/>
                </notations>
            </note>
        </measure>
        <measure number="19">
            <direction placement="above">
                <direction-type>
                    <words>G7(#11)</words>
                </direction-type>
            </direction>
            <note>
                <pitch>
                    <step>A</step>
                    <octave>4</octave>
                </pitch>
                <duration>480</duration>
                <tie type="stop"/>
                <voice>1</voice>
                <type>quarter</type>
                <stem>up</stem>
                <notations>
                    <tied type="stop"/>
                    <slur type="stop" number="1"/>
                </notations>
            </note>
            <note>
                <rest/>
                <duration>480</duration>
                <voice>1</voice>
                <type>quarter</type>
            </note>
            <note>
                <pitch>
                    <step>G</step>
                    <octave>4</octave>
                </pitch>
                <duration>240</duration>
                <voice>1</voice>
                <type>eighth</type>
                <stem>up</stem>
                <beam number="1">begin</beam>
                <notations>
                    <slur type="start" number="1"/>
                </notations>
            </note>
            <note>
                <pitch>
                    <step>A</step>
                    <octave>4</octave>
                </pitch>
                <duration>240</duration>
                <voice>1</voice>
                <type>eighth</type>
                <stem>up</stem>
                <beam number="1">continue</beam>
            </note>
            <note>
                <pitch>
                    <step>B</step>
                    <octave>4</octave>
                </pitch>
                <duration>240</duration>
                <voice>1</voice>
                <type>eighth</type>
                <stem>down</stem>
                <beam number="1">continue</beam>
            </note>
            <note>
                <pitch>
                    <step>F</step>
                    <octave>4</octave>
                </pitch>
                <duration>240</duration>
                <tie type="start"/>
                <voice>1</voice>
                <type>eighth</type>
                <stem>up</stem>
                <beam number="1">end</beam>
                <notations>
                    <tied type="start"/>
                </notations>
            </note>
        </measure>
        <measure number="20">
            <direction placement="above">
                <direction-type>
                    <words>G7(b6)</words>
                </direction-type>
            </direction>
            <note>
                <pitch>
                    <step>F</step>
                    <octave>4</octave>
                </pitch>
                <duration>1920</duration>
                <tie type="stop"/>
                <voice>1</voice>
                <type>whole</type>
                <notations>
                    <tied type="stop"/>
                    <slur type="stop" number="1"/>
                </notations>
            </note>
        </measure>
        <measure number="21">
            <print new-system="yes"/>
            <harmony print-frame="no">
                <root>
                    <root-step>C</root-step>
                </root>
                <kind text="m">minor</kind>
            </harmony>
            <note>
                <rest/>
                <duration>960</duration>
                <voice>1</voice>
                <type>half</type>
            </note>
            <note>
                <pitch>
                    <step>E</step>
                    <alter>-1</alter>
                    <octave>4</octave>
                </pitch>
                <duration>240</duration>
                <voice>1</voice>
                <type>eighth</type>
                <accidental>flat</accidental>
                <stem>up</stem>
                <beam number="1">begin</beam>
                <notations>
                    <slur type="start" number="1"/>
                </notations>
            </note>
            <note>
                <pitch>
                    <step>F</step>
                    <octave>4</octave>
                </pitch>
                <duration>240</duration>
                <voice>1</voice>
                <type>eighth</type>
                <stem>up</stem>
                <beam number="1">end</beam>
                <notations>
                    <slur type="stop" number="1"/>
                </notations>
            </note>
            <note>
                <rest/>
                <duration>240</duration>
                <voice>1</voice>
                <type>eighth</type>
            </note>
            <note>
                <pitch>
                    <step>G</step>
                    <octave>4</octave>
                </pitch>
                <duration>240</duration>
                <voice>1</voice>
                <type>eighth</type>
                <stem>up</stem>
            </note>
        </measure>
        <measure number="22">
            <direction placement="above">
                <direction-type>
                    <words>D/G</words>
                </direction-type>
            </direction>
            <note>
                <pitch>
                    <step>D</step>
                    <octave>4</octave>
                </pitch>
                <duration>480</duration>
                <voice>1</voice>
                <type>quarter</type>
                <stem>up</stem>
                <notations>
                    <articulations>
                        <strong-accent type="up"/>
                    </articulations>
                </notations>
            </note>
            <note>
                <pitch>
                    <step>D</step>
                    <octave>4</octave>
                </pitch>
                <duration>1440</duration>
                <voice>1</voice>
                <type>half</type>
                <dot/>
                <stem>up</stem>
                <notations>
                    <articulations>
                        <tenuto/>
                    </articulations>
                </notations>
            </note>
        </measure>
        <measure number="23">
            <harmony print-frame="no">
                <root>
                    <root-step>C</root-step>
                </root>
                <kind text="m">minor</kind>
            </harmony>
            <note>
                <rest/>
                <duration>960</duration>
                <voice>1</voice>
                <type>half</type>
            </note>
            <note>
                <pitch>
                    <step>E</step>
                    <alter>-1</alter>
                    <octave>4</octave>
                </pitch>
                <duration>240</duration>
                <voice>1</voice>
                <type>eighth</type>
                <accidental>flat</accidental>
                <stem>up</stem>
                <beam number="1">begin</beam>
                <notations>
                    <slur type="start" number="1"/>
                </notations>
            </note>
            <note>
                <pitch>
                    <step>F</step>
                    <octave>4</octave>
                </pitch>
                <duration>240</duration>
                <voice>1</voice>
                <type>eighth</type>
                <stem>up</stem>
                <beam number="1">continue</beam>
            </note>
            <note>
                <pitch>
                    <step>G</step>
                    <octave>4</octave>
                </pitch>
                <duration>240</duration>
                <voice>1</voice>
                <type>eighth</type>
                <stem>up</stem>
                <beam number="1">continue</beam>
            </note>
            <note>
                <pitch>
                    <step>A</step>
                    <octave>4</octave>
                </pitch>
                <duration>240</duration>
                <tie type="start"/>
                <voice>1</voice>
                <type>eighth</type>
                <stem>up</stem>
                <beam number="1">end</beam>
                <notations>
                    <tied type="start"/>
                </notations>
            </note>
        </measure>
        <measure number="24">
            <harmony print-frame="no">
                <root>
                    <root-step>E</root-step>
                </root>
                <kind text="m">minor</kind>
            </harmony>
            <note>
                <pitch>
                    <step>A</step>
                    <octave>4</octave>
                </pitch>
                <duration>1920</duration>
                <tie type="stop"/>
                <voice>1</voice>
                <type>whole</type>
                <notations>
                    <tied type="stop"/>
                    <slur type="stop" number="1"/>
                </notations>
            </note>
        </measure>
        <measure number="25">
            <print new-system="yes"/>
            <direction placement="above">
                <direction-type>
                    <words>Eb7</words>
                </direction-type>
            </direction>
            <note>
                <pitch>
                    <step>A</step>
                    <octave>4</octave>
                </pitch>
                <duration>320</duration>
                <voice>1</voice>
                <type>quarter</type>
                <time-modification>
                    <actual-notes>3</actual-notes>
                    <normal-notes>2</normal-notes>
                </time-modification>
                <stem>up</stem>
                <notations>
                    <tuplet type="start" bracket="yes"/>
                    <slur type="start" number="1"/>
                </notations>
            </note>
            <note>
                <pitch>
                    <step>B</step>
                    <alter>-1</alter>
                    <octave>4</octave>
                </pitch>
                <duration>320</duration>
                <voice>1</voice>
                <type>quarter</type>
                <accidental>flat</accidental>
                <time-modification>
                    <actual-notes>3</actual-notes>
                    <normal-notes>2</normal-notes>
                </time-modification>
                <stem>up</stem>
            </note>
            <note>
                <pitch>
                    <step>A</step>
                    <octave>4</octave>
                </pitch>
                <duration>160</duration>
                <voice>1</voice>
                <type>eighth</type>
                <time-modification>
                    <actual-notes>3</actual-notes>
                    <normal-notes>2</normal-notes>
                </time-modification>
                <stem>up</stem>
            </note>
            <note>
                <pitch>
                    <step>G</step>
                    <octave>4</octave>
                </pitch>
                <duration>160</duration>
                <voice>1</voice>
                <type>eighth</type>
                <time-modification>
                    <actual-notes>3</actual-notes>
                    <normal-notes>2</normal-notes>
                </time-modification>
                <stem>up</stem>
                <notations>
                    <tuplet type="stop"/>
                </notations>
            </note>
            <note>
                <pitch>
                    <step>A</step>
                    <octave>4</octave>
                </pitch>
                <duration>480</duration>
                <voice>1</voice>
                <type>quarter</type>
                <stem>up</stem>
            </note>
            <note>
                <pitch>
                    <step>A</step>
                    <octave>4</octave>
                </pitch>
                <duration>240</duration>
                <voice>1</voice>
                <type>eighth</type>
                <stem>up</stem>
                <beam number="1">begin</beam>
            </note>
            <note>
                <pitch>
                    <step>D</step>
                    <octave>5</octave>
                </pitch>
                <duration>240</duration>
                <voice>1</voice>
                <type>eighth</type>
                <stem>down</stem>
                <beam number="1">end</beam>
                <notations>
                    <slur type="stop" number="1"/>
                </notations>
            </note>
        </measure>
        <measure number="26">
            <harmony print-frame="no">
                <root>
                    <root-step>A</root-step>
                </root>
                <kind text="m">minor</kind>
            </harmony>
            <note>
                <rest/>
                <duration>240</duration>
                <voice>1</voice>
                <type>eighth</type>
            </note>
            <note>
                <pitch>
                    <step>B</step>
                    <octave>4</octave>
                </pitch>
                <duration>720</duration>
                <tie type="start"/>
                <voice>1</voice>
                <type>quarter</type>
                <dot/>
                <stem>down</stem>
                <notations>
                    <tied type="start"/>
                    <articulations>
                        <accent/>
                    </articulations>
                </notations>
            </note>
            <harmony print-frame="no">
                <root>
                    <root-step>D</root-step>
                </root>
                <kind text="7">dominant</kind>
            </harmony>
            <note>
                <pitch>
                    <step>B</step>
                    <octave>4</octave>
                </pitch>
                <duration>480</duration>
                <tie type="stop"/>
                <voice>1</voice>
                <type>quarter</type>
                <stem>down</stem>
                <notations>
                    <tied type="stop"/>
                </notations>
            </note>
            <note>
                <rest/>
                <duration>480</duration>
                <voice>1</voice>
                <type>quarter</type>
            </note>
        </measure>
        <measure number="27">
            <harmony print-frame="no">
                <root>
                    <root-step>B</root-step>
                </root>
                <kind text="m">minor</kind>
            </harmony>
            <note>
                <pitch>
                    <step>B</step>
                    <octave>4</octave>
                </pitch>
                <duration>320</duration>
                <voice>1</voice>
                <type>quarter</type>
                <time-modification>
                    <actual-notes>3</actual-notes>
                    <normal-notes>2</normal-notes>
                </time-modification>
                <stem>up</stem>
                <notations>
                    <tuplet type="start" bracket="yes"/>
                    <slur type="start" number="1"/>
                </notations>
            </note>
            <note>
                <pitch>
                    <step>C</step>
                    <alter>1</alter>
                    <octave>5</octave>
                </pitch>
                <duration>320</duration>
                <voice>1</voice>
                <type>quarter</type>
                <accidental>sharp</accidental>
                <time-modification>
                    <actual-notes>3</actual-notes>
                    <normal-notes>2</normal-notes>
                </time-modification>
                <stem>up</stem>
            </note>
            <note>
                <pitch>
                    <step>B</step>
                    <octave>4</octave>
                </pitch>
                <duration>160</duration>
                <voice>1</voice>
                <type>eighth</type>
                <time-modification>
                    <actual-notes>3</actual-notes>
                    <normal-notes>2</normal-notes>
                </time-modification>
                <stem>up</stem>
            </note>
            <note>
                <pitch>
                    <step>A</step>
                    <octave>4</octave>
                </pitch>
                <duration>160</duration>
                <voice>1</voice>
                <type>eighth</type>
                <time-modification>
                    <actual-notes>3</actual-notes>
                    <normal-notes>2</normal-notes>
                </time-modification>
                <stem>up</stem>
                <notations>
                    <tuplet type="stop"/>
                </notations>
            </note>
            <note>
                <pitch>
                    <step>B</step>
                    <octave>4</octave>
                </pitch>
                <duration>480</duration>
                <voice>1</voice>
                <type>quarter</type>
                <stem>down</stem>
            </note>
            <note>
                <pitch>
                    <step>B</step>
                    <octave>4</octave>
                </pitch>
                <duration>240</duration>
                <voice>1</voice>
                <type>eighth</type>
                <stem>down</stem>
                <beam number="1">begin</beam>
            </note>
            <note>
                <pitch>
                    <step>E</step>
                    <octave>5</octave>
                </pitch>
                <duration>240</duration>
                <tie type="start"/>
                <voice>1</voice>
                <type>eighth</type>
                <stem>down</stem>
                <beam number="1">end</beam>
                <notations>
                    <tied type="start"/>
                </notations>
            </note>
        </measure>
        <measure number="28">
            <harmony print-frame="no">
                <root>
                    <root-step>E</root-step>
                </root>
                <kind text="7">dominant</kind>
            </harmony>
            <note>
                <pitch>
                    <step>E</step>
                    <octave>5</octave>
                </pitch>
                <duration>960</duration>
                <tie type="stop"/>
                <voice>1</voice>
                <type>half</type>
                <stem>down</stem>
                <notations>
                    <tied type="stop"/>
                </notations>
            </note>
            <harmony print-frame="no">
                <root>
                    <root-step>D</root-step>
                </root>
                <kind text="m">minor</kind>
            </harmony>
            <note>
                <pitch>
                    <step>F</step>
                    <octave>5</octave>
                </pitch>
                <duration>960</duration>
                <voice>1</voice>
                <type>half</type>
                <stem>down</stem>
            </note>
        </measure>
        <measure number="29">
            <print new-system="yes"/>
            <direction placement="above">
                <direction-type>
                    <words>Dbm</words>
                </direction-type>
            </direction>
            <note>
                <pitch>
                    <step>G</step>
                    <alter>-1</alter>
                    <octave>5</octave>
                </pitch>
                <duration>720</duration>
                <voice>1</voice>
                <type>quarter</type>
                <dot/>
                <accidental>flat</accidental>
                <stem>down</stem>
            </note>
            <note>
                <pitch>
                    <step>E</step>
                    <octave>5</octave>
                </pitch>
                <duration>240</duration>
                <voice>1</voice>
                <type>eighth</type>
                <stem>down</stem>
                <notations>
                    <slur type="stop" number="1"/>
                </notations>
            </note>
            <note>
                <rest/>
                <duration>240</duration>
                <voice>1</voice>
                <type>eighth</type>
            </note>
            <note>
                <pitch>
                    <step>B</step>
                    <octave>4</octave>
                </pitch>
                <duration>240</duration>
                <voice>1</voice>
                <type>eighth</type>
                <stem>down</stem>
            </note>
            <note>
                <rest/>
                <duration>240</duration>
                <voice>1</voice>
                <type>eighth</type>
            </note>
            <note>
                <pitch>
                    <step>A</step>
                    <alter>-1</alter>
                    <octave>4</octave>
                </pitch>
                <duration>240</duration>
                <voice>1</voice>
                <type>eighth</type>
                <accidental>flat</accidental>
                <stem>up</stem>
                <notations>
                    <slur type="start" number="1"/>
                </notations>
            </note>
        </measure>
        <measure number="30">
            <direction placement="above">
                <direction-type>
                    <words>Gb7</words>
                </direction-type>
            </direction>
            <note>
                <pitch>
                    <step>E</step>
                    <alter>-1</alter>
                    <octave>5</octave>
                </pitch>
                <duration>1440</duration>
                <voice>1</voice>
                <type>half</type>
                <dot/>
                <accidental>flat</accidental>
                <stem>down</stem>
            </note>
            <note>
                <pitch>
                    <step>G</step>
                    <alter>-1</alter>
                    <octave>4</octave>
                </pitch>
                <duration>240</duration>
                <voice>1</voice>
                <type>eighth</type>
                <accidental>flat</accidental>
                <stem>up</stem>
                <beam number="1">begin</beam>
            </note>
            <note>
                <pitch>
                    <step>B</step>
                    <octave>4</octave>
                </pitch>
                <duration>240</duration>
                <tie type="start"/>
                <voice>1</voice>
                <type>eighth</type>
                <stem>down</stem>
                <beam number="1">end</beam>
                <notations>
                    <tied type="start"/>
                </notations>
            </note>
        </measure>
        <measure number="31">
            <harmony print-frame="no">
                <root>
                    <root-step>B</root-step>
                </root>
                <kind text="m">minor</kind>
            </harmony>
            <note>
                <pitch>
                    <step>B</step>
                    <octave>4</octave>
                </pitch>
                <duration>1920</duration>
                <tie type="stop"/>
                <tie type="start"/>
                <voice>1</voice>
                <type>whole</type>
                <notations>
                    <tied type="stop"/>
                    <tied type="start"/>
                </notations>
            </note>
        </measure>
        <measure number="32">
            <harmony print-frame="no">
                <root>
                    <root-step>A</root-step>
                </root>
                <kind text="m">minor</kind>
            </harmony>
            <note>
                <pitch>
                    <step>B</step>
                    <octave>4</octave>
                </pitch>
                <duration>1920</duration>
                <tie type="stop"/>
                <tie type="start"/>
                <voice>1</voice>
                <type>whole</type>
                <notations>
                    <tied type="stop"/>
                    <tied type="start"/>
                </notations>
            </note>
        </measure>
        <measure number="33">
            <harmony print-frame="no">
                <root>
                    <root-step>B</root-step>
                </root>
                <kind text="m">minor</kind>
            </harmony>
            <note>
                <pitch>
                    <step>B</step>
                    <octave>4</octave>
                </pitch>
                <duration>480</duration>
                <tie type="stop"/>
                <voice>1</voice>
                <type>quarter</type>
                <stem>down</stem>
                <notations>
                    <tied type="stop"/>
                    <slur type="stop" number="1"/>
                </notations>
            </note>
            <note>
                <rest/>
                <duration>480</duration>
                <voice>1</voice>
                <type>quarter</type>
            </note>
            <note>
                <rest/>
                <duration>960</duration>
                <voice>1</voice>
                <type>half</type>
            </note>
        </measure>
        <measure number="34">
            <harmony print-frame="no">
                <root>
                    <root-step>A</root-step>
                </root>
                <kind text="m">minor</kind>
            </harmony>
            <note>
                <rest/>
                <duration>1920</duration>
                <voice>1</voice>
                <type>whole</type>
            </note>
            <barline location="right">
                <bar-style>light-light</bar-style>
            </barline>
        </measure>
        <measure number="35">
            <print new-system="yes"/>
            <direction placement="above">
                <direction-type>
                    <words>Bbm/Eb</words>
                </direction-type>
            </direction>
            <note>
                <rest/>
                <duration>960</duration>
                <voice>1</voice>
                <type>half</type>
            </note>
            <note>
                <pitch>
                    <step>C</step>
                    <octave>5</octave>
                </pitch>
                <duration>240</duration>
                <voice>1</voice>
                <type>eighth</type>
                <stem>down</stem>
                <beam number="1">begin</beam>
                <notations>
                    <slur type="start" number="1"/>
                </notations>
            </note>
            <note>
                <pitch>
                    <step>D</step>
                    <alter>-1</alter>
                    <octave>5</octave>
                </pitch>
                <duration>240</duration>
                <voice>1</voice>
                <type>eighth</type>
                <accidental>flat</accidental>
                <stem>down</stem>
                <beam number="1">continue</beam>
            </note>
            <note>
                <pitch>
                    <step>E</step>
                    <alter>-1</alter>
                    <octave>5</octave>
                </pitch>
                <duration>240</duration>
                <voice>1</voice>
                <type>eighth</type>
                <accidental>flat</accidental>
                <stem>down</stem>
                <beam number="1">continue</beam>
            </note>
            <note>
                <pitch>
                    <step>B</step>
                    <alter>-1</alter>
                    <octave>4</octave>
                </pitch>
                <duration>240</duration>
                <tie type="start"/>
                <voice>1</voice>
                <type>eighth</type>
                <accidental>flat</accidental>
                <stem>down</stem>
                <beam number="1">end</beam>
                <notations>
                    <tied type="start"/>
                </notations>
            </note>
        </measure>
        <measure number="36">
            <direction placement="above">
                <direction-type>
                    <words>EbMaj(b6)</words>
                </direction-type>
            </direction>
            <note>
                <pitch>
                    <step>B</step>
                    <octave>3</octave>
                </pitch>
                <duration>1920</duration>
                <voice>1</voice>
                <type>whole</type>
                <notations>
                    <slur type="stop" number="1"/>
                </notations>
            </note>
            <note>
                <chord/>
                <pitch>
                    <step>D</step>
                    <octave>4</octave>
                </pitch>
                <duration>1920</duration>
                <voice>1</voice>
                <type>whole</type>
            </note>
            <note>
                <chord/>
                <pitch>
                    <step>G</step>
                    <octave>4</octave>
                </pitch>
                <duration>1920</duration>
                <voice>1</voice>
                <type>whole</type>
            </note>
            <note>
                <chord/>
                <pitch>
                    <step>B</step>
                    <alter>-1</alter>
                    <octave>4</octave>
                </pitch>
                <duration>1920</duration>
                <tie type="stop"/>
                <voice>1</voice>
                <type>whole</type>
                <notations>
                    <tied type="stop"/>
                </notations>
            </note>
        </measure>
        <measure number="37">
            <direction placement="above">
                <direction-type>
                    <words>AbMaj(#5)/Eb</words>
                </direction-type>
            </direction>
            <note>
                <rest/>
                <duration>960</duration>
                <voice>1</voice>
                <type>half</type>
            </note>
            <note>
                <pitch>
                    <step>G</step>
                    <octave>4</octave>
                </pitch>
                <duration>240</duration>
                <voice>1</voice>
                <type>eighth</type>
                <stem>up</stem>
                <beam number="1">begin</beam>
                <notations>
                    <slur type="start" number="1"/>
                </notations>
            </note>
            <note>
                <pitch>
                    <step>A</step>
                    <alter>-1</alter>
                    <octave>4</octave>
                </pitch>
                <duration>240</duration>
                <voice>1</voice>
                <type>eighth</type>
                <accidental>flat</accidental>
                <stem>up</stem>
                <beam number="1">continue</beam>
            </note>
            <note>
                <pitch>
                    <step>B</step>
                    <alter>-1</alter>
                    <octave>4</octave>
                </pitch>
                <duration>240</duration>
                <voice>1</voice>
                <type>eighth</type>
                <accidental>flat</accidental>
                <stem>down</stem>
                <beam number="1">continue</beam>
            </note>
            <note>
                <pitch>
                    <step>F</step>
                    <octave>4</octave>
                </pitch>
                <duration>240</duration>
                <tie type="start"/>
                <voice>1</voice>
                <type>eighth</type>
                <stem>up</stem>
                <beam number="1">end</beam>
                <notations>
                    <tied type="start"/>
                </notations>
            </note>
        </measure>
        <measure number="38">
            <direction placement="above">
                <direction-type>
                    <words>G7(#9)</words>
                </direction-type>
            </direction>
            <note>
                <pitch>
                    <step>F</step>
                    <octave>4</octave>
                </pitch>
                <duration>1920</duration>
                <tie type="stop"/>
                <voice>1</voice>
                <type>whole</type>
                <notations>
                    <tied type="stop"/>
                    <slur type="stop" number="1"/>
                </notations>
            </note>
            <barline location="right">
                <bar-style>light-heavy</bar-style>
            </barline>
        </measure>
    </part>
</score-partwise>
