<?xml version="1.0" encoding="UTF-8"?>
<!DOCTYPE score-partwise PUBLIC "-//Recordare//DTD MusicXML 2.0 Partwise//EN" "http://www.musicxml.org/dtds/partwise.dtd">
<score-partwise version="2.0">
    <work>
        <work-number></work-number>
        <work-title></work-title>
    </work>
    <movement-number></movement-number>
    <movement-title>Under Paris Skies</movement-title>
    <identification>
        <creator type="composer">Hubert Giraud</creator>
        <creator type="poet">Kim Gannon, Jean Drejac</creator>
        <rights>All Rights Reserved</rights>
        <encoding>
            <software>MuseScore 0.9.6</software>
            <encoding-date>2010-06-03</encoding-date>
            <software>ProxyMusic 2.0 c</software>
        </encoding>
        <source>http://wikifonia.org/node/6089/revisions/8464/view</source>
    </identification>
    <defaults>
        <scaling>
            <millimeters>7.056</millimeters>
            <tenths>40</tenths>
        </scaling>
        <page-layout>
            <page-height>1683.67</page-height>
            <page-width>1190.48</page-width>
            <page-margins type="both">
                <left-margin>56.6893</left-margin>
                <right-margin>56.6893</right-margin>
                <top-margin>56.6893</top-margin>
                <bottom-margin>113.379</bottom-margin>
            </page-margins>
        </page-layout>
    </defaults>
    <credit page="1">
        <credit-words font-size="24" default-y="1626.98" default-x="595.238" justify="center" valign="top">Under Paris skies</credit-words>
    </credit>
    <credit page="1">
        <credit-words font-size="12" default-y="1557.22" default-x="1133.79" justify="right" valign="top">Hubert Giraud</credit-words>
    </credit>
    <credit page="1">
        <credit-words font-size="12" default-y="1557.22" default-x="56.6893" justify="left" valign="top">English: Kim Gannon, French;Jean Drejac,</credit-words>
    </credit>
    <part-list>
        <score-part id="P1">
            <part-name></part-name>
            <score-instrument id="P1-I3">
                <instrument-name></instrument-name>
            </score-instrument>
            <midi-instrument id="P1-I3">
                <midi-channel>1</midi-channel>
                <midi-program>5</midi-program>
            </midi-instrument>
        </score-part>
    </part-list>
    <part id="P1">
        <measure width="356.05" number="1">
            <print>
                <system-layout>
                    <system-margins>
                        <left-margin>0.00</left-margin>
                        <right-margin>-0.00</right-margin>
                    </system-margins>
                    <top-system-distance>235.14</top-system-distance>
                </system-layout>
            </print>
            <attributes>
                <divisions>1</divisions>
                <key>
                    <fifths>0</fifths>
                    <mode>major</mode>
                </key>
                <time>
                    <beats>3</beats>
                    <beat-type>4</beat-type>
                </time>
                <clef>
                    <sign>G</sign>
                    <line>2</line>
                </clef>
            </attributes>
            <harmony print-frame="no">
                <root>
                    <root-step>D</root-step>
                </root>
                <kind text="m">minor</kind>
            </harmony>
            <note default-y="-25.00" default-x="104.62">
                <pitch>
                    <step>A</step>
                    <octave>4</octave>
                </pitch>
                <duration>1</duration>
                <voice>1</voice>
                <type>quarter</type>
                <stem>up</stem>
                <lyric number="1">
                    <syllabic>begin</syllabic>
                    <text>Strang</text>
                </lyric>
                <lyric number="2">
                    <syllabic>single</syllabic>
                    <text>Love</text>
                </lyric>
                <lyric number="3">
                    <syllabic>single</syllabic>
                    <text>I</text>
                </lyric>
            </note>
            <note default-y="-10.00" default-x="187.90">
                <pitch>
                    <step>D</step>
                    <octave>5</octave>
                </pitch>
                <duration>1</duration>
                <voice>1</voice>
                <type>quarter</type>
                <stem>down</stem>
                <lyric number="1">
                    <syllabic>end</syllabic>
                    <text>er</text>
                </lyric>
                <lyric number="2">
                    <syllabic>begin</syllabic>
                    <text>be</text>
                </lyric>
                <lyric number="3">
                    <syllabic>begin</syllabic>
                    <text>was</text>
                </lyric>
            </note>
            <note default-y="-5.00" default-x="271.17">
                <pitch>
                    <step>E</step>
                    <octave>5</octave>
                </pitch>
                <duration>1</duration>
                <voice>1</voice>
                <type>quarter</type>
                <stem>down</stem>
                <lyric number="1">
                    <syllabic>begin</syllabic>
                    <text>be</text>
                </lyric>
                <lyric number="2">
                    <syllabic>end</syllabic>
                    <text>comes</text>
                </lyric>
                <lyric number="3">
                    <syllabic>end</syllabic>
                    <text>n't</text>
                </lyric>
            </note>
        </measure>
        <measure width="231.91" number="2">
            <note default-y="0.00" default-x="29.60">
                <pitch>
                    <step>F</step>
                    <octave>5</octave>
                </pitch>
                <duration>2</duration>
                <voice>1</voice>
                <type>half</type>
                <stem>down</stem>
                <lyric number="1">
                    <syllabic>end</syllabic>
                    <text>ware</text>
                </lyric>
                <lyric number="2">
                    <syllabic>single</syllabic>
                    <text>king</text>
                </lyric>
                <lyric number="3">
                    <syllabic>single</syllabic>
                    <text>smart</text>
                </lyric>
            </note>
            <note default-y="5.00" default-x="153.11">
                <pitch>
                    <step>G</step>
                    <octave>5</octave>
                </pitch>
                <duration>1</duration>
                <voice>1</voice>
                <type>quarter</type>
                <stem>down</stem>
                <lyric number="1">
                    <syllabic>single</syllabic>
                    <text>theres</text>
                </lyric>
                <lyric number="2">
                    <syllabic>single</syllabic>
                    <text>the</text>
                </lyric>
                <lyric number="3">
                    <syllabic>single</syllabic>
                    <text>and</text>
                </lyric>
            </note>
        </measure>
        <measure width="246.60" number="3">
            <note default-y="10.00" default-x="23.97">
                <pitch>
                    <step>A</step>
                    <octave>5</octave>
                </pitch>
                <duration>1</duration>
                <voice>1</voice>
                <type>quarter</type>
                <stem>down</stem>
                <lyric number="1">
                    <syllabic>single</syllabic>
                    <text>love</text>
                </lyric>
                <lyric number="2">
                    <syllabic>begin</syllabic>
                    <text>mo</text>
                </lyric>
                <lyric number="3">
                    <syllabic>single</syllabic>
                    <text>I</text>
                </lyric>
            </note>
            <note default-y="5.00" default-x="97.65">
                <pitch>
                    <step>G</step>
                    <octave>5</octave>
                </pitch>
                <duration>1</duration>
                <voice>1</voice>
                <type>quarter</type>
                <stem>down</stem>
                <lyric number="1">
                    <syllabic>single</syllabic>
                    <text>in</text>
                </lyric>
                <lyric number="2">
                    <syllabic>end</syllabic>
                    <text>ment</text>
                </lyric>
                <lyric number="3">
                    <syllabic>single</syllabic>
                    <text>love</text>
                </lyric>
            </note>
            <note default-y="0.00" default-x="171.33">
                <pitch>
                    <step>F</step>
                    <octave>5</octave>
                </pitch>
                <duration>1</duration>
                <voice>1</voice>
                <type>quarter</type>
                <stem>down</stem>
                <lyric number="1">
                    <syllabic>single</syllabic>
                    <text>the</text>
                </lyric>
                <lyric number="2">
                    <syllabic>single</syllabic>
                    <text>its</text>
                </lyric>
                <lyric number="3">
                    <syllabic>single</syllabic>
                    <text>my</text>
                </lyric>
            </note>
        </measure>
        <measure width="242.54" number="4">
            <note default-y="-5.00" default-x="32.75">
                <pitch>
                    <step>E</step>
                    <octave>5</octave>
                </pitch>
                <duration>1</duration>
                <voice>1</voice>
                <type>quarter</type>
                <stem>down</stem>
                <lyric number="1">
                    <syllabic>single</syllabic>
                    <text>air,</text>
                </lyric>
                <lyric number="2">
                    <syllabic>single</syllabic>
                    <text>spring</text>
                </lyric>
                <lyric number="3">
                    <syllabic>single</syllabic>
                    <text>heart</text>
                </lyric>
            </note>
            <note default-y="-10.00" default-x="102.15">
                <pitch>
                    <step>D</step>
                    <octave>5</octave>
                </pitch>
                <duration>1</duration>
                <voice>1</voice>
                <type>quarter</type>
                <stem>down</stem>
                <lyric number="1">
                    <syllabic>begin</syllabic>
                    <text>un</text>
                </lyric>
                <lyric number="2">
                    <syllabic>begin</syllabic>
                    <text>un</text>
                </lyric>
                <lyric number="3">
                    <syllabic>begin</syllabic>
                    <text>un</text>
                </lyric>
            </note>
            <note default-y="-15.00" default-x="171.54">
                <pitch>
                    <step>C</step>
                    <octave>5</octave>
                </pitch>
                <duration>1</duration>
                <voice>1</voice>
                <type>quarter</type>
                <stem>down</stem>
                <lyric number="1">
                    <syllabic>end</syllabic>
                    <text>der</text>
                </lyric>
                <lyric number="2">
                    <syllabic>end</syllabic>
                    <text>der</text>
                </lyric>
                <lyric number="3">
                    <syllabic>end</syllabic>
                    <text>der</text>
                </lyric>
            </note>
        </measure>
        <measure width="303.32" number="5">
            <print new-system="yes">
                <system-layout>
                    <system-margins>
                        <left-margin>0.00</left-margin>
                        <right-margin>-0.00</right-margin>
                    </system-margins>
                    <system-distance>211.94</system-distance>
                </system-layout>
            </print>
            <harmony print-frame="no">
                <root>
                    <root-step>G</root-step>
                </root>
                <kind text="m">minor</kind>
            </harmony>
            <note default-y="-20.00" default-x="69.13">
                <pitch>
                    <step>B</step>
                    <alter>-1</alter>
                    <octave>4</octave>
                </pitch>
                <duration>3</duration>
                <voice>1</voice>
                <type>half</type>
                <dot/>
                <accidental>flat</accidental>
                <stem>down</stem>
                <lyric number="1">
                    <syllabic>begin</syllabic>
                    <text>Par</text>
                </lyric>
                <lyric number="2">
                    <syllabic>begin</syllabic>
                    <text>Par</text>
                </lyric>
                <lyric number="3">
                    <syllabic>begin</syllabic>
                    <text>Par</text>
                </lyric>
            </note>
        </measure>
        <measure width="260.17" number="6">
            <note default-y="10.00" default-x="25.98">
                <pitch>
                    <step>A</step>
                    <octave>5</octave>
                </pitch>
                <duration>3</duration>
                <voice>1</voice>
                <type>half</type>
                <dot/>
                <stem>down</stem>
                <lyric number="1">
                    <syllabic>end</syllabic>
                    <text>is</text>
                </lyric>
                <lyric number="2">
                    <syllabic>end</syllabic>
                    <text>is</text>
                </lyric>
                <lyric number="3">
                    <syllabic>end</syllabic>
                    <text>is</text>
                </lyric>
            </note>
        </measure>
        <measure width="262.42" number="7">
            <note default-y="5.00" default-x="27.11">
                <pitch>
                    <step>G</step>
                    <octave>5</octave>
                </pitch>
                <duration>3</duration>
                <tie type="start"/>
                <voice>1</voice>
                <type>half</type>
                <dot/>
                <stem>down</stem>
                <notations>
                    <tied type="start"/>
                </notations>
                <lyric number="1">
                    <syllabic>single</syllabic>
                    <text>skies</text>
                </lyric>
                <lyric number="2">
                    <syllabic>single</syllabic>
                    <text>skies</text>
                </lyric>
                <lyric number="3">
                    <syllabic>single</syllabic>
                    <text>skies</text>
                </lyric>
            </note>
        </measure>
        <measure width="251.19" number="8">
            <note default-y="5.00" default-x="12.00">
                <pitch>
                    <step>G</step>
                    <octave>5</octave>
                </pitch>
                <duration>2</duration>
                <tie type="stop"/>
                <voice>1</voice>
                <type>half</type>
                <stem>down</stem>
                <notations>
                    <tied type="stop"/>
                </notations>
            </note>
            <note>
                <rest/>
                <duration>1</duration>
                <voice>1</voice>
                <type>quarter</type>
            </note>
        </measure>
        <measure width="229.93" number="9">
            <print new-system="yes">
                <system-layout>
                    <system-margins>
                        <left-margin>0.00</left-margin>
                        <right-margin>-0.00</right-margin>
                    </system-margins>
                    <system-distance>211.94</system-distance>
                </system-layout>
            </print>
            <harmony print-frame="no">
                <root>
                    <root-step>A</root-step>
                </root>
                <kind text="7">dominant</kind>
            </harmony>
            <note default-y="-25.00" default-x="77.27">
                <pitch>
                    <step>A</step>
                    <octave>4</octave>
                </pitch>
                <duration>1</duration>
                <voice>1</voice>
                <type>quarter</type>
                <stem>up</stem>
                <lyric number="1">
                    <syllabic>single</syllabic>
                    <text>try</text>
                </lyric>
                <lyric number="2">
                    <syllabic>begin</syllabic>
                    <text>Lone</text>
                </lyric>
                <lyric number="3">
                    <syllabic>single</syllabic>
                    <text>Dont</text>
                </lyric>
            </note>
            <note default-y="-15.00" default-x="127.63">
                <pitch>
                    <step>C</step>
                    <alter>1</alter>
                    <octave>5</octave>
                </pitch>
                <duration>1</duration>
                <voice>1</voice>
                <type>quarter</type>
                <accidental>sharp</accidental>
                <stem>down</stem>
                <lyric number="1">
                    <syllabic>single</syllabic>
                    <text>to</text>
                </lyric>
                <lyric number="2">
                    <syllabic>end</syllabic>
                    <text>ly</text>
                </lyric>
                <lyric number="3">
                    <syllabic>begin</syllabic>
                    <text>ev</text>
                </lyric>
            </note>
            <note default-y="-10.00" default-x="177.98">
                <pitch>
                    <step>D</step>
                    <octave>5</octave>
                </pitch>
                <duration>1</duration>
                <voice>1</voice>
                <type>quarter</type>
                <stem>down</stem>
                <lyric number="1">
                    <syllabic>single</syllabic>
                    <text>be</text>
                </lyric>
                <lyric number="2">
                    <syllabic>single</syllabic>
                    <text>hearts</text>
                </lyric>
                <lyric number="3">
                    <syllabic>end</syllabic>
                    <text>er</text>
                </lyric>
            </note>
        </measure>
        <measure width="147.54" number="10">
            <note default-y="-5.00" default-x="29.60">
                <pitch>
                    <step>E</step>
                    <octave>5</octave>
                </pitch>
                <duration>2</duration>
                <voice>1</voice>
                <type>half</type>
                <stem>down</stem>
                <lyric number="1">
                    <syllabic>single</syllabic>
                    <text>smart</text>
                </lyric>
                <lyric number="2">
                    <syllabic>single</syllabic>
                    <text>meet</text>
                </lyric>
                <lyric number="3">
                    <syllabic>single</syllabic>
                    <text>be</text>
                </lyric>
            </note>
            <note default-y="0.00" default-x="101.20">
                <pitch>
                    <step>F</step>
                    <octave>5</octave>
                </pitch>
                <duration>1</duration>
                <voice>1</voice>
                <type>quarter</type>
                <stem>down</stem>
                <lyric number="1">
                    <syllabic>single</syllabic>
                    <text>and</text>
                </lyric>
                <lyric number="2">
                    <syllabic>begin</syllabic>
                    <text>some</text>
                </lyric>
                <lyric number="3">
                    <syllabic>single</syllabic>
                    <text>a</text>
                </lyric>
            </note>
        </measure>
        <measure width="182.24" number="11">
            <note default-y="5.00" default-x="32.10">
                <pitch>
                    <step>G</step>
                    <octave>5</octave>
                </pitch>
                <duration>1</duration>
                <voice>1</voice>
                <type>quarter</type>
                <stem>down</stem>
                <lyric number="1">
                    <syllabic>single</syllabic>
                    <text>dont</text>
                </lyric>
                <lyric number="2">
                    <syllabic>end</syllabic>
                    <text>where</text>
                </lyric>
                <lyric number="3">
                    <syllabic>begin</syllabic>
                    <text>heart</text>
                </lyric>
            </note>
            <note default-y="15.00" default-x="81.61">
                <pitch>
                    <step>B</step>
                    <alter>-1</alter>
                    <octave>5</octave>
                </pitch>
                <duration>1</duration>
                <voice>1</voice>
                <type>quarter</type>
                <accidental>flat</accidental>
                <stem>down</stem>
                <lyric number="1">
                    <syllabic>single</syllabic>
                    <text>let</text>
                </lyric>
                <lyric number="2">
                    <syllabic>single</syllabic>
                    <text>on</text>
                </lyric>
                <lyric number="3">
                    <syllabic>begin</syllabic>
                    <text>bro</text>
                </lyric>
            </note>
            <note default-y="10.00" default-x="131.13">
                <pitch>
                    <step>A</step>
                    <octave>5</octave>
                </pitch>
                <duration>1</duration>
                <voice>1</voice>
                <type>quarter</type>
                <stem>down</stem>
                <lyric number="1">
                    <syllabic>single</syllabic>
                    <text>your</text>
                </lyric>
                <lyric number="2">
                    <syllabic>single</syllabic>
                    <text>the</text>
                </lyric>
                <lyric number="3">
                    <syllabic>end</syllabic>
                    <text>ken</text>
                </lyric>
            </note>
        </measure>
        <measure width="206.17" number="12">
            <note default-y="5.00" default-x="46.02">
                <pitch>
                    <step>G</step>
                    <octave>5</octave>
                </pitch>
                <duration>1</duration>
                <voice>1</voice>
                <type>quarter</type>
                <stem>down</stem>
                <lyric number="1">
                    <syllabic>single</syllabic>
                    <text>heart</text>
                </lyric>
                <lyric number="2">
                    <syllabic>single</syllabic>
                    <text>street</text>
                </lyric>
                <lyric number="3">
                    <syllabic>begin</syllabic>
                    <text>strang</text>
                </lyric>
            </note>
            <note default-y="0.00" default-x="103.27">
                <pitch>
                    <step>F</step>
                    <octave>5</octave>
                </pitch>
                <duration>1</duration>
                <voice>1</voice>
                <type>quarter</type>
                <stem>down</stem>
                <lyric number="1">
                    <syllabic>single</syllabic>
                    <text>catch</text>
                </lyric>
                <lyric number="2">
                    <syllabic>single</syllabic>
                    <text>of</text>
                </lyric>
                <lyric number="3">
                    <syllabic>end</syllabic>
                    <text>er</text>
                </lyric>
            </note>
            <note default-y="-5.00" default-x="153.92">
                <pitch>
                    <step>E</step>
                    <octave>5</octave>
                </pitch>
                <duration>1</duration>
                <voice>1</voice>
                <type>quarter</type>
                <stem>down</stem>
                <lyric number="1">
                    <syllabic>single</syllabic>
                    <text>on</text>
                </lyric>
                <lyric number="2">
                    <syllabic>begin</syllabic>
                    <text>de</text>
                </lyric>
                <lyric number="3">
                    <syllabic>single</syllabic>
                    <text>like</text>
                </lyric>
            </note>
        </measure>
        <measure width="81.66" number="13">
            <harmony print-frame="no">
                <root>
                    <root-step>D</root-step>
                </root>
                <kind text="m">minor</kind>
            </harmony>
            <note default-y="-10.00" default-x="20.84">
                <pitch>
                    <step>D</step>
                    <octave>5</octave>
                </pitch>
                <duration>3</duration>
                <tie type="start"/>
                <voice>1</voice>
                <type>half</type>
                <dot/>
                <stem>down</stem>
                <notations>
                    <tied type="start"/>
                </notations>
                <lyric number="1">
                    <syllabic>single</syllabic>
                    <text>fire</text>
                </lyric>
                <lyric number="2">
                    <syllabic>end</syllabic>
                    <text>sire</text>
                </lyric>
            </note>
        </measure>
        <measure width="72.82" number="14">
            <harmony print-frame="no">
                <root>
                    <root-step>G</root-step>
                </root>
                <kind text="m">minor</kind>
            </harmony>
            <note default-y="-10.00" default-x="12.00">
                <pitch>
                    <step>D</step>
                    <octave>5</octave>
                </pitch>
                <duration>3</duration>
                <tie type="stop"/>
                <tie type="start"/>
                <voice>1</voice>
                <type>half</type>
                <dot/>
                <stem>down</stem>
                <notations>
                    <tied type="stop"/>
                    <tied type="start"/>
                </notations>
            </note>
        </measure>
        <measure width="77.82" number="15">
            <harmony print-frame="no">
                <root>
                    <root-step>D</root-step>
                </root>
                <kind text="m">minor</kind>
            </harmony>
            <note default-y="-10.00" default-x="12.00">
                <pitch>
                    <step>D</step>
                    <octave>5</octave>
                </pitch>
                <duration>2</duration>
                <tie type="stop"/>
                <voice>1</voice>
                <type>half</type>
                <stem>down</stem>
                <notations>
                    <tied type="stop"/>
                </notations>
            </note>
            <note>
                <rest/>
                <duration>1</duration>
                <voice>1</voice>
                <type>quarter</type>
            </note>
        </measure>
        <measure width="78.92" number="16">
            <barline location="left">
                <ending type="start" number="1"></ending>
            </barline>
            <harmony print-frame="no">
                <root>
                    <root-step>A</root-step>
                </root>
                <kind text="7">dominant</kind>
            </harmony>
            <note>
                <rest/>
                <duration>3</duration>
                <voice>1</voice>
            </note>
            <barline location="right">
                <bar-style>light-heavy</bar-style>
                <ending type="stop" number="1"></ending>
                <repeat direction="backward"/>
            </barline>
        </measure>
        <measure width="211.58" number="17">
            <print new-system="yes">
                <system-layout>
                    <system-margins>
                        <left-margin>0.00</left-margin>
                        <right-margin>-0.00</right-margin>
                    </system-margins>
                    <system-distance>211.94</system-distance>
                </system-layout>
            </print>
            <barline location="left">
                <ending type="start" number="2"></ending>
            </barline>
            <direction placement="above">
                <direction-type>
                    <words>N.C.</words>
                </direction-type>
            </direction>
            <note default-y="-5.00" default-x="65.38">
                <pitch>
                    <step>E</step>
                    <octave>5</octave>
                </pitch>
                <duration>1</duration>
                <voice>1</voice>
                <type>quarter</type>
                <stem>down</stem>
                <lyric number="1">
                    <syllabic>single</syllabic>
                    <text>Pa</text>
                </lyric>
            </note>
            <note default-y="0.00" default-x="113.58">
                <pitch>
                    <step>F</step>
                    <octave>5</octave>
                </pitch>
                <duration>1</duration>
                <voice>1</voice>
                <type>quarter</type>
                <stem>down</stem>
                <lyric number="1">
                    <syllabic>begin</syllabic>
                    <text>ri</text>
                </lyric>
            </note>
            <note default-y="-5.00" default-x="161.78">
                <pitch>
                    <step>E</step>
                    <octave>5</octave>
                </pitch>
                <duration>1</duration>
                <voice>1</voice>
                <type>quarter</type>
                <stem>down</stem>
                <lyric number="1">
                    <syllabic>end</syllabic>
                    <text>sian</text>
                </lyric>
            </note>
            <barline location="right">
                <ending type="discontinue" number="2"></ending>
            </barline>
        </measure>
        <measure width="112.16" number="18">
            <harmony print-frame="no">
                <root>
                    <root-step>G</root-step>
                </root>
                <kind text="m">minor</kind>
            </harmony>
            <note default-y="-10.00" default-x="23.97">
                <pitch>
                    <step>D</step>
                    <octave>5</octave>
                </pitch>
                <duration>3</duration>
                <voice>1</voice>
                <type>half</type>
                <dot/>
                <stem>down</stem>
                <lyric number="1">
                    <syllabic>single</syllabic>
                    <text>love</text>
                </lyric>
            </note>
        </measure>
        <measure width="108.39" number="19">
            <note default-y="-10.00" default-x="20.21">
                <pitch>
                    <step>D</step>
                    <octave>5</octave>
                </pitch>
                <duration>3</duration>
                <voice>1</voice>
                <type>half</type>
                <dot/>
                <stem>down</stem>
                <lyric number="1">
                    <syllabic>single</syllabic>
                    <text>can</text>
                </lyric>
            </note>
        </measure>
        <measure width="128.93" number="20">
            <note default-y="-10.00" default-x="33.37">
                <pitch>
                    <step>D</step>
                    <octave>5</octave>
                </pitch>
                <duration>3</duration>
                <voice>1</voice>
                <type>half</type>
                <dot/>
                <stem>down</stem>
                <lyric number="1">
                    <syllabic>single</syllabic>
                    <text>bloom</text>
                </lyric>
            </note>
        </measure>
        <measure width="175.32" number="21">
            <harmony print-frame="no">
                <root>
                    <root-step>C</root-step>
                </root>
                <kind text="7">dominant</kind>
            </harmony>
            <note default-y="-5.00" default-x="38.51">
                <pitch>
                    <step>E</step>
                    <octave>5</octave>
                </pitch>
                <duration>1</duration>
                <voice>1</voice>
                <type>quarter</type>
                <stem>down</stem>
                <lyric number="1">
                    <syllabic>single</syllabic>
                    <text>high</text>
                </lyric>
            </note>
            <note default-y="0.00" default-x="83.58">
                <pitch>
                    <step>F</step>
                    <octave>5</octave>
                </pitch>
                <duration>1</duration>
                <voice>1</voice>
                <type>quarter</type>
                <stem>down</stem>
                <lyric number="1">
                    <syllabic>single</syllabic>
                    <text>in</text>
                </lyric>
            </note>
            <note default-y="-5.00" default-x="128.65">
                <pitch>
                    <step>E</step>
                    <octave>5</octave>
                </pitch>
                <duration>1</duration>
                <voice>1</voice>
                <type>quarter</type>
                <stem>down</stem>
                <lyric number="1">
                    <syllabic>single</syllabic>
                    <text>a</text>
                </lyric>
            </note>
        </measure>
        <measure width="108.41" number="22">
            <harmony print-frame="no">
                <root>
                    <root-step>F</root-step>
                </root>
                <kind text="">major</kind>
            </harmony>
            <note default-y="-10.00" default-x="20.22">
                <pitch>
                    <step>D</step>
                    <octave>5</octave>
                </pitch>
                <duration>3</duration>
                <voice>1</voice>
                <type>half</type>
                <dot/>
                <stem>down</stem>
                <lyric number="1">
                    <syllabic>begin</syllabic>
                    <text>sky</text>
                </lyric>
            </note>
        </measure>
        <measure width="113.42" number="23">
            <note default-y="-10.00" default-x="25.23">
                <pitch>
                    <step>D</step>
                    <octave>5</octave>
                </pitch>
                <duration>3</duration>
                <voice>1</voice>
                <type>half</type>
                <dot/>
                <stem>down</stem>
                <lyric number="1">
                    <syllabic>end</syllabic>
                    <text>light</text>
                </lyric>
            </note>
        </measure>
        <measure width="118.89" number="24">
            <note default-y="-10.00" default-x="28.35">
                <pitch>
                    <step>D</step>
                    <octave>5</octave>
                </pitch>
                <duration>3</duration>
                <voice>1</voice>
                <type>half</type>
                <dot/>
                <stem>down</stem>
                <lyric number="1">
                    <syllabic>single</syllabic>
                    <text>room</text>
                </lyric>
            </note>
        </measure>
        <measure width="170.58" number="25">
            <print new-system="yes">
                <system-layout>
                    <system-margins>
                        <left-margin>0.00</left-margin>
                        <right-margin>-0.00</right-margin>
                    </system-margins>
                    <system-distance>160.10</system-distance>
                </system-layout>
            </print>
            <note default-y="-5.00" default-x="63.50">
                <pitch>
                    <step>E</step>
                    <octave>5</octave>
                </pitch>
                <duration>1</duration>
                <voice>1</voice>
                <type>quarter</type>
                <stem>down</stem>
                <lyric number="1">
                    <syllabic>single</syllabic>
                    <text>or</text>
                </lyric>
            </note>
            <note default-y="0.00" default-x="98.66">
                <pitch>
                    <step>F</step>
                    <octave>5</octave>
                </pitch>
                <duration>1</duration>
                <voice>1</voice>
                <type>quarter</type>
                <stem>down</stem>
                <lyric number="1">
                    <syllabic>single</syllabic>
                    <text>in</text>
                </lyric>
            </note>
            <note default-y="-5.00" default-x="133.82">
                <pitch>
                    <step>E</step>
                    <octave>5</octave>
                </pitch>
                <duration>1</duration>
                <voice>1</voice>
                <type>quarter</type>
                <stem>down</stem>
                <lyric number="1">
                    <syllabic>single</syllabic>
                    <text>a</text>
                </lyric>
            </note>
        </measure>
        <measure width="110.11" number="26">
            <harmony print-frame="no">
                <root>
                    <root-step>B</root-step>
                    <root-alter>-1</root-alter>
                </root>
                <kind text="">major</kind>
            </harmony>
            <note default-y="-10.00" default-x="20.84">
                <pitch>
                    <step>D</step>
                    <octave>5</octave>
                </pitch>
                <duration>2</duration>
                <voice>1</voice>
                <type>half</type>
                <stem>down</stem>
                <lyric number="1">
                    <syllabic>single</syllabic>
                    <text>gay</text>
                </lyric>
            </note>
            <note default-y="-5.00" default-x="74.79">
                <pitch>
                    <step>E</step>
                    <octave>5</octave>
                </pitch>
                <duration>1</duration>
                <voice>1</voice>
                <type>quarter</type>
                <stem>down</stem>
                <lyric number="1">
                    <syllabic>begin</syllabic>
                    <text>ca</text>
                </lyric>
            </note>
        </measure>
        <measure width="132.11" number="27">
            <note default-y="0.00" default-x="13.32">
                <pitch>
                    <step>F</step>
                    <octave>5</octave>
                </pitch>
                <duration>2</duration>
                <voice>1</voice>
                <type>half</type>
                <stem>down</stem>
                <lyric number="1">
                    <syllabic>end</syllabic>
                    <text>fe</text>
                </lyric>
            </note>
            <note default-y="5.00" default-x="85.43">
                <pitch>
                    <step>G</step>
                    <octave>5</octave>
                </pitch>
                <duration>1</duration>
                <voice>1</voice>
                <type>quarter</type>
                <stem>down</stem>
                <lyric number="1">
                    <syllabic>single</syllabic>
                    <text>where</text>
                </lyric>
            </note>
        </measure>
        <measure width="166.60" number="28">
            <harmony print-frame="no">
                <root>
                    <root-step>G</root-step>
                </root>
                <kind text="m">minor</kind>
            </harmony>
            <note default-y="10.00" default-x="21.47">
                <pitch>
                    <step>A</step>
                    <octave>5</octave>
                </pitch>
                <duration>1</duration>
                <voice>1</voice>
                <type>quarter</type>
                <stem>down</stem>
                <lyric number="1">
                    <syllabic>begin</syllabic>
                    <text>hun</text>
                </lyric>
            </note>
            <note default-y="15.00" default-x="69.32">
                <pitch>
                    <step>B</step>
                    <alter>-1</alter>
                    <octave>5</octave>
                </pitch>
                <duration>1</duration>
                <voice>1</voice>
                <type>quarter</type>
                <accidental>flat</accidental>
                <stem>down</stem>
                <lyric number="1">
                    <syllabic>single</syllabic>
                    <text>dreds</text>
                </lyric>
            </note>
            <note default-y="20.00" default-x="117.16">
                <pitch>
                    <step>C</step>
                    <octave>6</octave>
                </pitch>
                <duration>1</duration>
                <voice>1</voice>
                <type>quarter</type>
                <stem>down</stem>
                <lyric number="1">
                    <syllabic>single</syllabic>
                    <text>of</text>
                </lyric>
            </note>
        </measure>
        <measure width="166.56" number="29">
            <note default-y="15.00" default-x="34.74">
                <pitch>
                    <step>B</step>
                    <alter>-1</alter>
                    <octave>5</octave>
                </pitch>
                <duration>1</duration>
                <voice>1</voice>
                <type>quarter</type>
                <accidental>flat</accidental>
                <stem>down</stem>
                <lyric number="1">
                    <syllabic>begin</syllabic>
                    <text>peo</text>
                </lyric>
            </note>
            <note default-y="10.00" default-x="78.15">
                <pitch>
                    <step>A</step>
                    <octave>5</octave>
                </pitch>
                <duration>1</duration>
                <voice>1</voice>
                <type>quarter</type>
                <stem>down</stem>
                <lyric number="1">
                    <syllabic>end</syllabic>
                    <text>ple</text>
                </lyric>
            </note>
            <note default-y="5.00" default-x="121.55">
                <pitch>
                    <step>G</step>
                    <octave>5</octave>
                </pitch>
                <duration>1</duration>
                <voice>1</voice>
                <type>quarter</type>
                <stem>down</stem>
                <lyric number="1">
                    <syllabic>single</syllabic>
                    <text>can</text>
                </lyric>
            </note>
        </measure>
        <measure width="85.25" number="30">
            <harmony print-frame="no">
                <root>
                    <root-step>A</root-step>
                </root>
                <kind text="7">dominant</kind>
            </harmony>
            <note default-y="10.00" default-x="18.96">
                <pitch>
                    <step>A</step>
                    <octave>5</octave>
                </pitch>
                <duration>3</duration>
                <tie type="start"/>
                <voice>1</voice>
                <type>half</type>
                <dot/>
                <stem>down</stem>
                <notations>
                    <tied type="start"/>
                </notations>
                <lyric number="1">
                    <syllabic>single</syllabic>
                    <text>see</text>
                </lyric>
            </note>
        </measure>
        <measure width="78.30" number="31">
            <note default-y="10.00" default-x="12.00">
                <pitch>
                    <step>A</step>
                    <octave>5</octave>
                </pitch>
                <duration>3</duration>
                <tie type="stop"/>
                <tie type="start"/>
                <voice>1</voice>
                <type>half</type>
                <dot/>
                <stem>down</stem>
                <notations>
                    <tied type="stop"/>
                    <tied type="start"/>
                </notations>
            </note>
        </measure>
        <measure width="78.30" number="32">
            <note default-y="10.00" default-x="12.00">
                <pitch>
                    <step>A</step>
                    <octave>5</octave>
                </pitch>
                <duration>3</duration>
                <tie type="stop"/>
                <tie type="start"/>
                <voice>1</voice>
                <type>half</type>
                <dot/>
                <stem>down</stem>
                <notations>
                    <tied type="stop"/>
                    <tied type="start"/>
                </notations>
            </note>
        </measure>
        <measure width="89.30" number="33">
            <note default-y="10.00" default-x="12.00">
                <pitch>
                    <step>A</step>
                    <octave>5</octave>
                </pitch>
                <duration>2</duration>
                <tie type="stop"/>
                <voice>1</voice>
                <type>half</type>
                <stem>down</stem>
                <notations>
                    <tied type="stop"/>
                </notations>
            </note>
            <note>
                <rest/>
                <duration>1</duration>
                <voice>1</voice>
                <type>quarter</type>
            </note>
            <direction placement="above">
                <direction-type>
                    <words>D.C. al Coda</words>
                </direction-type>
                <sound dacapo="yes"/>
            </direction>
            <barline location="right">
                <bar-style>light-heavy</bar-style>
            </barline>
        </measure>
        <measure width="101.88" number="34">
            <print new-system="yes">
                <system-layout>
                    <system-margins>
                        <left-margin>0.00</left-margin>
                        <right-margin>821.46</right-margin>
                    </system-margins>
                    <system-distance>160.10</system-distance>
                </system-layout>
            </print>
            <direction placement="above">
                <direction-type>
                    <coda/>
                </direction-type>
                <sound coda="coda"/>
            </direction>
            <harmony print-frame="no">
                <root>
                    <root-step>D</root-step>
                </root>
                <kind text="m">minor</kind>
            </harmony>
            <note default-y="-10.00" default-x="67.88">
                <pitch>
                    <step>D</step>
                    <octave>5</octave>
                </pitch>
                <duration>3</duration>
                <tie type="start"/>
                <voice>1</voice>
                <type>half</type>
                <dot/>
                <stem>down</stem>
                <notations>
                    <tied type="start"/>
                </notations>
                <lyric number="1">
                    <syllabic>single</syllabic>
                    <text>me</text>
                </lyric>
            </note>
        </measure>
        <measure width="46.00" number="35">
            <harmony print-frame="no">
                <root>
                    <root-step>G</root-step>
                </root>
                <kind text="m">minor</kind>
            </harmony>
            <note default-y="-10.00" default-x="12.00">
                <pitch>
                    <step>D</step>
                    <octave>5</octave>
                </pitch>
                <duration>3</duration>
                <tie type="stop"/>
                <tie type="start"/>
                <voice>1</voice>
                <type>half</type>
                <dot/>
                <stem>down</stem>
                <notations>
                    <tied type="stop"/>
                    <tied type="start"/>
                </notations>
            </note>
        </measure>
        <measure width="46.00" number="36">
            <harmony print-frame="no">
                <root>
                    <root-step>D</root-step>
                </root>
                <kind text="m">minor</kind>
            </harmony>
            <note default-y="-10.00" default-x="12.00">
                <pitch>
                    <step>D</step>
                    <octave>5</octave>
                </pitch>
                <duration>3</duration>
                <tie type="stop"/>
                <tie type="start"/>
                <voice>1</voice>
                <type>half</type>
                <dot/>
                <stem>down</stem>
                <notations>
                    <tied type="stop"/>
                    <tied type="start"/>
                </notations>
            </note>
        </measure>
        <measure width="61.76" number="37">
            <note default-y="-10.00" default-x="12.00">
                <pitch>
                    <step>D</step>
                    <octave>5</octave>
                </pitch>
                <duration>1</duration>
                <tie type="stop"/>
                <voice>1</voice>
                <type>quarter</type>
                <stem>down</stem>
                <notations>
                    <tied type="stop"/>
                </notations>
            </note>
            <note>
                <rest/>
                <duration>2</duration>
                <voice>1</voice>
                <type>half</type>
            </note>
            <barline location="right">
                <bar-style>light-heavy</bar-style>
            </barline>
        </measure>
    </part>
</score-partwise>
