<?xml version="1.0" encoding="UTF-8"?>
<!DOCTYPE score-partwise PUBLIC "-//Recordare//DTD MusicXML 2.0 Partwise//EN" "http://www.musicxml.org/dtds/partwise.dtd">
<score-partwise version="2.0">
    <work>
        <work-number></work-number>
        <work-title></work-title>
    </work>
    <movement-number></movement-number>
    <movement-title>Playground Love</movement-title>
    <identification>
        <creator type="composer">Air</creator>
        <creator type="poet"></creator>
        <rights></rights>
        <encoding>
            <software>Sibelius 5.1</software>
            <software>Dolet 3.4 for Sibelius</software>
            <supports type="no" element="accidental"/>
            <supports type="no" element="transpose"/>
            <software>ProxyMusic 2.0 c</software>
        </encoding>
        <source>http://wikifonia.org/node/617/revisions/16546/view</source>
    </identification>
    <defaults>
        <scaling>
            <millimeters>6</millimeters>
            <tenths>40</tenths>
        </scaling>
        <page-layout>
            <page-height>1980</page-height>
            <page-width>1400</page-width>
        </page-layout>
    </defaults>
    <part-list>
        <score-part id="P1">
            <part-name>Alto Saxophone</part-name>
            <part-abbreviation>Alto Sax.</part-abbreviation>
        </score-part>
    </part-list>
    <part id="P1">
        <measure number="1">
            <attributes>
                <divisions>768</divisions>
                <key>
                    <fifths>-3</fifths>
                    <mode>minor</mode>
                </key>
                <time>
                    <beats>4</beats>
                    <beat-type>4</beat-type>
                </time>
                <clef>
                    <sign>G</sign>
                    <line>2</line>
                </clef>
            </attributes>
            <direction>
                <direction-type>
                    <words relative-x="-28" default-y="38" enclosure="rectangle">Intro</words>
                </direction-type>
            </direction>
            <harmony relative-x="8" default-y="25" print-frame="no">
                <root>
                    <root-step>C</root-step>
                </root>
                <kind text="m7">minor-seventh</kind>
            </harmony>
            <note>
                <rest/>
                <duration>3072</duration>
                <voice>1</voice>
            </note>
        </measure>
        <measure number="2">
            <harmony relative-x="6" default-y="25" print-frame="no">
                <root>
                    <root-step>C</root-step>
                </root>
                <kind text="m6">minor-sixth</kind>
            </harmony>
            <note>
                <rest/>
                <duration>3072</duration>
                <voice>1</voice>
            </note>
        </measure>
        <measure number="3">
            <harmony relative-x="8" default-y="25" print-frame="no">
                <root>
                    <root-step>C</root-step>
                </root>
                <kind text="m7">minor-seventh</kind>
            </harmony>
            <note>
                <rest/>
                <duration>3072</duration>
                <voice>1</voice>
            </note>
        </measure>
        <measure number="4">
            <harmony relative-x="6" default-y="25" print-frame="no">
                <root>
                    <root-step>C</root-step>
                </root>
                <kind text="m6">minor-sixth</kind>
            </harmony>
            <note>
                <rest/>
                <duration>3072</duration>
                <voice>1</voice>
            </note>
        </measure>
        <measure number="5">
            <print new-system="yes"/>
            <harmony relative-x="8" default-y="25" print-frame="no">
                <root>
                    <root-step>C</root-step>
                </root>
                <kind text="m7">minor-seventh</kind>
            </harmony>
            <note>
                <rest/>
                <duration>3072</duration>
                <voice>1</voice>
            </note>
        </measure>
        <measure number="6">
            <harmony relative-x="6" default-y="25" print-frame="no">
                <root>
                    <root-step>C</root-step>
                </root>
                <kind text="m6">minor-sixth</kind>
            </harmony>
            <note>
                <rest/>
                <duration>3072</duration>
                <voice>1</voice>
            </note>
        </measure>
        <measure number="7">
            <harmony relative-x="8" default-y="25" print-frame="no">
                <root>
                    <root-step>C</root-step>
                </root>
                <kind text="m9">minor-ninth</kind>
            </harmony>
            <note>
                <rest/>
                <duration>3072</duration>
                <voice>1</voice>
            </note>
        </measure>
        <measure number="8">
            <harmony relative-x="8" default-y="25" print-frame="no">
                <root>
                    <root-step>F</root-step>
                </root>
                <kind text="7">dominant</kind>
                <bass>
                    <bass-step>C</bass-step>
                </bass>
            </harmony>
            <note>
                <rest/>
                <duration>3072</duration>
                <voice>1</voice>
            </note>
            <barline location="right">
                <bar-style>light-light</bar-style>
            </barline>
        </measure>
        <measure number="9">
            <print new-system="yes"/>
            <barline location="left">
                <bar-style>heavy-light</bar-style>
                <repeat direction="forward"/>
            </barline>
            <direction>
                <direction-type>
                    <words relative-x="-40" default-y="59" enclosure="rectangle">Verse</words>
                </direction-type>
            </direction>
            <harmony relative-x="10" default-y="30" print-frame="no">
                <root>
                    <root-step>E</root-step>
                    <root-alter>-1</root-alter>
                </root>
                <kind text="">major</kind>
            </harmony>
            <note>
                <rest/>
                <duration>768</duration>
                <voice>1</voice>
                <type>quarter</type>
            </note>
            <note>
                <pitch>
                    <step>F</step>
                    <octave>4</octave>
                </pitch>
                <duration>384</duration>
                <voice>1</voice>
                <type>eighth</type>
                <beam number="1">begin</beam>
                <lyric number="1" name="verse">
                    <syllabic>end</syllabic>
                    <text>I'm</text>
                </lyric>
                <lyric number="2" name="verse">
                    <syllabic>end</syllabic>
                    <text>Yet</text>
                </lyric>
                <lyric number="3" name="verse">
                    <syllabic>end</syllabic>
                    <text>You're</text>
                </lyric>
            </note>
            <note>
                <pitch>
                    <step>E</step>
                    <alter>-1</alter>
                    <octave>4</octave>
                </pitch>
                <duration>384</duration>
                <voice>1</voice>
                <type>eighth</type>
                <beam number="1">continue</beam>
                <lyric number="1" name="verse">
                    <syllabic>end</syllabic>
                    <text>a</text>
                </lyric>
                <lyric number="2" name="verse">
                    <syllabic>end</syllabic>
                    <text>my</text>
                </lyric>
                <lyric number="3" name="verse">
                    <syllabic>end</syllabic>
                    <text>the</text>
                </lyric>
            </note>
            <harmony relative-x="8" default-y="30" print-frame="no">
                <root>
                    <root-step>G</root-step>
                </root>
                <kind text="">major</kind>
            </harmony>
            <note>
                <pitch>
                    <step>F</step>
                    <octave>4</octave>
                </pitch>
                <duration>768</duration>
                <voice>1</voice>
                <type>quarter</type>
                <lyric number="1" name="verse">
                    <syllabic>middle</syllabic>
                    <text>high</text>
                </lyric>
                <lyric number="2" name="verse">
                    <syllabic>end</syllabic>
                    <text>hands</text>
                </lyric>
                <lyric number="3" name="verse">
                    <syllabic>end</syllabic>
                    <text>piece</text>
                </lyric>
            </note>
            <note>
                <pitch>
                    <step>G</step>
                    <octave>4</octave>
                </pitch>
                <duration>384</duration>
                <voice>1</voice>
                <type>eighth</type>
                <beam number="1">begin</beam>
                <lyric number="1" name="verse">
                    <syllabic>end</syllabic>
                    <text>school</text>
                </lyric>
                <lyric number="2" name="verse">
                    <syllabic>end</syllabic>
                    <text>are</text>
                </lyric>
                <lyric number="3" name="verse">
                    <syllabic>end</syllabic>
                    <text>of</text>
                </lyric>
            </note>
            <note>
                <pitch>
                    <step>E</step>
                    <alter>-1</alter>
                    <octave>4</octave>
                </pitch>
                <duration>384</duration>
                <voice>1</voice>
                <type>eighth</type>
                <beam number="1">continue</beam>
                <lyric number="1" name="verse">
                    <syllabic>middle</syllabic>
                    <text>lo</text>
                </lyric>
                <lyric number="2" name="verse">
                    <syllabic>middle</syllabic>
                    <text>sha</text>
                    <extend/>
                </lyric>
                <lyric number="3" name="verse">
                    <syllabic>middle</syllabic>
                    <text>go</text>
                </lyric>
            </note>
        </measure>
        <measure number="10">
            <harmony relative-x="8" default-y="27" print-frame="no">
                <root>
                    <root-step>C</root-step>
                </root>
                <kind text="m">minor</kind>
            </harmony>
            <note>
                <pitch>
                    <step>C</step>
                    <octave>4</octave>
                </pitch>
                <duration>384</duration>
                <voice>1</voice>
                <type>eighth</type>
                <beam number="1">begin</beam>
                <lyric number="1" name="verse">
                    <syllabic>end</syllabic>
                    <text>ver</text>
                </lyric>
                <lyric number="3" name="verse">
                    <syllabic>end</syllabic>
                    <text>ld</text>
                    <extend/>
                </lyric>
            </note>
            <note>
                <pitch>
                    <step>E</step>
                    <alter>-1</alter>
                    <octave>4</octave>
                </pitch>
                <duration>384</duration>
                <tie type="start"/>
                <voice>1</voice>
                <type>eighth</type>
                <beam number="1">continue</beam>
                <notations>
                    <tied type="start"/>
                </notations>
                <lyric number="2" name="verse">
                    <syllabic>end</syllabic>
                    <text>king</text>
                    <extend/>
                </lyric>
            </note>
            <note>
                <pitch>
                    <step>E</step>
                    <alter>-1</alter>
                    <octave>4</octave>
                </pitch>
                <duration>768</duration>
                <voice>1</voice>
                <type>quarter</type>
            </note>
            <harmony relative-x="13" default-y="27" print-frame="no">
                <root>
                    <root-step>C</root-step>
                </root>
                <kind text="m7">minor-seventh</kind>
            </harmony>
            <note>
                <rest/>
                <duration>1536</duration>
                <voice>1</voice>
                <type>half</type>
            </note>
        </measure>
        <measure number="11">
            <harmony relative-x="10" default-y="28" print-frame="no">
                <root>
                    <root-step>A</root-step>
                    <root-alter>-1</root-alter>
                </root>
                <kind use-symbols="yes">diminished</kind>
            </harmony>
            <note>
                <rest/>
                <duration>384</duration>
                <voice>1</voice>
                <type>eighth</type>
            </note>
            <note>
                <pitch>
                    <step>F</step>
                    <octave>4</octave>
                </pitch>
                <duration>384</duration>
                <voice>1</voice>
                <type>eighth</type>
                <beam number="1">continue</beam>
                <lyric number="1" name="verse">
                    <syllabic>end</syllabic>
                    <text>and</text>
                </lyric>
                <lyric number="2" name="verse">
                    <syllabic>end</syllabic>
                    <text>I</text>
                </lyric>
                <lyric number="3" name="verse">
                    <syllabic>end</syllabic>
                    <text>the</text>
                </lyric>
            </note>
            <note>
                <pitch>
                    <step>F</step>
                    <octave>4</octave>
                </pitch>
                <duration>384</duration>
                <voice>1</voice>
                <type>eighth</type>
                <beam number="1">begin</beam>
                <lyric number="1" name="verse">
                    <syllabic>end</syllabic>
                    <text>you're</text>
                </lyric>
                <lyric number="2" name="verse">
                    <syllabic>end</syllabic>
                    <text>feel</text>
                </lyric>
                <lyric number="3" name="verse">
                    <syllabic>middle</syllabic>
                    <text>flush</text>
                </lyric>
            </note>
            <note>
                <pitch>
                    <step>E</step>
                    <alter>-1</alter>
                    <octave>4</octave>
                </pitch>
                <duration>384</duration>
                <voice>1</voice>
                <type>eighth</type>
                <beam number="1">continue</beam>
                <lyric number="1" name="verse">
                    <syllabic>end</syllabic>
                    <text>my</text>
                </lyric>
                <lyric number="2" name="verse">
                    <syllabic>end</syllabic>
                    <text>my</text>
                </lyric>
                <lyric number="3" name="verse">
                    <syllabic>end</syllabic>
                    <text>es</text>
                </lyric>
            </note>
            <harmony relative-x="5" default-y="32" print-frame="no">
                <root>
                    <root-step>G</root-step>
                </root>
                <kind text="">major</kind>
            </harmony>
            <note>
                <pitch>
                    <step>F</step>
                    <octave>4</octave>
                </pitch>
                <duration>768</duration>
                <voice>1</voice>
                <type>quarter</type>
                <lyric number="1" name="verse">
                    <syllabic>middle</syllabic>
                    <text>fav'</text>
                </lyric>
                <lyric number="2" name="verse">
                    <syllabic>middle</syllabic>
                    <text>bo</text>
                </lyric>
                <lyric number="3" name="verse">
                    <syllabic>end</syllabic>
                    <text>of</text>
                </lyric>
            </note>
            <note>
                <pitch>
                    <step>G</step>
                    <octave>4</octave>
                </pitch>
                <duration>384</duration>
                <voice>1</voice>
                <type>eighth</type>
                <beam number="1">begin</beam>
                <lyric number="1" name="verse">
                    <syllabic>end</syllabic>
                    <text>rite</text>
                </lyric>
                <lyric number="2" name="verse">
                    <syllabic>end</syllabic>
                    <text>dy</text>
                </lyric>
                <lyric number="3" name="verse">
                    <syllabic>end</syllabic>
                    <text>my</text>
                </lyric>
            </note>
            <note>
                <pitch>
                    <step>E</step>
                    <alter>-1</alter>
                    <octave>4</octave>
                </pitch>
                <duration>384</duration>
                <voice>1</voice>
                <type>eighth</type>
                <beam number="1">continue</beam>
                <lyric number="1" name="verse">
                    <syllabic>middle</syllabic>
                    <text>fla</text>
                    <extend/>
                </lyric>
                <lyric number="2" name="verse">
                    <syllabic>middle</syllabic>
                    <text>ree</text>
                    <extend/>
                </lyric>
                <lyric number="3" name="verse">
                    <syllabic>end</syllabic>
                    <text>soul</text>
                    <extend/>
                </lyric>
            </note>
        </measure>
        <measure number="12">
            <direction>
                <direction-type>
                    <words relative-x="8" default-y="33">Ab(add 9)</words>
                </direction-type>
            </direction>
            <note>
                <pitch>
                    <step>C</step>
                    <octave>4</octave>
                </pitch>
                <duration>384</duration>
                <voice>1</voice>
                <type>eighth</type>
                <beam number="1">begin</beam>
            </note>
            <note>
                <pitch>
                    <step>E</step>
                    <alter>-1</alter>
                    <octave>4</octave>
                </pitch>
                <duration>384</duration>
                <tie type="start"/>
                <voice>1</voice>
                <type>eighth</type>
                <beam number="1">continue</beam>
                <notations>
                    <tied type="start"/>
                </notations>
                <lyric number="1" name="verse">
                    <syllabic>end</syllabic>
                    <text>vor</text>
                    <extend/>
                </lyric>
                <lyric number="2" name="verse">
                    <syllabic>end</syllabic>
                    <text>ling</text>
                    <extend/>
                </lyric>
            </note>
            <note>
                <pitch>
                    <step>E</step>
                    <alter>-1</alter>
                    <octave>4</octave>
                </pitch>
                <duration>768</duration>
                <voice>1</voice>
                <type>quarter</type>
            </note>
            <harmony relative-x="8" default-y="33" print-frame="no">
                <root>
                    <root-step>F</root-step>
                </root>
                <kind text="">major</kind>
            </harmony>
            <note>
                <rest/>
                <duration>1536</duration>
                <voice>1</voice>
                <type>half</type>
            </note>
        </measure>
        <measure number="13">
            <note>
                <rest/>
                <duration>3072</duration>
                <voice>1</voice>
            </note>
        </measure>
        <measure number="14">
            <print new-system="yes"/>
            <harmony relative-x="8" default-y="21" print-frame="no">
                <root>
                    <root-step>A</root-step>
                    <root-alter>-1</root-alter>
                </root>
                <kind text="">major</kind>
                <bass>
                    <bass-step>E</bass-step>
                    <bass-alter>-1</bass-alter>
                </bass>
            </harmony>
            <note>
                <rest/>
                <duration>768</duration>
                <voice>1</voice>
                <type>quarter</type>
            </note>
            <note>
                <pitch>
                    <step>F</step>
                    <octave>4</octave>
                </pitch>
                <duration>384</duration>
                <voice>1</voice>
                <type>eighth</type>
                <beam number="1">begin</beam>
                <lyric number="1" name="verse">
                    <syllabic>end</syllabic>
                    <text>Love</text>
                </lyric>
                <lyric number="2" name="verse">
                    <syllabic>end</syllabic>
                    <text>Time's</text>
                </lyric>
                <lyric number="3" name="verse">
                    <syllabic>middle</syllabic>
                    <text>Ex</text>
                </lyric>
            </note>
            <note>
                <pitch>
                    <step>E</step>
                    <alter>-1</alter>
                    <octave>4</octave>
                </pitch>
                <duration>192</duration>
                <voice>1</voice>
                <type>16th</type>
                <beam number="1">continue</beam>
                <beam number="2">continue</beam>
                <lyric number="1" name="verse">
                    <syllabic>end</syllabic>
                    <text>is</text>
                </lyric>
                <lyric number="2" name="verse">
                    <syllabic>end</syllabic>
                    <text>no</text>
                    <extend/>
                </lyric>
                <lyric number="3" name="verse">
                    <syllabic>end</syllabic>
                    <text>tra</text>
                </lyric>
            </note>
            <note>
                <pitch>
                    <step>F</step>
                    <octave>4</octave>
                </pitch>
                <duration>192</duration>
                <tie type="start"/>
                <voice>1</voice>
                <type>16th</type>
                <beam number="1">continue</beam>
                <beam number="2">continue</beam>
                <notations>
                    <tied type="start"/>
                </notations>
                <lyric number="1" name="verse">
                    <syllabic>end</syllabic>
                    <text>all,</text>
                    <extend/>
                </lyric>
                <lyric number="3" name="verse">
                    <syllabic>end</syllabic>
                    <text>time,</text>
                    <extend/>
                </lyric>
            </note>
            <harmony relative-x="8" default-y="20" print-frame="no">
                <root>
                    <root-step>F</root-step>
                </root>
                <kind text="">major</kind>
            </harmony>
            <note>
                <pitch>
                    <step>F</step>
                    <octave>4</octave>
                </pitch>
                <duration>384</duration>
                <voice>1</voice>
                <type>eighth</type>
                <beam number="1">begin</beam>
                <lyric number="2" name="verse">
                    <syllabic>middle</syllabic>
                    <text>mat</text>
                </lyric>
            </note>
            <note>
                <pitch>
                    <step>G</step>
                    <octave>4</octave>
                </pitch>
                <duration>384</duration>
                <tie type="start"/>
                <voice>1</voice>
                <type>eighth</type>
                <beam number="1">continue</beam>
                <notations>
                    <tied type="start"/>
                </notations>
            </note>
            <note>
                <pitch>
                    <step>G</step>
                    <octave>4</octave>
                </pitch>
                <duration>768</duration>
                <voice>1</voice>
                <type>quarter</type>
                <lyric number="2" name="verse">
                    <syllabic>end</syllabic>
                    <text>ter</text>
                    <extend/>
                </lyric>
            </note>
        </measure>
        <measure number="15">
            <harmony relative-x="8" default-y="27" print-frame="no">
                <root>
                    <root-step>A</root-step>
                    <root-alter>-1</root-alter>
                </root>
                <kind text="">major</kind>
                <bass>
                    <bass-step>E</bass-step>
                    <bass-alter>-1</bass-alter>
                </bass>
            </harmony>
            <note>
                <rest/>
                <duration>768</duration>
                <voice>1</voice>
                <type>quarter</type>
            </note>
            <note>
                <pitch>
                    <step>F</step>
                    <octave>4</octave>
                </pitch>
                <duration>384</duration>
                <voice>1</voice>
                <type>eighth</type>
                <beam number="1">begin</beam>
                <lyric number="1" name="verse">
                    <syllabic>end</syllabic>
                    <text>all</text>
                </lyric>
                <lyric number="2" name="verse">
                    <syllabic>end</syllabic>
                    <text>I'm</text>
                </lyric>
                <lyric number="3" name="verse">
                    <syllabic>end</syllabic>
                    <text>on</text>
                </lyric>
            </note>
            <note>
                <pitch>
                    <step>E</step>
                    <alter>-1</alter>
                    <octave>4</octave>
                </pitch>
                <duration>384</duration>
                <voice>1</voice>
                <type>eighth</type>
                <beam number="1">continue</beam>
                <lyric number="1" name="verse">
                    <syllabic>end</syllabic>
                    <text>my</text>
                </lyric>
                <lyric number="2" name="verse">
                    <syllabic>end</syllabic>
                    <text>on</text>
                </lyric>
                <lyric number="3" name="verse">
                    <syllabic>end</syllabic>
                    <text>the</text>
                </lyric>
            </note>
            <harmony relative-x="8" default-y="28" print-frame="no">
                <root>
                    <root-step>F</root-step>
                </root>
                <kind text="">major</kind>
            </harmony>
            <note>
                <pitch>
                    <step>F</step>
                    <octave>4</octave>
                </pitch>
                <duration>384</duration>
                <voice>1</voice>
                <type>eighth</type>
                <beam number="1">begin</beam>
                <lyric number="1" name="verse">
                    <syllabic>end</syllabic>
                    <text>soul</text>
                    <extend/>
                </lyric>
                <lyric number="2" name="verse">
                    <syllabic>middle</syllabic>
                    <text>fi</text>
                    <extend/>
                </lyric>
                <lyric number="3" name="verse">
                    <syllabic>end</syllabic>
                    <text>ground</text>
                    <extend/>
                </lyric>
            </note>
            <note>
                <pitch>
                    <step>G</step>
                    <octave>4</octave>
                </pitch>
                <duration>384</duration>
                <tie type="start"/>
                <voice>1</voice>
                <type>eighth</type>
                <beam number="1">continue</beam>
                <notations>
                    <tied type="start"/>
                </notations>
            </note>
            <note>
                <pitch>
                    <step>G</step>
                    <octave>4</octave>
                </pitch>
                <duration>768</duration>
                <voice>1</voice>
                <type>quarter</type>
                <lyric number="2" name="verse">
                    <syllabic>end</syllabic>
                    <text>re</text>
                </lyric>
            </note>
        </measure>
        <measure number="16">
            <harmony relative-x="8" default-y="28" print-frame="no">
                <root>
                    <root-step>A</root-step>
                    <root-alter>-1</root-alter>
                </root>
                <kind text="">major</kind>
                <bass>
                    <bass-step>E</bass-step>
                    <bass-alter>-1</bass-alter>
                </bass>
            </harmony>
            <note>
                <rest/>
                <duration>768</duration>
                <voice>1</voice>
                <type>quarter</type>
            </note>
            <note>
                <pitch>
                    <step>F</step>
                    <octave>4</octave>
                </pitch>
                <duration>384</duration>
                <voice>1</voice>
                <type>eighth</type>
                <beam number="1">begin</beam>
                <lyric number="1" name="verse">
                    <syllabic>end</syllabic>
                    <text>You're</text>
                </lyric>
                <lyric number="2" name="verse">
                    <syllabic>end</syllabic>
                    <text>On</text>
                </lyric>
                <lyric number="3" name="verse">
                    <syllabic>end</syllabic>
                    <text>You're</text>
                </lyric>
            </note>
            <note>
                <pitch>
                    <step>E</step>
                    <alter>-1</alter>
                    <octave>4</octave>
                </pitch>
                <duration>384</duration>
                <voice>1</voice>
                <type>eighth</type>
                <beam number="1">continue</beam>
                <lyric number="1" name="verse">
                    <syllabic>end</syllabic>
                    <text>my</text>
                </lyric>
                <lyric number="2" name="verse">
                    <syllabic>end</syllabic>
                    <text>the</text>
                </lyric>
                <lyric number="3" name="verse">
                    <syllabic>end</syllabic>
                    <text>my</text>
                </lyric>
            </note>
            <harmony relative-x="8" default-y="31" print-frame="no">
                <root>
                    <root-step>G</root-step>
                </root>
                <kind text="">major</kind>
                <bass>
                    <bass-step>D</bass-step>
                </bass>
            </harmony>
            <note>
                <pitch>
                    <step>F</step>
                    <octave>4</octave>
                </pitch>
                <duration>384</duration>
                <voice>1</voice>
                <type>eighth</type>
                <beam number="1">begin</beam>
                <lyric number="1" name="verse">
                    <syllabic>middle</syllabic>
                    <text>play</text>
                </lyric>
                <lyric number="2" name="verse">
                    <syllabic>middle</syllabic>
                    <text>play</text>
                </lyric>
                <lyric number="3" name="verse">
                    <syllabic>middle</syllabic>
                    <text>play</text>
                </lyric>
            </note>
            <note>
                <pitch>
                    <step>G</step>
                    <octave>4</octave>
                </pitch>
                <duration>768</duration>
                <voice>1</voice>
                <type>quarter</type>
                <lyric number="1" name="verse">
                    <syllabic>end</syllabic>
                    <text>ground</text>
                </lyric>
                <lyric number="2" name="verse">
                    <syllabic>end</syllabic>
                    <text>ground</text>
                </lyric>
                <lyric number="3" name="verse">
                    <syllabic>end</syllabic>
                    <text>ground</text>
                </lyric>
            </note>
            <harmony default-y="30" print-frame="no">
                <root>
                    <root-step>C</root-step>
                </root>
                <kind text="m">minor</kind>
                <offset>168</offset>
            </harmony>
            <note>
                <pitch>
                    <step>C</step>
                    <octave>4</octave>
                </pitch>
                <duration>384</duration>
                <tie type="start"/>
                <voice>1</voice>
                <type>eighth</type>
                <beam number="1">continue</beam>
                <notations>
                    <tied type="start"/>
                </notations>
                <lyric number="1" name="verse">
                    <syllabic>end</syllabic>
                    <text>love</text>
                    <extend/>
                </lyric>
                <lyric number="2" name="verse">
                    <syllabic>end</syllabic>
                    <text>love</text>
                </lyric>
                <lyric number="3" name="verse">
                    <syllabic>end</syllabic>
                    <text>love</text>
                </lyric>
            </note>
        </measure>
        <measure number="17">
            <note>
                <pitch>
                    <step>C</step>
                    <octave>4</octave>
                </pitch>
                <duration>3072</duration>
                <voice>1</voice>
                <type>whole</type>
            </note>
            <barline location="right">
                <bar-style>light-light</bar-style>
            </barline>
        </measure>
        <measure number="18">
            <print new-system="yes"/>
            <barline location="left">
                <ending type="start" number="1"></ending>
            </barline>
            <direction>
                <direction-type>
                    <words relative-x="-44" default-y="55" enclosure="rectangle">Solo</words>
                </direction-type>
            </direction>
            <harmony relative-x="8" default-y="25" print-frame="no">
                <root>
                    <root-step>C</root-step>
                </root>
                <kind text="m7">minor-seventh</kind>
            </harmony>
            <note>
                <rest/>
                <duration>3072</duration>
                <voice>1</voice>
            </note>
        </measure>
        <measure number="19">
            <harmony relative-x="8" default-y="25" print-frame="no">
                <root>
                    <root-step>C</root-step>
                </root>
                <kind text="m6">minor-sixth</kind>
            </harmony>
            <note>
                <rest/>
                <duration>3072</duration>
                <voice>1</voice>
            </note>
        </measure>
        <measure number="20">
            <harmony relative-x="8" default-y="25" print-frame="no">
                <root>
                    <root-step>C</root-step>
                </root>
                <kind text="m7">minor-seventh</kind>
            </harmony>
            <note>
                <rest/>
                <duration>3072</duration>
                <voice>1</voice>
            </note>
        </measure>
        <measure number="21">
            <harmony relative-x="6" default-y="25" print-frame="no">
                <root>
                    <root-step>C</root-step>
                </root>
                <kind text="m6">minor-sixth</kind>
            </harmony>
            <note>
                <rest/>
                <duration>3072</duration>
                <voice>1</voice>
            </note>
        </measure>
        <measure number="22">
            <print new-system="yes"/>
            <harmony relative-x="8" default-y="25" print-frame="no">
                <root>
                    <root-step>C</root-step>
                </root>
                <kind text="m9">minor-ninth</kind>
            </harmony>
            <note>
                <rest/>
                <duration>3072</duration>
                <voice>1</voice>
            </note>
        </measure>
        <measure number="23">
            <harmony relative-x="8" default-y="26" print-frame="no">
                <root>
                    <root-step>C</root-step>
                </root>
                <kind text="m6">minor-sixth</kind>
            </harmony>
            <note>
                <rest/>
                <duration>3072</duration>
                <voice>1</voice>
            </note>
        </measure>
        <measure number="24">
            <harmony relative-x="8" default-y="25" print-frame="no">
                <root>
                    <root-step>C</root-step>
                </root>
                <kind text="m7">minor-seventh</kind>
            </harmony>
            <note>
                <rest/>
                <duration>3072</duration>
                <voice>1</voice>
            </note>
        </measure>
        <measure number="25">
            <harmony relative-x="8" default-y="29" print-frame="no">
                <root>
                    <root-step>F</root-step>
                </root>
                <kind text="7">dominant</kind>
                <bass>
                    <bass-step>C</bass-step>
                </bass>
            </harmony>
            <note>
                <rest/>
                <duration>3072</duration>
                <voice>1</voice>
            </note>
            <barline location="right">
                <bar-style>light-heavy</bar-style>
                <ending type="stop" number="1"></ending>
                <repeat direction="backward"/>
            </barline>
        </measure>
        <measure number="26">
            <print new-system="yes"/>
            <barline location="left">
                <ending type="start" number="2"></ending>
            </barline>
            <harmony relative-x="8" default-y="44" print-frame="no">
                <root>
                    <root-step>C</root-step>
                </root>
                <kind text="m7">minor-seventh</kind>
            </harmony>
            <note>
                <rest/>
                <duration>3072</duration>
                <voice>1</voice>
            </note>
        </measure>
        <measure number="27">
            <harmony relative-x="8" default-y="25" print-frame="no">
                <root>
                    <root-step>C</root-step>
                </root>
                <kind text="m6">minor-sixth</kind>
            </harmony>
            <note>
                <rest/>
                <duration>3072</duration>
                <voice>1</voice>
            </note>
        </measure>
        <measure number="28">
            <harmony relative-x="8" default-y="25" print-frame="no">
                <root>
                    <root-step>C</root-step>
                </root>
                <kind text="m7">minor-seventh</kind>
            </harmony>
            <note>
                <rest/>
                <duration>3072</duration>
                <voice>1</voice>
            </note>
        </measure>
        <measure number="29">
            <harmony relative-x="8" default-y="25" print-frame="no">
                <root>
                    <root-step>C</root-step>
                </root>
                <kind text="m6">minor-sixth</kind>
            </harmony>
            <note>
                <rest/>
                <duration>3072</duration>
                <voice>1</voice>
            </note>
        </measure>
        <measure number="30">
            <print new-system="yes"/>
            <harmony relative-x="8" default-y="25" print-frame="no">
                <root>
                    <root-step>C</root-step>
                </root>
                <kind text="m9">minor-ninth</kind>
            </harmony>
            <note>
                <rest/>
                <duration>3072</duration>
                <voice>1</voice>
            </note>
        </measure>
        <measure number="31">
            <harmony relative-x="8" default-y="34" print-frame="no">
                <root>
                    <root-step>C</root-step>
                </root>
                <kind text="m6">minor-sixth</kind>
            </harmony>
            <note>
                <rest/>
                <duration>3072</duration>
                <voice>1</voice>
            </note>
        </measure>
        <measure number="32">
            <harmony relative-x="8" default-y="25" print-frame="no">
                <root>
                    <root-step>C</root-step>
                </root>
                <kind text="m7">minor-seventh</kind>
            </harmony>
            <note>
                <rest/>
                <duration>3072</duration>
                <voice>1</voice>
            </note>
        </measure>
        <measure number="33">
            <harmony relative-x="8" default-y="30" print-frame="no">
                <root>
                    <root-step>F</root-step>
                </root>
                <kind text="7">dominant</kind>
                <bass>
                    <bass-step>C</bass-step>
                </bass>
            </harmony>
            <note>
                <rest/>
                <duration>3072</duration>
                <voice>1</voice>
            </note>
            <barline location="right">
                <bar-style>light-heavy</bar-style>
                <ending type="stop" number="2"></ending>
                <repeat direction="backward"/>
            </barline>
        </measure>
        <measure number="34">
            <print new-system="yes"/>
            <barline location="left">
                <ending type="start" number="3"></ending>
            </barline>
            <harmony relative-x="8" default-y="39" print-frame="no">
                <root>
                    <root-step>E</root-step>
                    <root-alter>-1</root-alter>
                </root>
                <kind text="">major</kind>
            </harmony>
            <note>
                <rest/>
                <duration>3072</duration>
                <voice>1</voice>
            </note>
            <harmony relative-x="8" default-y="41" print-frame="no">
                <root>
                    <root-step>G</root-step>
                </root>
                <kind text="">major</kind>
                <offset>-1536</offset>
            </harmony>
        </measure>
        <measure number="35">
            <harmony relative-x="8" default-y="39" print-frame="no">
                <root>
                    <root-step>C</root-step>
                </root>
                <kind text="m">minor</kind>
            </harmony>
            <note>
                <rest/>
                <duration>3072</duration>
                <voice>1</voice>
            </note>
        </measure>
        <measure number="36">
            <harmony relative-x="8" default-y="34" print-frame="no">
                <root>
                    <root-step>A</root-step>
                    <root-alter>-1</root-alter>
                </root>
                <kind use-symbols="yes">diminished</kind>
            </harmony>
            <note>
                <rest/>
                <duration>3072</duration>
                <voice>1</voice>
            </note>
            <harmony relative-x="8" default-y="33" print-frame="no">
                <root>
                    <root-step>G</root-step>
                </root>
                <kind text="">major</kind>
                <offset>-1536</offset>
            </harmony>
        </measure>
        <measure number="37">
            <direction>
                <direction-type>
                    <words relative-x="8" default-y="25">Ab(add 9)</words>
                </direction-type>
            </direction>
            <note>
                <rest/>
                <duration>3072</duration>
                <voice>1</voice>
            </note>
            <harmony relative-x="8" default-y="25" print-frame="no">
                <root>
                    <root-step>F</root-step>
                </root>
                <kind text="">major</kind>
                <offset>-1536</offset>
            </harmony>
            <barline location="right">
                <ending type="discontinue" number="3"></ending>
            </barline>
        </measure>
        <measure number="38">
            <note>
                <rest/>
                <duration>3072</duration>
                <voice>1</voice>
            </note>
        </measure>
        <measure number="39">
            <print new-system="yes"/>
            <harmony relative-x="8" default-y="34" print-frame="no">
                <root>
                    <root-step>A</root-step>
                    <root-alter>-1</root-alter>
                </root>
                <kind text="">major</kind>
                <bass>
                    <bass-step>E</bass-step>
                    <bass-alter>-1</bass-alter>
                </bass>
            </harmony>
            <note>
                <rest/>
                <duration>768</duration>
                <voice>1</voice>
                <type>quarter</type>
            </note>
            <note>
                <pitch>
                    <step>F</step>
                    <octave>4</octave>
                </pitch>
                <duration>384</duration>
                <voice>1</voice>
                <type>eighth</type>
                <beam number="1">begin</beam>
                <lyric number="1" name="verse">
                    <syllabic>middle</syllabic>
                    <text>A</text>
                </lyric>
            </note>
            <note>
                <pitch>
                    <step>E</step>
                    <alter>-1</alter>
                    <octave>4</octave>
                </pitch>
                <duration>192</duration>
                <voice>1</voice>
                <type>16th</type>
                <beam number="1">continue</beam>
                <beam number="2">continue</beam>
                <lyric number="1" name="verse">
                    <syllabic>middle</syllabic>
                    <text>ny</text>
                </lyric>
            </note>
            <note>
                <pitch>
                    <step>F</step>
                    <octave>4</octave>
                </pitch>
                <duration>192</duration>
                <tie type="start"/>
                <voice>1</voice>
                <type>16th</type>
                <beam number="1">continue</beam>
                <beam number="2">continue</beam>
                <notations>
                    <tied type="start"/>
                </notations>
                <lyric number="1" name="verse">
                    <syllabic>end</syllabic>
                    <text>time,</text>
                    <extend/>
                </lyric>
            </note>
            <harmony relative-x="8" default-y="25" print-frame="no">
                <root>
                    <root-step>F</root-step>
                </root>
                <kind text="">major</kind>
            </harmony>
            <note>
                <pitch>
                    <step>F</step>
                    <octave>4</octave>
                </pitch>
                <duration>384</duration>
                <voice>1</voice>
                <type>eighth</type>
                <beam number="1">begin</beam>
            </note>
            <note>
                <pitch>
                    <step>G</step>
                    <octave>4</octave>
                </pitch>
                <duration>384</duration>
                <tie type="start"/>
                <voice>1</voice>
                <type>eighth</type>
                <beam number="1">continue</beam>
                <notations>
                    <tied type="start"/>
                </notations>
            </note>
            <note>
                <pitch>
                    <step>G</step>
                    <octave>4</octave>
                </pitch>
                <duration>768</duration>
                <voice>1</voice>
                <type>quarter</type>
            </note>
        </measure>
        <measure number="40">
            <harmony relative-x="8" default-y="25" print-frame="no">
                <root>
                    <root-step>A</root-step>
                    <root-alter>-1</root-alter>
                </root>
                <kind text="">major</kind>
                <bass>
                    <bass-step>E</bass-step>
                    <bass-alter>-1</bass-alter>
                </bass>
            </harmony>
            <note>
                <rest/>
                <duration>768</duration>
                <voice>1</voice>
                <type>quarter</type>
            </note>
            <note>
                <pitch>
                    <step>F</step>
                    <octave>4</octave>
                </pitch>
                <duration>384</duration>
                <voice>1</voice>
                <type>eighth</type>
                <beam number="1">begin</beam>
                <lyric number="1" name="verse">
                    <syllabic>middle</syllabic>
                    <text>A</text>
                </lyric>
            </note>
            <note>
                <pitch>
                    <step>E</step>
                    <alter>-1</alter>
                    <octave>4</octave>
                </pitch>
                <duration>384</duration>
                <voice>1</voice>
                <type>eighth</type>
                <beam number="1">continue</beam>
                <lyric number="1" name="verse">
                    <syllabic>middle</syllabic>
                    <text>ny</text>
                </lyric>
            </note>
            <harmony relative-x="8" default-y="25" print-frame="no">
                <root>
                    <root-step>F</root-step>
                </root>
                <kind text="">major</kind>
            </harmony>
            <note>
                <pitch>
                    <step>F</step>
                    <octave>4</octave>
                </pitch>
                <duration>384</duration>
                <voice>1</voice>
                <type>eighth</type>
                <beam number="1">begin</beam>
                <lyric number="1" name="verse">
                    <syllabic>end</syllabic>
                    <text>where</text>
                    <extend/>
                </lyric>
            </note>
            <note>
                <pitch>
                    <step>G</step>
                    <octave>4</octave>
                </pitch>
                <duration>384</duration>
                <tie type="start"/>
                <voice>1</voice>
                <type>eighth</type>
                <beam number="1">continue</beam>
                <notations>
                    <tied type="start"/>
                </notations>
            </note>
            <note>
                <pitch>
                    <step>G</step>
                    <octave>4</octave>
                </pitch>
                <duration>768</duration>
                <voice>1</voice>
                <type>quarter</type>
            </note>
        </measure>
        <measure number="41">
            <harmony relative-x="8" default-y="30" print-frame="no">
                <root>
                    <root-step>A</root-step>
                    <root-alter>-1</root-alter>
                </root>
                <kind text="">major</kind>
                <bass>
                    <bass-step>E</bass-step>
                    <bass-alter>-1</bass-alter>
                </bass>
            </harmony>
            <note>
                <rest/>
                <duration>768</duration>
                <voice>1</voice>
                <type>quarter</type>
            </note>
            <note>
                <pitch>
                    <step>F</step>
                    <octave>4</octave>
                </pitch>
                <duration>384</duration>
                <voice>1</voice>
                <type>eighth</type>
                <beam number="1">begin</beam>
                <lyric number="1" name="verse">
                    <syllabic>end</syllabic>
                    <text>You're</text>
                </lyric>
            </note>
            <note>
                <pitch>
                    <step>E</step>
                    <alter>-1</alter>
                    <octave>4</octave>
                </pitch>
                <duration>384</duration>
                <voice>1</voice>
                <type>eighth</type>
                <beam number="1">continue</beam>
                <lyric number="1" name="verse">
                    <syllabic>end</syllabic>
                    <text>my</text>
                </lyric>
            </note>
            <harmony relative-x="8" default-y="30" print-frame="no">
                <root>
                    <root-step>G</root-step>
                </root>
                <kind text="">major</kind>
                <bass>
                    <bass-step>D</bass-step>
                </bass>
            </harmony>
            <note>
                <pitch>
                    <step>F</step>
                    <octave>4</octave>
                </pitch>
                <duration>384</duration>
                <voice>1</voice>
                <type>eighth</type>
                <beam number="1">begin</beam>
                <lyric number="1" name="verse">
                    <syllabic>middle</syllabic>
                    <text>play</text>
                </lyric>
            </note>
            <note>
                <pitch>
                    <step>G</step>
                    <octave>4</octave>
                </pitch>
                <duration>768</duration>
                <voice>1</voice>
                <type>quarter</type>
                <lyric number="1" name="verse">
                    <syllabic>end</syllabic>
                    <text>ground</text>
                </lyric>
            </note>
            <harmony default-y="30" print-frame="no">
                <root>
                    <root-step>C</root-step>
                </root>
                <kind text="m">minor</kind>
                <offset>171</offset>
            </harmony>
            <note>
                <pitch>
                    <step>C</step>
                    <octave>4</octave>
                </pitch>
                <duration>384</duration>
                <tie type="start"/>
                <voice>1</voice>
                <type>eighth</type>
                <beam number="1">continue</beam>
                <notations>
                    <tied type="start"/>
                </notations>
                <lyric number="1" name="verse">
                    <syllabic>end</syllabic>
                    <text>love</text>
                </lyric>
            </note>
        </measure>
        <measure number="42">
            <note>
                <pitch>
                    <step>C</step>
                    <octave>4</octave>
                </pitch>
                <duration>1536</duration>
                <voice>1</voice>
                <type>half</type>
                <notations>
                    <fermata></fermata>
                </notations>
            </note>
            <note>
                <rest/>
                <duration>1536</duration>
                <voice>1</voice>
                <type>half</type>
            </note>
            <barline location="right">
                <bar-style>light-heavy</bar-style>
            </barline>
        </measure>
    </part>
</score-partwise>
