<?xml version="1.0" encoding="UTF-8"?>
<!DOCTYPE score-partwise PUBLIC "-//Recordare//DTD MusicXML 2.0 Partwise//EN" "http://www.musicxml.org/dtds/partwise.dtd">
<score-partwise version="2.0">
    <work>
        <work-number></work-number>
        <work-title></work-title>
    </work>
    <movement-number></movement-number>
    <movement-title>Whatever Lola Wants</movement-title>
    <identification>
        <creator type="composer">Jerry Ross</creator>
        <creator type="poet">Richard Aldler</creator>
        <rights>All Rights Reserved</rights>
        <encoding>
            <software>PrintMusic 2010 for Macintosh</software>
            <software>Dolet Light for PrintMusic 2010</software>
            <encoding-date>2010-06-07</encoding-date>
            <supports value="yes" type="yes" element="print" attribute="new-system"/>
            <supports value="yes" type="yes" element="print" attribute="new-page"/>
            <software>ProxyMusic 2.0 c</software>
        </encoding>
        <source>http://wikifonia.org/node/6211/revisions/8613/view</source>
    </identification>
    <defaults>
        <scaling>
            <millimeters>6.2706</millimeters>
            <tenths>40</tenths>
        </scaling>
        <page-layout>
            <page-height>1895</page-height>
            <page-width>1340</page-width>
            <page-margins type="both">
                <left-margin>143</left-margin>
                <right-margin>80</right-margin>
                <top-margin>96</top-margin>
                <bottom-margin>96</bottom-margin>
            </page-margins>
        </page-layout>
        <system-layout>
            <system-margins>
                <left-margin>0</left-margin>
                <right-margin>0</right-margin>
            </system-margins>
            <system-distance>146</system-distance>
            <top-system-distance>97</top-system-distance>
        </system-layout>
        <appearance>
            <line-width type="stem">1.0417</line-width>
            <line-width type="beam">5</line-width>
            <line-width type="staff">0.944</line-width>
            <line-width type="light barline">1.4583</line-width>
            <line-width type="heavy barline">5</line-width>
            <line-width type="leger">1.4583</line-width>
            <line-width type="ending">1.0417</line-width>
            <line-width type="wedge">1.25</line-width>
            <line-width type="enclosure">0.944</line-width>
            <line-width type="tuplet bracket">1.25</line-width>
            <note-size type="grace">75</note-size>
            <note-size type="cue">75</note-size>
        </appearance>
        <music-font font-size="17.8" font-family="Kousaku"/>
        <word-font font-size="8.9" font-family="ヒラギノ角ゴ Pro W3"/>
        <lyric-font font-size="8.9" font-family="ヒラギノ角ゴ Pro W3" name="verse"/>
    </defaults>
    <credit page="1">
        <credit-words font-size="9" default-y="1690" default-x="1260" justify="right" valign="top">作曲：Richard Aldler</credit-words>
    </credit>
    <credit page="1">
        <credit-words font-weight="bold" font-size="21.6" font-family="ヒラギノ角ゴ Pro W6" default-y="1767" default-x="702" justify="center" valign="top">Whatever Lola Wants</credit-words>
    </credit>
    <part-list>
        <score-part id="P1">
            <part-name>Vocals</part-name>
            <score-instrument id="P1-I1">
                <instrument-name>Vocals</instrument-name>
            </score-instrument>
            <midi-instrument id="P1-I1">
                <midi-channel>1</midi-channel>
                <midi-program>55</midi-program>
                <volume>80</volume>
                <pan>0</pan>
            </midi-instrument>
        </score-part>
    </part-list>
    <part id="P1">
        <measure width="216" number="0" implicit="yes">
            <print>
                <system-layout>
                    <system-margins>
                        <left-margin>57</left-margin>
                        <right-margin>0</right-margin>
                    </system-margins>
                    <top-system-distance>230</top-system-distance>
                </system-layout>
            </print>
            <attributes>
                <divisions>8</divisions>
                <key>
                    <fifths>-1</fifths>
                    <mode>major</mode>
                </key>
                <time>
                    <beats>4</beats>
                    <beat-type>4</beat-type>
                </time>
                <clef>
                    <sign>G</sign>
                    <line>2</line>
                </clef>
            </attributes>
            <sound tempo="120"/>
            <note default-x="112">
                <pitch>
                    <step>A</step>
                    <octave>3</octave>
                </pitch>
                <duration>4</duration>
                <voice>1</voice>
                <type>eighth</type>
                <stem default-y="-19.5">up</stem>
                <lyric default-y="-89" number="1">
                    <syllabic>single</syllabic>
                    <text font-size="8.9">what</text>
                </lyric>
            </note>
            <note default-x="157">
                <pitch>
                    <step>D</step>
                    <octave>4</octave>
                </pitch>
                <duration>4</duration>
                <voice>1</voice>
                <type>eighth</type>
                <stem default-y="-10">up</stem>
                <beam number="1">begin</beam>
                <lyric default-y="-89" number="1">
                    <syllabic>begin</syllabic>
                    <text font-size="8.9">ev</text>
                </lyric>
            </note>
            <note default-x="182">
                <pitch>
                    <step>F</step>
                    <octave>4</octave>
                </pitch>
                <duration>4</duration>
                <voice>1</voice>
                <type>eighth</type>
                <stem default-y="0">up</stem>
                <beam number="1">end</beam>
                <lyric default-y="-89" number="1">
                    <syllabic>end</syllabic>
                    <text font-size="8.9">er</text>
                </lyric>
            </note>
        </measure>
        <measure width="231" number="1">
            <barline location="left">
                <bar-style>heavy-light</bar-style>
                <repeat direction="forward"/>
            </barline>
            <harmony font-family="Arial" default-y="32">
                <root>
                    <root-step>D</root-step>
                </root>
                <kind halign="left" text="m">minor</kind>
            </harmony>
            <note default-x="37">
                <pitch>
                    <step>A</step>
                    <octave>4</octave>
                </pitch>
                <duration>12</duration>
                <voice>1</voice>
                <type>quarter</type>
                <dot/>
                <stem default-y="11">up</stem>
                <lyric default-y="-89" number="1">
                    <syllabic>begin</syllabic>
                    <text font-size="8.9">Lo</text>
                </lyric>
            </note>
            <note default-x="96">
                <pitch>
                    <step>B</step>
                    <alter>-1</alter>
                    <octave>4</octave>
                </pitch>
                <duration>4</duration>
                <voice>1</voice>
                <type>eighth</type>
                <stem default-y="-55.5">down</stem>
                <lyric default-y="-89" number="1">
                    <syllabic>end</syllabic>
                    <text font-size="8.9">la</text>
                </lyric>
            </note>
            <note default-x="147">
                <pitch>
                    <step>A</step>
                    <octave>4</octave>
                </pitch>
                <duration>16</duration>
                <tie type="start"/>
                <voice>1</voice>
                <type>half</type>
                <stem default-y="11">up</stem>
                <notations>
                    <tied type="start"/>
                </notations>
                <lyric default-y="-89" number="1">
                    <syllabic>single</syllabic>
                    <text font-size="8.9">wants,</text>
                    <extend/>
                </lyric>
            </note>
        </measure>
        <measure width="174" number="2">
            <harmony font-family="Arial" default-y="32">
                <root>
                    <root-step>A</root-step>
                </root>
                <kind halign="left" text="7" parentheses-degrees="yes">dominant</kind>
                <degree>
                    <degree-value>5</degree-value>
                    <degree-alter>1</degree-alter>
                    <degree-type>alter</degree-type>
                </degree>
            </harmony>
            <note default-x="14">
                <pitch>
                    <step>A</step>
                    <octave>4</octave>
                </pitch>
                <duration>24</duration>
                <tie type="stop"/>
                <voice>1</voice>
                <type>half</type>
                <dot/>
                <stem default-y="11">up</stem>
                <notations>
                    <tied type="stop"/>
                </notations>
            </note>
            <harmony font-family="Arial" default-y="32">
                <root>
                    <root-step>D</root-step>
                </root>
                <kind halign="left" text="m7">minor-seventh</kind>
            </harmony>
            <note default-x="119">
                <rest/>
                <duration>8</duration>
                <voice>1</voice>
                <type>quarter</type>
            </note>
        </measure>
        <measure width="208" number="3">
            <harmony font-family="Arial" default-y="32">
                <root>
                    <root-step>E</root-step>
                </root>
                <kind halign="left" text="7">dominant</kind>
            </harmony>
            <note default-x="17">
                <pitch>
                    <step>G</step>
                    <alter>1</alter>
                    <octave>4</octave>
                </pitch>
                <duration>12</duration>
                <voice>1</voice>
                <type>quarter</type>
                <dot/>
                <accidental>sharp</accidental>
                <stem default-y="6">up</stem>
                <lyric default-y="-89" number="1">
                    <syllabic>begin</syllabic>
                    <text font-size="8.9">Lo</text>
                </lyric>
            </note>
            <note default-x="78">
                <pitch>
                    <step>A</step>
                    <octave>4</octave>
                </pitch>
                <duration>4</duration>
                <voice>1</voice>
                <type>eighth</type>
                <stem default-y="11">up</stem>
                <lyric default-y="-89" number="1">
                    <syllabic>end</syllabic>
                    <text font-size="8.9">la</text>
                </lyric>
            </note>
            <note default-x="125">
                <pitch>
                    <step>G</step>
                    <alter>1</alter>
                    <octave>4</octave>
                </pitch>
                <duration>16</duration>
                <voice>1</voice>
                <type>half</type>
                <stem default-y="6">up</stem>
                <lyric default-y="-89" number="1">
                    <syllabic>single</syllabic>
                    <text font-size="8.9">gets,</text>
                    <extend/>
                </lyric>
            </note>
        </measure>
        <measure width="230" number="4">
            <note default-x="17">
                <pitch>
                    <step>G</step>
                    <alter>1</alter>
                    <octave>4</octave>
                </pitch>
                <duration>16</duration>
                <voice>1</voice>
                <type>half</type>
                <accidental>sharp</accidental>
                <stem default-y="6">up</stem>
            </note>
            <note default-x="84">
                <rest/>
                <duration>4</duration>
                <voice>1</voice>
                <type>eighth</type>
            </note>
            <note default-x="118">
                <pitch>
                    <step>G</step>
                    <alter>1</alter>
                    <octave>4</octave>
                </pitch>
                <duration>4</duration>
                <voice>1</voice>
                <type>eighth</type>
                <stem default-y="10">up</stem>
                <beam number="1">begin</beam>
                <lyric default-y="-89" number="1">
                    <syllabic>single</syllabic>
                    <text font-size="8.9">And</text>
                </lyric>
            </note>
            <note default-x="158">
                <pitch>
                    <step>A</step>
                    <octave>4</octave>
                </pitch>
                <duration>4</duration>
                <voice>1</voice>
                <type>eighth</type>
                <stem default-y="10">up</stem>
                <beam number="1">continue</beam>
                <lyric default-y="-89" number="1">
                    <syllabic>begin</syllabic>
                    <text font-size="8.9">lit</text>
                </lyric>
            </note>
            <note default-x="191">
                <pitch>
                    <step>G</step>
                    <alter>1</alter>
                    <octave>4</octave>
                </pitch>
                <duration>4</duration>
                <voice>1</voice>
                <type>eighth</type>
                <stem default-y="10">up</stem>
                <beam number="1">end</beam>
                <lyric default-y="-89" number="1">
                    <syllabic>end</syllabic>
                    <text font-size="8.9">tle</text>
                </lyric>
            </note>
        </measure>
        <measure width="253" number="5">
            <print new-system="yes">
                <system-layout>
                    <system-distance>137</system-distance>
                </system-layout>
            </print>
            <harmony font-family="Arial" default-y="32">
                <root>
                    <root-step>E</root-step>
                </root>
                <kind halign="left" text="m7" parentheses-degrees="yes">minor-seventh</kind>
                <degree>
                    <degree-value>5</degree-value>
                    <degree-alter>-1</degree-alter>
                    <degree-type>alter</degree-type>
                </degree>
            </harmony>
            <note default-x="87">
                <pitch>
                    <step>G</step>
                    <octave>4</octave>
                </pitch>
                <duration>24</duration>
                <voice>1</voice>
                <type>half</type>
                <dot/>
                <stem default-y="5.5">up</stem>
                <lyric default-y="-89" number="1">
                    <syllabic>single</syllabic>
                    <text font-size="8.9">man,</text>
                </lyric>
            </note>
            <note default-x="180">
                <pitch>
                    <step>A</step>
                    <octave>4</octave>
                </pitch>
                <duration>4</duration>
                <voice>1</voice>
                <type>eighth</type>
                <stem default-y="10">up</stem>
                <beam number="1">begin</beam>
                <lyric default-y="-89" number="1">
                    <syllabic>begin</syllabic>
                    <text font-size="8.9">Lit</text>
                </lyric>
            </note>
            <note default-x="213">
                <pitch>
                    <step>G</step>
                    <octave>4</octave>
                </pitch>
                <duration>4</duration>
                <voice>1</voice>
                <type>eighth</type>
                <stem default-y="5">up</stem>
                <beam number="1">end</beam>
                <lyric default-y="-89" number="1">
                    <syllabic>end</syllabic>
                    <text font-size="8.9">tle</text>
                </lyric>
            </note>
        </measure>
        <measure width="217" number="6">
            <harmony font-family="Arial" default-y="32">
                <root>
                    <root-step>B</root-step>
                    <root-alter>-1</root-alter>
                </root>
                <kind halign="left" text="">major</kind>
            </harmony>
            <note default-x="20">
                <pitch>
                    <step>F</step>
                    <octave>4</octave>
                </pitch>
                <duration>8</duration>
                <voice>1</voice>
                <type>quarter</type>
                <stem default-y="0.5">up</stem>
                <lyric default-y="-89" number="1">
                    <syllabic>begin</syllabic>
                    <text font-size="8.9">Lo</text>
                </lyric>
            </note>
            <note default-x="67">
                <pitch>
                    <step>G</step>
                    <octave>4</octave>
                </pitch>
                <duration>8</duration>
                <voice>1</voice>
                <type>quarter</type>
                <stem default-y="5.5">up</stem>
                <lyric default-y="-89" number="1">
                    <syllabic>end</syllabic>
                    <text font-size="8.9">la</text>
                </lyric>
            </note>
            <note default-x="115">
                <rest/>
                <duration>8</duration>
                <voice>1</voice>
                <type>quarter</type>
            </note>
            <note default-x="162">
                <pitch>
                    <step>F</step>
                    <octave>4</octave>
                </pitch>
                <duration>8</duration>
                <voice>1</voice>
                <type>quarter</type>
                <stem default-y="0.5">up</stem>
                <lyric default-y="-89" number="1">
                    <syllabic>single</syllabic>
                    <text font-size="8.9">wants</text>
                </lyric>
            </note>
        </measure>
        <measure width="183" number="7">
            <harmony font-family="Arial" default-y="32">
                <root>
                    <root-step>A</root-step>
                </root>
                <kind halign="left" text="7">dominant</kind>
            </harmony>
            <note default-x="28">
                <pitch>
                    <step>E</step>
                    <octave>4</octave>
                </pitch>
                <duration>24</duration>
                <voice>1</voice>
                <type>half</type>
                <dot/>
                <stem default-y="-4">up</stem>
                <lyric default-y="-89" number="1">
                    <syllabic>single</syllabic>
                    <text font-size="8.9">you,</text>
                </lyric>
            </note>
            <note default-x="129">
                <rest/>
                <duration>8</duration>
                <voice>1</voice>
                <type>quarter</type>
            </note>
        </measure>
        <measure width="250" number="8">
            <note default-x="13">
                <rest/>
                <duration>16</duration>
                <voice>1</voice>
                <type>half</type>
            </note>
            <note default-x="69">
                <rest/>
                <duration>4</duration>
                <voice>1</voice>
                <type>eighth</type>
            </note>
            <note default-x="105">
                <pitch>
                    <step>A</step>
                    <octave>3</octave>
                </pitch>
                <duration>4</duration>
                <voice>1</voice>
                <type>eighth</type>
                <stem default-y="-10">up</stem>
                <beam number="1">begin</beam>
                <lyric default-y="-89" number="1">
                    <syllabic>single</syllabic>
                    <text font-size="8.9">Make</text>
                </lyric>
            </note>
            <note default-x="156">
                <pitch>
                    <step>D</step>
                    <octave>4</octave>
                </pitch>
                <duration>4</duration>
                <voice>1</voice>
                <type>eighth</type>
                <stem default-y="-4.5">up</stem>
                <beam number="1">continue</beam>
                <lyric default-y="-89" number="1">
                    <syllabic>single</syllabic>
                    <text font-size="8.9">up</text>
                </lyric>
            </note>
            <note default-x="203">
                <pitch>
                    <step>F</step>
                    <octave>4</octave>
                </pitch>
                <duration>4</duration>
                <voice>1</voice>
                <type>eighth</type>
                <stem default-y="0.5">up</stem>
                <beam number="1">end</beam>
                <lyric default-y="-89" number="1">
                    <syllabic>single</syllabic>
                    <text font-size="8.9">your</text>
                </lyric>
            </note>
        </measure>
        <measure width="215" number="9">
            <harmony font-family="Arial" default-y="32">
                <root>
                    <root-step>D</root-step>
                </root>
                <kind halign="left" text="m">minor</kind>
            </harmony>
            <note default-x="32">
                <pitch>
                    <step>A</step>
                    <octave>4</octave>
                </pitch>
                <duration>12</duration>
                <voice>1</voice>
                <type>quarter</type>
                <dot/>
                <stem default-y="10.5">up</stem>
                <lyric default-y="-89" number="1">
                    <syllabic>single</syllabic>
                    <text font-size="8.9">mind</text>
                </lyric>
            </note>
            <note default-x="94">
                <pitch>
                    <step>B</step>
                    <alter>-1</alter>
                    <octave>4</octave>
                </pitch>
                <duration>4</duration>
                <voice>1</voice>
                <type>eighth</type>
                <stem default-y="-56">down</stem>
                <lyric default-y="-89" number="1">
                    <syllabic>single</syllabic>
                    <text font-size="8.9">to</text>
                </lyric>
            </note>
            <note default-x="139">
                <pitch>
                    <step>A</step>
                    <octave>4</octave>
                </pitch>
                <duration>16</duration>
                <tie type="start"/>
                <voice>1</voice>
                <type>half</type>
                <stem default-y="10.5">up</stem>
                <notations>
                    <tied type="start"/>
                </notations>
                <lyric default-y="-89" number="1">
                    <syllabic>single</syllabic>
                    <text font-size="8.9">have</text>
                    <extend/>
                </lyric>
            </note>
        </measure>
        <measure width="231" number="10">
            <print new-system="yes">
                <system-layout>
                    <system-distance>137</system-distance>
                </system-layout>
            </print>
            <harmony font-family="Arial" default-y="32">
                <root>
                    <root-step>A</root-step>
                </root>
                <kind halign="left" text="7" parentheses-degrees="yes">dominant</kind>
                <degree>
                    <degree-value>5</degree-value>
                    <degree-alter>1</degree-alter>
                    <degree-type>alter</degree-type>
                </degree>
            </harmony>
            <note default-x="70">
                <pitch>
                    <step>A</step>
                    <octave>4</octave>
                </pitch>
                <duration>24</duration>
                <tie type="stop"/>
                <voice>1</voice>
                <type>half</type>
                <dot/>
                <stem default-y="11">up</stem>
                <notations>
                    <tied type="stop"/>
                </notations>
            </note>
            <harmony font-family="Arial" default-y="32">
                <root>
                    <root-step>D</root-step>
                </root>
                <kind halign="left" text="m7">minor-seventh</kind>
            </harmony>
            <note default-x="176">
                <rest/>
                <duration>8</duration>
                <voice>1</voice>
                <type>quarter</type>
            </note>
        </measure>
        <measure width="205" number="11">
            <harmony font-family="Arial" default-y="32">
                <root>
                    <root-step>E</root-step>
                </root>
                <kind halign="left" text="7">dominant</kind>
            </harmony>
            <note default-x="17">
                <pitch>
                    <step>G</step>
                    <alter>1</alter>
                    <octave>4</octave>
                </pitch>
                <duration>12</duration>
                <voice>1</voice>
                <type>quarter</type>
                <dot/>
                <accidental>sharp</accidental>
                <stem default-y="6">up</stem>
                <lyric default-y="-89" number="1">
                    <syllabic>single</syllabic>
                    <text font-size="8.9">no</text>
                </lyric>
            </note>
            <note default-x="81">
                <pitch>
                    <step>A</step>
                    <octave>4</octave>
                </pitch>
                <duration>4</duration>
                <voice>1</voice>
                <type>eighth</type>
                <stem default-y="11">up</stem>
                <lyric default-y="-89" number="1">
                    <syllabic>begin</syllabic>
                    <text font-size="8.9">reg</text>
                </lyric>
            </note>
            <note default-x="124">
                <pitch>
                    <step>G</step>
                    <alter>1</alter>
                    <octave>4</octave>
                </pitch>
                <duration>16</duration>
                <tie type="start"/>
                <voice>1</voice>
                <type>half</type>
                <stem default-y="6">up</stem>
                <notations>
                    <tied type="start"/>
                </notations>
                <lyric default-y="-89" number="1">
                    <syllabic>end</syllabic>
                    <text font-size="8.9">rets</text>
                    <extend/>
                </lyric>
            </note>
        </measure>
        <measure width="199" number="12">
            <note default-x="14">
                <pitch>
                    <step>G</step>
                    <alter>1</alter>
                    <octave>4</octave>
                </pitch>
                <duration>16</duration>
                <tie type="stop"/>
                <voice>1</voice>
                <type>half</type>
                <stem default-y="6">up</stem>
                <notations>
                    <tied type="stop"/>
                </notations>
            </note>
            <note default-x="93">
                <rest/>
                <duration>8</duration>
                <voice>1</voice>
                <type>quarter</type>
            </note>
            <note default-x="143">
                <pitch>
                    <step>G</step>
                    <alter>1</alter>
                    <octave>4</octave>
                </pitch>
                <duration>8</duration>
                <voice>1</voice>
                <type>quarter</type>
                <accidental>sharp</accidental>
                <stem default-y="6">up</stem>
                <lyric default-y="-89" number="1">
                    <syllabic>begin</syllabic>
                    <text font-size="8.9">Re</text>
                </lyric>
            </note>
        </measure>
        <measure width="238" number="13">
            <harmony font-family="Arial" default-y="32">
                <root>
                    <root-step>G</root-step>
                </root>
                <kind halign="left" text="m">minor</kind>
            </harmony>
            <note default-x="30">
                <pitch>
                    <step>G</step>
                    <octave>4</octave>
                </pitch>
                <duration>12</duration>
                <voice>1</voice>
                <type>quarter</type>
                <dot/>
                <stem default-y="6">up</stem>
                <lyric default-y="-89" number="1">
                    <syllabic>end</syllabic>
                    <text font-size="8.9">cline</text>
                </lyric>
            </note>
            <note default-x="97">
                <pitch>
                    <step>F</step>
                    <octave>4</octave>
                </pitch>
                <duration>4</duration>
                <voice>1</voice>
                <type>eighth</type>
                <stem default-y="0.5">up</stem>
                <lyric default-y="-89" number="1">
                    <syllabic>begin</syllabic>
                    <text font-size="8.9">your</text>
                </lyric>
            </note>
            <note default-x="142">
                <pitch>
                    <step>E</step>
                    <octave>4</octave>
                </pitch>
                <duration>8</duration>
                <voice>1</voice>
                <type>quarter</type>
                <stem default-y="-4.5">up</stem>
                <lyric default-y="-89" number="1">
                    <syllabic>end</syllabic>
                    <text font-size="8.9">self</text>
                </lyric>
            </note>
            <note default-x="190">
                <pitch>
                    <step>D</step>
                    <octave>4</octave>
                </pitch>
                <duration>8</duration>
                <voice>1</voice>
                <type>quarter</type>
                <stem default-y="-9.5">up</stem>
                <lyric default-y="-89" number="1">
                    <syllabic>begin</syllabic>
                    <text font-size="8.9">re</text>
                </lyric>
            </note>
        </measure>
        <measure width="243" number="14">
            <harmony font-family="Arial" default-y="32">
                <root>
                    <root-step>B</root-step>
                    <root-alter>-1</root-alter>
                </root>
                <kind halign="left" text="">major</kind>
            </harmony>
            <note default-x="28">
                <pitch>
                    <step>F</step>
                    <octave>4</octave>
                </pitch>
                <duration>12</duration>
                <voice>1</voice>
                <type>quarter</type>
                <dot/>
                <stem default-y="0.5">up</stem>
                <lyric default-y="-89" number="1">
                    <syllabic>end</syllabic>
                    <text font-size="8.9">sign</text>
                </lyric>
            </note>
            <note default-x="81">
                <pitch>
                    <step>E</step>
                    <octave>4</octave>
                </pitch>
                <duration>4</duration>
                <voice>1</voice>
                <type>eighth</type>
                <stem default-y="-4.5">up</stem>
                <lyric default-y="-89" number="1">
                    <syllabic>begin</syllabic>
                    <text font-size="8.9">your</text>
                </lyric>
            </note>
            <harmony font-family="Arial" default-y="32">
                <root>
                    <root-step>E</root-step>
                </root>
                <kind halign="left" text="m7" parentheses-degrees="yes">minor-seventh</kind>
                <degree>
                    <degree-value>5</degree-value>
                    <degree-alter>-1</degree-alter>
                    <degree-type>alter</degree-type>
                </degree>
            </harmony>
            <note default-x="128">
                <pitch>
                    <step>D</step>
                    <octave>4</octave>
                </pitch>
                <duration>8</duration>
                <voice>1</voice>
                <type>quarter</type>
                <stem default-y="-9.5">up</stem>
                <lyric default-y="-89" number="1">
                    <syllabic>end</syllabic>
                    <text font-size="8.9">self,</text>
                </lyric>
            </note>
            <harmony font-family="Arial" default-y="32">
                <root>
                    <root-step>A</root-step>
                </root>
                <kind halign="left" text="7">dominant</kind>
            </harmony>
            <note default-x="189">
                <pitch>
                    <step>C</step>
                    <alter>1</alter>
                    <octave>4</octave>
                </pitch>
                <duration>8</duration>
                <voice>1</voice>
                <type>quarter</type>
                <accidental>sharp</accidental>
                <stem default-y="-14.5">up</stem>
                <lyric default-y="-89" number="1">
                    <syllabic>single</syllabic>
                    <text font-size="8.9">you're</text>
                </lyric>
            </note>
        </measure>
        <measure width="244" number="15">
            <print new-system="yes">
                <system-layout>
                    <system-distance>137</system-distance>
                </system-layout>
            </print>
            <harmony font-family="Arial" default-y="32">
                <root>
                    <root-step>D</root-step>
                </root>
                <kind halign="left" text="m">minor</kind>
            </harmony>
            <note default-x="103">
                <pitch>
                    <step>D</step>
                    <octave>4</octave>
                </pitch>
                <duration>32</duration>
                <tie type="start"/>
                <voice>1</voice>
                <type>whole</type>
                <notations>
                    <tied type="start"/>
                </notations>
                <lyric default-y="-89" number="1">
                    <syllabic>single</syllabic>
                    <text font-size="8.9">through</text>
                    <extend/>
                </lyric>
            </note>
        </measure>
        <measure width="244" number="16">
            <note default-x="14">
                <pitch>
                    <step>D</step>
                    <octave>4</octave>
                </pitch>
                <duration>16</duration>
                <tie type="stop"/>
                <voice>1</voice>
                <type>half</type>
                <stem default-y="-9">up</stem>
                <notations>
                    <tied type="stop"/>
                </notations>
            </note>
            <note default-x="93">
                <rest/>
                <duration>4</duration>
                <voice>1</voice>
                <type>eighth</type>
            </note>
            <note default-x="125">
                <pitch>
                    <step>D</step>
                    <octave>4</octave>
                </pitch>
                <duration>4</duration>
                <voice>1</voice>
                <type>eighth</type>
                <stem default-y="-10">up</stem>
                <beam number="1">begin</beam>
                <lyric default-y="-89" number="1">
                    <syllabic>single</syllabic>
                    <text font-size="8.9">I</text>
                </lyric>
            </note>
            <note default-x="158">
                <pitch>
                    <step>D</step>
                    <octave>4</octave>
                </pitch>
                <duration>4</duration>
                <voice>1</voice>
                <type>eighth</type>
                <stem default-y="-10">up</stem>
                <beam number="1">continue</beam>
                <lyric default-y="-89" number="1">
                    <syllabic>begin</syllabic>
                    <text font-size="8.9">al</text>
                </lyric>
            </note>
            <note default-x="195">
                <pitch>
                    <step>D</step>
                    <octave>4</octave>
                </pitch>
                <duration>4</duration>
                <voice>1</voice>
                <type>eighth</type>
                <stem default-y="-10">up</stem>
                <beam number="1">end</beam>
                <lyric default-y="-89" number="1">
                    <syllabic>end</syllabic>
                    <text font-size="8.9">ways</text>
                </lyric>
            </note>
        </measure>
        <measure width="212" number="17">
            <harmony font-family="Arial" default-y="32">
                <root>
                    <root-step>E</root-step>
                    <root-alter>-1</root-alter>
                </root>
                <kind halign="left" text="">major</kind>
            </harmony>
            <note default-x="15">
                <pitch>
                    <step>E</step>
                    <alter>-1</alter>
                    <octave>4</octave>
                </pitch>
                <duration>8</duration>
                <voice>1</voice>
                <type>quarter</type>
                <accidental>flat</accidental>
                <stem default-y="-4">up</stem>
                <lyric default-y="-89" number="1">
                    <syllabic>single</syllabic>
                    <text font-size="8.9">get</text>
                </lyric>
            </note>
            <note default-x="68">
                <rest/>
                <duration>8</duration>
                <voice>1</voice>
                <type>quarter</type>
            </note>
            <note default-x="115">
                <rest/>
                <duration>16</duration>
                <voice>1</voice>
                <type>half</type>
            </note>
        </measure>
        <measure width="215" number="18">
            <note default-x="14">
                <rest/>
                <duration>16</duration>
                <voice>1</voice>
                <type>half</type>
            </note>
            <note default-x="104">
                <pitch>
                    <step>G</step>
                    <octave>4</octave>
                </pitch>
                <duration>8</duration>
                <voice>1</voice>
                <type>quarter</type>
                <stem default-y="6">up</stem>
                <lyric default-y="-89" number="1">
                    <syllabic>single</syllabic>
                    <text font-size="8.9">what</text>
                </lyric>
            </note>
            <note default-x="157">
                <pitch>
                    <step>B</step>
                    <alter>-1</alter>
                    <octave>4</octave>
                </pitch>
                <duration>8</duration>
                <voice>1</voice>
                <type>quarter</type>
                <stem default-y="-55">down</stem>
                <lyric default-y="-89" number="1">
                    <syllabic>single</syllabic>
                    <text font-size="8.9">I</text>
                </lyric>
            </note>
        </measure>
        <measure width="201" number="19">
            <harmony font-family="Arial" default-y="32">
                <root>
                    <root-step>D</root-step>
                </root>
                <kind halign="left" text="">major</kind>
            </harmony>
            <note default-x="25">
                <pitch>
                    <step>A</step>
                    <octave>4</octave>
                </pitch>
                <duration>16</duration>
                <voice>1</voice>
                <type>half</type>
                <stem default-y="11">up</stem>
                <lyric default-y="-89" number="1">
                    <syllabic>single</syllabic>
                    <text font-size="8.9">aim</text>
                </lyric>
            </note>
            <note default-x="110">
                <pitch>
                    <step>D</step>
                    <octave>4</octave>
                </pitch>
                <duration>16</duration>
                <tie type="start"/>
                <voice>1</voice>
                <type>half</type>
                <stem default-y="-9">up</stem>
                <notations>
                    <tied type="start"/>
                </notations>
                <lyric default-y="-89" number="1">
                    <syllabic>single</syllabic>
                    <text font-size="8.9">for</text>
                    <extend/>
                </lyric>
            </note>
        </measure>
        <measure width="253" number="20">
            <print new-system="yes">
                <system-layout>
                    <system-distance>137</system-distance>
                </system-layout>
            </print>
            <note default-x="70">
                <pitch>
                    <step>D</step>
                    <octave>4</octave>
                </pitch>
                <duration>24</duration>
                <tie type="stop"/>
                <voice>1</voice>
                <type>half</type>
                <dot/>
                <stem default-y="-9">up</stem>
                <notations>
                    <tied type="stop"/>
                </notations>
            </note>
            <note default-x="155">
                <pitch>
                    <step>D</step>
                    <octave>4</octave>
                </pitch>
                <duration>4</duration>
                <voice>1</voice>
                <type>eighth</type>
                <stem default-y="-10">up</stem>
                <beam number="1">begin</beam>
                <lyric default-y="-89" number="1">
                    <syllabic>single</syllabic>
                    <text font-size="8.9">and</text>
                </lyric>
            </note>
            <note default-x="206">
                <pitch>
                    <step>D</step>
                    <octave>4</octave>
                </pitch>
                <duration>4</duration>
                <voice>1</voice>
                <type>eighth</type>
                <stem default-y="-10">up</stem>
                <beam number="1">end</beam>
                <lyric default-y="-89" number="1">
                    <syllabic>single</syllabic>
                    <text font-size="8.9">your</text>
                </lyric>
            </note>
        </measure>
        <measure width="240" number="21">
            <harmony font-family="Arial" default-y="32">
                <root>
                    <root-step>E</root-step>
                    <root-alter>-1</root-alter>
                </root>
                <kind halign="left" text="">major</kind>
            </harmony>
            <note default-x="24">
                <pitch>
                    <step>E</step>
                    <alter>-1</alter>
                    <octave>4</octave>
                </pitch>
                <duration>4</duration>
                <voice>1</voice>
                <type>eighth</type>
                <accidental>flat</accidental>
                <stem default-y="-4.5">up</stem>
                <beam number="1">begin</beam>
                <lyric default-y="-89" number="1">
                    <syllabic>single</syllabic>
                    <text font-size="8.9">heart</text>
                </lyric>
            </note>
            <note default-x="80">
                <pitch>
                    <step>E</step>
                    <alter>-1</alter>
                    <octave>4</octave>
                </pitch>
                <duration>4</duration>
                <voice>1</voice>
                <type>eighth</type>
                <stem default-y="-4.5">up</stem>
                <beam number="1">end</beam>
                <lyric default-y="-89" number="1">
                    <syllabic>single</syllabic>
                    <text font-size="8.9">and</text>
                </lyric>
            </note>
            <note default-x="130">
                <pitch>
                    <step>E</step>
                    <alter>-1</alter>
                    <octave>4</octave>
                </pitch>
                <duration>8</duration>
                <voice>1</voice>
                <type>quarter</type>
                <stem default-y="-4.5">up</stem>
                <lyric default-y="-89" number="1">
                    <syllabic>single</syllabic>
                    <text font-size="8.9">soul</text>
                </lyric>
            </note>
            <note default-x="174">
                <rest/>
                <duration>16</duration>
                <voice>1</voice>
                <type>half</type>
            </note>
        </measure>
        <measure width="208" number="22">
            <note default-x="14">
                <rest/>
                <duration>8</duration>
                <voice>1</voice>
                <type>quarter</type>
            </note>
            <note default-x="54">
                <pitch>
                    <step>G</step>
                    <octave>4</octave>
                </pitch>
                <duration>8</duration>
                <voice>1</voice>
                <type>quarter</type>
                <stem default-y="5.5">up</stem>
                <lyric default-y="-89" number="1">
                    <syllabic>single</syllabic>
                    <text font-size="8.9">is</text>
                </lyric>
            </note>
            <note default-x="106">
                <pitch>
                    <step>B</step>
                    <alter>-1</alter>
                    <octave>4</octave>
                </pitch>
                <duration>8</duration>
                <voice>1</voice>
                <type>quarter</type>
                <stem default-y="-56">down</stem>
                <lyric default-y="-89" number="1">
                    <syllabic>single</syllabic>
                    <text font-size="8.9">what</text>
                </lyric>
            </note>
            <note default-x="160">
                <pitch>
                    <step>E</step>
                    <alter>-1</alter>
                    <octave>5</octave>
                </pitch>
                <duration>8</duration>
                <voice>1</voice>
                <type>quarter</type>
                <accidental>flat</accidental>
                <stem default-y="-40.5">down</stem>
                <lyric default-y="-89" number="1">
                    <syllabic>single</syllabic>
                    <text font-size="8.9">I</text>
                </lyric>
            </note>
        </measure>
        <measure width="160" number="23">
            <harmony font-family="Arial" default-y="32">
                <root>
                    <root-step>D</root-step>
                </root>
                <kind halign="left" text="">major</kind>
            </harmony>
            <note default-x="34">
                <pitch>
                    <step>D</step>
                    <octave>5</octave>
                </pitch>
                <duration>32</duration>
                <voice>1</voice>
                <type>whole</type>
                <lyric default-y="-89" number="1">
                    <syllabic>single</syllabic>
                    <text font-size="8.9">came</text>
                </lyric>
            </note>
        </measure>
        <measure width="255" number="24">
            <harmony font-family="Arial" default-y="32">
                <root>
                    <root-step>A</root-step>
                </root>
                <kind halign="left" text="7">dominant</kind>
            </harmony>
            <note default-x="22">
                <pitch>
                    <step>A</step>
                    <octave>4</octave>
                </pitch>
                <duration>4</duration>
                <voice>1</voice>
                <type>eighth</type>
                <stem default-y="10.5">up</stem>
                <lyric default-y="-89" number="1">
                    <syllabic>single</syllabic>
                    <text font-size="8.9">for</text>
                </lyric>
            </note>
            <note default-x="55">
                <rest/>
                <duration>4</duration>
                <voice>1</voice>
                <type>eighth</type>
            </note>
            <note default-x="79">
                <rest/>
                <duration>8</duration>
                <voice>1</voice>
                <type>quarter</type>
            </note>
            <note default-x="111">
                <rest/>
                <duration>4</duration>
                <voice>1</voice>
                <type>eighth</type>
            </note>
            <note default-x="146">
                <pitch>
                    <step>A</step>
                    <octave>3</octave>
                </pitch>
                <duration>4</duration>
                <voice>1</voice>
                <type>eighth</type>
                <stem default-y="-10">up</stem>
                <beam number="1">begin</beam>
                <lyric default-y="-89" number="1">
                    <syllabic>begin</syllabic>
                    <text font-size="8.9">What</text>
                </lyric>
            </note>
            <note default-x="188">
                <pitch>
                    <step>D</step>
                    <octave>4</octave>
                </pitch>
                <duration>4</duration>
                <voice>1</voice>
                <type>eighth</type>
                <stem default-y="-4">up</stem>
                <beam number="1">continue</beam>
                <lyric default-y="-89" number="1">
                    <syllabic>middle</syllabic>
                    <text font-size="8.9">ev</text>
                </lyric>
            </note>
            <note default-x="218">
                <pitch>
                    <step>F</step>
                    <octave>4</octave>
                </pitch>
                <duration>4</duration>
                <voice>1</voice>
                <type>eighth</type>
                <stem default-y="0">up</stem>
                <beam number="1">end</beam>
                <lyric default-y="-89" number="1">
                    <syllabic>end</syllabic>
                    <text font-size="8.9">er</text>
                </lyric>
            </note>
        </measure>
        <measure width="270" number="25">
            <print new-system="yes">
                <system-layout>
                    <system-distance>137</system-distance>
                </system-layout>
            </print>
            <harmony font-family="Arial" default-y="32">
                <root>
                    <root-step>D</root-step>
                </root>
                <kind halign="left" text="m">minor</kind>
            </harmony>
            <note default-x="75">
                <pitch>
                    <step>A</step>
                    <octave>4</octave>
                </pitch>
                <duration>12</duration>
                <voice>1</voice>
                <type>quarter</type>
                <dot/>
                <stem default-y="11">up</stem>
                <lyric default-y="-89" number="1">
                    <syllabic>begin</syllabic>
                    <text font-size="8.9">Lo</text>
                </lyric>
            </note>
            <note default-x="136">
                <pitch>
                    <step>B</step>
                    <alter>-1</alter>
                    <octave>4</octave>
                </pitch>
                <duration>4</duration>
                <voice>1</voice>
                <type>eighth</type>
                <stem default-y="-56">down</stem>
                <lyric default-y="-89" number="1">
                    <syllabic>end</syllabic>
                    <text font-size="8.9">la</text>
                </lyric>
            </note>
            <note default-x="187">
                <pitch>
                    <step>A</step>
                    <octave>4</octave>
                </pitch>
                <duration>16</duration>
                <tie type="start"/>
                <voice>1</voice>
                <type>half</type>
                <stem default-y="11">up</stem>
                <notations>
                    <tied type="start"/>
                </notations>
                <lyric default-y="-89" number="1">
                    <syllabic>begin</syllabic>
                    <text font-size="8.9">Wants</text>
                </lyric>
            </note>
        </measure>
        <measure width="174" number="26">
            <harmony font-family="Arial" default-y="32">
                <root>
                    <root-step>A</root-step>
                </root>
                <kind halign="left" text="7" parentheses-degrees="yes">dominant</kind>
                <degree>
                    <degree-value>5</degree-value>
                    <degree-alter>1</degree-alter>
                    <degree-type>alter</degree-type>
                </degree>
            </harmony>
            <note default-x="14">
                <pitch>
                    <step>A</step>
                    <octave>4</octave>
                </pitch>
                <duration>24</duration>
                <tie type="stop"/>
                <voice>1</voice>
                <type>half</type>
                <dot/>
                <stem default-y="11">up</stem>
                <notations>
                    <tied type="stop"/>
                </notations>
            </note>
            <harmony font-family="Arial" default-y="32">
                <root>
                    <root-step>D</root-step>
                </root>
                <kind halign="left" text="m7">minor-seventh</kind>
            </harmony>
            <note default-x="119">
                <rest/>
                <duration>8</duration>
                <voice>1</voice>
                <type>quarter</type>
            </note>
        </measure>
        <measure width="206" number="27">
            <harmony font-family="Arial" default-y="32">
                <root>
                    <root-step>E</root-step>
                </root>
                <kind halign="left" text="7">dominant</kind>
            </harmony>
            <note default-x="17">
                <pitch>
                    <step>G</step>
                    <alter>1</alter>
                    <octave>4</octave>
                </pitch>
                <duration>12</duration>
                <voice>1</voice>
                <type>quarter</type>
                <dot/>
                <accidental>sharp</accidental>
                <stem default-y="6">up</stem>
                <lyric default-y="-89" number="1">
                    <syllabic>middle</syllabic>
                    <text font-size="8.9">Lo</text>
                </lyric>
            </note>
            <note default-x="79">
                <pitch>
                    <step>A</step>
                    <octave>4</octave>
                </pitch>
                <duration>4</duration>
                <voice>1</voice>
                <type>eighth</type>
                <stem default-y="11">up</stem>
                <lyric default-y="-89" number="1">
                    <syllabic>end</syllabic>
                    <text font-size="8.9">la</text>
                </lyric>
            </note>
            <note default-x="123">
                <pitch>
                    <step>G</step>
                    <alter>1</alter>
                    <octave>4</octave>
                </pitch>
                <duration>16</duration>
                <tie type="start"/>
                <voice>1</voice>
                <type>half</type>
                <stem default-y="6">up</stem>
                <notations>
                    <tied type="start"/>
                </notations>
                <lyric default-y="-89" number="1">
                    <syllabic>single</syllabic>
                    <text font-size="8.9">gets</text>
                    <extend/>
                </lyric>
            </note>
        </measure>
        <measure width="247" number="28">
            <harmony font-family="Arial" default-y="32">
                <root>
                    <root-step>E</root-step>
                </root>
                <kind halign="left" text="7">dominant</kind>
            </harmony>
            <note default-x="14">
                <pitch>
                    <step>G</step>
                    <alter>1</alter>
                    <octave>4</octave>
                </pitch>
                <duration>16</duration>
                <tie type="stop"/>
                <voice>1</voice>
                <type>half</type>
                <stem default-y="6">up</stem>
                <notations>
                    <tied type="stop"/>
                </notations>
            </note>
            <note default-x="72">
                <rest/>
                <duration>4</duration>
                <voice>1</voice>
                <type>eighth</type>
            </note>
            <note default-x="105">
                <pitch>
                    <step>G</step>
                    <alter>1</alter>
                    <octave>4</octave>
                </pitch>
                <duration>4</duration>
                <voice>1</voice>
                <type>eighth</type>
                <accidental>sharp</accidental>
                <stem default-y="10">up</stem>
                <beam number="1">begin</beam>
                <lyric default-y="-89" number="1">
                    <syllabic>single</syllabic>
                    <text font-size="8.9">Take</text>
                </lyric>
            </note>
            <note default-x="154">
                <pitch>
                    <step>A</step>
                    <octave>4</octave>
                </pitch>
                <duration>4</duration>
                <voice>1</voice>
                <type>eighth</type>
                <stem default-y="10">up</stem>
                <beam number="1">continue</beam>
                <lyric default-y="-89" number="1">
                    <syllabic>single</syllabic>
                    <text font-size="8.9">off</text>
                </lyric>
            </note>
            <note default-x="201">
                <pitch>
                    <step>G</step>
                    <alter>1</alter>
                    <octave>4</octave>
                </pitch>
                <duration>4</duration>
                <voice>1</voice>
                <type>eighth</type>
                <stem default-y="10">up</stem>
                <beam number="1">end</beam>
                <lyric default-y="-89" number="1">
                    <syllabic>single</syllabic>
                    <text font-size="8.9">your</text>
                </lyric>
            </note>
        </measure>
        <measure width="219" number="29">
            <harmony font-family="Arial" default-y="32">
                <root>
                    <root-step>E</root-step>
                </root>
                <kind halign="left" text="m7" parentheses-degrees="yes">minor-seventh</kind>
                <degree>
                    <degree-value>5</degree-value>
                    <degree-alter>-1</degree-alter>
                    <degree-type>alter</degree-type>
                </degree>
            </harmony>
            <note default-x="32">
                <pitch>
                    <step>G</step>
                    <octave>4</octave>
                </pitch>
                <duration>24</duration>
                <voice>1</voice>
                <type>half</type>
                <dot/>
                <stem default-y="6">up</stem>
                <lyric default-y="-89" number="1">
                    <syllabic>single</syllabic>
                    <text font-size="8.9">coat,</text>
                </lyric>
            </note>
            <note default-x="122">
                <pitch>
                    <step>A</step>
                    <octave>4</octave>
                </pitch>
                <duration>4</duration>
                <voice>1</voice>
                <type>eighth</type>
                <stem default-y="10">up</stem>
                <beam number="1">begin</beam>
                <lyric default-y="-89" number="1">
                    <syllabic>single</syllabic>
                    <text font-size="8.9">don't</text>
                </lyric>
            </note>
            <note default-x="177">
                <pitch>
                    <step>G</step>
                    <octave>4</octave>
                </pitch>
                <duration>4</duration>
                <voice>1</voice>
                <type>eighth</type>
                <stem default-y="5">up</stem>
                <beam number="1">end</beam>
                <lyric default-y="-89" number="1">
                    <syllabic>single</syllabic>
                    <text font-size="8.9">you</text>
                </lyric>
            </note>
        </measure>
        <measure width="276" number="30">
            <print new-system="yes">
                <system-layout>
                    <system-distance>137</system-distance>
                </system-layout>
            </print>
            <harmony font-family="Arial" default-y="32">
                <root>
                    <root-step>B</root-step>
                    <root-alter>-1</root-alter>
                </root>
                <kind halign="left" text="">major</kind>
            </harmony>
            <note default-x="89">
                <pitch>
                    <step>F</step>
                    <octave>4</octave>
                </pitch>
                <duration>8</duration>
                <voice>1</voice>
                <type>quarter</type>
                <stem default-y="1">up</stem>
                <lyric default-y="-89" number="1">
                    <syllabic>single</syllabic>
                    <text font-size="8.9">know</text>
                </lyric>
            </note>
            <note default-x="145">
                <pitch>
                    <step>G</step>
                    <octave>4</octave>
                </pitch>
                <duration>8</duration>
                <voice>1</voice>
                <type>quarter</type>
                <stem default-y="6">up</stem>
                <lyric default-y="-89" number="1">
                    <syllabic>single</syllabic>
                    <text font-size="8.9">you</text>
                </lyric>
            </note>
            <note default-x="186">
                <rest/>
                <duration>8</duration>
                <voice>1</voice>
                <type>quarter</type>
            </note>
            <note default-x="224">
                <pitch>
                    <step>F</step>
                    <octave>4</octave>
                </pitch>
                <duration>8</duration>
                <voice>1</voice>
                <type>quarter</type>
                <stem default-y="1">up</stem>
                <lyric default-y="-89" number="1">
                    <syllabic>single</syllabic>
                    <text font-size="8.9">can't</text>
                </lyric>
            </note>
        </measure>
        <measure width="177" number="31">
            <harmony font-family="Arial" default-y="32">
                <root>
                    <root-step>A</root-step>
                </root>
                <kind halign="left" text="7">dominant</kind>
            </harmony>
            <note default-x="30">
                <pitch>
                    <step>E</step>
                    <octave>4</octave>
                </pitch>
                <duration>24</duration>
                <voice>1</voice>
                <type>half</type>
                <dot/>
                <stem default-y="-4">up</stem>
                <lyric default-y="-89" number="1">
                    <syllabic>single</syllabic>
                    <text font-size="8.9">win?</text>
                </lyric>
            </note>
            <note default-x="125">
                <rest/>
                <duration>8</duration>
                <voice>1</voice>
                <type>quarter</type>
            </note>
        </measure>
        <measure width="232" number="32">
            <note default-x="13">
                <rest/>
                <duration>16</duration>
                <voice>1</voice>
                <type>half</type>
            </note>
            <note default-x="69">
                <rest/>
                <duration>4</duration>
                <voice>1</voice>
                <type>eighth</type>
            </note>
            <note default-x="108">
                <pitch>
                    <step>E</step>
                    <octave>4</octave>
                </pitch>
                <duration>4</duration>
                <voice>1</voice>
                <type>eighth</type>
                <stem default-y="0">up</stem>
                <beam number="1">begin</beam>
                <lyric default-y="-89" number="1">
                    <syllabic>single</syllabic>
                    <text font-size="8.9">You're</text>
                </lyric>
            </note>
            <note default-x="164">
                <pitch>
                    <step>F</step>
                    <octave>4</octave>
                </pitch>
                <duration>4</duration>
                <voice>1</voice>
                <type>eighth</type>
                <stem default-y="0">up</stem>
                <beam number="1">continue</beam>
                <lyric default-y="-89" number="1">
                    <syllabic>single</syllabic>
                    <text font-size="8.9">no</text>
                </lyric>
            </note>
            <note default-x="198">
                <pitch>
                    <step>E</step>
                    <octave>4</octave>
                </pitch>
                <duration>4</duration>
                <voice>1</voice>
                <type>eighth</type>
                <stem default-y="0">up</stem>
                <beam number="1">end</beam>
                <lyric default-y="-89" number="1">
                    <syllabic>begin</syllabic>
                    <text font-size="8.9">ex</text>
                </lyric>
            </note>
        </measure>
        <measure width="213" number="33">
            <harmony font-family="Arial" default-y="32">
                <root>
                    <root-step>D</root-step>
                </root>
                <kind halign="left" text="m">minor</kind>
            </harmony>
            <note default-x="25">
                <pitch>
                    <step>D</step>
                    <octave>4</octave>
                </pitch>
                <duration>8</duration>
                <voice>1</voice>
                <type>quarter</type>
                <stem default-y="-9">up</stem>
                <lyric default-y="-89" number="1">
                    <syllabic>middle</syllabic>
                    <text font-size="8.9">cep</text>
                </lyric>
            </note>
            <note default-x="71">
                <pitch>
                    <step>D</step>
                    <octave>4</octave>
                </pitch>
                <duration>8</duration>
                <voice>1</voice>
                <type>quarter</type>
                <stem default-y="-9">up</stem>
                <lyric default-y="-89" number="1">
                    <syllabic>end</syllabic>
                    <text font-size="8.9">tion</text>
                </lyric>
            </note>
            <note default-x="116">
                <pitch>
                    <step>D</step>
                    <octave>4</octave>
                </pitch>
                <duration>8</duration>
                <voice>1</voice>
                <type>quarter</type>
                <stem default-y="-9">up</stem>
                <lyric default-y="-89" number="1">
                    <syllabic>single</syllabic>
                    <text font-size="8.9">to</text>
                </lyric>
            </note>
            <note default-x="161">
                <pitch>
                    <step>D</step>
                    <octave>4</octave>
                </pitch>
                <duration>8</duration>
                <voice>1</voice>
                <type>quarter</type>
                <stem default-y="-9">up</stem>
                <lyric default-y="-89" number="1">
                    <syllabic>single</syllabic>
                    <text font-size="8.9">the</text>
                </lyric>
            </note>
        </measure>
        <measure width="218" number="34">
            <harmony font-family="Arial" default-y="32">
                <root>
                    <root-step>B</root-step>
                    <root-alter>-1</root-alter>
                </root>
                <kind halign="left" text="">major</kind>
            </harmony>
            <note default-x="26">
                <pitch>
                    <step>D</step>
                    <octave>4</octave>
                </pitch>
                <duration>16</duration>
                <tie type="start"/>
                <voice>1</voice>
                <type>half</type>
                <stem default-y="-9">up</stem>
                <notations>
                    <tied type="start"/>
                </notations>
                <lyric default-y="-89" number="1">
                    <syllabic>single</syllabic>
                    <text font-size="8.9">rule</text>
                    <extend/>
                </lyric>
            </note>
            <note default-x="91">
                <pitch>
                    <step>D</step>
                    <octave>4</octave>
                </pitch>
                <duration>4</duration>
                <tie type="stop"/>
                <voice>1</voice>
                <type>eighth</type>
                <stem default-y="0">up</stem>
                <beam number="1">begin</beam>
                <notations>
                    <tied type="stop"/>
                </notations>
            </note>
            <note default-x="121">
                <pitch>
                    <step>E</step>
                    <octave>4</octave>
                </pitch>
                <duration>4</duration>
                <voice>1</voice>
                <type>eighth</type>
                <stem default-y="0">up</stem>
                <beam number="1">continue</beam>
                <lyric default-y="-89" number="1">
                    <syllabic>single</syllabic>
                    <text font-size="8.9">I'm</text>
                </lyric>
            </note>
            <note default-x="155">
                <pitch>
                    <step>F</step>
                    <octave>4</octave>
                </pitch>
                <duration>4</duration>
                <voice>1</voice>
                <type>eighth</type>
                <stem default-y="0">up</stem>
                <beam number="1">continue</beam>
                <lyric default-y="-89" number="1">
                    <syllabic>begin</syllabic>
                    <text font-size="8.9">ir</text>
                </lyric>
            </note>
            <note default-x="183">
                <pitch>
                    <step>E</step>
                    <octave>4</octave>
                </pitch>
                <duration>4</duration>
                <voice>1</voice>
                <type>eighth</type>
                <stem default-y="0">up</stem>
                <beam number="1">end</beam>
                <lyric default-y="-89" number="1">
                    <syllabic>middle</syllabic>
                    <text font-size="8.9">re</text>
                </lyric>
            </note>
        </measure>
        <measure width="267" number="35">
            <print new-system="yes">
                <system-layout>
                    <system-distance>137</system-distance>
                </system-layout>
            </print>
            <harmony font-family="Arial" default-y="32">
                <root>
                    <root-step>D</root-step>
                </root>
                <kind halign="left" text="m">minor</kind>
            </harmony>
            <note default-x="80">
                <pitch>
                    <step>D</step>
                    <octave>4</octave>
                </pitch>
                <duration>8</duration>
                <voice>1</voice>
                <type>quarter</type>
                <stem default-y="-9">up</stem>
                <lyric default-y="-89" number="1">
                    <syllabic>middle</syllabic>
                    <text font-size="8.9">sist</text>
                </lyric>
            </note>
            <note default-x="125">
                <pitch>
                    <step>D</step>
                    <octave>4</octave>
                </pitch>
                <duration>8</duration>
                <voice>1</voice>
                <type>quarter</type>
                <stem default-y="-9">up</stem>
                <lyric default-y="-89" number="1">
                    <syllabic>middle</syllabic>
                    <text font-size="8.9">i</text>
                </lyric>
            </note>
            <note default-x="170">
                <pitch>
                    <step>D</step>
                    <octave>4</octave>
                </pitch>
                <duration>8</duration>
                <voice>1</voice>
                <type>quarter</type>
                <stem default-y="-9">up</stem>
                <lyric default-y="-89" number="1">
                    <syllabic>end</syllabic>
                    <text font-size="8.9">ble</text>
                </lyric>
            </note>
            <note default-x="215">
                <pitch>
                    <step>D</step>
                    <octave>4</octave>
                </pitch>
                <duration>8</duration>
                <voice>1</voice>
                <type>quarter</type>
                <stem default-y="-9">up</stem>
                <lyric default-y="-89" number="1">
                    <syllabic>single</syllabic>
                    <text font-size="8.9">you</text>
                </lyric>
            </note>
        </measure>
        <measure width="170" number="36">
            <harmony font-family="Arial" default-y="32">
                <root>
                    <root-step>A</root-step>
                    <root-alter>-1</root-alter>
                </root>
                <kind halign="left" text="7">dominant</kind>
            </harmony>
            <note default-x="17">
                <pitch>
                    <step>E</step>
                    <alter>-1</alter>
                    <octave>4</octave>
                </pitch>
                <duration>16</duration>
                <voice>1</voice>
                <type>half</type>
                <accidental>flat</accidental>
                <stem default-y="-4.5">up</stem>
                <lyric default-y="-89" number="1">
                    <syllabic>single</syllabic>
                    <text font-size="8.9">fool</text>
                </lyric>
            </note>
            <harmony font-family="Arial" default-y="32">
                <root>
                    <root-step>A</root-step>
                </root>
                <kind halign="left" text="7">dominant</kind>
            </harmony>
            <note default-x="90">
                <pitch>
                    <step>C</step>
                    <alter>1</alter>
                    <octave>4</octave>
                </pitch>
                <duration>16</duration>
                <voice>1</voice>
                <type>half</type>
                <accidental>sharp</accidental>
                <stem default-y="-14">up</stem>
                <lyric default-y="-89" number="1">
                    <syllabic>single</syllabic>
                    <text font-size="8.9">give</text>
                </lyric>
            </note>
        </measure>
        <measure width="143" number="37">
            <barline location="left">
                <ending font-weight="bold" font-size="10.4" font-family="Times New Roman" default-y="46" type="start" number="1" end-length="25"></ending>
            </barline>
            <harmony font-family="Arial" default-y="32">
                <root>
                    <root-step>D</root-step>
                </root>
                <kind halign="left" text="m">minor</kind>
            </harmony>
            <note default-x="19">
                <pitch>
                    <step>D</step>
                    <octave>4</octave>
                </pitch>
                <duration>32</duration>
                <tie type="start"/>
                <voice>1</voice>
                <type>whole</type>
                <notations>
                    <tied type="start"/>
                </notations>
                <lyric default-y="-89" number="1">
                    <syllabic>single</syllabic>
                    <text font-size="8.9">in!</text>
                    <extend/>
                </lyric>
            </note>
        </measure>
        <measure width="249" number="38">
            <harmony font-family="Arial" default-y="32">
                <root>
                    <root-step>A</root-step>
                </root>
                <kind halign="left" text="7">dominant</kind>
            </harmony>
            <note default-x="14">
                <pitch>
                    <step>D</step>
                    <octave>4</octave>
                </pitch>
                <duration>8</duration>
                <tie type="stop"/>
                <voice>1</voice>
                <type>quarter</type>
                <stem default-y="-9">up</stem>
                <notations>
                    <tied type="stop"/>
                </notations>
            </note>
            <note default-x="50">
                <rest/>
                <duration>8</duration>
                <voice>1</voice>
                <type>quarter</type>
            </note>
            <note default-x="85">
                <rest/>
                <duration>4</duration>
                <voice>1</voice>
                <type>eighth</type>
            </note>
            <note default-x="120">
                <pitch>
                    <step>A</step>
                    <octave>3</octave>
                </pitch>
                <duration>4</duration>
                <voice>1</voice>
                <type>eighth</type>
                <stem default-y="-10">up</stem>
                <beam number="1">begin</beam>
                <lyric default-y="-89" number="1">
                    <syllabic>begin</syllabic>
                    <text font-size="8.9">What</text>
                </lyric>
            </note>
            <note default-x="162">
                <pitch>
                    <step>D</step>
                    <octave>4</octave>
                </pitch>
                <duration>4</duration>
                <voice>1</voice>
                <type>eighth</type>
                <stem default-y="-4">up</stem>
                <beam number="1">continue</beam>
                <lyric default-y="-89" number="1">
                    <syllabic>middle</syllabic>
                    <text font-size="8.9">ev</text>
                </lyric>
            </note>
            <note default-x="193">
                <pitch>
                    <step>F</step>
                    <octave>4</octave>
                </pitch>
                <duration>4</duration>
                <voice>1</voice>
                <type>eighth</type>
                <stem default-y="0">up</stem>
                <beam number="1">end</beam>
                <lyric default-y="-89" number="1">
                    <syllabic>end</syllabic>
                    <text font-size="8.9">er</text>
                </lyric>
            </note>
            <barline location="right">
                <bar-style>light-heavy</bar-style>
                <ending type="stop" number="1"></ending>
                <repeat direction="backward"/>
            </barline>
        </measure>
        <measure width="141" number="39">
            <barline location="left">
                <ending font-weight="bold" font-size="10.4" font-family="Times New Roman" default-y="46" type="start" number="2" end-length="25"></ending>
            </barline>
            <harmony font-family="Arial" default-y="32">
                <root>
                    <root-step>D</root-step>
                </root>
                <kind halign="left" text="m">minor</kind>
            </harmony>
            <harmony font-family="Arial" default-y="32">
                <root>
                    <root-step>D</root-step>
                    <root-alter>-1</root-alter>
                </root>
                <kind halign="left" text="">major</kind>
                <offset>16</offset>
            </harmony>
            <note default-x="17">
                <pitch>
                    <step>D</step>
                    <octave>4</octave>
                </pitch>
                <duration>32</duration>
                <tie type="start"/>
                <voice>1</voice>
                <type>whole</type>
                <notations>
                    <tied type="start"/>
                </notations>
                <lyric default-y="-89" number="1">
                    <syllabic>single</syllabic>
                    <text font-size="8.9">in!</text>
                    <extend/>
                </lyric>
            </note>
            <barline location="right">
                <ending type="stop" number="2"></ending>
            </barline>
        </measure>
        <measure width="147" number="40">
            <harmony font-family="Arial" default-y="32">
                <root>
                    <root-step>D</root-step>
                </root>
                <kind halign="left" text="m">minor</kind>
            </harmony>
            <harmony font-family="Arial" default-y="32">
                <root>
                    <root-step>D</root-step>
                </root>
                <kind halign="left" text="m6">minor-sixth</kind>
                <offset>8</offset>
            </harmony>
            <note default-x="13">
                <pitch>
                    <step>D</step>
                    <octave>4</octave>
                </pitch>
                <duration>32</duration>
                <tie type="stop"/>
                <voice>1</voice>
                <type>whole</type>
                <notations>
                    <tied type="stop"/>
                </notations>
            </note>
            <barline location="right">
                <bar-style>light-heavy</bar-style>
            </barline>
        </measure>
    </part>
</score-partwise>
