<?xml version="1.0" encoding="UTF-8"?>
<!DOCTYPE score-partwise PUBLIC "-//Recordare//DTD MusicXML 2.0 Partwise//EN" "http://www.musicxml.org/dtds/partwise.dtd">
<score-partwise version="2.0">
    <work>
        <work-number></work-number>
        <work-title></work-title>
    </work>
    <movement-number></movement-number>
    <movement-title>Zie ik de lichtjes van de Schelde</movement-title>
    <identification>
        <creator type="composer">Modest Vercauteren</creator>
        <creator type="poet"></creator>
        <rights>All Rights Reserved</rights>
        <encoding>
            <software>PDFtoMusic Pro v1.2.1d Build 9F9F (c) Myriad - http://www.myriad-online.com</software>
            <software>ProxyMusic 2.0 c</software>
        </encoding>
        <source>http://wikifonia.org/node/6688/revisions/9243/view</source>
    </identification>
    <defaults>
        <scaling>
            <millimeters>8.128009</millimeters>
            <tenths>40</tenths>
        </scaling>
        <page-layout>
            <page-height>1461.804</page-height>
            <page-width>1032.985</page-width>
            <page-margins type="both">
                <left-margin>49.213</left-margin>
                <right-margin>49.213</right-margin>
                <top-margin>49.213</top-margin>
                <bottom-margin>49.213</bottom-margin>
            </page-margins>
        </page-layout>
    </defaults>
    <credit>
        <credit-words font-weight="normal" font-style="normal" font-size="9" font-family="Times New Roman" justify="center" valign="baseline">(naar ModestVercauteren)</credit-words>
    </credit>
    <credit>
        <credit-words font-weight="normal" font-style="normal" font-size="9" font-family="Times New Roman" default-y="1305.972" default-x="983.200" justify="right" valign="baseline">Bron: www.tablatures.fr.st
Tabulatuurdoor Bernard Loffet
Genoteerd met TablEditvoor CF door Hans Elst</credit-words>
    </credit>
    <credit>
        <credit-words font-weight="normal" font-style="normal" font-size="9" font-family="Times New Roman" default-y="361.598" default-x="448.157" justify="left" valign="baseline">8</credit-words>
    </credit>
    <credit>
        <credit-words font-weight="normal" font-style="normal" font-size="9" font-family="Times New Roman" default-y="361.598" default-x="558.605" justify="left" valign="baseline">6</credit-words>
    </credit>
    <credit>
        <credit-words font-weight="normal" font-style="normal" font-size="9" font-family="Times New Roman" default-y="361.598" default-x="620.032" justify="left" valign="baseline">8</credit-words>
    </credit>
    <credit>
        <credit-words font-weight="normal" font-style="normal" font-size="9" font-family="Times New Roman" default-y="327.849" default-x="60.763" justify="left" valign="baseline">T</credit-words>
    </credit>
    <credit>
        <credit-words font-weight="normal" font-style="normal" font-size="9" font-family="Times New Roman" default-y="329.098" default-x="227.390" justify="left" valign="baseline">9</credit-words>
    </credit>
    <credit>
        <credit-words font-weight="normal" font-style="normal" font-size="9" font-family="Times New Roman" default-y="329.098" default-x="840.514" justify="left" valign="baseline">9</credit-words>
    </credit>
    <part-list>
        <score-part id="P1">
            <part-name></part-name>
            <score-instrument id="P1-I1">
                <instrument-name>Instrument 1</instrument-name>
            </score-instrument>
            <midi-instrument id="P1-I1">
                <midi-channel>1</midi-channel>
                <midi-bank>1</midi-bank>
                <midi-program>53</midi-program>
            </midi-instrument>
        </score-part>
    </part-list>
    <part id="P1">
        <measure width="190" number="1">
            <print>
                <system-layout>
                    <system-margins>
                        <left-margin>-0.255</left-margin>
                        <right-margin>0.000</right-margin>
                    </system-margins>
                    <top-system-distance>202.453</top-system-distance>
                </system-layout>
            </print>
            <attributes>
                <divisions>6720</divisions>
                <key>
                    <fifths>-1</fifths>
                    <mode>major</mode>
                </key>
                <time>
                    <beats>3</beats>
                    <beat-type>4</beat-type>
                </time>
                <clef number="1">
                    <sign>G</sign>
                    <line>2</line>
                </clef>
                <staff-details print-object="yes" number="1">
                    <staff-lines>5</staff-lines>
                    <staff-size>100.00</staff-size>
                </staff-details>
            </attributes>
            <note>
                <pitch>
                    <step>C</step>
                    <octave>5</octave>
                </pitch>
                <duration>6720</duration>
                <voice>1</voice>
                <type>quarter</type>
                <stem default-y="-50.42">down</stem>
                <lyric justify="right" default-y="-107.29" number="1">
                    <syllabic>single</syllabic>
                    <text font-weight="normal" font-style="normal" font-size="9" font-family="Times New Roman">D</text>
                    <extend/>
                </lyric>
                <lyric justify="right" default-y="-139.79" number="2">
                    <syllabic>single</syllabic>
                    <text font-weight="normal" font-style="normal" font-size="9" font-family="Times New Roman">T 5'</text>
                </lyric>
                <lyric justify="center" default-y="-171.04" number="3">
                    <syllabic>single</syllabic>
                    <text font-weight="normal" font-style="normal" font-size="9" font-family="Times New Roman">C</text>
                </lyric>
            </note>
            <note>
                <pitch>
                    <step>F</step>
                    <octave>5</octave>
                </pitch>
                <duration>6720</duration>
                <voice>1</voice>
                <type>quarter</type>
                <stem default-y="-35.42">down</stem>
                <notations>
                    <technical>
                        <fingering placement="above" relative-y="30.57" relative-x="-15.73">1</fingering>
                    </technical>
                </notations>
                <lyric justify="center" default-y="-171.04" number="3">
                    <syllabic>single</syllabic>
                    <text font-weight="normal" font-style="normal" font-size="9" font-family="Times New Roman">c</text>
                </lyric>
            </note>
            <direction placement="below">
                <direction-type>
                    <words font-weight="normal" font-style="normal" font-size="9" font-family="Times New Roman" relative-x="0.04" default-y="-138.54">8</words>
                </direction-type>
                <offset>-6720.00</offset>
            </direction>
            <note>
                <pitch>
                    <step>G</step>
                    <octave>5</octave>
                </pitch>
                <duration>6720</duration>
                <voice>1</voice>
                <type>quarter</type>
                <stem default-y="-30.42">down</stem>
                <notations>
                    <technical>
                        <fingering placement="above" relative-y="25.57" relative-x="-16.82">3</fingering>
                        <fingering placement="above" relative-y="25.57" relative-x="12.57">2</fingering>
                    </technical>
                </notations>
                <lyric justify="center" default-y="-138.54" number="2">
                    <syllabic>single</syllabic>
                    <text font-weight="normal" font-style="normal" font-size="9" font-family="Times New Roman">7'</text>
                </lyric>
                <lyric justify="center" default-y="-171.04" number="3">
                    <syllabic>single</syllabic>
                    <text font-weight="normal" font-style="normal" font-size="9" font-family="Times New Roman">c</text>
                </lyric>
            </note>
        </measure>
        <measure width="105" number="2">
            <note>
                <pitch>
                    <step>A</step>
                    <octave>5</octave>
                </pitch>
                <duration>13440</duration>
                <voice>1</voice>
                <type>half</type>
                <stem default-y="-25.42">down</stem>
                <notations>
                    <technical>
                        <fingering placement="above" relative-y="20.25" relative-x="12.58">2</fingering>
                    </technical>
                </notations>
                <lyric justify="center" default-y="-106.04" number="1">
                    <syllabic>begin</syllabic>
                    <text font-weight="normal" font-style="normal" font-size="9" font-family="Times New Roman">7'</text>
                </lyric>
                <lyric justify="center" default-y="-171.04" number="3">
                    <syllabic>single</syllabic>
                    <text font-weight="normal" font-style="normal" font-size="9" font-family="Times New Roman">F</text>
                </lyric>
            </note>
            <note>
                <pitch>
                    <step>F</step>
                    <octave>5</octave>
                </pitch>
                <duration>6720</duration>
                <voice>1</voice>
                <type>quarter</type>
                <stem default-y="-35.42">down</stem>
                <notations>
                    <technical>
                        <fingering placement="above" relative-y="30.57" relative-x="13.85">1</fingering>
                    </technical>
                </notations>
                <lyric justify="center" default-y="-106.04" number="1">
                    <syllabic>single</syllabic>
                    <text font-weight="normal" font-style="normal" font-size="9" font-family="Times New Roman">6'</text>
                </lyric>
                <lyric justify="right" default-y="-171.04" number="3">
                    <syllabic>single</syllabic>
                    <text font-weight="normal" font-style="normal" font-size="9" font-family="Times New Roman">f f</text>
                </lyric>
            </note>
        </measure>
        <measure width="105" number="3">
            <note>
                <pitch>
                    <step>C</step>
                    <octave>6</octave>
                </pitch>
                <duration>13440</duration>
                <voice>1</voice>
                <type>half</type>
                <stem default-y="-15.42">down</stem>
                <notations>
                    <technical>
                        <fingering placement="above" relative-y="10.25" relative-x="12.77">3</fingering>
                    </technical>
                </notations>
                <lyric justify="center" default-y="-106.04" number="1">
                    <syllabic>begin</syllabic>
                    <text font-weight="normal" font-style="normal" font-size="9" font-family="Times New Roman">8'</text>
                </lyric>
                <lyric justify="center" default-y="-171.04" number="3">
                    <syllabic>single</syllabic>
                    <text font-weight="normal" font-style="normal" font-size="9" font-family="Times New Roman">C</text>
                </lyric>
            </note>
            <note>
                <pitch>
                    <step>B</step>
                    <alter>-1</alter>
                    <octave>5</octave>
                </pitch>
                <duration>6720</duration>
                <voice>1</voice>
                <type>quarter</type>
                <stem default-y="-20.42">down</stem>
                <lyric justify="center" default-y="-138.54" number="2">
                    <syllabic>single</syllabic>
                    <text font-weight="normal" font-style="normal" font-size="9" font-family="Times New Roman">8'</text>
                </lyric>
                <lyric justify="right" default-y="-171.04" number="3">
                    <syllabic>single</syllabic>
                    <text font-weight="normal" font-style="normal" font-size="9" font-family="Times New Roman">c c</text>
                </lyric>
            </note>
        </measure>
        <measure width="105" number="4">
            <note>
                <pitch>
                    <step>A</step>
                    <octave>5</octave>
                </pitch>
                <duration>13440</duration>
                <voice>1</voice>
                <type>half</type>
                <stem default-y="-25.42">down</stem>
                <lyric justify="center" default-y="-106.04" number="1">
                    <syllabic>begin</syllabic>
                    <text font-weight="normal" font-style="normal" font-size="9" font-family="Times New Roman">7'</text>
                </lyric>
                <lyric justify="center" default-y="-171.04" number="3">
                    <syllabic>single</syllabic>
                    <text font-weight="normal" font-style="normal" font-size="9" font-family="Times New Roman">F</text>
                </lyric>
            </note>
            <note>
                <pitch>
                    <step>F</step>
                    <octave>5</octave>
                </pitch>
                <duration>6720</duration>
                <voice>1</voice>
                <type>quarter</type>
                <stem default-y="-35.42">down</stem>
                <lyric justify="center" default-y="-106.04" number="1">
                    <syllabic>single</syllabic>
                    <text font-weight="normal" font-style="normal" font-size="9" font-family="Times New Roman">6'</text>
                </lyric>
                <lyric justify="right" default-y="-171.04" number="3">
                    <syllabic>single</syllabic>
                    <text font-weight="normal" font-style="normal" font-size="9" font-family="Times New Roman">f f</text>
                </lyric>
            </note>
        </measure>
        <measure width="105" number="5">
            <note>
                <pitch>
                    <step>C</step>
                    <octave>5</octave>
                </pitch>
                <duration>6720</duration>
                <voice>1</voice>
                <type>quarter</type>
                <stem default-y="-50.42">down</stem>
                <lyric justify="center" default-y="-171.04" number="3">
                    <syllabic>single</syllabic>
                    <text font-weight="normal" font-style="normal" font-size="9" font-family="Times New Roman">F</text>
                </lyric>
            </note>
            <direction placement="below">
                <direction-type>
                    <words font-weight="normal" font-style="normal" font-size="9" font-family="Times New Roman" relative-x="0.07" default-y="-106.04">6</words>
                </direction-type>
                <offset>-6720.00</offset>
            </direction>
            <note>
                <pitch>
                    <step>F</step>
                    <octave>5</octave>
                </pitch>
                <duration>6720</duration>
                <voice>1</voice>
                <type>quarter</type>
                <stem default-y="-35.42">down</stem>
                <notations>
                    <technical>
                        <fingering placement="above" relative-y="30.57" relative-x="-15.73">1</fingering>
                    </technical>
                </notations>
                <lyric justify="center" default-y="-106.04" number="1">
                    <syllabic>single</syllabic>
                    <text font-weight="normal" font-style="normal" font-size="9" font-family="Times New Roman">6'</text>
                </lyric>
                <lyric justify="center" default-y="-171.04" number="3">
                    <syllabic>single</syllabic>
                    <text font-weight="normal" font-style="normal" font-size="9" font-family="Times New Roman">f</text>
                </lyric>
            </note>
            <note>
                <pitch>
                    <step>G</step>
                    <octave>5</octave>
                </pitch>
                <duration>6720</duration>
                <voice>1</voice>
                <type>quarter</type>
                <stem default-y="-30.42">down</stem>
                <notations>
                    <technical>
                        <fingering placement="above" relative-y="25.57" relative-x="-15.73">1</fingering>
                        <fingering placement="above" relative-y="25.57" relative-x="12.76">3</fingering>
                    </technical>
                </notations>
                <lyric justify="center" default-y="-171.04" number="3">
                    <syllabic>single</syllabic>
                    <text font-weight="normal" font-style="normal" font-size="9" font-family="Times New Roman">f</text>
                </lyric>
            </note>
            <direction placement="below">
                <direction-type>
                    <words font-weight="normal" font-style="normal" font-size="9" font-family="Times New Roman" relative-x="0.04" default-y="-106.04">8</words>
                </direction-type>
                <offset>-6720.00</offset>
            </direction>
        </measure>
        <measure width="105" number="6">
            <note>
                <pitch>
                    <step>A</step>
                    <octave>5</octave>
                </pitch>
                <duration>13440</duration>
                <voice>1</voice>
                <type>half</type>
                <stem default-y="-25.42">down</stem>
                <notations>
                    <technical>
                        <fingering placement="above" relative-y="20.25" relative-x="12.58">2</fingering>
                    </technical>
                </notations>
                <lyric justify="center" default-y="-106.04" number="1">
                    <syllabic>begin</syllabic>
                    <text font-weight="normal" font-style="normal" font-size="9" font-family="Times New Roman">7'</text>
                </lyric>
                <lyric justify="center" default-y="-171.04" number="3">
                    <syllabic>single</syllabic>
                    <text font-weight="normal" font-style="normal" font-size="9" font-family="Times New Roman">F</text>
                </lyric>
            </note>
            <note>
                <pitch>
                    <step>F</step>
                    <octave>5</octave>
                </pitch>
                <duration>6720</duration>
                <voice>1</voice>
                <type>quarter</type>
                <stem default-y="-35.42">down</stem>
                <notations>
                    <technical>
                        <fingering placement="above" relative-y="30.57" relative-x="13.85">1</fingering>
                    </technical>
                </notations>
                <lyric justify="center" default-y="-106.04" number="1">
                    <syllabic>single</syllabic>
                    <text font-weight="normal" font-style="normal" font-size="9" font-family="Times New Roman">6'</text>
                </lyric>
                <lyric justify="right" default-y="-171.04" number="3">
                    <syllabic>single</syllabic>
                    <text font-weight="normal" font-style="normal" font-size="9" font-family="Times New Roman">f f</text>
                </lyric>
            </note>
        </measure>
        <measure width="105" number="7">
            <note>
                <pitch>
                    <step>B</step>
                    <alter>-1</alter>
                    <octave>5</octave>
                </pitch>
                <duration>13440</duration>
                <voice>1</voice>
                <type>half</type>
                <stem default-y="-20.42">down</stem>
                <notations>
                    <technical>
                        <fingering placement="above" relative-y="15.25" relative-x="12.77">3</fingering>
                    </technical>
                </notations>
                <lyric justify="center" default-y="-138.54" number="2">
                    <syllabic>begin</syllabic>
                    <text font-weight="normal" font-style="normal" font-size="9" font-family="Times New Roman">8'</text>
                </lyric>
                <lyric justify="center" default-y="-171.04" number="3">
                    <syllabic>single</syllabic>
                    <text font-weight="normal" font-style="normal" font-size="9" font-family="Times New Roman">Bb bb</text>
                </lyric>
            </note>
            <direction placement="below">
                <direction-type>
                    <words font-weight="normal" font-style="normal" font-size="9" font-family="Times New Roman" relative-x="-0.13" default-y="-138.54">9</words>
                </direction-type>
            </direction>
            <note>
                <pitch>
                    <step>A</step>
                    <octave>5</octave>
                </pitch>
                <duration>6720</duration>
                <voice>1</voice>
                <type>quarter</type>
                <stem default-y="-25.42">down</stem>
                <notations>
                    <technical>
                        <fingering placement="above" relative-y="20.57" relative-x="12.29">4</fingering>
                    </technical>
                </notations>
                <lyric justify="center" default-y="-171.04" number="3">
                    <syllabic>single</syllabic>
                    <text font-weight="normal" font-style="normal" font-size="9" font-family="Times New Roman">bb</text>
                </lyric>
            </note>
        </measure>
        <measure width="109" number="8">
            <note>
                <pitch>
                    <step>G</step>
                    <octave>5</octave>
                </pitch>
                <duration>20160</duration>
                <voice>1</voice>
                <type>half</type>
                <dot/>
                <stem default-y="-30.42">down</stem>
                <notations>
                    <technical>
                        <fingering placement="above" relative-y="25.25" relative-x="12.58">2</fingering>
                    </technical>
                </notations>
                <lyric justify="center" default-y="-138.54" number="2">
                    <syllabic>begin</syllabic>
                    <text font-weight="normal" font-style="normal" font-size="9" font-family="Times New Roman">7'</text>
                </lyric>
                <lyric justify="center" default-y="-171.04" number="3">
                    <syllabic>single</syllabic>
                    <text font-weight="normal" font-style="normal" font-size="9" font-family="Times New Roman">C c c</text>
                </lyric>
            </note>
        </measure>
        <measure width="159" number="9">
            <print new-system="yes">
                <system-layout>
                    <system-margins>
                        <left-margin>-0.255</left-margin>
                        <right-margin>0.000</right-margin>
                    </system-margins>
                    <system-distance>207.500</system-distance>
                </system-layout>
            </print>
            <attributes>
                <staff-details print-object="yes" number="1"/>
            </attributes>
            <direction placement="below">
                <direction-type>
                    <words font-weight="normal" font-style="normal" font-size="9" font-family="Times New Roman" relative-x="-64.89" default-y="-107.29">D</words>
                </direction-type>
            </direction>
            <direction placement="below">
                <direction-type>
                    <words font-weight="normal" font-style="normal" font-size="9" font-family="Times New Roman" relative-x="-64.88" default-y="-139.79">T</words>
                </direction-type>
            </direction>
            <direction placement="below">
                <direction-type>
                    <words font-weight="normal" font-style="normal" font-size="9" font-family="Times New Roman" relative-x="-2.05" default-y="-138.54">5'</words>
                </direction-type>
            </direction>
            <note>
                <pitch>
                    <step>C</step>
                    <octave>5</octave>
                </pitch>
                <duration>6720</duration>
                <voice>1</voice>
                <type>quarter</type>
                <stem default-y="-50.42">down</stem>
            </note>
            <direction placement="below">
                <direction-type>
                    <words font-weight="normal" font-style="normal" font-size="9" font-family="Times New Roman" relative-x="-2.09" default-y="-138.54">6'</words>
                </direction-type>
            </direction>
            <note>
                <pitch>
                    <step>E</step>
                    <octave>5</octave>
                </pitch>
                <duration>6720</duration>
                <voice>1</voice>
                <type>quarter</type>
                <stem default-y="-40.42">down</stem>
                <notations>
                    <technical>
                        <fingering placement="above" relative-y="35.57" relative-x="-16.77">1</fingering>
                    </technical>
                </notations>
            </note>
            <note>
                <pitch>
                    <step>F</step>
                    <octave>5</octave>
                </pitch>
                <duration>6720</duration>
                <voice>1</voice>
                <type>quarter</type>
                <stem default-y="-35.42">down</stem>
                <notations>
                    <technical>
                        <fingering placement="above" relative-y="30.57" relative-x="-16.98">1</fingering>
                        <fingering placement="above" relative-y="30.57" relative-x="12.77">3</fingering>
                    </technical>
                </notations>
            </note>
            <direction placement="below">
                <direction-type>
                    <words font-weight="normal" font-style="normal" font-size="9" font-family="Times New Roman" relative-x="0.04" default-y="-138.54">8</words>
                </direction-type>
                <offset>-6720.00</offset>
            </direction>
        </measure>
        <measure width="110" number="10">
            <direction placement="below">
                <direction-type>
                    <words font-weight="normal" font-style="normal" font-size="9" font-family="Times New Roman" relative-x="-2.08" default-y="-138.54">7'</words>
                </direction-type>
            </direction>
            <note>
                <pitch>
                    <step>G</step>
                    <octave>5</octave>
                </pitch>
                <duration>13440</duration>
                <voice>1</voice>
                <type>half</type>
                <stem default-y="-30.42">down</stem>
            </note>
            <direction placement="below">
                <direction-type>
                    <words font-weight="normal" font-style="normal" font-size="9" font-family="Times New Roman" relative-x="-2.09" default-y="-138.54">6'</words>
                </direction-type>
            </direction>
            <note>
                <pitch>
                    <step>E</step>
                    <octave>5</octave>
                </pitch>
                <duration>6720</duration>
                <voice>1</voice>
                <type>quarter</type>
                <stem default-y="-40.42">down</stem>
            </note>
        </measure>
        <measure width="110" number="11">
            <direction placement="below">
                <direction-type>
                    <words font-weight="normal" font-style="normal" font-size="9" font-family="Times New Roman" relative-x="-2.11" default-y="-138.54">8'</words>
                </direction-type>
            </direction>
            <note>
                <pitch>
                    <step>B</step>
                    <alter>-1</alter>
                    <octave>5</octave>
                </pitch>
                <duration>13440</duration>
                <voice>1</voice>
                <type>half</type>
                <stem default-y="-20.42">down</stem>
            </note>
            <direction placement="below">
                <direction-type>
                    <words font-weight="normal" font-style="normal" font-size="9" font-family="Times New Roman" relative-x="-0.13" default-y="-138.54">9</words>
                </direction-type>
            </direction>
            <note>
                <pitch>
                    <step>A</step>
                    <octave>5</octave>
                </pitch>
                <duration>6720</duration>
                <voice>1</voice>
                <type>quarter</type>
                <stem default-y="-25.42">down</stem>
            </note>
        </measure>
        <measure width="110" number="12">
            <direction placement="below">
                <direction-type>
                    <words font-weight="normal" font-style="normal" font-size="9" font-family="Times New Roman" relative-x="-2.08" default-y="-138.54">7'</words>
                </direction-type>
            </direction>
            <note>
                <pitch>
                    <step>G</step>
                    <octave>5</octave>
                </pitch>
                <duration>13440</duration>
                <voice>1</voice>
                <type>half</type>
                <stem default-y="-30.42">down</stem>
            </note>
            <direction placement="below">
                <direction-type>
                    <words font-weight="normal" font-style="normal" font-size="9" font-family="Times New Roman" relative-x="-2.09" default-y="-138.54">6'</words>
                </direction-type>
            </direction>
            <note>
                <pitch>
                    <step>E</step>
                    <octave>5</octave>
                </pitch>
                <duration>6720</duration>
                <voice>1</voice>
                <type>quarter</type>
                <stem default-y="-40.42">down</stem>
                <notations>
                    <technical>
                        <fingering placement="above" relative-y="35.57" relative-x="13.85">1</fingering>
                    </technical>
                </notations>
            </note>
        </measure>
        <measure width="110" number="13">
            <direction placement="below">
                <direction-type>
                    <words font-weight="normal" font-style="normal" font-size="9" font-family="Times New Roman" relative-x="-2.05" default-y="-138.54">5'</words>
                </direction-type>
            </direction>
            <note>
                <pitch>
                    <step>C</step>
                    <octave>5</octave>
                </pitch>
                <duration>6720</duration>
                <voice>1</voice>
                <type>quarter</type>
                <stem default-y="-50.42">down</stem>
            </note>
            <direction placement="below">
                <direction-type>
                    <words font-weight="normal" font-style="normal" font-size="9" font-family="Times New Roman" relative-x="-2.09" default-y="-138.54">6'</words>
                </direction-type>
            </direction>
            <note>
                <pitch>
                    <step>E</step>
                    <octave>5</octave>
                </pitch>
                <duration>6720</duration>
                <voice>1</voice>
                <type>quarter</type>
                <stem default-y="-40.42">down</stem>
                <notations>
                    <technical>
                        <fingering placement="above" relative-y="35.57" relative-x="-16.77">1</fingering>
                    </technical>
                </notations>
            </note>
            <note>
                <pitch>
                    <step>F</step>
                    <octave>5</octave>
                </pitch>
                <duration>6720</duration>
                <voice>1</voice>
                <type>quarter</type>
                <stem default-y="-35.42">down</stem>
            </note>
            <direction placement="below">
                <direction-type>
                    <words font-weight="normal" font-style="normal" font-size="9" font-family="Times New Roman" relative-x="0.04" default-y="-138.54">8</words>
                </direction-type>
                <offset>-6720.00</offset>
            </direction>
        </measure>
        <measure width="110" number="14">
            <direction placement="below">
                <direction-type>
                    <words font-weight="normal" font-style="normal" font-size="9" font-family="Times New Roman" relative-x="-2.08" default-y="-138.54">7'</words>
                </direction-type>
            </direction>
            <note>
                <pitch>
                    <step>G</step>
                    <octave>5</octave>
                </pitch>
                <duration>13440</duration>
                <voice>1</voice>
                <type>half</type>
                <stem default-y="-30.42">down</stem>
            </note>
            <direction placement="below">
                <direction-type>
                    <words font-weight="normal" font-style="normal" font-size="9" font-family="Times New Roman" relative-x="-2.12" default-y="-106.04">8'</words>
                </direction-type>
            </direction>
            <note>
                <pitch>
                    <step>C</step>
                    <octave>6</octave>
                </pitch>
                <duration>6720</duration>
                <voice>1</voice>
                <type>quarter</type>
                <stem default-y="-15.42">down</stem>
            </note>
        </measure>
        <measure width="110" number="15">
            <direction placement="below">
                <direction-type>
                    <words font-weight="normal" font-style="normal" font-size="9" font-family="Times New Roman" relative-x="-2.12" default-y="-106.04">8'</words>
                </direction-type>
            </direction>
            <note>
                <pitch>
                    <step>C</step>
                    <octave>6</octave>
                </pitch>
                <duration>6720</duration>
                <voice>1</voice>
                <type>quarter</type>
                <stem default-y="-15.42">down</stem>
            </note>
            <direction placement="below">
                <direction-type>
                    <words font-weight="normal" font-style="normal" font-size="9" font-family="Times New Roman" relative-x="-2.12" default-y="-138.54">8'</words>
                </direction-type>
            </direction>
            <note>
                <pitch>
                    <step>B</step>
                    <alter>-1</alter>
                    <octave>5</octave>
                </pitch>
                <duration>6720</duration>
                <voice>1</voice>
                <type>quarter</type>
                <stem default-y="-20.42">down</stem>
            </note>
        </measure>
        <measure width="113" number="16">
            <direction placement="below">
                <direction-type>
                    <words font-weight="normal" font-style="normal" font-size="9" font-family="Times New Roman" relative-x="-2.08" default-y="-106.04">7'</words>
                </direction-type>
            </direction>
            <note>
                <pitch>
                    <step>A</step>
                    <octave>5</octave>
                </pitch>
                <duration>20160</duration>
                <voice>1</voice>
                <type>half</type>
                <dot/>
                <stem default-y="-25.42">down</stem>
            </note>
        </measure>
        <measure width="159" number="7">
            <print new-system="yes">
                <system-layout>
                    <system-margins>
                        <left-margin>-0.255</left-margin>
                        <right-margin>0.000</right-margin>
                    </system-margins>
                    <system-distance>207.500</system-distance>
                </system-layout>
            </print>
            <attributes>
                <staff-details print-object="yes" number="1"/>
            </attributes>
            <direction placement="below">
                <direction-type>
                    <words font-weight="normal" font-style="normal" font-size="9" font-family="Times New Roman" relative-x="-64.88" default-y="-139.79">T</words>
                </direction-type>
            </direction>
            <direction placement="above">
                <direction-type>
                    <words font-weight="normal" font-style="normal" font-size="9" font-family="Times New Roman" relative-x="-1.27" default-y="76.46">C</words>
                </direction-type>
            </direction>
            <note>
                <pitch>
                    <step>C</step>
                    <octave>5</octave>
                </pitch>
                <duration>6720</duration>
                <voice>1</voice>
                <type>quarter</type>
                <stem default-y="-50.42">down</stem>
                <lyric justify="right" default-y="-107.29" number="1">
                    <syllabic>single</syllabic>
                    <text font-weight="normal" font-style="normal" font-size="9" font-family="Times New Roman">D</text>
                    <extend/>
                </lyric>
            </note>
            <direction placement="below">
                <direction-type>
                    <words font-weight="normal" font-style="normal" font-size="9" font-family="Times New Roman" relative-x="0.07" default-y="-106.04">6</words>
                </direction-type>
                <offset>-6720.00</offset>
            </direction>
            <note>
                <pitch>
                    <step>F</step>
                    <octave>5</octave>
                </pitch>
                <duration>6720</duration>
                <voice>1</voice>
                <type>quarter</type>
                <stem default-y="-35.42">down</stem>
                <lyric justify="center" default-y="-106.04" number="1">
                    <syllabic>single</syllabic>
                    <text font-weight="normal" font-style="normal" font-size="9" font-family="Times New Roman">6'</text>
                </lyric>
            </note>
            <direction placement="above">
                <direction-type>
                    <words font-weight="normal" font-style="normal" font-size="9" font-family="Times New Roman" relative-x="0.06" default-y="76.46">c</words>
                </direction-type>
                <offset>-6720.00</offset>
            </direction>
            <note>
                <pitch>
                    <step>G</step>
                    <octave>5</octave>
                </pitch>
                <duration>6720</duration>
                <voice>1</voice>
                <type>quarter</type>
                <stem default-y="-30.42">down</stem>
            </note>
            <direction placement="below">
                <direction-type>
                    <words font-weight="normal" font-style="normal" font-size="9" font-family="Times New Roman" relative-x="0.04" default-y="-106.04">8</words>
                </direction-type>
                <offset>-6720.00</offset>
            </direction>
            <direction placement="above">
                <direction-type>
                    <words font-weight="normal" font-style="normal" font-size="9" font-family="Times New Roman" relative-x="0.06" default-y="76.46">c</words>
                </direction-type>
                <offset>-6720.00</offset>
            </direction>
        </measure>
        <measure width="110" number="8">
            <direction placement="above">
                <direction-type>
                    <words font-weight="normal" font-style="normal" font-size="9" font-family="Times New Roman" relative-x="-1.27" default-y="76.46">C</words>
                </direction-type>
            </direction>
            <note>
                <pitch>
                    <step>A</step>
                    <octave>5</octave>
                </pitch>
                <duration>13440</duration>
                <voice>1</voice>
                <type>half</type>
                <stem default-y="-25.42">down</stem>
                <lyric justify="center" default-y="-106.04" number="1">
                    <syllabic>begin</syllabic>
                    <text font-weight="normal" font-style="normal" font-size="9" font-family="Times New Roman">7'</text>
                </lyric>
            </note>
            <direction placement="above">
                <direction-type>
                    <words font-weight="normal" font-style="normal" font-size="9" font-family="Times New Roman" relative-x="-35.22" default-y="76.46">c</words>
                </direction-type>
            </direction>
            <note>
                <pitch>
                    <step>F</step>
                    <octave>5</octave>
                </pitch>
                <duration>6720</duration>
                <voice>1</voice>
                <type>quarter</type>
                <stem default-y="-35.42">down</stem>
                <lyric justify="center" default-y="-106.04" number="1">
                    <syllabic>single</syllabic>
                    <text font-weight="normal" font-style="normal" font-size="9" font-family="Times New Roman">6'</text>
                </lyric>
            </note>
            <direction placement="above">
                <direction-type>
                    <words font-weight="normal" font-style="normal" font-size="9" font-family="Times New Roman" relative-x="0.06" default-y="76.46">c</words>
                </direction-type>
                <offset>-6720.00</offset>
            </direction>
        </measure>
        <measure width="110" number="9">
            <direction placement="above">
                <direction-type>
                    <words font-weight="normal" font-style="normal" font-size="9" font-family="Times New Roman" relative-x="-6.54" default-y="76.46">Bb</words>
                </direction-type>
            </direction>
            <note>
                <pitch>
                    <step>C</step>
                    <octave>6</octave>
                </pitch>
                <duration>13440</duration>
                <voice>1</voice>
                <type>half</type>
                <stem default-y="-15.42">down</stem>
                <lyric justify="center" default-y="-106.04" number="1">
                    <syllabic>begin</syllabic>
                    <text font-weight="normal" font-style="normal" font-size="9" font-family="Times New Roman">8'</text>
                </lyric>
            </note>
            <direction placement="above">
                <direction-type>
                    <words font-weight="normal" font-style="normal" font-size="9" font-family="Times New Roman" relative-x="29.80" default-y="76.46">bb</words>
                </direction-type>
                <offset>-13440.00</offset>
            </direction>
            <direction placement="above">
                <direction-type>
                    <words font-weight="normal" font-style="normal" font-size="9" font-family="Times New Roman" relative-x="-5.73" default-y="76.46">bb</words>
                </direction-type>
            </direction>
            <direction placement="below">
                <direction-type>
                    <words font-weight="normal" font-style="normal" font-size="9" font-family="Times New Roman" relative-x="-2.12" default-y="-138.54">8'</words>
                </direction-type>
            </direction>
            <note>
                <pitch>
                    <step>B</step>
                    <alter>-1</alter>
                    <octave>5</octave>
                </pitch>
                <duration>6720</duration>
                <voice>1</voice>
                <type>quarter</type>
                <stem default-y="-20.42">down</stem>
            </note>
        </measure>
        <measure width="110" number="10">
            <direction placement="above">
                <direction-type>
                    <words font-weight="normal" font-style="normal" font-size="9" font-family="Times New Roman" relative-x="-1.27" default-y="76.46">C</words>
                </direction-type>
            </direction>
            <note>
                <pitch>
                    <step>A</step>
                    <octave>5</octave>
                </pitch>
                <duration>13440</duration>
                <voice>1</voice>
                <type>half</type>
                <stem default-y="-25.42">down</stem>
                <lyric justify="center" default-y="-106.04" number="1">
                    <syllabic>begin</syllabic>
                    <text font-weight="normal" font-style="normal" font-size="9" font-family="Times New Roman">7'</text>
                </lyric>
            </note>
            <direction placement="above">
                <direction-type>
                    <words font-weight="normal" font-style="normal" font-size="9" font-family="Times New Roman" relative-x="35.35" default-y="76.46">c</words>
                </direction-type>
                <offset>-13440.00</offset>
            </direction>
            <note>
                <pitch>
                    <step>F</step>
                    <octave>5</octave>
                </pitch>
                <duration>6720</duration>
                <voice>1</voice>
                <type>quarter</type>
                <stem default-y="-35.42">down</stem>
                <notations>
                    <technical>
                        <fingering placement="above" relative-y="30.57" relative-x="13.85">1</fingering>
                    </technical>
                </notations>
                <lyric justify="center" default-y="-106.04" number="1">
                    <syllabic>single</syllabic>
                    <text font-weight="normal" font-style="normal" font-size="9" font-family="Times New Roman">6'</text>
                </lyric>
            </note>
            <direction placement="above">
                <direction-type>
                    <words font-weight="normal" font-style="normal" font-size="9" font-family="Times New Roman" relative-x="0.06" default-y="76.46">c</words>
                </direction-type>
                <offset>-6720.00</offset>
            </direction>
        </measure>
        <measure width="110" number="11">
            <direction placement="above">
                <direction-type>
                    <words font-weight="normal" font-style="normal" font-size="9" font-family="Times New Roman" relative-x="-1.27" default-y="76.46">C</words>
                </direction-type>
            </direction>
            <note>
                <pitch>
                    <step>C</step>
                    <octave>5</octave>
                </pitch>
                <duration>6720</duration>
                <voice>1</voice>
                <type>quarter</type>
                <stem default-y="-50.42">down</stem>
            </note>
            <direction placement="below">
                <direction-type>
                    <words font-weight="normal" font-style="normal" font-size="9" font-family="Times New Roman" relative-x="0.07" default-y="-106.04">6</words>
                </direction-type>
                <offset>-6720.00</offset>
            </direction>
            <note>
                <pitch>
                    <step>F</step>
                    <octave>5</octave>
                </pitch>
                <duration>6720</duration>
                <voice>1</voice>
                <type>quarter</type>
                <stem default-y="-35.42">down</stem>
                <notations>
                    <technical>
                        <fingering placement="above" relative-y="30.57" relative-x="-16.77">1</fingering>
                    </technical>
                </notations>
                <lyric justify="center" default-y="-106.04" number="1">
                    <syllabic>single</syllabic>
                    <text font-weight="normal" font-style="normal" font-size="9" font-family="Times New Roman">6'</text>
                </lyric>
            </note>
            <direction placement="above">
                <direction-type>
                    <words font-weight="normal" font-style="normal" font-size="9" font-family="Times New Roman" relative-x="0.06" default-y="76.46">c</words>
                </direction-type>
                <offset>-6720.00</offset>
            </direction>
            <note>
                <pitch>
                    <step>G</step>
                    <octave>5</octave>
                </pitch>
                <duration>6720</duration>
                <voice>1</voice>
                <type>quarter</type>
                <stem default-y="-30.42">down</stem>
                <notations>
                    <technical>
                        <fingering placement="above" relative-y="25.57" relative-x="-18.26">2</fingering>
                        <fingering placement="above" relative-y="25.57" relative-x="12.76">3</fingering>
                    </technical>
                </notations>
            </note>
            <direction placement="below">
                <direction-type>
                    <words font-weight="normal" font-style="normal" font-size="9" font-family="Times New Roman" relative-x="0.04" default-y="-106.04">8</words>
                </direction-type>
                <offset>-6720.00</offset>
            </direction>
            <direction placement="above">
                <direction-type>
                    <words font-weight="normal" font-style="normal" font-size="9" font-family="Times New Roman" relative-x="0.06" default-y="76.46">c</words>
                </direction-type>
                <offset>-6720.00</offset>
            </direction>
        </measure>
        <measure width="110" number="12">
            <direction placement="above">
                <direction-type>
                    <words font-weight="normal" font-style="normal" font-size="9" font-family="Times New Roman" relative-x="-1.27" default-y="76.46">C</words>
                </direction-type>
            </direction>
            <note>
                <pitch>
                    <step>A</step>
                    <octave>5</octave>
                </pitch>
                <duration>13440</duration>
                <voice>1</voice>
                <type>half</type>
                <stem default-y="-25.42">down</stem>
                <lyric justify="center" default-y="-106.04" number="1">
                    <syllabic>begin</syllabic>
                    <text font-weight="normal" font-style="normal" font-size="9" font-family="Times New Roman">7'</text>
                </lyric>
            </note>
            <direction placement="above">
                <direction-type>
                    <words font-weight="normal" font-style="normal" font-size="9" font-family="Times New Roman" relative-x="-35.22" default-y="76.46">c</words>
                </direction-type>
            </direction>
            <note>
                <pitch>
                    <step>A</step>
                    <octave>5</octave>
                </pitch>
                <duration>6720</duration>
                <voice>1</voice>
                <type>quarter</type>
                <stem default-y="-25.42">down</stem>
                <lyric justify="center" default-y="-106.04" number="1">
                    <syllabic>single</syllabic>
                    <text font-weight="normal" font-style="normal" font-size="9" font-family="Times New Roman">7'</text>
                </lyric>
            </note>
            <direction placement="above">
                <direction-type>
                    <words font-weight="normal" font-style="normal" font-size="9" font-family="Times New Roman" relative-x="0.06" default-y="76.46">c</words>
                </direction-type>
                <offset>-6720.00</offset>
            </direction>
        </measure>
        <measure width="110" number="13">
            <direction placement="below">
                <direction-type>
                    <words font-weight="normal" font-style="normal" font-size="9" font-family="Times New Roman" relative-x="-2.11" default-y="-138.54">8'</words>
                </direction-type>
            </direction>
            <direction placement="above">
                <direction-type>
                    <words font-weight="normal" font-style="normal" font-size="9" font-family="Times New Roman" relative-x="-1.27" default-y="76.46">C</words>
                </direction-type>
            </direction>
            <note>
                <pitch>
                    <step>B</step>
                    <alter>-1</alter>
                    <octave>5</octave>
                </pitch>
                <duration>13440</duration>
                <voice>1</voice>
                <type>half</type>
                <stem default-y="-20.42">down</stem>
            </note>
            <direction placement="above">
                <direction-type>
                    <words font-weight="normal" font-style="normal" font-size="9" font-family="Times New Roman" relative-x="35.35" default-y="76.46">c</words>
                </direction-type>
                <offset>-13440.00</offset>
            </direction>
            <note>
                <pitch>
                    <step>C</step>
                    <octave>6</octave>
                </pitch>
                <duration>6720</duration>
                <voice>1</voice>
                <type>quarter</type>
                <stem default-y="-15.42">down</stem>
                <lyric justify="center" default-y="-106.04" number="1">
                    <syllabic>single</syllabic>
                    <text font-weight="normal" font-style="normal" font-size="9" font-family="Times New Roman">8'</text>
                </lyric>
            </note>
            <direction placement="above">
                <direction-type>
                    <words font-weight="normal" font-style="normal" font-size="9" font-family="Times New Roman" relative-x="0.06" default-y="76.46">c</words>
                </direction-type>
                <offset>-6720.00</offset>
            </direction>
        </measure>
        <measure width="113" number="14">
            <direction placement="below">
                <direction-type>
                    <words font-weight="normal" font-style="normal" font-size="9" font-family="Times New Roman" relative-x="-2.28" default-y="-138.54">9'</words>
                </direction-type>
            </direction>
            <note>
                <pitch>
                    <step>D</step>
                    <octave>6</octave>
                </pitch>
                <duration>20160</duration>
                <voice>1</voice>
                <type>half</type>
                <dot/>
                <stem default-y="-10.42">down</stem>
            </note>
            <direction placement="above">
                <direction-type>
                    <words font-weight="normal" font-style="normal" font-size="9" font-family="Times New Roman" relative-x="0.19" default-y="76.46">F</words>
                </direction-type>
                <offset>-20160.00</offset>
            </direction>
            <direction placement="above">
                <direction-type>
                    <dynamics font-weight="normal" font-style="normal" font-size="9" font-family="Times New Roman" relative-x="36.95" default-y="76.46">
                        <f/>
                    </dynamics>
                </direction-type>
                <offset>-20160.00</offset>
            </direction>
            <direction placement="above">
                <direction-type>
                    <dynamics font-weight="normal" font-style="normal" font-size="9" font-family="Times New Roman" relative-x="72.47" default-y="76.46">
                        <f/>
                    </dynamics>
                </direction-type>
                <offset>-20160.00</offset>
            </direction>
        </measure>
        <measure width="159" number="25">
            <print new-system="yes">
                <system-layout>
                    <system-margins>
                        <left-margin>-0.255</left-margin>
                        <right-margin>1.736</right-margin>
                    </system-margins>
                    <system-distance>207.500</system-distance>
                </system-layout>
            </print>
            <attributes>
                <staff-details print-object="yes" number="1"/>
            </attributes>
            <note>
                <pitch>
                    <step>D</step>
                    <octave>6</octave>
                </pitch>
                <duration>13440</duration>
                <voice>1</voice>
                <type>half</type>
                <stem default-y="-10.42">down</stem>
                <lyric justify="right" default-y="-107.29" number="1">
                    <syllabic>single</syllabic>
                    <text font-weight="normal" font-style="normal" font-size="9" font-family="Times New Roman">D</text>
                    <extend/>
                </lyric>
                <lyric justify="center" default-y="-138.54" number="2">
                    <syllabic>begin</syllabic>
                    <text font-weight="normal" font-style="normal" font-size="9" font-family="Times New Roman">9'</text>
                </lyric>
                <lyric justify="center" default-y="-171.04" number="3">
                    <syllabic>single</syllabic>
                    <text font-weight="normal" font-style="normal" font-size="9" font-family="Times New Roman">Bb bb</text>
                </lyric>
            </note>
            <direction placement="above">
                <direction-type>
                    <words font-weight="normal" font-style="normal" font-size="9" font-family="Times New Roman" relative-x="0.19" default-y="76.46">F</words>
                </direction-type>
                <offset>-13440.00</offset>
            </direction>
            <direction placement="above">
                <direction-type>
                    <dynamics font-weight="normal" font-style="normal" font-size="9" font-family="Times New Roman" relative-x="-33.86" default-y="76.46">
                        <f/>
                    </dynamics>
                </direction-type>
            </direction>
            <note>
                <pitch>
                    <step>B</step>
                    <alter>-1</alter>
                    <octave>5</octave>
                </pitch>
                <duration>6720</duration>
                <voice>1</voice>
                <type>quarter</type>
                <stem default-y="-20.42">down</stem>
                <lyric justify="center" default-y="-138.54" number="2">
                    <syllabic>begin</syllabic>
                    <text font-weight="normal" font-style="normal" font-size="9" font-family="Times New Roman">8'</text>
                </lyric>
                <lyric justify="center" default-y="-171.04" number="3">
                    <syllabic>single</syllabic>
                    <text font-weight="normal" font-style="normal" font-size="9" font-family="Times New Roman">bb</text>
                </lyric>
            </note>
            <direction placement="above">
                <direction-type>
                    <dynamics font-weight="normal" font-style="normal" font-size="9" font-family="Times New Roman" relative-x="1.66" default-y="76.46">
                        <f/>
                    </dynamics>
                </direction-type>
                <offset>-6720.00</offset>
            </direction>
        </measure>
        <measure width="110" number="26">
            <note>
                <pitch>
                    <step>A</step>
                    <octave>5</octave>
                </pitch>
                <duration>13440</duration>
                <voice>1</voice>
                <type>half</type>
                <stem default-y="-25.42">down</stem>
                <lyric justify="center" default-y="-171.04" number="3">
                    <syllabic>single</syllabic>
                    <text font-weight="normal" font-style="normal" font-size="9" font-family="Times New Roman">Bb bb</text>
                </lyric>
            </note>
            <direction placement="above">
                <direction-type>
                    <words font-weight="normal" font-style="normal" font-size="9" font-family="Times New Roman" relative-x="0.19" default-y="76.46">F</words>
                </direction-type>
                <offset>-13440.00</offset>
            </direction>
            <direction placement="above">
                <direction-type>
                    <dynamics font-weight="normal" font-style="normal" font-size="9" font-family="Times New Roman" relative-x="-33.62" default-y="76.46">
                        <f/>
                    </dynamics>
                </direction-type>
            </direction>
            <note>
                <pitch>
                    <step>G</step>
                    <octave>5</octave>
                </pitch>
                <duration>6720</duration>
                <voice>1</voice>
                <type>quarter</type>
                <stem default-y="-30.42">down</stem>
                <lyric justify="center" default-y="-138.54" number="2">
                    <syllabic>single</syllabic>
                    <text font-weight="normal" font-style="normal" font-size="9" font-family="Times New Roman">7'</text>
                </lyric>
                <lyric justify="center" default-y="-171.04" number="3">
                    <syllabic>single</syllabic>
                    <text font-weight="normal" font-style="normal" font-size="9" font-family="Times New Roman">bb</text>
                </lyric>
            </note>
            <direction placement="above">
                <direction-type>
                    <dynamics font-weight="normal" font-style="normal" font-size="9" font-family="Times New Roman" relative-x="1.66" default-y="76.46">
                        <f/>
                    </dynamics>
                </direction-type>
                <offset>-6720.00</offset>
            </direction>
        </measure>
        <measure width="110" number="27">
            <direction placement="above">
                <direction-type>
                    <words font-weight="normal" font-style="normal" font-size="9" font-family="Times New Roman" relative-x="-1.27" default-y="76.46">C</words>
                </direction-type>
            </direction>
            <note>
                <pitch>
                    <step>C</step>
                    <octave>6</octave>
                </pitch>
                <duration>13440</duration>
                <voice>1</voice>
                <type>half</type>
                <stem default-y="-15.42">down</stem>
                <lyric justify="center" default-y="-106.04" number="1">
                    <syllabic>begin</syllabic>
                    <text font-weight="normal" font-style="normal" font-size="9" font-family="Times New Roman">8'</text>
                </lyric>
                <lyric justify="center" default-y="-171.04" number="3">
                    <syllabic>single</syllabic>
                    <text font-weight="normal" font-style="normal" font-size="9" font-family="Times New Roman">F</text>
                </lyric>
            </note>
            <direction placement="above">
                <direction-type>
                    <words font-weight="normal" font-style="normal" font-size="9" font-family="Times New Roman" relative-x="-35.22" default-y="76.46">c</words>
                </direction-type>
            </direction>
            <note>
                <pitch>
                    <step>A</step>
                    <octave>5</octave>
                </pitch>
                <duration>6720</duration>
                <voice>1</voice>
                <type>quarter</type>
                <stem default-y="-25.42">down</stem>
                <lyric justify="center" default-y="-106.04" number="1">
                    <syllabic>begin</syllabic>
                    <text font-weight="normal" font-style="normal" font-size="9" font-family="Times New Roman">7'</text>
                </lyric>
                <lyric justify="right" default-y="-171.04" number="3">
                    <syllabic>single</syllabic>
                    <text font-weight="normal" font-style="normal" font-size="9" font-family="Times New Roman">f f</text>
                </lyric>
            </note>
            <direction placement="above">
                <direction-type>
                    <words font-weight="normal" font-style="normal" font-size="9" font-family="Times New Roman" relative-x="0.06" default-y="76.46">c</words>
                </direction-type>
                <offset>-6720.00</offset>
            </direction>
        </measure>
        <measure width="110" number="28">
            <note>
                <pitch>
                    <step>G</step>
                    <octave>5</octave>
                </pitch>
                <duration>13440</duration>
                <voice>1</voice>
                <type>half</type>
                <stem default-y="-30.42">down</stem>
                <lyric justify="center" default-y="-171.04" number="3">
                    <syllabic>single</syllabic>
                    <text font-weight="normal" font-style="normal" font-size="9" font-family="Times New Roman">F</text>
                </lyric>
            </note>
            <direction placement="above">
                <direction-type>
                    <words font-weight="normal" font-style="normal" font-size="9" font-family="Times New Roman" relative-x="0.19" default-y="76.46">F</words>
                </direction-type>
                <offset>-13440.00</offset>
            </direction>
            <direction placement="above">
                <direction-type>
                    <dynamics font-weight="normal" font-style="normal" font-size="9" font-family="Times New Roman" relative-x="-33.86" default-y="76.46">
                        <f/>
                    </dynamics>
                </direction-type>
            </direction>
            <note>
                <pitch>
                    <step>F</step>
                    <octave>5</octave>
                </pitch>
                <duration>6720</duration>
                <voice>1</voice>
                <type>quarter</type>
                <stem default-y="-35.42">down</stem>
                <lyric justify="center" default-y="-106.04" number="1">
                    <syllabic>single</syllabic>
                    <text font-weight="normal" font-style="normal" font-size="9" font-family="Times New Roman">6'</text>
                </lyric>
                <lyric justify="right" default-y="-171.04" number="3">
                    <syllabic>single</syllabic>
                    <text font-weight="normal" font-style="normal" font-size="9" font-family="Times New Roman">f f</text>
                </lyric>
            </note>
            <direction placement="above">
                <direction-type>
                    <dynamics font-weight="normal" font-style="normal" font-size="9" font-family="Times New Roman" relative-x="1.66" default-y="76.46">
                        <f/>
                    </dynamics>
                </direction-type>
                <offset>-6720.00</offset>
            </direction>
        </measure>
        <measure width="110" number="29">
            <note>
                <pitch>
                    <step>C</step>
                    <octave>5</octave>
                </pitch>
                <duration>6720</duration>
                <voice>1</voice>
                <type>quarter</type>
                <stem default-y="-50.42">down</stem>
                <lyric justify="center" default-y="-171.04" number="3">
                    <syllabic>single</syllabic>
                    <text font-weight="normal" font-style="normal" font-size="9" font-family="Times New Roman">F</text>
                </lyric>
            </note>
            <direction placement="above">
                <direction-type>
                    <words font-weight="normal" font-style="normal" font-size="9" font-family="Times New Roman" relative-x="0.18" default-y="76.46">F</words>
                </direction-type>
                <offset>-6720.00</offset>
            </direction>
            <note>
                <pitch>
                    <step>F</step>
                    <octave>5</octave>
                </pitch>
                <duration>6720</duration>
                <voice>1</voice>
                <type>quarter</type>
                <stem default-y="-35.42">down</stem>
                <lyric justify="center" default-y="-106.04" number="1">
                    <syllabic>single</syllabic>
                    <text font-weight="normal" font-style="normal" font-size="9" font-family="Times New Roman">6'</text>
                </lyric>
                <lyric justify="center" default-y="-171.04" number="3">
                    <syllabic>single</syllabic>
                    <text font-weight="normal" font-style="normal" font-size="9" font-family="Times New Roman">f</text>
                </lyric>
            </note>
            <direction placement="above">
                <direction-type>
                    <dynamics font-weight="normal" font-style="normal" font-size="9" font-family="Times New Roman" relative-x="1.66" default-y="76.46">
                        <f/>
                    </dynamics>
                </direction-type>
                <offset>-6720.00</offset>
            </direction>
            <note>
                <pitch>
                    <step>G</step>
                    <octave>5</octave>
                </pitch>
                <duration>6720</duration>
                <voice>1</voice>
                <type>quarter</type>
                <stem default-y="-30.42">down</stem>
                <lyric justify="center" default-y="-171.04" number="3">
                    <syllabic>single</syllabic>
                    <text font-weight="normal" font-style="normal" font-size="9" font-family="Times New Roman">f</text>
                </lyric>
            </note>
            <direction placement="above">
                <direction-type>
                    <dynamics font-weight="normal" font-style="normal" font-size="9" font-family="Times New Roman" relative-x="1.66" default-y="76.46">
                        <f/>
                    </dynamics>
                </direction-type>
                <offset>-6720.00</offset>
            </direction>
        </measure>
        <measure width="110" number="30">
            <note>
                <pitch>
                    <step>A</step>
                    <octave>5</octave>
                </pitch>
                <duration>13440</duration>
                <voice>1</voice>
                <type>half</type>
                <stem default-y="-25.42">down</stem>
                <lyric justify="center" default-y="-106.04" number="1">
                    <syllabic>begin</syllabic>
                    <text font-weight="normal" font-style="normal" font-size="9" font-family="Times New Roman">7'</text>
                </lyric>
                <lyric justify="center" default-y="-171.04" number="3">
                    <syllabic>single</syllabic>
                    <text font-weight="normal" font-style="normal" font-size="9" font-family="Times New Roman">F</text>
                </lyric>
            </note>
            <direction placement="above">
                <direction-type>
                    <words font-weight="normal" font-style="normal" font-size="9" font-family="Times New Roman" relative-x="0.19" default-y="76.46">F</words>
                </direction-type>
                <offset>-13440.00</offset>
            </direction>
            <direction placement="above">
                <direction-type>
                    <dynamics font-weight="normal" font-style="normal" font-size="9" font-family="Times New Roman" relative-x="-33.62" default-y="76.46">
                        <f/>
                    </dynamics>
                </direction-type>
            </direction>
            <note>
                <pitch>
                    <step>B</step>
                    <alter>-1</alter>
                    <octave>5</octave>
                </pitch>
                <duration>6720</duration>
                <voice>1</voice>
                <type>quarter</type>
                <stem default-y="-20.42">down</stem>
                <lyric justify="center" default-y="-138.54" number="2">
                    <syllabic>single</syllabic>
                    <text font-weight="normal" font-style="normal" font-size="9" font-family="Times New Roman">8'</text>
                </lyric>
                <lyric justify="right" default-y="-171.04" number="3">
                    <syllabic>single</syllabic>
                    <text font-weight="normal" font-style="normal" font-size="9" font-family="Times New Roman">f c</text>
                </lyric>
            </note>
            <direction placement="above">
                <direction-type>
                    <dynamics font-weight="normal" font-style="normal" font-size="9" font-family="Times New Roman" relative-x="1.66" default-y="76.46">
                        <f/>
                    </dynamics>
                </direction-type>
                <offset>-6720.00</offset>
            </direction>
        </measure>
        <measure width="110" number="31">
            <direction placement="above">
                <direction-type>
                    <words font-weight="normal" font-style="normal" font-size="9" font-family="Times New Roman" relative-x="-1.27" default-y="76.46">C</words>
                </direction-type>
            </direction>
            <note>
                <pitch>
                    <step>G</step>
                    <octave>5</octave>
                </pitch>
                <duration>13440</duration>
                <voice>1</voice>
                <type>half</type>
                <stem default-y="-30.42">down</stem>
                <lyric justify="center" default-y="-138.54" number="2">
                    <syllabic>begin</syllabic>
                    <text font-weight="normal" font-style="normal" font-size="9" font-family="Times New Roman">7'</text>
                </lyric>
                <lyric justify="center" default-y="-171.04" number="3">
                    <syllabic>single</syllabic>
                    <text font-weight="normal" font-style="normal" font-size="9" font-family="Times New Roman">C c</text>
                </lyric>
            </note>
            <direction placement="above">
                <direction-type>
                    <words font-weight="normal" font-style="normal" font-size="9" font-family="Times New Roman" relative-x="35.35" default-y="76.46">c</words>
                </direction-type>
                <offset>-13440.00</offset>
            </direction>
            <note>
                <pitch>
                    <step>A</step>
                    <octave>5</octave>
                </pitch>
                <duration>6720</duration>
                <voice>1</voice>
                <type>quarter</type>
                <stem default-y="-25.42">down</stem>
                <lyric justify="center" default-y="-171.04" number="3">
                    <syllabic>single</syllabic>
                    <text font-weight="normal" font-style="normal" font-size="9" font-family="Times New Roman">c</text>
                </lyric>
            </note>
            <direction placement="above">
                <direction-type>
                    <words font-weight="normal" font-style="normal" font-size="9" font-family="Times New Roman" relative-x="0.06" default-y="76.46">c</words>
                </direction-type>
                <offset>-6720.00</offset>
            </direction>
        </measure>
        <measure width="110" number="32">
            <direction placement="above">
                <direction-type>
                    <words font-weight="normal" font-style="normal" font-size="9" font-family="Times New Roman" relative-x="-6.54" default-y="76.46">Bb</words>
                </direction-type>
            </direction>
            <note>
                <pitch>
                    <step>F</step>
                    <octave>5</octave>
                </pitch>
                <duration>20160</duration>
                <voice>1</voice>
                <type>half</type>
                <dot/>
                <stem default-y="-35.42">down</stem>
                <lyric justify="center" default-y="-106.04" number="1">
                    <syllabic>begin</syllabic>
                    <text font-weight="normal" font-style="normal" font-size="9" font-family="Times New Roman">6'</text>
                </lyric>
                <lyric justify="center" default-y="-171.04" number="3">
                    <syllabic>single</syllabic>
                    <text font-weight="normal" font-style="normal" font-size="9" font-family="Times New Roman">F f f</text>
                </lyric>
            </note>
            <direction placement="above">
                <direction-type>
                    <words font-weight="normal" font-style="normal" font-size="9" font-family="Times New Roman" relative-x="29.56" default-y="76.46">bb</words>
                </direction-type>
                <offset>-20160.00</offset>
            </direction>
            <direction placement="above">
                <direction-type>
                    <words font-weight="normal" font-style="normal" font-size="9" font-family="Times New Roman" relative-x="65.08" default-y="76.46">bb</words>
                </direction-type>
                <offset>-20160.00</offset>
            </direction>
            <barline location="right">
                <bar-style>heavy</bar-style>
            </barline>
        </measure>
    </part>
</score-partwise>
