<?xml version="1.0" encoding="UTF-8"?>
<!DOCTYPE score-partwise PUBLIC "-//Recordare//DTD MusicXML 2.0 Partwise//EN" "http://www.musicxml.org/dtds/partwise.dtd">
<score-partwise version="2.0">
    <work>
        <work-number></work-number>
        <work-title></work-title>
    </work>
    <movement-number></movement-number>
    <movement-title>If I Had Words</movement-title>
    <identification>
        <creator type="composer">John Hodge</creator>
        <creator type="poet">John Hodge</creator>
        <rights>Public Domain</rights>
        <encoding>
            <software>Notation Composer 2, 6, 1, 0</software>
            <software>ProxyMusic 2.0 c</software>
        </encoding>
        <source>http://wikifonia.org/node/6799/revisions/9405/view</source>
    </identification>
    <defaults>
        <scaling>
            <millimeters>8.64</millimeters>
            <tenths>40</tenths>
        </scaling>
        <page-layout>
            <page-height>1293</page-height>
            <page-width>999</page-width>
            <page-margins type="both">
                <left-margin>59</left-margin>
                <right-margin>59</right-margin>
                <top-margin>88</top-margin>
                <bottom-margin>59</bottom-margin>
            </page-margins>
        </page-layout>
        <music-font font-size="12" font-family="Harmony"/>
        <word-font font-size="12" font-family="Times New Roman"/>
        <lyric-font font-size="12" font-family="Arial"/>
    </defaults>
    <credit>
        <credit-words font-weight="bold" font-size="18" font-family="Times New Roman" default-y="1197" default-x="381" valign="top">If I Had Words</credit-words>
    </credit>
    <part-list>
        <score-part id="T94271000">
            <part-name print-object="no">Melody</part-name>
            <part-abbreviation>Melody</part-abbreviation>
            <score-instrument id="IT94271000">
                <instrument-name>Melody</instrument-name>
            </score-instrument>
            <midi-instrument id="IT94271000">
                <midi-channel>5</midi-channel>
                <midi-bank>0</midi-bank>
                <midi-program>1</midi-program>
            </midi-instrument>
        </score-part>
    </part-list>
    <part id="T94271000">
        <measure width="185" number="1">
            <print>
                <system-layout>
                    <system-margins>
                        <left-margin>-5</left-margin>
                        <right-margin>0</right-margin>
                    </system-margins>
                    <top-system-distance>129</top-system-distance>
                </system-layout>
            </print>
            <attributes>
                <divisions>480</divisions>
                <key>
                    <fifths>1</fifths>
                </key>
                <time symbol="cut">
                    <beats>2</beats>
                    <beat-type>2</beat-type>
                </time>
                <clef>
                    <sign>G</sign>
                    <line>2</line>
                </clef>
                <staff-details print-object="yes"/>
            </attributes>
            <harmony default-y="23">
                <root>
                    <root-step>G</root-step>
                </root>
                <kind use-symbols="no" text=" "> </kind>
            </harmony>
            <note default-x="101">
                <rest/>
                <duration>1920</duration>
                <type>whole</type>
            </note>
        </measure>
        <measure width="134" number="2">
            <attributes>
                <staff-details print-object="yes"/>
            </attributes>
            <harmony relative-x="77" default-y="23">
                <root>
                    <root-step>G</root-step>
                </root>
                <kind use-symbols="no" text=" "> </kind>
            </harmony>
            <note default-x="13">
                <rest/>
                <duration>1920</duration>
                <type>whole</type>
            </note>
        </measure>
        <measure width="97" number="3">
            <attributes>
                <staff-details print-object="yes"/>
            </attributes>
            <note default-x="13">
                <rest/>
                <duration>1920</duration>
                <type>whole</type>
            </note>
        </measure>
        <measure width="148" number="4">
            <attributes>
                <staff-details print-object="yes"/>
            </attributes>
            <barline location="right">
                <bar-style>heavy-light</bar-style>
            </barline>
            <harmony relative-x="77" default-y="23">
                <root>
                    <root-step>G</root-step>
                </root>
                <kind use-symbols="no" text=" "> </kind>
            </harmony>
            <note default-x="13">
                <rest/>
                <duration>1920</duration>
                <type>whole</type>
            </note>
        </measure>
        <measure width="121" number="5">
            <attributes>
                <staff-details print-object="yes"/>
            </attributes>
            <barline location="left">
                <bar-style>regular</bar-style>
                <repeat direction="forward"/>
            </barline>
            <note default-x="13">
                <rest/>
                <duration>960</duration>
                <type>half</type>
            </note>
            <note default-x="64" release="-7" dynamics="75">
                <pitch>
                    <step>B</step>
                    <octave>4</octave>
                </pitch>
                <duration>960</duration>
                <type>half</type>
                <stem default-y="-50">down</stem>
                <lyric number="1">
                    <syllabic>single</syllabic>
                    <text>If </text>
                </lyric>
            </note>
        </measure>
        <measure width="138" number="6">
            <attributes>
                <staff-details print-object="yes"/>
            </attributes>
            <harmony default-y="23">
                <root>
                    <root-step>D</root-step>
                </root>
                <kind use-symbols="no" text=" "> </kind>
            </harmony>
            <note default-x="30" release="-7" dynamics="75">
                <pitch>
                    <step>A</step>
                    <octave>4</octave>
                </pitch>
                <duration>960</duration>
                <type>half</type>
                <stem default-y="10">up</stem>
                <lyric number="1">
                    <syllabic>single</syllabic>
                    <text>I </text>
                </lyric>
            </note>
            <harmony default-y="23">
                <root>
                    <root-step>G</root-step>
                </root>
                <kind use-symbols="no" text=" "> </kind>
            </harmony>
            <note default-x="81" release="-7" dynamics="75">
                <pitch>
                    <step>B</step>
                    <octave>4</octave>
                </pitch>
                <duration>960</duration>
                <type>half</type>
                <stem default-y="-50">down</stem>
                <lyric number="1">
                    <syllabic>single</syllabic>
                    <text>had </text>
                </lyric>
            </note>
        </measure>
        <measure width="218" number="7">
            <print new-system="yes">
                <system-layout>
                    <system-margins>
                        <left-margin>-5</left-margin>
                        <right-margin>0</right-margin>
                    </system-margins>
                    <system-distance>145</system-distance>
                </system-layout>
            </print>
            <attributes>
                <staff-details print-object="yes"/>
            </attributes>
            <harmony default-y="23">
                <root>
                    <root-step>E</root-step>
                </root>
                <kind use-symbols="no" text="min">min</kind>
            </harmony>
            <note default-x="102" release="-7" dynamics="75">
                <pitch>
                    <step>G</step>
                    <octave>4</octave>
                </pitch>
                <duration>960</duration>
                <type>half</type>
                <stem default-y="5">up</stem>
                <lyric number="1">
                    <syllabic>single</syllabic>
                    <text>words </text>
                </lyric>
            </note>
            <harmony default-y="23">
                <root>
                    <root-step>D</root-step>
                </root>
                <kind use-symbols="no" text=" "> </kind>
            </harmony>
            <note default-x="157" release="-7" dynamics="75">
                <pitch>
                    <step>A</step>
                    <octave>4</octave>
                </pitch>
                <duration>960</duration>
                <type>half</type>
                <stem default-y="10">up</stem>
                <lyric number="1">
                    <syllabic>single</syllabic>
                    <text>to </text>
                </lyric>
            </note>
        </measure>
        <measure width="158" number="8">
            <attributes>
                <staff-details print-object="yes"/>
            </attributes>
            <harmony default-y="23">
                <root>
                    <root-step>G</root-step>
                </root>
                <kind use-symbols="no" text=" "> </kind>
            </harmony>
            <note default-x="43" release="-7" dynamics="75">
                <pitch>
                    <step>B</step>
                    <octave>4</octave>
                </pitch>
                <duration>960</duration>
                <type>half</type>
                <stem default-y="-50">down</stem>
                <lyric number="1">
                    <syllabic>single</syllabic>
                    <text>make </text>
                </lyric>
            </note>
            <note default-x="97" release="-7" dynamics="75">
                <pitch>
                    <step>D</step>
                    <octave>5</octave>
                </pitch>
                <duration>960</duration>
                <type>half</type>
                <stem default-y="-45">down</stem>
                <lyric number="1">
                    <syllabic>single</syllabic>
                    <text>a </text>
                </lyric>
            </note>
        </measure>
        <measure width="191" number="9">
            <attributes>
                <staff-details print-object="yes"/>
            </attributes>
            <harmony default-y="23">
                <root>
                    <root-step>C</root-step>
                </root>
                <kind use-symbols="no" text=" "> </kind>
            </harmony>
            <note default-x="34" release="-1" dynamics="75">
                <pitch>
                    <step>E</step>
                    <octave>5</octave>
                </pitch>
                <duration>720</duration>
                <type>quarter</type>
                <dot/>
                <stem default-y="-40">down</stem>
                <lyric number="1">
                    <syllabic>single</syllabic>
                    <text>day </text>
                </lyric>
            </note>
            <note default-x="83" release="-7" dynamics="75">
                <pitch>
                    <step>D</step>
                    <octave>5</octave>
                </pitch>
                <duration>240</duration>
                <type>eighth</type>
                <stem default-y="-45">down</stem>
                <lyric number="1">
                    <syllabic>single</syllabic>
                    <text>for </text>
                </lyric>
            </note>
            <harmony default-y="23">
                <root>
                    <root-step>G</root-step>
                </root>
                <kind use-symbols="no" text=" "> </kind>
            </harmony>
            <note default-x="126" release="953" dynamics="75">
                <pitch>
                    <step>D</step>
                    <octave>5</octave>
                </pitch>
                <duration>960</duration>
                <type>half</type>
                <stem default-y="-45">down</stem>
                <lyric number="1">
                    <syllabic>single</syllabic>
                    <text>you </text>
                </lyric>
            </note>
        </measure>
        <measure width="103" number="10">
            <attributes>
                <staff-details print-object="yes"/>
            </attributes>
            <note default-x="13">
                <rest/>
                <duration>1920</duration>
                <type>whole</type>
            </note>
        </measure>
        <measure width="155" number="11">
            <attributes>
                <staff-details print-object="yes"/>
            </attributes>
            <note default-x="38" release="-7" dynamics="75">
                <pitch>
                    <step>D</step>
                    <octave>5</octave>
                </pitch>
                <duration>960</duration>
                <type>half</type>
                <stem default-y="-45">down</stem>
                <lyric number="1">
                    <syllabic>single</syllabic>
                    <text>I'd </text>
                </lyric>
            </note>
            <harmony default-y="23">
                <root>
                    <root-step>C</root-step>
                </root>
                <kind use-symbols="no" text=" "> </kind>
            </harmony>
            <note default-x="93" release="-7" dynamics="75">
                <pitch>
                    <step>E</step>
                    <octave>5</octave>
                </pitch>
                <duration>960</duration>
                <type>half</type>
                <stem default-y="-40">down</stem>
                <lyric number="1">
                    <syllabic>single</syllabic>
                    <text>sing </text>
                </lyric>
            </note>
        </measure>
        <measure width="202" number="12">
            <print new-system="yes">
                <system-layout>
                    <system-margins>
                        <left-margin>-5</left-margin>
                        <right-margin>0</right-margin>
                    </system-margins>
                    <system-distance>145</system-distance>
                </system-layout>
            </print>
            <attributes>
                <staff-details print-object="yes"/>
            </attributes>
            <harmony default-y="23">
                <root>
                    <root-step>A</root-step>
                </root>
                <kind use-symbols="no" text="min">min</kind>
            </harmony>
            <note default-x="99" release="-7" dynamics="75">
                <pitch>
                    <step>C</step>
                    <octave>5</octave>
                </pitch>
                <duration>960</duration>
                <type>half</type>
                <stem default-y="-50">down</stem>
                <lyric number="1">
                    <syllabic>single</syllabic>
                    <text>you </text>
                </lyric>
            </note>
            <harmony default-y="23">
                <root>
                    <root-step>E</root-step>
                </root>
                <kind use-symbols="no" text="7">7</kind>
            </harmony>
            <note default-x="153" release="-7" dynamics="75">
                <pitch>
                    <step>B</step>
                    <octave>4</octave>
                </pitch>
                <duration>960</duration>
                <type>half</type>
                <stem default-y="-50">down</stem>
                <lyric number="1">
                    <syllabic>single</syllabic>
                    <text>a </text>
                </lyric>
            </note>
        </measure>
        <measure width="176" number="13">
            <attributes>
                <staff-details print-object="yes"/>
            </attributes>
            <harmony default-y="23">
                <root>
                    <root-step>A</root-step>
                </root>
                <kind use-symbols="no" text="min">min</kind>
            </harmony>
            <note default-x="58" release="-7" dynamics="75">
                <pitch>
                    <step>C</step>
                    <octave>5</octave>
                </pitch>
                <duration>960</duration>
                <type>half</type>
                <stem default-y="-50">down</stem>
                <lyric number="1">
                    <syllabic>single</syllabic>
                    <text>morn   -    </text>
                </lyric>
            </note>
            <harmony default-y="23">
                <root>
                    <root-step>D</root-step>
                </root>
                <kind use-symbols="no" text="7">7</kind>
            </harmony>
            <note default-x="127" release="-7" dynamics="75">
                <pitch>
                    <step>A</step>
                    <octave>4</octave>
                </pitch>
                <duration>960</duration>
                <type>half</type>
                <stem default-y="10">up</stem>
                <lyric number="1">
                    <syllabic>single</syllabic>
                    <text>ing </text>
                </lyric>
            </note>
        </measure>
        <measure width="189" number="14">
            <attributes>
                <staff-details print-object="yes"/>
            </attributes>
            <harmony default-y="23">
                <root>
                    <root-step>G</root-step>
                </root>
                <kind use-symbols="no" text=" "> </kind>
            </harmony>
            <note default-x="45" release="-7" dynamics="75">
                <pitch>
                    <step>B</step>
                    <octave>4</octave>
                </pitch>
                <duration>480</duration>
                <type>quarter</type>
                <stem default-y="-50">down</stem>
                <lyric number="1">
                    <syllabic>single</syllabic>
                    <text>gold -  </text>
                </lyric>
            </note>
            <note default-x="96" release="-7" dynamics="75">
                <pitch>
                    <step>C</step>
                    <octave>5</octave>
                </pitch>
                <duration>480</duration>
                <type>quarter</type>
                <stem default-y="-50">down</stem>
                <lyric number="1">
                    <syllabic>single</syllabic>
                    <text>en </text>
                </lyric>
            </note>
            <note default-x="136" release="-7" dynamics="75">
                <pitch>
                    <step>D</step>
                    <octave>5</octave>
                </pitch>
                <duration>960</duration>
                <type>half</type>
                <stem default-y="-45">down</stem>
                <lyric number="1">
                    <syllabic>single</syllabic>
                    <text>and </text>
                </lyric>
            </note>
        </measure>
        <measure width="107" number="15">
            <attributes>
                <staff-details print-object="yes"/>
            </attributes>
            <harmony default-y="23">
                <root>
                    <root-step>D</root-step>
                </root>
                <kind use-symbols="no" text=" "> </kind>
            </harmony>
            <note default-x="35" release="-7" dynamics="75">
                <pitch>
                    <step>A</step>
                    <octave>4</octave>
                </pitch>
                <duration>1920</duration>
                <type>whole</type>
                <lyric number="1">
                    <syllabic>single</syllabic>
                    <text>new </text>
                </lyric>
            </note>
        </measure>
        <measure width="150" number="16">
            <attributes>
                <staff-details print-object="yes"/>
            </attributes>
            <harmony relative-x="65" default-y="23">
                <root>
                    <root-step>D</root-step>
                </root>
                <kind use-symbols="no" text="7">7</kind>
            </harmony>
            <note default-x="13">
                <rest/>
                <duration>1920</duration>
                <type>whole</type>
            </note>
        </measure>
        <measure width="190" number="17">
            <print new-system="yes">
                <system-layout>
                    <system-margins>
                        <left-margin>-5</left-margin>
                        <right-margin>0</right-margin>
                    </system-margins>
                    <system-distance>145</system-distance>
                </system-layout>
            </print>
            <attributes>
                <staff-details print-object="yes"/>
            </attributes>
            <harmony default-y="23">
                <root>
                    <root-step>G</root-step>
                </root>
                <kind use-symbols="no" text=" "> </kind>
            </harmony>
            <note default-x="85" release="-7" dynamics="75">
                <pitch>
                    <step>B</step>
                    <octave>4</octave>
                </pitch>
                <duration>960</duration>
                <type>half</type>
                <stem default-y="-50">down</stem>
                <lyric number="1">
                    <syllabic>single</syllabic>
                    <text>I</text>
                </lyric>
            </note>
            <harmony default-y="23">
                <root>
                    <root-step>D</root-step>
                </root>
                <kind use-symbols="no" text=" "> </kind>
            </harmony>
            <note default-x="135" release="-7" dynamics="75">
                <pitch>
                    <step>A</step>
                    <octave>4</octave>
                </pitch>
                <duration>960</duration>
                <type>half</type>
                <stem default-y="10">up</stem>
                <lyric number="1">
                    <syllabic>single</syllabic>
                    <text>would </text>
                </lyric>
            </note>
        </measure>
        <measure width="217" number="18">
            <attributes>
                <time>
                    <beats>3</beats>
                    <beat-type>2</beat-type>
                </time>
                <staff-details print-object="yes"/>
            </attributes>
            <harmony default-y="23">
                <root>
                    <root-step>G</root-step>
                </root>
                <kind use-symbols="no" text=" "> </kind>
            </harmony>
            <note default-x="57" release="-7" dynamics="75">
                <pitch>
                    <step>B</step>
                    <octave>4</octave>
                </pitch>
                <duration>960</duration>
                <type>half</type>
                <stem default-y="-50">down</stem>
                <lyric number="1">
                    <syllabic>single</syllabic>
                    <text>make </text>
                </lyric>
            </note>
            <harmony default-y="23">
                <root>
                    <root-step>E</root-step>
                </root>
                <kind use-symbols="no" text="min">min</kind>
            </harmony>
            <note default-x="111" release="-7" dynamics="75">
                <pitch>
                    <step>G</step>
                    <octave>4</octave>
                </pitch>
                <duration>960</duration>
                <type>half</type>
                <stem default-y="5">up</stem>
                <lyric number="1">
                    <syllabic>single</syllabic>
                    <text>this </text>
                </lyric>
            </note>
            <harmony default-y="23">
                <root>
                    <root-step>D</root-step>
                </root>
                <kind use-symbols="no" text=" "> </kind>
            </harmony>
            <note default-x="162" release="-7" dynamics="75">
                <pitch>
                    <step>A</step>
                    <octave>4</octave>
                </pitch>
                <duration>960</duration>
                <type>half</type>
                <stem default-y="10">up</stem>
                <lyric number="1">
                    <syllabic>single</syllabic>
                    <text>day </text>
                </lyric>
            </note>
        </measure>
        <measure width="198" number="19">
            <attributes>
                <time symbol="cut">
                    <beats>2</beats>
                    <beat-type>2</beat-type>
                </time>
                <staff-details print-object="yes"/>
            </attributes>
            <harmony default-y="23">
                <root>
                    <root-step>G</root-step>
                </root>
                <kind use-symbols="no" text=" "> </kind>
            </harmony>
            <note default-x="61" release="-7" dynamics="75">
                <pitch>
                    <step>B</step>
                    <octave>4</octave>
                </pitch>
                <duration>480</duration>
                <type>quarter</type>
                <stem default-y="-50">down</stem>
                <lyric number="1">
                    <syllabic>single</syllabic>
                    <text>last </text>
                </lyric>
            </note>
            <note default-x="102" release="-7" dynamics="75">
                <pitch>
                    <step>D</step>
                    <octave>5</octave>
                </pitch>
                <duration>480</duration>
                <type>quarter</type>
                <stem default-y="-45">down</stem>
                <lyric number="1">
                    <syllabic>single</syllabic>
                    <text>for </text>
                </lyric>
            </note>
            <harmony default-y="23">
                <root>
                    <root-step>C</root-step>
                </root>
                <kind use-symbols="no" text=" "> </kind>
            </harmony>
            <note default-x="138" release="-7" dynamics="75">
                <pitch>
                    <step>E</step>
                    <octave>5</octave>
                </pitch>
                <duration>960</duration>
                <type>half</type>
                <stem default-y="-40">down</stem>
                <lyric number="1">
                    <syllabic>single</syllabic>
                    <text>all </text>
                </lyric>
            </note>
        </measure>
        <measure width="118" number="20">
            <attributes>
                <staff-details print-object="yes"/>
            </attributes>
            <harmony default-y="23">
                <root>
                    <root-step>B</root-step>
                </root>
                <kind use-symbols="no" text=" "> </kind>
            </harmony>
            <note default-x="36" release="-7" dynamics="75">
                <pitch>
                    <step>D</step>
                    <alter>1</alter>
                    <octave>5</octave>
                </pitch>
                <duration>1920</duration>
                <tie type="start"/>
                <type>whole</type>
                <accidental>sharp</accidental>
                <notations>
                    <tied orientation="over" type="start"/>
                </notations>
                <lyric number="1">
                    <syllabic>single</syllabic>
                    <text>time </text>
                </lyric>
            </note>
        </measure>
        <measure width="102" number="21">
            <attributes>
                <staff-details print-object="yes"/>
            </attributes>
            <note default-x="19">
                <pitch>
                    <step>D</step>
                    <alter>1</alter>
                    <octave>5</octave>
                </pitch>
                <duration>1920</duration>
                <tie type="stop"/>
                <type>whole</type>
                <notations>
                    <tied type="stop"/>
                </notations>
            </note>
        </measure>
        <measure width="193" number="22">
            <print new-system="yes">
                <system-layout>
                    <system-margins>
                        <left-margin>-5</left-margin>
                        <right-margin>0</right-margin>
                    </system-margins>
                    <system-distance>145</system-distance>
                </system-layout>
            </print>
            <attributes>
                <staff-details print-object="yes"/>
            </attributes>
            <harmony default-y="23">
                <root>
                    <root-step>C</root-step>
                </root>
                <kind use-symbols="no" text=" "> </kind>
            </harmony>
            <note default-x="90" release="-7" dynamics="75">
                <pitch>
                    <step>E</step>
                    <octave>5</octave>
                </pitch>
                <duration>960</duration>
                <type>half</type>
                <stem default-y="-40">down</stem>
                <lyric number="1">
                    <syllabic>single</syllabic>
                    <text>give </text>
                </lyric>
            </note>
            <harmony default-y="23">
                <root>
                    <root-step>A</root-step>
                </root>
                <kind use-symbols="no" text="min">min</kind>
            </harmony>
            <note default-x="140" release="-7" dynamics="75">
                <pitch>
                    <step>C</step>
                    <octave>5</octave>
                </pitch>
                <duration>960</duration>
                <type>half</type>
                <stem default-y="-50">down</stem>
                <lyric number="1">
                    <syllabic>single</syllabic>
                    <text>you </text>
                </lyric>
            </note>
        </measure>
        <measure width="246" number="23">
            <attributes>
                <time>
                    <beats>3</beats>
                    <beat-type>2</beat-type>
                </time>
                <staff-details print-object="yes"/>
            </attributes>
            <harmony default-y="23">
                <root>
                    <root-step>E</root-step>
                </root>
                <kind use-symbols="no" text="7">7</kind>
            </harmony>
            <note default-x="48" release="-7" dynamics="75">
                <pitch>
                    <step>B</step>
                    <octave>4</octave>
                </pitch>
                <duration>960</duration>
                <type>half</type>
                <stem default-y="-50">down</stem>
                <lyric number="1">
                    <syllabic>single</syllabic>
                    <text>a </text>
                </lyric>
            </note>
            <harmony default-y="23">
                <root>
                    <root-step>A</root-step>
                </root>
                <kind use-symbols="no" text="min">min</kind>
            </harmony>
            <note default-x="104" release="-7" dynamics="75">
                <pitch>
                    <step>C</step>
                    <octave>5</octave>
                </pitch>
                <duration>960</duration>
                <type>half</type>
                <stem default-y="-50">down</stem>
                <lyric number="1">
                    <syllabic>single</syllabic>
                    <text>night </text>
                </lyric>
            </note>
            <note default-x="163" release="-7" dynamics="75">
                <pitch>
                    <step>A</step>
                    <octave>4</octave>
                </pitch>
                <duration>480</duration>
                <type>quarter</type>
                <stem default-y="10">up</stem>
                <lyric number="1">
                    <syllabic>single</syllabic>
                    <text>deep </text>
                </lyric>
            </note>
            <note default-x="206" release="-7" dynamics="75">
                <pitch>
                    <step>C</step>
                    <octave>5</octave>
                </pitch>
                <duration>480</duration>
                <type>quarter</type>
                <stem default-y="-50">down</stem>
                <lyric number="1">
                    <syllabic>single</syllabic>
                    <text>in </text>
                </lyric>
            </note>
        </measure>
        <measure width="163" number="24">
            <attributes>
                <time symbol="cut">
                    <beats>2</beats>
                    <beat-type>2</beat-type>
                </time>
                <staff-details print-object="yes"/>
            </attributes>
            <harmony default-y="23">
                <root>
                    <root-step>G</root-step>
                </root>
                <kind use-symbols="no" text=" "> </kind>
            </harmony>
            <note default-x="60" release="-7" dynamics="75">
                <pitch>
                    <step>B</step>
                    <octave>4</octave>
                </pitch>
                <duration>960</duration>
                <type>half</type>
                <stem default-y="-50">down</stem>
                <lyric number="1">
                    <syllabic>single</syllabic>
                    <text>moon </text>
                </lyric>
            </note>
            <harmony default-y="23">
                <root>
                    <root-step>D</root-step>
                </root>
                <kind use-symbols="no" text="7">7</kind>
            </harmony>
            <note default-x="107" release="-7" dynamics="75">
                <pitch>
                    <step>A</step>
                    <octave>4</octave>
                </pitch>
                <duration>960</duration>
                <type>half</type>
                <stem default-y="10">up</stem>
            </note>
        </measure>
        <measure width="119" number="25">
            <attributes>
                <staff-details print-object="yes"/>
            </attributes>
            <harmony default-y="23">
                <root>
                    <root-step>G</root-step>
                </root>
                <kind use-symbols="no" text=" "> </kind>
            </harmony>
            <note default-x="42" release="-7" dynamics="75">
                <pitch>
                    <step>G</step>
                    <octave>4</octave>
                </pitch>
                <duration>1920</duration>
                <type>whole</type>
                <lyric number="1">
                    <syllabic>single</syllabic>
                    <text>shine </text>
                </lyric>
            </note>
        </measure>
        <measure width="104" number="26">
            <attributes>
                <staff-details print-object="yes"/>
            </attributes>
            <barline location="right">
                <bar-style>light-heavy</bar-style>
                <repeat direction="backward"/>
            </barline>
            <note default-x="13">
                <rest/>
                <duration>1920</duration>
                <type>whole</type>
            </note>
        </measure>
        <measure width="192" number="27">
            <print new-system="yes">
                <system-layout>
                    <system-margins>
                        <left-margin>-5</left-margin>
                        <right-margin>0</right-margin>
                    </system-margins>
                    <system-distance>145</system-distance>
                </system-layout>
            </print>
            <attributes>
                <staff-details print-object="yes"/>
            </attributes>
            <harmony default-y="23">
                <root>
                    <root-step>G</root-step>
                </root>
                <kind use-symbols="no" text=" "> </kind>
            </harmony>
            <note default-x="97" release="-7" dynamics="75">
                <pitch>
                    <step>G</step>
                    <octave>4</octave>
                </pitch>
                <duration>1920</duration>
                <type>whole</type>
                <lyric number="1">
                    <syllabic>single</syllabic>
                    <text>shine </text>
                </lyric>
            </note>
        </measure>
        <measure width="119" number="28">
            <attributes>
                <staff-details print-object="yes"/>
            </attributes>
            <note default-x="23">
                <rest/>
                <duration>1920</duration>
                <type>whole</type>
            </note>
        </measure>
        <measure width="112" number="29">
            <attributes>
                <staff-details print-object="yes"/>
            </attributes>
            <note default-x="13">
                <rest/>
                <duration>1920</duration>
                <type>whole</type>
            </note>
        </measure>
        <measure width="114" number="30">
            <attributes>
                <staff-details print-object="yes"/>
            </attributes>
            <barline location="right">
                <bar-style>light-heavy</bar-style>
            </barline>
            <note default-x="13">
                <rest/>
                <duration>1920</duration>
                <type>whole</type>
            </note>
        </measure>
    </part>
</score-partwise>
