<?xml version="1.0" encoding="UTF-8"?>
<!DOCTYPE score-partwise PUBLIC "-//Recordare//DTD MusicXML 2.0 Partwise//EN" "http://www.musicxml.org/dtds/partwise.dtd">
<score-partwise version="2.0">
    <work>
        <work-number></work-number>
        <work-title></work-title>
    </work>
    <movement-number></movement-number>
    <movement-title>When The Rain Tumbles Down In July</movement-title>
    <identification>
        <creator type="composer">Joy McKean</creator>
        <creator type="poet">Joy McKean </creator>
        <rights>All Rights Reserved</rights>
        <encoding>
            <software>Notation Composer 2, 6, 1, 0</software>
            <software>ProxyMusic 2.0 c</software>
        </encoding>
        <source>http://wikifonia.org/node/6800/revisions/9406/view</source>
    </identification>
    <defaults>
        <scaling>
            <millimeters>8.64</millimeters>
            <tenths>40</tenths>
        </scaling>
        <page-layout>
            <page-height>1293</page-height>
            <page-width>999</page-width>
            <page-margins type="both">
                <left-margin>59</left-margin>
                <right-margin>59</right-margin>
                <top-margin>88</top-margin>
                <bottom-margin>59</bottom-margin>
            </page-margins>
        </page-layout>
        <music-font font-size="12" font-family="Harmony"/>
        <word-font font-size="12" font-family="Times New Roman"/>
        <lyric-font font-size="12" font-family="Arial"/>
    </defaults>
    <credit>
        <credit-words font-weight="bold" font-size="18" font-family="Times New Roman" default-y="1197" default-x="246" valign="top">When the rain tumbles down in July</credit-words>
    </credit>
    <part-list>
        <score-part id="T96358696">
            <part-name>Melody</part-name>
            <part-abbreviation>Melody</part-abbreviation>
            <score-instrument id="IT96358696">
                <instrument-name>Melody</instrument-name>
            </score-instrument>
            <midi-instrument id="IT96358696">
                <midi-channel>5</midi-channel>
                <midi-bank>0</midi-bank>
                <midi-program>25</midi-program>
            </midi-instrument>
        </score-part>
    </part-list>
    <part id="T96358696">
        <measure width="287" number="1">
            <print>
                <system-layout>
                    <system-margins>
                        <left-margin>-19</left-margin>
                        <right-margin>0</right-margin>
                    </system-margins>
                    <top-system-distance>129</top-system-distance>
                </system-layout>
            </print>
            <attributes>
                <divisions>480</divisions>
                <key>
                    <fifths>2</fifths>
                </key>
                <time>
                    <beats>4</beats>
                    <beat-type>4</beat-type>
                </time>
                <clef>
                    <sign>G</sign>
                    <line>2</line>
                </clef>
                <staff-details print-object="yes"/>
            </attributes>
            <barline location="left">
                <bar-style>regular</bar-style>
                <repeat direction="forward"/>
            </barline>
            <harmony default-y="23">
                <root>
                    <root-step>D</root-step>
                </root>
                <kind use-symbols="no" text=" "> </kind>
            </harmony>
            <note default-x="143">
                <rest/>
                <duration>960</duration>
                <type>half</type>
            </note>
            <note default-x="198" release="-7" dynamics="75">
                <pitch>
                    <step>D</step>
                    <octave>4</octave>
                </pitch>
                <duration>480</duration>
                <type>quarter</type>
                <stem default-y="-10">up</stem>
                <lyric number="1">
                    <syllabic>single</syllabic>
                    <text>Let</text>
                </lyric>
            </note>
            <note default-x="240" release="-7" dynamics="75">
                <pitch>
                    <step>E</step>
                    <octave>4</octave>
                </pitch>
                <duration>480</duration>
                <type>quarter</type>
                <stem default-y="-5">up</stem>
                <lyric number="1">
                    <syllabic>single</syllabic>
                    <text>me</text>
                </lyric>
            </note>
        </measure>
        <measure width="164" number="2">
            <attributes>
                <staff-details print-object="yes"/>
            </attributes>
            <harmony default-y="23">
                <root>
                    <root-step>D</root-step>
                </root>
                <kind use-symbols="no" text=" "> </kind>
            </harmony>
            <note default-x="46" release="-7" dynamics="75">
                <pitch>
                    <step>F</step>
                    <alter>1</alter>
                    <octave>4</octave>
                </pitch>
                <duration>960</duration>
                <type>half</type>
                <stem default-y="0">up</stem>
                <lyric number="1">
                    <syllabic>single</syllabic>
                    <text>wan -  </text>
                </lyric>
            </note>
            <note default-x="102" release="-7" dynamics="75">
                <pitch>
                    <step>A</step>
                    <octave>4</octave>
                </pitch>
                <duration>960</duration>
                <type>half</type>
                <stem default-y="10">up</stem>
                <lyric number="1">
                    <syllabic>single</syllabic>
                    <text>der</text>
                </lyric>
            </note>
        </measure>
        <measure width="183" number="3">
            <attributes>
                <staff-details print-object="yes"/>
            </attributes>
            <harmony default-y="23">
                <root>
                    <root-step>A</root-step>
                </root>
                <kind use-symbols="no" text="7">7</kind>
            </harmony>
            <note default-x="42" release="-7" dynamics="75">
                <pitch>
                    <step>A</step>
                    <octave>4</octave>
                </pitch>
                <duration>960</duration>
                <type>half</type>
                <stem default-y="10">up</stem>
                <lyric number="1">
                    <syllabic>single</syllabic>
                    <text>North</text>
                </lyric>
            </note>
            <note default-x="97" release="-7" dynamics="75">
                <pitch>
                    <step>B</step>
                    <octave>4</octave>
                </pitch>
                <duration>720</duration>
                <type>quarter</type>
                <dot/>
                <stem default-y="-50">down</stem>
                <lyric number="1">
                    <syllabic>single</syllabic>
                    <text>to</text>
                </lyric>
            </note>
            <note default-x="147" release="-7" dynamics="75">
                <pitch>
                    <step>A</step>
                    <octave>4</octave>
                </pitch>
                <duration>240</duration>
                <type>eighth</type>
                <stem default-y="10">up</stem>
                <lyric number="1">
                    <syllabic>single</syllabic>
                    <text>the</text>
                </lyric>
            </note>
        </measure>
        <measure width="205" number="4">
            <attributes>
                <staff-details print-object="yes"/>
            </attributes>
            <harmony default-y="23">
                <root>
                    <root-step>D</root-step>
                </root>
                <kind use-symbols="no" text=" "> </kind>
            </harmony>
            <note default-x="50" release="-7" dynamics="75">
                <pitch>
                    <step>F</step>
                    <alter>1</alter>
                    <octave>4</octave>
                </pitch>
                <duration>240</duration>
                <type>eighth</type>
                <stem default-y="0">up</stem>
                <beam number="1">begin</beam>
                <lyric number="1">
                    <syllabic>single</syllabic>
                    <text>home - </text>
                </lyric>
            </note>
            <note default-x="92" release="-7" dynamics="75">
                <pitch>
                    <step>E</step>
                    <octave>4</octave>
                </pitch>
                <duration>240</duration>
                <type>eighth</type>
                <stem default-y="-5">up</stem>
                <beam number="1">continue</beam>
            </note>
            <note default-x="125" release="-7" dynamics="75">
                <pitch>
                    <step>D</step>
                    <octave>4</octave>
                </pitch>
                <duration>1440</duration>
                <type>half</type>
                <dot/>
                <stem default-y="-10">up</stem>
                <lyric number="1">
                    <syllabic>single</syllabic>
                    <text>stead,/</text>
                </lyric>
            </note>
        </measure>
        <measure width="200" number="5">
            <print new-system="yes">
                <system-layout>
                    <system-margins>
                        <left-margin>-19</left-margin>
                        <right-margin>0</right-margin>
                    </system-margins>
                    <system-distance>111</system-distance>
                </system-layout>
            </print>
            <attributes>
                <staff-details print-object="yes"/>
            </attributes>
            <note default-x="79">
                <rest/>
                <duration>960</duration>
                <type>half</type>
            </note>
            <note default-x="126">
                <rest/>
                <duration>480</duration>
                <type>quarter</type>
            </note>
            <note default-x="160" release="-7" dynamics="75">
                <pitch>
                    <step>D</step>
                    <octave>5</octave>
                </pitch>
                <duration>480</duration>
                <type>quarter</type>
                <stem default-y="-45">down</stem>
                <lyric number="1">
                    <syllabic>single</syllabic>
                    <text>Way</text>
                </lyric>
            </note>
        </measure>
        <measure width="168" number="6">
            <attributes>
                <staff-details print-object="yes"/>
            </attributes>
            <harmony default-y="23">
                <root>
                    <root-step>G</root-step>
                </root>
                <kind use-symbols="no" text=" "> </kind>
            </harmony>
            <note default-x="34" release="-7" dynamics="75">
                <pitch>
                    <step>D</step>
                    <octave>5</octave>
                </pitch>
                <duration>960</duration>
                <type>half</type>
                <stem default-y="-45">down</stem>
                <lyric number="1">
                    <syllabic>single</syllabic>
                    <text>out,/</text>
                </lyric>
            </note>
            <note default-x="82" release="-7" dynamics="75">
                <pitch>
                    <step>C</step>
                    <alter>1</alter>
                    <octave>5</octave>
                </pitch>
                <duration>480</duration>
                <type>quarter</type>
                <stem default-y="-50">down</stem>
                <lyric number="1">
                    <syllabic>single</syllabic>
                    <text>fur - </text>
                </lyric>
            </note>
            <note default-x="128" release="-7" dynamics="75">
                <pitch>
                    <step>D</step>
                    <octave>5</octave>
                </pitch>
                <duration>480</duration>
                <type>quarter</type>
                <stem default-y="-45">down</stem>
                <lyric number="1">
                    <syllabic>single</syllabic>
                    <text>ther</text>
                </lyric>
            </note>
        </measure>
        <measure width="173" number="7">
            <attributes>
                <staff-details print-object="yes"/>
            </attributes>
            <harmony default-y="23">
                <root>
                    <root-step>G</root-step>
                </root>
                <kind use-symbols="no" text=" "> </kind>
            </harmony>
            <note default-x="31" release="-7" dynamics="75">
                <pitch>
                    <step>E</step>
                    <octave>5</octave>
                </pitch>
                <duration>960</duration>
                <type>half</type>
                <stem default-y="-40">down</stem>
                <lyric number="1">
                    <syllabic>single</syllabic>
                    <text>on,/</text>
                </lyric>
            </note>
            <note default-x="79" release="-7" dynamics="75">
                <pitch>
                    <step>D</step>
                    <octave>5</octave>
                </pitch>
                <duration>240</duration>
                <type>eighth</type>
                <stem default-y="-45">down</stem>
                <beam number="1">begin</beam>
                <lyric number="1">
                    <syllabic>single</syllabic>
                    <text>there</text>
                </lyric>
            </note>
            <note default-x="109" release="-7" dynamics="75">
                <pitch>
                    <step>C</step>
                    <alter>1</alter>
                    <octave>5</octave>
                </pitch>
                <duration>240</duration>
                <type>eighth</type>
                <stem default-y="-50">down</stem>
                <beam number="1">continue</beam>
            </note>
            <note default-x="133" release="-7" dynamics="75">
                <pitch>
                    <step>B</step>
                    <octave>4</octave>
                </pitch>
                <duration>480</duration>
                <type>quarter</type>
                <stem default-y="-50">down</stem>
                <lyric number="1">
                    <syllabic>single</syllabic>
                    <text>to</text>
                </lyric>
            </note>
        </measure>
        <measure width="120" number="8">
            <attributes>
                <staff-details print-object="yes"/>
            </attributes>
            <harmony default-y="23">
                <root>
                    <root-step>D</root-step>
                </root>
                <kind use-symbols="no" text=" "> </kind>
            </harmony>
            <note default-x="43" release="-7" dynamics="75">
                <pitch>
                    <step>A</step>
                    <octave>4</octave>
                </pitch>
                <duration>1920</duration>
                <tie type="start"/>
                <type>whole</type>
                <notations>
                    <tied orientation="under" type="start"/>
                </notations>
                <lyric number="1">
                    <syllabic>single</syllabic>
                    <text>roam,/</text>
                </lyric>
            </note>
        </measure>
        <measure width="176" number="9">
            <attributes>
                <staff-details print-object="yes"/>
            </attributes>
            <note default-x="28">
                <pitch>
                    <step>A</step>
                    <octave>4</octave>
                </pitch>
                <duration>480</duration>
                <tie type="stop"/>
                <type>quarter</type>
                <stem default-y="10">up</stem>
                <notations>
                    <tied type="stop"/>
                </notations>
            </note>
            <note default-x="62">
                <rest/>
                <duration>480</duration>
                <type>quarter</type>
            </note>
            <note default-x="97" release="-7" dynamics="75">
                <pitch>
                    <step>B</step>
                    <octave>4</octave>
                </pitch>
                <duration>480</duration>
                <type>quarter</type>
                <stem default-y="-50">down</stem>
                <lyric number="1">
                    <syllabic>single</syllabic>
                    <text>By</text>
                </lyric>
            </note>
            <note default-x="131" release="-7" dynamics="75">
                <pitch>
                    <step>C</step>
                    <alter>1</alter>
                    <octave>5</octave>
                </pitch>
                <duration>480</duration>
                <type>quarter</type>
                <stem default-y="-50">down</stem>
                <lyric number="1">
                    <syllabic>single</syllabic>
                    <text>a</text>
                </lyric>
            </note>
        </measure>
        <measure width="263" number="10">
            <print new-system="yes">
                <system-layout>
                    <system-margins>
                        <left-margin>-19</left-margin>
                        <right-margin>0</right-margin>
                    </system-margins>
                    <system-distance>111</system-distance>
                </system-layout>
            </print>
            <attributes>
                <staff-details print-object="yes"/>
            </attributes>
            <harmony default-y="23">
                <root>
                    <root-step>G</root-step>
                </root>
                <kind use-symbols="no" text=" "> </kind>
            </harmony>
            <note default-x="109" release="-7" dynamics="75">
                <pitch>
                    <step>D</step>
                    <octave>5</octave>
                </pitch>
                <duration>480</duration>
                <type>quarter</type>
                <stem default-y="-45">down</stem>
                <lyric number="1">
                    <syllabic>single</syllabic>
                    <text>gul - </text>
                </lyric>
            </note>
            <note default-x="152" release="-7" dynamics="75">
                <pitch>
                    <step>C</step>
                    <alter>1</alter>
                    <octave>5</octave>
                </pitch>
                <duration>960</duration>
                <type>half</type>
                <stem default-y="-50">down</stem>
                <lyric number="1">
                    <syllabic>single</syllabic>
                    <text>ly</text>
                </lyric>
            </note>
            <note default-x="210" release="-7" dynamics="75">
                <pitch>
                    <step>D</step>
                    <octave>5</octave>
                </pitch>
                <duration>480</duration>
                <type>quarter</type>
                <stem default-y="-45">down</stem>
                <lyric number="1">
                    <syllabic>single</syllabic>
                    <text>in</text>
                </lyric>
            </note>
        </measure>
        <measure width="220" number="11">
            <attributes>
                <staff-details print-object="yes"/>
            </attributes>
            <note default-x="39" release="-7" dynamics="75">
                <pitch>
                    <step>E</step>
                    <octave>5</octave>
                </pitch>
                <duration>480</duration>
                <type>quarter</type>
                <stem default-y="-40">down</stem>
                <lyric number="1">
                    <syllabic>single</syllabic>
                    <text>flood</text>
                </lyric>
            </note>
            <note default-x="82">
                <rest/>
                <duration>480</duration>
                <type>quarter</type>
            </note>
            <note default-x="124" release="-7" dynamics="75">
                <pitch>
                    <step>D</step>
                    <octave>5</octave>
                </pitch>
                <duration>480</duration>
                <type>quarter</type>
                <stem default-y="-45">down</stem>
                <lyric number="1">
                    <syllabic>single</syllabic>
                    <text>let</text>
                </lyric>
            </note>
            <note default-x="167" release="-7" dynamics="75">
                <pitch>
                    <step>B</step>
                    <octave>4</octave>
                </pitch>
                <duration>480</duration>
                <type>quarter</type>
                <stem default-y="-50">down</stem>
                <lyric number="1">
                    <syllabic>single</syllabic>
                    <text>me</text>
                </lyric>
            </note>
        </measure>
        <measure width="179" number="12">
            <attributes>
                <staff-details print-object="yes"/>
            </attributes>
            <harmony default-y="23">
                <root>
                    <root-step>D</root-step>
                </root>
                <kind use-symbols="no" text=" "> </kind>
            </harmony>
            <note default-x="34" release="-7" dynamics="75">
                <pitch>
                    <step>B</step>
                    <octave>4</octave>
                </pitch>
                <duration>240</duration>
                <type>eighth</type>
                <stem default-y="15">up</stem>
                <beam number="1">begin</beam>
                <lyric number="1">
                    <syllabic>single</syllabic>
                    <text>lin - </text>
                </lyric>
            </note>
            <note default-x="64" release="-7" dynamics="75">
                <pitch>
                    <step>A</step>
                    <octave>4</octave>
                </pitch>
                <duration>240</duration>
                <type>eighth</type>
                <stem default-y="10">up</stem>
                <beam number="1">continue</beam>
            </note>
            <note default-x="95" release="-7" dynamics="75">
                <pitch>
                    <step>F</step>
                    <alter>1</alter>
                    <octave>4</octave>
                </pitch>
                <duration>1440</duration>
                <type>half</type>
                <dot/>
                <stem default-y="0">up</stem>
                <lyric number="1">
                    <syllabic>single</syllabic>
                    <text>ger,/</text>
                </lyric>
            </note>
        </measure>
        <measure width="176" number="13">
            <attributes>
                <staff-details print-object="yes"/>
            </attributes>
            <note default-x="13">
                <rest/>
                <duration>960</duration>
                <type>half</type>
            </note>
            <note default-x="72" release="-7" dynamics="75">
                <pitch>
                    <step>D</step>
                    <octave>4</octave>
                </pitch>
                <duration>480</duration>
                <type>quarter</type>
                <stem default-y="-10">up</stem>
                <lyric number="1">
                    <syllabic>single</syllabic>
                    <text>When</text>
                </lyric>
            </note>
            <note default-x="121" release="-7" dynamics="75">
                <pitch>
                    <step>E</step>
                    <octave>4</octave>
                </pitch>
                <duration>480</duration>
                <type>quarter</type>
                <stem default-y="-5">up</stem>
                <lyric number="1">
                    <syllabic>single</syllabic>
                    <text>the</text>
                </lyric>
            </note>
        </measure>
        <measure width="275" number="14">
            <print new-system="yes">
                <system-layout>
                    <system-margins>
                        <left-margin>-19</left-margin>
                        <right-margin>0</right-margin>
                    </system-margins>
                    <system-distance>111</system-distance>
                </system-layout>
            </print>
            <attributes>
                <staff-details print-object="yes"/>
            </attributes>
            <harmony default-y="23">
                <root>
                    <root-step>D</root-step>
                </root>
                <kind use-symbols="no" text=" "> </kind>
            </harmony>
            <note default-x="118" release="-7" dynamics="75">
                <pitch>
                    <step>F</step>
                    <alter>1</alter>
                    <octave>4</octave>
                </pitch>
                <duration>960</duration>
                <type>half</type>
                <stem default-y="0">up</stem>
                <lyric number="1">
                    <syllabic>single</syllabic>
                    <text>sum - </text>
                </lyric>
            </note>
            <note default-x="182" release="-7" dynamics="75">
                <pitch>
                    <step>A</step>
                    <octave>4</octave>
                </pitch>
                <duration>480</duration>
                <type>quarter</type>
                <stem default-y="10">up</stem>
                <lyric number="1">
                    <syllabic>single</syllabic>
                    <text>mer - </text>
                </lyric>
            </note>
            <note default-x="223" release="-7" dynamics="75">
                <pitch>
                    <step>A</step>
                    <octave>4</octave>
                </pitch>
                <duration>480</duration>
                <type>quarter</type>
                <stem default-y="10">up</stem>
                <lyric number="1">
                    <syllabic>single</syllabic>
                    <text>y</text>
                </lyric>
            </note>
        </measure>
        <measure width="212" number="15">
            <attributes>
                <staff-details print-object="yes"/>
            </attributes>
            <harmony default-y="23">
                <root>
                    <root-step>D</root-step>
                </root>
                <kind use-symbols="no" text=" "> </kind>
            </harmony>
            <note default-x="42" release="-7" dynamics="75">
                <pitch>
                    <step>B</step>
                    <octave>4</octave>
                </pitch>
                <duration>480</duration>
                <type>quarter</type>
                <stem default-y="-50">down</stem>
                <lyric number="1">
                    <syllabic>single</syllabic>
                    <text>sun - </text>
                </lyric>
            </note>
            <note default-x="103" release="-7" dynamics="75">
                <pitch>
                    <step>A</step>
                    <octave>4</octave>
                </pitch>
                <duration>960</duration>
                <type>half</type>
                <stem default-y="10">up</stem>
                <lyric number="1">
                    <syllabic>single</syllabic>
                    <text>shine</text>
                </lyric>
            </note>
            <note default-x="159" release="-7" dynamics="75">
                <pitch>
                    <step>B</step>
                    <octave>4</octave>
                </pitch>
                <duration>480</duration>
                <type>quarter</type>
                <stem default-y="-50">down</stem>
                <lyric number="1">
                    <syllabic>single</syllabic>
                    <text>has</text>
                </lyric>
            </note>
        </measure>
        <measure width="140" number="16">
            <attributes>
                <staff-details print-object="yes"/>
            </attributes>
            <harmony default-y="23">
                <root>
                    <root-step>A</root-step>
                </root>
                <kind use-symbols="no" text="7">7</kind>
            </harmony>
            <note default-x="47" release="-7" dynamics="75">
                <pitch>
                    <step>E</step>
                    <octave>4</octave>
                </pitch>
                <duration>1920</duration>
                <type>whole</type>
                <lyric number="1">
                    <syllabic>single</syllabic>
                    <text>flown,/</text>
                </lyric>
            </note>
        </measure>
        <measure width="212" number="17">
            <attributes>
                <staff-details print-object="yes"/>
            </attributes>
            <harmony default-y="23">
                <root>
                    <root-step>A</root-step>
                </root>
                <kind use-symbols="no" text="7">7</kind>
            </harmony>
            <note default-x="47">
                <rest/>
                <duration>960</duration>
                <type>half</type>
            </note>
            <note default-x="103" release="-7" dynamics="75">
                <pitch>
                    <step>D</step>
                    <octave>4</octave>
                </pitch>
                <duration>480</duration>
                <type>quarter</type>
                <stem default-y="-10">up</stem>
                <lyric number="1">
                    <syllabic>single</syllabic>
                    <text>where</text>
                </lyric>
            </note>
            <note default-x="156" release="-7" dynamics="75">
                <pitch>
                    <step>E</step>
                    <octave>4</octave>
                </pitch>
                <duration>480</duration>
                <type>quarter</type>
                <stem default-y="-5">up</stem>
                <lyric number="1">
                    <syllabic>single</syllabic>
                    <text>the</text>
                </lyric>
            </note>
        </measure>
        <measure width="264" number="18">
            <print new-system="yes">
                <system-layout>
                    <system-margins>
                        <left-margin>-19</left-margin>
                        <right-margin>0</right-margin>
                    </system-margins>
                    <system-distance>111</system-distance>
                </system-layout>
            </print>
            <attributes>
                <staff-details print-object="yes"/>
            </attributes>
            <harmony default-y="23">
                <root>
                    <root-step>D</root-step>
                </root>
                <kind use-symbols="no" text=" "> </kind>
            </harmony>
            <note default-x="110" release="-1" dynamics="75">
                <pitch>
                    <step>F</step>
                    <alter>1</alter>
                    <octave>4</octave>
                </pitch>
                <duration>960</duration>
                <type>half</type>
                <stem default-y="0">up</stem>
                <lyric number="1">
                    <syllabic>single</syllabic>
                    <text>logs</text>
                </lyric>
            </note>
            <note default-x="169" release="-7" dynamics="75">
                <pitch>
                    <step>A</step>
                    <octave>4</octave>
                </pitch>
                <duration>720</duration>
                <type>quarter</type>
                <dot/>
                <stem default-y="10">up</stem>
                <lyric number="1">
                    <syllabic>single</syllabic>
                    <text>tang - </text>
                </lyric>
            </note>
            <note default-x="221" release="-7" dynamics="75">
                <pitch>
                    <step>A</step>
                    <octave>4</octave>
                </pitch>
                <duration>240</duration>
                <type>eighth</type>
                <stem default-y="10">up</stem>
                <lyric number="1">
                    <syllabic>single</syllabic>
                    <text>gle</text>
                </lyric>
            </note>
        </measure>
        <measure width="192" number="19">
            <attributes>
                <staff-details print-object="yes"/>
            </attributes>
            <harmony default-y="23">
                <root>
                    <root-step>A</root-step>
                </root>
                <kind use-symbols="no" text="7">7</kind>
            </harmony>
            <note default-x="37" release="-7" dynamics="75">
                <pitch>
                    <step>A</step>
                    <octave>4</octave>
                </pitch>
                <duration>960</duration>
                <type>half</type>
                <stem default-y="10">up</stem>
                <lyric number="1">
                    <syllabic>single</syllabic>
                    <text>up</text>
                </lyric>
            </note>
            <note default-x="95" release="-7" dynamics="75">
                <pitch>
                    <step>B</step>
                    <octave>4</octave>
                </pitch>
                <duration>480</duration>
                <type>quarter</type>
                <stem default-y="-50">down</stem>
                <lyric number="1">
                    <syllabic>single</syllabic>
                    <text>on</text>
                </lyric>
            </note>
            <note default-x="138" release="-7" dynamics="75">
                <pitch>
                    <step>A</step>
                    <octave>4</octave>
                </pitch>
                <duration>480</duration>
                <type>quarter</type>
                <stem default-y="10">up</stem>
                <lyric number="1">
                    <syllabic>single</syllabic>
                    <text>the</text>
                </lyric>
            </note>
        </measure>
        <measure width="209" number="20">
            <attributes>
                <staff-details print-object="yes"/>
            </attributes>
            <harmony default-y="23">
                <root>
                    <root-step>D</root-step>
                </root>
                <kind use-symbols="no" text=" "> </kind>
            </harmony>
            <note default-x="51" release="-7" dynamics="75">
                <pitch>
                    <step>F</step>
                    <alter>1</alter>
                    <octave>4</octave>
                </pitch>
                <duration>240</duration>
                <type>eighth</type>
                <stem default-y="0">up</stem>
                <beam number="1">begin</beam>
                <lyric number="1">
                    <syllabic>single</syllabic>
                    <text>creek - </text>
                </lyric>
            </note>
            <note default-x="93" release="-7" dynamics="75">
                <pitch>
                    <step>E</step>
                    <octave>4</octave>
                </pitch>
                <duration>240</duration>
                <type>eighth</type>
                <stem default-y="-5">up</stem>
                <beam number="1">continue</beam>
            </note>
            <note default-x="124" release="-7" dynamics="75">
                <pitch>
                    <step>D</step>
                    <octave>4</octave>
                </pitch>
                <duration>1440</duration>
                <type>half</type>
                <dot/>
                <stem default-y="-10">up</stem>
                <lyric number="1">
                    <syllabic>single</syllabic>
                    <text>beds,/</text>
                </lyric>
            </note>
        </measure>
        <measure width="174" number="21">
            <attributes>
                <staff-details print-object="yes"/>
            </attributes>
            <note default-x="14">
                <rest/>
                <duration>960</duration>
                <type>half</type>
            </note>
            <note default-x="72">
                <rest/>
                <duration>480</duration>
                <type>quarter</type>
            </note>
            <note default-x="115" release="-7" dynamics="75">
                <pitch>
                    <step>D</step>
                    <octave>5</octave>
                </pitch>
                <duration>480</duration>
                <type>quarter</type>
                <stem default-y="-45">down</stem>
                <lyric number="1">
                    <syllabic>single</syllabic>
                    <text>And</text>
                </lyric>
            </note>
        </measure>
        <measure width="272" number="22">
            <print new-system="yes">
                <system-layout>
                    <system-margins>
                        <left-margin>-19</left-margin>
                        <right-margin>0</right-margin>
                    </system-margins>
                    <system-distance>111</system-distance>
                </system-layout>
            </print>
            <attributes>
                <staff-details print-object="yes"/>
            </attributes>
            <harmony default-y="23">
                <root>
                    <root-step>G</root-step>
                </root>
                <kind use-symbols="no" text=" "> </kind>
            </harmony>
            <note default-x="121" release="-7" dynamics="75">
                <pitch>
                    <step>D</step>
                    <octave>5</octave>
                </pitch>
                <duration>960</duration>
                <type>half</type>
                <stem default-y="-45">down</stem>
                <lyric number="1">
                    <syllabic>single</syllabic>
                    <text>clouds</text>
                </lyric>
            </note>
            <note default-x="178" release="-7" dynamics="75">
                <pitch>
                    <step>C</step>
                    <alter>1</alter>
                    <octave>5</octave>
                </pitch>
                <duration>480</duration>
                <type>quarter</type>
                <stem default-y="-50">down</stem>
                <lyric number="1">
                    <syllabic>single</syllabic>
                    <text>veil</text>
                </lyric>
            </note>
            <note default-x="220" release="-7" dynamics="75">
                <pitch>
                    <step>D</step>
                    <octave>5</octave>
                </pitch>
                <duration>480</duration>
                <type>quarter</type>
                <stem default-y="-45">down</stem>
                <lyric number="1">
                    <syllabic>single</syllabic>
                    <text>the</text>
                </lyric>
            </note>
        </measure>
        <measure width="210" number="23">
            <attributes>
                <staff-details print-object="yes"/>
            </attributes>
            <note default-x="30" release="-7" dynamics="75">
                <pitch>
                    <step>E</step>
                    <octave>5</octave>
                </pitch>
                <duration>960</duration>
                <type>half</type>
                <stem default-y="-40">down</stem>
                <lyric number="1">
                    <syllabic>single</syllabic>
                    <text>old</text>
                </lyric>
            </note>
            <note default-x="87" release="-7" dynamics="75">
                <pitch>
                    <step>D</step>
                    <octave>5</octave>
                </pitch>
                <duration>240</duration>
                <type>eighth</type>
                <stem default-y="-45">down</stem>
                <beam number="1">begin</beam>
                <lyric number="1">
                    <syllabic>single</syllabic>
                    <text>north - </text>
                </lyric>
            </note>
            <note default-x="128" release="-7" dynamics="75">
                <pitch>
                    <step>C</step>
                    <alter>1</alter>
                    <octave>5</octave>
                </pitch>
                <duration>240</duration>
                <type>eighth</type>
                <stem default-y="-50">down</stem>
                <beam number="1">continue</beam>
            </note>
            <note default-x="157" release="-7" dynamics="75">
                <pitch>
                    <step>B</step>
                    <octave>4</octave>
                </pitch>
                <duration>480</duration>
                <type>quarter</type>
                <stem default-y="-50">down</stem>
                <lyric number="1">
                    <syllabic>single</syllabic>
                    <text>ern</text>
                </lyric>
            </note>
        </measure>
        <measure width="130" number="24">
            <attributes>
                <staff-details print-object="yes"/>
            </attributes>
            <harmony default-y="23">
                <root>
                    <root-step>D</root-step>
                </root>
                <kind use-symbols="no" text=" "> </kind>
            </harmony>
            <note default-x="37" release="-7" dynamics="75">
                <pitch>
                    <step>A</step>
                    <octave>4</octave>
                </pitch>
                <duration>1920</duration>
                <tie type="start"/>
                <type>whole</type>
                <notations>
                    <tied orientation="under" type="start"/>
                </notations>
                <lyric number="1">
                    <syllabic>single</syllabic>
                    <text>sky,/</text>
                </lyric>
            </note>
        </measure>
        <measure width="228" number="25">
            <attributes>
                <staff-details print-object="yes"/>
            </attributes>
            <note default-x="30">
                <pitch>
                    <step>A</step>
                    <octave>4</octave>
                </pitch>
                <duration>480</duration>
                <tie type="stop"/>
                <type>quarter</type>
                <stem default-y="10">up</stem>
                <notations>
                    <tied type="stop"/>
                </notations>
            </note>
            <note default-x="71">
                <rest/>
                <duration>240</duration>
                <type>eighth</type>
            </note>
            <note default-x="101" release="-7" dynamics="75">
                <pitch>
                    <step>B</step>
                    <octave>4</octave>
                </pitch>
                <duration>240</duration>
                <type>eighth</type>
                <stem default-y="-55">down</stem>
                <lyric number="1">
                    <syllabic>single</syllabic>
                    <text>And</text>
                </lyric>
            </note>
            <note default-x="130" release="-7" dynamics="75">
                <pitch>
                    <step>B</step>
                    <octave>4</octave>
                </pitch>
                <duration>480</duration>
                <type>quarter</type>
                <stem default-y="-50">down</stem>
            </note>
            <note default-x="172" release="-7" dynamics="75">
                <pitch>
                    <step>C</step>
                    <alter>1</alter>
                    <octave>5</octave>
                </pitch>
                <duration>480</duration>
                <type>quarter</type>
                <stem default-y="-50">down</stem>
                <lyric number="1">
                    <syllabic>single</syllabic>
                    <text>the</text>
                </lyric>
            </note>
        </measure>
        <measure width="246" number="26">
            <print new-system="yes">
                <system-layout>
                    <system-margins>
                        <left-margin>-19</left-margin>
                        <right-margin>0</right-margin>
                    </system-margins>
                    <system-distance>120</system-distance>
                </system-layout>
            </print>
            <attributes>
                <staff-details print-object="yes"/>
            </attributes>
            <harmony default-y="23">
                <root>
                    <root-step>G</root-step>
                </root>
                <kind use-symbols="no" text=" "> </kind>
            </harmony>
            <note default-x="108" release="-7" dynamics="75">
                <pitch>
                    <step>D</step>
                    <octave>5</octave>
                </pitch>
                <duration>480</duration>
                <type>quarter</type>
                <stem default-y="-45">down</stem>
                <lyric number="1">
                    <syllabic>single</syllabic>
                    <text>cat - </text>
                </lyric>
            </note>
            <note default-x="145" release="-7" dynamics="75">
                <pitch>
                    <step>C</step>
                    <alter>1</alter>
                    <octave>5</octave>
                </pitch>
                <duration>960</duration>
                <type>half</type>
                <stem default-y="-50">down</stem>
                <lyric number="1">
                    <syllabic>single</syllabic>
                    <text>le</text>
                </lyric>
            </note>
            <note default-x="193" release="-7" dynamics="75">
                <pitch>
                    <step>D</step>
                    <octave>5</octave>
                </pitch>
                <duration>480</duration>
                <type>quarter</type>
                <stem default-y="-45">down</stem>
                <lyric number="1">
                    <syllabic>single</syllabic>
                    <text>move</text>
                </lyric>
            </note>
        </measure>
        <measure width="178" number="27">
            <attributes>
                <staff-details print-object="yes"/>
            </attributes>
            <note default-x="37" release="-7" dynamics="75">
                <pitch>
                    <step>E</step>
                    <octave>5</octave>
                </pitch>
                <duration>960</duration>
                <type>half</type>
                <stem default-y="-40">down</stem>
                <lyric number="1">
                    <syllabic>single</syllabic>
                    <text>back</text>
                </lyric>
            </note>
            <note default-x="89" release="-7" dynamics="75">
                <pitch>
                    <step>D</step>
                    <octave>5</octave>
                </pitch>
                <duration>480</duration>
                <type>quarter</type>
                <stem default-y="-45">down</stem>
                <lyric number="1">
                    <syllabic>single</syllabic>
                    <text>from</text>
                </lyric>
            </note>
            <note default-x="132" release="-7" dynamics="75">
                <pitch>
                    <step>B</step>
                    <octave>4</octave>
                </pitch>
                <duration>480</duration>
                <type>quarter</type>
                <stem default-y="-50">down</stem>
                <lyric number="1">
                    <syllabic>single</syllabic>
                    <text>the</text>
                </lyric>
            </note>
        </measure>
        <measure width="174" number="28">
            <attributes>
                <staff-details print-object="yes"/>
            </attributes>
            <harmony default-y="23">
                <root>
                    <root-step>D</root-step>
                </root>
                <kind use-symbols="no" text=" "> </kind>
            </harmony>
            <note default-x="39" release="-7" dynamics="75">
                <pitch>
                    <step>A</step>
                    <octave>4</octave>
                </pitch>
                <duration>240</duration>
                <type>eighth</type>
                <stem default-y="10">up</stem>
                <beam number="1">begin</beam>
                <lyric number="1">
                    <syllabic>single</syllabic>
                    <text>low - </text>
                </lyric>
            </note>
            <note default-x="70" release="-7" dynamics="75">
                <pitch>
                    <step>F</step>
                    <alter>1</alter>
                    <octave>4</octave>
                </pitch>
                <duration>240</duration>
                <type>eighth</type>
                <stem default-y="0">up</stem>
                <beam number="1">continue</beam>
            </note>
            <note default-x="103" release="-7" dynamics="75">
                <pitch>
                    <step>D</step>
                    <octave>4</octave>
                </pitch>
                <duration>1440</duration>
                <type>half</type>
                <dot/>
                <stem default-y="-10">up</stem>
                <lyric number="1">
                    <syllabic>single</syllabic>
                    <text>lands,/</text>
                </lyric>
            </note>
        </measure>
        <measure width="241" number="29">
            <attributes>
                <staff-details print-object="yes"/>
            </attributes>
            <note default-x="13">
                <rest/>
                <duration>960</duration>
                <type>half</type>
            </note>
            <note default-x="144" release="-7" dynamics="75">
                <pitch>
                    <step>D</step>
                    <octave>4</octave>
                </pitch>
                <duration>480</duration>
                <type>quarter</type>
                <stem default-y="-10">up</stem>
                <lyric number="1">
                    <syllabic>single</syllabic>
                    <text>When</text>
                </lyric>
            </note>
            <note default-x="194" release="-7" dynamics="75">
                <pitch>
                    <step>E</step>
                    <octave>4</octave>
                </pitch>
                <duration>480</duration>
                <type>quarter</type>
                <stem default-y="-5">up</stem>
                <lyric number="1">
                    <syllabic>single</syllabic>
                    <text>the</text>
                </lyric>
            </note>
        </measure>
        <measure width="274" number="30">
            <print new-page="yes">
                <system-layout>
                    <system-margins>
                        <left-margin>-19</left-margin>
                        <right-margin>0</right-margin>
                    </system-margins>
                    <top-system-distance>39</top-system-distance>
                </system-layout>
            </print>
            <attributes>
                <staff-details print-object="yes"/>
            </attributes>
            <note default-x="103" release="-7" dynamics="75">
                <pitch>
                    <step>F</step>
                    <alter>1</alter>
                    <octave>4</octave>
                </pitch>
                <duration>480</duration>
                <type>quarter</type>
                <stem default-y="0">up</stem>
                <lyric number="1">
                    <syllabic>single</syllabic>
                    <text>rain</text>
                </lyric>
            </note>
            <note default-x="139">
                <rest/>
                <duration>480</duration>
                <type>quarter</type>
            </note>
            <note default-x="175" release="-7" dynamics="75">
                <pitch>
                    <step>E</step>
                    <octave>4</octave>
                </pitch>
                <duration>480</duration>
                <type>quarter</type>
                <stem default-y="-5">up</stem>
                <lyric number="1">
                    <syllabic>single</syllabic>
                    <text>tum - </text>
                </lyric>
            </note>
            <note default-x="227" release="-1" dynamics="75">
                <pitch>
                    <step>D</step>
                    <octave>4</octave>
                </pitch>
                <duration>480</duration>
                <type>quarter</type>
                <stem default-y="-10">up</stem>
                <lyric number="1">
                    <syllabic>single</syllabic>
                    <text>bles</text>
                </lyric>
            </note>
        </measure>
        <measure width="204" number="31">
            <attributes>
                <staff-details print-object="yes"/>
            </attributes>
            <harmony default-y="23">
                <root>
                    <root-step>A</root-step>
                </root>
                <kind use-symbols="no" text="7">7</kind>
            </harmony>
            <note default-x="41" release="-7" dynamics="75">
                <pitch>
                    <step>C</step>
                    <alter>1</alter>
                    <octave>4</octave>
                </pitch>
                <duration>960</duration>
                <type>half</type>
                <stem default-y="-15">up</stem>
                <lyric number="1">
                    <syllabic>single</syllabic>
                    <text>down</text>
                </lyric>
            </note>
            <note default-x="90" release="-7" dynamics="75">
                <pitch>
                    <step>D</step>
                    <octave>4</octave>
                </pitch>
                <duration>480</duration>
                <type>quarter</type>
                <stem default-y="-10">up</stem>
                <lyric number="1">
                    <syllabic>single</syllabic>
                    <text>in</text>
                </lyric>
            </note>
            <note default-x="135" release="-7" dynamics="75">
                <pitch>
                    <step>E</step>
                    <octave>4</octave>
                </pitch>
                <duration>240</duration>
                <type>eighth</type>
                <stem default-y="-5">up</stem>
                <beam number="1">begin</beam>
                <lyric number="1">
                    <syllabic>single</syllabic>
                    <text>Jul - ly</text>
                </lyric>
            </note>
            <note default-x="172" release="-7" dynamics="75">
                <pitch>
                    <step>D</step>
                    <octave>4</octave>
                </pitch>
                <duration>240</duration>
                <type>eighth</type>
                <stem default-y="-10">up</stem>
                <beam number="1">continue</beam>
            </note>
        </measure>
        <measure width="125" number="32">
            <attributes>
                <staff-details print-object="yes"/>
            </attributes>
            <harmony default-y="23">
                <root>
                    <root-step>D</root-step>
                </root>
                <kind use-symbols="no" text=" "> </kind>
            </harmony>
            <note default-x="40" release="-7" dynamics="75">
                <pitch>
                    <step>D</step>
                    <octave>4</octave>
                </pitch>
                <duration>1920</duration>
                <tie type="start"/>
                <type>whole</type>
                <notations>
                    <tied orientation="under" type="start"/>
                </notations>
            </note>
        </measure>
        <measure width="126" number="33">
            <attributes>
                <staff-details print-object="yes"/>
            </attributes>
            <note default-x="18">
                <pitch>
                    <step>D</step>
                    <octave>4</octave>
                </pitch>
                <duration>960</duration>
                <tie type="stop"/>
                <type>half</type>
                <stem default-y="-10">up</stem>
                <notations>
                    <tied type="stop"/>
                </notations>
            </note>
            <note default-x="67">
                <rest/>
                <duration>960</duration>
                <type>half</type>
            </note>
        </measure>
        <measure width="109" number="34">
            <attributes>
                <staff-details print-object="yes"/>
            </attributes>
            <barline location="right">
                <bar-style>light-heavy</bar-style>
                <repeat direction="backward"/>
            </barline>
            <note default-x="13">
                <rest/>
                <duration>1920</duration>
                <type>whole</type>
            </note>
        </measure>
        <measure width="281" number="35">
            <print new-system="yes">
                <system-layout>
                    <system-margins>
                        <left-margin>-19</left-margin>
                        <right-margin>0</right-margin>
                    </system-margins>
                    <system-distance>160</system-distance>
                </system-layout>
            </print>
            <attributes>
                <staff-details print-object="yes"/>
            </attributes>
            <harmony default-y="23">
                <root>
                    <root-step>D</root-step>
                </root>
                <kind use-symbols="no" text=" "> </kind>
            </harmony>
            <note default-x="119" release="-7" dynamics="75">
                <pitch>
                    <step>F</step>
                    <alter>1</alter>
                    <octave>4</octave>
                </pitch>
                <duration>960</duration>
                <type>half</type>
                <stem default-y="0">up</stem>
                <lyric number="1">
                    <syllabic>single</syllabic>
                    <text>husks</text>
                </lyric>
            </note>
            <note default-x="180" release="-7" dynamics="75">
                <pitch>
                    <step>A</step>
                    <octave>4</octave>
                </pitch>
                <duration>480</duration>
                <type>quarter</type>
                <stem default-y="10">up</stem>
                <lyric number="1">
                    <syllabic>single</syllabic>
                    <text>in</text>
                </lyric>
            </note>
            <note default-x="225" release="-7" dynamics="75">
                <pitch>
                    <step>A</step>
                    <octave>4</octave>
                </pitch>
                <duration>480</duration>
                <type>quarter</type>
                <stem default-y="10">up</stem>
                <lyric number="1">
                    <syllabic>single</syllabic>
                    <text>the</text>
                </lyric>
            </note>
        </measure>
        <measure width="212" number="36">
            <attributes>
                <staff-details print-object="yes"/>
            </attributes>
            <harmony default-y="23">
                <root>
                    <root-step>D</root-step>
                </root>
                <kind use-symbols="no" text=" "> </kind>
            </harmony>
            <note default-x="37" release="-7" dynamics="75">
                <pitch>
                    <step>B</step>
                    <octave>4</octave>
                </pitch>
                <duration>960</duration>
                <type>half</type>
                <stem default-y="-50">down</stem>
                <lyric number="1">
                    <syllabic>single</syllabic>
                    <text>barn</text>
                </lyric>
            </note>
            <note default-x="107" release="-7" dynamics="75">
                <pitch>
                    <step>A</step>
                    <octave>4</octave>
                </pitch>
                <duration>720</duration>
                <type>quarter</type>
                <dot/>
                <stem default-y="10">up</stem>
                <lyric number="1">
                    <syllabic>single</syllabic>
                    <text>through</text>
                </lyric>
            </note>
            <note default-x="169" release="-7" dynamics="75">
                <pitch>
                    <step>B</step>
                    <octave>4</octave>
                </pitch>
                <duration>240</duration>
                <type>eighth</type>
                <stem default-y="-55">down</stem>
                <lyric number="1">
                    <syllabic>single</syllabic>
                    <text>the</text>
                </lyric>
            </note>
        </measure>
        <measure width="142" number="37">
            <attributes>
                <staff-details print-object="yes"/>
            </attributes>
            <harmony default-y="23">
                <root>
                    <root-step>A</root-step>
                </root>
                <kind use-symbols="no" text="7">7</kind>
            </harmony>
            <note default-x="38" release="-7" dynamics="75">
                <pitch>
                    <step>E</step>
                    <octave>4</octave>
                </pitch>
                <duration>1920</duration>
                <tie type="start"/>
                <type>whole</type>
                <notations>
                    <tied orientation="under" type="start"/>
                </notations>
                <lyric number="1">
                    <syllabic>single</syllabic>
                    <text>day,/</text>
                </lyric>
            </note>
        </measure>
        <measure width="203" number="38">
            <attributes>
                <staff-details print-object="yes"/>
            </attributes>
            <harmony default-y="23">
                <root>
                    <root-step>A</root-step>
                </root>
                <kind use-symbols="no" text="7">7</kind>
            </harmony>
            <note default-x="36">
                <pitch>
                    <step>E</step>
                    <octave>4</octave>
                </pitch>
                <duration>480</duration>
                <tie type="stop"/>
                <type>quarter</type>
                <stem default-y="-5">up</stem>
                <notations>
                    <tied type="stop"/>
                </notations>
            </note>
            <note default-x="82">
                <rest/>
                <duration>480</duration>
                <type>quarter</type>
            </note>
            <note default-x="127">
                <rest/>
                <duration>960</duration>
                <type>half</type>
            </note>
        </measure>
        <measure width="275" number="39">
            <print new-system="yes">
                <system-layout>
                    <system-margins>
                        <left-margin>-19</left-margin>
                        <right-margin>0</right-margin>
                    </system-margins>
                    <system-distance>163</system-distance>
                </system-layout>
            </print>
            <attributes>
                <staff-details print-object="yes"/>
            </attributes>
            <harmony default-y="23">
                <root>
                    <root-step>A</root-step>
                </root>
                <kind use-symbols="no" text="7">7</kind>
            </harmony>
            <note default-x="108">
                <rest/>
                <duration>960</duration>
                <type>half</type>
            </note>
            <note default-x="161">
                <rest/>
                <duration>480</duration>
                <type>quarter</type>
            </note>
            <note default-x="200" release="-7" dynamics="75">
                <pitch>
                    <step>A</step>
                    <octave>3</octave>
                </pitch>
                <duration>240</duration>
                <type>eighth</type>
                <stem default-y="-20">up</stem>
                <beam number="1">begin</beam>
                <lyric number="1">
                    <syllabic>single</syllabic>
                    <text>And</text>
                </lyric>
            </note>
            <note default-x="241" release="-7" dynamics="75">
                <pitch>
                    <step>A</step>
                    <octave>3</octave>
                </pitch>
                <duration>240</duration>
                <type>eighth</type>
                <stem default-y="-20">up</stem>
                <beam number="1">continue</beam>
                <lyric number="1">
                    <syllabic>single</syllabic>
                    <text>the</text>
                </lyric>
            </note>
        </measure>
        <measure width="206" number="40">
            <attributes>
                <staff-details print-object="yes"/>
            </attributes>
            <harmony default-y="23">
                <root>
                    <root-step>D</root-step>
                </root>
                <kind use-symbols="no" text=" "> </kind>
            </harmony>
            <note default-x="50" release="-7" dynamics="75">
                <pitch>
                    <step>F</step>
                    <alter>1</alter>
                    <octave>4</octave>
                </pitch>
                <duration>480</duration>
                <type>quarter</type>
                <stem default-y="0">up</stem>
                <lyric number="1">
                    <syllabic>single</syllabic>
                    <text>dro - </text>
                </lyric>
            </note>
            <note default-x="96" release="-7" dynamics="75">
                <pitch>
                    <step>A</step>
                    <octave>4</octave>
                </pitch>
                <duration>960</duration>
                <type>half</type>
                <stem default-y="10">up</stem>
                <lyric number="1">
                    <syllabic>single</syllabic>
                    <text>ver</text>
                </lyric>
            </note>
            <note default-x="149" release="-7" dynamics="75">
                <pitch>
                    <step>F</step>
                    <alter>1</alter>
                    <octave>4</octave>
                </pitch>
                <duration>480</duration>
                <type>quarter</type>
                <stem default-y="0">up</stem>
                <lyric number="1">
                    <syllabic>single</syllabic>
                    <text>draws</text>
                </lyric>
            </note>
        </measure>
        <measure width="188" number="41">
            <attributes>
                <staff-details print-object="yes"/>
            </attributes>
            <harmony default-y="23">
                <root>
                    <root-step>A</root-step>
                </root>
                <kind use-symbols="no" text="7">7</kind>
            </harmony>
            <note default-x="46" release="-7" dynamics="75">
                <pitch>
                    <step>A</step>
                    <octave>4</octave>
                </pitch>
                <duration>960</duration>
                <type>half</type>
                <stem default-y="10">up</stem>
                <lyric number="1">
                    <syllabic>single</syllabic>
                    <text>rein</text>
                </lyric>
            </note>
            <note default-x="99" release="-7" dynamics="75">
                <pitch>
                    <step>B</step>
                    <octave>4</octave>
                </pitch>
                <duration>720</duration>
                <type>quarter</type>
                <dot/>
                <stem default-y="-50">down</stem>
                <lyric number="1">
                    <syllabic>single</syllabic>
                    <text>by</text>
                </lyric>
            </note>
            <note default-x="146" release="-7" dynamics="75">
                <pitch>
                    <step>A</step>
                    <octave>4</octave>
                </pitch>
                <duration>240</duration>
                <type>eighth</type>
                <stem default-y="10">up</stem>
                <lyric number="1">
                    <syllabic>single</syllabic>
                    <text>the</text>
                </lyric>
            </note>
        </measure>
        <measure width="170" number="42">
            <attributes>
                <staff-details print-object="yes"/>
            </attributes>
            <harmony default-y="23">
                <root>
                    <root-step>D</root-step>
                </root>
                <kind use-symbols="no" text=" "> </kind>
            </harmony>
            <note default-x="34" release="-7" dynamics="75">
                <pitch>
                    <step>F</step>
                    <alter>1</alter>
                    <octave>4</octave>
                </pitch>
                <duration>240</duration>
                <type>eighth</type>
                <stem default-y="0">up</stem>
                <beam number="1">begin</beam>
                <lyric number="1">
                    <syllabic>single</syllabic>
                    <text>riv - </text>
                </lyric>
            </note>
            <note default-x="62" release="-7" dynamics="75">
                <pitch>
                    <step>E</step>
                    <octave>4</octave>
                </pitch>
                <duration>240</duration>
                <type>eighth</type>
                <stem default-y="-5">up</stem>
                <beam number="1">continue</beam>
            </note>
            <note default-x="90" release="-7" dynamics="75">
                <pitch>
                    <step>D</step>
                    <octave>4</octave>
                </pitch>
                <duration>1440</duration>
                <type>half</type>
                <dot/>
                <stem default-y="-10">up</stem>
                <lyric number="1">
                    <syllabic>single</syllabic>
                    <text>er,/</text>
                </lyric>
            </note>
        </measure>
        <measure width="241" number="43">
            <print new-system="yes">
                <system-layout>
                    <system-margins>
                        <left-margin>-19</left-margin>
                        <right-margin>0</right-margin>
                    </system-margins>
                    <system-distance>169</system-distance>
                </system-layout>
            </print>
            <attributes>
                <staff-details print-object="yes"/>
            </attributes>
            <note default-x="91" release="-7" dynamics="75">
                <pitch>
                    <step>D</step>
                    <octave>4</octave>
                </pitch>
                <duration>960</duration>
                <type>half</type>
                <stem default-y="-10">up</stem>
            </note>
            <note default-x="147" release="-7" dynamics="75">
                <pitch>
                    <step>D</step>
                    <octave>5</octave>
                </pitch>
                <duration>480</duration>
                <type>quarter</type>
                <stem default-y="-45">down</stem>
                <lyric number="1">
                    <syllabic>single</syllabic>
                    <text>Its</text>
                </lyric>
            </note>
            <note default-x="189" release="-7" dynamics="75">
                <pitch>
                    <step>D</step>
                    <octave>5</octave>
                </pitch>
                <duration>480</duration>
                <type>quarter</type>
                <stem default-y="-45">down</stem>
                <lyric number="1">
                    <syllabic>single</syllabic>
                    <text>been</text>
                </lyric>
            </note>
        </measure>
        <measure width="228" number="44">
            <attributes>
                <staff-details print-object="yes"/>
            </attributes>
            <harmony default-y="23">
                <root>
                    <root-step>G</root-step>
                </root>
                <kind use-symbols="no" text=" "> </kind>
            </harmony>
            <note default-x="41" release="-7" dynamics="75">
                <pitch>
                    <step>D</step>
                    <octave>5</octave>
                </pitch>
                <duration>480</duration>
                <type>quarter</type>
                <stem default-y="-45">down</stem>
                <lyric number="1">
                    <syllabic>single</syllabic>
                    <text>years</text>
                </lyric>
            </note>
            <note default-x="82">
                <rest/>
                <duration>480</duration>
                <type>quarter</type>
            </note>
            <note default-x="123" release="-7" dynamics="75">
                <pitch>
                    <step>C</step>
                    <alter>1</alter>
                    <octave>5</octave>
                </pitch>
                <duration>480</duration>
                <type>quarter</type>
                <stem default-y="-50">down</stem>
                <lyric number="1">
                    <syllabic>single</syllabic>
                    <text>since</text>
                </lyric>
            </note>
            <note default-x="177" release="-7" dynamics="75">
                <pitch>
                    <step>D</step>
                    <octave>5</octave>
                </pitch>
                <duration>480</duration>
                <type>quarter</type>
                <stem default-y="-45">down</stem>
                <lyric number="1">
                    <syllabic>single</syllabic>
                    <text>he's</text>
                </lyric>
            </note>
        </measure>
        <measure width="230" number="45">
            <attributes>
                <staff-details print-object="yes"/>
            </attributes>
            <note default-x="38" release="-7" dynamics="75">
                <pitch>
                    <step>E</step>
                    <octave>5</octave>
                </pitch>
                <duration>240</duration>
                <type>eighth</type>
                <stem default-y="-40">down</stem>
                <beam number="1">begin</beam>
                <lyric number="1">
                    <syllabic>single</syllabic>
                    <text>seen</text>
                </lyric>
            </note>
            <note default-x="68" release="-7" dynamics="75">
                <pitch>
                    <step>D</step>
                    <octave>5</octave>
                </pitch>
                <duration>240</duration>
                <type>eighth</type>
                <stem default-y="-45">down</stem>
                <beam number="1">continue</beam>
            </note>
            <note default-x="97" release="-7" dynamics="75">
                <pitch>
                    <step>D</step>
                    <octave>5</octave>
                </pitch>
                <duration>480</duration>
                <type>quarter</type>
                <stem default-y="-45">down</stem>
            </note>
            <note default-x="138" release="-7" dynamics="75">
                <pitch>
                    <step>D</step>
                    <octave>5</octave>
                </pitch>
                <duration>480</duration>
                <type>quarter</type>
                <stem default-y="-45">down</stem>
                <lyric number="1">
                    <syllabic>single</syllabic>
                    <text>it</text>
                </lyric>
            </note>
            <note default-x="179" release="-7" dynamics="75">
                <pitch>
                    <step>B</step>
                    <octave>4</octave>
                </pitch>
                <duration>480</duration>
                <type>quarter</type>
                <stem default-y="-50">down</stem>
                <lyric number="1">
                    <syllabic>single</syllabic>
                    <text>so</text>
                </lyric>
            </note>
        </measure>
        <measure width="140" number="46">
            <attributes>
                <staff-details print-object="yes"/>
            </attributes>
            <harmony default-y="23">
                <root>
                    <root-step>D</root-step>
                </root>
                <kind use-symbols="no" text=" "> </kind>
            </harmony>
            <note default-x="41" release="-7" dynamics="75">
                <pitch>
                    <step>A</step>
                    <octave>4</octave>
                </pitch>
                <duration>1920</duration>
                <type>whole</type>
                <lyric number="1">
                    <syllabic>single</syllabic>
                    <text>high,/</text>
                </lyric>
            </note>
        </measure>
        <measure width="230" number="47">
            <print new-system="yes">
                <system-layout>
                    <system-margins>
                        <left-margin>-19</left-margin>
                        <right-margin>0</right-margin>
                    </system-margins>
                    <system-distance>155</system-distance>
                </system-layout>
            </print>
            <attributes>
                <staff-details print-object="yes"/>
            </attributes>
            <note default-x="85">
                <rest/>
                <duration>960</duration>
                <type>half</type>
            </note>
            <note default-x="141">
                <rest/>
                <duration>480</duration>
                <type>quarter</type>
            </note>
            <note default-x="183" release="-7" dynamics="75">
                <pitch>
                    <step>D</step>
                    <octave>5</octave>
                </pitch>
                <duration>480</duration>
                <type>quarter</type>
                <stem default-y="-45">down</stem>
                <lyric number="1">
                    <syllabic>single</syllabic>
                    <text>And</text>
                </lyric>
            </note>
        </measure>
        <measure width="200" number="48">
            <attributes>
                <staff-details print-object="yes"/>
            </attributes>
            <harmony default-y="23">
                <root>
                    <root-step>G</root-step>
                </root>
                <kind use-symbols="no" text=" "> </kind>
            </harmony>
            <note default-x="51" release="-7" dynamics="75">
                <pitch>
                    <step>D</step>
                    <octave>5</octave>
                </pitch>
                <duration>960</duration>
                <type>half</type>
                <stem default-y="-45">down</stem>
                <lyric number="1">
                    <syllabic>single</syllabic>
                    <text>that's</text>
                </lyric>
            </note>
            <note default-x="107" release="-7" dynamics="75">
                <pitch>
                    <step>C</step>
                    <alter>1</alter>
                    <octave>5</octave>
                </pitch>
                <duration>480</duration>
                <type>quarter</type>
                <stem default-y="-50">down</stem>
                <lyric number="1">
                    <syllabic>single</syllabic>
                    <text>just</text>
                </lyric>
            </note>
            <note default-x="149" release="-7" dynamics="75">
                <pitch>
                    <step>D</step>
                    <octave>5</octave>
                </pitch>
                <duration>480</duration>
                <type>quarter</type>
                <stem default-y="-45">down</stem>
                <lyric number="1">
                    <syllabic>single</syllabic>
                    <text>a</text>
                </lyric>
            </note>
        </measure>
        <measure width="197" number="49">
            <attributes>
                <staff-details print-object="yes"/>
            </attributes>
            <note default-x="48" release="-7" dynamics="75">
                <pitch>
                    <step>E</step>
                    <octave>5</octave>
                </pitch>
                <duration>960</duration>
                <type>half</type>
                <stem default-y="-40">down</stem>
                <lyric number="1">
                    <syllabic>single</syllabic>
                    <text>sto - </text>
                </lyric>
            </note>
            <note default-x="104" release="-7" dynamics="75">
                <pitch>
                    <step>D</step>
                    <octave>5</octave>
                </pitch>
                <duration>480</duration>
                <type>quarter</type>
                <stem default-y="-45">down</stem>
                <lyric number="1">
                    <syllabic>single</syllabic>
                    <text>ry</text>
                </lyric>
            </note>
            <note default-x="145" release="-7" dynamics="75">
                <pitch>
                    <step>A</step>
                    <octave>4</octave>
                </pitch>
                <duration>480</duration>
                <type>quarter</type>
                <stem default-y="10">up</stem>
                <lyric number="1">
                    <syllabic>single</syllabic>
                    <text>of</text>
                </lyric>
            </note>
        </measure>
        <measure width="212" number="50">
            <attributes>
                <staff-details print-object="yes"/>
            </attributes>
            <harmony default-y="23">
                <root>
                    <root-step>D</root-step>
                </root>
                <kind use-symbols="no" text=" "> </kind>
            </harmony>
            <note default-x="50" release="-7" dynamics="75">
                <pitch>
                    <step>A</step>
                    <octave>4</octave>
                </pitch>
                <duration>240</duration>
                <type>eighth</type>
                <stem default-y="10">up</stem>
                <beam number="1">begin</beam>
                <lyric number="1">
                    <syllabic>single</syllabic>
                    <text>home - </text>
                </lyric>
            </note>
            <note default-x="92" release="-7" dynamics="75">
                <pitch>
                    <step>F</step>
                    <alter>1</alter>
                    <octave>4</octave>
                </pitch>
                <duration>240</duration>
                <type>eighth</type>
                <stem default-y="0">up</stem>
                <beam number="1">continue</beam>
            </note>
            <note default-x="128" release="-7" dynamics="75">
                <pitch>
                    <step>D</step>
                    <octave>4</octave>
                </pitch>
                <duration>1440</duration>
                <type>half</type>
                <dot/>
                <stem default-y="-10">up</stem>
                <lyric number="1">
                    <syllabic>single</syllabic>
                    <text>wards,/</text>
                </lyric>
            </note>
        </measure>
        <measure width="219" number="51">
            <print new-system="yes">
                <system-layout>
                    <system-margins>
                        <left-margin>-19</left-margin>
                        <right-margin>0</right-margin>
                    </system-margins>
                    <system-distance>155</system-distance>
                </system-layout>
            </print>
            <attributes>
                <staff-details print-object="yes"/>
            </attributes>
            <note default-x="83">
                <rest/>
                <duration>960</duration>
                <type>half</type>
            </note>
            <note default-x="128" release="-7" dynamics="75">
                <pitch>
                    <step>D</step>
                    <octave>4</octave>
                </pitch>
                <duration>480</duration>
                <type>quarter</type>
                <stem default-y="-10">up</stem>
                <lyric number="1">
                    <syllabic>single</syllabic>
                    <text>When</text>
                </lyric>
            </note>
            <note default-x="176" release="-7" dynamics="75">
                <pitch>
                    <step>E</step>
                    <octave>4</octave>
                </pitch>
                <duration>480</duration>
                <type>quarter</type>
                <stem default-y="-5">up</stem>
                <lyric number="1">
                    <syllabic>single</syllabic>
                    <text>the</text>
                </lyric>
            </note>
        </measure>
        <measure width="192" number="52">
            <attributes>
                <staff-details print-object="yes"/>
            </attributes>
            <harmony default-y="23">
                <root>
                    <root-step>D</root-step>
                </root>
                <kind use-symbols="no" text=" "> </kind>
            </harmony>
            <note default-x="31" release="-7" dynamics="75">
                <pitch>
                    <step>F</step>
                    <alter>1</alter>
                    <octave>4</octave>
                </pitch>
                <duration>960</duration>
                <type>half</type>
                <stem default-y="0">up</stem>
                <lyric number="1">
                    <syllabic>single</syllabic>
                    <text>rain</text>
                </lyric>
            </note>
            <note default-x="88" release="-7" dynamics="75">
                <pitch>
                    <step>E</step>
                    <octave>4</octave>
                </pitch>
                <duration>480</duration>
                <type>quarter</type>
                <stem default-y="-5">up</stem>
                <lyric number="1">
                    <syllabic>single</syllabic>
                    <text>tumb - </text>
                </lyric>
            </note>
            <note default-x="146" release="-7" dynamics="75">
                <pitch>
                    <step>D</step>
                    <octave>4</octave>
                </pitch>
                <duration>480</duration>
                <type>quarter</type>
                <stem default-y="-10">up</stem>
                <lyric number="1">
                    <syllabic>single</syllabic>
                    <text>bles</text>
                </lyric>
            </note>
        </measure>
        <measure width="186" number="53">
            <attributes>
                <staff-details print-object="yes"/>
            </attributes>
            <harmony default-y="23">
                <root>
                    <root-step>A</root-step>
                </root>
                <kind use-symbols="no" text="7">7</kind>
            </harmony>
            <note default-x="40" release="-7" dynamics="75">
                <pitch>
                    <step>C</step>
                    <alter>1</alter>
                    <octave>4</octave>
                </pitch>
                <duration>480</duration>
                <type>quarter</type>
                <stem default-y="-15">up</stem>
                <lyric number="1">
                    <syllabic>single</syllabic>
                    <text>down</text>
                </lyric>
            </note>
            <note default-x="73">
                <rest/>
                <duration>480</duration>
                <type>quarter</type>
            </note>
            <note default-x="106" release="-7" dynamics="75">
                <pitch>
                    <step>D</step>
                    <octave>4</octave>
                </pitch>
                <duration>480</duration>
                <type>quarter</type>
                <stem default-y="-10">up</stem>
                <lyric number="1">
                    <syllabic>single</syllabic>
                    <text>in</text>
                </lyric>
            </note>
            <note default-x="141" release="-7" dynamics="75">
                <pitch>
                    <step>E</step>
                    <octave>4</octave>
                </pitch>
                <duration>480</duration>
                <type>quarter</type>
                <stem default-y="-5">up</stem>
                <lyric number="1">
                    <syllabic>single</syllabic>
                    <text>Ju - </text>
                </lyric>
            </note>
        </measure>
        <measure width="130" number="54">
            <attributes>
                <staff-details print-object="yes"/>
            </attributes>
            <harmony default-y="23">
                <root>
                    <root-step>D</root-step>
                </root>
                <kind use-symbols="no" text=" "> </kind>
            </harmony>
            <harmony relative-x="34" default-y="23">
                <root>
                    <root-step>G</root-step>
                </root>
                <kind use-symbols="no" text=" "> </kind>
            </harmony>
            <note default-x="29" release="-7" dynamics="75">
                <pitch>
                    <step>D</step>
                    <octave>4</octave>
                </pitch>
                <duration>1920</duration>
                <type>whole</type>
                <lyric number="1">
                    <syllabic>single</syllabic>
                    <text>ly./</text>
                </lyric>
            </note>
        </measure>
        <measure width="110" number="55">
            <attributes>
                <staff-details print-object="yes"/>
            </attributes>
            <barline location="right">
                <bar-style>light-heavy</bar-style>
            </barline>
            <harmony default-y="23">
                <root>
                    <root-step>D</root-step>
                </root>
                <kind use-symbols="no" text=" "> </kind>
            </harmony>
            <note default-x="29">
                <rest/>
                <duration>1920</duration>
                <type>whole</type>
            </note>
        </measure>
    </part>
</score-partwise>
