<?xml version="1.0" encoding="UTF-8"?>
<!DOCTYPE score-partwise PUBLIC "-//Recordare//DTD MusicXML 2.0 Partwise//EN" "http://www.musicxml.org/dtds/partwise.dtd">
<score-partwise version="2.0">
    <work>
        <work-number></work-number>
        <work-title></work-title>
    </work>
    <movement-number></movement-number>
    <movement-title>Rico Vacilon</movement-title>
    <identification>
        <creator type="composer">Rosendo Ruiz</creator>
        <creator type="poet"></creator>
        <rights>All Rights Reserved</rights>
        <encoding>
            <software>Finale 2009 for Windows</software>
            <software>Dolet Light for Finale 2009</software>
            <encoding-date>2010-08-17</encoding-date>
            <supports value="yes" type="yes" element="print" attribute="new-system"/>
            <supports value="yes" type="yes" element="print" attribute="new-page"/>
            <software>ProxyMusic 2.0 c</software>
        </encoding>
        <source>http://wikifonia.org/node/6879/revisions/9539/view</source>
    </identification>
    <defaults>
        <scaling>
            <millimeters>7.2319</millimeters>
            <tenths>40</tenths>
        </scaling>
        <page-layout>
            <page-height>1545</page-height>
            <page-width>1194</page-width>
            <page-margins type="both">
                <left-margin>140</left-margin>
                <right-margin>70</right-margin>
                <top-margin>120</top-margin>
                <bottom-margin>70</bottom-margin>
            </page-margins>
        </page-layout>
        <system-layout>
            <system-margins>
                <left-margin>0</left-margin>
                <right-margin>0</right-margin>
            </system-margins>
            <system-distance>168</system-distance>
            <top-system-distance>39</top-system-distance>
        </system-layout>
        <appearance>
            <line-width type="stem">1.2457</line-width>
            <line-width type="beam">4.2708</line-width>
            <line-width type="staff">1.2457</line-width>
            <line-width type="light barline">1.2457</line-width>
            <line-width type="heavy barline">4.2708</line-width>
            <line-width type="leger">1.2457</line-width>
            <line-width type="ending">1.2457</line-width>
            <line-width type="wedge">1.2457</line-width>
            <line-width type="enclosure">1.2457</line-width>
            <line-width type="tuplet bracket">1.2457</line-width>
            <note-size type="grace">60</note-size>
            <note-size type="cue">60</note-size>
        </appearance>
        <music-font font-size="20.5" font-family="Maestro"/>
        <word-font font-weight="bold" font-style="italic" font-size="10.25" font-family="Comic Sans MS"/>
        <lyric-font font-size="10.25" font-family="Times New Roman" name="verse"/>
    </defaults>
    <credit page="1">
        <credit-words font-size="10" font-family="Times New Roman" default-y="114" default-x="626" justify="center" valign="bottom">Transcripción: ALBERTO BETANCOURT</credit-words>
    </credit>
    <credit page="1">
        <credit-words font-weight="bold" font-size="24" font-family="Times New Roman" default-y="1484" default-x="632" justify="center" valign="top">RICO VACILON</credit-words>
    </credit>
    <credit page="1">
        <credit-words font-weight="bold" font-size="12" font-family="Times New Roman" default-y="1424" default-x="1124" justify="right" valign="top">ROSENDO RUIZ</credit-words>
    </credit>
    <credit page="1">
        <credit-words font-size="12" font-family="Times New Roman" default-y="1399" default-x="149" valign="top">CHACHACHA</credit-words>
    </credit>
    <part-list>
        <score-part id="P1">
            <part-name print-object="no">MusicXML Part</part-name>
            <score-instrument id="P1-I2">
                <instrument-name>Sax</instrument-name>
            </score-instrument>
            <midi-instrument id="P1-I2">
                <midi-channel>3</midi-channel>
                <midi-program>67</midi-program>
                <volume>80</volume>
                <pan>0</pan>
            </midi-instrument>
        </score-part>
    </part-list>
    <part id="P1">
        <measure width="150" number="1">
            <print>
                <system-layout>
                    <system-margins>
                        <left-margin>1</left-margin>
                        <right-margin>1</right-margin>
                    </system-margins>
                    <top-system-distance>132</top-system-distance>
                </system-layout>
            </print>
            <attributes>
                <divisions>2</divisions>
                <key>
                    <fifths>1</fifths>
                    <mode>major</mode>
                </key>
                <time symbol="common">
                    <beats>4</beats>
                    <beat-type>4</beat-type>
                </time>
                <clef>
                    <sign>G</sign>
                    <line>2</line>
                </clef>
            </attributes>
            <direction placement="above" directive="yes">
                <direction-type>
                    <metronome font-size="20.5" font-family="Maestro" default-y="14">
                        <beat-unit>quarter</beat-unit>
                        <per-minute>116</per-minute>
                    </metronome>
                </direction-type>
                <sound tempo="116"/>
            </direction>
            <note default-x="110">
                <pitch>
                    <step>G</step>
                    <octave>4</octave>
                </pitch>
                <duration>1</duration>
                <instrument id="P1-I2"/>
                <voice>1</voice>
                <type>eighth</type>
                <stem default-y="5">up</stem>
                <beam number="1">begin</beam>
                <lyric default-y="-75" number="1">
                    <syllabic>begin</syllabic>
                    <text>Va</text>
                </lyric>
            </note>
            <note default-x="131">
                <pitch>
                    <step>G</step>
                    <octave>4</octave>
                </pitch>
                <duration>1</duration>
                <instrument id="P1-I2"/>
                <voice>1</voice>
                <type>eighth</type>
                <stem default-y="5">up</stem>
                <beam number="1">end</beam>
                <lyric default-y="-75" number="1">
                    <syllabic>middle</syllabic>
                    <text>ci</text>
                </lyric>
            </note>
        </measure>
        <measure width="183" number="2">
            <harmony font-style="normal" font-family="Times New Roman" default-y="30">
                <root>
                    <root-step>G</root-step>
                </root>
                <kind halign="center" text="">major</kind>
            </harmony>
            <note default-x="15">
                <pitch>
                    <step>G</step>
                    <octave>4</octave>
                </pitch>
                <duration>2</duration>
                <instrument id="P1-I2"/>
                <voice>1</voice>
                <type>quarter</type>
                <stem default-y="6">up</stem>
                <lyric default-y="-75" number="1">
                    <syllabic>end</syllabic>
                    <text>lon</text>
                </lyric>
            </note>
            <note default-x="50">
                <rest/>
                <duration>1</duration>
                <instrument id="P1-I2"/>
                <voice>1</voice>
                <type>eighth</type>
            </note>
            <note default-x="72">
                <pitch>
                    <step>F</step>
                    <alter>1</alter>
                    <octave>4</octave>
                </pitch>
                <duration>1</duration>
                <instrument id="P1-I2"/>
                <voice>1</voice>
                <type>eighth</type>
                <stem default-y="1">up</stem>
                <lyric default-y="-75" number="1">
                    <syllabic>single</syllabic>
                    <text>que</text>
                </lyric>
            </note>
            <note default-x="101">
                <pitch>
                    <step>A</step>
                    <octave>4</octave>
                </pitch>
                <duration>1</duration>
                <instrument id="P1-I2"/>
                <voice>1</voice>
                <type>eighth</type>
                <stem default-y="10">up</stem>
                <beam number="1">begin</beam>
                <lyric default-y="-75" number="1">
                    <syllabic>begin</syllabic>
                    <text>ri</text>
                </lyric>
            </note>
            <note default-x="118">
                <pitch>
                    <step>A</step>
                    <octave>4</octave>
                </pitch>
                <duration>1</duration>
                <instrument id="P1-I2"/>
                <voice>1</voice>
                <type>eighth</type>
                <stem default-y="10">up</stem>
                <beam number="1">continue</beam>
                <lyric default-y="-75" number="1">
                    <syllabic>end</syllabic>
                    <text>co</text>
                </lyric>
            </note>
            <note default-x="143">
                <pitch>
                    <step>D</step>
                    <octave>4</octave>
                </pitch>
                <duration>1</duration>
                <instrument id="P1-I2"/>
                <voice>1</voice>
                <type>eighth</type>
                <stem default-y="10">up</stem>
                <beam number="1">continue</beam>
                <lyric default-y="-75" number="1">
                    <syllabic>begin</syllabic>
                    <text>va</text>
                </lyric>
            </note>
            <note default-x="166">
                <pitch>
                    <step>D</step>
                    <octave>4</octave>
                </pitch>
                <duration>1</duration>
                <instrument id="P1-I2"/>
                <voice>1</voice>
                <type>eighth</type>
                <stem default-y="10">up</stem>
                <beam number="1">end</beam>
                <lyric default-y="-75" number="1">
                    <syllabic>middle</syllabic>
                    <text>ci</text>
                </lyric>
            </note>
        </measure>
        <measure width="192" number="3">
            <harmony font-style="normal" font-family="Times New Roman" default-y="30">
                <root>
                    <root-step>D</root-step>
                </root>
                <kind halign="center" text="7">dominant</kind>
            </harmony>
            <note default-x="15">
                <pitch>
                    <step>D</step>
                    <octave>4</octave>
                </pitch>
                <duration>2</duration>
                <instrument id="P1-I2"/>
                <voice>1</voice>
                <type>quarter</type>
                <stem default-y="-9">up</stem>
                <lyric default-y="-75" number="1">
                    <syllabic>end</syllabic>
                    <text>lon</text>
                </lyric>
            </note>
            <note default-x="50">
                <rest/>
                <duration>2</duration>
                <instrument id="P1-I2"/>
                <voice>1</voice>
                <type>quarter</type>
            </note>
            <note default-x="103">
                <rest/>
                <duration>2</duration>
                <instrument id="P1-I2"/>
                <voice>1</voice>
                <type>quarter</type>
            </note>
            <note default-x="146">
                <pitch>
                    <step>C</step>
                    <octave>5</octave>
                </pitch>
                <duration>1</duration>
                <instrument id="P1-I2"/>
                <voice>1</voice>
                <type>eighth</type>
                <stem default-y="-50">down</stem>
                <beam number="1">begin</beam>
                <lyric default-y="-75" number="1">
                    <syllabic>begin</syllabic>
                    <text>cha</text>
                </lyric>
            </note>
            <note default-x="170">
                <pitch>
                    <step>C</step>
                    <octave>5</octave>
                </pitch>
                <duration>1</duration>
                <instrument id="P1-I2"/>
                <voice>1</voice>
                <type>eighth</type>
                <stem default-y="-50">down</stem>
                <beam number="1">end</beam>
                <lyric default-y="-75" number="1">
                    <syllabic>middle</syllabic>
                    <text>cha</text>
                </lyric>
            </note>
        </measure>
        <measure width="196" number="4">
            <note default-x="16">
                <pitch>
                    <step>C</step>
                    <octave>5</octave>
                </pitch>
                <duration>2</duration>
                <instrument id="P1-I2"/>
                <voice>1</voice>
                <type>quarter</type>
                <stem default-y="-51">down</stem>
                <lyric default-y="-75" number="1">
                    <syllabic>end</syllabic>
                    <text>cha</text>
                </lyric>
            </note>
            <note default-x="52">
                <rest/>
                <duration>1</duration>
                <instrument id="P1-I2"/>
                <voice>1</voice>
                <type>eighth</type>
            </note>
            <note default-x="75">
                <pitch>
                    <step>A</step>
                    <octave>4</octave>
                </pitch>
                <duration>1</duration>
                <instrument id="P1-I2"/>
                <voice>1</voice>
                <type>eighth</type>
                <stem default-y="11">up</stem>
                <lyric default-y="-75" number="1">
                    <syllabic>single</syllabic>
                    <text>que</text>
                </lyric>
            </note>
            <note default-x="105">
                <pitch>
                    <step>B</step>
                    <octave>4</octave>
                </pitch>
                <duration>1</duration>
                <instrument id="P1-I2"/>
                <voice>1</voice>
                <type>eighth</type>
                <stem default-y="15">up</stem>
                <beam number="1">begin</beam>
                <lyric default-y="-75" number="1">
                    <syllabic>begin</syllabic>
                    <text>ri</text>
                </lyric>
            </note>
            <note default-x="123">
                <pitch>
                    <step>B</step>
                    <octave>4</octave>
                </pitch>
                <duration>1</duration>
                <instrument id="P1-I2"/>
                <voice>1</voice>
                <type>eighth</type>
                <stem default-y="15">up</stem>
                <beam number="1">continue</beam>
                <lyric default-y="-75" number="1">
                    <syllabic>end</syllabic>
                    <text>co</text>
                </lyric>
            </note>
            <note default-x="149">
                <pitch>
                    <step>G</step>
                    <octave>4</octave>
                </pitch>
                <duration>1</duration>
                <instrument id="P1-I2"/>
                <voice>1</voice>
                <type>eighth</type>
                <stem default-y="15">up</stem>
                <beam number="1">continue</beam>
                <lyric default-y="-75" number="1">
                    <syllabic>begin</syllabic>
                    <text>cha</text>
                </lyric>
            </note>
            <note default-x="174">
                <pitch>
                    <step>G</step>
                    <octave>4</octave>
                </pitch>
                <duration>1</duration>
                <instrument id="P1-I2"/>
                <voice>1</voice>
                <type>eighth</type>
                <stem default-y="15">up</stem>
                <beam number="1">end</beam>
                <lyric default-y="-75" number="1">
                    <syllabic>middle</syllabic>
                    <text>cha</text>
                </lyric>
            </note>
        </measure>
        <measure width="261" number="5">
            <harmony font-style="normal" font-family="Times New Roman" default-y="30">
                <root>
                    <root-step>G</root-step>
                </root>
                <kind halign="center" text="">major</kind>
            </harmony>
            <note default-x="18">
                <pitch>
                    <step>G</step>
                    <octave>4</octave>
                </pitch>
                <duration>2</duration>
                <instrument id="P1-I2"/>
                <voice>1</voice>
                <type>quarter</type>
                <stem default-y="6">up</stem>
                <lyric default-y="-75" number="1">
                    <syllabic>end</syllabic>
                    <text>cha</text>
                </lyric>
            </note>
            <note default-x="71">
                <rest/>
                <duration>2</duration>
                <instrument id="P1-I2"/>
                <voice>1</voice>
                <type>quarter</type>
            </note>
            <note default-x="141">
                <rest/>
                <duration>2</duration>
                <instrument id="P1-I2"/>
                <voice>1</voice>
                <type>quarter</type>
            </note>
            <note default-x="201">
                <pitch>
                    <step>G</step>
                    <octave>4</octave>
                </pitch>
                <duration>1</duration>
                <instrument id="P1-I2"/>
                <voice>1</voice>
                <type>eighth</type>
                <stem default-y="5">up</stem>
                <beam number="1">begin</beam>
                <lyric default-y="-75" number="1">
                    <syllabic>begin</syllabic>
                    <text>Va</text>
                </lyric>
            </note>
            <note default-x="234">
                <pitch>
                    <step>G</step>
                    <octave>4</octave>
                </pitch>
                <duration>1</duration>
                <instrument id="P1-I2"/>
                <voice>1</voice>
                <type>eighth</type>
                <stem default-y="5">up</stem>
                <beam number="1">end</beam>
                <lyric default-y="-75" number="1">
                    <syllabic>middle</syllabic>
                    <text>ci</text>
                </lyric>
            </note>
        </measure>
        <measure width="333" number="6">
            <print new-system="yes">
                <system-layout>
                    <system-distance>126</system-distance>
                </system-layout>
            </print>
            <barline location="left">
                <bar-style>heavy-light</bar-style>
                <repeat direction="forward"/>
            </barline>
            <note default-x="100">
                <pitch>
                    <step>G</step>
                    <octave>4</octave>
                </pitch>
                <duration>2</duration>
                <instrument id="P1-I2"/>
                <voice>1</voice>
                <type>quarter</type>
                <stem default-y="6">up</stem>
                <lyric default-y="-75" number="1">
                    <syllabic>end</syllabic>
                    <text>lon</text>
                </lyric>
            </note>
            <note default-x="150">
                <rest/>
                <duration>1</duration>
                <instrument id="P1-I2"/>
                <voice>1</voice>
                <type>eighth</type>
            </note>
            <note default-x="181">
                <pitch>
                    <step>F</step>
                    <alter>1</alter>
                    <octave>4</octave>
                </pitch>
                <duration>1</duration>
                <instrument id="P1-I2"/>
                <voice>1</voice>
                <type>eighth</type>
                <stem default-y="1">up</stem>
                <lyric default-y="-75" number="1">
                    <syllabic>single</syllabic>
                    <text>que</text>
                </lyric>
            </note>
            <note default-x="219">
                <pitch>
                    <step>A</step>
                    <octave>4</octave>
                </pitch>
                <duration>1</duration>
                <instrument id="P1-I2"/>
                <voice>1</voice>
                <type>eighth</type>
                <stem default-y="10">up</stem>
                <beam number="1">begin</beam>
                <lyric default-y="-75" number="1">
                    <syllabic>begin</syllabic>
                    <text>ri</text>
                </lyric>
            </note>
            <note default-x="244">
                <pitch>
                    <step>A</step>
                    <octave>4</octave>
                </pitch>
                <duration>1</duration>
                <instrument id="P1-I2"/>
                <voice>1</voice>
                <type>eighth</type>
                <stem default-y="10">up</stem>
                <beam number="1">continue</beam>
                <lyric default-y="-75" number="1">
                    <syllabic>end</syllabic>
                    <text>co</text>
                </lyric>
            </note>
            <note default-x="275">
                <pitch>
                    <step>D</step>
                    <octave>4</octave>
                </pitch>
                <duration>1</duration>
                <instrument id="P1-I2"/>
                <voice>1</voice>
                <type>eighth</type>
                <stem default-y="10">up</stem>
                <beam number="1">continue</beam>
                <lyric default-y="-75" number="1">
                    <syllabic>begin</syllabic>
                    <text>va</text>
                </lyric>
            </note>
            <note default-x="307">
                <pitch>
                    <step>D</step>
                    <octave>4</octave>
                </pitch>
                <duration>1</duration>
                <instrument id="P1-I2"/>
                <voice>1</voice>
                <type>eighth</type>
                <stem default-y="10">up</stem>
                <beam number="1">end</beam>
                <lyric default-y="-75" number="1">
                    <syllabic>middle</syllabic>
                    <text>ci</text>
                </lyric>
            </note>
        </measure>
        <measure width="203" number="7">
            <harmony font-style="normal" font-family="Times New Roman" default-y="30">
                <root>
                    <root-step>D</root-step>
                </root>
                <kind halign="center" text="7">dominant</kind>
            </harmony>
            <note default-x="16">
                <pitch>
                    <step>D</step>
                    <octave>4</octave>
                </pitch>
                <duration>2</duration>
                <instrument id="P1-I2"/>
                <voice>1</voice>
                <type>quarter</type>
                <stem default-y="-9">up</stem>
                <lyric default-y="-75" number="1">
                    <syllabic>end</syllabic>
                    <text>lon</text>
                </lyric>
            </note>
            <note default-x="48">
                <rest/>
                <duration>2</duration>
                <instrument id="P1-I2"/>
                <voice>1</voice>
                <type>quarter</type>
            </note>
            <note default-x="108">
                <rest/>
                <duration>2</duration>
                <instrument id="P1-I2"/>
                <voice>1</voice>
                <type>quarter</type>
            </note>
            <note default-x="149">
                <pitch>
                    <step>C</step>
                    <octave>5</octave>
                </pitch>
                <duration>1</duration>
                <instrument id="P1-I2"/>
                <voice>1</voice>
                <type>eighth</type>
                <stem default-y="-50">down</stem>
                <beam number="1">begin</beam>
                <lyric default-y="-75" number="1">
                    <syllabic>begin</syllabic>
                    <text>cha</text>
                </lyric>
            </note>
            <note default-x="179">
                <pitch>
                    <step>C</step>
                    <octave>5</octave>
                </pitch>
                <duration>1</duration>
                <instrument id="P1-I2"/>
                <voice>1</voice>
                <type>eighth</type>
                <stem default-y="-50">down</stem>
                <beam number="1">end</beam>
                <lyric default-y="-75" number="1">
                    <syllabic>middle</syllabic>
                    <text>cha</text>
                </lyric>
            </note>
        </measure>
        <measure width="261" number="8">
            <note default-x="18">
                <pitch>
                    <step>C</step>
                    <octave>5</octave>
                </pitch>
                <duration>2</duration>
                <instrument id="P1-I2"/>
                <voice>1</voice>
                <type>quarter</type>
                <stem default-y="-51">down</stem>
                <lyric default-y="-75" number="1">
                    <syllabic>end</syllabic>
                    <text>cha</text>
                </lyric>
            </note>
            <note default-x="68">
                <rest/>
                <duration>1</duration>
                <instrument id="P1-I2"/>
                <voice>1</voice>
                <type>eighth</type>
            </note>
            <note default-x="100">
                <pitch>
                    <step>A</step>
                    <octave>4</octave>
                </pitch>
                <duration>1</duration>
                <instrument id="P1-I2"/>
                <voice>1</voice>
                <type>eighth</type>
                <stem default-y="11">up</stem>
                <lyric default-y="-75" number="1">
                    <syllabic>single</syllabic>
                    <text>que</text>
                </lyric>
            </note>
            <note default-x="138">
                <pitch>
                    <step>B</step>
                    <octave>4</octave>
                </pitch>
                <duration>1</duration>
                <instrument id="P1-I2"/>
                <voice>1</voice>
                <type>eighth</type>
                <stem default-y="15">up</stem>
                <beam number="1">begin</beam>
                <lyric default-y="-75" number="1">
                    <syllabic>begin</syllabic>
                    <text>ri</text>
                </lyric>
            </note>
            <note default-x="163">
                <pitch>
                    <step>B</step>
                    <octave>4</octave>
                </pitch>
                <duration>1</duration>
                <instrument id="P1-I2"/>
                <voice>1</voice>
                <type>eighth</type>
                <stem default-y="15">up</stem>
                <beam number="1">continue</beam>
                <lyric default-y="-75" number="1">
                    <syllabic>end</syllabic>
                    <text>co</text>
                </lyric>
            </note>
            <note default-x="197">
                <pitch>
                    <step>G</step>
                    <octave>4</octave>
                </pitch>
                <duration>1</duration>
                <instrument id="P1-I2"/>
                <voice>1</voice>
                <type>eighth</type>
                <stem default-y="15">up</stem>
                <beam number="1">continue</beam>
                <lyric default-y="-75" number="1">
                    <syllabic>begin</syllabic>
                    <text>cha</text>
                </lyric>
            </note>
            <note default-x="232">
                <pitch>
                    <step>G</step>
                    <octave>4</octave>
                </pitch>
                <duration>1</duration>
                <instrument id="P1-I2"/>
                <voice>1</voice>
                <type>eighth</type>
                <stem default-y="15">up</stem>
                <beam number="1">end</beam>
                <lyric default-y="-75" number="1">
                    <syllabic>middle</syllabic>
                    <text>cha</text>
                </lyric>
            </note>
        </measure>
        <measure width="187" number="9">
            <harmony font-style="normal" font-family="Times New Roman" default-y="30">
                <root>
                    <root-step>G</root-step>
                </root>
                <kind halign="center" text="">major</kind>
            </harmony>
            <note default-x="17">
                <pitch>
                    <step>G</step>
                    <octave>4</octave>
                </pitch>
                <duration>2</duration>
                <instrument id="P1-I2"/>
                <voice>1</voice>
                <type>quarter</type>
                <stem default-y="6">up</stem>
                <lyric default-y="-75" number="1">
                    <syllabic>end</syllabic>
                    <text>cha</text>
                </lyric>
            </note>
            <note default-x="56">
                <rest/>
                <duration>2</duration>
                <instrument id="P1-I2"/>
                <voice>1</voice>
                <type>quarter</type>
            </note>
            <note default-x="94">
                <rest/>
                <duration>2</duration>
                <instrument id="P1-I2"/>
                <voice>1</voice>
                <type>quarter</type>
            </note>
            <note default-x="133">
                <pitch>
                    <step>G</step>
                    <octave>4</octave>
                </pitch>
                <duration>1</duration>
                <instrument id="P1-I2"/>
                <voice>1</voice>
                <type>eighth</type>
                <stem default-y="5">up</stem>
                <beam number="1">begin</beam>
                <lyric default-y="-75" number="1">
                    <syllabic>single</syllabic>
                    <text>A</text>
                </lyric>
            </note>
            <note default-x="157">
                <pitch>
                    <step>A</step>
                    <octave>4</octave>
                </pitch>
                <duration>1</duration>
                <instrument id="P1-I2"/>
                <voice>1</voice>
                <type>eighth</type>
                <stem default-y="10">up</stem>
                <beam number="1">end</beam>
                <lyric default-y="-75" number="1">
                    <syllabic>single</syllabic>
                    <text>la</text>
                </lyric>
            </note>
            <barline location="right">
                <bar-style>light-light</bar-style>
            </barline>
        </measure>
        <measure width="308" number="10">
            <print new-system="yes">
                <system-layout>
                    <system-distance>128</system-distance>
                </system-layout>
            </print>
            <note default-x="87">
                <pitch>
                    <step>B</step>
                    <octave>4</octave>
                </pitch>
                <duration>2</duration>
                <instrument id="P1-I2"/>
                <voice>1</voice>
                <type>quarter</type>
                <stem default-y="-55.5">down</stem>
                <lyric default-y="-75" number="1">
                    <syllabic>begin</syllabic>
                    <text>Prie</text>
                </lyric>
            </note>
            <note default-x="131">
                <pitch>
                    <step>B</step>
                    <octave>4</octave>
                </pitch>
                <duration>1</duration>
                <instrument id="P1-I2"/>
                <voice>1</voice>
                <type>eighth</type>
                <stem default-y="-55">down</stem>
                <beam number="1">begin</beam>
                <lyric default-y="-75" number="1">
                    <syllabic>end</syllabic>
                    <text>tahay</text>
                </lyric>
            </note>
            <note default-x="177">
                <pitch>
                    <step>B</step>
                    <octave>4</octave>
                </pitch>
                <duration>1</duration>
                <instrument id="P1-I2"/>
                <voice>1</voice>
                <type>eighth</type>
                <stem default-y="-55">down</stem>
                <beam number="1">end</beam>
                <lyric default-y="-75" number="1">
                    <syllabic>single</syllabic>
                    <text>que</text>
                </lyric>
            </note>
            <note default-x="215">
                <pitch>
                    <step>B</step>
                    <octave>4</octave>
                </pitch>
                <duration>2</duration>
                <instrument id="P1-I2"/>
                <voice>1</voice>
                <type>quarter</type>
                <stem default-y="-55.5">down</stem>
                <lyric default-y="-75" number="1">
                    <syllabic>begin</syllabic>
                    <text>dar</text>
                </lyric>
            </note>
            <note default-x="258">
                <pitch>
                    <step>C</step>
                    <octave>5</octave>
                </pitch>
                <duration>1</duration>
                <instrument id="P1-I2"/>
                <voice>1</voice>
                <type>eighth</type>
                <stem default-y="-50">down</stem>
                <beam number="1">begin</beam>
                <lyric default-y="-75" number="1">
                    <syllabic>end</syllabic>
                    <text>le</text>
                </lyric>
            </note>
            <note default-x="285">
                <pitch>
                    <step>D</step>
                    <octave>5</octave>
                </pitch>
                <duration>1</duration>
                <instrument id="P1-I2"/>
                <voice>1</voice>
                <type>eighth</type>
                <stem default-y="-45">down</stem>
                <beam number="1">end</beam>
                <lyric default-y="-75" number="1">
                    <syllabic>begin</syllabic>
                    <text>ca</text>
                </lyric>
            </note>
        </measure>
        <measure width="221" number="11">
            <harmony font-style="normal" font-family="Times New Roman" default-y="30">
                <root>
                    <root-step>D</root-step>
                </root>
                <kind halign="center" text="7">dominant</kind>
            </harmony>
            <note default-x="23">
                <pitch>
                    <step>B</step>
                    <octave>4</octave>
                </pitch>
                <duration>4</duration>
                <instrument id="P1-I2"/>
                <voice>1</voice>
                <type>half</type>
                <stem default-y="-55.5">down</stem>
                <notations>
                    <slur placement="above" type="start" number="1"/>
                </notations>
                <lyric default-y="-75" number="1">
                    <syllabic>middle</syllabic>
                    <text>ri</text>
                </lyric>
            </note>
            <note default-x="126">
                <pitch>
                    <step>A</step>
                    <octave>4</octave>
                </pitch>
                <duration>1</duration>
                <instrument id="P1-I2"/>
                <voice>1</voice>
                <type>eighth</type>
                <stem default-y="10">up</stem>
                <beam number="1">begin</beam>
                <notations>
                    <slur type="stop" number="1"/>
                </notations>
                <lyric default-y="-75" number="1">
                    <syllabic>end</syllabic>
                    <text>ño</text>
                </lyric>
            </note>
            <note default-x="152">
                <rest/>
                <duration>1</duration>
                <instrument id="P1-I2"/>
                <voice>1</voice>
                <type>eighth</type>
            </note>
            <note default-x="174">
                <pitch>
                    <step>A</step>
                    <octave>4</octave>
                </pitch>
                <duration>1</duration>
                <instrument id="P1-I2"/>
                <voice>1</voice>
                <type>eighth</type>
                <stem default-y="14">up</stem>
                <beam number="1">continue</beam>
                <lyric default-y="-75" number="1">
                    <syllabic>single</syllabic>
                    <text>a</text>
                </lyric>
            </note>
            <note default-x="196">
                <pitch>
                    <step>B</step>
                    <octave>4</octave>
                </pitch>
                <duration>1</duration>
                <instrument id="P1-I2"/>
                <voice>1</voice>
                <type>eighth</type>
                <stem default-y="15">up</stem>
                <beam number="1">end</beam>
                <lyric default-y="-75" number="1">
                    <syllabic>single</syllabic>
                    <text>la</text>
                </lyric>
            </note>
        </measure>
        <measure width="237" number="12">
            <note default-x="23">
                <pitch>
                    <step>C</step>
                    <octave>5</octave>
                </pitch>
                <duration>2</duration>
                <instrument id="P1-I2"/>
                <voice>1</voice>
                <type>quarter</type>
                <stem default-y="-51">down</stem>
                <lyric default-y="-75" number="1">
                    <syllabic>begin</syllabic>
                    <text>Chi</text>
                </lyric>
            </note>
            <note default-x="66">
                <pitch>
                    <step>C</step>
                    <octave>5</octave>
                </pitch>
                <duration>1</duration>
                <instrument id="P1-I2"/>
                <voice>1</voice>
                <type>eighth</type>
                <stem default-y="-50">down</stem>
                <beam number="1">begin</beam>
                <lyric default-y="-75" number="1">
                    <syllabic>end</syllabic>
                    <text>na</text>
                </lyric>
            </note>
            <note default-x="97">
                <pitch>
                    <step>C</step>
                    <octave>5</octave>
                </pitch>
                <duration>1</duration>
                <instrument id="P1-I2"/>
                <voice>1</voice>
                <type>eighth</type>
                <stem default-y="-50">down</stem>
                <beam number="1">end</beam>
                <lyric default-y="-75" number="1">
                    <syllabic>begin</syllabic>
                    <text>tre</text>
                </lyric>
            </note>
            <note default-x="135">
                <pitch>
                    <step>C</step>
                    <octave>5</octave>
                </pitch>
                <duration>2</duration>
                <instrument id="P1-I2"/>
                <voice>1</voice>
                <type>quarter</type>
                <stem default-y="-51">down</stem>
                <lyric default-y="-75" number="1">
                    <syllabic>end</syllabic>
                    <text>men</text>
                </lyric>
            </note>
            <note default-x="178">
                <pitch>
                    <step>B</step>
                    <octave>4</octave>
                </pitch>
                <duration>1</duration>
                <instrument id="P1-I2"/>
                <voice>1</voice>
                <type>eighth</type>
                <stem default-y="-55">down</stem>
                <beam number="1">begin</beam>
                <lyric default-y="-75" number="1">
                    <syllabic>begin</syllabic>
                    <text>doa</text>
                </lyric>
            </note>
            <note default-x="211">
                <pitch>
                    <step>C</step>
                    <octave>5</octave>
                </pitch>
                <duration>1</duration>
                <instrument id="P1-I2"/>
                <voice>1</voice>
                <type>eighth</type>
                <stem default-y="-50">down</stem>
                <beam number="1">end</beam>
                <lyric default-y="-75" number="1">
                    <syllabic>middle</syllabic>
                    <text>pre</text>
                </lyric>
            </note>
        </measure>
        <measure width="217" number="13">
            <harmony font-style="normal" font-family="Times New Roman" default-y="30">
                <root>
                    <root-step>G</root-step>
                </root>
                <kind halign="center" text="">major</kind>
            </harmony>
            <note default-x="23">
                <pitch>
                    <step>D</step>
                    <octave>5</octave>
                </pitch>
                <duration>4</duration>
                <instrument id="P1-I2"/>
                <voice>1</voice>
                <type>half</type>
                <stem default-y="-46">down</stem>
                <lyric default-y="-75" number="1">
                    <syllabic>end</syllabic>
                    <text>ton</text>
                </lyric>
            </note>
            <note default-x="126">
                <rest/>
                <duration>2</duration>
                <instrument id="P1-I2"/>
                <voice>1</voice>
                <type>quarter</type>
            </note>
            <note default-x="169">
                <pitch>
                    <step>G</step>
                    <octave>4</octave>
                </pitch>
                <duration>1</duration>
                <instrument id="P1-I2"/>
                <voice>1</voice>
                <type>eighth</type>
                <stem default-y="5">up</stem>
                <beam number="1">begin</beam>
                <lyric default-y="-75" number="1">
                    <syllabic>single</syllabic>
                    <text>a</text>
                </lyric>
            </note>
            <note default-x="192">
                <pitch>
                    <step>A</step>
                    <octave>4</octave>
                </pitch>
                <duration>1</duration>
                <instrument id="P1-I2"/>
                <voice>1</voice>
                <type>eighth</type>
                <stem default-y="10">up</stem>
                <beam number="1">end</beam>
                <lyric default-y="-75" number="1">
                    <syllabic>single</syllabic>
                    <text>la</text>
                </lyric>
            </note>
        </measure>
        <measure width="401" number="14">
            <print new-system="yes">
                <system-layout>
                    <system-margins>
                        <left-margin>0</left-margin>
                        <right-margin>6</right-margin>
                    </system-margins>
                    <system-distance>111</system-distance>
                </system-layout>
            </print>
            <harmony font-style="normal" font-family="Times New Roman" default-y="30">
                <root>
                    <root-step>E</root-step>
                </root>
                <kind halign="center" text="m">minor</kind>
            </harmony>
            <note default-x="87">
                <pitch>
                    <step>B</step>
                    <octave>4</octave>
                </pitch>
                <duration>2</duration>
                <instrument id="P1-I2"/>
                <voice>1</voice>
                <type>quarter</type>
                <stem default-y="-55.5">down</stem>
                <lyric default-y="-75" number="1">
                    <syllabic>begin</syllabic>
                    <text>Ru</text>
                </lyric>
            </note>
            <note default-x="157">
                <pitch>
                    <step>B</step>
                    <octave>4</octave>
                </pitch>
                <duration>1</duration>
                <instrument id="P1-I2"/>
                <voice>1</voice>
                <type>eighth</type>
                <stem default-y="-55">down</stem>
                <beam number="1">begin</beam>
                <lyric default-y="-75" number="1">
                    <syllabic>end</syllabic>
                    <text>biahay</text>
                </lyric>
            </note>
            <note default-x="207">
                <pitch>
                    <step>B</step>
                    <octave>4</octave>
                </pitch>
                <duration>1</duration>
                <instrument id="P1-I2"/>
                <voice>1</voice>
                <type>eighth</type>
                <stem default-y="-55">down</stem>
                <beam number="1">end</beam>
                <lyric default-y="-75" number="1">
                    <syllabic>single</syllabic>
                    <text>que</text>
                </lyric>
            </note>
            <harmony font-style="normal" font-family="Times New Roman" default-y="30">
                <root>
                    <root-step>E</root-step>
                </root>
                <kind halign="center" text="m">minor</kind>
                <bass>
                    <bass-step>D</bass-step>
                </bass>
            </harmony>
            <note default-x="251">
                <pitch>
                    <step>B</step>
                    <octave>4</octave>
                </pitch>
                <duration>2</duration>
                <instrument id="P1-I2"/>
                <voice>1</voice>
                <type>quarter</type>
                <stem default-y="-55.5">down</stem>
                <lyric default-y="-75" number="1">
                    <syllabic>begin</syllabic>
                    <text>dar</text>
                </lyric>
            </note>
            <note default-x="321">
                <pitch>
                    <step>B</step>
                    <octave>4</octave>
                </pitch>
                <duration>1</duration>
                <instrument id="P1-I2"/>
                <voice>1</voice>
                <type>eighth</type>
                <stem default-y="15">up</stem>
                <beam number="1">begin</beam>
                <lyric default-y="-75" number="1">
                    <syllabic>end</syllabic>
                    <text>leun</text>
                </lyric>
            </note>
            <note default-x="364">
                <pitch>
                    <step>A</step>
                    <octave>4</octave>
                </pitch>
                <duration>1</duration>
                <instrument id="P1-I2"/>
                <voice>1</voice>
                <type>eighth</type>
                <stem default-y="10">up</stem>
                <beam number="1">end</beam>
                <lyric default-y="-75" number="1">
                    <syllabic>begin</syllabic>
                    <text>be</text>
                </lyric>
            </note>
        </measure>
        <measure width="281" number="15">
            <harmony font-style="normal" font-family="Times New Roman" default-y="30">
                <root>
                    <root-step>A</root-step>
                </root>
                <kind halign="center" text="7">dominant</kind>
                <bass>
                    <bass-step>C</bass-step>
                    <bass-alter>1</bass-alter>
                </bass>
            </harmony>
            <note default-x="23">
                <pitch>
                    <step>G</step>
                    <octave>4</octave>
                </pitch>
                <duration>4</duration>
                <instrument id="P1-I2"/>
                <voice>1</voice>
                <type>half</type>
                <stem default-y="6">up</stem>
                <lyric default-y="-75" number="1">
                    <syllabic>middle</syllabic>
                    <text>si</text>
                </lyric>
            </note>
            <note default-x="152">
                <pitch>
                    <step>E</step>
                    <octave>4</octave>
                </pitch>
                <duration>1</duration>
                <instrument id="P1-I2"/>
                <voice>1</voice>
                <type>eighth</type>
                <stem default-y="-5">up</stem>
                <beam number="1">begin</beam>
                <lyric default-y="-75" number="1">
                    <syllabic>end</syllabic>
                    <text>to</text>
                </lyric>
            </note>
            <note default-x="183">
                <rest/>
                <duration>1</duration>
                <instrument id="P1-I2"/>
                <voice>1</voice>
                <type>eighth</type>
            </note>
            <note default-x="216">
                <pitch>
                    <step>E</step>
                    <octave>4</octave>
                </pitch>
                <duration>1</duration>
                <instrument id="P1-I2"/>
                <voice>1</voice>
                <type>eighth</type>
                <stem default-y="-5">up</stem>
                <beam number="1">continue</beam>
                <lyric default-y="-75" number="1">
                    <syllabic>begin</syllabic>
                    <text>pe</text>
                </lyric>
            </note>
            <note default-x="248">
                <pitch>
                    <step>E</step>
                    <octave>4</octave>
                </pitch>
                <duration>1</duration>
                <instrument id="P1-I2"/>
                <voice>1</voice>
                <type>eighth</type>
                <stem default-y="-5">up</stem>
                <beam number="1">end</beam>
                <lyric default-y="-75" number="1">
                    <syllabic>end</syllabic>
                    <text>ro</text>
                </lyric>
            </note>
        </measure>
        <measure width="296" number="16">
            <harmony font-style="normal" font-family="Times New Roman" default-y="30">
                <root>
                    <root-step>A</root-step>
                </root>
                <kind halign="center" text="m7">minor-seventh</kind>
            </harmony>
            <note default-x="13">
                <pitch>
                    <step>B</step>
                    <octave>4</octave>
                </pitch>
                <duration>2</duration>
                <instrument id="P1-I2"/>
                <voice>1</voice>
                <type>quarter</type>
                <stem default-y="-55.5">down</stem>
                <lyric default-y="-75" number="1">
                    <syllabic>begin</syllabic>
                    <text>to</text>
                </lyric>
            </note>
            <note default-x="81">
                <pitch>
                    <step>B</step>
                    <octave>4</octave>
                </pitch>
                <duration>1</duration>
                <instrument id="P1-I2"/>
                <voice>1</voice>
                <type>eighth</type>
                <stem default-y="-55">down</stem>
                <beam number="1">begin</beam>
                <lyric default-y="-75" number="1">
                    <syllabic>end</syllabic>
                    <text>das</text>
                </lyric>
            </note>
            <note default-x="117">
                <pitch>
                    <step>B</step>
                    <octave>4</octave>
                </pitch>
                <duration>1</duration>
                <tie type="start"/>
                <instrument id="P1-I2"/>
                <voice>1</voice>
                <type>eighth</type>
                <stem default-y="-55">down</stem>
                <beam number="1">end</beam>
                <notations>
                    <tied type="start"/>
                </notations>
                <lyric default-y="-75" number="1">
                    <syllabic>begin</syllabic>
                    <text>go</text>
                </lyric>
            </note>
            <note default-x="155">
                <pitch>
                    <step>B</step>
                    <octave>4</octave>
                </pitch>
                <duration>1</duration>
                <tie type="stop"/>
                <instrument id="P1-I2"/>
                <voice>1</voice>
                <type>eighth</type>
                <stem default-y="-55.5">down</stem>
                <notations>
                    <tied type="stop"/>
                </notations>
            </note>
            <note default-x="190">
                <pitch>
                    <step>A</step>
                    <octave>4</octave>
                </pitch>
                <duration>2</duration>
                <instrument id="P1-I2"/>
                <voice>1</voice>
                <type>quarter</type>
                <stem default-y="11">up</stem>
                <lyric default-y="-75" number="1">
                    <syllabic>end</syllabic>
                    <text>zan</text>
                </lyric>
            </note>
            <note default-x="258">
                <pitch>
                    <step>G</step>
                    <octave>4</octave>
                </pitch>
                <duration>1</duration>
                <instrument id="P1-I2"/>
                <voice>1</voice>
                <type>eighth</type>
                <stem default-y="6">up</stem>
                <lyric default-y="-75" number="1">
                    <syllabic>single</syllabic>
                    <text>el</text>
                </lyric>
            </note>
        </measure>
        <measure width="371" number="17">
            <print new-system="yes">
                <system-layout>
                    <system-distance>127</system-distance>
                </system-layout>
            </print>
            <harmony font-style="normal" font-family="Times New Roman" default-y="30">
                <root>
                    <root-step>D</root-step>
                </root>
                <kind halign="center" text="7">dominant</kind>
            </harmony>
            <note default-x="78">
                <pitch>
                    <step>A</step>
                    <octave>4</octave>
                </pitch>
                <duration>2</duration>
                <instrument id="P1-I2"/>
                <voice>1</voice>
                <type>quarter</type>
                <stem default-y="11">up</stem>
                <lyric default-y="-75" number="1">
                    <syllabic>begin</syllabic>
                    <text>va</text>
                </lyric>
            </note>
            <note default-x="139">
                <pitch>
                    <step>B</step>
                    <octave>4</octave>
                </pitch>
                <duration>1</duration>
                <instrument id="P1-I2"/>
                <voice>1</voice>
                <type>eighth</type>
                <stem default-y="15">up</stem>
                <beam number="1">begin</beam>
                <lyric default-y="-75" number="1">
                    <syllabic>middle</syllabic>
                    <text>ci</text>
                </lyric>
            </note>
            <note default-x="169">
                <pitch>
                    <step>A</step>
                    <octave>4</octave>
                </pitch>
                <duration>1</duration>
                <tie type="start"/>
                <instrument id="P1-I2"/>
                <voice>1</voice>
                <type>eighth</type>
                <stem default-y="10">up</stem>
                <beam number="1">end</beam>
                <notations>
                    <tied type="start"/>
                </notations>
                <lyric justify="left" default-y="-75" number="1">
                    <syllabic>end</syllabic>
                    <text>lon</text>
                    <extend/>
                </lyric>
            </note>
            <note default-x="220">
                <pitch>
                    <step>A</step>
                    <octave>4</octave>
                </pitch>
                <duration>1</duration>
                <tie type="stop"/>
                <instrument id="P1-I2"/>
                <voice>1</voice>
                <type>eighth</type>
                <stem default-y="10">up</stem>
                <beam number="1">begin</beam>
                <notations>
                    <tied type="stop"/>
                </notations>
            </note>
            <note default-x="250">
                <rest/>
                <duration>1</duration>
                <instrument id="P1-I2"/>
                <voice>1</voice>
                <type>eighth</type>
            </note>
            <note default-x="281">
                <pitch>
                    <step>G</step>
                    <octave>4</octave>
                </pitch>
                <duration>1</duration>
                <instrument id="P1-I2"/>
                <voice>1</voice>
                <type>eighth</type>
                <stem default-y="7">up</stem>
                <beam number="1">continue</beam>
                <lyric default-y="-75" number="1">
                    <syllabic>begin</syllabic>
                    <text>Va</text>
                </lyric>
            </note>
            <note default-x="313">
                <pitch>
                    <step>G</step>
                    <octave>4</octave>
                </pitch>
                <duration>1</duration>
                <instrument id="P1-I2"/>
                <voice>1</voice>
                <type>eighth</type>
                <stem default-y="5">up</stem>
                <beam number="1">end</beam>
                <lyric default-y="-75" number="1">
                    <syllabic>middle</syllabic>
                    <text>ci</text>
                </lyric>
            </note>
            <barline location="right">
                <bar-style>light-heavy</bar-style>
                <repeat direction="backward"/>
            </barline>
        </measure>
        <measure width="296" number="18">
            <harmony font-style="normal" font-family="Times New Roman" default-y="30">
                <root>
                    <root-step>G</root-step>
                </root>
                <kind halign="center" text="">major</kind>
            </harmony>
            <note default-x="8">
                <pitch>
                    <step>G</step>
                    <octave>4</octave>
                </pitch>
                <duration>2</duration>
                <instrument id="P1-I2"/>
                <voice>1</voice>
                <type>quarter</type>
                <stem default-y="6">up</stem>
                <lyric default-y="-75" number="1">
                    <syllabic>end</syllabic>
                    <text>lon</text>
                </lyric>
            </note>
            <note default-x="78">
                <rest/>
                <duration>1</duration>
                <instrument id="P1-I2"/>
                <voice>1</voice>
                <type>eighth</type>
            </note>
            <note default-x="114">
                <pitch>
                    <step>F</step>
                    <alter>1</alter>
                    <octave>4</octave>
                </pitch>
                <duration>1</duration>
                <instrument id="P1-I2"/>
                <voice>1</voice>
                <type>eighth</type>
                <stem default-y="1">up</stem>
                <lyric default-y="-75" number="1">
                    <syllabic>single</syllabic>
                    <text>que</text>
                </lyric>
            </note>
            <note default-x="152">
                <pitch>
                    <step>A</step>
                    <octave>4</octave>
                </pitch>
                <duration>1</duration>
                <instrument id="P1-I2"/>
                <voice>1</voice>
                <type>eighth</type>
                <stem default-y="10">up</stem>
                <beam number="1">begin</beam>
                <lyric default-y="-75" number="1">
                    <syllabic>begin</syllabic>
                    <text>ri</text>
                </lyric>
            </note>
            <note default-x="187">
                <pitch>
                    <step>A</step>
                    <octave>4</octave>
                </pitch>
                <duration>1</duration>
                <instrument id="P1-I2"/>
                <voice>1</voice>
                <type>eighth</type>
                <stem default-y="10">up</stem>
                <beam number="1">continue</beam>
                <lyric default-y="-75" number="1">
                    <syllabic>end</syllabic>
                    <text>co</text>
                </lyric>
            </note>
            <note default-x="224">
                <pitch>
                    <step>D</step>
                    <octave>4</octave>
                </pitch>
                <duration>1</duration>
                <instrument id="P1-I2"/>
                <voice>1</voice>
                <type>eighth</type>
                <stem default-y="10">up</stem>
                <beam number="1">continue</beam>
                <lyric default-y="-75" number="1">
                    <syllabic>begin</syllabic>
                    <text>va</text>
                </lyric>
            </note>
            <note default-x="260">
                <pitch>
                    <step>D</step>
                    <octave>4</octave>
                </pitch>
                <duration>1</duration>
                <instrument id="P1-I2"/>
                <voice>1</voice>
                <type>eighth</type>
                <stem default-y="10">up</stem>
                <beam number="1">end</beam>
                <lyric default-y="-75" number="1">
                    <syllabic>middle</syllabic>
                    <text>ci</text>
                </lyric>
            </note>
        </measure>
        <measure width="316" number="19">
            <harmony font-style="normal" font-family="Times New Roman" default-y="30">
                <root>
                    <root-step>D</root-step>
                </root>
                <kind halign="center" text="7">dominant</kind>
            </harmony>
            <note default-x="16">
                <pitch>
                    <step>D</step>
                    <octave>4</octave>
                </pitch>
                <duration>2</duration>
                <instrument id="P1-I2"/>
                <voice>1</voice>
                <type>quarter</type>
                <stem default-y="-9">up</stem>
                <lyric default-y="-75" number="1">
                    <syllabic>end</syllabic>
                    <text>lon</text>
                </lyric>
            </note>
            <note default-x="90">
                <rest/>
                <duration>2</duration>
                <instrument id="P1-I2"/>
                <voice>1</voice>
                <type>quarter</type>
            </note>
            <note default-x="165">
                <rest/>
                <duration>2</duration>
                <instrument id="P1-I2"/>
                <voice>1</voice>
                <type>quarter</type>
            </note>
            <note default-x="239">
                <pitch>
                    <step>C</step>
                    <octave>5</octave>
                </pitch>
                <duration>1</duration>
                <instrument id="P1-I2"/>
                <voice>1</voice>
                <type>eighth</type>
                <stem default-y="-50">down</stem>
                <beam number="1">begin</beam>
                <lyric default-y="-75" number="1">
                    <syllabic>begin</syllabic>
                    <text>Cha</text>
                </lyric>
            </note>
            <note default-x="277">
                <pitch>
                    <step>C</step>
                    <octave>5</octave>
                </pitch>
                <duration>1</duration>
                <instrument id="P1-I2"/>
                <voice>1</voice>
                <type>eighth</type>
                <stem default-y="-50">down</stem>
                <beam number="1">end</beam>
                <lyric default-y="-75" number="1">
                    <syllabic>middle</syllabic>
                    <text>cha</text>
                </lyric>
            </note>
        </measure>
        <measure width="554" number="20">
            <print new-system="yes">
                <system-layout>
                    <system-margins>
                        <left-margin>0</left-margin>
                        <right-margin>1</right-margin>
                    </system-margins>
                    <system-distance>127</system-distance>
                </system-layout>
            </print>
            <note default-x="82">
                <pitch>
                    <step>C</step>
                    <octave>5</octave>
                </pitch>
                <duration>2</duration>
                <instrument id="P1-I2"/>
                <voice>1</voice>
                <type>quarter</type>
                <stem default-y="-51">down</stem>
                <lyric default-y="-75" number="1">
                    <syllabic>end</syllabic>
                    <text>cha</text>
                </lyric>
            </note>
            <note default-x="198">
                <rest/>
                <duration>1</duration>
                <instrument id="P1-I2"/>
                <voice>1</voice>
                <type>eighth</type>
            </note>
            <note default-x="256">
                <pitch>
                    <step>A</step>
                    <octave>4</octave>
                </pitch>
                <duration>1</duration>
                <instrument id="P1-I2"/>
                <voice>1</voice>
                <type>eighth</type>
                <stem default-y="11">up</stem>
                <lyric default-y="-75" number="1">
                    <syllabic>single</syllabic>
                    <text>que</text>
                </lyric>
            </note>
            <note default-x="314">
                <pitch>
                    <step>B</step>
                    <octave>4</octave>
                </pitch>
                <duration>1</duration>
                <instrument id="P1-I2"/>
                <voice>1</voice>
                <type>eighth</type>
                <stem default-y="15">up</stem>
                <beam number="1">begin</beam>
                <lyric default-y="-75" number="1">
                    <syllabic>begin</syllabic>
                    <text>ri</text>
                </lyric>
            </note>
            <note default-x="372">
                <pitch>
                    <step>B</step>
                    <octave>4</octave>
                </pitch>
                <duration>1</duration>
                <instrument id="P1-I2"/>
                <voice>1</voice>
                <type>eighth</type>
                <stem default-y="15">up</stem>
                <beam number="1">continue</beam>
                <lyric default-y="-75" number="1">
                    <syllabic>end</syllabic>
                    <text>co</text>
                </lyric>
            </note>
            <note default-x="430">
                <pitch>
                    <step>G</step>
                    <octave>4</octave>
                </pitch>
                <duration>1</duration>
                <instrument id="P1-I2"/>
                <voice>1</voice>
                <type>eighth</type>
                <stem default-y="15">up</stem>
                <beam number="1">continue</beam>
                <lyric default-y="-75" number="1">
                    <syllabic>begin</syllabic>
                    <text>cha</text>
                </lyric>
            </note>
            <note default-x="488">
                <pitch>
                    <step>G</step>
                    <octave>4</octave>
                </pitch>
                <duration>1</duration>
                <instrument id="P1-I2"/>
                <voice>1</voice>
                <type>eighth</type>
                <stem default-y="15">up</stem>
                <beam number="1">end</beam>
                <lyric default-y="-75" number="1">
                    <syllabic>middle</syllabic>
                    <text>cha</text>
                </lyric>
            </note>
            <barline location="right">
                <bar-style>light-light</bar-style>
            </barline>
        </measure>
        <measure width="428" number="21">
            <harmony font-style="normal" font-family="Times New Roman" default-y="30">
                <root>
                    <root-step>G</root-step>
                </root>
                <kind halign="center" text="">major</kind>
            </harmony>
            <note default-x="18">
                <pitch>
                    <step>G</step>
                    <octave>4</octave>
                </pitch>
                <duration>2</duration>
                <instrument id="P1-I2"/>
                <voice>1</voice>
                <type>quarter</type>
                <stem default-y="6">up</stem>
                <lyric default-y="-75" number="1">
                    <syllabic>end</syllabic>
                    <text>cha.</text>
                </lyric>
            </note>
            <note default-x="120">
                <rest/>
                <duration>2</duration>
                <instrument id="P1-I2"/>
                <voice>1</voice>
                <type>quarter</type>
            </note>
            <note default-x="221">
                <rest/>
                <duration>2</duration>
                <instrument id="P1-I2"/>
                <voice>1</voice>
                <type>quarter</type>
            </note>
            <note default-x="321">
                <rest/>
                <duration>2</duration>
                <instrument id="P1-I2"/>
                <voice>1</voice>
                <type>quarter</type>
            </note>
            <barline location="right">
                <bar-style>light-light</bar-style>
            </barline>
        </measure>
    </part>
</score-partwise>
