<?xml version="1.0" encoding="UTF-8"?>
<!DOCTYPE score-partwise PUBLIC "-//Recordare//DTD MusicXML 2.0 Partwise//EN" "http://www.musicxml.org/dtds/partwise.dtd">
<score-partwise version="2.0">
    <work>
        <work-number></work-number>
        <work-title></work-title>
    </work>
    <movement-number></movement-number>
    <movement-title>Amazing Grace</movement-title>
    <identification>
        <creator type="composer">Edwin Othello Excell</creator>
        <creator type="poet">John Newton, John P. Rees</creator>
        <rights>Public Domain</rights>
        <encoding>
            <software>Finale for Windows</software>
            <software>Dolet 4.5 for Finale</software>
            <encoding-date>2010-06-18</encoding-date>
            <supports value="yes" type="yes" element="print" attribute="new-system"/>
            <supports value="yes" type="yes" element="print" attribute="new-page"/>
            <software>ProxyMusic 2.0 c</software>
        </encoding>
        <source>http://wikifonia.org/node/6911/revisions/9544/view</source>
    </identification>
    <defaults>
        <scaling>
            <millimeters>6.5088</millimeters>
            <tenths>40</tenths>
        </scaling>
        <page-layout>
            <page-height>1771</page-height>
            <page-width>1308</page-width>
            <page-margins type="both">
                <left-margin>78</left-margin>
                <right-margin>78</right-margin>
                <top-margin>78</top-margin>
                <bottom-margin>78</bottom-margin>
            </page-margins>
        </page-layout>
        <system-layout>
            <system-margins>
                <left-margin>0</left-margin>
                <right-margin>0</right-margin>
            </system-margins>
            <system-distance>293</system-distance>
            <top-system-distance>220</top-system-distance>
        </system-layout>
        <appearance>
            <line-width type="stem">1.1074</line-width>
            <line-width type="beam">3.7969</line-width>
            <line-width type="staff">0.9492</line-width>
            <line-width type="light barline">1.1074</line-width>
            <line-width type="heavy barline">3.7969</line-width>
            <line-width type="leger">1.4238</line-width>
            <line-width type="ending">1.1074</line-width>
            <line-width type="wedge">1.1074</line-width>
            <line-width type="enclosure">1.1074</line-width>
            <line-width type="tuplet bracket">1.1074</line-width>
            <note-size type="grace">50</note-size>
            <note-size type="cue">50</note-size>
        </appearance>
        <music-font font-size="18.5" font-family="Maestro"/>
        <word-font font-size="9.2" font-family="Arial"/>
        <lyric-font font-size="10.8" font-family="Arial" name="verse"/>
        <lyric-font font-size="10.8" font-family="Arial" name="section"/>
    </defaults>
    <credit page="1">
        <credit-words font-weight="bold" font-size="21.6" default-y="1663" default-x="654" justify="center" valign="top">Amazing Grace</credit-words>
    </credit>
    <credit page="1">
        <credit-words font-weight="bold" font-size="10.8" default-y="1595" default-x="1230" justify="right" valign="top">Words and Music by
John Newton, John P. Rees
and Edwin Othello Excell</credit-words>
    </credit>
    <part-list>
        <score-part id="P1">
            <part-name print-object="no">MusicXML Part</part-name>
            <score-instrument id="P1-I1">
                <instrument-name>Acoustic Grand Piano</instrument-name>
            </score-instrument>
            <midi-instrument id="P1-I1">
                <midi-channel>1</midi-channel>
                <midi-program>1</midi-program>
                <volume>80</volume>
                <pan>0</pan>
            </midi-instrument>
        </score-part>
    </part-list>
    <part id="P1">
        <measure width="239" number="0" implicit="yes">
            <print>
                <system-layout>
                    <system-margins>
                        <left-margin>68</left-margin>
                        <right-margin>0</right-margin>
                    </system-margins>
                    <top-system-distance>256</top-system-distance>
                </system-layout>
            </print>
            <attributes>
                <divisions>2</divisions>
                <key>
                    <fifths>1</fifths>
                    <mode>major</mode>
                </key>
                <time>
                    <beats>3</beats>
                    <beat-type>4</beat-type>
                </time>
                <clef>
                    <sign>G</sign>
                    <line>2</line>
                </clef>
            </attributes>
            <sound tempo="80"/>
            <harmony font-weight="bold" font-size="10" default-y="29">
                <root>
                    <root-step>G</root-step>
                </root>
                <kind halign="center" text="">major</kind>
            </harmony>
            <note default-x="143">
                <pitch>
                    <step>D</step>
                    <octave>4</octave>
                </pitch>
                <duration>2</duration>
                <voice>1</voice>
                <type>quarter</type>
                <stem default-y="-9">up</stem>
                <lyric relative-x="-29" default-y="-95" number="1" name="verse">
                    <syllabic>single</syllabic>
                    <text font-size="10.8">1.</text>
                    <elision> </elision>
                    <syllabic>single</syllabic>
                    <text font-size="10.8"></text>
                    <elision> </elision>
                    <syllabic>single</syllabic>
                    <text font-size="10.8"></text>
                    <elision> </elision>
                    <syllabic>begin</syllabic>
                    <text font-size="10.8">A</text>
                </lyric>
                <lyric relative-x="-13" default-y="-120" number="2" name="verse">
                    <syllabic>single</syllabic>
                    <text font-size="10.8">2.</text>
                    <elision> </elision>
                    <syllabic>single</syllabic>
                    <text font-size="10.8">’Twas</text>
                </lyric>
                <lyric relative-x="-23" default-y="-145" number="3" name="verse">
                    <syllabic>single</syllabic>
                    <text font-size="10.8">3.</text>
                    <elision> </elision>
                    <syllabic>single</syllabic>
                    <text font-size="10.8">The</text>
                </lyric>
                <lyric default-y="-169" number="4" name="verse">
                    <syllabic>single</syllabic>
                    <text font-size="10.8">4.</text>
                    <elision> </elision>
                    <syllabic>single</syllabic>
                    <text font-size="10.8">Through</text>
                </lyric>
                <lyric relative-x="-22" default-y="-194" number="5" name="verse">
                    <syllabic>single</syllabic>
                    <text font-size="10.8">5.</text>
                    <elision> </elision>
                    <syllabic>single</syllabic>
                    <text font-size="10.8">Yea</text>
                </lyric>
                <lyric relative-x="-13" default-y="-219" number="6" name="verse">
                    <syllabic>single</syllabic>
                    <text font-size="10.8">6.</text>
                    <elision> </elision>
                    <syllabic>single</syllabic>
                    <text font-size="10.8">When</text>
                </lyric>
            </note>
        </measure>
        <measure width="244" number="1">
            <print new-system="no"/>
            <note default-x="34">
                <pitch>
                    <step>G</step>
                    <octave>4</octave>
                </pitch>
                <duration>4</duration>
                <voice>1</voice>
                <type>half</type>
                <stem default-y="6">up</stem>
                <lyric default-y="-95" number="1" name="verse">
                    <syllabic>middle</syllabic>
                    <text font-size="10.8">maz</text>
                </lyric>
                <lyric default-y="-120" number="2" name="verse">
                    <syllabic>single</syllabic>
                    <text font-size="10.8">grace</text>
                </lyric>
                <lyric default-y="-145" number="3" name="verse">
                    <syllabic>single</syllabic>
                    <text font-size="10.8">Lord</text>
                </lyric>
                <lyric default-y="-169" number="4" name="verse">
                    <syllabic>begin</syllabic>
                    <text font-size="10.8">man</text>
                </lyric>
                <lyric default-y="-194" number="5" name="verse">
                    <syllabic>single</syllabic>
                    <text font-size="10.8">when</text>
                </lyric>
                <lyric default-y="-219" number="6" name="verse">
                    <syllabic>single</syllabic>
                    <text font-size="10.8">we’ve</text>
                </lyric>
            </note>
            <note default-x="142">
                <pitch>
                    <step>B</step>
                    <octave>4</octave>
                </pitch>
                <duration>1</duration>
                <voice>1</voice>
                <type>eighth</type>
                <stem default-y="15">up</stem>
                <beam number="1">begin</beam>
                <notations>
                    <slur placement="below" type="start" number="1"/>
                </notations>
                <lyric default-y="-95" number="1" name="verse">
                    <syllabic>end</syllabic>
                    <text font-size="10.8">ing</text>
                    <extend/>
                </lyric>
                <lyric default-y="-120" number="2" name="verse">
                    <syllabic>single</syllabic>
                    <text font-size="10.8">that</text>
                    <extend/>
                </lyric>
                <lyric default-y="-145" number="3" name="verse">
                    <syllabic>single</syllabic>
                    <text font-size="10.8">has</text>
                    <extend/>
                </lyric>
                <lyric default-y="-169" number="4" name="verse">
                    <syllabic>end</syllabic>
                    <text font-size="10.8">y</text>
                    <extend/>
                </lyric>
                <lyric default-y="-194" number="5" name="verse">
                    <syllabic>single</syllabic>
                    <text font-size="10.8">this</text>
                    <extend/>
                </lyric>
                <lyric default-y="-219" number="6" name="verse">
                    <syllabic>single</syllabic>
                    <text font-size="10.8">been</text>
                    <extend/>
                </lyric>
            </note>
            <harmony font-weight="bold" font-size="10" default-y="29">
                <root>
                    <root-step>G</root-step>
                </root>
                <kind halign="center" text="">major</kind>
                <bass>
                    <bass-step>B</bass-step>
                </bass>
            </harmony>
            <note default-x="200">
                <pitch>
                    <step>G</step>
                    <octave>4</octave>
                </pitch>
                <duration>1</duration>
                <voice>1</voice>
                <type>eighth</type>
                <stem default-y="10">up</stem>
                <beam number="1">end</beam>
                <notations>
                    <slur type="stop" number="1"/>
                </notations>
            </note>
        </measure>
        <measure width="195" number="2">
            <print new-system="no"/>
            <harmony font-weight="bold" font-size="10" default-y="29">
                <root>
                    <root-step>G</root-step>
                </root>
                <kind halign="center" text="">major</kind>
                <bass>
                    <bass-step>D</bass-step>
                </bass>
            </harmony>
            <note default-x="35">
                <pitch>
                    <step>B</step>
                    <octave>4</octave>
                </pitch>
                <duration>4</duration>
                <voice>1</voice>
                <type>half</type>
                <stem default-y="-55">down</stem>
                <lyric default-y="-95" number="1" name="verse">
                    <syllabic>single</syllabic>
                    <text font-size="10.8">grace!</text>
                </lyric>
                <lyric default-y="-120" number="2" name="verse">
                    <syllabic>single</syllabic>
                    <text font-size="10.8">taught</text>
                </lyric>
                <lyric default-y="-145" number="3" name="verse">
                    <syllabic>begin</syllabic>
                    <text font-size="10.8">prom</text>
                </lyric>
                <lyric default-y="-169" number="4" name="verse">
                    <syllabic>begin</syllabic>
                    <text font-size="10.8">dan</text>
                </lyric>
                <lyric default-y="-194" number="5" name="verse">
                    <syllabic>single</syllabic>
                    <text font-size="10.8">flesh</text>
                </lyric>
                <lyric default-y="-219" number="6" name="verse">
                    <syllabic>single</syllabic>
                    <text font-size="10.8">there</text>
                </lyric>
            </note>
            <harmony font-weight="bold" font-size="10" default-y="29">
                <root>
                    <root-step>D</root-step>
                </root>
                <kind halign="center" text="7">dominant</kind>
            </harmony>
            <note default-x="133">
                <pitch>
                    <step>A</step>
                    <octave>4</octave>
                </pitch>
                <duration>2</duration>
                <voice>1</voice>
                <type>quarter</type>
                <stem default-y="11">up</stem>
                <lyric default-y="-95" number="1" name="verse">
                    <syllabic>single</syllabic>
                    <text font-size="10.8">How</text>
                </lyric>
                <lyric default-y="-120" number="2" name="verse">
                    <syllabic>single</syllabic>
                    <text font-size="10.8">my</text>
                </lyric>
                <lyric default-y="-145" number="3" name="verse">
                    <syllabic>end</syllabic>
                    <text font-size="10.8">ised</text>
                </lyric>
                <lyric default-y="-169" number="4" name="verse">
                    <syllabic>end</syllabic>
                    <text font-size="10.8">gers,</text>
                </lyric>
                <lyric default-y="-194" number="5" name="verse">
                    <syllabic>single</syllabic>
                    <text font-size="10.8">and</text>
                </lyric>
                <lyric default-y="-219" number="6" name="verse">
                    <syllabic>single</syllabic>
                    <text font-size="10.8">ten</text>
                </lyric>
            </note>
        </measure>
        <measure width="189" number="3">
            <print new-system="no"/>
            <harmony font-weight="bold" font-size="10" default-y="29">
                <root>
                    <root-step>E</root-step>
                </root>
                <kind halign="center" text="m">minor</kind>
            </harmony>
            <note default-x="34">
                <pitch>
                    <step>G</step>
                    <octave>4</octave>
                </pitch>
                <duration>4</duration>
                <voice>1</voice>
                <type>half</type>
                <stem default-y="6">up</stem>
                <lyric default-y="-95" number="1" name="verse">
                    <syllabic>single</syllabic>
                    <text font-size="10.8">sweet</text>
                </lyric>
                <lyric default-y="-120" number="2" name="verse">
                    <syllabic>single</syllabic>
                    <text font-size="10.8">heart</text>
                </lyric>
                <lyric default-y="-145" number="3" name="verse">
                    <syllabic>single</syllabic>
                    <text font-size="10.8">good</text>
                </lyric>
                <lyric default-y="-169" number="4" name="verse">
                    <syllabic>single</syllabic>
                    <text font-size="10.8">toils</text>
                </lyric>
                <lyric default-y="-194" number="5" name="verse">
                    <syllabic>single</syllabic>
                    <text font-size="10.8">heart</text>
                </lyric>
                <lyric default-y="-219" number="6" name="verse">
                    <syllabic>begin</syllabic>
                    <text font-size="10.8">thou</text>
                </lyric>
            </note>
            <harmony font-weight="bold" font-size="10" default-y="29">
                <root>
                    <root-step>C</root-step>
                </root>
                <kind halign="center" text="">major</kind>
            </harmony>
            <note default-x="128">
                <pitch>
                    <step>E</step>
                    <octave>4</octave>
                </pitch>
                <duration>2</duration>
                <voice>1</voice>
                <type>quarter</type>
                <stem default-y="-4">up</stem>
                <lyric default-y="-95" number="1" name="verse">
                    <syllabic>single</syllabic>
                    <text font-size="10.8">the</text>
                </lyric>
                <lyric default-y="-120" number="2" name="verse">
                    <syllabic>single</syllabic>
                    <text font-size="10.8">to</text>
                </lyric>
                <lyric default-y="-145" number="3" name="verse">
                    <syllabic>single</syllabic>
                    <text font-size="10.8">to</text>
                </lyric>
                <lyric default-y="-169" number="4" name="verse">
                    <syllabic>single</syllabic>
                    <text font-size="10.8">and</text>
                </lyric>
                <lyric default-y="-194" number="5" name="verse">
                    <syllabic>single</syllabic>
                    <text font-size="10.8">shall</text>
                </lyric>
                <lyric default-y="-219" number="6" name="verse">
                    <syllabic>end</syllabic>
                    <text font-size="10.8">sand</text>
                </lyric>
            </note>
        </measure>
        <measure width="217" number="4">
            <print new-system="no"/>
            <harmony font-weight="bold" font-size="10" default-y="29">
                <root>
                    <root-step>G</root-step>
                </root>
                <kind halign="center" text="">major</kind>
            </harmony>
            <note default-x="41">
                <pitch>
                    <step>D</step>
                    <octave>4</octave>
                </pitch>
                <duration>4</duration>
                <voice>1</voice>
                <type>half</type>
                <stem default-y="-9">up</stem>
                <lyric default-y="-95" number="1" name="verse">
                    <syllabic>single</syllabic>
                    <text font-size="10.8">sound,</text>
                </lyric>
                <lyric default-y="-120" number="2" name="verse">
                    <syllabic>single</syllabic>
                    <text font-size="10.8">fear,</text>
                </lyric>
                <lyric default-y="-145" number="3" name="verse">
                    <syllabic>single</syllabic>
                    <text font-size="10.8">me,</text>
                </lyric>
                <lyric default-y="-169" number="4" name="verse">
                    <syllabic>single</syllabic>
                    <text font-size="10.8">snares,</text>
                </lyric>
                <lyric default-y="-194" number="5" name="verse">
                    <syllabic>single</syllabic>
                    <text font-size="10.8">fail,</text>
                </lyric>
                <lyric default-y="-219" number="6" name="verse">
                    <syllabic>single</syllabic>
                    <text font-size="10.8">years,</text>
                </lyric>
            </note>
            <note default-x="149">
                <pitch>
                    <step>D</step>
                    <octave>4</octave>
                </pitch>
                <duration>2</duration>
                <voice>1</voice>
                <type>quarter</type>
                <stem default-y="-9">up</stem>
                <lyric default-y="-95" number="1" name="verse">
                    <syllabic>single</syllabic>
                    <text font-size="10.8">that</text>
                </lyric>
                <lyric default-y="-120" number="2" name="verse">
                    <syllabic>single</syllabic>
                    <text font-size="10.8">and</text>
                </lyric>
                <lyric default-y="-145" number="3" name="verse">
                    <syllabic>single</syllabic>
                    <text font-size="10.8">His</text>
                </lyric>
                <lyric default-y="-169" number="4" name="verse">
                    <syllabic>single</syllabic>
                    <text font-size="10.8">I</text>
                </lyric>
                <lyric default-y="-194" number="5" name="verse">
                    <syllabic>single</syllabic>
                    <text font-size="10.8">and</text>
                </lyric>
                <lyric default-y="-219" number="6" name="verse">
                    <syllabic>single</syllabic>
                    <text font-size="10.8">bright</text>
                </lyric>
            </note>
        </measure>
        <measure width="269" number="5">
            <print new-system="yes">
                <system-layout>
                    <system-distance>282</system-distance>
                </system-layout>
            </print>
            <note default-x="98">
                <pitch>
                    <step>G</step>
                    <octave>4</octave>
                </pitch>
                <duration>4</duration>
                <voice>1</voice>
                <type>half</type>
                <stem default-y="6">up</stem>
                <lyric default-y="-95" number="1" name="verse">
                    <syllabic>single</syllabic>
                    <text font-size="10.8">saved</text>
                </lyric>
                <lyric default-y="-120" number="2" name="verse">
                    <syllabic>single</syllabic>
                    <text font-size="10.8">grace</text>
                </lyric>
                <lyric default-y="-145" number="3" name="verse">
                    <syllabic>single</syllabic>
                    <text font-size="10.8">Word</text>
                </lyric>
                <lyric default-y="-169" number="4" name="verse">
                    <syllabic>single</syllabic>
                    <text font-size="10.8">have</text>
                </lyric>
                <lyric default-y="-194" number="5" name="verse">
                    <syllabic>begin</syllabic>
                    <text font-size="10.8">mor</text>
                </lyric>
                <lyric default-y="-219" number="6" name="verse">
                    <syllabic>begin</syllabic>
                    <text font-size="10.8">shin</text>
                </lyric>
            </note>
            <note default-x="183">
                <pitch>
                    <step>B</step>
                    <octave>4</octave>
                </pitch>
                <duration>1</duration>
                <voice>1</voice>
                <type>eighth</type>
                <stem default-y="15">up</stem>
                <beam number="1">begin</beam>
                <notations>
                    <slur placement="below" type="start" number="1"/>
                </notations>
                <lyric default-y="-95" number="1" name="verse">
                    <syllabic>single</syllabic>
                    <text font-size="10.8">a</text>
                    <extend/>
                </lyric>
                <lyric default-y="-120" number="2" name="verse">
                    <syllabic>single</syllabic>
                    <text font-size="10.8">my</text>
                    <extend/>
                </lyric>
                <lyric default-y="-145" number="3" name="verse">
                    <syllabic>single</syllabic>
                    <text font-size="10.8">my</text>
                    <extend/>
                </lyric>
                <lyric default-y="-169" number="4" name="verse">
                    <syllabic>begin</syllabic>
                    <text font-size="10.8">al</text>
                </lyric>
                <lyric default-y="-194" number="5" name="verse">
                    <syllabic>end</syllabic>
                    <text font-size="10.8">tal</text>
                    <extend/>
                </lyric>
                <lyric default-y="-219" number="6" name="verse">
                    <syllabic>end</syllabic>
                    <text font-size="10.8">ing</text>
                    <extend/>
                </lyric>
            </note>
            <harmony font-weight="bold" font-size="10" default-y="29">
                <root>
                    <root-step>G</root-step>
                </root>
                <kind halign="center" text="">major</kind>
                <bass>
                    <bass-step>B</bass-step>
                </bass>
            </harmony>
            <note default-x="231">
                <pitch>
                    <step>G</step>
                    <octave>4</octave>
                </pitch>
                <duration>1</duration>
                <voice>1</voice>
                <type>eighth</type>
                <stem default-y="10">up</stem>
                <beam number="1">end</beam>
                <notations>
                    <slur type="stop" number="1"/>
                </notations>
            </note>
        </measure>
        <measure width="183" number="6">
            <print new-system="no"/>
            <harmony font-weight="bold" font-size="10" default-y="29">
                <root>
                    <root-step>G</root-step>
                </root>
                <kind halign="center" text="">major</kind>
                <bass>
                    <bass-step>D</bass-step>
                </bass>
            </harmony>
            <note default-x="38">
                <pitch>
                    <step>B</step>
                    <octave>4</octave>
                </pitch>
                <duration>4</duration>
                <voice>1</voice>
                <type>half</type>
                <stem default-y="-55">down</stem>
                <lyric default-y="-95" number="1" name="verse">
                    <syllabic>single</syllabic>
                    <text font-size="10.8">wretch</text>
                </lyric>
                <lyric default-y="-120" number="2" name="verse">
                    <syllabic>single</syllabic>
                    <text font-size="10.8">fears</text>
                </lyric>
                <lyric default-y="-145" number="3" name="verse">
                    <syllabic>single</syllabic>
                    <text font-size="10.8">hope</text>
                </lyric>
                <lyric default-y="-169" number="4" name="verse">
                    <syllabic>middle</syllabic>
                    <text font-size="10.8">read</text>
                </lyric>
                <lyric default-y="-194" number="5" name="verse">
                    <syllabic>single</syllabic>
                    <text font-size="10.8">life</text>
                </lyric>
                <lyric default-y="-219" number="6" name="verse">
                    <syllabic>single</syllabic>
                    <text font-size="10.8">as</text>
                </lyric>
            </note>
            <harmony font-weight="bold" font-size="10" default-y="29">
                <root>
                    <root-step>D</root-step>
                </root>
                <kind halign="center" text="">major</kind>
                <bass>
                    <bass-step>C</bass-step>
                </bass>
            </harmony>
            <note default-x="127">
                <pitch>
                    <step>A</step>
                    <octave>4</octave>
                </pitch>
                <duration>2</duration>
                <voice>1</voice>
                <type>quarter</type>
                <stem default-y="11">up</stem>
                <lyric default-y="-95" number="1" name="verse">
                    <syllabic>single</syllabic>
                    <text font-size="10.8">like</text>
                </lyric>
                <lyric default-y="-120" number="2" name="verse">
                    <syllabic>begin</syllabic>
                    <text font-size="10.8">re</text>
                </lyric>
                <lyric default-y="-145" number="3" name="verse">
                    <syllabic>begin</syllabic>
                    <text font-size="10.8">se</text>
                </lyric>
                <lyric default-y="-169" number="4" name="verse">
                    <syllabic>end</syllabic>
                    <text font-size="10.8">y</text>
                </lyric>
                <lyric default-y="-194" number="5" name="verse">
                    <syllabic>single</syllabic>
                    <text font-size="10.8">shall</text>
                </lyric>
                <lyric default-y="-219" number="6" name="verse">
                    <syllabic>single</syllabic>
                    <text font-size="10.8">the</text>
                </lyric>
            </note>
        </measure>
        <measure width="138" number="7">
            <print new-system="no"/>
            <harmony font-weight="bold" font-size="10" default-y="29">
                <root>
                    <root-step>G</root-step>
                </root>
                <kind halign="center" text="">major</kind>
                <bass>
                    <bass-step>B</bass-step>
                </bass>
            </harmony>
            <note default-x="37">
                <pitch>
                    <step>D</step>
                    <octave>5</octave>
                </pitch>
                <duration>6</duration>
                <tie type="start"/>
                <voice>1</voice>
                <type>half</type>
                <dot/>
                <stem default-y="-45.5">down</stem>
                <notations>
                    <tied type="start"/>
                </notations>
                <lyric default-y="-95" number="1" name="verse">
                    <syllabic>single</syllabic>
                    <text font-size="10.8">me!</text>
                    <extend/>
                </lyric>
                <lyric default-y="-120" number="2" name="verse">
                    <syllabic>end</syllabic>
                    <text font-size="10.8">lieved;</text>
                    <extend/>
                </lyric>
                <lyric default-y="-145" number="3" name="verse">
                    <syllabic>end</syllabic>
                    <text font-size="10.8">cures;</text>
                    <extend/>
                </lyric>
                <lyric default-y="-169" number="4" name="verse">
                    <syllabic>single</syllabic>
                    <text font-size="10.8">come;</text>
                    <extend/>
                </lyric>
                <lyric default-y="-194" number="5" name="verse">
                    <syllabic>single</syllabic>
                    <text font-size="10.8">cease;</text>
                    <extend/>
                </lyric>
                <lyric default-y="-219" number="6" name="verse">
                    <syllabic>single</syllabic>
                    <text font-size="10.8">sun;</text>
                    <extend/>
                </lyric>
            </note>
        </measure>
        <measure width="145" number="8">
            <print new-system="no"/>
            <note default-x="11">
                <pitch>
                    <step>D</step>
                    <octave>5</octave>
                </pitch>
                <duration>4</duration>
                <tie type="stop"/>
                <voice>1</voice>
                <type>half</type>
                <stem default-y="-45.5">down</stem>
                <notations>
                    <tied type="stop"/>
                </notations>
            </note>
            <harmony font-weight="bold" font-size="10" default-y="29">
                <root>
                    <root-step>G</root-step>
                </root>
                <kind halign="center" text="">major</kind>
            </harmony>
            <note default-x="93">
                <pitch>
                    <step>B</step>
                    <octave>4</octave>
                </pitch>
                <duration>2</duration>
                <voice>1</voice>
                <type>quarter</type>
                <stem default-y="-55">down</stem>
                <lyric default-y="-95" number="1" name="verse">
                    <syllabic>single</syllabic>
                    <text font-size="10.8">I</text>
                </lyric>
                <lyric default-y="-120" number="2" name="verse">
                    <syllabic>single</syllabic>
                    <text font-size="10.8">How</text>
                </lyric>
                <lyric default-y="-145" number="3" name="verse">
                    <syllabic>single</syllabic>
                    <text font-size="10.8">He</text>
                </lyric>
                <lyric default-y="-169" number="4" name="verse">
                    <syllabic>single</syllabic>
                    <text font-size="10.8">’Tis</text>
                </lyric>
                <lyric default-y="-194" number="5" name="verse">
                    <syllabic>single</syllabic>
                    <text font-size="10.8">I</text>
                </lyric>
                <lyric default-y="-219" number="6" name="verse">
                    <syllabic>single</syllabic>
                    <text font-size="10.8">We’ve</text>
                </lyric>
            </note>
        </measure>
        <measure width="227" number="9">
            <print new-system="no"/>
            <note default-x="32">
                <pitch>
                    <step>D</step>
                    <octave>5</octave>
                </pitch>
                <duration>3</duration>
                <voice>1</voice>
                <type>quarter</type>
                <dot/>
                <stem default-y="-45.5">down</stem>
                <notations>
                    <slur placement="above" type="start" number="1"/>
                </notations>
                <lyric default-y="-95" number="1" name="verse">
                    <syllabic>single</syllabic>
                    <text font-size="10.8">once</text>
                </lyric>
                <lyric default-y="-120" number="2" name="verse">
                    <syllabic>begin</syllabic>
                    <text font-size="10.8">pre</text>
                </lyric>
                <lyric default-y="-145" number="3" name="verse">
                    <syllabic>single</syllabic>
                    <text font-size="10.8">will</text>
                    <extend/>
                </lyric>
                <lyric default-y="-169" number="4" name="verse">
                    <syllabic>single</syllabic>
                    <text font-size="10.8">grace</text>
                </lyric>
                <lyric default-y="-194" number="5" name="verse">
                    <syllabic>single</syllabic>
                    <text font-size="10.8">shall</text>
                    <extend/>
                </lyric>
                <lyric default-y="-219" number="6" name="verse">
                    <syllabic>single</syllabic>
                    <text font-size="10.8">no</text>
                    <extend/>
                </lyric>
            </note>
            <note default-x="105">
                <pitch>
                    <step>B</step>
                    <octave>4</octave>
                </pitch>
                <duration>1</duration>
                <voice>1</voice>
                <type>eighth</type>
                <stem default-y="-55">down</stem>
                <notations>
                    <slur type="stop" number="1"/>
                </notations>
            </note>
            <note default-x="147">
                <pitch>
                    <step>D</step>
                    <octave>5</octave>
                </pitch>
                <duration>1</duration>
                <voice>1</voice>
                <type>eighth</type>
                <stem default-y="-50">down</stem>
                <beam number="1">begin</beam>
                <notations>
                    <slur placement="above" type="start" number="1"/>
                </notations>
                <lyric default-y="-95" number="1" name="verse">
                    <syllabic>single</syllabic>
                    <text font-size="10.8">was</text>
                </lyric>
                <lyric default-y="-120" number="2" name="verse">
                    <syllabic>end</syllabic>
                    <text font-size="10.8">cious</text>
                </lyric>
                <lyric default-y="-145" number="3" name="verse">
                    <syllabic>single</syllabic>
                    <text font-size="10.8">my</text>
                    <extend/>
                </lyric>
                <lyric default-y="-169" number="4" name="verse">
                    <syllabic>single</syllabic>
                    <text font-size="10.8">hath</text>
                </lyric>
                <lyric default-y="-194" number="5" name="verse">
                    <syllabic>begin</syllabic>
                    <text font-size="10.8">pos</text>
                </lyric>
                <lyric default-y="-219" number="6" name="verse">
                    <syllabic>single</syllabic>
                    <text font-size="10.8">less</text>
                    <extend/>
                </lyric>
            </note>
            <note default-x="191">
                <pitch>
                    <step>B</step>
                    <octave>4</octave>
                </pitch>
                <duration>1</duration>
                <voice>1</voice>
                <type>eighth</type>
                <stem default-y="-54.5">down</stem>
                <beam number="1">end</beam>
                <notations>
                    <slur type="stop" number="1"/>
                </notations>
            </note>
        </measure>
        <measure width="190" number="10">
            <print new-system="no"/>
            <harmony font-weight="bold" font-size="10" default-y="29">
                <root>
                    <root-step>G</root-step>
                </root>
                <kind halign="center" text="">major</kind>
                <bass>
                    <bass-step>B</bass-step>
                </bass>
            </harmony>
            <note default-x="42">
                <pitch>
                    <step>G</step>
                    <octave>4</octave>
                </pitch>
                <duration>4</duration>
                <voice>1</voice>
                <type>half</type>
                <stem default-y="6">up</stem>
                <lyric default-y="-95" number="1" name="verse">
                    <syllabic>single</syllabic>
                    <text font-size="10.8">lost,</text>
                </lyric>
                <lyric default-y="-120" number="2" name="verse">
                    <syllabic>single</syllabic>
                    <text font-size="10.8">did</text>
                </lyric>
                <lyric default-y="-145" number="3" name="verse">
                    <syllabic>single</syllabic>
                    <text font-size="10.8">shield</text>
                </lyric>
                <lyric default-y="-169" number="4" name="verse">
                    <syllabic>single</syllabic>
                    <text font-size="10.8">brought</text>
                </lyric>
                <lyric default-y="-194" number="5" name="verse">
                    <syllabic>end</syllabic>
                    <text font-size="10.8">sess</text>
                </lyric>
                <lyric default-y="-219" number="6" name="verse">
                    <syllabic>single</syllabic>
                    <text font-size="10.8">days</text>
                </lyric>
            </note>
            <note default-x="132">
                <pitch>
                    <step>D</step>
                    <octave>4</octave>
                </pitch>
                <duration>2</duration>
                <voice>1</voice>
                <type>quarter</type>
                <stem default-y="-9">up</stem>
                <lyric default-y="-95" number="1" name="verse">
                    <syllabic>single</syllabic>
                    <text font-size="10.8">but</text>
                </lyric>
                <lyric default-y="-120" number="2" name="verse">
                    <syllabic>single</syllabic>
                    <text font-size="10.8">that</text>
                </lyric>
                <lyric default-y="-145" number="3" name="verse">
                    <syllabic>single</syllabic>
                    <text font-size="10.8">and</text>
                </lyric>
                <lyric default-y="-169" number="4" name="verse">
                    <syllabic>single</syllabic>
                    <text font-size="10.8">me</text>
                </lyric>
                <lyric default-y="-194" number="5" name="verse">
                    <syllabic>begin</syllabic>
                    <text font-size="10.8">with</text>
                </lyric>
                <lyric default-y="-219" number="6" name="verse">
                    <syllabic>single</syllabic>
                    <text font-size="10.8">to</text>
                </lyric>
            </note>
        </measure>
        <measure width="339" number="11">
            <print new-system="yes">
                <system-layout>
                    <system-distance>282</system-distance>
                </system-layout>
            </print>
            <harmony font-weight="bold" font-size="10" default-y="29">
                <root>
                    <root-step>C</root-step>
                </root>
                <kind halign="center" text="">major</kind>
            </harmony>
            <note default-x="95">
                <pitch>
                    <step>E</step>
                    <octave>4</octave>
                </pitch>
                <duration>3</duration>
                <voice>1</voice>
                <type>quarter</type>
                <dot/>
                <stem default-y="-4">up</stem>
                <notations>
                    <slur placement="below" type="start" number="1"/>
                </notations>
                <lyric default-y="-95" number="1" name="verse">
                    <syllabic>single</syllabic>
                    <text font-size="10.8">now</text>
                </lyric>
                <lyric default-y="-120" number="2" name="verse">
                    <syllabic>single</syllabic>
                    <text font-size="10.8">grace</text>
                </lyric>
                <lyric default-y="-145" number="3" name="verse">
                    <syllabic>begin</syllabic>
                    <text font-size="10.8">por</text>
                </lyric>
                <lyric default-y="-169" number="4" name="verse">
                    <syllabic>single</syllabic>
                    <text font-size="10.8">safe</text>
                </lyric>
                <lyric default-y="-194" number="5" name="verse">
                    <syllabic>end</syllabic>
                    <text font-size="10.8">in</text>
                    <extend/>
                </lyric>
                <lyric default-y="-219" number="6" name="verse">
                    <syllabic>single</syllabic>
                    <text font-size="10.8">sing</text>
                    <extend/>
                </lyric>
            </note>
            <harmony font-weight="bold" font-size="10" default-y="29">
                <root>
                    <root-step>G</root-step>
                </root>
                <kind halign="center" text="">major</kind>
                <bass>
                    <bass-step>B</bass-step>
                </bass>
            </harmony>
            <note default-x="193">
                <pitch>
                    <step>G</step>
                    <octave>4</octave>
                </pitch>
                <duration>1</duration>
                <voice>1</voice>
                <type>eighth</type>
                <stem default-y="6">up</stem>
                <notations>
                    <slur type="stop" number="1"/>
                </notations>
            </note>
            <harmony font-weight="bold" font-size="10" default-y="29">
                <root>
                    <root-step>C</root-step>
                </root>
                <kind halign="center" text="">major</kind>
            </harmony>
            <note default-x="243">
                <pitch>
                    <step>G</step>
                    <octave>4</octave>
                </pitch>
                <duration>1</duration>
                <voice>1</voice>
                <type>eighth</type>
                <stem default-y="5">up</stem>
                <beam number="1">begin</beam>
                <notations>
                    <slur placement="below" type="start" number="1"/>
                </notations>
                <lyric default-y="-95" number="1" name="verse">
                    <syllabic>single</syllabic>
                    <text font-size="10.8">am</text>
                </lyric>
                <lyric default-y="-120" number="2" name="verse">
                    <syllabic>begin</syllabic>
                    <text font-size="10.8">ap</text>
                </lyric>
                <lyric default-y="-145" number="3" name="verse">
                    <syllabic>end</syllabic>
                    <text font-size="10.8">tion</text>
                    <extend/>
                </lyric>
                <lyric default-y="-169" number="4" name="verse">
                    <syllabic>single</syllabic>
                    <text font-size="10.8">thus</text>
                </lyric>
                <lyric default-y="-194" number="5" name="verse">
                    <syllabic>single</syllabic>
                    <text font-size="10.8">the</text>
                    <extend/>
                </lyric>
                <lyric default-y="-219" number="6" name="verse">
                    <syllabic>single</syllabic>
                    <text font-size="10.8">God’s</text>
                    <extend/>
                </lyric>
            </note>
            <note default-x="294">
                <pitch>
                    <step>E</step>
                    <octave>4</octave>
                </pitch>
                <duration>1</duration>
                <voice>1</voice>
                <type>eighth</type>
                <stem default-y="0">up</stem>
                <beam number="1">end</beam>
                <notations>
                    <slur type="stop" number="1"/>
                </notations>
            </note>
        </measure>
        <measure width="189" number="12">
            <print new-system="no"/>
            <harmony font-weight="bold" font-size="10" default-y="29">
                <root>
                    <root-step>G</root-step>
                </root>
                <kind halign="center" text="">major</kind>
            </harmony>
            <note default-x="37">
                <pitch>
                    <step>D</step>
                    <octave>4</octave>
                </pitch>
                <duration>4</duration>
                <voice>1</voice>
                <type>half</type>
                <stem default-y="-9">up</stem>
                <lyric default-y="-95" number="1" name="verse">
                    <syllabic>single</syllabic>
                    <text font-size="10.8">found,</text>
                </lyric>
                <lyric default-y="-120" number="2" name="verse">
                    <syllabic>end</syllabic>
                    <text font-size="10.8">pear,</text>
                </lyric>
                <lyric default-y="-145" number="3" name="verse">
                    <syllabic>single</syllabic>
                    <text font-size="10.8">be,</text>
                </lyric>
                <lyric default-y="-169" number="4" name="verse">
                    <syllabic>single</syllabic>
                    <text font-size="10.8">far,</text>
                </lyric>
                <lyric default-y="-194" number="5" name="verse">
                    <syllabic>single</syllabic>
                    <text font-size="10.8">veil,</text>
                </lyric>
                <lyric default-y="-219" number="6" name="verse">
                    <syllabic>single</syllabic>
                    <text font-size="10.8">praise,</text>
                </lyric>
            </note>
            <harmony font-weight="bold" font-size="10" default-y="29">
                <root>
                    <root-step>G</root-step>
                </root>
                <kind halign="center" text="">major</kind>
                <bass>
                    <bass-step>B</bass-step>
                </bass>
            </harmony>
            <note default-x="130">
                <pitch>
                    <step>D</step>
                    <octave>4</octave>
                </pitch>
                <duration>2</duration>
                <voice>1</voice>
                <type>quarter</type>
                <stem default-y="-9">up</stem>
                <lyric default-y="-95" number="1" name="verse">
                    <syllabic>single</syllabic>
                    <text font-size="10.8">was</text>
                </lyric>
                <lyric default-y="-120" number="2" name="verse">
                    <syllabic>single</syllabic>
                    <text font-size="10.8">the</text>
                </lyric>
                <lyric default-y="-145" number="3" name="verse">
                    <syllabic>single</syllabic>
                    <text font-size="10.8">as</text>
                </lyric>
                <lyric default-y="-169" number="4" name="verse">
                    <syllabic>single</syllabic>
                    <text font-size="10.8">and</text>
                </lyric>
                <lyric default-y="-194" number="5" name="verse">
                    <syllabic>single</syllabic>
                    <text font-size="10.8">a</text>
                </lyric>
                <lyric default-y="-219" number="6" name="verse">
                    <syllabic>single</syllabic>
                    <text font-size="10.8">than</text>
                </lyric>
            </note>
        </measure>
        <measure width="193" number="13">
            <print new-system="no"/>
            <harmony font-weight="bold" font-size="10" default-y="29">
                <root>
                    <root-step>E</root-step>
                </root>
                <kind halign="center" text="m">minor</kind>
            </harmony>
            <note default-x="32">
                <pitch>
                    <step>G</step>
                    <octave>4</octave>
                </pitch>
                <duration>4</duration>
                <voice>1</voice>
                <type>half</type>
                <stem default-y="6">up</stem>
                <lyric default-y="-95" number="1" name="verse">
                    <syllabic>single</syllabic>
                    <text font-size="10.8">blind,</text>
                </lyric>
                <lyric default-y="-120" number="2" name="verse">
                    <syllabic>single</syllabic>
                    <text font-size="10.8">hour</text>
                </lyric>
                <lyric default-y="-145" number="3" name="verse">
                    <syllabic>single</syllabic>
                    <text font-size="10.8">long</text>
                </lyric>
                <lyric default-y="-169" number="4" name="verse">
                    <syllabic>single</syllabic>
                    <text font-size="10.8">grace</text>
                </lyric>
                <lyric default-y="-194" number="5" name="verse">
                    <syllabic>single</syllabic>
                    <text font-size="10.8">life</text>
                </lyric>
                <lyric default-y="-219" number="6" name="verse">
                    <syllabic>single</syllabic>
                    <text font-size="10.8">when</text>
                </lyric>
            </note>
            <harmony font-weight="bold" font-size="10" default-y="29">
                <root>
                    <root-step>G</root-step>
                </root>
                <kind halign="center" text="">major</kind>
                <bass>
                    <bass-step>D</bass-step>
                </bass>
            </harmony>
            <note default-x="123">
                <pitch>
                    <step>B</step>
                    <octave>4</octave>
                </pitch>
                <duration>1</duration>
                <voice>1</voice>
                <type>eighth</type>
                <stem default-y="15">up</stem>
                <beam number="1">begin</beam>
                <notations>
                    <slur placement="below" type="start" number="1"/>
                </notations>
                <lyric default-y="-95" number="1" name="verse">
                    <syllabic>single</syllabic>
                    <text font-size="10.8">but</text>
                </lyric>
                <lyric default-y="-120" number="2" name="verse">
                    <syllabic>single</syllabic>
                    <text font-size="10.8">I</text>
                </lyric>
                <lyric default-y="-145" number="3" name="verse">
                    <syllabic>single</syllabic>
                    <text font-size="10.8">as</text>
                    <extend/>
                </lyric>
                <lyric default-y="-169" number="4" name="verse">
                    <syllabic>single</syllabic>
                    <text font-size="10.8">will</text>
                </lyric>
                <lyric default-y="-194" number="5" name="verse">
                    <syllabic>single</syllabic>
                    <text font-size="10.8">of</text>
                    <extend/>
                </lyric>
                <lyric default-y="-219" number="6" name="verse">
                    <syllabic>single</syllabic>
                    <text font-size="10.8">we</text>
                    <extend/>
                </lyric>
            </note>
            <note default-x="157">
                <pitch>
                    <step>G</step>
                    <octave>4</octave>
                </pitch>
                <duration>1</duration>
                <voice>1</voice>
                <type>eighth</type>
                <stem default-y="10">up</stem>
                <beam number="1">end</beam>
                <notations>
                    <slur type="stop" number="1"/>
                </notations>
            </note>
        </measure>
        <measure width="153" number="14">
            <print new-system="no"/>
            <note default-x="24">
                <pitch>
                    <step>B</step>
                    <octave>4</octave>
                </pitch>
                <duration>4</duration>
                <voice>1</voice>
                <type>half</type>
                <stem default-y="-55.5">down</stem>
                <lyric default-y="-95" number="1" name="verse">
                    <syllabic>single</syllabic>
                    <text font-size="10.8">now</text>
                </lyric>
                <lyric default-y="-120" number="2" name="verse">
                    <syllabic>single</syllabic>
                    <text font-size="10.8">first</text>
                </lyric>
                <lyric default-y="-145" number="3" name="verse">
                    <syllabic>single</syllabic>
                    <text font-size="10.8">life</text>
                </lyric>
                <lyric default-y="-169" number="4" name="verse">
                    <syllabic>single</syllabic>
                    <text font-size="10.8">lead</text>
                </lyric>
                <lyric default-y="-194" number="5" name="verse">
                    <syllabic>single</syllabic>
                    <text font-size="10.8">joy</text>
                </lyric>
                <lyric default-y="-219" number="6" name="verse">
                    <syllabic>single</syllabic>
                    <text font-size="10.8">first</text>
                </lyric>
            </note>
            <harmony font-weight="bold" font-size="10" default-y="29">
                <root>
                    <root-step>D</root-step>
                </root>
                <kind halign="center" text="7">dominant</kind>
            </harmony>
            <note default-x="103">
                <pitch>
                    <step>A</step>
                    <octave>4</octave>
                </pitch>
                <duration>2</duration>
                <voice>1</voice>
                <type>quarter</type>
                <stem default-y="11">up</stem>
                <lyric default-y="-95" number="1" name="verse">
                    <syllabic>single</syllabic>
                    <text font-size="10.8">I</text>
                </lyric>
                <lyric default-y="-120" number="2" name="verse">
                    <syllabic>begin</syllabic>
                    <text font-size="10.8">be</text>
                </lyric>
                <lyric default-y="-145" number="3" name="verse">
                    <syllabic>begin</syllabic>
                    <text font-size="10.8">en</text>
                </lyric>
                <lyric default-y="-169" number="4" name="verse">
                    <syllabic>single</syllabic>
                    <text font-size="10.8">me</text>
                </lyric>
                <lyric default-y="-194" number="5" name="verse">
                    <syllabic>single</syllabic>
                    <text font-size="10.8">and</text>
                </lyric>
                <lyric default-y="-219" number="6" name="verse">
                    <syllabic>begin</syllabic>
                    <text font-size="10.8">be</text>
                </lyric>
            </note>
        </measure>
        <measure width="145" number="15">
            <print new-system="no"/>
            <harmony font-weight="bold" font-size="10" default-y="29">
                <root>
                    <root-step>G</root-step>
                </root>
                <kind halign="center" text="">major</kind>
            </harmony>
            <note default-x="37">
                <pitch>
                    <step>G</step>
                    <octave>4</octave>
                </pitch>
                <duration>6</duration>
                <tie type="start"/>
                <voice>1</voice>
                <type>half</type>
                <dot/>
                <stem default-y="6">up</stem>
                <notations>
                    <tied type="start"/>
                </notations>
                <lyric default-y="-95" number="1" name="verse">
                    <syllabic>single</syllabic>
                    <text font-size="10.8">see.</text>
                    <extend/>
                </lyric>
                <lyric default-y="-120" number="2" name="verse">
                    <syllabic>end</syllabic>
                    <text font-size="10.8">lieved!</text>
                    <extend/>
                </lyric>
                <lyric default-y="-145" number="3" name="verse">
                    <syllabic>end</syllabic>
                    <text font-size="10.8">dures.</text>
                    <extend/>
                </lyric>
                <lyric default-y="-169" number="4" name="verse">
                    <syllabic>single</syllabic>
                    <text font-size="10.8">home.</text>
                    <extend/>
                </lyric>
                <lyric default-y="-194" number="5" name="verse">
                    <syllabic>single</syllabic>
                    <text font-size="10.8">peace.</text>
                    <extend/>
                </lyric>
                <lyric default-y="-219" number="6" name="verse">
                    <syllabic>end</syllabic>
                    <text font-size="10.8">gun.</text>
                    <extend/>
                </lyric>
            </note>
        </measure>
        <measure width="133" number="16">
            <print new-system="no"/>
            <note default-x="10">
                <pitch>
                    <step>G</step>
                    <octave>4</octave>
                </pitch>
                <duration>4</duration>
                <tie type="stop"/>
                <voice>1</voice>
                <type>half</type>
                <stem default-y="6">up</stem>
                <notations>
                    <tied type="stop"/>
                </notations>
            </note>
            <forward>
                <duration>2</duration>
                <voice>1</voice>
            </forward>
            <barline location="right">
                <bar-style>light-heavy</bar-style>
            </barline>
        </measure>
    </part>
</score-partwise>
