<?xml version="1.0" encoding="UTF-8"?>
<!DOCTYPE score-partwise PUBLIC "-//Recordare//DTD MusicXML 2.0 Partwise//EN" "http://www.musicxml.org/dtds/partwise.dtd">
<score-partwise version="2.0">
    <work>
        <work-number></work-number>
        <work-title></work-title>
    </work>
    <movement-number></movement-number>
    <movement-title>Két szál pünkösdrózsa</movement-title>
    <identification>
        <creator type="composer">Traditional Hungarian - Somogy</creator>
        <creator type="poet">Unkown</creator>
        <rights>Public Domain</rights>
        <encoding>
            <software>MuseScore 0.9.6.2</software>
            <encoding-date>2010-08-28</encoding-date>
            <software>ProxyMusic 2.0 c</software>
        </encoding>
        <source>http://wikifonia.org/node/7037/revisions/9699/view</source>
    </identification>
    <defaults>
        <scaling>
            <millimeters>7.05556</millimeters>
            <tenths>40</tenths>
        </scaling>
        <page-layout>
            <page-height>1683.78</page-height>
            <page-width>1190.55</page-width>
            <page-margins type="even">
                <left-margin>56.6929</left-margin>
                <right-margin>56.6929</right-margin>
                <top-margin>56.6929</top-margin>
                <bottom-margin>113.386</bottom-margin>
            </page-margins>
            <page-margins type="odd">
                <left-margin>56.6929</left-margin>
                <right-margin>56.6929</right-margin>
                <top-margin>56.6929</top-margin>
                <bottom-margin>113.386</bottom-margin>
            </page-margins>
        </page-layout>
    </defaults>
    <credit page="1">
        <credit-words font-size="24" default-y="1627.09" default-x="595.275" justify="center" valign="top">Két szál pünkösdrózsa</credit-words>
    </credit>
    <credit page="1">
        <credit-words font-size="12" default-y="1575.09" default-x="1133.86" justify="right" valign="top">Hungarian folk song</credit-words>
    </credit>
    <part-list>
        <score-part id="P1">
            <part-name></part-name>
            <score-instrument id="P1-I3">
                <instrument-name></instrument-name>
            </score-instrument>
            <midi-instrument id="P1-I3">
                <midi-channel>1</midi-channel>
                <midi-program>53</midi-program>
            </midi-instrument>
        </score-part>
    </part-list>
    <part id="P1">
        <measure width="271.34" number="1">
            <print>
                <system-layout>
                    <system-margins>
                        <left-margin>2.50</left-margin>
                        <right-margin>-0.00</right-margin>
                    </system-margins>
                    <top-system-distance>180.00</top-system-distance>
                </system-layout>
            </print>
            <attributes>
                <divisions>2</divisions>
                <key>
                    <fifths>0</fifths>
                    <mode>major</mode>
                </key>
                <time>
                    <beats>2</beats>
                    <beat-type>4</beat-type>
                </time>
            </attributes>
            <harmony print-frame="no">
                <root>
                    <root-step>D</root-step>
                </root>
                <kind text="m">minor</kind>
            </harmony>
            <direction placement="above">
                <direction-type>
                    <words>Moderato </words>
                </direction-type>
                <direction-type>
                    <metronome parentheses="no">
                        <beat-unit>quarter</beat-unit>
                        <per-minute>112</per-minute>
                    </metronome>
                </direction-type>
                <sound tempo="112"/>
            </direction>
            <note default-y="-10.00" default-x="98.10">
                <pitch>
                    <step>D</step>
                    <octave>5</octave>
                </pitch>
                <duration>2</duration>
                <voice>1</voice>
                <type>quarter</type>
                <stem>down</stem>
                <lyric number="1">
                    <syllabic>single</syllabic>
                    <text>Két</text>
                </lyric>
                <lyric number="2">
                    <syllabic>single</syllabic>
                    <text>Nem</text>
                </lyric>
                <lyric number="3">
                    <syllabic>single</syllabic>
                    <text>Nem</text>
                </lyric>
                <lyric number="4">
                    <syllabic>single</syllabic>
                    <text>Mi</text>
                </lyric>
            </note>
            <note default-y="-25.00" default-x="183.92">
                <pitch>
                    <step>A</step>
                    <octave>4</octave>
                </pitch>
                <duration>2</duration>
                <voice>1</voice>
                <type>quarter</type>
                <stem>up</stem>
                <lyric number="1">
                    <syllabic>single</syllabic>
                    <text>szál</text>
                </lyric>
                <lyric number="2">
                    <syllabic>single</syllabic>
                    <text>ám</text>
                </lyric>
                <lyric number="3">
                    <syllabic>begin</syllabic>
                    <text>sze</text>
                </lyric>
                <lyric number="4">
                    <syllabic>begin</syllabic>
                    <text>va</text>
                </lyric>
            </note>
        </measure>
        <measure width="324.98" number="2">
            <harmony print-frame="no">
                <root>
                    <root-step>A</root-step>
                </root>
                <kind text="m">minor</kind>
            </harmony>
            <note default-y="-25.00" default-x="33.87">
                <pitch>
                    <step>A</step>
                    <octave>4</octave>
                </pitch>
                <duration>1</duration>
                <voice>1</voice>
                <type>eighth</type>
                <stem>up</stem>
                <beam number="1">begin</beam>
                <lyric number="1">
                    <syllabic>begin</syllabic>
                    <text>pün</text>
                </lyric>
                <lyric number="2">
                    <syllabic>single</syllabic>
                    <text>az</text>
                </lyric>
                <lyric number="3">
                    <syllabic>middle</syllabic>
                    <text>ret</text>
                </lyric>
                <lyric number="4">
                    <syllabic>end</syllabic>
                    <text>gyunk</text>
                </lyric>
            </note>
            <note default-y="-20.00" default-x="100.00">
                <pitch>
                    <step>B</step>
                    <octave>4</octave>
                </pitch>
                <duration>1</duration>
                <voice>1</voice>
                <type>eighth</type>
                <stem>up</stem>
                <beam number="1">end</beam>
                <lyric number="1">
                    <syllabic>middle</syllabic>
                    <text>kösd</text>
                </lyric>
                <lyric number="2">
                    <syllabic>single</syllabic>
                    <text>a</text>
                </lyric>
                <lyric number="3">
                    <syllabic>end</syllabic>
                    <text>lek</text>
                </lyric>
                <lyric number="4">
                    <syllabic>single</syllabic>
                    <text>a</text>
                </lyric>
            </note>
            <note default-y="-15.00" default-x="166.13">
                <pitch>
                    <step>C</step>
                    <octave>5</octave>
                </pitch>
                <duration>1</duration>
                <voice>1</voice>
                <type>eighth</type>
                <stem>up</stem>
                <beam number="1">begin</beam>
                <lyric number="1">
                    <syllabic>middle</syllabic>
                    <text>ró</text>
                </lyric>
                <lyric number="2">
                    <syllabic>begin</syllabic>
                    <text>ró</text>
                </lyric>
                <lyric number="3">
                    <syllabic>begin</syllabic>
                    <text>má</text>
                </lyric>
                <lyric number="4">
                    <syllabic>begin</syllabic>
                    <text>ró</text>
                </lyric>
            </note>
            <note default-y="-25.00" default-x="232.25">
                <pitch>
                    <step>A</step>
                    <octave>4</octave>
                </pitch>
                <duration>1</duration>
                <voice>1</voice>
                <type>eighth</type>
                <stem>up</stem>
                <beam number="1">end</beam>
                <notations>
                    <articulations>
                        <breath-mark/>
                    </articulations>
                </notations>
                <lyric number="1">
                    <syllabic>end</syllabic>
                    <text>zsa</text>
                </lyric>
                <lyric number="2">
                    <syllabic>end</syllabic>
                    <text>zsa,</text>
                </lyric>
                <lyric number="3">
                    <syllabic>end</syllabic>
                    <text>sért,</text>
                </lyric>
                <lyric number="4">
                    <syllabic>end</syllabic>
                    <text>zsák,</text>
                </lyric>
            </note>
        </measure>
        <measure width="177.69" number="3">
            <harmony print-frame="no">
                <root>
                    <root-step>D</root-step>
                </root>
                <kind text="m">minor</kind>
            </harmony>
            <note default-y="-10.00" default-x="19.16">
                <pitch>
                    <step>D</step>
                    <octave>5</octave>
                </pitch>
                <duration>2</duration>
                <voice>1</voice>
                <type>quarter</type>
                <stem>down</stem>
                <lyric number="1">
                    <syllabic>begin</syllabic>
                    <text>ki</text>
                </lyric>
                <lyric number="2">
                    <syllabic>single</syllabic>
                    <text>ki</text>
                </lyric>
                <lyric number="3">
                    <syllabic>single</syllabic>
                    <text>két</text>
                </lyric>
                <lyric number="4">
                    <syllabic>single</syllabic>
                    <text>mi</text>
                </lyric>
            </note>
            <note default-y="-25.00" default-x="97.63">
                <pitch>
                    <step>A</step>
                    <octave>4</octave>
                </pitch>
                <duration>2</duration>
                <voice>1</voice>
                <type>quarter</type>
                <stem>up</stem>
                <lyric number="1">
                    <syllabic>middle</syllabic>
                    <text>haj</text>
                </lyric>
                <lyric number="2">
                    <syllabic>single</syllabic>
                    <text>a</text>
                </lyric>
                <lyric number="3">
                    <syllabic>begin</syllabic>
                    <text>pi</text>
                </lyric>
                <lyric number="4">
                    <syllabic>begin</syllabic>
                    <text>sze</text>
                </lyric>
            </note>
        </measure>
        <measure width="300.65" number="4">
            <harmony relative-x="62.50" print-frame="no">
                <root>
                    <root-step>A</root-step>
                </root>
                <kind text="m">minor</kind>
            </harmony>
            <note default-y="-25.00" default-x="22.99">
                <pitch>
                    <step>A</step>
                    <octave>4</octave>
                </pitch>
                <duration>1</duration>
                <voice>1</voice>
                <type>eighth</type>
                <stem>up</stem>
                <beam number="1">begin</beam>
                <lyric number="1">
                    <syllabic>end</syllabic>
                    <text>lott</text>
                </lyric>
                <lyric number="2">
                    <syllabic>begin</syllabic>
                    <text>kert</text>
                </lyric>
                <lyric number="3">
                    <syllabic>end</syllabic>
                    <text>ros</text>
                </lyric>
                <lyric number="4">
                    <syllabic>middle</syllabic>
                    <text>ret</text>
                </lyric>
            </note>
            <note default-y="-20.00" default-x="85.76">
                <pitch>
                    <step>B</step>
                    <octave>4</octave>
                </pitch>
                <duration>1</duration>
                <voice>1</voice>
                <type>eighth</type>
                <stem>up</stem>
                <beam number="1">end</beam>
                <lyric number="1">
                    <syllabic>single</syllabic>
                    <text>az</text>
                </lyric>
                <lyric number="2">
                    <syllabic>end</syllabic>
                    <text>ben</text>
                </lyric>
                <lyric number="3">
                    <syllabic>begin</syllabic>
                    <text>or</text>
                </lyric>
                <lyric number="4">
                    <syllabic>end</syllabic>
                    <text>jük</text>
                </lyric>
            </note>
            <note default-y="-15.00" default-x="148.52">
                <pitch>
                    <step>C</step>
                    <octave>5</octave>
                </pitch>
                <duration>1</duration>
                <voice>1</voice>
                <type>eighth</type>
                <stem>up</stem>
                <beam number="1">begin</beam>
                <lyric number="1">
                    <syllabic>begin</syllabic>
                    <text>út</text>
                </lyric>
                <lyric number="2">
                    <syllabic>begin</syllabic>
                    <text>nyí</text>
                </lyric>
                <lyric number="3">
                    <syllabic>middle</syllabic>
                    <text>cád</text>
                </lyric>
                <lyric number="4">
                    <syllabic>begin</syllabic>
                    <text>egy</text>
                </lyric>
            </note>
            <note default-y="-25.00" default-x="211.29">
                <pitch>
                    <step>A</step>
                    <octave>4</octave>
                </pitch>
                <duration>1</duration>
                <voice>1</voice>
                <type>eighth</type>
                <stem>up</stem>
                <beam number="1">end</beam>
                <notations>
                    <articulations>
                        <breath-mark/>
                    </articulations>
                </notations>
                <lyric number="1">
                    <syllabic>end</syllabic>
                    <text>ra</text>
                </lyric>
                <lyric number="2">
                    <syllabic>end</syllabic>
                    <text>lik,</text>
                </lyric>
                <lyric number="3">
                    <syllabic>end</syllabic>
                    <text>ért,</text>
                </lyric>
                <lyric number="4">
                    <syllabic>end</syllabic>
                    <text>mást,</text>
                </lyric>
            </note>
        </measure>
        <measure width="268.96" number="5">
            <print new-system="yes">
                <system-layout>
                    <system-margins>
                        <left-margin>2.50</left-margin>
                        <right-margin>-0.00</right-margin>
                    </system-margins>
                    <system-distance>182.72</system-distance>
                </system-layout>
            </print>
            <harmony print-frame="no">
                <root>
                    <root-step>G</root-step>
                </root>
                <kind text="">major</kind>
            </harmony>
            <note default-y="-30.00" default-x="77.02">
                <pitch>
                    <step>G</step>
                    <octave>4</octave>
                </pitch>
                <duration>2</duration>
                <voice>1</voice>
                <type>quarter</type>
                <stem>up</stem>
                <lyric number="1">
                    <syllabic>begin</syllabic>
                    <text>El</text>
                </lyric>
                <lyric number="2">
                    <syllabic>begin</syllabic>
                    <text>Ha</text>
                </lyric>
                <lyric number="3">
                    <syllabic>begin</syllabic>
                    <text>Sze</text>
                </lyric>
                <lyric number="4">
                    <syllabic>single</syllabic>
                    <text>Szép</text>
                </lyric>
            </note>
            <note default-y="-25.00" default-x="172.19">
                <pitch>
                    <step>A</step>
                    <octave>4</octave>
                </pitch>
                <duration>2</duration>
                <voice>1</voice>
                <type>quarter</type>
                <stem>up</stem>
                <lyric number="1">
                    <syllabic>middle</syllabic>
                    <text>a</text>
                </lyric>
                <lyric number="2">
                    <syllabic>end</syllabic>
                    <text>nem</text>
                </lyric>
                <lyric number="3">
                    <syllabic>end</syllabic>
                    <text>med</text>
                </lyric>
                <lyric number="4">
                    <syllabic>begin</syllabic>
                    <text>pi</text>
                </lyric>
            </note>
        </measure>
        <measure width="297.61" number="6">
            <harmony print-frame="no">
                <root>
                    <root-step>F</root-step>
                </root>
                <kind text="">major</kind>
            </harmony>
            <note default-y="-35.00" default-x="22.99">
                <pitch>
                    <step>F</step>
                    <octave>4</octave>
                </pitch>
                <duration>1</duration>
                <voice>1</voice>
                <type>eighth</type>
                <stem>up</stem>
                <beam number="1">begin</beam>
                <lyric number="1">
                    <syllabic>end</syllabic>
                    <text>kart</text>
                </lyric>
                <lyric number="2">
                    <syllabic>single</syllabic>
                    <text>az</text>
                </lyric>
                <lyric number="3">
                    <syllabic>begin</syllabic>
                    <text>já</text>
                </lyric>
                <lyric number="4">
                    <syllabic>end</syllabic>
                    <text>ros</text>
                </lyric>
            </note>
            <note default-y="-35.00" default-x="85.00">
                <pitch>
                    <step>F</step>
                    <octave>4</octave>
                </pitch>
                <duration>1</duration>
                <voice>1</voice>
                <type>eighth</type>
                <stem>up</stem>
                <beam number="1">end</beam>
                <lyric number="1">
                    <syllabic>begin</syllabic>
                    <text>her</text>
                </lyric>
                <lyric number="2">
                    <syllabic>single</syllabic>
                    <text>a</text>
                </lyric>
                <lyric number="3">
                    <syllabic>middle</syllabic>
                    <text>rá</text>
                </lyric>
                <lyric number="4">
                    <syllabic>begin</syllabic>
                    <text>haj</text>
                </lyric>
            </note>
            <note default-y="-40.00" default-x="147.00">
                <pitch>
                    <step>E</step>
                    <octave>4</octave>
                </pitch>
                <duration>1</duration>
                <voice>1</voice>
                <type>eighth</type>
                <stem>up</stem>
                <beam number="1">begin</beam>
                <lyric number="1">
                    <syllabic>middle</syllabic>
                    <text>vad</text>
                </lyric>
                <lyric number="2">
                    <syllabic>begin</syllabic>
                    <text>ró</text>
                </lyric>
                <lyric number="3">
                    <syllabic>middle</syllabic>
                    <text>sá</text>
                </lyric>
                <lyric number="4">
                    <syllabic>middle</syllabic>
                    <text>nal</text>
                </lyric>
            </note>
            <note default-y="-45.00" default-x="209.01">
                <pitch>
                    <step>D</step>
                    <octave>4</octave>
                </pitch>
                <duration>1</duration>
                <voice>1</voice>
                <type>eighth</type>
                <stem>up</stem>
                <beam number="1">end</beam>
                <notations>
                    <articulations>
                        <breath-mark/>
                    </articulations>
                </notations>
                <lyric number="1">
                    <syllabic>end</syllabic>
                    <text>ni,</text>
                </lyric>
                <lyric number="2">
                    <syllabic>end</syllabic>
                    <text>zsa,</text>
                </lyric>
                <lyric number="3">
                    <syllabic>end</syllabic>
                    <text>ért,</text>
                </lyric>
                <lyric number="4">
                    <syllabic>end</syllabic>
                    <text>ban</text>
                </lyric>
            </note>
        </measure>
        <measure width="303.80" number="7">
            <harmony print-frame="no">
                <root>
                    <root-step>C</root-step>
                </root>
                <kind text="">major</kind>
            </harmony>
            <note default-y="-30.00" default-x="29.40">
                <pitch>
                    <step>G</step>
                    <octave>4</octave>
                </pitch>
                <duration>1</duration>
                <voice>1</voice>
                <type>eighth</type>
                <stem>up</stem>
                <beam number="1">begin</beam>
                <lyric number="1">
                    <syllabic>single</syllabic>
                    <text>nincs</text>
                </lyric>
                <lyric number="2">
                    <syllabic>single</syllabic>
                    <text>ki</text>
                </lyric>
                <lyric number="3">
                    <syllabic>single</syllabic>
                    <text>szád</text>
                </lyric>
                <lyric number="4">
                    <syllabic>begin</syllabic>
                    <text>meg</text>
                </lyric>
            </note>
            <note default-y="-30.00" default-x="97.60">
                <pitch>
                    <step>G</step>
                    <octave>4</octave>
                </pitch>
                <duration>1</duration>
                <voice>1</voice>
                <type>eighth</type>
                <stem>up</stem>
                <beam number="1">end</beam>
                <lyric number="1">
                    <syllabic>single</syllabic>
                    <text>ki</text>
                </lyric>
                <lyric number="2">
                    <syllabic>begin</syllabic>
                    <text>egy</text>
                </lyric>
                <lyric number="3">
                    <syllabic>begin</syllabic>
                    <text>mo</text>
                </lyric>
                <lyric number="4">
                    <syllabic>middle</syllabic>
                    <text>ö</text>
                </lyric>
            </note>
            <note default-y="-35.00" default-x="165.80">
                <pitch>
                    <step>F</step>
                    <octave>4</octave>
                </pitch>
                <duration>1</duration>
                <voice>1</voice>
                <type>eighth</type>
                <stem>up</stem>
                <beam number="1">begin</beam>
                <lyric number="1">
                    <syllabic>begin</syllabic>
                    <text>le</text>
                </lyric>
                <lyric number="2">
                    <syllabic>end</syllabic>
                    <text>mást</text>
                </lyric>
                <lyric number="3">
                    <syllabic>middle</syllabic>
                    <text>soly</text>
                </lyric>
                <lyric number="4">
                    <syllabic>middle</syllabic>
                    <text>lel</text>
                </lyric>
            </note>
            <note default-y="-40.00" default-x="234.00">
                <pitch>
                    <step>E</step>
                    <octave>4</octave>
                </pitch>
                <duration>1</duration>
                <voice>1</voice>
                <type>eighth</type>
                <stem>up</stem>
                <beam number="1">end</beam>
                <lyric number="1">
                    <syllabic>middle</syllabic>
                    <text>sza</text>
                </lyric>
                <lyric number="2">
                    <syllabic>begin</syllabic>
                    <text>sze</text>
                </lyric>
                <lyric number="3">
                    <syllabic>middle</syllabic>
                    <text>gá</text>
                </lyric>
                <lyric number="4">
                    <syllabic>end</syllabic>
                    <text>jük</text>
                </lyric>
            </note>
        </measure>
        <measure width="204.30" number="8">
            <harmony print-frame="no">
                <root>
                    <root-step>D</root-step>
                </root>
                <kind text="m">minor</kind>
            </harmony>
            <note default-y="-45.00" default-x="21.72">
                <pitch>
                    <step>D</step>
                    <octave>4</octave>
                </pitch>
                <duration>2</duration>
                <voice>1</voice>
                <type>quarter</type>
                <stem>up</stem>
                <lyric number="1">
                    <syllabic>middle</syllabic>
                    <text>kít</text>
                </lyric>
                <lyric number="2">
                    <syllabic>middle</syllabic>
                    <text>re</text>
                </lyric>
                <lyric number="3">
                    <syllabic>middle</syllabic>
                    <text>sá</text>
                </lyric>
                <lyric number="4">
                    <syllabic>begin</syllabic>
                    <text>egy</text>
                </lyric>
            </note>
            <note default-y="-45.00" default-x="109.21">
                <pitch>
                    <step>D</step>
                    <octave>4</octave>
                </pitch>
                <duration>2</duration>
                <voice>1</voice>
                <type>quarter</type>
                <stem>up</stem>
                <lyric number="1">
                    <syllabic>end</syllabic>
                    <text>sa.</text>
                </lyric>
                <lyric number="2">
                    <syllabic>end</syllabic>
                    <text>ti.</text>
                </lyric>
                <lyric number="3">
                    <syllabic>end</syllabic>
                    <text>ért.</text>
                </lyric>
                <lyric number="4">
                    <syllabic>end</syllabic>
                    <text>mást.</text>
                </lyric>
            </note>
            <barline location="right">
                <bar-style>light-heavy</bar-style>
            </barline>
        </measure>
    </part>
</score-partwise>
