<?xml version="1.0" encoding="UTF-8"?>
<!DOCTYPE score-partwise PUBLIC "-//Recordare//DTD MusicXML 2.0 Partwise//EN" "http://www.musicxml.org/dtds/partwise.dtd">
<score-partwise version="2.0">
    <work>
        <work-number></work-number>
        <work-title></work-title>
    </work>
    <movement-number></movement-number>
    <movement-title>Tavaszi szél vizet áraszt</movement-title>
    <identification>
        <creator type="composer">Traditional Hungarian - Mezőség</creator>
        <creator type="poet"></creator>
        <rights>Public Domain</rights>
        <encoding>
            <software>MuseScore 0.9.6.2</software>
            <encoding-date>2010-09-03</encoding-date>
            <software>ProxyMusic 2.0 c</software>
        </encoding>
        <source>http://wikifonia.org/node/7101/revisions/9797/view</source>
    </identification>
    <defaults>
        <scaling>
            <millimeters>7.05556</millimeters>
            <tenths>40</tenths>
        </scaling>
        <page-layout>
            <page-height>1683.78</page-height>
            <page-width>1190.55</page-width>
            <page-margins type="even">
                <left-margin>56.6929</left-margin>
                <right-margin>56.6929</right-margin>
                <top-margin>56.6929</top-margin>
                <bottom-margin>113.386</bottom-margin>
            </page-margins>
            <page-margins type="odd">
                <left-margin>56.6929</left-margin>
                <right-margin>56.6929</right-margin>
                <top-margin>56.6929</top-margin>
                <bottom-margin>113.386</bottom-margin>
            </page-margins>
        </page-layout>
    </defaults>
    <credit page="1">
        <credit-words font-size="24" default-y="1627.09" default-x="595.275" justify="center" valign="top">Tavaszi szél vizet áraszt</credit-words>
    </credit>
    <part-list>
        <score-part id="P1">
            <part-name></part-name>
            <score-instrument id="P1-I3">
                <instrument-name></instrument-name>
            </score-instrument>
            <midi-instrument id="P1-I3">
                <midi-channel>1</midi-channel>
                <midi-program>53</midi-program>
            </midi-instrument>
        </score-part>
    </part-list>
    <part id="P1">
        <measure width="328.07" number="1">
            <print>
                <system-layout>
                    <system-margins>
                        <left-margin>2.50</left-margin>
                        <right-margin>0.00</right-margin>
                    </system-margins>
                    <top-system-distance>180.00</top-system-distance>
                </system-layout>
            </print>
            <attributes>
                <divisions>4</divisions>
                <key>
                    <fifths>0</fifths>
                    <mode>major</mode>
                </key>
                <time>
                    <beats>4</beats>
                    <beat-type>4</beat-type>
                </time>
                <clef>
                    <sign>G</sign>
                    <line>2</line>
                </clef>
            </attributes>
            <harmony print-frame="no">
                <root>
                    <root-step>C</root-step>
                </root>
                <kind text="">major</kind>
            </harmony>
            <direction placement="above">
                <direction-type>
                    <words>Andante </words>
                </direction-type>
                <direction-type>
                    <metronome parentheses="no">
                        <beat-unit>quarter</beat-unit>
                        <per-minute>96</per-minute>
                    </metronome>
                </direction-type>
                <sound tempo="96"/>
            </direction>
            <note default-y="-50.00" default-x="97.47">
                <pitch>
                    <step>C</step>
                    <octave>4</octave>
                </pitch>
                <duration>4</duration>
                <voice>1</voice>
                <type>quarter</type>
                <stem>up</stem>
                <lyric number="1">
                    <syllabic>begin</syllabic>
                    <text>Ta</text>
                </lyric>
                <lyric number="2">
                    <syllabic>single</syllabic>
                    <text>Hát</text>
                </lyric>
                <lyric number="3">
                    <syllabic>single</syllabic>
                    <text>Zöld</text>
                </lyric>
                <lyric number="4">
                    <syllabic>single</syllabic>
                    <text>De</text>
                </lyric>
            </note>
            <harmony print-frame="no">
                <root>
                    <root-step>D</root-step>
                </root>
                <kind text="m">minor</kind>
            </harmony>
            <note default-y="-45.00" default-x="154.72">
                <pitch>
                    <step>D</step>
                    <octave>4</octave>
                </pitch>
                <duration>4</duration>
                <voice>1</voice>
                <type>quarter</type>
                <stem>up</stem>
                <lyric number="1">
                    <syllabic>middle</syllabic>
                    <text>va</text>
                </lyric>
                <lyric number="2">
                    <syllabic>single</syllabic>
                    <text>én</text>
                </lyric>
                <lyric number="3">
                    <syllabic>begin</syllabic>
                    <text>pánt</text>
                </lyric>
                <lyric number="4">
                    <syllabic>single</syllabic>
                    <text>a</text>
                </lyric>
            </note>
            <harmony print-frame="no">
                <root>
                    <root-step>C</root-step>
                </root>
                <kind text="">major</kind>
            </harmony>
            <note default-y="-40.00" default-x="211.97">
                <pitch>
                    <step>E</step>
                    <octave>4</octave>
                </pitch>
                <duration>4</duration>
                <voice>1</voice>
                <type>quarter</type>
                <stem>up</stem>
                <lyric number="1">
                    <syllabic>end</syllabic>
                    <text>szi</text>
                </lyric>
                <lyric number="2">
                    <syllabic>single</syllabic>
                    <text>ím</text>
                </lyric>
                <lyric number="3">
                    <syllabic>middle</syllabic>
                    <text>li</text>
                </lyric>
                <lyric number="4">
                    <syllabic>begin</syllabic>
                    <text>fá</text>
                </lyric>
            </note>
            <note default-y="-40.00" default-x="269.22">
                <pitch>
                    <step>E</step>
                    <octave>4</octave>
                </pitch>
                <duration>4</duration>
                <voice>1</voice>
                <type>quarter</type>
                <stem>up</stem>
                <lyric number="1">
                    <syllabic>single</syllabic>
                    <text>szél</text>
                </lyric>
                <lyric number="2">
                    <syllabic>single</syllabic>
                    <text>már</text>
                </lyric>
                <lyric number="3">
                    <syllabic>end</syllabic>
                    <text>ka</text>
                </lyric>
                <lyric number="4">
                    <syllabic>end</syllabic>
                    <text>tyol</text>
                </lyric>
            </note>
        </measure>
        <measure width="304.93" number="2">
            <harmony print-frame="no">
                <root>
                    <root-step>D</root-step>
                </root>
                <kind text="m">minor</kind>
            </harmony>
            <note default-y="-45.00" default-x="28.12">
                <pitch>
                    <step>D</step>
                    <octave>4</octave>
                </pitch>
                <duration>4</duration>
                <voice>1</voice>
                <type>quarter</type>
                <stem>up</stem>
                <lyric number="1">
                    <syllabic>begin</syllabic>
                    <text>vi</text>
                </lyric>
                <lyric number="2">
                    <syllabic>single</syllabic>
                    <text>kit</text>
                </lyric>
                <lyric number="3">
                    <syllabic>begin</syllabic>
                    <text>köny</text>
                </lyric>
                <lyric number="4">
                    <syllabic>single</syllabic>
                    <text>ne</text>
                </lyric>
            </note>
            <note default-y="-45.00" default-x="85.49">
                <pitch>
                    <step>D</step>
                    <octave>4</octave>
                </pitch>
                <duration>2</duration>
                <voice>1</voice>
                <type>eighth</type>
                <stem>up</stem>
                <beam number="1">begin</beam>
                <notations>
                    <slur type="start" number="1"/>
                </notations>
                <lyric number="1">
                    <syllabic>end</syllabic>
                    <text>zet</text>
                    <extend/>
                </lyric>
                <lyric number="2">
                    <syllabic>single</syllabic>
                    <text>vá</text>
                    <extend/>
                </lyric>
                <lyric number="3">
                    <syllabic>end</syllabic>
                    <text>nyű</text>
                    <extend/>
                </lyric>
                <lyric number="4">
                    <syllabic>single</syllabic>
                    <text>héz</text>
                    <extend/>
                </lyric>
            </note>
            <note default-y="-40.00" default-x="127.01">
                <pitch>
                    <step>E</step>
                    <octave>4</octave>
                </pitch>
                <duration>2</duration>
                <voice>1</voice>
                <type>eighth</type>
                <stem>up</stem>
                <beam number="1">end</beam>
                <notations>
                    <slur type="stop" number="1"/>
                </notations>
            </note>
            <harmony print-frame="no">
                <root>
                    <root-step>C</root-step>
                </root>
                <kind text="">major</kind>
            </harmony>
            <note default-y="-50.00" default-x="163.58">
                <pitch>
                    <step>C</step>
                    <octave>4</octave>
                </pitch>
                <duration>4</duration>
                <voice>1</voice>
                <type>quarter</type>
                <stem>up</stem>
                <lyric number="1">
                    <syllabic>begin</syllabic>
                    <text>á</text>
                </lyric>
                <lyric number="2">
                    <syllabic>begin</syllabic>
                    <text>lasz</text>
                </lyric>
                <lyric number="3">
                    <syllabic>begin</syllabic>
                    <text>gú</text>
                </lyric>
                <lyric number="4">
                    <syllabic>begin</syllabic>
                    <text>gú</text>
                </lyric>
            </note>
            <harmony print-frame="no">
                <root>
                    <root-step>D</root-step>
                </root>
                <kind text="m">minor</kind>
            </harmony>
            <note default-y="-45.00" default-x="220.96">
                <pitch>
                    <step>D</step>
                    <octave>4</octave>
                </pitch>
                <duration>4</duration>
                <voice>1</voice>
                <type>quarter</type>
                <stem>up</stem>
                <notations>
                    <articulations>
                        <breath-mark/>
                    </articulations>
                </notations>
                <lyric number="1">
                    <syllabic>end</syllabic>
                    <text>raszt</text>
                </lyric>
                <lyric number="2">
                    <syllabic>end</syllabic>
                    <text>szak</text>
                </lyric>
                <lyric number="3">
                    <syllabic>end</syllabic>
                    <text>nya</text>
                </lyric>
                <lyric number="4">
                    <syllabic>end</syllabic>
                    <text>nya</text>
                </lyric>
            </note>
        </measure>
        <measure width="253.39" number="3">
            <harmony print-frame="no">
                <root>
                    <root-step>C</root-step>
                </root>
                <kind text="">major</kind>
            </harmony>
            <note default-y="-40.00" default-x="14.05">
                <pitch>
                    <step>E</step>
                    <octave>4</octave>
                </pitch>
                <duration>2</duration>
                <voice>1</voice>
                <type>eighth</type>
                <stem>up</stem>
                <lyric number="1">
                    <syllabic>begin</syllabic>
                    <text>vi</text>
                </lyric>
                <lyric number="2">
                    <syllabic>begin</syllabic>
                    <text>vi</text>
                </lyric>
                <lyric number="3">
                    <syllabic>begin</syllabic>
                    <text>vi</text>
                </lyric>
                <lyric number="4">
                    <syllabic>begin</syllabic>
                    <text>vi</text>
                </lyric>
            </note>
            <note default-y="-40.00" default-x="50.67">
                <pitch>
                    <step>E</step>
                    <octave>4</octave>
                </pitch>
                <duration>6</duration>
                <voice>1</voice>
                <type>quarter</type>
                <dot/>
                <stem>up</stem>
                <lyric number="1">
                    <syllabic>middle</syllabic>
                    <text>rá</text>
                </lyric>
                <lyric number="2">
                    <syllabic>middle</syllabic>
                    <text>rá</text>
                </lyric>
                <lyric number="3">
                    <syllabic>middle</syllabic>
                    <text>rá</text>
                </lyric>
                <lyric number="4">
                    <syllabic>middle</syllabic>
                    <text>rá</text>
                </lyric>
            </note>
            <harmony print-frame="no">
                <root>
                    <root-step>D</root-step>
                </root>
                <kind text="m">minor</kind>
            </harmony>
            <note default-y="-45.00" default-x="121.35">
                <pitch>
                    <step>D</step>
                    <octave>4</octave>
                </pitch>
                <duration>4</duration>
                <voice>1</voice>
                <type>quarter</type>
                <stem>up</stem>
                <lyric number="1">
                    <syllabic>end</syllabic>
                    <text>gom</text>
                </lyric>
                <lyric number="2">
                    <syllabic>end</syllabic>
                    <text>gom,</text>
                </lyric>
                <lyric number="3">
                    <syllabic>end</syllabic>
                    <text>gom,</text>
                </lyric>
                <lyric number="4">
                    <syllabic>end</syllabic>
                    <text>gom,</text>
                </lyric>
            </note>
            <note default-y="-45.00" default-x="179.32">
                <pitch>
                    <step>D</step>
                    <octave>4</octave>
                </pitch>
                <duration>2</duration>
                <voice>1</voice>
                <type>eighth</type>
                <stem>up</stem>
                <beam number="1">begin</beam>
                <notations>
                    <slur type="start" number="1"/>
                </notations>
                <lyric number="1">
                    <syllabic>end</syllabic>
                    <text>vi</text>
                    <extend/>
                </lyric>
                <lyric number="2">
                    <syllabic>single</syllabic>
                    <text>vi</text>
                    <extend/>
                </lyric>
                <lyric number="3">
                    <syllabic>single</syllabic>
                    <text>vi</text>
                    <extend/>
                </lyric>
                <lyric number="4">
                    <syllabic>single</syllabic>
                    <text>vi</text>
                    <extend/>
                </lyric>
            </note>
            <note default-y="-40.00" default-x="215.55">
                <pitch>
                    <step>E</step>
                    <octave>4</octave>
                </pitch>
                <duration>2</duration>
                <voice>1</voice>
                <type>eighth</type>
                <stem>up</stem>
                <beam number="1">end</beam>
                <notations>
                    <slur type="stop" number="1"/>
                </notations>
            </note>
        </measure>
        <measure width="188.28" number="4">
            <harmony print-frame="no">
                <root>
                    <root-step>C</root-step>
                </root>
                <kind text="">major</kind>
            </harmony>
            <note default-y="-50.00" default-x="16.91">
                <pitch>
                    <step>C</step>
                    <octave>4</octave>
                </pitch>
                <duration>8</duration>
                <voice>1</voice>
                <type>half</type>
                <stem>up</stem>
                <lyric number="1">
                    <syllabic>begin</syllabic>
                    <text>rá</text>
                </lyric>
                <lyric number="2">
                    <syllabic>begin</syllabic>
                    <text>rá</text>
                </lyric>
                <lyric number="3">
                    <syllabic>begin</syllabic>
                    <text>rá</text>
                </lyric>
                <lyric number="4">
                    <syllabic>single</syllabic>
                    <text>rá,</text>
                </lyric>
            </note>
            <harmony print-frame="no">
                <root>
                    <root-step>G</root-step>
                </root>
                <kind text="">major</kind>
            </harmony>
            <note default-y="-65.00" default-x="89.42">
                <pitch>
                    <step>G</step>
                    <octave>3</octave>
                </pitch>
                <duration>6</duration>
                <voice>1</voice>
                <type>quarter</type>
                <dot/>
                <stem>up</stem>
                <lyric number="1">
                    <syllabic>end</syllabic>
                    <text>gom.</text>
                </lyric>
                <lyric number="2">
                    <syllabic>end</syllabic>
                    <text>gom?</text>
                </lyric>
                <lyric number="3">
                    <syllabic>end</syllabic>
                    <text>gom,</text>
                </lyric>
                <lyric number="4">
                    <syllabic>single</syllabic>
                    <text>gom.</text>
                </lyric>
            </note>
            <note>
                <rest/>
                <duration>2</duration>
                <voice>1</voice>
                <type>eighth</type>
            </note>
        </measure>
        <measure width="309.09" number="5">
            <print new-system="yes">
                <system-layout>
                    <system-margins>
                        <left-margin>2.50</left-margin>
                        <right-margin>0.00</right-margin>
                    </system-margins>
                    <system-distance>182.72</system-distance>
                </system-layout>
            </print>
            <harmony print-frame="no">
                <root>
                    <root-step>C</root-step>
                </root>
                <kind text="">major</kind>
            </harmony>
            <note default-y="-50.00" default-x="77.02">
                <pitch>
                    <step>C</step>
                    <octave>4</octave>
                </pitch>
                <duration>4</duration>
                <voice>1</voice>
                <type>quarter</type>
                <stem>up</stem>
                <lyric number="1">
                    <syllabic>begin</syllabic>
                    <text>Min</text>
                </lyric>
                <lyric number="2">
                    <syllabic>single</syllabic>
                    <text>Te</text>
                </lyric>
                <lyric number="3">
                    <syllabic>single</syllabic>
                    <text>Mert</text>
                </lyric>
                <lyric number="4">
                    <syllabic>single</syllabic>
                    <text>Mert</text>
                </lyric>
            </note>
            <harmony print-frame="no">
                <root>
                    <root-step>D</root-step>
                </root>
                <kind text="m">minor</kind>
            </harmony>
            <note default-y="-45.00" default-x="134.45">
                <pitch>
                    <step>D</step>
                    <octave>4</octave>
                </pitch>
                <duration>4</duration>
                <voice>1</voice>
                <type>quarter</type>
                <stem>up</stem>
                <lyric number="1">
                    <syllabic>end</syllabic>
                    <text>den</text>
                </lyric>
                <lyric number="2">
                    <syllabic>begin</syllabic>
                    <text>en</text>
                </lyric>
                <lyric number="3">
                    <syllabic>single</syllabic>
                    <text>azt</text>
                </lyric>
                <lyric number="4">
                    <syllabic>single</syllabic>
                    <text>azt</text>
                </lyric>
            </note>
            <harmony print-frame="no">
                <root>
                    <root-step>C</root-step>
                </root>
                <kind text="">major</kind>
            </harmony>
            <note default-y="-40.00" default-x="191.88">
                <pitch>
                    <step>E</step>
                    <octave>4</octave>
                </pitch>
                <duration>2</duration>
                <voice>1</voice>
                <type>eighth</type>
                <stem>up</stem>
                <lyric number="1">
                    <syllabic>begin</syllabic>
                    <text>ma</text>
                </lyric>
                <lyric number="2">
                    <syllabic>middle</syllabic>
                    <text>ge</text>
                </lyric>
                <lyric number="3">
                    <syllabic>single</syllabic>
                    <text>a</text>
                </lyric>
                <lyric number="4">
                    <syllabic>single</syllabic>
                    <text>a</text>
                </lyric>
            </note>
            <note default-y="-40.00" default-x="237.46">
                <pitch>
                    <step>E</step>
                    <octave>4</octave>
                </pitch>
                <duration>6</duration>
                <voice>1</voice>
                <type>quarter</type>
                <dot/>
                <stem>up</stem>
                <lyric number="1">
                    <syllabic>middle</syllabic>
                    <text>dár</text>
                </lyric>
                <lyric number="2">
                    <syllabic>end</syllabic>
                    <text>met</text>
                </lyric>
                <lyric number="3">
                    <syllabic>single</syllabic>
                    <text>szél</text>
                </lyric>
                <lyric number="4">
                    <syllabic>single</syllabic>
                    <text>bú</text>
                </lyric>
            </note>
        </measure>
        <measure width="324.94" number="6">
            <harmony print-frame="no">
                <root>
                    <root-step>D</root-step>
                </root>
                <kind text="m">minor</kind>
            </harmony>
            <note default-y="-45.00" default-x="28.12">
                <pitch>
                    <step>D</step>
                    <octave>4</octave>
                </pitch>
                <duration>4</duration>
                <voice>1</voice>
                <type>quarter</type>
                <stem>up</stem>
                <lyric number="1">
                    <syllabic>middle</syllabic>
                    <text>tár</text>
                </lyric>
                <lyric number="2">
                    <syllabic>single</syllabic>
                    <text>s én</text>
                </lyric>
                <lyric number="3">
                    <syllabic>begin</syllabic>
                    <text>köny</text>
                </lyric>
                <lyric number="4">
                    <syllabic>begin</syllabic>
                    <text>haj</text>
                </lyric>
            </note>
            <note default-y="-45.00" default-x="81.72">
                <pitch>
                    <step>D</step>
                    <octave>4</octave>
                </pitch>
                <duration>2</duration>
                <voice>1</voice>
                <type>eighth</type>
                <stem>up</stem>
                <beam number="1">begin</beam>
                <notations>
                    <slur type="start" number="1"/>
                </notations>
                <lyric number="1">
                    <syllabic>end</syllabic>
                    <text>sat</text>
                    <extend/>
                </lyric>
                <lyric number="2">
                    <syllabic>end</syllabic>
                    <text>té</text>
                    <extend/>
                </lyric>
                <lyric number="3">
                    <syllabic>end</syllabic>
                    <text>nyen</text>
                    <extend/>
                </lyric>
                <lyric number="4">
                    <syllabic>end</syllabic>
                    <text>to</text>
                    <extend/>
                </lyric>
            </note>
            <note default-y="-40.00" default-x="133.46">
                <pitch>
                    <step>E</step>
                    <octave>4</octave>
                </pitch>
                <duration>2</duration>
                <voice>1</voice>
                <type>eighth</type>
                <stem>up</stem>
                <beam number="1">end</beam>
                <notations>
                    <slur type="stop" number="1"/>
                </notations>
            </note>
            <harmony print-frame="no">
                <root>
                    <root-step>C</root-step>
                </root>
                <kind text="">major</kind>
            </harmony>
            <note default-y="-50.00" default-x="166.97">
                <pitch>
                    <step>C</step>
                    <octave>4</octave>
                </pitch>
                <duration>2</duration>
                <voice>1</voice>
                <type>eighth</type>
                <stem>up</stem>
                <beam number="1">begin</beam>
                <notations>
                    <slur type="start" number="1"/>
                </notations>
                <lyric number="1">
                    <syllabic>begin</syllabic>
                    <text>vá</text>
                    <extend/>
                </lyric>
                <lyric number="2">
                    <syllabic>single</syllabic>
                    <text>ge</text>
                    <extend/>
                </lyric>
                <lyric number="3">
                    <syllabic>single</syllabic>
                    <text>fúj</text>
                    <extend/>
                </lyric>
                <lyric number="4">
                    <syllabic>single</syllabic>
                    <text>gat</text>
                    <extend/>
                </lyric>
            </note>
            <note default-y="-55.00" default-x="202.09">
                <pitch>
                    <step>B</step>
                    <octave>3</octave>
                </pitch>
                <duration>2</duration>
                <voice>1</voice>
                <type>eighth</type>
                <stem>up</stem>
                <beam number="1">end</beam>
                <notations>
                    <slur type="stop" number="1"/>
                </notations>
            </note>
            <harmony print-frame="no">
                <root>
                    <root-step>A</root-step>
                </root>
                <kind text="m">minor</kind>
            </harmony>
            <note default-y="-60.00" default-x="244.73">
                <pitch>
                    <step>A</step>
                    <octave>3</octave>
                </pitch>
                <duration>4</duration>
                <voice>1</voice>
                <type>quarter</type>
                <stem>up</stem>
                <notations>
                    <articulations>
                        <breath-mark/>
                    </articulations>
                </notations>
                <lyric number="1">
                    <syllabic>single</syllabic>
                    <text>laszt,</text>
                </lyric>
                <lyric number="2">
                    <syllabic>single</syllabic>
                    <text>det</text>
                </lyric>
                <lyric number="3">
                    <syllabic>single</syllabic>
                    <text>ja</text>
                </lyric>
                <lyric number="4">
                    <syllabic>single</syllabic>
                    <text>ja</text>
                </lyric>
            </note>
        </measure>
        <measure width="257.87" number="7">
            <harmony print-frame="no">
                <root>
                    <root-step>D</root-step>
                </root>
                <kind text="m">minor</kind>
            </harmony>
            <note default-y="-45.00" default-x="14.05">
                <pitch>
                    <step>D</step>
                    <octave>4</octave>
                </pitch>
                <duration>2</duration>
                <voice>1</voice>
                <type>eighth</type>
                <stem>up</stem>
                <lyric number="1">
                    <syllabic>begin</syllabic>
                    <text>vi</text>
                </lyric>
                <lyric number="2">
                    <syllabic>begin</syllabic>
                    <text>vi</text>
                </lyric>
                <lyric number="3">
                    <syllabic>begin</syllabic>
                    <text>vi</text>
                </lyric>
                <lyric number="4">
                    <syllabic>begin</syllabic>
                    <text>vi</text>
                </lyric>
            </note>
            <note default-y="-45.00" default-x="48.87">
                <pitch>
                    <step>D</step>
                    <octave>4</octave>
                </pitch>
                <duration>4</duration>
                <voice>1</voice>
                <type>quarter</type>
                <stem>up</stem>
                <notations>
                    <slur type="start" number="1"/>
                </notations>
                <lyric number="1">
                    <syllabic>end</syllabic>
                    <text>rá</text>
                    <extend/>
                </lyric>
                <lyric number="2">
                    <syllabic>end</syllabic>
                    <text>rá</text>
                    <extend/>
                </lyric>
                <lyric number="3">
                    <syllabic>end</syllabic>
                    <text>rá</text>
                    <extend/>
                </lyric>
                <lyric number="4">
                    <syllabic>end</syllabic>
                    <text>rá</text>
                    <extend/>
                </lyric>
            </note>
            <note default-y="-40.00" default-x="96.75">
                <pitch>
                    <step>E</step>
                    <octave>4</octave>
                </pitch>
                <duration>1</duration>
                <voice>1</voice>
                <type>16th</type>
                <stem>up</stem>
                <beam number="1">begin</beam>
                <beam number="2">begin</beam>
                <notations>
                    <slur type="stop" number="1"/>
                </notations>
            </note>
            <note default-y="-45.00" default-x="118.52">
                <pitch>
                    <step>D</step>
                    <octave>4</octave>
                </pitch>
                <duration>1</duration>
                <voice>1</voice>
                <type>16th</type>
                <stem>up</stem>
                <beam number="1">end</beam>
                <beam number="2">end</beam>
            </note>
            <harmony print-frame="no">
                <root>
                    <root-step>C</root-step>
                </root>
                <kind text="">major</kind>
            </harmony>
            <note default-y="-50.00" default-x="160.51">
                <pitch>
                    <step>C</step>
                    <octave>4</octave>
                </pitch>
                <duration>4</duration>
                <voice>1</voice>
                <type>quarter</type>
                <stem>up</stem>
                <lyric number="1">
                    <syllabic>single</syllabic>
                    <text>gom,</text>
                </lyric>
                <lyric number="2">
                    <syllabic>single</syllabic>
                    <text>gom,</text>
                </lyric>
                <lyric number="3">
                    <syllabic>single</syllabic>
                    <text>gom,</text>
                </lyric>
                <lyric number="4">
                    <syllabic>single</syllabic>
                    <text>gom,</text>
                </lyric>
            </note>
            <harmony print-frame="no">
                <root>
                    <root-step>G</root-step>
                </root>
                <kind text="">major</kind>
            </harmony>
            <note default-y="-55.00" default-x="208.39">
                <pitch>
                    <step>B</step>
                    <octave>3</octave>
                </pitch>
                <duration>4</duration>
                <voice>1</voice>
                <type>quarter</type>
                <stem>up</stem>
                <lyric number="1">
                    <syllabic>begin</syllabic>
                    <text>vi</text>
                </lyric>
                <lyric number="2">
                    <syllabic>begin</syllabic>
                    <text>vi</text>
                </lyric>
                <lyric number="3">
                    <syllabic>begin</syllabic>
                    <text>vi</text>
                </lyric>
                <lyric number="4">
                    <syllabic>begin</syllabic>
                    <text>vi</text>
                </lyric>
            </note>
        </measure>
        <measure width="182.77" number="8">
            <harmony print-frame="no">
                <root>
                    <root-step>A</root-step>
                </root>
                <kind text="m">minor</kind>
            </harmony>
            <note default-y="-60.00" default-x="14.04">
                <pitch>
                    <step>A</step>
                    <octave>3</octave>
                </pitch>
                <duration>8</duration>
                <voice>1</voice>
                <type>half</type>
                <stem>up</stem>
                <lyric number="1">
                    <syllabic>middle</syllabic>
                    <text>rá</text>
                </lyric>
                <lyric number="2">
                    <syllabic>middle</syllabic>
                    <text>rá</text>
                </lyric>
                <lyric number="3">
                    <syllabic>middle</syllabic>
                    <text>rá</text>
                </lyric>
                <lyric number="4">
                    <syllabic>middle</syllabic>
                    <text>rá</text>
                </lyric>
            </note>
            <harmony print-frame="no">
                <root>
                    <root-step>A</root-step>
                </root>
                <kind text="m">minor</kind>
            </harmony>
            <note default-y="-60.00" default-x="82.86">
                <pitch>
                    <step>A</step>
                    <octave>3</octave>
                </pitch>
                <duration>6</duration>
                <voice>1</voice>
                <type>quarter</type>
                <dot/>
                <stem>up</stem>
                <lyric number="1">
                    <syllabic>end</syllabic>
                    <text>gom.</text>
                </lyric>
                <lyric number="2">
                    <syllabic>end</syllabic>
                    <text>gom.</text>
                </lyric>
                <lyric number="3">
                    <syllabic>end</syllabic>
                    <text>gom.</text>
                </lyric>
                <lyric number="4">
                    <syllabic>end</syllabic>
                    <text>gom.</text>
                </lyric>
            </note>
            <note>
                <rest/>
                <duration>2</duration>
                <voice>1</voice>
                <type>eighth</type>
            </note>
            <barline location="right">
                <bar-style>light-heavy</bar-style>
            </barline>
        </measure>
    </part>
</score-partwise>
