<?xml version="1.0" encoding="UTF-8"?>
<!DOCTYPE score-partwise PUBLIC "-//Recordare//DTD MusicXML 2.0 Partwise//EN" "http://www.musicxml.org/dtds/partwise.dtd">
<score-partwise version="2.0">
    <work>
        <work-number></work-number>
        <work-title></work-title>
    </work>
    <movement-number></movement-number>
    <movement-title>Megkötöm lovamat</movement-title>
    <identification>
        <creator type="composer">Traditional Hungarian - Slovak origin</creator>
        <creator type="poet">Unkown - Bródy János</creator>
        <rights>Public Domain</rights>
        <encoding>
            <software>MuseScore 0.9.6.2</software>
            <encoding-date>2010-09-09</encoding-date>
            <software>ProxyMusic 2.0 c</software>
        </encoding>
        <source>http://wikifonia.org/node/7114/revisions/9926/view</source>
    </identification>
    <defaults>
        <scaling>
            <millimeters>7.056</millimeters>
            <tenths>40</tenths>
        </scaling>
        <page-layout>
            <page-height>1683.67</page-height>
            <page-width>1190.48</page-width>
            <page-margins type="even">
                <left-margin>56.6893</left-margin>
                <right-margin>56.6893</right-margin>
                <top-margin>56.6893</top-margin>
                <bottom-margin>226.758</bottom-margin>
            </page-margins>
            <page-margins type="odd">
                <left-margin>56.6893</left-margin>
                <right-margin>56.6893</right-margin>
                <top-margin>56.6893</top-margin>
                <bottom-margin>226.758</bottom-margin>
            </page-margins>
        </page-layout>
    </defaults>
    <credit page="1">
        <credit-words font-size="24" default-y="1626.98" default-x="595.238" justify="center" valign="top">Megkötöm lovamat</credit-words>
    </credit>
    <credit page="1">
        <credit-words font-size="14" default-y="1570.29" default-x="595.238" justify="center" valign="top">Ha én rózsa volnék</credit-words>
    </credit>
    <credit page="1">
        <credit-words font-size="12" default-y="1559.98" default-x="1133.79" justify="right" valign="top">Traditional Hungarian- Slovak</credit-words>
    </credit>
    <credit page="1">
        <credit-words font-size="12" default-y="1559.98" default-x="56.6893" justify="left" valign="top">Unkown - Bródy János</credit-words>
    </credit>
    <part-list>
        <score-part id="P1">
            <part-name></part-name>
            <score-instrument id="P1-I3">
                <instrument-name></instrument-name>
            </score-instrument>
            <midi-instrument id="P1-I3">
                <midi-channel>1</midi-channel>
                <midi-program>1</midi-program>
            </midi-instrument>
        </score-part>
    </part-list>
    <part id="P1">
        <measure width="343.53" number="1">
            <print>
                <system-layout>
                    <system-margins>
                        <left-margin>2.50</left-margin>
                        <right-margin>0.00</right-margin>
                    </system-margins>
                    <top-system-distance>216.13</top-system-distance>
                </system-layout>
            </print>
            <attributes>
                <divisions>1</divisions>
                <key>
                    <fifths>0</fifths>
                    <mode>major</mode>
                </key>
                <time>
                    <beats>4</beats>
                    <beat-type>4</beat-type>
                </time>
                <clef>
                    <sign>G</sign>
                    <line>2</line>
                </clef>
            </attributes>
            <harmony print-frame="no">
                <root>
                    <root-step>D</root-step>
                </root>
                <kind text="m">minor</kind>
            </harmony>
            <direction placement="above">
                <direction-type>
                    <words>Adagio </words>
                </direction-type>
                <direction-type>
                    <metronome parentheses="no">
                        <beat-unit>quarter</beat-unit>
                        <per-minute>72</per-minute>
                    </metronome>
                </direction-type>
                <sound tempo="72"/>
            </direction>
            <note default-y="-45.00" default-x="96.82">
                <pitch>
                    <step>D</step>
                    <octave>4</octave>
                </pitch>
                <duration>1</duration>
                <voice>1</voice>
                <type>quarter</type>
                <stem>up</stem>
                <lyric number="1">
                    <syllabic>begin</syllabic>
                    <text>Meg</text>
                </lyric>
                <lyric number="2">
                    <syllabic>single</syllabic>
                    <text>Ha</text>
                </lyric>
                <lyric number="3">
                    <syllabic>single</syllabic>
                    <text>Ha</text>
                </lyric>
                <lyric number="4">
                    <syllabic>single</syllabic>
                    <text>Ha</text>
                </lyric>
                <lyric number="5">
                    <syllabic>single</syllabic>
                    <text>Ha</text>
                </lyric>
                <lyric number="6">
                    <syllabic>single</syllabic>
                    <text>Ha</text>
                </lyric>
            </note>
            <note default-y="-40.00" default-x="158.10">
                <pitch>
                    <step>E</step>
                    <octave>4</octave>
                </pitch>
                <duration>1</duration>
                <voice>1</voice>
                <type>quarter</type>
                <stem>up</stem>
                <lyric number="1">
                    <syllabic>middle</syllabic>
                    <text>kö</text>
                </lyric>
                <lyric number="2">
                    <syllabic>single</syllabic>
                    <text>én</text>
                </lyric>
                <lyric number="3">
                    <syllabic>single</syllabic>
                    <text>én</text>
                </lyric>
                <lyric number="4">
                    <syllabic>single</syllabic>
                    <text>én</text>
                </lyric>
                <lyric number="5">
                    <syllabic>single</syllabic>
                    <text>én</text>
                </lyric>
                <lyric number="6">
                    <syllabic>single</syllabic>
                    <text>én</text>
                </lyric>
            </note>
            <note default-y="-35.00" default-x="219.38">
                <pitch>
                    <step>F</step>
                    <octave>4</octave>
                </pitch>
                <duration>1</duration>
                <voice>1</voice>
                <type>quarter</type>
                <stem>up</stem>
                <lyric number="1">
                    <syllabic>end</syllabic>
                    <text>töm</text>
                </lyric>
                <lyric number="2">
                    <syllabic>begin</syllabic>
                    <text>ró</text>
                </lyric>
                <lyric number="3">
                    <syllabic>begin</syllabic>
                    <text>ka</text>
                </lyric>
                <lyric number="4">
                    <syllabic>begin</syllabic>
                    <text>ab</text>
                </lyric>
                <lyric number="5">
                    <syllabic>begin</syllabic>
                    <text>ut</text>
                </lyric>
                <lyric number="6">
                    <syllabic>begin</syllabic>
                    <text>zász</text>
                </lyric>
            </note>
            <note default-y="-35.00" default-x="280.65">
                <pitch>
                    <step>F</step>
                    <octave>4</octave>
                </pitch>
                <duration>1</duration>
                <voice>1</voice>
                <type>quarter</type>
                <stem>up</stem>
                <lyric number="1">
                    <syllabic>begin</syllabic>
                    <text>lo</text>
                </lyric>
                <lyric number="2">
                    <syllabic>end</syllabic>
                    <text>zsa</text>
                </lyric>
                <lyric number="3">
                    <syllabic>end</syllabic>
                    <text>pu</text>
                </lyric>
                <lyric number="4">
                    <syllabic>end</syllabic>
                    <text>lak</text>
                </lyric>
                <lyric number="5">
                    <syllabic>end</syllabic>
                    <text>ca</text>
                </lyric>
                <lyric number="6">
                    <syllabic>end</syllabic>
                    <text>ló</text>
                </lyric>
            </note>
        </measure>
        <measure width="211.89" number="2">
            <harmony print-frame="no">
                <root>
                    <root-step>D</root-step>
                </root>
                <kind text="m">minor</kind>
            </harmony>
            <note default-y="-35.00" default-x="19.81">
                <pitch>
                    <step>F</step>
                    <octave>4</octave>
                </pitch>
                <duration>1</duration>
                <voice>1</voice>
                <type>quarter</type>
                <stem>up</stem>
                <lyric number="1">
                    <syllabic>middle</syllabic>
                    <text>va</text>
                </lyric>
                <lyric number="2">
                    <syllabic>begin</syllabic>
                    <text>vol</text>
                </lyric>
                <lyric number="3">
                    <syllabic>begin</syllabic>
                    <text>vol</text>
                </lyric>
                <lyric number="4">
                    <syllabic>begin</syllabic>
                    <text>vol</text>
                </lyric>
                <lyric number="5">
                    <syllabic>begin</syllabic>
                    <text>vol</text>
                </lyric>
                <lyric number="6">
                    <syllabic>begin</syllabic>
                    <text>vol</text>
                </lyric>
            </note>
            <note default-y="-35.00" default-x="72.72">
                <pitch>
                    <step>F</step>
                    <octave>4</octave>
                </pitch>
                <duration>1</duration>
                <voice>1</voice>
                <type>quarter</type>
                <stem>up</stem>
                <lyric number="1">
                    <syllabic>end</syllabic>
                    <text>mat</text>
                </lyric>
                <lyric number="2">
                    <syllabic>end</syllabic>
                    <text>nék,</text>
                </lyric>
                <lyric number="3">
                    <syllabic>end</syllabic>
                    <text>nék,</text>
                </lyric>
                <lyric number="4">
                    <syllabic>end</syllabic>
                    <text>nék,</text>
                </lyric>
                <lyric number="5">
                    <syllabic>end</syllabic>
                    <text>nék,</text>
                </lyric>
                <lyric number="6">
                    <syllabic>end</syllabic>
                    <text>nék,</text>
                </lyric>
            </note>
            <note>
                <rest/>
                <duration>2</duration>
                <voice>1</voice>
                <type>half</type>
            </note>
        </measure>
        <measure width="300.89" number="3">
            <harmony print-frame="no">
                <root>
                    <root-step>A</root-step>
                </root>
                <kind text="">major</kind>
            </harmony>
            <note default-y="-40.00" default-x="24.92">
                <pitch>
                    <step>E</step>
                    <octave>4</octave>
                </pitch>
                <duration>1</duration>
                <voice>1</voice>
                <type>quarter</type>
                <stem>up</stem>
                <lyric number="1">
                    <syllabic>begin</syllabic>
                    <text>pi</text>
                </lyric>
                <lyric number="2">
                    <syllabic>single</syllabic>
                    <text>nem</text>
                </lyric>
                <lyric number="3">
                    <syllabic>begin</syllabic>
                    <text>min</text>
                </lyric>
                <lyric number="4">
                    <syllabic>begin</syllabic>
                    <text>ak</text>
                </lyric>
                <lyric number="5">
                    <syllabic>begin</syllabic>
                    <text>min</text>
                </lyric>
                <lyric number="6">
                    <syllabic>begin</syllabic>
                    <text>so</text>
                </lyric>
            </note>
            <note default-y="-45.00" default-x="93.51">
                <pitch>
                    <step>D</step>
                    <octave>4</octave>
                </pitch>
                <duration>1</duration>
                <voice>1</voice>
                <type>quarter</type>
                <stem>up</stem>
                <lyric number="1">
                    <syllabic>end</syllabic>
                    <text>ros</text>
                </lyric>
                <lyric number="2">
                    <syllabic>single</syllabic>
                    <text>csak</text>
                </lyric>
                <lyric number="3">
                    <syllabic>end</syllabic>
                    <text>dig</text>
                </lyric>
                <lyric number="4">
                    <syllabic>middle</syllabic>
                    <text>ko</text>
                </lyric>
                <lyric number="5">
                    <syllabic>end</syllabic>
                    <text>dig</text>
                </lyric>
                <lyric number="6">
                    <syllabic>middle</syllabic>
                    <text>ha</text>
                </lyric>
            </note>
            <note default-y="-50.00" default-x="162.10">
                <pitch>
                    <step>C</step>
                    <alter>1</alter>
                    <octave>4</octave>
                </pitch>
                <duration>1</duration>
                <voice>1</voice>
                <type>quarter</type>
                <accidental>sharp</accidental>
                <stem>up</stem>
                <lyric number="1">
                    <syllabic>begin</syllabic>
                    <text>al</text>
                </lyric>
                <lyric number="2">
                    <syllabic>begin</syllabic>
                    <text>egy</text>
                </lyric>
                <lyric number="3">
                    <syllabic>begin</syllabic>
                    <text>nyit</text>
                </lyric>
                <lyric number="4">
                    <syllabic>end</syllabic>
                    <text>ra</text>
                </lyric>
                <lyric number="5">
                    <syllabic>begin</syllabic>
                    <text>tisz</text>
                </lyric>
                <lyric number="6">
                    <syllabic>end</syllabic>
                    <text>sem</text>
                </lyric>
            </note>
            <note default-y="-40.00" default-x="230.70">
                <pitch>
                    <step>E</step>
                    <octave>4</octave>
                </pitch>
                <duration>1</duration>
                <voice>1</voice>
                <type>quarter</type>
                <stem>up</stem>
                <lyric number="1">
                    <syllabic>middle</syllabic>
                    <text>ma</text>
                </lyric>
                <lyric number="2">
                    <syllabic>end</syllabic>
                    <text>szer</text>
                </lyric>
                <lyric number="3">
                    <syllabic>end</syllabic>
                    <text>va</text>
                </lyric>
                <lyric number="4">
                    <syllabic>single</syllabic>
                    <text>nagy</text>
                </lyric>
                <lyric number="5">
                    <syllabic>end</syllabic>
                    <text>ta</text>
                </lyric>
                <lyric number="6">
                    <syllabic>begin</syllabic>
                    <text>lo</text>
                </lyric>
            </note>
        </measure>
        <measure width="218.29" number="4">
            <harmony print-frame="no">
                <root>
                    <root-step>D</root-step>
                </root>
                <kind text="m">minor</kind>
            </harmony>
            <note default-y="-45.00" default-x="23.01">
                <pitch>
                    <step>D</step>
                    <octave>4</octave>
                </pitch>
                <duration>1</duration>
                <voice>1</voice>
                <type>quarter</type>
                <stem>up</stem>
                <lyric number="1">
                    <syllabic>middle</syllabic>
                    <text>fá</text>
                </lyric>
                <lyric number="2">
                    <syllabic>begin</syllabic>
                    <text>nyíl</text>
                </lyric>
                <lyric number="3">
                    <syllabic>begin</syllabic>
                    <text>áll</text>
                </lyric>
                <lyric number="4">
                    <syllabic>begin</syllabic>
                    <text>len</text>
                </lyric>
                <lyric number="5">
                    <syllabic>begin</syllabic>
                    <text>len</text>
                </lyric>
                <lyric number="6">
                    <syllabic>middle</syllabic>
                    <text>bog</text>
                </lyric>
            </note>
            <note default-y="-45.00" default-x="76.81">
                <pitch>
                    <step>D</step>
                    <octave>4</octave>
                </pitch>
                <duration>1</duration>
                <voice>1</voice>
                <type>quarter</type>
                <stem>up</stem>
                <lyric number="1">
                    <syllabic>end</syllabic>
                    <text>hoz</text>
                </lyric>
                <lyric number="2">
                    <syllabic>end</syllabic>
                    <text>nék.</text>
                </lyric>
                <lyric number="3">
                    <syllabic>end</syllabic>
                    <text>nék.</text>
                </lyric>
                <lyric number="4">
                    <syllabic>end</syllabic>
                    <text>nék,</text>
                </lyric>
                <lyric number="5">
                    <syllabic>end</syllabic>
                    <text>nék,</text>
                </lyric>
                <lyric number="6">
                    <syllabic>end</syllabic>
                    <text>nék.</text>
                </lyric>
            </note>
            <note>
                <rest/>
                <duration>2</duration>
                <voice>1</voice>
                <type>half</type>
            </note>
        </measure>
        <measure width="350.12" number="5">
            <print new-system="yes">
                <system-layout>
                    <system-margins>
                        <left-margin>2.50</left-margin>
                        <right-margin>0.00</right-margin>
                    </system-margins>
                    <system-distance>270.68</system-distance>
                </system-layout>
            </print>
            <harmony print-frame="no">
                <root>
                    <root-step>F</root-step>
                </root>
                <kind text="">major</kind>
            </harmony>
            <note default-y="-35.00" default-x="80.22">
                <pitch>
                    <step>F</step>
                    <octave>4</octave>
                </pitch>
                <duration>1</duration>
                <voice>1</voice>
                <type>quarter</type>
                <stem>up</stem>
                <lyric number="1">
                    <syllabic>begin</syllabic>
                    <text>Meg</text>
                </lyric>
                <lyric number="2">
                    <syllabic>begin</syllabic>
                    <text>Min</text>
                </lyric>
                <lyric number="3">
                    <syllabic>begin</syllabic>
                    <text>A</text>
                </lyric>
                <lyric number="4">
                    <syllabic>single</syllabic>
                    <text>Hogy</text>
                </lyric>
                <lyric number="5">
                    <syllabic>begin</syllabic>
                    <text>Min</text>
                </lyric>
                <lyric number="6">
                    <syllabic>begin</syllabic>
                    <text>Min</text>
                </lyric>
            </note>
            <note default-y="-30.00" default-x="147.29">
                <pitch>
                    <step>G</step>
                    <octave>4</octave>
                </pitch>
                <duration>1</duration>
                <voice>1</voice>
                <type>quarter</type>
                <stem>up</stem>
                <lyric number="1">
                    <syllabic>middle</syllabic>
                    <text>kö</text>
                </lyric>
                <lyric number="2">
                    <syllabic>end</syllabic>
                    <text>den</text>
                </lyric>
                <lyric number="3">
                    <syllabic>end</syllabic>
                    <text>kár</text>
                </lyric>
                <lyric number="4">
                    <syllabic>single</syllabic>
                    <text>az</text>
                </lyric>
                <lyric number="5">
                    <syllabic>end</syllabic>
                    <text>den</text>
                </lyric>
                <lyric number="6">
                    <syllabic>middle</syllabic>
                    <text>den</text>
                </lyric>
            </note>
            <note default-y="-25.00" default-x="214.37">
                <pitch>
                    <step>A</step>
                    <octave>4</octave>
                </pitch>
                <duration>1</duration>
                <voice>1</voice>
                <type>quarter</type>
                <stem>up</stem>
                <lyric number="1">
                    <syllabic>end</syllabic>
                    <text>töm</text>
                </lyric>
                <lyric number="2">
                    <syllabic>begin</syllabic>
                    <text>év</text>
                </lyric>
                <lyric number="3">
                    <syllabic>begin</syllabic>
                    <text>hon</text>
                </lyric>
                <lyric number="4">
                    <syllabic>begin</syllabic>
                    <text>e</text>
                </lyric>
                <lyric number="5">
                    <syllabic>begin</syllabic>
                    <text>ál</text>
                </lyric>
                <lyric number="6">
                    <syllabic>middle</syllabic>
                    <text>fé</text>
                </lyric>
            </note>
            <note default-y="-25.00" default-x="281.44">
                <pitch>
                    <step>A</step>
                    <octave>4</octave>
                </pitch>
                <duration>1</duration>
                <voice>1</voice>
                <type>quarter</type>
                <stem>up</stem>
                <lyric number="1">
                    <syllabic>begin</syllabic>
                    <text>szí</text>
                </lyric>
                <lyric number="2">
                    <syllabic>end</syllabic>
                    <text>ben</text>
                </lyric>
                <lyric number="3">
                    <syllabic>end</syllabic>
                    <text>nan</text>
                </lyric>
                <lyric number="4">
                    <syllabic>end</syllabic>
                    <text>gész</text>
                </lyric>
                <lyric number="5">
                    <syllabic>end</syllabic>
                    <text>dott</text>
                </lyric>
                <lyric number="6">
                    <syllabic>end</syllabic>
                    <text>le</text>
                </lyric>
            </note>
        </measure>
        <measure width="226.28" number="6">
            <harmony print-frame="no">
                <root>
                    <root-step>F</root-step>
                </root>
                <kind text="">major</kind>
            </harmony>
            <note default-y="-25.00" default-x="27.47">
                <pitch>
                    <step>A</step>
                    <octave>4</octave>
                </pitch>
                <duration>1</duration>
                <voice>1</voice>
                <type>quarter</type>
                <stem>up</stem>
                <lyric number="1">
                    <syllabic>middle</syllabic>
                    <text>ve</text>
                </lyric>
                <lyric number="2">
                    <syllabic>begin</syllabic>
                    <text>négy</text>
                </lyric>
                <lyric number="3">
                    <syllabic>begin</syllabic>
                    <text>jön</text>
                </lyric>
                <lyric number="4">
                    <syllabic>begin</syllabic>
                    <text>vi</text>
                </lyric>
                <lyric number="5">
                    <syllabic>begin</syllabic>
                    <text>es</text>
                </lyric>
                <lyric number="6">
                    <syllabic>begin</syllabic>
                    <text>szél</text>
                </lyric>
            </note>
            <note default-y="-25.00" default-x="82.25">
                <pitch>
                    <step>A</step>
                    <octave>4</octave>
                </pitch>
                <duration>1</duration>
                <voice>1</voice>
                <type>quarter</type>
                <stem>up</stem>
                <lyric number="1">
                    <syllabic>end</syllabic>
                    <text>met</text>
                </lyric>
                <lyric number="2">
                    <syllabic>end</syllabic>
                    <text>szer</text>
                </lyric>
                <lyric number="3">
                    <syllabic>end</syllabic>
                    <text>ne,</text>
                </lyric>
                <lyric number="4">
                    <syllabic>end</syllabic>
                    <text>lág</text>
                </lyric>
                <lyric number="5">
                    <syllabic>end</syllabic>
                    <text>te</text>
                </lyric>
                <lyric number="6">
                    <syllabic>end</syllabic>
                    <text>nek</text>
                </lyric>
            </note>
            <note>
                <rest/>
                <duration>2</duration>
                <voice>1</voice>
                <type>half</type>
            </note>
        </measure>
        <measure width="281.53" number="7">
            <harmony print-frame="no">
                <root>
                    <root-step>C</root-step>
                </root>
                <kind text="">major</kind>
            </harmony>
            <note default-y="-30.00" default-x="28.11">
                <pitch>
                    <step>G</step>
                    <octave>4</octave>
                </pitch>
                <duration>1</duration>
                <voice>1</voice>
                <type>quarter</type>
                <stem>up</stem>
                <lyric number="1">
                    <syllabic>begin</syllabic>
                    <text>gyön</text>
                </lyric>
                <lyric number="2">
                    <syllabic>begin</syllabic>
                    <text>vi</text>
                </lyric>
                <lyric number="3">
                    <syllabic>begin</syllabic>
                    <text>bár</text>
                </lyric>
                <lyric number="4">
                    <syllabic>begin</syllabic>
                    <text>lát</text>
                </lyric>
                <lyric number="5">
                    <syllabic>begin</syllabic>
                    <text>fény</text>
                </lyric>
                <lyric number="6">
                    <syllabic>begin</syllabic>
                    <text>ha</text>
                </lyric>
            </note>
            <note default-y="-35.00" default-x="91.07">
                <pitch>
                    <step>F</step>
                    <octave>4</octave>
                </pitch>
                <duration>1</duration>
                <voice>1</voice>
                <type>quarter</type>
                <stem>up</stem>
                <lyric number="1">
                    <syllabic>end</syllabic>
                    <text>ge</text>
                </lyric>
                <lyric number="2">
                    <syllabic>middle</syllabic>
                    <text>rág</text>
                </lyric>
                <lyric number="3">
                    <syllabic>end</syllabic>
                    <text>kit</text>
                </lyric>
                <lyric number="4">
                    <syllabic>middle</syllabic>
                    <text>ha</text>
                </lyric>
                <lyric number="5">
                    <syllabic>end</syllabic>
                    <text>ben</text>
                </lyric>
                <lyric number="6">
                    <syllabic>middle</syllabic>
                    <text>ra</text>
                </lyric>
            </note>
            <note default-y="-40.00" default-x="154.02">
                <pitch>
                    <step>E</step>
                    <octave>4</octave>
                </pitch>
                <duration>1</duration>
                <voice>1</voice>
                <type>quarter</type>
                <stem>up</stem>
                <lyric number="1">
                    <syllabic>begin</syllabic>
                    <text>vi</text>
                </lyric>
                <lyric number="2">
                    <syllabic>end</syllabic>
                    <text>ba</text>
                </lyric>
                <lyric number="3">
                    <syllabic>begin</syllabic>
                    <text>be</text>
                </lyric>
                <lyric number="4">
                    <syllabic>middle</syllabic>
                    <text>tó</text>
                </lyric>
                <lyric number="5">
                    <syllabic>begin</syllabic>
                    <text>meg</text>
                </lyric>
                <lyric number="6">
                    <syllabic>middle</syllabic>
                    <text>go</text>
                </lyric>
            </note>
            <note default-y="-30.00" default-x="216.97">
                <pitch>
                    <step>G</step>
                    <octave>4</octave>
                </pitch>
                <duration>1</duration>
                <voice>1</voice>
                <type>quarter</type>
                <stem>up</stem>
                <lyric number="1">
                    <syllabic>middle</syllabic>
                    <text>o</text>
                </lyric>
                <lyric number="2">
                    <syllabic>begin</syllabic>
                    <text>bo</text>
                </lyric>
                <lyric number="3">
                    <syllabic>middle</syllabic>
                    <text>en</text>
                </lyric>
                <lyric number="4">
                    <syllabic>end</syllabic>
                    <text>vá</text>
                </lyric>
                <lyric number="5">
                    <syllabic>middle</syllabic>
                    <text>fü</text>
                </lyric>
                <lyric number="6">
                    <syllabic>end</syllabic>
                    <text>sa</text>
                </lyric>
            </note>
        </measure>
        <measure width="216.67" number="8">
            <harmony print-frame="no">
                <root>
                    <root-step>F</root-step>
                </root>
                <kind text="">major</kind>
            </harmony>
            <note default-y="-35.00" default-x="21.72">
                <pitch>
                    <step>F</step>
                    <octave>4</octave>
                </pitch>
                <duration>1</duration>
                <voice>1</voice>
                <type>quarter</type>
                <stem>up</stem>
                <lyric number="1">
                    <syllabic>middle</syllabic>
                    <text>lá</text>
                </lyric>
                <lyric number="2">
                    <syllabic>middle</syllabic>
                    <text>rul</text>
                </lyric>
                <lyric number="3">
                    <syllabic>middle</syllabic>
                    <text>ged</text>
                </lyric>
                <lyric number="4">
                    <syllabic>begin</syllabic>
                    <text>vál</text>
                </lyric>
                <lyric number="5">
                    <syllabic>middle</syllabic>
                    <text>röd</text>
                </lyric>
                <lyric number="6">
                    <syllabic>begin</syllabic>
                    <text>vol</text>
                </lyric>
            </note>
            <note default-y="-35.00" default-x="75.43">
                <pitch>
                    <step>F</step>
                    <octave>4</octave>
                </pitch>
                <duration>1</duration>
                <voice>1</voice>
                <type>quarter</type>
                <stem>up</stem>
                <lyric number="1">
                    <syllabic>end</syllabic>
                    <text>hoz</text>
                </lyric>
                <lyric number="2">
                    <syllabic>end</syllabic>
                    <text>nék.</text>
                </lyric>
                <lyric number="3">
                    <syllabic>end</syllabic>
                    <text>nék.</text>
                </lyric>
                <lyric number="4">
                    <syllabic>end</syllabic>
                    <text>jék.</text>
                </lyric>
                <lyric number="5">
                    <syllabic>end</syllabic>
                    <text>nék.</text>
                </lyric>
                <lyric number="6">
                    <syllabic>end</syllabic>
                    <text>nék.</text>
                </lyric>
            </note>
            <note>
                <rest/>
                <duration>2</duration>
                <voice>1</voice>
                <type>half</type>
            </note>
        </measure>
        <measure width="335.43" number="9">
            <print new-system="yes">
                <system-layout>
                    <system-margins>
                        <left-margin>2.50</left-margin>
                        <right-margin>0.00</right-margin>
                    </system-margins>
                    <system-distance>270.68</system-distance>
                </system-layout>
            </print>
            <harmony print-frame="no">
                <root>
                    <root-step>D</root-step>
                </root>
                <kind text="m">minor</kind>
            </harmony>
            <note default-y="-25.00" default-x="77.02">
                <pitch>
                    <step>A</step>
                    <octave>4</octave>
                </pitch>
                <duration>1</duration>
                <voice>1</voice>
                <type>quarter</type>
                <stem>up</stem>
                <lyric number="1">
                    <syllabic>begin</syllabic>
                    <text>Lo</text>
                </lyric>
                <lyric number="2">
                    <syllabic>begin</syllabic>
                    <text>Nyíl</text>
                </lyric>
                <lyric number="3">
                    <syllabic>single</syllabic>
                    <text>Nem</text>
                </lyric>
                <lyric number="4">
                    <syllabic>begin</syllabic>
                    <text>Meg</text>
                </lyric>
                <lyric number="5">
                    <syllabic>single</syllabic>
                    <text>És</text>
                </lyric>
                <lyric number="6">
                    <syllabic>begin</syllabic>
                    <text>Ak</text>
                </lyric>
            </note>
            <note default-y="-30.00" default-x="141.22">
                <pitch>
                    <step>G</step>
                    <octave>4</octave>
                </pitch>
                <duration>1</duration>
                <voice>1</voice>
                <type>quarter</type>
                <stem>up</stem>
                <lyric number="1">
                    <syllabic>middle</syllabic>
                    <text>va</text>
                </lyric>
                <lyric number="2">
                    <syllabic>end</syllabic>
                    <text>nék</text>
                </lyric>
                <lyric number="3">
                    <syllabic>begin</syllabic>
                    <text>kér</text>
                </lyric>
                <lyric number="4">
                    <syllabic>middle</syllabic>
                    <text>ér</text>
                </lyric>
                <lyric number="5">
                    <syllabic>single</syllabic>
                    <text>ha</text>
                </lyric>
                <lyric number="6">
                    <syllabic>end</syllabic>
                    <text>kor</text>
                </lyric>
            </note>
            <note default-y="-35.00" default-x="205.43">
                <pitch>
                    <step>F</step>
                    <octave>4</octave>
                </pitch>
                <duration>1</duration>
                <voice>1</voice>
                <type>quarter</type>
                <stem>up</stem>
                <lyric number="1">
                    <syllabic>end</syllabic>
                    <text>mat</text>
                </lyric>
                <lyric number="2">
                    <syllabic>single</syllabic>
                    <text>a</text>
                </lyric>
                <lyric number="3">
                    <syllabic>middle</syllabic>
                    <text>dez</text>
                </lyric>
                <lyric number="4">
                    <syllabic>end</syllabic>
                    <text>tő</text>
                </lyric>
                <lyric number="5">
                    <syllabic>begin</syllabic>
                    <text>en</text>
                </lyric>
                <lyric number="6">
                    <syllabic>begin</syllabic>
                    <text>len</text>
                </lyric>
            </note>
            <note default-y="-25.00" default-x="269.63">
                <pitch>
                    <step>A</step>
                    <octave>4</octave>
                </pitch>
                <duration>1</duration>
                <voice>1</voice>
                <type>quarter</type>
                <stem>up</stem>
                <lyric number="1">
                    <syllabic>begin</syllabic>
                    <text>el</text>
                </lyric>
                <lyric number="2">
                    <syllabic>begin</syllabic>
                    <text>fi</text>
                </lyric>
                <lyric number="3">
                    <syllabic>end</syllabic>
                    <text>ném</text>
                </lyric>
                <lyric number="4">
                    <syllabic>begin</syllabic>
                    <text>sze</text>
                </lyric>
                <lyric number="5">
                    <syllabic>end</syllabic>
                    <text>gem</text>
                </lyric>
                <lyric number="6">
                    <syllabic>end</syllabic>
                    <text>nék</text>
                </lyric>
            </note>
        </measure>
        <measure width="225.05" number="10">
            <harmony print-frame="no">
                <root>
                    <root-step>G</root-step>
                </root>
                <kind text="m">minor</kind>
            </harmony>
            <note default-y="-30.00" default-x="24.92">
                <pitch>
                    <step>G</step>
                    <octave>4</octave>
                </pitch>
                <duration>1</duration>
                <voice>1</voice>
                <type>quarter</type>
                <stem>up</stem>
                <lyric number="1">
                    <syllabic>middle</syllabic>
                    <text>ol</text>
                </lyric>
                <lyric number="2">
                    <syllabic>middle</syllabic>
                    <text>ú</text>
                </lyric>
                <lyric number="3">
                    <syllabic>begin</syllabic>
                    <text>tő</text>
                </lyric>
                <lyric number="4">
                    <syllabic>middle</syllabic>
                    <text>mek</text>
                </lyric>
                <lyric number="5">
                    <syllabic>begin</syllabic>
                    <text>egy</text>
                </lyric>
                <lyric number="6">
                    <syllabic>begin</syllabic>
                    <text>bol</text>
                </lyric>
            </note>
            <note default-y="-30.00" default-x="80.06">
                <pitch>
                    <step>G</step>
                    <octave>4</octave>
                </pitch>
                <duration>1</duration>
                <voice>1</voice>
                <type>quarter</type>
                <stem>up</stem>
                <lyric number="1">
                    <syllabic>end</syllabic>
                    <text>dom,</text>
                </lyric>
                <lyric number="2">
                    <syllabic>end</syllabic>
                    <text>nak,</text>
                </lyric>
                <lyric number="3">
                    <syllabic>end</syllabic>
                    <text>le,</text>
                </lyric>
                <lyric number="4">
                    <syllabic>end</syllabic>
                    <text>kel</text>
                </lyric>
                <lyric number="5">
                    <syllabic>end</syllabic>
                    <text>szer</text>
                </lyric>
                <lyric number="6">
                    <syllabic>end</syllabic>
                    <text>dog,</text>
                </lyric>
            </note>
            <note>
                <rest/>
                <duration>2</duration>
                <voice>1</voice>
                <type>half</type>
            </note>
        </measure>
        <measure width="288.41" number="11">
            <harmony print-frame="no">
                <root>
                    <root-step>C</root-step>
                </root>
                <kind text="">major</kind>
            </harmony>
            <note default-y="-30.00" default-x="32.58">
                <pitch>
                    <step>G</step>
                    <octave>4</octave>
                </pitch>
                <duration>1</duration>
                <voice>1</voice>
                <type>quarter</type>
                <stem>up</stem>
                <lyric number="1">
                    <syllabic>begin</syllabic>
                    <text>a</text>
                </lyric>
                <lyric number="2">
                    <syllabic>begin</syllabic>
                    <text>nyíl</text>
                </lyric>
                <lyric number="3">
                    <syllabic>single</syllabic>
                    <text>hát</text>
                </lyric>
                <lyric number="4">
                    <syllabic>begin</syllabic>
                    <text>át</text>
                </lyric>
                <lyric number="5">
                    <syllabic>begin</syllabic>
                    <text>lánc</text>
                </lyric>
                <lyric number="6">
                    <syllabic>begin</syllabic>
                    <text>(ha)ki</text>
                </lyric>
            </note>
            <note default-y="-35.00" default-x="96.14">
                <pitch>
                    <step>F</step>
                    <octave>4</octave>
                </pitch>
                <duration>1</duration>
                <voice>1</voice>
                <type>quarter</type>
                <stem>up</stem>
                <lyric number="1">
                    <syllabic>middle</syllabic>
                    <text>mi</text>
                </lyric>
                <lyric number="2">
                    <syllabic>end</syllabic>
                    <text>nék</text>
                </lyric>
                <lyric number="3">
                    <syllabic>begin</syllabic>
                    <text>té</text>
                </lyric>
                <lyric number="4">
                    <syllabic>middle</syllabic>
                    <text>néz</text>
                </lyric>
                <lyric number="5">
                    <syllabic>middle</syllabic>
                    <text>ke</text>
                </lyric>
                <lyric number="6">
                    <syllabic>middle</syllabic>
                    <text>fe</text>
                </lyric>
            </note>
            <note default-y="-40.00" default-x="159.70">
                <pitch>
                    <step>E</step>
                    <octave>4</octave>
                </pitch>
                <duration>1</duration>
                <voice>1</voice>
                <type>quarter</type>
                <stem>up</stem>
                <lyric number="1">
                    <syllabic>end</syllabic>
                    <text>kor</text>
                </lyric>
                <lyric number="2">
                    <syllabic>single</syllabic>
                    <text>én</text>
                </lyric>
                <lyric number="3">
                    <syllabic>end</syllabic>
                    <text>ged</text>
                </lyric>
                <lyric number="4">
                    <syllabic>middle</syllabic>
                    <text>né</text>
                </lyric>
                <lyric number="5">
                    <syllabic>end</syllabic>
                    <text>rék</text>
                </lyric>
                <lyric number="6">
                    <syllabic>middle</syllabic>
                    <text>szí</text>
                </lyric>
            </note>
            <note default-y="-30.00" default-x="223.25">
                <pitch>
                    <step>G</step>
                    <octave>4</octave>
                </pitch>
                <duration>1</duration>
                <voice>1</voice>
                <type>quarter</type>
                <stem>up</stem>
                <lyric number="1">
                    <syllabic>single</syllabic>
                    <text>a</text>
                </lyric>
                <lyric number="2">
                    <syllabic>single</syllabic>
                    <text>a</text>
                </lyric>
                <lyric number="3">
                    <syllabic>single</syllabic>
                    <text>ki</text>
                </lyric>
                <lyric number="4">
                    <syllabic>end</syllabic>
                    <text>nek</text>
                </lyric>
                <lyric number="5">
                    <syllabic>begin</syllabic>
                    <text>ta</text>
                </lyric>
                <lyric number="6">
                    <syllabic>middle</syllabic>
                    <text>te</text>
                </lyric>
            </note>
        </measure>
        <measure width="225.71" number="12">
            <harmony print-frame="no">
                <root>
                    <root-step>F</root-step>
                </root>
                <kind text="">major</kind>
            </harmony>
            <note default-y="-35.00" default-x="25.56">
                <pitch>
                    <step>F</step>
                    <octave>4</octave>
                </pitch>
                <duration>1</duration>
                <voice>1</voice>
                <type>quarter</type>
                <stem>up</stem>
                <lyric number="1">
                    <syllabic>single</syllabic>
                    <text>hold</text>
                </lyric>
                <lyric number="2">
                    <syllabic>begin</syllabic>
                    <text>lány</text>
                </lyric>
                <lyric number="3">
                    <syllabic>begin</syllabic>
                    <text>kül</text>
                </lyric>
                <lyric number="4">
                    <syllabic>begin</syllabic>
                    <text>raj</text>
                </lyric>
                <lyric number="5">
                    <syllabic>middle</syllabic>
                    <text>pos</text>
                </lyric>
                <lyric number="6">
                    <syllabic>middle</syllabic>
                    <text>né</text>
                </lyric>
            </note>
            <note default-y="-35.00" default-x="80.71">
                <pitch>
                    <step>F</step>
                    <octave>4</octave>
                </pitch>
                <duration>1</duration>
                <voice>1</voice>
                <type>quarter</type>
                <stem>up</stem>
                <lyric number="1">
                    <syllabic>single</syllabic>
                    <text>kel,</text>
                </lyric>
                <lyric number="2">
                    <syllabic>end</syllabic>
                    <text>nak,</text>
                </lyric>
                <lyric number="3">
                    <syllabic>end</syllabic>
                    <text>dött?</text>
                </lyric>
                <lyric number="4">
                    <syllabic>end</syllabic>
                    <text>tam.</text>
                </lyric>
                <lyric number="5">
                    <syllabic>end</syllabic>
                    <text>na,</text>
                </lyric>
                <lyric number="6">
                    <syllabic>end</syllabic>
                    <text>nek,</text>
                </lyric>
            </note>
            <note>
                <rest/>
                <duration>2</duration>
                <voice>1</voice>
                <type>half</type>
            </note>
        </measure>
        <measure width="343.66" number="13">
            <print new-system="yes">
                <system-layout>
                    <system-margins>
                        <left-margin>2.50</left-margin>
                        <right-margin>0.00</right-margin>
                    </system-margins>
                    <system-distance>270.68</system-distance>
                </system-layout>
            </print>
            <harmony print-frame="no">
                <root>
                    <root-step>D</root-step>
                </root>
                <kind text="m">minor</kind>
            </harmony>
            <note default-y="-35.00" default-x="88.53">
                <pitch>
                    <step>F</step>
                    <octave>4</octave>
                </pitch>
                <duration>1</duration>
                <voice>1</voice>
                <type>quarter</type>
                <stem>up</stem>
                <lyric number="1">
                    <syllabic>single</syllabic>
                    <text>de</text>
                </lyric>
                <lyric number="2">
                    <syllabic>begin</syllabic>
                    <text>(Az)i</text>
                </lyric>
                <lyric number="3">
                    <syllabic>begin</syllabic>
                    <text>Ak</text>
                </lyric>
                <lyric number="4">
                    <syllabic>begin</syllabic>
                    <text>Ak</text>
                </lyric>
                <lyric number="5">
                    <syllabic>begin</syllabic>
                    <text>A</text>
                </lyric>
                <lyric number="6">
                    <syllabic>single</syllabic>
                    <text>(S)nem</text>
                </lyric>
            </note>
            <note default-y="-40.00" default-x="151.91">
                <pitch>
                    <step>E</step>
                    <octave>4</octave>
                </pitch>
                <duration>1</duration>
                <voice>1</voice>
                <type>quarter</type>
                <stem>up</stem>
                <lyric number="1">
                    <syllabic>begin</syllabic>
                    <text>tő</text>
                </lyric>
                <lyric number="2">
                    <syllabic>middle</syllabic>
                    <text>gaz</text>
                </lyric>
                <lyric number="3">
                    <syllabic>end</syllabic>
                    <text>kor</text>
                </lyric>
                <lyric number="4">
                    <syllabic>end</syllabic>
                    <text>kor</text>
                </lyric>
                <lyric number="5">
                    <syllabic>middle</syllabic>
                    <text>lat</text>
                </lyric>
                <lyric number="6">
                    <syllabic>begin</syllabic>
                    <text>len</text>
                </lyric>
            </note>
            <note default-y="-45.00" default-x="215.30">
                <pitch>
                    <step>D</step>
                    <octave>4</octave>
                </pitch>
                <duration>1</duration>
                <voice>1</voice>
                <type>quarter</type>
                <stem>up</stem>
                <lyric number="1">
                    <syllabic>end</syllabic>
                    <text>led</text>
                </lyric>
                <lyric number="2">
                    <syllabic>middle</syllabic>
                    <text>sze</text>
                </lyric>
                <lyric number="3">
                    <syllabic>begin</syllabic>
                    <text>len</text>
                </lyric>
                <lyric number="4">
                    <syllabic>begin</syllabic>
                    <text>len</text>
                </lyric>
                <lyric number="5">
                    <syllabic>end</syllabic>
                    <text>tam</text>
                </lyric>
                <lyric number="6">
                    <syllabic>end</syllabic>
                    <text>nék</text>
                </lyric>
            </note>
            <note default-y="-35.00" default-x="278.68">
                <pitch>
                    <step>F</step>
                    <octave>4</octave>
                </pitch>
                <duration>1</duration>
                <voice>1</voice>
                <type>quarter</type>
                <stem>up</stem>
                <lyric number="1">
                    <syllabic>begin</syllabic>
                    <text>vi</text>
                </lyric>
                <lyric number="2">
                    <syllabic>middle</syllabic>
                    <text>re</text>
                </lyric>
                <lyric number="3">
                    <syllabic>end</syllabic>
                    <text>nék</text>
                </lyric>
                <lyric number="4">
                    <syllabic>end</syllabic>
                    <text>nék</text>
                </lyric>
                <lyric number="5">
                    <syllabic>single</syllabic>
                    <text>a</text>
                </lyric>
                <lyric number="6">
                    <syllabic>begin</syllabic>
                    <text>já</text>
                </lyric>
            </note>
        </measure>
        <measure width="209.00" number="14">
            <harmony print-frame="no">
                <root>
                    <root-step>A</root-step>
                </root>
                <kind text="">major</kind>
            </harmony>
            <note default-y="-40.00" default-x="23.64">
                <pitch>
                    <step>E</step>
                    <octave>4</octave>
                </pitch>
                <duration>1</duration>
                <voice>1</voice>
                <type>quarter</type>
                <stem>up</stem>
                <lyric number="1">
                    <syllabic>middle</syllabic>
                    <text>o</text>
                </lyric>
                <lyric number="2">
                    <syllabic>middle</syllabic>
                    <text>lem</text>
                </lyric>
                <lyric number="3">
                    <syllabic>begin</syllabic>
                    <text>bol</text>
                </lyric>
                <lyric number="4">
                    <syllabic>begin</syllabic>
                    <text>bol</text>
                </lyric>
                <lyric number="5">
                    <syllabic>single</syllabic>
                    <text>föld</text>
                </lyric>
                <lyric number="6">
                    <syllabic>middle</syllabic>
                    <text>té</text>
                </lyric>
            </note>
            <note default-y="-40.00" default-x="74.68">
                <pitch>
                    <step>E</step>
                    <octave>4</octave>
                </pitch>
                <duration>1</duration>
                <voice>1</voice>
                <type>quarter</type>
                <stem>up</stem>
                <lyric number="1">
                    <syllabic>end</syllabic>
                    <text>lám</text>
                </lyric>
                <lyric number="2">
                    <syllabic>end</syllabic>
                    <text>nek</text>
                </lyric>
                <lyric number="3">
                    <syllabic>end</syllabic>
                    <text>dog,</text>
                </lyric>
                <lyric number="4">
                    <syllabic>end</syllabic>
                    <text>dog,</text>
                </lyric>
                <lyric number="5">
                    <syllabic>single</syllabic>
                    <text>is</text>
                </lyric>
                <lyric number="6">
                    <syllabic>end</syllabic>
                    <text>ka</text>
                </lyric>
            </note>
            <note>
                <rest/>
                <duration>2</duration>
                <voice>1</voice>
                <type>half</type>
            </note>
        </measure>
        <measure width="308.20" number="15">
            <harmony print-frame="no">
                <root>
                    <root-step>A</root-step>
                </root>
                <kind text="7">dominant</kind>
            </harmony>
            <note default-y="-40.00" default-x="41.53">
                <pitch>
                    <step>E</step>
                    <octave>4</octave>
                </pitch>
                <duration>1</duration>
                <voice>1</voice>
                <type>quarter</type>
                <stem>up</stem>
                <lyric number="1">
                    <syllabic>single</syllabic>
                    <text>csak</text>
                </lyric>
                <lyric number="2">
                    <syllabic>single</syllabic>
                    <text>és</text>
                </lyric>
                <lyric number="3">
                    <syllabic>single</syllabic>
                    <text>ha</text>
                </lyric>
                <lyric number="4">
                    <syllabic>begin</syllabic>
                    <text>(ha)min</text>
                </lyric>
                <lyric number="5">
                    <syllabic>begin</syllabic>
                    <text>sír</text>
                </lyric>
                <lyric number="6">
                    <syllabic>begin</syllabic>
                    <text>min</text>
                </lyric>
            </note>
            <note default-y="-45.00" default-x="107.80">
                <pitch>
                    <step>D</step>
                    <octave>4</octave>
                </pitch>
                <duration>1</duration>
                <voice>1</voice>
                <type>quarter</type>
                <stem>up</stem>
                <lyric number="1">
                    <syllabic>single</syllabic>
                    <text>a</text>
                </lyric>
                <lyric number="2">
                    <syllabic>single</syllabic>
                    <text>az</text>
                </lyric>
                <lyric number="3">
                    <syllabic>begin</syllabic>
                    <text>min</text>
                </lyric>
                <lyric number="4">
                    <syllabic>end</syllabic>
                    <text>dent</text>
                </lyric>
                <lyric number="5">
                    <syllabic>end</syllabic>
                    <text>va</text>
                </lyric>
                <lyric number="6">
                    <syllabic>middle</syllabic>
                    <text>den</text>
                </lyric>
            </note>
            <note default-y="-50.00" default-x="174.06">
                <pitch>
                    <step>C</step>
                    <alter>1</alter>
                    <octave>4</octave>
                </pitch>
                <duration>1</duration>
                <voice>1</voice>
                <type>quarter</type>
                <accidental>sharp</accidental>
                <stem>up</stem>
                <lyric number="1">
                    <syllabic>begin</syllabic>
                    <text>ha</text>
                </lyric>
                <lyric number="2">
                    <syllabic>begin</syllabic>
                    <text>el</text>
                </lyric>
                <lyric number="3">
                    <syllabic>middle</syllabic>
                    <text>den</text>
                </lyric>
                <lyric number="4">
                    <syllabic>begin</syllabic>
                    <text>meg</text>
                </lyric>
                <lyric number="5">
                    <syllabic>begin</syllabic>
                    <text>be</text>
                </lyric>
                <lyric number="6">
                    <syllabic>middle</syllabic>
                    <text>fé</text>
                </lyric>
            </note>
            <note default-y="-40.00" default-x="240.33">
                <pitch>
                    <step>E</step>
                    <octave>4</octave>
                </pitch>
                <duration>1</duration>
                <voice>1</voice>
                <type>quarter</type>
                <stem>up</stem>
                <lyric number="1">
                    <syllabic>end</syllabic>
                    <text>lál</text>
                </lyric>
                <lyric number="2">
                    <syllabic>middle</syllabic>
                    <text>mú</text>
                </lyric>
                <lyric number="3">
                    <syllabic>end</syllabic>
                    <text>ki</text>
                </lyric>
                <lyric number="4">
                    <syllabic>middle</syllabic>
                    <text>mu</text>
                </lyric>
                <lyric number="5">
                    <syllabic>middle</syllabic>
                    <text>o</text>
                </lyric>
                <lyric number="6">
                    <syllabic>end</syllabic>
                    <text>le</text>
                </lyric>
            </note>
        </measure>
        <measure width="213.74" number="16">
            <harmony print-frame="no">
                <root>
                    <root-step>D</root-step>
                </root>
                <kind text="m">minor</kind>
            </harmony>
            <note default-y="-45.00" default-x="23.01">
                <pitch>
                    <step>D</step>
                    <octave>4</octave>
                </pitch>
                <duration>1</duration>
                <voice>1</voice>
                <type>quarter</type>
                <stem>up</stem>
                <lyric number="1">
                    <syllabic>single</syllabic>
                    <text>old</text>
                </lyric>
                <lyric number="2">
                    <syllabic>middle</syllabic>
                    <text>lás</text>
                </lyric>
                <lyric number="3">
                    <syllabic>begin</syllabic>
                    <text>el</text>
                </lyric>
                <lyric number="4">
                    <syllabic>middle</syllabic>
                    <text>tat</text>
                </lyric>
                <lyric number="5">
                    <syllabic>middle</syllabic>
                    <text>mol</text>
                </lyric>
                <lyric number="6">
                    <syllabic>begin</syllabic>
                    <text>szél</text>
                </lyric>
            </note>
            <note default-y="-45.00" default-x="73.87">
                <pitch>
                    <step>D</step>
                    <octave>4</octave>
                </pitch>
                <duration>1</duration>
                <voice>1</voice>
                <type>quarter</type>
                <stem>up</stem>
                <lyric number="1">
                    <syllabic>single</syllabic>
                    <text>el.</text>
                </lyric>
                <lyric number="2">
                    <syllabic>end</syllabic>
                    <text>nak.</text>
                </lyric>
                <lyric number="3">
                    <syllabic>end</syllabic>
                    <text>jött.</text>
                </lyric>
                <lyric number="4">
                    <syllabic>end</syllabic>
                    <text>tam.</text>
                </lyric>
                <lyric number="5">
                    <syllabic>end</syllabic>
                    <text>na.</text>
                </lyric>
                <lyric number="6">
                    <syllabic>end</syllabic>
                    <text>nek.</text>
                </lyric>
            </note>
            <note>
                <rest/>
                <duration>2</duration>
                <voice>1</voice>
                <type>half</type>
            </note>
            <barline location="right">
                <bar-style>light-heavy</bar-style>
            </barline>
        </measure>
    </part>
</score-partwise>
