<?xml version="1.0" encoding="UTF-8"?>
<!DOCTYPE score-partwise PUBLIC "-//Recordare//DTD MusicXML 2.0 Partwise//EN" "http://www.musicxml.org/dtds/partwise.dtd">
<score-partwise version="2.0">
    <work>
        <work-number></work-number>
        <work-title></work-title>
    </work>
    <movement-number></movement-number>
    <movement-title>Pikapolonica</movement-title>
    <identification>
        <creator type="composer">Lencka Kupper</creator>
        <creator type="poet"></creator>
        <rights>All Rights Reserved</rights>
        <encoding>
            <software>MuseScore 0.9.5</software>
            <encoding-date>2010-09-07</encoding-date>
            <software>ProxyMusic 2.0 c</software>
        </encoding>
        <source>http://wikifonia.org/node/7180/revisions/9894/view</source>
    </identification>
    <defaults>
        <scaling>
            <millimeters>7.056</millimeters>
            <tenths>40</tenths>
        </scaling>
        <page-layout>
            <page-height>1683.67</page-height>
            <page-width>1190.48</page-width>
            <page-margins type="both">
                <left-margin>56.6893</left-margin>
                <right-margin>56.6893</right-margin>
                <top-margin>56.6893</top-margin>
                <bottom-margin>113.379</bottom-margin>
            </page-margins>
        </page-layout>
    </defaults>
    <credit page="1">
        <credit-words font-size="24" default-y="1626.98" default-x="595.238" justify="center" valign="top">Pikapolonica</credit-words>
    </credit>
    <credit page="1">
        <credit-words font-size="12" default-y="1556.5" default-x="1133.79" justify="right" valign="top">Lenċka Kupper</credit-words>
    </credit>
    <part-list>
        <score-part id="P1">
            <part-name></part-name>
            <score-instrument id="P1-I3">
                <instrument-name></instrument-name>
            </score-instrument>
            <midi-instrument id="P1-I3">
                <midi-channel>1</midi-channel>
                <midi-program>1</midi-program>
            </midi-instrument>
        </score-part>
    </part-list>
    <part id="P1">
        <measure width="264.02" number="1">
            <print>
                <system-layout>
                    <system-margins>
                        <left-margin>-0.00</left-margin>
                        <right-margin>0.00</right-margin>
                    </system-margins>
                    <top-system-distance>180.00</top-system-distance>
                </system-layout>
            </print>
            <attributes>
                <divisions>2</divisions>
                <key>
                    <fifths>0</fifths>
                    <mode>major</mode>
                </key>
                <time>
                    <beats>4</beats>
                    <beat-type>4</beat-type>
                </time>
                <clef>
                    <sign>G</sign>
                    <line>2</line>
                </clef>
            </attributes>
            <harmony print-frame="no">
                <root>
                    <root-step>C</root-step>
                </root>
                <kind text="">major</kind>
            </harmony>
            <note default-y="-40.00" default-x="92.75">
                <pitch>
                    <step>E</step>
                    <octave>4</octave>
                </pitch>
                <duration>2</duration>
                <voice>1</voice>
                <type>quarter</type>
                <stem>up</stem>
                <notations>
                    <articulations>
                        <staccato/>
                    </articulations>
                </notations>
                <lyric number="1">
                    <syllabic>begin</syllabic>
                    <text>Pi</text>
                </lyric>
                <lyric number="2">
                    <syllabic>single</syllabic>
                    <text>Gor</text>
                </lyric>
            </note>
            <note default-y="-30.00" default-x="135.17">
                <pitch>
                    <step>G</step>
                    <octave>4</octave>
                </pitch>
                <duration>2</duration>
                <voice>1</voice>
                <type>quarter</type>
                <stem>up</stem>
                <notations>
                    <articulations>
                        <staccato/>
                    </articulations>
                </notations>
                <lyric number="1">
                    <syllabic>end</syllabic>
                    <text>ka,</text>
                </lyric>
                <lyric number="2">
                    <syllabic>single</syllabic>
                    <text>in</text>
                </lyric>
            </note>
            <note default-y="-40.00" default-x="177.59">
                <pitch>
                    <step>E</step>
                    <octave>4</octave>
                </pitch>
                <duration>2</duration>
                <voice>1</voice>
                <type>quarter</type>
                <stem>up</stem>
                <notations>
                    <articulations>
                        <staccato/>
                    </articulations>
                </notations>
                <lyric number="1">
                    <syllabic>begin</syllabic>
                    <text>po</text>
                </lyric>
                <lyric number="2">
                    <syllabic>single</syllabic>
                    <text>dol</text>
                </lyric>
            </note>
            <note default-y="-30.00" default-x="220.00">
                <pitch>
                    <step>G</step>
                    <octave>4</octave>
                </pitch>
                <duration>2</duration>
                <voice>1</voice>
                <type>quarter</type>
                <stem>up</stem>
                <notations>
                    <articulations>
                        <staccato/>
                    </articulations>
                </notations>
                <lyric number="1">
                    <syllabic>end</syllabic>
                    <text>ka,</text>
                </lyric>
                <lyric number="2">
                    <syllabic>single</syllabic>
                    <text>po</text>
                </lyric>
            </note>
        </measure>
        <measure width="215.50" number="2">
            <note default-y="-15.00" default-x="19.11">
                <pitch>
                    <step>C</step>
                    <octave>5</octave>
                </pitch>
                <duration>2</duration>
                <voice>1</voice>
                <type>quarter</type>
                <stem>down</stem>
                <lyric number="1">
                    <syllabic>begin</syllabic>
                    <text>pi</text>
                </lyric>
                <lyric number="2">
                    <syllabic>begin</syllabic>
                    <text>lis</text>
                </lyric>
            </note>
            <note default-y="-20.00" default-x="62.33">
                <pitch>
                    <step>B</step>
                    <octave>4</octave>
                </pitch>
                <duration>1</duration>
                <voice>1</voice>
                <type>eighth</type>
                <stem>up</stem>
                <beam number="1">begin</beam>
                <lyric number="1">
                    <syllabic>middle</syllabic>
                    <text>ka</text>
                </lyric>
                <lyric number="2">
                    <syllabic>end</syllabic>
                    <text>tu</text>
                </lyric>
            </note>
            <note default-y="-30.00" default-x="91.77">
                <pitch>
                    <step>G</step>
                    <octave>4</octave>
                </pitch>
                <duration>1</duration>
                <voice>1</voice>
                <type>eighth</type>
                <stem>up</stem>
                <beam number="1">end</beam>
                <lyric number="1">
                    <syllabic>middle</syllabic>
                    <text>po</text>
                </lyric>
                <lyric number="2">
                    <syllabic>begin</syllabic>
                    <text>ko</text>
                </lyric>
            </note>
            <harmony print-frame="no">
                <root>
                    <root-step>G</root-step>
                </root>
                <kind text="">major</kind>
            </harmony>
            <note default-y="-35.00" default-x="127.47">
                <pitch>
                    <step>F</step>
                    <octave>4</octave>
                </pitch>
                <duration>2</duration>
                <voice>1</voice>
                <type>quarter</type>
                <stem>up</stem>
                <lyric number="1">
                    <syllabic>middle</syllabic>
                    <text>loni</text>
                </lyric>
                <lyric number="2">
                    <syllabic>middle</syllabic>
                    <text>ba</text>
                </lyric>
            </note>
            <note default-y="-45.00" default-x="170.69">
                <pitch>
                    <step>D</step>
                    <octave>4</octave>
                </pitch>
                <duration>2</duration>
                <voice>1</voice>
                <type>quarter</type>
                <stem>up</stem>
                <lyric number="1">
                    <syllabic>end</syllabic>
                    <text>ca,</text>
                </lyric>
                <lyric number="2">
                    <syllabic>end</syllabic>
                    <text>ca,</text>
                </lyric>
            </note>
        </measure>
        <measure width="177.92" number="3">
            <note default-y="-45.00" default-x="17.23">
                <pitch>
                    <step>D</step>
                    <octave>4</octave>
                </pitch>
                <duration>2</duration>
                <voice>1</voice>
                <type>quarter</type>
                <stem>up</stem>
                <notations>
                    <articulations>
                        <staccato/>
                    </articulations>
                </notations>
                <lyric number="1">
                    <syllabic>begin</syllabic>
                    <text>pi</text>
                </lyric>
                <lyric number="2">
                    <syllabic>begin</syllabic>
                    <text>iš</text>
                </lyric>
            </note>
            <note default-y="-35.00" default-x="57.00">
                <pitch>
                    <step>F</step>
                    <octave>4</octave>
                </pitch>
                <duration>2</duration>
                <voice>1</voice>
                <type>quarter</type>
                <stem>up</stem>
                <notations>
                    <articulations>
                        <staccato/>
                    </articulations>
                </notations>
                <lyric number="1">
                    <syllabic>end</syllabic>
                    <text>ka,</text>
                </lyric>
                <lyric number="2">
                    <syllabic>end</syllabic>
                    <text>če</text>
                </lyric>
            </note>
            <note default-y="-45.00" default-x="96.77">
                <pitch>
                    <step>D</step>
                    <octave>4</octave>
                </pitch>
                <duration>2</duration>
                <voice>1</voice>
                <type>quarter</type>
                <stem>up</stem>
                <notations>
                    <articulations>
                        <staccato/>
                    </articulations>
                </notations>
                <lyric number="1">
                    <syllabic>begin</syllabic>
                    <text>po</text>
                </lyric>
                <lyric number="2">
                    <syllabic>begin</syllabic>
                    <text>za</text>
                </lyric>
            </note>
            <note default-y="-35.00" default-x="136.55">
                <pitch>
                    <step>F</step>
                    <octave>4</octave>
                </pitch>
                <duration>2</duration>
                <voice>1</voice>
                <type>quarter</type>
                <stem>up</stem>
                <notations>
                    <articulations>
                        <staccato/>
                    </articulations>
                </notations>
                <lyric number="1">
                    <syllabic>end</syllabic>
                    <text>ka,</text>
                </lyric>
                <lyric number="2">
                    <syllabic>end</syllabic>
                    <text>te,</text>
                </lyric>
            </note>
        </measure>
        <measure width="221.44" number="4">
            <note default-y="-25.00" default-x="21.61">
                <pitch>
                    <step>A</step>
                    <octave>4</octave>
                </pitch>
                <duration>2</duration>
                <voice>1</voice>
                <type>quarter</type>
                <stem>up</stem>
                <lyric number="1">
                    <syllabic>begin</syllabic>
                    <text>pi</text>
                </lyric>
                <lyric number="2">
                    <syllabic>begin</syllabic>
                    <text>sre</text>
                </lyric>
            </note>
            <note default-y="-20.00" default-x="65.97">
                <pitch>
                    <step>B</step>
                    <octave>4</octave>
                </pitch>
                <duration>1</duration>
                <voice>1</voice>
                <type>eighth</type>
                <stem>up</stem>
                <beam number="1">begin</beam>
                <lyric number="1">
                    <syllabic>middle</syllabic>
                    <text>ka</text>
                </lyric>
                <lyric number="2">
                    <syllabic>end</syllabic>
                    <text>čo</text>
                </lyric>
            </note>
            <note default-y="-25.00" default-x="95.41">
                <pitch>
                    <step>A</step>
                    <octave>4</octave>
                </pitch>
                <duration>1</duration>
                <voice>1</voice>
                <type>eighth</type>
                <stem>up</stem>
                <beam number="1">end</beam>
                <lyric number="1">
                    <syllabic>middle</syllabic>
                    <text>po</text>
                </lyric>
                <lyric number="2">
                    <syllabic>begin</syllabic>
                    <text>po</text>
                </lyric>
            </note>
            <harmony print-frame="no">
                <root>
                    <root-step>C</root-step>
                </root>
                <kind text="">major</kind>
            </harmony>
            <note default-y="-30.00" default-x="131.11">
                <pitch>
                    <step>G</step>
                    <octave>4</octave>
                </pitch>
                <duration>2</duration>
                <voice>1</voice>
                <type>quarter</type>
                <stem>up</stem>
                <lyric number="1">
                    <syllabic>middle</syllabic>
                    <text>loni</text>
                </lyric>
                <lyric number="2">
                    <syllabic>begin</syllabic>
                    <text>vso</text>
                </lyric>
            </note>
            <note default-y="-40.00" default-x="175.47">
                <pitch>
                    <step>E</step>
                    <octave>4</octave>
                </pitch>
                <duration>2</duration>
                <voice>1</voice>
                <type>quarter</type>
                <stem>up</stem>
                <lyric number="1">
                    <syllabic>end</syllabic>
                    <text>ca,</text>
                </lyric>
                <lyric number="2">
                    <syllabic>single</syllabic>
                    <text>od.</text>
                </lyric>
            </note>
        </measure>
        <measure width="198.22" number="5">
            <note default-y="-40.00" default-x="29.12">
                <pitch>
                    <step>E</step>
                    <octave>4</octave>
                </pitch>
                <duration>2</duration>
                <voice>1</voice>
                <type>quarter</type>
                <stem>up</stem>
                <notations>
                    <articulations>
                        <staccato/>
                    </articulations>
                </notations>
                <lyric number="1">
                    <syllabic>begin</syllabic>
                    <text>pi</text>
                </lyric>
                <lyric number="2">
                    <syllabic>single</syllabic>
                    <text>Zdaj</text>
                </lyric>
            </note>
            <note default-y="-30.00" default-x="70.99">
                <pitch>
                    <step>G</step>
                    <octave>4</octave>
                </pitch>
                <duration>2</duration>
                <voice>1</voice>
                <type>quarter</type>
                <stem>up</stem>
                <notations>
                    <articulations>
                        <staccato/>
                    </articulations>
                </notations>
                <lyric number="1">
                    <syllabic>end</syllabic>
                    <text>ka,</text>
                </lyric>
                <lyric number="2">
                    <syllabic>single</syllabic>
                    <text>se</text>
                </lyric>
            </note>
            <note default-y="-40.00" default-x="112.87">
                <pitch>
                    <step>E</step>
                    <octave>4</octave>
                </pitch>
                <duration>2</duration>
                <voice>1</voice>
                <type>quarter</type>
                <stem>up</stem>
                <notations>
                    <articulations>
                        <staccato/>
                    </articulations>
                </notations>
                <lyric number="1">
                    <syllabic>begin</syllabic>
                    <text>po</text>
                </lyric>
                <lyric number="2">
                    <syllabic>single</syllabic>
                    <text>že</text>
                </lyric>
            </note>
            <note default-y="-30.00" default-x="154.74">
                <pitch>
                    <step>G</step>
                    <octave>4</octave>
                </pitch>
                <duration>2</duration>
                <voice>1</voice>
                <type>quarter</type>
                <stem>up</stem>
                <notations>
                    <articulations>
                        <staccato/>
                    </articulations>
                </notations>
                <lyric number="1">
                    <syllabic>end</syllabic>
                    <text>ka,</text>
                </lyric>
                <lyric number="2">
                    <syllabic>single</syllabic>
                    <text>v</text>
                </lyric>
            </note>
        </measure>
        <measure width="429.53" number="6">
            <print new-system="yes">
                <system-layout>
                    <system-margins>
                        <left-margin>-0.00</left-margin>
                        <right-margin>0.00</right-margin>
                    </system-margins>
                    <system-distance>131.36</system-distance>
                </system-layout>
            </print>
            <direction>
                <direction-type>
                    <words default-y="100"></words>
                </direction-type>
            </direction>
            <note default-y="-15.00" default-x="62.91">
                <pitch>
                    <step>C</step>
                    <octave>5</octave>
                </pitch>
                <duration>1</duration>
                <voice>1</voice>
                <type>eighth</type>
                <stem>down</stem>
                <beam number="1">begin</beam>
                <lyric number="1">
                    <syllabic>end</syllabic>
                    <text>pi</text>
                </lyric>
                <lyric number="2">
                    <syllabic>begin</syllabic>
                    <text>e</text>
                </lyric>
            </note>
            <note default-y="-15.00" default-x="113.61">
                <pitch>
                    <step>C</step>
                    <octave>5</octave>
                </pitch>
                <duration>1</duration>
                <voice>1</voice>
                <type>eighth</type>
                <stem>down</stem>
                <beam number="1">continue</beam>
                <lyric number="1">
                    <syllabic>single</syllabic>
                    <text>ka</text>
                </lyric>
                <lyric number="2">
                    <syllabic>end</syllabic>
                    <text>no</text>
                </lyric>
            </note>
            <note default-y="-10.00" default-x="164.30">
                <pitch>
                    <step>D</step>
                    <octave>5</octave>
                </pitch>
                <duration>1</duration>
                <voice>1</voice>
                <type>eighth</type>
                <stem>down</stem>
                <beam number="1">continue</beam>
                <lyric number="1">
                    <syllabic>begin</syllabic>
                    <text>po</text>
                </lyric>
                <lyric number="2">
                    <syllabic>single</syllabic>
                    <text>smer</text>
                </lyric>
            </note>
            <note default-y="-15.00" default-x="215.00">
                <pitch>
                    <step>C</step>
                    <octave>5</octave>
                </pitch>
                <duration>1</duration>
                <voice>1</voice>
                <type>eighth</type>
                <stem>down</stem>
                <beam number="1">end</beam>
                <lyric number="1">
                    <syllabic>middle</syllabic>
                    <text>lo</text>
                </lyric>
                <lyric number="2">
                    <syllabic>begin</syllabic>
                    <text>od</text>
                </lyric>
            </note>
            <harmony print-frame="no">
                <root>
                    <root-step>F</root-step>
                </root>
                <kind text="">major</kind>
            </harmony>
            <note default-y="-15.00" default-x="265.70">
                <pitch>
                    <step>C</step>
                    <octave>5</octave>
                </pitch>
                <duration>2</duration>
                <voice>1</voice>
                <type>quarter</type>
                <stem>down</stem>
                <lyric number="1">
                    <syllabic>middle</syllabic>
                    <text>ni</text>
                </lyric>
                <lyric number="2">
                    <syllabic>middle</syllabic>
                    <text>prav</text>
                </lyric>
            </note>
            <note default-y="-25.00" default-x="346.81">
                <pitch>
                    <step>A</step>
                    <octave>4</octave>
                </pitch>
                <duration>2</duration>
                <voice>1</voice>
                <type>quarter</type>
                <stem>up</stem>
                <lyric number="1">
                    <syllabic>middle</syllabic>
                    <text>ca,</text>
                </lyric>
                <lyric number="2">
                    <syllabic>end</syllabic>
                    <text>lja,</text>
                </lyric>
            </note>
        </measure>
        <measure width="292.77" number="7">
            <note default-y="-25.00" default-x="19.74">
                <pitch>
                    <step>A</step>
                    <octave>4</octave>
                </pitch>
                <duration>2</duration>
                <voice>1</voice>
                <type>quarter</type>
                <stem>up</stem>
                <notations>
                    <articulations>
                        <staccato/>
                    </articulations>
                </notations>
                <lyric number="1">
                    <syllabic>begin</syllabic>
                    <text>pi</text>
                </lyric>
                <lyric number="2">
                    <syllabic>single</syllabic>
                    <text>bo</text>
                </lyric>
            </note>
            <note default-y="-15.00" default-x="87.59">
                <pitch>
                    <step>C</step>
                    <octave>5</octave>
                </pitch>
                <duration>2</duration>
                <voice>1</voice>
                <type>quarter</type>
                <stem>down</stem>
                <notations>
                    <articulations>
                        <staccato/>
                    </articulations>
                </notations>
                <lyric number="1">
                    <syllabic>end</syllabic>
                    <text>ka,</text>
                </lyric>
                <lyric number="2">
                    <syllabic>single</syllabic>
                    <text>za</text>
                </lyric>
            </note>
            <harmony print-frame="no">
                <root>
                    <root-step>C</root-step>
                </root>
                <kind text="">major</kind>
            </harmony>
            <note default-y="-5.00" default-x="155.45">
                <pitch>
                    <step>E</step>
                    <octave>5</octave>
                </pitch>
                <duration>2</duration>
                <voice>1</voice>
                <type>quarter</type>
                <stem>down</stem>
                <notations>
                    <articulations>
                        <staccato/>
                    </articulations>
                </notations>
                <lyric number="1">
                    <syllabic>end</syllabic>
                    <text>po</text>
                </lyric>
                <lyric number="2">
                    <syllabic>begin</syllabic>
                    <text>te</text>
                </lyric>
            </note>
            <note default-y="-30.00" default-x="223.31">
                <pitch>
                    <step>G</step>
                    <octave>4</octave>
                </pitch>
                <duration>2</duration>
                <voice>1</voice>
                <type>quarter</type>
                <stem>up</stem>
                <notations>
                    <articulations>
                        <staccato/>
                    </articulations>
                </notations>
                <lyric number="1">
                    <syllabic>single</syllabic>
                    <text>ka,</text>
                </lyric>
                <lyric number="2">
                    <syllabic>end</syllabic>
                    <text>be,</text>
                </lyric>
            </note>
        </measure>
        <measure width="354.80" number="8">
            <harmony print-frame="no">
                <root>
                    <root-step>G</root-step>
                </root>
                <kind text="">major</kind>
            </harmony>
            <note default-y="-10.00" default-x="17.85">
                <pitch>
                    <step>D</step>
                    <octave>5</octave>
                </pitch>
                <duration>1</duration>
                <voice>1</voice>
                <type>eighth</type>
                <stem>down</stem>
                <beam number="1">begin</beam>
                <lyric number="1">
                    <syllabic>begin</syllabic>
                    <text>se</text>
                </lyric>
                <lyric number="2">
                    <syllabic>single</syllabic>
                    <text>to</text>
                </lyric>
            </note>
            <note default-y="-10.00" default-x="70.97">
                <pitch>
                    <step>D</step>
                    <octave>5</octave>
                </pitch>
                <duration>1</duration>
                <voice>1</voice>
                <type>eighth</type>
                <stem>down</stem>
                <beam number="1">continue</beam>
                <lyric number="1">
                    <syllabic>end</syllabic>
                    <text>dem</text>
                </lyric>
                <lyric number="2">
                    <syllabic>single</syllabic>
                    <text>res</text>
                </lyric>
            </note>
            <note default-y="-15.00" default-x="124.09">
                <pitch>
                    <step>C</step>
                    <octave>5</octave>
                </pitch>
                <duration>1</duration>
                <voice>1</voice>
                <type>eighth</type>
                <stem>down</stem>
                <beam number="1">continue</beam>
                <lyric number="1">
                    <syllabic>single</syllabic>
                    <text>pik</text>
                </lyric>
                <lyric number="2">
                    <syllabic>begin</syllabic>
                    <text>pra</text>
                </lyric>
            </note>
            <note default-y="-20.00" default-x="177.21">
                <pitch>
                    <step>B</step>
                    <octave>4</octave>
                </pitch>
                <duration>1</duration>
                <voice>1</voice>
                <type>eighth</type>
                <stem>down</stem>
                <beam number="1">end</beam>
                <lyric number="1">
                    <syllabic>begin</syllabic>
                    <text>i</text>
                </lyric>
                <lyric number="2">
                    <syllabic>end</syllabic>
                    <text>va</text>
                </lyric>
            </note>
            <harmony print-frame="no">
                <root>
                    <root-step>C</root-step>
                </root>
                <kind text="">major</kind>
            </harmony>
            <note default-y="-15.00" default-x="230.33">
                <pitch>
                    <step>C</step>
                    <octave>5</octave>
                </pitch>
                <duration>4</duration>
                <voice>1</voice>
                <type>half</type>
                <stem>down</stem>
                <lyric number="1">
                    <syllabic>middle</syllabic>
                    <text>ma.</text>
                </lyric>
                <lyric number="2">
                    <syllabic>single</syllabic>
                    <text>pot?</text>
                </lyric>
            </note>
            <barline location="right">
                <bar-style>light-heavy</bar-style>
            </barline>
        </measure>
    </part>
</score-partwise>
