<?xml version="1.0" encoding="UTF-8"?>
<!DOCTYPE score-partwise PUBLIC "-//Recordare//DTD MusicXML 2.0 Partwise//EN" "http://www.musicxml.org/dtds/partwise.dtd">
<score-partwise version="2.0">
    <work>
        <work-number></work-number>
        <work-title></work-title>
    </work>
    <movement-number></movement-number>
    <movement-title>God Bless America</movement-title>
    <identification>
        <creator type="composer">Irving Berlin</creator>
        <creator type="poet">Irving Berlin</creator>
        <rights>All Rights Reserved</rights>
        <encoding>
            <software>MuseScore 0.9.6.2</software>
            <encoding-date>2010-09-18</encoding-date>
            <software>ProxyMusic 2.0 c</software>
        </encoding>
        <source>http://wikifonia.org/node/7340/revisions/10145/view</source>
    </identification>
    <defaults>
        <scaling>
            <millimeters>7.056</millimeters>
            <tenths>40</tenths>
        </scaling>
        <page-layout>
            <page-height>1683.67</page-height>
            <page-width>1190.48</page-width>
            <page-margins type="both">
                <left-margin>56.6893</left-margin>
                <right-margin>56.6893</right-margin>
                <top-margin>56.6893</top-margin>
                <bottom-margin>113.379</bottom-margin>
            </page-margins>
        </page-layout>
    </defaults>
    <credit page="1">
        <credit-words font-size="24" default-y="1626.98" default-x="595.238" justify="center" valign="top">God bless America</credit-words>
    </credit>
    <credit page="1">
        <credit-words font-size="12" default-y="1559.98" default-x="1133.79" justify="right" valign="top">Irving Berlin</credit-words>
    </credit>
    <part-list>
        <score-part id="P1">
            <part-name>Electric Piano</part-name>
            <score-instrument id="P1-I3">
                <instrument-name>Electric Piano</instrument-name>
            </score-instrument>
            <midi-instrument id="P1-I3">
                <midi-channel>1</midi-channel>
                <midi-program>5</midi-program>
            </midi-instrument>
        </score-part>
    </part-list>
    <part id="P1">
        <measure width="274.62" number="1">
            <print>
                <system-layout>
                    <system-margins>
                        <left-margin>158.07</left-margin>
                        <right-margin>-0.00</right-margin>
                    </system-margins>
                    <top-system-distance>228.77</top-system-distance>
                </system-layout>
            </print>
            <barline location="left">
                <bar-style>heavy-light</bar-style>
                <repeat direction="forward"/>
            </barline>
            <attributes>
                <divisions>2</divisions>
                <key>
                    <fifths>-1</fifths>
                    <mode>major</mode>
                </key>
                <time>
                    <beats>4</beats>
                    <beat-type>4</beat-type>
                </time>
                <clef>
                    <sign>G</sign>
                    <line>2</line>
                </clef>
            </attributes>
            <harmony print-frame="no">
                <root>
                    <root-step>F</root-step>
                </root>
                <kind text="">major</kind>
            </harmony>
            <note default-y="-35.00" default-x="110.94">
                <pitch>
                    <step>F</step>
                    <octave>4</octave>
                </pitch>
                <duration>8</duration>
                <voice>1</voice>
                <type>whole</type>
                <lyric number="1">
                    <syllabic>single</syllabic>
                    <text>God</text>
                </lyric>
            </note>
        </measure>
        <measure width="222.74" number="2">
            <note default-y="-40.00" default-x="28.14">
                <pitch>
                    <step>E</step>
                    <octave>4</octave>
                </pitch>
                <duration>4</duration>
                <voice>1</voice>
                <type>half</type>
                <stem>up</stem>
                <lyric number="1">
                    <syllabic>single</syllabic>
                    <text>bless</text>
                </lyric>
            </note>
            <note default-y="-45.00" default-x="124.64">
                <pitch>
                    <step>D</step>
                    <octave>4</octave>
                </pitch>
                <duration>4</duration>
                <voice>1</voice>
                <type>half</type>
                <stem>up</stem>
                <lyric number="1">
                    <syllabic>begin</syllabic>
                    <text>A</text>
                </lyric>
            </note>
        </measure>
        <measure width="247.50" number="3">
            <harmony print-frame="no">
                <root>
                    <root-step>C</root-step>
                </root>
                <kind text="7">dominant</kind>
            </harmony>
            <note default-y="-40.00" default-x="22.99">
                <pitch>
                    <step>E</step>
                    <octave>4</octave>
                </pitch>
                <duration>3</duration>
                <voice>1</voice>
                <type>quarter</type>
                <dot/>
                <stem>up</stem>
                <lyric number="1">
                    <syllabic>middle</syllabic>
                    <text>mer</text>
                </lyric>
            </note>
            <note default-y="-45.00" default-x="107.42">
                <pitch>
                    <step>D</step>
                    <octave>4</octave>
                </pitch>
                <duration>1</duration>
                <voice>1</voice>
                <type>eighth</type>
                <stem>up</stem>
                <lyric number="1">
                    <syllabic>middle</syllabic>
                    <text>i</text>
                </lyric>
            </note>
            <note default-y="-50.00" default-x="150.70">
                <pitch>
                    <step>C</step>
                    <octave>4</octave>
                </pitch>
                <duration>4</duration>
                <tie type="start"/>
                <voice>1</voice>
                <type>half</type>
                <stem>up</stem>
                <notations>
                    <tied type="start"/>
                </notations>
                <lyric number="1">
                    <syllabic>end</syllabic>
                    <text>ca</text>
                </lyric>
            </note>
        </measure>
        <measure width="174.16" number="4">
            <note default-y="-50.00" default-x="12.00">
                <pitch>
                    <step>C</step>
                    <octave>4</octave>
                </pitch>
                <duration>8</duration>
                <tie type="stop"/>
                <voice>1</voice>
                <type>whole</type>
                <notations>
                    <tied type="stop"/>
                </notations>
            </note>
        </measure>
        <measure width="298.35" number="5">
            <print new-system="yes">
                <system-layout>
                    <system-margins>
                        <left-margin>0.00</left-margin>
                        <right-margin>-0.00</right-margin>
                    </system-margins>
                    <system-distance>153.73</system-distance>
                </system-layout>
            </print>
            <note default-y="-30.00" default-x="87.50">
                <pitch>
                    <step>G</step>
                    <octave>4</octave>
                </pitch>
                <duration>8</duration>
                <voice>1</voice>
                <type>whole</type>
                <lyric number="1">
                    <syllabic>single</syllabic>
                    <text>Land</text>
                </lyric>
            </note>
        </measure>
        <measure width="250.06" number="6">
            <harmony print-frame="no">
                <root>
                    <root-step>G</root-step>
                </root>
                <kind text="m7">minor-seventh</kind>
            </harmony>
            <note default-y="-35.00" default-x="22.36">
                <pitch>
                    <step>F</step>
                    <octave>4</octave>
                </pitch>
                <duration>4</duration>
                <voice>1</voice>
                <type>half</type>
                <stem>up</stem>
                <lyric number="1">
                    <syllabic>single</syllabic>
                    <text>that</text>
                </lyric>
            </note>
            <harmony print-frame="no">
                <root>
                    <root-step>C</root-step>
                </root>
                <kind text="7">dominant</kind>
            </harmony>
            <note default-y="-30.00" default-x="135.41">
                <pitch>
                    <step>G</step>
                    <octave>4</octave>
                </pitch>
                <duration>4</duration>
                <voice>1</voice>
                <type>half</type>
                <stem>up</stem>
                <lyric number="1">
                    <syllabic>single</syllabic>
                    <text>I</text>
                </lyric>
            </note>
        </measure>
        <measure width="231.94" number="7">
            <harmony print-frame="no">
                <root>
                    <root-step>F</root-step>
                </root>
                <kind text="">major</kind>
            </harmony>
            <note default-y="-25.00" default-x="24.92">
                <pitch>
                    <step>A</step>
                    <octave>4</octave>
                </pitch>
                <duration>8</duration>
                <tie type="start"/>
                <voice>1</voice>
                <type>whole</type>
                <notations>
                    <tied type="start"/>
                </notations>
                <lyric number="1">
                    <syllabic>single</syllabic>
                    <text>love</text>
                </lyric>
            </note>
        </measure>
        <measure width="296.74" number="8">
            <harmony print-frame="no">
                <root>
                    <root-step>F</root-step>
                </root>
                <kind text="7">dominant</kind>
            </harmony>
            <note default-y="-25.00" default-x="12.00">
                <pitch>
                    <step>A</step>
                    <octave>4</octave>
                </pitch>
                <duration>4</duration>
                <tie type="stop"/>
                <voice>1</voice>
                <type>half</type>
                <stem>up</stem>
                <notations>
                    <tied type="stop"/>
                </notations>
            </note>
            <note default-y="-30.00" default-x="137.84">
                <pitch>
                    <step>G</step>
                    <octave>4</octave>
                </pitch>
                <duration>2</duration>
                <voice>1</voice>
                <type>quarter</type>
                <stem>up</stem>
                <lyric number="1">
                    <syllabic>single</syllabic>
                    <text>stand</text>
                </lyric>
            </note>
            <note default-y="-25.00" default-x="216.49">
                <pitch>
                    <step>A</step>
                    <octave>4</octave>
                </pitch>
                <duration>2</duration>
                <voice>1</voice>
                <type>quarter</type>
                <stem>up</stem>
                <lyric number="1">
                    <syllabic>begin</syllabic>
                    <text>be</text>
                </lyric>
            </note>
        </measure>
        <measure width="307.06" number="9">
            <print new-system="yes">
                <system-layout>
                    <system-margins>
                        <left-margin>0.00</left-margin>
                        <right-margin>-0.00</right-margin>
                    </system-margins>
                    <system-distance>153.73</system-distance>
                </system-layout>
            </print>
            <harmony print-frame="no">
                <root>
                    <root-step>B</root-step>
                    <root-alter>-1</root-alter>
                </root>
                <kind text="">major</kind>
            </harmony>
            <note default-y="-20.00" default-x="82.40">
                <pitch>
                    <step>B</step>
                    <alter>-1</alter>
                    <octave>4</octave>
                </pitch>
                <duration>4</duration>
                <voice>1</voice>
                <type>half</type>
                <stem>down</stem>
                <lyric number="1">
                    <syllabic>end</syllabic>
                    <text>side</text>
                </lyric>
            </note>
            <note default-y="-45.00" default-x="193.93">
                <pitch>
                    <step>D</step>
                    <octave>4</octave>
                </pitch>
                <duration>4</duration>
                <tie type="start"/>
                <voice>1</voice>
                <type>half</type>
                <stem>up</stem>
                <notations>
                    <tied type="start"/>
                </notations>
                <lyric number="1">
                    <syllabic>single</syllabic>
                    <text>her</text>
                </lyric>
            </note>
        </measure>
        <measure width="234.36" number="10">
            <note default-y="-45.00" default-x="12.00">
                <pitch>
                    <step>D</step>
                    <octave>4</octave>
                </pitch>
                <duration>4</duration>
                <tie type="stop"/>
                <voice>1</voice>
                <type>half</type>
                <stem>up</stem>
                <notations>
                    <tied type="stop"/>
                </notations>
            </note>
            <note default-y="-20.00" default-x="122.38">
                <pitch>
                    <step>B</step>
                    <alter>-1</alter>
                    <octave>4</octave>
                </pitch>
                <duration>4</duration>
                <voice>1</voice>
                <type>half</type>
                <stem>down</stem>
                <lyric number="1">
                    <syllabic>single</syllabic>
                    <text>and</text>
                </lyric>
            </note>
        </measure>
        <measure width="262.35" number="11">
            <harmony print-frame="no">
                <root>
                    <root-step>F</root-step>
                </root>
                <kind text="">major</kind>
            </harmony>
            <note default-y="-25.00" default-x="30.67">
                <pitch>
                    <step>A</step>
                    <octave>4</octave>
                </pitch>
                <duration>4</duration>
                <voice>1</voice>
                <type>half</type>
                <stem>up</stem>
                <lyric number="1">
                    <syllabic>single</syllabic>
                    <text>guide</text>
                </lyric>
            </note>
            <note default-y="-50.00" default-x="145.71">
                <pitch>
                    <step>C</step>
                    <octave>4</octave>
                </pitch>
                <duration>4</duration>
                <tie type="start"/>
                <voice>1</voice>
                <type>half</type>
                <stem>up</stem>
                <notations>
                    <tied type="start"/>
                </notations>
                <lyric number="1">
                    <syllabic>single</syllabic>
                    <text>her</text>
                </lyric>
            </note>
        </measure>
        <measure width="273.32" number="12">
            <note default-y="-50.00" default-x="12.00">
                <pitch>
                    <step>C</step>
                    <octave>4</octave>
                </pitch>
                <duration>4</duration>
                <tie type="stop"/>
                <voice>1</voice>
                <type>half</type>
                <stem>up</stem>
                <notations>
                    <tied type="stop"/>
                </notations>
            </note>
            <harmony print-frame="no">
                <root>
                    <root-step>D</root-step>
                </root>
                <kind text="m">minor</kind>
            </harmony>
            <note default-y="-35.00" default-x="127.43">
                <pitch>
                    <step>F</step>
                    <octave>4</octave>
                </pitch>
                <duration>2</duration>
                <voice>1</voice>
                <type>quarter</type>
                <stem>up</stem>
                <lyric number="1">
                    <syllabic>single</syllabic>
                    <text>thru</text>
                </lyric>
            </note>
            <harmony print-frame="no">
                <root>
                    <root-step>F</root-step>
                </root>
                <kind text="">major</kind>
            </harmony>
            <note default-y="-30.00" default-x="199.58">
                <pitch>
                    <step>G</step>
                    <octave>4</octave>
                </pitch>
                <duration>2</duration>
                <voice>1</voice>
                <type>quarter</type>
                <stem>up</stem>
                <lyric number="1">
                    <syllabic>single</syllabic>
                    <text>the</text>
                </lyric>
            </note>
        </measure>
        <measure width="332.41" number="13">
            <print new-system="yes">
                <system-layout>
                    <system-margins>
                        <left-margin>0.00</left-margin>
                        <right-margin>-0.00</right-margin>
                    </system-margins>
                    <system-distance>153.73</system-distance>
                </system-layout>
            </print>
            <harmony print-frame="no">
                <root>
                    <root-step>G</root-step>
                </root>
                <kind text="7">dominant</kind>
            </harmony>
            <note default-y="-25.00" default-x="87.51">
                <pitch>
                    <step>A</step>
                    <octave>4</octave>
                </pitch>
                <duration>4</duration>
                <voice>1</voice>
                <type>half</type>
                <stem>up</stem>
                <lyric number="1">
                    <syllabic>single</syllabic>
                    <text>night</text>
                </lyric>
            </note>
            <note default-y="-30.00" default-x="195.64">
                <pitch>
                    <step>G</step>
                    <octave>4</octave>
                </pitch>
                <duration>2</duration>
                <voice>1</voice>
                <type>quarter</type>
                <stem>up</stem>
                <lyric number="1">
                    <syllabic>single</syllabic>
                    <text>with</text>
                </lyric>
            </note>
            <note default-y="-35.00" default-x="263.23">
                <pitch>
                    <step>F</step>
                    <octave>4</octave>
                </pitch>
                <duration>2</duration>
                <voice>1</voice>
                <type>quarter</type>
                <stem>up</stem>
                <lyric number="1">
                    <syllabic>single</syllabic>
                    <text>a</text>
                </lyric>
            </note>
        </measure>
        <measure width="272.37" number="14">
            <harmony print-frame="no">
                <root>
                    <root-step>C</root-step>
                </root>
                <kind text="7">dominant</kind>
            </harmony>
            <note default-y="-30.00" default-x="26.20">
                <pitch>
                    <step>G</step>
                    <octave>4</octave>
                </pitch>
                <duration>4</duration>
                <voice>1</voice>
                <type>half</type>
                <stem>up</stem>
                <lyric number="1">
                    <syllabic>single</syllabic>
                    <text>light</text>
                </lyric>
            </note>
            <harmony print-frame="no">
                <root>
                    <root-step>G</root-step>
                </root>
                <kind text="m7">minor-seventh</kind>
            </harmony>
            <note default-y="-35.00" default-x="134.90">
                <pitch>
                    <step>F</step>
                    <octave>4</octave>
                </pitch>
                <duration>2</duration>
                <voice>1</voice>
                <type>quarter</type>
                <stem>up</stem>
                <lyric number="1">
                    <syllabic>single</syllabic>
                    <text>from</text>
                </lyric>
            </note>
            <note default-y="-40.00" default-x="202.84">
                <pitch>
                    <step>E</step>
                    <octave>4</octave>
                </pitch>
                <duration>2</duration>
                <voice>1</voice>
                <type>quarter</type>
                <stem>up</stem>
                <lyric number="1">
                    <syllabic>begin</syllabic>
                    <text>a</text>
                </lyric>
            </note>
        </measure>
        <measure width="199.39" number="15">
            <harmony print-frame="no">
                <root>
                    <root-step>F</root-step>
                </root>
                <kind text="">major</kind>
            </harmony>
            <note default-y="-35.00" default-x="27.47">
                <pitch>
                    <step>F</step>
                    <octave>4</octave>
                </pitch>
                <duration>8</duration>
                <tie type="start"/>
                <voice>1</voice>
                <type>whole</type>
                <notations>
                    <tied type="start"/>
                </notations>
                <lyric number="1">
                    <syllabic>end</syllabic>
                    <text>bove</text>
                </lyric>
            </note>
        </measure>
        <measure width="272.93" number="16">
            <note default-y="-35.00" default-x="17.50">
                <pitch>
                    <step>F</step>
                    <octave>4</octave>
                </pitch>
                <duration>4</duration>
                <tie type="stop"/>
                <voice>1</voice>
                <type>half</type>
                <stem>up</stem>
                <notations>
                    <tied type="stop"/>
                </notations>
            </note>
            <note default-y="-40.00" default-x="125.91">
                <pitch>
                    <step>E</step>
                    <octave>4</octave>
                </pitch>
                <duration>3</duration>
                <voice>1</voice>
                <type>quarter</type>
                <dot/>
                <stem>up</stem>
                <lyric number="1">
                    <syllabic>single</syllabic>
                    <text>from</text>
                </lyric>
            </note>
            <note default-y="-35.00" default-x="222.05">
                <pitch>
                    <step>F</step>
                    <octave>4</octave>
                </pitch>
                <duration>1</duration>
                <voice>1</voice>
                <type>eighth</type>
                <stem>up</stem>
                <lyric number="1">
                    <syllabic>single</syllabic>
                    <text>the</text>
                </lyric>
            </note>
        </measure>
        <measure width="322.95" number="17">
            <print new-system="yes">
                <system-layout>
                    <system-margins>
                        <left-margin>0.00</left-margin>
                        <right-margin>-0.00</right-margin>
                    </system-margins>
                    <system-distance>153.73</system-distance>
                </system-layout>
            </print>
            <harmony print-frame="no">
                <root>
                    <root-step>C</root-step>
                </root>
                <kind text="7">dominant</kind>
            </harmony>
            <note default-y="-30.00" default-x="90.06">
                <pitch>
                    <step>G</step>
                    <octave>4</octave>
                </pitch>
                <duration>4</duration>
                <voice>1</voice>
                <type>half</type>
                <stem>up</stem>
                <lyric number="1">
                    <syllabic>begin</syllabic>
                    <text>moun</text>
                </lyric>
            </note>
            <note default-y="-50.00" default-x="205.70">
                <pitch>
                    <step>C</step>
                    <octave>4</octave>
                </pitch>
                <duration>4</duration>
                <tie type="start"/>
                <voice>1</voice>
                <type>half</type>
                <stem>up</stem>
                <notations>
                    <tied type="start"/>
                </notations>
                <lyric number="1">
                    <syllabic>end</syllabic>
                    <text>tains</text>
                </lyric>
            </note>
        </measure>
        <measure width="258.42" number="18">
            <note default-y="-50.00" default-x="12.00">
                <pitch>
                    <step>C</step>
                    <octave>4</octave>
                </pitch>
                <duration>4</duration>
                <tie type="stop"/>
                <voice>1</voice>
                <type>half</type>
                <stem>up</stem>
                <notations>
                    <tied type="stop"/>
                </notations>
            </note>
            <note default-y="-35.00" default-x="116.56">
                <pitch>
                    <step>F</step>
                    <octave>4</octave>
                </pitch>
                <duration>3</duration>
                <voice>1</voice>
                <type>quarter</type>
                <dot/>
                <stem>up</stem>
                <lyric number="1">
                    <syllabic>single</syllabic>
                    <text>to</text>
                </lyric>
            </note>
            <note default-y="-30.00" default-x="209.29">
                <pitch>
                    <step>G</step>
                    <octave>4</octave>
                </pitch>
                <duration>1</duration>
                <voice>1</voice>
                <type>eighth</type>
                <stem>up</stem>
                <lyric number="1">
                    <syllabic>single</syllabic>
                    <text>the</text>
                </lyric>
            </note>
        </measure>
        <measure width="237.31" number="19">
            <harmony print-frame="no">
                <root>
                    <root-step>F</root-step>
                </root>
                <kind text="">major</kind>
            </harmony>
            <note default-y="-25.00" default-x="22.99">
                <pitch>
                    <step>A</step>
                    <octave>4</octave>
                </pitch>
                <duration>4</duration>
                <voice>1</voice>
                <type>half</type>
                <stem>up</stem>
                <lyric number="1">
                    <syllabic>begin</syllabic>
                    <text>prai</text>
                </lyric>
            </note>
            <note default-y="-50.00" default-x="129.35">
                <pitch>
                    <step>C</step>
                    <octave>4</octave>
                </pitch>
                <duration>4</duration>
                <tie type="start"/>
                <voice>1</voice>
                <type>half</type>
                <stem>up</stem>
                <notations>
                    <tied type="start"/>
                </notations>
                <lyric number="1">
                    <syllabic>end</syllabic>
                    <text>ries</text>
                </lyric>
            </note>
        </measure>
        <measure width="258.42" number="20">
            <note default-y="-50.00" default-x="12.00">
                <pitch>
                    <step>C</step>
                    <octave>4</octave>
                </pitch>
                <duration>4</duration>
                <tie type="stop"/>
                <voice>1</voice>
                <type>half</type>
                <stem>up</stem>
                <notations>
                    <tied type="stop"/>
                </notations>
            </note>
            <note default-y="-30.00" default-x="116.56">
                <pitch>
                    <step>G</step>
                    <octave>4</octave>
                </pitch>
                <duration>3</duration>
                <voice>1</voice>
                <type>quarter</type>
                <dot/>
                <stem>up</stem>
                <lyric number="1">
                    <syllabic>single</syllabic>
                    <text>to</text>
                </lyric>
            </note>
            <note default-y="-25.00" default-x="209.29">
                <pitch>
                    <step>A</step>
                    <octave>4</octave>
                </pitch>
                <duration>1</duration>
                <voice>1</voice>
                <type>eighth</type>
                <stem>up</stem>
                <lyric number="1">
                    <syllabic>single</syllabic>
                    <text>the</text>
                </lyric>
            </note>
        </measure>
        <measure width="319.72" number="21">
            <print new-system="yes">
                <system-layout>
                    <system-margins>
                        <left-margin>0.00</left-margin>
                        <right-margin>-0.00</right-margin>
                    </system-margins>
                    <system-distance>153.73</system-distance>
                </system-layout>
            </print>
            <harmony print-frame="no">
                <root>
                    <root-step>C</root-step>
                </root>
                <kind text="7">dominant</kind>
            </harmony>
            <note default-y="-20.00" default-x="69.60">
                <pitch>
                    <step>B</step>
                    <alter>-1</alter>
                    <octave>4</octave>
                </pitch>
                <duration>4</duration>
                <voice>1</voice>
                <type>half</type>
                <stem>down</stem>
                <lyric number="1">
                    <syllabic>begin</syllabic>
                    <text>o</text>
                </lyric>
            </note>
            <note default-y="-40.00" default-x="193.86">
                <pitch>
                    <step>E</step>
                    <octave>4</octave>
                </pitch>
                <duration>4</duration>
                <tie type="start"/>
                <voice>1</voice>
                <type>half</type>
                <stem>up</stem>
                <notations>
                    <tied type="start"/>
                </notations>
                <lyric number="1">
                    <syllabic>end</syllabic>
                    <text>ceans</text>
                </lyric>
            </note>
        </measure>
        <measure width="315.53" number="22">
            <note default-y="-40.00" default-x="17.50">
                <pitch>
                    <step>E</step>
                    <octave>4</octave>
                </pitch>
                <duration>4</duration>
                <tie type="stop"/>
                <voice>1</voice>
                <type>half</type>
                <stem>up</stem>
                <notations>
                    <tied type="stop"/>
                </notations>
            </note>
            <note default-y="-25.00" default-x="144.11">
                <pitch>
                    <step>A</step>
                    <octave>4</octave>
                </pitch>
                <duration>3</duration>
                <voice>1</voice>
                <type>quarter</type>
                <dot/>
                <stem>up</stem>
                <lyric number="1">
                    <syllabic>single</syllabic>
                    <text>white</text>
                </lyric>
            </note>
            <note default-y="-20.00" default-x="256.38">
                <pitch>
                    <step>B</step>
                    <alter>-1</alter>
                    <octave>4</octave>
                </pitch>
                <duration>1</duration>
                <voice>1</voice>
                <type>eighth</type>
                <stem>down</stem>
                <lyric number="1">
                    <syllabic>single</syllabic>
                    <text>with</text>
                </lyric>
            </note>
        </measure>
        <measure width="231.97" number="23">
            <harmony print-frame="no">
                <root>
                    <root-step>F</root-step>
                </root>
                <kind text="7">dominant</kind>
            </harmony>
            <note default-y="-15.00" default-x="28.75">
                <pitch>
                    <step>C</step>
                    <octave>5</octave>
                </pitch>
                <duration>8</duration>
                <tie type="start"/>
                <voice>1</voice>
                <type>whole</type>
                <notations>
                    <tied type="start"/>
                </notations>
                <lyric number="1">
                    <syllabic>single</syllabic>
                    <text>foam</text>
                </lyric>
            </note>
        </measure>
        <measure width="209.88" number="24">
            <harmony print-frame="no">
                <root>
                    <root-step>C</root-step>
                </root>
                <kind text="m">minor</kind>
            </harmony>
            <note default-y="-15.00" default-x="12.00">
                <pitch>
                    <step>C</step>
                    <octave>5</octave>
                </pitch>
                <duration>8</duration>
                <tie type="stop"/>
                <voice>1</voice>
                <type>whole</type>
                <notations>
                    <tied type="stop"/>
                </notations>
            </note>
        </measure>
        <measure width="180.30" number="25">
            <print new-system="yes">
                <system-layout>
                    <system-margins>
                        <left-margin>0.00</left-margin>
                        <right-margin>0.00</right-margin>
                    </system-margins>
                    <system-distance>153.73</system-distance>
                </system-layout>
            </print>
            <harmony print-frame="no">
                <root>
                    <root-step>B</root-step>
                    <root-alter>-1</root-alter>
                </root>
                <kind text="">major</kind>
            </harmony>
            <note default-y="-10.00" default-x="83.67">
                <pitch>
                    <step>D</step>
                    <octave>5</octave>
                </pitch>
                <duration>8</duration>
                <voice>1</voice>
                <type>whole</type>
                <lyric number="1">
                    <syllabic>single</syllabic>
                    <text>God</text>
                </lyric>
            </note>
        </measure>
        <measure width="155.71" number="26">
            <harmony print-frame="no">
                <root>
                    <root-step>F</root-step>
                </root>
                <kind text="">major</kind>
            </harmony>
            <note default-y="-15.00" default-x="28.14">
                <pitch>
                    <step>C</step>
                    <octave>5</octave>
                </pitch>
                <duration>4</duration>
                <voice>1</voice>
                <type>half</type>
                <stem>down</stem>
                <lyric number="1">
                    <syllabic>single</syllabic>
                    <text>bless</text>
                </lyric>
            </note>
            <harmony print-frame="no">
                <root>
                    <root-step>C</root-step>
                </root>
                <kind text="7">dominant</kind>
            </harmony>
            <note default-y="-20.00" default-x="91.12">
                <pitch>
                    <step>B</step>
                    <alter>-1</alter>
                    <octave>4</octave>
                </pitch>
                <duration>4</duration>
                <voice>1</voice>
                <type>half</type>
                <stem>down</stem>
                <lyric number="1">
                    <syllabic>begin</syllabic>
                    <text>A</text>
                </lyric>
            </note>
        </measure>
        <measure width="169.19" number="27">
            <harmony print-frame="no">
                <root>
                    <root-step>F</root-step>
                </root>
                <kind text="">major</kind>
            </harmony>
            <note default-y="-25.00" default-x="22.99">
                <pitch>
                    <step>A</step>
                    <octave>4</octave>
                </pitch>
                <duration>2</duration>
                <voice>1</voice>
                <type>quarter</type>
                <stem>up</stem>
                <lyric number="1">
                    <syllabic>begin</syllabic>
                    <text>mer</text>
                </lyric>
            </note>
            <harmony print-frame="no">
                <root>
                    <root-step>A</root-step>
                </root>
                <kind text="7">dominant</kind>
            </harmony>
            <note default-y="-30.00" default-x="63.16">
                <pitch>
                    <step>G</step>
                    <octave>4</octave>
                </pitch>
                <duration>2</duration>
                <voice>1</voice>
                <type>quarter</type>
                <stem>up</stem>
                <lyric number="1">
                    <syllabic>begin</syllabic>
                    <text>i</text>
                </lyric>
            </note>
            <harmony print-frame="no">
                <root>
                    <root-step>D</root-step>
                </root>
                <kind text="m">minor</kind>
            </harmony>
            <note default-y="-35.00" default-x="103.32">
                <pitch>
                    <step>F</step>
                    <octave>4</octave>
                </pitch>
                <duration>4</duration>
                <tie type="start"/>
                <voice>1</voice>
                <type>half</type>
                <stem>up</stem>
                <notations>
                    <tied type="start"/>
                </notations>
                <lyric number="1">
                    <syllabic>end</syllabic>
                    <text>ca</text>
                </lyric>
            </note>
        </measure>
        <measure width="137.63" number="28">
            <harmony print-frame="no">
                <root>
                    <root-step>G</root-step>
                </root>
                <kind text="m7">minor-seventh</kind>
            </harmony>
            <note default-y="-35.00" default-x="12.00">
                <pitch>
                    <step>F</step>
                    <octave>4</octave>
                </pitch>
                <duration>4</duration>
                <tie type="stop"/>
                <voice>1</voice>
                <type>half</type>
                <stem>up</stem>
                <notations>
                    <tied type="stop"/>
                </notations>
            </note>
            <harmony print-frame="no">
                <root>
                    <root-step>F</root-step>
                </root>
                <kind text="">major</kind>
            </harmony>
            <note default-y="-20.00" default-x="74.02">
                <pitch>
                    <step>B</step>
                    <alter>-1</alter>
                    <octave>4</octave>
                </pitch>
                <duration>4</duration>
                <voice>1</voice>
                <type>half</type>
                <stem>down</stem>
                <lyric number="1">
                    <syllabic>single</syllabic>
                    <text>my</text>
                </lyric>
            </note>
        </measure>
        <measure width="146.96" number="29">
            <harmony print-frame="no">
                <root>
                    <root-step>C</root-step>
                </root>
                <kind text="7">dominant</kind>
            </harmony>
            <note default-y="-25.00" default-x="44.57">
                <pitch>
                    <step>A</step>
                    <octave>4</octave>
                </pitch>
                <duration>8</duration>
                <voice>1</voice>
                <type>whole</type>
                <lyric number="1">
                    <syllabic>single</syllabic>
                    <text>home</text>
                </lyric>
            </note>
        </measure>
        <measure width="134.35" number="30">
            <harmony print-frame="no">
                <root>
                    <root-step>F</root-step>
                </root>
                <kind text="">major</kind>
            </harmony>
            <note default-y="-30.00" default-x="31.31">
                <pitch>
                    <step>G</step>
                    <octave>4</octave>
                </pitch>
                <duration>8</duration>
                <voice>1</voice>
                <type>whole</type>
                <lyric number="1">
                    <syllabic>single</syllabic>
                    <text>sweet</text>
                </lyric>
            </note>
        </measure>
        <measure width="152.96" number="31">
            <harmony print-frame="no">
                <root>
                    <root-step>F</root-step>
                </root>
                <kind text="">major</kind>
            </harmony>
            <note default-y="-35.00" default-x="44.57">
                <pitch>
                    <step>F</step>
                    <octave>4</octave>
                </pitch>
                <duration>8</duration>
                <voice>1</voice>
                <type>whole</type>
                <lyric number="1">
                    <syllabic>single</syllabic>
                    <text>home</text>
                </lyric>
            </note>
            <barline location="right">
                <bar-style>light-heavy</bar-style>
            </barline>
        </measure>
    </part>
</score-partwise>
