<?xml version="1.0" encoding="UTF-8"?>
<!DOCTYPE score-partwise PUBLIC "-//Recordare//DTD MusicXML 2.0 Partwise//EN" "http://www.musicxml.org/dtds/partwise.dtd">
<score-partwise version="2.0">
    <work>
        <work-number></work-number>
        <work-title></work-title>
    </work>
    <movement-number></movement-number>
    <movement-title>Happy Holiday</movement-title>
    <identification>
        <creator type="composer">A. Kraamer</creator>
        <creator type="poet"></creator>
        <rights>All Rights Reserved</rights>
        <encoding>
            <software>Finale 2010 for Windows</software>
            <software>Dolet Light for Finale 2010</software>
            <encoding-date>2010-08-13</encoding-date>
            <supports value="yes" type="yes" element="print" attribute="new-system"/>
            <supports value="yes" type="yes" element="print" attribute="new-page"/>
            <software>ProxyMusic 2.0 c</software>
        </encoding>
        <source>http://wikifonia.org/node/7629/revisions/10833/view</source>
    </identification>
    <defaults>
        <scaling>
            <millimeters>6.9674</millimeters>
            <tenths>40</tenths>
        </scaling>
        <page-layout>
            <page-height>1704</page-height>
            <page-width>1205</page-width>
            <page-margins type="even">
                <left-margin>109</left-margin>
                <right-margin>73</right-margin>
                <top-margin>97</top-margin>
                <bottom-margin>172</bottom-margin>
            </page-margins>
            <page-margins type="odd">
                <left-margin>109</left-margin>
                <right-margin>73</right-margin>
                <top-margin>97</top-margin>
                <bottom-margin>172</bottom-margin>
            </page-margins>
        </page-layout>
        <system-layout>
            <system-margins>
                <left-margin>0</left-margin>
                <right-margin>0</right-margin>
            </system-margins>
            <system-distance>95</system-distance>
            <top-system-distance>95</top-system-distance>
        </system-layout>
        <appearance>
            <line-width type="stem">1.0026</line-width>
            <line-width type="beam">5</line-width>
            <line-width type="staff">1.4779</line-width>
            <line-width type="light barline">1.6016</line-width>
            <line-width type="heavy barline">5</line-width>
            <line-width type="leger">1.6016</line-width>
            <line-width type="ending">0.957</line-width>
            <line-width type="wedge">1.0026</line-width>
            <line-width type="enclosure">1.0026</line-width>
            <line-width type="tuplet bracket">1.0026</line-width>
            <note-size type="grace">60</note-size>
            <note-size type="cue">60</note-size>
        </appearance>
        <music-font font-size="19.75" font-family="Opus"/>
        <word-font font-size="9.9" font-family="Opus Special"/>
        <lyric-font font-weight="bold" font-size="11.5" font-family="Times New Roman" name="verse"/>
    </defaults>
    <credit page="1">
        <credit-words font-size="8" font-family="Times New Roman"> Laukens Music Productions  </credit-words>
    </credit>
    <credit page="1">
        <credit-words font-weight="bold" font-style="italic" font-size="20" font-family="Times New Roman" default-y="1614" default-x="603" halign="center" valign="top">HAPPY HOLIDAY</credit-words>
    </credit>
    <credit page="1">
        <credit-words font-size="14" font-family="Times New Roman" default-y="1571" default-x="1131" halign="right" valign="top">arr.: H. Laukens</credit-words>
    </credit>
    <credit page="1">
        <credit-words font-size="14" font-family="Times New Roman" default-y="1571" default-x="109" valign="top">Polka</credit-words>
    </credit>
    <part-list>
        <score-part id="P1">
            <part-name print-object="no">MusicXML Part</part-name>
            <score-instrument id="P1-I1">
                <instrument-name>Grand Piano</instrument-name>
            </score-instrument>
            <midi-instrument id="P1-I1">
                <midi-channel>1</midi-channel>
                <midi-program>1</midi-program>
                <volume>80</volume>
                <pan>0</pan>
            </midi-instrument>
        </score-part>
    </part-list>
    <part id="P1">
        <measure width="300" number="1">
            <print>
                <system-layout>
                    <system-margins>
                        <left-margin>61</left-margin>
                        <right-margin>0</right-margin>
                    </system-margins>
                    <top-system-distance>182</top-system-distance>
                </system-layout>
            </print>
            <barline location="left">
                <bar-style>heavy-light</bar-style>
                <repeat direction="forward"/>
            </barline>
            <attributes>
                <divisions>4</divisions>
                <key>
                    <fifths>0</fifths>
                    <mode>major</mode>
                </key>
                <time>
                    <beats>2</beats>
                    <beat-type>4</beat-type>
                </time>
                <clef>
                    <sign>G</sign>
                    <line>2</line>
                </clef>
            </attributes>
            <sound tempo="165"/>
            <direction placement="above">
                <direction-type>
                    <segno default-y="13" default-x="71"/>
                </direction-type>
                <sound segno="1" divisions="4"/>
            </direction>
            <harmony font-family="Times New Roman" default-y="16">
                <root>
                    <root-step>C</root-step>
                </root>
                <kind halign="left" text="">major</kind>
            </harmony>
            <note default-x="92">
                <pitch>
                    <step>G</step>
                    <octave>5</octave>
                </pitch>
                <duration>3</duration>
                <voice>1</voice>
                <type>eighth</type>
                <dot/>
                <stem default-y="-38">down</stem>
                <beam number="1">begin</beam>
            </note>
            <note default-x="159">
                <pitch>
                    <step>E</step>
                    <octave>5</octave>
                </pitch>
                <duration>1</duration>
                <voice>1</voice>
                <type>16th</type>
                <stem default-y="-40">down</stem>
                <beam number="1">end</beam>
                <beam number="2">backward hook</beam>
            </note>
            <note default-x="197">
                <pitch>
                    <step>C</step>
                    <octave>5</octave>
                </pitch>
                <duration>2</duration>
                <voice>1</voice>
                <type>eighth</type>
                <stem default-y="-57.5">down</stem>
                <beam number="1">begin</beam>
            </note>
            <note default-x="248">
                <pitch>
                    <step>A</step>
                    <octave>4</octave>
                </pitch>
                <duration>2</duration>
                <voice>1</voice>
                <type>eighth</type>
                <stem default-y="-60">down</stem>
                <beam number="1">end</beam>
            </note>
        </measure>
        <measure width="219" number="2">
            <note default-x="10">
                <pitch>
                    <step>G</step>
                    <octave>4</octave>
                </pitch>
                <duration>8</duration>
                <voice>1</voice>
                <type>half</type>
                <stem default-y="6">up</stem>
            </note>
        </measure>
        <measure width="225" number="3">
            <note default-x="10">
                <pitch>
                    <step>G</step>
                    <octave>4</octave>
                </pitch>
                <duration>1</duration>
                <voice>1</voice>
                <type>16th</type>
                <stem default-y="5.5">up</stem>
                <beam number="1">begin</beam>
                <beam number="2">begin</beam>
            </note>
            <note default-x="42">
                <pitch>
                    <step>G</step>
                    <octave>4</octave>
                </pitch>
                <duration>1</duration>
                <voice>1</voice>
                <type>16th</type>
                <stem default-y="5.5">up</stem>
                <beam number="1">continue</beam>
                <beam number="2">continue</beam>
            </note>
            <note default-x="74">
                <pitch>
                    <step>G</step>
                    <octave>4</octave>
                </pitch>
                <duration>1</duration>
                <voice>1</voice>
                <type>16th</type>
                <stem default-y="5.5">up</stem>
                <beam number="1">continue</beam>
                <beam number="2">continue</beam>
            </note>
            <note default-x="106">
                <pitch>
                    <step>G</step>
                    <octave>4</octave>
                </pitch>
                <duration>1</duration>
                <voice>1</voice>
                <type>16th</type>
                <stem default-y="5.5">up</stem>
                <beam number="1">end</beam>
                <beam number="2">end</beam>
            </note>
            <harmony font-family="Times New Roman" default-y="16">
                <root>
                    <root-step>C</root-step>
                </root>
                <kind halign="left" text="dim">diminished</kind>
            </harmony>
            <note default-x="138">
                <pitch>
                    <step>A</step>
                    <octave>4</octave>
                </pitch>
                <duration>2</duration>
                <voice>1</voice>
                <type>eighth</type>
                <stem default-y="-60">down</stem>
                <beam number="1">begin</beam>
            </note>
            <note default-x="180">
                <pitch>
                    <step>C</step>
                    <octave>5</octave>
                </pitch>
                <duration>2</duration>
                <voice>1</voice>
                <type>eighth</type>
                <stem default-y="-57.5">down</stem>
                <beam number="1">end</beam>
            </note>
        </measure>
        <measure width="219" number="4">
            <harmony font-family="Times New Roman" default-y="16">
                <root>
                    <root-step>G</root-step>
                </root>
                <kind halign="left" text="7">dominant</kind>
            </harmony>
            <note default-x="10">
                <pitch>
                    <step>B</step>
                    <octave>4</octave>
                </pitch>
                <duration>2</duration>
                <voice>1</voice>
                <type>eighth</type>
                <stem default-y="-55">down</stem>
                <beam number="1">begin</beam>
            </note>
            <note default-x="70">
                <pitch>
                    <step>B</step>
                    <octave>4</octave>
                </pitch>
                <duration>2</duration>
                <voice>1</voice>
                <type>eighth</type>
                <stem default-y="-55">down</stem>
                <beam number="1">end</beam>
            </note>
            <note default-x="131">
                <pitch>
                    <step>B</step>
                    <octave>4</octave>
                </pitch>
                <duration>4</duration>
                <voice>1</voice>
                <type>quarter</type>
                <stem default-y="-55">down</stem>
            </note>
        </measure>
        <measure width="284" number="5">
            <print new-system="yes"/>
            <note default-x="50">
                <pitch>
                    <step>G</step>
                    <octave>5</octave>
                </pitch>
                <duration>3</duration>
                <voice>1</voice>
                <type>eighth</type>
                <dot/>
                <stem default-y="-32.5">down</stem>
                <beam number="1">begin</beam>
            </note>
            <note default-x="126">
                <pitch>
                    <step>F</step>
                    <octave>5</octave>
                </pitch>
                <duration>1</duration>
                <voice>1</voice>
                <type>16th</type>
                <stem default-y="-35">down</stem>
                <beam number="1">end</beam>
                <beam number="2">backward hook</beam>
            </note>
            <note default-x="169">
                <pitch>
                    <step>D</step>
                    <octave>5</octave>
                </pitch>
                <duration>2</duration>
                <voice>1</voice>
                <type>eighth</type>
                <stem default-y="-53">down</stem>
                <beam number="1">begin</beam>
            </note>
            <note default-x="225">
                <pitch>
                    <step>B</step>
                    <octave>4</octave>
                </pitch>
                <duration>2</duration>
                <voice>1</voice>
                <type>eighth</type>
                <stem default-y="-55">down</stem>
                <beam number="1">end</beam>
            </note>
        </measure>
        <measure width="244" number="6">
            <note default-x="10">
                <pitch>
                    <step>G</step>
                    <octave>4</octave>
                </pitch>
                <duration>8</duration>
                <voice>1</voice>
                <type>half</type>
                <stem default-y="5.5">up</stem>
            </note>
        </measure>
        <measure width="251" number="7">
            <note default-x="10">
                <pitch>
                    <step>G</step>
                    <octave>4</octave>
                </pitch>
                <duration>1</duration>
                <voice>1</voice>
                <type>16th</type>
                <stem default-y="5">up</stem>
                <beam number="1">begin</beam>
                <beam number="2">begin</beam>
            </note>
            <note default-x="46">
                <pitch>
                    <step>G</step>
                    <octave>4</octave>
                </pitch>
                <duration>1</duration>
                <voice>1</voice>
                <type>16th</type>
                <stem default-y="5">up</stem>
                <beam number="1">continue</beam>
                <beam number="2">continue</beam>
            </note>
            <note default-x="82">
                <pitch>
                    <step>G</step>
                    <octave>4</octave>
                </pitch>
                <duration>1</duration>
                <voice>1</voice>
                <type>16th</type>
                <stem default-y="5">up</stem>
                <beam number="1">continue</beam>
                <beam number="2">continue</beam>
            </note>
            <note default-x="117">
                <pitch>
                    <step>G</step>
                    <octave>4</octave>
                </pitch>
                <duration>1</duration>
                <voice>1</voice>
                <type>16th</type>
                <stem default-y="5">up</stem>
                <beam number="1">end</beam>
                <beam number="2">end</beam>
            </note>
            <note default-x="153">
                <pitch>
                    <step>A</step>
                    <octave>4</octave>
                </pitch>
                <duration>2</duration>
                <voice>1</voice>
                <type>eighth</type>
                <stem default-y="13">up</stem>
                <beam number="1">begin</beam>
            </note>
            <note default-x="201">
                <pitch>
                    <step>B</step>
                    <octave>4</octave>
                </pitch>
                <duration>2</duration>
                <voice>1</voice>
                <type>eighth</type>
                <stem default-y="15">up</stem>
                <beam number="1">end</beam>
            </note>
        </measure>
        <measure width="244" number="8">
            <harmony font-family="Times New Roman" default-y="18">
                <root>
                    <root-step>C</root-step>
                </root>
                <kind halign="left" text="">major</kind>
            </harmony>
            <note default-x="10">
                <pitch>
                    <step>C</step>
                    <octave>5</octave>
                </pitch>
                <duration>2</duration>
                <voice>1</voice>
                <type>eighth</type>
                <stem default-y="-50">down</stem>
                <beam number="1">begin</beam>
            </note>
            <note default-x="68">
                <pitch>
                    <step>C</step>
                    <octave>5</octave>
                </pitch>
                <duration>2</duration>
                <voice>1</voice>
                <type>eighth</type>
                <stem default-y="-50">down</stem>
                <beam number="1">end</beam>
            </note>
            <note default-x="126">
                <pitch>
                    <step>C</step>
                    <octave>5</octave>
                </pitch>
                <duration>2</duration>
                <voice>1</voice>
                <type>eighth</type>
                <stem default-y="-50.5">down</stem>
            </note>
            <note default-x="185">
                <rest/>
                <duration>2</duration>
                <voice>1</voice>
                <type>eighth</type>
            </note>
        </measure>
        <measure width="305" number="9">
            <print new-system="yes"/>
            <barline location="left">
                <bar-style>heavy-light</bar-style>
                <repeat direction="forward"/>
            </barline>
            <harmony font-family="Times New Roman" default-y="10">
                <root>
                    <root-step>C</root-step>
                </root>
                <kind halign="left" text="">major</kind>
            </harmony>
            <note default-x="76">
                <pitch>
                    <step>G</step>
                    <octave>4</octave>
                </pitch>
                <duration>2</duration>
                <voice>1</voice>
                <type>eighth</type>
                <stem default-y="5">up</stem>
                <beam number="1">begin</beam>
            </note>
            <note default-x="127">
                <pitch>
                    <step>G</step>
                    <octave>4</octave>
                </pitch>
                <duration>1</duration>
                <voice>1</voice>
                <type>16th</type>
                <stem default-y="5">up</stem>
                <beam number="1">continue</beam>
                <beam number="2">begin</beam>
            </note>
            <note default-x="165">
                <pitch>
                    <step>G</step>
                    <octave>4</octave>
                </pitch>
                <duration>1</duration>
                <voice>1</voice>
                <type>16th</type>
                <stem default-y="5">up</stem>
                <beam number="1">end</beam>
                <beam number="2">end</beam>
            </note>
            <note default-x="203">
                <pitch>
                    <step>A</step>
                    <octave>4</octave>
                </pitch>
                <duration>2</duration>
                <voice>1</voice>
                <type>eighth</type>
                <stem default-y="10">up</stem>
                <beam number="1">begin</beam>
            </note>
            <note default-x="253">
                <pitch>
                    <step>A</step>
                    <octave>4</octave>
                </pitch>
                <duration>2</duration>
                <voice>1</voice>
                <type>eighth</type>
                <stem default-y="10">up</stem>
                <beam number="1">end</beam>
            </note>
        </measure>
        <measure width="239" number="10">
            <note default-x="10">
                <pitch>
                    <step>G</step>
                    <octave>4</octave>
                </pitch>
                <duration>1</duration>
                <voice>1</voice>
                <type>16th</type>
                <stem default-y="5">up</stem>
                <beam number="1">begin</beam>
                <beam number="2">begin</beam>
            </note>
            <note default-x="48">
                <pitch>
                    <step>G</step>
                    <octave>4</octave>
                </pitch>
                <duration>1</duration>
                <voice>1</voice>
                <type>16th</type>
                <stem default-y="5">up</stem>
                <beam number="1">continue</beam>
                <beam number="2">continue</beam>
            </note>
            <note default-x="87">
                <pitch>
                    <step>G</step>
                    <octave>4</octave>
                </pitch>
                <duration>1</duration>
                <voice>1</voice>
                <type>16th</type>
                <stem default-y="5">up</stem>
                <beam number="1">continue</beam>
                <beam number="2">continue</beam>
            </note>
            <note default-x="125">
                <pitch>
                    <step>G</step>
                    <octave>4</octave>
                </pitch>
                <duration>1</duration>
                <voice>1</voice>
                <type>16th</type>
                <stem default-y="5">up</stem>
                <beam number="1">end</beam>
                <beam number="2">end</beam>
            </note>
            <note default-x="164">
                <pitch>
                    <step>A</step>
                    <octave>4</octave>
                </pitch>
                <duration>4</duration>
                <voice>1</voice>
                <type>quarter</type>
                <stem default-y="11">up</stem>
            </note>
        </measure>
        <measure width="246" number="11">
            <note default-x="10">
                <pitch>
                    <step>G</step>
                    <octave>4</octave>
                </pitch>
                <duration>1</duration>
                <voice>1</voice>
                <type>16th</type>
                <stem default-y="5">up</stem>
                <beam number="1">begin</beam>
                <beam number="2">begin</beam>
            </note>
            <note default-x="45">
                <pitch>
                    <step>G</step>
                    <octave>4</octave>
                </pitch>
                <duration>1</duration>
                <voice>1</voice>
                <type>16th</type>
                <stem default-y="5">up</stem>
                <beam number="1">continue</beam>
                <beam number="2">continue</beam>
            </note>
            <note default-x="80">
                <pitch>
                    <step>G</step>
                    <octave>4</octave>
                </pitch>
                <duration>1</duration>
                <voice>1</voice>
                <type>16th</type>
                <stem default-y="5">up</stem>
                <beam number="1">continue</beam>
                <beam number="2">continue</beam>
            </note>
            <note default-x="115">
                <pitch>
                    <step>G</step>
                    <octave>4</octave>
                </pitch>
                <duration>1</duration>
                <voice>1</voice>
                <type>16th</type>
                <stem default-y="5">up</stem>
                <beam number="1">end</beam>
                <beam number="2">end</beam>
            </note>
            <harmony font-family="Times New Roman" default-y="10">
                <root>
                    <root-step>C</root-step>
                </root>
                <kind halign="left" text="dim">diminished</kind>
            </harmony>
            <note default-x="150">
                <pitch>
                    <step>A</step>
                    <octave>4</octave>
                </pitch>
                <duration>2</duration>
                <voice>1</voice>
                <type>eighth</type>
                <stem default-y="-60">down</stem>
                <beam number="1">begin</beam>
            </note>
            <note default-x="197">
                <pitch>
                    <step>C</step>
                    <octave>5</octave>
                </pitch>
                <duration>2</duration>
                <voice>1</voice>
                <type>eighth</type>
                <stem default-y="-57.5">down</stem>
                <beam number="1">end</beam>
            </note>
        </measure>
        <measure width="232" number="12">
            <harmony font-family="Times New Roman" default-y="10">
                <root>
                    <root-step>G</root-step>
                </root>
                <kind halign="left" text="7">dominant</kind>
            </harmony>
            <note default-x="10">
                <pitch>
                    <step>B</step>
                    <octave>4</octave>
                </pitch>
                <duration>2</duration>
                <voice>1</voice>
                <type>eighth</type>
                <stem default-y="-55">down</stem>
                <beam number="1">begin</beam>
            </note>
            <note default-x="66">
                <pitch>
                    <step>B</step>
                    <octave>4</octave>
                </pitch>
                <duration>2</duration>
                <voice>1</voice>
                <type>eighth</type>
                <stem default-y="-55">down</stem>
                <beam number="1">end</beam>
            </note>
            <note default-x="120">
                <pitch>
                    <step>B</step>
                    <octave>4</octave>
                </pitch>
                <duration>2</duration>
                <voice>1</voice>
                <type>eighth</type>
                <stem default-y="-55.5">down</stem>
            </note>
            <note default-x="175">
                <rest/>
                <duration>2</duration>
                <voice>1</voice>
                <type>eighth</type>
            </note>
        </measure>
        <measure width="273" number="13">
            <print new-system="yes"/>
            <note default-x="50">
                <pitch>
                    <step>G</step>
                    <octave>4</octave>
                </pitch>
                <duration>2</duration>
                <voice>1</voice>
                <type>eighth</type>
                <stem default-y="5">up</stem>
                <beam number="1">begin</beam>
            </note>
            <note default-x="99">
                <pitch>
                    <step>G</step>
                    <octave>4</octave>
                </pitch>
                <duration>1</duration>
                <voice>1</voice>
                <type>16th</type>
                <stem default-y="5">up</stem>
                <beam number="1">continue</beam>
                <beam number="2">begin</beam>
            </note>
            <note default-x="136">
                <pitch>
                    <step>G</step>
                    <octave>4</octave>
                </pitch>
                <duration>1</duration>
                <voice>1</voice>
                <type>16th</type>
                <stem default-y="5">up</stem>
                <beam number="1">end</beam>
                <beam number="2">end</beam>
            </note>
            <note default-x="172">
                <pitch>
                    <step>A</step>
                    <octave>4</octave>
                </pitch>
                <duration>2</duration>
                <voice>1</voice>
                <type>eighth</type>
                <stem default-y="10.5">up</stem>
                <beam number="1">begin</beam>
            </note>
            <note default-x="222">
                <pitch>
                    <step>A</step>
                    <octave>4</octave>
                </pitch>
                <duration>2</duration>
                <voice>1</voice>
                <type>eighth</type>
                <stem default-y="10.5">up</stem>
                <beam number="1">end</beam>
            </note>
        </measure>
        <measure width="233" number="14">
            <note default-x="10">
                <pitch>
                    <step>G</step>
                    <octave>4</octave>
                </pitch>
                <duration>1</duration>
                <voice>1</voice>
                <type>16th</type>
                <stem default-y="5">up</stem>
                <beam number="1">begin</beam>
                <beam number="2">begin</beam>
            </note>
            <note default-x="47">
                <pitch>
                    <step>G</step>
                    <octave>4</octave>
                </pitch>
                <duration>1</duration>
                <voice>1</voice>
                <type>16th</type>
                <stem default-y="5">up</stem>
                <beam number="1">continue</beam>
                <beam number="2">continue</beam>
            </note>
            <note default-x="85">
                <pitch>
                    <step>G</step>
                    <octave>4</octave>
                </pitch>
                <duration>1</duration>
                <voice>1</voice>
                <type>16th</type>
                <stem default-y="5">up</stem>
                <beam number="1">continue</beam>
                <beam number="2">continue</beam>
            </note>
            <note default-x="122">
                <pitch>
                    <step>G</step>
                    <octave>4</octave>
                </pitch>
                <duration>1</duration>
                <voice>1</voice>
                <type>16th</type>
                <stem default-y="5">up</stem>
                <beam number="1">end</beam>
                <beam number="2">end</beam>
            </note>
            <note default-x="160">
                <pitch>
                    <step>A</step>
                    <octave>4</octave>
                </pitch>
                <duration>4</duration>
                <voice>1</voice>
                <type>quarter</type>
                <stem default-y="11">up</stem>
            </note>
        </measure>
        <measure width="240" number="15">
            <note default-x="10">
                <pitch>
                    <step>G</step>
                    <octave>4</octave>
                </pitch>
                <duration>1</duration>
                <voice>1</voice>
                <type>16th</type>
                <stem default-y="5">up</stem>
                <beam number="1">begin</beam>
                <beam number="2">begin</beam>
            </note>
            <note default-x="44">
                <pitch>
                    <step>G</step>
                    <octave>4</octave>
                </pitch>
                <duration>1</duration>
                <voice>1</voice>
                <type>16th</type>
                <stem default-y="5">up</stem>
                <beam number="1">continue</beam>
                <beam number="2">continue</beam>
            </note>
            <note default-x="78">
                <pitch>
                    <step>G</step>
                    <octave>4</octave>
                </pitch>
                <duration>1</duration>
                <voice>1</voice>
                <type>16th</type>
                <stem default-y="5">up</stem>
                <beam number="1">continue</beam>
                <beam number="2">continue</beam>
            </note>
            <note default-x="113">
                <pitch>
                    <step>G</step>
                    <octave>4</octave>
                </pitch>
                <duration>1</duration>
                <voice>1</voice>
                <type>16th</type>
                <stem default-y="5">up</stem>
                <beam number="1">end</beam>
                <beam number="2">end</beam>
            </note>
            <note default-x="147">
                <pitch>
                    <step>A</step>
                    <octave>4</octave>
                </pitch>
                <duration>2</duration>
                <voice>1</voice>
                <type>eighth</type>
                <stem default-y="13">up</stem>
                <beam number="1">begin</beam>
            </note>
            <note default-x="193">
                <pitch>
                    <step>B</step>
                    <octave>4</octave>
                </pitch>
                <duration>2</duration>
                <voice>1</voice>
                <type>eighth</type>
                <stem default-y="15.5">up</stem>
                <beam number="1">end</beam>
            </note>
        </measure>
        <measure width="277" number="16">
            <harmony font-family="Times New Roman" default-y="20">
                <root>
                    <root-step>C</root-step>
                </root>
                <kind halign="left" text="">major</kind>
            </harmony>
            <note default-x="10">
                <pitch>
                    <step>C</step>
                    <octave>5</octave>
                </pitch>
                <duration>2</duration>
                <voice>1</voice>
                <type>eighth</type>
                <stem default-y="-50">down</stem>
                <beam number="1">begin</beam>
            </note>
            <note default-x="65">
                <pitch>
                    <step>C</step>
                    <octave>5</octave>
                </pitch>
                <duration>2</duration>
                <voice>1</voice>
                <type>eighth</type>
                <stem default-y="-50">down</stem>
                <beam number="1">end</beam>
            </note>
            <note default-x="121">
                <pitch>
                    <step>C</step>
                    <octave>5</octave>
                </pitch>
                <duration>2</duration>
                <voice>1</voice>
                <type>eighth</type>
                <stem default-y="-50.5">down</stem>
            </note>
            <note default-x="176">
                <rest/>
                <duration>2</duration>
                <voice>1</voice>
                <type>eighth</type>
            </note>
            <direction placement="above">
                <direction-type>
                    <segno default-y="7" default-x="230"/>
                </direction-type>
                <sound dacapo="yes"/>
            </direction>
            <barline location="right">
                <bar-style>light-heavy</bar-style>
                <repeat direction="backward"/>
            </barline>
        </measure>
        <measure width="311" number="17">
            <print new-system="yes"/>
            <barline location="left">
                <bar-style>heavy-light</bar-style>
                <repeat direction="forward"/>
            </barline>
            <attributes>
                <key>
                    <fifths>-1</fifths>
                    <mode>major</mode>
                </key>
            </attributes>
            <direction placement="above">
                <direction-type>
                    <words font-weight="bold" font-style="italic" font-size="11.6" font-family="Times New Roman" default-y="32" default-x="45">TRIO</words>
                </direction-type>
            </direction>
            <harmony font-family="Times New Roman" default-y="16">
                <root>
                    <root-step>F</root-step>
                </root>
                <kind halign="left" text="">major</kind>
            </harmony>
            <note default-x="84">
                <pitch>
                    <step>C</step>
                    <octave>5</octave>
                </pitch>
                <duration>6</duration>
                <voice>1</voice>
                <type>quarter</type>
                <dot/>
                <stem default-y="-51">down</stem>
            </note>
            <note default-x="243">
                <pitch>
                    <step>B</step>
                    <alter>-1</alter>
                    <octave>4</octave>
                </pitch>
                <duration>2</duration>
                <voice>1</voice>
                <type>eighth</type>
                <stem default-y="-56">down</stem>
            </note>
        </measure>
        <measure width="237" number="18">
            <note default-x="10">
                <pitch>
                    <step>A</step>
                    <octave>4</octave>
                </pitch>
                <duration>6</duration>
                <voice>1</voice>
                <type>quarter</type>
                <dot/>
                <stem default-y="10.5">up</stem>
            </note>
            <note default-x="169">
                <pitch>
                    <step>C</step>
                    <octave>5</octave>
                </pitch>
                <duration>2</duration>
                <voice>1</voice>
                <type>eighth</type>
                <stem default-y="-51">down</stem>
            </note>
        </measure>
        <measure width="237" number="19">
            <note default-x="10">
                <pitch>
                    <step>C</step>
                    <octave>5</octave>
                </pitch>
                <duration>2</duration>
                <voice>1</voice>
                <type>eighth</type>
                <stem default-y="-50">down</stem>
                <beam number="1">begin</beam>
            </note>
            <note default-x="65">
                <pitch>
                    <step>C</step>
                    <octave>5</octave>
                </pitch>
                <duration>2</duration>
                <voice>1</voice>
                <type>eighth</type>
                <stem default-y="-50">down</stem>
                <beam number="1">end</beam>
            </note>
            <note default-x="121">
                <pitch>
                    <step>D</step>
                    <octave>5</octave>
                </pitch>
                <duration>3</duration>
                <voice>1</voice>
                <type>eighth</type>
                <dot/>
                <stem default-y="-48">down</stem>
                <beam number="1">begin</beam>
            </note>
            <note default-x="195">
                <pitch>
                    <step>C</step>
                    <octave>5</octave>
                </pitch>
                <duration>1</duration>
                <voice>1</voice>
                <type>16th</type>
                <stem default-y="-50">down</stem>
                <beam number="1">end</beam>
                <beam number="2">backward hook</beam>
            </note>
        </measure>
        <measure width="237" number="20">
            <harmony font-family="Times New Roman" default-y="16">
                <root>
                    <root-step>C</root-step>
                </root>
                <kind halign="left" text="7">dominant</kind>
            </harmony>
            <note default-x="10">
                <pitch>
                    <step>C</step>
                    <octave>5</octave>
                </pitch>
                <duration>2</duration>
                <voice>1</voice>
                <type>eighth</type>
                <stem default-y="-53">down</stem>
                <beam number="1">begin</beam>
            </note>
            <note default-x="67">
                <pitch>
                    <step>B</step>
                    <alter>-1</alter>
                    <octave>4</octave>
                </pitch>
                <duration>2</duration>
                <voice>1</voice>
                <type>eighth</type>
                <stem default-y="-55">down</stem>
                <beam number="1">end</beam>
            </note>
            <note default-x="123">
                <pitch>
                    <step>B</step>
                    <alter>-1</alter>
                    <octave>4</octave>
                </pitch>
                <duration>2</duration>
                <voice>1</voice>
                <type>eighth</type>
                <stem default-y="-56">down</stem>
            </note>
            <note default-x="179">
                <rest/>
                <duration>2</duration>
                <voice>1</voice>
                <type>eighth</type>
            </note>
        </measure>
        <measure width="296" number="21">
            <print new-system="yes"/>
            <harmony font-family="Times New Roman" default-y="16">
                <root>
                    <root-step>G</root-step>
                </root>
                <kind halign="left" text="m">minor</kind>
            </harmony>
            <note default-x="64">
                <pitch>
                    <step>D</step>
                    <octave>5</octave>
                </pitch>
                <duration>6</duration>
                <voice>1</voice>
                <type>quarter</type>
                <dot/>
                <stem default-y="-45.5">down</stem>
            </note>
            <note default-x="226">
                <pitch>
                    <step>C</step>
                    <octave>5</octave>
                </pitch>
                <duration>2</duration>
                <voice>1</voice>
                <type>eighth</type>
                <stem default-y="-50.5">down</stem>
            </note>
        </measure>
        <measure width="242" number="22">
            <note default-x="11">
                <pitch>
                    <step>B</step>
                    <alter>-1</alter>
                    <octave>4</octave>
                </pitch>
                <duration>6</duration>
                <voice>1</voice>
                <type>quarter</type>
                <dot/>
                <stem default-y="-56">down</stem>
            </note>
            <note default-x="172">
                <pitch>
                    <step>D</step>
                    <octave>5</octave>
                </pitch>
                <duration>2</duration>
                <voice>1</voice>
                <type>eighth</type>
                <stem default-y="-45.5">down</stem>
            </note>
        </measure>
        <measure width="242" number="23">
            <harmony font-family="Times New Roman" default-y="16">
                <root>
                    <root-step>C</root-step>
                </root>
                <kind halign="left" text="7">dominant</kind>
            </harmony>
            <note default-x="10">
                <pitch>
                    <step>D</step>
                    <octave>5</octave>
                </pitch>
                <duration>2</duration>
                <voice>1</voice>
                <type>eighth</type>
                <stem default-y="-45">down</stem>
                <beam number="1">begin</beam>
            </note>
            <note default-x="66">
                <pitch>
                    <step>D</step>
                    <octave>5</octave>
                </pitch>
                <duration>2</duration>
                <voice>1</voice>
                <type>eighth</type>
                <stem default-y="-45">down</stem>
                <beam number="1">end</beam>
            </note>
            <note default-x="123">
                <pitch>
                    <step>E</step>
                    <octave>5</octave>
                </pitch>
                <duration>3</duration>
                <voice>1</voice>
                <type>eighth</type>
                <dot/>
                <stem default-y="-42.5">down</stem>
                <beam number="1">begin</beam>
            </note>
            <note default-x="198">
                <pitch>
                    <step>D</step>
                    <octave>5</octave>
                </pitch>
                <duration>1</duration>
                <voice>1</voice>
                <type>16th</type>
                <stem default-y="-45">down</stem>
                <beam number="1">end</beam>
                <beam number="2">backward hook</beam>
            </note>
        </measure>
        <measure width="243" number="24">
            <harmony font-family="Times New Roman" default-y="16">
                <root>
                    <root-step>F</root-step>
                </root>
                <kind halign="left" text="">major</kind>
            </harmony>
            <note default-x="10">
                <pitch>
                    <step>D</step>
                    <octave>5</octave>
                </pitch>
                <duration>2</duration>
                <voice>1</voice>
                <type>eighth</type>
                <stem default-y="-47.5">down</stem>
                <beam number="1">begin</beam>
            </note>
            <note default-x="68">
                <pitch>
                    <step>C</step>
                    <octave>5</octave>
                </pitch>
                <duration>2</duration>
                <voice>1</voice>
                <type>eighth</type>
                <stem default-y="-50">down</stem>
                <beam number="1">end</beam>
            </note>
            <note default-x="126">
                <pitch>
                    <step>C</step>
                    <octave>5</octave>
                </pitch>
                <duration>2</duration>
                <voice>1</voice>
                <type>eighth</type>
                <stem default-y="-50.5">down</stem>
            </note>
            <note default-x="183">
                <rest/>
                <duration>2</duration>
                <voice>1</voice>
                <type>eighth</type>
            </note>
        </measure>
        <measure width="296" number="25">
            <print new-system="yes"/>
            <note default-x="64">
                <pitch>
                    <step>C</step>
                    <octave>5</octave>
                </pitch>
                <duration>6</duration>
                <voice>1</voice>
                <type>quarter</type>
                <dot/>
                <stem default-y="-50.5">down</stem>
            </note>
            <note default-x="226">
                <pitch>
                    <step>B</step>
                    <alter>-1</alter>
                    <octave>4</octave>
                </pitch>
                <duration>2</duration>
                <voice>1</voice>
                <type>eighth</type>
                <stem default-y="-55.5">down</stem>
            </note>
        </measure>
        <measure width="242" number="26">
            <note default-x="10">
                <pitch>
                    <step>A</step>
                    <octave>4</octave>
                </pitch>
                <duration>6</duration>
                <voice>1</voice>
                <type>quarter</type>
                <dot/>
                <stem default-y="11">up</stem>
            </note>
            <note default-x="172">
                <pitch>
                    <step>A</step>
                    <octave>4</octave>
                </pitch>
                <duration>2</duration>
                <voice>1</voice>
                <type>eighth</type>
                <stem default-y="11">up</stem>
            </note>
        </measure>
        <measure width="242" number="27">
            <harmony font-family="Times New Roman" default-y="16">
                <root>
                    <root-step>F</root-step>
                </root>
                <kind halign="left" text="7">dominant</kind>
            </harmony>
            <note default-x="10">
                <pitch>
                    <step>A</step>
                    <octave>4</octave>
                </pitch>
                <duration>2</duration>
                <voice>1</voice>
                <type>eighth</type>
                <stem default-y="10">up</stem>
                <beam number="1">begin</beam>
            </note>
            <note default-x="68">
                <pitch>
                    <step>A</step>
                    <octave>4</octave>
                </pitch>
                <duration>2</duration>
                <voice>1</voice>
                <type>eighth</type>
                <stem default-y="10">up</stem>
                <beam number="1">end</beam>
            </note>
            <note default-x="125">
                <pitch>
                    <step>B</step>
                    <alter>-1</alter>
                    <octave>4</octave>
                </pitch>
                <duration>2</duration>
                <voice>1</voice>
                <type>eighth</type>
                <stem default-y="-55">down</stem>
                <beam number="1">begin</beam>
            </note>
            <note default-x="183">
                <pitch>
                    <step>C</step>
                    <octave>5</octave>
                </pitch>
                <duration>2</duration>
                <voice>1</voice>
                <type>eighth</type>
                <stem default-y="-52.5">down</stem>
                <beam number="1">end</beam>
            </note>
        </measure>
        <measure width="243" number="28">
            <harmony font-family="Times New Roman" default-y="16">
                <root>
                    <root-step>B</root-step>
                    <root-alter>-1</root-alter>
                </root>
                <kind halign="left" text="">major</kind>
            </harmony>
            <note default-x="11">
                <pitch>
                    <step>D</step>
                    <octave>5</octave>
                </pitch>
                <duration>8</duration>
                <voice>1</voice>
                <type>half</type>
                <stem default-y="-45.5">down</stem>
            </note>
        </measure>
        <measure width="297" number="29">
            <print new-system="yes"/>
            <note default-x="64">
                <pitch>
                    <step>D</step>
                    <octave>5</octave>
                </pitch>
                <duration>1</duration>
                <voice>1</voice>
                <type>16th</type>
                <stem default-y="-45">down</stem>
                <beam number="1">begin</beam>
                <beam number="2">begin</beam>
            </note>
            <note default-x="99">
                <pitch>
                    <step>D</step>
                    <octave>5</octave>
                </pitch>
                <duration>1</duration>
                <voice>1</voice>
                <type>16th</type>
                <stem default-y="-45">down</stem>
                <beam number="1">continue</beam>
                <beam number="2">continue</beam>
            </note>
            <note default-x="134">
                <pitch>
                    <step>D</step>
                    <octave>5</octave>
                </pitch>
                <duration>1</duration>
                <voice>1</voice>
                <type>16th</type>
                <stem default-y="-45">down</stem>
                <beam number="1">continue</beam>
                <beam number="2">continue</beam>
            </note>
            <note default-x="168">
                <pitch>
                    <step>D</step>
                    <octave>5</octave>
                </pitch>
                <duration>1</duration>
                <voice>1</voice>
                <type>16th</type>
                <stem default-y="-45">down</stem>
                <beam number="1">end</beam>
                <beam number="2">end</beam>
            </note>
            <note default-x="203">
                <pitch>
                    <step>E</step>
                    <octave>5</octave>
                </pitch>
                <duration>2</duration>
                <voice>1</voice>
                <type>eighth</type>
                <stem default-y="-43">down</stem>
                <beam number="1">begin</beam>
            </note>
            <note default-x="250">
                <pitch>
                    <step>D</step>
                    <octave>5</octave>
                </pitch>
                <duration>2</duration>
                <voice>1</voice>
                <type>eighth</type>
                <stem default-y="-45">down</stem>
                <beam number="1">end</beam>
            </note>
        </measure>
        <measure width="244" number="30">
            <harmony font-family="Times New Roman" default-y="16">
                <root>
                    <root-step>F</root-step>
                </root>
                <kind halign="left" text="">major</kind>
            </harmony>
            <note default-x="10">
                <pitch>
                    <step>C</step>
                    <octave>5</octave>
                </pitch>
                <duration>1</duration>
                <voice>1</voice>
                <type>16th</type>
                <stem default-y="-50">down</stem>
                <beam number="1">begin</beam>
                <beam number="2">begin</beam>
            </note>
            <note default-x="45">
                <pitch>
                    <step>C</step>
                    <octave>5</octave>
                </pitch>
                <duration>1</duration>
                <voice>1</voice>
                <type>16th</type>
                <stem default-y="-50">down</stem>
                <beam number="1">continue</beam>
                <beam number="2">continue</beam>
            </note>
            <note default-x="80">
                <pitch>
                    <step>C</step>
                    <octave>5</octave>
                </pitch>
                <duration>1</duration>
                <voice>1</voice>
                <type>16th</type>
                <stem default-y="-50">down</stem>
                <beam number="1">continue</beam>
                <beam number="2">continue</beam>
            </note>
            <note default-x="114">
                <pitch>
                    <step>C</step>
                    <octave>5</octave>
                </pitch>
                <duration>1</duration>
                <voice>1</voice>
                <type>16th</type>
                <stem default-y="-50">down</stem>
                <beam number="1">end</beam>
                <beam number="2">end</beam>
            </note>
            <note default-x="149">
                <pitch>
                    <step>D</step>
                    <octave>5</octave>
                </pitch>
                <duration>2</duration>
                <voice>1</voice>
                <type>eighth</type>
                <stem default-y="-48">down</stem>
                <beam number="1">begin</beam>
            </note>
            <note default-x="196">
                <pitch>
                    <step>C</step>
                    <octave>5</octave>
                </pitch>
                <duration>2</duration>
                <voice>1</voice>
                <type>eighth</type>
                <stem default-y="-50">down</stem>
                <beam number="1">end</beam>
            </note>
        </measure>
        <measure width="244" number="31">
            <harmony font-family="Times New Roman" default-y="16">
                <root>
                    <root-step>C</root-step>
                </root>
                <kind halign="left" text="7">dominant</kind>
            </harmony>
            <note default-x="10">
                <pitch>
                    <step>B</step>
                    <alter>-1</alter>
                    <octave>4</octave>
                </pitch>
                <duration>1</duration>
                <voice>1</voice>
                <type>16th</type>
                <stem default-y="-55">down</stem>
                <beam number="1">begin</beam>
                <beam number="2">begin</beam>
            </note>
            <note default-x="45">
                <pitch>
                    <step>B</step>
                    <alter>-1</alter>
                    <octave>4</octave>
                </pitch>
                <duration>1</duration>
                <voice>1</voice>
                <type>16th</type>
                <stem default-y="-55">down</stem>
                <beam number="1">continue</beam>
                <beam number="2">continue</beam>
            </note>
            <note default-x="80">
                <pitch>
                    <step>B</step>
                    <alter>-1</alter>
                    <octave>4</octave>
                </pitch>
                <duration>1</duration>
                <voice>1</voice>
                <type>16th</type>
                <stem default-y="-55">down</stem>
                <beam number="1">continue</beam>
                <beam number="2">continue</beam>
            </note>
            <note default-x="115">
                <pitch>
                    <step>B</step>
                    <alter>-1</alter>
                    <octave>4</octave>
                </pitch>
                <duration>1</duration>
                <voice>1</voice>
                <type>16th</type>
                <stem default-y="-55">down</stem>
                <beam number="1">end</beam>
                <beam number="2">end</beam>
            </note>
            <note default-x="149">
                <pitch>
                    <step>C</step>
                    <octave>5</octave>
                </pitch>
                <duration>2</duration>
                <voice>1</voice>
                <type>eighth</type>
                <stem default-y="-52">down</stem>
                <beam number="1">begin</beam>
            </note>
            <note default-x="196">
                <pitch>
                    <step>B</step>
                    <alter>-1</alter>
                    <octave>4</octave>
                </pitch>
                <duration>2</duration>
                <voice>1</voice>
                <type>eighth</type>
                <stem default-y="-55">down</stem>
                <beam number="1">end</beam>
            </note>
        </measure>
        <measure width="238" number="32">
            <harmony font-family="Times New Roman" default-y="16">
                <root>
                    <root-step>F</root-step>
                </root>
                <kind halign="left" text="">major</kind>
            </harmony>
            <note default-x="10">
                <pitch>
                    <step>A</step>
                    <octave>4</octave>
                </pitch>
                <duration>2</duration>
                <voice>1</voice>
                <type>eighth</type>
                <stem default-y="12.5">up</stem>
                <beam number="1">begin</beam>
            </note>
            <note default-x="67">
                <pitch>
                    <step>B</step>
                    <alter>-1</alter>
                    <octave>4</octave>
                </pitch>
                <duration>2</duration>
                <voice>1</voice>
                <type>eighth</type>
                <stem default-y="15">up</stem>
                <beam number="1">end</beam>
            </note>
            <note default-x="123">
                <pitch>
                    <step>C</step>
                    <octave>5</octave>
                </pitch>
                <duration>2</duration>
                <voice>1</voice>
                <type>eighth</type>
                <stem default-y="-51">down</stem>
            </note>
            <harmony font-family="Times New Roman" default-y="16">
                <root>
                    <root-step>F</root-step>
                </root>
                <kind halign="left" text="7">dominant</kind>
            </harmony>
            <note default-x="180">
                <rest/>
                <duration>2</duration>
                <voice>1</voice>
                <type>eighth</type>
            </note>
        </measure>
        <measure width="293" number="33">
            <print new-system="yes"/>
            <harmony font-family="Times New Roman" default-y="16">
                <root>
                    <root-step>B</root-step>
                    <root-alter>-1</root-alter>
                </root>
                <kind halign="left" text="">major</kind>
            </harmony>
            <note default-x="64">
                <pitch>
                    <step>D</step>
                    <octave>5</octave>
                </pitch>
                <duration>1</duration>
                <voice>1</voice>
                <type>16th</type>
                <stem default-y="-45">down</stem>
                <beam number="1">begin</beam>
                <beam number="2">begin</beam>
            </note>
            <note default-x="98">
                <pitch>
                    <step>D</step>
                    <octave>5</octave>
                </pitch>
                <duration>1</duration>
                <voice>1</voice>
                <type>16th</type>
                <stem default-y="-45">down</stem>
                <beam number="1">continue</beam>
                <beam number="2">continue</beam>
            </note>
            <note default-x="132">
                <pitch>
                    <step>D</step>
                    <octave>5</octave>
                </pitch>
                <duration>1</duration>
                <voice>1</voice>
                <type>16th</type>
                <stem default-y="-45">down</stem>
                <beam number="1">continue</beam>
                <beam number="2">continue</beam>
            </note>
            <note default-x="166">
                <pitch>
                    <step>D</step>
                    <octave>5</octave>
                </pitch>
                <duration>1</duration>
                <voice>1</voice>
                <type>16th</type>
                <stem default-y="-45">down</stem>
                <beam number="1">end</beam>
                <beam number="2">end</beam>
            </note>
            <note default-x="201">
                <pitch>
                    <step>E</step>
                    <octave>5</octave>
                </pitch>
                <duration>2</duration>
                <voice>1</voice>
                <type>eighth</type>
                <stem default-y="-42.5">down</stem>
                <beam number="1">begin</beam>
            </note>
            <note default-x="246">
                <pitch>
                    <step>D</step>
                    <octave>5</octave>
                </pitch>
                <duration>2</duration>
                <voice>1</voice>
                <type>eighth</type>
                <stem default-y="-45">down</stem>
                <beam number="1">end</beam>
            </note>
        </measure>
        <measure width="239" number="34">
            <harmony font-family="Times New Roman" default-y="16">
                <root>
                    <root-step>F</root-step>
                </root>
                <kind halign="left" text="">major</kind>
            </harmony>
            <note default-x="10">
                <pitch>
                    <step>C</step>
                    <octave>5</octave>
                </pitch>
                <duration>1</duration>
                <voice>1</voice>
                <type>16th</type>
                <stem default-y="-50">down</stem>
                <beam number="1">begin</beam>
                <beam number="2">begin</beam>
            </note>
            <note default-x="44">
                <pitch>
                    <step>C</step>
                    <octave>5</octave>
                </pitch>
                <duration>1</duration>
                <voice>1</voice>
                <type>16th</type>
                <stem default-y="-50">down</stem>
                <beam number="1">continue</beam>
                <beam number="2">continue</beam>
            </note>
            <note default-x="78">
                <pitch>
                    <step>C</step>
                    <octave>5</octave>
                </pitch>
                <duration>1</duration>
                <voice>1</voice>
                <type>16th</type>
                <stem default-y="-50">down</stem>
                <beam number="1">continue</beam>
                <beam number="2">continue</beam>
            </note>
            <note default-x="112">
                <pitch>
                    <step>C</step>
                    <octave>5</octave>
                </pitch>
                <duration>1</duration>
                <voice>1</voice>
                <type>16th</type>
                <stem default-y="-50">down</stem>
                <beam number="1">end</beam>
                <beam number="2">end</beam>
            </note>
            <note default-x="147">
                <pitch>
                    <step>D</step>
                    <octave>5</octave>
                </pitch>
                <duration>2</duration>
                <voice>1</voice>
                <type>eighth</type>
                <stem default-y="-47.5">down</stem>
                <beam number="1">begin</beam>
            </note>
            <note default-x="192">
                <pitch>
                    <step>C</step>
                    <octave>5</octave>
                </pitch>
                <duration>2</duration>
                <voice>1</voice>
                <type>eighth</type>
                <stem default-y="-50">down</stem>
                <beam number="1">end</beam>
            </note>
        </measure>
        <measure width="239" number="35">
            <harmony font-family="Times New Roman" default-y="16">
                <root>
                    <root-step>C</root-step>
                </root>
                <kind halign="left" text="7">dominant</kind>
            </harmony>
            <note default-x="10">
                <pitch>
                    <step>B</step>
                    <alter>-1</alter>
                    <octave>4</octave>
                </pitch>
                <duration>1</duration>
                <voice>1</voice>
                <type>16th</type>
                <stem default-y="-55">down</stem>
                <beam number="1">begin</beam>
                <beam number="2">begin</beam>
            </note>
            <note default-x="44">
                <pitch>
                    <step>B</step>
                    <alter>-1</alter>
                    <octave>4</octave>
                </pitch>
                <duration>1</duration>
                <voice>1</voice>
                <type>16th</type>
                <stem default-y="-55">down</stem>
                <beam number="1">continue</beam>
                <beam number="2">continue</beam>
            </note>
            <note default-x="78">
                <pitch>
                    <step>B</step>
                    <alter>-1</alter>
                    <octave>4</octave>
                </pitch>
                <duration>1</duration>
                <voice>1</voice>
                <type>16th</type>
                <stem default-y="-55">down</stem>
                <beam number="1">continue</beam>
                <beam number="2">continue</beam>
            </note>
            <note default-x="112">
                <pitch>
                    <step>B</step>
                    <alter>-1</alter>
                    <octave>4</octave>
                </pitch>
                <duration>1</duration>
                <voice>1</voice>
                <type>16th</type>
                <stem default-y="-55">down</stem>
                <beam number="1">end</beam>
                <beam number="2">end</beam>
            </note>
            <note default-x="147">
                <pitch>
                    <step>A</step>
                    <octave>4</octave>
                </pitch>
                <duration>2</duration>
                <voice>1</voice>
                <type>eighth</type>
                <stem default-y="10">up</stem>
                <beam number="1">begin</beam>
            </note>
            <note default-x="192">
                <pitch>
                    <step>G</step>
                    <octave>4</octave>
                </pitch>
                <duration>2</duration>
                <voice>1</voice>
                <type>eighth</type>
                <stem default-y="7.5">up</stem>
                <beam number="1">end</beam>
            </note>
        </measure>
        <measure width="251" number="36">
            <harmony font-family="Times New Roman" default-y="16">
                <root>
                    <root-step>F</root-step>
                </root>
                <kind halign="left" text="">major</kind>
            </harmony>
            <note default-x="10">
                <pitch>
                    <step>F</step>
                    <octave>4</octave>
                </pitch>
                <duration>2</duration>
                <voice>1</voice>
                <type>eighth</type>
                <stem default-y="0">up</stem>
                <beam number="1">begin</beam>
            </note>
            <note default-x="65">
                <pitch>
                    <step>F</step>
                    <octave>4</octave>
                </pitch>
                <duration>2</duration>
                <voice>1</voice>
                <type>eighth</type>
                <stem default-y="0">up</stem>
                <beam number="1">end</beam>
            </note>
            <note default-x="120">
                <pitch>
                    <step>F</step>
                    <octave>4</octave>
                </pitch>
                <duration>2</duration>
                <voice>1</voice>
                <type>eighth</type>
                <stem default-y="0.5">up</stem>
            </note>
            <note default-x="176">
                <rest/>
                <duration>2</duration>
                <voice>1</voice>
                <type>eighth</type>
            </note>
            <direction placement="above">
                <direction-type>
                    <segno default-y="9" default-x="228"/>
                </direction-type>
                <sound dacapo="yes"/>
            </direction>
            <barline location="right">
                <bar-style>light-heavy</bar-style>
                <repeat direction="backward"/>
            </barline>
        </measure>
    </part>
</score-partwise>
