<?xml version="1.0" encoding="UTF-8"?>
<!DOCTYPE score-partwise PUBLIC "-//Recordare//DTD MusicXML 2.0 Partwise//EN" "http://www.musicxml.org/dtds/partwise.dtd">
<score-partwise version="2.0">
    <work>
        <work-number></work-number>
        <work-title></work-title>
    </work>
    <movement-number></movement-number>
    <movement-title>Hétre ma várom a Nemzetinél</movement-title>
    <identification>
        <creator type="composer">Lajtai Lajos</creator>
        <creator type="poet">Békefi István</creator>
        <rights>Public Domain</rights>
        <encoding>
            <software>MuseScore 0.9.6.2</software>
            <encoding-date>2010-10-04</encoding-date>
            <software>ProxyMusic 2.0 c</software>
        </encoding>
        <source>http://wikifonia.org/node/7685/revisions/10562/view</source>
    </identification>
    <defaults>
        <scaling>
            <millimeters>7.056</millimeters>
            <tenths>40</tenths>
        </scaling>
        <page-layout>
            <page-height>1683.67</page-height>
            <page-width>1190.48</page-width>
            <page-margins type="both">
                <left-margin>56.6893</left-margin>
                <right-margin>56.6893</right-margin>
                <top-margin>56.6893</top-margin>
                <bottom-margin>113.379</bottom-margin>
            </page-margins>
        </page-layout>
    </defaults>
    <part-list>
        <score-part id="P1">
            <part-name></part-name>
            <score-instrument id="P1-I3">
                <instrument-name></instrument-name>
            </score-instrument>
            <midi-instrument id="P1-I3">
                <midi-channel>1</midi-channel>
                <midi-program>53</midi-program>
            </midi-instrument>
        </score-part>
    </part-list>
    <part id="P1">
        <measure width="265.77" number="1">
            <print>
                <system-layout>
                    <system-margins>
                        <left-margin>2.50</left-margin>
                        <right-margin>0.00</right-margin>
                    </system-margins>
                    <top-system-distance>70.00</top-system-distance>
                </system-layout>
            </print>
            <attributes>
                <divisions>2</divisions>
                <key>
                    <fifths>-3</fifths>
                    <mode>major</mode>
                </key>
                <time>
                    <beats>2</beats>
                    <beat-type>4</beat-type>
                </time>
                <clef>
                    <sign>G</sign>
                    <line>2</line>
                </clef>
            </attributes>
            <note>
                <rest/>
                <duration>1</duration>
                <voice>1</voice>
                <type>eighth</type>
            </note>
            <harmony print-frame="no">
                <root>
                    <root-step>C</root-step>
                </root>
                <kind text="m">minor</kind>
            </harmony>
            <note default-y="-50.00" default-x="142.69">
                <pitch>
                    <step>C</step>
                    <octave>4</octave>
                </pitch>
                <duration>1</duration>
                <voice>1</voice>
                <type>eighth</type>
                <stem>up</stem>
                <lyric number="1">
                    <syllabic>begin</syllabic>
                    <text>Min</text>
                </lyric>
                <lyric number="2">
                    <syllabic>single</syllabic>
                    <text>S a</text>
                </lyric>
            </note>
            <note default-y="-45.00" default-x="185.90">
                <pitch>
                    <step>D</step>
                    <octave>4</octave>
                </pitch>
                <duration>1</duration>
                <voice>1</voice>
                <type>eighth</type>
                <stem>up</stem>
                <beam number="1">begin</beam>
                <lyric number="1">
                    <syllabic>end</syllabic>
                    <text>dig</text>
                </lyric>
                <lyric number="2">
                    <syllabic>single</syllabic>
                    <text>nő</text>
                </lyric>
            </note>
            <note default-y="-40.00" default-x="225.03">
                <pitch>
                    <step>E</step>
                    <alter>-1</alter>
                    <octave>4</octave>
                </pitch>
                <duration>1</duration>
                <voice>1</voice>
                <type>eighth</type>
                <stem>up</stem>
                <beam number="1">end</beam>
                <lyric number="1">
                    <syllabic>single</syllabic>
                    <text>a</text>
                </lyric>
                <lyric number="2">
                    <syllabic>begin</syllabic>
                    <text>hal</text>
                </lyric>
            </note>
        </measure>
        <measure width="166.77" number="2">
            <note default-y="-45.00" default-x="27.97">
                <pitch>
                    <step>D</step>
                    <octave>4</octave>
                </pitch>
                <duration>1</duration>
                <voice>1</voice>
                <type>eighth</type>
                <stem>up</stem>
                <beam number="1">begin</beam>
                <lyric number="1">
                    <syllabic>begin</syllabic>
                    <text>Nem</text>
                </lyric>
                <lyric number="2">
                    <syllabic>end</syllabic>
                    <text>kan</text>
                </lyric>
            </note>
            <note default-y="-50.00" default-x="67.60">
                <pitch>
                    <step>C</step>
                    <octave>4</octave>
                </pitch>
                <duration>1</duration>
                <voice>1</voice>
                <type>eighth</type>
                <stem>up</stem>
                <beam number="1">end</beam>
                <lyric number="1">
                    <syllabic>middle</syllabic>
                    <text>ze</text>
                </lyric>
                <lyric number="2">
                    <syllabic>begin</syllabic>
                    <text>o</text>
                </lyric>
            </note>
            <note default-y="-65.00" default-x="100.12">
                <pitch>
                    <step>G</step>
                    <octave>3</octave>
                </pitch>
                <duration>1</duration>
                <voice>1</voice>
                <type>eighth</type>
                <stem>up</stem>
                <beam number="1">begin</beam>
                <lyric number="1">
                    <syllabic>end</syllabic>
                    <text>ti</text>
                </lyric>
                <lyric number="2">
                    <syllabic>middle</syllabic>
                    <text>da</text>
                </lyric>
            </note>
            <note default-y="-40.00" default-x="132.65">
                <pitch>
                    <step>E</step>
                    <alter>-1</alter>
                    <octave>4</octave>
                </pitch>
                <duration>1</duration>
                <voice>1</voice>
                <type>eighth</type>
                <stem>up</stem>
                <beam number="1">end</beam>
                <lyric number="1">
                    <syllabic>begin</syllabic>
                    <text>e</text>
                </lyric>
                <lyric number="2">
                    <syllabic>middle</syllabic>
                    <text>o</text>
                </lyric>
            </note>
        </measure>
        <measure width="73.94" number="3">
            <harmony print-frame="no">
                <root>
                    <root-step>G</root-step>
                </root>
                <kind text="">major</kind>
            </harmony>
            <note default-y="-45.00" default-x="23.11">
                <pitch>
                    <step>D</step>
                    <octave>4</octave>
                </pitch>
                <duration>4</duration>
                <voice>1</voice>
                <type>half</type>
                <stem>up</stem>
                <lyric number="1">
                    <syllabic>end</syllabic>
                    <text>lőtt</text>
                </lyric>
                <lyric number="2">
                    <syllabic>end</syllabic>
                    <text>son,</text>
                </lyric>
            </note>
        </measure>
        <measure width="58.32" number="4">
            <note>
                <rest/>
                <duration>4</duration>
                <voice>1</voice>
            </note>
        </measure>
        <measure width="186.03" number="5">
            <note>
                <rest/>
                <duration>1</duration>
                <voice>1</voice>
                <type>eighth</type>
            </note>
            <note default-y="-45.00" default-x="53.28">
                <pitch>
                    <step>D</step>
                    <octave>4</octave>
                </pitch>
                <duration>1</duration>
                <voice>1</voice>
                <type>eighth</type>
                <stem>up</stem>
                <lyric number="1">
                    <syllabic>begin</syllabic>
                    <text>Vá</text>
                </lyric>
                <lyric number="2">
                    <syllabic>begin</syllabic>
                    <text>Gya</text>
                </lyric>
            </note>
            <note default-y="-40.00" default-x="100.16">
                <pitch>
                    <step>E</step>
                    <alter>-1</alter>
                    <octave>4</octave>
                </pitch>
                <duration>1</duration>
                <voice>1</voice>
                <type>eighth</type>
                <stem>up</stem>
                <beam number="1">begin</beam>
                <lyric number="1">
                    <syllabic>end</syllabic>
                    <text>rom</text>
                </lyric>
                <lyric number="2">
                    <syllabic>end</syllabic>
                    <text>log</text>
                </lyric>
            </note>
            <note default-y="-35.00" default-x="143.15">
                <pitch>
                    <step>F</step>
                    <octave>4</octave>
                </pitch>
                <duration>1</duration>
                <voice>1</voice>
                <type>eighth</type>
                <stem>up</stem>
                <beam number="1">end</beam>
                <lyric number="1">
                    <syllabic>single</syllabic>
                    <text>az</text>
                </lyric>
                <lyric number="2">
                    <syllabic>single</syllabic>
                    <text>jön,</text>
                </lyric>
            </note>
        </measure>
        <measure width="185.99" number="6">
            <note default-y="-40.00" default-x="27.96">
                <pitch>
                    <step>E</step>
                    <alter>-1</alter>
                    <octave>4</octave>
                </pitch>
                <duration>1</duration>
                <voice>1</voice>
                <type>eighth</type>
                <stem>up</stem>
                <beam number="1">begin</beam>
                <lyric number="1">
                    <syllabic>begin</syllabic>
                    <text>é</text>
                </lyric>
                <lyric number="2">
                    <syllabic>single</syllabic>
                    <text>vagy</text>
                </lyric>
            </note>
            <note default-y="-45.00" default-x="73.22">
                <pitch>
                    <step>D</step>
                    <octave>4</octave>
                </pitch>
                <duration>1</duration>
                <voice>1</voice>
                <type>eighth</type>
                <stem>up</stem>
                <beam number="1">end</beam>
                <lyric number="1">
                    <syllabic>end</syllabic>
                    <text>des</text>
                </lyric>
                <lyric number="2">
                    <syllabic>begin</syllabic>
                    <text>vil</text>
                </lyric>
            </note>
            <note default-y="-65.00" default-x="110.28">
                <pitch>
                    <step>G</step>
                    <octave>3</octave>
                </pitch>
                <duration>1</duration>
                <voice>1</voice>
                <type>eighth</type>
                <stem>up</stem>
                <beam number="1">begin</beam>
                <lyric number="1">
                    <syllabic>begin</syllabic>
                    <text>ki</text>
                </lyric>
                <lyric number="2">
                    <syllabic>middle</syllabic>
                    <text>la</text>
                </lyric>
            </note>
            <note default-y="-35.00" default-x="147.34">
                <pitch>
                    <step>F</step>
                    <octave>4</octave>
                </pitch>
                <duration>1</duration>
                <voice>1</voice>
                <type>eighth</type>
                <stem>up</stem>
                <beam number="1">end</beam>
                <lyric number="1">
                    <syllabic>end</syllabic>
                    <text>csi</text>
                </lyric>
                <lyric number="2">
                    <syllabic>middle</syllabic>
                    <text>mo</text>
                </lyric>
            </note>
        </measure>
        <measure width="73.94" number="7">
            <harmony print-frame="no">
                <root>
                    <root-step>C</root-step>
                </root>
                <kind text="m">minor</kind>
            </harmony>
            <note default-y="-40.00" default-x="23.11">
                <pitch>
                    <step>E</step>
                    <alter>-1</alter>
                    <octave>4</octave>
                </pitch>
                <duration>4</duration>
                <voice>1</voice>
                <type>half</type>
                <stem>up</stem>
                <lyric number="1">
                    <syllabic>single</syllabic>
                    <text>nőt.</text>
                </lyric>
                <lyric number="2">
                    <syllabic>end</syllabic>
                    <text>son,</text>
                </lyric>
            </note>
        </measure>
        <measure width="63.82" number="8">
            <note>
                <rest/>
                <duration>4</duration>
                <voice>1</voice>
            </note>
        </measure>
        <measure width="232.54" number="9">
            <print new-system="yes">
                <system-layout>
                    <system-margins>
                        <left-margin>2.50</left-margin>
                        <right-margin>-0.00</right-margin>
                    </system-margins>
                    <system-distance>129.80</system-distance>
                </system-layout>
            </print>
            <note>
                <rest/>
                <duration>1</duration>
                <voice>1</voice>
                <type>eighth</type>
            </note>
            <note default-y="-30.00" default-x="117.68">
                <pitch>
                    <step>G</step>
                    <octave>4</octave>
                </pitch>
                <duration>1</duration>
                <voice>1</voice>
                <type>eighth</type>
                <stem>up</stem>
                <lyric number="1">
                    <syllabic>single</syllabic>
                    <text>S a</text>
                </lyric>
                <lyric number="2">
                    <syllabic>single</syllabic>
                    <text>A</text>
                </lyric>
            </note>
            <note default-y="-25.00" default-x="158.30">
                <pitch>
                    <step>A</step>
                    <alter>-1</alter>
                    <octave>4</octave>
                </pitch>
                <duration>1</duration>
                <voice>1</voice>
                <type>eighth</type>
                <stem>up</stem>
                <beam number="1">begin</beam>
                <lyric number="1">
                    <syllabic>begin</syllabic>
                    <text>hir</text>
                </lyric>
                <lyric number="2">
                    <syllabic>begin</syllabic>
                    <text>lo</text>
                </lyric>
            </note>
            <note default-y="-20.00" default-x="195.61">
                <pitch>
                    <step>B</step>
                    <alter>-1</alter>
                    <octave>4</octave>
                </pitch>
                <duration>1</duration>
                <voice>1</voice>
                <type>eighth</type>
                <stem>up</stem>
                <beam number="1">end</beam>
                <lyric number="1">
                    <syllabic>middle</syllabic>
                    <text>de</text>
                </lyric>
                <lyric number="2">
                    <syllabic>middle</syllabic>
                    <text>vag</text>
                </lyric>
            </note>
        </measure>
        <measure width="156.84" number="10">
            <note default-y="-25.00" default-x="13.77">
                <pitch>
                    <step>A</step>
                    <alter>-1</alter>
                    <octave>4</octave>
                </pitch>
                <duration>1</duration>
                <voice>1</voice>
                <type>eighth</type>
                <stem>up</stem>
                <beam number="1">begin</beam>
                <lyric number="1">
                    <syllabic>middle</syllabic>
                    <text>té</text>
                </lyric>
                <lyric number="2">
                    <syllabic>middle</syllabic>
                    <text>já</text>
                </lyric>
            </note>
            <note default-y="-30.00" default-x="49.05">
                <pitch>
                    <step>G</step>
                    <octave>4</octave>
                </pitch>
                <duration>1</duration>
                <voice>1</voice>
                <type>eighth</type>
                <stem>up</stem>
                <beam number="1">end</beam>
                <lyric number="1">
                    <syllabic>end</syllabic>
                    <text>si</text>
                </lyric>
                <lyric number="2">
                    <syllabic>end</syllabic>
                    <text>hoz</text>
                </lyric>
            </note>
            <note default-y="-40.00" default-x="88.06">
                <pitch>
                    <step>E</step>
                    <alter>-1</alter>
                    <octave>4</octave>
                </pitch>
                <duration>1</duration>
                <voice>1</voice>
                <type>eighth</type>
                <stem>up</stem>
                <beam number="1">begin</beam>
                <lyric number="1">
                    <syllabic>begin</syllabic>
                    <text>osz</text>
                </lyric>
                <lyric number="2">
                    <syllabic>begin</syllabic>
                    <text>o</text>
                </lyric>
            </note>
            <note default-y="-30.00" default-x="121.65">
                <pitch>
                    <step>G</step>
                    <octave>4</octave>
                </pitch>
                <duration>1</duration>
                <voice>1</voice>
                <type>eighth</type>
                <stem>up</stem>
                <beam number="1">end</beam>
                <lyric number="1">
                    <syllabic>middle</syllabic>
                    <text>lo</text>
                </lyric>
                <lyric number="2">
                    <syllabic>middle</syllabic>
                    <text>da</text>
                </lyric>
            </note>
        </measure>
        <measure width="61.02" number="11">
            <harmony print-frame="no">
                <root>
                    <root-step>F</root-step>
                </root>
                <kind text="m">minor</kind>
            </harmony>
            <note default-y="-35.00" default-x="21.26">
                <pitch>
                    <step>F</step>
                    <octave>4</octave>
                </pitch>
                <duration>4</duration>
                <voice>1</voice>
                <type>half</type>
                <stem>up</stem>
                <lyric number="1">
                    <syllabic>end</syllabic>
                    <text>pot</text>
                </lyric>
                <lyric number="2">
                    <syllabic>end</syllabic>
                    <text>lép,</text>
                </lyric>
            </note>
        </measure>
        <measure width="49.10" number="12">
            <note>
                <rest/>
                <duration>4</duration>
                <voice>1</voice>
            </note>
        </measure>
        <measure width="178.07" number="13">
            <note>
                <rest/>
                <duration>1</duration>
                <voice>1</voice>
                <type>eighth</type>
            </note>
            <note default-y="-35.00" default-x="50.86">
                <pitch>
                    <step>F</step>
                    <octave>4</octave>
                </pitch>
                <duration>1</duration>
                <voice>1</voice>
                <type>eighth</type>
                <stem>up</stem>
                <lyric number="1">
                    <syllabic>begin</syllabic>
                    <text>E</text>
                </lyric>
                <lyric number="2">
                    <syllabic>single</syllabic>
                    <text>Egy</text>
                </lyric>
            </note>
            <note default-y="-30.00" default-x="94.06">
                <pitch>
                    <step>G</step>
                    <octave>4</octave>
                </pitch>
                <duration>1</duration>
                <voice>1</voice>
                <type>eighth</type>
                <stem>up</stem>
                <beam number="1">begin</beam>
                <lyric number="1">
                    <syllabic>middle</syllabic>
                    <text>gé</text>
                </lyric>
                <lyric number="2">
                    <syllabic>begin</syllabic>
                    <text>ran</text>
                </lyric>
            </note>
            <note default-y="-25.00" default-x="137.61">
                <pitch>
                    <step>A</step>
                    <alter>-1</alter>
                    <octave>4</octave>
                </pitch>
                <duration>1</duration>
                <voice>1</voice>
                <type>eighth</type>
                <stem>up</stem>
                <beam number="1">end</beam>
                <lyric number="1">
                    <syllabic>end</syllabic>
                    <text>szen</text>
                </lyric>
                <lyric number="2">
                    <syllabic>middle</syllabic>
                    <text>de</text>
                </lyric>
            </note>
        </measure>
        <measure width="169.64" number="14">
            <note default-y="-30.00" default-x="17.59">
                <pitch>
                    <step>G</step>
                    <octave>4</octave>
                </pitch>
                <duration>1</duration>
                <voice>1</voice>
                <type>eighth</type>
                <stem>up</stem>
                <beam number="1">begin</beam>
                <lyric number="1">
                    <syllabic>begin</syllabic>
                    <text>ki</text>
                </lyric>
                <lyric number="2">
                    <syllabic>end</syllabic>
                    <text>vú</text>
                </lyric>
            </note>
            <note default-y="-35.00" default-x="53.25">
                <pitch>
                    <step>F</step>
                    <octave>4</octave>
                </pitch>
                <duration>1</duration>
                <voice>1</voice>
                <type>eighth</type>
                <stem>up</stem>
                <beam number="1">end</beam>
                <lyric number="1">
                    <syllabic>middle</syllabic>
                    <text>ol</text>
                </lyric>
                <lyric number="2">
                    <syllabic>single</syllabic>
                    <text>de</text>
                </lyric>
            </note>
            <note default-y="-40.00" default-x="88.92">
                <pitch>
                    <step>E</step>
                    <alter>-1</alter>
                    <octave>4</octave>
                </pitch>
                <duration>1</duration>
                <voice>1</voice>
                <type>eighth</type>
                <stem>up</stem>
                <beam number="1">begin</beam>
                <lyric number="1">
                    <syllabic>middle</syllabic>
                    <text>va</text>
                </lyric>
                <lyric number="2">
                    <syllabic>begin</syllabic>
                    <text>cso</text>
                </lyric>
            </note>
            <note default-y="-35.00" default-x="132.38">
                <pitch>
                    <step>F</step>
                    <octave>4</octave>
                </pitch>
                <duration>1</duration>
                <voice>1</voice>
                <type>eighth</type>
                <stem>up</stem>
                <beam number="1">end</beam>
                <lyric number="1">
                    <syllabic>end</syllabic>
                    <text>som,</text>
                </lyric>
                <lyric number="2">
                    <syllabic>middle</syllabic>
                    <text>da</text>
                </lyric>
            </note>
        </measure>
        <measure width="106.73" number="15">
            <harmony print-frame="no">
                <root>
                    <root-step>G</root-step>
                </root>
                <kind text="">major</kind>
            </harmony>
            <note default-y="-30.00" default-x="28.28">
                <pitch>
                    <step>G</step>
                    <octave>4</octave>
                </pitch>
                <duration>2</duration>
                <voice>1</voice>
                <type>quarter</type>
                <stem>up</stem>
                <lyric number="1">
                    <syllabic>single</syllabic>
                    <text>míg</text>
                </lyric>
                <lyric number="2">
                    <syllabic>end</syllabic>
                    <text>szép!</text>
                </lyric>
            </note>
            <note default-y="-35.00" default-x="70.80">
                <pitch>
                    <step>F</step>
                    <octave>4</octave>
                </pitch>
                <duration>2</duration>
                <voice>1</voice>
                <type>quarter</type>
                <stem>up</stem>
                <lyric number="1">
                    <syllabic>single</syllabic>
                    <text>ott</text>
                </lyric>
            </note>
        </measure>
        <measure width="120.66" number="16">
            <note default-y="-40.00" default-x="30.12">
                <pitch>
                    <step>E</step>
                    <alter>-1</alter>
                    <octave>4</octave>
                </pitch>
                <duration>2</duration>
                <voice>1</voice>
                <type>quarter</type>
                <stem>up</stem>
                <lyric number="1">
                    <syllabic>begin</syllabic>
                    <text>vá</text>
                </lyric>
            </note>
            <note default-y="-45.00" default-x="67.84">
                <pitch>
                    <step>D</step>
                    <octave>4</octave>
                </pitch>
                <duration>2</duration>
                <voice>1</voice>
                <type>quarter</type>
                <stem>up</stem>
                <lyric number="1">
                    <syllabic>end</syllabic>
                    <text>rok.</text>
                </lyric>
            </note>
            <barline location="right">
                <bar-style>light-heavy</bar-style>
                <repeat direction="backward"/>
            </barline>
        </measure>
        <measure width="211.43" number="17">
            <print new-system="yes">
                <system-layout>
                    <system-margins>
                        <left-margin>2.50</left-margin>
                        <right-margin>0.00</right-margin>
                    </system-margins>
                    <system-distance>129.80</system-distance>
                </system-layout>
            </print>
            <direction placement="above">
                <direction-type>
                    <segno/>
                </direction-type>
                <sound segno="segno"/>
            </direction>
            <harmony print-frame="no">
                <root>
                    <root-step>C</root-step>
                </root>
                <kind text="m">minor</kind>
            </harmony>
            <note default-y="-50.00" default-x="86.57">
                <pitch>
                    <step>C</step>
                    <octave>4</octave>
                </pitch>
                <duration>2</duration>
                <voice>1</voice>
                <type>quarter</type>
                <stem>up</stem>
                <lyric number="1">
                    <syllabic>begin</syllabic>
                    <text>Hét</text>
                </lyric>
            </note>
            <note default-y="-55.00" default-x="141.35">
                <pitch>
                    <step>B</step>
                    <octave>3</octave>
                </pitch>
                <duration>1</duration>
                <voice>1</voice>
                <type>eighth</type>
                <accidental>natural</accidental>
                <stem>up</stem>
                <beam number="1">begin</beam>
                <lyric number="1">
                    <syllabic>end</syllabic>
                    <text>re</text>
                </lyric>
            </note>
            <note default-y="-50.00" default-x="175.59">
                <pitch>
                    <step>C</step>
                    <octave>4</octave>
                </pitch>
                <duration>1</duration>
                <voice>1</voice>
                <type>eighth</type>
                <stem>up</stem>
                <beam number="1">end</beam>
                <lyric number="1">
                    <syllabic>single</syllabic>
                    <text>ma</text>
                </lyric>
            </note>
        </measure>
        <measure width="143.28" number="18">
            <note default-y="-40.00" default-x="16.22">
                <pitch>
                    <step>E</step>
                    <alter>-1</alter>
                    <octave>4</octave>
                </pitch>
                <duration>2</duration>
                <voice>1</voice>
                <type>quarter</type>
                <stem>up</stem>
                <lyric number="1">
                    <syllabic>begin</syllabic>
                    <text>vá</text>
                </lyric>
            </note>
            <note default-y="-45.00" default-x="71.98">
                <pitch>
                    <step>D</step>
                    <octave>4</octave>
                </pitch>
                <duration>1</duration>
                <voice>1</voice>
                <type>eighth</type>
                <stem>up</stem>
                <beam number="1">begin</beam>
                <lyric number="1">
                    <syllabic>end</syllabic>
                    <text>rom</text>
                </lyric>
            </note>
            <note default-y="-50.00" default-x="106.83">
                <pitch>
                    <step>C</step>
                    <octave>4</octave>
                </pitch>
                <duration>1</duration>
                <voice>1</voice>
                <type>eighth</type>
                <stem>up</stem>
                <beam number="1">end</beam>
                <lyric number="1">
                    <syllabic>single</syllabic>
                    <text>a</text>
                </lyric>
            </note>
        </measure>
        <measure width="152.41" number="19">
            <harmony print-frame="no">
                <root>
                    <root-step>G</root-step>
                </root>
                <kind text="">major</kind>
            </harmony>
            <note default-y="-45.00" default-x="27.97">
                <pitch>
                    <step>D</step>
                    <octave>4</octave>
                </pitch>
                <duration>2</duration>
                <voice>1</voice>
                <type>quarter</type>
                <stem>up</stem>
                <lyric number="1">
                    <syllabic>begin</syllabic>
                    <text>Nem</text>
                </lyric>
            </note>
            <note default-y="-50.00" default-x="82.57">
                <pitch>
                    <step>C</step>
                    <alter>1</alter>
                    <octave>4</octave>
                </pitch>
                <duration>1</duration>
                <voice>1</voice>
                <type>eighth</type>
                <accidental>sharp</accidental>
                <stem>up</stem>
                <beam number="1">begin</beam>
                <lyric number="1">
                    <syllabic>middle</syllabic>
                    <text>ze</text>
                </lyric>
            </note>
            <note default-y="-45.00" default-x="116.69">
                <pitch>
                    <step>D</step>
                    <octave>4</octave>
                </pitch>
                <duration>1</duration>
                <voice>1</voice>
                <type>eighth</type>
                <stem>up</stem>
                <beam number="1">end</beam>
                <lyric number="1">
                    <syllabic>middle</syllabic>
                    <text>ti</text>
                </lyric>
            </note>
        </measure>
        <measure width="83.12" number="20">
            <note default-y="-30.00" default-x="21.26">
                <pitch>
                    <step>G</step>
                    <octave>4</octave>
                </pitch>
                <duration>4</duration>
                <voice>1</voice>
                <type>half</type>
                <stem>up</stem>
                <lyric number="1">
                    <syllabic>end</syllabic>
                    <text>nél,</text>
                </lyric>
            </note>
        </measure>
        <measure width="164.61" number="21">
            <harmony print-frame="no">
                <root>
                    <root-step>F</root-step>
                </root>
                <kind text="m">minor</kind>
            </harmony>
            <note default-y="-35.00" default-x="19.43">
                <pitch>
                    <step>F</step>
                    <octave>4</octave>
                </pitch>
                <duration>1</duration>
                <voice>1</voice>
                <type>eighth</type>
                <stem>up</stem>
                <beam number="1">begin</beam>
                <lyric number="1">
                    <syllabic>single</syllabic>
                    <text>ott,</text>
                </lyric>
            </note>
            <note default-y="-35.00" default-x="55.33">
                <pitch>
                    <step>F</step>
                    <octave>4</octave>
                </pitch>
                <duration>1</duration>
                <voice>1</voice>
                <type>eighth</type>
                <stem>up</stem>
                <beam number="1">end</beam>
                <lyric number="1">
                    <syllabic>begin</syllabic>
                    <text>a</text>
                </lyric>
            </note>
            <note default-y="-40.00" default-x="91.22">
                <pitch>
                    <step>E</step>
                    <alter>-1</alter>
                    <octave>4</octave>
                </pitch>
                <duration>1</duration>
                <voice>1</voice>
                <type>eighth</type>
                <stem>up</stem>
                <beam number="1">begin</beam>
                <lyric number="1">
                    <syllabic>end</syllabic>
                    <text>hol</text>
                </lyric>
            </note>
            <note default-y="-45.00" default-x="127.12">
                <pitch>
                    <step>D</step>
                    <octave>4</octave>
                </pitch>
                <duration>1</duration>
                <voice>1</voice>
                <type>eighth</type>
                <stem>up</stem>
                <beam number="1">end</beam>
                <lyric number="1">
                    <syllabic>single</syllabic>
                    <text>a</text>
                </lyric>
            </note>
        </measure>
        <measure width="164.83" number="22">
            <harmony print-frame="no">
                <root>
                    <root-step>G</root-step>
                </root>
                <kind text="">major</kind>
            </harmony>
            <note default-y="-35.00" default-x="16.22">
                <pitch>
                    <step>F</step>
                    <octave>4</octave>
                </pitch>
                <duration>1</duration>
                <voice>1</voice>
                <type>eighth</type>
                <stem>up</stem>
                <lyric number="1">
                    <syllabic>begin</syllabic>
                    <text>ha</text>
                </lyric>
            </note>
            <note default-y="-40.00" default-x="57.46">
                <pitch>
                    <step>E</step>
                    <alter>-1</alter>
                    <octave>4</octave>
                </pitch>
                <duration>2</duration>
                <voice>1</voice>
                <type>quarter</type>
                <stem>up</stem>
                <lyric number="1">
                    <syllabic>end</syllabic>
                    <text>tos</text>
                </lyric>
            </note>
            <note default-y="-45.00" default-x="122.55">
                <pitch>
                    <step>D</step>
                    <octave>4</octave>
                </pitch>
                <duration>1</duration>
                <voice>1</voice>
                <type>eighth</type>
                <stem>up</stem>
                <lyric number="1">
                    <syllabic>begin</syllabic>
                    <text>meg</text>
                </lyric>
            </note>
        </measure>
        <measure width="78.22" number="23">
            <harmony print-frame="no">
                <root>
                    <root-step>C</root-step>
                </root>
                <kind text="m">minor</kind>
            </harmony>
            <note default-y="-50.00" default-x="18.81">
                <pitch>
                    <step>C</step>
                    <octave>4</octave>
                </pitch>
                <duration>4</duration>
                <voice>1</voice>
                <type>half</type>
                <stem>up</stem>
                <lyric number="1">
                    <syllabic>end</syllabic>
                    <text>áll.</text>
                </lyric>
            </note>
        </measure>
        <measure width="76.70" number="24">
            <note>
                <rest/>
                <duration>4</duration>
                <voice>1</voice>
            </note>
            <direction placement="above">
                <direction-type>
                    <words>Fine</words>
                </direction-type>
                <sound fine="yes"/>
            </direction>
        </measure>
        <measure width="212.28" number="25">
            <print new-system="yes">
                <system-layout>
                    <system-margins>
                        <left-margin>2.50</left-margin>
                        <right-margin>-0.00</right-margin>
                    </system-margins>
                    <system-distance>104.48</system-distance>
                </system-layout>
            </print>
            <harmony print-frame="no">
                <root>
                    <root-step>C</root-step>
                </root>
                <kind text="m">minor</kind>
            </harmony>
            <note default-y="-50.00" default-x="95.59">
                <pitch>
                    <step>C</step>
                    <octave>4</octave>
                </pitch>
                <duration>2</duration>
                <voice>1</voice>
                <type>quarter</type>
                <stem>up</stem>
                <lyric number="1">
                    <syllabic>begin</syllabic>
                    <text>Es</text>
                </lyric>
            </note>
            <note default-y="-55.00" default-x="146.74">
                <pitch>
                    <step>B</step>
                    <octave>3</octave>
                </pitch>
                <duration>1</duration>
                <voice>1</voice>
                <type>eighth</type>
                <accidental>natural</accidental>
                <stem>up</stem>
                <beam number="1">begin</beam>
                <lyric number="1">
                    <syllabic>end</syllabic>
                    <text>te</text>
                </lyric>
            </note>
            <note default-y="-50.00" default-x="178.71">
                <pitch>
                    <step>C</step>
                    <octave>4</octave>
                </pitch>
                <duration>1</duration>
                <voice>1</voice>
                <type>eighth</type>
                <stem>up</stem>
                <beam number="1">end</beam>
                <lyric number="1">
                    <syllabic>single</syllabic>
                    <text>az</text>
                </lyric>
            </note>
        </measure>
        <measure width="158.10" number="26">
            <note default-y="-40.00" default-x="35.77">
                <pitch>
                    <step>E</step>
                    <alter>-1</alter>
                    <octave>4</octave>
                </pitch>
                <duration>2</duration>
                <voice>1</voice>
                <type>quarter</type>
                <stem>up</stem>
                <lyric number="1">
                    <syllabic>begin</syllabic>
                    <text>Em</text>
                </lyric>
            </note>
            <note default-y="-45.00" default-x="89.43">
                <pitch>
                    <step>D</step>
                    <octave>4</octave>
                </pitch>
                <duration>1</duration>
                <voice>1</voice>
                <type>eighth</type>
                <stem>up</stem>
                <beam number="1">begin</beam>
                <lyric number="1">
                    <syllabic>end</syllabic>
                    <text>ke</text>
                </lyric>
            </note>
            <note default-y="-50.00" default-x="122.97">
                <pitch>
                    <step>C</step>
                    <octave>4</octave>
                </pitch>
                <duration>1</duration>
                <voice>1</voice>
                <type>eighth</type>
                <stem>up</stem>
                <beam number="1">end</beam>
                <lyric number="1">
                    <syllabic>begin</syllabic>
                    <text>ci</text>
                </lyric>
            </note>
        </measure>
        <measure width="159.63" number="27">
            <harmony print-frame="no">
                <root>
                    <root-step>G</root-step>
                </root>
                <kind text="">major</kind>
            </harmony>
            <note default-y="-45.00" default-x="30.12">
                <pitch>
                    <step>D</step>
                    <octave>4</octave>
                </pitch>
                <duration>2</duration>
                <voice>1</voice>
                <type>quarter</type>
                <stem>up</stem>
                <lyric number="1">
                    <syllabic>middle</syllabic>
                    <text>gá</text>
                </lyric>
            </note>
            <note default-y="-50.00" default-x="86.97">
                <pitch>
                    <step>C</step>
                    <alter>1</alter>
                    <octave>4</octave>
                </pitch>
                <duration>1</duration>
                <voice>1</voice>
                <type>eighth</type>
                <accidental>sharp</accidental>
                <stem>up</stem>
                <beam number="1">begin</beam>
                <lyric number="1">
                    <syllabic>end</syllabic>
                    <text>nya</text>
                </lyric>
            </note>
            <note default-y="-45.00" default-x="122.50">
                <pitch>
                    <step>D</step>
                    <octave>4</octave>
                </pitch>
                <duration>1</duration>
                <voice>1</voice>
                <type>eighth</type>
                <stem>up</stem>
                <beam number="1">end</beam>
                <lyric number="1">
                    <syllabic>begin</syllabic>
                    <text>ze</text>
                </lyric>
            </note>
        </measure>
        <measure width="100.52" number="28">
            <note default-y="-30.00" default-x="35.16">
                <pitch>
                    <step>G</step>
                    <octave>4</octave>
                </pitch>
                <duration>4</duration>
                <voice>1</voice>
                <type>half</type>
                <stem>up</stem>
                <lyric number="1">
                    <syllabic>end</syllabic>
                    <text>nél,</text>
                </lyric>
            </note>
        </measure>
        <measure width="197.02" number="29">
            <harmony print-frame="no">
                <root>
                    <root-step>F</root-step>
                </root>
                <kind text="m">minor</kind>
            </harmony>
            <note default-y="-25.00" default-x="30.12">
                <pitch>
                    <step>A</step>
                    <alter>-1</alter>
                    <octave>4</octave>
                </pitch>
                <duration>1</duration>
                <voice>1</voice>
                <type>eighth</type>
                <stem>up</stem>
                <beam number="1">begin</beam>
                <lyric number="1">
                    <syllabic>single</syllabic>
                    <text>ha</text>
                </lyric>
            </note>
            <note default-y="-25.00" default-x="70.90">
                <pitch>
                    <step>A</step>
                    <alter>-1</alter>
                    <octave>4</octave>
                </pitch>
                <duration>1</duration>
                <voice>1</voice>
                <type>eighth</type>
                <stem>up</stem>
                <beam number="1">end</beam>
                <lyric number="1">
                    <syllabic>single</syllabic>
                    <text>nem</text>
                </lyric>
            </note>
            <note default-y="-30.00" default-x="113.86">
                <pitch>
                    <step>G</step>
                    <octave>4</octave>
                </pitch>
                <duration>1</duration>
                <voice>1</voice>
                <type>eighth</type>
                <stem>up</stem>
                <beam number="1">begin</beam>
                <lyric number="1">
                    <syllabic>single</syllabic>
                    <text>jön</text>
                </lyric>
            </note>
            <note default-y="-35.00" default-x="154.64">
                <pitch>
                    <step>F</step>
                    <octave>4</octave>
                </pitch>
                <duration>1</duration>
                <voice>1</voice>
                <type>eighth</type>
                <stem>up</stem>
                <beam number="1">end</beam>
                <lyric number="1">
                    <syllabic>single</syllabic>
                    <text>el</text>
                </lyric>
            </note>
        </measure>
        <measure width="169.50" number="30">
            <note default-y="-25.00" default-x="18.05">
                <pitch>
                    <step>A</step>
                    <alter>-1</alter>
                    <octave>4</octave>
                </pitch>
                <duration>1</duration>
                <voice>1</voice>
                <type>eighth</type>
                <stem>up</stem>
                <beam number="1">begin</beam>
                <lyric number="1">
                    <syllabic>begin</syllabic>
                    <text>szí</text>
                </lyric>
            </note>
            <note default-y="-30.00" default-x="59.66">
                <pitch>
                    <step>G</step>
                    <octave>4</octave>
                </pitch>
                <duration>1</duration>
                <tie type="start"/>
                <voice>1</voice>
                <type>eighth</type>
                <stem>up</stem>
                <beam number="1">end</beam>
                <notations>
                    <tied type="start"/>
                </notations>
                <lyric number="1">
                    <syllabic>end</syllabic>
                    <text>vem,</text>
                </lyric>
            </note>
            <note default-y="-30.00" default-x="95.74">
                <pitch>
                    <step>G</step>
                    <octave>4</octave>
                </pitch>
                <duration>1</duration>
                <tie type="stop"/>
                <voice>1</voice>
                <type>eighth</type>
                <stem>up</stem>
                <beam number="1">begin</beam>
                <notations>
                    <tied type="stop"/>
                </notations>
            </note>
            <note default-y="-35.00" default-x="131.82">
                <pitch>
                    <step>F</step>
                    <octave>4</octave>
                </pitch>
                <duration>1</duration>
                <voice>1</voice>
                <type>eighth</type>
                <stem>up</stem>
                <beam number="1">end</beam>
                <lyric number="1">
                    <syllabic>single</syllabic>
                    <text>de</text>
                </lyric>
            </note>
        </measure>
        <measure width="77.55" number="31">
            <harmony print-frame="no">
                <root>
                    <root-step>G</root-step>
                </root>
                <kind text="">major</kind>
            </harmony>
            <note default-y="-30.00" default-x="20.33">
                <pitch>
                    <step>G</step>
                    <octave>4</octave>
                </pitch>
                <duration>4</duration>
                <voice>1</voice>
                <type>half</type>
                <stem>up</stem>
                <lyric number="1">
                    <syllabic>single</syllabic>
                    <text>fáj!</text>
                </lyric>
            </note>
        </measure>
        <measure width="322.35" number="32">
            <print new-system="yes">
                <system-layout>
                    <system-margins>
                        <left-margin>2.50</left-margin>
                        <right-margin>-0.00</right-margin>
                    </system-margins>
                    <system-distance>104.48</system-distance>
                </system-layout>
            </print>
            <note>
                <rest/>
                <duration>1</duration>
                <voice>1</voice>
                <type>eighth</type>
            </note>
            <note default-y="-30.00" default-x="141.95">
                <pitch>
                    <step>G</step>
                    <octave>4</octave>
                </pitch>
                <duration>1</duration>
                <voice>1</voice>
                <type>eighth</type>
                <stem>up</stem>
                <lyric number="1">
                    <syllabic>single</syllabic>
                    <text>De</text>
                </lyric>
            </note>
            <note default-y="-35.00" default-x="201.55">
                <pitch>
                    <step>F</step>
                    <alter>1</alter>
                    <octave>4</octave>
                </pitch>
                <duration>1</duration>
                <voice>1</voice>
                <type>eighth</type>
                <accidental>sharp</accidental>
                <stem>up</stem>
                <beam number="1">begin</beam>
                <lyric number="1">
                    <syllabic>single</syllabic>
                    <text>ott</text>
                </lyric>
            </note>
            <note default-y="-30.00" default-x="261.15">
                <pitch>
                    <step>G</step>
                    <octave>4</octave>
                </pitch>
                <duration>1</duration>
                <voice>1</voice>
                <type>eighth</type>
                <stem>up</stem>
                <beam number="1">end</beam>
                <lyric number="1">
                    <syllabic>single</syllabic>
                    <text>lesz</text>
                </lyric>
            </note>
        </measure>
        <measure width="237.87" number="33">
            <harmony print-frame="no">
                <root>
                    <root-step>F</root-step>
                </root>
                <kind text="m">minor</kind>
            </harmony>
            <note default-y="-15.00" default-x="26.00">
                <pitch>
                    <step>C</step>
                    <octave>5</octave>
                </pitch>
                <duration>1</duration>
                <voice>1</voice>
                <type>eighth</type>
                <stem>down</stem>
                <beam number="1">begin</beam>
                <lyric number="1">
                    <syllabic>begin</syllabic>
                    <text>u</text>
                </lyric>
            </note>
            <note default-y="-15.00" default-x="84.41">
                <pitch>
                    <step>C</step>
                    <octave>5</octave>
                </pitch>
                <duration>1</duration>
                <voice>1</voice>
                <type>eighth</type>
                <stem>down</stem>
                <beam number="1">end</beam>
                <lyric number="1">
                    <syllabic>middle</syllabic>
                    <text>gye</text>
                </lyric>
            </note>
            <note default-y="-25.00" default-x="142.82">
                <pitch>
                    <step>A</step>
                    <alter>-1</alter>
                    <octave>4</octave>
                </pitch>
                <duration>2</duration>
                <voice>1</voice>
                <type>quarter</type>
                <stem>up</stem>
                <lyric number="1">
                    <syllabic>end</syllabic>
                    <text>bár?</text>
                </lyric>
            </note>
        </measure>
        <measure width="278.30" number="34">
            <note>
                <rest/>
                <duration>1</duration>
                <voice>1</voice>
                <type>eighth</type>
            </note>
            <note default-y="-35.00" default-x="78.18">
                <pitch>
                    <step>F</step>
                    <octave>4</octave>
                </pitch>
                <duration>1</duration>
                <voice>1</voice>
                <type>eighth</type>
                <stem>up</stem>
                <lyric number="1">
                    <syllabic>begin</syllabic>
                    <text>Le</text>
                </lyric>
            </note>
            <note default-y="-40.00" default-x="144.35">
                <pitch>
                    <step>E</step>
                    <octave>4</octave>
                </pitch>
                <duration>1</duration>
                <voice>1</voice>
                <type>eighth</type>
                <accidental>natural</accidental>
                <stem>up</stem>
                <beam number="1">begin</beam>
                <lyric number="1">
                    <syllabic>end</syllabic>
                    <text>sem,</text>
                </lyric>
            </note>
            <note default-y="-35.00" default-x="210.53">
                <pitch>
                    <step>F</step>
                    <octave>4</octave>
                </pitch>
                <duration>1</duration>
                <voice>1</voice>
                <type>eighth</type>
                <stem>up</stem>
                <beam number="1">end</beam>
                <lyric number="1">
                    <syllabic>single</syllabic>
                    <text>hogy</text>
                </lyric>
            </note>
        </measure>
        <measure width="236.08" number="35">
            <harmony print-frame="no">
                <root>
                    <root-step>G</root-step>
                </root>
                <kind text="">major</kind>
            </harmony>
            <note default-y="-20.00" default-x="34.54">
                <pitch>
                    <step>B</step>
                    <alter>-1</alter>
                    <octave>4</octave>
                </pitch>
                <duration>1</duration>
                <voice>1</voice>
                <type>eighth</type>
                <stem>down</stem>
                <beam number="1">begin</beam>
                <lyric number="1">
                    <syllabic>begin</syllabic>
                    <text>jön</text>
                </lyric>
            </note>
            <note default-y="-20.00" default-x="90.08">
                <pitch>
                    <step>B</step>
                    <alter>-1</alter>
                    <octave>4</octave>
                </pitch>
                <duration>1</duration>
                <voice>1</voice>
                <type>eighth</type>
                <stem>down</stem>
                <beam number="1">end</beam>
                <lyric number="1">
                    <syllabic>end</syllabic>
                    <text>e</text>
                </lyric>
            </note>
            <note default-y="-30.00" default-x="145.62">
                <pitch>
                    <step>G</step>
                    <octave>4</octave>
                </pitch>
                <duration>2</duration>
                <voice>1</voice>
                <type>quarter</type>
                <stem>up</stem>
                <lyric number="1">
                    <syllabic>single</syllabic>
                    <text>már,</text>
                </lyric>
            </note>
        </measure>
        <measure width="319.67" number="36">
            <print new-system="yes">
                <system-layout>
                    <system-margins>
                        <left-margin>2.50</left-margin>
                        <right-margin>0.00</right-margin>
                    </system-margins>
                    <system-distance>104.48</system-distance>
                </system-layout>
            </print>
            <note>
                <rest/>
                <duration>1</duration>
                <voice>1</voice>
                <type>eighth</type>
            </note>
            <note default-y="-40.00" default-x="141.28">
                <pitch>
                    <step>E</step>
                    <alter>-1</alter>
                    <octave>4</octave>
                </pitch>
                <duration>1</duration>
                <voice>1</voice>
                <type>eighth</type>
                <stem>up</stem>
                <lyric number="1">
                    <syllabic>begin</syllabic>
                    <text>Mi</text>
                </lyric>
            </note>
            <note default-y="-45.00" default-x="200.21">
                <pitch>
                    <step>D</step>
                    <octave>4</octave>
                </pitch>
                <duration>1</duration>
                <voice>1</voice>
                <type>eighth</type>
                <stem>up</stem>
                <beam number="1">begin</beam>
                <lyric number="1">
                    <syllabic>end</syllabic>
                    <text>ránk</text>
                </lyric>
            </note>
            <note default-y="-40.00" default-x="259.14">
                <pitch>
                    <step>E</step>
                    <alter>-1</alter>
                    <octave>4</octave>
                </pitch>
                <duration>1</duration>
                <voice>1</voice>
                <type>eighth</type>
                <stem>up</stem>
                <beam number="1">end</beam>
                <lyric number="1">
                    <syllabic>single</syllabic>
                    <text>egy</text>
                </lyric>
            </note>
        </measure>
        <measure width="176.83" number="37">
            <harmony print-frame="no">
                <root>
                    <root-step>F</root-step>
                </root>
                <kind text="m">minor</kind>
            </harmony>
            <note default-y="-25.00" default-x="12.00">
                <pitch>
                    <step>A</step>
                    <alter>-1</alter>
                    <octave>4</octave>
                </pitch>
                <duration>1</duration>
                <voice>1</voice>
                <type>eighth</type>
                <stem>up</stem>
                <beam number="1">begin</beam>
                <lyric number="1">
                    <syllabic>begin</syllabic>
                    <text>i</text>
                </lyric>
            </note>
            <note default-y="-25.00" default-x="57.34">
                <pitch>
                    <step>A</step>
                    <alter>-1</alter>
                    <octave>4</octave>
                </pitch>
                <duration>1</duration>
                <voice>1</voice>
                <type>eighth</type>
                <stem>up</stem>
                <beam number="1">end</beam>
                <lyric number="1">
                    <syllabic>middle</syllabic>
                    <text>ci</text>
                </lyric>
            </note>
            <note default-y="-40.00" default-x="102.68">
                <pitch>
                    <step>E</step>
                    <alter>-1</alter>
                    <octave>4</octave>
                </pitch>
                <duration>2</duration>
                <voice>1</voice>
                <type>quarter</type>
                <stem>up</stem>
                <lyric number="1">
                    <syllabic>middle</syllabic>
                    <text>ke</text>
                </lyric>
            </note>
        </measure>
        <measure width="179.22" number="38">
            <note default-y="-25.00" default-x="14.39">
                <pitch>
                    <step>A</step>
                    <alter>-1</alter>
                    <octave>4</octave>
                </pitch>
                <duration>1</duration>
                <voice>1</voice>
                <type>eighth</type>
                <stem>up</stem>
                <beam number="1">begin</beam>
                <lyric number="1">
                    <syllabic>middle</syllabic>
                    <text>pi</text>
                </lyric>
            </note>
            <note default-y="-25.00" default-x="59.73">
                <pitch>
                    <step>A</step>
                    <alter>-1</alter>
                    <octave>4</octave>
                </pitch>
                <duration>1</duration>
                <voice>1</voice>
                <type>eighth</type>
                <stem>up</stem>
                <beam number="1">end</beam>
                <lyric number="1">
                    <syllabic>middle</syllabic>
                    <text>ci</text>
                </lyric>
            </note>
            <note default-y="-40.00" default-x="105.07">
                <pitch>
                    <step>E</step>
                    <alter>-1</alter>
                    <octave>4</octave>
                </pitch>
                <duration>2</duration>
                <voice>1</voice>
                <type>quarter</type>
                <stem>up</stem>
                <lyric number="1">
                    <syllabic>end</syllabic>
                    <text>ke</text>
                </lyric>
            </note>
        </measure>
        <measure width="215.10" number="39">
            <harmony print-frame="no">
                <root>
                    <root-step>G</root-step>
                </root>
                <kind text="">major</kind>
            </harmony>
            <note default-y="-35.00" default-x="33.80">
                <pitch>
                    <step>F</step>
                    <octave>4</octave>
                </pitch>
                <duration>1</duration>
                <voice>1</voice>
                <type>eighth</type>
                <stem>up</stem>
                <beam number="1">begin</beam>
                <lyric number="1">
                    <syllabic>begin</syllabic>
                    <text>mo</text>
                </lyric>
            </note>
            <note default-y="-35.00" default-x="83.72">
                <pitch>
                    <step>F</step>
                    <octave>4</octave>
                </pitch>
                <duration>1</duration>
                <voice>1</voice>
                <type>eighth</type>
                <stem>up</stem>
                <beam number="1">end</beam>
                <lyric number="1">
                    <syllabic>end</syllabic>
                    <text>zi</text>
                </lyric>
            </note>
            <note default-y="-45.00" default-x="133.63">
                <pitch>
                    <step>D</step>
                    <octave>4</octave>
                </pitch>
                <duration>2</duration>
                <voice>1</voice>
                <type>quarter</type>
                <stem>up</stem>
                <lyric number="1">
                    <syllabic>single</syllabic>
                    <text>vár!</text>
                </lyric>
            </note>
        </measure>
        <measure width="183.79" number="40">
            <note>
                <rest/>
                <duration>1</duration>
                <voice>1</voice>
                <type>eighth</type>
            </note>
            <note default-y="-35.00" default-x="53.05">
                <pitch>
                    <step>F</step>
                    <octave>4</octave>
                </pitch>
                <duration>1</duration>
                <voice>1</voice>
                <type>eighth</type>
                <stem>up</stem>
            </note>
            <note default-y="-40.00" default-x="94.10">
                <pitch>
                    <step>E</step>
                    <alter>-1</alter>
                    <octave>4</octave>
                </pitch>
                <duration>1</duration>
                <voice>1</voice>
                <type>eighth</type>
                <stem>up</stem>
                <beam number="1">begin</beam>
            </note>
            <note default-y="-45.00" default-x="135.14">
                <pitch>
                    <step>D</step>
                    <octave>4</octave>
                </pitch>
                <duration>1</duration>
                <voice>1</voice>
                <type>eighth</type>
                <stem>up</stem>
                <beam number="1">end</beam>
            </note>
            <direction placement="above">
                <direction-type>
                    <words>D.S. al Fine</words>
                </direction-type>
                <sound dalsegno="segno"/>
            </direction>
            <barline location="right">
                <bar-style>light-heavy</bar-style>
            </barline>
        </measure>
    </part>
</score-partwise>
