<?xml version="1.0" encoding="UTF-8"?>
<!DOCTYPE score-partwise PUBLIC "-//Recordare//DTD MusicXML 2.0 Partwise//EN" "http://www.musicxml.org/dtds/partwise.dtd">
<score-partwise version="2.0">
    <work>
        <work-number></work-number>
        <work-title></work-title>
    </work>
    <movement-number></movement-number>
    <movement-title>Are You Lonesome Tonight</movement-title>
    <identification>
        <creator type="composer">Lou Handman</creator>
        <creator type="poet">Roy Turk</creator>
        <rights>All Rights Reserved</rights>
        <encoding>
            <software>Finale 2010 for Windows</software>
            <software>Dolet Light for Finale 2010</software>
            <encoding-date>2010-10-15</encoding-date>
            <supports value="yes" type="yes" element="print" attribute="new-system"/>
            <supports value="yes" type="yes" element="print" attribute="new-page"/>
            <software>ProxyMusic 2.0 c</software>
        </encoding>
        <source>http://wikifonia.org/node/7914/revisions/18028/view</source>
    </identification>
    <defaults>
        <scaling>
            <millimeters>6.9674</millimeters>
            <tenths>40</tenths>
        </scaling>
        <page-layout>
            <page-height>1704</page-height>
            <page-width>1205</page-width>
            <page-margins type="even">
                <left-margin>109</left-margin>
                <right-margin>73</right-margin>
                <top-margin>127</top-margin>
                <bottom-margin>252</bottom-margin>
            </page-margins>
            <page-margins type="odd">
                <left-margin>109</left-margin>
                <right-margin>73</right-margin>
                <top-margin>127</top-margin>
                <bottom-margin>252</bottom-margin>
            </page-margins>
        </page-layout>
        <system-layout>
            <system-margins>
                <left-margin>0</left-margin>
                <right-margin>484</right-margin>
            </system-margins>
            <system-distance>144</system-distance>
            <top-system-distance>143</top-system-distance>
        </system-layout>
        <appearance>
            <line-width type="stem">1.0026</line-width>
            <line-width type="beam">5</line-width>
            <line-width type="staff">1.4779</line-width>
            <line-width type="light barline">1.6016</line-width>
            <line-width type="heavy barline">5</line-width>
            <line-width type="leger">1.6016</line-width>
            <line-width type="ending">0.957</line-width>
            <line-width type="wedge">1.0026</line-width>
            <line-width type="enclosure">1.0026</line-width>
            <line-width type="tuplet bracket">1.0026</line-width>
            <note-size type="grace">60</note-size>
            <note-size type="cue">60</note-size>
        </appearance>
        <music-font font-size="19.75" font-family="Opus"/>
        <word-font font-size="9.9" font-family="Opus Special"/>
    </defaults>
    <credit page="1">
        <credit-words font-size="8" font-family="Times New Roman"> Laukens Music Productions  </credit-words>
    </credit>
    <credit page="1">
        <credit-words font-size="12" font-family="Times New Roman" default-y="1547" default-x="109" valign="top">Engelse Wals</credit-words>
    </credit>
    <credit page="1">
        <credit-words font-weight="bold" font-style="italic" font-size="24" font-family="Times New Roman" default-y="1601" default-x="615" halign="center" valign="top">ARE YOU LONESOME TONIGHT</credit-words>
    </credit>
    <credit page="1">
        <credit-words font-size="12" font-family="Times New Roman" default-y="1547" default-x="1131" halign="right" valign="top">Arr. H. Laukens </credit-words>
    </credit>
    <part-list>
        <score-part id="P1">
            <part-name print-object="no">Are you lonesome tonight</part-name>
            <score-instrument id="P1-I1">
                <instrument-name>Acoustic Grand Piano</instrument-name>
            </score-instrument>
            <midi-instrument id="P1-I1">
                <midi-channel>5</midi-channel>
                <midi-program>1</midi-program>
                <volume>80</volume>
                <pan>0</pan>
            </midi-instrument>
        </score-part>
    </part-list>
    <part id="P1">
        <measure width="147" number="0" implicit="yes">
            <print>
                <system-layout>
                    <system-margins>
                        <left-margin>61</left-margin>
                        <right-margin>0</right-margin>
                    </system-margins>
                    <top-system-distance>182</top-system-distance>
                </system-layout>
            </print>
            <attributes>
                <divisions>2</divisions>
                <key>
                    <fifths>0</fifths>
                    <mode>major</mode>
                </key>
                <time>
                    <beats>3</beats>
                    <beat-type>4</beat-type>
                </time>
                <clef>
                    <sign>G</sign>
                    <line>2</line>
                </clef>
            </attributes>
            <sound tempo="190"/>
            <note default-x="75">
                <pitch>
                    <step>A</step>
                    <octave>4</octave>
                </pitch>
                <duration>1</duration>
                <voice>1</voice>
                <type>eighth</type>
                <stem default-y="13">up</stem>
                <beam number="1">begin</beam>
            </note>
            <note default-x="111">
                <pitch>
                    <step>B</step>
                    <octave>4</octave>
                </pitch>
                <duration>1</duration>
                <voice>1</voice>
                <type>eighth</type>
                <stem default-y="15.5">up</stem>
                <beam number="1">end</beam>
            </note>
        </measure>
        <measure width="195" number="1">
            <harmony font-weight="bold" font-family="Opus Chords" default-y="11">
                <root>
                    <root-step>G</root-step>
                </root>
                <kind halign="left" text="7">dominant</kind>
            </harmony>
            <note default-x="11">
                <pitch>
                    <step>C</step>
                    <octave>5</octave>
                </pitch>
                <duration>2</duration>
                <voice>1</voice>
                <type>quarter</type>
                <stem default-y="-50">down</stem>
            </note>
            <note default-x="65">
                <pitch>
                    <step>B</step>
                    <octave>4</octave>
                </pitch>
                <duration>3</duration>
                <voice>1</voice>
                <type>quarter</type>
                <dot/>
                <stem default-y="-55.5">down</stem>
            </note>
            <note default-x="155">
                <pitch>
                    <step>A</step>
                    <octave>4</octave>
                </pitch>
                <duration>1</duration>
                <voice>1</voice>
                <type>eighth</type>
                <stem default-y="11">up</stem>
            </note>
        </measure>
        <measure width="195" number="2">
            <note default-x="11">
                <pitch>
                    <step>B</step>
                    <octave>4</octave>
                </pitch>
                <duration>2</duration>
                <voice>1</voice>
                <type>quarter</type>
                <stem default-y="-55.5">down</stem>
            </note>
            <note default-x="71">
                <pitch>
                    <step>C</step>
                    <octave>5</octave>
                </pitch>
                <duration>2</duration>
                <voice>1</voice>
                <type>quarter</type>
                <stem default-y="-50">down</stem>
            </note>
            <note default-x="132">
                <pitch>
                    <step>D</step>
                    <octave>5</octave>
                </pitch>
                <duration>2</duration>
                <voice>1</voice>
                <type>quarter</type>
                <stem default-y="-45">down</stem>
            </note>
        </measure>
        <measure width="218" number="3">
            <harmony font-weight="bold" font-family="Opus Chords" default-y="11">
                <root>
                    <root-step>C</root-step>
                </root>
                <kind halign="left" text="">major</kind>
            </harmony>
            <note default-x="11">
                <pitch>
                    <step>C</step>
                    <octave>5</octave>
                </pitch>
                <duration>3</duration>
                <voice>1</voice>
                <type>quarter</type>
                <dot/>
                <stem default-y="-50">down</stem>
            </note>
            <note default-x="101">
                <pitch>
                    <step>B</step>
                    <octave>4</octave>
                </pitch>
                <duration>1</duration>
                <voice>1</voice>
                <type>eighth</type>
                <stem default-y="-55.5">down</stem>
            </note>
            <note default-x="140">
                <pitch>
                    <step>A</step>
                    <octave>4</octave>
                </pitch>
                <duration>1</duration>
                <voice>1</voice>
                <type>eighth</type>
                <stem default-y="10.5">up</stem>
                <beam number="1">begin</beam>
            </note>
            <note default-x="178">
                <pitch>
                    <step>A</step>
                    <alter>-1</alter>
                    <octave>4</octave>
                </pitch>
                <duration>1</duration>
                <voice>1</voice>
                <type>eighth</type>
                <accidental>flat</accidental>
                <stem default-y="10.5">up</stem>
                <beam number="1">end</beam>
            </note>
        </measure>
        <measure width="207" number="4">
            <harmony font-weight="bold" font-family="Opus Chords" default-y="11">
                <root>
                    <root-step>G</root-step>
                </root>
                <kind halign="left" text="7">dominant</kind>
            </harmony>
            <note default-x="10">
                <pitch>
                    <step>G</step>
                    <octave>4</octave>
                </pitch>
                <duration>4</duration>
                <voice>1</voice>
                <type>half</type>
                <stem default-y="6">up</stem>
            </note>
            <note default-x="128">
                <pitch>
                    <step>E</step>
                    <octave>4</octave>
                </pitch>
                <duration>1</duration>
                <voice>1</voice>
                <type>eighth</type>
                <stem default-y="3">up</stem>
                <beam number="1">begin</beam>
            </note>
            <note default-x="165">
                <pitch>
                    <step>G</step>
                    <octave>4</octave>
                </pitch>
                <duration>1</duration>
                <voice>1</voice>
                <type>eighth</type>
                <stem default-y="5">up</stem>
                <beam number="1">end</beam>
            </note>
            <barline location="right">
                <bar-style>light-light</bar-style>
            </barline>
        </measure>
        <measure width="202" number="5">
            <print new-system="yes">
                <system-layout>
                    <system-margins>
                        <left-margin>0</left-margin>
                        <right-margin>1</right-margin>
                    </system-margins>
                    <system-distance>180</system-distance>
                </system-layout>
            </print>
            <barline location="left">
                <bar-style>heavy-light</bar-style>
                <repeat direction="forward"/>
            </barline>
            <harmony font-weight="bold" font-family="Opus Chords" default-y="12">
                <root>
                    <root-step>C</root-step>
                </root>
                <kind halign="left" text="">major</kind>
            </harmony>
            <note default-x="76">
                <pitch>
                    <step>C</step>
                    <octave>5</octave>
                </pitch>
                <duration>2</duration>
                <voice>1</voice>
                <type>quarter</type>
                <stem default-y="-50.5">down</stem>
            </note>
            <note default-x="114">
                <pitch>
                    <step>B</step>
                    <octave>4</octave>
                </pitch>
                <duration>3</duration>
                <voice>1</voice>
                <type>quarter</type>
                <dot/>
                <stem default-y="-55.5">down</stem>
            </note>
            <note default-x="175">
                <pitch>
                    <step>C</step>
                    <octave>5</octave>
                </pitch>
                <duration>1</duration>
                <voice>1</voice>
                <type>eighth</type>
                <stem default-y="-50.5">down</stem>
            </note>
        </measure>
        <measure width="142" number="6">
            <note default-x="11">
                <pitch>
                    <step>B</step>
                    <octave>4</octave>
                </pitch>
                <duration>4</duration>
                <voice>1</voice>
                <type>half</type>
                <stem default-y="-55.5">down</stem>
            </note>
            <note default-x="91">
                <pitch>
                    <step>E</step>
                    <octave>4</octave>
                </pitch>
                <duration>1</duration>
                <voice>1</voice>
                <type>eighth</type>
                <stem default-y="3">up</stem>
                <beam number="1">begin</beam>
            </note>
            <note default-x="115">
                <pitch>
                    <step>G</step>
                    <octave>4</octave>
                </pitch>
                <duration>1</duration>
                <voice>1</voice>
                <type>eighth</type>
                <stem default-y="5">up</stem>
                <beam number="1">end</beam>
            </note>
        </measure>
        <measure width="136" number="7">
            <note default-x="10">
                <pitch>
                    <step>B</step>
                    <octave>4</octave>
                </pitch>
                <duration>2</duration>
                <voice>1</voice>
                <type>quarter</type>
                <stem default-y="-55.5">down</stem>
            </note>
            <note default-x="48">
                <pitch>
                    <step>A</step>
                    <octave>4</octave>
                </pitch>
                <duration>3</duration>
                <voice>1</voice>
                <type>quarter</type>
                <dot/>
                <stem default-y="11">up</stem>
            </note>
            <note default-x="109">
                <pitch>
                    <step>B</step>
                    <octave>4</octave>
                </pitch>
                <duration>1</duration>
                <voice>1</voice>
                <type>eighth</type>
                <stem default-y="-55.5">down</stem>
            </note>
        </measure>
        <measure width="142" number="8">
            <note default-x="10">
                <pitch>
                    <step>A</step>
                    <octave>4</octave>
                </pitch>
                <duration>4</duration>
                <voice>1</voice>
                <type>half</type>
                <stem default-y="11">up</stem>
            </note>
            <note default-x="90">
                <pitch>
                    <step>E</step>
                    <octave>4</octave>
                </pitch>
                <duration>1</duration>
                <voice>1</voice>
                <type>eighth</type>
                <stem default-y="3">up</stem>
                <beam number="1">begin</beam>
            </note>
            <note default-x="115">
                <pitch>
                    <step>G</step>
                    <octave>4</octave>
                </pitch>
                <duration>1</duration>
                <voice>1</voice>
                <type>eighth</type>
                <stem default-y="5">up</stem>
                <beam number="1">end</beam>
            </note>
        </measure>
        <measure width="136" number="9">
            <note default-x="10">
                <pitch>
                    <step>A</step>
                    <octave>4</octave>
                </pitch>
                <duration>2</duration>
                <voice>1</voice>
                <type>quarter</type>
                <stem default-y="11">up</stem>
            </note>
            <note default-x="47">
                <pitch>
                    <step>G</step>
                    <octave>4</octave>
                </pitch>
                <duration>3</duration>
                <voice>1</voice>
                <type>quarter</type>
                <dot/>
                <stem default-y="6">up</stem>
            </note>
            <note default-x="107">
                <pitch>
                    <step>A</step>
                    <octave>4</octave>
                </pitch>
                <duration>1</duration>
                <voice>1</voice>
                <type>eighth</type>
                <stem default-y="11">up</stem>
            </note>
        </measure>
        <measure width="136" number="10">
            <harmony font-weight="bold" font-family="Opus Chords" default-y="12">
                <root>
                    <root-step>A</root-step>
                </root>
                <kind halign="left" text="7">dominant</kind>
            </harmony>
            <note default-x="10">
                <pitch>
                    <step>G</step>
                    <octave>4</octave>
                </pitch>
                <duration>2</duration>
                <voice>1</voice>
                <type>quarter</type>
                <stem default-y="6">up</stem>
            </note>
            <note default-x="51">
                <pitch>
                    <step>F</step>
                    <octave>4</octave>
                </pitch>
                <duration>2</duration>
                <voice>1</voice>
                <type>quarter</type>
                <stem default-y="1">up</stem>
            </note>
            <note default-x="93">
                <pitch>
                    <step>E</step>
                    <octave>4</octave>
                </pitch>
                <duration>2</duration>
                <voice>1</voice>
                <type>quarter</type>
                <stem default-y="-4">up</stem>
            </note>
        </measure>
        <measure width="129" number="11">
            <harmony font-weight="bold" font-family="Opus Chords" default-y="12">
                <root>
                    <root-step>D</root-step>
                </root>
                <kind halign="left" text="m">minor</kind>
            </harmony>
            <note default-x="10">
                <pitch>
                    <step>A</step>
                    <octave>4</octave>
                </pitch>
                <duration>6</duration>
                <tie type="start"/>
                <voice>1</voice>
                <type>half</type>
                <dot/>
                <stem default-y="11">up</stem>
                <notations>
                    <tied type="start"/>
                </notations>
            </note>
        </measure>
        <measure width="183" number="12">
            <print new-system="yes">
                <system-layout>
                    <system-margins>
                        <left-margin>0</left-margin>
                        <right-margin>1</right-margin>
                    </system-margins>
                    <system-distance>180</system-distance>
                </system-layout>
            </print>
            <note default-x="50">
                <pitch>
                    <step>A</step>
                    <octave>4</octave>
                </pitch>
                <duration>4</duration>
                <tie type="stop"/>
                <voice>1</voice>
                <type>half</type>
                <stem default-y="11">up</stem>
                <notations>
                    <tied type="stop"/>
                </notations>
            </note>
            <note default-x="131">
                <pitch>
                    <step>F</step>
                    <octave>4</octave>
                </pitch>
                <duration>1</duration>
                <voice>1</voice>
                <type>eighth</type>
                <stem default-y="8">up</stem>
                <beam number="1">begin</beam>
            </note>
            <note default-x="156">
                <pitch>
                    <step>A</step>
                    <octave>4</octave>
                </pitch>
                <duration>1</duration>
                <voice>1</voice>
                <type>eighth</type>
                <stem default-y="10">up</stem>
                <beam number="1">end</beam>
            </note>
        </measure>
        <measure width="138" number="13">
            <harmony font-weight="bold" font-family="Opus Chords" default-y="12">
                <root>
                    <root-step>G</root-step>
                </root>
                <kind halign="left" text="7">dominant</kind>
            </harmony>
            <note default-x="11">
                <pitch>
                    <step>C</step>
                    <octave>5</octave>
                </pitch>
                <duration>2</duration>
                <voice>1</voice>
                <type>quarter</type>
                <stem default-y="-50.5">down</stem>
            </note>
            <note default-x="52">
                <pitch>
                    <step>B</step>
                    <octave>4</octave>
                </pitch>
                <duration>2</duration>
                <voice>1</voice>
                <type>quarter</type>
                <stem default-y="-55.5">down</stem>
            </note>
            <note default-x="95">
                <pitch>
                    <step>C</step>
                    <octave>5</octave>
                </pitch>
                <duration>2</duration>
                <voice>1</voice>
                <type>quarter</type>
                <stem default-y="-50.5">down</stem>
            </note>
        </measure>
        <measure width="144" number="14">
            <note default-x="11">
                <pitch>
                    <step>B</step>
                    <octave>4</octave>
                </pitch>
                <duration>4</duration>
                <voice>1</voice>
                <type>half</type>
                <stem default-y="-55.5">down</stem>
            </note>
            <note default-x="92">
                <pitch>
                    <step>F</step>
                    <octave>4</octave>
                </pitch>
                <duration>1</duration>
                <voice>1</voice>
                <type>eighth</type>
                <stem default-y="3">up</stem>
                <beam number="1">begin</beam>
            </note>
            <note default-x="117">
                <pitch>
                    <step>G</step>
                    <octave>4</octave>
                </pitch>
                <duration>1</duration>
                <voice>1</voice>
                <type>eighth</type>
                <stem default-y="5">up</stem>
                <beam number="1">end</beam>
            </note>
        </measure>
        <measure width="138" number="15">
            <note default-x="10">
                <pitch>
                    <step>B</step>
                    <octave>4</octave>
                </pitch>
                <duration>2</duration>
                <voice>1</voice>
                <type>quarter</type>
                <stem default-y="-55.5">down</stem>
            </note>
            <note default-x="48">
                <pitch>
                    <step>A</step>
                    <octave>4</octave>
                </pitch>
                <duration>3</duration>
                <voice>1</voice>
                <type>quarter</type>
                <dot/>
                <stem default-y="11">up</stem>
            </note>
            <note default-x="110">
                <pitch>
                    <step>B</step>
                    <octave>4</octave>
                </pitch>
                <duration>1</duration>
                <voice>1</voice>
                <type>eighth</type>
                <stem default-y="-55.5">down</stem>
            </note>
        </measure>
        <measure width="143" number="16">
            <note default-x="10">
                <pitch>
                    <step>A</step>
                    <octave>4</octave>
                </pitch>
                <duration>4</duration>
                <voice>1</voice>
                <type>half</type>
                <stem default-y="11">up</stem>
            </note>
            <note default-x="92">
                <pitch>
                    <step>D</step>
                    <octave>4</octave>
                </pitch>
                <duration>1</duration>
                <voice>1</voice>
                <type>eighth</type>
                <stem default-y="-7.5">up</stem>
                <beam number="1">begin</beam>
            </note>
            <note default-x="116">
                <pitch>
                    <step>E</step>
                    <octave>4</octave>
                </pitch>
                <duration>1</duration>
                <voice>1</voice>
                <type>eighth</type>
                <stem default-y="-5">up</stem>
                <beam number="1">end</beam>
            </note>
        </measure>
        <measure width="138" number="17">
            <note default-x="10">
                <pitch>
                    <step>F</step>
                    <octave>4</octave>
                </pitch>
                <duration>2</duration>
                <voice>1</voice>
                <type>quarter</type>
                <stem default-y="1">up</stem>
            </note>
            <note default-x="53">
                <pitch>
                    <step>G</step>
                    <octave>4</octave>
                </pitch>
                <duration>2</duration>
                <voice>1</voice>
                <type>quarter</type>
                <stem default-y="6">up</stem>
            </note>
            <note default-x="94">
                <pitch>
                    <step>A</step>
                    <octave>4</octave>
                </pitch>
                <duration>2</duration>
                <voice>1</voice>
                <type>quarter</type>
                <stem default-y="11">up</stem>
            </note>
        </measure>
        <measure width="138" number="18">
            <harmony font-weight="bold" font-family="Opus Chords" default-y="12">
                <root>
                    <root-step>G</root-step>
                </root>
                <kind halign="left" use-symbols="yes">augmented</kind>
            </harmony>
            <note default-x="11">
                <pitch>
                    <step>C</step>
                    <octave>5</octave>
                </pitch>
                <duration>2</duration>
                <voice>1</voice>
                <type>quarter</type>
                <stem default-y="-50.5">down</stem>
            </note>
            <note default-x="48">
                <pitch>
                    <step>B</step>
                    <octave>4</octave>
                </pitch>
                <duration>3</duration>
                <voice>1</voice>
                <type>quarter</type>
                <dot/>
                <stem default-y="-55.5">down</stem>
            </note>
            <note default-x="108">
                <pitch>
                    <step>A</step>
                    <octave>4</octave>
                </pitch>
                <duration>1</duration>
                <voice>1</voice>
                <type>eighth</type>
                <stem default-y="11">up</stem>
            </note>
        </measure>
        <measure width="178" number="19">
            <print new-system="yes">
                <system-layout>
                    <system-margins>
                        <left-margin>1</left-margin>
                        <right-margin>0</right-margin>
                    </system-margins>
                    <system-distance>180</system-distance>
                </system-layout>
            </print>
            <harmony font-weight="bold" font-family="Opus Chords" default-y="13">
                <root>
                    <root-step>C</root-step>
                </root>
                <kind halign="left" text="">major</kind>
            </harmony>
            <note default-x="49">
                <pitch>
                    <step>E</step>
                    <octave>4</octave>
                </pitch>
                <duration>6</duration>
                <tie type="start"/>
                <voice>1</voice>
                <type>half</type>
                <dot/>
                <stem default-y="-4.5">up</stem>
                <notations>
                    <tied type="start"/>
                </notations>
            </note>
        </measure>
        <measure width="144" number="20">
            <note default-x="10">
                <pitch>
                    <step>E</step>
                    <octave>4</octave>
                </pitch>
                <duration>4</duration>
                <tie type="stop"/>
                <voice>1</voice>
                <type>half</type>
                <stem default-y="-4.5">up</stem>
                <notations>
                    <tied type="stop"/>
                </notations>
            </note>
            <note default-x="92">
                <pitch>
                    <step>G</step>
                    <octave>4</octave>
                </pitch>
                <duration>1</duration>
                <voice>1</voice>
                <type>eighth</type>
                <stem default-y="8">up</stem>
                <beam number="1">begin</beam>
            </note>
            <note default-x="117">
                <pitch>
                    <step>A</step>
                    <octave>4</octave>
                </pitch>
                <duration>1</duration>
                <voice>1</voice>
                <type>eighth</type>
                <stem default-y="10">up</stem>
                <beam number="1">end</beam>
            </note>
        </measure>
        <measure width="139" number="21">
            <harmony font-weight="bold" font-family="Opus Chords" default-y="13">
                <root>
                    <root-step>C</root-step>
                </root>
                <kind halign="left" text="7">dominant</kind>
            </harmony>
            <note default-x="24">
                <pitch>
                    <step>B</step>
                    <alter>-1</alter>
                    <octave>4</octave>
                </pitch>
                <duration>2</duration>
                <voice>1</voice>
                <type>quarter</type>
                <accidental>flat</accidental>
                <stem default-y="-55.5">down</stem>
            </note>
            <note default-x="62">
                <pitch>
                    <step>A</step>
                    <octave>4</octave>
                </pitch>
                <duration>2</duration>
                <voice>1</voice>
                <type>quarter</type>
                <stem default-y="11">up</stem>
            </note>
            <note default-x="100">
                <pitch>
                    <step>G</step>
                    <octave>4</octave>
                </pitch>
                <duration>2</duration>
                <voice>1</voice>
                <type>quarter</type>
                <stem default-y="6">up</stem>
            </note>
        </measure>
        <measure width="139" number="22">
            <note default-x="10">
                <pitch>
                    <step>C</step>
                    <octave>5</octave>
                </pitch>
                <duration>2</duration>
                <voice>1</voice>
                <type>quarter</type>
                <stem default-y="-50.5">down</stem>
            </note>
            <note default-x="49">
                <pitch>
                    <step>A</step>
                    <octave>4</octave>
                </pitch>
                <duration>3</duration>
                <voice>1</voice>
                <type>quarter</type>
                <dot/>
                <stem default-y="11">up</stem>
            </note>
            <note default-x="111">
                <pitch>
                    <step>C</step>
                    <octave>5</octave>
                </pitch>
                <duration>1</duration>
                <voice>1</voice>
                <type>eighth</type>
                <stem default-y="-50.5">down</stem>
            </note>
        </measure>
        <measure width="139" number="23">
            <harmony font-weight="bold" font-family="Opus Chords" default-y="13">
                <root>
                    <root-step>F</root-step>
                </root>
                <kind halign="left" text="">major</kind>
            </harmony>
            <note default-x="10">
                <pitch>
                    <step>G</step>
                    <octave>4</octave>
                </pitch>
                <duration>2</duration>
                <voice>1</voice>
                <type>quarter</type>
                <stem default-y="6">up</stem>
            </note>
            <note default-x="48">
                <pitch>
                    <step>F</step>
                    <octave>4</octave>
                </pitch>
                <duration>3</duration>
                <voice>1</voice>
                <type>quarter</type>
                <dot/>
                <stem default-y="0.5">up</stem>
            </note>
            <note default-x="109">
                <pitch>
                    <step>E</step>
                    <octave>4</octave>
                </pitch>
                <duration>1</duration>
                <voice>1</voice>
                <type>eighth</type>
                <stem default-y="-4.5">up</stem>
            </note>
        </measure>
        <measure width="144" number="24">
            <note default-x="10">
                <pitch>
                    <step>F</step>
                    <octave>4</octave>
                </pitch>
                <duration>4</duration>
                <voice>1</voice>
                <type>half</type>
                <stem default-y="0.5">up</stem>
            </note>
            <note default-x="92">
                <pitch>
                    <step>A</step>
                    <octave>4</octave>
                </pitch>
                <duration>1</duration>
                <voice>1</voice>
                <type>eighth</type>
                <stem default-y="13">up</stem>
                <beam number="1">begin</beam>
            </note>
            <note default-x="117">
                <pitch>
                    <step>B</step>
                    <octave>4</octave>
                </pitch>
                <duration>1</duration>
                <voice>1</voice>
                <type>eighth</type>
                <stem default-y="15">up</stem>
                <beam number="1">end</beam>
            </note>
        </measure>
        <measure width="139" number="25">
            <harmony font-weight="bold" font-family="Opus Chords" default-y="13">
                <root>
                    <root-step>D</root-step>
                </root>
                <kind halign="left" text="7">dominant</kind>
            </harmony>
            <note default-x="11">
                <pitch>
                    <step>C</step>
                    <octave>5</octave>
                </pitch>
                <duration>2</duration>
                <voice>1</voice>
                <type>quarter</type>
                <stem default-y="-50.5">down</stem>
            </note>
            <note default-x="53">
                <pitch>
                    <step>B</step>
                    <octave>4</octave>
                </pitch>
                <duration>2</duration>
                <voice>1</voice>
                <type>quarter</type>
                <stem default-y="-55.5">down</stem>
            </note>
            <note default-x="95">
                <pitch>
                    <step>A</step>
                    <octave>4</octave>
                </pitch>
                <duration>2</duration>
                <voice>1</voice>
                <type>quarter</type>
                <stem default-y="11">up</stem>
            </note>
        </measure>
        <measure width="201" number="26">
            <print new-system="yes">
                <system-layout>
                    <system-margins>
                        <left-margin>0</left-margin>
                        <right-margin>1</right-margin>
                    </system-margins>
                    <system-distance>180</system-distance>
                </system-layout>
            </print>
            <note default-x="50">
                <pitch>
                    <step>D</step>
                    <octave>5</octave>
                </pitch>
                <duration>2</duration>
                <voice>1</voice>
                <type>quarter</type>
                <stem default-y="-45.5">down</stem>
            </note>
            <note default-x="95">
                <pitch>
                    <step>B</step>
                    <octave>4</octave>
                </pitch>
                <duration>3</duration>
                <voice>1</voice>
                <type>quarter</type>
                <dot/>
                <stem default-y="-56">down</stem>
            </note>
            <note default-x="168">
                <pitch>
                    <step>D</step>
                    <octave>5</octave>
                </pitch>
                <duration>1</duration>
                <voice>1</voice>
                <type>eighth</type>
                <stem default-y="-45.5">down</stem>
            </note>
        </measure>
        <measure width="162" number="27">
            <harmony font-weight="bold" font-family="Opus Chords" default-y="11">
                <root>
                    <root-step>G</root-step>
                </root>
                <kind halign="left" text="7">dominant</kind>
            </harmony>
            <note default-x="10">
                <pitch>
                    <step>A</step>
                    <octave>4</octave>
                </pitch>
                <duration>2</duration>
                <voice>1</voice>
                <type>quarter</type>
                <stem default-y="11">up</stem>
            </note>
            <note default-x="60">
                <pitch>
                    <step>G</step>
                    <octave>4</octave>
                </pitch>
                <duration>2</duration>
                <voice>1</voice>
                <type>quarter</type>
                <stem default-y="6">up</stem>
            </note>
            <note default-x="110">
                <pitch>
                    <step>F</step>
                    <alter>1</alter>
                    <octave>4</octave>
                </pitch>
                <duration>2</duration>
                <voice>1</voice>
                <type>quarter</type>
                <accidental>sharp</accidental>
                <stem default-y="0.5">up</stem>
            </note>
        </measure>
        <measure width="168" number="28">
            <note default-x="10">
                <pitch>
                    <step>G</step>
                    <octave>4</octave>
                </pitch>
                <duration>4</duration>
                <voice>1</voice>
                <type>half</type>
                <stem default-y="6">up</stem>
            </note>
            <note default-x="107">
                <pitch>
                    <step>E</step>
                    <octave>4</octave>
                </pitch>
                <duration>1</duration>
                <voice>1</voice>
                <type>eighth</type>
                <stem default-y="2.5">up</stem>
                <beam number="1">begin</beam>
            </note>
            <note default-x="136">
                <pitch>
                    <step>G</step>
                    <octave>4</octave>
                </pitch>
                <duration>1</duration>
                <voice>1</voice>
                <type>eighth</type>
                <stem default-y="5">up</stem>
                <beam number="1">end</beam>
            </note>
        </measure>
        <measure width="162" number="29">
            <harmony font-weight="bold" font-family="Opus Chords" default-y="11">
                <root>
                    <root-step>C</root-step>
                </root>
                <kind halign="left" text="">major</kind>
            </harmony>
            <note default-x="11">
                <pitch>
                    <step>C</step>
                    <octave>5</octave>
                </pitch>
                <duration>2</duration>
                <voice>1</voice>
                <type>quarter</type>
                <stem default-y="-50.5">down</stem>
            </note>
            <note default-x="55">
                <pitch>
                    <step>B</step>
                    <octave>4</octave>
                </pitch>
                <duration>3</duration>
                <voice>1</voice>
                <type>quarter</type>
                <dot/>
                <stem default-y="-56">down</stem>
            </note>
            <note default-x="129">
                <pitch>
                    <step>C</step>
                    <octave>5</octave>
                </pitch>
                <duration>1</duration>
                <voice>1</voice>
                <type>eighth</type>
                <stem default-y="-50.5">down</stem>
            </note>
        </measure>
        <measure width="168" number="30">
            <note default-x="11">
                <pitch>
                    <step>B</step>
                    <octave>4</octave>
                </pitch>
                <duration>4</duration>
                <voice>1</voice>
                <type>half</type>
                <stem default-y="-56">down</stem>
            </note>
            <note default-x="107">
                <pitch>
                    <step>C</step>
                    <octave>5</octave>
                </pitch>
                <duration>1</duration>
                <voice>1</voice>
                <type>eighth</type>
                <stem default-y="-50">down</stem>
                <beam number="1">begin</beam>
            </note>
            <note default-x="137">
                <pitch>
                    <step>D</step>
                    <octave>5</octave>
                </pitch>
                <duration>1</duration>
                <voice>1</voice>
                <type>eighth</type>
                <stem default-y="-47.5">down</stem>
                <beam number="1">end</beam>
            </note>
        </measure>
        <measure width="162" number="31">
            <harmony font-weight="bold" font-family="Opus Chords" default-y="11">
                <root>
                    <root-step>D</root-step>
                </root>
                <kind halign="left" text="7">dominant</kind>
            </harmony>
            <note default-x="10">
                <pitch>
                    <step>E</step>
                    <octave>5</octave>
                </pitch>
                <duration>2</duration>
                <voice>1</voice>
                <type>quarter</type>
                <stem default-y="-40.5">down</stem>
            </note>
            <note default-x="55">
                <pitch>
                    <step>D</step>
                    <octave>5</octave>
                </pitch>
                <duration>3</duration>
                <voice>1</voice>
                <type>quarter</type>
                <dot/>
                <stem default-y="-45.5">down</stem>
            </note>
            <note default-x="129">
                <pitch>
                    <step>E</step>
                    <octave>5</octave>
                </pitch>
                <duration>1</duration>
                <voice>1</voice>
                <type>eighth</type>
                <stem default-y="-40.5">down</stem>
            </note>
        </measure>
        <measure width="179" number="32">
            <print new-system="yes">
                <system-layout>
                    <system-margins>
                        <left-margin>1</left-margin>
                        <right-margin>0</right-margin>
                    </system-margins>
                    <system-distance>180</system-distance>
                </system-layout>
            </print>
            <note default-x="50">
                <pitch>
                    <step>D</step>
                    <octave>5</octave>
                </pitch>
                <duration>4</duration>
                <voice>1</voice>
                <type>half</type>
                <stem default-y="-45.5">down</stem>
            </note>
            <note default-x="128">
                <pitch>
                    <step>A</step>
                    <octave>4</octave>
                </pitch>
                <duration>1</duration>
                <voice>1</voice>
                <type>eighth</type>
                <stem default-y="13">up</stem>
                <beam number="1">begin</beam>
            </note>
            <note default-x="152">
                <pitch>
                    <step>B</step>
                    <octave>4</octave>
                </pitch>
                <duration>1</duration>
                <voice>1</voice>
                <type>eighth</type>
                <stem default-y="15">up</stem>
                <beam number="1">end</beam>
            </note>
        </measure>
        <measure width="134" number="33">
            <harmony font-weight="bold" font-family="Opus Chords" default-y="11">
                <root>
                    <root-step>G</root-step>
                </root>
                <kind halign="left" text="7">dominant</kind>
            </harmony>
            <note default-x="10">
                <pitch>
                    <step>C</step>
                    <octave>5</octave>
                </pitch>
                <duration>2</duration>
                <voice>1</voice>
                <type>quarter</type>
                <stem default-y="-51">down</stem>
            </note>
            <note default-x="46">
                <pitch>
                    <step>B</step>
                    <octave>4</octave>
                </pitch>
                <duration>3</duration>
                <voice>1</voice>
                <type>quarter</type>
                <dot/>
                <stem default-y="-56">down</stem>
            </note>
            <note default-x="105">
                <pitch>
                    <step>A</step>
                    <octave>4</octave>
                </pitch>
                <duration>1</duration>
                <voice>1</voice>
                <type>eighth</type>
                <stem default-y="11">up</stem>
            </note>
        </measure>
        <measure width="134" number="34">
            <note default-x="11">
                <pitch>
                    <step>B</step>
                    <octave>4</octave>
                </pitch>
                <duration>2</duration>
                <voice>1</voice>
                <type>quarter</type>
                <stem default-y="-56">down</stem>
            </note>
            <note default-x="51">
                <pitch>
                    <step>C</step>
                    <octave>5</octave>
                </pitch>
                <duration>2</duration>
                <voice>1</voice>
                <type>quarter</type>
                <stem default-y="-51">down</stem>
            </note>
            <note default-x="92">
                <pitch>
                    <step>D</step>
                    <octave>5</octave>
                </pitch>
                <duration>2</duration>
                <voice>1</voice>
                <type>quarter</type>
                <stem default-y="-45.5">down</stem>
            </note>
        </measure>
        <measure width="150" number="35">
            <barline location="left">
                <ending font-size="8.2" font-family="Times New Roman" default-y="30" type="start" number="1" end-length="30"></ending>
            </barline>
            <harmony font-weight="bold" font-family="Opus Chords" default-y="11">
                <root>
                    <root-step>C</root-step>
                </root>
                <kind halign="left" text="">major</kind>
            </harmony>
            <note default-x="19">
                <pitch>
                    <step>C</step>
                    <octave>5</octave>
                </pitch>
                <duration>3</duration>
                <voice>1</voice>
                <type>quarter</type>
                <dot/>
                <stem default-y="-51">down</stem>
            </note>
            <note default-x="61">
                <pitch>
                    <step>B</step>
                    <octave>4</octave>
                </pitch>
                <duration>1</duration>
                <voice>1</voice>
                <type>eighth</type>
                <stem default-y="-56">down</stem>
            </note>
            <note default-x="87">
                <pitch>
                    <step>A</step>
                    <octave>4</octave>
                </pitch>
                <duration>1</duration>
                <voice>1</voice>
                <type>eighth</type>
                <stem default-y="10">up</stem>
                <beam number="1">begin</beam>
            </note>
            <note default-x="123">
                <pitch>
                    <step>A</step>
                    <alter>-1</alter>
                    <octave>4</octave>
                </pitch>
                <duration>1</duration>
                <voice>1</voice>
                <type>eighth</type>
                <accidental>flat</accidental>
                <stem default-y="10">up</stem>
                <beam number="1">end</beam>
            </note>
        </measure>
        <measure width="159" number="36">
            <harmony font-weight="bold" font-family="Opus Chords" default-y="11">
                <root>
                    <root-step>G</root-step>
                </root>
                <kind halign="left" text="7">dominant</kind>
            </harmony>
            <note default-x="10">
                <pitch>
                    <step>G</step>
                    <octave>4</octave>
                </pitch>
                <duration>4</duration>
                <voice>1</voice>
                <type>half</type>
                <stem default-y="5.5">up</stem>
            </note>
            <note default-x="89">
                <pitch>
                    <step>E</step>
                    <octave>4</octave>
                </pitch>
                <duration>1</duration>
                <voice>1</voice>
                <type>eighth</type>
                <stem default-y="2.5">up</stem>
                <beam number="1">begin</beam>
            </note>
            <note default-x="114">
                <pitch>
                    <step>G</step>
                    <octave>4</octave>
                </pitch>
                <duration>1</duration>
                <voice>1</voice>
                <type>eighth</type>
                <stem default-y="5">up</stem>
                <beam number="1">end</beam>
            </note>
            <barline location="right">
                <bar-style>light-heavy</bar-style>
                <ending type="stop" number="1"></ending>
                <repeat direction="backward"/>
            </barline>
        </measure>
        <measure width="132" number="37">
            <barline location="left">
                <ending font-size="8.2" font-family="Times New Roman" default-y="30" type="start" number="2" end-length="30"></ending>
            </barline>
            <harmony font-weight="bold" font-family="Opus Chords" default-y="11">
                <root>
                    <root-step>C</root-step>
                </root>
                <kind halign="left" text="">major</kind>
            </harmony>
            <note default-x="18">
                <pitch>
                    <step>C</step>
                    <octave>5</octave>
                </pitch>
                <duration>6</duration>
                <tie type="start"/>
                <voice>1</voice>
                <type>half</type>
                <dot/>
                <stem default-y="-51">down</stem>
                <notations>
                    <tied type="start"/>
                </notations>
            </note>
            <barline location="right">
                <ending type="stop" number="2"></ending>
            </barline>
        </measure>
        <measure width="135" number="38">
            <note default-x="11">
                <pitch>
                    <step>C</step>
                    <octave>5</octave>
                </pitch>
                <duration>2</duration>
                <tie type="stop"/>
                <voice>1</voice>
                <type>quarter</type>
                <stem default-y="-51">down</stem>
                <notations>
                    <tied type="stop"/>
                </notations>
            </note>
            <note default-x="49">
                <rest/>
                <duration>2</duration>
                <voice>1</voice>
                <type>quarter</type>
            </note>
            <forward>
                <duration>2</duration>
                <voice>1</voice>
            </forward>
            <barline location="right">
                <bar-style>light-heavy</bar-style>
            </barline>
        </measure>
    </part>
</score-partwise>
