<?xml version="1.0" encoding="UTF-8"?>
<!DOCTYPE score-partwise PUBLIC "-//Recordare//DTD MusicXML 2.0 Partwise//EN" "http://www.musicxml.org/dtds/partwise.dtd">
<score-partwise version="2.0">
    <work>
        <work-number></work-number>
        <work-title></work-title>
    </work>
    <movement-number></movement-number>
    <movement-title>Ó, Nagyasszony, nemzetünk reménye</movement-title>
    <identification>
        <creator type="composer">Hungarian song</creator>
        <creator type="poet"></creator>
        <rights>Public Domain</rights>
        <encoding>
            <software>MuseScore 0.9.6.2</software>
            <encoding-date>2010-10-19</encoding-date>
            <software>ProxyMusic 2.0 c</software>
        </encoding>
        <source>http://wikifonia.org/node/7953/revisions/10955/view</source>
    </identification>
    <defaults>
        <scaling>
            <millimeters>7.056</millimeters>
            <tenths>40</tenths>
        </scaling>
        <page-layout>
            <page-height>1683.67</page-height>
            <page-width>1190.48</page-width>
            <page-margins type="even">
                <left-margin>56.6893</left-margin>
                <right-margin>56.6893</right-margin>
                <top-margin>56.6893</top-margin>
                <bottom-margin>113.379</bottom-margin>
            </page-margins>
            <page-margins type="odd">
                <left-margin>56.6893</left-margin>
                <right-margin>56.6893</right-margin>
                <top-margin>56.6893</top-margin>
                <bottom-margin>113.379</bottom-margin>
            </page-margins>
        </page-layout>
    </defaults>
    <part-list>
        <score-part id="P1">
            <part-name></part-name>
            <score-instrument id="P1-I3">
                <instrument-name></instrument-name>
            </score-instrument>
            <midi-instrument id="P1-I3">
                <midi-channel>1</midi-channel>
                <midi-program>53</midi-program>
            </midi-instrument>
        </score-part>
    </part-list>
    <part id="P1">
        <measure width="243.39" number="1">
            <print>
                <system-layout>
                    <system-margins>
                        <left-margin>2.50</left-margin>
                        <right-margin>-0.00</right-margin>
                    </system-margins>
                    <top-system-distance>70.00</top-system-distance>
                </system-layout>
            </print>
            <attributes>
                <divisions>4</divisions>
                <key>
                    <fifths>-3</fifths>
                    <mode>major</mode>
                </key>
                <time>
                    <beats>4</beats>
                    <beat-type>4</beat-type>
                </time>
                <clef>
                    <sign>G</sign>
                    <line>2</line>
                </clef>
            </attributes>
            <note>
                <rest/>
                <duration>12</duration>
                <voice>1</voice>
                <type>half</type>
                <dot/>
            </note>
            <note default-y="-50.00" default-x="152.51">
                <pitch>
                    <step>C</step>
                    <octave>4</octave>
                </pitch>
                <duration>3</duration>
                <voice>1</voice>
                <type>eighth</type>
                <dot/>
                <stem>up</stem>
                <beam number="1">begin</beam>
                <lyric number="1">
                    <syllabic>single</syllabic>
                    <text>Ó,</text>
                </lyric>
            </note>
            <note default-y="-50.00" default-x="204.98">
                <pitch>
                    <step>C</step>
                    <octave>4</octave>
                </pitch>
                <duration>1</duration>
                <voice>1</voice>
                <type>16th</type>
                <stem>up</stem>
                <beam number="1">end</beam>
                <beam number="2">backward hook</beam>
                <lyric number="1">
                    <syllabic>begin</syllabic>
                    <text>Nagy</text>
                </lyric>
            </note>
        </measure>
        <measure width="282.89" number="2">
            <harmony print-frame="no">
                <root>
                    <root-step>G</root-step>
                </root>
                <kind text="">major</kind>
            </harmony>
            <note default-y="-30.00" default-x="19.88">
                <pitch>
                    <step>G</step>
                    <octave>4</octave>
                </pitch>
                <duration>4</duration>
                <voice>1</voice>
                <type>quarter</type>
                <stem>up</stem>
                <lyric number="1">
                    <syllabic>middle</syllabic>
                    <text>asz</text>
                </lyric>
            </note>
            <note default-y="-35.00" default-x="75.30">
                <pitch>
                    <step>F</step>
                    <octave>4</octave>
                </pitch>
                <duration>4</duration>
                <voice>1</voice>
                <type>quarter</type>
                <stem>up</stem>
                <lyric number="1">
                    <syllabic>end</syllabic>
                    <text>szony,</text>
                </lyric>
            </note>
            <note default-y="-40.00" default-x="130.73">
                <pitch>
                    <step>E</step>
                    <alter>-1</alter>
                    <octave>4</octave>
                </pitch>
                <duration>2</duration>
                <voice>1</voice>
                <type>eighth</type>
                <stem>up</stem>
                <beam number="1">begin</beam>
                <lyric number="1">
                    <syllabic>begin</syllabic>
                    <text>nem</text>
                </lyric>
            </note>
            <note default-y="-45.00" default-x="167.90">
                <pitch>
                    <step>D</step>
                    <octave>4</octave>
                </pitch>
                <duration>2</duration>
                <voice>1</voice>
                <type>eighth</type>
                <stem>up</stem>
                <beam number="1">continue</beam>
                <lyric number="1">
                    <syllabic>middle</syllabic>
                    <text>ze</text>
                </lyric>
            </note>
            <note default-y="-30.00" default-x="208.84">
                <pitch>
                    <step>G</step>
                    <octave>4</octave>
                </pitch>
                <duration>2</duration>
                <voice>1</voice>
                <type>eighth</type>
                <stem>up</stem>
                <beam number="1">continue</beam>
                <lyric number="1">
                    <syllabic>end</syllabic>
                    <text>tünk,</text>
                </lyric>
            </note>
            <note default-y="-30.00" default-x="246.65">
                <pitch>
                    <step>G</step>
                    <octave>4</octave>
                </pitch>
                <duration>2</duration>
                <voice>1</voice>
                <type>eighth</type>
                <stem>up</stem>
                <beam number="1">end</beam>
                <lyric number="1">
                    <syllabic>begin</syllabic>
                    <text>re</text>
                </lyric>
            </note>
        </measure>
        <measure width="180.15" number="3">
            <harmony print-frame="no">
                <root>
                    <root-step>C</root-step>
                </root>
                <kind text="m">minor</kind>
            </harmony>
            <note default-y="-50.00" default-x="18.53">
                <pitch>
                    <step>C</step>
                    <octave>4</octave>
                </pitch>
                <duration>4</duration>
                <voice>1</voice>
                <type>quarter</type>
                <stem>up</stem>
                <lyric number="1">
                    <syllabic>middle</syllabic>
                    <text>mé</text>
                </lyric>
            </note>
            <note default-y="-50.00" default-x="59.69">
                <pitch>
                    <step>C</step>
                    <octave>4</octave>
                </pitch>
                <duration>8</duration>
                <voice>1</voice>
                <type>half</type>
                <stem>up</stem>
                <lyric number="1">
                    <syllabic>end</syllabic>
                    <text>nye,</text>
                </lyric>
            </note>
            <note default-y="-30.00" default-x="116.28">
                <pitch>
                    <step>G</step>
                    <octave>4</octave>
                </pitch>
                <duration>2</duration>
                <voice>1</voice>
                <type>eighth</type>
                <stem>up</stem>
                <beam number="1">begin</beam>
                <lyric number="1">
                    <syllabic>single</syllabic>
                    <text>rád</text>
                </lyric>
            </note>
            <note default-y="-25.00" default-x="152.83">
                <pitch>
                    <step>A</step>
                    <alter>-1</alter>
                    <octave>4</octave>
                </pitch>
                <duration>2</duration>
                <voice>1</voice>
                <type>eighth</type>
                <stem>up</stem>
                <beam number="1">end</beam>
                <lyric number="1">
                    <syllabic>begin</syllabic>
                    <text>sze</text>
                </lyric>
            </note>
        </measure>
        <measure width="280.09" number="4">
            <harmony print-frame="no">
                <root>
                    <root-step>G</root-step>
                </root>
                <kind text="">major</kind>
            </harmony>
            <note default-y="-20.00" default-x="21.09">
                <pitch>
                    <step>B</step>
                    <alter>-1</alter>
                    <octave>4</octave>
                </pitch>
                <duration>4</duration>
                <voice>1</voice>
                <type>quarter</type>
                <stem>down</stem>
                <lyric number="1">
                    <syllabic>middle</syllabic>
                    <text>gez</text>
                </lyric>
            </note>
            <note default-y="-20.00" default-x="72.21">
                <pitch>
                    <step>B</step>
                    <alter>-1</alter>
                    <octave>4</octave>
                </pitch>
                <duration>4</duration>
                <voice>1</voice>
                <type>quarter</type>
                <stem>down</stem>
                <lyric number="1">
                    <syllabic>end</syllabic>
                    <text>zük</text>
                </lyric>
            </note>
            <harmony print-frame="no">
                <root>
                    <root-step>F</root-step>
                </root>
                <kind text="m">minor</kind>
            </harmony>
            <note default-y="-20.00" default-x="125.56">
                <pitch>
                    <step>B</step>
                    <alter>-1</alter>
                    <octave>4</octave>
                </pitch>
                <duration>2</duration>
                <voice>1</voice>
                <type>eighth</type>
                <stem>up</stem>
                <beam number="1">begin</beam>
                <lyric number="1">
                    <syllabic>begin</syllabic>
                    <text>könny</text>
                </lyric>
            </note>
            <note default-y="-35.00" default-x="176.30">
                <pitch>
                    <step>F</step>
                    <octave>4</octave>
                </pitch>
                <duration>2</duration>
                <voice>1</voice>
                <type>eighth</type>
                <stem>up</stem>
                <beam number="1">continue</beam>
                <lyric number="1">
                    <syllabic>end</syllabic>
                    <text>telt</text>
                </lyric>
            </note>
            <note default-y="-30.00" default-x="212.09">
                <pitch>
                    <step>G</step>
                    <octave>4</octave>
                </pitch>
                <duration>2</duration>
                <voice>1</voice>
                <type>eighth</type>
                <stem>up</stem>
                <beam number="1">continue</beam>
                <lyric number="1">
                    <syllabic>begin</syllabic>
                    <text>sze</text>
                </lyric>
            </note>
            <note default-y="-25.00" default-x="246.55">
                <pitch>
                    <step>A</step>
                    <alter>-1</alter>
                    <octave>4</octave>
                </pitch>
                <duration>2</duration>
                <voice>1</voice>
                <type>eighth</type>
                <stem>up</stem>
                <beam number="1">end</beam>
                <lyric number="1">
                    <syllabic>middle</syllabic>
                    <text>me</text>
                </lyric>
            </note>
        </measure>
        <measure width="88.07" number="5">
            <harmony print-frame="no">
                <root>
                    <root-step>G</root-step>
                </root>
                <kind text="">major</kind>
            </harmony>
            <note default-y="-30.00" default-x="22.79">
                <pitch>
                    <step>G</step>
                    <octave>4</octave>
                </pitch>
                <duration>12</duration>
                <voice>1</voice>
                <type>half</type>
                <dot/>
                <stem>up</stem>
                <lyric number="1">
                    <syllabic>end</syllabic>
                    <text>ink!</text>
                </lyric>
            </note>
            <note>
                <rest/>
                <duration>4</duration>
                <voice>1</voice>
                <type>quarter</type>
            </note>
        </measure>
        <measure width="230.43" number="6">
            <print new-system="yes">
                <system-layout>
                    <system-margins>
                        <left-margin>2.50</left-margin>
                        <right-margin>-0.00</right-margin>
                    </system-margins>
                    <system-distance>104.48</system-distance>
                </system-layout>
            </print>
            <note>
                <rest/>
                <duration>12</duration>
                <voice>1</voice>
                <type>half</type>
                <dot/>
            </note>
            <note default-y="-30.00" default-x="160.43">
                <pitch>
                    <step>G</step>
                    <octave>4</octave>
                </pitch>
                <duration>2</duration>
                <voice>1</voice>
                <type>eighth</type>
                <stem>up</stem>
                <beam number="1">begin</beam>
                <lyric number="1">
                    <syllabic>begin</syllabic>
                    <text>Vesz</text>
                </lyric>
            </note>
            <note default-y="-20.00" default-x="198.22">
                <pitch>
                    <step>B</step>
                    <octave>4</octave>
                </pitch>
                <duration>2</duration>
                <voice>1</voice>
                <type>eighth</type>
                <accidental>natural</accidental>
                <stem>up</stem>
                <beam number="1">end</beam>
                <lyric number="1">
                    <syllabic>end</syllabic>
                    <text>ni</text>
                </lyric>
            </note>
        </measure>
        <measure width="262.49" number="7">
            <harmony print-frame="no">
                <root>
                    <root-step>C</root-step>
                </root>
                <kind text="m">minor</kind>
            </harmony>
            <note default-y="-15.00" default-x="15.14">
                <pitch>
                    <step>C</step>
                    <octave>5</octave>
                </pitch>
                <duration>4</duration>
                <voice>1</voice>
                <type>quarter</type>
                <stem>down</stem>
                <lyric number="1">
                    <syllabic>begin</syllabic>
                    <text>in</text>
                </lyric>
            </note>
            <note default-y="-30.00" default-x="68.94">
                <pitch>
                    <step>G</step>
                    <octave>4</octave>
                </pitch>
                <duration>4</duration>
                <voice>1</voice>
                <type>quarter</type>
                <stem>up</stem>
                <lyric number="1">
                    <syllabic>end</syllabic>
                    <text>dult</text>
                </lyric>
            </note>
            <harmony print-frame="no">
                <root>
                    <root-step>F</root-step>
                </root>
                <kind text="m">minor</kind>
            </harmony>
            <note default-y="-35.00" default-x="122.74">
                <pitch>
                    <step>F</step>
                    <octave>4</octave>
                </pitch>
                <duration>2</duration>
                <voice>1</voice>
                <type>eighth</type>
                <stem>up</stem>
                <beam number="1">begin</beam>
                <lyric number="1">
                    <syllabic>begin</syllabic>
                    <text>Ist</text>
                </lyric>
            </note>
            <note default-y="-25.00" default-x="158.83">
                <pitch>
                    <step>A</step>
                    <alter>-1</alter>
                    <octave>4</octave>
                </pitch>
                <duration>2</duration>
                <voice>1</voice>
                <type>eighth</type>
                <stem>up</stem>
                <beam number="1">continue</beam>
                <lyric number="1">
                    <syllabic>end</syllabic>
                    <text>ván</text>
                </lyric>
            </note>
            <note default-y="-30.00" default-x="192.45">
                <pitch>
                    <step>G</step>
                    <octave>4</octave>
                </pitch>
                <duration>2</duration>
                <voice>1</voice>
                <type>eighth</type>
                <stem>up</stem>
                <beam number="1">continue</beam>
                <lyric number="1">
                    <syllabic>begin</syllabic>
                    <text>ö</text>
                </lyric>
            </note>
            <note default-y="-35.00" default-x="227.26">
                <pitch>
                    <step>F</step>
                    <octave>4</octave>
                </pitch>
                <duration>2</duration>
                <voice>1</voice>
                <type>eighth</type>
                <stem>up</stem>
                <beam number="1">end</beam>
                <lyric number="1">
                    <syllabic>middle</syllabic>
                    <text>rök</text>
                </lyric>
            </note>
        </measure>
        <measure width="199.85" number="8">
            <harmony print-frame="no">
                <root>
                    <root-step>G</root-step>
                </root>
                <kind text="">major</kind>
            </harmony>
            <note default-y="-40.00" default-x="14.25">
                <pitch>
                    <step>E</step>
                    <alter>-1</alter>
                    <octave>4</octave>
                </pitch>
                <duration>4</duration>
                <voice>1</voice>
                <type>quarter</type>
                <stem>up</stem>
                <lyric number="1">
                    <syllabic>middle</syllabic>
                    <text>sé</text>
                </lyric>
            </note>
            <note default-y="-45.00" default-x="61.57">
                <pitch>
                    <step>D</step>
                    <octave>4</octave>
                </pitch>
                <duration>8</duration>
                <voice>1</voice>
                <type>half</type>
                <stem>up</stem>
                <lyric number="1">
                    <syllabic>end</syllabic>
                    <text>ge,</text>
                </lyric>
            </note>
            <note default-y="-35.00" default-x="126.63">
                <pitch>
                    <step>F</step>
                    <octave>4</octave>
                </pitch>
                <duration>2</duration>
                <voice>1</voice>
                <type>eighth</type>
                <stem>up</stem>
                <beam number="1">begin</beam>
                <lyric number="1">
                    <syllabic>single</syllabic>
                    <text>szép</text>
                </lyric>
            </note>
            <note default-y="-25.00" default-x="168.68">
                <pitch>
                    <step>A</step>
                    <alter>-1</alter>
                    <octave>4</octave>
                </pitch>
                <duration>2</duration>
                <voice>1</voice>
                <type>eighth</type>
                <stem>up</stem>
                <beam number="1">end</beam>
                <lyric number="1">
                    <syllabic>begin</syllabic>
                    <text>ker</text>
                </lyric>
            </note>
        </measure>
        <measure width="268.93" number="9">
            <harmony print-frame="no">
                <root>
                    <root-step>C</root-step>
                </root>
                <kind text="m">minor</kind>
            </harmony>
            <note default-y="-30.00" default-x="20.02">
                <pitch>
                    <step>G</step>
                    <octave>4</octave>
                </pitch>
                <duration>4</duration>
                <voice>1</voice>
                <type>quarter</type>
                <stem>up</stem>
                <lyric number="1">
                    <syllabic>middle</syllabic>
                    <text>ted</text>
                </lyric>
            </note>
            <note default-y="-30.00" default-x="71.10">
                <pitch>
                    <step>G</step>
                    <octave>4</octave>
                </pitch>
                <duration>4</duration>
                <voice>1</voice>
                <type>quarter</type>
                <stem>up</stem>
                <lyric number="1">
                    <syllabic>end</syllabic>
                    <text>ben</text>
                </lyric>
            </note>
            <harmony print-frame="no">
                <root>
                    <root-step>G</root-step>
                </root>
                <kind text="">major</kind>
            </harmony>
            <note default-y="-45.00" default-x="122.18">
                <pitch>
                    <step>D</step>
                    <octave>4</octave>
                </pitch>
                <duration>3</duration>
                <voice>1</voice>
                <type>eighth</type>
                <dot/>
                <stem>up</stem>
                <beam number="1">begin</beam>
                <lyric number="1">
                    <syllabic>single</syllabic>
                    <text>ős</text>
                </lyric>
            </note>
            <note default-y="-35.00" default-x="167.47">
                <pitch>
                    <step>F</step>
                    <octave>4</octave>
                </pitch>
                <duration>1</duration>
                <voice>1</voice>
                <type>16th</type>
                <stem>up</stem>
                <beam number="1">continue</beam>
                <beam number="2">forward hook</beam>
                <lyric number="1">
                    <syllabic>begin</syllabic>
                    <text>e</text>
                </lyric>
            </note>
            <note default-y="-40.00" default-x="194.67">
                <pitch>
                    <step>E</step>
                    <alter>-1</alter>
                    <octave>4</octave>
                </pitch>
                <duration>3</duration>
                <voice>1</voice>
                <type>eighth</type>
                <dot/>
                <stem>up</stem>
                <beam number="1">continue</beam>
                <lyric number="1">
                    <syllabic>middle</syllabic>
                    <text>ré</text>
                </lyric>
            </note>
            <note default-y="-45.00" default-x="239.96">
                <pitch>
                    <step>D</step>
                    <octave>4</octave>
                </pitch>
                <duration>1</duration>
                <voice>1</voice>
                <type>16th</type>
                <stem>up</stem>
                <beam number="1">end</beam>
                <beam number="2">backward hook</beam>
                <lyric number="1">
                    <syllabic>middle</syllabic>
                    <text>nye</text>
                </lyric>
            </note>
        </measure>
        <measure width="112.90" number="10">
            <harmony print-frame="no">
                <root>
                    <root-step>C</root-step>
                </root>
                <kind text="m">minor</kind>
            </harmony>
            <note default-y="-50.00" default-x="21.88">
                <pitch>
                    <step>C</step>
                    <octave>4</octave>
                </pitch>
                <duration>12</duration>
                <voice>1</voice>
                <type>half</type>
                <dot/>
                <stem>up</stem>
                <lyric number="1">
                    <syllabic>end</syllabic>
                    <text>ink.</text>
                </lyric>
            </note>
            <note>
                <rest/>
                <duration>4</duration>
                <voice>1</voice>
                <type>quarter</type>
            </note>
        </measure>
        <measure width="230.03" number="11">
            <print new-system="yes">
                <system-layout>
                    <system-margins>
                        <left-margin>2.50</left-margin>
                        <right-margin>-0.00</right-margin>
                    </system-margins>
                    <system-distance>104.48</system-distance>
                </system-layout>
            </print>
            <note>
                <rest/>
                <duration>12</duration>
                <voice>1</voice>
                <type>half</type>
                <dot/>
            </note>
            <note default-y="-30.00" default-x="157.78">
                <pitch>
                    <step>G</step>
                    <octave>4</octave>
                </pitch>
                <duration>3</duration>
                <voice>1</voice>
                <type>eighth</type>
                <dot/>
                <stem>up</stem>
                <beam number="1">begin</beam>
                <lyric number="1">
                    <syllabic>single</syllabic>
                    <text>Szállj</text>
                </lyric>
            </note>
            <note default-y="-30.00" default-x="204.49">
                <pitch>
                    <step>G</step>
                    <octave>4</octave>
                </pitch>
                <duration>1</duration>
                <voice>1</voice>
                <type>16th</type>
                <stem>up</stem>
                <beam number="1">end</beam>
                <beam number="2">backward hook</beam>
                <lyric number="1">
                    <syllabic>begin</syllabic>
                    <text>kö</text>
                </lyric>
            </note>
        </measure>
        <measure width="244.72" number="12">
            <note default-y="-5.00" default-x="28.58">
                <pitch>
                    <step>E</step>
                    <alter>-1</alter>
                    <octave>5</octave>
                </pitch>
                <duration>6</duration>
                <voice>1</voice>
                <type>quarter</type>
                <dot/>
                <stem>down</stem>
                <lyric number="1">
                    <syllabic>end</syllabic>
                    <text>zénk,</text>
                </lyric>
            </note>
            <note default-y="-10.00" default-x="88.20">
                <pitch>
                    <step>D</step>
                    <octave>5</octave>
                </pitch>
                <duration>2</duration>
                <voice>1</voice>
                <type>eighth</type>
                <stem>down</stem>
                <lyric number="1">
                    <syllabic>single</syllabic>
                    <text>és</text>
                </lyric>
            </note>
            <harmony print-frame="no">
                <root>
                    <root-step>F</root-step>
                </root>
                <kind text="m">minor</kind>
            </harmony>
            <note default-y="-15.00" default-x="120.89">
                <pitch>
                    <step>C</step>
                    <octave>5</octave>
                </pitch>
                <duration>2</duration>
                <voice>1</voice>
                <type>eighth</type>
                <stem>down</stem>
                <beam number="1">begin</beam>
                <lyric number="1">
                    <syllabic>single</syllabic>
                    <text>sírj</text>
                </lyric>
            </note>
            <note default-y="-10.00" default-x="151.44">
                <pitch>
                    <step>D</step>
                    <octave>5</octave>
                </pitch>
                <duration>2</duration>
                <voice>1</voice>
                <type>eighth</type>
                <stem>down</stem>
                <beam number="1">continue</beam>
                <lyric number="1">
                    <syllabic>single</syllabic>
                    <text>te</text>
                </lyric>
            </note>
            <note default-y="-15.00" default-x="182.00">
                <pitch>
                    <step>C</step>
                    <octave>5</octave>
                </pitch>
                <duration>2</duration>
                <voice>1</voice>
                <type>eighth</type>
                <stem>down</stem>
                <beam number="1">continue</beam>
                <lyric number="1">
                    <syllabic>single</syllabic>
                    <text>is</text>
                </lyric>
            </note>
            <note default-y="-25.00" default-x="212.56">
                <pitch>
                    <step>A</step>
                    <alter>-1</alter>
                    <octave>4</octave>
                </pitch>
                <duration>2</duration>
                <voice>1</voice>
                <type>eighth</type>
                <stem>down</stem>
                <beam number="1">end</beam>
                <lyric number="1">
                    <syllabic>begin</syllabic>
                    <text>ve</text>
                </lyric>
            </note>
        </measure>
        <measure width="171.83" number="13">
            <note default-y="-35.00" default-x="27.38">
                <pitch>
                    <step>F</step>
                    <octave>4</octave>
                </pitch>
                <duration>12</duration>
                <voice>1</voice>
                <type>half</type>
                <dot/>
                <stem>up</stem>
                <lyric number="1">
                    <syllabic>end</syllabic>
                    <text>lünk,</text>
                </lyric>
            </note>
            <note default-y="-35.00" default-x="99.53">
                <pitch>
                    <step>F</step>
                    <octave>4</octave>
                </pitch>
                <duration>2</duration>
                <voice>1</voice>
                <type>eighth</type>
                <stem>up</stem>
                <beam number="1">begin</beam>
                <lyric number="1">
                    <syllabic>begin</syllabic>
                    <text>ví</text>
                </lyric>
            </note>
            <note default-y="-35.00" default-x="138.46">
                <pitch>
                    <step>F</step>
                    <alter>1</alter>
                    <octave>4</octave>
                </pitch>
                <duration>2</duration>
                <voice>1</voice>
                <type>eighth</type>
                <accidental>sharp</accidental>
                <stem>up</stem>
                <beam number="1">end</beam>
                <lyric number="1">
                    <syllabic>middle</syllabic>
                    <text>gasz</text>
                </lyric>
            </note>
        </measure>
        <measure width="316.36" number="14">
            <harmony print-frame="no">
                <root>
                    <root-step>C</root-step>
                </root>
                <kind text="m">minor</kind>
            </harmony>
            <note default-y="-30.00" default-x="24.31">
                <pitch>
                    <step>G</step>
                    <octave>4</octave>
                </pitch>
                <duration>4</duration>
                <voice>1</voice>
                <type>quarter</type>
                <stem>up</stem>
                <lyric number="1">
                    <syllabic>end</syllabic>
                    <text>tald,</text>
                </lyric>
            </note>
            <note default-y="-30.00" default-x="78.75">
                <pitch>
                    <step>G</step>
                    <octave>4</octave>
                </pitch>
                <duration>4</duration>
                <voice>1</voice>
                <type>quarter</type>
                <stem>up</stem>
                <lyric number="1">
                    <syllabic>single</syllabic>
                    <text>és</text>
                </lyric>
            </note>
            <harmony print-frame="no">
                <root>
                    <root-step>G</root-step>
                </root>
                <kind text="">major</kind>
            </harmony>
            <note default-y="-45.00" default-x="133.20">
                <pitch>
                    <step>D</step>
                    <octave>4</octave>
                </pitch>
                <duration>2</duration>
                <voice>1</voice>
                <type>eighth</type>
                <stem>up</stem>
                <beam number="1">begin</beam>
                <lyric number="1">
                    <syllabic>single</syllabic>
                    <text>mentsd</text>
                </lyric>
            </note>
            <note default-y="-35.00" default-x="193.87">
                <pitch>
                    <step>F</step>
                    <octave>4</octave>
                </pitch>
                <duration>2</duration>
                <voice>1</voice>
                <type>eighth</type>
                <stem>up</stem>
                <beam number="1">continue</beam>
                <lyric number="1">
                    <syllabic>single</syllabic>
                    <text>meg</text>
                </lyric>
            </note>
            <note default-y="-40.00" default-x="241.72">
                <pitch>
                    <step>E</step>
                    <alter>-1</alter>
                    <octave>4</octave>
                </pitch>
                <duration>3</duration>
                <voice>1</voice>
                <type>eighth</type>
                <dot/>
                <stem>up</stem>
                <beam number="1">continue</beam>
                <lyric number="1">
                    <syllabic>begin</syllabic>
                    <text>nem</text>
                </lyric>
            </note>
            <note default-y="-45.00" default-x="290.01">
                <pitch>
                    <step>D</step>
                    <octave>4</octave>
                </pitch>
                <duration>1</duration>
                <voice>1</voice>
                <type>16th</type>
                <stem>up</stem>
                <beam number="1">end</beam>
                <beam number="2">backward hook</beam>
                <lyric number="1">
                    <syllabic>middle</syllabic>
                    <text>ze</text>
                </lyric>
            </note>
        </measure>
        <measure width="111.66" number="15">
            <harmony print-frame="no">
                <root>
                    <root-step>C</root-step>
                </root>
                <kind text="m">minor</kind>
            </harmony>
            <note default-y="-50.00" default-x="28.29">
                <pitch>
                    <step>C</step>
                    <octave>4</octave>
                </pitch>
                <duration>12</duration>
                <voice>1</voice>
                <type>half</type>
                <dot/>
                <stem>up</stem>
                <lyric number="1">
                    <syllabic>end</syllabic>
                    <text>tünk!</text>
                </lyric>
            </note>
            <note>
                <rest/>
                <duration>4</duration>
                <voice>1</voice>
                <type>quarter</type>
            </note>
        </measure>
        <measure width="228.83" number="16">
            <print new-system="yes">
                <system-layout>
                    <system-margins>
                        <left-margin>2.50</left-margin>
                        <right-margin>-0.00</right-margin>
                    </system-margins>
                    <system-distance>104.48</system-distance>
                </system-layout>
            </print>
            <note>
                <rest/>
                <duration>12</duration>
                <voice>1</voice>
                <type>half</type>
                <dot/>
            </note>
            <note default-y="-30.00" default-x="157.16">
                <pitch>
                    <step>G</step>
                    <octave>4</octave>
                </pitch>
                <duration>3</duration>
                <voice>1</voice>
                <type>eighth</type>
                <dot/>
                <stem>up</stem>
                <beam number="1">begin</beam>
                <lyric number="1">
                    <syllabic>single</syllabic>
                    <text>Szállj</text>
                </lyric>
            </note>
            <note default-y="-30.00" default-x="203.49">
                <pitch>
                    <step>G</step>
                    <octave>4</octave>
                </pitch>
                <duration>1</duration>
                <voice>1</voice>
                <type>16th</type>
                <stem>up</stem>
                <beam number="1">end</beam>
                <beam number="2">backward hook</beam>
                <lyric number="1">
                    <syllabic>begin</syllabic>
                    <text>kö</text>
                </lyric>
            </note>
        </measure>
        <measure width="243.52" number="17">
            <note default-y="-5.00" default-x="28.58">
                <pitch>
                    <step>E</step>
                    <alter>-1</alter>
                    <octave>5</octave>
                </pitch>
                <duration>6</duration>
                <voice>1</voice>
                <type>quarter</type>
                <dot/>
                <stem>down</stem>
                <lyric number="1">
                    <syllabic>end</syllabic>
                    <text>zénk,</text>
                </lyric>
            </note>
            <note default-y="-10.00" default-x="87.81">
                <pitch>
                    <step>D</step>
                    <octave>5</octave>
                </pitch>
                <duration>2</duration>
                <voice>1</voice>
                <type>eighth</type>
                <stem>down</stem>
                <lyric number="1">
                    <syllabic>single</syllabic>
                    <text>és</text>
                </lyric>
            </note>
            <harmony print-frame="no">
                <root>
                    <root-step>F</root-step>
                </root>
                <kind text="m">minor</kind>
            </harmony>
            <note default-y="-15.00" default-x="120.49">
                <pitch>
                    <step>C</step>
                    <octave>5</octave>
                </pitch>
                <duration>2</duration>
                <voice>1</voice>
                <type>eighth</type>
                <stem>down</stem>
                <beam number="1">begin</beam>
                <lyric number="1">
                    <syllabic>single</syllabic>
                    <text>sírj</text>
                </lyric>
            </note>
            <note default-y="-10.00" default-x="150.85">
                <pitch>
                    <step>D</step>
                    <octave>5</octave>
                </pitch>
                <duration>2</duration>
                <voice>1</voice>
                <type>eighth</type>
                <stem>down</stem>
                <beam number="1">continue</beam>
                <lyric number="1">
                    <syllabic>single</syllabic>
                    <text>te</text>
                </lyric>
            </note>
            <note default-y="-15.00" default-x="181.21">
                <pitch>
                    <step>C</step>
                    <octave>5</octave>
                </pitch>
                <duration>2</duration>
                <voice>1</voice>
                <type>eighth</type>
                <stem>down</stem>
                <beam number="1">continue</beam>
                <lyric number="1">
                    <syllabic>single</syllabic>
                    <text>is</text>
                </lyric>
            </note>
            <note default-y="-25.00" default-x="211.56">
                <pitch>
                    <step>A</step>
                    <alter>-1</alter>
                    <octave>4</octave>
                </pitch>
                <duration>2</duration>
                <voice>1</voice>
                <type>eighth</type>
                <stem>down</stem>
                <beam number="1">end</beam>
                <lyric number="1">
                    <syllabic>begin</syllabic>
                    <text>ve</text>
                </lyric>
            </note>
        </measure>
        <measure width="170.63" number="18">
            <note default-y="-35.00" default-x="27.38">
                <pitch>
                    <step>F</step>
                    <octave>4</octave>
                </pitch>
                <duration>12</duration>
                <voice>1</voice>
                <type>half</type>
                <dot/>
                <stem>up</stem>
                <lyric number="1">
                    <syllabic>end</syllabic>
                    <text>lünk,</text>
                </lyric>
            </note>
            <note default-y="-35.00" default-x="98.33">
                <pitch>
                    <step>F</step>
                    <octave>4</octave>
                </pitch>
                <duration>2</duration>
                <voice>1</voice>
                <type>eighth</type>
                <stem>up</stem>
                <beam number="1">begin</beam>
                <lyric number="1">
                    <syllabic>begin</syllabic>
                    <text>ví</text>
                </lyric>
            </note>
            <note default-y="-35.00" default-x="137.26">
                <pitch>
                    <step>F</step>
                    <alter>1</alter>
                    <octave>4</octave>
                </pitch>
                <duration>2</duration>
                <voice>1</voice>
                <type>eighth</type>
                <accidental>sharp</accidental>
                <stem>up</stem>
                <beam number="1">end</beam>
                <lyric number="1">
                    <syllabic>middle</syllabic>
                    <text>gasz</text>
                </lyric>
            </note>
        </measure>
        <measure width="315.16" number="19">
            <harmony print-frame="no">
                <root>
                    <root-step>C</root-step>
                </root>
                <kind text="m">minor</kind>
            </harmony>
            <note default-y="-30.00" default-x="24.31">
                <pitch>
                    <step>G</step>
                    <octave>4</octave>
                </pitch>
                <duration>4</duration>
                <voice>1</voice>
                <type>quarter</type>
                <stem>up</stem>
                <lyric number="1">
                    <syllabic>end</syllabic>
                    <text>tald,</text>
                </lyric>
            </note>
            <note default-y="-30.00" default-x="78.99">
                <pitch>
                    <step>G</step>
                    <octave>4</octave>
                </pitch>
                <duration>4</duration>
                <voice>1</voice>
                <type>quarter</type>
                <stem>up</stem>
                <lyric number="1">
                    <syllabic>single</syllabic>
                    <text>és</text>
                </lyric>
            </note>
            <harmony print-frame="no">
                <root>
                    <root-step>G</root-step>
                </root>
                <kind text="">major</kind>
            </harmony>
            <note default-y="-30.00" default-x="133.68">
                <pitch>
                    <step>G</step>
                    <octave>4</octave>
                </pitch>
                <duration>2</duration>
                <voice>1</voice>
                <type>eighth</type>
                <stem>up</stem>
                <beam number="1">begin</beam>
                <lyric number="1">
                    <syllabic>single</syllabic>
                    <text>mentsd</text>
                </lyric>
            </note>
            <note default-y="-30.00" default-x="194.35">
                <pitch>
                    <step>G</step>
                    <octave>4</octave>
                </pitch>
                <duration>2</duration>
                <voice>1</voice>
                <type>eighth</type>
                <stem>up</stem>
                <beam number="1">continue</beam>
                <lyric number="1">
                    <syllabic>single</syllabic>
                    <text>meg</text>
                </lyric>
            </note>
            <note default-y="-25.00" default-x="242.20">
                <pitch>
                    <step>A</step>
                    <octave>4</octave>
                </pitch>
                <duration>2</duration>
                <voice>1</voice>
                <type>eighth</type>
                <accidental>natural</accidental>
                <stem>up</stem>
                <beam number="1">continue</beam>
                <lyric number="1">
                    <syllabic>begin</syllabic>
                    <text>nem</text>
                </lyric>
            </note>
            <note default-y="-20.00" default-x="279.37">
                <pitch>
                    <step>B</step>
                    <octave>4</octave>
                </pitch>
                <duration>2</duration>
                <voice>1</voice>
                <type>eighth</type>
                <accidental>natural</accidental>
                <stem>up</stem>
                <beam number="1">end</beam>
                <lyric number="1">
                    <syllabic>middle</syllabic>
                    <text>ze</text>
                </lyric>
            </note>
        </measure>
        <measure width="116.46" number="20">
            <harmony print-frame="no">
                <root>
                    <root-step>C</root-step>
                </root>
                <kind text="m">minor</kind>
            </harmony>
            <note default-y="-15.00" default-x="28.29">
                <pitch>
                    <step>C</step>
                    <octave>5</octave>
                </pitch>
                <duration>12</duration>
                <voice>1</voice>
                <type>half</type>
                <dot/>
                <stem>down</stem>
                <lyric number="1">
                    <syllabic>end</syllabic>
                    <text>tünk!</text>
                </lyric>
            </note>
            <note>
                <rest/>
                <duration>4</duration>
                <voice>1</voice>
                <type>quarter</type>
            </note>
            <barline location="right">
                <bar-style>light-heavy</bar-style>
            </barline>
        </measure>
    </part>
</score-partwise>
