<?xml version="1.0" encoding="UTF-8"?>
<!DOCTYPE score-partwise PUBLIC "-//Recordare//DTD MusicXML 2.0 Partwise//EN" "http://www.musicxml.org/dtds/partwise.dtd">
<score-partwise version="2.0">
    <work>
        <work-number></work-number>
        <work-title></work-title>
    </work>
    <movement-number></movement-number>
    <movement-title>Du schreibst Geschichte</movement-title>
    <identification>
        <creator type="composer">Madsen</creator>
        <creator type="poet">Madsen</creator>
        <rights>All Rights Reserved</rights>
        <encoding>
            <software>PriMus Music-Notation</software>
            <software>Build 9846</software>
            <software>http://www.columbussoft.de</software>
            <encoding-date>2010-10-25</encoding-date>
            <software>ProxyMusic 2.0 c</software>
        </encoding>
        <source>http://wikifonia.org/node/8004/revisions/11029/view</source>
    </identification>
    <defaults>
        <scaling>
            <millimeters>7</millimeters>
            <tenths>40</tenths>
        </scaling>
        <page-layout>
            <page-height>1697</page-height>
            <page-width>1194</page-width>
            <page-margins>
                <left-margin>57</left-margin>
                <right-margin>57</right-margin>
                <top-margin>68</top-margin>
                <bottom-margin>85</bottom-margin>
            </page-margins>
        </page-layout>
    </defaults>
    <credit>
        <credit-words>Du schreibst Geschichte</credit-words>
    </credit>
    <part-list>
        <part-group type="start" number="1">
            <group-symbol>line</group-symbol>
        </part-group>
        <score-part id="P1">
            <part-name>part-1</part-name>
            <midi-instrument id="P1">
                <midi-channel>1</midi-channel>
                <midi-bank>1</midi-bank>
                <midi-program>55</midi-program>
            </midi-instrument>
        </score-part>
        <part-group type="stop" number="1">
            <group-symbol>line</group-symbol>
        </part-group>
    </part-list>
    <part id="P1">
        <measure number="1">
            <attributes>
                <divisions>960</divisions>
                <key>
                    <fifths>1</fifths>
                </key>
                <time>
                    <beats>4</beats>
                    <beat-type>4</beat-type>
                </time>
                <clef>
                    <sign>G</sign>
                    <clef-octave-change>-1</clef-octave-change>
                </clef>
            </attributes>
            <harmony>
                <root>
                    <root-step>E</root-step>
                </root>
                <kind>minor</kind>
            </harmony>
            <note>
                <rest/>
                <duration>960</duration>
                <type>quarter</type>
                <notations/>
            </note>
            <note>
                <pitch>
                    <step>E</step>
                    <octave>4</octave>
                </pitch>
                <duration>480</duration>
                <type>eighth</type>
                <stem>down</stem>
                <beam number="1">begin</beam>
                <lyric number="1">
                    <text>1.&amp;Weil</text>
                </lyric>
            </note>
            <note>
                <pitch>
                    <step>E</step>
                    <octave>4</octave>
                </pitch>
                <duration>480</duration>
                <type>eighth</type>
                <stem>down</stem>
                <beam number="1">end</beam>
                <lyric number="1">
                    <text>die</text>
                </lyric>
            </note>
            <note>
                <pitch>
                    <step>D</step>
                    <octave>4</octave>
                </pitch>
                <duration>960</duration>
                <type>quarter</type>
                <lyric number="1">
                    <text>Welt</text>
                </lyric>
            </note>
            <note>
                <pitch>
                    <step>D</step>
                    <octave>4</octave>
                </pitch>
                <duration>960</duration>
                <type>quarter</type>
                <lyric number="1">
                    <text>sich</text>
                </lyric>
            </note>
        </measure>
        <measure number="2">
            <print new-system="no"/>
            <attributes>
                <divisions>960</divisions>
            </attributes>
            <note>
                <pitch>
                    <step>C</step>
                    <octave>4</octave>
                </pitch>
                <duration>960</duration>
                <type>quarter</type>
                <lyric number="1">
                    <text>so</text>
                </lyric>
            </note>
            <note>
                <pitch>
                    <step>D</step>
                    <octave>4</octave>
                </pitch>
                <duration>960</duration>
                <type>quarter</type>
                <lyric number="1">
                    <text>schnell</text>
                </lyric>
            </note>
            <note>
                <pitch>
                    <step>B</step>
                    <octave>3</octave>
                </pitch>
                <duration>960</duration>
                <type>quarter</type>
                <lyric number="1">
                    <text>dreht,</text>
                </lyric>
            </note>
            <note>
                <rest/>
                <duration>960</duration>
                <type>quarter</type>
            </note>
        </measure>
        <measure number="3">
            <print new-system="no"/>
            <attributes>
                <divisions>960</divisions>
            </attributes>
            <note>
                <rest/>
                <duration>960</duration>
                <type>quarter</type>
            </note>
            <note>
                <pitch>
                    <step>E</step>
                    <octave>4</octave>
                </pitch>
                <duration>480</duration>
                <type>eighth</type>
                <stem>down</stem>
                <beam number="1">begin</beam>
                <lyric number="1">
                    <text>weil</text>
                </lyric>
            </note>
            <note>
                <pitch>
                    <step>E</step>
                    <octave>4</octave>
                </pitch>
                <duration>480</duration>
                <type>eighth</type>
                <stem>down</stem>
                <beam number="1">end</beam>
                <lyric number="1">
                    <text>die</text>
                </lyric>
            </note>
            <note>
                <pitch>
                    <step>D</step>
                    <octave>4</octave>
                </pitch>
                <duration>960</duration>
                <type>quarter</type>
                <lyric number="1">
                    <text>zeit</text>
                </lyric>
            </note>
            <note>
                <pitch>
                    <step>D</step>
                    <octave>4</octave>
                </pitch>
                <duration>960</duration>
                <type>quarter</type>
                <lyric number="1">
                    <text>so</text>
                </lyric>
            </note>
        </measure>
        <measure number="4">
            <print new-system="no"/>
            <attributes>
                <divisions>960</divisions>
            </attributes>
            <note>
                <pitch>
                    <step>C</step>
                    <octave>4</octave>
                </pitch>
                <duration>960</duration>
                <type>quarter</type>
                <lyric number="1">
                    <text>schnell</text>
                </lyric>
            </note>
            <note>
                <pitch>
                    <step>D</step>
                    <octave>4</octave>
                </pitch>
                <duration>960</duration>
                <type>quarter</type>
                <lyric number="1">
                    <syllabic>middle</syllabic>
                    <text>ver</text>
                </lyric>
            </note>
            <note>
                <pitch>
                    <step>B</step>
                    <octave>3</octave>
                </pitch>
                <duration>960</duration>
                <type>quarter</type>
                <lyric number="1">
                    <text>geht</text>
                </lyric>
            </note>
            <note>
                <pitch>
                    <step>B</step>
                    <octave>3</octave>
                </pitch>
                <duration>960</duration>
                <type>quarter</type>
                <lyric number="1">
                    <text>kommst</text>
                </lyric>
            </note>
        </measure>
        <measure number="5">
            <print new-system="yes"/>
            <attributes>
                <divisions>960</divisions>
            </attributes>
            <harmony>
                <root>
                    <root-step>A</root-step>
                </root>
                <kind>minor</kind>
            </harmony>
            <note>
                <pitch>
                    <step>C</step>
                    <octave>4</octave>
                </pitch>
                <duration>1920</duration>
                <type>half</type>
                <notations/>
                <lyric number="1">
                    <text>du</text>
                </lyric>
            </note>
            <note>
                <rest/>
                <duration>1920</duration>
                <type>half</type>
            </note>
        </measure>
        <measure number="6">
            <print new-system="no"/>
            <attributes>
                <divisions>960</divisions>
            </attributes>
            <harmony>
                <root>
                    <root-step>B</root-step>
                </root>
                <kind>minor</kind>
            </harmony>
            <note>
                <rest/>
                <duration>960</duration>
                <type>quarter</type>
                <notations/>
            </note>
            <note>
                <pitch>
                    <step>D</step>
                    <octave>4</octave>
                </pitch>
                <duration>960</duration>
                <type>quarter</type>
                <lyric number="1">
                    <text>nicht</text>
                </lyric>
            </note>
            <note>
                <pitch>
                    <step>D</step>
                    <octave>4</octave>
                </pitch>
                <duration>960</duration>
                <type>quarter</type>
                <lyric number="1">
                    <syllabic>middle</syllabic>
                    <text>hin</text>
                </lyric>
            </note>
            <note>
                <pitch>
                    <step>E</step>
                    <octave>4</octave>
                </pitch>
                <duration>960</duration>
                <tie type="start"/>
                <type>quarter</type>
                <notations>
                    <tied type="start"/>
                </notations>
                <lyric number="1">
                    <syllabic>middle</syllabic>
                    <text>ter</text>
                </lyric>
            </note>
        </measure>
        <measure number="7">
            <print new-system="no"/>
            <attributes>
                <divisions>960</divisions>
            </attributes>
            <harmony>
                <root>
                    <root-step>E</root-step>
                </root>
                <kind>minor</kind>
            </harmony>
            <note>
                <pitch>
                    <step>E</step>
                    <octave>4</octave>
                </pitch>
                <duration>960</duration>
                <tie type="stop"/>
                <type>quarter</type>
                <notations>
                    <tied type="stop"/>
                </notations>
                <notations/>
                <lyric number="1">
                    <syllabic>middle</syllabic>
                    <text></text>
                </lyric>
            </note>
            <note>
                <pitch>
                    <step>B</step>
                    <octave>3</octave>
                </pitch>
                <duration>1920</duration>
                <type>half</type>
                <lyric number="1">
                    <text>her.</text>
                </lyric>
            </note>
            <note>
                <rest/>
                <duration>960</duration>
                <type>quarter</type>
            </note>
        </measure>
        <measure number="8">
            <print new-system="no"/>
            <attributes>
                <divisions>960</divisions>
            </attributes>
        </measure>
        <measure number="9">
            <print new-system="no"/>
            <attributes>
                <divisions>960</divisions>
            </attributes>
            <note>
                <rest/>
                <duration>960</duration>
                <type>quarter</type>
            </note>
            <note>
                <pitch>
                    <step>E</step>
                    <octave>4</octave>
                </pitch>
                <duration>480</duration>
                <type>eighth</type>
                <stem>down</stem>
                <beam number="1">begin</beam>
                <lyric number="1">
                    <text>Weil</text>
                </lyric>
            </note>
            <note>
                <pitch>
                    <step>E</step>
                    <octave>4</octave>
                </pitch>
                <duration>480</duration>
                <type>eighth</type>
                <stem>down</stem>
                <beam number="1">end</beam>
                <lyric number="1">
                    <text>die</text>
                </lyric>
            </note>
            <note>
                <pitch>
                    <step>D</step>
                    <octave>4</octave>
                </pitch>
                <duration>960</duration>
                <type>quarter</type>
                <lyric number="1">
                    <syllabic>middle</syllabic>
                    <text>Hek</text>
                </lyric>
            </note>
            <note>
                <pitch>
                    <step>D</step>
                    <octave>4</octave>
                </pitch>
                <duration>960</duration>
                <type>quarter</type>
                <lyric number="1">
                    <text>tik</text>
                </lyric>
            </note>
        </measure>
        <measure number="10">
            <print new-system="yes"/>
            <attributes>
                <divisions>960</divisions>
            </attributes>
            <note>
                <pitch>
                    <step>C</step>
                    <octave>4</octave>
                </pitch>
                <duration>960</duration>
                <type>quarter</type>
                <lyric number="1">
                    <text>sich</text>
                </lyric>
            </note>
            <note>
                <pitch>
                    <step>D</step>
                    <octave>4</octave>
                </pitch>
                <duration>480</duration>
                <type>eighth</type>
                <stem>down</stem>
                <beam number="1">begin</beam>
                <lyric number="1">
                    <text>nicht</text>
                </lyric>
            </note>
            <note>
                <pitch>
                    <step>B</step>
                    <octave>3</octave>
                </pitch>
                <duration>480</duration>
                <tie type="start"/>
                <type>eighth</type>
                <stem>down</stem>
                <beam number="1">end</beam>
                <notations>
                    <tied type="start"/>
                </notations>
                <lyric number="1">
                    <text>legt</text>
                    <extend/>
                </lyric>
            </note>
            <note>
                <pitch>
                    <step>B</step>
                    <octave>3</octave>
                </pitch>
                <duration>960</duration>
                <tie type="stop"/>
                <type>quarter</type>
                <notations>
                    <tied type="stop"/>
                </notations>
                <lyric number="1">
                    <text>,</text>
                </lyric>
            </note>
            <note>
                <rest/>
                <duration>960</duration>
                <type>quarter</type>
            </note>
        </measure>
        <measure number="11">
            <print new-system="no"/>
            <attributes>
                <divisions>960</divisions>
            </attributes>
            <note>
                <rest/>
                <duration>480</duration>
                <type>eighth</type>
            </note>
            <note>
                <pitch>
                    <step>E</step>
                    <octave>4</octave>
                </pitch>
                <duration>480</duration>
                <type>eighth</type>
                <stem>down</stem>
                <beam number="1">begin</beam>
                <lyric number="1">
                    <text>Du</text>
                </lyric>
            </note>
            <note>
                <pitch>
                    <step>E</step>
                    <octave>4</octave>
                </pitch>
                <duration>480</duration>
                <type>eighth</type>
                <stem>down</stem>
                <beam number="1">continue</beam>
                <lyric number="1">
                    <text>in</text>
                </lyric>
            </note>
            <note>
                <pitch>
                    <step>E</step>
                    <octave>4</octave>
                </pitch>
                <duration>480</duration>
                <type>eighth</type>
                <stem>down</stem>
                <beam number="1">end</beam>
                <lyric number="1">
                    <text>der</text>
                </lyric>
            </note>
            <note>
                <pitch>
                    <step>D</step>
                    <octave>4</octave>
                </pitch>
                <duration>960</duration>
                <type>quarter</type>
                <lyric number="1">
                    <syllabic>middle</syllabic>
                    <text>Mas</text>
                </lyric>
            </note>
            <note>
                <pitch>
                    <step>D</step>
                    <octave>4</octave>
                </pitch>
                <duration>960</duration>
                <type>quarter</type>
                <lyric number="1">
                    <text>se</text>
                </lyric>
            </note>
        </measure>
        <measure number="12">
            <print new-system="no"/>
            <attributes>
                <divisions>960</divisions>
            </attributes>
            <note>
                <pitch>
                    <step>C</step>
                    <octave>4</octave>
                </pitch>
                <duration>960</duration>
                <type>quarter</type>
                <lyric number="1">
                    <syllabic>middle</syllabic>
                    <text>un</text>
                </lyric>
            </note>
            <note>
                <pitch>
                    <step>D</step>
                    <octave>4</octave>
                </pitch>
                <duration>960</duration>
                <type>quarter</type>
                <lyric number="1">
                    <syllabic>middle</syllabic>
                    <text>ter</text>
                </lyric>
            </note>
            <note>
                <pitch>
                    <step>B</step>
                    <octave>3</octave>
                </pitch>
                <duration>960</duration>
                <type>quarter</type>
                <lyric number="1">
                    <text>_gehst</text>
                </lyric>
            </note>
            <note>
                <pitch>
                    <step>B</step>
                    <octave>3</octave>
                </pitch>
                <duration>960</duration>
                <type>quarter</type>
                <lyric number="1">
                    <text>bist</text>
                </lyric>
            </note>
        </measure>
        <measure number="13">
            <print new-system="no"/>
            <attributes>
                <divisions>960</divisions>
            </attributes>
            <harmony>
                <root>
                    <root-step>A</root-step>
                </root>
                <kind>minor</kind>
            </harmony>
            <note>
                <pitch>
                    <step>C</step>
                    <octave>4</octave>
                </pitch>
                <duration>1920</duration>
                <type>half</type>
                <notations/>
                <lyric number="1">
                    <text>du</text>
                </lyric>
            </note>
            <note>
                <rest/>
                <duration>960</duration>
                <type>quarter</type>
            </note>
            <note>
                <pitch>
                    <step>C</step>
                    <octave>4</octave>
                </pitch>
                <duration>960</duration>
                <type>quarter</type>
                <lyric number="1">
                    <text>ein</text>
                </lyric>
            </note>
        </measure>
        <measure number="14">
            <print new-system="no"/>
            <attributes>
                <divisions>960</divisions>
            </attributes>
            <harmony>
                <root>
                    <root-step>B</root-step>
                </root>
                <kind>minor</kind>
            </harmony>
            <note>
                <pitch>
                    <step>D</step>
                    <octave>4</octave>
                </pitch>
                <duration>960</duration>
                <type>quarter</type>
                <notations/>
                <lyric number="1">
                    <syllabic>middle</syllabic>
                    <text>Trop</text>
                </lyric>
            </note>
            <note>
                <pitch>
                    <step>D</step>
                    <octave>4</octave>
                </pitch>
                <duration>960</duration>
                <type>quarter</type>
                <lyric number="1">
                    <text>fen</text>
                </lyric>
            </note>
            <note>
                <pitch>
                    <step>E</step>
                    <octave>4</octave>
                </pitch>
                <duration>1920</duration>
                <type>half</type>
                <lyric number="1">
                    <text>im</text>
                </lyric>
            </note>
        </measure>
        <measure number="15">
            <print new-system="yes"/>
            <attributes>
                <divisions>960</divisions>
            </attributes>
            <barline location="right">
                <bar-style>light-light</bar-style>
            </barline>
            <harmony>
                <root>
                    <root-step>E</root-step>
                </root>
                <kind>minor</kind>
            </harmony>
            <note>
                <pitch>
                    <step>B</step>
                    <octave>3</octave>
                </pitch>
                <duration>1920</duration>
                <type>half</type>
                <notations/>
                <lyric number="1">
                    <text>Meer</text>
                </lyric>
            </note>
            <note>
                <rest/>
                <duration>1920</duration>
                <type>half</type>
            </note>
        </measure>
        <measure number="16">
            <print new-system="no"/>
            <attributes>
                <divisions>960</divisions>
            </attributes>
            <barline location="left">
                <bar-style>light-light</bar-style>
            </barline>
            <note>
                <rest/>
                <duration>1920</duration>
                <type>half</type>
            </note>
            <note>
                <rest/>
                <duration>960</duration>
                <type>quarter</type>
            </note>
            <note>
                <pitch>
                    <step>E</step>
                    <octave>3</octave>
                </pitch>
                <duration>960</duration>
                <type>quarter</type>
                <lyric number="1">
                    <text>Doch</text>
                </lyric>
            </note>
        </measure>
        <measure number="17">
            <print new-system="no"/>
            <attributes>
                <divisions>960</divisions>
            </attributes>
            <harmony>
                <root>
                    <root-step>C</root-step>
                </root>
                <kind>major</kind>
            </harmony>
            <note>
                <pitch>
                    <step>E</step>
                    <octave>4</octave>
                </pitch>
                <duration>960</duration>
                <type>quarter</type>
                <notations/>
                <lyric number="1">
                    <text>du</text>
                </lyric>
            </note>
            <note>
                <pitch>
                    <step>E</step>
                    <octave>4</octave>
                </pitch>
                <duration>960</duration>
                <type>quarter</type>
                <lyric number="1">
                    <text>lebst</text>
                </lyric>
            </note>
            <note>
                <pitch>
                    <step>E</step>
                    <octave>4</octave>
                </pitch>
                <duration>960</duration>
                <type>quarter</type>
                <lyric number="1">
                    <syllabic>middle</syllabic>
                    <text>län</text>
                </lyric>
            </note>
            <note>
                <pitch>
                    <step>E</step>
                    <octave>4</octave>
                </pitch>
                <duration>960</duration>
                <type>quarter</type>
                <lyric number="1">
                    <text>ger</text>
                </lyric>
            </note>
        </measure>
        <measure number="18">
            <print new-system="no"/>
            <attributes>
                <divisions>960</divisions>
            </attributes>
            <harmony>
                <root>
                    <root-step>B</root-step>
                </root>
                <kind>minor</kind>
            </harmony>
            <note>
                <pitch>
                    <step>D</step>
                    <octave>4</octave>
                </pitch>
                <duration>960</duration>
                <type>quarter</type>
                <notations/>
                <lyric number="1">
                    <text>als</text>
                </lyric>
            </note>
            <note>
                <pitch>
                    <step>B</step>
                    <octave>3</octave>
                </pitch>
                <duration>960</duration>
                <type>quarter</type>
                <lyric number="1">
                    <text>ein</text>
                </lyric>
            </note>
            <note>
                <pitch>
                    <step>D</step>
                    <octave>4</octave>
                </pitch>
                <duration>960</duration>
                <type>quarter</type>
                <lyric number="1">
                    <syllabic>middle</syllabic>
                    <text>Le</text>
                </lyric>
            </note>
            <note>
                <pitch>
                    <step>E</step>
                    <octave>4</octave>
                </pitch>
                <duration>960</duration>
                <tie type="start"/>
                <type>quarter</type>
                <notations>
                    <tied type="start"/>
                </notations>
                <lyric number="1">
                    <text>ben</text>
                    <extend/>
                </lyric>
            </note>
        </measure>
        <measure number="19">
            <print new-system="no"/>
            <attributes>
                <divisions>960</divisions>
            </attributes>
            <harmony>
                <root>
                    <root-step>E</root-step>
                </root>
                <kind>minor</kind>
            </harmony>
            <note>
                <pitch>
                    <step>E</step>
                    <octave>4</octave>
                </pitch>
                <duration>960</duration>
                <tie type="stop"/>
                <type>quarter</type>
                <notations>
                    <tied type="stop"/>
                </notations>
                <notations/>
                <lyric number="1">
                    <extend/>
                </lyric>
            </note>
            <note>
                <pitch>
                    <step>B</step>
                    <octave>3</octave>
                </pitch>
                <duration>1920</duration>
                <type>half</type>
                <lyric number="1">
                    <text>lang</text>
                </lyric>
            </note>
            <note>
                <rest/>
                <duration>960</duration>
                <type>quarter</type>
            </note>
        </measure>
        <measure number="20">
            <print new-system="yes"/>
            <attributes>
                <divisions>960</divisions>
            </attributes>
            <note>
                <rest/>
                <duration>3840</duration>
                <type>whole</type>
            </note>
        </measure>
        <measure number="21">
            <print new-system="no"/>
            <attributes>
                <divisions>960</divisions>
            </attributes>
            <harmony>
                <root>
                    <root-step>C</root-step>
                </root>
                <kind>major</kind>
            </harmony>
            <note>
                <pitch>
                    <step>E</step>
                    <octave>4</octave>
                </pitch>
                <duration>960</duration>
                <type>quarter</type>
                <notations/>
                <lyric number="1">
                    <text>Du</text>
                </lyric>
            </note>
            <note>
                <pitch>
                    <step>E</step>
                    <octave>4</octave>
                </pitch>
                <duration>960</duration>
                <type>quarter</type>
                <lyric number="1">
                    <text>bist</text>
                </lyric>
            </note>
            <note>
                <pitch>
                    <step>E</step>
                    <octave>4</octave>
                </pitch>
                <duration>960</duration>
                <type>quarter</type>
                <lyric number="1">
                    <text>das</text>
                </lyric>
            </note>
            <note>
                <pitch>
                    <step>E</step>
                    <octave>4</octave>
                </pitch>
                <duration>960</duration>
                <type>quarter</type>
                <lyric number="1">
                    <syllabic>middle</syllabic>
                    <text>wo</text>
                </lyric>
            </note>
        </measure>
        <measure number="22">
            <print new-system="no"/>
            <attributes>
                <divisions>960</divisions>
            </attributes>
            <harmony>
                <root>
                    <root-step>B</root-step>
                </root>
                <kind>minor</kind>
            </harmony>
            <note>
                <pitch>
                    <step>F</step>
                    <alter>1</alter>
                    <octave>4</octave>
                </pitch>
                <duration>960</duration>
                <type>quarter</type>
                <notations/>
                <lyric number="1">
                    <text>mit</text>
                </lyric>
            </note>
            <note>
                <pitch>
                    <step>E</step>
                    <octave>4</octave>
                </pitch>
                <duration>960</duration>
                <type>quarter</type>
                <lyric number="1">
                    <syllabic>middle</syllabic>
                    <text>al</text>
                </lyric>
            </note>
            <note>
                <pitch>
                    <step>D</step>
                    <octave>4</octave>
                </pitch>
                <duration>960</duration>
                <type>quarter</type>
                <lyric number="1">
                    <text>les</text>
                </lyric>
            </note>
            <note>
                <pitch>
                    <step>D</step>
                    <octave>4</octave>
                </pitch>
                <duration>960</duration>
                <type>quarter</type>
                <lyric number="1">
                    <syllabic>middle</syllabic>
                    <text>be</text>
                </lyric>
            </note>
        </measure>
        <measure number="23">
            <print new-system="no"/>
            <attributes>
                <divisions>960</divisions>
            </attributes>
            <barline location="right">
                <bar-style>light-light</bar-style>
            </barline>
            <harmony>
                <root>
                    <root-step>A</root-step>
                </root>
                <kind>minor</kind>
            </harmony>
            <note>
                <pitch>
                    <step>E</step>
                    <octave>4</octave>
                </pitch>
                <duration>3840</duration>
                <type>whole</type>
                <notations/>
                <lyric number="1">
                    <text>gann.</text>
                </lyric>
            </note>
        </measure>
        <measure number="24">
            <print new-system="no"/>
            <attributes>
                <divisions>960</divisions>
            </attributes>
            <barline location="left">
                <bar-style>light-light</bar-style>
            </barline>
            <harmony>
                <root>
                    <root-step>D</root-step>
                </root>
                <kind>major</kind>
            </harmony>
            <note>
                <rest/>
                <duration>960</duration>
                <type>quarter</type>
                <notations/>
            </note>
            <note>
                <pitch>
                    <step>B</step>
                    <octave>3</octave>
                </pitch>
                <duration>480</duration>
                <type>eighth</type>
                <stem>down</stem>
                <beam number="1">begin</beam>
                <lyric number="1">
                    <text>Refr.:&amp;Denn</text>
                </lyric>
            </note>
            <note>
                <pitch>
                    <step>B</step>
                    <octave>3</octave>
                </pitch>
                <duration>480</duration>
                <type>eighth</type>
                <stem>down</stem>
                <beam number="1">end</beam>
                <lyric number="1">
                    <text>du</text>
                </lyric>
            </note>
            <note>
                <pitch>
                    <step>G</step>
                    <octave>4</octave>
                </pitch>
                <duration>960</duration>
                <type>quarter</type>
                <lyric number="1">
                    <text>schreibst</text>
                </lyric>
            </note>
            <note>
                <pitch>
                    <step>F</step>
                    <alter>1</alter>
                    <octave>4</octave>
                </pitch>
                <duration>960</duration>
                <type>quarter</type>
                <lyric number="1">
                    <syllabic>middle</syllabic>
                    <text>Ge</text>
                </lyric>
            </note>
        </measure>
        <measure number="25">
            <print new-system="yes"/>
            <attributes>
                <divisions>960</divisions>
            </attributes>
            <harmony>
                <root>
                    <root-step>E</root-step>
                </root>
                <kind>minor</kind>
            </harmony>
            <note>
                <pitch>
                    <step>F</step>
                    <alter>1</alter>
                    <octave>4</octave>
                </pitch>
                <duration>960</duration>
                <type>quarter</type>
                <notations/>
                <lyric number="1">
                    <syllabic>middle</syllabic>
                    <text>schich</text>
                </lyric>
            </note>
            <note>
                <pitch>
                    <step>E</step>
                    <octave>4</octave>
                </pitch>
                <duration>960</duration>
                <tie type="start"/>
                <type>quarter</type>
                <notations>
                    <tied type="start"/>
                </notations>
                <lyric number="1">
                    <text>te</text>
                    <extend/>
                </lyric>
            </note>
            <note>
                <pitch>
                    <step>E</step>
                    <octave>4</octave>
                </pitch>
                <duration>1920</duration>
                <tie type="stop"/>
                <type>half</type>
                <notations>
                    <tied type="stop"/>
                </notations>
                <lyric number="1">
                    <extend/>
                </lyric>
            </note>
        </measure>
        <measure number="26">
            <print new-system="no"/>
            <attributes>
                <divisions>960</divisions>
            </attributes>
            <note>
                <rest/>
                <duration>960</duration>
                <type>quarter</type>
            </note>
            <note>
                <pitch>
                    <step>B</step>
                    <octave>3</octave>
                </pitch>
                <duration>960</duration>
                <type>quarter</type>
                <lyric number="1">
                    <text>Mit</text>
                </lyric>
            </note>
            <note>
                <pitch>
                    <step>G</step>
                    <octave>4</octave>
                </pitch>
                <duration>960</duration>
                <type>quarter</type>
                <lyric number="1">
                    <syllabic>middle</syllabic>
                    <text>je</text>
                </lyric>
            </note>
            <note>
                <pitch>
                    <step>F</step>
                    <alter>1</alter>
                    <octave>4</octave>
                </pitch>
                <duration>960</duration>
                <type>quarter</type>
                <lyric number="1">
                    <text>dem</text>
                </lyric>
            </note>
        </measure>
        <measure number="27">
            <print new-system="no"/>
            <attributes>
                <divisions>960</divisions>
            </attributes>
            <harmony>
                <root>
                    <root-step>A</root-step>
                </root>
                <kind>minor</kind>
            </harmony>
            <note>
                <pitch>
                    <step>E</step>
                    <octave>4</octave>
                </pitch>
                <duration>3840</duration>
                <type>whole</type>
                <notations/>
                <lyric number="1">
                    <text>Schritt,</text>
                </lyric>
            </note>
        </measure>
        <measure number="28">
            <print new-system="no"/>
            <attributes>
                <divisions>960</divisions>
            </attributes>
            <note>
                <rest/>
                <duration>960</duration>
                <type>quarter</type>
            </note>
            <note>
                <pitch>
                    <step>B</step>
                    <octave>3</octave>
                </pitch>
                <duration>960</duration>
                <type>quarter</type>
                <lyric number="1">
                    <text>mit</text>
                </lyric>
            </note>
            <note>
                <pitch>
                    <step>G</step>
                    <octave>4</octave>
                </pitch>
                <duration>960</duration>
                <type>quarter</type>
                <lyric number="1">
                    <syllabic>middle</syllabic>
                    <text>je</text>
                </lyric>
            </note>
            <note>
                <pitch>
                    <step>F</step>
                    <alter>1</alter>
                    <octave>4</octave>
                </pitch>
                <duration>960</duration>
                <type>quarter</type>
                <lyric number="1">
                    <text>dem</text>
                </lyric>
            </note>
        </measure>
        <measure number="29">
            <print new-system="no"/>
            <attributes>
                <divisions>960</divisions>
            </attributes>
            <harmony>
                <root>
                    <root-step>C</root-step>
                </root>
                <kind>major</kind>
            </harmony>
            <note>
                <pitch>
                    <step>E</step>
                    <octave>4</octave>
                </pitch>
                <duration>3840</duration>
                <type>whole</type>
                <notations/>
                <lyric number="1">
                    <text>Wort</text>
                    <extend/>
                </lyric>
            </note>
        </measure>
        <measure number="30">
            <print new-system="yes"/>
            <attributes>
                <divisions>960</divisions>
            </attributes>
            <note>
                <rest/>
                <duration>960</duration>
                <type>quarter</type>
            </note>
            <note>
                <pitch>
                    <step>C</step>
                    <octave>4</octave>
                </pitch>
                <duration>960</duration>
                <type>quarter</type>
                <lyric number="1">
                    <text>Setzt</text>
                </lyric>
            </note>
            <note>
                <pitch>
                    <step>C</step>
                    <octave>4</octave>
                </pitch>
                <duration>960</duration>
                <type>quarter</type>
                <lyric number="1">
                    <text>du</text>
                </lyric>
            </note>
            <note>
                <pitch>
                    <step>D</step>
                    <octave>4</octave>
                </pitch>
                <duration>960</duration>
                <type>quarter</type>
                <lyric number="1">
                    <text>sie</text>
                </lyric>
            </note>
        </measure>
        <measure number="31">
            <print new-system="no"/>
            <attributes>
                <divisions>960</divisions>
            </attributes>
            <harmony>
                <root>
                    <root-step>G</root-step>
                </root>
                <kind>major</kind>
            </harmony>
            <note>
                <pitch>
                    <step>B</step>
                    <octave>3</octave>
                </pitch>
                <duration>3840</duration>
                <type>whole</type>
                <notations/>
                <lyric number="1">
                    <text>fort</text>
                    <extend/>
                </lyric>
            </note>
        </measure>
        <measure number="32">
            <print new-system="no"/>
            <attributes>
                <divisions>960</divisions>
            </attributes>
            <harmony>
                <root>
                    <root-step>B</root-step>
                </root>
                <kind>dominant</kind>
            </harmony>
            <note>
                <rest/>
                <duration>960</duration>
                <type>quarter</type>
                <notations/>
            </note>
            <note>
                <pitch>
                    <step>B</step>
                    <octave>3</octave>
                </pitch>
                <duration>960</duration>
                <type>quarter</type>
                <lyric number="1">
                    <text>Du</text>
                </lyric>
            </note>
            <note>
                <pitch>
                    <step>G</step>
                    <octave>4</octave>
                </pitch>
                <duration>960</duration>
                <type>quarter</type>
                <lyric number="1">
                    <text>schreibst</text>
                </lyric>
            </note>
            <note>
                <pitch>
                    <step>F</step>
                    <alter>1</alter>
                    <octave>4</octave>
                </pitch>
                <duration>960</duration>
                <type>quarter</type>
                <lyric number="1">
                    <syllabic>middle</syllabic>
                    <text>Ge</text>
                </lyric>
            </note>
        </measure>
        <measure number="33">
            <print new-system="no"/>
            <attributes>
                <divisions>960</divisions>
            </attributes>
            <harmony>
                <root>
                    <root-step>E</root-step>
                </root>
                <kind>minor</kind>
            </harmony>
            <note>
                <pitch>
                    <step>F</step>
                    <alter>1</alter>
                    <octave>4</octave>
                </pitch>
                <duration>960</duration>
                <type>quarter</type>
                <notations/>
                <lyric number="1">
                    <syllabic>middle</syllabic>
                    <text>schich</text>
                </lyric>
            </note>
            <note>
                <pitch>
                    <step>E</step>
                    <octave>4</octave>
                </pitch>
                <duration>2880</duration>
                <type>half</type>
                <dot/>
                <lyric number="1">
                    <text>te</text>
                </lyric>
            </note>
        </measure>
        <measure number="34">
            <print new-system="no"/>
            <attributes>
                <divisions>960</divisions>
            </attributes>
            <note>
                <rest/>
                <duration>960</duration>
                <type>quarter</type>
            </note>
            <note>
                <pitch>
                    <step>B</step>
                    <octave>3</octave>
                </pitch>
                <duration>960</duration>
                <type>quarter</type>
                <lyric number="1">
                    <text>An</text>
                </lyric>
            </note>
            <note>
                <pitch>
                    <step>G</step>
                    <octave>4</octave>
                </pitch>
                <duration>960</duration>
                <type>quarter</type>
                <lyric number="1">
                    <syllabic>middle</syllabic>
                    <text>je</text>
                </lyric>
            </note>
            <note>
                <pitch>
                    <step>F</step>
                    <alter>1</alter>
                    <octave>4</octave>
                </pitch>
                <duration>960</duration>
                <type>quarter</type>
                <lyric number="1">
                    <text>dem</text>
                </lyric>
            </note>
        </measure>
        <measure number="35">
            <print new-system="yes"/>
            <attributes>
                <divisions>960</divisions>
            </attributes>
            <harmony>
                <root>
                    <root-step>A</root-step>
                </root>
                <kind>minor</kind>
            </harmony>
            <note>
                <pitch>
                    <step>E</step>
                    <octave>4</octave>
                </pitch>
                <duration>3840</duration>
                <type>whole</type>
                <notations/>
                <lyric number="1">
                    <text>Tag,</text>
                </lyric>
            </note>
        </measure>
        <measure number="36">
            <print new-system="no"/>
            <attributes>
                <divisions>960</divisions>
            </attributes>
            <note>
                <rest/>
                <duration>960</duration>
                <type>quarter</type>
            </note>
            <note>
                <pitch>
                    <step>B</step>
                    <octave>3</octave>
                </pitch>
                <duration>960</duration>
                <type>quarter</type>
                <lyric number="1">
                    <text>denn</text>
                </lyric>
            </note>
            <note>
                <pitch>
                    <step>G</step>
                    <octave>4</octave>
                </pitch>
                <duration>960</duration>
                <type>quarter</type>
                <lyric number="1">
                    <text>jetzt</text>
                </lyric>
            </note>
            <note>
                <pitch>
                    <step>F</step>
                    <alter>1</alter>
                    <octave>4</octave>
                </pitch>
                <duration>960</duration>
                <type>quarter</type>
                <lyric number="1">
                    <text>und</text>
                </lyric>
            </note>
        </measure>
        <measure number="37">
            <print new-system="no"/>
            <attributes>
                <divisions>960</divisions>
            </attributes>
            <harmony>
                <root>
                    <root-step>C</root-step>
                </root>
                <kind>major</kind>
            </harmony>
            <note>
                <pitch>
                    <step>E</step>
                    <octave>4</octave>
                </pitch>
                <duration>3840</duration>
                <type>whole</type>
                <notations/>
                <lyric number="1">
                    <text>hier</text>
                </lyric>
            </note>
        </measure>
        <measure number="38">
            <print new-system="no"/>
            <attributes>
                <divisions>960</divisions>
            </attributes>
            <note>
                <rest/>
                <duration>3840</duration>
            </note>
        </measure>
        <measure number="39">
            <print new-system="no"/>
            <attributes>
                <divisions>960</divisions>
            </attributes>
            <harmony>
                <root>
                    <root-step>A</root-step>
                </root>
                <kind>minor</kind>
            </harmony>
            <note>
                <rest/>
                <duration>960</duration>
                <type>quarter</type>
                <notations/>
            </note>
            <note>
                <pitch>
                    <step>F</step>
                    <alter>1</alter>
                    <octave>4</octave>
                </pitch>
                <duration>960</duration>
                <type>quarter</type>
                <lyric number="1">
                    <text>bist</text>
                </lyric>
            </note>
            <note>
                <pitch>
                    <step>F</step>
                    <alter>1</alter>
                    <octave>4</octave>
                </pitch>
                <duration>960</duration>
                <type>quarter</type>
                <lyric number="1">
                    <text>du</text>
                </lyric>
            </note>
            <note>
                <pitch>
                    <step>E</step>
                    <octave>4</octave>
                </pitch>
                <duration>960</duration>
                <type>quarter</type>
                <lyric number="1">
                    <text>ein</text>
                </lyric>
            </note>
        </measure>
        <measure number="40">
            <print new-system="no"/>
            <attributes>
                <divisions>960</divisions>
            </attributes>
            <harmony>
                <root>
                    <root-step>D</root-step>
                </root>
                <kind>major</kind>
            </harmony>
            <note>
                <pitch>
                    <step>F</step>
                    <alter>1</alter>
                    <octave>4</octave>
                </pitch>
                <duration>1920</duration>
                <type>half</type>
                <notations/>
                <lyric number="1">
                    <text>Teil</text>
                </lyric>
            </note>
            <harmony>
                <root>
                    <root-step>B</root-step>
                </root>
                <kind>dominant</kind>
            </harmony>
            <note>
                <pitch>
                    <step>G</step>
                    <octave>4</octave>
                </pitch>
                <duration>1920</duration>
                <type>half</type>
                <notations/>
                <lyric number="1">
                    <text>von</text>
                </lyric>
            </note>
        </measure>
        <measure number="41">
            <print new-system="no"/>
            <attributes>
                <divisions>960</divisions>
            </attributes>
            <barline location="right">
                <bar-style>light-heavy</bar-style>
            </barline>
            <harmony>
                <root>
                    <root-step>E</root-step>
                </root>
                <kind>minor</kind>
            </harmony>
            <note>
                <pitch>
                    <step>E</step>
                    <octave>4</octave>
                </pitch>
                <duration>3840</duration>
                <type>whole</type>
                <notations/>
                <lyric number="1">
                    <text>Ihr.</text>
                </lyric>
            </note>
        </measure>
    </part>
</score-partwise>
