<?xml version="1.0" encoding="UTF-8"?>
<!DOCTYPE score-partwise PUBLIC "-//Recordare//DTD MusicXML 2.0 Partwise//EN" "http://www.musicxml.org/dtds/partwise.dtd">
<score-partwise version="2.0">
    <work>
        <work-number></work-number>
        <work-title></work-title>
    </work>
    <movement-number></movement-number>
    <movement-title>Entree</movement-title>
    <identification>
        <creator type="composer">Traditional</creator>
        <creator type="poet"></creator>
        <rights>All Rights Reserved</rights>
        <encoding>
            <software>Finale 2010 for Windows</software>
            <software>Dolet Light for Finale 2010</software>
            <encoding-date>2010-10-30</encoding-date>
            <supports value="yes" type="yes" element="print" attribute="new-system"/>
            <supports value="yes" type="yes" element="print" attribute="new-page"/>
            <software>ProxyMusic 2.0 c</software>
        </encoding>
        <source>http://wikifonia.org/node/8089/revisions/11219/view</source>
    </identification>
    <defaults>
        <scaling>
            <millimeters>6.9674</millimeters>
            <tenths>40</tenths>
        </scaling>
        <page-layout>
            <page-height>1704</page-height>
            <page-width>1205</page-width>
            <page-margins type="even">
                <left-margin>109</left-margin>
                <right-margin>73</right-margin>
                <top-margin>127</top-margin>
                <bottom-margin>252</bottom-margin>
            </page-margins>
            <page-margins type="odd">
                <left-margin>109</left-margin>
                <right-margin>73</right-margin>
                <top-margin>127</top-margin>
                <bottom-margin>252</bottom-margin>
            </page-margins>
        </page-layout>
        <system-layout>
            <system-margins>
                <left-margin>0</left-margin>
                <right-margin>504</right-margin>
            </system-margins>
            <system-distance>131</system-distance>
            <top-system-distance>131</top-system-distance>
        </system-layout>
        <appearance>
            <line-width type="stem">1.0026</line-width>
            <line-width type="beam">5</line-width>
            <line-width type="staff">1.4779</line-width>
            <line-width type="light barline">1.6016</line-width>
            <line-width type="heavy barline">5</line-width>
            <line-width type="leger">1.6016</line-width>
            <line-width type="ending">0.957</line-width>
            <line-width type="wedge">1.0026</line-width>
            <line-width type="enclosure">1.0026</line-width>
            <line-width type="tuplet bracket">1.0026</line-width>
            <note-size type="grace">60</note-size>
            <note-size type="cue">60</note-size>
        </appearance>
        <music-font font-size="19.75" font-family="Opus"/>
        <word-font font-size="9.9" font-family="Opus Special"/>
    </defaults>
    <credit page="1">
        <credit-words font-size="8" font-family="Times New Roman"> Laukens Music Productions  </credit-words>
    </credit>
    <credit page="1">
        <credit-words font-weight="bold" font-style="italic" font-size="20" font-family="Times New Roman" default-y="1614" default-x="603" halign="center" valign="top">ENTREE</credit-words>
    </credit>
    <credit page="1">
        <credit-words font-size="14" font-family="Times New Roman" default-y="1571" default-x="109" valign="top">Mars</credit-words>
    </credit>
    <part-list>
        <score-part id="P1">
            <part-name print-object="no">MusicXML Part</part-name>
            <score-instrument id="P1-I1">
                <instrument-name>Grand Piano</instrument-name>
            </score-instrument>
            <midi-instrument id="P1-I1">
                <midi-channel>1</midi-channel>
                <midi-program>1</midi-program>
                <volume>80</volume>
                <pan>0</pan>
            </midi-instrument>
        </score-part>
    </part-list>
    <part id="P1">
        <measure width="103" number="0" implicit="yes">
            <print>
                <page-layout>
                    <page-height>1704</page-height>
                    <page-width>1205</page-width>
                    <page-margins>
                        <left-margin>109</left-margin>
                        <right-margin>73</right-margin>
                        <top-margin>97</top-margin>
                        <bottom-margin>172</bottom-margin>
                    </page-margins>
                </page-layout>
                <system-layout>
                    <system-margins>
                        <left-margin>61</left-margin>
                        <right-margin>0</right-margin>
                    </system-margins>
                    <top-system-distance>182</top-system-distance>
                </system-layout>
            </print>
            <attributes>
                <divisions>4</divisions>
                <key>
                    <fifths>0</fifths>
                    <mode>major</mode>
                </key>
                <time>
                    <beats>4</beats>
                    <beat-type>4</beat-type>
                </time>
                <clef>
                    <sign>G</sign>
                    <line>2</line>
                </clef>
            </attributes>
            <sound tempo="120"/>
            <note default-x="75">
                <pitch>
                    <step>C</step>
                    <octave>4</octave>
                </pitch>
                <duration>2</duration>
                <voice>1</voice>
                <type>eighth</type>
                <stem default-y="-14">up</stem>
            </note>
        </measure>
        <measure width="347" number="1">
            <barline location="left">
                <bar-style>heavy-light</bar-style>
                <repeat direction="forward"/>
            </barline>
            <harmony font-family="Times New Roman" default-y="18">
                <root>
                    <root-step>C</root-step>
                </root>
                <kind halign="left" text="">major</kind>
            </harmony>
            <note default-x="32">
                <pitch>
                    <step>C</step>
                    <octave>4</octave>
                </pitch>
                <duration>2</duration>
                <voice>1</voice>
                <type>eighth</type>
                <stem default-y="-15">up</stem>
                <beam number="1">begin</beam>
            </note>
            <note default-x="58">
                <pitch>
                    <step>C</step>
                    <octave>4</octave>
                </pitch>
                <duration>1</duration>
                <voice>1</voice>
                <type>16th</type>
                <stem default-y="-15">up</stem>
                <beam number="1">continue</beam>
                <beam number="2">begin</beam>
            </note>
            <note default-x="85">
                <pitch>
                    <step>C</step>
                    <octave>4</octave>
                </pitch>
                <duration>1</duration>
                <voice>1</voice>
                <type>16th</type>
                <stem default-y="-15">up</stem>
                <beam number="1">end</beam>
                <beam number="2">end</beam>
            </note>
            <note default-x="111">
                <pitch>
                    <step>C</step>
                    <octave>4</octave>
                </pitch>
                <duration>2</duration>
                <voice>1</voice>
                <type>eighth</type>
                <stem default-y="-15">up</stem>
                <beam number="1">begin</beam>
            </note>
            <note default-x="138">
                <pitch>
                    <step>C</step>
                    <octave>4</octave>
                </pitch>
                <duration>1</duration>
                <voice>1</voice>
                <type>16th</type>
                <stem default-y="-15">up</stem>
                <beam number="1">continue</beam>
                <beam number="2">begin</beam>
            </note>
            <note default-x="164">
                <pitch>
                    <step>C</step>
                    <octave>4</octave>
                </pitch>
                <duration>1</duration>
                <voice>1</voice>
                <type>16th</type>
                <stem default-y="-15">up</stem>
                <beam number="1">end</beam>
                <beam number="2">end</beam>
            </note>
            <note default-x="190">
                <pitch>
                    <step>C</step>
                    <octave>4</octave>
                </pitch>
                <duration>2</duration>
                <voice>1</voice>
                <type>eighth</type>
                <stem default-y="-15">up</stem>
                <beam number="1">begin</beam>
            </note>
            <note default-x="217">
                <pitch>
                    <step>C</step>
                    <octave>4</octave>
                </pitch>
                <duration>1</duration>
                <voice>1</voice>
                <type>16th</type>
                <stem default-y="-15">up</stem>
                <beam number="1">continue</beam>
                <beam number="2">begin</beam>
            </note>
            <note default-x="243">
                <pitch>
                    <step>C</step>
                    <octave>4</octave>
                </pitch>
                <duration>1</duration>
                <voice>1</voice>
                <type>16th</type>
                <stem default-y="-15">up</stem>
                <beam number="1">end</beam>
                <beam number="2">end</beam>
            </note>
            <note default-x="270">
                <pitch>
                    <step>C</step>
                    <octave>4</octave>
                </pitch>
                <duration>2</duration>
                <voice>1</voice>
                <type>eighth</type>
                <stem default-y="-15">up</stem>
                <beam number="1">begin</beam>
            </note>
            <note default-x="296">
                <pitch>
                    <step>C</step>
                    <octave>4</octave>
                </pitch>
                <duration>1</duration>
                <voice>1</voice>
                <type>16th</type>
                <stem default-y="-15">up</stem>
                <beam number="1">continue</beam>
                <beam number="2">begin</beam>
            </note>
            <note default-x="323">
                <pitch>
                    <step>C</step>
                    <octave>4</octave>
                </pitch>
                <duration>1</duration>
                <voice>1</voice>
                <type>16th</type>
                <stem default-y="-15">up</stem>
                <beam number="1">end</beam>
                <beam number="2">end</beam>
            </note>
        </measure>
        <measure width="231" number="2">
            <note default-x="10">
                <pitch>
                    <step>E</step>
                    <octave>4</octave>
                </pitch>
                <duration>2</duration>
                <voice>1</voice>
                <type>eighth</type>
                <stem default-y="-5">up</stem>
                <beam number="1">begin</beam>
            </note>
            <note default-x="37">
                <pitch>
                    <step>C</step>
                    <octave>4</octave>
                </pitch>
                <duration>1</duration>
                <voice>1</voice>
                <type>16th</type>
                <stem default-y="-6">up</stem>
                <beam number="1">continue</beam>
                <beam number="2">begin</beam>
            </note>
            <note default-x="66">
                <pitch>
                    <step>C</step>
                    <octave>4</octave>
                </pitch>
                <duration>1</duration>
                <voice>1</voice>
                <type>16th</type>
                <stem default-y="-7">up</stem>
                <beam number="1">end</beam>
                <beam number="2">end</beam>
            </note>
            <note default-x="94">
                <pitch>
                    <step>C</step>
                    <octave>4</octave>
                </pitch>
                <duration>2</duration>
                <voice>1</voice>
                <type>eighth</type>
                <stem default-y="-15">up</stem>
                <beam number="1">begin</beam>
            </note>
            <note default-x="123">
                <pitch>
                    <step>C</step>
                    <octave>4</octave>
                </pitch>
                <duration>2</duration>
                <voice>1</voice>
                <type>eighth</type>
                <stem default-y="-15">up</stem>
                <beam number="1">end</beam>
            </note>
            <note default-x="151">
                <pitch>
                    <step>C</step>
                    <octave>4</octave>
                </pitch>
                <duration>6</duration>
                <voice>1</voice>
                <type>quarter</type>
                <dot/>
                <stem default-y="-14">up</stem>
            </note>
            <note default-x="201">
                <pitch>
                    <step>E</step>
                    <octave>4</octave>
                </pitch>
                <duration>2</duration>
                <voice>1</voice>
                <type>eighth</type>
                <stem default-y="-4">up</stem>
            </note>
        </measure>
        <measure width="282" number="3">
            <note default-x="10">
                <pitch>
                    <step>E</step>
                    <octave>4</octave>
                </pitch>
                <duration>2</duration>
                <voice>1</voice>
                <type>eighth</type>
                <stem default-y="-5">up</stem>
                <beam number="1">begin</beam>
            </note>
            <note default-x="33">
                <pitch>
                    <step>E</step>
                    <octave>4</octave>
                </pitch>
                <duration>1</duration>
                <voice>1</voice>
                <type>16th</type>
                <stem default-y="-5">up</stem>
                <beam number="1">continue</beam>
                <beam number="2">begin</beam>
            </note>
            <note default-x="55">
                <pitch>
                    <step>E</step>
                    <octave>4</octave>
                </pitch>
                <duration>1</duration>
                <voice>1</voice>
                <type>16th</type>
                <stem default-y="-5">up</stem>
                <beam number="1">end</beam>
                <beam number="2">end</beam>
            </note>
            <note default-x="77">
                <pitch>
                    <step>E</step>
                    <octave>4</octave>
                </pitch>
                <duration>2</duration>
                <voice>1</voice>
                <type>eighth</type>
                <stem default-y="-5">up</stem>
                <beam number="1">begin</beam>
            </note>
            <note default-x="101">
                <pitch>
                    <step>E</step>
                    <octave>4</octave>
                </pitch>
                <duration>1</duration>
                <voice>1</voice>
                <type>16th</type>
                <stem default-y="-5">up</stem>
                <beam number="1">continue</beam>
                <beam number="2">begin</beam>
            </note>
            <note default-x="123">
                <pitch>
                    <step>E</step>
                    <octave>4</octave>
                </pitch>
                <duration>1</duration>
                <voice>1</voice>
                <type>16th</type>
                <stem default-y="-5">up</stem>
                <beam number="1">end</beam>
                <beam number="2">end</beam>
            </note>
            <note default-x="145">
                <pitch>
                    <step>E</step>
                    <octave>4</octave>
                </pitch>
                <duration>2</duration>
                <voice>1</voice>
                <type>eighth</type>
                <stem default-y="-5">up</stem>
                <beam number="1">begin</beam>
            </note>
            <note default-x="169">
                <pitch>
                    <step>E</step>
                    <octave>4</octave>
                </pitch>
                <duration>1</duration>
                <voice>1</voice>
                <type>16th</type>
                <stem default-y="-5">up</stem>
                <beam number="1">continue</beam>
                <beam number="2">begin</beam>
            </note>
            <note default-x="190">
                <pitch>
                    <step>E</step>
                    <octave>4</octave>
                </pitch>
                <duration>1</duration>
                <voice>1</voice>
                <type>16th</type>
                <stem default-y="-5">up</stem>
                <beam number="1">end</beam>
                <beam number="2">end</beam>
            </note>
            <note default-x="213">
                <pitch>
                    <step>E</step>
                    <octave>4</octave>
                </pitch>
                <duration>2</duration>
                <voice>1</voice>
                <type>eighth</type>
                <stem default-y="-5">up</stem>
                <beam number="1">begin</beam>
            </note>
            <note default-x="236">
                <pitch>
                    <step>E</step>
                    <octave>4</octave>
                </pitch>
                <duration>1</duration>
                <voice>1</voice>
                <type>16th</type>
                <stem default-y="-5">up</stem>
                <beam number="1">continue</beam>
                <beam number="2">begin</beam>
            </note>
            <note default-x="258">
                <pitch>
                    <step>E</step>
                    <octave>4</octave>
                </pitch>
                <duration>1</duration>
                <voice>1</voice>
                <type>16th</type>
                <stem default-y="-5">up</stem>
                <beam number="1">end</beam>
                <beam number="2">end</beam>
            </note>
        </measure>
        <measure width="298" number="4">
            <print new-system="yes">
                <system-layout>
                    <system-margins>
                        <left-margin>0</left-margin>
                        <right-margin>0</right-margin>
                    </system-margins>
                </system-layout>
            </print>
            <note default-x="50">
                <pitch>
                    <step>G</step>
                    <octave>4</octave>
                </pitch>
                <duration>2</duration>
                <voice>1</voice>
                <type>eighth</type>
                <stem default-y="5">up</stem>
                <beam number="1">begin</beam>
            </note>
            <note default-x="81">
                <pitch>
                    <step>E</step>
                    <octave>4</octave>
                </pitch>
                <duration>1</duration>
                <voice>1</voice>
                <type>16th</type>
                <stem default-y="3.5">up</stem>
                <beam number="1">continue</beam>
                <beam number="2">begin</beam>
            </note>
            <note default-x="105">
                <pitch>
                    <step>E</step>
                    <octave>4</octave>
                </pitch>
                <duration>1</duration>
                <voice>1</voice>
                <type>16th</type>
                <stem default-y="2.5">up</stem>
                <beam number="1">end</beam>
                <beam number="2">end</beam>
            </note>
            <note default-x="128">
                <pitch>
                    <step>E</step>
                    <octave>4</octave>
                </pitch>
                <duration>2</duration>
                <voice>1</voice>
                <type>eighth</type>
                <stem default-y="-5">up</stem>
                <beam number="1">begin</beam>
            </note>
            <note default-x="159">
                <pitch>
                    <step>E</step>
                    <octave>4</octave>
                </pitch>
                <duration>2</duration>
                <voice>1</voice>
                <type>eighth</type>
                <stem default-y="-5">up</stem>
                <beam number="1">end</beam>
            </note>
            <note default-x="191">
                <pitch>
                    <step>E</step>
                    <octave>4</octave>
                </pitch>
                <duration>6</duration>
                <voice>1</voice>
                <type>quarter</type>
                <dot/>
                <stem default-y="-4.5">up</stem>
            </note>
            <note default-x="265">
                <pitch>
                    <step>E</step>
                    <octave>4</octave>
                </pitch>
                <duration>2</duration>
                <voice>1</voice>
                <type>eighth</type>
                <stem default-y="-4.5">up</stem>
            </note>
        </measure>
        <measure width="260" number="5">
            <harmony font-family="Times New Roman" default-y="22">
                <root>
                    <root-step>G</root-step>
                </root>
                <kind halign="left" text="7">dominant</kind>
            </harmony>
            <note default-x="10">
                <pitch>
                    <step>G</step>
                    <octave>4</octave>
                </pitch>
                <duration>6</duration>
                <voice>1</voice>
                <type>quarter</type>
                <dot/>
                <stem default-y="6">up</stem>
            </note>
            <note default-x="85">
                <pitch>
                    <step>E</step>
                    <octave>4</octave>
                </pitch>
                <duration>1</duration>
                <voice>1</voice>
                <type>16th</type>
                <stem default-y="2.5">up</stem>
                <beam number="1">begin</beam>
                <beam number="2">begin</beam>
            </note>
            <note default-x="110">
                <pitch>
                    <step>G</step>
                    <octave>4</octave>
                </pitch>
                <duration>1</duration>
                <voice>1</voice>
                <type>16th</type>
                <stem default-y="5">up</stem>
                <beam number="1">end</beam>
                <beam number="2">end</beam>
            </note>
            <harmony font-family="Times New Roman" default-y="22">
                <root>
                    <root-step>C</root-step>
                </root>
                <kind halign="left" text="">major</kind>
            </harmony>
            <note default-x="134">
                <pitch>
                    <step>C</step>
                    <octave>5</octave>
                </pitch>
                <duration>6</duration>
                <voice>1</voice>
                <type>quarter</type>
                <dot/>
                <stem default-y="-50.5">down</stem>
            </note>
            <note default-x="210">
                <pitch>
                    <step>C</step>
                    <octave>4</octave>
                </pitch>
                <duration>1</duration>
                <voice>1</voice>
                <type>16th</type>
                <stem default-y="-7.5">up</stem>
                <beam number="1">begin</beam>
                <beam number="2">begin</beam>
            </note>
            <note default-x="234">
                <pitch>
                    <step>E</step>
                    <octave>4</octave>
                </pitch>
                <duration>1</duration>
                <voice>1</voice>
                <type>16th</type>
                <stem default-y="-5">up</stem>
                <beam number="1">end</beam>
                <beam number="2">end</beam>
            </note>
        </measure>
        <measure width="206" number="6">
            <harmony font-family="Times New Roman" default-y="22">
                <root>
                    <root-step>G</root-step>
                </root>
                <kind halign="left" text="7">dominant</kind>
            </harmony>
            <note default-x="10">
                <pitch>
                    <step>G</step>
                    <octave>4</octave>
                </pitch>
                <duration>4</duration>
                <voice>1</voice>
                <type>quarter</type>
                <stem default-y="6">up</stem>
            </note>
            <note default-x="55">
                <pitch>
                    <step>G</step>
                    <octave>4</octave>
                </pitch>
                <duration>4</duration>
                <voice>1</voice>
                <type>quarter</type>
                <stem default-y="6">up</stem>
            </note>
            <harmony font-family="Times New Roman" default-y="22">
                <root>
                    <root-step>C</root-step>
                </root>
                <kind halign="left" text="">major</kind>
            </harmony>
            <note default-x="99">
                <pitch>
                    <step>C</step>
                    <octave>4</octave>
                </pitch>
                <duration>6</duration>
                <voice>1</voice>
                <type>quarter</type>
                <dot/>
                <stem default-y="-14.5">up</stem>
            </note>
            <note default-x="173">
                <pitch>
                    <step>E</step>
                    <octave>4</octave>
                </pitch>
                <duration>2</duration>
                <voice>1</voice>
                <type>eighth</type>
                <stem default-y="-4.5">up</stem>
            </note>
        </measure>
        <measure width="259" number="7">
            <harmony font-family="Times New Roman" default-y="22">
                <root>
                    <root-step>G</root-step>
                </root>
                <kind halign="left" text="7">dominant</kind>
            </harmony>
            <note default-x="10">
                <pitch>
                    <step>G</step>
                    <octave>4</octave>
                </pitch>
                <duration>6</duration>
                <voice>1</voice>
                <type>quarter</type>
                <dot/>
                <stem default-y="6">up</stem>
            </note>
            <note default-x="86">
                <pitch>
                    <step>E</step>
                    <octave>4</octave>
                </pitch>
                <duration>1</duration>
                <voice>1</voice>
                <type>16th</type>
                <stem default-y="2.5">up</stem>
                <beam number="1">begin</beam>
                <beam number="2">begin</beam>
            </note>
            <note default-x="109">
                <pitch>
                    <step>G</step>
                    <octave>4</octave>
                </pitch>
                <duration>1</duration>
                <voice>1</voice>
                <type>16th</type>
                <stem default-y="5">up</stem>
                <beam number="1">end</beam>
                <beam number="2">end</beam>
            </note>
            <harmony font-family="Times New Roman" default-y="22">
                <root>
                    <root-step>C</root-step>
                </root>
                <kind halign="left" text="">major</kind>
            </harmony>
            <note default-x="134">
                <pitch>
                    <step>C</step>
                    <octave>5</octave>
                </pitch>
                <duration>6</duration>
                <voice>1</voice>
                <type>quarter</type>
                <dot/>
                <stem default-y="-50.5">down</stem>
            </note>
            <note default-x="209">
                <pitch>
                    <step>C</step>
                    <octave>4</octave>
                </pitch>
                <duration>1</duration>
                <voice>1</voice>
                <type>16th</type>
                <stem default-y="-7.5">up</stem>
                <beam number="1">begin</beam>
                <beam number="2">begin</beam>
            </note>
            <note default-x="234">
                <pitch>
                    <step>E</step>
                    <octave>4</octave>
                </pitch>
                <duration>1</duration>
                <voice>1</voice>
                <type>16th</type>
                <stem default-y="-5">up</stem>
                <beam number="1">end</beam>
                <beam number="2">end</beam>
            </note>
        </measure>
        <measure width="241" number="8">
            <print new-system="yes">
                <system-layout>
                    <system-margins>
                        <left-margin>1</left-margin>
                        <right-margin>0</right-margin>
                    </system-margins>
                </system-layout>
            </print>
            <harmony font-family="Times New Roman" default-y="13">
                <root>
                    <root-step>G</root-step>
                </root>
                <kind halign="left" text="7">dominant</kind>
            </harmony>
            <note default-x="51">
                <pitch>
                    <step>G</step>
                    <octave>4</octave>
                </pitch>
                <duration>4</duration>
                <voice>1</voice>
                <type>quarter</type>
                <stem default-y="6">up</stem>
            </note>
            <note default-x="98">
                <pitch>
                    <step>G</step>
                    <octave>4</octave>
                </pitch>
                <duration>4</duration>
                <voice>1</voice>
                <type>quarter</type>
                <stem default-y="6">up</stem>
            </note>
            <harmony font-family="Times New Roman" default-y="13">
                <root>
                    <root-step>C</root-step>
                </root>
                <kind halign="left" text="">major</kind>
            </harmony>
            <note default-x="145">
                <pitch>
                    <step>C</step>
                    <octave>4</octave>
                </pitch>
                <duration>4</duration>
                <voice>1</voice>
                <type>quarter</type>
                <stem default-y="-14.5">up</stem>
            </note>
            <note default-x="192">
                <pitch>
                    <step>C</step>
                    <octave>5</octave>
                </pitch>
                <duration>4</duration>
                <voice>1</voice>
                <type>quarter</type>
                <stem default-y="-50.5">down</stem>
            </note>
        </measure>
        <measure width="238" number="9">
            <harmony font-family="Times New Roman" default-y="13">
                <root>
                    <root-step>G</root-step>
                </root>
                <kind halign="left" text="7">dominant</kind>
            </harmony>
            <note default-x="10">
                <pitch>
                    <step>B</step>
                    <octave>4</octave>
                </pitch>
                <duration>4</duration>
                <voice>1</voice>
                <type>quarter</type>
                <stem default-y="-55.5">down</stem>
            </note>
            <note default-x="57">
                <pitch>
                    <step>A</step>
                    <octave>4</octave>
                </pitch>
                <duration>2</duration>
                <voice>1</voice>
                <type>eighth</type>
                <stem default-y="10">up</stem>
                <beam number="1">begin</beam>
            </note>
            <note default-x="90">
                <pitch>
                    <step>G</step>
                    <octave>4</octave>
                </pitch>
                <duration>2</duration>
                <voice>1</voice>
                <type>eighth</type>
                <stem default-y="8">up</stem>
                <beam number="1">end</beam>
            </note>
            <note default-x="124">
                <pitch>
                    <step>F</step>
                    <octave>4</octave>
                </pitch>
                <duration>4</duration>
                <voice>1</voice>
                <type>quarter</type>
                <stem default-y="1">up</stem>
            </note>
            <note default-x="170">
                <pitch>
                    <step>E</step>
                    <octave>4</octave>
                </pitch>
                <duration>2</duration>
                <voice>1</voice>
                <type>eighth</type>
                <stem default-y="-5">up</stem>
                <beam number="1">begin</beam>
            </note>
            <note default-x="203">
                <pitch>
                    <step>D</step>
                    <octave>4</octave>
                </pitch>
                <duration>2</duration>
                <voice>1</voice>
                <type>eighth</type>
                <stem default-y="-7">up</stem>
                <beam number="1">end</beam>
            </note>
        </measure>
        <measure width="271" number="10">
            <harmony font-family="Times New Roman" default-y="13">
                <root>
                    <root-step>C</root-step>
                </root>
                <kind halign="left" text="">major</kind>
            </harmony>
            <note default-x="14">
                <pitch>
                    <step>C</step>
                    <octave>4</octave>
                </pitch>
                <duration>3</duration>
                <voice>1</voice>
                <type>eighth</type>
                <dot/>
                <stem default-y="-15">up</stem>
                <beam number="1">begin</beam>
            </note>
            <note default-x="60">
                <pitch>
                    <step>C</step>
                    <octave>4</octave>
                </pitch>
                <duration>1</duration>
                <voice>1</voice>
                <type>16th</type>
                <stem default-y="-15">up</stem>
                <beam number="1">end</beam>
                <beam number="2">backward hook</beam>
            </note>
            <note default-x="89">
                <pitch>
                    <step>C</step>
                    <octave>4</octave>
                </pitch>
                <duration>2</duration>
                <voice>1</voice>
                <type>eighth</type>
                <stem default-y="-7">up</stem>
                <beam number="1">begin</beam>
            </note>
            <note default-x="122">
                <pitch>
                    <step>E</step>
                    <octave>4</octave>
                </pitch>
                <duration>2</duration>
                <voice>1</voice>
                <type>eighth</type>
                <stem default-y="-5">up</stem>
                <beam number="1">end</beam>
            </note>
            <note default-x="156">
                <pitch>
                    <step>G</step>
                    <octave>4</octave>
                </pitch>
                <duration>6</duration>
                <voice>1</voice>
                <type>quarter</type>
                <dot/>
                <stem default-y="6">up</stem>
            </note>
            <note default-x="236">
                <pitch>
                    <step>G</step>
                    <octave>4</octave>
                </pitch>
                <duration>2</duration>
                <voice>1</voice>
                <type>eighth</type>
                <stem default-y="6">up</stem>
            </note>
        </measure>
        <measure width="272" number="11">
            <harmony font-family="Times New Roman" default-y="13">
                <root>
                    <root-step>G</root-step>
                </root>
                <kind halign="left" text="7">dominant</kind>
            </harmony>
            <note default-x="10">
                <pitch>
                    <step>G</step>
                    <octave>4</octave>
                </pitch>
                <duration>2</duration>
                <voice>1</voice>
                <type>eighth</type>
                <stem default-y="5">up</stem>
                <beam number="1">begin</beam>
            </note>
            <note default-x="43">
                <pitch>
                    <step>G</step>
                    <octave>4</octave>
                </pitch>
                <duration>1</duration>
                <voice>1</voice>
                <type>16th</type>
                <stem default-y="5">up</stem>
                <beam number="1">continue</beam>
                <beam number="2">begin</beam>
            </note>
            <note default-x="68">
                <pitch>
                    <step>G</step>
                    <octave>4</octave>
                </pitch>
                <duration>1</duration>
                <voice>1</voice>
                <type>16th</type>
                <stem default-y="5">up</stem>
                <beam number="1">end</beam>
                <beam number="2">end</beam>
            </note>
            <note default-x="93">
                <pitch>
                    <step>G</step>
                    <octave>4</octave>
                </pitch>
                <duration>2</duration>
                <voice>1</voice>
                <type>eighth</type>
                <stem default-y="5">up</stem>
                <beam number="1">begin</beam>
            </note>
            <note default-x="126">
                <pitch>
                    <step>G</step>
                    <octave>4</octave>
                </pitch>
                <duration>2</duration>
                <voice>1</voice>
                <type>eighth</type>
                <stem default-y="5">up</stem>
                <beam number="1">end</beam>
            </note>
            <note default-x="159">
                <pitch>
                    <step>G</step>
                    <octave>4</octave>
                </pitch>
                <duration>6</duration>
                <voice>1</voice>
                <type>quarter</type>
                <dot/>
                <stem default-y="6">up</stem>
            </note>
            <note default-x="237">
                <pitch>
                    <step>G</step>
                    <octave>4</octave>
                </pitch>
                <duration>2</duration>
                <voice>1</voice>
                <type>eighth</type>
                <stem default-y="6">up</stem>
            </note>
        </measure>
        <measure width="276" number="12">
            <print new-system="yes">
                <system-layout>
                    <system-margins>
                        <left-margin>0</left-margin>
                        <right-margin>0</right-margin>
                    </system-margins>
                    <system-distance>132</system-distance>
                </system-layout>
            </print>
            <harmony font-family="Times New Roman" default-y="12">
                <root>
                    <root-step>C</root-step>
                </root>
                <kind halign="left" text="">major</kind>
            </harmony>
            <note default-x="50">
                <pitch>
                    <step>C</step>
                    <octave>5</octave>
                </pitch>
                <duration>2</duration>
                <voice>1</voice>
                <type>eighth</type>
                <stem default-y="20">up</stem>
                <beam number="1">begin</beam>
            </note>
            <note default-x="83">
                <pitch>
                    <step>G</step>
                    <octave>4</octave>
                </pitch>
                <duration>2</duration>
                <voice>1</voice>
                <type>eighth</type>
                <stem default-y="18">up</stem>
                <beam number="1">end</beam>
            </note>
            <note default-x="115">
                <pitch>
                    <step>E</step>
                    <octave>4</octave>
                </pitch>
                <duration>2</duration>
                <voice>1</voice>
                <type>eighth</type>
                <stem default-y="-5">up</stem>
                <beam number="1">begin</beam>
            </note>
            <note default-x="148">
                <pitch>
                    <step>C</step>
                    <octave>4</octave>
                </pitch>
                <duration>2</duration>
                <voice>1</voice>
                <type>eighth</type>
                <stem default-y="-7.5">up</stem>
                <beam number="1">end</beam>
            </note>
            <harmony font-family="Times New Roman" default-y="12">
                <root>
                    <root-step>G</root-step>
                </root>
                <kind halign="left" text="7">dominant</kind>
            </harmony>
            <note default-x="181">
                <pitch>
                    <step>G</step>
                    <octave>4</octave>
                </pitch>
                <duration>4</duration>
                <voice>1</voice>
                <type>quarter</type>
                <stem default-y="6">up</stem>
            </note>
            <harmony font-family="Times New Roman" default-y="12">
                <root>
                    <root-step>C</root-step>
                </root>
                <kind halign="left" text="">major</kind>
            </harmony>
            <note default-x="228">
                <pitch>
                    <step>C</step>
                    <octave>5</octave>
                </pitch>
                <duration>4</duration>
                <voice>1</voice>
                <type>quarter</type>
                <stem default-y="-50.5">down</stem>
            </note>
        </measure>
        <measure width="237" number="13">
            <harmony font-family="Times New Roman" default-y="12">
                <root>
                    <root-step>G</root-step>
                </root>
                <kind halign="left" text="7">dominant</kind>
            </harmony>
            <note default-x="10">
                <pitch>
                    <step>B</step>
                    <octave>4</octave>
                </pitch>
                <duration>4</duration>
                <voice>1</voice>
                <type>quarter</type>
                <stem default-y="-56">down</stem>
            </note>
            <note default-x="58">
                <pitch>
                    <step>A</step>
                    <octave>4</octave>
                </pitch>
                <duration>2</duration>
                <voice>1</voice>
                <type>eighth</type>
                <stem default-y="10">up</stem>
                <beam number="1">begin</beam>
            </note>
            <note default-x="90">
                <pitch>
                    <step>G</step>
                    <octave>4</octave>
                </pitch>
                <duration>2</duration>
                <voice>1</voice>
                <type>eighth</type>
                <stem default-y="8">up</stem>
                <beam number="1">end</beam>
            </note>
            <note default-x="123">
                <pitch>
                    <step>F</step>
                    <octave>4</octave>
                </pitch>
                <duration>4</duration>
                <voice>1</voice>
                <type>quarter</type>
                <stem default-y="0.5">up</stem>
            </note>
            <note default-x="170">
                <pitch>
                    <step>E</step>
                    <octave>4</octave>
                </pitch>
                <duration>2</duration>
                <voice>1</voice>
                <type>eighth</type>
                <stem default-y="-5">up</stem>
                <beam number="1">begin</beam>
            </note>
            <note default-x="203">
                <pitch>
                    <step>D</step>
                    <octave>4</octave>
                </pitch>
                <duration>2</duration>
                <voice>1</voice>
                <type>eighth</type>
                <stem default-y="-7.5">up</stem>
                <beam number="1">end</beam>
            </note>
        </measure>
        <measure width="291" number="14">
            <harmony font-family="Times New Roman" default-y="12">
                <root>
                    <root-step>C</root-step>
                </root>
                <kind halign="left" text="">major</kind>
            </harmony>
            <note default-x="15">
                <pitch>
                    <step>C</step>
                    <octave>4</octave>
                </pitch>
                <duration>3</duration>
                <voice>1</voice>
                <type>eighth</type>
                <dot/>
                <stem default-y="-15">up</stem>
                <beam number="1">begin</beam>
            </note>
            <note default-x="61">
                <pitch>
                    <step>C</step>
                    <octave>4</octave>
                </pitch>
                <duration>1</duration>
                <voice>1</voice>
                <type>16th</type>
                <stem default-y="-15">up</stem>
                <beam number="1">end</beam>
                <beam number="2">backward hook</beam>
            </note>
            <note default-x="89">
                <pitch>
                    <step>C</step>
                    <octave>4</octave>
                </pitch>
                <duration>2</duration>
                <voice>1</voice>
                <type>eighth</type>
                <stem default-y="-7.5">up</stem>
                <beam number="1">begin</beam>
            </note>
            <note default-x="123">
                <pitch>
                    <step>E</step>
                    <octave>4</octave>
                </pitch>
                <duration>2</duration>
                <voice>1</voice>
                <type>eighth</type>
                <stem default-y="-5">up</stem>
                <beam number="1">end</beam>
            </note>
            <note default-x="157">
                <pitch>
                    <step>G</step>
                    <octave>4</octave>
                </pitch>
                <duration>6</duration>
                <voice>1</voice>
                <type>quarter</type>
                <dot/>
                <stem default-y="6">up</stem>
            </note>
            <note default-x="237">
                <pitch>
                    <step>C</step>
                    <octave>4</octave>
                </pitch>
                <duration>1</duration>
                <voice>1</voice>
                <type>16th</type>
                <stem default-y="-7.5">up</stem>
                <beam number="1">begin</beam>
                <beam number="2">begin</beam>
            </note>
            <note default-x="264">
                <pitch>
                    <step>E</step>
                    <octave>4</octave>
                </pitch>
                <duration>1</duration>
                <voice>1</voice>
                <type>16th</type>
                <stem default-y="-5">up</stem>
                <beam number="1">end</beam>
                <beam number="2">end</beam>
            </note>
        </measure>
        <measure width="218" number="15">
            <harmony font-family="Times New Roman" default-y="12">
                <root>
                    <root-step>G</root-step>
                </root>
                <kind halign="left" text="7">dominant</kind>
            </harmony>
            <note default-x="10">
                <pitch>
                    <step>G</step>
                    <octave>4</octave>
                </pitch>
                <duration>4</duration>
                <voice>1</voice>
                <type>quarter</type>
                <stem default-y="6">up</stem>
            </note>
            <note default-x="57">
                <pitch>
                    <step>G</step>
                    <octave>4</octave>
                </pitch>
                <duration>2</duration>
                <voice>1</voice>
                <type>eighth</type>
                <stem default-y="5">up</stem>
                <beam number="1">begin</beam>
            </note>
            <note default-x="90">
                <pitch>
                    <step>G</step>
                    <octave>4</octave>
                </pitch>
                <duration>2</duration>
                <voice>1</voice>
                <type>eighth</type>
                <stem default-y="5">up</stem>
                <beam number="1">end</beam>
            </note>
            <harmony font-family="Times New Roman" default-y="12">
                <root>
                    <root-step>C</root-step>
                </root>
                <kind halign="left" text="">major</kind>
            </harmony>
            <note default-x="123">
                <pitch>
                    <step>C</step>
                    <octave>5</octave>
                </pitch>
                <duration>4</duration>
                <voice>1</voice>
                <type>quarter</type>
                <stem default-y="-50.5">down</stem>
            </note>
            <note default-x="170">
                <pitch>
                    <step>C</step>
                    <octave>4</octave>
                </pitch>
                <duration>4</duration>
                <voice>1</voice>
                <type>quarter</type>
                <stem default-y="-14.5">up</stem>
            </note>
        </measure>
        <measure width="279" number="16">
            <print new-system="yes"/>
            <barline location="left">
                <ending font-size="8.2" font-family="Times New Roman" default-y="30" type="start" number="1" end-length="30"></ending>
            </barline>
            <harmony font-family="Times New Roman" default-y="10">
                <root>
                    <root-step>G</root-step>
                </root>
                <kind halign="left" text="7">dominant</kind>
            </harmony>
            <note default-x="65">
                <pitch>
                    <step>G</step>
                    <octave>4</octave>
                </pitch>
                <duration>4</duration>
                <voice>1</voice>
                <type>quarter</type>
                <stem default-y="6">up</stem>
            </note>
            <note default-x="111">
                <pitch>
                    <step>G</step>
                    <octave>4</octave>
                </pitch>
                <duration>4</duration>
                <voice>1</voice>
                <type>quarter</type>
                <stem default-y="6">up</stem>
            </note>
            <harmony font-family="Times New Roman" default-y="10">
                <root>
                    <root-step>C</root-step>
                </root>
                <kind halign="left" text="">major</kind>
            </harmony>
            <note default-x="146">
                <pitch>
                    <step>C</step>
                    <octave>4</octave>
                </pitch>
                <duration>6</duration>
                <voice>1</voice>
                <type>quarter</type>
                <dot/>
                <stem default-y="-14.5">up</stem>
            </note>
            <note default-x="225">
                <pitch>
                    <step>C</step>
                    <octave>4</octave>
                </pitch>
                <duration>2</duration>
                <voice>1</voice>
                <type>eighth</type>
                <stem default-y="-14.5">up</stem>
            </note>
            <barline location="right">
                <bar-style>light-heavy</bar-style>
                <ending type="stop" number="1"></ending>
                <repeat direction="backward"/>
            </barline>
        </measure>
        <measure width="240" number="17">
            <barline location="left">
                <ending font-size="8.2" font-family="Times New Roman" default-y="30" type="start" number="2" end-length="30"></ending>
            </barline>
            <harmony font-family="Times New Roman" default-y="10">
                <root>
                    <root-step>G</root-step>
                </root>
                <kind halign="left" text="7">dominant</kind>
            </harmony>
            <note default-x="20">
                <pitch>
                    <step>G</step>
                    <octave>4</octave>
                </pitch>
                <duration>4</duration>
                <voice>1</voice>
                <type>quarter</type>
                <stem default-y="6">up</stem>
            </note>
            <note default-x="62">
                <pitch>
                    <step>G</step>
                    <octave>4</octave>
                </pitch>
                <duration>4</duration>
                <voice>1</voice>
                <type>quarter</type>
                <stem default-y="6">up</stem>
            </note>
            <harmony font-family="Times New Roman" default-y="10">
                <root>
                    <root-step>C</root-step>
                </root>
                <kind halign="left" text="">major</kind>
            </harmony>
            <note default-x="101">
                <pitch>
                    <step>C</step>
                    <octave>4</octave>
                </pitch>
                <duration>2</duration>
                <voice>1</voice>
                <type>eighth</type>
                <stem default-y="-14.5">up</stem>
            </note>
            <note default-x="134">
                <rest/>
                <duration>2</duration>
                <voice>1</voice>
                <type>eighth</type>
            </note>
            <note default-x="166">
                <pitch>
                    <step>C</step>
                    <octave>5</octave>
                </pitch>
                <duration>2</duration>
                <voice>1</voice>
                <type>eighth</type>
                <stem default-y="-50.5">down</stem>
            </note>
            <note default-x="198">
                <rest/>
                <duration>2</duration>
                <voice>1</voice>
                <type>eighth</type>
            </note>
            <barline location="right">
                <bar-style>light-heavy</bar-style>
                <ending type="discontinue" number="2"></ending>
            </barline>
        </measure>
    </part>
</score-partwise>
