<?xml version="1.0" encoding="UTF-8"?>
<!DOCTYPE score-partwise PUBLIC "-//Recordare//DTD MusicXML 2.0 Partwise//EN" "http://www.musicxml.org/dtds/partwise.dtd">
<score-partwise version="2.0">
    <work>
        <work-number></work-number>
        <work-title></work-title>
    </work>
    <movement-number></movement-number>
    <movement-title>Er Staat Een Paard In De Gang</movement-title>
    <identification>
        <creator type="composer">Traditional</creator>
        <creator type="poet"></creator>
        <rights>All Rights Reserved</rights>
        <encoding>
            <software>Finale 2010 for Windows</software>
            <software>Dolet Light for Finale 2010</software>
            <encoding-date>2010-10-30</encoding-date>
            <supports value="yes" type="yes" element="print" attribute="new-system"/>
            <supports value="yes" type="yes" element="print" attribute="new-page"/>
            <software>ProxyMusic 2.0 c</software>
        </encoding>
        <source>http://wikifonia.org/node/8109/revisions/11239/view</source>
    </identification>
    <defaults>
        <scaling>
            <millimeters>6.9674</millimeters>
            <tenths>40</tenths>
        </scaling>
        <page-layout>
            <page-height>1704</page-height>
            <page-width>1205</page-width>
            <page-margins type="even">
                <left-margin>109</left-margin>
                <right-margin>73</right-margin>
                <top-margin>127</top-margin>
                <bottom-margin>252</bottom-margin>
            </page-margins>
            <page-margins type="odd">
                <left-margin>109</left-margin>
                <right-margin>73</right-margin>
                <top-margin>127</top-margin>
                <bottom-margin>252</bottom-margin>
            </page-margins>
        </page-layout>
        <system-layout>
            <system-margins>
                <left-margin>558</left-margin>
                <right-margin>2</right-margin>
            </system-margins>
            <system-distance>-35</system-distance>
            <top-system-distance>-43</top-system-distance>
        </system-layout>
        <appearance>
            <line-width type="stem">1.0026</line-width>
            <line-width type="beam">5</line-width>
            <line-width type="staff">1.4779</line-width>
            <line-width type="light barline">1.6016</line-width>
            <line-width type="heavy barline">5</line-width>
            <line-width type="leger">1.6016</line-width>
            <line-width type="ending">0.957</line-width>
            <line-width type="wedge">1.0026</line-width>
            <line-width type="enclosure">1.0026</line-width>
            <line-width type="tuplet bracket">1.0026</line-width>
            <note-size type="grace">60</note-size>
            <note-size type="cue">60</note-size>
        </appearance>
        <music-font font-size="19.75" font-family="Opus"/>
        <word-font font-size="9.9" font-family="Opus Special"/>
    </defaults>
    <credit page="1">
        <credit-words font-size="8" font-family="Times New Roman"> Laukens Music Productions  </credit-words>
    </credit>
    <credit page="1">
        <credit-words font-size="12" font-family="Times New Roman" default-y="1547" default-x="109" valign="top">Mars</credit-words>
    </credit>
    <credit page="1">
        <credit-words font-weight="bold" font-style="italic" font-size="24" font-family="Times New Roman" default-y="1601" default-x="615" halign="center" valign="top">ER STAAT EEN PAARD IN DE GANG</credit-words>
    </credit>
    <credit page="1">
        <credit-words font-size="12" font-family="Times New Roman" default-y="1547" default-x="1131" halign="right" valign="top">Arr. H. Laukens</credit-words>
    </credit>
    <part-list>
        <score-part id="P1">
            <part-name print-object="no">Track 0-4</part-name>
            <score-instrument id="P1-I1">
                <instrument-name>Acoustic Grand Piano</instrument-name>
            </score-instrument>
            <midi-instrument id="P1-I1">
                <midi-channel>1</midi-channel>
                <midi-program>1</midi-program>
                <volume>80</volume>
                <pan>0</pan>
            </midi-instrument>
        </score-part>
    </part-list>
    <part id="P1">
        <measure width="326" number="1">
            <print>
                <system-layout>
                    <system-margins>
                        <left-margin>60</left-margin>
                        <right-margin>0</right-margin>
                    </system-margins>
                    <top-system-distance>213</top-system-distance>
                </system-layout>
            </print>
            <attributes>
                <divisions>4</divisions>
                <key>
                    <fifths>-2</fifths>
                    <mode>major</mode>
                </key>
                <time>
                    <beats>4</beats>
                    <beat-type>4</beat-type>
                </time>
                <clef>
                    <sign>G</sign>
                    <line>2</line>
                </clef>
            </attributes>
            <sound tempo="150"/>
            <harmony font-weight="bold" font-family="Opus Chords" default-y="18">
                <root>
                    <root-step>B</root-step>
                    <root-alter>-1</root-alter>
                </root>
                <kind halign="left" text="">major</kind>
            </harmony>
            <note default-x="99">
                <pitch>
                    <step>D</step>
                    <octave>4</octave>
                </pitch>
                <duration>2</duration>
                <voice>1</voice>
                <type>eighth</type>
                <stem default-y="15">up</stem>
                <beam number="1">begin</beam>
            </note>
            <note default-x="99">
                <chord/>
                <pitch>
                    <step>B</step>
                    <alter>-1</alter>
                    <octave>4</octave>
                </pitch>
                <duration>2</duration>
                <voice>1</voice>
                <type>eighth</type>
                <stem>up</stem>
            </note>
            <note default-x="127">
                <pitch>
                    <step>D</step>
                    <octave>4</octave>
                </pitch>
                <duration>1</duration>
                <voice>1</voice>
                <type>16th</type>
                <stem default-y="15">up</stem>
                <beam number="1">continue</beam>
                <beam number="2">begin</beam>
            </note>
            <note default-x="127">
                <chord/>
                <pitch>
                    <step>B</step>
                    <alter>-1</alter>
                    <octave>4</octave>
                </pitch>
                <duration>1</duration>
                <voice>1</voice>
                <type>16th</type>
                <stem>up</stem>
            </note>
            <note default-x="149">
                <pitch>
                    <step>D</step>
                    <octave>4</octave>
                </pitch>
                <duration>1</duration>
                <voice>1</voice>
                <type>16th</type>
                <stem default-y="15">up</stem>
                <beam number="1">end</beam>
                <beam number="2">end</beam>
            </note>
            <note default-x="149">
                <chord/>
                <pitch>
                    <step>B</step>
                    <alter>-1</alter>
                    <octave>4</octave>
                </pitch>
                <duration>1</duration>
                <voice>1</voice>
                <type>16th</type>
                <stem>up</stem>
            </note>
            <note default-x="172">
                <pitch>
                    <step>D</step>
                    <octave>4</octave>
                </pitch>
                <duration>2</duration>
                <voice>1</voice>
                <type>eighth</type>
                <stem default-y="15">up</stem>
                <beam number="1">begin</beam>
            </note>
            <note default-x="172">
                <chord/>
                <pitch>
                    <step>B</step>
                    <alter>-1</alter>
                    <octave>4</octave>
                </pitch>
                <duration>2</duration>
                <voice>1</voice>
                <type>eighth</type>
                <stem>up</stem>
            </note>
            <note default-x="199">
                <pitch>
                    <step>B</step>
                    <alter>-1</alter>
                    <octave>3</octave>
                </pitch>
                <duration>2</duration>
                <voice>1</voice>
                <type>eighth</type>
                <stem default-y="13">up</stem>
                <beam number="1">end</beam>
            </note>
            <note default-x="199">
                <chord/>
                <pitch>
                    <step>F</step>
                    <octave>4</octave>
                </pitch>
                <duration>2</duration>
                <voice>1</voice>
                <type>eighth</type>
                <stem>up</stem>
            </note>
            <note default-x="228">
                <pitch>
                    <step>D</step>
                    <octave>4</octave>
                </pitch>
                <duration>2</duration>
                <voice>1</voice>
                <type>eighth</type>
                <stem default-y="23">up</stem>
                <beam number="1">begin</beam>
            </note>
            <note default-x="228">
                <chord/>
                <pitch>
                    <step>B</step>
                    <alter>-1</alter>
                    <octave>4</octave>
                </pitch>
                <duration>2</duration>
                <voice>1</voice>
                <type>eighth</type>
                <stem>up</stem>
            </note>
            <note default-x="256">
                <pitch>
                    <step>F</step>
                    <octave>4</octave>
                </pitch>
                <duration>2</duration>
                <voice>1</voice>
                <type>eighth</type>
                <stem default-y="25">up</stem>
                <beam number="1">end</beam>
            </note>
            <note default-x="256">
                <chord/>
                <pitch>
                    <step>D</step>
                    <octave>5</octave>
                </pitch>
                <duration>2</duration>
                <voice>1</voice>
                <type>eighth</type>
                <stem>up</stem>
            </note>
            <note default-x="284">
                <pitch>
                    <step>B</step>
                    <alter>-1</alter>
                    <octave>4</octave>
                </pitch>
                <duration>4</duration>
                <voice>1</voice>
                <type>quarter</type>
                <stem default-y="-56">down</stem>
            </note>
            <note default-x="284">
                <chord/>
                <pitch>
                    <step>F</step>
                    <octave>5</octave>
                </pitch>
                <duration>4</duration>
                <voice>1</voice>
                <type>quarter</type>
                <stem>down</stem>
            </note>
        </measure>
        <measure width="221" number="2">
            <harmony font-weight="bold" font-family="Opus Chords" default-y="18">
                <root>
                    <root-step>F</root-step>
                </root>
                <kind halign="left" text="7">dominant</kind>
            </harmony>
            <note default-x="10">
                <pitch>
                    <step>A</step>
                    <octave>4</octave>
                </pitch>
                <duration>2</duration>
                <voice>1</voice>
                <type>eighth</type>
                <stem default-y="-60">down</stem>
                <beam number="1">begin</beam>
            </note>
            <note default-x="10">
                <chord/>
                <pitch>
                    <step>F</step>
                    <octave>5</octave>
                </pitch>
                <duration>2</duration>
                <voice>1</voice>
                <type>eighth</type>
                <stem>down</stem>
            </note>
            <note default-x="38">
                <pitch>
                    <step>A</step>
                    <octave>4</octave>
                </pitch>
                <duration>1</duration>
                <voice>1</voice>
                <type>16th</type>
                <stem default-y="-60">down</stem>
                <beam number="1">continue</beam>
                <beam number="2">begin</beam>
            </note>
            <note default-x="38">
                <chord/>
                <pitch>
                    <step>F</step>
                    <octave>5</octave>
                </pitch>
                <duration>1</duration>
                <voice>1</voice>
                <type>16th</type>
                <stem>down</stem>
            </note>
            <note default-x="60">
                <pitch>
                    <step>A</step>
                    <octave>4</octave>
                </pitch>
                <duration>1</duration>
                <voice>1</voice>
                <type>16th</type>
                <stem default-y="-60">down</stem>
                <beam number="1">end</beam>
                <beam number="2">end</beam>
            </note>
            <note default-x="60">
                <chord/>
                <pitch>
                    <step>F</step>
                    <octave>5</octave>
                </pitch>
                <duration>1</duration>
                <voice>1</voice>
                <type>16th</type>
                <stem>down</stem>
            </note>
            <note default-x="83">
                <pitch>
                    <step>A</step>
                    <octave>4</octave>
                </pitch>
                <duration>2</duration>
                <voice>1</voice>
                <type>eighth</type>
                <stem default-y="-60">down</stem>
                <beam number="1">begin</beam>
            </note>
            <note default-x="83">
                <chord/>
                <pitch>
                    <step>F</step>
                    <octave>5</octave>
                </pitch>
                <duration>2</duration>
                <voice>1</voice>
                <type>eighth</type>
                <stem>down</stem>
            </note>
            <note default-x="110">
                <pitch>
                    <step>A</step>
                    <octave>4</octave>
                </pitch>
                <duration>2</duration>
                <voice>1</voice>
                <type>eighth</type>
                <stem default-y="-60">down</stem>
                <beam number="1">end</beam>
            </note>
            <note default-x="110">
                <chord/>
                <pitch>
                    <step>F</step>
                    <octave>5</octave>
                </pitch>
                <duration>2</duration>
                <voice>1</voice>
                <type>eighth</type>
                <stem>down</stem>
            </note>
            <note default-x="139">
                <pitch>
                    <step>A</step>
                    <octave>4</octave>
                </pitch>
                <duration>4</duration>
                <voice>1</voice>
                <type>quarter</type>
                <stem default-y="-50.5">down</stem>
            </note>
            <note default-x="139">
                <chord/>
                <pitch>
                    <step>F</step>
                    <octave>5</octave>
                </pitch>
                <duration>4</duration>
                <voice>1</voice>
                <type>quarter</type>
                <stem>down</stem>
            </note>
            <note default-x="179">
                <rest/>
                <duration>4</duration>
                <voice>1</voice>
                <type>quarter</type>
            </note>
        </measure>
        <measure width="215" number="3">
            <barline location="left">
                <bar-style>heavy-light</bar-style>
                <repeat direction="forward"/>
            </barline>
            <direction placement="above">
                <direction-type>
                    <segno default-y="9" default-x="10"/>
                </direction-type>
                <sound segno="3" divisions="4"/>
            </direction>
            <harmony font-weight="bold" font-family="Opus Chords" default-y="18">
                <root>
                    <root-step>B</root-step>
                    <root-alter>-1</root-alter>
                </root>
                <kind halign="left" text="">major</kind>
            </harmony>
            <note default-x="32">
                <pitch>
                    <step>B</step>
                    <alter>-1</alter>
                    <octave>3</octave>
                </pitch>
                <duration>8</duration>
                <voice>1</voice>
                <type>half</type>
                <stem default-y="-19">up</stem>
            </note>
            <note default-x="123">
                <pitch>
                    <step>C</step>
                    <octave>4</octave>
                </pitch>
                <duration>8</duration>
                <voice>1</voice>
                <type>half</type>
                <stem default-y="-14">up</stem>
            </note>
        </measure>
        <measure width="201" number="4">
            <attributes>
                <time>
                    <beats>2</beats>
                    <beat-type>4</beat-type>
                </time>
            </attributes>
            <note default-x="32">
                <pitch>
                    <step>D</step>
                    <octave>4</octave>
                </pitch>
                <duration>8</duration>
                <voice>1</voice>
                <type>half</type>
                <stem default-y="-9.5">up</stem>
            </note>
        </measure>
        <measure width="339" number="5">
            <print new-system="yes">
                <system-layout>
                    <system-margins>
                        <left-margin>0</left-margin>
                        <right-margin>0</right-margin>
                    </system-margins>
                    <system-distance>118</system-distance>
                </system-layout>
            </print>
            <attributes>
                <time>
                    <beats>4</beats>
                    <beat-type>4</beat-type>
                </time>
            </attributes>
            <harmony font-weight="bold" font-family="Opus Chords" default-y="13">
                <root>
                    <root-step>E</root-step>
                    <root-alter>-1</root-alter>
                </root>
                <kind halign="left" text="">major</kind>
            </harmony>
            <note default-x="100">
                <pitch>
                    <step>E</step>
                    <alter>-1</alter>
                    <octave>4</octave>
                </pitch>
                <duration>4</duration>
                <voice>1</voice>
                <type>quarter</type>
                <stem default-y="-4">up</stem>
            </note>
            <note default-x="150">
                <pitch>
                    <step>C</step>
                    <octave>4</octave>
                </pitch>
                <duration>2</duration>
                <voice>1</voice>
                <type>eighth</type>
                <stem default-y="-12">up</stem>
                <beam number="1">begin</beam>
            </note>
            <note default-x="186">
                <pitch>
                    <step>D</step>
                    <octave>4</octave>
                </pitch>
                <duration>2</duration>
                <voice>1</voice>
                <type>eighth</type>
                <stem default-y="-10">up</stem>
                <beam number="1">end</beam>
            </note>
            <note default-x="222">
                <pitch>
                    <step>E</step>
                    <alter>-1</alter>
                    <octave>4</octave>
                </pitch>
                <duration>8</duration>
                <tie type="start"/>
                <voice>1</voice>
                <type>half</type>
                <stem default-y="-4">up</stem>
                <notations>
                    <tied type="start"/>
                </notations>
            </note>
        </measure>
        <measure width="216" number="6">
            <note default-x="10">
                <pitch>
                    <step>E</step>
                    <alter>-1</alter>
                    <octave>4</octave>
                </pitch>
                <duration>4</duration>
                <tie type="stop"/>
                <voice>1</voice>
                <type>quarter</type>
                <stem default-y="-4">up</stem>
                <notations>
                    <tied type="stop"/>
                </notations>
            </note>
            <note default-x="61">
                <pitch>
                    <step>G</step>
                    <octave>4</octave>
                </pitch>
                <duration>4</duration>
                <voice>1</voice>
                <type>quarter</type>
                <stem default-y="6">up</stem>
            </note>
            <note default-x="113">
                <pitch>
                    <step>F</step>
                    <octave>4</octave>
                </pitch>
                <duration>4</duration>
                <voice>1</voice>
                <type>quarter</type>
                <stem default-y="1">up</stem>
            </note>
            <note default-x="164">
                <pitch>
                    <step>E</step>
                    <alter>-1</alter>
                    <octave>4</octave>
                </pitch>
                <duration>4</duration>
                <voice>1</voice>
                <type>quarter</type>
                <stem default-y="-4">up</stem>
            </note>
        </measure>
        <measure width="250" number="7">
            <harmony font-weight="bold" font-family="Opus Chords" default-y="13">
                <root>
                    <root-step>B</root-step>
                    <root-alter>-1</root-alter>
                </root>
                <kind halign="left" text="">major</kind>
            </harmony>
            <note default-x="10">
                <pitch>
                    <step>D</step>
                    <octave>4</octave>
                </pitch>
                <duration>4</duration>
                <voice>1</voice>
                <type>quarter</type>
                <stem default-y="-9">up</stem>
            </note>
            <note default-x="61">
                <pitch>
                    <step>B</step>
                    <alter>-1</alter>
                    <octave>3</octave>
                </pitch>
                <duration>2</duration>
                <voice>1</voice>
                <type>eighth</type>
                <stem default-y="-17.5">up</stem>
                <beam number="1">begin</beam>
            </note>
            <note default-x="97">
                <pitch>
                    <step>C</step>
                    <octave>4</octave>
                </pitch>
                <duration>2</duration>
                <voice>1</voice>
                <type>eighth</type>
                <stem default-y="-15">up</stem>
                <beam number="1">end</beam>
            </note>
            <note default-x="133">
                <pitch>
                    <step>D</step>
                    <octave>4</octave>
                </pitch>
                <duration>8</duration>
                <tie type="start"/>
                <voice>1</voice>
                <type>half</type>
                <stem default-y="-9">up</stem>
                <notations>
                    <tied type="start"/>
                </notations>
            </note>
        </measure>
        <measure width="218" number="8">
            <note default-x="10">
                <pitch>
                    <step>D</step>
                    <octave>4</octave>
                </pitch>
                <duration>4</duration>
                <tie type="stop"/>
                <voice>1</voice>
                <type>quarter</type>
                <stem default-y="-9">up</stem>
                <notations>
                    <tied type="stop"/>
                </notations>
            </note>
            <note default-x="62">
                <pitch>
                    <step>F</step>
                    <octave>4</octave>
                </pitch>
                <duration>4</duration>
                <voice>1</voice>
                <type>quarter</type>
                <stem default-y="1">up</stem>
            </note>
            <note default-x="114">
                <pitch>
                    <step>E</step>
                    <alter>-1</alter>
                    <octave>4</octave>
                </pitch>
                <duration>4</duration>
                <voice>1</voice>
                <type>quarter</type>
                <stem default-y="-4">up</stem>
            </note>
            <note default-x="165">
                <pitch>
                    <step>D</step>
                    <octave>4</octave>
                </pitch>
                <duration>4</duration>
                <voice>1</voice>
                <type>quarter</type>
                <stem default-y="-9">up</stem>
            </note>
        </measure>
        <measure width="328" number="9">
            <print new-system="yes">
                <system-layout>
                    <system-margins>
                        <left-margin>0</left-margin>
                        <right-margin>0</right-margin>
                    </system-margins>
                    <system-distance>118</system-distance>
                </system-layout>
            </print>
            <harmony font-weight="bold" font-family="Opus Chords" default-y="13">
                <root>
                    <root-step>F</root-step>
                </root>
                <kind halign="left" text="7">dominant</kind>
            </harmony>
            <note default-x="82">
                <pitch>
                    <step>C</step>
                    <octave>4</octave>
                </pitch>
                <duration>4</duration>
                <voice>1</voice>
                <type>quarter</type>
                <stem default-y="-14.5">up</stem>
            </note>
            <note default-x="134">
                <pitch>
                    <step>A</step>
                    <octave>3</octave>
                </pitch>
                <duration>2</duration>
                <voice>1</voice>
                <type>eighth</type>
                <stem default-y="-20">up</stem>
                <beam number="1">begin</beam>
            </note>
            <note default-x="171">
                <pitch>
                    <step>B</step>
                    <alter>-1</alter>
                    <octave>3</octave>
                </pitch>
                <duration>2</duration>
                <voice>1</voice>
                <type>eighth</type>
                <stem default-y="-17.5">up</stem>
                <beam number="1">end</beam>
            </note>
            <note default-x="208">
                <pitch>
                    <step>C</step>
                    <octave>4</octave>
                </pitch>
                <duration>8</duration>
                <tie type="start"/>
                <voice>1</voice>
                <type>half</type>
                <stem default-y="-14.5">up</stem>
                <notations>
                    <tied type="start"/>
                </notations>
            </note>
        </measure>
        <measure width="226" number="10">
            <note default-x="14">
                <pitch>
                    <step>C</step>
                    <octave>4</octave>
                </pitch>
                <duration>4</duration>
                <tie type="stop"/>
                <voice>1</voice>
                <type>quarter</type>
                <stem default-y="-14.5">up</stem>
                <notations>
                    <tied type="stop"/>
                </notations>
            </note>
            <note default-x="67">
                <pitch>
                    <step>E</step>
                    <alter>-1</alter>
                    <octave>4</octave>
                </pitch>
                <duration>4</duration>
                <voice>1</voice>
                <type>quarter</type>
                <stem default-y="-4.5">up</stem>
            </note>
            <note default-x="119">
                <pitch>
                    <step>D</step>
                    <octave>4</octave>
                </pitch>
                <duration>4</duration>
                <voice>1</voice>
                <type>quarter</type>
                <stem default-y="-9.5">up</stem>
            </note>
            <note default-x="172">
                <pitch>
                    <step>C</step>
                    <alter>1</alter>
                    <octave>4</octave>
                </pitch>
                <duration>4</duration>
                <voice>1</voice>
                <type>quarter</type>
                <accidental>sharp</accidental>
                <stem default-y="-14.5">up</stem>
            </note>
        </measure>
        <measure width="247" number="11">
            <harmony font-weight="bold" font-family="Opus Chords" default-y="13">
                <root>
                    <root-step>B</root-step>
                    <root-alter>-1</root-alter>
                </root>
                <kind halign="left" text="">major</kind>
            </harmony>
            <note default-x="10">
                <pitch>
                    <step>E</step>
                    <alter>-1</alter>
                    <octave>4</octave>
                </pitch>
                <duration>8</duration>
                <voice>1</voice>
                <type>half</type>
                <stem default-y="-4.5">up</stem>
            </note>
            <note default-x="128">
                <pitch>
                    <step>D</step>
                    <octave>4</octave>
                </pitch>
                <duration>8</duration>
                <tie type="start"/>
                <voice>1</voice>
                <type>half</type>
                <stem default-y="-9.5">up</stem>
                <notations>
                    <tied type="start"/>
                </notations>
            </note>
        </measure>
        <measure width="223" number="12">
            <note default-x="10">
                <pitch>
                    <step>D</step>
                    <octave>4</octave>
                </pitch>
                <duration>4</duration>
                <tie type="stop"/>
                <voice>1</voice>
                <type>quarter</type>
                <stem default-y="-9.5">up</stem>
                <notations>
                    <tied type="stop"/>
                </notations>
            </note>
            <note default-x="63">
                <pitch>
                    <step>B</step>
                    <alter>-1</alter>
                    <octave>3</octave>
                </pitch>
                <duration>4</duration>
                <voice>1</voice>
                <type>quarter</type>
                <stem default-y="-19.5">up</stem>
            </note>
            <note default-x="116">
                <pitch>
                    <step>C</step>
                    <octave>4</octave>
                </pitch>
                <duration>4</duration>
                <voice>1</voice>
                <type>quarter</type>
                <stem default-y="-14.5">up</stem>
            </note>
            <note default-x="168">
                <pitch>
                    <step>D</step>
                    <octave>4</octave>
                </pitch>
                <duration>4</duration>
                <voice>1</voice>
                <type>quarter</type>
                <stem default-y="-9.5">up</stem>
            </note>
        </measure>
        <measure width="322" number="13">
            <print new-system="yes">
                <system-layout>
                    <system-margins>
                        <left-margin>0</left-margin>
                        <right-margin>0</right-margin>
                    </system-margins>
                    <system-distance>118</system-distance>
                </system-layout>
            </print>
            <harmony font-weight="bold" font-family="Opus Chords" default-y="13">
                <root>
                    <root-step>E</root-step>
                    <root-alter>-1</root-alter>
                </root>
                <kind halign="left" text="">major</kind>
            </harmony>
            <note default-x="77">
                <pitch>
                    <step>E</step>
                    <alter>-1</alter>
                    <octave>4</octave>
                </pitch>
                <duration>4</duration>
                <voice>1</voice>
                <type>quarter</type>
                <stem default-y="-4.5">up</stem>
            </note>
            <note default-x="130">
                <pitch>
                    <step>C</step>
                    <octave>4</octave>
                </pitch>
                <duration>2</duration>
                <voice>1</voice>
                <type>eighth</type>
                <stem default-y="-12">up</stem>
                <beam number="1">begin</beam>
            </note>
            <note default-x="166">
                <pitch>
                    <step>D</step>
                    <octave>4</octave>
                </pitch>
                <duration>2</duration>
                <voice>1</voice>
                <type>eighth</type>
                <stem default-y="-10">up</stem>
                <beam number="1">end</beam>
            </note>
            <note default-x="203">
                <pitch>
                    <step>E</step>
                    <alter>-1</alter>
                    <octave>4</octave>
                </pitch>
                <duration>8</duration>
                <tie type="start"/>
                <voice>1</voice>
                <type>half</type>
                <stem default-y="-4.5">up</stem>
                <notations>
                    <tied type="start"/>
                </notations>
            </note>
        </measure>
        <measure width="221" number="14">
            <note default-x="10">
                <pitch>
                    <step>E</step>
                    <alter>-1</alter>
                    <octave>4</octave>
                </pitch>
                <duration>4</duration>
                <tie type="stop"/>
                <voice>1</voice>
                <type>quarter</type>
                <stem default-y="-4.5">up</stem>
                <notations>
                    <tied type="stop"/>
                </notations>
            </note>
            <note default-x="63">
                <pitch>
                    <step>G</step>
                    <octave>4</octave>
                </pitch>
                <duration>4</duration>
                <voice>1</voice>
                <type>quarter</type>
                <stem default-y="5.5">up</stem>
            </note>
            <note default-x="115">
                <pitch>
                    <step>F</step>
                    <octave>4</octave>
                </pitch>
                <duration>4</duration>
                <voice>1</voice>
                <type>quarter</type>
                <stem default-y="0.5">up</stem>
            </note>
            <note default-x="167">
                <pitch>
                    <step>E</step>
                    <alter>-1</alter>
                    <octave>4</octave>
                </pitch>
                <duration>4</duration>
                <voice>1</voice>
                <type>quarter</type>
                <stem default-y="-4.5">up</stem>
            </note>
        </measure>
        <measure width="255" number="15">
            <harmony font-weight="bold" font-family="Opus Chords" default-y="13">
                <root>
                    <root-step>B</root-step>
                    <root-alter>-1</root-alter>
                </root>
                <kind halign="left" text="">major</kind>
            </harmony>
            <note default-x="10">
                <pitch>
                    <step>D</step>
                    <octave>4</octave>
                </pitch>
                <duration>4</duration>
                <voice>1</voice>
                <type>quarter</type>
                <stem default-y="-10">up</stem>
            </note>
            <note default-x="62">
                <pitch>
                    <step>B</step>
                    <alter>-1</alter>
                    <octave>3</octave>
                </pitch>
                <duration>2</duration>
                <voice>1</voice>
                <type>eighth</type>
                <stem default-y="-17">up</stem>
                <beam number="1">begin</beam>
            </note>
            <note default-x="99">
                <pitch>
                    <step>C</step>
                    <octave>4</octave>
                </pitch>
                <duration>2</duration>
                <voice>1</voice>
                <type>eighth</type>
                <stem default-y="-15">up</stem>
                <beam number="1">end</beam>
            </note>
            <note default-x="136">
                <pitch>
                    <step>D</step>
                    <octave>4</octave>
                </pitch>
                <duration>8</duration>
                <tie type="start"/>
                <voice>1</voice>
                <type>half</type>
                <stem default-y="-10">up</stem>
                <notations>
                    <tied type="start"/>
                </notations>
            </note>
        </measure>
        <measure width="224" number="16">
            <note default-x="10">
                <pitch>
                    <step>D</step>
                    <octave>4</octave>
                </pitch>
                <duration>4</duration>
                <tie type="stop"/>
                <voice>1</voice>
                <type>quarter</type>
                <stem default-y="-10">up</stem>
                <notations>
                    <tied type="stop"/>
                </notations>
            </note>
            <note default-x="63">
                <pitch>
                    <step>F</step>
                    <octave>4</octave>
                </pitch>
                <duration>4</duration>
                <voice>1</voice>
                <type>quarter</type>
                <stem default-y="0.5">up</stem>
            </note>
            <note default-x="116">
                <pitch>
                    <step>E</step>
                    <alter>-1</alter>
                    <octave>4</octave>
                </pitch>
                <duration>4</duration>
                <voice>1</voice>
                <type>quarter</type>
                <stem default-y="-4.5">up</stem>
            </note>
            <note default-x="169">
                <pitch>
                    <step>D</step>
                    <octave>4</octave>
                </pitch>
                <duration>4</duration>
                <voice>1</voice>
                <type>quarter</type>
                <stem default-y="-10">up</stem>
            </note>
        </measure>
        <measure width="336" number="17">
            <print new-system="yes">
                <system-layout>
                    <system-margins>
                        <left-margin>0</left-margin>
                        <right-margin>0</right-margin>
                    </system-margins>
                    <system-distance>118</system-distance>
                </system-layout>
            </print>
            <harmony font-weight="bold" font-family="Opus Chords" default-y="13">
                <root>
                    <root-step>F</root-step>
                </root>
                <kind halign="left" text="7">dominant</kind>
            </harmony>
            <note default-x="82">
                <pitch>
                    <step>C</step>
                    <octave>4</octave>
                </pitch>
                <duration>4</duration>
                <voice>1</voice>
                <type>quarter</type>
                <stem default-y="-14.5">up</stem>
            </note>
            <note default-x="136">
                <pitch>
                    <step>A</step>
                    <octave>3</octave>
                </pitch>
                <duration>2</duration>
                <voice>1</voice>
                <type>eighth</type>
                <stem default-y="-20">up</stem>
                <beam number="1">begin</beam>
            </note>
            <note default-x="174">
                <pitch>
                    <step>B</step>
                    <alter>-1</alter>
                    <octave>3</octave>
                </pitch>
                <duration>2</duration>
                <voice>1</voice>
                <type>eighth</type>
                <stem default-y="-17.5">up</stem>
                <beam number="1">end</beam>
            </note>
            <note default-x="212">
                <pitch>
                    <step>C</step>
                    <octave>4</octave>
                </pitch>
                <duration>8</duration>
                <tie type="start"/>
                <voice>1</voice>
                <type>half</type>
                <stem default-y="-14.5">up</stem>
                <notations>
                    <tied type="start"/>
                </notations>
            </note>
        </measure>
        <measure width="239" number="18">
            <note default-x="14">
                <pitch>
                    <step>C</step>
                    <octave>4</octave>
                </pitch>
                <duration>4</duration>
                <tie type="stop"/>
                <voice>1</voice>
                <type>quarter</type>
                <stem default-y="-14.5">up</stem>
                <notations>
                    <tied type="stop"/>
                </notations>
            </note>
            <note default-x="69">
                <pitch>
                    <step>E</step>
                    <alter>-1</alter>
                    <octave>4</octave>
                </pitch>
                <duration>4</duration>
                <voice>1</voice>
                <type>quarter</type>
                <stem default-y="-4">up</stem>
            </note>
            <note default-x="123">
                <pitch>
                    <step>D</step>
                    <octave>4</octave>
                </pitch>
                <duration>4</duration>
                <voice>1</voice>
                <type>quarter</type>
                <stem default-y="-9">up</stem>
            </note>
            <note default-x="178">
                <pitch>
                    <step>C</step>
                    <octave>4</octave>
                </pitch>
                <duration>4</duration>
                <voice>1</voice>
                <type>quarter</type>
                <stem default-y="-14.5">up</stem>
            </note>
            <direction placement="above">
                <direction-type>
                    <coda default-y="15" default-x="210"/>
                </direction-type>
                <sound tocoda="26" time-only="3"/>
            </direction>
            <barline location="right">
                <bar-style>light-light</bar-style>
            </barline>
        </measure>
        <measure width="222" number="19">
            <attributes>
                <time>
                    <beats>2</beats>
                    <beat-type>4</beat-type>
                </time>
            </attributes>
            <harmony font-weight="bold" font-family="Opus Chords" default-y="13">
                <root>
                    <root-step>B</root-step>
                    <root-alter>-1</root-alter>
                </root>
                <kind halign="left" text="">major</kind>
            </harmony>
            <note default-x="35">
                <pitch>
                    <step>B</step>
                    <alter>-1</alter>
                    <octave>3</octave>
                </pitch>
                <duration>8</duration>
                <voice>1</voice>
                <type>half</type>
                <stem default-y="-19.5">up</stem>
            </note>
        </measure>
        <measure width="225" number="20">
            <attributes>
                <time>
                    <beats>4</beats>
                    <beat-type>4</beat-type>
                </time>
            </attributes>
            <note>
                <rest/>
                <duration>16</duration>
                <voice>1</voice>
            </note>
        </measure>
        <measure width="250" number="21">
            <print new-system="yes">
                <system-layout>
                    <system-margins>
                        <left-margin>0</left-margin>
                        <right-margin>0</right-margin>
                    </system-margins>
                    <system-distance>110</system-distance>
                </system-layout>
            </print>
            <note default-x="77">
                <rest/>
                <duration>8</duration>
                <voice>1</voice>
                <type>half</type>
            </note>
            <note default-x="157">
                <rest/>
                <duration>4</duration>
                <voice>1</voice>
                <type>quarter</type>
            </note>
            <note default-x="193">
                <rest/>
                <duration>2</duration>
                <voice>1</voice>
                <type>eighth</type>
            </note>
            <note default-x="220">
                <pitch>
                    <step>B</step>
                    <alter>-1</alter>
                    <octave>3</octave>
                </pitch>
                <duration>2</duration>
                <voice>1</voice>
                <type>eighth</type>
                <stem default-y="-19.5">up</stem>
            </note>
        </measure>
        <measure width="309" number="22">
            <harmony font-weight="bold" font-family="Opus Chords" default-y="13">
                <root>
                    <root-step>B</root-step>
                    <root-alter>-1</root-alter>
                </root>
                <kind halign="left" text="">major</kind>
            </harmony>
            <note default-x="14">
                <pitch>
                    <step>B</step>
                    <alter>-1</alter>
                    <octave>3</octave>
                </pitch>
                <duration>2</duration>
                <voice>1</voice>
                <type>eighth</type>
                <stem default-y="-20">up</stem>
                <beam number="1">begin</beam>
            </note>
            <note default-x="40">
                <pitch>
                    <step>B</step>
                    <alter>-1</alter>
                    <octave>3</octave>
                </pitch>
                <duration>1</duration>
                <voice>1</voice>
                <type>16th</type>
                <stem default-y="-20">up</stem>
                <beam number="1">continue</beam>
                <beam number="2">begin</beam>
            </note>
            <note default-x="65">
                <pitch>
                    <step>B</step>
                    <alter>-1</alter>
                    <octave>3</octave>
                </pitch>
                <duration>1</duration>
                <tie type="start"/>
                <voice>1</voice>
                <type>16th</type>
                <stem default-y="-20">up</stem>
                <beam number="1">end</beam>
                <beam number="2">end</beam>
                <notations>
                    <tied type="start"/>
                </notations>
            </note>
            <note default-x="96">
                <pitch>
                    <step>B</step>
                    <alter>-1</alter>
                    <octave>3</octave>
                </pitch>
                <duration>2</duration>
                <tie type="stop"/>
                <voice>1</voice>
                <type>eighth</type>
                <stem default-y="-20">up</stem>
                <beam number="1">begin</beam>
                <notations>
                    <tied type="stop"/>
                </notations>
            </note>
            <note default-x="122">
                <pitch>
                    <step>B</step>
                    <alter>-1</alter>
                    <octave>3</octave>
                </pitch>
                <duration>1</duration>
                <voice>1</voice>
                <type>16th</type>
                <stem default-y="-20">up</stem>
                <beam number="1">continue</beam>
                <beam number="2">begin</beam>
            </note>
            <note default-x="147">
                <pitch>
                    <step>G</step>
                    <octave>3</octave>
                </pitch>
                <duration>1</duration>
                <tie type="start"/>
                <voice>1</voice>
                <type>16th</type>
                <stem default-y="-20">up</stem>
                <beam number="1">end</beam>
                <beam number="2">end</beam>
                <notations>
                    <tied type="start"/>
                </notations>
            </note>
            <note default-x="178">
                <pitch>
                    <step>G</step>
                    <octave>3</octave>
                </pitch>
                <duration>2</duration>
                <tie type="stop"/>
                <voice>1</voice>
                <type>eighth</type>
                <stem default-y="-20">up</stem>
                <beam number="1">begin</beam>
                <notations>
                    <tied type="stop"/>
                </notations>
            </note>
            <note default-x="204">
                <pitch>
                    <step>G</step>
                    <octave>3</octave>
                </pitch>
                <duration>2</duration>
                <voice>1</voice>
                <type>eighth</type>
                <stem default-y="-20">up</stem>
                <beam number="1">end</beam>
            </note>
            <note default-x="230">
                <pitch>
                    <step>G</step>
                    <octave>3</octave>
                </pitch>
                <duration>2</duration>
                <voice>1</voice>
                <type>eighth</type>
                <stem default-y="-20">up</stem>
                <beam number="1">begin</beam>
            </note>
            <note default-x="256">
                <pitch>
                    <step>G</step>
                    <octave>3</octave>
                </pitch>
                <duration>1</duration>
                <voice>1</voice>
                <type>16th</type>
                <stem default-y="-18.5">up</stem>
                <beam number="1">continue</beam>
                <beam number="2">begin</beam>
            </note>
            <note default-x="281">
                <pitch>
                    <step>B</step>
                    <alter>-1</alter>
                    <octave>3</octave>
                </pitch>
                <duration>1</duration>
                <tie type="start"/>
                <voice>1</voice>
                <type>16th</type>
                <stem default-y="-17.5">up</stem>
                <beam number="1">end</beam>
                <beam number="2">end</beam>
                <notations>
                    <tied type="start"/>
                </notations>
            </note>
        </measure>
        <measure width="236" number="23">
            <note default-x="15">
                <pitch>
                    <step>B</step>
                    <alter>-1</alter>
                    <octave>3</octave>
                </pitch>
                <duration>2</duration>
                <tie type="stop"/>
                <voice>1</voice>
                <type>eighth</type>
                <stem default-y="-20">up</stem>
                <beam number="1">begin</beam>
                <notations>
                    <tied type="stop"/>
                </notations>
            </note>
            <note default-x="42">
                <pitch>
                    <step>B</step>
                    <alter>-1</alter>
                    <octave>3</octave>
                </pitch>
                <duration>2</duration>
                <voice>1</voice>
                <type>eighth</type>
                <stem default-y="-20">up</stem>
                <beam number="1">end</beam>
            </note>
            <note default-x="71">
                <pitch>
                    <step>B</step>
                    <alter>-1</alter>
                    <octave>3</octave>
                </pitch>
                <duration>2</duration>
                <voice>1</voice>
                <type>eighth</type>
                <stem default-y="-20">up</stem>
                <beam number="1">begin</beam>
            </note>
            <note default-x="99">
                <pitch>
                    <step>B</step>
                    <alter>-1</alter>
                    <octave>3</octave>
                </pitch>
                <duration>1</duration>
                <voice>1</voice>
                <type>16th</type>
                <stem default-y="-20">up</stem>
                <beam number="1">continue</beam>
                <beam number="2">begin</beam>
            </note>
            <note default-x="127">
                <pitch>
                    <step>F</step>
                    <octave>3</octave>
                </pitch>
                <duration>1</duration>
                <tie type="start"/>
                <voice>1</voice>
                <type>16th</type>
                <stem default-y="-20">up</stem>
                <beam number="1">end</beam>
                <beam number="2">end</beam>
                <notations>
                    <tied type="start"/>
                </notations>
            </note>
            <note default-x="160">
                <pitch>
                    <step>F</step>
                    <octave>3</octave>
                </pitch>
                <duration>4</duration>
                <tie type="stop"/>
                <voice>1</voice>
                <type>quarter</type>
                <stem default-y="-19.5">up</stem>
                <notations>
                    <tied type="stop"/>
                </notations>
            </note>
            <note default-x="184">
                <rest/>
                <duration>2</duration>
                <voice>1</voice>
                <type>eighth</type>
            </note>
            <note default-x="207">
                <pitch>
                    <step>B</step>
                    <alter>-1</alter>
                    <octave>3</octave>
                </pitch>
                <duration>2</duration>
                <voice>1</voice>
                <type>eighth</type>
                <stem default-y="-19.5">up</stem>
            </note>
        </measure>
        <measure width="228" number="24">
            <harmony font-weight="bold" font-family="Opus Chords" default-y="13">
                <root>
                    <root-step>F</root-step>
                </root>
                <kind halign="left" text="7">dominant</kind>
            </harmony>
            <note default-x="14">
                <pitch>
                    <step>C</step>
                    <octave>4</octave>
                </pitch>
                <duration>2</duration>
                <voice>1</voice>
                <type>eighth</type>
                <stem default-y="-15">up</stem>
                <beam number="1">begin</beam>
            </note>
            <note default-x="40">
                <pitch>
                    <step>C</step>
                    <octave>4</octave>
                </pitch>
                <duration>2</duration>
                <tie type="start"/>
                <voice>1</voice>
                <type>eighth</type>
                <stem default-y="-15">up</stem>
                <beam number="1">end</beam>
                <notations>
                    <tied type="start"/>
                </notations>
            </note>
            <note default-x="71">
                <pitch>
                    <step>C</step>
                    <octave>4</octave>
                </pitch>
                <duration>2</duration>
                <tie type="stop"/>
                <voice>1</voice>
                <type>eighth</type>
                <stem default-y="-15">up</stem>
                <beam number="1">begin</beam>
                <notations>
                    <tied type="stop"/>
                </notations>
            </note>
            <note default-x="97">
                <pitch>
                    <step>C</step>
                    <octave>4</octave>
                </pitch>
                <duration>2</duration>
                <voice>1</voice>
                <type>eighth</type>
                <stem default-y="-15">up</stem>
                <beam number="1">end</beam>
            </note>
            <note default-x="124">
                <pitch>
                    <step>B</step>
                    <alter>-1</alter>
                    <octave>3</octave>
                </pitch>
                <duration>2</duration>
                <voice>1</voice>
                <type>eighth</type>
                <stem default-y="-20">up</stem>
                <beam number="1">begin</beam>
            </note>
            <note default-x="151">
                <pitch>
                    <step>B</step>
                    <alter>-1</alter>
                    <octave>3</octave>
                </pitch>
                <duration>2</duration>
                <voice>1</voice>
                <type>eighth</type>
                <stem default-y="-20">up</stem>
                <beam number="1">end</beam>
            </note>
            <note default-x="177">
                <pitch>
                    <step>A</step>
                    <octave>3</octave>
                </pitch>
                <duration>2</duration>
                <voice>1</voice>
                <type>eighth</type>
                <stem default-y="-20">up</stem>
                <beam number="1">begin</beam>
            </note>
            <note default-x="203">
                <pitch>
                    <step>B</step>
                    <alter>-1</alter>
                    <octave>3</octave>
                </pitch>
                <duration>2</duration>
                <voice>1</voice>
                <type>eighth</type>
                <stem default-y="-17.5">up</stem>
                <beam number="1">end</beam>
            </note>
        </measure>
        <measure width="266" number="25">
            <print new-system="yes">
                <system-layout>
                    <system-margins>
                        <left-margin>0</left-margin>
                        <right-margin>757</right-margin>
                    </system-margins>
                    <system-distance>110</system-distance>
                </system-layout>
            </print>
            <harmony font-weight="bold" font-family="Opus Chords" default-y="13">
                <root>
                    <root-step>C</root-step>
                </root>
                <kind halign="left" text="7">dominant</kind>
            </harmony>
            <note default-x="82">
                <pitch>
                    <step>C</step>
                    <octave>4</octave>
                </pitch>
                <duration>2</duration>
                <voice>1</voice>
                <type>eighth</type>
                <stem default-y="-15">up</stem>
                <beam number="1">begin</beam>
            </note>
            <note default-x="110">
                <pitch>
                    <step>B</step>
                    <alter>-1</alter>
                    <octave>3</octave>
                </pitch>
                <duration>2</duration>
                <voice>1</voice>
                <type>eighth</type>
                <stem default-y="-17.5">up</stem>
                <beam number="1">end</beam>
            </note>
            <note default-x="138">
                <pitch>
                    <step>A</step>
                    <octave>3</octave>
                </pitch>
                <duration>2</duration>
                <voice>1</voice>
                <type>eighth</type>
                <stem default-y="-17.5">up</stem>
                <beam number="1">begin</beam>
            </note>
            <note default-x="167">
                <pitch>
                    <step>G</step>
                    <octave>3</octave>
                </pitch>
                <duration>2</duration>
                <voice>1</voice>
                <type>eighth</type>
                <stem default-y="-20">up</stem>
                <beam number="1">end</beam>
            </note>
            <harmony font-weight="bold" font-family="Opus Chords" default-y="13">
                <root>
                    <root-step>F</root-step>
                </root>
                <kind halign="left" text="7">dominant</kind>
            </harmony>
            <note default-x="195">
                <pitch>
                    <step>F</step>
                    <octave>3</octave>
                </pitch>
                <duration>4</duration>
                <voice>1</voice>
                <type>quarter</type>
                <stem default-y="-19.5">up</stem>
            </note>
            <note default-x="223">
                <rest/>
                <duration>4</duration>
                <voice>1</voice>
                <type>quarter</type>
            </note>
            <direction placement="below">
                <direction-type>
                    <words font-style="italic" font-size="11.6" font-family="Times New Roman" default-y="-92" default-x="246" justify="right">D.S. al Coda</words>
                </direction-type>
                <sound dalsegno="3"/>
            </direction>
            <barline location="right">
                <bar-style>light-heavy</bar-style>
                <repeat direction="backward"/>
            </barline>
        </measure>
        <measure width="276" number="26">
            <print new-system="yes">
                <system-layout>
                    <system-margins>
                        <left-margin>560</left-margin>
                        <right-margin>-1</right-margin>
                    </system-margins>
                    <system-distance>-40</system-distance>
                </system-layout>
            </print>
            <direction placement="above">
                <direction-type>
                    <coda default-y="23" default-x="43"/>
                </direction-type>
                <sound divisions="4" coda="26"/>
            </direction>
            <harmony font-weight="bold" font-family="Opus Chords" default-y="13">
                <root>
                    <root-step>B</root-step>
                    <root-alter>-1</root-alter>
                </root>
                <kind halign="left" text="">major</kind>
            </harmony>
            <note default-x="84">
                <pitch>
                    <step>B</step>
                    <alter>-1</alter>
                    <octave>3</octave>
                </pitch>
                <duration>2</duration>
                <voice>1</voice>
                <type>eighth</type>
                <stem default-y="-19.5">up</stem>
            </note>
            <note default-x="112">
                <rest/>
                <duration>2</duration>
                <voice>1</voice>
                <type>eighth</type>
            </note>
            <note default-x="139">
                <pitch>
                    <step>B</step>
                    <alter>-1</alter>
                    <octave>3</octave>
                </pitch>
                <duration>2</duration>
                <voice>1</voice>
                <type>eighth</type>
                <stem default-y="-12.5">up</stem>
                <beam number="1">begin</beam>
            </note>
            <note default-x="167">
                <pitch>
                    <step>D</step>
                    <octave>4</octave>
                </pitch>
                <duration>2</duration>
                <voice>1</voice>
                <type>eighth</type>
                <stem default-y="-10">up</stem>
                <beam number="1">end</beam>
            </note>
            <note default-x="194">
                <pitch>
                    <step>F</step>
                    <octave>4</octave>
                </pitch>
                <duration>8</duration>
                <voice>1</voice>
                <type>half</type>
                <stem default-y="1">up</stem>
            </note>
        </measure>
        <measure width="187" number="27">
            <note default-x="10">
                <pitch>
                    <step>B</step>
                    <alter>-1</alter>
                    <octave>4</octave>
                </pitch>
                <duration>2</duration>
                <voice>1</voice>
                <type>eighth</type>
                <stem default-y="-55">down</stem>
                <beam number="1">begin</beam>
            </note>
            <harmony font-weight="bold" font-family="Opus Chords" default-y="13">
                <root>
                    <root-step>F</root-step>
                </root>
                <kind halign="left" text="7">dominant</kind>
            </harmony>
            <note default-x="37">
                <pitch>
                    <step>F</step>
                    <octave>5</octave>
                </pitch>
                <duration>2</duration>
                <voice>1</voice>
                <type>eighth</type>
                <stem default-y="-52.5">down</stem>
                <beam number="1">end</beam>
            </note>
            <harmony font-weight="bold" font-family="Opus Chords" default-y="21">
                <root>
                    <root-step>B</root-step>
                    <root-alter>-1</root-alter>
                </root>
                <kind halign="left" text="">major</kind>
            </harmony>
            <note default-x="65">
                <pitch>
                    <step>D</step>
                    <octave>5</octave>
                </pitch>
                <duration>4</duration>
                <voice>1</voice>
                <type>quarter</type>
                <stem default-y="-46">down</stem>
            </note>
            <note default-x="65">
                <chord/>
                <pitch>
                    <step>B</step>
                    <alter>-1</alter>
                    <octave>5</octave>
                </pitch>
                <duration>4</duration>
                <voice>1</voice>
                <type>quarter</type>
                <stem>down</stem>
            </note>
            <note default-x="100">
                <rest/>
                <duration>8</duration>
                <voice>1</voice>
                <type>half</type>
            </note>
            <barline location="right">
                <bar-style>light-heavy</bar-style>
            </barline>
        </measure>
    </part>
</score-partwise>
