<?xml version="1.0" encoding="UTF-8"?>
<!DOCTYPE score-partwise PUBLIC "-//Recordare//DTD MusicXML 2.0 Partwise//EN" "http://www.musicxml.org/dtds/partwise.dtd">
<score-partwise version="2.0">
    <work>
        <work-number></work-number>
        <work-title></work-title>
    </work>
    <movement-number></movement-number>
    <movement-title>Scrapple From The Apple</movement-title>
    <identification>
        <creator type="composer">Charlie Parker</creator>
        <creator type="poet"></creator>
        <rights>All Rights Reserved</rights>
        <encoding>
            <software>Noteflight version 0.3.1</software>
            <encoding-date>2010-11-02</encoding-date>
            <supports value="no" type="no" element="print" attribute="new-system"/>
            <supports value="no" type="no" element="print" attribute="new-page"/>
            <software>ProxyMusic 2.0 c</software>
        </encoding>
        <source>http://wikifonia.org/node/8143/revisions/11278/view</source>
    </identification>
    <defaults>
        <scaling>
            <millimeters>1.76388889</millimeters>
            <tenths>10</tenths>
        </scaling>
        <page-layout>
            <page-height>1584</page-height>
            <page-width>1224</page-width>
            <page-margins type="both">
                <left-margin>71.5</left-margin>
                <right-margin>68</right-margin>
                <top-margin>132.5</top-margin>
                <bottom-margin>96</bottom-margin>
            </page-margins>
        </page-layout>
        <system-layout>
            <system-margins>
                <left-margin>71.5</left-margin>
                <right-margin>32</right-margin>
            </system-margins>
            <system-distance>160</system-distance>
            <top-system-distance>224</top-system-distance>
        </system-layout>
        <staff-layout>
            <staff-distance>72.5</staff-distance>
        </staff-layout>
    </defaults>
    <credit page="1">
        <credit-words font-size="24" default-y="1524" default-x="612" justify="center" valign="top">Scrapple From The Apple (with solo)</credit-words>
    </credit>
    <credit page="1">
        <credit-words font-size="12" default-y="1474" default-x="1101.6000000000001" justify="right" valign="top">Charlie Parker</credit-words>
    </credit>
    <part-list>
        <score-part id="P1">
            <part-name>Piano</part-name>
            <part-abbreviation>Pno</part-abbreviation>
            <score-instrument id="P1I1">
                <instrument-name>Piano</instrument-name>
            </score-instrument>
            <midi-instrument id="P1I1">
                <midi-channel>1</midi-channel>
                <midi-program>1</midi-program>
            </midi-instrument>
        </score-part>
    </part-list>
    <part id="P1">
        <measure number="1">
            <attributes>
                <divisions>192</divisions>
                <key>
                    <fifths>-1</fifths>
                    <mode>major</mode>
                </key>
                <time>
                    <beats>4</beats>
                    <beat-type>4</beat-type>
                </time>
                <clef number="1">
                    <sign>G</sign>
                    <line>2</line>
                </clef>
            </attributes>
            <direction placement="above">
                <direction-type>
                    <metronome>
                        <beat-unit>quarter</beat-unit>
                        <per-minute>70</per-minute>
                    </metronome>
                </direction-type>
                <sound tempo="70"/>
            </direction>
            <direction placement="above">
                <direction-type>
                    <metronome>
                        <beat-unit>quarter</beat-unit>
                        <per-minute>70</per-minute>
                    </metronome>
                </direction-type>
                <sound tempo="70"/>
            </direction>
            <note>
                <rest/>
                <duration>96</duration>
                <voice>1</voice>
                <type>eighth</type>
            </note>
            <harmony>
                <root>
                    <root-step>G</root-step>
                </root>
                <kind text="m7">minor-seventh</kind>
            </harmony>
            <note>
                <pitch>
                    <step>F</step>
                    <alter>1</alter>
                    <octave>4</octave>
                </pitch>
                <duration>96</duration>
                <voice>1</voice>
                <type>eighth</type>
                <accidental>sharp</accidental>
                <notehead>normal</notehead>
                <beam number="1">begin</beam>
            </note>
            <note>
                <pitch>
                    <step>G</step>
                    <octave>4</octave>
                </pitch>
                <duration>96</duration>
                <voice>1</voice>
                <type>eighth</type>
                <notehead>normal</notehead>
                <beam number="1">continue</beam>
            </note>
            <note>
                <pitch>
                    <step>B</step>
                    <alter>-1</alter>
                    <octave>4</octave>
                </pitch>
                <duration>96</duration>
                <voice>1</voice>
                <type>eighth</type>
                <notehead>normal</notehead>
                <beam number="1">end</beam>
            </note>
            <note>
                <pitch>
                    <step>A</step>
                    <octave>4</octave>
                </pitch>
                <duration>96</duration>
                <voice>1</voice>
                <type>eighth</type>
                <notehead>normal</notehead>
                <beam number="1">begin</beam>
            </note>
            <note>
                <pitch>
                    <step>G</step>
                    <octave>4</octave>
                </pitch>
                <duration>96</duration>
                <voice>1</voice>
                <type>eighth</type>
                <notehead>normal</notehead>
                <beam number="1">continue</beam>
            </note>
            <note>
                <pitch>
                    <step>F</step>
                    <octave>4</octave>
                </pitch>
                <duration>96</duration>
                <voice>1</voice>
                <type>eighth</type>
                <accidental>natural</accidental>
                <notehead>normal</notehead>
                <beam number="1">continue</beam>
            </note>
            <note>
                <pitch>
                    <step>D</step>
                    <octave>4</octave>
                </pitch>
                <duration>96</duration>
                <voice>1</voice>
                <type>eighth</type>
                <notehead>normal</notehead>
                <beam number="1">end</beam>
            </note>
        </measure>
        <measure number="2">
            <attributes/>
            <harmony>
                <root>
                    <root-step>C</root-step>
                </root>
                <kind text="7">dominant</kind>
            </harmony>
            <note>
                <pitch>
                    <step>E</step>
                    <octave>4</octave>
                </pitch>
                <duration>96</duration>
                <voice>1</voice>
                <type>eighth</type>
                <notehead>normal</notehead>
                <beam number="1">begin</beam>
            </note>
            <note>
                <pitch>
                    <step>C</step>
                    <octave>5</octave>
                </pitch>
                <duration>96</duration>
                <voice>1</voice>
                <type>eighth</type>
                <notehead>normal</notehead>
                <beam number="1">end</beam>
            </note>
            <note>
                <rest/>
                <duration>192</duration>
                <voice>1</voice>
                <type>quarter</type>
            </note>
            <note>
                <rest/>
                <duration>96</duration>
                <voice>1</voice>
                <type>eighth</type>
            </note>
            <note>
                <pitch>
                    <step>B</step>
                    <alter>-1</alter>
                    <octave>4</octave>
                </pitch>
                <duration>192</duration>
                <voice>1</voice>
                <type>quarter</type>
                <notehead>normal</notehead>
            </note>
            <note>
                <pitch>
                    <step>A</step>
                    <octave>4</octave>
                </pitch>
                <duration>96</duration>
                <voice>1</voice>
                <type>eighth</type>
                <notehead>normal</notehead>
            </note>
        </measure>
        <measure number="3">
            <attributes/>
            <harmony>
                <root>
                    <root-step>G</root-step>
                </root>
                <kind text="m7">minor-seventh</kind>
            </harmony>
            <note>
                <pitch>
                    <step>B</step>
                    <alter>-1</alter>
                    <octave>4</octave>
                </pitch>
                <duration>96</duration>
                <voice>1</voice>
                <type>eighth</type>
                <notehead>normal</notehead>
                <beam number="1">begin</beam>
            </note>
            <note>
                <pitch>
                    <step>F</step>
                    <octave>5</octave>
                </pitch>
                <duration>96</duration>
                <voice>1</voice>
                <type>eighth</type>
                <notehead>normal</notehead>
                <beam number="1">end</beam>
            </note>
            <note>
                <pitch>
                    <step>D</step>
                    <octave>5</octave>
                </pitch>
                <duration>64</duration>
                <voice>1</voice>
                <type>eighth</type>
                <time-modification>
                    <actual-notes>3</actual-notes>
                    <normal-notes>2</normal-notes>
                    <normal-type>eighth</normal-type>
                </time-modification>
                <notehead>normal</notehead>
                <beam number="1">begin</beam>
                <notations>
                    <tuplet type="start" number="1">
                        <tuplet-actual>
                            <tuplet-number>3</tuplet-number>
                            <tuplet-type>eighth</tuplet-type>
                        </tuplet-actual>
                        <tuplet-normal>
                            <tuplet-number>2</tuplet-number>
                            <tuplet-type>eighth</tuplet-type>
                        </tuplet-normal>
                    </tuplet>
                </notations>
            </note>
            <note>
                <pitch>
                    <step>C</step>
                    <octave>5</octave>
                </pitch>
                <duration>64</duration>
                <voice>1</voice>
                <type>eighth</type>
                <time-modification>
                    <actual-notes>3</actual-notes>
                    <normal-notes>2</normal-notes>
                    <normal-type>eighth</normal-type>
                </time-modification>
                <notehead>normal</notehead>
                <beam number="1">continue</beam>
            </note>
            <note>
                <pitch>
                    <step>B</step>
                    <alter>-1</alter>
                    <octave>4</octave>
                </pitch>
                <duration>64</duration>
                <voice>1</voice>
                <type>eighth</type>
                <time-modification>
                    <actual-notes>3</actual-notes>
                    <normal-notes>2</normal-notes>
                    <normal-type>eighth</normal-type>
                </time-modification>
                <notehead>normal</notehead>
                <beam number="1">end</beam>
                <notations>
                    <tuplet type="stop" number="1"/>
                </notations>
            </note>
            <note>
                <pitch>
                    <step>A</step>
                    <octave>4</octave>
                </pitch>
                <duration>96</duration>
                <voice>1</voice>
                <type>eighth</type>
                <notehead>normal</notehead>
                <beam number="1">begin</beam>
            </note>
            <note>
                <pitch>
                    <step>F</step>
                    <octave>4</octave>
                </pitch>
                <duration>96</duration>
                <voice>1</voice>
                <type>eighth</type>
                <notehead>normal</notehead>
                <beam number="1">continue</beam>
            </note>
            <note>
                <pitch>
                    <step>G</step>
                    <octave>4</octave>
                </pitch>
                <duration>96</duration>
                <voice>1</voice>
                <type>eighth</type>
                <notehead>normal</notehead>
                <beam number="1">continue</beam>
            </note>
            <note>
                <pitch>
                    <step>D</step>
                    <alter>-1</alter>
                    <octave>4</octave>
                </pitch>
                <duration>96</duration>
                <tie type="start"/>
                <voice>1</voice>
                <type>eighth</type>
                <accidental>flat</accidental>
                <notehead>normal</notehead>
                <beam number="1">end</beam>
                <notations>
                    <tied type="start"/>
                </notations>
            </note>
        </measure>
        <measure number="4">
            <attributes/>
            <harmony>
                <root>
                    <root-step>C</root-step>
                </root>
                <kind parentheses-degrees="yes">dominant</kind>
                <degree>
                    <degree-value>9</degree-value>
                    <degree-alter>-1</degree-alter>
                    <degree-type>alter</degree-type>
                </degree>
            </harmony>
            <note>
                <pitch>
                    <step>D</step>
                    <alter>-1</alter>
                    <octave>4</octave>
                </pitch>
                <duration>192</duration>
                <tie type="stop"/>
                <voice>1</voice>
                <type>quarter</type>
                <notehead>normal</notehead>
                <notations>
                    <tied type="stop"/>
                </notations>
            </note>
            <note>
                <rest/>
                <duration>96</duration>
                <voice>1</voice>
                <type>eighth</type>
            </note>
            <note>
                <pitch>
                    <step>A</step>
                    <octave>4</octave>
                </pitch>
                <duration>96</duration>
                <tie type="start"/>
                <voice>1</voice>
                <type>eighth</type>
                <notehead>normal</notehead>
                <notations>
                    <tied type="start"/>
                </notations>
            </note>
            <note>
                <pitch>
                    <step>A</step>
                    <octave>4</octave>
                </pitch>
                <duration>96</duration>
                <tie type="stop"/>
                <voice>1</voice>
                <type>eighth</type>
                <notehead>normal</notehead>
                <notations>
                    <tied type="stop"/>
                </notations>
            </note>
            <note>
                <pitch>
                    <step>B</step>
                    <alter>-1</alter>
                    <octave>4</octave>
                </pitch>
                <duration>192</duration>
                <voice>1</voice>
                <type>quarter</type>
                <notehead>normal</notehead>
            </note>
            <note>
                <pitch>
                    <step>A</step>
                    <octave>4</octave>
                </pitch>
                <duration>96</duration>
                <voice>1</voice>
                <type>eighth</type>
                <notehead>normal</notehead>
            </note>
        </measure>
        <measure number="5">
            <attributes/>
            <harmony>
                <root>
                    <root-step>F</root-step>
                </root>
                <kind text="maj7">major-seventh</kind>
            </harmony>
            <note>
                <pitch>
                    <step>C</step>
                    <octave>5</octave>
                </pitch>
                <duration>96</duration>
                <voice>1</voice>
                <type>eighth</type>
                <notehead>normal</notehead>
                <beam number="1">begin</beam>
            </note>
            <note>
                <pitch>
                    <step>A</step>
                    <octave>4</octave>
                </pitch>
                <duration>96</duration>
                <voice>1</voice>
                <type>eighth</type>
                <notehead>normal</notehead>
                <beam number="1">end</beam>
            </note>
            <note>
                <pitch>
                    <step>G</step>
                    <octave>4</octave>
                </pitch>
                <duration>64</duration>
                <voice>1</voice>
                <type>eighth</type>
                <time-modification>
                    <actual-notes>3</actual-notes>
                    <normal-notes>2</normal-notes>
                    <normal-type>eighth</normal-type>
                </time-modification>
                <notehead>normal</notehead>
                <beam number="1">begin</beam>
                <notations>
                    <tuplet type="start" number="1">
                        <tuplet-actual>
                            <tuplet-number>3</tuplet-number>
                            <tuplet-type>eighth</tuplet-type>
                        </tuplet-actual>
                        <tuplet-normal>
                            <tuplet-number>2</tuplet-number>
                            <tuplet-type>eighth</tuplet-type>
                        </tuplet-normal>
                    </tuplet>
                </notations>
            </note>
            <note>
                <pitch>
                    <step>F</step>
                    <octave>4</octave>
                </pitch>
                <duration>64</duration>
                <voice>1</voice>
                <type>eighth</type>
                <time-modification>
                    <actual-notes>3</actual-notes>
                    <normal-notes>2</normal-notes>
                    <normal-type>eighth</normal-type>
                </time-modification>
                <notehead>normal</notehead>
                <beam number="1">continue</beam>
            </note>
            <note>
                <pitch>
                    <step>G</step>
                    <octave>4</octave>
                </pitch>
                <duration>64</duration>
                <tie type="start"/>
                <voice>1</voice>
                <type>eighth</type>
                <time-modification>
                    <actual-notes>3</actual-notes>
                    <normal-notes>2</normal-notes>
                    <normal-type>eighth</normal-type>
                </time-modification>
                <notehead>normal</notehead>
                <beam number="1">end</beam>
                <notations>
                    <tuplet type="stop" number="1"/>
                    <tied type="start"/>
                </notations>
            </note>
            <note>
                <pitch>
                    <step>G</step>
                    <octave>4</octave>
                </pitch>
                <duration>192</duration>
                <tie type="stop"/>
                <voice>1</voice>
                <type>quarter</type>
                <notehead>normal</notehead>
                <notations>
                    <tied type="stop"/>
                </notations>
            </note>
            <note>
                <rest/>
                <duration>96</duration>
                <voice>1</voice>
                <type>eighth</type>
            </note>
            <note>
                <pitch>
                    <step>F</step>
                    <octave>5</octave>
                </pitch>
                <duration>96</duration>
                <voice>1</voice>
                <type>eighth</type>
                <notehead>normal</notehead>
            </note>
        </measure>
        <measure number="6">
            <attributes/>
            <harmony>
                <root>
                    <root-step>G</root-step>
                </root>
                <kind text="m7">minor-seventh</kind>
            </harmony>
            <note>
                <pitch>
                    <step>D</step>
                    <octave>5</octave>
                </pitch>
                <duration>192</duration>
                <voice>1</voice>
                <type>quarter</type>
                <notehead>normal</notehead>
            </note>
            <note>
                <rest/>
                <duration>192</duration>
                <voice>1</voice>
                <type>quarter</type>
            </note>
            <note>
                <pitch>
                    <step>E</step>
                    <octave>5</octave>
                </pitch>
                <duration>96</duration>
                <voice>1</voice>
                <type>eighth</type>
                <notehead>normal</notehead>
                <beam number="1">begin</beam>
            </note>
            <harmony>
                <root>
                    <root-step>C</root-step>
                </root>
                <kind text="7">dominant</kind>
            </harmony>
            <note>
                <pitch>
                    <step>D</step>
                    <octave>5</octave>
                </pitch>
                <duration>96</duration>
                <voice>1</voice>
                <type>eighth</type>
                <notehead>normal</notehead>
                <beam number="1">end</beam>
            </note>
            <note>
                <pitch>
                    <step>A</step>
                    <octave>4</octave>
                </pitch>
                <duration>64</duration>
                <voice>1</voice>
                <type>eighth</type>
                <time-modification>
                    <actual-notes>3</actual-notes>
                    <normal-notes>2</normal-notes>
                    <normal-type>eighth</normal-type>
                </time-modification>
                <notehead>normal</notehead>
                <beam number="1">begin</beam>
                <notations>
                    <tuplet type="start" number="1">
                        <tuplet-actual>
                            <tuplet-number>3</tuplet-number>
                            <tuplet-type>eighth</tuplet-type>
                        </tuplet-actual>
                        <tuplet-normal>
                            <tuplet-number>2</tuplet-number>
                            <tuplet-type>eighth</tuplet-type>
                        </tuplet-normal>
                    </tuplet>
                </notations>
            </note>
            <note>
                <pitch>
                    <step>B</step>
                    <alter>-1</alter>
                    <octave>4</octave>
                </pitch>
                <duration>64</duration>
                <voice>1</voice>
                <type>eighth</type>
                <time-modification>
                    <actual-notes>3</actual-notes>
                    <normal-notes>2</normal-notes>
                    <normal-type>eighth</normal-type>
                </time-modification>
                <notehead>normal</notehead>
                <beam number="1">continue</beam>
            </note>
            <note>
                <pitch>
                    <step>B</step>
                    <octave>4</octave>
                </pitch>
                <duration>64</duration>
                <voice>1</voice>
                <type>eighth</type>
                <accidental>natural</accidental>
                <time-modification>
                    <actual-notes>3</actual-notes>
                    <normal-notes>2</normal-notes>
                    <normal-type>eighth</normal-type>
                </time-modification>
                <notehead>normal</notehead>
                <beam number="1">end</beam>
                <notations>
                    <tuplet type="stop" number="1"/>
                </notations>
            </note>
        </measure>
        <measure number="7">
            <attributes/>
            <harmony>
                <root>
                    <root-step>F</root-step>
                </root>
                <kind text="maj7">major-seventh</kind>
            </harmony>
            <note>
                <pitch>
                    <step>C</step>
                    <octave>5</octave>
                </pitch>
                <duration>288</duration>
                <voice>1</voice>
                <type>quarter</type>
                <dot/>
                <notehead>normal</notehead>
            </note>
            <note>
                <pitch>
                    <step>A</step>
                    <octave>4</octave>
                </pitch>
                <duration>96</duration>
                <voice>1</voice>
                <type>eighth</type>
                <notehead>normal</notehead>
            </note>
            <harmony>
                <root>
                    <root-step>G</root-step>
                </root>
                <kind text="m7">minor-seventh</kind>
            </harmony>
            <note>
                <pitch>
                    <step>B</step>
                    <alter>-1</alter>
                    <octave>4</octave>
                </pitch>
                <duration>96</duration>
                <voice>1</voice>
                <type>eighth</type>
                <notehead>normal</notehead>
                <beam number="1">begin</beam>
            </note>
            <note>
                <pitch>
                    <step>A</step>
                    <octave>4</octave>
                </pitch>
                <duration>96</duration>
                <voice>1</voice>
                <type>eighth</type>
                <notehead>normal</notehead>
                <beam number="1">continue</beam>
            </note>
            <note>
                <pitch>
                    <step>G</step>
                    <alter>1</alter>
                    <octave>4</octave>
                </pitch>
                <duration>96</duration>
                <voice>1</voice>
                <type>eighth</type>
                <accidental>sharp</accidental>
                <notehead>normal</notehead>
                <beam number="1">continue</beam>
            </note>
            <note>
                <pitch>
                    <step>A</step>
                    <octave>4</octave>
                </pitch>
                <duration>96</duration>
                <voice>1</voice>
                <type>eighth</type>
                <notehead>normal</notehead>
                <beam number="1">end</beam>
            </note>
        </measure>
        <measure number="8">
            <attributes/>
            <harmony>
                <root>
                    <root-step>A</root-step>
                </root>
                <kind text="m7">minor-seventh</kind>
            </harmony>
            <note>
                <pitch>
                    <step>C</step>
                    <octave>5</octave>
                </pitch>
                <duration>96</duration>
                <voice>1</voice>
                <type>eighth</type>
                <notehead>normal</notehead>
                <beam number="1">begin</beam>
            </note>
            <note>
                <pitch>
                    <step>A</step>
                    <octave>4</octave>
                </pitch>
                <duration>96</duration>
                <voice>1</voice>
                <type>eighth</type>
                <notehead>normal</notehead>
                <beam number="1">continue</beam>
            </note>
            <note>
                <pitch>
                    <step>B</step>
                    <alter>-1</alter>
                    <octave>4</octave>
                </pitch>
                <duration>96</duration>
                <voice>1</voice>
                <type>eighth</type>
                <notehead>normal</notehead>
                <beam number="1">continue</beam>
            </note>
            <note>
                <pitch>
                    <step>C</step>
                    <octave>5</octave>
                </pitch>
                <duration>96</duration>
                <voice>1</voice>
                <type>eighth</type>
                <notehead>normal</notehead>
                <beam number="1">end</beam>
            </note>
            <harmony>
                <root>
                    <root-step>D</root-step>
                </root>
                <kind text="7">dominant</kind>
            </harmony>
            <note>
                <rest/>
                <duration>384</duration>
                <voice>1</voice>
                <type>half</type>
            </note>
        </measure>
        <measure number="9">
            <attributes/>
            <note>
                <rest/>
                <duration>96</duration>
                <voice>1</voice>
                <type>eighth</type>
            </note>
            <harmony>
                <root>
                    <root-step>G</root-step>
                </root>
                <kind text="m7">minor-seventh</kind>
            </harmony>
            <note>
                <pitch>
                    <step>F</step>
                    <alter>1</alter>
                    <octave>4</octave>
                </pitch>
                <duration>96</duration>
                <voice>1</voice>
                <type>eighth</type>
                <accidental>sharp</accidental>
                <notehead>normal</notehead>
                <beam number="1">begin</beam>
            </note>
            <note>
                <pitch>
                    <step>G</step>
                    <octave>4</octave>
                </pitch>
                <duration>96</duration>
                <voice>1</voice>
                <type>eighth</type>
                <notehead>normal</notehead>
                <beam number="1">continue</beam>
            </note>
            <note>
                <pitch>
                    <step>B</step>
                    <alter>-1</alter>
                    <octave>4</octave>
                </pitch>
                <duration>96</duration>
                <voice>1</voice>
                <type>eighth</type>
                <notehead>normal</notehead>
                <beam number="1">end</beam>
            </note>
            <note>
                <pitch>
                    <step>A</step>
                    <octave>4</octave>
                </pitch>
                <duration>96</duration>
                <voice>1</voice>
                <type>eighth</type>
                <notehead>normal</notehead>
                <beam number="1">begin</beam>
            </note>
            <note>
                <pitch>
                    <step>G</step>
                    <octave>4</octave>
                </pitch>
                <duration>96</duration>
                <voice>1</voice>
                <type>eighth</type>
                <notehead>normal</notehead>
                <beam number="1">continue</beam>
            </note>
            <note>
                <pitch>
                    <step>F</step>
                    <octave>4</octave>
                </pitch>
                <duration>96</duration>
                <voice>1</voice>
                <type>eighth</type>
                <accidental>natural</accidental>
                <notehead>normal</notehead>
                <beam number="1">continue</beam>
            </note>
            <note>
                <pitch>
                    <step>D</step>
                    <octave>4</octave>
                </pitch>
                <duration>96</duration>
                <voice>1</voice>
                <type>eighth</type>
                <notehead>normal</notehead>
                <beam number="1">end</beam>
            </note>
        </measure>
        <measure number="10">
            <attributes/>
            <harmony>
                <root>
                    <root-step>C</root-step>
                </root>
                <kind text="7">dominant</kind>
            </harmony>
            <note>
                <pitch>
                    <step>E</step>
                    <octave>4</octave>
                </pitch>
                <duration>96</duration>
                <voice>1</voice>
                <type>eighth</type>
                <notehead>normal</notehead>
                <beam number="1">begin</beam>
            </note>
            <note>
                <pitch>
                    <step>C</step>
                    <octave>5</octave>
                </pitch>
                <duration>96</duration>
                <voice>1</voice>
                <type>eighth</type>
                <notehead>normal</notehead>
                <beam number="1">end</beam>
            </note>
            <note>
                <rest/>
                <duration>192</duration>
                <voice>1</voice>
                <type>quarter</type>
            </note>
            <note>
                <rest/>
                <duration>96</duration>
                <voice>1</voice>
                <type>eighth</type>
            </note>
            <note>
                <pitch>
                    <step>B</step>
                    <alter>-1</alter>
                    <octave>4</octave>
                </pitch>
                <duration>192</duration>
                <voice>1</voice>
                <type>quarter</type>
                <notehead>normal</notehead>
            </note>
            <note>
                <pitch>
                    <step>A</step>
                    <octave>4</octave>
                </pitch>
                <duration>96</duration>
                <voice>1</voice>
                <type>eighth</type>
                <notehead>normal</notehead>
            </note>
        </measure>
        <measure number="11">
            <attributes/>
            <harmony>
                <root>
                    <root-step>G</root-step>
                </root>
                <kind text="m7">minor-seventh</kind>
            </harmony>
            <note>
                <pitch>
                    <step>B</step>
                    <alter>-1</alter>
                    <octave>4</octave>
                </pitch>
                <duration>96</duration>
                <voice>1</voice>
                <type>eighth</type>
                <notehead>normal</notehead>
                <beam number="1">begin</beam>
            </note>
            <note>
                <pitch>
                    <step>F</step>
                    <octave>5</octave>
                </pitch>
                <duration>96</duration>
                <voice>1</voice>
                <type>eighth</type>
                <notehead>normal</notehead>
                <beam number="1">end</beam>
            </note>
            <note>
                <pitch>
                    <step>D</step>
                    <octave>5</octave>
                </pitch>
                <duration>64</duration>
                <voice>1</voice>
                <type>eighth</type>
                <time-modification>
                    <actual-notes>3</actual-notes>
                    <normal-notes>2</normal-notes>
                    <normal-type>eighth</normal-type>
                </time-modification>
                <notehead>normal</notehead>
                <beam number="1">begin</beam>
                <notations>
                    <tuplet type="start" number="1">
                        <tuplet-actual>
                            <tuplet-number>3</tuplet-number>
                            <tuplet-type>eighth</tuplet-type>
                        </tuplet-actual>
                        <tuplet-normal>
                            <tuplet-number>2</tuplet-number>
                            <tuplet-type>eighth</tuplet-type>
                        </tuplet-normal>
                    </tuplet>
                </notations>
            </note>
            <note>
                <pitch>
                    <step>C</step>
                    <octave>5</octave>
                </pitch>
                <duration>64</duration>
                <voice>1</voice>
                <type>eighth</type>
                <time-modification>
                    <actual-notes>3</actual-notes>
                    <normal-notes>2</normal-notes>
                    <normal-type>eighth</normal-type>
                </time-modification>
                <notehead>normal</notehead>
                <beam number="1">continue</beam>
            </note>
            <note>
                <pitch>
                    <step>B</step>
                    <alter>-1</alter>
                    <octave>4</octave>
                </pitch>
                <duration>64</duration>
                <voice>1</voice>
                <type>eighth</type>
                <time-modification>
                    <actual-notes>3</actual-notes>
                    <normal-notes>2</normal-notes>
                    <normal-type>eighth</normal-type>
                </time-modification>
                <notehead>normal</notehead>
                <beam number="1">end</beam>
                <notations>
                    <tuplet type="stop" number="1"/>
                </notations>
            </note>
            <note>
                <pitch>
                    <step>A</step>
                    <octave>4</octave>
                </pitch>
                <duration>96</duration>
                <voice>1</voice>
                <type>eighth</type>
                <notehead>normal</notehead>
                <beam number="1">begin</beam>
            </note>
            <note>
                <pitch>
                    <step>F</step>
                    <octave>4</octave>
                </pitch>
                <duration>96</duration>
                <voice>1</voice>
                <type>eighth</type>
                <notehead>normal</notehead>
                <beam number="1">continue</beam>
            </note>
            <note>
                <pitch>
                    <step>G</step>
                    <octave>4</octave>
                </pitch>
                <duration>96</duration>
                <voice>1</voice>
                <type>eighth</type>
                <notehead>normal</notehead>
                <beam number="1">continue</beam>
            </note>
            <note>
                <pitch>
                    <step>D</step>
                    <alter>-1</alter>
                    <octave>4</octave>
                </pitch>
                <duration>96</duration>
                <tie type="start"/>
                <voice>1</voice>
                <type>eighth</type>
                <accidental>flat</accidental>
                <notehead>normal</notehead>
                <beam number="1">end</beam>
                <notations>
                    <tied type="start"/>
                </notations>
            </note>
        </measure>
        <measure number="12">
            <attributes/>
            <harmony>
                <root>
                    <root-step>C</root-step>
                </root>
                <kind parentheses-degrees="yes">dominant</kind>
                <degree>
                    <degree-value>9</degree-value>
                    <degree-alter>-1</degree-alter>
                    <degree-type>alter</degree-type>
                </degree>
            </harmony>
            <note>
                <pitch>
                    <step>D</step>
                    <alter>-1</alter>
                    <octave>4</octave>
                </pitch>
                <duration>192</duration>
                <tie type="stop"/>
                <voice>1</voice>
                <type>quarter</type>
                <notehead>normal</notehead>
                <notations>
                    <tied type="stop"/>
                </notations>
            </note>
            <note>
                <rest/>
                <duration>96</duration>
                <voice>1</voice>
                <type>eighth</type>
            </note>
            <note>
                <pitch>
                    <step>A</step>
                    <octave>4</octave>
                </pitch>
                <duration>96</duration>
                <tie type="start"/>
                <voice>1</voice>
                <type>eighth</type>
                <notehead>normal</notehead>
                <notations>
                    <tied type="start"/>
                </notations>
            </note>
            <note>
                <pitch>
                    <step>A</step>
                    <octave>4</octave>
                </pitch>
                <duration>96</duration>
                <tie type="stop"/>
                <voice>1</voice>
                <type>eighth</type>
                <notehead>normal</notehead>
                <notations>
                    <tied type="stop"/>
                </notations>
            </note>
            <note>
                <pitch>
                    <step>B</step>
                    <alter>-1</alter>
                    <octave>4</octave>
                </pitch>
                <duration>192</duration>
                <voice>1</voice>
                <type>quarter</type>
                <notehead>normal</notehead>
            </note>
            <note>
                <pitch>
                    <step>A</step>
                    <octave>4</octave>
                </pitch>
                <duration>96</duration>
                <voice>1</voice>
                <type>eighth</type>
                <notehead>normal</notehead>
            </note>
        </measure>
        <measure number="13">
            <attributes/>
            <harmony>
                <root>
                    <root-step>F</root-step>
                </root>
                <kind text="maj7">major-seventh</kind>
            </harmony>
            <note>
                <pitch>
                    <step>C</step>
                    <octave>5</octave>
                </pitch>
                <duration>96</duration>
                <voice>1</voice>
                <type>eighth</type>
                <notehead>normal</notehead>
                <beam number="1">begin</beam>
            </note>
            <note>
                <pitch>
                    <step>A</step>
                    <octave>4</octave>
                </pitch>
                <duration>96</duration>
                <voice>1</voice>
                <type>eighth</type>
                <notehead>normal</notehead>
                <beam number="1">end</beam>
            </note>
            <note>
                <pitch>
                    <step>G</step>
                    <octave>4</octave>
                </pitch>
                <duration>64</duration>
                <voice>1</voice>
                <type>eighth</type>
                <time-modification>
                    <actual-notes>3</actual-notes>
                    <normal-notes>2</normal-notes>
                    <normal-type>eighth</normal-type>
                </time-modification>
                <notehead>normal</notehead>
                <beam number="1">begin</beam>
                <notations>
                    <tuplet type="start" number="1">
                        <tuplet-actual>
                            <tuplet-number>3</tuplet-number>
                            <tuplet-type>eighth</tuplet-type>
                        </tuplet-actual>
                        <tuplet-normal>
                            <tuplet-number>2</tuplet-number>
                            <tuplet-type>eighth</tuplet-type>
                        </tuplet-normal>
                    </tuplet>
                </notations>
            </note>
            <note>
                <pitch>
                    <step>F</step>
                    <octave>4</octave>
                </pitch>
                <duration>64</duration>
                <voice>1</voice>
                <type>eighth</type>
                <time-modification>
                    <actual-notes>3</actual-notes>
                    <normal-notes>2</normal-notes>
                    <normal-type>eighth</normal-type>
                </time-modification>
                <notehead>normal</notehead>
                <beam number="1">continue</beam>
            </note>
            <note>
                <pitch>
                    <step>G</step>
                    <octave>4</octave>
                </pitch>
                <duration>64</duration>
                <tie type="start"/>
                <voice>1</voice>
                <type>eighth</type>
                <time-modification>
                    <actual-notes>3</actual-notes>
                    <normal-notes>2</normal-notes>
                    <normal-type>eighth</normal-type>
                </time-modification>
                <notehead>normal</notehead>
                <beam number="1">end</beam>
                <notations>
                    <tuplet type="stop" number="1"/>
                    <tied type="start"/>
                </notations>
            </note>
            <note>
                <pitch>
                    <step>G</step>
                    <octave>4</octave>
                </pitch>
                <duration>192</duration>
                <tie type="stop"/>
                <voice>1</voice>
                <type>quarter</type>
                <notehead>normal</notehead>
                <notations>
                    <tied type="stop"/>
                </notations>
            </note>
            <note>
                <rest/>
                <duration>96</duration>
                <voice>1</voice>
                <type>eighth</type>
            </note>
            <note>
                <pitch>
                    <step>F</step>
                    <octave>5</octave>
                </pitch>
                <duration>96</duration>
                <voice>1</voice>
                <type>eighth</type>
                <notehead>normal</notehead>
            </note>
        </measure>
        <measure number="14">
            <attributes/>
            <harmony>
                <root>
                    <root-step>G</root-step>
                </root>
                <kind text="m7">minor-seventh</kind>
            </harmony>
            <note>
                <pitch>
                    <step>D</step>
                    <octave>5</octave>
                </pitch>
                <duration>192</duration>
                <voice>1</voice>
                <type>quarter</type>
                <notehead>normal</notehead>
            </note>
            <note>
                <rest/>
                <duration>192</duration>
                <voice>1</voice>
                <type>quarter</type>
            </note>
            <note>
                <pitch>
                    <step>E</step>
                    <octave>5</octave>
                </pitch>
                <duration>96</duration>
                <voice>1</voice>
                <type>eighth</type>
                <notehead>normal</notehead>
                <beam number="1">begin</beam>
            </note>
            <harmony>
                <root>
                    <root-step>C</root-step>
                </root>
                <kind text="7">dominant</kind>
            </harmony>
            <note>
                <pitch>
                    <step>D</step>
                    <octave>5</octave>
                </pitch>
                <duration>96</duration>
                <voice>1</voice>
                <type>eighth</type>
                <notehead>normal</notehead>
                <beam number="1">end</beam>
            </note>
            <note>
                <pitch>
                    <step>A</step>
                    <octave>4</octave>
                </pitch>
                <duration>64</duration>
                <voice>1</voice>
                <type>eighth</type>
                <time-modification>
                    <actual-notes>3</actual-notes>
                    <normal-notes>2</normal-notes>
                    <normal-type>eighth</normal-type>
                </time-modification>
                <notehead>normal</notehead>
                <beam number="1">begin</beam>
                <notations>
                    <tuplet type="start" number="1">
                        <tuplet-actual>
                            <tuplet-number>3</tuplet-number>
                            <tuplet-type>eighth</tuplet-type>
                        </tuplet-actual>
                        <tuplet-normal>
                            <tuplet-number>2</tuplet-number>
                            <tuplet-type>eighth</tuplet-type>
                        </tuplet-normal>
                    </tuplet>
                </notations>
            </note>
            <note>
                <pitch>
                    <step>B</step>
                    <alter>-1</alter>
                    <octave>4</octave>
                </pitch>
                <duration>64</duration>
                <voice>1</voice>
                <type>eighth</type>
                <time-modification>
                    <actual-notes>3</actual-notes>
                    <normal-notes>2</normal-notes>
                    <normal-type>eighth</normal-type>
                </time-modification>
                <notehead>normal</notehead>
                <beam number="1">continue</beam>
            </note>
            <note>
                <pitch>
                    <step>B</step>
                    <octave>4</octave>
                </pitch>
                <duration>64</duration>
                <voice>1</voice>
                <type>eighth</type>
                <accidental>natural</accidental>
                <time-modification>
                    <actual-notes>3</actual-notes>
                    <normal-notes>2</normal-notes>
                    <normal-type>eighth</normal-type>
                </time-modification>
                <notehead>normal</notehead>
                <beam number="1">end</beam>
                <notations>
                    <tuplet type="stop" number="1"/>
                </notations>
            </note>
        </measure>
        <measure number="15">
            <attributes/>
            <harmony>
                <root>
                    <root-step>F</root-step>
                </root>
                <kind text="maj7">major-seventh</kind>
            </harmony>
            <note>
                <pitch>
                    <step>C</step>
                    <octave>5</octave>
                </pitch>
                <duration>288</duration>
                <voice>1</voice>
                <type>quarter</type>
                <dot/>
                <notehead>normal</notehead>
            </note>
            <note>
                <pitch>
                    <step>A</step>
                    <octave>4</octave>
                </pitch>
                <duration>96</duration>
                <voice>1</voice>
                <type>eighth</type>
                <notehead>normal</notehead>
            </note>
            <harmony>
                <root>
                    <root-step>G</root-step>
                </root>
                <kind text="m7">minor-seventh</kind>
            </harmony>
            <note>
                <pitch>
                    <step>B</step>
                    <alter>-1</alter>
                    <octave>4</octave>
                </pitch>
                <duration>96</duration>
                <voice>1</voice>
                <type>eighth</type>
                <notehead>normal</notehead>
                <beam number="1">begin</beam>
            </note>
            <note>
                <pitch>
                    <step>A</step>
                    <octave>4</octave>
                </pitch>
                <duration>96</duration>
                <voice>1</voice>
                <type>eighth</type>
                <notehead>normal</notehead>
                <beam number="1">continue</beam>
            </note>
            <note>
                <pitch>
                    <step>G</step>
                    <alter>1</alter>
                    <octave>4</octave>
                </pitch>
                <duration>96</duration>
                <voice>1</voice>
                <type>eighth</type>
                <accidental>sharp</accidental>
                <notehead>normal</notehead>
                <beam number="1">continue</beam>
            </note>
            <note>
                <pitch>
                    <step>A</step>
                    <octave>4</octave>
                </pitch>
                <duration>96</duration>
                <voice>1</voice>
                <type>eighth</type>
                <notehead>normal</notehead>
                <beam number="1">end</beam>
            </note>
        </measure>
        <measure number="16">
            <attributes/>
            <harmony>
                <root>
                    <root-step>F</root-step>
                </root>
                <kind>major</kind>
            </harmony>
            <note>
                <pitch>
                    <step>F</step>
                    <octave>4</octave>
                </pitch>
                <duration>96</duration>
                <voice>1</voice>
                <type>eighth</type>
                <notehead>normal</notehead>
                <beam number="1">begin</beam>
            </note>
            <note>
                <pitch>
                    <step>C</step>
                    <octave>4</octave>
                </pitch>
                <duration>96</duration>
                <voice>1</voice>
                <type>eighth</type>
                <notehead>normal</notehead>
                <beam number="1">continue</beam>
            </note>
            <note>
                <pitch>
                    <step>E</step>
                    <octave>4</octave>
                </pitch>
                <duration>96</duration>
                <voice>1</voice>
                <type>eighth</type>
                <notehead>normal</notehead>
                <beam number="1">continue</beam>
            </note>
            <note>
                <pitch>
                    <step>F</step>
                    <octave>4</octave>
                </pitch>
                <duration>96</duration>
                <voice>1</voice>
                <type>eighth</type>
                <notehead>normal</notehead>
                <beam number="1">end</beam>
            </note>
            <note>
                <rest/>
                <duration>384</duration>
                <voice>1</voice>
                <type>half</type>
            </note>
        </measure>
        <measure number="17">
            <attributes/>
            <harmony>
                <root>
                    <root-step>A</root-step>
                </root>
                <kind text="7">dominant</kind>
            </harmony>
            <note>
                <rest/>
                <duration>768</duration>
                <voice>1</voice>
                <type>whole</type>
            </note>
        </measure>
        <measure number="18">
            <attributes/>
            <note>
                <rest/>
                <duration>768</duration>
                <voice>1</voice>
                <type>whole</type>
            </note>
        </measure>
        <measure number="19">
            <attributes/>
            <harmony>
                <root>
                    <root-step>D</root-step>
                </root>
                <kind text="7">dominant</kind>
            </harmony>
            <note>
                <rest/>
                <duration>768</duration>
                <voice>1</voice>
                <type>whole</type>
            </note>
        </measure>
        <measure number="20">
            <attributes/>
            <note>
                <rest/>
                <duration>768</duration>
                <voice>1</voice>
                <type>whole</type>
            </note>
        </measure>
        <measure number="21">
            <attributes/>
            <harmony>
                <root>
                    <root-step>G</root-step>
                </root>
                <kind text="7">dominant</kind>
            </harmony>
            <note>
                <rest/>
                <duration>768</duration>
                <voice>1</voice>
                <type>whole</type>
            </note>
        </measure>
        <measure number="22">
            <attributes/>
            <note>
                <rest/>
                <duration>768</duration>
                <voice>1</voice>
                <type>whole</type>
            </note>
        </measure>
        <measure number="23">
            <print new-system="yes"/>
            <attributes/>
            <harmony>
                <root>
                    <root-step>C</root-step>
                </root>
                <kind text="7">dominant</kind>
            </harmony>
            <note>
                <rest/>
                <duration>768</duration>
                <voice>1</voice>
                <type>whole</type>
            </note>
        </measure>
        <measure number="24">
            <attributes/>
            <note>
                <rest/>
                <duration>768</duration>
                <voice>1</voice>
                <type>whole</type>
            </note>
        </measure>
        <measure number="25">
            <attributes/>
            <note>
                <rest/>
                <duration>96</duration>
                <voice>1</voice>
                <type>eighth</type>
            </note>
            <harmony>
                <root>
                    <root-step>G</root-step>
                </root>
                <kind text="m7">minor-seventh</kind>
            </harmony>
            <note>
                <pitch>
                    <step>F</step>
                    <alter>1</alter>
                    <octave>4</octave>
                </pitch>
                <duration>96</duration>
                <voice>1</voice>
                <type>eighth</type>
                <accidental>sharp</accidental>
                <notehead>normal</notehead>
                <beam number="1">begin</beam>
            </note>
            <note>
                <pitch>
                    <step>G</step>
                    <octave>4</octave>
                </pitch>
                <duration>96</duration>
                <voice>1</voice>
                <type>eighth</type>
                <notehead>normal</notehead>
                <beam number="1">continue</beam>
            </note>
            <note>
                <pitch>
                    <step>B</step>
                    <alter>-1</alter>
                    <octave>4</octave>
                </pitch>
                <duration>96</duration>
                <voice>1</voice>
                <type>eighth</type>
                <notehead>normal</notehead>
                <beam number="1">end</beam>
            </note>
            <note>
                <pitch>
                    <step>A</step>
                    <octave>4</octave>
                </pitch>
                <duration>96</duration>
                <voice>1</voice>
                <type>eighth</type>
                <notehead>normal</notehead>
                <beam number="1">begin</beam>
            </note>
            <note>
                <pitch>
                    <step>G</step>
                    <octave>4</octave>
                </pitch>
                <duration>96</duration>
                <voice>1</voice>
                <type>eighth</type>
                <notehead>normal</notehead>
                <beam number="1">continue</beam>
            </note>
            <note>
                <pitch>
                    <step>F</step>
                    <octave>4</octave>
                </pitch>
                <duration>96</duration>
                <voice>1</voice>
                <type>eighth</type>
                <accidental>natural</accidental>
                <notehead>normal</notehead>
                <beam number="1">continue</beam>
            </note>
            <note>
                <pitch>
                    <step>D</step>
                    <octave>4</octave>
                </pitch>
                <duration>96</duration>
                <voice>1</voice>
                <type>eighth</type>
                <notehead>normal</notehead>
                <beam number="1">end</beam>
            </note>
        </measure>
        <measure number="26">
            <attributes/>
            <harmony>
                <root>
                    <root-step>C</root-step>
                </root>
                <kind text="7">dominant</kind>
            </harmony>
            <note>
                <pitch>
                    <step>E</step>
                    <octave>4</octave>
                </pitch>
                <duration>96</duration>
                <voice>1</voice>
                <type>eighth</type>
                <notehead>normal</notehead>
                <beam number="1">begin</beam>
            </note>
            <note>
                <pitch>
                    <step>C</step>
                    <octave>5</octave>
                </pitch>
                <duration>96</duration>
                <voice>1</voice>
                <type>eighth</type>
                <notehead>normal</notehead>
                <beam number="1">end</beam>
            </note>
            <note>
                <rest/>
                <duration>192</duration>
                <voice>1</voice>
                <type>quarter</type>
            </note>
            <note>
                <rest/>
                <duration>96</duration>
                <voice>1</voice>
                <type>eighth</type>
            </note>
            <note>
                <pitch>
                    <step>B</step>
                    <alter>-1</alter>
                    <octave>4</octave>
                </pitch>
                <duration>192</duration>
                <voice>1</voice>
                <type>quarter</type>
                <notehead>normal</notehead>
            </note>
            <note>
                <pitch>
                    <step>A</step>
                    <octave>4</octave>
                </pitch>
                <duration>96</duration>
                <voice>1</voice>
                <type>eighth</type>
                <notehead>normal</notehead>
            </note>
        </measure>
        <measure number="27">
            <attributes/>
            <harmony>
                <root>
                    <root-step>G</root-step>
                </root>
                <kind text="m7">minor-seventh</kind>
            </harmony>
            <note>
                <pitch>
                    <step>B</step>
                    <alter>-1</alter>
                    <octave>4</octave>
                </pitch>
                <duration>96</duration>
                <voice>1</voice>
                <type>eighth</type>
                <notehead>normal</notehead>
                <beam number="1">begin</beam>
            </note>
            <note>
                <pitch>
                    <step>F</step>
                    <octave>5</octave>
                </pitch>
                <duration>96</duration>
                <voice>1</voice>
                <type>eighth</type>
                <notehead>normal</notehead>
                <beam number="1">end</beam>
            </note>
            <note>
                <pitch>
                    <step>D</step>
                    <octave>5</octave>
                </pitch>
                <duration>64</duration>
                <voice>1</voice>
                <type>eighth</type>
                <time-modification>
                    <actual-notes>3</actual-notes>
                    <normal-notes>2</normal-notes>
                    <normal-type>eighth</normal-type>
                </time-modification>
                <notehead>normal</notehead>
                <beam number="1">begin</beam>
                <notations>
                    <tuplet type="start" number="1">
                        <tuplet-actual>
                            <tuplet-number>3</tuplet-number>
                            <tuplet-type>eighth</tuplet-type>
                        </tuplet-actual>
                        <tuplet-normal>
                            <tuplet-number>2</tuplet-number>
                            <tuplet-type>eighth</tuplet-type>
                        </tuplet-normal>
                    </tuplet>
                </notations>
            </note>
            <note>
                <pitch>
                    <step>C</step>
                    <octave>5</octave>
                </pitch>
                <duration>64</duration>
                <voice>1</voice>
                <type>eighth</type>
                <time-modification>
                    <actual-notes>3</actual-notes>
                    <normal-notes>2</normal-notes>
                    <normal-type>eighth</normal-type>
                </time-modification>
                <notehead>normal</notehead>
                <beam number="1">continue</beam>
            </note>
            <note>
                <pitch>
                    <step>B</step>
                    <alter>-1</alter>
                    <octave>4</octave>
                </pitch>
                <duration>64</duration>
                <voice>1</voice>
                <type>eighth</type>
                <time-modification>
                    <actual-notes>3</actual-notes>
                    <normal-notes>2</normal-notes>
                    <normal-type>eighth</normal-type>
                </time-modification>
                <notehead>normal</notehead>
                <beam number="1">end</beam>
                <notations>
                    <tuplet type="stop" number="1"/>
                </notations>
            </note>
            <note>
                <pitch>
                    <step>A</step>
                    <octave>4</octave>
                </pitch>
                <duration>96</duration>
                <voice>1</voice>
                <type>eighth</type>
                <notehead>normal</notehead>
                <beam number="1">begin</beam>
            </note>
            <note>
                <pitch>
                    <step>F</step>
                    <octave>4</octave>
                </pitch>
                <duration>96</duration>
                <voice>1</voice>
                <type>eighth</type>
                <notehead>normal</notehead>
                <beam number="1">continue</beam>
            </note>
            <note>
                <pitch>
                    <step>G</step>
                    <octave>4</octave>
                </pitch>
                <duration>96</duration>
                <voice>1</voice>
                <type>eighth</type>
                <notehead>normal</notehead>
                <beam number="1">continue</beam>
            </note>
            <note>
                <pitch>
                    <step>D</step>
                    <alter>-1</alter>
                    <octave>4</octave>
                </pitch>
                <duration>96</duration>
                <tie type="start"/>
                <voice>1</voice>
                <type>eighth</type>
                <accidental>flat</accidental>
                <notehead>normal</notehead>
                <beam number="1">end</beam>
                <notations>
                    <tied type="start"/>
                </notations>
            </note>
        </measure>
        <measure number="28">
            <attributes/>
            <harmony>
                <root>
                    <root-step>C</root-step>
                </root>
                <kind parentheses-degrees="yes">dominant</kind>
                <degree>
                    <degree-value>9</degree-value>
                    <degree-alter>-1</degree-alter>
                    <degree-type>alter</degree-type>
                </degree>
            </harmony>
            <note>
                <pitch>
                    <step>D</step>
                    <alter>-1</alter>
                    <octave>4</octave>
                </pitch>
                <duration>192</duration>
                <tie type="stop"/>
                <voice>1</voice>
                <type>quarter</type>
                <notehead>normal</notehead>
                <notations>
                    <tied type="stop"/>
                </notations>
            </note>
            <note>
                <rest/>
                <duration>96</duration>
                <voice>1</voice>
                <type>eighth</type>
            </note>
            <note>
                <pitch>
                    <step>A</step>
                    <octave>4</octave>
                </pitch>
                <duration>96</duration>
                <tie type="start"/>
                <voice>1</voice>
                <type>eighth</type>
                <notehead>normal</notehead>
                <notations>
                    <tied type="start"/>
                </notations>
            </note>
            <note>
                <pitch>
                    <step>A</step>
                    <octave>4</octave>
                </pitch>
                <duration>96</duration>
                <tie type="stop"/>
                <voice>1</voice>
                <type>eighth</type>
                <notehead>normal</notehead>
                <notations>
                    <tied type="stop"/>
                </notations>
            </note>
            <note>
                <pitch>
                    <step>B</step>
                    <alter>-1</alter>
                    <octave>4</octave>
                </pitch>
                <duration>192</duration>
                <voice>1</voice>
                <type>quarter</type>
                <notehead>normal</notehead>
            </note>
            <note>
                <pitch>
                    <step>A</step>
                    <octave>4</octave>
                </pitch>
                <duration>96</duration>
                <voice>1</voice>
                <type>eighth</type>
                <notehead>normal</notehead>
            </note>
        </measure>
        <measure number="29">
            <attributes/>
            <harmony>
                <root>
                    <root-step>F</root-step>
                </root>
                <kind text="maj7">major-seventh</kind>
            </harmony>
            <note>
                <pitch>
                    <step>C</step>
                    <octave>5</octave>
                </pitch>
                <duration>96</duration>
                <voice>1</voice>
                <type>eighth</type>
                <notehead>normal</notehead>
                <beam number="1">begin</beam>
            </note>
            <note>
                <pitch>
                    <step>A</step>
                    <octave>4</octave>
                </pitch>
                <duration>96</duration>
                <voice>1</voice>
                <type>eighth</type>
                <notehead>normal</notehead>
                <beam number="1">end</beam>
            </note>
            <note>
                <pitch>
                    <step>G</step>
                    <octave>4</octave>
                </pitch>
                <duration>64</duration>
                <voice>1</voice>
                <type>eighth</type>
                <time-modification>
                    <actual-notes>3</actual-notes>
                    <normal-notes>2</normal-notes>
                    <normal-type>eighth</normal-type>
                </time-modification>
                <notehead>normal</notehead>
                <beam number="1">begin</beam>
                <notations>
                    <tuplet type="start" number="1">
                        <tuplet-actual>
                            <tuplet-number>3</tuplet-number>
                            <tuplet-type>eighth</tuplet-type>
                        </tuplet-actual>
                        <tuplet-normal>
                            <tuplet-number>2</tuplet-number>
                            <tuplet-type>eighth</tuplet-type>
                        </tuplet-normal>
                    </tuplet>
                </notations>
            </note>
            <note>
                <pitch>
                    <step>F</step>
                    <octave>4</octave>
                </pitch>
                <duration>64</duration>
                <voice>1</voice>
                <type>eighth</type>
                <time-modification>
                    <actual-notes>3</actual-notes>
                    <normal-notes>2</normal-notes>
                    <normal-type>eighth</normal-type>
                </time-modification>
                <notehead>normal</notehead>
                <beam number="1">continue</beam>
            </note>
            <note>
                <pitch>
                    <step>G</step>
                    <octave>4</octave>
                </pitch>
                <duration>64</duration>
                <tie type="start"/>
                <voice>1</voice>
                <type>eighth</type>
                <time-modification>
                    <actual-notes>3</actual-notes>
                    <normal-notes>2</normal-notes>
                    <normal-type>eighth</normal-type>
                </time-modification>
                <notehead>normal</notehead>
                <beam number="1">end</beam>
                <notations>
                    <tuplet type="stop" number="1"/>
                    <tied type="start"/>
                </notations>
            </note>
            <note>
                <pitch>
                    <step>G</step>
                    <octave>4</octave>
                </pitch>
                <duration>192</duration>
                <tie type="stop"/>
                <voice>1</voice>
                <type>quarter</type>
                <notehead>normal</notehead>
                <notations>
                    <tied type="stop"/>
                </notations>
            </note>
            <note>
                <rest/>
                <duration>96</duration>
                <voice>1</voice>
                <type>eighth</type>
            </note>
            <note>
                <pitch>
                    <step>F</step>
                    <octave>5</octave>
                </pitch>
                <duration>96</duration>
                <voice>1</voice>
                <type>eighth</type>
                <notehead>normal</notehead>
            </note>
        </measure>
        <measure number="30">
            <attributes/>
            <harmony>
                <root>
                    <root-step>G</root-step>
                </root>
                <kind text="m7">minor-seventh</kind>
            </harmony>
            <note>
                <pitch>
                    <step>D</step>
                    <octave>5</octave>
                </pitch>
                <duration>192</duration>
                <voice>1</voice>
                <type>quarter</type>
                <notehead>normal</notehead>
            </note>
            <note>
                <rest/>
                <duration>192</duration>
                <voice>1</voice>
                <type>quarter</type>
            </note>
            <note>
                <pitch>
                    <step>E</step>
                    <octave>5</octave>
                </pitch>
                <duration>96</duration>
                <voice>1</voice>
                <type>eighth</type>
                <notehead>normal</notehead>
                <beam number="1">begin</beam>
            </note>
            <harmony>
                <root>
                    <root-step>C</root-step>
                </root>
                <kind text="7">dominant</kind>
            </harmony>
            <note>
                <pitch>
                    <step>D</step>
                    <octave>5</octave>
                </pitch>
                <duration>96</duration>
                <voice>1</voice>
                <type>eighth</type>
                <notehead>normal</notehead>
                <beam number="1">end</beam>
            </note>
            <note>
                <pitch>
                    <step>A</step>
                    <octave>4</octave>
                </pitch>
                <duration>64</duration>
                <voice>1</voice>
                <type>eighth</type>
                <time-modification>
                    <actual-notes>3</actual-notes>
                    <normal-notes>2</normal-notes>
                    <normal-type>eighth</normal-type>
                </time-modification>
                <notehead>normal</notehead>
                <beam number="1">begin</beam>
                <notations>
                    <tuplet type="start" number="1">
                        <tuplet-actual>
                            <tuplet-number>3</tuplet-number>
                            <tuplet-type>eighth</tuplet-type>
                        </tuplet-actual>
                        <tuplet-normal>
                            <tuplet-number>2</tuplet-number>
                            <tuplet-type>eighth</tuplet-type>
                        </tuplet-normal>
                    </tuplet>
                </notations>
            </note>
            <note>
                <pitch>
                    <step>B</step>
                    <alter>-1</alter>
                    <octave>4</octave>
                </pitch>
                <duration>64</duration>
                <voice>1</voice>
                <type>eighth</type>
                <time-modification>
                    <actual-notes>3</actual-notes>
                    <normal-notes>2</normal-notes>
                    <normal-type>eighth</normal-type>
                </time-modification>
                <notehead>normal</notehead>
                <beam number="1">continue</beam>
            </note>
            <note>
                <pitch>
                    <step>B</step>
                    <octave>4</octave>
                </pitch>
                <duration>64</duration>
                <voice>1</voice>
                <type>eighth</type>
                <accidental>natural</accidental>
                <time-modification>
                    <actual-notes>3</actual-notes>
                    <normal-notes>2</normal-notes>
                    <normal-type>eighth</normal-type>
                </time-modification>
                <notehead>normal</notehead>
                <beam number="1">end</beam>
                <notations>
                    <tuplet type="stop" number="1"/>
                </notations>
            </note>
        </measure>
        <measure number="31">
            <attributes/>
            <harmony>
                <root>
                    <root-step>F</root-step>
                </root>
                <kind text="maj7">major-seventh</kind>
            </harmony>
            <note>
                <pitch>
                    <step>C</step>
                    <octave>5</octave>
                </pitch>
                <duration>288</duration>
                <voice>1</voice>
                <type>quarter</type>
                <dot/>
                <notehead>normal</notehead>
            </note>
            <note>
                <pitch>
                    <step>A</step>
                    <octave>4</octave>
                </pitch>
                <duration>96</duration>
                <voice>1</voice>
                <type>eighth</type>
                <notehead>normal</notehead>
            </note>
            <harmony>
                <root>
                    <root-step>G</root-step>
                </root>
                <kind text="m7">minor-seventh</kind>
            </harmony>
            <note>
                <pitch>
                    <step>B</step>
                    <alter>-1</alter>
                    <octave>4</octave>
                </pitch>
                <duration>96</duration>
                <voice>1</voice>
                <type>eighth</type>
                <notehead>normal</notehead>
                <beam number="1">begin</beam>
            </note>
            <note>
                <pitch>
                    <step>A</step>
                    <octave>4</octave>
                </pitch>
                <duration>96</duration>
                <voice>1</voice>
                <type>eighth</type>
                <notehead>normal</notehead>
                <beam number="1">continue</beam>
            </note>
            <harmony>
                <root>
                    <root-step>C</root-step>
                </root>
                <kind parentheses-degrees="yes">dominant</kind>
                <degree>
                    <degree-value>9</degree-value>
                    <degree-alter>-1</degree-alter>
                    <degree-type>alter</degree-type>
                </degree>
            </harmony>
            <note>
                <pitch>
                    <step>G</step>
                    <alter>1</alter>
                    <octave>4</octave>
                </pitch>
                <duration>96</duration>
                <voice>1</voice>
                <type>eighth</type>
                <accidental>sharp</accidental>
                <notehead>normal</notehead>
                <beam number="1">continue</beam>
            </note>
            <note>
                <pitch>
                    <step>A</step>
                    <octave>4</octave>
                </pitch>
                <duration>96</duration>
                <voice>1</voice>
                <type>eighth</type>
                <notehead>normal</notehead>
                <beam number="1">end</beam>
            </note>
        </measure>
        <measure number="32">
            <attributes/>
            <harmony>
                <root>
                    <root-step>F</root-step>
                </root>
                <kind>major</kind>
            </harmony>
            <note>
                <pitch>
                    <step>F</step>
                    <octave>4</octave>
                </pitch>
                <duration>96</duration>
                <voice>1</voice>
                <type>eighth</type>
                <notehead>normal</notehead>
                <beam number="1">begin</beam>
            </note>
            <note>
                <pitch>
                    <step>C</step>
                    <octave>4</octave>
                </pitch>
                <duration>96</duration>
                <voice>1</voice>
                <type>eighth</type>
                <notehead>normal</notehead>
                <beam number="1">continue</beam>
            </note>
            <note>
                <pitch>
                    <step>E</step>
                    <octave>4</octave>
                </pitch>
                <duration>96</duration>
                <voice>1</voice>
                <type>eighth</type>
                <notehead>normal</notehead>
                <beam number="1">continue</beam>
            </note>
            <note>
                <pitch>
                    <step>F</step>
                    <octave>4</octave>
                </pitch>
                <duration>96</duration>
                <voice>1</voice>
                <type>eighth</type>
                <notehead>normal</notehead>
                <beam number="1">end</beam>
            </note>
            <note>
                <rest/>
                <duration>384</duration>
                <voice>1</voice>
                <type>half</type>
            </note>
            <barline location="right">
                <bar-style>light-heavy</bar-style>
            </barline>
        </measure>
    </part>
</score-partwise>
