<?xml version="1.0" encoding="UTF-8"?>
<!DOCTYPE score-partwise PUBLIC "-//Recordare//DTD MusicXML 2.0 Partwise//EN" "http://www.musicxml.org/dtds/partwise.dtd">
<score-partwise version="2.0">
    <work>
        <work-number></work-number>
        <work-title></work-title>
    </work>
    <movement-number></movement-number>
    <movement-title>Szél viszi messze</movement-title>
    <identification>
        <creator type="composer">Hungarian soldier's song</creator>
        <creator type="poet"></creator>
        <rights>Public Domain</rights>
        <encoding>
            <software>Finale 2008 for Windows</software>
            <software>Dolet Light for Finale 2008</software>
            <encoding-date>2009-06-01</encoding-date>
            <software>ProxyMusic 2.0 c</software>
        </encoding>
        <source>http://wikifonia.org/node/817/revisions/2437/view</source>
    </identification>
    <defaults>
        <scaling>
            <millimeters>7.2319</millimeters>
            <tenths>40</tenths>
        </scaling>
        <page-layout>
            <page-height>1545</page-height>
            <page-width>1194</page-width>
            <page-margins type="both">
                <left-margin>70</left-margin>
                <right-margin>70</right-margin>
                <top-margin>88</top-margin>
                <bottom-margin>88</bottom-margin>
            </page-margins>
        </page-layout>
        <system-layout>
            <system-margins>
                <left-margin>0</left-margin>
                <right-margin>0</right-margin>
            </system-margins>
            <system-distance>121</system-distance>
            <top-system-distance>70</top-system-distance>
        </system-layout>
        <music-font font-size="20.5" font-family="Maestro"/>
        <word-font font-size="10.25" font-family="Times New Roman"/>
        <lyric-font font-size="10.25" font-family="Times New Roman" name="verse"/>
    </defaults>
    <credit>
        <credit-words font-weight="bold" font-size="24" default-y="1440" default-x="597" justify="center" valign="top">Szél viszi messze
</credit-words>
    </credit>
    <credit>
        <credit-words font-weight="bold" font-size="12" default-y="1376" default-x="1124" justify="right" valign="top">Katonanóta</credit-words>
    </credit>
    <part-list>
        <score-part id="P1">
            <part-name print-object="no">MusicXML Part</part-name>
            <score-instrument id="P1-I1">
                <instrument-name>Grand Piano</instrument-name>
            </score-instrument>
            <midi-instrument id="P1-I1">
                <midi-channel>1</midi-channel>
                <midi-program>1</midi-program>
            </midi-instrument>
        </score-part>
    </part-list>
    <part id="P1">
        <measure width="238" number="1">
            <print>
                <system-layout>
                    <system-margins>
                        <left-margin>70</left-margin>
                        <right-margin>0</right-margin>
                    </system-margins>
                    <top-system-distance>211</top-system-distance>
                </system-layout>
            </print>
            <attributes>
                <divisions>2</divisions>
                <key>
                    <fifths>-3</fifths>
                    <mode>major</mode>
                </key>
                <time>
                    <beats>2</beats>
                    <beat-type>4</beat-type>
                </time>
                <clef>
                    <sign>G</sign>
                    <line>2</line>
                </clef>
            </attributes>
            <sound tempo="120"/>
            <harmony default-y="40">
                <root>
                    <root-step>C</root-step>
                </root>
                <kind text="m">minor</kind>
            </harmony>
            <note default-x="136">
                <pitch>
                    <step>G</step>
                    <octave>3</octave>
                </pitch>
                <duration>2</duration>
                <voice>1</voice>
                <type>quarter</type>
                <stem default-y="-19">up</stem>
                <lyric default-y="-86" number="1">
                    <syllabic>single</syllabic>
                    <text>Szél</text>
                </lyric>
                <lyric default-y="-147" number="2">
                    <syllabic>single</syllabic>
                    <text>Ki</text>
                </lyric>
            </note>
            <note default-x="179">
                <pitch>
                    <step>C</step>
                    <octave>4</octave>
                </pitch>
                <duration>1</duration>
                <voice>1</voice>
                <type>eighth</type>
                <stem default-y="-10">up</stem>
                <beam number="1">begin</beam>
                <lyric default-y="-86" number="1">
                    <syllabic>begin</syllabic>
                    <text>vi</text>
                </lyric>
                <lyric default-y="-147" number="2">
                    <syllabic>begin</syllabic>
                    <text>tud</text>
                </lyric>
            </note>
            <note default-x="208">
                <pitch>
                    <step>E</step>
                    <alter>-1</alter>
                    <octave>4</octave>
                </pitch>
                <duration>1</duration>
                <voice>1</voice>
                <type>eighth</type>
                <stem default-y="-7.5">up</stem>
                <beam number="1">end</beam>
                <lyric default-y="-86" number="1">
                    <syllabic>end</syllabic>
                    <text>szi</text>
                </lyric>
                <lyric default-y="-147" number="2">
                    <syllabic>end</syllabic>
                    <text>ja,</text>
                </lyric>
            </note>
        </measure>
        <measure width="147" number="2">
            <note default-x="24">
                <pitch>
                    <step>G</step>
                    <octave>4</octave>
                </pitch>
                <duration>2</duration>
                <voice>1</voice>
                <type>quarter</type>
                <stem default-y="6">up</stem>
                <lyric default-y="-86" number="1">
                    <syllabic>begin</syllabic>
                    <text>mesz</text>
                </lyric>
                <lyric default-y="-147" number="2">
                    <syllabic>single</syllabic>
                    <text>mely</text>
                </lyric>
            </note>
            <note default-x="70">
                <pitch>
                    <step>F</step>
                    <octave>4</octave>
                </pitch>
                <duration>1</duration>
                <voice>1</voice>
                <type>eighth</type>
                <stem default-y="-5">up</stem>
                <beam number="1">begin</beam>
                <lyric default-y="-86" number="1">
                    <syllabic>end</syllabic>
                    <text>sze</text>
                </lyric>
                <lyric default-y="-147" number="2">
                    <syllabic>begin</syllabic>
                    <text>na</text>
                </lyric>
            </note>
            <note default-x="111">
                <pitch>
                    <step>E</step>
                    <alter>-1</alter>
                    <octave>4</octave>
                </pitch>
                <duration>1</duration>
                <voice>1</voice>
                <type>eighth</type>
                <stem default-y="-7.5">up</stem>
                <beam number="1">end</beam>
                <lyric default-y="-86" number="1">
                    <syllabic>single</syllabic>
                    <text>a</text>
                </lyric>
                <lyric default-y="-147" number="2">
                    <syllabic>end</syllabic>
                    <text>pon,</text>
                </lyric>
            </note>
        </measure>
        <measure width="130" number="3">
            <harmony default-y="40">
                <root>
                    <root-step>G</root-step>
                </root>
                <kind text="">major</kind>
            </harmony>
            <note default-x="24">
                <pitch>
                    <step>D</step>
                    <octave>4</octave>
                </pitch>
                <duration>2</duration>
                <voice>1</voice>
                <type>quarter</type>
                <stem default-y="-9">up</stem>
                <lyric default-y="-86" number="1">
                    <syllabic>begin</syllabic>
                    <text>fel</text>
                </lyric>
                <lyric default-y="-147" number="2">
                    <syllabic>single</syllabic>
                    <text>mely</text>
                </lyric>
            </note>
            <note default-x="69">
                <pitch>
                    <step>G</step>
                    <octave>3</octave>
                </pitch>
                <duration>1</duration>
                <voice>1</voice>
                <type>eighth</type>
                <stem default-y="-20">up</stem>
                <beam number="1">begin</beam>
                <lyric default-y="-86" number="1">
                    <syllabic>middle</syllabic>
                    <text>le</text>
                </lyric>
                <lyric default-y="-147" number="2">
                    <syllabic>begin</syllabic>
                    <text>haj</text>
                </lyric>
            </note>
            <note default-x="105">
                <pitch>
                    <step>B</step>
                    <octave>3</octave>
                </pitch>
                <duration>1</duration>
                <voice>1</voice>
                <type>eighth</type>
                <accidental>natural</accidental>
                <stem default-y="-17">up</stem>
                <beam number="1">end</beam>
                <lyric default-y="-86" number="1">
                    <syllabic>middle</syllabic>
                    <text>ge</text>
                </lyric>
                <lyric default-y="-147" number="2">
                    <syllabic>middle</syllabic>
                    <text>na</text>
                </lyric>
            </note>
        </measure>
        <measure width="93" number="4">
            <note default-x="19">
                <pitch>
                    <step>D</step>
                    <octave>4</octave>
                </pitch>
                <duration>2</duration>
                <voice>1</voice>
                <type>quarter</type>
                <stem default-y="-9">up</stem>
                <lyric default-y="-86" number="1">
                    <syllabic>end</syllabic>
                    <text>ket,</text>
                </lyric>
                <lyric default-y="-147" number="2">
                    <syllabic>end</syllabic>
                    <text>lon,</text>
                </lyric>
            </note>
            <note default-x="56">
                <rest/>
                <duration>2</duration>
                <voice>1</voice>
                <type>quarter</type>
            </note>
        </measure>
        <measure width="105" number="5">
            <harmony default-y="40">
                <root>
                    <root-step>F</root-step>
                </root>
                <kind text="m">minor</kind>
            </harmony>
            <note default-x="16">
                <pitch>
                    <step>G</step>
                    <octave>3</octave>
                </pitch>
                <duration>2</duration>
                <voice>1</voice>
                <type>quarter</type>
                <stem default-y="-19">up</stem>
                <lyric default-y="-86" number="1">
                    <syllabic>begin</syllabic>
                    <text>fe</text>
                </lyric>
                <lyric default-y="-147" number="2">
                    <syllabic>begin</syllabic>
                    <text>ind</text>
                </lyric>
            </note>
            <note default-x="55">
                <pitch>
                    <step>B</step>
                    <octave>3</octave>
                </pitch>
                <duration>1</duration>
                <voice>1</voice>
                <type>eighth</type>
                <accidental>natural</accidental>
                <stem default-y="-20">up</stem>
                <beam number="1">begin</beam>
                <lyric default-y="-86" number="1">
                    <syllabic>middle</syllabic>
                    <text>let</text>
                </lyric>
                <lyric default-y="-147" number="2">
                    <syllabic>end</syllabic>
                    <text>ul</text>
                </lyric>
            </note>
            <note default-x="79">
                <pitch>
                    <step>D</step>
                    <octave>4</octave>
                </pitch>
                <duration>1</duration>
                <voice>1</voice>
                <type>eighth</type>
                <stem default-y="-17">up</stem>
                <beam number="1">end</beam>
                <lyric default-y="-86" number="1">
                    <syllabic>end</syllabic>
                    <text>te</text>
                </lyric>
                <lyric default-y="-147" number="2">
                    <syllabic>single</syllabic>
                    <text>a</text>
                </lyric>
            </note>
        </measure>
        <measure width="114" number="6">
            <harmony default-y="40">
                <root>
                    <root-step>G</root-step>
                </root>
                <kind text="">major</kind>
            </harmony>
            <note default-x="16">
                <pitch>
                    <step>F</step>
                    <octave>4</octave>
                </pitch>
                <duration>2</duration>
                <voice>1</voice>
                <type>quarter</type>
                <stem default-y="1">up</stem>
                <lyric default-y="-86" number="1">
                    <syllabic>begin</syllabic>
                    <text>lán</text>
                </lyric>
                <lyric default-y="-147" number="2">
                    <syllabic>begin</syllabic>
                    <text>szá</text>
                </lyric>
            </note>
            <note default-x="54">
                <pitch>
                    <step>E</step>
                    <alter>-1</alter>
                    <octave>4</octave>
                </pitch>
                <duration>1</duration>
                <voice>1</voice>
                <type>eighth</type>
                <stem default-y="-5">up</stem>
                <beam number="1">begin</beam>
                <lyric default-y="-86" number="1">
                    <syllabic>end</syllabic>
                    <text>gol</text>
                </lyric>
                <lyric default-y="-147" number="2">
                    <syllabic>end</syllabic>
                    <text>zad</text>
                </lyric>
            </note>
            <note default-x="86">
                <pitch>
                    <step>D</step>
                    <octave>4</octave>
                </pitch>
                <duration>1</duration>
                <voice>1</voice>
                <type>eighth</type>
                <stem default-y="-7.5">up</stem>
                <beam number="1">end</beam>
                <lyric default-y="-86" number="1">
                    <syllabic>single</syllabic>
                    <text>az</text>
                </lyric>
                <lyric default-y="-147" number="2">
                    <syllabic>begin</syllabic>
                    <text>to</text>
                </lyric>
            </note>
        </measure>
        <measure width="86" number="7">
            <harmony default-y="40">
                <root>
                    <root-step>C</root-step>
                </root>
                <kind text="m">minor</kind>
            </harmony>
            <note default-x="26">
                <pitch>
                    <step>C</step>
                    <octave>4</octave>
                </pitch>
                <duration>4</duration>
                <voice>1</voice>
                <type>half</type>
                <stem default-y="-14">up</stem>
                <lyric default-y="-86" number="1">
                    <syllabic>single</syllabic>
                    <text>ég.</text>
                </lyric>
                <lyric default-y="-147" number="2">
                    <syllabic>end</syllabic>
                    <text>vább.</text>
                </lyric>
            </note>
        </measure>
        <measure width="71" number="8">
            <note>
                <rest/>
                <duration>4</duration>
                <voice>1</voice>
            </note>
            <direction placement="above">
                <direction-type>
                    <words font-style="italic" default-y="30" justify="right">Fine</words>
                </direction-type>
                <sound fine="yes"/>
            </direction>
        </measure>
        <measure width="253" number="9">
            <print new-system="yes">
                <system-layout>
                    <system-distance>114</system-distance>
                </system-layout>
            </print>
            <harmony default-y="40">
                <root>
                    <root-step>C</root-step>
                </root>
                <kind text="m">minor</kind>
            </harmony>
            <note default-x="121">
                <pitch>
                    <step>G</step>
                    <octave>3</octave>
                </pitch>
                <duration>2</duration>
                <voice>1</voice>
                <type>quarter</type>
                <stem default-y="-19">up</stem>
                <lyric default-y="-86" number="1">
                    <syllabic>single</syllabic>
                    <text>Nyújtsd</text>
                </lyric>
            </note>
            <note default-x="180">
                <pitch>
                    <step>C</step>
                    <octave>4</octave>
                </pitch>
                <duration>1</duration>
                <voice>1</voice>
                <type>eighth</type>
                <stem default-y="-10">up</stem>
                <beam number="1">begin</beam>
                <lyric default-y="-86" number="1">
                    <syllabic>begin</syllabic>
                    <text>i</text>
                </lyric>
            </note>
            <note default-x="216">
                <pitch>
                    <step>E</step>
                    <alter>-1</alter>
                    <octave>4</octave>
                </pitch>
                <duration>1</duration>
                <voice>1</voice>
                <type>eighth</type>
                <stem default-y="-7.5">up</stem>
                <beam number="1">end</beam>
                <lyric default-y="-86" number="1">
                    <syllabic>end</syllabic>
                    <text>de</text>
                </lyric>
            </note>
        </measure>
        <measure width="119" number="10">
            <note default-x="10">
                <pitch>
                    <step>G</step>
                    <octave>4</octave>
                </pitch>
                <duration>2</duration>
                <voice>1</voice>
                <type>quarter</type>
                <stem default-y="6">up</stem>
                <lyric default-y="-86" number="1">
                    <syllabic>begin</syllabic>
                    <text>é</text>
                </lyric>
            </note>
            <note default-x="58">
                <pitch>
                    <step>F</step>
                    <octave>4</octave>
                </pitch>
                <duration>1</duration>
                <voice>1</voice>
                <type>eighth</type>
                <stem default-y="-5">up</stem>
                <beam number="1">begin</beam>
                <lyric default-y="-86" number="1">
                    <syllabic>end</syllabic>
                    <text>des</text>
                </lyric>
            </note>
            <note default-x="88">
                <pitch>
                    <step>E</step>
                    <alter>-1</alter>
                    <octave>4</octave>
                </pitch>
                <duration>1</duration>
                <voice>1</voice>
                <type>eighth</type>
                <stem default-y="-7.5">up</stem>
                <beam number="1">end</beam>
                <lyric default-y="-86" number="1">
                    <syllabic>single</syllabic>
                    <text>a</text>
                </lyric>
            </note>
        </measure>
        <measure width="129" number="11">
            <harmony default-y="40">
                <root>
                    <root-step>G</root-step>
                </root>
                <kind text="">major</kind>
            </harmony>
            <note default-x="16">
                <pitch>
                    <step>D</step>
                    <octave>4</octave>
                </pitch>
                <duration>2</duration>
                <voice>1</voice>
                <type>quarter</type>
                <stem default-y="-9">up</stem>
                <lyric default-y="-86" number="1">
                    <syllabic>single</syllabic>
                    <text>kis</text>
                </lyric>
            </note>
            <note default-x="64">
                <pitch>
                    <step>G</step>
                    <octave>3</octave>
                </pitch>
                <duration>1</duration>
                <voice>1</voice>
                <type>eighth</type>
                <stem default-y="-20">up</stem>
                <beam number="1">begin</beam>
                <lyric default-y="-86" number="1">
                    <syllabic>begin</syllabic>
                    <text>ke</text>
                </lyric>
            </note>
            <note default-x="97">
                <pitch>
                    <step>B</step>
                    <octave>3</octave>
                </pitch>
                <duration>1</duration>
                <voice>1</voice>
                <type>eighth</type>
                <accidental>natural</accidental>
                <stem default-y="-17">up</stem>
                <beam number="1">end</beam>
                <lyric default-y="-86" number="1">
                    <syllabic>middle</syllabic>
                    <text>ze</text>
                </lyric>
            </note>
        </measure>
        <measure width="109" number="12">
            <note default-x="19">
                <pitch>
                    <step>D</step>
                    <octave>4</octave>
                </pitch>
                <duration>2</duration>
                <voice>1</voice>
                <type>quarter</type>
                <stem default-y="-9">up</stem>
                <lyric default-y="-86" number="1">
                    <syllabic>end</syllabic>
                    <text>det,</text>
                </lyric>
            </note>
            <note default-x="63">
                <rest/>
                <duration>2</duration>
                <voice>1</voice>
                <type>quarter</type>
            </note>
        </measure>
        <measure width="127" number="13">
            <harmony default-y="40">
                <root>
                    <root-step>F</root-step>
                </root>
                <kind text="m">minor</kind>
            </harmony>
            <note default-x="13">
                <pitch>
                    <step>F</step>
                    <octave>4</octave>
                </pitch>
                <duration>2</duration>
                <voice>1</voice>
                <type>quarter</type>
                <stem default-y="1">up</stem>
                <lyric default-y="-86" number="1">
                    <syllabic>single</syllabic>
                    <text>Ki</text>
                </lyric>
            </note>
            <note default-x="64">
                <pitch>
                    <step>F</step>
                    <octave>4</octave>
                </pitch>
                <duration>1</duration>
                <voice>1</voice>
                <type>eighth</type>
                <stem default-y="0">up</stem>
                <beam number="1">begin</beam>
                <lyric default-y="-86" number="1">
                    <syllabic>begin</syllabic>
                    <text>tud</text>
                </lyric>
            </note>
            <note default-x="95">
                <pitch>
                    <step>F</step>
                    <octave>4</octave>
                </pitch>
                <duration>1</duration>
                <voice>1</voice>
                <type>eighth</type>
                <stem default-y="0">up</stem>
                <beam number="1">end</beam>
                <lyric default-y="-86" number="1">
                    <syllabic>end</syllabic>
                    <text>ja,</text>
                </lyric>
            </note>
        </measure>
        <measure width="132" number="14">
            <harmony default-y="40">
                <root>
                    <root-step>B</root-step>
                    <root-alter>-1</root-alter>
                </root>
                <kind text="">major</kind>
            </harmony>
            <note default-x="14">
                <pitch>
                    <step>B</step>
                    <alter>-1</alter>
                    <octave>4</octave>
                </pitch>
                <duration>2</duration>
                <voice>1</voice>
                <type>quarter</type>
                <stem default-y="-56">down</stem>
                <lyric default-y="-86" number="1">
                    <syllabic>begin</syllabic>
                    <text>lát</text>
                </lyric>
            </note>
            <note default-x="63">
                <pitch>
                    <step>F</step>
                    <octave>4</octave>
                </pitch>
                <duration>1</duration>
                <voice>1</voice>
                <type>eighth</type>
                <stem default-y="0">up</stem>
                <beam number="1">begin</beam>
                <lyric default-y="-86" number="1">
                    <syllabic>middle</syllabic>
                    <text>lak</text>
                </lyric>
            </note>
            <note default-x="100">
                <pitch>
                    <step>F</step>
                    <alter>1</alter>
                    <octave>4</octave>
                </pitch>
                <duration>1</duration>
                <voice>1</voice>
                <type>eighth</type>
                <accidental>sharp</accidental>
                <stem default-y="0">up</stem>
                <beam number="1">end</beam>
                <lyric default-y="-86" number="1">
                    <syllabic>end</syllabic>
                    <text>e</text>
                </lyric>
            </note>
        </measure>
        <measure width="99" number="15">
            <harmony default-y="40">
                <root>
                    <root-step>E</root-step>
                    <root-alter>-1</root-alter>
                </root>
                <kind text="">major</kind>
            </harmony>
            <note default-x="23">
                <pitch>
                    <step>G</step>
                    <octave>4</octave>
                </pitch>
                <duration>4</duration>
                <voice>1</voice>
                <type>half</type>
                <stem default-y="6">up</stem>
                <lyric default-y="-86" number="1">
                    <syllabic>single</syllabic>
                    <text>még,</text>
                </lyric>
            </note>
        </measure>
        <measure width="86" number="16">
            <note>
                <rest/>
                <duration>4</duration>
                <voice>1</voice>
            </note>
        </measure>
        <measure width="210" number="17">
            <print new-system="yes">
                <system-layout>
                    <system-distance>114</system-distance>
                </system-layout>
            </print>
            <harmony default-y="40">
                <root>
                    <root-step>C</root-step>
                </root>
                <kind text="m">minor</kind>
            </harmony>
            <note default-x="98">
                <pitch>
                    <step>G</step>
                    <octave>4</octave>
                </pitch>
                <duration>2</duration>
                <voice>1</voice>
                <type>quarter</type>
                <stem default-y="6">up</stem>
                <lyric default-y="-86" number="1">
                    <syllabic>single</syllabic>
                    <text>Ki</text>
                </lyric>
            </note>
            <note default-x="147">
                <pitch>
                    <step>G</step>
                    <octave>4</octave>
                </pitch>
                <duration>1</duration>
                <voice>1</voice>
                <type>eighth</type>
                <stem default-y="5">up</stem>
                <beam number="1">begin</beam>
                <lyric default-y="-86" number="1">
                    <syllabic>begin</syllabic>
                    <text>tud</text>
                </lyric>
            </note>
            <note default-x="178">
                <pitch>
                    <step>G</step>
                    <octave>4</octave>
                </pitch>
                <duration>1</duration>
                <voice>1</voice>
                <type>eighth</type>
                <stem default-y="5">up</stem>
                <beam number="1">end</beam>
                <lyric default-y="-86" number="1">
                    <syllabic>end</syllabic>
                    <text>ja,</text>
                </lyric>
            </note>
        </measure>
        <measure width="109" number="18">
            <note default-x="11">
                <pitch>
                    <step>B</step>
                    <alter>-1</alter>
                    <octave>4</octave>
                </pitch>
                <duration>2</duration>
                <voice>1</voice>
                <type>quarter</type>
                <stem default-y="-55.5">down</stem>
                <lyric default-y="-86" number="1">
                    <syllabic>begin</syllabic>
                    <text>ö</text>
                </lyric>
            </note>
            <note default-x="54">
                <pitch>
                    <step>A</step>
                    <alter>-1</alter>
                    <octave>4</octave>
                </pitch>
                <duration>1</duration>
                <voice>1</voice>
                <type>eighth</type>
                <stem default-y="10">up</stem>
                <beam number="1">begin</beam>
                <lyric default-y="-86" number="1">
                    <syllabic>middle</syllabic>
                    <text>lel</text>
                </lyric>
            </note>
            <note default-x="81">
                <pitch>
                    <step>G</step>
                    <octave>4</octave>
                </pitch>
                <duration>1</duration>
                <voice>1</voice>
                <type>eighth</type>
                <stem default-y="5">up</stem>
                <beam number="1">end</beam>
                <lyric default-y="-86" number="1">
                    <syllabic>end</syllabic>
                    <text>e</text>
                </lyric>
            </note>
        </measure>
        <measure width="145" number="19">
            <harmony default-y="40">
                <root>
                    <root-step>F</root-step>
                </root>
                <kind text="">major</kind>
            </harmony>
            <note default-x="10">
                <pitch>
                    <step>F</step>
                    <octave>4</octave>
                </pitch>
                <duration>1</duration>
                <voice>1</voice>
                <type>eighth</type>
                <stem default-y="-5">up</stem>
                <beam number="1">begin</beam>
                <lyric justify="left" default-y="-86" number="1">
                    <syllabic>single</syllabic>
                    <text>a</text>
                    <extend/>
                </lyric>
            </note>
            <note default-x="44">
                <pitch>
                    <step>E</step>
                    <octave>4</octave>
                </pitch>
                <duration>1</duration>
                <voice>1</voice>
                <type>eighth</type>
                <accidental>natural</accidental>
                <stem default-y="-7">up</stem>
                <beam number="1">end</beam>
            </note>
            <note default-x="77">
                <pitch>
                    <step>F</step>
                    <octave>4</octave>
                </pitch>
                <duration>1</duration>
                <voice>1</voice>
                <type>eighth</type>
                <stem default-y="0">up</stem>
                <beam number="1">begin</beam>
                <lyric default-y="-86" number="1">
                    <syllabic>single</syllabic>
                    <text>két</text>
                </lyric>
            </note>
            <note default-x="110">
                <pitch>
                    <step>G</step>
                    <octave>4</octave>
                </pitch>
                <duration>1</duration>
                <voice>1</voice>
                <type>eighth</type>
                <stem default-y="5">up</stem>
                <beam number="1">end</beam>
                <lyric default-y="-86" number="1">
                    <syllabic>begin</syllabic>
                    <text>ka</text>
                </lyric>
            </note>
        </measure>
        <measure width="113" number="20">
            <note default-x="22">
                <pitch>
                    <step>A</step>
                    <alter>-1</alter>
                    <octave>4</octave>
                </pitch>
                <duration>2</duration>
                <voice>1</voice>
                <type>quarter</type>
                <stem default-y="11">up</stem>
                <lyric default-y="-86" number="1">
                    <syllabic>end</syllabic>
                    <text>rom,</text>
                </lyric>
            </note>
            <note default-x="67">
                <rest/>
                <duration>2</duration>
                <voice>1</voice>
                <type>quarter</type>
            </note>
        </measure>
        <measure width="124" number="21">
            <harmony default-y="40">
                <root>
                    <root-step>B</root-step>
                    <root-alter>-1</root-alter>
                </root>
                <kind text="">major</kind>
            </harmony>
            <note default-x="12">
                <pitch>
                    <step>F</step>
                    <octave>4</octave>
                </pitch>
                <duration>2</duration>
                <voice>1</voice>
                <type>quarter</type>
                <stem default-y="1">up</stem>
                <lyric default-y="-86" number="1">
                    <syllabic>single</syllabic>
                    <text>ki</text>
                </lyric>
            </note>
            <note default-x="61">
                <pitch>
                    <step>F</step>
                    <octave>4</octave>
                </pitch>
                <duration>1</duration>
                <voice>1</voice>
                <type>eighth</type>
                <stem default-y="0">up</stem>
                <beam number="1">begin</beam>
                <lyric default-y="-86" number="1">
                    <syllabic>begin</syllabic>
                    <text>tud</text>
                </lyric>
            </note>
            <note default-x="92">
                <pitch>
                    <step>F</step>
                    <octave>4</octave>
                </pitch>
                <duration>1</duration>
                <voice>1</voice>
                <type>eighth</type>
                <stem default-y="0">up</stem>
                <beam number="1">end</beam>
                <lyric default-y="-86" number="1">
                    <syllabic>end</syllabic>
                    <text>ja,</text>
                </lyric>
            </note>
        </measure>
        <measure width="120" number="22">
            <note default-x="17">
                <pitch>
                    <step>B</step>
                    <alter>-1</alter>
                    <octave>4</octave>
                </pitch>
                <duration>2</duration>
                <voice>1</voice>
                <type>quarter</type>
                <stem default-y="-55.5">down</stem>
                <lyric default-y="-86" number="1">
                    <syllabic>begin</syllabic>
                    <text>csó</text>
                </lyric>
            </note>
            <note default-x="63">
                <pitch>
                    <step>F</step>
                    <octave>4</octave>
                </pitch>
                <duration>1</duration>
                <voice>1</voice>
                <type>eighth</type>
                <stem default-y="5">up</stem>
                <beam number="1">begin</beam>
                <lyric default-y="-86" number="1">
                    <syllabic>middle</syllabic>
                    <text>kol</text>
                </lyric>
            </note>
            <note default-x="90">
                <pitch>
                    <step>A</step>
                    <alter>-1</alter>
                    <octave>4</octave>
                </pitch>
                <duration>1</duration>
                <voice>1</voice>
                <type>eighth</type>
                <stem default-y="10">up</stem>
                <beam number="1">end</beam>
                <lyric default-y="-86" number="1">
                    <syllabic>end</syllabic>
                    <text>e</text>
                </lyric>
            </note>
        </measure>
        <measure width="118" number="23">
            <harmony default-y="40">
                <root>
                    <root-step>E</root-step>
                    <root-alter>-1</root-alter>
                </root>
                <kind text="">major</kind>
            </harmony>
            <note default-x="23">
                <pitch>
                    <step>G</step>
                    <octave>4</octave>
                </pitch>
                <duration>3</duration>
                <voice>1</voice>
                <type>quarter</type>
                <dot/>
                <stem default-y="6">up</stem>
                <lyric default-y="-86" number="1">
                    <syllabic>single</syllabic>
                    <text>szád,</text>
                </lyric>
            </note>
            <harmony default-y="40">
                <root>
                    <root-step>F</root-step>
                </root>
                <kind text="">major</kind>
            </harmony>
            <note default-x="86">
                <pitch>
                    <step>F</step>
                    <octave>4</octave>
                </pitch>
                <duration>1</duration>
                <voice>1</voice>
                <type>eighth</type>
                <stem default-y="1">up</stem>
                <lyric default-y="-86" number="1">
                    <syllabic>begin</syllabic>
                    <text>ga</text>
                </lyric>
            </note>
        </measure>
        <measure width="116" number="24">
            <harmony default-y="40">
                <root>
                    <root-step>G</root-step>
                    <root-alter>-1</root-alter>
                </root>
                <kind text="">major</kind>
            </harmony>
            <note default-x="19">
                <pitch>
                    <step>E</step>
                    <alter>-1</alter>
                    <octave>4</octave>
                </pitch>
                <duration>2</duration>
                <voice>1</voice>
                <type>quarter</type>
                <stem default-y="-4">up</stem>
                <lyric default-y="-86" number="1">
                    <syllabic>middle</syllabic>
                    <text>lam</text>
                </lyric>
            </note>
            <harmony default-y="40">
                <root>
                    <root-step>G</root-step>
                </root>
                <kind text="">major</kind>
            </harmony>
            <note default-x="62">
                <pitch>
                    <step>D</step>
                    <octave>4</octave>
                </pitch>
                <duration>2</duration>
                <voice>1</voice>
                <type>quarter</type>
                <stem default-y="-9">up</stem>
                <lyric default-y="-86" number="1">
                    <syllabic>end</syllabic>
                    <text>bom,</text>
                </lyric>
            </note>
            <direction placement="above">
                <direction-type>
                    <words font-style="italic" default-y="30" default-x="106" justify="right">D.C. al Fine</words>
                </direction-type>
                <sound dacapo="yes"/>
            </direction>
            <barline location="right">
                <bar-style>light-heavy</bar-style>
            </barline>
        </measure>
    </part>
</score-partwise>
