<?xml version="1.0" encoding="UTF-8"?>
<!DOCTYPE score-partwise PUBLIC "-//Recordare//DTD MusicXML 2.0 Partwise//EN" "http://www.musicxml.org/dtds/partwise.dtd">
<score-partwise version="2.0">
    <work>
        <work-number></work-number>
        <work-title></work-title>
    </work>
    <movement-number></movement-number>
    <movement-title>A Carol for Christmas Eve</movement-title>
    <identification>
        <creator type="composer">Traditional</creator>
        <creator type="poet"></creator>
        <rights>Public Domain</rights>
        <encoding>
            <software>Finale 2010 for Macintosh</software>
            <software>Dolet Light for Finale 2010</software>
            <encoding-date>2010-12-07</encoding-date>
            <supports value="yes" type="yes" element="print" attribute="new-system"/>
            <supports value="yes" type="yes" element="print" attribute="new-page"/>
            <software>ProxyMusic 2.0 c</software>
        </encoding>
        <source>http://wikifonia.org/node/8564/revisions/11841/view</source>
    </identification>
    <defaults>
        <scaling>
            <millimeters>5.6727</millimeters>
            <tenths>40</tenths>
        </scaling>
        <page-layout>
            <page-height>1970</page-height>
            <page-width>1522</page-width>
            <page-margins type="both">
                <left-margin>70</left-margin>
                <right-margin>70</right-margin>
                <top-margin>70</top-margin>
                <bottom-margin>70</bottom-margin>
            </page-margins>
        </page-layout>
        <system-layout>
            <system-margins>
                <left-margin>0</left-margin>
                <right-margin>0</right-margin>
            </system-margins>
            <system-distance>103</system-distance>
            <top-system-distance>60</top-system-distance>
        </system-layout>
        <appearance>
            <line-width type="stem">0.7487</line-width>
            <line-width type="beam">5</line-width>
            <line-width type="staff">0.7487</line-width>
            <line-width type="light barline">0.7487</line-width>
            <line-width type="heavy barline">5</line-width>
            <line-width type="leger">0.7487</line-width>
            <line-width type="ending">1.4583</line-width>
            <line-width type="wedge">0.7487</line-width>
            <line-width type="enclosure">0.7487</line-width>
            <line-width type="tuplet bracket">0.7487</line-width>
            <note-size type="grace">60</note-size>
            <note-size type="cue">60</note-size>
        </appearance>
        <music-font font-size="16.1" font-family="Maestro"/>
        <word-font font-size="8" font-family="Times New Roman"/>
        <lyric-font font-size="8" font-family="Times New Roman" name="verse"/>
    </defaults>
    <credit page="1">
        <credit-words font-weight="bold" font-size="17" default-y="1857" default-x="501" valign="bottom">A Carol for Christmas Eve</credit-words>
    </credit>
    <credit page="1">
        <credit-words font-size="11" default-y="1809" default-x="1167" valign="bottom">Traditional</credit-words>
    </credit>
    <credit page="1">
        <credit-words font-style="italic" font-size="8" font-family="Bookman" default-y="262" default-x="744" justify="center" valign="bottom">www.cipoo.net  -   Copyleft: thisworkofartisfree, youcanredistributeit
and/ormodifyitaccordingtotermsoftheFreeArtlicensehttp://artlibre.org</credit-words>
    </credit>
    <part-list>
        <score-part id="P1">
            <part-name print-object="no">MusicXML Part</part-name>
            <score-instrument id="P1-I2">
                <instrument-name>Instrument 1</instrument-name>
            </score-instrument>
            <midi-instrument id="P1-I2">
                <midi-channel>1</midi-channel>
                <midi-bank>1</midi-bank>
                <midi-program>53</midi-program>
            </midi-instrument>
        </score-part>
    </part-list>
    <part id="P1">
        <measure width="220" number="1">
            <print>
                <system-layout>
                    <system-margins>
                        <left-margin>114</left-margin>
                        <right-margin>151</right-margin>
                    </system-margins>
                    <top-system-distance>209</top-system-distance>
                </system-layout>
            </print>
            <attributes>
                <divisions>2</divisions>
                <key>
                    <fifths>1</fifths>
                    <mode>major</mode>
                </key>
                <time symbol="common">
                    <beats>4</beats>
                    <beat-type>4</beat-type>
                </time>
                <clef>
                    <sign>G</sign>
                    <line>2</line>
                </clef>
                <staff-details>
                    <staff-size>101</staff-size>
                </staff-details>
            </attributes>
            <direction placement="above" directive="yes">
                <direction-type>
                    <words font-weight="bold" font-size="9.5" font-family="Times" relative-x="-5" default-y="65">Moderato</words>
                </direction-type>
                <sound tempo="120"/>
            </direction>
            <note default-x="145">
                <pitch>
                    <step>B</step>
                    <octave>4</octave>
                </pitch>
                <duration>1</duration>
                <voice>1</voice>
                <type>eighth</type>
                <stem default-y="-55">down</stem>
                <beam number="1">begin</beam>
                <lyric justify="right" default-y="-81" number="1">
                    <syllabic>single</syllabic>
                    <text font-size="10" font-family="Arial">1.</text>
                    <elision> </elision>
                    <syllabic>single</syllabic>
                    <text font-size="10" font-family="Arial">The</text>
                    <extend/>
                </lyric>
            </note>
            <note default-x="182">
                <pitch>
                    <step>C</step>
                    <octave>5</octave>
                </pitch>
                <duration>1</duration>
                <voice>1</voice>
                <type>eighth</type>
                <stem default-y="-50">down</stem>
                <beam number="1">end</beam>
            </note>
        </measure>
        <measure width="240" number="2">
            <note default-x="23">
                <pitch>
                    <step>D</step>
                    <octave>5</octave>
                </pitch>
                <duration>2</duration>
                <voice>1</voice>
                <type>quarter</type>
                <stem default-y="-46">down</stem>
                <lyric default-y="-81" number="1">
                    <syllabic>single</syllabic>
                    <text font-size="10" font-family="Arial">Lord</text>
                </lyric>
            </note>
            <note default-x="74">
                <pitch>
                    <step>C</step>
                    <octave>5</octave>
                </pitch>
                <duration>2</duration>
                <voice>1</voice>
                <type>quarter</type>
                <stem default-y="-51">down</stem>
                <lyric default-y="-81" number="1">
                    <syllabic>single</syllabic>
                    <text font-size="10" font-family="Arial">at</text>
                </lyric>
            </note>
            <note default-x="125">
                <pitch>
                    <step>B</step>
                    <octave>4</octave>
                </pitch>
                <duration>2</duration>
                <voice>1</voice>
                <type>quarter</type>
                <stem default-y="-56">down</stem>
                <lyric default-y="-81" number="1">
                    <syllabic>single</syllabic>
                    <text font-size="10" font-family="Arial">first</text>
                </lyric>
            </note>
            <note default-x="176">
                <pitch>
                    <step>A</step>
                    <octave>4</octave>
                </pitch>
                <duration>1</duration>
                <voice>1</voice>
                <type>eighth</type>
                <stem default-y="10">up</stem>
                <beam number="1">begin</beam>
                <lyric default-y="-81" number="1">
                    <syllabic>single</syllabic>
                    <text font-size="10" font-family="Arial">had</text>
                    <extend/>
                </lyric>
            </note>
            <note default-x="208">
                <pitch>
                    <step>G</step>
                    <octave>4</octave>
                </pitch>
                <duration>1</duration>
                <voice>1</voice>
                <type>eighth</type>
                <stem default-y="5">up</stem>
                <beam number="1">end</beam>
            </note>
        </measure>
        <measure width="227" number="3">
            <note default-x="18">
                <pitch>
                    <step>C</step>
                    <octave>5</octave>
                </pitch>
                <duration>2</duration>
                <voice>1</voice>
                <type>quarter</type>
                <stem default-y="-51">down</stem>
                <lyric default-y="-81" number="1">
                    <syllabic>begin</syllabic>
                    <text font-size="10" font-family="Arial">Ad</text>
                </lyric>
            </note>
            <note default-x="70">
                <pitch>
                    <step>B</step>
                    <octave>4</octave>
                </pitch>
                <duration>2</duration>
                <voice>1</voice>
                <type>quarter</type>
                <stem default-y="-56">down</stem>
                <lyric default-y="-81" number="1">
                    <syllabic>end</syllabic>
                    <text font-size="10" font-family="Arial">am</text>
                </lyric>
            </note>
            <note default-x="122">
                <pitch>
                    <step>A</step>
                    <octave>4</octave>
                </pitch>
                <duration>2</duration>
                <voice>1</voice>
                <type>quarter</type>
                <stem default-y="11">up</stem>
                <lyric default-y="-81" number="1">
                    <syllabic>single</syllabic>
                    <text font-size="10" font-family="Arial">made</text>
                </lyric>
            </note>
            <note default-x="174">
                <pitch>
                    <step>G</step>
                    <octave>4</octave>
                </pitch>
                <duration>2</duration>
                <voice>1</voice>
                <type>quarter</type>
                <stem default-y="6">up</stem>
                <lyric default-y="-81" number="1">
                    <syllabic>single</syllabic>
                    <text font-size="10" font-family="Arial">Out</text>
                </lyric>
            </note>
        </measure>
        <measure width="229" number="4">
            <note default-x="18">
                <pitch>
                    <step>F</step>
                    <alter>1</alter>
                    <octave>4</octave>
                </pitch>
                <duration>2</duration>
                <voice>1</voice>
                <type>quarter</type>
                <stem default-y="1">up</stem>
                <lyric default-y="-81" number="1">
                    <syllabic>single</syllabic>
                    <text font-size="10" font-family="Arial">of</text>
                </lyric>
            </note>
            <note default-x="71">
                <pitch>
                    <step>E</step>
                    <octave>4</octave>
                </pitch>
                <duration>2</duration>
                <voice>1</voice>
                <type>quarter</type>
                <stem default-y="-5">up</stem>
                <lyric default-y="-81" number="1">
                    <syllabic>single</syllabic>
                    <text font-size="10" font-family="Arial">the</text>
                </lyric>
            </note>
            <note default-x="123">
                <pitch>
                    <step>B</step>
                    <octave>4</octave>
                </pitch>
                <duration>2</duration>
                <voice>1</voice>
                <type>quarter</type>
                <stem default-y="-56">down</stem>
                <lyric default-y="-81" number="1">
                    <syllabic>single</syllabic>
                    <text font-size="10" font-family="Arial">dust</text>
                </lyric>
            </note>
            <note default-x="176">
                <pitch>
                    <step>B</step>
                    <octave>4</octave>
                </pitch>
                <duration>2</duration>
                <voice>1</voice>
                <type>quarter</type>
                <stem default-y="-56">down</stem>
                <lyric default-y="-81" number="1">
                    <syllabic>single</syllabic>
                    <text font-size="10" font-family="Arial">and</text>
                </lyric>
            </note>
        </measure>
        <measure width="201" number="5">
            <note default-x="24">
                <pitch>
                    <step>E</step>
                    <octave>4</octave>
                </pitch>
                <duration>6</duration>
                <voice>1</voice>
                <type>half</type>
                <dot/>
                <stem default-y="-5">up</stem>
                <lyric default-y="-81" number="1">
                    <syllabic>single</syllabic>
                    <text font-size="10" font-family="Arial">clay,</text>
                </lyric>
            </note>
            <note default-x="135">
                <pitch>
                    <step>B</step>
                    <octave>4</octave>
                </pitch>
                <duration>1</duration>
                <voice>1</voice>
                <type>eighth</type>
                <stem default-y="-55">down</stem>
                <beam number="1">begin</beam>
                <lyric default-y="-81" number="1">
                    <syllabic>single</syllabic>
                    <text font-size="10" font-family="Arial">And</text>
                    <extend/>
                </lyric>
            </note>
            <note default-x="168">
                <pitch>
                    <step>C</step>
                    <octave>5</octave>
                </pitch>
                <duration>1</duration>
                <voice>1</voice>
                <type>eighth</type>
                <stem default-y="-50">down</stem>
                <beam number="1">end</beam>
            </note>
        </measure>
        <measure width="358" number="6">
            <print new-system="yes">
                <system-layout>
                    <system-margins>
                        <left-margin>114</left-margin>
                        <right-margin>151</right-margin>
                    </system-margins>
                    <system-distance>158</system-distance>
                </system-layout>
            </print>
            <note default-x="79">
                <pitch>
                    <step>D</step>
                    <octave>5</octave>
                </pitch>
                <duration>2</duration>
                <voice>1</voice>
                <type>quarter</type>
                <stem default-y="-46">down</stem>
                <lyric default-y="-81" number="1">
                    <syllabic>single</syllabic>
                    <text font-size="10" font-family="Arial">in</text>
                </lyric>
            </note>
            <note default-x="145">
                <pitch>
                    <step>C</step>
                    <octave>5</octave>
                </pitch>
                <duration>2</duration>
                <voice>1</voice>
                <type>quarter</type>
                <stem default-y="-51">down</stem>
                <lyric default-y="-81" number="1">
                    <syllabic>single</syllabic>
                    <text font-size="10" font-family="Arial">his</text>
                </lyric>
            </note>
            <note default-x="210">
                <pitch>
                    <step>B</step>
                    <octave>4</octave>
                </pitch>
                <duration>2</duration>
                <voice>1</voice>
                <type>quarter</type>
                <stem default-y="-56">down</stem>
                <lyric default-y="-81" number="1">
                    <syllabic>begin</syllabic>
                    <text font-size="10" font-family="Arial">nos</text>
                </lyric>
            </note>
            <note default-x="276">
                <pitch>
                    <step>A</step>
                    <octave>4</octave>
                </pitch>
                <duration>1</duration>
                <voice>1</voice>
                <type>eighth</type>
                <stem default-y="10">up</stem>
                <beam number="1">begin</beam>
                <lyric default-y="-81" number="1">
                    <syllabic>end</syllabic>
                    <text font-size="10" font-family="Arial">trils</text>
                    <extend/>
                </lyric>
            </note>
            <note default-x="316">
                <pitch>
                    <step>G</step>
                    <octave>4</octave>
                </pitch>
                <duration>1</duration>
                <voice>1</voice>
                <type>eighth</type>
                <stem default-y="5">up</stem>
                <beam number="1">end</beam>
            </note>
        </measure>
        <measure width="302" number="7">
            <note default-x="31">
                <pitch>
                    <step>C</step>
                    <octave>5</octave>
                </pitch>
                <duration>2</duration>
                <voice>1</voice>
                <type>quarter</type>
                <stem default-y="-51">down</stem>
                <lyric default-y="-81" number="1">
                    <syllabic>begin</syllabic>
                    <text font-size="10" font-family="Arial">breath</text>
                </lyric>
            </note>
            <note default-x="99">
                <pitch>
                    <step>B</step>
                    <octave>4</octave>
                </pitch>
                <duration>2</duration>
                <voice>1</voice>
                <type>quarter</type>
                <stem default-y="-56">down</stem>
                <lyric default-y="-81" number="1">
                    <syllabic>end</syllabic>
                    <text font-size="10" font-family="Arial">ed</text>
                </lyric>
            </note>
            <note default-x="166">
                <pitch>
                    <step>A</step>
                    <octave>4</octave>
                </pitch>
                <duration>2</duration>
                <voice>1</voice>
                <type>quarter</type>
                <stem default-y="11">up</stem>
                <lyric default-y="-81" number="1">
                    <syllabic>single</syllabic>
                    <text font-size="10" font-family="Arial">life</text>
                </lyric>
            </note>
            <note default-x="234">
                <pitch>
                    <step>G</step>
                    <octave>4</octave>
                </pitch>
                <duration>2</duration>
                <voice>1</voice>
                <type>quarter</type>
                <stem default-y="6">up</stem>
                <lyric default-y="-81" number="1">
                    <syllabic>single</syllabic>
                    <text font-size="10" font-family="Arial">E'en</text>
                </lyric>
            </note>
        </measure>
        <measure width="290" number="8">
            <note default-x="16">
                <pitch>
                    <step>F</step>
                    <alter>1</alter>
                    <octave>4</octave>
                </pitch>
                <duration>2</duration>
                <voice>1</voice>
                <type>quarter</type>
                <stem default-y="1">up</stem>
                <lyric default-y="-81" number="1">
                    <syllabic>single</syllabic>
                    <text font-size="10" font-family="Arial">as</text>
                </lyric>
            </note>
            <note default-x="84">
                <pitch>
                    <step>E</step>
                    <octave>4</octave>
                </pitch>
                <duration>2</duration>
                <voice>1</voice>
                <type>quarter</type>
                <stem default-y="-5">up</stem>
                <lyric default-y="-81" number="1">
                    <syllabic>single</syllabic>
                    <text font-size="10" font-family="Arial">the</text>
                </lyric>
            </note>
            <note default-x="152">
                <pitch>
                    <step>B</step>
                    <octave>4</octave>
                </pitch>
                <duration>2</duration>
                <voice>1</voice>
                <type>quarter</type>
                <stem default-y="-56">down</stem>
                <lyric default-y="-81" number="1">
                    <syllabic>begin</syllabic>
                    <text font-size="10" font-family="Arial">Scrip</text>
                </lyric>
            </note>
            <note default-x="221">
                <pitch>
                    <step>B</step>
                    <octave>4</octave>
                </pitch>
                <duration>2</duration>
                <voice>1</voice>
                <type>quarter</type>
                <stem default-y="-56">down</stem>
                <lyric default-y="-81" number="1">
                    <syllabic>end</syllabic>
                    <text font-size="10" font-family="Arial">tures</text>
                </lyric>
            </note>
        </measure>
        <measure width="167" number="9">
            <note default-x="21">
                <pitch>
                    <step>E</step>
                    <octave>4</octave>
                </pitch>
                <duration>6</duration>
                <voice>1</voice>
                <type>half</type>
                <dot/>
                <stem default-y="-5">up</stem>
                <lyric default-y="-81" number="1">
                    <syllabic>single</syllabic>
                    <text font-size="10" font-family="Arial">say.</text>
                </lyric>
            </note>
        </measure>
        <measure width="150" number="10">
            <print new-system="yes">
                <system-layout>
                    <system-margins>
                        <left-margin>114</left-margin>
                        <right-margin>151</right-margin>
                    </system-margins>
                    <system-distance>158</system-distance>
                </system-layout>
            </print>
            <note default-x="87">
                <pitch>
                    <step>F</step>
                    <alter>1</alter>
                    <octave>4</octave>
                </pitch>
                <duration>2</duration>
                <voice>1</voice>
                <type>quarter</type>
                <stem default-y="0.5">up</stem>
                <lyric default-y="-81" number="1">
                    <syllabic>single</syllabic>
                    <text font-size="10" font-family="Arial">And</text>
                </lyric>
            </note>
        </measure>
        <measure width="285" number="11">
            <note default-x="23">
                <pitch>
                    <step>G</step>
                    <octave>4</octave>
                </pitch>
                <duration>3</duration>
                <voice>1</voice>
                <type>quarter</type>
                <dot/>
                <stem default-y="5.5">up</stem>
                <lyric default-y="-81" number="1">
                    <syllabic>single</syllabic>
                    <text font-size="10" font-family="Arial">then</text>
                </lyric>
            </note>
            <note default-x="106">
                <pitch>
                    <step>F</step>
                    <alter>1</alter>
                    <octave>4</octave>
                </pitch>
                <duration>1</duration>
                <voice>1</voice>
                <type>eighth</type>
                <stem default-y="0.5">up</stem>
                <lyric default-y="-81" number="1">
                    <syllabic>single</syllabic>
                    <text font-size="10" font-family="Arial">in</text>
                </lyric>
            </note>
            <note default-x="144">
                <pitch>
                    <step>G</step>
                    <octave>4</octave>
                </pitch>
                <duration>2</duration>
                <voice>1</voice>
                <type>quarter</type>
                <stem default-y="5.5">up</stem>
                <lyric default-y="-81" number="1">
                    <syllabic>begin</syllabic>
                    <text font-size="10" font-family="Arial">E</text>
                </lyric>
            </note>
            <note default-x="207">
                <pitch>
                    <step>A</step>
                    <octave>4</octave>
                </pitch>
                <duration>1</duration>
                <voice>1</voice>
                <type>eighth</type>
                <stem default-y="10">up</stem>
                <beam number="1">begin</beam>
                <lyric default-y="-81" number="1">
                    <syllabic>end</syllabic>
                    <text font-size="10" font-family="Arial">den's</text>
                    <extend/>
                </lyric>
            </note>
            <note default-x="246">
                <pitch>
                    <step>B</step>
                    <octave>4</octave>
                </pitch>
                <duration>1</duration>
                <voice>1</voice>
                <type>eighth</type>
                <stem default-y="15.5">up</stem>
                <beam number="1">end</beam>
            </note>
        </measure>
        <measure width="236" number="12">
            <note default-x="17">
                <pitch>
                    <step>A</step>
                    <octave>4</octave>
                </pitch>
                <duration>2</duration>
                <voice>1</voice>
                <type>quarter</type>
                <stem default-y="10.5">up</stem>
                <lyric default-y="-81" number="1">
                    <syllabic>begin</syllabic>
                    <text font-size="10" font-family="Arial">Pa</text>
                </lyric>
            </note>
            <note default-x="71">
                <pitch>
                    <step>G</step>
                    <octave>4</octave>
                </pitch>
                <duration>2</duration>
                <voice>1</voice>
                <type>quarter</type>
                <stem default-y="5.5">up</stem>
                <lyric default-y="-81" number="1">
                    <syllabic>middle</syllabic>
                    <text font-size="10" font-family="Arial">ra</text>
                </lyric>
            </note>
            <note default-x="126">
                <pitch>
                    <step>F</step>
                    <alter>1</alter>
                    <octave>4</octave>
                </pitch>
                <duration>2</duration>
                <voice>1</voice>
                <type>quarter</type>
                <stem default-y="0.5">up</stem>
                <lyric default-y="-81" number="1">
                    <syllabic>end</syllabic>
                    <text font-size="10" font-family="Arial">dise</text>
                </lyric>
            </note>
            <note default-x="180">
                <pitch>
                    <step>D</step>
                    <octave>4</octave>
                </pitch>
                <duration>2</duration>
                <voice>1</voice>
                <type>quarter</type>
                <stem default-y="-9">up</stem>
                <lyric default-y="-81" number="1">
                    <syllabic>single</syllabic>
                    <text font-size="10" font-family="Arial">He</text>
                </lyric>
            </note>
        </measure>
        <measure width="238" number="13">
            <note default-x="18">
                <pitch>
                    <step>G</step>
                    <octave>4</octave>
                </pitch>
                <duration>2</duration>
                <voice>1</voice>
                <type>quarter</type>
                <stem default-y="5.5">up</stem>
                <lyric default-y="-81" number="1">
                    <syllabic>begin</syllabic>
                    <text font-size="10" font-family="Arial">pla</text>
                </lyric>
            </note>
            <note default-x="73">
                <pitch>
                    <step>G</step>
                    <octave>4</octave>
                </pitch>
                <duration>2</duration>
                <voice>1</voice>
                <type>quarter</type>
                <stem default-y="5.5">up</stem>
                <lyric default-y="-81" number="1">
                    <syllabic>end</syllabic>
                    <text font-size="10" font-family="Arial">ced</text>
                </lyric>
            </note>
            <note default-x="127">
                <pitch>
                    <step>D</step>
                    <octave>5</octave>
                </pitch>
                <duration>2</duration>
                <voice>1</voice>
                <type>quarter</type>
                <stem default-y="-45.5">down</stem>
                <lyric default-y="-81" number="1">
                    <syllabic>single</syllabic>
                    <text font-size="10" font-family="Arial">him</text>
                </lyric>
            </note>
            <note default-x="182">
                <pitch>
                    <step>A</step>
                    <octave>4</octave>
                </pitch>
                <duration>2</duration>
                <voice>1</voice>
                <type>quarter</type>
                <stem default-y="10.5">up</stem>
                <lyric default-y="-81" number="1">
                    <syllabic>single</syllabic>
                    <text font-size="10" font-family="Arial">to</text>
                </lyric>
            </note>
        </measure>
        <measure width="208" number="14">
            <note default-x="28">
                <pitch>
                    <step>B</step>
                    <octave>4</octave>
                </pitch>
                <duration>6</duration>
                <voice>1</voice>
                <type>half</type>
                <dot/>
                <stem default-y="-56">down</stem>
                <lyric default-y="-81" number="1">
                    <syllabic>single</syllabic>
                    <text font-size="10" font-family="Arial">dwell,</text>
                </lyric>
            </note>
            <note default-x="150">
                <pitch>
                    <step>E</step>
                    <octave>5</octave>
                </pitch>
                <duration>2</duration>
                <voice>1</voice>
                <type>quarter</type>
                <stem default-y="-40.5">down</stem>
                <lyric default-y="-81" number="1">
                    <syllabic>single</syllabic>
                    <text font-size="10" font-family="Arial">That</text>
                </lyric>
            </note>
        </measure>
        <measure width="340" number="15">
            <print new-system="yes">
                <system-layout>
                    <system-margins>
                        <left-margin>114</left-margin>
                        <right-margin>151</right-margin>
                    </system-margins>
                    <system-distance>158</system-distance>
                </system-layout>
            </print>
            <note default-x="80">
                <pitch>
                    <step>D</step>
                    <octave>5</octave>
                </pitch>
                <duration>2</duration>
                <voice>1</voice>
                <type>quarter</type>
                <stem default-y="-46">down</stem>
                <lyric default-y="-81" number="1">
                    <syllabic>single</syllabic>
                    <text font-size="10" font-family="Arial">he</text>
                </lyric>
            </note>
            <note default-x="141">
                <pitch>
                    <step>E</step>
                    <octave>5</octave>
                </pitch>
                <duration>2</duration>
                <voice>1</voice>
                <type>quarter</type>
                <stem default-y="-40.5">down</stem>
                <lyric default-y="-81" number="1">
                    <syllabic>begin</syllabic>
                    <text font-size="10" font-family="Arial">with</text>
                </lyric>
            </note>
            <note default-x="202">
                <pitch>
                    <step>B</step>
                    <octave>4</octave>
                </pitch>
                <duration>2</duration>
                <voice>1</voice>
                <type>quarter</type>
                <stem default-y="-56">down</stem>
                <lyric default-y="-81" number="1">
                    <syllabic>end</syllabic>
                    <text font-size="10" font-family="Arial">in</text>
                </lyric>
            </note>
            <note default-x="264">
                <pitch>
                    <step>A</step>
                    <octave>4</octave>
                </pitch>
                <duration>1</duration>
                <voice>1</voice>
                <type>eighth</type>
                <stem default-y="10">up</stem>
                <beam number="1">begin</beam>
                <lyric default-y="-81" number="1">
                    <syllabic>single</syllabic>
                    <text font-size="10" font-family="Arial">it</text>
                    <extend/>
                </lyric>
            </note>
            <note default-x="301">
                <pitch>
                    <step>G</step>
                    <octave>4</octave>
                </pitch>
                <duration>1</duration>
                <voice>1</voice>
                <type>eighth</type>
                <stem default-y="5">up</stem>
                <beam number="1">end</beam>
            </note>
        </measure>
        <measure width="304" number="16">
            <note default-x="31">
                <pitch>
                    <step>C</step>
                    <octave>5</octave>
                </pitch>
                <duration>2</duration>
                <voice>1</voice>
                <type>quarter</type>
                <stem default-y="-51">down</stem>
                <lyric default-y="-81" number="1">
                    <syllabic>single</syllabic>
                    <text font-size="10" font-family="Arial">should</text>
                </lyric>
            </note>
            <note default-x="99">
                <pitch>
                    <step>B</step>
                    <octave>4</octave>
                </pitch>
                <duration>2</duration>
                <voice>1</voice>
                <type>quarter</type>
                <stem default-y="-56">down</stem>
                <lyric default-y="-81" number="1">
                    <syllabic>begin</syllabic>
                    <text font-size="10" font-family="Arial">re</text>
                </lyric>
            </note>
            <note default-x="167">
                <pitch>
                    <step>A</step>
                    <octave>4</octave>
                </pitch>
                <duration>2</duration>
                <voice>1</voice>
                <type>quarter</type>
                <stem default-y="10.5">up</stem>
                <lyric default-y="-81" number="1">
                    <syllabic>end</syllabic>
                    <text font-size="10" font-family="Arial">main,</text>
                </lyric>
            </note>
            <note default-x="235">
                <pitch>
                    <step>G</step>
                    <octave>4</octave>
                </pitch>
                <duration>2</duration>
                <voice>1</voice>
                <type>quarter</type>
                <stem default-y="5.5">up</stem>
                <lyric default-y="-81" number="1">
                    <syllabic>single</syllabic>
                    <text font-size="10" font-family="Arial">To</text>
                </lyric>
            </note>
        </measure>
        <measure width="306" number="17">
            <note default-x="27">
                <pitch>
                    <step>F</step>
                    <alter>1</alter>
                    <octave>4</octave>
                </pitch>
                <duration>2</duration>
                <voice>1</voice>
                <type>quarter</type>
                <stem default-y="1">up</stem>
                <lyric default-y="-81" number="1">
                    <syllabic>single</syllabic>
                    <text font-size="10" font-family="Arial">dress</text>
                </lyric>
            </note>
            <note default-x="96">
                <pitch>
                    <step>E</step>
                    <octave>4</octave>
                </pitch>
                <duration>2</duration>
                <voice>1</voice>
                <type>quarter</type>
                <stem default-y="-4">up</stem>
                <lyric default-y="-81" number="1">
                    <syllabic>single</syllabic>
                    <text font-size="10" font-family="Arial">and</text>
                </lyric>
            </note>
            <note default-x="166">
                <pitch>
                    <step>B</step>
                    <octave>4</octave>
                </pitch>
                <duration>2</duration>
                <voice>1</voice>
                <type>quarter</type>
                <stem default-y="-56">down</stem>
                <lyric default-y="-81" number="1">
                    <syllabic>single</syllabic>
                    <text font-size="10" font-family="Arial">keep</text>
                </lyric>
            </note>
            <note default-x="236">
                <pitch>
                    <step>B</step>
                    <octave>4</octave>
                </pitch>
                <duration>2</duration>
                <voice>1</voice>
                <type>quarter</type>
                <stem default-y="-56">down</stem>
                <lyric default-y="-81" number="1">
                    <syllabic>single</syllabic>
                    <text font-size="10" font-family="Arial">it</text>
                </lyric>
            </note>
        </measure>
        <measure width="168" number="18">
            <note default-x="24">
                <pitch>
                    <step>E</step>
                    <octave>4</octave>
                </pitch>
                <duration>6</duration>
                <voice>1</voice>
                <type>half</type>
                <dot/>
                <stem default-y="-4">up</stem>
                <lyric default-y="-81" number="1">
                    <syllabic>single</syllabic>
                    <text font-size="10" font-family="Arial">well.</text>
                </lyric>
            </note>
        </measure>
        <measure width="152" number="19">
            <print new-system="yes">
                <system-layout>
                    <system-margins>
                        <left-margin>115</left-margin>
                        <right-margin>152</right-margin>
                    </system-margins>
                    <system-distance>102</system-distance>
                </system-layout>
            </print>
            <note default-x="89">
                <pitch>
                    <step>F</step>
                    <alter>1</alter>
                    <octave>4</octave>
                </pitch>
                <duration>2</duration>
                <voice>1</voice>
                <type>quarter</type>
                <stem default-y="0.5">up</stem>
                <lyric default-y="-81" number="1">
                    <syllabic>single</syllabic>
                    <text font-size="10" font-family="Arial">Now</text>
                </lyric>
            </note>
        </measure>
        <measure width="307" number="20">
            <note default-x="16">
                <pitch>
                    <step>G</step>
                    <octave>4</octave>
                </pitch>
                <duration>3</duration>
                <voice>1</voice>
                <type>quarter</type>
                <dot/>
                <stem default-y="5.5">up</stem>
                <lyric default-y="-81" number="1">
                    <syllabic>single</syllabic>
                    <text font-size="10" font-family="Arial">let</text>
                </lyric>
            </note>
            <note default-x="105">
                <pitch>
                    <step>F</step>
                    <alter>1</alter>
                    <octave>4</octave>
                </pitch>
                <duration>1</duration>
                <voice>1</voice>
                <type>eighth</type>
                <stem default-y="0.5">up</stem>
                <lyric default-y="-81" number="1">
                    <syllabic>single</syllabic>
                    <text font-size="10" font-family="Arial">good</text>
                </lyric>
            </note>
            <note default-x="152">
                <pitch>
                    <step>G</step>
                    <octave>4</octave>
                </pitch>
                <duration>2</duration>
                <voice>1</voice>
                <type>quarter</type>
                <stem default-y="5.5">up</stem>
                <lyric default-y="-81" number="1">
                    <syllabic>begin</syllabic>
                    <text font-size="10" font-family="Arial">Chris</text>
                </lyric>
            </note>
            <note default-x="220">
                <pitch>
                    <step>A</step>
                    <octave>4</octave>
                </pitch>
                <duration>1</duration>
                <voice>1</voice>
                <type>eighth</type>
                <stem default-y="10.5">up</stem>
                <beam number="1">begin</beam>
                <lyric default-y="-81" number="1">
                    <syllabic>end</syllabic>
                    <text font-size="10" font-family="Arial">tians</text>
                    <extend/>
                </lyric>
            </note>
            <note default-x="265">
                <pitch>
                    <step>B</step>
                    <octave>4</octave>
                </pitch>
                <duration>1</duration>
                <voice>1</voice>
                <type>eighth</type>
                <stem default-y="15.5">up</stem>
                <beam number="1">end</beam>
            </note>
        </measure>
        <measure width="229" number="21">
            <note default-x="15">
                <pitch>
                    <step>A</step>
                    <octave>4</octave>
                </pitch>
                <duration>2</duration>
                <voice>1</voice>
                <type>quarter</type>
                <stem default-y="10.5">up</stem>
                <lyric default-y="-81" number="1">
                    <syllabic>single</syllabic>
                    <text font-size="10" font-family="Arial">all</text>
                </lyric>
            </note>
            <note default-x="68">
                <pitch>
                    <step>G</step>
                    <octave>4</octave>
                </pitch>
                <duration>2</duration>
                <voice>1</voice>
                <type>quarter</type>
                <stem default-y="5.5">up</stem>
                <lyric default-y="-81" number="1">
                    <syllabic>begin</syllabic>
                    <text font-size="10" font-family="Arial">be</text>
                </lyric>
            </note>
            <note default-x="122">
                <pitch>
                    <step>F</step>
                    <alter>1</alter>
                    <octave>4</octave>
                </pitch>
                <duration>2</duration>
                <voice>1</voice>
                <type>quarter</type>
                <stem default-y="0.5">up</stem>
                <lyric default-y="-81" number="1">
                    <syllabic>end</syllabic>
                    <text font-size="10" font-family="Arial">gin</text>
                </lyric>
            </note>
            <note default-x="175">
                <pitch>
                    <step>D</step>
                    <octave>4</octave>
                </pitch>
                <duration>2</duration>
                <voice>1</voice>
                <type>quarter</type>
                <stem default-y="-9.5">up</stem>
                <lyric default-y="-81" number="1">
                    <syllabic>single</syllabic>
                    <text font-size="10" font-family="Arial">A</text>
                </lyric>
            </note>
        </measure>
        <measure width="231" number="22">
            <note default-x="16">
                <pitch>
                    <step>G</step>
                    <octave>4</octave>
                </pitch>
                <duration>2</duration>
                <voice>1</voice>
                <type>quarter</type>
                <stem default-y="5.5">up</stem>
                <lyric default-y="-81" number="1">
                    <syllabic>begin</syllabic>
                    <text font-size="10" font-family="Arial">ho</text>
                </lyric>
            </note>
            <note default-x="70">
                <pitch>
                    <step>G</step>
                    <octave>4</octave>
                </pitch>
                <duration>2</duration>
                <voice>1</voice>
                <type>quarter</type>
                <stem default-y="5.5">up</stem>
                <lyric default-y="-81" number="1">
                    <syllabic>end</syllabic>
                    <text font-size="10" font-family="Arial">lier</text>
                </lyric>
            </note>
            <note default-x="123">
                <pitch>
                    <step>D</step>
                    <octave>5</octave>
                </pitch>
                <duration>2</duration>
                <voice>1</voice>
                <type>quarter</type>
                <stem default-y="-45.5">down</stem>
                <lyric default-y="-81" number="1">
                    <syllabic>single</syllabic>
                    <text font-size="10" font-family="Arial">life</text>
                </lyric>
            </note>
            <note default-x="177">
                <pitch>
                    <step>A</step>
                    <octave>4</octave>
                </pitch>
                <duration>2</duration>
                <voice>1</voice>
                <type>quarter</type>
                <stem default-y="10.5">up</stem>
                <lyric default-y="-81" number="1">
                    <syllabic>single</syllabic>
                    <text font-size="10" font-family="Arial">to</text>
                </lyric>
            </note>
        </measure>
        <measure width="196" number="23">
            <note default-x="22">
                <pitch>
                    <step>B</step>
                    <octave>4</octave>
                </pitch>
                <duration>6</duration>
                <voice>1</voice>
                <type>half</type>
                <dot/>
                <stem default-y="-55.5">down</stem>
                <lyric default-y="-81" number="1">
                    <syllabic>single</syllabic>
                    <text font-size="10" font-family="Arial">live,</text>
                </lyric>
            </note>
            <note default-x="140">
                <pitch>
                    <step>E</step>
                    <octave>5</octave>
                </pitch>
                <duration>2</duration>
                <voice>1</voice>
                <type>quarter</type>
                <stem default-y="-40.5">down</stem>
                <lyric default-y="-81" number="1">
                    <syllabic>single</syllabic>
                    <text font-size="10" font-family="Arial">And</text>
                </lyric>
            </note>
        </measure>
        <measure width="367" number="24">
            <print new-system="yes">
                <system-layout>
                    <system-margins>
                        <left-margin>115</left-margin>
                        <right-margin>160</right-margin>
                    </system-margins>
                    <system-distance>127</system-distance>
                </system-layout>
            </print>
            <note default-x="78">
                <pitch>
                    <step>D</step>
                    <octave>5</octave>
                </pitch>
                <duration>2</duration>
                <voice>1</voice>
                <type>quarter</type>
                <stem default-y="-46">down</stem>
                <lyric default-y="-81" number="1">
                    <syllabic>single</syllabic>
                    <text font-size="10" font-family="Arial">to</text>
                </lyric>
            </note>
            <note default-x="146">
                <pitch>
                    <step>E</step>
                    <octave>5</octave>
                </pitch>
                <duration>2</duration>
                <voice>1</voice>
                <type>quarter</type>
                <stem default-y="-41">down</stem>
                <lyric default-y="-81" number="1">
                    <syllabic>begin</syllabic>
                    <text font-size="10" font-family="Arial">re</text>
                </lyric>
            </note>
            <note default-x="215">
                <pitch>
                    <step>B</step>
                    <octave>4</octave>
                </pitch>
                <duration>2</duration>
                <voice>1</voice>
                <type>quarter</type>
                <stem default-y="-56">down</stem>
                <lyric default-y="-81" number="1">
                    <syllabic>end</syllabic>
                    <text font-size="10" font-family="Arial">joice</text>
                </lyric>
            </note>
            <note default-x="282">
                <pitch>
                    <step>A</step>
                    <octave>4</octave>
                </pitch>
                <duration>1</duration>
                <voice>1</voice>
                <type>eighth</type>
                <stem default-y="10">up</stem>
                <beam number="1">begin</beam>
                <lyric default-y="-81" number="1">
                    <syllabic>single</syllabic>
                    <text font-size="10" font-family="Arial">and</text>
                    <extend/>
                </lyric>
            </note>
            <note default-x="324">
                <pitch>
                    <step>G</step>
                    <octave>4</octave>
                </pitch>
                <duration>1</duration>
                <voice>1</voice>
                <type>eighth</type>
                <stem default-y="5">up</stem>
                <beam number="1">end</beam>
            </note>
        </measure>
        <measure width="275" number="25">
            <note default-x="21">
                <pitch>
                    <step>C</step>
                    <octave>5</octave>
                </pitch>
                <duration>2</duration>
                <voice>1</voice>
                <type>quarter</type>
                <stem default-y="-51">down</stem>
                <lyric default-y="-81" number="1">
                    <syllabic>begin</syllabic>
                    <text font-size="10" font-family="Arial">mer</text>
                </lyric>
            </note>
            <note default-x="84">
                <pitch>
                    <step>B</step>
                    <octave>4</octave>
                </pitch>
                <duration>2</duration>
                <voice>1</voice>
                <type>quarter</type>
                <stem default-y="-56">down</stem>
                <lyric default-y="-81" number="1">
                    <syllabic>end</syllabic>
                    <text font-size="10" font-family="Arial">ry</text>
                </lyric>
            </note>
            <note default-x="148">
                <pitch>
                    <step>A</step>
                    <octave>4</octave>
                </pitch>
                <duration>2</duration>
                <voice>1</voice>
                <type>quarter</type>
                <stem default-y="11">up</stem>
                <lyric default-y="-81" number="1">
                    <syllabic>single</syllabic>
                    <text font-size="10" font-family="Arial">be,</text>
                </lyric>
            </note>
            <note default-x="211">
                <pitch>
                    <step>G</step>
                    <octave>4</octave>
                </pitch>
                <duration>2</duration>
                <voice>1</voice>
                <type>quarter</type>
                <stem default-y="6">up</stem>
                <lyric default-y="-81" number="1">
                    <syllabic>single</syllabic>
                    <text font-size="10" font-family="Arial">For</text>
                </lyric>
            </note>
        </measure>
        <measure width="290" number="26">
            <note default-x="20">
                <pitch>
                    <step>F</step>
                    <alter>1</alter>
                    <octave>4</octave>
                </pitch>
                <duration>2</duration>
                <voice>1</voice>
                <type>quarter</type>
                <stem default-y="0">up</stem>
                <lyric default-y="-81" number="1">
                    <syllabic>single</syllabic>
                    <text font-size="10" font-family="Arial">this</text>
                </lyric>
            </note>
            <note default-x="87">
                <pitch>
                    <step>E</step>
                    <octave>4</octave>
                </pitch>
                <duration>2</duration>
                <voice>1</voice>
                <type>quarter</type>
                <stem default-y="-5">up</stem>
                <lyric default-y="-81" number="1">
                    <syllabic>single</syllabic>
                    <text font-size="10" font-family="Arial">is</text>
                </lyric>
            </note>
            <note default-x="154">
                <pitch>
                    <step>B</step>
                    <octave>4</octave>
                </pitch>
                <duration>2</duration>
                <voice>1</voice>
                <type>quarter</type>
                <stem default-y="-56">down</stem>
                <lyric default-y="-81" number="1">
                    <syllabic>begin</syllabic>
                    <text font-size="10" font-family="Arial">Christ</text>
                </lyric>
            </note>
            <note default-x="222">
                <pitch>
                    <step>B</step>
                    <octave>4</octave>
                </pitch>
                <duration>2</duration>
                <voice>1</voice>
                <type>quarter</type>
                <stem default-y="-56">down</stem>
                <lyric default-y="-81" number="1">
                    <syllabic>end</syllabic>
                    <text font-size="10" font-family="Arial">mas</text>
                </lyric>
            </note>
        </measure>
        <measure width="174" number="27">
            <note default-x="24">
                <pitch>
                    <step>E</step>
                    <octave>4</octave>
                </pitch>
                <duration>6</duration>
                <voice>1</voice>
                <type>half</type>
                <dot/>
                <stem default-y="-5">up</stem>
                <lyric default-y="-81" number="1">
                    <syllabic>single</syllabic>
                    <text font-size="10" font-family="Arial">Eve.</text>
                </lyric>
            </note>
            <barline location="right">
                <bar-style>heavy</bar-style>
            </barline>
        </measure>
    </part>
</score-partwise>
