<?xml version="1.0" encoding="UTF-8"?>
<!DOCTYPE score-partwise PUBLIC "-//Recordare//DTD MusicXML 2.0 Partwise//EN" "http://www.musicxml.org/dtds/partwise.dtd">
<score-partwise version="2.0">
    <work>
        <work-number></work-number>
        <work-title></work-title>
    </work>
    <movement-number></movement-number>
    <movement-title>Oh Hanukkah </movement-title>
    <identification>
        <creator type="composer">Traditional</creator>
        <creator type="poet">Traditional</creator>
        <rights>All Rights Reserved</rights>
        <encoding>
            <software>Finale 2010 for Macintosh</software>
            <software>Dolet Light for Finale 2010</software>
            <encoding-date>2010-12-08</encoding-date>
            <supports value="yes" type="yes" element="print" attribute="new-system"/>
            <supports value="yes" type="yes" element="print" attribute="new-page"/>
            <software>ProxyMusic 2.0 c</software>
        </encoding>
        <source>http://wikifonia.org/node/8585/revisions/18623/view</source>
    </identification>
    <defaults>
        <scaling>
            <millimeters>6.5193</millimeters>
            <tenths>40</tenths>
        </scaling>
        <page-layout>
            <page-height>1823</page-height>
            <page-width>1288</page-width>
            <page-margins type="both">
                <left-margin>61</left-margin>
                <right-margin>61</right-margin>
                <top-margin>61</top-margin>
                <bottom-margin>61</bottom-margin>
            </page-margins>
        </page-layout>
        <system-layout>
            <system-margins>
                <left-margin>0</left-margin>
                <right-margin>0</right-margin>
            </system-margins>
            <system-distance>103</system-distance>
            <top-system-distance>60</top-system-distance>
        </system-layout>
        <appearance>
            <line-width type="stem">0.7487</line-width>
            <line-width type="beam">5</line-width>
            <line-width type="staff">0.7487</line-width>
            <line-width type="light barline">0.7487</line-width>
            <line-width type="heavy barline">5</line-width>
            <line-width type="leger">0.7487</line-width>
            <line-width type="ending">1.4583</line-width>
            <line-width type="wedge">0.7487</line-width>
            <line-width type="enclosure">0.7487</line-width>
            <line-width type="tuplet bracket">0.7487</line-width>
            <note-size type="grace">60</note-size>
            <note-size type="cue">60</note-size>
        </appearance>
        <music-font font-size="18.5" font-family="Maestro"/>
        <word-font font-size="9.2" font-family="Times New Roman"/>
        <lyric-font font-size="9.2" font-family="Times New Roman" name="verse"/>
    </defaults>
    <credit page="1">
        <credit-words font-size="11">Oh Chanukah, Oh Chanukah</credit-words>
    </credit>
    <credit page="1">
        <credit-words font-size="10" default-y="1575" default-x="1058" valign="bottom">Traditional</credit-words>
    </credit>
    <credit page="1">
        <credit-words font-size="9" font-family="Palatino" default-y="127" default-x="517" valign="bottom">www.virtualsheetmusic.com</credit-words>
    </credit>
    <credit page="1">
        <credit-words font-size="17" default-y="92" default-x="640" valign="bottom">1</credit-words>
    </credit>
    <part-list>
        <score-part id="P1">
            <part-name print-object="no">MusicXML Part</part-name>
            <score-instrument id="P1-I2">
                <instrument-name>Instrument 1</instrument-name>
            </score-instrument>
            <midi-instrument id="P1-I2">
                <midi-channel>1</midi-channel>
                <midi-bank>1</midi-bank>
                <midi-program>53</midi-program>
            </midi-instrument>
        </score-part>
    </part-list>
    <part id="P1">
        <measure width="168" number="1">
            <print>
                <system-layout>
                    <system-margins>
                        <left-margin>166</left-margin>
                        <right-margin>29</right-margin>
                    </system-margins>
                    <top-system-distance>308</top-system-distance>
                </system-layout>
            </print>
            <attributes>
                <divisions>2</divisions>
                <key>
                    <fifths>-1</fifths>
                    <mode>major</mode>
                </key>
                <time symbol="common">
                    <beats>4</beats>
                    <beat-type>4</beat-type>
                </time>
                <clef>
                    <sign>G</sign>
                    <line>2</line>
                </clef>
            </attributes>
            <direction placement="above">
                <direction-type>
                    <words font-weight="bold" font-size="12" font-family="Times" relative-x="-37" default-y="61">Allegro</words>
                </direction-type>
                <sound tempo="140"/>
            </direction>
            <note default-x="113">
                <pitch>
                    <step>D</step>
                    <octave>4</octave>
                </pitch>
                <duration>1</duration>
                <voice>1</voice>
                <type>eighth</type>
                <stem default-y="-9.5">up</stem>
                <lyric default-y="-75" number="1">
                    <syllabic>single</syllabic>
                    <text font-size="11">Oh</text>
                </lyric>
                <lyric default-y="-108" number="2">
                    <syllabic>single</syllabic>
                    <text font-style="italic" font-size="11">Oh</text>
                </lyric>
            </note>
        </measure>
        <measure width="483" number="2">
            <harmony default-y="34">
                <root>
                    <root-step>D</root-step>
                </root>
                <kind halign="center" text="m">minor</kind>
            </harmony>
            <note default-x="18">
                <pitch>
                    <step>A</step>
                    <octave>4</octave>
                </pitch>
                <duration>1</duration>
                <voice>1</voice>
                <type>eighth</type>
                <stem default-y="10.5">up</stem>
                <lyric default-y="-75" number="1">
                    <syllabic>begin</syllabic>
                    <text font-size="11">Ha</text>
                </lyric>
                <lyric default-y="-108" number="2">
                    <syllabic>begin</syllabic>
                    <text font-style="italic" font-size="11">Ha</text>
                </lyric>
            </note>
            <note default-x="76">
                <pitch>
                    <step>A</step>
                    <octave>4</octave>
                </pitch>
                <duration>1</duration>
                <voice>1</voice>
                <type>eighth</type>
                <stem default-y="10.5">up</stem>
                <lyric default-y="-75" number="1">
                    <syllabic>middle</syllabic>
                    <text font-size="11">nuk</text>
                </lyric>
                <lyric default-y="-108" number="2">
                    <syllabic>middle</syllabic>
                    <text font-style="italic" font-size="11">nuk</text>
                </lyric>
            </note>
            <note default-x="134">
                <pitch>
                    <step>A</step>
                    <octave>4</octave>
                </pitch>
                <duration>1</duration>
                <voice>1</voice>
                <type>eighth</type>
                <stem default-y="10.5">up</stem>
                <lyric default-y="-75" number="1">
                    <syllabic>end</syllabic>
                    <text font-size="11">kah,</text>
                </lyric>
                <lyric default-y="-108" number="2">
                    <syllabic>end</syllabic>
                    <text font-style="italic" font-size="11">kah,</text>
                </lyric>
            </note>
            <note default-x="192">
                <pitch>
                    <step>A</step>
                    <octave>4</octave>
                </pitch>
                <duration>1</duration>
                <voice>1</voice>
                <type>eighth</type>
                <stem default-y="10.5">up</stem>
                <lyric default-y="-75" number="1">
                    <syllabic>single</syllabic>
                    <text font-size="11">Oh</text>
                </lyric>
                <lyric default-y="-108" number="2">
                    <syllabic>single</syllabic>
                    <text font-style="italic" font-size="11">Oh</text>
                </lyric>
            </note>
            <note default-x="251">
                <pitch>
                    <step>D</step>
                    <octave>5</octave>
                </pitch>
                <duration>1</duration>
                <voice>1</voice>
                <type>eighth</type>
                <stem default-y="-45">down</stem>
                <lyric default-y="-75" number="1">
                    <syllabic>begin</syllabic>
                    <text font-size="11">Ha</text>
                </lyric>
                <lyric default-y="-108" number="2">
                    <syllabic>begin</syllabic>
                    <text font-style="italic" font-size="11">Ha</text>
                </lyric>
            </note>
            <note default-x="309">
                <pitch>
                    <step>A</step>
                    <octave>4</octave>
                </pitch>
                <duration>1</duration>
                <voice>1</voice>
                <type>eighth</type>
                <stem default-y="10.5">up</stem>
                <lyric default-y="-75" number="1">
                    <syllabic>middle</syllabic>
                    <text font-size="11">nuk</text>
                </lyric>
                <lyric default-y="-108" number="2">
                    <syllabic>middle</syllabic>
                    <text font-style="italic" font-size="11">nuk</text>
                </lyric>
            </note>
            <note default-x="367">
                <pitch>
                    <step>A</step>
                    <octave>4</octave>
                </pitch>
                <duration>1</duration>
                <voice>1</voice>
                <type>eighth</type>
                <stem default-y="10.5">up</stem>
                <lyric default-y="-75" number="1">
                    <syllabic>end</syllabic>
                    <text font-size="11">kah,</text>
                </lyric>
                <lyric default-y="-108" number="2">
                    <syllabic>end</syllabic>
                    <text font-style="italic" font-size="11">kah,</text>
                </lyric>
            </note>
            <note default-x="424">
                <pitch>
                    <step>A</step>
                    <octave>4</octave>
                </pitch>
                <duration>1</duration>
                <voice>1</voice>
                <type>eighth</type>
                <stem default-y="10.5">up</stem>
                <lyric default-y="-75" number="1">
                    <syllabic>single</syllabic>
                    <text font-size="11">a</text>
                </lyric>
                <lyric default-y="-108" number="2">
                    <syllabic>single</syllabic>
                    <text font-style="italic" font-size="11">come</text>
                </lyric>
            </note>
        </measure>
        <measure width="319" number="3">
            <harmony default-y="34">
                <root>
                    <root-step>D</root-step>
                </root>
                <kind halign="center" text="m">minor</kind>
            </harmony>
            <note default-x="24">
                <pitch>
                    <step>A</step>
                    <octave>4</octave>
                </pitch>
                <duration>2</duration>
                <voice>1</voice>
                <type>quarter</type>
                <stem default-y="10.5">up</stem>
                <lyric default-y="-75" number="1">
                    <syllabic>begin</syllabic>
                    <text font-size="11">yon</text>
                </lyric>
                <lyric default-y="-108" number="2">
                    <syllabic>single</syllabic>
                    <text font-style="italic" font-size="11">light</text>
                </lyric>
            </note>
            <note default-x="93">
                <pitch>
                    <step>G</step>
                    <octave>4</octave>
                </pitch>
                <duration>1</duration>
                <voice>1</voice>
                <type>eighth</type>
                <stem default-y="6">up</stem>
                <lyric default-y="-75" number="1">
                    <syllabic>end</syllabic>
                    <text font-size="11">tif</text>
                </lyric>
                <lyric default-y="-108" number="2">
                    <syllabic>single</syllabic>
                    <text font-style="italic" font-size="11">the</text>
                </lyric>
            </note>
            <note default-x="136">
                <pitch>
                    <step>F</step>
                    <octave>4</octave>
                </pitch>
                <duration>1</duration>
                <voice>1</voice>
                <type>eighth</type>
                <stem default-y="0">up</stem>
                <lyric default-y="-75" number="1">
                    <syllabic>single</syllabic>
                    <text font-size="11">a</text>
                </lyric>
                <lyric default-y="-108" number="2">
                    <syllabic>begin</syllabic>
                    <text font-style="italic" font-size="11">me</text>
                </lyric>
            </note>
            <harmony default-y="34">
                <root>
                    <root-step>A</root-step>
                </root>
                <kind halign="center" text="7">dominant</kind>
            </harmony>
            <note default-x="179">
                <pitch>
                    <step>G</step>
                    <octave>4</octave>
                </pitch>
                <duration>2</duration>
                <voice>1</voice>
                <type>quarter</type>
                <stem default-y="6">up</stem>
                <lyric default-y="-75" number="1">
                    <syllabic>begin</syllabic>
                    <text font-size="11">shey</text>
                </lyric>
                <lyric default-y="-108" number="2">
                    <syllabic>middle</syllabic>
                    <text font-style="italic" font-size="11">no</text>
                </lyric>
            </note>
            <note default-x="249">
                <pitch>
                    <step>E</step>
                    <octave>4</octave>
                </pitch>
                <duration>2</duration>
                <voice>1</voice>
                <type>quarter</type>
                <stem default-y="-4.5">up</stem>
                <lyric default-y="-75" number="1">
                    <syllabic>end</syllabic>
                    <text font-size="11">ner,</text>
                </lyric>
                <lyric default-y="-108" number="2">
                    <syllabic>end</syllabic>
                    <text font-style="italic" font-size="11">ra,</text>
                </lyric>
            </note>
        </measure>
        <measure width="381" number="4">
            <print new-system="yes">
                <system-layout>
                    <system-margins>
                        <left-margin>52</left-margin>
                        <right-margin>29</right-margin>
                    </system-margins>
                    <system-distance>200</system-distance>
                </system-layout>
            </print>
            <harmony default-y="34">
                <root>
                    <root-step>D</root-step>
                </root>
                <kind halign="center" text="m">minor</kind>
            </harmony>
            <note default-x="88">
                <pitch>
                    <step>A</step>
                    <octave>4</octave>
                </pitch>
                <duration>2</duration>
                <voice>1</voice>
                <type>quarter</type>
                <stem default-y="11">up</stem>
                <lyric default-y="-73" number="1">
                    <syllabic>single</syllabic>
                    <text font-size="11">A</text>
                </lyric>
                <lyric default-y="-108" number="2">
                    <syllabic>single</syllabic>
                    <text font-style="italic" font-size="11">Let's</text>
                </lyric>
            </note>
            <note default-x="143">
                <pitch>
                    <step>A</step>
                    <octave>4</octave>
                </pitch>
                <duration>1</duration>
                <voice>1</voice>
                <type>eighth</type>
                <stem default-y="11">up</stem>
                <lyric default-y="-73" number="1">
                    <syllabic>begin</syllabic>
                    <text font-size="11">lus</text>
                </lyric>
                <lyric default-y="-108" number="2">
                    <syllabic>single</syllabic>
                    <text font-style="italic" font-size="11">have</text>
                </lyric>
            </note>
            <note default-x="181">
                <pitch>
                    <step>A</step>
                    <octave>4</octave>
                </pitch>
                <duration>1</duration>
                <voice>1</voice>
                <type>eighth</type>
                <stem default-y="11">up</stem>
                <lyric default-y="-73" number="1">
                    <syllabic>middle</syllabic>
                    <text font-size="11">ti</text>
                </lyric>
                <lyric default-y="-108" number="2">
                    <syllabic>single</syllabic>
                    <text font-style="italic" font-size="11">a</text>
                </lyric>
            </note>
            <note default-x="220">
                <pitch>
                    <step>D</step>
                    <octave>5</octave>
                </pitch>
                <duration>2</duration>
                <voice>1</voice>
                <type>quarter</type>
                <stem default-y="-45">down</stem>
                <lyric default-y="-73" number="1">
                    <syllabic>end</syllabic>
                    <text font-size="11">ker</text>
                </lyric>
                <lyric default-y="-108" number="2">
                    <syllabic>begin</syllabic>
                    <text font-style="italic" font-size="11">par</text>
                </lyric>
            </note>
            <note default-x="282">
                <pitch>
                    <step>A</step>
                    <octave>4</octave>
                </pitch>
                <duration>1</duration>
                <voice>1</voice>
                <type>eighth</type>
                <stem default-y="11">up</stem>
                <lyric default-y="-73" number="1">
                    <syllabic>single</syllabic>
                    <text font-size="11">a</text>
                    <elision> </elision>
                    <syllabic>single</syllabic>
                    <text font-size="11">freylek</text>
                </lyric>
                <lyric default-y="-108" number="2">
                    <syllabic>end</syllabic>
                    <text font-style="italic" font-size="11">ty,</text>
                </lyric>
            </note>
            <note default-x="341">
                <pitch>
                    <step>A</step>
                    <octave>4</octave>
                </pitch>
                <duration>1</duration>
                <voice>1</voice>
                <type>eighth</type>
                <stem default-y="11">up</stem>
                <lyric default-y="-108" number="2">
                    <syllabic>single</syllabic>
                    <text font-style="italic" font-size="11">we'll</text>
                </lyric>
            </note>
        </measure>
        <measure width="311" number="5">
            <harmony default-y="34">
                <root>
                    <root-step>D</root-step>
                </root>
                <kind halign="center" text="m">minor</kind>
            </harmony>
            <note default-x="69">
                <pitch>
                    <step>A</step>
                    <octave>4</octave>
                </pitch>
                <duration>2</duration>
                <voice>1</voice>
                <type>quarter</type>
                <stem default-y="11">up</stem>
                <lyric justify="right" default-y="-73" number="1">
                    <syllabic>single</syllabic>
                    <text font-size="11">her</text>
                    <elision> </elision>
                    <syllabic>single</syllabic>
                    <text font-size="11">Nisht</text>
                </lyric>
                <lyric justify="right" default-y="-108" number="2">
                    <syllabic>single</syllabic>
                    <text font-style="italic" font-size="11">all</text>
                </lyric>
            </note>
            <note default-x="117">
                <pitch>
                    <step>G</step>
                    <octave>4</octave>
                </pitch>
                <duration>1</duration>
                <voice>1</voice>
                <type>eighth</type>
                <stem default-y="5">up</stem>
                <lyric default-y="-73" number="1">
                    <syllabic>single</syllabic>
                    <text font-size="11">do</text>
                </lyric>
                <lyric default-y="-108" number="2">
                    <syllabic>single</syllabic>
                    <text font-style="italic" font-size="11">dance</text>
                </lyric>
            </note>
            <note default-x="173">
                <pitch>
                    <step>F</step>
                    <octave>4</octave>
                </pitch>
                <duration>1</duration>
                <voice>1</voice>
                <type>eighth</type>
                <stem default-y="0.5">up</stem>
                <lyric default-y="-73" number="1">
                    <syllabic>single</syllabic>
                    <text font-size="11">nokh</text>
                    <elision> </elision>
                    <syllabic>begin</syllabic>
                    <text font-size="11">a</text>
                </lyric>
                <lyric default-y="-108" number="2">
                    <syllabic>single</syllabic>
                    <text font-style="italic" font-size="11">the</text>
                </lyric>
            </note>
            <harmony default-y="34">
                <root>
                    <root-step>A</root-step>
                </root>
                <kind halign="center" text="7">dominant</kind>
            </harmony>
            <note default-x="219">
                <pitch>
                    <step>G</step>
                    <octave>4</octave>
                </pitch>
                <duration>2</duration>
                <voice>1</voice>
                <type>quarter</type>
                <stem default-y="5">up</stem>
                <lyric default-y="-73" number="1">
                    <syllabic>end</syllabic>
                    <text font-size="11">zoy</text>
                </lyric>
                <lyric default-y="-108" number="2">
                    <syllabic>begin</syllabic>
                    <text font-style="italic" font-size="11">ho</text>
                </lyric>
            </note>
            <note default-x="264">
                <pitch>
                    <step>E</step>
                    <octave>4</octave>
                </pitch>
                <duration>2</duration>
                <voice>1</voice>
                <type>quarter</type>
                <stem default-y="-4.5">up</stem>
                <lyric default-y="-73" number="1">
                    <syllabic>single</syllabic>
                    <text font-size="11">ner</text>
                </lyric>
                <lyric default-y="-108" number="2">
                    <syllabic>end</syllabic>
                    <text font-style="italic" font-size="11">ra,</text>
                </lyric>
            </note>
        </measure>
        <measure width="393" number="6">
            <harmony default-y="34">
                <root>
                    <root-step>D</root-step>
                </root>
                <kind halign="center" text="m">minor</kind>
            </harmony>
            <note default-x="18">
                <pitch>
                    <step>F</step>
                    <octave>4</octave>
                </pitch>
                <duration>1</duration>
                <voice>1</voice>
                <type>eighth</type>
                <stem default-y="0.5">up</stem>
                <lyric default-y="-73" number="1">
                    <syllabic>begin</syllabic>
                    <text font-size="11">A</text>
                </lyric>
                <lyric default-y="-108" number="2">
                    <syllabic>begin</syllabic>
                    <text font-style="italic" font-size="11">Ga</text>
                </lyric>
            </note>
            <note default-x="79">
                <pitch>
                    <step>G</step>
                    <octave>4</octave>
                </pitch>
                <duration>1</duration>
                <voice>1</voice>
                <type>eighth</type>
                <stem default-y="5">up</stem>
                <lyric default-y="-73" number="1">
                    <syllabic>end</syllabic>
                    <text font-size="11">le</text>
                </lyric>
                <lyric default-y="-108" number="2">
                    <syllabic>end</syllabic>
                    <text font-style="italic" font-size="11">ther'round</text>
                </lyric>
            </note>
            <harmony default-y="34">
                <root>
                    <root-step>A</root-step>
                </root>
                <kind halign="center" text="7">dominant</kind>
            </harmony>
            <note default-x="147">
                <pitch>
                    <step>A</step>
                    <octave>4</octave>
                </pitch>
                <duration>1</duration>
                <voice>1</voice>
                <type>eighth</type>
                <stem default-y="10">up</stem>
                <beam number="1">begin</beam>
                <lyric default-y="-73" number="1">
                    <syllabic>single</syllabic>
                    <text font-size="11">nakht</text>
                    <extend/>
                </lyric>
            </note>
            <note default-x="194">
                <pitch>
                    <step>G</step>
                    <octave>4</octave>
                </pitch>
                <duration>1</duration>
                <voice>1</voice>
                <type>eighth</type>
                <stem default-y="5">up</stem>
                <beam number="1">end</beam>
                <lyric default-y="-108" number="2">
                    <syllabic>single</syllabic>
                    <text font-style="italic" font-size="11">the</text>
                </lyric>
            </note>
            <harmony default-y="34">
                <root>
                    <root-step>D</root-step>
                </root>
                <kind halign="center" text="m">minor</kind>
            </harmony>
            <note default-x="236">
                <pitch>
                    <step>F</step>
                    <octave>4</octave>
                </pitch>
                <duration>2</duration>
                <voice>1</voice>
                <type>quarter</type>
                <stem default-y="0.5">up</stem>
                <lyric default-y="-73" number="1">
                    <syllabic>single</syllabic>
                    <text font-size="11">mit</text>
                </lyric>
                <lyric default-y="-108" number="2">
                    <syllabic>begin</syllabic>
                    <text font-style="italic" font-size="11">ta</text>
                </lyric>
            </note>
            <note default-x="302">
                <pitch>
                    <step>F</step>
                    <octave>4</octave>
                </pitch>
                <duration>1</duration>
                <voice>1</voice>
                <type>eighth</type>
                <stem default-y="0.5">up</stem>
                <lyric default-y="-73" number="1">
                    <syllabic>begin</syllabic>
                    <text font-size="11">dre</text>
                </lyric>
                <lyric default-y="-108" number="2">
                    <syllabic>end</syllabic>
                    <text font-style="italic" font-size="11">ble,we'll</text>
                </lyric>
            </note>
            <note default-x="355">
                <pitch>
                    <step>F</step>
                    <octave>4</octave>
                </pitch>
                <duration>1</duration>
                <voice>1</voice>
                <type>eighth</type>
                <stem default-y="0.5">up</stem>
                <lyric default-y="-73" number="1">
                    <syllabic>middle</syllabic>
                    <text font-size="11">yd</text>
                </lyric>
            </note>
        </measure>
        <measure width="383" number="7">
            <print new-system="yes">
                <system-layout>
                    <system-margins>
                        <left-margin>52</left-margin>
                        <right-margin>29</right-margin>
                    </system-margins>
                    <system-distance>200</system-distance>
                </system-layout>
            </print>
            <harmony default-y="34">
                <root>
                    <root-step>A</root-step>
                </root>
                <kind halign="center" text="7">dominant</kind>
            </harmony>
            <note default-x="90">
                <pitch>
                    <step>G</step>
                    <octave>4</octave>
                </pitch>
                <duration>2</duration>
                <voice>1</voice>
                <type>quarter</type>
                <stem default-y="5.5">up</stem>
                <lyric default-y="-74" number="1">
                    <syllabic>end</syllabic>
                    <text font-size="11">lech</text>
                </lyric>
                <lyric default-y="-105" number="2">
                    <syllabic>single</syllabic>
                    <text font-style="italic" font-size="11">give</text>
                </lyric>
            </note>
            <note default-x="159">
                <pitch>
                    <step>F</step>
                    <octave>4</octave>
                </pitch>
                <duration>1</duration>
                <voice>1</voice>
                <type>eighth</type>
                <stem default-y="0.5">up</stem>
                <lyric default-y="-74" number="1">
                    <syllabic>begin</syllabic>
                    <text font-size="11">shp</text>
                </lyric>
                <lyric default-y="-105" number="2">
                    <syllabic>single</syllabic>
                    <text font-style="italic" font-size="11">you</text>
                </lyric>
            </note>
            <note default-x="202">
                <pitch>
                    <step>E</step>
                    <octave>4</octave>
                </pitch>
                <duration>1</duration>
                <voice>1</voice>
                <type>eighth</type>
                <stem default-y="-4">up</stem>
                <lyric default-y="-74" number="1">
                    <syllabic>end</syllabic>
                    <text font-size="11">iln</text>
                </lyric>
                <lyric default-y="-105" number="2">
                    <syllabic>single</syllabic>
                    <text font-style="italic" font-size="11">a</text>
                </lyric>
            </note>
            <harmony default-y="34">
                <root>
                    <root-step>D</root-step>
                </root>
                <kind halign="center" text="m">minor</kind>
            </harmony>
            <note default-x="244">
                <pitch>
                    <step>F</step>
                    <octave>4</octave>
                </pitch>
                <duration>4</duration>
                <voice>1</voice>
                <type>half</type>
                <stem default-y="0.5">up</stem>
                <lyric default-y="-74" number="1">
                    <syllabic>single</syllabic>
                    <text font-size="11">mir,</text>
                </lyric>
                <lyric default-y="-105" number="2">
                    <syllabic>single</syllabic>
                    <text font-style="italic" font-size="11">treat,</text>
                </lyric>
            </note>
        </measure>
        <measure width="410" number="8">
            <note default-x="17">
                <pitch>
                    <step>F</step>
                    <octave>4</octave>
                </pitch>
                <duration>1</duration>
                <voice>1</voice>
                <type>eighth</type>
                <stem default-y="0.5">up</stem>
                <lyric default-y="-74" number="1">
                    <syllabic>begin</syllabic>
                    <text font-size="11">Fri</text>
                </lyric>
                <lyric default-y="-105" number="2">
                    <syllabic>begin</syllabic>
                    <text font-style="italic" font-size="11">se</text>
                </lyric>
            </note>
            <note default-x="69">
                <pitch>
                    <step>G</step>
                    <octave>4</octave>
                </pitch>
                <duration>1</duration>
                <voice>1</voice>
                <type>eighth</type>
                <stem default-y="5.5">up</stem>
                <lyric default-y="-74" number="1">
                    <syllabic>end</syllabic>
                    <text font-size="11">she</text>
                </lyric>
                <lyric default-y="-105" number="2">
                    <syllabic>middle</syllabic>
                    <text font-style="italic" font-size="11">vi</text>
                </lyric>
            </note>
            <harmony default-y="34">
                <root>
                    <root-step>A</root-step>
                </root>
                <kind halign="center" text="7">dominant</kind>
            </harmony>
            <note default-x="120">
                <pitch>
                    <step>A</step>
                    <octave>4</octave>
                </pitch>
                <duration>1</duration>
                <voice>1</voice>
                <type>eighth</type>
                <stem default-y="10">up</stem>
                <lyric default-y="-74" number="1">
                    <syllabic>begin</syllabic>
                    <text font-size="11">hey</text>
                </lyric>
                <lyric default-y="-105" number="2">
                    <syllabic>end</syllabic>
                    <text font-style="italic" font-size="11">von</text>
                </lyric>
            </note>
            <note default-x="172">
                <pitch>
                    <step>G</step>
                    <octave>4</octave>
                </pitch>
                <duration>1</duration>
                <voice>1</voice>
                <type>eighth</type>
                <stem default-y="5.5">up</stem>
                <lyric default-y="-74" number="1">
                    <syllabic>end</syllabic>
                    <text font-size="11">se</text>
                </lyric>
                <lyric default-y="-105" number="2">
                    <syllabic>single</syllabic>
                    <text font-style="italic" font-size="11">to</text>
                </lyric>
            </note>
            <harmony default-y="34">
                <root>
                    <root-step>D</root-step>
                </root>
                <kind halign="center" text="m">minor</kind>
            </harmony>
            <note default-x="223">
                <pitch>
                    <step>F</step>
                    <octave>4</octave>
                </pitch>
                <duration>2</duration>
                <voice>1</voice>
                <type>quarter</type>
                <stem default-y="0.5">up</stem>
                <lyric default-y="-74" number="1">
                    <syllabic>begin</syllabic>
                    <text font-size="11">lat</text>
                </lyric>
                <lyric default-y="-105" number="2">
                    <syllabic>single</syllabic>
                    <text font-style="italic" font-size="11">play</text>
                </lyric>
            </note>
            <harmony default-y="34">
                <root>
                    <root-step>G</root-step>
                </root>
                <kind halign="center" text="7">dominant</kind>
            </harmony>
            <note default-x="306">
                <pitch>
                    <step>F</step>
                    <octave>4</octave>
                </pitch>
                <duration>1</duration>
                <voice>1</voice>
                <type>eighth</type>
                <stem default-y="0">up</stem>
                <beam number="1">begin</beam>
                <lyric justify="left" default-y="-74" number="1">
                    <syllabic>end</syllabic>
                    <text font-size="11">kes,</text>
                </lyric>
                <lyric justify="left" default-y="-105" number="2">
                    <syllabic>single</syllabic>
                    <text font-style="italic" font-size="11">with</text>
                </lyric>
            </note>
            <note default-x="358">
                <pitch>
                    <step>F</step>
                    <octave>4</octave>
                </pitch>
                <duration>1</duration>
                <voice>1</voice>
                <type>eighth</type>
                <stem default-y="0">up</stem>
                <beam number="1">end</beam>
                <lyric default-y="-105" number="2">
                    <syllabic>single</syllabic>
                    <text font-style="italic" font-size="11">and</text>
                </lyric>
            </note>
        </measure>
        <measure width="292" number="9">
            <harmony default-y="34">
                <root>
                    <root-step>A</root-step>
                </root>
                <kind halign="center" text="7">dominant</kind>
            </harmony>
            <note default-x="19">
                <pitch>
                    <step>G</step>
                    <octave>4</octave>
                </pitch>
                <duration>2</duration>
                <voice>1</voice>
                <type>quarter</type>
                <stem default-y="5.5">up</stem>
                <lyric default-y="-74" number="1">
                    <syllabic>single</syllabic>
                    <text font-size="11">esn</text>
                </lyric>
                <lyric default-y="-105" number="2">
                    <syllabic>begin</syllabic>
                    <text font-style="italic" font-size="11">lat</text>
                </lyric>
            </note>
            <note default-x="84">
                <pitch>
                    <step>F</step>
                    <octave>4</octave>
                </pitch>
                <duration>1</duration>
                <voice>1</voice>
                <type>eighth</type>
                <stem default-y="0.5">up</stem>
                <lyric default-y="-74" number="1">
                    <syllabic>single</syllabic>
                    <text font-size="11">on</text>
                </lyric>
                <lyric default-y="-105" number="2">
                    <syllabic>end</syllabic>
                    <text font-style="italic" font-size="11">kes</text>
                </lyric>
            </note>
            <note default-x="123">
                <pitch>
                    <step>E</step>
                    <octave>4</octave>
                </pitch>
                <duration>1</duration>
                <voice>1</voice>
                <type>eighth</type>
                <stem default-y="-4">up</stem>
                <lyric default-y="-74" number="1">
                    <syllabic>single</syllabic>
                    <text font-size="11">a</text>
                </lyric>
                <lyric default-y="-105" number="2">
                    <syllabic>single</syllabic>
                    <text font-style="italic" font-size="11">to</text>
                </lyric>
            </note>
            <harmony default-y="34">
                <root>
                    <root-step>D</root-step>
                </root>
                <kind halign="center" text="m">minor</kind>
            </harmony>
            <note default-x="163">
                <pitch>
                    <step>D</step>
                    <octave>4</octave>
                </pitch>
                <duration>4</duration>
                <voice>1</voice>
                <type>half</type>
                <stem default-y="-10">up</stem>
                <lyric default-y="-74" number="1">
                    <syllabic>single</syllabic>
                    <text font-size="11">shir.</text>
                </lyric>
                <lyric default-y="-105" number="2">
                    <syllabic>single</syllabic>
                    <text font-style="italic" font-size="11">eat.</text>
                </lyric>
            </note>
        </measure>
    </part>
</score-partwise>
