<?xml version="1.0" encoding="UTF-8"?>
<!DOCTYPE score-partwise PUBLIC "-//Recordare//DTD MusicXML 2.0 Partwise//EN" "http://www.musicxml.org/dtds/partwise.dtd">
<score-partwise version="2.0">
    <work>
        <work-number></work-number>
        <work-title></work-title>
    </work>
    <movement-number></movement-number>
    <movement-title>Shenandoah</movement-title>
    <identification>
        <creator type="composer">Traditional Folk </creator>
        <creator type="poet"></creator>
        <rights>All Rights Reserved</rights>
        <encoding>
            <software>MuseScore 0.9.6.3</software>
            <encoding-date>2010-12-15</encoding-date>
            <software>ProxyMusic 2.0 c</software>
        </encoding>
        <source>http://wikifonia.org/node/8671/revisions/11984/view</source>
    </identification>
    <defaults>
        <scaling>
            <millimeters>7.056</millimeters>
            <tenths>40</tenths>
        </scaling>
        <page-layout>
            <page-height>1683.67</page-height>
            <page-width>1190.48</page-width>
            <page-margins type="even">
                <left-margin>56.6893</left-margin>
                <right-margin>56.6893</right-margin>
                <top-margin>56.6893</top-margin>
                <bottom-margin>113.379</bottom-margin>
            </page-margins>
            <page-margins type="odd">
                <left-margin>56.6893</left-margin>
                <right-margin>56.6893</right-margin>
                <top-margin>56.6893</top-margin>
                <bottom-margin>113.379</bottom-margin>
            </page-margins>
        </page-layout>
    </defaults>
    <credit page="1">
        <credit-words font-size="24" default-y="1626.98" default-x="595.238" justify="center" valign="top"> Shenandoah</credit-words>
    </credit>
    <part-list>
        <part-group type="start" number="1">
            <group-symbol>brace</group-symbol>
        </part-group>
        <score-part id="P1">
            <part-name>Piano</part-name>
            <part-abbreviation>Pno.</part-abbreviation>
            <score-instrument id="P1-I3">
                <instrument-name>Piano</instrument-name>
            </score-instrument>
            <midi-instrument id="P1-I3">
                <midi-channel>1</midi-channel>
                <midi-program>1</midi-program>
            </midi-instrument>
        </score-part>
    </part-list>
    <part id="P1">
        <measure width="399.58" number="1">
            <print>
                <system-layout>
                    <system-margins>
                        <left-margin>90.11</left-margin>
                        <right-margin>-0.00</right-margin>
                    </system-margins>
                    <top-system-distance>244.48</top-system-distance>
                </system-layout>
            </print>
            <attributes>
                <divisions>2</divisions>
                <key>
                    <fifths>2</fifths>
                    <mode>major</mode>
                </key>
                <time>
                    <beats>4</beats>
                    <beat-type>4</beat-type>
                </time>
                <clef>
                    <sign>G</sign>
                    <line>2</line>
                </clef>
            </attributes>
            <note>
                <rest/>
                <duration>4</duration>
                <voice>1</voice>
                <type>half</type>
            </note>
            <note>
                <rest/>
                <duration>2</duration>
                <voice>1</voice>
                <type>quarter</type>
            </note>
            <note default-y="-60.00" default-x="293.59">
                <pitch>
                    <step>A</step>
                    <octave>3</octave>
                </pitch>
                <duration>1</duration>
                <tie type="start"/>
                <voice>1</voice>
                <type>eighth</type>
                <stem>up</stem>
                <beam number="1">begin</beam>
                <notations>
                    <tied type="start"/>
                </notations>
                <lyric number="1">
                    <syllabic>single</syllabic>
                    <text>Oh,</text>
                </lyric>
                <lyric number="2">
                    <syllabic>single</syllabic>
                    <text>Now</text>
                </lyric>
                <lyric number="3">
                    <syllabic>single</syllabic>
                    <text>Well</text>
                </lyric>
                <lyric number="4">
                    <syllabic>single</syllabic>
                    <text>Oh</text>
                    <extend/>
                </lyric>
                <lyric number="5">
                    <syllabic>single</syllabic>
                    <text>For</text>
                </lyric>
                <lyric number="6">
                    <syllabic>single</syllabic>
                    <text>Well</text>
                </lyric>
            </note>
            <note default-y="-60.00" default-x="345.79">
                <pitch>
                    <step>A</step>
                    <octave>3</octave>
                </pitch>
                <duration>1</duration>
                <tie type="stop"/>
                <voice>1</voice>
                <type>eighth</type>
                <stem>up</stem>
                <beam number="1">end</beam>
                <notations>
                    <tied type="stop"/>
                </notations>
                <lyric number="2">
                    <syllabic>single</syllabic>
                    <text>the</text>
                </lyric>
                <lyric number="3">
                    <syllabic>single</syllabic>
                    <text>a</text>
                </lyric>
                <lyric number="5">
                    <syllabic>begin</syllabic>
                    <text>sev</text>
                </lyric>
                <lyric number="6">
                    <syllabic>single</syllabic>
                    <text>it's</text>
                </lyric>
            </note>
        </measure>
        <measure width="587.40" number="2">
            <harmony print-frame="no">
                <root>
                    <root-step>D</root-step>
                </root>
                <kind text="">major</kind>
            </harmony>
            <note default-y="-45.00" default-x="42.15">
                <pitch>
                    <step>D</step>
                    <octave>4</octave>
                </pitch>
                <duration>1</duration>
                <voice>1</voice>
                <type>eighth</type>
                <stem>up</stem>
                <beam number="1">begin</beam>
                <lyric number="1">
                    <syllabic>begin</syllabic>
                    <text>Shen</text>
                </lyric>
                <lyric number="2">
                    <syllabic>begin</syllabic>
                    <text>Mis</text>
                </lyric>
                <lyric number="3">
                    <syllabic>single</syllabic>
                    <text>white</text>
                </lyric>
                <lyric number="4">
                    <syllabic>begin</syllabic>
                    <text>Shen</text>
                </lyric>
                <lyric number="5">
                    <syllabic>end</syllabic>
                    <text>en</text>
                </lyric>
                <lyric number="6">
                    <syllabic>begin</syllabic>
                    <text>farethee</text>
                </lyric>
            </note>
            <note default-y="-45.00" default-x="113.68">
                <pitch>
                    <step>D</step>
                    <octave>4</octave>
                </pitch>
                <duration>1</duration>
                <voice>1</voice>
                <type>eighth</type>
                <stem>up</stem>
                <beam number="1">end</beam>
                <lyric number="1">
                    <syllabic>middle</syllabic>
                    <text>an</text>
                </lyric>
                <lyric number="2">
                    <syllabic>middle</syllabic>
                    <text>sou</text>
                </lyric>
                <lyric number="3">
                    <syllabic>single</syllabic>
                    <text>man</text>
                </lyric>
                <lyric number="4">
                    <syllabic>middle</syllabic>
                    <text>an</text>
                </lyric>
                <lyric number="5">
                    <syllabic>single</syllabic>
                    <text>long</text>
                </lyric>
                <lyric number="6">
                    <syllabic>end</syllabic>
                    <text>well</text>
                </lyric>
            </note>
            <note default-y="-45.00" default-x="185.22">
                <pitch>
                    <step>D</step>
                    <octave>4</octave>
                </pitch>
                <duration>2</duration>
                <tie type="start"/>
                <voice>1</voice>
                <type>quarter</type>
                <stem>up</stem>
                <notations>
                    <tied type="start"/>
                </notations>
                <lyric number="1">
                    <syllabic>end</syllabic>
                    <text>doh</text>
                    <extend/>
                </lyric>
                <lyric number="2">
                    <syllabic>end</syllabic>
                    <text>ri's</text>
                    <extend/>
                </lyric>
                <lyric number="3">
                    <syllabic>single</syllabic>
                    <text>loved</text>
                    <extend/>
                </lyric>
                <lyric number="4">
                    <syllabic>end</syllabic>
                    <text>doah</text>
                    <extend/>
                </lyric>
                <lyric number="5">
                    <syllabic>single</syllabic>
                    <text>years</text>
                    <extend/>
                </lyric>
                <lyric number="6">
                    <syllabic>single</syllabic>
                    <text>my</text>
                </lyric>
            </note>
            <note default-y="-45.00" default-x="299.67">
                <pitch>
                    <step>D</step>
                    <octave>4</octave>
                </pitch>
                <duration>1</duration>
                <tie type="stop"/>
                <voice>1</voice>
                <type>eighth</type>
                <stem>up</stem>
                <beam number="1">begin</beam>
                <notations>
                    <tied type="stop"/>
                </notations>
                <lyric number="6">
                    <syllabic>single</syllabic>
                    <text>dear,</text>
                </lyric>
            </note>
            <note default-y="-40.00" default-x="371.20">
                <pitch>
                    <step>E</step>
                    <octave>4</octave>
                </pitch>
                <duration>1</duration>
                <voice>1</voice>
                <type>eighth</type>
                <stem>up</stem>
                <beam number="1">continue</beam>
                <lyric number="1">
                    <syllabic>single</syllabic>
                    <text>I</text>
                </lyric>
                <lyric number="2">
                    <syllabic>single</syllabic>
                    <text>a</text>
                </lyric>
                <lyric number="3">
                    <syllabic>single</syllabic>
                    <text>and</text>
                </lyric>
                <lyric number="4">
                    <syllabic>single</syllabic>
                    <text>I</text>
                </lyric>
                <lyric number="5">
                    <syllabic>single</syllabic>
                    <text>I</text>
                </lyric>
                <lyric number="6">
                    <syllabic>single</syllabic>
                    <text>I'm</text>
                </lyric>
            </note>
            <note default-y="-35.00" default-x="442.73">
                <pitch>
                    <step>F</step>
                    <alter>1</alter>
                    <octave>4</octave>
                </pitch>
                <duration>1</duration>
                <voice>1</voice>
                <type>eighth</type>
                <stem>up</stem>
                <beam number="1">continue</beam>
                <lyric number="1">
                    <syllabic>single</syllabic>
                    <text>long</text>
                </lyric>
                <lyric number="2">
                    <syllabic>begin</syllabic>
                    <text>might</text>
                </lyric>
                <lyric number="3">
                    <syllabic>begin</syllabic>
                    <text>In</text>
                </lyric>
                <lyric number="4">
                    <syllabic>single</syllabic>
                    <text>love</text>
                </lyric>
                <lyric number="5">
                    <syllabic>begin</syllabic>
                    <text>court</text>
                </lyric>
                <lyric number="6">
                    <syllabic>single</syllabic>
                    <text>bound</text>
                </lyric>
            </note>
            <note default-y="-30.00" default-x="514.27">
                <pitch>
                    <step>G</step>
                    <octave>4</octave>
                </pitch>
                <duration>1</duration>
                <voice>1</voice>
                <type>eighth</type>
                <stem>up</stem>
                <beam number="1">end</beam>
                <lyric number="1">
                    <syllabic>single</syllabic>
                    <text>to</text>
                </lyric>
                <lyric number="2">
                    <syllabic>end</syllabic>
                    <text>y</text>
                </lyric>
                <lyric number="3">
                    <syllabic>end</syllabic>
                    <text>dian</text>
                </lyric>
                <lyric number="4">
                    <syllabic>single</syllabic>
                    <text>your</text>
                </lyric>
                <lyric number="5">
                    <syllabic>end</syllabic>
                    <text>ed</text>
                </lyric>
                <lyric number="6">
                    <syllabic>single</syllabic>
                    <text>to</text>
                </lyric>
            </note>
        </measure>
        <measure width="393.13" number="3">
            <print new-system="yes">
                <system-layout>
                    <system-margins>
                        <left-margin>77.95</left-margin>
                        <right-margin>-0.00</right-margin>
                    </system-margins>
                    <system-distance>299.03</system-distance>
                </system-layout>
            </print>
            <note default-y="-20.00" default-x="103.77">
                <pitch>
                    <step>B</step>
                    <octave>4</octave>
                </pitch>
                <duration>2</duration>
                <voice>1</voice>
                <type>quarter</type>
                <stem>down</stem>
                <lyric number="1">
                    <syllabic>single</syllabic>
                    <text>hear</text>
                </lyric>
                <lyric number="2">
                    <syllabic>begin</syllabic>
                    <text>riv</text>
                </lyric>
                <lyric number="3">
                    <syllabic>begin</syllabic>
                    <text>maid</text>
                </lyric>
                <lyric number="4">
                    <syllabic>begin</syllabic>
                    <text>daugh</text>
                </lyric>
                <lyric number="5">
                    <syllabic>begin</syllabic>
                    <text>Sal</text>
                </lyric>
                <lyric number="6">
                    <syllabic>single</syllabic>
                    <text>leave</text>
                </lyric>
            </note>
            <note default-y="-25.00" default-x="183.16">
                <pitch>
                    <step>A</step>
                    <octave>4</octave>
                </pitch>
                <duration>4</duration>
                <voice>1</voice>
                <type>half</type>
                <stem>up</stem>
                <lyric number="1">
                    <syllabic>single</syllabic>
                    <text>you,</text>
                </lyric>
                <lyric number="2">
                    <syllabic>end</syllabic>
                    <text>er,</text>
                </lyric>
                <lyric number="3">
                    <syllabic>end</syllabic>
                    <text>en,</text>
                </lyric>
                <lyric number="4">
                    <syllabic>end</syllabic>
                    <text>ter,</text>
                </lyric>
                <lyric number="5">
                    <syllabic>end</syllabic>
                    <text>ly,</text>
                </lyric>
                <lyric number="6">
                    <syllabic>single</syllabic>
                    <text>you,</text>
                </lyric>
            </note>
            <note default-y="-10.00" default-x="292.31">
                <pitch>
                    <step>D</step>
                    <octave>5</octave>
                </pitch>
                <duration>1</duration>
                <voice>1</voice>
                <type>eighth</type>
                <stem>down</stem>
                <beam number="1">begin</beam>
                <lyric number="1">
                    <syllabic>begin</syllabic>
                    <text>A</text>
                </lyric>
                <lyric number="2">
                    <syllabic>single</syllabic>
                    <text>Look</text>
                </lyric>
                <lyric number="3">
                    <syllabic>single</syllabic>
                    <text>Look</text>
                </lyric>
                <lyric number="4">
                    <syllabic>single</syllabic>
                    <text>Look</text>
                </lyric>
                <lyric number="5">
                    <syllabic>single</syllabic>
                    <text>Look</text>
                </lyric>
                <lyric number="6">
                    <syllabic>single</syllabic>
                    <text>Look</text>
                </lyric>
            </note>
            <note default-y="-15.00" default-x="341.92">
                <pitch>
                    <step>C</step>
                    <alter>1</alter>
                    <octave>5</octave>
                </pitch>
                <duration>1</duration>
                <voice>1</voice>
                <type>eighth</type>
                <stem>down</stem>
                <beam number="1">end</beam>
                <lyric number="2">
                    <syllabic>begin</syllabic>
                    <text>a</text>
                </lyric>
                <lyric number="3">
                    <syllabic>begin</syllabic>
                    <text>a</text>
                </lyric>
                <lyric number="4">
                    <syllabic>begin</syllabic>
                    <text>a</text>
                </lyric>
                <lyric number="5">
                    <syllabic>begin</syllabic>
                    <text>a</text>
                </lyric>
                <lyric number="6">
                    <syllabic>begin</syllabic>
                    <text>a</text>
                </lyric>
            </note>
        </measure>
        <measure width="330.10" number="4">
            <harmony print-frame="no">
                <root>
                    <root-step>G</root-step>
                </root>
                <kind text="">major</kind>
            </harmony>
            <note default-y="-20.00" default-x="17.50">
                <pitch>
                    <step>B</step>
                    <octave>4</octave>
                </pitch>
                <duration>4</duration>
                <tie type="start"/>
                <voice>1</voice>
                <type>half</type>
                <stem>down</stem>
                <notations>
                    <tied type="start"/>
                </notations>
                <lyric number="1">
                    <syllabic>end</syllabic>
                    <text>way</text>
                    <extend/>
                </lyric>
                <lyric number="2">
                    <syllabic>end</syllabic>
                    <text>way,</text>
                    <extend/>
                </lyric>
                <lyric number="3">
                    <syllabic>end</syllabic>
                    <text>way,</text>
                    <extend/>
                </lyric>
                <lyric number="4">
                    <syllabic>end</syllabic>
                    <text>way,</text>
                    <extend/>
                </lyric>
                <lyric number="5">
                    <syllabic>end</syllabic>
                    <text>way,</text>
                    <extend/>
                </lyric>
                <lyric number="6">
                    <syllabic>end</syllabic>
                    <text>way,</text>
                    <extend/>
                </lyric>
            </note>
            <note default-y="-20.00" default-x="127.86">
                <pitch>
                    <step>B</step>
                    <octave>4</octave>
                </pitch>
                <duration>1</duration>
                <tie type="stop"/>
                <voice>1</voice>
                <type>eighth</type>
                <stem>up</stem>
                <beam number="1">begin</beam>
                <notations>
                    <tied type="stop"/>
                </notations>
            </note>
            <note default-y="-25.00" default-x="178.02">
                <pitch>
                    <step>A</step>
                    <octave>4</octave>
                </pitch>
                <duration>1</duration>
                <voice>1</voice>
                <type>eighth</type>
                <stem>up</stem>
                <beam number="1">continue</beam>
                <lyric number="1">
                    <syllabic>single</syllabic>
                    <text>you</text>
                </lyric>
                <lyric number="2">
                    <syllabic>single</syllabic>
                    <text>you</text>
                </lyric>
                <lyric number="3">
                    <syllabic>single</syllabic>
                    <text>you</text>
                </lyric>
                <lyric number="4">
                    <syllabic>single</syllabic>
                    <text>you</text>
                </lyric>
                <lyric number="5">
                    <syllabic>single</syllabic>
                    <text>you</text>
                </lyric>
                <lyric number="6">
                    <syllabic>single</syllabic>
                    <text>you</text>
                </lyric>
            </note>
            <note default-y="-20.00" default-x="228.18">
                <pitch>
                    <step>B</step>
                    <octave>4</octave>
                </pitch>
                <duration>1</duration>
                <voice>1</voice>
                <type>eighth</type>
                <stem>up</stem>
                <beam number="1">continue</beam>
                <lyric number="1">
                    <syllabic>begin</syllabic>
                    <text>rol</text>
                </lyric>
                <lyric number="2">
                    <syllabic>begin</syllabic>
                    <text>rol</text>
                </lyric>
                <lyric number="3">
                    <syllabic>begin</syllabic>
                    <text>rol</text>
                </lyric>
                <lyric number="4">
                    <syllabic>begin</syllabic>
                    <text>rol</text>
                </lyric>
                <lyric number="5">
                    <syllabic>begin</syllabic>
                    <text>rol</text>
                </lyric>
                <lyric number="6">
                    <syllabic>begin</syllabic>
                    <text>rol</text>
                </lyric>
            </note>
            <note default-y="-25.00" default-x="278.34">
                <pitch>
                    <step>A</step>
                    <octave>4</octave>
                </pitch>
                <duration>1</duration>
                <voice>1</voice>
                <type>eighth</type>
                <stem>up</stem>
                <beam number="1">end</beam>
                <lyric number="1">
                    <syllabic>end</syllabic>
                    <text>ling</text>
                </lyric>
                <lyric number="2">
                    <syllabic>end</syllabic>
                    <text>ling</text>
                </lyric>
                <lyric number="3">
                    <syllabic>end</syllabic>
                    <text>ling</text>
                </lyric>
                <lyric number="4">
                    <syllabic>end</syllabic>
                    <text>ling</text>
                </lyric>
                <lyric number="5">
                    <syllabic>end</syllabic>
                    <text>ling</text>
                </lyric>
                <lyric number="6">
                    <syllabic>end</syllabic>
                    <text>ling</text>
                </lyric>
            </note>
        </measure>
        <measure width="275.91" number="5">
            <harmony print-frame="no">
                <root>
                    <root-step>D</root-step>
                </root>
                <kind text="">major</kind>
            </harmony>
            <note default-y="-35.00" default-x="17.88">
                <pitch>
                    <step>F</step>
                    <alter>1</alter>
                    <octave>4</octave>
                </pitch>
                <duration>1</duration>
                <voice>1</voice>
                <type>eighth</type>
                <stem>up</stem>
                <beam number="1">begin</beam>
                <lyric number="1">
                    <syllabic>begin</syllabic>
                    <text>ri</text>
                </lyric>
                <lyric number="2">
                    <syllabic>begin</syllabic>
                    <text>riv</text>
                </lyric>
                <lyric number="3">
                    <syllabic>begin</syllabic>
                    <text>ri</text>
                </lyric>
                <lyric number="4">
                    <syllabic>begin</syllabic>
                    <text>ri</text>
                </lyric>
                <lyric number="5">
                    <syllabic>begin</syllabic>
                    <text>ri</text>
                </lyric>
                <lyric number="6">
                    <syllabic>begin</syllabic>
                    <text>ri</text>
                </lyric>
            </note>
            <note default-y="-25.00" default-x="62.10">
                <pitch>
                    <step>A</step>
                    <octave>4</octave>
                </pitch>
                <duration>1</duration>
                <tie type="start"/>
                <voice>1</voice>
                <type>eighth</type>
                <stem>up</stem>
                <beam number="1">end</beam>
                <notations>
                    <tied type="start"/>
                </notations>
                <lyric number="1">
                    <syllabic>end</syllabic>
                    <text>ver.</text>
                    <extend/>
                </lyric>
                <lyric number="2">
                    <syllabic>end</syllabic>
                    <text>er.</text>
                    <extend/>
                </lyric>
                <lyric number="3">
                    <syllabic>end</syllabic>
                    <text>ver.</text>
                    <extend/>
                </lyric>
                <lyric number="4">
                    <syllabic>end</syllabic>
                    <text>ver.</text>
                    <extend/>
                </lyric>
                <lyric number="5">
                    <syllabic>end</syllabic>
                    <text>ver</text>
                    <extend/>
                </lyric>
                <lyric number="6">
                    <syllabic>end</syllabic>
                    <text>ver.</text>
                    <extend/>
                </lyric>
            </note>
            <note default-y="-25.00" default-x="106.31">
                <pitch>
                    <step>A</step>
                    <octave>4</octave>
                </pitch>
                <duration>4</duration>
                <tie type="stop"/>
                <voice>1</voice>
                <type>half</type>
                <stem>up</stem>
                <notations>
                    <tied type="stop"/>
                </notations>
            </note>
            <note default-y="-25.00" default-x="203.57">
                <pitch>
                    <step>A</step>
                    <octave>4</octave>
                </pitch>
                <duration>2</duration>
                <voice>1</voice>
                <type>quarter</type>
                <stem>up</stem>
                <lyric number="1">
                    <syllabic>single</syllabic>
                    <text>Oh</text>
                </lyric>
                <lyric number="2">
                    <syllabic>begin</syllabic>
                    <text>In</text>
                </lyric>
                <lyric number="3">
                    <syllabic>single</syllabic>
                    <text>With</text>
                </lyric>
                <lyric number="4">
                    <syllabic>single</syllabic>
                    <text>It</text>
                </lyric>
                <lyric number="5">
                    <syllabic>begin</syllabic>
                    <text>sev</text>
                </lyric>
                <lyric number="6">
                    <syllabic>single</syllabic>
                    <text>Oh</text>
                </lyric>
            </note>
        </measure>
        <measure width="603.18" number="6">
            <print new-system="yes">
                <system-layout>
                    <system-margins>
                        <left-margin>77.95</left-margin>
                        <right-margin>-0.00</right-margin>
                    </system-margins>
                    <system-distance>299.03</system-distance>
                </system-layout>
            </print>
            <harmony print-frame="no">
                <root>
                    <root-step>B</root-step>
                </root>
                <kind text="m">minor</kind>
            </harmony>
            <note default-y="-20.00" default-x="98.66">
                <pitch>
                    <step>B</step>
                    <octave>4</octave>
                </pitch>
                <duration>1</duration>
                <voice>1</voice>
                <type>eighth</type>
                <stem>down</stem>
                <beam number="1">begin</beam>
                <lyric number="1">
                    <syllabic>begin</syllabic>
                    <text>Shen</text>
                </lyric>
                <lyric number="2">
                    <syllabic>middle</syllabic>
                    <text>di</text>
                </lyric>
                <lyric number="3">
                    <syllabic>begin</syllabic>
                    <text>no</text>
                </lyric>
                <lyric number="4">
                    <syllabic>single</syllabic>
                    <text>was</text>
                </lyric>
                <lyric number="5">
                    <syllabic>end</syllabic>
                    <text>en</text>
                </lyric>
                <lyric number="6">
                    <syllabic>begin</syllabic>
                    <text>Shen</text>
                </lyric>
            </note>
            <note default-y="-20.00" default-x="164.84">
                <pitch>
                    <step>B</step>
                    <octave>4</octave>
                </pitch>
                <duration>1</duration>
                <voice>1</voice>
                <type>eighth</type>
                <stem>down</stem>
                <beam number="1">end</beam>
                <lyric number="1">
                    <syllabic>middle</syllabic>
                    <text>an</text>
                </lyric>
                <lyric number="2">
                    <syllabic>end</syllabic>
                    <text>ans</text>
                </lyric>
                <lyric number="3">
                    <syllabic>end</syllabic>
                    <text>tions</text>
                </lyric>
                <lyric number="4">
                    <syllabic>single</syllabic>
                    <text>for</text>
                </lyric>
                <lyric number="5">
                    <syllabic>single</syllabic>
                    <text>more</text>
                </lyric>
                <lyric number="6">
                    <syllabic>middle</syllabic>
                    <text>an</text>
                </lyric>
            </note>
            <note default-y="-20.00" default-x="231.01">
                <pitch>
                    <step>B</step>
                    <octave>4</octave>
                </pitch>
                <duration>2</duration>
                <tie type="start"/>
                <voice>1</voice>
                <type>quarter</type>
                <stem>down</stem>
                <notations>
                    <tied type="start"/>
                </notations>
                <lyric number="1">
                    <syllabic>end</syllabic>
                    <text>doah</text>
                    <extend/>
                </lyric>
                <lyric number="2">
                    <syllabic>single</syllabic>
                    <text>camp</text>
                    <extend/>
                </lyric>
                <lyric number="3">
                    <syllabic>single</syllabic>
                    <text>his</text>
                    <extend/>
                </lyric>
                <lyric number="4">
                    <syllabic>single</syllabic>
                    <text>her</text>
                    <extend/>
                </lyric>
                <lyric number="5">
                    <syllabic>single</syllabic>
                    <text>years</text>
                    <extend/>
                </lyric>
                <lyric number="6">
                    <syllabic>end</syllabic>
                    <text>doah</text>
                    <extend/>
                </lyric>
            </note>
            <note default-y="-20.00" default-x="336.89">
                <pitch>
                    <step>B</step>
                    <octave>4</octave>
                </pitch>
                <duration>1</duration>
                <tie type="stop"/>
                <voice>1</voice>
                <type>eighth</type>
                <stem>up</stem>
                <beam number="1">begin</beam>
                <notations>
                    <tied type="stop"/>
                </notations>
            </note>
            <note default-y="-35.00" default-x="403.06">
                <pitch>
                    <step>F</step>
                    <alter>1</alter>
                    <octave>4</octave>
                </pitch>
                <duration>1</duration>
                <voice>1</voice>
                <type>eighth</type>
                <stem>up</stem>
                <beam number="1">continue</beam>
                <lyric number="1">
                    <syllabic>single</syllabic>
                    <text>I</text>
                </lyric>
                <lyric number="2">
                    <syllabic>begin</syllabic>
                    <text>a</text>
                </lyric>
                <lyric number="3">
                    <syllabic>begin</syllabic>
                    <text>can</text>
                </lyric>
                <lyric number="4">
                    <syllabic>single</syllabic>
                    <text>I'd</text>
                </lyric>
                <lyric number="5">
                    <syllabic>single</syllabic>
                    <text>I</text>
                </lyric>
                <lyric number="6">
                    <syllabic>single</syllabic>
                    <text>I'll</text>
                </lyric>
            </note>
            <note default-y="-25.00" default-x="469.23">
                <pitch>
                    <step>A</step>
                    <octave>4</octave>
                </pitch>
                <duration>1</duration>
                <voice>1</voice>
                <type>eighth</type>
                <stem>up</stem>
                <beam number="1">continue</beam>
                <lyric number="1">
                    <syllabic>single</syllabic>
                    <text>long</text>
                </lyric>
                <lyric number="2">
                    <syllabic>end</syllabic>
                    <text>long</text>
                </lyric>
                <lyric number="3">
                    <syllabic>end</syllabic>
                    <text>oe</text>
                </lyric>
                <lyric number="4">
                    <syllabic>single</syllabic>
                    <text>cross</text>
                </lyric>
                <lyric number="5">
                    <syllabic>single</syllabic>
                    <text>longed</text>
                </lyric>
                <lyric number="6">
                    <syllabic>single</syllabic>
                    <text>not</text>
                </lyric>
            </note>
            <note default-y="-35.00" default-x="535.40">
                <pitch>
                    <step>F</step>
                    <alter>1</alter>
                    <octave>4</octave>
                </pitch>
                <duration>1</duration>
                <voice>1</voice>
                <type>eighth</type>
                <stem>up</stem>
                <beam number="1">end</beam>
                <lyric number="1">
                    <syllabic>single</syllabic>
                    <text>to</text>
                </lyric>
                <lyric number="2">
                    <syllabic>single</syllabic>
                    <text>her</text>
                </lyric>
                <lyric number="3">
                    <syllabic>single</syllabic>
                    <text>was</text>
                </lyric>
                <lyric number="4">
                    <syllabic>single</syllabic>
                    <text>the</text>
                </lyric>
                <lyric number="5">
                    <syllabic>single</syllabic>
                    <text>to</text>
                </lyric>
                <lyric number="6">
                    <syllabic>begin</syllabic>
                    <text>de</text>
                </lyric>
            </note>
        </measure>
        <measure width="395.97" number="7">
            <harmony print-frame="no">
                <root>
                    <root-step>D</root-step>
                </root>
                <kind text="">major</kind>
            </harmony>
            <note default-y="-40.00" default-x="43.28">
                <pitch>
                    <step>E</step>
                    <octave>4</octave>
                </pitch>
                <duration>2</duration>
                <voice>1</voice>
                <type>quarter</type>
                <stem>up</stem>
                <lyric number="1">
                    <syllabic>single</syllabic>
                    <text>hear</text>
                </lyric>
                <lyric number="2">
                    <syllabic>begin</syllabic>
                    <text>bor</text>
                </lyric>
                <lyric number="3">
                    <syllabic>begin</syllabic>
                    <text>lad</text>
                </lyric>
                <lyric number="4">
                    <syllabic>begin</syllabic>
                    <text>wat</text>
                </lyric>
                <lyric number="5">
                    <syllabic>single</syllabic>
                    <text>have</text>
                </lyric>
                <lyric number="6">
                    <syllabic>end</syllabic>
                    <text>ceive</text>
                </lyric>
            </note>
            <note default-y="-45.00" default-x="140.13">
                <pitch>
                    <step>D</step>
                    <octave>4</octave>
                </pitch>
                <duration>4</duration>
                <voice>1</voice>
                <type>half</type>
                <stem>up</stem>
                <lyric number="1">
                    <syllabic>single</syllabic>
                    <text>you,</text>
                </lyric>
                <lyric number="2">
                    <syllabic>end</syllabic>
                    <text>der,</text>
                </lyric>
                <lyric number="3">
                    <syllabic>end</syllabic>
                    <text>en,</text>
                </lyric>
                <lyric number="4">
                    <syllabic>end</syllabic>
                    <text>er,</text>
                </lyric>
                <lyric number="5">
                    <syllabic>single</syllabic>
                    <text>her,</text>
                </lyric>
                <lyric number="6">
                    <syllabic>single</syllabic>
                    <text>you,</text>
                </lyric>
            </note>
            <note default-y="-45.00" default-x="273.31">
                <pitch>
                    <step>D</step>
                    <octave>4</octave>
                </pitch>
                <duration>1</duration>
                <voice>1</voice>
                <type>eighth</type>
                <stem>up</stem>
                <beam number="1">begin</beam>
                <lyric number="1">
                    <syllabic>begin</syllabic>
                    <text>A</text>
                </lyric>
                <lyric number="2">
                    <syllabic>single</syllabic>
                    <text>Look</text>
                </lyric>
                <lyric number="3">
                    <syllabic>single</syllabic>
                    <text>Look</text>
                </lyric>
                <lyric number="4">
                    <syllabic>single</syllabic>
                    <text>Look</text>
                </lyric>
                <lyric number="5">
                    <syllabic>single</syllabic>
                    <text>Look</text>
                </lyric>
                <lyric number="6">
                    <syllabic>single</syllabic>
                    <text>Look</text>
                </lyric>
            </note>
            <note default-y="-40.00" default-x="333.84">
                <pitch>
                    <step>E</step>
                    <octave>4</octave>
                </pitch>
                <duration>1</duration>
                <voice>1</voice>
                <type>eighth</type>
                <stem>up</stem>
                <beam number="1">end</beam>
                <lyric number="2">
                    <syllabic>begin</syllabic>
                    <text>a</text>
                </lyric>
                <lyric number="3">
                    <syllabic>begin</syllabic>
                    <text>a</text>
                </lyric>
                <lyric number="4">
                    <syllabic>begin</syllabic>
                    <text>a</text>
                </lyric>
                <lyric number="5">
                    <syllabic>begin</syllabic>
                    <text>a</text>
                </lyric>
                <lyric number="6">
                    <syllabic>begin</syllabic>
                    <text>a</text>
                </lyric>
            </note>
        </measure>
        <measure width="374.13" number="8">
            <print new-system="yes">
                <system-layout>
                    <system-margins>
                        <left-margin>77.95</left-margin>
                        <right-margin>-0.00</right-margin>
                    </system-margins>
                    <system-distance>299.03</system-distance>
                </system-layout>
            </print>
            <note default-y="-35.00" default-x="74.15">
                <pitch>
                    <step>F</step>
                    <alter>1</alter>
                    <octave>4</octave>
                </pitch>
                <duration>4</duration>
                <tie type="start"/>
                <voice>1</voice>
                <type>half</type>
                <stem>up</stem>
                <notations>
                    <tied type="start"/>
                </notations>
                <lyric number="1">
                    <syllabic>end</syllabic>
                    <text>way</text>
                    <extend/>
                </lyric>
                <lyric number="2">
                    <syllabic>end</syllabic>
                    <text>way</text>
                    <extend/>
                </lyric>
                <lyric number="3">
                    <syllabic>end</syllabic>
                    <text>way</text>
                    <extend/>
                </lyric>
                <lyric number="4">
                    <syllabic>end</syllabic>
                    <text>way</text>
                    <extend/>
                </lyric>
                <lyric number="5">
                    <syllabic>end</syllabic>
                    <text>way</text>
                    <extend/>
                </lyric>
                <lyric number="6">
                    <syllabic>end</syllabic>
                    <text>way</text>
                    <extend/>
                </lyric>
            </note>
            <note default-y="-35.00" default-x="174.92">
                <pitch>
                    <step>F</step>
                    <alter>1</alter>
                    <octave>4</octave>
                </pitch>
                <duration>1</duration>
                <tie type="stop"/>
                <voice>1</voice>
                <type>eighth</type>
                <stem>up</stem>
                <beam number="1">begin</beam>
                <notations>
                    <tied type="stop"/>
                </notations>
            </note>
            <note default-y="-45.00" default-x="220.72">
                <pitch>
                    <step>D</step>
                    <octave>4</octave>
                </pitch>
                <duration>1</duration>
                <voice>1</voice>
                <type>eighth</type>
                <stem>up</stem>
                <beam number="1">continue</beam>
                <lyric number="1">
                    <syllabic>single</syllabic>
                    <text>we're</text>
                </lyric>
                <lyric number="2">
                    <syllabic>single</syllabic>
                    <text>we're</text>
                </lyric>
                <lyric number="3">
                    <syllabic>single</syllabic>
                    <text>we're</text>
                </lyric>
                <lyric number="4">
                    <syllabic>single</syllabic>
                    <text>we're</text>
                </lyric>
                <lyric number="5">
                    <syllabic>single</syllabic>
                    <text>we're</text>
                </lyric>
                <lyric number="6">
                    <syllabic>single</syllabic>
                    <text>we're</text>
                </lyric>
            </note>
            <note default-y="-35.00" default-x="280.92">
                <pitch>
                    <step>F</step>
                    <alter>1</alter>
                    <octave>4</octave>
                </pitch>
                <duration>1</duration>
                <voice>1</voice>
                <type>eighth</type>
                <stem>up</stem>
                <beam number="1">continue</beam>
                <lyric number="1">
                    <syllabic>single</syllabic>
                    <text>bound</text>
                </lyric>
                <lyric number="2">
                    <syllabic>single</syllabic>
                    <text>bound</text>
                </lyric>
                <lyric number="3">
                    <syllabic>single</syllabic>
                    <text>bound</text>
                </lyric>
                <lyric number="4">
                    <syllabic>single</syllabic>
                    <text>bound</text>
                </lyric>
                <lyric number="5">
                    <syllabic>single</syllabic>
                    <text>bound</text>
                </lyric>
                <lyric number="6">
                    <syllabic>single</syllabic>
                    <text>bound</text>
                </lyric>
            </note>
            <note default-y="-20.00" default-x="326.73">
                <pitch>
                    <step>B</step>
                    <octave>4</octave>
                </pitch>
                <duration>1</duration>
                <voice>1</voice>
                <type>eighth</type>
                <stem>up</stem>
                <beam number="1">end</beam>
                <lyric number="1">
                    <syllabic>begin</syllabic>
                    <text>a</text>
                </lyric>
                <lyric number="2">
                    <syllabic>begin</syllabic>
                    <text>a</text>
                </lyric>
                <lyric number="3">
                    <syllabic>begin</syllabic>
                    <text>a</text>
                </lyric>
                <lyric number="4">
                    <syllabic>begin</syllabic>
                    <text>a</text>
                </lyric>
                <lyric number="5">
                    <syllabic>begin</syllabic>
                    <text>a</text>
                </lyric>
                <lyric number="6">
                    <syllabic>begin</syllabic>
                    <text>a</text>
                </lyric>
            </note>
        </measure>
        <measure width="239.94" number="9">
            <note default-y="-25.00" default-x="26.31">
                <pitch>
                    <step>A</step>
                    <octave>4</octave>
                </pitch>
                <duration>6</duration>
                <voice>1</voice>
                <type>half</type>
                <dot/>
                <stem>up</stem>
                <lyric number="1">
                    <syllabic>end</syllabic>
                    <text>way,</text>
                </lyric>
                <lyric number="2">
                    <syllabic>end</syllabic>
                    <text>way,</text>
                </lyric>
                <lyric number="3">
                    <syllabic>end</syllabic>
                    <text>way,</text>
                </lyric>
                <lyric number="4">
                    <syllabic>end</syllabic>
                    <text>way,</text>
                </lyric>
                <lyric number="5">
                    <syllabic>end</syllabic>
                    <text>way,</text>
                </lyric>
                <lyric number="6">
                    <syllabic>end</syllabic>
                    <text>way,</text>
                </lyric>
            </note>
            <note default-y="-45.00" default-x="145.00">
                <pitch>
                    <step>D</step>
                    <octave>4</octave>
                </pitch>
                <duration>1</duration>
                <voice>1</voice>
                <type>eighth</type>
                <stem>up</stem>
                <beam number="1">begin</beam>
                <lyric number="1">
                    <syllabic>single</syllabic>
                    <text>'cross</text>
                </lyric>
                <lyric number="2">
                    <syllabic>single</syllabic>
                    <text>'cross</text>
                </lyric>
                <lyric number="3">
                    <syllabic>single</syllabic>
                    <text>'cross</text>
                </lyric>
                <lyric number="4">
                    <syllabic>single</syllabic>
                    <text>'cross</text>
                </lyric>
                <lyric number="5">
                    <syllabic>single</syllabic>
                    <text>'cross</text>
                </lyric>
                <lyric number="6">
                    <syllabic>single</syllabic>
                    <text>'cross</text>
                </lyric>
            </note>
            <note default-y="-40.00" default-x="191.81">
                <pitch>
                    <step>E</step>
                    <octave>4</octave>
                </pitch>
                <duration>1</duration>
                <voice>1</voice>
                <type>eighth</type>
                <stem>up</stem>
                <beam number="1">end</beam>
                <lyric number="1">
                    <syllabic>single</syllabic>
                    <text>the</text>
                </lyric>
                <lyric number="2">
                    <syllabic>single</syllabic>
                    <text>the</text>
                </lyric>
                <lyric number="3">
                    <syllabic>single</syllabic>
                    <text>the</text>
                </lyric>
                <lyric number="4">
                    <syllabic>single</syllabic>
                    <text>the</text>
                </lyric>
                <lyric number="5">
                    <syllabic>single</syllabic>
                    <text>the</text>
                </lyric>
                <lyric number="6">
                    <syllabic>single</syllabic>
                    <text>the</text>
                </lyric>
            </note>
        </measure>
        <measure width="191.48" number="10">
            <harmony print-frame="no">
                <root>
                    <root-step>B</root-step>
                </root>
                <kind text="m">minor</kind>
            </harmony>
            <note default-y="-35.00" default-x="27.47">
                <pitch>
                    <step>F</step>
                    <alter>1</alter>
                    <octave>4</octave>
                </pitch>
                <duration>6</duration>
                <voice>1</voice>
                <type>half</type>
                <dot/>
                <stem>up</stem>
                <lyric number="1">
                    <syllabic>single</syllabic>
                    <text>wide</text>
                </lyric>
                <lyric number="2">
                    <syllabic>single</syllabic>
                    <text>wide</text>
                </lyric>
                <lyric number="3">
                    <syllabic>single</syllabic>
                    <text>wide</text>
                </lyric>
                <lyric number="4">
                    <syllabic>single</syllabic>
                    <text>wide</text>
                </lyric>
                <lyric number="5">
                    <syllabic>single</syllabic>
                    <text>wide</text>
                </lyric>
                <lyric number="6">
                    <syllabic>single</syllabic>
                    <text>wide</text>
                </lyric>
            </note>
            <note default-y="-45.00" default-x="134.84">
                <pitch>
                    <step>D</step>
                    <octave>4</octave>
                </pitch>
                <duration>2</duration>
                <voice>1</voice>
                <type>quarter</type>
                <stem>up</stem>
                <lyric number="1">
                    <syllabic>begin</syllabic>
                    <text>Mis</text>
                </lyric>
                <lyric number="2">
                    <syllabic>begin</syllabic>
                    <text>Mis</text>
                </lyric>
                <lyric number="3">
                    <syllabic>begin</syllabic>
                    <text>Mis</text>
                </lyric>
                <lyric number="4">
                    <syllabic>begin</syllabic>
                    <text>Mis</text>
                </lyric>
                <lyric number="5">
                    <syllabic>begin</syllabic>
                    <text>Mis</text>
                </lyric>
                <lyric number="6">
                    <syllabic>begin</syllabic>
                    <text>Mis</text>
                </lyric>
            </note>
        </measure>
        <measure width="193.60" number="11">
            <harmony print-frame="no">
                <root>
                    <root-step>A</root-step>
                </root>
                <kind text="7">dominant</kind>
            </harmony>
            <note default-y="-40.00" default-x="34.99">
                <pitch>
                    <step>E</step>
                    <octave>4</octave>
                </pitch>
                <duration>2</duration>
                <voice>1</voice>
                <type>quarter</type>
                <stem>up</stem>
                <lyric number="1">
                    <syllabic>middle</syllabic>
                    <text>sou</text>
                </lyric>
                <lyric number="2">
                    <syllabic>middle</syllabic>
                    <text>sou</text>
                </lyric>
                <lyric number="3">
                    <syllabic>middle</syllabic>
                    <text>sou</text>
                </lyric>
                <lyric number="4">
                    <syllabic>middle</syllabic>
                    <text>sou</text>
                </lyric>
                <lyric number="5">
                    <syllabic>middle</syllabic>
                    <text>sou</text>
                </lyric>
                <lyric number="6">
                    <syllabic>middle</syllabic>
                    <text>sou</text>
                </lyric>
            </note>
            <direction>
                <direction-type>
                    <words default-y="100">D</words>
                </direction-type>
            </direction>
            <note default-y="-45.00" default-x="86.17">
                <pitch>
                    <step>D</step>
                    <octave>4</octave>
                </pitch>
                <duration>6</duration>
                <voice>1</voice>
                <type>half</type>
                <dot/>
                <stem>up</stem>
                <lyric number="1">
                    <syllabic>end</syllabic>
                    <text>ri</text>
                </lyric>
                <lyric number="2">
                    <syllabic>end</syllabic>
                    <text>ri.</text>
                </lyric>
                <lyric number="3">
                    <syllabic>end</syllabic>
                    <text>ri.</text>
                </lyric>
                <lyric number="4">
                    <syllabic>end</syllabic>
                    <text>ri.</text>
                </lyric>
                <lyric number="5">
                    <syllabic>end</syllabic>
                    <text>ri.</text>
                </lyric>
                <lyric number="6">
                    <syllabic>end</syllabic>
                    <text>ri.</text>
                </lyric>
            </note>
            <barline location="right">
                <bar-style>light-heavy</bar-style>
            </barline>
        </measure>
    </part>
</score-partwise>
