<?xml version="1.0" encoding="UTF-8"?>
<!DOCTYPE score-partwise PUBLIC "-//Recordare//DTD MusicXML 2.0 Partwise//EN" "http://www.musicxml.org/dtds/partwise.dtd">
<score-partwise version="2.0">
    <work>
        <work-number></work-number>
        <work-title></work-title>
    </work>
    <movement-number></movement-number>
    <movement-title>PARADISO</movement-title>
    <identification>
        <creator type="composer">Unknown</creator>
        <creator type="poet"></creator>
        <rights>All Rights Reserved</rights>
        <encoding>
            <software>Finale 2011 for Windows</software>
            <software>Dolet Light for Finale 2011</software>
            <encoding-date>2010-12-19</encoding-date>
            <supports value="yes" type="yes" element="print" attribute="new-system"/>
            <supports value="yes" type="yes" element="print" attribute="new-page"/>
            <software>ProxyMusic 2.0 c</software>
        </encoding>
        <source>http://wikifonia.org/node/8768/revisions/12104/view</source>
    </identification>
    <defaults>
        <scaling>
            <millimeters>6.9674</millimeters>
            <tenths>40</tenths>
        </scaling>
        <page-layout>
            <page-height>1704</page-height>
            <page-width>1205</page-width>
            <page-margins type="even">
                <left-margin>109</left-margin>
                <right-margin>73</right-margin>
                <top-margin>127</top-margin>
                <bottom-margin>252</bottom-margin>
            </page-margins>
            <page-margins type="odd">
                <left-margin>109</left-margin>
                <right-margin>73</right-margin>
                <top-margin>127</top-margin>
                <bottom-margin>252</bottom-margin>
            </page-margins>
        </page-layout>
        <system-layout>
            <system-margins>
                <left-margin>0</left-margin>
                <right-margin>0</right-margin>
            </system-margins>
            <system-distance>111</system-distance>
            <top-system-distance>104</top-system-distance>
        </system-layout>
        <appearance>
            <line-width type="stem">1.0026</line-width>
            <line-width type="beam">5</line-width>
            <line-width type="staff">1.4779</line-width>
            <line-width type="light barline">1.6016</line-width>
            <line-width type="heavy barline">5</line-width>
            <line-width type="leger">1.6016</line-width>
            <line-width type="ending">0.957</line-width>
            <line-width type="wedge">1.4583</line-width>
            <line-width type="enclosure">1.0026</line-width>
            <line-width type="tuplet bracket">1.0026</line-width>
            <note-size type="grace">60</note-size>
            <note-size type="cue">60</note-size>
        </appearance>
        <music-font font-size="19.75" font-family="Opus"/>
        <word-font font-size="9.9" font-family="Opus Special"/>
    </defaults>
    <credit page="1">
        <credit-words font-size="8" font-family="Times New Roman"> Laukens Music Productions  </credit-words>
    </credit>
    <credit page="1">
        <credit-words font-size="12" font-family="Times New Roman" default-y="1547" default-x="109" valign="top">Foxtrot</credit-words>
    </credit>
    <credit page="1">
        <credit-words font-weight="bold" font-style="italic" font-size="24" font-family="Times New Roman" default-y="1601" default-x="615" halign="center" valign="top">PARADISO</credit-words>
    </credit>
    <credit page="1">
        <credit-words font-size="12" font-family="Times New Roman" default-y="1547" default-x="1131" halign="right" valign="top">Arr. H. Laukens</credit-words>
    </credit>
    <part-list>
        <score-part id="P1">
            <part-name print-object="no">MusicXML Part</part-name>
            <score-instrument id="P1-I6">
                <instrument-name>Hammond Organ</instrument-name>
            </score-instrument>
            <midi-instrument id="P1-I6">
                <midi-channel>2</midi-channel>
                <midi-program>17</midi-program>
                <volume>80</volume>
                <pan>0</pan>
            </midi-instrument>
        </score-part>
    </part-list>
    <part id="P1">
        <measure width="145" number="0" implicit="yes">
            <print>
                <system-layout>
                    <system-margins>
                        <left-margin>61</left-margin>
                        <right-margin>0</right-margin>
                    </system-margins>
                    <top-system-distance>182</top-system-distance>
                </system-layout>
                <measure-numbering>system</measure-numbering>
            </print>
            <attributes>
                <divisions>6</divisions>
                <key>
                    <fifths>2</fifths>
                    <mode>major</mode>
                </key>
                <time symbol="cut">
                    <beats>2</beats>
                    <beat-type>2</beat-type>
                </time>
                <clef>
                    <sign>G</sign>
                    <line>2</line>
                </clef>
            </attributes>
            <sound tempo="190"/>
            <note default-x="104">
                <pitch>
                    <step>D</step>
                    <octave>4</octave>
                </pitch>
                <duration>6</duration>
                <voice>1</voice>
                <type>quarter</type>
                <stem default-y="-9">up</stem>
            </note>
            <note default-x="124">
                <pitch>
                    <step>E</step>
                    <octave>4</octave>
                </pitch>
                <duration>6</duration>
                <voice>1</voice>
                <type>quarter</type>
                <stem default-y="-4">up</stem>
            </note>
        </measure>
        <measure width="108" number="1">
            <harmony font-weight="bold" font-family="Opus Chords" default-y="8">
                <root>
                    <root-step>D</root-step>
                </root>
                <kind halign="left" text="">major</kind>
            </harmony>
            <note default-x="10">
                <pitch>
                    <step>F</step>
                    <alter>1</alter>
                    <octave>4</octave>
                </pitch>
                <duration>12</duration>
                <voice>1</voice>
                <type>half</type>
                <stem default-y="1">up</stem>
            </note>
            <note default-x="58">
                <pitch>
                    <step>F</step>
                    <alter>1</alter>
                    <octave>4</octave>
                </pitch>
                <duration>12</duration>
                <tie type="start"/>
                <voice>1</voice>
                <type>half</type>
                <stem default-y="1">up</stem>
                <notations>
                    <tied type="start"/>
                </notations>
            </note>
        </measure>
        <measure width="102" number="2">
            <note default-x="10">
                <pitch>
                    <step>F</step>
                    <alter>1</alter>
                    <octave>4</octave>
                </pitch>
                <duration>12</duration>
                <tie type="stop"/>
                <voice>1</voice>
                <type>half</type>
                <stem default-y="1">up</stem>
                <notations>
                    <tied type="stop"/>
                </notations>
            </note>
            <note default-x="58">
                <pitch>
                    <step>E</step>
                    <octave>4</octave>
                </pitch>
                <duration>6</duration>
                <voice>1</voice>
                <type>quarter</type>
                <stem default-y="-4">up</stem>
            </note>
            <note default-x="79">
                <pitch>
                    <step>D</step>
                    <octave>4</octave>
                </pitch>
                <duration>6</duration>
                <voice>1</voice>
                <type>quarter</type>
                <stem default-y="-9">up</stem>
            </note>
        </measure>
        <measure width="105" number="3">
            <harmony font-weight="bold" font-family="Opus Chords" default-y="8">
                <root>
                    <root-step>A</root-step>
                </root>
                <kind halign="left" text="7">dominant</kind>
            </harmony>
            <note default-x="15">
                <pitch>
                    <step>C</step>
                    <alter>1</alter>
                    <octave>4</octave>
                </pitch>
                <duration>6</duration>
                <voice>1</voice>
                <type>quarter</type>
                <stem default-y="-14.5">up</stem>
            </note>
            <note default-x="43">
                <pitch>
                    <step>B</step>
                    <octave>3</octave>
                </pitch>
                <duration>6</duration>
                <voice>1</voice>
                <type>quarter</type>
                <stem default-y="-19.5">up</stem>
            </note>
            <note default-x="72">
                <pitch>
                    <step>A</step>
                    <octave>3</octave>
                </pitch>
                <duration>12</duration>
                <tie type="start"/>
                <voice>1</voice>
                <type>half</type>
                <stem default-y="-19.5">up</stem>
                <notations>
                    <tied type="start"/>
                </notations>
            </note>
        </measure>
        <measure width="105" number="4">
            <note default-x="14">
                <pitch>
                    <step>A</step>
                    <octave>3</octave>
                </pitch>
                <duration>12</duration>
                <tie type="stop"/>
                <voice>1</voice>
                <type>half</type>
                <stem default-y="-19.5">up</stem>
                <notations>
                    <tied type="stop"/>
                </notations>
            </note>
            <note default-x="53">
                <pitch>
                    <step>A</step>
                    <octave>4</octave>
                </pitch>
                <duration>6</duration>
                <voice>1</voice>
                <type>quarter</type>
                <stem default-y="11">up</stem>
            </note>
            <note default-x="78">
                <pitch>
                    <step>A</step>
                    <octave>4</octave>
                </pitch>
                <duration>6</duration>
                <voice>1</voice>
                <type>quarter</type>
                <stem default-y="11">up</stem>
            </note>
        </measure>
        <measure width="91" number="5">
            <note default-x="10">
                <pitch>
                    <step>A</step>
                    <octave>4</octave>
                </pitch>
                <duration>18</duration>
                <voice>1</voice>
                <type>half</type>
                <dot/>
                <stem default-y="11">up</stem>
            </note>
            <note default-x="68">
                <pitch>
                    <step>G</step>
                    <octave>4</octave>
                </pitch>
                <duration>6</duration>
                <voice>1</voice>
                <type>quarter</type>
                <stem default-y="6">up</stem>
            </note>
        </measure>
        <measure width="116" number="6">
            <note default-x="10">
                <pitch>
                    <step>F</step>
                    <alter>1</alter>
                    <octave>4</octave>
                </pitch>
                <duration>12</duration>
                <voice>1</voice>
                <type>half</type>
                <stem default-y="1">up</stem>
            </note>
            <note default-x="45">
                <pitch>
                    <step>E</step>
                    <octave>4</octave>
                </pitch>
                <duration>4</duration>
                <voice>1</voice>
                <type>quarter</type>
                <time-modification>
                    <actual-notes>3</actual-notes>
                    <normal-notes>2</normal-notes>
                </time-modification>
                <stem default-y="-4">up</stem>
                <notations>
                    <tuplet placement="above" type="start" number="1" bracket="yes"/>
                </notations>
            </note>
            <note default-x="68">
                <pitch>
                    <step>D</step>
                    <octave>4</octave>
                </pitch>
                <duration>4</duration>
                <voice>1</voice>
                <type>quarter</type>
                <time-modification>
                    <actual-notes>3</actual-notes>
                    <normal-notes>2</normal-notes>
                </time-modification>
                <stem default-y="-9">up</stem>
            </note>
            <note default-x="91">
                <pitch>
                    <step>E</step>
                    <octave>4</octave>
                </pitch>
                <duration>4</duration>
                <voice>1</voice>
                <type>quarter</type>
                <time-modification>
                    <actual-notes>3</actual-notes>
                    <normal-notes>2</normal-notes>
                </time-modification>
                <stem default-y="-4">up</stem>
                <notations>
                    <tuplet type="stop" number="1"/>
                </notations>
            </note>
        </measure>
        <measure width="85" number="7">
            <harmony font-weight="bold" font-family="Opus Chords" default-y="8">
                <root>
                    <root-step>D</root-step>
                </root>
                <kind halign="left" text="">major</kind>
            </harmony>
            <note default-x="10">
                <pitch>
                    <step>D</step>
                    <octave>4</octave>
                </pitch>
                <duration>24</duration>
                <tie type="start"/>
                <voice>1</voice>
                <type>whole</type>
                <notations>
                    <tied type="start"/>
                </notations>
            </note>
        </measure>
        <measure width="104" number="8">
            <note default-x="15">
                <pitch>
                    <step>D</step>
                    <octave>4</octave>
                </pitch>
                <duration>6</duration>
                <tie type="stop"/>
                <voice>1</voice>
                <type>quarter</type>
                <stem default-y="-9">up</stem>
                <notations>
                    <tied type="stop"/>
                </notations>
            </note>
            <note default-x="37">
                <rest/>
                <duration>6</duration>
                <voice>1</voice>
                <type>quarter</type>
            </note>
            <note default-x="55">
                <pitch>
                    <step>D</step>
                    <octave>4</octave>
                </pitch>
                <duration>6</duration>
                <voice>1</voice>
                <type>quarter</type>
                <stem default-y="-9">up</stem>
            </note>
            <note default-x="77">
                <pitch>
                    <step>E</step>
                    <octave>4</octave>
                </pitch>
                <duration>6</duration>
                <voice>1</voice>
                <type>quarter</type>
                <stem default-y="-4">up</stem>
            </note>
            <barline location="right">
                <bar-style>light-light</bar-style>
            </barline>
        </measure>
        <measure width="233" number="9">
            <print new-system="yes">
                <system-layout>
                    <system-distance>116</system-distance>
                </system-layout>
            </print>
            <barline location="left">
                <bar-style>heavy-light</bar-style>
                <repeat direction="forward"/>
            </barline>
            <harmony font-weight="bold" font-family="Opus Chords" default-y="10">
                <root>
                    <root-step>D</root-step>
                </root>
                <kind halign="left" text="">major</kind>
            </harmony>
            <note default-x="100">
                <pitch>
                    <step>F</step>
                    <alter>1</alter>
                    <octave>4</octave>
                </pitch>
                <duration>12</duration>
                <voice>1</voice>
                <type>half</type>
                <stem default-y="0.5">up</stem>
            </note>
            <note default-x="166">
                <pitch>
                    <step>F</step>
                    <alter>1</alter>
                    <octave>4</octave>
                </pitch>
                <duration>12</duration>
                <tie type="start"/>
                <voice>1</voice>
                <type>half</type>
                <stem default-y="0.5">up</stem>
                <notations>
                    <tied type="start"/>
                </notations>
            </note>
        </measure>
        <measure width="136" number="10">
            <note default-x="10">
                <pitch>
                    <step>F</step>
                    <alter>1</alter>
                    <octave>4</octave>
                </pitch>
                <duration>12</duration>
                <tie type="stop"/>
                <voice>1</voice>
                <type>half</type>
                <stem default-y="0.5">up</stem>
                <notations>
                    <tied type="stop"/>
                </notations>
            </note>
            <note default-x="76">
                <pitch>
                    <step>E</step>
                    <octave>4</octave>
                </pitch>
                <duration>6</duration>
                <voice>1</voice>
                <type>quarter</type>
                <stem default-y="-4.5">up</stem>
            </note>
            <note default-x="105">
                <pitch>
                    <step>D</step>
                    <octave>4</octave>
                </pitch>
                <duration>6</duration>
                <voice>1</voice>
                <type>quarter</type>
                <stem default-y="-9.5">up</stem>
            </note>
        </measure>
        <measure width="139" number="11">
            <harmony font-weight="bold" font-family="Opus Chords" default-y="10">
                <root>
                    <root-step>A</root-step>
                </root>
                <kind halign="left" text="7">dominant</kind>
            </harmony>
            <note default-x="15">
                <pitch>
                    <step>C</step>
                    <alter>1</alter>
                    <octave>4</octave>
                </pitch>
                <duration>6</duration>
                <voice>1</voice>
                <type>quarter</type>
                <stem default-y="-15">up</stem>
            </note>
            <note default-x="43">
                <pitch>
                    <step>B</step>
                    <octave>3</octave>
                </pitch>
                <duration>6</duration>
                <voice>1</voice>
                <type>quarter</type>
                <stem default-y="-19">up</stem>
            </note>
            <note default-x="72">
                <pitch>
                    <step>A</step>
                    <octave>3</octave>
                </pitch>
                <duration>12</duration>
                <tie type="start"/>
                <voice>1</voice>
                <type>half</type>
                <stem default-y="-19">up</stem>
                <notations>
                    <tied type="start"/>
                </notations>
            </note>
        </measure>
        <measure width="139" number="12">
            <note default-x="14">
                <pitch>
                    <step>A</step>
                    <octave>3</octave>
                </pitch>
                <duration>12</duration>
                <tie type="stop"/>
                <voice>1</voice>
                <type>half</type>
                <stem default-y="-19">up</stem>
                <notations>
                    <tied type="stop"/>
                </notations>
            </note>
            <note default-x="79">
                <pitch>
                    <step>A</step>
                    <octave>4</octave>
                </pitch>
                <duration>6</duration>
                <voice>1</voice>
                <type>quarter</type>
                <stem default-y="11">up</stem>
            </note>
            <note default-x="108">
                <pitch>
                    <step>A</step>
                    <octave>4</octave>
                </pitch>
                <duration>6</duration>
                <voice>1</voice>
                <type>quarter</type>
                <stem default-y="11">up</stem>
            </note>
        </measure>
        <measure width="121" number="13">
            <note default-x="10">
                <pitch>
                    <step>A</step>
                    <octave>4</octave>
                </pitch>
                <duration>18</duration>
                <voice>1</voice>
                <type>half</type>
                <dot/>
                <stem default-y="11">up</stem>
            </note>
            <note default-x="90">
                <pitch>
                    <step>B</step>
                    <octave>4</octave>
                </pitch>
                <duration>6</duration>
                <voice>1</voice>
                <type>quarter</type>
                <stem default-y="-56">down</stem>
            </note>
        </measure>
        <measure width="143" number="14">
            <note default-x="10">
                <pitch>
                    <step>A</step>
                    <octave>4</octave>
                </pitch>
                <duration>12</duration>
                <voice>1</voice>
                <type>half</type>
                <stem default-y="11">up</stem>
            </note>
            <note default-x="76">
                <pitch>
                    <step>G</step>
                    <octave>4</octave>
                </pitch>
                <duration>12</duration>
                <voice>1</voice>
                <type>half</type>
                <stem default-y="5.5">up</stem>
            </note>
        </measure>
        <measure width="114" number="15">
            <harmony font-weight="bold" font-family="Opus Chords" default-y="10">
                <root>
                    <root-step>D</root-step>
                </root>
                <kind halign="left" text="">major</kind>
            </harmony>
            <note default-x="10">
                <pitch>
                    <step>F</step>
                    <alter>1</alter>
                    <octave>4</octave>
                </pitch>
                <duration>24</duration>
                <tie type="start"/>
                <voice>1</voice>
                <type>whole</type>
                <notations>
                    <tied type="start"/>
                </notations>
            </note>
        </measure>
        <measure width="192" number="16">
            <print new-system="yes">
                <system-layout>
                    <system-distance>117</system-distance>
                </system-layout>
            </print>
            <note default-x="85">
                <pitch>
                    <step>F</step>
                    <alter>1</alter>
                    <octave>4</octave>
                </pitch>
                <duration>12</duration>
                <tie type="stop"/>
                <voice>1</voice>
                <type>half</type>
                <stem default-y="0.5">up</stem>
                <notations>
                    <tied type="stop"/>
                </notations>
            </note>
            <note default-x="141">
                <pitch>
                    <step>D</step>
                    <octave>4</octave>
                </pitch>
                <duration>6</duration>
                <voice>1</voice>
                <type>quarter</type>
                <stem default-y="-9.5">up</stem>
            </note>
            <note default-x="166">
                <pitch>
                    <step>E</step>
                    <octave>4</octave>
                </pitch>
                <duration>6</duration>
                <voice>1</voice>
                <type>quarter</type>
                <stem default-y="-4.5">up</stem>
            </note>
        </measure>
        <measure width="125" number="17">
            <note default-x="10">
                <pitch>
                    <step>F</step>
                    <alter>1</alter>
                    <octave>4</octave>
                </pitch>
                <duration>12</duration>
                <voice>1</voice>
                <type>half</type>
                <stem default-y="0.5">up</stem>
            </note>
            <note default-x="67">
                <pitch>
                    <step>F</step>
                    <alter>1</alter>
                    <octave>4</octave>
                </pitch>
                <duration>12</duration>
                <tie type="start"/>
                <voice>1</voice>
                <type>half</type>
                <stem default-y="0.5">up</stem>
                <notations>
                    <tied type="start"/>
                </notations>
            </note>
        </measure>
        <measure width="118" number="18">
            <note default-x="10">
                <pitch>
                    <step>F</step>
                    <alter>1</alter>
                    <octave>4</octave>
                </pitch>
                <duration>12</duration>
                <tie type="stop"/>
                <voice>1</voice>
                <type>half</type>
                <stem default-y="0.5">up</stem>
                <notations>
                    <tied type="stop"/>
                </notations>
            </note>
            <note default-x="67">
                <pitch>
                    <step>E</step>
                    <octave>4</octave>
                </pitch>
                <duration>6</duration>
                <voice>1</voice>
                <type>quarter</type>
                <stem default-y="-4.5">up</stem>
            </note>
            <note default-x="92">
                <pitch>
                    <step>D</step>
                    <octave>4</octave>
                </pitch>
                <duration>6</duration>
                <voice>1</voice>
                <type>quarter</type>
                <stem default-y="-9.5">up</stem>
            </note>
        </measure>
        <measure width="121" number="19">
            <harmony font-weight="bold" font-family="Opus Chords" default-y="10">
                <root>
                    <root-step>A</root-step>
                </root>
                <kind halign="left" text="7">dominant</kind>
            </harmony>
            <note default-x="14">
                <pitch>
                    <step>C</step>
                    <alter>1</alter>
                    <octave>4</octave>
                </pitch>
                <duration>6</duration>
                <voice>1</voice>
                <type>quarter</type>
                <stem default-y="-14.5">up</stem>
            </note>
            <note default-x="45">
                <pitch>
                    <step>B</step>
                    <octave>3</octave>
                </pitch>
                <duration>6</duration>
                <voice>1</voice>
                <type>quarter</type>
                <stem default-y="-20">up</stem>
            </note>
            <note default-x="77">
                <pitch>
                    <step>A</step>
                    <octave>3</octave>
                </pitch>
                <duration>12</duration>
                <tie type="start"/>
                <voice>1</voice>
                <type>half</type>
                <stem default-y="-20">up</stem>
                <notations>
                    <tied type="start"/>
                </notations>
            </note>
        </measure>
        <measure width="121" number="20">
            <note default-x="14">
                <pitch>
                    <step>A</step>
                    <octave>3</octave>
                </pitch>
                <duration>12</duration>
                <tie type="stop"/>
                <voice>1</voice>
                <type>half</type>
                <stem default-y="-20">up</stem>
                <notations>
                    <tied type="stop"/>
                </notations>
            </note>
            <note default-x="70">
                <pitch>
                    <step>A</step>
                    <octave>4</octave>
                </pitch>
                <duration>6</duration>
                <voice>1</voice>
                <type>quarter</type>
                <stem default-y="11">up</stem>
            </note>
            <note default-x="95">
                <pitch>
                    <step>A</step>
                    <octave>4</octave>
                </pitch>
                <duration>6</duration>
                <voice>1</voice>
                <type>quarter</type>
                <stem default-y="11">up</stem>
            </note>
        </measure>
        <measure width="105" number="21">
            <note default-x="10">
                <pitch>
                    <step>A</step>
                    <octave>4</octave>
                </pitch>
                <duration>18</duration>
                <voice>1</voice>
                <type>half</type>
                <dot/>
                <stem default-y="11">up</stem>
            </note>
            <note default-x="79">
                <pitch>
                    <step>G</step>
                    <octave>4</octave>
                </pitch>
                <duration>6</duration>
                <voice>1</voice>
                <type>quarter</type>
                <stem default-y="6">up</stem>
            </note>
        </measure>
        <measure width="140" number="22">
            <note default-x="10">
                <pitch>
                    <step>F</step>
                    <alter>1</alter>
                    <octave>4</octave>
                </pitch>
                <duration>12</duration>
                <voice>1</voice>
                <type>half</type>
                <stem default-y="0.5">up</stem>
            </note>
            <note default-x="67">
                <pitch>
                    <step>E</step>
                    <octave>4</octave>
                </pitch>
                <duration>4</duration>
                <voice>1</voice>
                <type>quarter</type>
                <time-modification>
                    <actual-notes>3</actual-notes>
                    <normal-notes>2</normal-notes>
                </time-modification>
                <stem default-y="-4.5">up</stem>
                <notations>
                    <tuplet placement="above" type="start" number="1" bracket="yes"/>
                </notations>
            </note>
            <note default-x="89">
                <pitch>
                    <step>D</step>
                    <octave>4</octave>
                </pitch>
                <duration>4</duration>
                <voice>1</voice>
                <type>quarter</type>
                <time-modification>
                    <actual-notes>3</actual-notes>
                    <normal-notes>2</normal-notes>
                </time-modification>
                <stem default-y="-9.5">up</stem>
            </note>
            <note default-x="111">
                <pitch>
                    <step>E</step>
                    <octave>4</octave>
                </pitch>
                <duration>4</duration>
                <voice>1</voice>
                <type>quarter</type>
                <time-modification>
                    <actual-notes>3</actual-notes>
                    <normal-notes>2</normal-notes>
                </time-modification>
                <stem default-y="-4.5">up</stem>
                <notations>
                    <tuplet type="stop" number="1"/>
                </notations>
            </note>
            <barline location="right">
                <bar-style>light-light</bar-style>
            </barline>
        </measure>
        <measure width="99" number="23">
            <harmony font-weight="bold" font-family="Opus Chords" default-y="10">
                <root>
                    <root-step>D</root-step>
                </root>
                <kind halign="left" text="">major</kind>
            </harmony>
            <note default-x="8">
                <pitch>
                    <step>D</step>
                    <octave>4</octave>
                </pitch>
                <duration>24</duration>
                <tie type="start"/>
                <voice>1</voice>
                <type>whole</type>
                <notations>
                    <tied type="start"/>
                </notations>
            </note>
        </measure>
        <measure width="193" number="24">
            <print new-system="yes">
                <system-layout>
                    <system-distance>117</system-distance>
                </system-layout>
            </print>
            <note default-x="85">
                <pitch>
                    <step>D</step>
                    <octave>4</octave>
                </pitch>
                <duration>6</duration>
                <tie type="stop"/>
                <voice>1</voice>
                <type>quarter</type>
                <stem default-y="-9.5">up</stem>
                <notations>
                    <tied type="stop"/>
                </notations>
            </note>
            <note default-x="112">
                <pitch>
                    <step>A</step>
                    <octave>4</octave>
                </pitch>
                <duration>6</duration>
                <voice>1</voice>
                <type>quarter</type>
                <stem default-y="11">up</stem>
            </note>
            <note default-x="138">
                <pitch>
                    <step>A</step>
                    <octave>4</octave>
                </pitch>
                <duration>6</duration>
                <voice>1</voice>
                <type>quarter</type>
                <stem default-y="11">up</stem>
            </note>
            <note default-x="165">
                <pitch>
                    <step>A</step>
                    <octave>4</octave>
                </pitch>
                <duration>6</duration>
                <voice>1</voice>
                <type>quarter</type>
                <stem default-y="11">up</stem>
            </note>
        </measure>
        <measure width="119" number="25">
            <harmony font-weight="bold" font-family="Opus Chords" default-y="11">
                <root>
                    <root-step>A</root-step>
                </root>
                <kind halign="left" text="7">dominant</kind>
            </harmony>
            <note default-x="10">
                <pitch>
                    <step>G</step>
                    <octave>4</octave>
                </pitch>
                <duration>6</duration>
                <voice>1</voice>
                <type>quarter</type>
                <stem default-y="6">up</stem>
            </note>
            <note default-x="37">
                <pitch>
                    <step>F</step>
                    <alter>1</alter>
                    <octave>4</octave>
                </pitch>
                <duration>6</duration>
                <voice>1</voice>
                <type>quarter</type>
                <stem default-y="0.5">up</stem>
            </note>
            <note default-x="64">
                <pitch>
                    <step>E</step>
                    <octave>4</octave>
                </pitch>
                <duration>6</duration>
                <voice>1</voice>
                <type>quarter</type>
                <stem default-y="-4.5">up</stem>
            </note>
            <note default-x="91">
                <pitch>
                    <step>D</step>
                    <octave>4</octave>
                </pitch>
                <duration>6</duration>
                <voice>1</voice>
                <type>quarter</type>
                <stem default-y="-9.5">up</stem>
            </note>
        </measure>
        <measure width="128" number="26">
            <note default-x="15">
                <pitch>
                    <step>C</step>
                    <alter>1</alter>
                    <octave>4</octave>
                </pitch>
                <duration>6</duration>
                <voice>1</voice>
                <type>quarter</type>
                <stem default-y="-14.5">up</stem>
            </note>
            <note default-x="42">
                <pitch>
                    <step>B</step>
                    <octave>3</octave>
                </pitch>
                <duration>6</duration>
                <voice>1</voice>
                <type>quarter</type>
                <stem default-y="-20">up</stem>
            </note>
            <note default-x="70">
                <pitch>
                    <step>A</step>
                    <octave>3</octave>
                </pitch>
                <duration>6</duration>
                <voice>1</voice>
                <type>quarter</type>
                <stem default-y="-20">up</stem>
            </note>
            <note default-x="97">
                <pitch>
                    <step>G</step>
                    <octave>3</octave>
                </pitch>
                <duration>6</duration>
                <voice>1</voice>
                <type>quarter</type>
                <stem default-y="-20">up</stem>
            </note>
            <barline location="right">
                <bar-style>light-light</bar-style>
            </barline>
        </measure>
        <measure width="121" number="27">
            <harmony font-weight="bold" font-family="Opus Chords" default-y="11">
                <root>
                    <root-step>D</root-step>
                </root>
                <kind halign="left" text="">major</kind>
            </harmony>
            <note default-x="12">
                <pitch>
                    <step>A</step>
                    <octave>3</octave>
                </pitch>
                <duration>6</duration>
                <voice>1</voice>
                <type>quarter</type>
                <stem default-y="-20">up</stem>
            </note>
            <note default-x="39">
                <pitch>
                    <step>D</step>
                    <octave>4</octave>
                </pitch>
                <duration>6</duration>
                <voice>1</voice>
                <type>quarter</type>
                <stem default-y="-9.5">up</stem>
            </note>
            <note default-x="66">
                <pitch>
                    <step>D</step>
                    <octave>4</octave>
                </pitch>
                <duration>6</duration>
                <voice>1</voice>
                <type>quarter</type>
                <stem default-y="-9.5">up</stem>
            </note>
            <note default-x="92">
                <pitch>
                    <step>D</step>
                    <octave>4</octave>
                </pitch>
                <duration>6</duration>
                <voice>1</voice>
                <type>quarter</type>
                <stem default-y="-9.5">up</stem>
            </note>
        </measure>
        <measure width="119" number="28">
            <note default-x="10">
                <pitch>
                    <step>D</step>
                    <octave>4</octave>
                </pitch>
                <duration>6</duration>
                <voice>1</voice>
                <type>quarter</type>
                <stem default-y="-9.5">up</stem>
            </note>
            <note default-x="34">
                <pitch>
                    <step>D</step>
                    <octave>4</octave>
                </pitch>
                <duration>6</duration>
                <voice>1</voice>
                <type>quarter</type>
                <stem default-y="-9.5">up</stem>
            </note>
            <harmony font-weight="bold" font-family="Opus Chords" default-y="11">
                <root>
                    <root-step>D</root-step>
                </root>
                <kind halign="left" text="dim">diminished</kind>
            </harmony>
            <note default-x="61">
                <pitch>
                    <step>C</step>
                    <alter>1</alter>
                    <octave>4</octave>
                </pitch>
                <duration>6</duration>
                <voice>1</voice>
                <type>quarter</type>
                <stem default-y="-14.5">up</stem>
            </note>
            <note default-x="91">
                <pitch>
                    <step>B</step>
                    <octave>3</octave>
                </pitch>
                <duration>6</duration>
                <voice>1</voice>
                <type>quarter</type>
                <stem default-y="-20">up</stem>
            </note>
        </measure>
        <measure width="116" number="29">
            <harmony font-weight="bold" font-family="Opus Chords" default-y="11">
                <root>
                    <root-step>A</root-step>
                </root>
                <kind halign="left" text="7">dominant</kind>
            </harmony>
            <note default-x="15">
                <pitch>
                    <step>C</step>
                    <alter>1</alter>
                    <octave>4</octave>
                </pitch>
                <duration>6</duration>
                <voice>1</voice>
                <type>quarter</type>
                <stem default-y="-14.5">up</stem>
            </note>
            <note default-x="41">
                <pitch>
                    <step>E</step>
                    <octave>4</octave>
                </pitch>
                <duration>18</duration>
                <tie type="start"/>
                <voice>1</voice>
                <type>half</type>
                <dot/>
                <stem default-y="-4.5">up</stem>
                <notations>
                    <tied type="start"/>
                </notations>
            </note>
        </measure>
        <measure width="105" number="30">
            <note default-x="10">
                <pitch>
                    <step>E</step>
                    <octave>4</octave>
                </pitch>
                <duration>24</duration>
                <tie type="stop"/>
                <voice>1</voice>
                <type>whole</type>
                <notations>
                    <tied type="stop"/>
                </notations>
            </note>
        </measure>
        <measure width="122" number="31">
            <note default-x="10">
                <pitch>
                    <step>A</step>
                    <octave>4</octave>
                </pitch>
                <duration>6</duration>
                <voice>1</voice>
                <type>quarter</type>
                <stem default-y="11">up</stem>
            </note>
            <note default-x="38">
                <pitch>
                    <step>A</step>
                    <octave>4</octave>
                </pitch>
                <duration>6</duration>
                <voice>1</voice>
                <type>quarter</type>
                <stem default-y="11">up</stem>
            </note>
            <note default-x="65">
                <pitch>
                    <step>A</step>
                    <octave>4</octave>
                </pitch>
                <duration>6</duration>
                <voice>1</voice>
                <type>quarter</type>
                <stem default-y="11">up</stem>
            </note>
            <note default-x="93">
                <pitch>
                    <step>A</step>
                    <octave>4</octave>
                </pitch>
                <duration>6</duration>
                <voice>1</voice>
                <type>quarter</type>
                <stem default-y="11">up</stem>
            </note>
        </measure>
        <measure width="194" number="32">
            <print new-system="yes">
                <system-layout>
                    <system-distance>117</system-distance>
                </system-layout>
            </print>
            <note default-x="81">
                <pitch>
                    <step>A</step>
                    <octave>4</octave>
                </pitch>
                <duration>6</duration>
                <voice>1</voice>
                <type>quarter</type>
                <stem default-y="11">up</stem>
            </note>
            <note default-x="108">
                <pitch>
                    <step>B</step>
                    <octave>4</octave>
                </pitch>
                <duration>6</duration>
                <voice>1</voice>
                <type>quarter</type>
                <stem default-y="-55.5">down</stem>
            </note>
            <note default-x="137">
                <pitch>
                    <step>A</step>
                    <octave>4</octave>
                </pitch>
                <duration>6</duration>
                <voice>1</voice>
                <type>quarter</type>
                <stem default-y="11">up</stem>
            </note>
            <note default-x="165">
                <pitch>
                    <step>G</step>
                    <octave>4</octave>
                </pitch>
                <duration>6</duration>
                <voice>1</voice>
                <type>quarter</type>
                <stem default-y="6">up</stem>
            </note>
        </measure>
        <measure width="110" number="33">
            <harmony font-weight="bold" font-family="Opus Chords" default-y="8">
                <root>
                    <root-step>D</root-step>
                </root>
                <kind halign="left" text="">major</kind>
            </harmony>
            <note default-x="10">
                <pitch>
                    <step>F</step>
                    <alter>1</alter>
                    <octave>4</octave>
                </pitch>
                <duration>24</duration>
                <tie type="start"/>
                <voice>1</voice>
                <type>whole</type>
                <notations>
                    <tied type="start"/>
                </notations>
            </note>
        </measure>
        <measure width="110" number="34">
            <note default-x="10">
                <pitch>
                    <step>F</step>
                    <alter>1</alter>
                    <octave>4</octave>
                </pitch>
                <duration>24</duration>
                <tie type="stop"/>
                <voice>1</voice>
                <type>whole</type>
                <notations>
                    <tied type="stop"/>
                </notations>
            </note>
        </measure>
        <measure width="128" number="35">
            <note default-x="14">
                <pitch>
                    <step>A</step>
                    <octave>3</octave>
                </pitch>
                <duration>6</duration>
                <voice>1</voice>
                <type>quarter</type>
                <stem default-y="-19.5">up</stem>
            </note>
            <note default-x="43">
                <pitch>
                    <step>D</step>
                    <octave>4</octave>
                </pitch>
                <duration>6</duration>
                <voice>1</voice>
                <type>quarter</type>
                <stem default-y="-9.5">up</stem>
            </note>
            <note default-x="70">
                <pitch>
                    <step>D</step>
                    <octave>4</octave>
                </pitch>
                <duration>6</duration>
                <voice>1</voice>
                <type>quarter</type>
                <stem default-y="-9.5">up</stem>
            </note>
            <note default-x="98">
                <pitch>
                    <step>D</step>
                    <octave>4</octave>
                </pitch>
                <duration>6</duration>
                <voice>1</voice>
                <type>quarter</type>
                <stem default-y="-9.5">up</stem>
            </note>
        </measure>
        <measure width="124" number="36">
            <note default-x="10">
                <pitch>
                    <step>D</step>
                    <octave>4</octave>
                </pitch>
                <duration>6</duration>
                <voice>1</voice>
                <type>quarter</type>
                <stem default-y="-9.5">up</stem>
            </note>
            <note default-x="35">
                <pitch>
                    <step>D</step>
                    <octave>4</octave>
                </pitch>
                <duration>6</duration>
                <voice>1</voice>
                <type>quarter</type>
                <stem default-y="-9.5">up</stem>
            </note>
            <harmony font-weight="bold" font-family="Opus Chords" default-y="8">
                <root>
                    <root-step>D</root-step>
                </root>
                <kind halign="left" text="dim">diminished</kind>
            </harmony>
            <note default-x="64">
                <pitch>
                    <step>C</step>
                    <alter>1</alter>
                    <octave>4</octave>
                </pitch>
                <duration>6</duration>
                <voice>1</voice>
                <type>quarter</type>
                <stem default-y="-14.5">up</stem>
            </note>
            <note default-x="95">
                <pitch>
                    <step>B</step>
                    <octave>3</octave>
                </pitch>
                <duration>6</duration>
                <voice>1</voice>
                <type>quarter</type>
                <stem default-y="-19.5">up</stem>
            </note>
        </measure>
        <measure width="120" number="37">
            <harmony font-weight="bold" font-family="Opus Chords" default-y="8">
                <root>
                    <root-step>A</root-step>
                </root>
                <kind halign="left" text="7">dominant</kind>
            </harmony>
            <note default-x="14">
                <pitch>
                    <step>C</step>
                    <alter>1</alter>
                    <octave>4</octave>
                </pitch>
                <duration>6</duration>
                <voice>1</voice>
                <type>quarter</type>
                <stem default-y="-14.5">up</stem>
            </note>
            <note default-x="42">
                <pitch>
                    <step>E</step>
                    <octave>4</octave>
                </pitch>
                <duration>18</duration>
                <tie type="start"/>
                <voice>1</voice>
                <type>half</type>
                <dot/>
                <stem default-y="-4.5">up</stem>
                <notations>
                    <tied type="start"/>
                </notations>
            </note>
        </measure>
        <measure width="110" number="38">
            <note default-x="10">
                <pitch>
                    <step>E</step>
                    <octave>4</octave>
                </pitch>
                <duration>24</duration>
                <tie type="stop"/>
                <voice>1</voice>
                <type>whole</type>
                <notations>
                    <tied type="stop"/>
                </notations>
            </note>
        </measure>
        <measure width="126" number="39">
            <harmony font-weight="bold" font-family="Opus Chords" default-y="8">
                <root>
                    <root-step>B</root-step>
                </root>
                <kind halign="left" text="m">minor</kind>
            </harmony>
            <note default-x="10">
                <pitch>
                    <step>F</step>
                    <alter>1</alter>
                    <octave>4</octave>
                </pitch>
                <duration>6</duration>
                <voice>1</voice>
                <type>quarter</type>
                <stem default-y="1">up</stem>
            </note>
            <note default-x="39">
                <pitch>
                    <step>F</step>
                    <alter>1</alter>
                    <octave>4</octave>
                </pitch>
                <duration>6</duration>
                <voice>1</voice>
                <type>quarter</type>
                <stem default-y="1">up</stem>
            </note>
            <note default-x="67">
                <pitch>
                    <step>F</step>
                    <alter>1</alter>
                    <octave>4</octave>
                </pitch>
                <duration>6</duration>
                <voice>1</voice>
                <type>quarter</type>
                <stem default-y="1">up</stem>
            </note>
            <note default-x="95">
                <pitch>
                    <step>F</step>
                    <alter>1</alter>
                    <octave>4</octave>
                </pitch>
                <duration>6</duration>
                <voice>1</voice>
                <type>quarter</type>
                <stem default-y="1">up</stem>
            </note>
        </measure>
        <measure width="202" number="40">
            <print new-system="yes">
                <system-layout>
                    <system-distance>117</system-distance>
                </system-layout>
            </print>
            <harmony font-weight="bold" font-family="Opus Chords" default-y="9">
                <root>
                    <root-step>E</root-step>
                </root>
                <kind halign="left" text="7">dominant</kind>
            </harmony>
            <note default-x="95">
                <pitch>
                    <step>G</step>
                    <alter>1</alter>
                    <octave>4</octave>
                </pitch>
                <duration>6</duration>
                <voice>1</voice>
                <type>quarter</type>
                <accidental>sharp</accidental>
                <stem default-y="6">up</stem>
            </note>
            <note default-x="122">
                <pitch>
                    <step>E</step>
                    <octave>4</octave>
                </pitch>
                <duration>6</duration>
                <voice>1</voice>
                <type>quarter</type>
                <stem default-y="-4.5">up</stem>
            </note>
            <note default-x="148">
                <pitch>
                    <step>F</step>
                    <alter>1</alter>
                    <octave>4</octave>
                </pitch>
                <duration>6</duration>
                <voice>1</voice>
                <type>quarter</type>
                <stem default-y="1">up</stem>
            </note>
            <note default-x="175">
                <pitch>
                    <step>G</step>
                    <alter>1</alter>
                    <octave>4</octave>
                </pitch>
                <duration>6</duration>
                <voice>1</voice>
                <type>quarter</type>
                <stem default-y="6">up</stem>
            </note>
        </measure>
        <measure width="114" number="41">
            <harmony font-weight="bold" font-family="Opus Chords" default-y="9">
                <root>
                    <root-step>A</root-step>
                </root>
                <kind halign="left" text="7">dominant</kind>
            </harmony>
            <note default-x="10">
                <pitch>
                    <step>A</step>
                    <octave>4</octave>
                </pitch>
                <duration>18</duration>
                <voice>1</voice>
                <type>half</type>
                <dot/>
                <stem default-y="7">up</stem>
            </note>
            <note default-x="85">
                <pitch>
                    <step>A</step>
                    <octave>4</octave>
                </pitch>
                <duration>6</duration>
                <voice>1</voice>
                <type>quarter</type>
                <stem default-y="11">up</stem>
            </note>
        </measure>
        <measure width="114" number="42">
            <harmony font-weight="bold" font-family="Opus Chords" default-y="9">
                <root>
                    <root-step>E</root-step>
                </root>
                <kind halign="left" text="m">minor</kind>
            </harmony>
            <note default-x="10">
                <pitch>
                    <step>G</step>
                    <octave>4</octave>
                </pitch>
                <duration>18</duration>
                <voice>1</voice>
                <type>half</type>
                <dot/>
                <stem default-y="6">up</stem>
            </note>
            <note default-x="85">
                <pitch>
                    <step>G</step>
                    <octave>4</octave>
                </pitch>
                <duration>6</duration>
                <voice>1</voice>
                <type>quarter</type>
                <stem default-y="6">up</stem>
            </note>
        </measure>
        <measure width="114" number="43">
            <harmony font-weight="bold" font-family="Opus Chords" default-y="9">
                <root>
                    <root-step>F</root-step>
                    <root-alter>1</root-alter>
                </root>
                <kind halign="left" text="m">minor</kind>
            </harmony>
            <note default-x="10">
                <pitch>
                    <step>F</step>
                    <alter>1</alter>
                    <octave>4</octave>
                </pitch>
                <duration>18</duration>
                <voice>1</voice>
                <type>half</type>
                <dot/>
                <stem default-y="1">up</stem>
            </note>
            <note default-x="85">
                <pitch>
                    <step>F</step>
                    <alter>1</alter>
                    <octave>4</octave>
                </pitch>
                <duration>6</duration>
                <voice>1</voice>
                <type>quarter</type>
                <stem default-y="1">up</stem>
            </note>
        </measure>
        <measure width="107" number="44">
            <harmony font-weight="bold" font-family="Opus Chords" default-y="9">
                <root>
                    <root-step>G</root-step>
                </root>
                <kind halign="left" text="">major</kind>
            </harmony>
            <note default-x="10">
                <pitch>
                    <step>E</step>
                    <octave>4</octave>
                </pitch>
                <duration>24</duration>
                <tie type="start"/>
                <voice>1</voice>
                <type>whole</type>
                <notations>
                    <tied type="start"/>
                </notations>
            </note>
        </measure>
        <measure width="141" number="45">
            <barline location="left">
                <ending font-size="8.2" font-family="Times New Roman" default-y="42" type="start" number="1, 2" end-length="42"></ending>
            </barline>
            <harmony font-weight="bold" font-family="Opus Chords" default-y="9">
                <root>
                    <root-step>A</root-step>
                </root>
                <kind halign="left" text="7">dominant</kind>
            </harmony>
            <note default-x="10">
                <pitch>
                    <step>E</step>
                    <octave>4</octave>
                </pitch>
                <duration>6</duration>
                <tie type="stop"/>
                <voice>1</voice>
                <type>quarter</type>
                <stem default-y="-4.5">up</stem>
                <notations>
                    <tied type="stop"/>
                </notations>
            </note>
            <note default-x="37">
                <rest/>
                <duration>6</duration>
                <voice>1</voice>
                <type>quarter</type>
            </note>
            <note default-x="65">
                <pitch>
                    <step>D</step>
                    <octave>4</octave>
                </pitch>
                <duration>6</duration>
                <voice>1</voice>
                <type>quarter</type>
                <stem default-y="-9.5">up</stem>
            </note>
            <note default-x="92">
                <pitch>
                    <step>E</step>
                    <octave>4</octave>
                </pitch>
                <duration>6</duration>
                <voice>1</voice>
                <type>quarter</type>
                <stem default-y="-4.5">up</stem>
            </note>
            <barline location="right">
                <bar-style>light-heavy</bar-style>
                <ending type="stop" number="1, 2"></ending>
                <repeat direction="backward"/>
            </barline>
        </measure>
        <measure width="105" number="46">
            <barline location="left">
                <ending font-size="8.2" font-family="Times New Roman" default-y="42" type="start" number="3" end-length="42"></ending>
            </barline>
            <harmony font-weight="bold" font-family="Opus Chords" default-y="9">
                <root>
                    <root-step>D</root-step>
                </root>
                <kind halign="left" text="">major</kind>
            </harmony>
            <note default-x="8">
                <pitch>
                    <step>D</step>
                    <octave>4</octave>
                </pitch>
                <duration>24</duration>
                <tie type="start"/>
                <voice>1</voice>
                <type>whole</type>
                <notations>
                    <tied type="start"/>
                </notations>
            </note>
            <barline location="right">
                <ending type="discontinue" number="3"></ending>
            </barline>
        </measure>
        <measure width="126" number="47">
            <note default-x="10">
                <pitch>
                    <step>D</step>
                    <octave>4</octave>
                </pitch>
                <duration>6</duration>
                <tie type="stop"/>
                <voice>1</voice>
                <type>quarter</type>
                <stem default-y="-9.5">up</stem>
                <notations>
                    <tied type="stop"/>
                </notations>
            </note>
            <note default-x="38">
                <rest/>
                <duration>6</duration>
                <voice>1</voice>
                <type>quarter</type>
            </note>
            <note default-x="65">
                <pitch>
                    <step>D</step>
                    <octave>4</octave>
                </pitch>
                <duration>6</duration>
                <voice>1</voice>
                <type>quarter</type>
                <stem default-y="-9.5">up</stem>
            </note>
            <note default-x="93">
                <pitch>
                    <step>E</step>
                    <octave>4</octave>
                </pitch>
                <duration>6</duration>
                <voice>1</voice>
                <type>quarter</type>
                <stem default-y="-4.5">up</stem>
            </note>
            <barline location="right">
                <bar-style>light-light</bar-style>
            </barline>
        </measure>
        <measure width="197" number="48">
            <print new-system="yes">
                <system-layout>
                    <system-distance>117</system-distance>
                </system-layout>
            </print>
            <harmony font-weight="bold" font-family="Opus Chords" default-y="11">
                <root>
                    <root-step>D</root-step>
                </root>
                <kind halign="left" text="">major</kind>
            </harmony>
            <note default-x="81">
                <pitch>
                    <step>F</step>
                    <alter>1</alter>
                    <octave>4</octave>
                </pitch>
                <duration>12</duration>
                <voice>1</voice>
                <type>half</type>
                <stem default-y="1">up</stem>
            </note>
            <note default-x="138">
                <pitch>
                    <step>F</step>
                    <alter>1</alter>
                    <octave>4</octave>
                </pitch>
                <duration>12</duration>
                <tie type="start"/>
                <voice>1</voice>
                <type>half</type>
                <stem default-y="1">up</stem>
                <notations>
                    <tied type="start"/>
                </notations>
            </note>
        </measure>
        <measure width="121" number="49">
            <note default-x="10">
                <pitch>
                    <step>F</step>
                    <alter>1</alter>
                    <octave>4</octave>
                </pitch>
                <duration>12</duration>
                <tie type="stop"/>
                <voice>1</voice>
                <type>half</type>
                <stem default-y="1">up</stem>
                <notations>
                    <tied type="stop"/>
                </notations>
            </note>
            <note default-x="68">
                <pitch>
                    <step>E</step>
                    <octave>4</octave>
                </pitch>
                <duration>6</duration>
                <voice>1</voice>
                <type>quarter</type>
                <stem default-y="-4.5">up</stem>
            </note>
            <note default-x="93">
                <pitch>
                    <step>D</step>
                    <octave>4</octave>
                </pitch>
                <duration>6</duration>
                <voice>1</voice>
                <type>quarter</type>
                <stem default-y="-9.5">up</stem>
            </note>
        </measure>
        <measure width="123" number="50">
            <harmony font-weight="bold" font-family="Opus Chords" default-y="11">
                <root>
                    <root-step>A</root-step>
                </root>
                <kind halign="left" text="7">dominant</kind>
            </harmony>
            <note default-x="14">
                <pitch>
                    <step>C</step>
                    <alter>1</alter>
                    <octave>4</octave>
                </pitch>
                <duration>6</duration>
                <voice>1</voice>
                <type>quarter</type>
                <stem default-y="-14.5">up</stem>
            </note>
            <note default-x="46">
                <pitch>
                    <step>B</step>
                    <octave>3</octave>
                </pitch>
                <duration>6</duration>
                <voice>1</voice>
                <type>quarter</type>
                <stem default-y="-19.5">up</stem>
            </note>
            <note default-x="77">
                <pitch>
                    <step>A</step>
                    <octave>3</octave>
                </pitch>
                <duration>12</duration>
                <tie type="start"/>
                <voice>1</voice>
                <type>half</type>
                <stem default-y="-19.5">up</stem>
                <notations>
                    <tied type="start"/>
                </notations>
            </note>
        </measure>
        <measure width="123" number="51">
            <note default-x="14">
                <pitch>
                    <step>A</step>
                    <octave>3</octave>
                </pitch>
                <duration>12</duration>
                <tie type="stop"/>
                <voice>1</voice>
                <type>half</type>
                <stem default-y="-19.5">up</stem>
                <notations>
                    <tied type="stop"/>
                </notations>
            </note>
            <note default-x="71">
                <pitch>
                    <step>A</step>
                    <octave>4</octave>
                </pitch>
                <duration>6</duration>
                <voice>1</voice>
                <type>quarter</type>
                <stem default-y="11">up</stem>
            </note>
            <note default-x="97">
                <pitch>
                    <step>A</step>
                    <octave>4</octave>
                </pitch>
                <duration>6</duration>
                <voice>1</voice>
                <type>quarter</type>
                <stem default-y="11">up</stem>
            </note>
        </measure>
        <measure width="108" number="52">
            <note default-x="10">
                <pitch>
                    <step>A</step>
                    <octave>4</octave>
                </pitch>
                <duration>18</duration>
                <voice>1</voice>
                <type>half</type>
                <dot/>
                <stem default-y="11">up</stem>
            </note>
            <note default-x="81">
                <pitch>
                    <step>B</step>
                    <octave>4</octave>
                </pitch>
                <duration>6</duration>
                <voice>1</voice>
                <type>quarter</type>
                <stem default-y="-55.5">down</stem>
            </note>
        </measure>
        <measure width="127" number="53">
            <note default-x="10">
                <pitch>
                    <step>A</step>
                    <octave>4</octave>
                </pitch>
                <duration>12</duration>
                <voice>1</voice>
                <type>half</type>
                <stem default-y="11">up</stem>
            </note>
            <note default-x="68">
                <pitch>
                    <step>G</step>
                    <octave>4</octave>
                </pitch>
                <duration>12</duration>
                <voice>1</voice>
                <type>half</type>
                <stem default-y="6">up</stem>
            </note>
        </measure>
        <measure width="101" number="54">
            <harmony font-weight="bold" font-family="Opus Chords" default-y="11">
                <root>
                    <root-step>D</root-step>
                </root>
                <kind halign="left" text="">major</kind>
            </harmony>
            <note default-x="10">
                <pitch>
                    <step>F</step>
                    <alter>1</alter>
                    <octave>4</octave>
                </pitch>
                <duration>24</duration>
                <tie type="start"/>
                <voice>1</voice>
                <type>whole</type>
                <notations>
                    <tied type="start"/>
                </notations>
            </note>
        </measure>
        <measure width="122" number="55">
            <note default-x="10">
                <pitch>
                    <step>F</step>
                    <alter>1</alter>
                    <octave>4</octave>
                </pitch>
                <duration>12</duration>
                <tie type="stop"/>
                <voice>1</voice>
                <type>half</type>
                <stem default-y="1">up</stem>
                <notations>
                    <tied type="stop"/>
                </notations>
            </note>
            <note default-x="68">
                <pitch>
                    <step>D</step>
                    <octave>4</octave>
                </pitch>
                <duration>6</duration>
                <voice>1</voice>
                <type>quarter</type>
                <stem default-y="-9.5">up</stem>
            </note>
            <note default-x="94">
                <pitch>
                    <step>E</step>
                    <octave>4</octave>
                </pitch>
                <duration>6</duration>
                <voice>1</voice>
                <type>quarter</type>
                <stem default-y="-4.5">up</stem>
            </note>
        </measure>
        <measure width="196" number="56">
            <print new-system="yes">
                <system-layout>
                    <system-distance>117</system-distance>
                </system-layout>
            </print>
            <note default-x="81">
                <pitch>
                    <step>F</step>
                    <alter>1</alter>
                    <octave>4</octave>
                </pitch>
                <duration>12</duration>
                <voice>1</voice>
                <type>half</type>
                <stem default-y="1">up</stem>
            </note>
            <note default-x="138">
                <pitch>
                    <step>F</step>
                    <alter>1</alter>
                    <octave>4</octave>
                </pitch>
                <duration>12</duration>
                <tie type="start"/>
                <voice>1</voice>
                <type>half</type>
                <stem default-y="1">up</stem>
                <notations>
                    <tied type="start"/>
                </notations>
            </note>
        </measure>
        <measure width="119" number="57">
            <note default-x="10">
                <pitch>
                    <step>F</step>
                    <alter>1</alter>
                    <octave>4</octave>
                </pitch>
                <duration>12</duration>
                <tie type="stop"/>
                <voice>1</voice>
                <type>half</type>
                <stem default-y="1">up</stem>
                <notations>
                    <tied type="stop"/>
                </notations>
            </note>
            <note default-x="67">
                <pitch>
                    <step>E</step>
                    <octave>4</octave>
                </pitch>
                <duration>6</duration>
                <voice>1</voice>
                <type>quarter</type>
                <stem default-y="-4">up</stem>
            </note>
            <note default-x="92">
                <pitch>
                    <step>D</step>
                    <octave>4</octave>
                </pitch>
                <duration>6</duration>
                <voice>1</voice>
                <type>quarter</type>
                <stem default-y="-9.5">up</stem>
            </note>
        </measure>
        <measure width="122" number="58">
            <harmony font-weight="bold" font-family="Opus Chords" default-y="10">
                <root>
                    <root-step>A</root-step>
                </root>
                <kind halign="left" text="7">dominant</kind>
            </harmony>
            <note default-x="14">
                <pitch>
                    <step>C</step>
                    <alter>1</alter>
                    <octave>4</octave>
                </pitch>
                <duration>6</duration>
                <voice>1</voice>
                <type>quarter</type>
                <stem default-y="-14.5">up</stem>
            </note>
            <note default-x="46">
                <pitch>
                    <step>B</step>
                    <octave>3</octave>
                </pitch>
                <duration>6</duration>
                <voice>1</voice>
                <type>quarter</type>
                <stem default-y="-19.5">up</stem>
            </note>
            <note default-x="77">
                <pitch>
                    <step>A</step>
                    <octave>3</octave>
                </pitch>
                <duration>12</duration>
                <tie type="start"/>
                <voice>1</voice>
                <type>half</type>
                <stem default-y="-19.5">up</stem>
                <notations>
                    <tied type="start"/>
                </notations>
            </note>
        </measure>
        <measure width="122" number="59">
            <note default-x="14">
                <pitch>
                    <step>A</step>
                    <octave>3</octave>
                </pitch>
                <duration>12</duration>
                <tie type="stop"/>
                <voice>1</voice>
                <type>half</type>
                <stem default-y="-19.5">up</stem>
                <notations>
                    <tied type="stop"/>
                </notations>
            </note>
            <note default-x="71">
                <pitch>
                    <step>A</step>
                    <octave>4</octave>
                </pitch>
                <duration>6</duration>
                <voice>1</voice>
                <type>quarter</type>
                <stem default-y="11">up</stem>
            </note>
            <note default-x="95">
                <pitch>
                    <step>A</step>
                    <octave>4</octave>
                </pitch>
                <duration>6</duration>
                <voice>1</voice>
                <type>quarter</type>
                <stem default-y="11">up</stem>
            </note>
        </measure>
        <measure width="106" number="60">
            <note default-x="10">
                <pitch>
                    <step>A</step>
                    <octave>4</octave>
                </pitch>
                <duration>18</duration>
                <voice>1</voice>
                <type>half</type>
                <dot/>
                <stem default-y="11">up</stem>
            </note>
            <note default-x="80">
                <pitch>
                    <step>G</step>
                    <octave>4</octave>
                </pitch>
                <duration>6</duration>
                <voice>1</voice>
                <type>quarter</type>
                <stem default-y="6">up</stem>
            </note>
        </measure>
        <measure width="136" number="61">
            <note default-x="10">
                <pitch>
                    <step>F</step>
                    <alter>1</alter>
                    <octave>4</octave>
                </pitch>
                <duration>12</duration>
                <voice>1</voice>
                <type>half</type>
                <stem default-y="1">up</stem>
            </note>
            <note default-x="67">
                <pitch>
                    <step>E</step>
                    <octave>4</octave>
                </pitch>
                <duration>4</duration>
                <voice>1</voice>
                <type>quarter</type>
                <time-modification>
                    <actual-notes>3</actual-notes>
                    <normal-notes>2</normal-notes>
                </time-modification>
                <stem default-y="-4">up</stem>
                <notations>
                    <tuplet placement="above" type="start" number="1" bracket="yes"/>
                </notations>
            </note>
            <note default-x="90">
                <pitch>
                    <step>D</step>
                    <octave>4</octave>
                </pitch>
                <duration>4</duration>
                <voice>1</voice>
                <type>quarter</type>
                <time-modification>
                    <actual-notes>3</actual-notes>
                    <normal-notes>2</normal-notes>
                </time-modification>
                <stem default-y="-9.5">up</stem>
            </note>
            <note default-x="112">
                <pitch>
                    <step>E</step>
                    <octave>4</octave>
                </pitch>
                <duration>4</duration>
                <voice>1</voice>
                <type>quarter</type>
                <time-modification>
                    <actual-notes>3</actual-notes>
                    <normal-notes>2</normal-notes>
                </time-modification>
                <stem default-y="-4">up</stem>
                <notations>
                    <tuplet type="stop" number="1"/>
                </notations>
            </note>
        </measure>
        <measure width="100" number="62">
            <harmony font-weight="bold" font-family="Opus Chords" default-y="10">
                <root>
                    <root-step>D</root-step>
                </root>
                <kind halign="left" text="">major</kind>
            </harmony>
            <note default-x="10">
                <pitch>
                    <step>D</step>
                    <octave>4</octave>
                </pitch>
                <duration>24</duration>
                <tie type="start"/>
                <voice>1</voice>
                <type>whole</type>
                <notations>
                    <tied type="start"/>
                </notations>
            </note>
        </measure>
        <measure width="121" number="63">
            <note default-x="10">
                <pitch>
                    <step>D</step>
                    <octave>4</octave>
                </pitch>
                <duration>6</duration>
                <tie type="stop"/>
                <voice>1</voice>
                <type>quarter</type>
                <stem default-y="-9.5">up</stem>
                <notations>
                    <tied type="stop"/>
                </notations>
            </note>
            <note default-x="34">
                <rest/>
                <duration>6</duration>
                <voice>1</voice>
                <type>quarter</type>
            </note>
            <note default-x="56">
                <rest/>
                <duration>12</duration>
                <voice>1</voice>
                <type>half</type>
            </note>
            <barline location="right">
                <bar-style>light-heavy</bar-style>
            </barline>
        </measure>
    </part>
</score-partwise>
