<?xml version="1.0" encoding="UTF-8"?>
<!DOCTYPE score-partwise PUBLIC "-//Recordare//DTD MusicXML 2.0 Partwise//EN" "http://www.musicxml.org/dtds/partwise.dtd">
<score-partwise version="2.0">
    <work>
        <work-number></work-number>
        <work-title></work-title>
    </work>
    <movement-number></movement-number>
    <movement-title>Things Ain't What They Used To Be</movement-title>
    <identification>
        <creator type="composer">Mercer Ellington</creator>
        <creator type="poet"></creator>
        <rights>All Rights Reserved</rights>
        <encoding>
            <software>PrintMusic 2008 for Windows</software>
            <software>Dolet Light for PrintMusic 2008</software>
            <encoding-date>2008-11-21</encoding-date>
            <software>ProxyMusic 2.0 c</software>
        </encoding>
        <source>http://wikifonia.org/node/886/revisions/1175/view</source>
    </identification>
    <defaults>
        <scaling>
            <millimeters>7.2319</millimeters>
            <tenths>40</tenths>
        </scaling>
        <page-layout>
            <page-height>1545</page-height>
            <page-width>1194</page-width>
            <page-margins type="both">
                <left-margin>140</left-margin>
                <right-margin>70</right-margin>
                <top-margin>88</top-margin>
                <bottom-margin>88</bottom-margin>
            </page-margins>
        </page-layout>
        <system-layout>
            <system-margins>
                <left-margin>0</left-margin>
                <right-margin>0</right-margin>
            </system-margins>
            <system-distance>211</system-distance>
            <top-system-distance>211</top-system-distance>
        </system-layout>
        <music-font font-size="20.5" font-family="Jazz"/>
        <word-font font-size="12" font-family="JazzText"/>
    </defaults>
    <credit>
        <credit-words font-weight="bold" font-size="24" default-y="1458" default-x="632" justify="center" valign="top">Things Ain't What They Used To Be</credit-words>
    </credit>
    <credit>
        <credit-words font-weight="bold" font-size="12" default-y="1430" default-x="1122" justify="right" valign="top">Mercer Ellington</credit-words>
    </credit>
    <credit>
        <credit-words font-size="10" default-y="61" default-x="632" justify="center" valign="bottom">© Dan Parshall</credit-words>
    </credit>
    <part-list>
        <score-part id="P1">
            <part-name print-object="no">MusicXML Part</part-name>
            <score-instrument id="P1-I1">
                <instrument-name>Choir Aahs</instrument-name>
            </score-instrument>
            <midi-instrument id="P1-I1">
                <midi-channel>1</midi-channel>
                <midi-program>53</midi-program>
            </midi-instrument>
        </score-part>
    </part-list>
    <part id="P1">
        <measure width="322" number="1">
            <attributes>
                <divisions>4</divisions>
                <key>
                    <fifths>-1</fifths>
                    <mode>major</mode>
                </key>
                <time symbol="common">
                    <beats>4</beats>
                    <beat-type>4</beat-type>
                </time>
                <clef>
                    <sign>G</sign>
                    <line>2</line>
                </clef>
            </attributes>
            <sound tempo="120"/>
            <harmony font-size="15.4" default-y="100">
                <root>
                    <root-step>F</root-step>
                </root>
                <kind text="7">dominant</kind>
                <frame default-y="83">
                    <frame-strings>6</frame-strings>
                    <frame-frets>4</frame-frets>
                    <frame-note>
                        <string>6</string>
                        <fret>1</fret>
                        <barre type="start"/>
                    </frame-note>
                    <frame-note>
                        <string>5</string>
                        <fret>3</fret>
                    </frame-note>
                    <frame-note>
                        <string>4</string>
                        <fret>1</fret>
                    </frame-note>
                    <frame-note>
                        <string>3</string>
                        <fret>2</fret>
                    </frame-note>
                    <frame-note>
                        <string>2</string>
                        <fret>1</fret>
                    </frame-note>
                    <frame-note>
                        <string>1</string>
                        <fret>1</fret>
                        <barre type="stop"/>
                    </frame-note>
                </frame>
            </harmony>
            <note default-x="109">
                <rest/>
                <duration>2</duration>
                <voice>1</voice>
                <type>eighth</type>
            </note>
            <note default-x="137">
                <pitch>
                    <step>F</step>
                    <octave>4</octave>
                </pitch>
                <duration>2</duration>
                <voice>1</voice>
                <type>eighth</type>
                <stem default-y="1">up</stem>
            </note>
            <note default-x="165">
                <pitch>
                    <step>A</step>
                    <octave>4</octave>
                </pitch>
                <duration>1</duration>
                <voice>1</voice>
                <type>16th</type>
                <stem default-y="-60">down</stem>
                <beam number="1">begin</beam>
                <beam number="2">begin</beam>
            </note>
            <note default-x="183">
                <pitch>
                    <step>C</step>
                    <octave>5</octave>
                </pitch>
                <duration>1</duration>
                <voice>1</voice>
                <type>16th</type>
                <stem default-y="-57">down</stem>
                <beam number="1">continue</beam>
                <beam number="2">end</beam>
            </note>
            <note default-x="200">
                <pitch>
                    <step>D</step>
                    <octave>5</octave>
                </pitch>
                <duration>2</duration>
                <voice>1</voice>
                <type>eighth</type>
                <stem default-y="-55">down</stem>
                <beam number="1">end</beam>
            </note>
            <note default-x="229">
                <pitch>
                    <step>C</step>
                    <octave>5</octave>
                </pitch>
                <duration>4</duration>
                <voice>1</voice>
                <type>quarter</type>
                <stem default-y="-50.5">down</stem>
            </note>
            <note default-x="275">
                <pitch>
                    <step>D</step>
                    <octave>5</octave>
                </pitch>
                <duration>4</duration>
                <voice>1</voice>
                <type>quarter</type>
                <stem default-y="-45">down</stem>
            </note>
        </measure>
        <measure width="219" number="2">
            <harmony font-size="15.4" default-y="100">
                <root>
                    <root-step>F</root-step>
                </root>
                <kind text="7">dominant</kind>
                <frame default-y="83">
                    <frame-strings>6</frame-strings>
                    <frame-frets>4</frame-frets>
                    <frame-note>
                        <string>6</string>
                        <fret>1</fret>
                        <barre type="start"/>
                    </frame-note>
                    <frame-note>
                        <string>5</string>
                        <fret>3</fret>
                    </frame-note>
                    <frame-note>
                        <string>4</string>
                        <fret>1</fret>
                    </frame-note>
                    <frame-note>
                        <string>3</string>
                        <fret>2</fret>
                    </frame-note>
                    <frame-note>
                        <string>2</string>
                        <fret>1</fret>
                    </frame-note>
                    <frame-note>
                        <string>1</string>
                        <fret>1</fret>
                        <barre type="stop"/>
                    </frame-note>
                </frame>
            </harmony>
            <note default-x="10">
                <pitch>
                    <step>F</step>
                    <octave>4</octave>
                </pitch>
                <duration>6</duration>
                <voice>1</voice>
                <type>quarter</type>
                <dot/>
                <stem default-y="1">up</stem>
            </note>
            <note default-x="69">
                <pitch>
                    <step>A</step>
                    <octave>4</octave>
                </pitch>
                <duration>2</duration>
                <tie type="start"/>
                <voice>1</voice>
                <type>eighth</type>
                <stem default-y="10.5">up</stem>
                <notations>
                    <tied type="start"/>
                </notations>
            </note>
            <note default-x="113">
                <pitch>
                    <step>A</step>
                    <octave>4</octave>
                </pitch>
                <duration>2</duration>
                <tie type="stop"/>
                <voice>1</voice>
                <type>eighth</type>
                <stem default-y="10.5">up</stem>
                <notations>
                    <tied type="stop"/>
                </notations>
            </note>
            <note default-x="146">
                <rest/>
                <duration>2</duration>
                <voice>1</voice>
                <type>eighth</type>
            </note>
            <note default-x="173">
                <rest/>
                <duration>4</duration>
                <voice>1</voice>
                <type>quarter</type>
            </note>
        </measure>
        <measure width="224" number="3">
            <harmony font-size="15.4" default-y="100">
                <root>
                    <root-step>F</root-step>
                </root>
                <kind text="7">dominant</kind>
                <frame default-y="83">
                    <frame-strings>6</frame-strings>
                    <frame-frets>4</frame-frets>
                    <frame-note>
                        <string>6</string>
                        <fret>1</fret>
                        <barre type="start"/>
                    </frame-note>
                    <frame-note>
                        <string>5</string>
                        <fret>3</fret>
                    </frame-note>
                    <frame-note>
                        <string>4</string>
                        <fret>1</fret>
                    </frame-note>
                    <frame-note>
                        <string>3</string>
                        <fret>2</fret>
                    </frame-note>
                    <frame-note>
                        <string>2</string>
                        <fret>1</fret>
                    </frame-note>
                    <frame-note>
                        <string>1</string>
                        <fret>1</fret>
                        <barre type="stop"/>
                    </frame-note>
                </frame>
            </harmony>
            <note default-x="11">
                <rest/>
                <duration>2</duration>
                <voice>1</voice>
                <type>eighth</type>
            </note>
            <note default-x="39">
                <pitch>
                    <step>F</step>
                    <octave>4</octave>
                </pitch>
                <duration>2</duration>
                <voice>1</voice>
                <type>eighth</type>
                <stem default-y="1">up</stem>
            </note>
            <note default-x="67">
                <pitch>
                    <step>A</step>
                    <octave>4</octave>
                </pitch>
                <duration>1</duration>
                <voice>1</voice>
                <type>16th</type>
                <stem default-y="-60">down</stem>
                <beam number="1">begin</beam>
                <beam number="2">begin</beam>
            </note>
            <note default-x="84">
                <pitch>
                    <step>C</step>
                    <octave>5</octave>
                </pitch>
                <duration>1</duration>
                <voice>1</voice>
                <type>16th</type>
                <stem default-y="-57">down</stem>
                <beam number="1">continue</beam>
                <beam number="2">end</beam>
            </note>
            <note default-x="102">
                <pitch>
                    <step>D</step>
                    <octave>5</octave>
                </pitch>
                <duration>2</duration>
                <voice>1</voice>
                <type>eighth</type>
                <stem default-y="-55">down</stem>
                <beam number="1">end</beam>
            </note>
            <note default-x="131">
                <pitch>
                    <step>C</step>
                    <octave>5</octave>
                </pitch>
                <duration>4</duration>
                <voice>1</voice>
                <type>quarter</type>
                <stem default-y="-50.5">down</stem>
            </note>
            <note default-x="177">
                <pitch>
                    <step>D</step>
                    <octave>5</octave>
                </pitch>
                <duration>4</duration>
                <voice>1</voice>
                <type>quarter</type>
                <stem default-y="-45">down</stem>
            </note>
        </measure>
        <measure width="219" number="4">
            <harmony font-size="15.4" default-y="100">
                <root>
                    <root-step>F</root-step>
                </root>
                <kind text="7">dominant</kind>
                <frame default-y="83">
                    <frame-strings>6</frame-strings>
                    <frame-frets>4</frame-frets>
                    <frame-note>
                        <string>6</string>
                        <fret>1</fret>
                        <barre type="start"/>
                    </frame-note>
                    <frame-note>
                        <string>5</string>
                        <fret>3</fret>
                    </frame-note>
                    <frame-note>
                        <string>4</string>
                        <fret>1</fret>
                    </frame-note>
                    <frame-note>
                        <string>3</string>
                        <fret>2</fret>
                    </frame-note>
                    <frame-note>
                        <string>2</string>
                        <fret>1</fret>
                    </frame-note>
                    <frame-note>
                        <string>1</string>
                        <fret>1</fret>
                        <barre type="stop"/>
                    </frame-note>
                </frame>
            </harmony>
            <note default-x="10">
                <pitch>
                    <step>F</step>
                    <octave>4</octave>
                </pitch>
                <duration>6</duration>
                <voice>1</voice>
                <type>quarter</type>
                <dot/>
                <stem default-y="1">up</stem>
            </note>
            <note default-x="69">
                <pitch>
                    <step>D</step>
                    <octave>4</octave>
                </pitch>
                <duration>2</duration>
                <tie type="start"/>
                <voice>1</voice>
                <type>eighth</type>
                <stem default-y="-9.5">up</stem>
                <notations>
                    <tied type="start"/>
                </notations>
            </note>
            <note default-x="112">
                <pitch>
                    <step>D</step>
                    <octave>4</octave>
                </pitch>
                <duration>2</duration>
                <tie type="stop"/>
                <voice>1</voice>
                <type>eighth</type>
                <stem default-y="-9.5">up</stem>
                <notations>
                    <tied type="stop"/>
                </notations>
            </note>
            <note default-x="145">
                <rest/>
                <duration>2</duration>
                <voice>1</voice>
                <type>eighth</type>
            </note>
            <note default-x="173">
                <rest/>
                <duration>4</duration>
                <voice>1</voice>
                <type>quarter</type>
            </note>
        </measure>
        <measure width="295" number="5">
            <print new-system="yes"/>
            <harmony font-size="15.4" default-y="100">
                <root>
                    <root-step>B</root-step>
                    <root-alter>-1</root-alter>
                </root>
                <kind text="7">dominant</kind>
                <frame default-y="83">
                    <frame-strings>6</frame-strings>
                    <frame-frets>4</frame-frets>
                    <frame-note>
                        <string>5</string>
                        <fret>1</fret>
                        <barre type="start"/>
                    </frame-note>
                    <frame-note>
                        <string>4</string>
                        <fret>3</fret>
                    </frame-note>
                    <frame-note>
                        <string>3</string>
                        <fret>1</fret>
                    </frame-note>
                    <frame-note>
                        <string>2</string>
                        <fret>3</fret>
                    </frame-note>
                    <frame-note>
                        <string>1</string>
                        <fret>1</fret>
                        <barre type="stop"/>
                    </frame-note>
                </frame>
            </harmony>
            <note default-x="77">
                <rest/>
                <duration>2</duration>
                <voice>1</voice>
                <type>eighth</type>
            </note>
            <note default-x="106">
                <pitch>
                    <step>B</step>
                    <alter>-1</alter>
                    <octave>4</octave>
                </pitch>
                <duration>2</duration>
                <voice>1</voice>
                <type>eighth</type>
                <stem default-y="-55">down</stem>
            </note>
            <note default-x="135">
                <pitch>
                    <step>D</step>
                    <octave>5</octave>
                </pitch>
                <duration>1</duration>
                <voice>1</voice>
                <type>16th</type>
                <stem default-y="-45">down</stem>
                <beam number="1">begin</beam>
                <beam number="2">begin</beam>
            </note>
            <note default-x="153">
                <pitch>
                    <step>F</step>
                    <octave>5</octave>
                </pitch>
                <duration>1</duration>
                <voice>1</voice>
                <type>16th</type>
                <stem default-y="-42.5">down</stem>
                <beam number="1">continue</beam>
                <beam number="2">end</beam>
            </note>
            <note default-x="171">
                <pitch>
                    <step>G</step>
                    <octave>5</octave>
                </pitch>
                <duration>2</duration>
                <voice>1</voice>
                <type>eighth</type>
                <stem default-y="-40">down</stem>
                <beam number="1">end</beam>
            </note>
            <note default-x="200">
                <pitch>
                    <step>F</step>
                    <octave>5</octave>
                </pitch>
                <duration>4</duration>
                <voice>1</voice>
                <type>quarter</type>
                <stem default-y="-35">down</stem>
            </note>
            <note default-x="246">
                <pitch>
                    <step>G</step>
                    <octave>5</octave>
                </pitch>
                <duration>4</duration>
                <voice>1</voice>
                <type>quarter</type>
                <stem default-y="-30">down</stem>
            </note>
        </measure>
        <measure width="236" number="6">
            <harmony font-size="15.4" default-y="100">
                <root>
                    <root-step>B</root-step>
                    <root-alter>-1</root-alter>
                </root>
                <kind text="7">dominant</kind>
                <frame default-y="83">
                    <frame-strings>6</frame-strings>
                    <frame-frets>4</frame-frets>
                    <frame-note>
                        <string>5</string>
                        <fret>1</fret>
                        <barre type="start"/>
                    </frame-note>
                    <frame-note>
                        <string>4</string>
                        <fret>3</fret>
                    </frame-note>
                    <frame-note>
                        <string>3</string>
                        <fret>1</fret>
                    </frame-note>
                    <frame-note>
                        <string>2</string>
                        <fret>3</fret>
                    </frame-note>
                    <frame-note>
                        <string>1</string>
                        <fret>1</fret>
                        <barre type="stop"/>
                    </frame-note>
                </frame>
            </harmony>
            <note default-x="10">
                <pitch>
                    <step>B</step>
                    <alter>-1</alter>
                    <octave>4</octave>
                </pitch>
                <duration>6</duration>
                <voice>1</voice>
                <type>quarter</type>
                <dot/>
                <stem default-y="-55">down</stem>
            </note>
            <note default-x="71">
                <pitch>
                    <step>D</step>
                    <alter>-1</alter>
                    <octave>5</octave>
                </pitch>
                <duration>2</duration>
                <tie type="start"/>
                <voice>1</voice>
                <type>eighth</type>
                <accidental>flat</accidental>
                <stem default-y="-45.5">down</stem>
                <notations>
                    <tied type="start"/>
                </notations>
            </note>
            <note default-x="114">
                <pitch>
                    <step>D</step>
                    <alter>-1</alter>
                    <octave>5</octave>
                </pitch>
                <duration>2</duration>
                <tie type="stop"/>
                <voice>1</voice>
                <type>eighth</type>
                <stem default-y="-45">down</stem>
                <beam number="1">begin</beam>
                <notations>
                    <tied type="stop"/>
                </notations>
            </note>
            <note default-x="149">
                <pitch>
                    <step>D</step>
                    <octave>5</octave>
                </pitch>
                <duration>2</duration>
                <voice>1</voice>
                <type>eighth</type>
                <accidental>natural</accidental>
                <stem default-y="-47.5">down</stem>
                <beam number="1">continue</beam>
            </note>
            <note default-x="178">
                <pitch>
                    <step>C</step>
                    <octave>5</octave>
                </pitch>
                <duration>2</duration>
                <voice>1</voice>
                <type>eighth</type>
                <stem default-y="-50">down</stem>
                <beam number="1">end</beam>
            </note>
            <note default-x="206">
                <rest/>
                <duration>2</duration>
                <voice>1</voice>
                <type>eighth</type>
            </note>
        </measure>
        <measure width="229" number="7">
            <harmony font-size="15.4" default-y="100">
                <root>
                    <root-step>F</root-step>
                </root>
                <kind text="7">dominant</kind>
                <frame default-y="83">
                    <frame-strings>6</frame-strings>
                    <frame-frets>4</frame-frets>
                    <frame-note>
                        <string>6</string>
                        <fret>1</fret>
                        <barre type="start"/>
                    </frame-note>
                    <frame-note>
                        <string>5</string>
                        <fret>3</fret>
                    </frame-note>
                    <frame-note>
                        <string>4</string>
                        <fret>1</fret>
                    </frame-note>
                    <frame-note>
                        <string>3</string>
                        <fret>2</fret>
                    </frame-note>
                    <frame-note>
                        <string>2</string>
                        <fret>1</fret>
                    </frame-note>
                    <frame-note>
                        <string>1</string>
                        <fret>1</fret>
                        <barre type="stop"/>
                    </frame-note>
                </frame>
            </harmony>
            <note default-x="11">
                <rest/>
                <duration>2</duration>
                <voice>1</voice>
                <type>eighth</type>
            </note>
            <note default-x="39">
                <pitch>
                    <step>F</step>
                    <octave>4</octave>
                </pitch>
                <duration>2</duration>
                <voice>1</voice>
                <type>eighth</type>
                <stem default-y="0.5">up</stem>
            </note>
            <note default-x="69">
                <pitch>
                    <step>A</step>
                    <octave>4</octave>
                </pitch>
                <duration>1</duration>
                <voice>1</voice>
                <type>16th</type>
                <stem default-y="-60">down</stem>
                <beam number="1">begin</beam>
                <beam number="2">begin</beam>
            </note>
            <note default-x="87">
                <pitch>
                    <step>C</step>
                    <octave>5</octave>
                </pitch>
                <duration>1</duration>
                <voice>1</voice>
                <type>16th</type>
                <stem default-y="-57">down</stem>
                <beam number="1">continue</beam>
                <beam number="2">end</beam>
            </note>
            <note default-x="104">
                <pitch>
                    <step>D</step>
                    <octave>5</octave>
                </pitch>
                <duration>2</duration>
                <voice>1</voice>
                <type>eighth</type>
                <stem default-y="-55">down</stem>
                <beam number="1">end</beam>
            </note>
            <note default-x="133">
                <pitch>
                    <step>C</step>
                    <octave>5</octave>
                </pitch>
                <duration>4</duration>
                <voice>1</voice>
                <type>quarter</type>
                <stem default-y="-50">down</stem>
            </note>
            <note default-x="180">
                <pitch>
                    <step>D</step>
                    <octave>5</octave>
                </pitch>
                <duration>4</duration>
                <voice>1</voice>
                <type>quarter</type>
                <stem default-y="-45.5">down</stem>
            </note>
        </measure>
        <measure width="223" number="8">
            <harmony font-size="15.4" default-y="100">
                <root>
                    <root-step>F</root-step>
                </root>
                <kind text="7">dominant</kind>
                <frame default-y="83">
                    <frame-strings>6</frame-strings>
                    <frame-frets>4</frame-frets>
                    <frame-note>
                        <string>6</string>
                        <fret>1</fret>
                        <barre type="start"/>
                    </frame-note>
                    <frame-note>
                        <string>5</string>
                        <fret>3</fret>
                    </frame-note>
                    <frame-note>
                        <string>4</string>
                        <fret>1</fret>
                    </frame-note>
                    <frame-note>
                        <string>3</string>
                        <fret>2</fret>
                    </frame-note>
                    <frame-note>
                        <string>2</string>
                        <fret>1</fret>
                    </frame-note>
                    <frame-note>
                        <string>1</string>
                        <fret>1</fret>
                        <barre type="stop"/>
                    </frame-note>
                </frame>
            </harmony>
            <note default-x="10">
                <pitch>
                    <step>F</step>
                    <octave>4</octave>
                </pitch>
                <duration>6</duration>
                <voice>1</voice>
                <type>quarter</type>
                <dot/>
                <stem default-y="0.5">up</stem>
            </note>
            <note default-x="71">
                <pitch>
                    <step>D</step>
                    <octave>4</octave>
                </pitch>
                <duration>2</duration>
                <tie type="start"/>
                <voice>1</voice>
                <type>eighth</type>
                <stem default-y="-9">up</stem>
                <notations>
                    <tied type="start"/>
                </notations>
            </note>
            <note default-x="114">
                <pitch>
                    <step>D</step>
                    <octave>4</octave>
                </pitch>
                <duration>2</duration>
                <tie type="stop"/>
                <voice>1</voice>
                <type>eighth</type>
                <stem default-y="-9">up</stem>
                <notations>
                    <tied type="stop"/>
                </notations>
            </note>
            <note default-x="148">
                <rest/>
                <duration>2</duration>
                <voice>1</voice>
                <type>eighth</type>
            </note>
            <note default-x="176">
                <rest/>
                <duration>4</duration>
                <voice>1</voice>
                <type>quarter</type>
            </note>
        </measure>
        <measure width="302" number="9">
            <print new-system="yes"/>
            <harmony font-size="15.4" default-y="100">
                <root>
                    <root-step>G</root-step>
                </root>
                <kind text="min7">minor-seventh</kind>
                <frame default-y="83">
                    <frame-strings>6</frame-strings>
                    <frame-frets>4</frame-frets>
                    <frame-note>
                        <string>6</string>
                        <fret>3</fret>
                    </frame-note>
                    <frame-note>
                        <string>4</string>
                        <fret>3</fret>
                    </frame-note>
                    <frame-note>
                        <string>3</string>
                        <fret>3</fret>
                    </frame-note>
                    <frame-note>
                        <string>2</string>
                        <fret>3</fret>
                    </frame-note>
                </frame>
            </harmony>
            <note default-x="77">
                <rest/>
                <duration>2</duration>
                <voice>1</voice>
                <type>eighth</type>
            </note>
            <note default-x="106">
                <pitch>
                    <step>C</step>
                    <octave>5</octave>
                </pitch>
                <duration>2</duration>
                <voice>1</voice>
                <type>eighth</type>
                <stem default-y="-50">down</stem>
            </note>
            <note default-x="137">
                <pitch>
                    <step>F</step>
                    <octave>5</octave>
                </pitch>
                <duration>1</duration>
                <voice>1</voice>
                <type>16th</type>
                <stem default-y="-30">down</stem>
                <beam number="1">begin</beam>
                <beam number="2">begin</beam>
            </note>
            <note default-x="169">
                <pitch>
                    <step>E</step>
                    <alter>-1</alter>
                    <octave>5</octave>
                </pitch>
                <duration>1</duration>
                <voice>1</voice>
                <type>16th</type>
                <accidental>flat</accidental>
                <stem default-y="-32">down</stem>
                <beam number="1">end</beam>
                <beam number="2">end</beam>
            </note>
            <note default-x="192">
                <pitch>
                    <step>C</step>
                    <octave>5</octave>
                </pitch>
                <duration>8</duration>
                <voice>1</voice>
                <type>half</type>
                <stem default-y="-50">down</stem>
            </note>
            <note default-x="271">
                <rest/>
                <duration>2</duration>
                <voice>1</voice>
                <type>eighth</type>
            </note>
        </measure>
        <measure width="282" number="10">
            <harmony font-size="15.4" default-y="100">
                <root>
                    <root-step>G</root-step>
                </root>
                <kind text="min7">minor-seventh</kind>
                <frame default-y="83">
                    <frame-strings>6</frame-strings>
                    <frame-frets>4</frame-frets>
                    <frame-note>
                        <string>6</string>
                        <fret>3</fret>
                    </frame-note>
                    <frame-note>
                        <string>4</string>
                        <fret>3</fret>
                    </frame-note>
                    <frame-note>
                        <string>3</string>
                        <fret>3</fret>
                    </frame-note>
                    <frame-note>
                        <string>2</string>
                        <fret>3</fret>
                    </frame-note>
                </frame>
            </harmony>
            <note default-x="10">
                <rest/>
                <duration>2</duration>
                <voice>1</voice>
                <type>eighth</type>
            </note>
            <note default-x="41">
                <pitch>
                    <step>C</step>
                    <octave>5</octave>
                </pitch>
                <duration>2</duration>
                <voice>1</voice>
                <type>eighth</type>
                <stem default-y="-50">down</stem>
            </note>
            <note default-x="71">
                <pitch>
                    <step>F</step>
                    <octave>5</octave>
                </pitch>
                <duration>1</duration>
                <voice>1</voice>
                <type>16th</type>
                <stem default-y="-45">down</stem>
                <beam number="1">begin</beam>
                <beam number="2">begin</beam>
            </note>
            <note default-x="104">
                <pitch>
                    <step>E</step>
                    <alter>-1</alter>
                    <octave>5</octave>
                </pitch>
                <duration>1</duration>
                <voice>1</voice>
                <type>16th</type>
                <accidental>flat</accidental>
                <stem default-y="-48">down</stem>
                <beam number="1">continue</beam>
                <beam number="2">end</beam>
            </note>
            <note default-x="126">
                <pitch>
                    <step>C</step>
                    <octave>5</octave>
                </pitch>
                <duration>2</duration>
                <voice>1</voice>
                <type>eighth</type>
                <stem default-y="-50">down</stem>
                <beam number="1">end</beam>
            </note>
            <harmony font-size="15.4" default-y="100">
                <root>
                    <root-step>C</root-step>
                </root>
                <kind text="7">dominant</kind>
                <frame default-y="83">
                    <frame-strings>6</frame-strings>
                    <frame-frets>4</frame-frets>
                    <frame-note>
                        <string>5</string>
                        <fret>3</fret>
                    </frame-note>
                    <frame-note>
                        <string>4</string>
                        <fret>2</fret>
                    </frame-note>
                    <frame-note>
                        <string>3</string>
                        <fret>3</fret>
                    </frame-note>
                    <frame-note>
                        <string>2</string>
                        <fret>1</fret>
                    </frame-note>
                    <frame-note>
                        <string>1</string>
                        <fret>0</fret>
                    </frame-note>
                </frame>
            </harmony>
            <note default-x="156">
                <pitch>
                    <step>F</step>
                    <octave>5</octave>
                </pitch>
                <duration>1</duration>
                <voice>1</voice>
                <type>16th</type>
                <stem default-y="-45">down</stem>
                <beam number="1">begin</beam>
                <beam number="2">begin</beam>
            </note>
            <note default-x="179">
                <pitch>
                    <step>E</step>
                    <alter>-1</alter>
                    <octave>5</octave>
                </pitch>
                <duration>1</duration>
                <voice>1</voice>
                <type>16th</type>
                <stem default-y="-47">down</stem>
                <beam number="1">continue</beam>
                <beam number="2">end</beam>
            </note>
            <note default-x="201">
                <pitch>
                    <step>C</step>
                    <octave>5</octave>
                </pitch>
                <duration>2</duration>
                <voice>1</voice>
                <type>eighth</type>
                <stem default-y="-50">down</stem>
                <beam number="1">end</beam>
            </note>
            <note default-x="232">
                <pitch>
                    <step>E</step>
                    <alter>-1</alter>
                    <octave>5</octave>
                </pitch>
                <duration>4</duration>
                <voice>1</voice>
                <type>quarter</type>
                <stem default-y="-40.5">down</stem>
            </note>
        </measure>
        <measure width="205" number="11">
            <harmony font-size="15.4" default-y="100">
                <root>
                    <root-step>F</root-step>
                </root>
                <kind text="7">dominant</kind>
                <frame default-y="83">
                    <frame-strings>6</frame-strings>
                    <frame-frets>4</frame-frets>
                    <frame-note>
                        <string>6</string>
                        <fret>1</fret>
                        <barre type="start"/>
                    </frame-note>
                    <frame-note>
                        <string>5</string>
                        <fret>3</fret>
                    </frame-note>
                    <frame-note>
                        <string>4</string>
                        <fret>1</fret>
                    </frame-note>
                    <frame-note>
                        <string>3</string>
                        <fret>2</fret>
                    </frame-note>
                    <frame-note>
                        <string>2</string>
                        <fret>1</fret>
                    </frame-note>
                    <frame-note>
                        <string>1</string>
                        <fret>1</fret>
                        <barre type="stop"/>
                    </frame-note>
                </frame>
            </harmony>
            <note default-x="10">
                <pitch>
                    <step>E</step>
                    <octave>5</octave>
                </pitch>
                <duration>2</duration>
                <voice>1</voice>
                <type>eighth</type>
                <stem default-y="-40.5">down</stem>
            </note>
            <note default-x="39">
                <pitch>
                    <step>F</step>
                    <octave>5</octave>
                </pitch>
                <duration>4</duration>
                <tie type="start"/>
                <voice>1</voice>
                <type>quarter</type>
                <stem default-y="-35.5">down</stem>
                <notations>
                    <tied type="start"/>
                </notations>
            </note>
            <note default-x="85">
                <pitch>
                    <step>F</step>
                    <octave>5</octave>
                </pitch>
                <duration>4</duration>
                <tie type="stop"/>
                <voice>1</voice>
                <type>quarter</type>
                <stem default-y="-35.5">down</stem>
                <notations>
                    <tied type="stop"/>
                </notations>
            </note>
            <harmony font-size="15.4" default-y="100">
                <root>
                    <root-step>A</root-step>
                    <root-alter>-1</root-alter>
                </root>
                <kind text="7">dominant</kind>
                <frame default-y="83">
                    <frame-strings>6</frame-strings>
                    <frame-frets>4</frame-frets>
                    <first-fret>4</first-fret>
                    <frame-note>
                        <string>6</string>
                        <fret>4</fret>
                        <barre type="start"/>
                    </frame-note>
                    <frame-note>
                        <string>5</string>
                        <fret>6</fret>
                    </frame-note>
                    <frame-note>
                        <string>4</string>
                        <fret>4</fret>
                    </frame-note>
                    <frame-note>
                        <string>3</string>
                        <fret>5</fret>
                    </frame-note>
                    <frame-note>
                        <string>2</string>
                        <fret>4</fret>
                    </frame-note>
                    <frame-note>
                        <string>1</string>
                        <fret>4</fret>
                        <barre type="stop"/>
                    </frame-note>
                </frame>
            </harmony>
            <note default-x="130">
                <rest/>
                <duration>2</duration>
                <voice>1</voice>
                <type>eighth</type>
            </note>
            <note default-x="159">
                <rest/>
                <duration>4</duration>
                <voice>1</voice>
                <type>quarter</type>
            </note>
        </measure>
        <measure width="194" number="12">
            <harmony font-size="15.4" default-y="100">
                <root>
                    <root-step>G</root-step>
                </root>
                <kind text="min7">minor-seventh</kind>
                <frame default-y="83">
                    <frame-strings>6</frame-strings>
                    <frame-frets>4</frame-frets>
                    <frame-note>
                        <string>6</string>
                        <fret>3</fret>
                    </frame-note>
                    <frame-note>
                        <string>4</string>
                        <fret>3</fret>
                    </frame-note>
                    <frame-note>
                        <string>3</string>
                        <fret>3</fret>
                    </frame-note>
                    <frame-note>
                        <string>2</string>
                        <fret>3</fret>
                    </frame-note>
                </frame>
            </harmony>
            <note default-x="11">
                <rest/>
                <duration>4</duration>
                <voice>1</voice>
                <type>quarter</type>
            </note>
            <note default-x="54">
                <rest/>
                <duration>4</duration>
                <voice>1</voice>
                <type>quarter</type>
            </note>
            <harmony font-size="15.4" default-y="100">
                <root>
                    <root-step>C</root-step>
                </root>
                <kind text="7">dominant</kind>
                <frame default-y="83">
                    <frame-strings>6</frame-strings>
                    <frame-frets>4</frame-frets>
                    <frame-note>
                        <string>5</string>
                        <fret>3</fret>
                    </frame-note>
                    <frame-note>
                        <string>4</string>
                        <fret>2</fret>
                    </frame-note>
                    <frame-note>
                        <string>3</string>
                        <fret>3</fret>
                    </frame-note>
                    <frame-note>
                        <string>2</string>
                        <fret>1</fret>
                    </frame-note>
                    <frame-note>
                        <string>1</string>
                        <fret>0</fret>
                    </frame-note>
                </frame>
            </harmony>
            <note default-x="98">
                <rest/>
                <duration>4</duration>
                <voice>1</voice>
                <type>quarter</type>
            </note>
            <note default-x="140">
                <rest/>
                <duration>4</duration>
                <voice>1</voice>
                <type>quarter</type>
            </note>
            <barline location="right">
                <bar-style>light-heavy</bar-style>
            </barline>
        </measure>
    </part>
</score-partwise>
