<?xml version="1.0" encoding="UTF-8"?>
<!DOCTYPE score-partwise PUBLIC "-//Recordare//DTD MusicXML 2.0 Partwise//EN" "http://www.musicxml.org/dtds/partwise.dtd">
<score-partwise version="2.0">
    <work>
        <work-number></work-number>
        <work-title></work-title>
    </work>
    <movement-number></movement-number>
    <movement-title>Time after time</movement-title>
    <identification>
        <creator type="composer">Jule Styne</creator>
        <creator type="poet">Sammy Cahn</creator>
        <rights>All Rights Reserved</rights>
        <encoding>
            <software>Finale for Macintosh</software>
            <software>Dolet Light for Finale 2008</software>
            <encoding-date>2011-01-12</encoding-date>
            <software>ProxyMusic 2.0 c</software>
        </encoding>
        <source>http://wikifonia.org/node/9054/revisions/12452/view</source>
    </identification>
    <defaults>
        <scaling>
            <millimeters>6.3641</millimeters>
            <tenths>40</tenths>
        </scaling>
        <page-layout>
            <page-height>1867</page-height>
            <page-width>1320</page-width>
            <page-margins type="both">
                <left-margin>80</left-margin>
                <right-margin>54</right-margin>
                <top-margin>-29</top-margin>
                <bottom-margin>100</bottom-margin>
            </page-margins>
        </page-layout>
        <system-layout>
            <system-margins>
                <left-margin>0</left-margin>
                <right-margin>0</right-margin>
            </system-margins>
            <system-distance>119</system-distance>
            <top-system-distance>70</top-system-distance>
        </system-layout>
        <music-font font-size="18" font-family="Jazz"/>
        <word-font font-size="9" font-family="JazzText"/>
        <lyric-font font-size="9" font-family="Charcoal" name="verse"/>
    </defaults>
    <credit>
        <credit-words font-weight="bold" font-size="21.1" default-y="1843" default-x="675" justify="center" valign="top">Time after time </credit-words>
    </credit>
    <credit>
        <credit-words font-weight="bold" font-size="10.6" default-y="1816" default-x="1266" justify="right" valign="top">Jule Styne/Chaplin</credit-words>
    </credit>
    <credit>
        <credit-words font-size="8.8"> </credit-words>
    </credit>
    <part-list>
        <score-part id="P1">
            <part-name print-object="no">MusicXML Part</part-name>
            <score-instrument id="P1-I1">
                <instrument-name>Grand Piano</instrument-name>
            </score-instrument>
            <midi-instrument id="P1-I1">
                <midi-channel>1</midi-channel>
                <midi-program>1</midi-program>
            </midi-instrument>
        </score-part>
    </part-list>
    <part id="P1">
        <measure width="385" number="1">
            <print>
                <page-layout>
                    <page-height>1867</page-height>
                    <page-width>1320</page-width>
                    <page-margins>
                        <left-margin>80</left-margin>
                        <right-margin>54</right-margin>
                        <top-margin>-29</top-margin>
                        <bottom-margin>4</bottom-margin>
                    </page-margins>
                </page-layout>
                <system-layout>
                    <top-system-distance>211</top-system-distance>
                </system-layout>
            </print>
            <attributes>
                <divisions>2</divisions>
                <key>
                    <fifths>0</fifths>
                    <mode>major</mode>
                </key>
                <time>
                    <beats>4</beats>
                    <beat-type>4</beat-type>
                </time>
                <clef>
                    <sign>G</sign>
                    <line>2</line>
                </clef>
            </attributes>
            <sound tempo="60"/>
            <harmony font-size="12" default-y="15">
                <root>
                    <root-step>F</root-step>
                </root>
                <kind use-symbols="yes">major</kind>
            </harmony>
            <note default-x="83">
                <rest/>
                <duration>2</duration>
                <voice>1</voice>
                <type>quarter</type>
            </note>
            <note default-x="157">
                <pitch>
                    <step>B</step>
                    <octave>4</octave>
                </pitch>
                <duration>2</duration>
                <voice>1</voice>
                <type>quarter</type>
                <stem default-y="-56">down</stem>
                <lyric default-y="-80" number="1">
                    <syllabic>single</syllabic>
                    <text>What</text>
                </lyric>
            </note>
            <note default-x="233">
                <pitch>
                    <step>A</step>
                    <octave>4</octave>
                </pitch>
                <duration>2</duration>
                <voice>1</voice>
                <type>quarter</type>
                <stem default-y="11">up</stem>
                <lyric default-y="-80" number="1">
                    <syllabic>single</syllabic>
                    <text>good</text>
                </lyric>
            </note>
            <note default-x="308">
                <pitch>
                    <step>D</step>
                    <octave>5</octave>
                </pitch>
                <duration>2</duration>
                <voice>1</voice>
                <type>quarter</type>
                <stem default-y="-46">down</stem>
                <lyric default-y="-80" number="1">
                    <syllabic>single</syllabic>
                    <text>are</text>
                </lyric>
            </note>
        </measure>
        <measure width="236" number="2">
            <harmony font-size="12" default-y="15">
                <root>
                    <root-step>G</root-step>
                </root>
                <kind text="9">dominant-ninth</kind>
            </harmony>
            <note default-x="35">
                <pitch>
                    <step>B</step>
                    <octave>4</octave>
                </pitch>
                <duration>4</duration>
                <voice>1</voice>
                <type>half</type>
                <stem default-y="-56">down</stem>
                <lyric default-y="-80" number="1">
                    <syllabic>single</syllabic>
                    <text>words</text>
                </lyric>
            </note>
            <note default-x="135">
                <pitch>
                    <step>A</step>
                    <octave>4</octave>
                </pitch>
                <duration>4</duration>
                <voice>1</voice>
                <type>half</type>
                <stem default-y="11">up</stem>
                <lyric default-y="-80" number="1">
                    <syllabic>single</syllabic>
                    <text>I</text>
                </lyric>
            </note>
        </measure>
        <measure width="264" number="3">
            <harmony font-size="12" default-y="15">
                <root>
                    <root-step>E</root-step>
                </root>
                <kind use-symbols="yes">minor-seventh</kind>
            </harmony>
            <note default-x="20">
                <pitch>
                    <step>G</step>
                    <octave>4</octave>
                </pitch>
                <duration>3</duration>
                <voice>1</voice>
                <type>quarter</type>
                <dot/>
                <stem default-y="6">up</stem>
                <lyric default-y="-80" number="1">
                    <syllabic>single</syllabic>
                    <text>say</text>
                </lyric>
            </note>
            <note default-x="110">
                <pitch>
                    <step>G</step>
                    <octave>4</octave>
                </pitch>
                <duration>1</duration>
                <voice>1</voice>
                <type>eighth</type>
                <stem default-y="6">up</stem>
                <lyric default-y="-80" number="1">
                    <syllabic>single</syllabic>
                    <text>to</text>
                </lyric>
            </note>
            <note default-x="152">
                <pitch>
                    <step>G</step>
                    <octave>4</octave>
                </pitch>
                <duration>4</duration>
                <tie type="start"/>
                <voice>1</voice>
                <type>half</type>
                <stem default-y="6">up</stem>
                <notations>
                    <tied type="start"/>
                </notations>
                <lyric justify="left" default-y="-80" number="1">
                    <syllabic>single</syllabic>
                    <text>you?</text>
                    <extend/>
                </lyric>
            </note>
        </measure>
        <measure width="300" number="4">
            <harmony font-size="12" default-y="15">
                <root>
                    <root-step>A</root-step>
                </root>
                <kind use-symbols="yes">minor-seventh</kind>
            </harmony>
            <note default-x="10">
                <pitch>
                    <step>G</step>
                    <octave>4</octave>
                </pitch>
                <duration>2</duration>
                <tie type="stop"/>
                <voice>1</voice>
                <type>quarter</type>
                <stem default-y="6">up</stem>
                <notations>
                    <tied type="stop"/>
                </notations>
            </note>
            <note default-x="84">
                <pitch>
                    <step>C</step>
                    <octave>5</octave>
                </pitch>
                <duration>2</duration>
                <voice>1</voice>
                <type>quarter</type>
                <stem default-y="-51">down</stem>
                <lyric default-y="-80" number="1">
                    <syllabic>single</syllabic>
                    <text>They</text>
                </lyric>
            </note>
            <harmony font-size="12" default-y="15">
                <root>
                    <root-step>E</root-step>
                    <root-alter>-1</root-alter>
                </root>
                <kind text="9">dominant-ninth</kind>
            </harmony>
            <note default-x="156">
                <pitch>
                    <step>G</step>
                    <octave>4</octave>
                </pitch>
                <duration>3</duration>
                <voice>1</voice>
                <type>quarter</type>
                <dot/>
                <stem default-y="6">up</stem>
                <lyric default-y="-80" number="1">
                    <syllabic>single</syllabic>
                    <text>can't</text>
                </lyric>
            </note>
            <note default-x="253">
                <pitch>
                    <step>G</step>
                    <alter>-1</alter>
                    <octave>4</octave>
                </pitch>
                <duration>1</duration>
                <voice>1</voice>
                <type>eighth</type>
                <accidental>flat</accidental>
                <stem default-y="6">up</stem>
                <lyric default-y="-80" number="1">
                    <syllabic>begin</syllabic>
                    <text>con</text>
                </lyric>
            </note>
        </measure>
        <measure width="287" number="5">
            <print new-system="yes">
                <system-layout>
                    <system-distance>110</system-distance>
                </system-layout>
            </print>
            <harmony font-size="12" default-y="15">
                <root>
                    <root-step>D</root-step>
                </root>
                <kind use-symbols="yes">minor-seventh</kind>
            </harmony>
            <note default-x="23">
                <pitch>
                    <step>F</step>
                    <octave>4</octave>
                </pitch>
                <duration>3</duration>
                <voice>1</voice>
                <type>quarter</type>
                <dot/>
                <stem default-y="1">up</stem>
                <lyric default-y="-80" number="1">
                    <syllabic>end</syllabic>
                    <text>vey</text>
                </lyric>
            </note>
            <note default-x="120">
                <pitch>
                    <step>F</step>
                    <octave>4</octave>
                </pitch>
                <duration>1</duration>
                <voice>1</voice>
                <type>eighth</type>
                <stem default-y="1">up</stem>
                <lyric default-y="-80" number="1">
                    <syllabic>single</syllabic>
                    <text>to</text>
                </lyric>
            </note>
            <note default-x="166">
                <pitch>
                    <step>F</step>
                    <octave>4</octave>
                </pitch>
                <duration>4</duration>
                <tie type="start"/>
                <voice>1</voice>
                <type>half</type>
                <stem default-y="1">up</stem>
                <notations>
                    <tied type="start"/>
                </notations>
                <lyric justify="left" default-y="-80" number="1">
                    <syllabic>single</syllabic>
                    <text>you</text>
                    <extend/>
                </lyric>
            </note>
        </measure>
        <measure width="347" number="6">
            <harmony font-size="12" default-y="15">
                <root>
                    <root-step>G</root-step>
                </root>
                <kind text="7" parentheses-degrees="yes">dominant</kind>
                <degree>
                    <degree-value>9</degree-value>
                    <degree-alter>-1</degree-alter>
                    <degree-type>add</degree-type>
                </degree>
            </harmony>
            <note default-x="10">
                <pitch>
                    <step>F</step>
                    <octave>4</octave>
                </pitch>
                <duration>2</duration>
                <tie type="stop"/>
                <voice>1</voice>
                <type>quarter</type>
                <stem default-y="1">up</stem>
                <notations>
                    <tied type="stop"/>
                </notations>
            </note>
            <note default-x="96">
                <pitch>
                    <step>B</step>
                    <octave>4</octave>
                </pitch>
                <duration>2</duration>
                <voice>1</voice>
                <type>quarter</type>
                <stem default-y="-55.5">down</stem>
                <lyric default-y="-80" number="1">
                    <syllabic>single</syllabic>
                    <text>what's</text>
                </lyric>
            </note>
            <note default-x="180">
                <pitch>
                    <step>F</step>
                    <octave>4</octave>
                </pitch>
                <duration>3</duration>
                <voice>1</voice>
                <type>quarter</type>
                <dot/>
                <stem default-y="1">up</stem>
                <lyric default-y="-80" number="1">
                    <syllabic>single</syllabic>
                    <text>in</text>
                </lyric>
            </note>
            <note default-x="293">
                <pitch>
                    <step>E</step>
                    <octave>4</octave>
                </pitch>
                <duration>1</duration>
                <voice>1</voice>
                <type>eighth</type>
                <stem default-y="-4">up</stem>
                <lyric default-y="-80" number="1">
                    <syllabic>single</syllabic>
                    <text>my</text>
                </lyric>
            </note>
        </measure>
        <measure width="222" number="7">
            <harmony font-size="12" default-y="15">
                <root>
                    <root-step>C</root-step>
                </root>
                <kind use-symbols="yes">major</kind>
            </harmony>
            <note default-x="31">
                <pitch>
                    <step>E</step>
                    <octave>4</octave>
                </pitch>
                <duration>8</duration>
                <voice>1</voice>
                <type>whole</type>
                <lyric default-y="-80" number="1">
                    <syllabic>single</syllabic>
                    <text>heart</text>
                </lyric>
            </note>
        </measure>
        <measure width="329" number="8">
            <harmony font-size="12" default-y="15">
                <root>
                    <root-step>C</root-step>
                </root>
                <kind text="6">major-sixth</kind>
            </harmony>
            <note default-x="10">
                <rest/>
                <duration>2</duration>
                <voice>1</voice>
                <type>quarter</type>
            </note>
            <note default-x="89">
                <pitch>
                    <step>C</step>
                    <octave>4</octave>
                </pitch>
                <duration>2</duration>
                <voice>1</voice>
                <type>quarter</type>
                <stem default-y="-14.5">up</stem>
                <lyric default-y="-80" number="1">
                    <syllabic>single</syllabic>
                    <text>If</text>
                </lyric>
            </note>
            <note default-x="168">
                <pitch>
                    <step>E</step>
                    <octave>4</octave>
                </pitch>
                <duration>2</duration>
                <voice>1</voice>
                <type>quarter</type>
                <stem default-y="-4">up</stem>
                <lyric default-y="-80" number="1">
                    <syllabic>single</syllabic>
                    <text>you</text>
                </lyric>
            </note>
            <note default-x="248">
                <pitch>
                    <step>G</step>
                    <octave>4</octave>
                </pitch>
                <duration>2</duration>
                <voice>1</voice>
                <type>quarter</type>
                <stem default-y="6">up</stem>
                <lyric default-y="-80" number="1">
                    <syllabic>single</syllabic>
                    <text>could</text>
                </lyric>
            </note>
        </measure>
        <measure width="296" number="9">
            <print new-system="yes">
                <system-layout>
                    <system-distance>112</system-distance>
                </system-layout>
            </print>
            <harmony font-size="12" default-y="15">
                <root>
                    <root-step>A</root-step>
                </root>
                <kind use-symbols="yes">minor</kind>
            </harmony>
            <note default-x="29">
                <pitch>
                    <step>C</step>
                    <octave>5</octave>
                </pitch>
                <duration>4</duration>
                <voice>1</voice>
                <type>half</type>
                <stem default-y="-51">down</stem>
                <lyric default-y="-80" number="1">
                    <syllabic>single</syllabic>
                    <text>hear</text>
                </lyric>
            </note>
            <harmony font-size="12" default-y="15">
                <root>
                    <root-step>C</root-step>
                </root>
                <kind text="">major</kind>
                <bass>
                    <bass-step>G</bass-step>
                </bass>
            </harmony>
            <note default-x="160">
                <rest/>
                <duration>4</duration>
                <voice>1</voice>
                <type>half</type>
            </note>
        </measure>
        <measure width="263" number="10">
            <harmony font-size="12" default-y="15">
                <root>
                    <root-step>F</root-step>
                    <root-alter>1</root-alter>
                </root>
                <kind use-symbols="yes">half-diminished</kind>
            </harmony>
            <note default-x="10">
                <rest/>
                <duration>4</duration>
                <voice>1</voice>
                <type>half</type>
            </note>
            <harmony font-size="12" default-y="15">
                <root>
                    <root-step>F</root-step>
                </root>
                <kind use-symbols="yes">minor-sixth</kind>
            </harmony>
            <note default-x="137">
                <pitch>
                    <step>D</step>
                    <octave>5</octave>
                </pitch>
                <duration>4</duration>
                <voice>1</voice>
                <type>half</type>
                <stem default-y="-46">down</stem>
                <lyric default-y="-80" number="1">
                    <syllabic>begin</syllabic>
                    <text>in</text>
                </lyric>
            </note>
        </measure>
        <measure width="213" number="11">
            <harmony font-size="12" default-y="15">
                <root>
                    <root-step>E</root-step>
                </root>
                <kind use-symbols="yes">minor-seventh</kind>
            </harmony>
            <note default-x="10">
                <pitch>
                    <step>G</step>
                    <octave>4</octave>
                </pitch>
                <duration>8</duration>
                <tie type="start"/>
                <voice>1</voice>
                <type>whole</type>
                <notations>
                    <tied type="start"/>
                </notations>
                <lyric justify="left" default-y="-80" number="1">
                    <syllabic>end</syllabic>
                    <text>stead</text>
                    <extend/>
                </lyric>
            </note>
        </measure>
        <measure width="414" number="12">
            <harmony font-size="12" default-y="15">
                <root>
                    <root-step>C</root-step>
                </root>
                <kind text="">major</kind>
                <bass>
                    <bass-step>E</bass-step>
                </bass>
            </harmony>
            <note default-x="10">
                <pitch>
                    <step>G</step>
                    <octave>4</octave>
                </pitch>
                <duration>2</duration>
                <tie type="stop"/>
                <voice>1</voice>
                <type>quarter</type>
                <stem default-y="6">up</stem>
                <notations>
                    <tied type="stop"/>
                </notations>
            </note>
            <note default-x="110">
                <pitch>
                    <step>C</step>
                    <octave>4</octave>
                </pitch>
                <duration>2</duration>
                <voice>1</voice>
                <type>quarter</type>
                <stem default-y="-14">up</stem>
                <lyric default-y="-80" number="1">
                    <syllabic>single</syllabic>
                    <text>The</text>
                </lyric>
            </note>
            <note default-x="211">
                <pitch>
                    <step>E</step>
                    <octave>4</octave>
                </pitch>
                <duration>2</duration>
                <voice>1</voice>
                <type>quarter</type>
                <stem default-y="-4">up</stem>
                <lyric default-y="-80" number="1">
                    <syllabic>single</syllabic>
                    <text>things</text>
                </lyric>
            </note>
            <note default-x="312">
                <pitch>
                    <step>G</step>
                    <octave>4</octave>
                </pitch>
                <duration>2</duration>
                <voice>1</voice>
                <type>quarter</type>
                <stem default-y="6">up</stem>
                <lyric default-y="-80" number="1">
                    <syllabic>single</syllabic>
                    <text>I've</text>
                </lyric>
            </note>
        </measure>
        <measure width="281" number="13">
            <print new-system="yes">
                <system-layout>
                    <system-distance>112</system-distance>
                </system-layout>
            </print>
            <harmony font-size="12" default-y="15">
                <root>
                    <root-step>A</root-step>
                </root>
                <kind use-symbols="yes">minor-seventh</kind>
            </harmony>
            <note default-x="12">
                <pitch>
                    <step>C</step>
                    <octave>5</octave>
                </pitch>
                <duration>8</duration>
                <tie type="start"/>
                <voice>1</voice>
                <type>whole</type>
                <notations>
                    <tied type="start"/>
                </notations>
                <lyric justify="left" default-y="-80" number="1">
                    <syllabic>single</syllabic>
                    <text>left</text>
                    <extend/>
                </lyric>
            </note>
        </measure>
        <measure width="341" number="14">
            <harmony font-size="12" default-y="15">
                <root>
                    <root-step>D</root-step>
                </root>
                <kind text="9">dominant-ninth</kind>
            </harmony>
            <note default-x="11">
                <pitch>
                    <step>C</step>
                    <octave>5</octave>
                </pitch>
                <duration>4</duration>
                <tie type="stop"/>
                <voice>1</voice>
                <type>half</type>
                <stem default-y="-50.5">down</stem>
                <notations>
                    <tied type="stop"/>
                </notations>
            </note>
            <note default-x="175">
                <pitch>
                    <step>E</step>
                    <octave>5</octave>
                </pitch>
                <duration>4</duration>
                <voice>1</voice>
                <type>half</type>
                <stem default-y="-40.5">down</stem>
                <lyric default-y="-80" number="1">
                    <syllabic>begin</syllabic>
                    <text>un</text>
                </lyric>
            </note>
        </measure>
        <measure width="279" number="15">
            <harmony font-size="12" default-y="15">
                <root>
                    <root-step>G</root-step>
                </root>
                <kind text="9sus4">suspended-fourth</kind>
                <degree print-object="no">
                    <degree-value>7</degree-value>
                    <degree-alter>0</degree-alter>
                    <degree-type>add</degree-type>
                </degree>
                <degree print-object="no">
                    <degree-value>9</degree-value>
                    <degree-alter>0</degree-alter>
                    <degree-type>add</degree-type>
                </degree>
            </harmony>
            <note default-x="10">
                <pitch>
                    <step>G</step>
                    <octave>4</octave>
                </pitch>
                <duration>8</duration>
                <tie type="start"/>
                <voice>1</voice>
                <type>whole</type>
                <notations>
                    <tied type="start"/>
                </notations>
                <lyric justify="left" default-y="-80" number="1">
                    <syllabic>end</syllabic>
                    <text>said</text>
                    <extend/>
                </lyric>
            </note>
        </measure>
        <measure width="285" number="16">
            <harmony font-size="12" default-y="15">
                <root>
                    <root-step>G</root-step>
                </root>
                <kind text="9">dominant-ninth</kind>
            </harmony>
            <note default-x="10">
                <pitch>
                    <step>G</step>
                    <octave>4</octave>
                </pitch>
                <duration>8</duration>
                <tie type="stop"/>
                <voice>1</voice>
                <type>whole</type>
                <notations>
                    <tied type="stop"/>
                </notations>
            </note>
            <barline location="right">
                <bar-style>light-light</bar-style>
            </barline>
        </measure>
        <measure width="329" number="17">
            <print new-system="yes">
                <system-layout>
                    <system-distance>112</system-distance>
                </system-layout>
            </print>
            <direction placement="above">
                <direction-type>
                    <segno default-y="19" default-x="-1"/>
                </direction-type>
            </direction>
            <harmony font-size="12" default-y="15">
                <root>
                    <root-step>C</root-step>
                </root>
                <kind use-symbols="yes">major</kind>
            </harmony>
            <note default-x="32">
                <pitch>
                    <step>E</step>
                    <octave>4</octave>
                </pitch>
                <duration>4</duration>
                <voice>1</voice>
                <type>half</type>
                <stem default-y="-4">up</stem>
                <lyric default-y="-80" number="1">
                    <syllabic>single</syllabic>
                    <text>Time</text>
                </lyric>
            </note>
            <harmony font-size="12" default-y="15">
                <root>
                    <root-step>A</root-step>
                </root>
                <kind use-symbols="yes">minor-seventh</kind>
            </harmony>
            <note default-x="166">
                <pitch>
                    <step>C</step>
                    <octave>4</octave>
                </pitch>
                <duration>3</duration>
                <voice>1</voice>
                <type>quarter</type>
                <dot/>
                <stem default-y="-14">up</stem>
                <lyric default-y="-80" number="1">
                    <syllabic>begin</syllabic>
                    <text>af</text>
                </lyric>
            </note>
            <note default-x="277">
                <pitch>
                    <step>D</step>
                    <octave>4</octave>
                </pitch>
                <duration>1</duration>
                <voice>1</voice>
                <type>eighth</type>
                <stem default-y="-9">up</stem>
                <lyric default-y="-80" number="1">
                    <syllabic>end</syllabic>
                    <text>ter</text>
                </lyric>
            </note>
        </measure>
        <measure width="259" number="18">
            <harmony font-size="12" default-y="15">
                <root>
                    <root-step>D</root-step>
                </root>
                <kind use-symbols="yes">minor-seventh</kind>
            </harmony>
            <note default-x="26">
                <pitch>
                    <step>C</step>
                    <octave>4</octave>
                </pitch>
                <duration>6</duration>
                <voice>1</voice>
                <type>half</type>
                <dot/>
                <stem default-y="-14">up</stem>
                <lyric default-y="-80" number="1">
                    <syllabic>single</syllabic>
                    <text>time</text>
                </lyric>
            </note>
            <harmony font-size="12" default-y="15">
                <root>
                    <root-step>G</root-step>
                </root>
                <kind text="7">dominant</kind>
            </harmony>
            <note default-x="184">
                <pitch>
                    <step>D</step>
                    <octave>4</octave>
                </pitch>
                <duration>2</duration>
                <voice>1</voice>
                <type>quarter</type>
                <stem default-y="-9">up</stem>
                <lyric default-y="-80" number="1">
                    <syllabic>single</syllabic>
                    <text>I</text>
                </lyric>
            </note>
        </measure>
        <measure width="353" number="19">
            <harmony font-size="12" default-y="15">
                <root>
                    <root-step>C</root-step>
                </root>
                <kind use-symbols="yes">major</kind>
            </harmony>
            <note default-x="20">
                <pitch>
                    <step>E</step>
                    <octave>4</octave>
                </pitch>
                <duration>2</duration>
                <voice>1</voice>
                <type>quarter</type>
                <stem default-y="-4">up</stem>
                <lyric default-y="-80" number="1">
                    <syllabic>single</syllabic>
                    <text>tell</text>
                </lyric>
            </note>
            <note default-x="103">
                <pitch>
                    <step>A</step>
                    <octave>4</octave>
                </pitch>
                <duration>2</duration>
                <voice>1</voice>
                <type>quarter</type>
                <stem default-y="11">up</stem>
                <lyric default-y="-80" number="1">
                    <syllabic>begin</syllabic>
                    <text>my</text>
                </lyric>
            </note>
            <harmony font-size="12" default-y="15">
                <root>
                    <root-step>A</root-step>
                </root>
                <kind use-symbols="yes">minor-seventh</kind>
            </harmony>
            <note default-x="185">
                <pitch>
                    <step>G</step>
                    <octave>4</octave>
                </pitch>
                <duration>2</duration>
                <voice>1</voice>
                <type>quarter</type>
                <stem default-y="6">up</stem>
                <lyric default-y="-80" number="1">
                    <syllabic>end</syllabic>
                    <text>self</text>
                </lyric>
            </note>
            <note default-x="269">
                <pitch>
                    <step>E</step>
                    <octave>4</octave>
                </pitch>
                <duration>2</duration>
                <voice>1</voice>
                <type>quarter</type>
                <stem default-y="-4">up</stem>
                <lyric default-y="-80" number="1">
                    <syllabic>single</syllabic>
                    <text>that</text>
                </lyric>
            </note>
        </measure>
        <measure width="245" number="20">
            <harmony font-size="12" default-y="15">
                <root>
                    <root-step>D</root-step>
                </root>
                <kind use-symbols="yes">minor-seventh</kind>
            </harmony>
            <note default-x="19">
                <pitch>
                    <step>C</step>
                    <octave>4</octave>
                </pitch>
                <duration>6</duration>
                <voice>1</voice>
                <type>half</type>
                <dot/>
                <stem default-y="-14">up</stem>
                <lyric default-y="-80" number="1">
                    <syllabic>single</syllabic>
                    <text>I'm</text>
                </lyric>
            </note>
            <harmony font-size="12" default-y="15">
                <root>
                    <root-step>G</root-step>
                </root>
                <kind text="7">dominant</kind>
            </harmony>
            <note default-x="172">
                <pitch>
                    <step>D</step>
                    <octave>4</octave>
                </pitch>
                <duration>2</duration>
                <voice>1</voice>
                <type>quarter</type>
                <stem default-y="-9">up</stem>
                <lyric default-y="-80" number="1">
                    <syllabic>single</syllabic>
                    <text>So</text>
                </lyric>
            </note>
        </measure>
        <measure width="286" number="21">
            <print new-system="yes">
                <system-layout>
                    <system-distance>112</system-distance>
                </system-layout>
            </print>
            <harmony font-size="12" default-y="15">
                <root>
                    <root-step>C</root-step>
                </root>
                <kind use-symbols="yes">major</kind>
            </harmony>
            <note default-x="26">
                <pitch>
                    <step>E</step>
                    <octave>4</octave>
                </pitch>
                <duration>2</duration>
                <voice>1</voice>
                <type>quarter</type>
                <stem default-y="-4">up</stem>
                <lyric default-y="-80" number="1">
                    <syllabic>begin</syllabic>
                    <text>luck</text>
                </lyric>
            </note>
            <note default-x="90">
                <pitch>
                    <step>B</step>
                    <octave>4</octave>
                </pitch>
                <duration>2</duration>
                <voice>1</voice>
                <type>quarter</type>
                <stem default-y="-55">down</stem>
                <lyric default-y="-80" number="1">
                    <syllabic>end</syllabic>
                    <text>y</text>
                </lyric>
            </note>
            <note default-x="156">
                <pitch>
                    <step>A</step>
                    <octave>4</octave>
                </pitch>
                <duration>2</duration>
                <voice>1</voice>
                <type>quarter</type>
                <stem default-y="11">up</stem>
                <lyric default-y="-80" number="1">
                    <syllabic>single</syllabic>
                    <text>to</text>
                </lyric>
            </note>
            <note default-x="220">
                <pitch>
                    <step>E</step>
                    <octave>4</octave>
                </pitch>
                <duration>2</duration>
                <voice>1</voice>
                <type>quarter</type>
                <stem default-y="-4">up</stem>
                <lyric default-y="-80" number="1">
                    <syllabic>single</syllabic>
                    <text>be</text>
                </lyric>
            </note>
        </measure>
        <measure width="235" number="22">
            <harmony font-size="12" default-y="15">
                <root>
                    <root-step>A</root-step>
                </root>
                <kind use-symbols="yes">minor-seventh</kind>
            </harmony>
            <note default-x="19">
                <pitch>
                    <step>D</step>
                    <octave>4</octave>
                </pitch>
                <duration>6</duration>
                <voice>1</voice>
                <type>half</type>
                <dot/>
                <stem default-y="-9">up</stem>
                <lyric default-y="-80" number="1">
                    <syllabic>begin</syllabic>
                    <text>lov</text>
                </lyric>
            </note>
            <note default-x="165">
                <pitch>
                    <step>C</step>
                    <octave>4</octave>
                </pitch>
                <duration>2</duration>
                <voice>1</voice>
                <type>quarter</type>
                <stem default-y="-14">up</stem>
                <lyric default-y="-80" number="1">
                    <syllabic>end</syllabic>
                    <text>ing</text>
                </lyric>
            </note>
        </measure>
        <measure width="177" number="23">
            <harmony font-size="12" default-y="15">
                <root>
                    <root-step>B</root-step>
                </root>
                <kind use-symbols="yes">half-diminished</kind>
            </harmony>
            <note default-x="10">
                <pitch>
                    <step>D</step>
                    <octave>4</octave>
                </pitch>
                <duration>8</duration>
                <tie type="start"/>
                <voice>1</voice>
                <type>whole</type>
                <notations>
                    <tied type="start"/>
                </notations>
                <lyric justify="left" default-y="-80" number="1">
                    <syllabic>single</syllabic>
                    <text>you</text>
                    <extend/>
                </lyric>
            </note>
        </measure>
        <measure width="214" number="24">
            <harmony font-size="12" default-y="15">
                <root>
                    <root-step>E</root-step>
                </root>
                <kind text="7" parentheses-degrees="yes">dominant</kind>
                <degree>
                    <degree-value>9</degree-value>
                    <degree-alter>-1</degree-alter>
                    <degree-type>add</degree-type>
                </degree>
            </harmony>
            <note default-x="10">
                <pitch>
                    <step>D</step>
                    <octave>4</octave>
                </pitch>
                <duration>6</duration>
                <tie type="stop"/>
                <voice>1</voice>
                <type>half</type>
                <dot/>
                <stem default-y="-9">up</stem>
                <notations>
                    <tied type="stop"/>
                </notations>
            </note>
            <note default-x="144">
                <pitch>
                    <step>E</step>
                    <octave>4</octave>
                </pitch>
                <duration>2</duration>
                <voice>1</voice>
                <type>quarter</type>
                <stem default-y="-4">up</stem>
                <lyric default-y="-80" number="1">
                    <syllabic>single</syllabic>
                    <text>So</text>
                </lyric>
            </note>
            <barline location="right">
                <bar-style>light-light</bar-style>
            </barline>
        </measure>
        <measure width="274" number="25">
            <harmony font-size="12" default-y="15">
                <root>
                    <root-step>A</root-step>
                </root>
                <kind use-symbols="yes">minor-seventh</kind>
            </harmony>
            <note default-x="23">
                <pitch>
                    <step>C</step>
                    <octave>5</octave>
                </pitch>
                <duration>4</duration>
                <voice>1</voice>
                <type>half</type>
                <stem default-y="-50">down</stem>
                <lyric default-y="-80" number="1">
                    <syllabic>begin</syllabic>
                    <text>luck</text>
                </lyric>
            </note>
            <harmony font-size="12" default-y="15">
                <root>
                    <root-step>C</root-step>
                </root>
                <kind text="">major</kind>
                <bass>
                    <bass-step>G</bass-step>
                </bass>
            </harmony>
            <note default-x="136">
                <pitch>
                    <step>A</step>
                    <octave>4</octave>
                </pitch>
                <duration>3</duration>
                <voice>1</voice>
                <type>quarter</type>
                <dot/>
                <stem default-y="11">up</stem>
                <lyric default-y="-80" number="1">
                    <syllabic>end</syllabic>
                    <text>y</text>
                </lyric>
            </note>
            <note default-x="229">
                <pitch>
                    <step>B</step>
                    <octave>4</octave>
                </pitch>
                <duration>1</duration>
                <voice>1</voice>
                <type>eighth</type>
                <stem default-y="-55">down</stem>
                <lyric default-y="-80" number="1">
                    <syllabic>single</syllabic>
                    <text>to</text>
                </lyric>
            </note>
        </measure>
        <measure width="195" number="26">
            <print new-system="yes">
                <system-layout>
                    <system-distance>112</system-distance>
                </system-layout>
            </print>
            <harmony font-size="12" default-y="15">
                <root>
                    <root-step>F</root-step>
                    <root-alter>1</root-alter>
                </root>
                <kind use-symbols="yes">half-diminished</kind>
            </harmony>
            <note default-x="18">
                <pitch>
                    <step>A</step>
                    <octave>4</octave>
                </pitch>
                <duration>6</duration>
                <voice>1</voice>
                <type>half</type>
                <dot/>
                <stem default-y="11">up</stem>
                <lyric default-y="-80" number="1">
                    <syllabic>single</syllabic>
                    <text>be</text>
                </lyric>
            </note>
            <harmony font-size="12" relative-x="-33" default-y="14">
                <root>
                    <root-step>B</root-step>
                </root>
                <kind text="7" parentheses-degrees="yes">dominant</kind>
                <degree>
                    <degree-value>9</degree-value>
                    <degree-alter>-1</degree-alter>
                    <degree-type>add</degree-type>
                </degree>
            </harmony>
            <note default-x="137">
                <pitch>
                    <step>B</step>
                    <octave>4</octave>
                </pitch>
                <duration>2</duration>
                <voice>1</voice>
                <type>quarter</type>
                <stem default-y="-55.5">down</stem>
                <lyric default-y="-80" number="1">
                    <syllabic>single</syllabic>
                    <text>The</text>
                </lyric>
            </note>
        </measure>
        <measure width="269" number="27">
            <harmony font-size="12" relative-x="11" default-y="17">
                <root>
                    <root-step>E</root-step>
                </root>
                <kind use-symbols="yes">minor-seventh</kind>
            </harmony>
            <note default-x="23">
                <pitch>
                    <step>A</step>
                    <octave>4</octave>
                </pitch>
                <duration>2</duration>
                <voice>1</voice>
                <type>quarter</type>
                <stem default-y="11">up</stem>
                <lyric default-y="-80" number="1">
                    <syllabic>single</syllabic>
                    <text>one</text>
                </lyric>
            </note>
            <note default-x="84">
                <pitch>
                    <step>G</step>
                    <octave>4</octave>
                </pitch>
                <duration>2</duration>
                <voice>1</voice>
                <type>quarter</type>
                <stem default-y="6">up</stem>
                <lyric default-y="-80" number="1">
                    <syllabic>single</syllabic>
                    <text>you</text>
                </lyric>
            </note>
            <note default-x="145">
                <pitch>
                    <step>F</step>
                    <alter>1</alter>
                    <octave>4</octave>
                </pitch>
                <duration>2</duration>
                <voice>1</voice>
                <type>quarter</type>
                <accidental>sharp</accidental>
                <stem default-y="0.5">up</stem>
                <lyric default-y="-80" number="1">
                    <syllabic>single</syllabic>
                    <text>run</text>
                </lyric>
            </note>
            <note default-x="206">
                <pitch>
                    <step>G</step>
                    <octave>4</octave>
                </pitch>
                <duration>2</duration>
                <voice>1</voice>
                <type>quarter</type>
                <stem default-y="6">up</stem>
                <lyric default-y="-80" number="1">
                    <syllabic>single</syllabic>
                    <text>to</text>
                </lyric>
            </note>
        </measure>
        <measure width="221" number="28">
            <harmony font-size="12" default-y="15">
                <root>
                    <root-step>G</root-step>
                </root>
                <kind use-symbols="yes">minor-sixth</kind>
                <bass>
                    <bass-step>B</bass-step>
                    <bass-alter>-1</bass-alter>
                </bass>
            </harmony>
            <note default-x="21">
                <pitch>
                    <step>E</step>
                    <octave>4</octave>
                </pitch>
                <duration>4</duration>
                <voice>1</voice>
                <type>half</type>
                <stem default-y="-4.5">up</stem>
                <lyric default-y="-80" number="1">
                    <syllabic>single</syllabic>
                    <text>see</text>
                </lyric>
            </note>
            <harmony font-size="12" default-y="15">
                <root>
                    <root-step>A</root-step>
                </root>
                <kind text="7" parentheses-degrees="yes">dominant</kind>
                <degree>
                    <degree-value>9</degree-value>
                    <degree-alter>-1</degree-alter>
                    <degree-type>add</degree-type>
                </degree>
            </harmony>
            <note default-x="110">
                <pitch>
                    <step>B</step>
                    <alter>-1</alter>
                    <octave>4</octave>
                </pitch>
                <duration>2</duration>
                <voice>1</voice>
                <type>quarter</type>
                <accidental>flat</accidental>
                <stem default-y="-55.5">down</stem>
                <lyric default-y="-80" number="1">
                    <syllabic>single</syllabic>
                    <text>In</text>
                </lyric>
            </note>
            <note default-x="164">
                <pitch>
                    <step>A</step>
                    <octave>4</octave>
                </pitch>
                <duration>2</duration>
                <voice>1</voice>
                <type>quarter</type>
                <stem default-y="11">up</stem>
                <lyric default-y="-80" number="1">
                    <syllabic>single</syllabic>
                    <text>the</text>
                </lyric>
            </note>
        </measure>
        <measure width="313" number="29">
            <harmony font-size="12" default-y="15">
                <root>
                    <root-step>D</root-step>
                </root>
                <kind use-symbols="yes">minor-seventh</kind>
            </harmony>
            <note default-x="22">
                <pitch>
                    <step>G</step>
                    <octave>4</octave>
                </pitch>
                <duration>2</duration>
                <voice>1</voice>
                <type>quarter</type>
                <stem default-y="6">up</stem>
                <lyric default-y="-80" number="1">
                    <syllabic>begin</syllabic>
                    <text>eve</text>
                </lyric>
            </note>
            <note default-x="94">
                <pitch>
                    <step>F</step>
                    <octave>4</octave>
                </pitch>
                <duration>2</duration>
                <voice>1</voice>
                <type>quarter</type>
                <stem default-y="0.5">up</stem>
                <lyric default-y="-80" number="1">
                    <syllabic>end</syllabic>
                    <text>ning,</text>
                </lyric>
            </note>
            <note default-x="167">
                <pitch>
                    <step>E</step>
                    <octave>4</octave>
                </pitch>
                <duration>2</duration>
                <voice>1</voice>
                <type>quarter</type>
                <stem default-y="-4.5">up</stem>
                <lyric default-y="-80" number="1">
                    <syllabic>single</syllabic>
                    <text>when</text>
                </lyric>
            </note>
            <note default-x="239">
                <pitch>
                    <step>F</step>
                    <octave>4</octave>
                </pitch>
                <duration>2</duration>
                <voice>1</voice>
                <type>quarter</type>
                <stem default-y="0.5">up</stem>
                <lyric default-y="-80" number="1">
                    <syllabic>single</syllabic>
                    <text>the</text>
                </lyric>
            </note>
        </measure>
        <measure width="188" number="30">
            <harmony font-size="12" default-y="15">
                <root>
                    <root-step>E</root-step>
                </root>
                <kind use-symbols="yes">half-diminished</kind>
            </harmony>
            <note default-x="22">
                <pitch>
                    <step>G</step>
                    <octave>4</octave>
                </pitch>
                <duration>6</duration>
                <voice>1</voice>
                <type>half</type>
                <dot/>
                <stem default-y="6">up</stem>
                <lyric default-y="-80" number="1">
                    <syllabic>single</syllabic>
                    <text>day</text>
                </lyric>
            </note>
            <harmony font-size="12" relative-x="-35" default-y="15">
                <root>
                    <root-step>A</root-step>
                </root>
                <kind>dominant</kind>
                <degree>
                    <degree-value>5</degree-value>
                    <degree-alter>1</degree-alter>
                    <degree-type>alter</degree-type>
                </degree>
                <degree>
                    <degree-value>9</degree-value>
                    <degree-alter>-1</degree-alter>
                    <degree-type>add</degree-type>
                </degree>
            </harmony>
            <note default-x="134">
                <pitch>
                    <step>F</step>
                    <octave>4</octave>
                </pitch>
                <duration>2</duration>
                <voice>1</voice>
                <type>quarter</type>
                <stem default-y="0.5">up</stem>
                <lyric default-y="-80" number="1">
                    <syllabic>single</syllabic>
                    <text>is</text>
                </lyric>
            </note>
        </measure>
        <measure width="176" number="31">
            <print new-system="yes">
                <system-layout>
                    <system-distance>112</system-distance>
                </system-layout>
            </print>
            <harmony font-size="12" default-y="15">
                <root>
                    <root-step>D</root-step>
                </root>
                <kind text="9">dominant-ninth</kind>
            </harmony>
            <note default-x="12">
                <pitch>
                    <step>D</step>
                    <octave>4</octave>
                </pitch>
                <duration>8</duration>
                <tie type="start"/>
                <voice>1</voice>
                <type>whole</type>
                <notations>
                    <tied type="start"/>
                </notations>
                <lyric justify="left" default-y="-85" number="1">
                    <syllabic>single</syllabic>
                    <text>through</text>
                    <extend/>
                </lyric>
            </note>
        </measure>
        <measure width="228" number="32">
            <harmony font-size="12" default-y="15">
                <root>
                    <root-step>G</root-step>
                </root>
                <kind text="9sus4">suspended-fourth</kind>
                <degree print-object="no">
                    <degree-value>7</degree-value>
                    <degree-alter>0</degree-alter>
                    <degree-type>add</degree-type>
                </degree>
                <degree print-object="no">
                    <degree-value>9</degree-value>
                    <degree-alter>0</degree-alter>
                    <degree-type>add</degree-type>
                </degree>
            </harmony>
            <note default-x="10">
                <pitch>
                    <step>D</step>
                    <octave>4</octave>
                </pitch>
                <duration>2</duration>
                <tie type="stop"/>
                <voice>1</voice>
                <type>quarter</type>
                <stem default-y="-9">up</stem>
                <notations>
                    <tied type="stop"/>
                </notations>
            </note>
            <note default-x="63">
                <pitch>
                    <step>B</step>
                    <octave>3</octave>
                </pitch>
                <duration>2</duration>
                <voice>1</voice>
                <type>quarter</type>
                <stem default-y="-19">up</stem>
                <lyric default-y="-85" number="1">
                    <syllabic>single</syllabic>
                    <text>I</text>
                </lyric>
            </note>
            <note default-x="115">
                <pitch>
                    <step>C</step>
                    <octave>4</octave>
                </pitch>
                <duration>2</duration>
                <voice>1</voice>
                <type>quarter</type>
                <stem default-y="-14">up</stem>
                <lyric default-y="-85" number="1">
                    <syllabic>begin</syllabic>
                    <text>on</text>
                </lyric>
            </note>
            <harmony font-size="12" default-y="15">
                <root>
                    <root-step>G</root-step>
                </root>
                <kind text="7" parentheses-degrees="yes">dominant</kind>
                <degree>
                    <degree-value>9</degree-value>
                    <degree-alter>-1</degree-alter>
                    <degree-type>add</degree-type>
                </degree>
            </harmony>
            <note default-x="168">
                <pitch>
                    <step>D</step>
                    <octave>4</octave>
                </pitch>
                <duration>2</duration>
                <voice>1</voice>
                <type>quarter</type>
                <stem default-y="-9">up</stem>
                <lyric default-y="-85" number="1">
                    <syllabic>end</syllabic>
                    <text>ly</text>
                </lyric>
            </note>
            <barline location="right">
                <bar-style>light-light</bar-style>
            </barline>
        </measure>
        <measure width="246" number="33">
            <harmony font-size="12" default-y="15">
                <root>
                    <root-step>C</root-step>
                </root>
                <kind use-symbols="yes">major</kind>
            </harmony>
            <note default-x="30">
                <pitch>
                    <step>E</step>
                    <octave>4</octave>
                </pitch>
                <duration>4</duration>
                <voice>1</voice>
                <type>half</type>
                <stem default-y="-4">up</stem>
                <lyric default-y="-85" number="1">
                    <syllabic>single</syllabic>
                    <text>know</text>
                </lyric>
            </note>
            <harmony font-size="12" default-y="16">
                <root>
                    <root-step>A</root-step>
                </root>
                <kind use-symbols="yes">minor-seventh</kind>
            </harmony>
            <note default-x="128">
                <pitch>
                    <step>C</step>
                    <octave>4</octave>
                </pitch>
                <duration>3</duration>
                <voice>1</voice>
                <type>quarter</type>
                <dot/>
                <stem default-y="-14">up</stem>
                <lyric default-y="-85" number="1">
                    <syllabic>single</syllabic>
                    <text>what</text>
                </lyric>
            </note>
            <note default-x="207">
                <pitch>
                    <step>D</step>
                    <octave>4</octave>
                </pitch>
                <duration>1</duration>
                <voice>1</voice>
                <type>eighth</type>
                <stem default-y="-9">up</stem>
                <lyric default-y="-85" number="1">
                    <syllabic>single</syllabic>
                    <text>I</text>
                </lyric>
            </note>
        </measure>
        <measure width="223" number="34">
            <harmony font-size="12" default-y="15">
                <root>
                    <root-step>D</root-step>
                </root>
                <kind use-symbols="yes">minor-seventh</kind>
            </harmony>
            <note default-x="31">
                <pitch>
                    <step>C</step>
                    <octave>4</octave>
                </pitch>
                <duration>6</duration>
                <voice>1</voice>
                <type>half</type>
                <dot/>
                <stem default-y="-14">up</stem>
                <lyric default-y="-85" number="1">
                    <syllabic>single</syllabic>
                    <text>know</text>
                </lyric>
            </note>
            <harmony font-size="12" default-y="15">
                <root>
                    <root-step>G</root-step>
                </root>
                <kind text="7">dominant</kind>
            </harmony>
            <note default-x="161">
                <pitch>
                    <step>D</step>
                    <octave>4</octave>
                </pitch>
                <duration>2</duration>
                <voice>1</voice>
                <type>quarter</type>
                <stem default-y="-9">up</stem>
                <lyric default-y="-85" number="1">
                    <syllabic>single</syllabic>
                    <text>The</text>
                </lyric>
            </note>
        </measure>
        <measure width="312" number="35">
            <harmony font-size="12" default-y="15">
                <root>
                    <root-step>C</root-step>
                </root>
                <kind use-symbols="yes">major</kind>
            </harmony>
            <note default-x="20">
                <pitch>
                    <step>E</step>
                    <octave>4</octave>
                </pitch>
                <duration>2</duration>
                <voice>1</voice>
                <type>quarter</type>
                <stem default-y="-4">up</stem>
                <lyric default-y="-85" number="1">
                    <syllabic>begin</syllabic>
                    <text>pas</text>
                </lyric>
            </note>
            <note default-x="93">
                <pitch>
                    <step>A</step>
                    <octave>4</octave>
                </pitch>
                <duration>2</duration>
                <voice>1</voice>
                <type>quarter</type>
                <stem default-y="11">up</stem>
                <lyric default-y="-85" number="1">
                    <syllabic>end</syllabic>
                    <text>sing</text>
                </lyric>
            </note>
            <harmony font-size="12" default-y="16">
                <root>
                    <root-step>A</root-step>
                </root>
                <kind use-symbols="yes">minor-seventh</kind>
            </harmony>
            <note default-x="166">
                <pitch>
                    <step>G</step>
                    <octave>4</octave>
                </pitch>
                <duration>2</duration>
                <voice>1</voice>
                <type>quarter</type>
                <stem default-y="6">up</stem>
                <lyric default-y="-85" number="1">
                    <syllabic>single</syllabic>
                    <text>years</text>
                </lyric>
            </note>
            <note default-x="238">
                <pitch>
                    <step>E</step>
                    <octave>4</octave>
                </pitch>
                <duration>2</duration>
                <voice>1</voice>
                <type>quarter</type>
                <stem default-y="-4">up</stem>
                <lyric default-y="-85" number="1">
                    <syllabic>single</syllabic>
                    <text>will</text>
                </lyric>
            </note>
        </measure>
        <measure width="285" number="36">
            <print new-system="yes">
                <system-layout>
                    <system-distance>112</system-distance>
                </system-layout>
            </print>
            <harmony font-size="12" default-y="15">
                <root>
                    <root-step>D</root-step>
                </root>
                <kind use-symbols="yes">minor-seventh</kind>
            </harmony>
            <note default-x="32">
                <pitch>
                    <step>C</step>
                    <octave>4</octave>
                </pitch>
                <duration>6</duration>
                <voice>1</voice>
                <type>half</type>
                <dot/>
                <stem default-y="-14.5">up</stem>
                <lyric default-y="-93" number="1">
                    <syllabic>single</syllabic>
                    <text>show</text>
                </lyric>
            </note>
            <harmony font-size="12" default-y="15">
                <root>
                    <root-step>G</root-step>
                </root>
                <kind text="7">dominant</kind>
            </harmony>
            <note default-x="203">
                <pitch>
                    <step>D</step>
                    <octave>4</octave>
                </pitch>
                <duration>2</duration>
                <voice>1</voice>
                <type>quarter</type>
                <stem default-y="-9.5">up</stem>
                <lyric default-y="-93" number="1">
                    <syllabic>single</syllabic>
                    <text>You've</text>
                </lyric>
            </note>
        </measure>
        <measure width="302" number="37">
            <harmony font-size="12" default-y="15">
                <root>
                    <root-step>C</root-step>
                </root>
                <kind use-symbols="yes">major</kind>
            </harmony>
            <note default-x="26">
                <pitch>
                    <step>E</step>
                    <octave>4</octave>
                </pitch>
                <duration>2</duration>
                <voice>1</voice>
                <type>quarter</type>
                <stem default-y="-4">up</stem>
                <lyric default-y="-93" number="1">
                    <syllabic>single</syllabic>
                    <text>kept</text>
                </lyric>
            </note>
            <note default-x="95">
                <pitch>
                    <step>B</step>
                    <octave>4</octave>
                </pitch>
                <duration>2</duration>
                <voice>1</voice>
                <type>quarter</type>
                <stem default-y="-55.5">down</stem>
                <lyric default-y="-93" number="1">
                    <syllabic>single</syllabic>
                    <text>my</text>
                </lyric>
            </note>
            <note default-x="163">
                <pitch>
                    <step>A</step>
                    <octave>4</octave>
                </pitch>
                <duration>2</duration>
                <voice>1</voice>
                <type>quarter</type>
                <stem default-y="11">up</stem>
                <lyric default-y="-93" number="1">
                    <syllabic>single</syllabic>
                    <text>love</text>
                </lyric>
            </note>
            <note default-x="232">
                <pitch>
                    <step>E</step>
                    <octave>4</octave>
                </pitch>
                <duration>2</duration>
                <voice>1</voice>
                <type>quarter</type>
                <stem default-y="-4">up</stem>
                <lyric default-y="-93" number="1">
                    <syllabic>single</syllabic>
                    <text>so</text>
                </lyric>
            </note>
        </measure>
        <measure width="247" number="38">
            <harmony font-size="12" default-y="15">
                <root>
                    <root-step>G</root-step>
                </root>
                <kind use-symbols="yes">minor-seventh</kind>
            </harmony>
            <note default-x="10">
                <pitch>
                    <step>D</step>
                    <octave>4</octave>
                </pitch>
                <duration>4</duration>
                <voice>1</voice>
                <type>half</type>
                <stem default-y="-9.5">up</stem>
                <lyric justify="left" default-y="-93" number="1">
                    <syllabic>single</syllabic>
                    <text>young,</text>
                    <extend/>
                </lyric>
            </note>
            <harmony font-size="12" default-y="15">
                <root>
                    <root-step>C</root-step>
                </root>
                <kind text="7">dominant</kind>
            </harmony>
            <note default-x="116">
                <rest/>
                <duration>2</duration>
                <voice>1</voice>
                <type>quarter</type>
            </note>
            <note default-x="181">
                <pitch>
                    <step>C</step>
                    <octave>4</octave>
                </pitch>
                <duration>2</duration>
                <voice>1</voice>
                <type>quarter</type>
                <stem default-y="-14.5">up</stem>
                <lyric default-y="-93" number="1">
                    <syllabic>single</syllabic>
                    <text>so</text>
                </lyric>
            </note>
        </measure>
        <measure width="158" number="39">
            <harmony font-size="12" default-y="16">
                <root>
                    <root-step>F</root-step>
                </root>
                <kind use-symbols="yes">major</kind>
            </harmony>
            <note default-x="10">
                <pitch>
                    <step>C</step>
                    <octave>5</octave>
                </pitch>
                <duration>8</duration>
                <tie type="start"/>
                <voice>1</voice>
                <type>whole</type>
                <notations>
                    <tied type="start"/>
                </notations>
                <lyric justify="left" default-y="-93" number="1">
                    <syllabic>single</syllabic>
                    <text>new</text>
                    <extend/>
                </lyric>
            </note>
        </measure>
        <measure width="193" number="40">
            <harmony font-size="12" default-y="15">
                <root>
                    <root-step>F</root-step>
                </root>
                <kind use-symbols="yes">minor-seventh</kind>
            </harmony>
            <note default-x="11">
                <pitch>
                    <step>C</step>
                    <octave>5</octave>
                </pitch>
                <duration>6</duration>
                <tie type="stop"/>
                <voice>1</voice>
                <type>half</type>
                <dot/>
                <stem default-y="-50.5">down</stem>
                <notations>
                    <tied type="stop"/>
                </notations>
            </note>
            <harmony font-size="12" relative-x="-45" default-y="15">
                <root>
                    <root-step>F</root-step>
                </root>
                <kind use-symbols="yes">minor-sixth</kind>
            </harmony>
            <note default-x="131">
                <pitch>
                    <step>C</step>
                    <octave>5</octave>
                </pitch>
                <duration>2</duration>
                <voice>1</voice>
                <type>quarter</type>
                <stem default-y="-50.5">down</stem>
                <lyric default-y="-93" number="1">
                    <syllabic>single</syllabic>
                    <text>&amp;</text>
                </lyric>
            </note>
            <barline location="right">
                <bar-style>light-light</bar-style>
            </barline>
        </measure>
        <measure width="239" number="41">
            <print new-system="yes">
                <system-layout>
                    <system-distance>112</system-distance>
                </system-layout>
            </print>
            <harmony font-size="12" default-y="16">
                <root>
                    <root-step>C</root-step>
                </root>
                <kind text="6">major-sixth</kind>
                <bass>
                    <bass-step>G</bass-step>
                </bass>
            </harmony>
            <note default-x="28">
                <pitch>
                    <step>E</step>
                    <octave>5</octave>
                </pitch>
                <duration>4</duration>
                <voice>1</voice>
                <type>half</type>
                <stem default-y="-40">down</stem>
                <lyric default-y="-80" number="1">
                    <syllabic>single</syllabic>
                    <text>time</text>
                </lyric>
            </note>
            <note default-x="121">
                <pitch>
                    <step>C</step>
                    <octave>5</octave>
                </pitch>
                <duration>3</duration>
                <voice>1</voice>
                <type>quarter</type>
                <dot/>
                <stem default-y="-51">down</stem>
                <lyric default-y="-80" number="1">
                    <syllabic>begin</syllabic>
                    <text>af</text>
                </lyric>
            </note>
            <note default-x="197">
                <pitch>
                    <step>D</step>
                    <octave>5</octave>
                </pitch>
                <duration>1</duration>
                <voice>1</voice>
                <type>eighth</type>
                <stem default-y="-46">down</stem>
                <lyric default-y="-80" number="1">
                    <syllabic>end</syllabic>
                    <text>ter</text>
                </lyric>
            </note>
        </measure>
        <measure width="234" number="42">
            <harmony font-size="12" default-y="15">
                <root>
                    <root-step>F</root-step>
                    <root-alter>1</root-alter>
                </root>
                <kind use-symbols="yes">half-diminished</kind>
            </harmony>
            <note default-x="26">
                <pitch>
                    <step>C</step>
                    <octave>5</octave>
                </pitch>
                <duration>6</duration>
                <voice>1</voice>
                <type>half</type>
                <dot/>
                <stem default-y="-51">down</stem>
                <lyric default-y="-80" number="1">
                    <syllabic>single</syllabic>
                    <text>time</text>
                </lyric>
            </note>
            <harmony font-size="12" relative-x="-55" default-y="15">
                <root>
                    <root-step>F</root-step>
                </root>
                <kind use-symbols="yes">minor-sixth</kind>
            </harmony>
            <note default-x="167">
                <pitch>
                    <step>D</step>
                    <octave>5</octave>
                </pitch>
                <duration>2</duration>
                <voice>1</voice>
                <type>quarter</type>
                <stem default-y="-46">down</stem>
                <lyric default-y="-80" number="1">
                    <syllabic>single</syllabic>
                    <text>You'll</text>
                </lyric>
            </note>
        </measure>
        <measure width="302" number="43">
            <harmony font-size="12" relative-x="16" default-y="17">
                <root>
                    <root-step>E</root-step>
                </root>
                <kind use-symbols="yes">minor-seventh</kind>
            </harmony>
            <note default-x="27">
                <pitch>
                    <step>D</step>
                    <octave>5</octave>
                </pitch>
                <duration>2</duration>
                <voice>1</voice>
                <type>quarter</type>
                <stem default-y="-46">down</stem>
                <lyric default-y="-80" number="1">
                    <syllabic>single</syllabic>
                    <text>hear</text>
                </lyric>
            </note>
            <note default-x="97">
                <pitch>
                    <step>E</step>
                    <octave>5</octave>
                </pitch>
                <duration>2</duration>
                <voice>1</voice>
                <type>quarter</type>
                <stem default-y="-40">down</stem>
                <lyric default-y="-80" number="1">
                    <syllabic>single</syllabic>
                    <text>me</text>
                </lyric>
            </note>
            <harmony font-size="12" default-y="17">
                <root>
                    <root-step>A</root-step>
                </root>
                <kind use-symbols="yes">minor-seventh</kind>
            </harmony>
            <note default-x="164">
                <pitch>
                    <step>C</step>
                    <octave>5</octave>
                </pitch>
                <duration>3</duration>
                <voice>1</voice>
                <type>quarter</type>
                <dot/>
                <stem default-y="-51">down</stem>
                <lyric default-y="-80" number="1">
                    <syllabic>single</syllabic>
                    <text>say</text>
                </lyric>
            </note>
            <note default-x="249">
                <pitch>
                    <step>D</step>
                    <octave>5</octave>
                </pitch>
                <duration>1</duration>
                <voice>1</voice>
                <type>eighth</type>
                <stem default-y="-46">down</stem>
                <lyric default-y="-80" number="1">
                    <syllabic>single</syllabic>
                    <text>that</text>
                </lyric>
            </note>
        </measure>
        <measure width="181" number="44">
            <harmony font-size="12" default-y="15">
                <root>
                    <root-step>D</root-step>
                </root>
                <kind text="9sus4">suspended-fourth</kind>
                <degree print-object="no">
                    <degree-value>7</degree-value>
                    <degree-alter>0</degree-alter>
                    <degree-type>add</degree-type>
                </degree>
                <degree print-object="no">
                    <degree-value>9</degree-value>
                    <degree-alter>0</degree-alter>
                    <degree-type>add</degree-type>
                </degree>
            </harmony>
            <note default-x="19">
                <pitch>
                    <step>C</step>
                    <octave>5</octave>
                </pitch>
                <duration>6</duration>
                <voice>1</voice>
                <type>half</type>
                <dot/>
                <stem default-y="-51">down</stem>
                <lyric default-y="-80" number="1">
                    <syllabic>single</syllabic>
                    <text>I'm</text>
                </lyric>
            </note>
            <harmony font-size="12" relative-x="-37" default-y="15">
                <root>
                    <root-step>D</root-step>
                </root>
                <kind text="7">dominant</kind>
            </harmony>
            <note default-x="129">
                <pitch>
                    <step>D</step>
                    <octave>5</octave>
                </pitch>
                <duration>2</duration>
                <voice>1</voice>
                <type>quarter</type>
                <stem default-y="-46">down</stem>
                <lyric default-y="-80" number="1">
                    <syllabic>single</syllabic>
                    <text>So</text>
                </lyric>
            </note>
        </measure>
        <measure width="230" number="45">
            <harmony font-size="12" default-y="16">
                <root>
                    <root-step>C</root-step>
                </root>
                <kind text="6">major-sixth</kind>
                <bass>
                    <bass-step>G</bass-step>
                </bass>
            </harmony>
            <note default-x="24">
                <pitch>
                    <step>D</step>
                    <octave>5</octave>
                </pitch>
                <duration>2</duration>
                <voice>1</voice>
                <type>quarter</type>
                <stem default-y="-46">down</stem>
                <lyric default-y="-80" number="1">
                    <syllabic>begin</syllabic>
                    <text>luck</text>
                </lyric>
            </note>
            <note default-x="75">
                <pitch>
                    <step>E</step>
                    <octave>5</octave>
                </pitch>
                <duration>2</duration>
                <voice>1</voice>
                <type>quarter</type>
                <stem default-y="-40">down</stem>
                <lyric default-y="-80" number="1">
                    <syllabic>end</syllabic>
                    <text>y</text>
                </lyric>
            </note>
            <harmony font-size="12" default-y="17">
                <root>
                    <root-step>A</root-step>
                </root>
                <kind use-symbols="yes">minor-seventh</kind>
            </harmony>
            <note default-x="126">
                <pitch>
                    <step>C</step>
                    <octave>5</octave>
                </pitch>
                <duration>2</duration>
                <voice>1</voice>
                <type>quarter</type>
                <stem default-y="-51">down</stem>
                <lyric default-y="-80" number="1">
                    <syllabic>single</syllabic>
                    <text>to</text>
                </lyric>
            </note>
            <note default-x="177">
                <pitch>
                    <step>D</step>
                    <octave>5</octave>
                </pitch>
                <duration>2</duration>
                <voice>1</voice>
                <type>quarter</type>
                <stem default-y="-46">down</stem>
                <lyric default-y="-80" number="1">
                    <syllabic>single</syllabic>
                    <text>be</text>
                </lyric>
            </note>
        </measure>
        <measure width="393" number="46">
            <print new-system="yes">
                <system-layout>
                    <system-distance>112</system-distance>
                </system-layout>
            </print>
            <harmony font-size="12" default-y="15">
                <root>
                    <root-step>D</root-step>
                </root>
                <kind use-symbols="yes">minor-seventh</kind>
            </harmony>
            <note default-x="15">
                <pitch>
                    <step>C</step>
                    <octave>5</octave>
                </pitch>
                <duration>6</duration>
                <voice>1</voice>
                <type>half</type>
                <dot/>
                <stem default-y="-50.5">down</stem>
                <lyric default-y="-87" number="1">
                    <syllabic>begin</syllabic>
                    <text>lo</text>
                </lyric>
            </note>
            <harmony font-size="12" relative-x="-83" default-y="15">
                <root>
                    <root-step>G</root-step>
                </root>
                <kind text="7" parentheses-degrees="yes">dominant</kind>
                <degree>
                    <degree-value>9</degree-value>
                    <degree-alter>-1</degree-alter>
                    <degree-type>add</degree-type>
                </degree>
            </harmony>
            <note default-x="272">
                <pitch>
                    <step>B</step>
                    <octave>4</octave>
                </pitch>
                <duration>2</duration>
                <voice>1</voice>
                <type>quarter</type>
                <stem default-y="-55.5">down</stem>
                <lyric default-y="-87" number="1">
                    <syllabic>end</syllabic>
                    <text>ving</text>
                </lyric>
            </note>
        </measure>
        <measure width="316" number="47">
            <harmony font-size="12" default-y="15">
                <root>
                    <root-step>C</root-step>
                </root>
                <kind text="6">major-sixth</kind>
            </harmony>
            <note default-x="10">
                <pitch>
                    <step>C</step>
                    <octave>5</octave>
                </pitch>
                <duration>8</duration>
                <tie type="start"/>
                <voice>1</voice>
                <type>whole</type>
                <notations>
                    <tied type="start"/>
                </notations>
                <lyric justify="left" default-y="-87" number="1">
                    <syllabic>single</syllabic>
                    <text>you</text>
                    <extend/>
                </lyric>
            </note>
        </measure>
        <measure width="477" number="48">
            <harmony font-size="12" default-y="15">
                <root>
                    <root-step>D</root-step>
                </root>
                <kind use-symbols="yes">minor-seventh</kind>
            </harmony>
            <note default-x="11">
                <pitch>
                    <step>C</step>
                    <octave>5</octave>
                </pitch>
                <duration>2</duration>
                <tie type="stop"/>
                <voice>1</voice>
                <type>quarter</type>
                <stem default-y="-50.5">down</stem>
                <notations>
                    <tied type="stop"/>
                </notations>
            </note>
            <note default-x="125">
                <pitch>
                    <step>B</step>
                    <octave>3</octave>
                </pitch>
                <duration>2</duration>
                <voice>1</voice>
                <type>quarter</type>
                <stem default-y="-19.5">up</stem>
            </note>
            <note default-x="239">
                <pitch>
                    <step>C</step>
                    <octave>4</octave>
                </pitch>
                <duration>2</duration>
                <voice>1</voice>
                <type>quarter</type>
                <stem default-y="-14.5">up</stem>
            </note>
            <note default-x="353">
                <pitch>
                    <step>D</step>
                    <octave>4</octave>
                </pitch>
                <duration>2</duration>
                <voice>1</voice>
                <type>quarter</type>
                <stem default-y="-9.5">up</stem>
            </note>
            <direction placement="above">
                <direction-type>
                    <segno default-y="22" default-x="455"/>
                </direction-type>
            </direction>
            <barline location="right">
                <bar-style>light-heavy</bar-style>
            </barline>
        </measure>
    </part>
</score-partwise>
