<?xml version="1.0" encoding="UTF-8"?>
<!DOCTYPE score-partwise PUBLIC "-//Recordare//DTD MusicXML 2.0 Partwise//EN" "http://www.musicxml.org/dtds/partwise.dtd">
<score-partwise version="2.0">
    <work>
        <work-number></work-number>
        <work-title></work-title>
    </work>
    <movement-number></movement-number>
    <movement-title>Cinema Paradiso</movement-title>
    <identification>
        <creator type="composer">Ennio Morricone</creator>
        <creator type="poet"></creator>
        <rights>All Rights Reserved</rights>
        <encoding>
            <software>Finale for Macintosh</software>
            <software>Dolet Light for Finale 2008</software>
            <encoding-date>2011-01-18</encoding-date>
            <software>ProxyMusic 2.0 c</software>
        </encoding>
        <source>http://wikifonia.org/node/9114/revisions/12525/view</source>
    </identification>
    <defaults>
        <scaling>
            <millimeters>6.5088</millimeters>
            <tenths>40</tenths>
        </scaling>
        <page-layout>
            <page-height>1825</page-height>
            <page-width>1291</page-width>
            <page-margins type="both">
                <left-margin>78</left-margin>
                <right-margin>53</right-margin>
                <top-margin>-14</top-margin>
                <bottom-margin>2</bottom-margin>
            </page-margins>
        </page-layout>
        <system-layout>
            <system-margins>
                <left-margin>0</left-margin>
                <right-margin>0</right-margin>
            </system-margins>
            <system-distance>234</system-distance>
            <top-system-distance>70</top-system-distance>
        </system-layout>
        <music-font font-size="18.5" font-family="Jazz"/>
        <word-font font-size="9.2" font-family="JazzText"/>
    </defaults>
    <credit>
        <credit-words font-weight="bold" font-size="10.8" default-y="1776" default-x="1236" justify="right" valign="top">Ennio Morricone</credit-words>
    </credit>
    <credit>
        <credit-words font-size="8.1" default-y="1692" default-x="648" justify="center" valign="bottom">JBB Juin 2009</credit-words>
    </credit>
    <credit>
        <credit-words font-size="21.6" default-y="1782" default-x="525" valign="top">Cinema Paradiso</credit-words>
    </credit>
    <part-list>
        <score-part id="P1">
            <part-name print-object="no">MusicXML Part</part-name>
            <score-instrument id="P1-I1">
                <instrument-name>Grand Piano</instrument-name>
            </score-instrument>
            <midi-instrument id="P1-I1">
                <midi-channel>1</midi-channel>
                <midi-program>1</midi-program>
            </midi-instrument>
        </score-part>
    </part-list>
    <part id="P1">
        <measure width="401" number="1">
            <print>
                <system-layout>
                    <top-system-distance>211</top-system-distance>
                </system-layout>
            </print>
            <attributes>
                <divisions>4</divisions>
                <key>
                    <fifths>-2</fifths>
                    <mode>minor</mode>
                </key>
                <time>
                    <beats>4</beats>
                    <beat-type>4</beat-type>
                </time>
                <clef>
                    <sign>G</sign>
                    <line>2</line>
                </clef>
            </attributes>
            <sound tempo="120"/>
            <harmony font-size="12.3" default-y="12">
                <root>
                    <root-step>G</root-step>
                </root>
                <kind use-symbols="yes">minor</kind>
            </harmony>
            <note default-x="125">
                <pitch>
                    <step>B</step>
                    <alter>-1</alter>
                    <octave>4</octave>
                </pitch>
                <duration>6</duration>
                <voice>1</voice>
                <type>quarter</type>
                <dot/>
                <stem default-y="-56">down</stem>
            </note>
            <note default-x="208">
                <pitch>
                    <step>D</step>
                    <octave>4</octave>
                </pitch>
                <duration>2</duration>
                <voice>1</voice>
                <type>eighth</type>
                <stem default-y="-9">up</stem>
            </note>
            <harmony font-size="12.3" default-y="12">
                <root>
                    <root-step>C</root-step>
                </root>
                <kind use-symbols="yes">minor-seventh</kind>
            </harmony>
            <note default-x="247">
                <pitch>
                    <step>E</step>
                    <alter>-1</alter>
                    <octave>4</octave>
                </pitch>
                <duration>2</duration>
                <voice>1</voice>
                <type>eighth</type>
                <stem default-y="-75">down</stem>
                <beam number="1">begin</beam>
            </note>
            <note default-x="285">
                <pitch>
                    <step>B</step>
                    <alter>-1</alter>
                    <octave>4</octave>
                </pitch>
                <duration>2</duration>
                <voice>1</voice>
                <type>eighth</type>
                <stem default-y="-70">down</stem>
                <beam number="1">end</beam>
            </note>
            <note default-x="325">
                <pitch>
                    <step>A</step>
                    <octave>4</octave>
                </pitch>
                <duration>3</duration>
                <voice>1</voice>
                <type>eighth</type>
                <dot/>
                <stem default-y="10">up</stem>
                <beam number="1">begin</beam>
            </note>
            <note default-x="376">
                <pitch>
                    <step>G</step>
                    <octave>4</octave>
                </pitch>
                <duration>1</duration>
                <voice>1</voice>
                <type>16th</type>
                <stem default-y="5">up</stem>
                <beam number="1">end</beam>
                <beam number="2">backward hook</beam>
            </note>
        </measure>
        <measure width="273" number="2">
            <harmony font-size="12.3" default-y="12">
                <root>
                    <root-step>F</root-step>
                </root>
                <kind text="7">dominant</kind>
            </harmony>
            <note default-x="10">
                <pitch>
                    <step>A</step>
                    <octave>4</octave>
                </pitch>
                <duration>2</duration>
                <voice>1</voice>
                <type>eighth</type>
                <stem default-y="-70">down</stem>
                <beam number="1">begin</beam>
            </note>
            <note default-x="46">
                <pitch>
                    <step>C</step>
                    <octave>5</octave>
                </pitch>
                <duration>2</duration>
                <voice>1</voice>
                <type>eighth</type>
                <stem default-y="-71.5">down</stem>
                <beam number="1">continue</beam>
            </note>
            <note default-x="83">
                <pitch>
                    <step>F</step>
                    <octave>4</octave>
                </pitch>
                <duration>2</duration>
                <voice>1</voice>
                <type>eighth</type>
                <stem default-y="-73">down</stem>
                <beam number="1">continue</beam>
            </note>
            <note default-x="119">
                <pitch>
                    <step>E</step>
                    <alter>-1</alter>
                    <octave>4</octave>
                </pitch>
                <duration>2</duration>
                <voice>1</voice>
                <type>eighth</type>
                <stem default-y="-75">down</stem>
                <beam number="1">end</beam>
            </note>
            <harmony font-size="12.3" default-y="12">
                <root>
                    <root-step>E</root-step>
                    <root-alter>-1</root-alter>
                </root>
                <kind text="">major</kind>
                <bass>
                    <bass-step>B</bass-step>
                    <bass-alter>-1</bass-alter>
                </bass>
            </harmony>
            <note default-x="155">
                <pitch>
                    <step>E</step>
                    <alter>-1</alter>
                    <octave>4</octave>
                </pitch>
                <duration>4</duration>
                <voice>1</voice>
                <type>quarter</type>
                <stem default-y="-4">up</stem>
            </note>
            <harmony font-size="12.3" default-y="12">
                <root>
                    <root-step>B</root-step>
                    <root-alter>-1</root-alter>
                </root>
                <kind text="">major</kind>
            </harmony>
            <note default-x="213">
                <pitch>
                    <step>D</step>
                    <octave>4</octave>
                </pitch>
                <duration>4</duration>
                <voice>1</voice>
                <type>quarter</type>
                <stem default-y="-9">up</stem>
            </note>
        </measure>
        <measure width="202" number="3">
            <attributes>
                <time>
                    <beats>2</beats>
                    <beat-type>4</beat-type>
                </time>
            </attributes>
            <harmony font-size="12.3" default-y="12">
                <root>
                    <root-step>B</root-step>
                    <root-alter>-1</root-alter>
                </root>
                <kind use-symbols="yes">major</kind>
            </harmony>
            <note default-x="42">
                <rest/>
                <duration>2</duration>
                <voice>1</voice>
                <type>eighth</type>
            </note>
            <note default-x="81">
                <pitch>
                    <step>D</step>
                    <octave>4</octave>
                </pitch>
                <duration>2</duration>
                <voice>1</voice>
                <type>eighth</type>
                <stem default-y="-9">up</stem>
            </note>
            <harmony font-size="12.3" default-y="12">
                <root>
                    <root-step>G</root-step>
                </root>
                <kind text="">major</kind>
                <bass>
                    <bass-step>A</bass-step>
                </bass>
            </harmony>
            <note default-x="121">
                <pitch>
                    <step>F</step>
                    <octave>4</octave>
                </pitch>
                <duration>2</duration>
                <voice>1</voice>
                <type>eighth</type>
                <stem default-y="5">up</stem>
                <beam number="1">begin</beam>
            </note>
            <note default-x="161">
                <pitch>
                    <step>A</step>
                    <octave>4</octave>
                </pitch>
                <duration>2</duration>
                <voice>1</voice>
                <type>eighth</type>
                <stem default-y="10">up</stem>
                <beam number="1">end</beam>
            </note>
        </measure>
        <measure width="283" number="4">
            <attributes>
                <time>
                    <beats>4</beats>
                    <beat-type>4</beat-type>
                </time>
            </attributes>
            <harmony font-size="12.3" default-y="12">
                <root>
                    <root-step>G</root-step>
                </root>
                <kind use-symbols="yes">minor-seventh</kind>
            </harmony>
            <note default-x="42">
                <pitch>
                    <step>C</step>
                    <octave>5</octave>
                </pitch>
                <duration>2</duration>
                <voice>1</voice>
                <type>eighth</type>
                <stem default-y="-60">down</stem>
                <beam number="1">begin</beam>
            </note>
            <note default-x="78">
                <pitch>
                    <step>B</step>
                    <alter>-1</alter>
                    <octave>4</octave>
                </pitch>
                <duration>2</duration>
                <voice>1</voice>
                <type>eighth</type>
                <stem default-y="-60">down</stem>
                <beam number="1">continue</beam>
            </note>
            <note default-x="114">
                <pitch>
                    <step>A</step>
                    <octave>4</octave>
                </pitch>
                <duration>2</duration>
                <voice>1</voice>
                <type>eighth</type>
                <stem default-y="-60">down</stem>
                <beam number="1">continue</beam>
            </note>
            <note default-x="151">
                <pitch>
                    <step>B</step>
                    <alter>-1</alter>
                    <octave>4</octave>
                </pitch>
                <duration>2</duration>
                <voice>1</voice>
                <type>eighth</type>
                <stem default-y="-60">down</stem>
                <beam number="1">end</beam>
            </note>
            <harmony font-size="12.3" default-y="12">
                <root>
                    <root-step>D</root-step>
                </root>
                <kind use-symbols="yes">minor</kind>
                <bass>
                    <bass-step>F</bass-step>
                </bass>
            </harmony>
            <note default-x="187">
                <pitch>
                    <step>D</step>
                    <octave>5</octave>
                </pitch>
                <duration>8</duration>
                <voice>1</voice>
                <type>half</type>
                <stem default-y="-45.5">down</stem>
            </note>
        </measure>
        <measure width="266" number="5">
            <print new-system="yes">
                <system-layout>
                    <system-distance>104</system-distance>
                </system-layout>
            </print>
            <harmony font-size="12.3" default-y="23">
                <root>
                    <root-step>E</root-step>
                    <root-alter>-1</root-alter>
                </root>
                <kind use-symbols="yes">major</kind>
            </harmony>
            <note default-x="50">
                <pitch>
                    <step>G</step>
                    <octave>4</octave>
                </pitch>
                <duration>2</duration>
                <voice>1</voice>
                <type>eighth</type>
                <stem default-y="-70">down</stem>
                <beam number="1">begin</beam>
            </note>
            <note default-x="83">
                <pitch>
                    <step>F</step>
                    <alter>1</alter>
                    <octave>4</octave>
                </pitch>
                <duration>2</duration>
                <voice>1</voice>
                <type>eighth</type>
                <accidental>sharp</accidental>
                <stem default-y="-70">down</stem>
                <beam number="1">continue</beam>
            </note>
            <note default-x="115">
                <pitch>
                    <step>G</step>
                    <octave>4</octave>
                </pitch>
                <duration>2</duration>
                <voice>1</voice>
                <type>eighth</type>
                <stem default-y="-70">down</stem>
                <beam number="1">continue</beam>
            </note>
            <note default-x="148">
                <pitch>
                    <step>F</step>
                    <octave>5</octave>
                </pitch>
                <duration>2</duration>
                <voice>1</voice>
                <type>eighth</type>
                <stem default-y="-70">down</stem>
                <beam number="1">end</beam>
            </note>
            <harmony font-size="12.3" default-y="12">
                <root>
                    <root-step>C</root-step>
                </root>
                <kind use-symbols="yes">minor-seventh</kind>
            </harmony>
            <harmony font-size="12.3" relative-x="51" default-y="13">
                <root>
                    <root-step>G</root-step>
                </root>
                <kind text="">major</kind>
                <bass>
                    <bass-step>B</bass-step>
                    <bass-alter>-1</bass-alter>
                </bass>
            </harmony>
            <note default-x="180">
                <pitch>
                    <step>E</step>
                    <alter>-1</alter>
                    <octave>5</octave>
                </pitch>
                <duration>8</duration>
                <voice>1</voice>
                <type>half</type>
                <stem default-y="-40.5">down</stem>
            </note>
        </measure>
        <measure width="255" number="6">
            <harmony font-size="12.3" default-y="12">
                <root>
                    <root-step>A</root-step>
                </root>
                <kind use-symbols="yes">half-diminished</kind>
            </harmony>
            <note default-x="10">
                <pitch>
                    <step>G</step>
                    <octave>4</octave>
                </pitch>
                <duration>2</duration>
                <voice>1</voice>
                <type>eighth</type>
                <stem default-y="-65">down</stem>
                <beam number="1">begin</beam>
            </note>
            <note default-x="40">
                <pitch>
                    <step>C</step>
                    <octave>5</octave>
                </pitch>
                <duration>2</duration>
                <voice>1</voice>
                <type>eighth</type>
                <stem default-y="-65">down</stem>
                <beam number="1">continue</beam>
            </note>
            <note default-x="71">
                <pitch>
                    <step>G</step>
                    <octave>5</octave>
                </pitch>
                <duration>2</duration>
                <voice>1</voice>
                <type>eighth</type>
                <stem default-y="-65">down</stem>
                <beam number="1">continue</beam>
            </note>
            <note default-x="102">
                <pitch>
                    <step>F</step>
                    <octave>5</octave>
                </pitch>
                <duration>2</duration>
                <voice>1</voice>
                <type>eighth</type>
                <stem default-y="-65">down</stem>
                <beam number="1">end</beam>
            </note>
            <harmony font-size="12.3" default-y="12">
                <root>
                    <root-step>D</root-step>
                </root>
                <kind text="7" parentheses-degrees="yes">dominant</kind>
                <degree>
                    <degree-value>5</degree-value>
                    <degree-alter>1</degree-alter>
                    <degree-type>alter</degree-type>
                </degree>
            </harmony>
            <note default-x="132">
                <pitch>
                    <step>F</step>
                    <octave>5</octave>
                </pitch>
                <duration>2</duration>
                <voice>1</voice>
                <type>eighth</type>
                <stem default-y="-45">down</stem>
                <beam number="1">begin</beam>
            </note>
            <note default-x="162">
                <pitch>
                    <step>E</step>
                    <alter>-1</alter>
                    <octave>5</octave>
                </pitch>
                <duration>2</duration>
                <voice>1</voice>
                <type>eighth</type>
                <stem default-y="-46">down</stem>
                <beam number="1">continue</beam>
            </note>
            <note default-x="193">
                <pitch>
                    <step>D</step>
                    <octave>5</octave>
                </pitch>
                <duration>2</duration>
                <voice>1</voice>
                <type>eighth</type>
                <stem default-y="-48.5">down</stem>
                <beam number="1">continue</beam>
            </note>
            <note default-x="223">
                <pitch>
                    <step>C</step>
                    <octave>5</octave>
                </pitch>
                <duration>2</duration>
                <voice>1</voice>
                <type>eighth</type>
                <stem default-y="-50">down</stem>
                <beam number="1">end</beam>
            </note>
        </measure>
        <measure width="230" number="7">
            <harmony font-size="12.3" default-y="12">
                <root>
                    <root-step>G</root-step>
                </root>
                <kind use-symbols="yes">minor</kind>
            </harmony>
            <note default-x="11">
                <pitch>
                    <step>B</step>
                    <alter>-1</alter>
                    <octave>4</octave>
                </pitch>
                <duration>6</duration>
                <voice>1</voice>
                <type>quarter</type>
                <dot/>
                <stem default-y="-55.5">down</stem>
            </note>
            <note default-x="76">
                <pitch>
                    <step>B</step>
                    <alter>-1</alter>
                    <octave>4</octave>
                </pitch>
                <duration>2</duration>
                <voice>1</voice>
                <type>eighth</type>
                <stem default-y="-55.5">down</stem>
            </note>
            <note default-x="106">
                <pitch>
                    <step>C</step>
                    <octave>5</octave>
                </pitch>
                <duration>2</duration>
                <voice>1</voice>
                <type>eighth</type>
                <stem default-y="-65">down</stem>
                <beam number="1">begin</beam>
            </note>
            <note default-x="137">
                <pitch>
                    <step>B</step>
                    <alter>-1</alter>
                    <octave>4</octave>
                </pitch>
                <duration>2</duration>
                <voice>1</voice>
                <type>eighth</type>
                <stem default-y="-66.5">down</stem>
                <beam number="1">continue</beam>
            </note>
            <harmony font-size="12.3" default-y="12">
                <root>
                    <root-step>D</root-step>
                </root>
                <kind use-symbols="yes">minor</kind>
                <bass>
                    <bass-step>F</bass-step>
                </bass>
            </harmony>
            <note default-x="167">
                <pitch>
                    <step>A</step>
                    <octave>4</octave>
                </pitch>
                <duration>2</duration>
                <voice>1</voice>
                <type>eighth</type>
                <stem default-y="-68">down</stem>
                <beam number="1">continue</beam>
            </note>
            <note default-x="198">
                <pitch>
                    <step>F</step>
                    <octave>4</octave>
                </pitch>
                <duration>2</duration>
                <voice>1</voice>
                <type>eighth</type>
                <stem default-y="-70">down</stem>
                <beam number="1">end</beam>
            </note>
        </measure>
        <measure width="232" number="8">
            <harmony font-size="12.3" default-y="12">
                <root>
                    <root-step>E</root-step>
                    <root-alter>-1</root-alter>
                </root>
                <kind use-symbols="yes">major</kind>
            </harmony>
            <note default-x="10">
                <pitch>
                    <step>G</step>
                    <octave>4</octave>
                </pitch>
                <duration>4</duration>
                <voice>1</voice>
                <type>quarter</type>
                <stem default-y="6">up</stem>
            </note>
            <note default-x="59">
                <pitch>
                    <step>G</step>
                    <octave>4</octave>
                </pitch>
                <duration>2</duration>
                <voice>1</voice>
                <type>eighth</type>
                <stem default-y="5">up</stem>
                <beam number="1">begin</beam>
            </note>
            <note default-x="90">
                <pitch>
                    <step>D</step>
                    <octave>4</octave>
                </pitch>
                <duration>2</duration>
                <voice>1</voice>
                <type>eighth</type>
                <stem default-y="2.5">up</stem>
                <beam number="1">end</beam>
            </note>
            <harmony font-size="12.3" default-y="12">
                <root>
                    <root-step>E</root-step>
                </root>
                <kind use-symbols="yes">diminished</kind>
            </harmony>
            <note default-x="120">
                <pitch>
                    <step>G</step>
                    <octave>4</octave>
                </pitch>
                <duration>4</duration>
                <voice>1</voice>
                <type>quarter</type>
                <stem default-y="6">up</stem>
            </note>
            <note default-x="169">
                <pitch>
                    <step>A</step>
                    <octave>4</octave>
                </pitch>
                <duration>2</duration>
                <voice>1</voice>
                <type>eighth</type>
                <stem default-y="10">up</stem>
                <beam number="1">begin</beam>
            </note>
            <note default-x="200">
                <pitch>
                    <step>B</step>
                    <alter>-1</alter>
                    <octave>4</octave>
                </pitch>
                <duration>2</duration>
                <voice>1</voice>
                <type>eighth</type>
                <stem default-y="15">up</stem>
                <beam number="1">end</beam>
            </note>
        </measure>
        <measure width="177" number="9">
            <harmony font-size="12.3" default-y="12">
                <root>
                    <root-step>A</root-step>
                </root>
                <kind use-symbols="yes">half-diminished</kind>
                <bass>
                    <bass-step>D</bass-step>
                </bass>
            </harmony>
            <note default-x="10">
                <pitch>
                    <step>A</step>
                    <octave>4</octave>
                </pitch>
                <duration>8</duration>
                <voice>1</voice>
                <type>half</type>
                <stem default-y="10.5">up</stem>
            </note>
            <harmony font-size="12.3" default-y="12">
                <root>
                    <root-step>D</root-step>
                </root>
                <kind text="7">dominant</kind>
            </harmony>
            <note default-x="88">
                <rest/>
                <duration>8</duration>
                <voice>1</voice>
                <type>half</type>
            </note>
            <barline location="right">
                <bar-style>light-light</bar-style>
            </barline>
        </measure>
        <measure width="346" number="10">
            <print new-system="yes">
                <system-layout>
                    <system-distance>100</system-distance>
                </system-layout>
            </print>
            <harmony font-size="12.3" default-y="12">
                <root>
                    <root-step>G</root-step>
                </root>
                <kind use-symbols="yes">minor</kind>
            </harmony>
            <note default-x="54">
                <pitch>
                    <step>B</step>
                    <alter>-1</alter>
                    <octave>4</octave>
                </pitch>
                <duration>4</duration>
                <voice>1</voice>
                <type>quarter</type>
                <stem default-y="-55.5">down</stem>
            </note>
            <note default-x="116">
                <pitch>
                    <step>B</step>
                    <alter>-1</alter>
                    <octave>3</octave>
                </pitch>
                <duration>2</duration>
                <voice>1</voice>
                <type>eighth</type>
                <stem default-y="-20">up</stem>
                <beam number="1">begin</beam>
            </note>
            <note default-x="154">
                <pitch>
                    <step>D</step>
                    <octave>4</octave>
                </pitch>
                <duration>2</duration>
                <voice>1</voice>
                <type>eighth</type>
                <stem default-y="-17.5">up</stem>
                <beam number="1">end</beam>
            </note>
            <harmony font-size="12.3" default-y="12">
                <root>
                    <root-step>C</root-step>
                </root>
                <kind use-symbols="yes">minor-seventh</kind>
            </harmony>
            <note default-x="193">
                <pitch>
                    <step>E</step>
                    <alter>-1</alter>
                    <octave>4</octave>
                </pitch>
                <duration>2</duration>
                <voice>1</voice>
                <type>eighth</type>
                <stem default-y="-75">down</stem>
                <beam number="1">begin</beam>
            </note>
            <note default-x="231">
                <pitch>
                    <step>B</step>
                    <alter>-1</alter>
                    <octave>4</octave>
                </pitch>
                <duration>2</duration>
                <voice>1</voice>
                <type>eighth</type>
                <stem default-y="-70">down</stem>
                <beam number="1">end</beam>
            </note>
            <note default-x="270">
                <pitch>
                    <step>A</step>
                    <octave>4</octave>
                </pitch>
                <duration>3</duration>
                <voice>1</voice>
                <type>eighth</type>
                <dot/>
                <stem default-y="10">up</stem>
                <beam number="1">begin</beam>
            </note>
            <note default-x="321">
                <pitch>
                    <step>G</step>
                    <octave>4</octave>
                </pitch>
                <duration>1</duration>
                <voice>1</voice>
                <type>16th</type>
                <stem default-y="5">up</stem>
                <beam number="1">end</beam>
                <beam number="2">backward hook</beam>
            </note>
        </measure>
        <measure width="277" number="11">
            <harmony font-size="12.3" default-y="12">
                <root>
                    <root-step>F</root-step>
                </root>
                <kind text="7">dominant</kind>
            </harmony>
            <note default-x="10">
                <pitch>
                    <step>A</step>
                    <octave>4</octave>
                </pitch>
                <duration>2</duration>
                <voice>1</voice>
                <type>eighth</type>
                <stem default-y="-70">down</stem>
                <beam number="1">begin</beam>
            </note>
            <note default-x="47">
                <pitch>
                    <step>C</step>
                    <octave>5</octave>
                </pitch>
                <duration>2</duration>
                <voice>1</voice>
                <type>eighth</type>
                <stem default-y="-72">down</stem>
                <beam number="1">continue</beam>
            </note>
            <note default-x="83">
                <pitch>
                    <step>F</step>
                    <octave>4</octave>
                </pitch>
                <duration>2</duration>
                <voice>1</voice>
                <type>eighth</type>
                <stem default-y="-73">down</stem>
                <beam number="1">continue</beam>
            </note>
            <note default-x="120">
                <pitch>
                    <step>E</step>
                    <alter>-1</alter>
                    <octave>4</octave>
                </pitch>
                <duration>2</duration>
                <voice>1</voice>
                <type>eighth</type>
                <stem default-y="-75">down</stem>
                <beam number="1">end</beam>
            </note>
            <harmony font-size="12.3" default-y="12">
                <root>
                    <root-step>E</root-step>
                    <root-alter>-1</root-alter>
                </root>
                <kind text="">major</kind>
                <bass>
                    <bass-step>B</bass-step>
                    <bass-alter>-1</bass-alter>
                </bass>
            </harmony>
            <note default-x="157">
                <pitch>
                    <step>E</step>
                    <alter>-1</alter>
                    <octave>4</octave>
                </pitch>
                <duration>4</duration>
                <voice>1</voice>
                <type>quarter</type>
                <stem default-y="-4.5">up</stem>
            </note>
            <harmony font-size="12.3" relative-x="14" default-y="12">
                <root>
                    <root-step>B</root-step>
                    <root-alter>-1</root-alter>
                </root>
                <kind text="">major</kind>
            </harmony>
            <note default-x="216">
                <pitch>
                    <step>D</step>
                    <octave>4</octave>
                </pitch>
                <duration>4</duration>
                <voice>1</voice>
                <type>quarter</type>
                <stem default-y="-9">up</stem>
            </note>
        </measure>
        <measure width="204" number="12">
            <attributes>
                <time>
                    <beats>2</beats>
                    <beat-type>4</beat-type>
                </time>
            </attributes>
            <harmony font-size="12.3" default-y="12">
                <root>
                    <root-step>B</root-step>
                    <root-alter>-1</root-alter>
                </root>
                <kind use-symbols="yes">major</kind>
            </harmony>
            <note default-x="42">
                <rest/>
                <duration>2</duration>
                <voice>1</voice>
                <type>eighth</type>
            </note>
            <note default-x="82">
                <pitch>
                    <step>D</step>
                    <octave>4</octave>
                </pitch>
                <duration>2</duration>
                <voice>1</voice>
                <type>eighth</type>
                <stem default-y="-9">up</stem>
            </note>
            <harmony font-size="12.3" default-y="12">
                <root>
                    <root-step>G</root-step>
                </root>
                <kind text="">major</kind>
                <bass>
                    <bass-step>A</bass-step>
                </bass>
            </harmony>
            <note default-x="122">
                <pitch>
                    <step>F</step>
                    <octave>4</octave>
                </pitch>
                <duration>2</duration>
                <voice>1</voice>
                <type>eighth</type>
                <stem default-y="5">up</stem>
                <beam number="1">begin</beam>
            </note>
            <note default-x="162">
                <pitch>
                    <step>A</step>
                    <octave>4</octave>
                </pitch>
                <duration>2</duration>
                <voice>1</voice>
                <type>eighth</type>
                <stem default-y="10">up</stem>
                <beam number="1">end</beam>
            </note>
        </measure>
        <measure width="333" number="13">
            <attributes>
                <time>
                    <beats>4</beats>
                    <beat-type>4</beat-type>
                </time>
            </attributes>
            <harmony font-size="12.3" default-y="12">
                <root>
                    <root-step>G</root-step>
                </root>
                <kind use-symbols="yes">minor-seventh</kind>
            </harmony>
            <note default-x="42">
                <pitch>
                    <step>C</step>
                    <octave>5</octave>
                </pitch>
                <duration>2</duration>
                <voice>1</voice>
                <type>eighth</type>
                <stem default-y="-60">down</stem>
                <beam number="1">begin</beam>
            </note>
            <note default-x="80">
                <pitch>
                    <step>B</step>
                    <alter>-1</alter>
                    <octave>4</octave>
                </pitch>
                <duration>2</duration>
                <voice>1</voice>
                <type>eighth</type>
                <stem default-y="-60">down</stem>
                <beam number="1">continue</beam>
            </note>
            <note default-x="118">
                <pitch>
                    <step>A</step>
                    <octave>4</octave>
                </pitch>
                <duration>2</duration>
                <voice>1</voice>
                <type>eighth</type>
                <stem default-y="-60">down</stem>
                <beam number="1">continue</beam>
            </note>
            <note default-x="156">
                <pitch>
                    <step>B</step>
                    <alter>-1</alter>
                    <octave>4</octave>
                </pitch>
                <duration>2</duration>
                <voice>1</voice>
                <type>eighth</type>
                <stem default-y="-60">down</stem>
                <beam number="1">end</beam>
            </note>
            <harmony font-size="12.3" default-y="12">
                <root>
                    <root-step>D</root-step>
                </root>
                <kind use-symbols="yes">minor</kind>
                <bass>
                    <bass-step>F</bass-step>
                </bass>
            </harmony>
            <note default-x="194">
                <pitch>
                    <step>D</step>
                    <octave>5</octave>
                </pitch>
                <duration>2</duration>
                <voice>1</voice>
                <type>eighth</type>
                <stem default-y="-46">down</stem>
            </note>
            <note default-x="232">
                <pitch>
                    <step>D</step>
                    <octave>5</octave>
                </pitch>
                <duration>4</duration>
                <voice>1</voice>
                <type>quarter</type>
                <stem default-y="-46">down</stem>
            </note>
            <note default-x="294">
                <pitch>
                    <step>A</step>
                    <octave>4</octave>
                </pitch>
                <duration>2</duration>
                <voice>1</voice>
                <type>eighth</type>
                <stem default-y="11">up</stem>
            </note>
        </measure>
        <measure width="411" number="14">
            <print new-system="yes">
                <system-layout>
                    <system-distance>109</system-distance>
                </system-layout>
            </print>
            <harmony font-size="12.3" default-y="22">
                <root>
                    <root-step>E</root-step>
                    <root-alter>-1</root-alter>
                </root>
                <kind use-symbols="yes">major</kind>
            </harmony>
            <note default-x="50">
                <pitch>
                    <step>G</step>
                    <octave>4</octave>
                </pitch>
                <duration>2</duration>
                <voice>1</voice>
                <type>eighth</type>
                <stem default-y="-70">down</stem>
                <beam number="1">begin</beam>
            </note>
            <note default-x="105">
                <pitch>
                    <step>F</step>
                    <alter>1</alter>
                    <octave>4</octave>
                </pitch>
                <duration>2</duration>
                <voice>1</voice>
                <type>eighth</type>
                <accidental>sharp</accidental>
                <stem default-y="-70">down</stem>
                <beam number="1">continue</beam>
            </note>
            <note default-x="159">
                <pitch>
                    <step>G</step>
                    <octave>4</octave>
                </pitch>
                <duration>2</duration>
                <voice>1</voice>
                <type>eighth</type>
                <stem default-y="-70">down</stem>
                <beam number="1">continue</beam>
            </note>
            <note default-x="214">
                <pitch>
                    <step>F</step>
                    <octave>5</octave>
                </pitch>
                <duration>2</duration>
                <voice>1</voice>
                <type>eighth</type>
                <accidental>natural</accidental>
                <stem default-y="-70">down</stem>
                <beam number="1">end</beam>
            </note>
            <harmony font-size="12.3" default-y="12">
                <root>
                    <root-step>C</root-step>
                </root>
                <kind use-symbols="yes">minor-seventh</kind>
            </harmony>
            <harmony font-size="12.3" relative-x="51" default-y="13">
                <root>
                    <root-step>G</root-step>
                </root>
                <kind text="">major</kind>
                <bass>
                    <bass-step>B</bass-step>
                    <bass-alter>-1</bass-alter>
                </bass>
            </harmony>
            <note default-x="268">
                <pitch>
                    <step>E</step>
                    <alter>-1</alter>
                    <octave>5</octave>
                </pitch>
                <duration>8</duration>
                <tie type="start"/>
                <voice>1</voice>
                <type>half</type>
                <stem default-y="-41">down</stem>
                <notations>
                    <tied type="start"/>
                </notations>
            </note>
        </measure>
        <measure width="393" number="15">
            <harmony font-size="12.3" default-y="12">
                <root>
                    <root-step>A</root-step>
                </root>
                <kind use-symbols="yes">half-diminished</kind>
            </harmony>
            <note default-x="10">
                <pitch>
                    <step>E</step>
                    <alter>-1</alter>
                    <octave>5</octave>
                </pitch>
                <duration>2</duration>
                <tie type="stop"/>
                <voice>1</voice>
                <type>eighth</type>
                <stem default-y="-50">down</stem>
                <beam number="1">begin</beam>
                <notations>
                    <tied type="stop"/>
                </notations>
            </note>
            <note default-x="58">
                <pitch>
                    <step>C</step>
                    <octave>5</octave>
                </pitch>
                <duration>2</duration>
                <voice>1</voice>
                <type>eighth</type>
                <stem default-y="-50">down</stem>
                <beam number="1">continue</beam>
            </note>
            <note default-x="106">
                <pitch>
                    <step>G</step>
                    <octave>5</octave>
                </pitch>
                <duration>2</duration>
                <voice>1</voice>
                <type>eighth</type>
                <stem default-y="-50">down</stem>
                <beam number="1">continue</beam>
            </note>
            <note default-x="153">
                <pitch>
                    <step>F</step>
                    <octave>5</octave>
                </pitch>
                <duration>2</duration>
                <voice>1</voice>
                <type>eighth</type>
                <stem default-y="-50">down</stem>
                <beam number="1">end</beam>
            </note>
            <harmony font-size="12.3" default-y="12">
                <root>
                    <root-step>D</root-step>
                </root>
                <kind text="7" parentheses-degrees="yes">dominant</kind>
                <degree>
                    <degree-value>5</degree-value>
                    <degree-alter>1</degree-alter>
                    <degree-type>alter</degree-type>
                </degree>
            </harmony>
            <note default-x="201">
                <pitch>
                    <step>F</step>
                    <octave>5</octave>
                </pitch>
                <duration>2</duration>
                <voice>1</voice>
                <type>eighth</type>
                <stem default-y="-45">down</stem>
                <beam number="1">begin</beam>
            </note>
            <note default-x="249">
                <pitch>
                    <step>E</step>
                    <alter>-1</alter>
                    <octave>5</octave>
                </pitch>
                <duration>2</duration>
                <voice>1</voice>
                <type>eighth</type>
                <stem default-y="-46.5">down</stem>
                <beam number="1">continue</beam>
            </note>
            <note default-x="296">
                <pitch>
                    <step>D</step>
                    <octave>5</octave>
                </pitch>
                <duration>2</duration>
                <voice>1</voice>
                <type>eighth</type>
                <stem default-y="-48">down</stem>
                <beam number="1">continue</beam>
            </note>
            <note default-x="344">
                <pitch>
                    <step>C</step>
                    <octave>5</octave>
                </pitch>
                <duration>2</duration>
                <voice>1</voice>
                <type>eighth</type>
                <stem default-y="-50">down</stem>
                <beam number="1">end</beam>
            </note>
        </measure>
        <measure width="355" number="16">
            <harmony font-size="12.3" default-y="12">
                <root>
                    <root-step>G</root-step>
                </root>
                <kind use-symbols="yes">minor</kind>
            </harmony>
            <note default-x="11">
                <pitch>
                    <step>B</step>
                    <alter>-1</alter>
                    <octave>4</octave>
                </pitch>
                <duration>6</duration>
                <voice>1</voice>
                <type>quarter</type>
                <dot/>
                <stem default-y="-56">down</stem>
            </note>
            <note default-x="113">
                <pitch>
                    <step>B</step>
                    <alter>-1</alter>
                    <octave>4</octave>
                </pitch>
                <duration>2</duration>
                <voice>1</voice>
                <type>eighth</type>
                <stem default-y="-56">down</stem>
            </note>
            <note default-x="161">
                <pitch>
                    <step>C</step>
                    <octave>5</octave>
                </pitch>
                <duration>2</duration>
                <voice>1</voice>
                <type>eighth</type>
                <stem default-y="-65">down</stem>
                <beam number="1">begin</beam>
            </note>
            <note default-x="209">
                <pitch>
                    <step>B</step>
                    <alter>-1</alter>
                    <octave>4</octave>
                </pitch>
                <duration>2</duration>
                <voice>1</voice>
                <type>eighth</type>
                <stem default-y="-67">down</stem>
                <beam number="1">continue</beam>
            </note>
            <harmony font-size="12.3" default-y="12">
                <root>
                    <root-step>D</root-step>
                </root>
                <kind use-symbols="yes">minor</kind>
                <bass>
                    <bass-step>F</bass-step>
                </bass>
            </harmony>
            <note default-x="258">
                <pitch>
                    <step>A</step>
                    <octave>4</octave>
                </pitch>
                <duration>2</duration>
                <voice>1</voice>
                <type>eighth</type>
                <stem default-y="-68">down</stem>
                <beam number="1">continue</beam>
            </note>
            <note default-x="305">
                <pitch>
                    <step>F</step>
                    <octave>4</octave>
                </pitch>
                <duration>2</duration>
                <voice>1</voice>
                <type>eighth</type>
                <stem default-y="-70">down</stem>
                <beam number="1">end</beam>
            </note>
        </measure>
        <measure width="444" number="17">
            <print new-system="yes">
                <system-layout>
                    <system-distance>108</system-distance>
                </system-layout>
            </print>
            <harmony font-size="12.3" default-y="12">
                <root>
                    <root-step>E</root-step>
                    <root-alter>-1</root-alter>
                </root>
                <kind use-symbols="yes">major</kind>
            </harmony>
            <note default-x="51">
                <pitch>
                    <step>G</step>
                    <octave>4</octave>
                </pitch>
                <duration>8</duration>
                <tie type="start"/>
                <voice>1</voice>
                <type>half</type>
                <stem default-y="6">up</stem>
                <notations>
                    <tied type="start"/>
                </notations>
            </note>
            <harmony font-size="12.3" default-y="12">
                <root>
                    <root-step>E</root-step>
                </root>
                <kind use-symbols="yes">diminished</kind>
            </harmony>
            <note default-x="215">
                <pitch>
                    <step>G</step>
                    <octave>4</octave>
                </pitch>
                <duration>4</duration>
                <tie type="stop"/>
                <voice>1</voice>
                <type>quarter</type>
                <stem default-y="6">up</stem>
                <notations>
                    <tied type="stop"/>
                </notations>
            </note>
            <note default-x="317">
                <pitch>
                    <step>A</step>
                    <octave>4</octave>
                </pitch>
                <duration>2</duration>
                <voice>1</voice>
                <type>eighth</type>
                <stem default-y="10">up</stem>
                <beam number="1">begin</beam>
            </note>
            <note default-x="380">
                <pitch>
                    <step>B</step>
                    <alter>-1</alter>
                    <octave>4</octave>
                </pitch>
                <duration>2</duration>
                <voice>1</voice>
                <type>eighth</type>
                <stem default-y="15">up</stem>
                <beam number="1">end</beam>
            </note>
        </measure>
        <measure width="335" number="18">
            <harmony font-size="12.3" default-y="12">
                <root>
                    <root-step>B</root-step>
                    <root-alter>-1</root-alter>
                </root>
                <kind text="">major</kind>
                <bass>
                    <bass-step>F</bass-step>
                </bass>
            </harmony>
            <note default-x="10">
                <pitch>
                    <step>F</step>
                    <octave>4</octave>
                </pitch>
                <duration>12</duration>
                <voice>1</voice>
                <type>half</type>
                <dot/>
                <stem default-y="0.5">up</stem>
            </note>
            <harmony font-size="12.3" relative-x="-41" default-y="12">
                <root>
                    <root-step>F</root-step>
                </root>
                <kind text="7">dominant</kind>
            </harmony>
            <note default-x="230">
                <pitch>
                    <step>E</step>
                    <alter>-1</alter>
                    <octave>4</octave>
                </pitch>
                <duration>4</duration>
                <voice>1</voice>
                <type>quarter</type>
                <stem default-y="-4">up</stem>
            </note>
        </measure>
        <measure width="381" number="19">
            <harmony font-size="12.3" default-y="12">
                <root>
                    <root-step>F</root-step>
                </root>
                <kind text="7">dominant</kind>
                <bass>
                    <bass-step>B</bass-step>
                    <bass-alter>-1</bass-alter>
                </bass>
            </harmony>
            <note default-x="10">
                <pitch>
                    <step>E</step>
                    <alter>-1</alter>
                    <octave>4</octave>
                </pitch>
                <duration>8</duration>
                <voice>1</voice>
                <type>half</type>
                <stem default-y="-4">up</stem>
            </note>
            <harmony font-size="12.3" default-y="12">
                <root>
                    <root-step>B</root-step>
                    <root-alter>-1</root-alter>
                </root>
                <kind text="">major</kind>
            </harmony>
            <note default-x="171">
                <pitch>
                    <step>D</step>
                    <octave>4</octave>
                </pitch>
                <duration>4</duration>
                <voice>1</voice>
                <type>quarter</type>
                <stem default-y="-9">up</stem>
            </note>
            <harmony font-size="12.3" default-y="12">
                <root>
                    <root-step>D</root-step>
                </root>
                <kind text="7" parentheses-degrees="yes">dominant</kind>
                <degree>
                    <degree-value>5</degree-value>
                    <degree-alter>1</degree-alter>
                    <degree-type>alter</degree-type>
                </degree>
            </harmony>
            <note default-x="272">
                <rest/>
                <duration>4</duration>
                <voice>1</voice>
                <type>quarter</type>
            </note>
            <barline location="right">
                <bar-style>light-heavy</bar-style>
            </barline>
        </measure>
    </part>
</score-partwise>
