<?xml version="1.0" encoding="UTF-8"?>
<!DOCTYPE score-partwise PUBLIC "-//Recordare//DTD MusicXML 2.0 Partwise//EN" "http://www.musicxml.org/dtds/partwise.dtd">
<score-partwise version="2.0">
    <work>
        <work-number></work-number>
        <work-title></work-title>
    </work>
    <movement-number></movement-number>
    <movement-title>Bye Bye Blackbird</movement-title>
    <identification>
        <creator type="composer">Mort Dixon, Ray Henderson</creator>
        <creator type="poet"></creator>
        <rights>Creative Commons BY-NC-SA</rights>
        <encoding>
            <software>PrintMusic 2008 for Windows</software>
            <software>Dolet Light for PrintMusic 2008</software>
            <encoding-date>2008-12-09</encoding-date>
            <software>ProxyMusic 2.0 c</software>
        </encoding>
        <source>http://wikifonia.org/node/979/revisions/19231/view</source>
    </identification>
    <defaults>
        <scaling>
            <millimeters>7.2319</millimeters>
            <tenths>40</tenths>
        </scaling>
        <page-layout>
            <page-height>1545</page-height>
            <page-width>1194</page-width>
            <page-margins type="both">
                <left-margin>140</left-margin>
                <right-margin>70</right-margin>
                <top-margin>88</top-margin>
                <bottom-margin>88</bottom-margin>
            </page-margins>
        </page-layout>
        <system-layout>
            <system-margins>
                <left-margin>0</left-margin>
                <right-margin>0</right-margin>
            </system-margins>
            <system-distance>112</system-distance>
            <top-system-distance>112</top-system-distance>
        </system-layout>
        <music-font font-size="20.5" font-family="Jazz"/>
        <word-font font-size="12" font-family="JazzText"/>
        <lyric-font font-size="10.25" font-family="JazzText" name="verse"/>
    </defaults>
    <credit>
        <credit-words font-weight="bold" font-size="24" default-y="1458" default-x="632" justify="center" valign="top">Bye Bye Blackbird</credit-words>
    </credit>
    <credit>
        <credit-words font-weight="bold" font-size="12" default-y="1428" default-x="1122" justify="right" valign="top">Ray Henderson, Mort Dixon</credit-words>
    </credit>
    <credit>
        <credit-words font-size="10" default-y="47" default-x="632" justify="center" valign="bottom">© Dan Parshall</credit-words>
    </credit>
    <part-list>
        <score-part id="P1">
            <part-name print-object="no">MusicXML Part</part-name>
            <score-instrument id="P1-I1">
                <instrument-name>Choir Aahs</instrument-name>
            </score-instrument>
            <midi-instrument id="P1-I1">
                <midi-channel>1</midi-channel>
                <midi-program>53</midi-program>
            </midi-instrument>
        </score-part>
    </part-list>
    <part id="P1">
        <measure width="328" number="1">
            <attributes>
                <divisions>1</divisions>
                <key>
                    <fifths>-1</fifths>
                    <mode>major</mode>
                </key>
                <time symbol="common">
                    <beats>4</beats>
                    <beat-type>4</beat-type>
                </time>
                <clef>
                    <sign>G</sign>
                    <line>2</line>
                </clef>
            </attributes>
            <sound tempo="120"/>
            <harmony font-size="15.4" default-y="17">
                <root>
                    <root-step>F</root-step>
                </root>
                <kind text="">major</kind>
            </harmony>
            <note default-x="118">
                <pitch>
                    <step>A</step>
                    <octave>4</octave>
                </pitch>
                <duration>1</duration>
                <voice>1</voice>
                <type>quarter</type>
                <stem default-y="11">up</stem>
                <lyric default-y="-80" number="1">
                    <syllabic>single</syllabic>
                    <text>Pack</text>
                </lyric>
            </note>
            <note default-x="170">
                <pitch>
                    <step>A</step>
                    <octave>4</octave>
                </pitch>
                <duration>1</duration>
                <voice>1</voice>
                <type>quarter</type>
                <stem default-y="11">up</stem>
                <lyric default-y="-80" number="1">
                    <syllabic>single</syllabic>
                    <text>up</text>
                </lyric>
            </note>
            <note default-x="222">
                <pitch>
                    <step>A</step>
                    <octave>4</octave>
                </pitch>
                <duration>1</duration>
                <voice>1</voice>
                <type>quarter</type>
                <stem default-y="11">up</stem>
                <lyric default-y="-80" number="1">
                    <syllabic>single</syllabic>
                    <text>all</text>
                </lyric>
            </note>
            <note default-x="275">
                <pitch>
                    <step>A</step>
                    <octave>4</octave>
                </pitch>
                <duration>1</duration>
                <voice>1</voice>
                <type>quarter</type>
                <stem default-y="11">up</stem>
                <lyric default-y="-80" number="1">
                    <syllabic>single</syllabic>
                    <text>my</text>
                </lyric>
            </note>
        </measure>
        <measure width="222" number="2">
            <harmony font-size="15.4" default-y="17">
                <root>
                    <root-step>G</root-step>
                </root>
                <kind use-symbols="yes">minor</kind>
            </harmony>
            <note default-x="19">
                <pitch>
                    <step>B</step>
                    <alter>-1</alter>
                    <octave>4</octave>
                </pitch>
                <duration>1</duration>
                <voice>1</voice>
                <type>quarter</type>
                <stem default-y="-55.5">down</stem>
                <lyric default-y="-80" number="1">
                    <syllabic>single</syllabic>
                    <text>care</text>
                </lyric>
            </note>
            <note default-x="75">
                <pitch>
                    <step>A</step>
                    <octave>4</octave>
                </pitch>
                <duration>1</duration>
                <voice>1</voice>
                <type>quarter</type>
                <stem default-y="11">up</stem>
                <lyric default-y="-80" number="1">
                    <syllabic>single</syllabic>
                    <text>and</text>
                </lyric>
            </note>
            <harmony font-size="15.4" default-y="17">
                <root>
                    <root-step>F</root-step>
                </root>
                <kind text="6">major-sixth</kind>
            </harmony>
            <note default-x="130">
                <pitch>
                    <step>A</step>
                    <octave>4</octave>
                </pitch>
                <duration>2</duration>
                <voice>1</voice>
                <type>half</type>
                <stem default-y="11">up</stem>
                <lyric default-y="-80" number="1">
                    <syllabic>single</syllabic>
                    <text>woe,</text>
                </lyric>
            </note>
        </measure>
        <measure width="218" number="3">
            <harmony font-size="15.4" default-y="17">
                <root>
                    <root-step>B</root-step>
                    <root-alter>-1</root-alter>
                </root>
                <kind text="Maj7">major-seventh</kind>
            </harmony>
            <note default-x="23">
                <pitch>
                    <step>A</step>
                    <octave>4</octave>
                </pitch>
                <duration>1</duration>
                <voice>1</voice>
                <type>quarter</type>
                <stem default-y="11">up</stem>
                <lyric default-y="-80" number="1">
                    <syllabic>single</syllabic>
                    <text>there</text>
                </lyric>
            </note>
            <harmony font-size="15.4" default-y="17">
                <root>
                    <root-step>C</root-step>
                </root>
                <kind text="7">dominant</kind>
            </harmony>
            <note default-x="77">
                <pitch>
                    <step>G</step>
                    <octave>4</octave>
                </pitch>
                <duration>1</duration>
                <voice>1</voice>
                <type>quarter</type>
                <stem default-y="5.5">up</stem>
                <lyric default-y="-80" number="1">
                    <syllabic>single</syllabic>
                    <text>I</text>
                </lyric>
            </note>
            <note default-x="130">
                <pitch>
                    <step>G</step>
                    <octave>4</octave>
                </pitch>
                <duration>2</duration>
                <voice>1</voice>
                <type>half</type>
                <stem default-y="5.5">up</stem>
                <lyric default-y="-80" number="1">
                    <syllabic>single</syllabic>
                    <text>go</text>
                </lyric>
            </note>
        </measure>
        <measure width="215" number="4">
            <harmony font-size="15.4" default-y="17">
                <root>
                    <root-step>C</root-step>
                </root>
                <kind text="min">minor</kind>
            </harmony>
            <note default-x="20">
                <pitch>
                    <step>G</step>
                    <octave>4</octave>
                </pitch>
                <duration>1</duration>
                <voice>1</voice>
                <type>quarter</type>
                <stem default-y="5.5">up</stem>
                <lyric default-y="-80" number="1">
                    <syllabic>begin</syllabic>
                    <text>sing</text>
                </lyric>
            </note>
            <harmony font-size="15.4" default-y="17">
                <root>
                    <root-step>F</root-step>
                </root>
                <kind text="6">major-sixth</kind>
            </harmony>
            <note default-x="73">
                <pitch>
                    <step>F</step>
                    <octave>4</octave>
                </pitch>
                <duration>1</duration>
                <voice>1</voice>
                <type>quarter</type>
                <stem default-y="0.5">up</stem>
                <lyric default-y="-80" number="1">
                    <syllabic>end</syllabic>
                    <text>ing</text>
                </lyric>
            </note>
            <note default-x="127">
                <pitch>
                    <step>F</step>
                    <octave>4</octave>
                </pitch>
                <duration>2</duration>
                <voice>1</voice>
                <type>half</type>
                <stem default-y="0.5">up</stem>
                <lyric default-y="-80" number="1">
                    <syllabic>single</syllabic>
                    <text>low.</text>
                </lyric>
            </note>
        </measure>
        <measure width="288" number="5">
            <print new-system="yes"/>
            <harmony font-size="15.4" default-y="17">
                <root>
                    <root-step>D</root-step>
                </root>
                <kind text="min7">minor-seventh</kind>
            </harmony>
            <note default-x="86">
                <pitch>
                    <step>F</step>
                    <octave>4</octave>
                </pitch>
                <duration>4</duration>
                <voice>1</voice>
                <type>whole</type>
                <lyric default-y="-80" number="1">
                    <syllabic>single</syllabic>
                    <text>Bye,</text>
                </lyric>
            </note>
        </measure>
        <measure width="219" number="6">
            <harmony font-size="15.4" default-y="17">
                <root>
                    <root-step>G</root-step>
                </root>
                <kind use-symbols="yes">minor</kind>
            </harmony>
            <note default-x="18">
                <pitch>
                    <step>G</step>
                    <octave>4</octave>
                </pitch>
                <duration>4</duration>
                <voice>1</voice>
                <type>whole</type>
                <lyric default-y="-80" number="1">
                    <syllabic>single</syllabic>
                    <text>bye,</text>
                </lyric>
            </note>
        </measure>
        <measure width="274" number="7">
            <harmony font-size="15.4" default-y="17">
                <root>
                    <root-step>C</root-step>
                </root>
                <kind text="7">dominant</kind>
            </harmony>
            <note default-x="24">
                <pitch>
                    <step>F</step>
                    <octave>4</octave>
                </pitch>
                <duration>2</duration>
                <voice>1</voice>
                <type>half</type>
                <stem default-y="1">up</stem>
                <lyric default-y="-80" number="1">
                    <syllabic>begin</syllabic>
                    <text>black</text>
                </lyric>
            </note>
            <harmony font-size="15.4" default-y="17">
                <root>
                    <root-step>A</root-step>
                </root>
                <kind text="min7">minor-seventh</kind>
            </harmony>
            <note default-x="148">
                <pitch>
                    <step>E</step>
                    <octave>4</octave>
                </pitch>
                <duration>2</duration>
                <tie type="start"/>
                <voice>1</voice>
                <type>half</type>
                <stem default-y="-4.5">up</stem>
                <notations>
                    <tied type="start"/>
                </notations>
                <lyric justify="left" default-y="-80" number="1">
                    <syllabic>end</syllabic>
                    <text>bird.</text>
                    <extend/>
                </lyric>
            </note>
        </measure>
        <measure width="202" number="8">
            <note default-x="10">
                <pitch>
                    <step>E</step>
                    <octave>4</octave>
                </pitch>
                <duration>4</duration>
                <tie type="stop"/>
                <voice>1</voice>
                <type>whole</type>
                <notations>
                    <tied type="stop"/>
                </notations>
            </note>
        </measure>
        <measure width="337" number="9">
            <print new-system="yes"/>
            <harmony font-size="15.4" default-y="17">
                <root>
                    <root-step>G</root-step>
                </root>
                <kind use-symbols="yes">minor</kind>
            </harmony>
            <note default-x="93">
                <pitch>
                    <step>B</step>
                    <alter>-1</alter>
                    <octave>4</octave>
                </pitch>
                <duration>1</duration>
                <voice>1</voice>
                <type>quarter</type>
                <stem default-y="-55.5">down</stem>
                <lyric default-y="-80" number="1">
                    <syllabic>single</syllabic>
                    <text>Where</text>
                </lyric>
            </note>
            <note default-x="154">
                <pitch>
                    <step>B</step>
                    <alter>-1</alter>
                    <octave>4</octave>
                </pitch>
                <duration>1</duration>
                <voice>1</voice>
                <type>quarter</type>
                <stem default-y="-55.5">down</stem>
                <lyric default-y="-80" number="1">
                    <syllabic>single</syllabic>
                    <text>some</text>
                </lyric>
            </note>
            <note default-x="214">
                <pitch>
                    <step>B</step>
                    <alter>-1</alter>
                    <octave>4</octave>
                </pitch>
                <duration>1</duration>
                <voice>1</voice>
                <type>quarter</type>
                <stem default-y="-55.5">down</stem>
                <lyric default-y="-80" number="1">
                    <syllabic>begin</syllabic>
                    <text>bod</text>
                </lyric>
            </note>
            <note default-x="275">
                <pitch>
                    <step>B</step>
                    <alter>-1</alter>
                    <octave>4</octave>
                </pitch>
                <duration>1</duration>
                <voice>1</voice>
                <type>quarter</type>
                <stem default-y="-55.5">down</stem>
                <lyric default-y="-80" number="1">
                    <syllabic>end</syllabic>
                    <text>y</text>
                </lyric>
            </note>
        </measure>
        <measure width="227" number="10">
            <harmony font-size="15.4" default-y="17">
                <root>
                    <root-step>A</root-step>
                </root>
                <kind text="7">dominant</kind>
            </harmony>
            <note default-x="24">
                <pitch>
                    <step>C</step>
                    <octave>5</octave>
                </pitch>
                <duration>1</duration>
                <voice>1</voice>
                <type>quarter</type>
                <stem default-y="-50.5">down</stem>
                <lyric default-y="-80" number="1">
                    <syllabic>single</syllabic>
                    <text>waits</text>
                </lyric>
            </note>
            <note default-x="79">
                <pitch>
                    <step>B</step>
                    <alter>-1</alter>
                    <octave>4</octave>
                </pitch>
                <duration>1</duration>
                <voice>1</voice>
                <type>quarter</type>
                <stem default-y="-55.5">down</stem>
                <lyric default-y="-80" number="1">
                    <syllabic>single</syllabic>
                    <text>for</text>
                </lyric>
            </note>
            <note default-x="135">
                <pitch>
                    <step>B</step>
                    <alter>-1</alter>
                    <octave>4</octave>
                </pitch>
                <duration>2</duration>
                <voice>1</voice>
                <type>half</type>
                <stem default-y="-55.5">down</stem>
                <lyric default-y="-80" number="1">
                    <syllabic>single</syllabic>
                    <text>me,</text>
                </lyric>
            </note>
        </measure>
        <measure width="219" number="11">
            <harmony font-size="15.4" default-y="17">
                <root>
                    <root-step>C</root-step>
                </root>
                <kind text="7">dominant</kind>
            </harmony>
            <note default-x="17">
                <pitch>
                    <step>B</step>
                    <alter>-1</alter>
                    <octave>4</octave>
                </pitch>
                <duration>1</duration>
                <voice>1</voice>
                <type>quarter</type>
                <stem default-y="-55.5">down</stem>
                <lyric default-y="-80" number="1">
                    <syllabic>begin</syllabic>
                    <text>sug</text>
                </lyric>
            </note>
            <harmony font-size="15.4" default-y="17">
                <root>
                    <root-step>A</root-step>
                </root>
                <kind use-symbols="yes">minor-seventh</kind>
            </harmony>
            <note default-x="72">
                <pitch>
                    <step>A</step>
                    <octave>4</octave>
                </pitch>
                <duration>1</duration>
                <voice>1</voice>
                <type>quarter</type>
                <stem default-y="10.5">up</stem>
                <lyric default-y="-80" number="1">
                    <syllabic>end</syllabic>
                    <text>ar</text>
                </lyric>
            </note>
            <note default-x="128">
                <pitch>
                    <step>A</step>
                    <octave>4</octave>
                </pitch>
                <duration>2</duration>
                <voice>1</voice>
                <type>half</type>
                <stem default-y="10.5">up</stem>
                <lyric default-y="-80" number="1">
                    <syllabic>single</syllabic>
                    <text>sweet,</text>
                </lyric>
            </note>
        </measure>
        <measure width="201" number="12">
            <harmony font-size="15.4" default-y="17">
                <root>
                    <root-step>B</root-step>
                    <root-alter>-1</root-alter>
                </root>
                <kind text="Maj7">major-seventh</kind>
            </harmony>
            <note default-x="11">
                <pitch>
                    <step>A</step>
                    <octave>4</octave>
                </pitch>
                <duration>1</duration>
                <voice>1</voice>
                <type>quarter</type>
                <stem default-y="10.5">up</stem>
                <lyric default-y="-80" number="1">
                    <syllabic>single</syllabic>
                    <text>so</text>
                </lyric>
            </note>
            <harmony font-size="15.4" default-y="17">
                <root>
                    <root-step>C</root-step>
                </root>
                <kind text="7">dominant</kind>
            </harmony>
            <note default-x="63">
                <pitch>
                    <step>G</step>
                    <octave>4</octave>
                </pitch>
                <duration>1</duration>
                <voice>1</voice>
                <type>quarter</type>
                <stem default-y="5.5">up</stem>
                <lyric default-y="-80" number="1">
                    <syllabic>single</syllabic>
                    <text>is</text>
                </lyric>
            </note>
            <note default-x="115">
                <pitch>
                    <step>G</step>
                    <octave>4</octave>
                </pitch>
                <duration>2</duration>
                <voice>1</voice>
                <type>half</type>
                <stem default-y="5.5">up</stem>
                <lyric default-y="-80" number="1">
                    <syllabic>single</syllabic>
                    <text>he.</text>
                </lyric>
            </note>
        </measure>
        <measure width="288" number="13">
            <print new-system="yes"/>
            <harmony font-size="15.4" default-y="17">
                <root>
                    <root-step>G</root-step>
                </root>
                <kind use-symbols="yes">minor-seventh</kind>
            </harmony>
            <note default-x="86">
                <pitch>
                    <step>G</step>
                    <octave>4</octave>
                </pitch>
                <duration>4</duration>
                <voice>1</voice>
                <type>whole</type>
                <lyric default-y="-80" number="1">
                    <syllabic>single</syllabic>
                    <text>Bye,</text>
                </lyric>
            </note>
        </measure>
        <measure width="219" number="14">
            <harmony font-size="15.4" default-y="17">
                <root>
                    <root-step>C</root-step>
                </root>
                <kind text="7">dominant</kind>
            </harmony>
            <note default-x="18">
                <pitch>
                    <step>A</step>
                    <octave>4</octave>
                </pitch>
                <duration>4</duration>
                <voice>1</voice>
                <type>whole</type>
                <lyric default-y="-80" number="1">
                    <syllabic>single</syllabic>
                    <text>bye,</text>
                </lyric>
            </note>
        </measure>
        <measure width="274" number="15">
            <harmony font-size="15.4" default-y="17">
                <root>
                    <root-step>F</root-step>
                </root>
                <kind text="">major</kind>
            </harmony>
            <note default-x="24">
                <pitch>
                    <step>G</step>
                    <octave>4</octave>
                </pitch>
                <duration>2</duration>
                <voice>1</voice>
                <type>half</type>
                <stem default-y="5.5">up</stem>
                <lyric default-y="-80" number="1">
                    <syllabic>begin</syllabic>
                    <text>black</text>
                </lyric>
            </note>
            <note default-x="148">
                <pitch>
                    <step>F</step>
                    <octave>4</octave>
                </pitch>
                <duration>2</duration>
                <tie type="start"/>
                <voice>1</voice>
                <type>half</type>
                <stem default-y="0.5">up</stem>
                <notations>
                    <tied type="start"/>
                </notations>
                <lyric justify="left" default-y="-80" number="1">
                    <syllabic>end</syllabic>
                    <text>bird.</text>
                    <extend/>
                </lyric>
            </note>
        </measure>
        <measure width="202" number="16">
            <note default-x="10">
                <pitch>
                    <step>F</step>
                    <octave>4</octave>
                </pitch>
                <duration>4</duration>
                <tie type="stop"/>
                <voice>1</voice>
                <type>whole</type>
                <notations>
                    <tied type="stop"/>
                </notations>
            </note>
        </measure>
        <measure width="329" number="17">
            <print new-system="yes"/>
            <harmony font-size="15.4" default-y="17">
                <root>
                    <root-step>F</root-step>
                </root>
                <kind text="7">dominant</kind>
            </harmony>
            <note default-x="80">
                <pitch>
                    <step>F</step>
                    <octave>4</octave>
                </pitch>
                <duration>1</duration>
                <voice>1</voice>
                <type>quarter</type>
                <stem default-y="0.5">up</stem>
                <lyric default-y="-80" number="1">
                    <syllabic>single</syllabic>
                    <text>No</text>
                </lyric>
            </note>
            <note default-x="141">
                <pitch>
                    <step>C</step>
                    <octave>5</octave>
                </pitch>
                <duration>1</duration>
                <voice>1</voice>
                <type>quarter</type>
                <stem default-y="-50">down</stem>
                <lyric default-y="-80" number="1">
                    <syllabic>single</syllabic>
                    <text>one</text>
                </lyric>
            </note>
            <note default-x="203">
                <pitch>
                    <step>C</step>
                    <octave>5</octave>
                </pitch>
                <duration>1</duration>
                <voice>1</voice>
                <type>quarter</type>
                <stem default-y="-50">down</stem>
                <lyric default-y="-80" number="1">
                    <syllabic>single</syllabic>
                    <text>here</text>
                </lyric>
            </note>
            <note default-x="266">
                <pitch>
                    <step>C</step>
                    <octave>5</octave>
                </pitch>
                <duration>1</duration>
                <voice>1</voice>
                <type>quarter</type>
                <stem default-y="-50">down</stem>
                <lyric default-y="-80" number="1">
                    <syllabic>single</syllabic>
                    <text>can</text>
                </lyric>
            </note>
        </measure>
        <measure width="271" number="18">
            <harmony font-size="15.4" default-y="17">
                <root>
                    <root-step>F</root-step>
                </root>
                <kind text="7">dominant</kind>
            </harmony>
            <note default-x="19">
                <pitch>
                    <step>C</step>
                    <octave>5</octave>
                </pitch>
                <duration>1</duration>
                <voice>1</voice>
                <type>quarter</type>
                <stem default-y="-50">down</stem>
                <lyric default-y="-80" number="1">
                    <syllabic>single</syllabic>
                    <text>love</text>
                </lyric>
            </note>
            <note default-x="82">
                <pitch>
                    <step>B</step>
                    <alter>-1</alter>
                    <octave>4</octave>
                </pitch>
                <duration>1</duration>
                <voice>1</voice>
                <type>quarter</type>
                <stem default-y="-55.5">down</stem>
                <lyric default-y="-80" number="1">
                    <syllabic>single</syllabic>
                    <text>and</text>
                </lyric>
            </note>
            <note default-x="144">
                <pitch>
                    <step>A</step>
                    <octave>4</octave>
                </pitch>
                <duration>1</duration>
                <voice>1</voice>
                <type>quarter</type>
                <stem default-y="11">up</stem>
                <lyric default-y="-80" number="1">
                    <syllabic>begin</syllabic>
                    <text>und</text>
                </lyric>
            </note>
            <note default-x="207">
                <pitch>
                    <step>G</step>
                    <octave>4</octave>
                </pitch>
                <duration>1</duration>
                <voice>1</voice>
                <type>quarter</type>
                <stem default-y="5.5">up</stem>
                <lyric default-y="-80" number="1">
                    <syllabic>end</syllabic>
                    <text>er</text>
                </lyric>
            </note>
        </measure>
        <measure width="192" number="19">
            <harmony font-size="15.4" default-y="17">
                <root>
                    <root-step>C</root-step>
                </root>
                <kind text="min6">minor-sixth</kind>
            </harmony>
            <note default-x="25">
                <pitch>
                    <step>G</step>
                    <octave>4</octave>
                </pitch>
                <duration>4</duration>
                <voice>1</voice>
                <type>whole</type>
                <lyric default-y="-80" number="1">
                    <syllabic>single</syllabic>
                    <text>stand</text>
                </lyric>
            </note>
        </measure>
        <measure width="191" number="20">
            <harmony font-size="15.4" default-y="17">
                <root>
                    <root-step>D</root-step>
                </root>
                <kind text="7">dominant</kind>
            </harmony>
            <note default-x="24">
                <pitch>
                    <step>F</step>
                    <alter>1</alter>
                    <octave>4</octave>
                </pitch>
                <duration>4</duration>
                <voice>1</voice>
                <type>whole</type>
                <accidental>sharp</accidental>
                <lyric default-y="-80" number="1">
                    <syllabic>single</syllabic>
                    <text>me.</text>
                </lyric>
            </note>
        </measure>
        <measure width="354" number="21">
            <print new-system="yes"/>
            <harmony font-size="15.4" default-y="17">
                <root>
                    <root-step>G</root-step>
                </root>
                <kind use-symbols="yes">minor</kind>
            </harmony>
            <note default-x="81">
                <pitch>
                    <step>D</step>
                    <octave>4</octave>
                </pitch>
                <duration>1</duration>
                <voice>1</voice>
                <type>quarter</type>
                <stem default-y="-9.5">up</stem>
                <lyric default-y="-80" number="1">
                    <syllabic>single</syllabic>
                    <text>Oh,</text>
                </lyric>
            </note>
            <note default-x="149">
                <pitch>
                    <step>B</step>
                    <alter>-1</alter>
                    <octave>4</octave>
                </pitch>
                <duration>1</duration>
                <voice>1</voice>
                <type>quarter</type>
                <stem default-y="-55">down</stem>
                <lyric default-y="-80" number="1">
                    <syllabic>single</syllabic>
                    <text>what</text>
                </lyric>
            </note>
            <harmony font-size="15.4" default-y="17">
                <root>
                    <root-step>B</root-step>
                    <root-alter>-1</root-alter>
                </root>
                <kind text="Maj6">major-sixth</kind>
            </harmony>
            <note default-x="217">
                <pitch>
                    <step>B</step>
                    <alter>-1</alter>
                    <octave>4</octave>
                </pitch>
                <duration>1</duration>
                <voice>1</voice>
                <type>quarter</type>
                <stem default-y="-55">down</stem>
                <lyric default-y="-80" number="1">
                    <syllabic>single</syllabic>
                    <text>hard</text>
                </lyric>
            </note>
            <note default-x="285">
                <pitch>
                    <step>B</step>
                    <alter>-1</alter>
                    <octave>4</octave>
                </pitch>
                <duration>1</duration>
                <voice>1</voice>
                <type>quarter</type>
                <stem default-y="-55">down</stem>
                <lyric default-y="-80" number="1">
                    <syllabic>single</syllabic>
                    <text>luck</text>
                </lyric>
            </note>
        </measure>
        <measure width="271" number="22">
            <harmony font-size="15.4" default-y="17">
                <root>
                    <root-step>F</root-step>
                </root>
                <kind text="">major</kind>
            </harmony>
            <note default-x="20">
                <pitch>
                    <step>B</step>
                    <alter>-1</alter>
                    <octave>4</octave>
                </pitch>
                <duration>1</duration>
                <voice>1</voice>
                <type>quarter</type>
                <stem default-y="-55">down</stem>
                <lyric default-y="-80" number="1">
                    <syllabic>begin</syllabic>
                    <text>stor</text>
                </lyric>
            </note>
            <note default-x="82">
                <pitch>
                    <step>A</step>
                    <octave>4</octave>
                </pitch>
                <duration>1</duration>
                <voice>1</voice>
                <type>quarter</type>
                <stem default-y="10.5">up</stem>
                <lyric default-y="-80" number="1">
                    <syllabic>end</syllabic>
                    <text>ies</text>
                </lyric>
            </note>
            <harmony font-size="15.4" default-y="17">
                <root>
                    <root-step>G</root-step>
                </root>
                <kind text="7">dominant</kind>
            </harmony>
            <note default-x="145">
                <pitch>
                    <step>G</step>
                    <octave>4</octave>
                </pitch>
                <duration>1</duration>
                <voice>1</voice>
                <type>quarter</type>
                <stem default-y="6">up</stem>
                <lyric default-y="-80" number="1">
                    <syllabic>single</syllabic>
                    <text>they</text>
                </lyric>
            </note>
            <note default-x="207">
                <pitch>
                    <step>F</step>
                    <octave>4</octave>
                </pitch>
                <duration>1</duration>
                <voice>1</voice>
                <type>quarter</type>
                <stem default-y="1">up</stem>
                <lyric default-y="-80" number="1">
                    <syllabic>single</syllabic>
                    <text>all</text>
                </lyric>
            </note>
        </measure>
        <measure width="184" number="23">
            <harmony font-size="15.4" default-y="17">
                <root>
                    <root-step>B</root-step>
                    <root-alter>-1</root-alter>
                </root>
                <kind text="min6">minor-sixth</kind>
            </harmony>
            <note default-x="21">
                <pitch>
                    <step>F</step>
                    <octave>4</octave>
                </pitch>
                <duration>4</duration>
                <voice>1</voice>
                <type>whole</type>
                <lyric default-y="-80" number="1">
                    <syllabic>single</syllabic>
                    <text>hand</text>
                </lyric>
            </note>
        </measure>
        <measure width="174" number="24">
            <harmony font-size="15.4" default-y="17">
                <root>
                    <root-step>C</root-step>
                </root>
                <kind text="7">dominant</kind>
            </harmony>
            <note default-x="15">
                <pitch>
                    <step>E</step>
                    <octave>4</octave>
                </pitch>
                <duration>4</duration>
                <voice>1</voice>
                <type>whole</type>
                <lyric default-y="-80" number="1">
                    <syllabic>single</syllabic>
                    <text>me.</text>
                </lyric>
            </note>
        </measure>
        <measure width="306" number="25">
            <print new-system="yes"/>
            <harmony font-size="15.4" default-y="17">
                <root>
                    <root-step>F</root-step>
                </root>
                <kind text="">major</kind>
            </harmony>
            <note default-x="88">
                <pitch>
                    <step>A</step>
                    <octave>4</octave>
                </pitch>
                <duration>1</duration>
                <voice>1</voice>
                <type>quarter</type>
                <stem default-y="10.5">up</stem>
                <lyric default-y="-80" number="1">
                    <syllabic>single</syllabic>
                    <text>Make</text>
                </lyric>
            </note>
            <note default-x="142">
                <pitch>
                    <step>A</step>
                    <octave>4</octave>
                </pitch>
                <duration>1</duration>
                <voice>1</voice>
                <type>quarter</type>
                <stem default-y="10.5">up</stem>
                <lyric default-y="-80" number="1">
                    <syllabic>single</syllabic>
                    <text>my</text>
                </lyric>
            </note>
            <note default-x="196">
                <pitch>
                    <step>A</step>
                    <octave>4</octave>
                </pitch>
                <duration>1</duration>
                <voice>1</voice>
                <type>quarter</type>
                <stem default-y="10.5">up</stem>
                <lyric default-y="-80" number="1">
                    <syllabic>single</syllabic>
                    <text>bed</text>
                </lyric>
            </note>
            <note default-x="250">
                <pitch>
                    <step>A</step>
                    <octave>4</octave>
                </pitch>
                <duration>1</duration>
                <voice>1</voice>
                <type>quarter</type>
                <stem default-y="10.5">up</stem>
                <lyric default-y="-80" number="1">
                    <syllabic>single</syllabic>
                    <text>and</text>
                </lyric>
            </note>
        </measure>
        <measure width="240" number="26">
            <harmony font-size="15.4" default-y="17">
                <root>
                    <root-step>G</root-step>
                </root>
                <kind use-symbols="yes">minor</kind>
            </harmony>
            <note default-x="23">
                <pitch>
                    <step>B</step>
                    <alter>-1</alter>
                    <octave>4</octave>
                </pitch>
                <duration>1</duration>
                <voice>1</voice>
                <type>quarter</type>
                <stem default-y="-55.5">down</stem>
                <lyric default-y="-80" number="1">
                    <syllabic>single</syllabic>
                    <text>light</text>
                </lyric>
            </note>
            <harmony font-size="15.4" default-y="17">
                <root>
                    <root-step>F</root-step>
                </root>
                <kind text="">major</kind>
            </harmony>
            <note default-x="83">
                <pitch>
                    <step>A</step>
                    <octave>4</octave>
                </pitch>
                <duration>1</duration>
                <voice>1</voice>
                <type>quarter</type>
                <stem default-y="10.5">up</stem>
                <lyric default-y="-80" number="1">
                    <syllabic>single</syllabic>
                    <text>the</text>
                </lyric>
            </note>
            <note default-x="142">
                <pitch>
                    <step>A</step>
                    <octave>4</octave>
                </pitch>
                <duration>2</duration>
                <voice>1</voice>
                <type>half</type>
                <stem default-y="10.5">up</stem>
                <lyric default-y="-80" number="1">
                    <syllabic>single</syllabic>
                    <text>light,</text>
                </lyric>
            </note>
        </measure>
        <measure width="209" number="27">
            <harmony font-size="15.4" default-y="17">
                <root>
                    <root-step>B</root-step>
                    <root-alter>-1</root-alter>
                </root>
                <kind text="Maj7">major-seventh</kind>
            </harmony>
            <note default-x="17">
                <pitch>
                    <step>A</step>
                    <octave>4</octave>
                </pitch>
                <duration>1</duration>
                <voice>1</voice>
                <type>quarter</type>
                <stem default-y="10.5">up</stem>
                <lyric default-y="-80" number="1">
                    <syllabic>single</syllabic>
                    <text>I'll</text>
                </lyric>
            </note>
            <harmony font-size="15.4" default-y="17">
                <root>
                    <root-step>C</root-step>
                </root>
                <kind text="7">dominant</kind>
            </harmony>
            <note default-x="69">
                <pitch>
                    <step>G</step>
                    <octave>4</octave>
                </pitch>
                <duration>1</duration>
                <voice>1</voice>
                <type>quarter</type>
                <stem default-y="5.5">up</stem>
                <lyric default-y="-80" number="1">
                    <syllabic>begin</syllabic>
                    <text>ar</text>
                </lyric>
            </note>
            <note default-x="122">
                <pitch>
                    <step>G</step>
                    <octave>4</octave>
                </pitch>
                <duration>2</duration>
                <voice>1</voice>
                <type>half</type>
                <stem default-y="5.5">up</stem>
                <lyric default-y="-80" number="1">
                    <syllabic>end</syllabic>
                    <text>rive</text>
                </lyric>
            </note>
        </measure>
        <measure width="229" number="28">
            <harmony font-size="15.4" default-y="17">
                <root>
                    <root-step>C</root-step>
                </root>
                <kind text="min6">minor-sixth</kind>
            </harmony>
            <note default-x="19">
                <pitch>
                    <step>G</step>
                    <octave>4</octave>
                </pitch>
                <duration>1</duration>
                <voice>1</voice>
                <type>quarter</type>
                <stem default-y="5.5">up</stem>
                <lyric default-y="-80" number="1">
                    <syllabic>single</syllabic>
                    <text>late</text>
                </lyric>
            </note>
            <harmony font-size="15.4" default-y="17">
                <root>
                    <root-step>D</root-step>
                </root>
                <kind text="7">dominant</kind>
            </harmony>
            <note default-x="77">
                <pitch>
                    <step>F</step>
                    <alter>1</alter>
                    <octave>4</octave>
                </pitch>
                <duration>1</duration>
                <voice>1</voice>
                <type>quarter</type>
                <accidental>sharp</accidental>
                <stem default-y="1">up</stem>
                <lyric default-y="-80" number="1">
                    <syllabic>begin</syllabic>
                    <text>to</text>
                </lyric>
            </note>
            <note default-x="134">
                <pitch>
                    <step>F</step>
                    <alter>1</alter>
                    <octave>4</octave>
                </pitch>
                <duration>2</duration>
                <voice>1</voice>
                <type>half</type>
                <stem default-y="1">up</stem>
                <lyric default-y="-80" number="1">
                    <syllabic>end</syllabic>
                    <text>night.</text>
                </lyric>
            </note>
        </measure>
        <measure width="311" number="29">
            <print new-system="yes"/>
            <harmony font-size="15.4" default-y="17">
                <root>
                    <root-step>G</root-step>
                </root>
                <kind use-symbols="yes">minor</kind>
            </harmony>
            <note default-x="91">
                <pitch>
                    <step>G</step>
                    <octave>4</octave>
                </pitch>
                <duration>2</duration>
                <voice>1</voice>
                <type>half</type>
                <stem default-y="5.5">up</stem>
                <lyric default-y="-80" number="1">
                    <syllabic>begin</syllabic>
                    <text>Black</text>
                </lyric>
            </note>
            <note default-x="200">
                <pitch>
                    <step>B</step>
                    <alter>-1</alter>
                    <octave>4</octave>
                </pitch>
                <duration>2</duration>
                <tie type="start"/>
                <voice>1</voice>
                <type>half</type>
                <stem default-y="-55.5">down</stem>
                <notations>
                    <tied type="start"/>
                </notations>
                <lyric justify="left" default-y="-80" number="1">
                    <syllabic>end</syllabic>
                    <text>bird,</text>
                    <extend/>
                </lyric>
            </note>
        </measure>
        <measure width="219" number="30">
            <note default-x="10">
                <pitch>
                    <step>B</step>
                    <alter>-1</alter>
                    <octave>4</octave>
                </pitch>
                <duration>2</duration>
                <tie type="stop"/>
                <voice>1</voice>
                <type>half</type>
                <stem default-y="-55.5">down</stem>
                <notations>
                    <tied type="stop"/>
                </notations>
            </note>
            <harmony font-size="15.4" default-y="17">
                <root>
                    <root-step>C</root-step>
                </root>
                <kind text="7">dominant</kind>
            </harmony>
            <note default-x="114">
                <pitch>
                    <step>E</step>
                    <octave>4</octave>
                </pitch>
                <duration>2</duration>
                <voice>1</voice>
                <type>half</type>
                <stem default-y="-4">up</stem>
                <lyric default-y="-80" number="1">
                    <syllabic>single</syllabic>
                    <text>bye,</text>
                </lyric>
            </note>
        </measure>
        <measure width="233" number="31">
            <harmony font-size="15.4" default-y="17">
                <root>
                    <root-step>F</root-step>
                </root>
                <kind text="">major</kind>
            </harmony>
            <note default-x="18">
                <pitch>
                    <step>F</step>
                    <octave>4</octave>
                </pitch>
                <duration>2</duration>
                <voice>1</voice>
                <type>half</type>
                <stem default-y="0.5">up</stem>
                <lyric default-y="-80" number="1">
                    <syllabic>single</syllabic>
                    <text>bye.</text>
                </lyric>
            </note>
            <harmony font-size="15.4" default-y="17">
                <root>
                    <root-step>D</root-step>
                </root>
                <kind use-symbols="yes">minor</kind>
            </harmony>
            <note default-x="123">
                <rest/>
                <duration>2</duration>
                <voice>1</voice>
                <type>half</type>
            </note>
        </measure>
        <measure width="221" number="32">
            <harmony font-size="15.4" default-y="17">
                <root>
                    <root-step>G</root-step>
                </root>
                <kind text="min7">minor-seventh</kind>
            </harmony>
            <note default-x="10">
                <rest/>
                <duration>2</duration>
                <voice>1</voice>
                <type>half</type>
            </note>
            <harmony font-size="15.4" default-y="17">
                <root>
                    <root-step>C</root-step>
                </root>
                <kind text="7">dominant</kind>
            </harmony>
            <note default-x="110">
                <rest/>
                <duration>2</duration>
                <voice>1</voice>
                <type>half</type>
            </note>
            <barline location="right">
                <bar-style>light-heavy</bar-style>
            </barline>
        </measure>
    </part>
</score-partwise>
