<?xml version="1.0" encoding="UTF-8"?>
<!DOCTYPE score-partwise PUBLIC "-//Recordare//DTD MusicXML 2.0 Partwise//EN" "http://www.musicxml.org/dtds/partwise.dtd">
<score-partwise version="2.0">
    <work>
        <work-number></work-number>
        <work-title></work-title>
    </work>
    <movement-number></movement-number>
    <movement-title>Jardin d'Hiver</movement-title>
    <identification>
        <creator type="composer">Benjamin Biolay, Keren Ann</creator>
        <creator type="poet">Benjamin Biolay</creator>
        <rights>All Rights Reserved</rights>
        <encoding>
            <software>PrintMusic 2008 for Macintosh</software>
            <software>Dolet Light for PrintMusic 2008</software>
            <encoding-date>2011-08-29</encoding-date>
            <software>ProxyMusic 2.0 c</software>
        </encoding>
        <source>http://wikifonia.org/node/9933/revisions/16716/view</source>
    </identification>
    <defaults>
        <scaling>
            <millimeters>7.0273</millimeters>
            <tenths>40</tenths>
        </scaling>
        <page-layout>
            <page-height>1690</page-height>
            <page-width>1195</page-width>
            <page-margins type="even">
                <left-margin>85</left-margin>
                <right-margin>73</right-margin>
                <top-margin>57</top-margin>
                <bottom-margin>114</bottom-margin>
            </page-margins>
            <page-margins type="odd">
                <left-margin>85</left-margin>
                <right-margin>73</right-margin>
                <top-margin>57</top-margin>
                <bottom-margin>114</bottom-margin>
            </page-margins>
        </page-layout>
        <system-layout>
            <system-margins>
                <left-margin>0</left-margin>
                <right-margin>0</right-margin>
            </system-margins>
            <system-distance>103</system-distance>
            <top-system-distance>60</top-system-distance>
        </system-layout>
        <music-font font-size="19.9" font-family="Maestro"/>
        <word-font font-size="11.6" font-family="Times"/>
        <lyric-font font-size="10" font-family="Times" name="verse"/>
    </defaults>
    <credit>
        <credit-words font-size="24" default-y="1633" default-x="604" justify="center" valign="top">JARDIN D'HIVER</credit-words>
    </credit>
    <credit>
        <credit-words font-size="12" default-y="1567" default-x="1122" justify="right" valign="top">Benjamin Biolay, Keren Ann Zeidel</credit-words>
    </credit>
    <credit>
        <credit-words font-family="JazzText" default-y="1465" default-x="382" valign="top">3x</credit-words>
    </credit>
    <part-list>
        <score-part id="P1">
            <part-name print-object="no">MusicXML Part</part-name>
            <score-instrument id="P1-I2">
                <instrument-name>MusicXML Default</instrument-name>
            </score-instrument>
            <midi-instrument id="P1-I2">
                <midi-channel>1</midi-channel>
                <midi-program>41</midi-program>
            </midi-instrument>
        </score-part>
    </part-list>
    <part id="P1">
        <measure width="263" number="1">
            <print>
                <system-layout>
                    <top-system-distance>199</top-system-distance>
                </system-layout>
            </print>
            <attributes>
                <divisions>2</divisions>
                <key>
                    <fifths>0</fifths>
                    <mode>major</mode>
                </key>
                <time>
                    <beats>4</beats>
                    <beat-type>4</beat-type>
                </time>
                <clef>
                    <sign>G</sign>
                    <line>2</line>
                </clef>
            </attributes>
            <sound tempo="120"/>
            <note default-x="80">
                <rest/>
                <duration>4</duration>
                <voice>1</voice>
                <type>half</type>
            </note>
            <note default-x="117">
                <pitch>
                    <step>C</step>
                    <octave>5</octave>
                </pitch>
                <duration>1</duration>
                <voice>1</voice>
                <type>eighth</type>
                <stem default-y="-50">down</stem>
                <beam number="1">begin</beam>
                <lyric default-y="-80" number="1">
                    <syllabic>single</syllabic>
                    <text>Je</text>
                </lyric>
            </note>
            <note default-x="151">
                <pitch>
                    <step>D</step>
                    <octave>5</octave>
                </pitch>
                <duration>1</duration>
                <voice>1</voice>
                <type>eighth</type>
                <stem default-y="-48.5">down</stem>
                <beam number="1">continue</beam>
                <lyric default-y="-80" number="1">
                    <syllabic>begin</syllabic>
                    <text>vou</text>
                </lyric>
            </note>
            <note default-x="189">
                <pitch>
                    <step>E</step>
                    <octave>5</octave>
                </pitch>
                <duration>1</duration>
                <voice>1</voice>
                <type>eighth</type>
                <stem default-y="-46.5">down</stem>
                <beam number="1">continue</beam>
                <lyric default-y="-80" number="1">
                    <syllabic>end</syllabic>
                    <text>drais</text>
                </lyric>
            </note>
            <note default-x="228">
                <pitch>
                    <step>D</step>
                    <octave>5</octave>
                </pitch>
                <duration>1</duration>
                <voice>1</voice>
                <type>eighth</type>
                <stem default-y="-45">down</stem>
                <beam number="1">end</beam>
                <lyric default-y="-80" number="1">
                    <syllabic>single</syllabic>
                    <text>du</text>
                </lyric>
            </note>
            <barline location="right">
                <bar-style>light-light</bar-style>
            </barline>
        </measure>
        <measure width="201" number="2">
            <barline location="left">
                <bar-style>heavy-light</bar-style>
                <repeat direction="forward"/>
            </barline>
            <direction placement="above">
                <direction-type>
                    <rehearsal font-size="10" default-y="53" default-x="-32">A</rehearsal>
                </direction-type>
            </direction>
            <harmony font-size="13.3" font-family="JazzCord" relative-x="40" default-y="26">
                <root>
                    <root-step>B</root-step>
                </root>
                <kind text="m7" parentheses-degrees="yes">minor-seventh</kind>
                <degree>
                    <degree-value>5</degree-value>
                    <degree-alter>-1</degree-alter>
                    <degree-type>alter</degree-type>
                </degree>
            </harmony>
            <note default-x="32">
                <pitch>
                    <step>D</step>
                    <octave>5</octave>
                </pitch>
                <duration>1</duration>
                <voice>1</voice>
                <type>eighth</type>
                <stem default-y="-45.5">down</stem>
                <lyric default-y="-80" number="1">
                    <syllabic>begin</syllabic>
                    <text>so</text>
                </lyric>
                <lyric default-y="-97" number="2">
                    <syllabic>single</syllabic>
                    <text>Fred</text>
                </lyric>
            </note>
            <note default-x="73">
                <pitch>
                    <step>F</step>
                    <octave>5</octave>
                </pitch>
                <duration>2</duration>
                <voice>1</voice>
                <type>quarter</type>
                <stem default-y="-35.5">down</stem>
                <lyric default-y="-80" number="1">
                    <syllabic>end</syllabic>
                    <text>leil</text>
                </lyric>
                <lyric default-y="-97" number="2">
                    <syllabic>begin</syllabic>
                    <text>As</text>
                </lyric>
            </note>
            <note default-x="116">
                <pitch>
                    <step>B</step>
                    <octave>4</octave>
                </pitch>
                <duration>1</duration>
                <tie type="start"/>
                <voice>1</voice>
                <type>eighth</type>
                <stem default-y="-55.5">down</stem>
                <notations>
                    <tied type="start"/>
                </notations>
                <lyric default-y="-80" number="1">
                    <syllabic>single</syllabic>
                    <text>vert</text>
                    <extend/>
                </lyric>
                <lyric default-y="-97" number="2">
                    <syllabic>end</syllabic>
                    <text>taire</text>
                    <extend/>
                </lyric>
            </note>
            <note default-x="165">
                <pitch>
                    <step>B</step>
                    <octave>4</octave>
                </pitch>
                <duration>4</duration>
                <tie type="stop"/>
                <voice>1</voice>
                <type>half</type>
                <stem default-y="-55.5">down</stem>
                <notations>
                    <tied type="stop"/>
                </notations>
            </note>
        </measure>
        <measure width="201" number="3">
            <harmony font-size="13.3" font-family="JazzCord" relative-x="14" default-y="25">
                <root>
                    <root-step>E</root-step>
                </root>
                <kind text="7" parentheses-degrees="yes">dominant</kind>
                <degree>
                    <degree-value>9</degree-value>
                    <degree-alter>-1</degree-alter>
                    <degree-type>add</degree-type>
                </degree>
            </harmony>
            <note default-x="10">
                <rest/>
                <duration>4</duration>
                <voice>1</voice>
                <type>half</type>
            </note>
            <note default-x="46">
                <pitch>
                    <step>B</step>
                    <octave>4</octave>
                </pitch>
                <duration>1</duration>
                <voice>1</voice>
                <type>eighth</type>
                <stem default-y="-55">down</stem>
                <beam number="1">begin</beam>
                <lyric default-y="-80" number="1">
                    <syllabic>single</syllabic>
                    <text>des</text>
                </lyric>
                <lyric default-y="-97" number="2">
                    <syllabic>begin</syllabic>
                    <text>re</text>
                </lyric>
            </note>
            <note default-x="83">
                <pitch>
                    <step>C</step>
                    <octave>5</octave>
                </pitch>
                <duration>1</duration>
                <voice>1</voice>
                <type>eighth</type>
                <stem default-y="-53.5">down</stem>
                <beam number="1">continue</beam>
                <lyric default-y="-80" number="1">
                    <syllabic>begin</syllabic>
                    <text>den</text>
                </lyric>
                <lyric default-y="-97" number="2">
                    <syllabic>end</syllabic>
                    <text>voir</text>
                </lyric>
            </note>
            <note default-x="131">
                <pitch>
                    <step>D</step>
                    <octave>5</octave>
                </pitch>
                <duration>1</duration>
                <voice>1</voice>
                <type>eighth</type>
                <stem default-y="-51.5">down</stem>
                <beam number="1">continue</beam>
                <lyric default-y="-80" number="1">
                    <syllabic>end</syllabic>
                    <text>telles</text>
                </lyric>
                <lyric default-y="-97" number="2">
                    <syllabic>single</syllabic>
                    <text>un</text>
                </lyric>
            </note>
            <note default-x="175">
                <pitch>
                    <step>C</step>
                    <octave>5</octave>
                </pitch>
                <duration>1</duration>
                <voice>1</voice>
                <type>eighth</type>
                <stem default-y="-50">down</stem>
                <beam number="1">end</beam>
                <lyric default-y="-80" number="1">
                    <syllabic>single</syllabic>
                    <text>et</text>
                </lyric>
                <lyric default-y="-97" number="2">
                    <syllabic>begin</syllabic>
                    <text>La</text>
                </lyric>
            </note>
        </measure>
        <measure width="172" number="4">
            <harmony font-size="13.3" font-family="JazzCord" default-y="25">
                <root>
                    <root-step>A</root-step>
                </root>
                <kind text="m">minor</kind>
            </harmony>
            <note default-x="16">
                <pitch>
                    <step>C</step>
                    <octave>5</octave>
                </pitch>
                <duration>1</duration>
                <voice>1</voice>
                <type>eighth</type>
                <stem default-y="-50.5">down</stem>
                <lyric default-y="-80" number="1">
                    <syllabic>single</syllabic>
                    <text>des</text>
                </lyric>
                <lyric default-y="-97" number="2">
                    <syllabic>end</syllabic>
                    <text>té</text>
                </lyric>
            </note>
            <note default-x="53">
                <pitch>
                    <step>E</step>
                    <octave>5</octave>
                </pitch>
                <duration>2</duration>
                <voice>1</voice>
                <type>quarter</type>
                <stem default-y="-40.5">down</stem>
                <lyric default-y="-80" number="1">
                    <syllabic>single</syllabic>
                    <text>théi</text>
                </lyric>
                <lyric default-y="-97" number="2">
                    <syllabic>single</syllabic>
                    <text>co</text>
                </lyric>
            </note>
            <note default-x="91">
                <pitch>
                    <step>A</step>
                    <octave>4</octave>
                </pitch>
                <duration>1</duration>
                <tie type="start"/>
                <voice>1</voice>
                <type>eighth</type>
                <stem default-y="11">up</stem>
                <notations>
                    <tied type="start"/>
                </notations>
                <lyric default-y="-80" number="1">
                    <syllabic>single</syllabic>
                    <text>ères</text>
                    <extend/>
                </lyric>
                <lyric default-y="-97" number="2">
                    <syllabic>single</syllabic>
                    <text>èere</text>
                    <extend/>
                </lyric>
            </note>
            <note default-x="134">
                <pitch>
                    <step>A</step>
                    <octave>4</octave>
                </pitch>
                <duration>4</duration>
                <tie type="stop"/>
                <voice>1</voice>
                <type>half</type>
                <stem default-y="11">up</stem>
                <notations>
                    <tied type="stop"/>
                </notations>
            </note>
        </measure>
        <measure width="200" number="5">
            <note default-x="10">
                <rest/>
                <duration>4</duration>
                <voice>1</voice>
                <type>half</type>
            </note>
            <note default-x="53">
                <pitch>
                    <step>C</step>
                    <octave>5</octave>
                </pitch>
                <duration>1</duration>
                <voice>1</voice>
                <type>eighth</type>
                <stem default-y="-50">down</stem>
                <beam number="1">begin</beam>
                <lyric default-y="-80" number="1">
                    <syllabic>single</syllabic>
                    <text>Des</text>
                </lyric>
                <lyric default-y="-97" number="2">
                    <syllabic>single</syllabic>
                    <text>Je</text>
                </lyric>
            </note>
            <note default-x="89">
                <pitch>
                    <step>D</step>
                    <octave>5</octave>
                </pitch>
                <duration>1</duration>
                <voice>1</voice>
                <type>eighth</type>
                <stem default-y="-48.5">down</stem>
                <beam number="1">continue</beam>
                <lyric default-y="-80" number="1">
                    <syllabic>begin</syllabic>
                    <text>pho</text>
                </lyric>
                <lyric default-y="-97" number="2">
                    <syllabic>single</syllabic>
                    <text>vou</text>
                </lyric>
            </note>
            <note default-x="129">
                <pitch>
                    <step>E</step>
                    <octave>5</octave>
                </pitch>
                <duration>1</duration>
                <voice>1</voice>
                <type>eighth</type>
                <stem default-y="-46.5">down</stem>
                <beam number="1">continue</beam>
                <lyric default-y="-80" number="1">
                    <syllabic>end</syllabic>
                    <text>tos</text>
                </lyric>
                <lyric default-y="-97" number="2">
                    <syllabic>single</syllabic>
                    <text>drais</text>
                </lyric>
            </note>
            <note default-x="170">
                <pitch>
                    <step>D</step>
                    <octave>5</octave>
                </pitch>
                <duration>1</duration>
                <voice>1</voice>
                <type>eighth</type>
                <stem default-y="-45">down</stem>
                <beam number="1">end</beam>
                <lyric default-y="-80" number="1">
                    <syllabic>single</syllabic>
                    <text>de</text>
                </lyric>
                <lyric default-y="-97" number="2">
                    <syllabic>single</syllabic>
                    <text>tou</text>
                </lyric>
            </note>
        </measure>
        <measure width="297" number="6">
            <print new-system="yes">
                <system-layout>
                    <system-distance>140</system-distance>
                </system-layout>
            </print>
            <harmony font-size="13.3" font-family="JazzCord" relative-x="22" default-y="23">
                <root>
                    <root-step>B</root-step>
                </root>
                <kind text="m7" parentheses-degrees="yes">minor-seventh</kind>
                <degree>
                    <degree-value>5</degree-value>
                    <degree-alter>-1</degree-alter>
                    <degree-type>alter</degree-type>
                </degree>
            </harmony>
            <note default-x="63">
                <pitch>
                    <step>D</step>
                    <octave>5</octave>
                </pitch>
                <duration>2</duration>
                <voice>1</voice>
                <type>quarter</type>
                <stem default-y="-45.5">down</stem>
                <lyric default-y="-80" number="1">
                    <syllabic>single</syllabic>
                    <text>bord</text>
                </lyric>
                <lyric default-y="-97" number="2">
                    <syllabic>single</syllabic>
                    <text>jours</text>
                </lyric>
            </note>
            <note default-x="116">
                <pitch>
                    <step>F</step>
                    <octave>5</octave>
                </pitch>
                <duration>1</duration>
                <voice>1</voice>
                <type>eighth</type>
                <stem default-y="-50">down</stem>
                <beam number="1">begin</beam>
                <lyric default-y="-80" number="1">
                    <syllabic>single</syllabic>
                    <text>de</text>
                </lyric>
                <lyric default-y="-97" number="2">
                    <syllabic>single</syllabic>
                    <text>te</text>
                </lyric>
            </note>
            <note default-x="160">
                <pitch>
                    <step>B</step>
                    <octave>4</octave>
                </pitch>
                <duration>1</duration>
                <tie type="start"/>
                <voice>1</voice>
                <type>eighth</type>
                <stem default-y="-55">down</stem>
                <beam number="1">end</beam>
                <notations>
                    <tied type="start"/>
                </notations>
                <lyric default-y="-80" number="1">
                    <syllabic>single</syllabic>
                    <text>mer</text>
                    <extend/>
                </lyric>
                <lyric default-y="-97" number="2">
                    <syllabic>single</syllabic>
                    <text>plaire</text>
                    <extend/>
                </lyric>
            </note>
            <note default-x="213">
                <pitch>
                    <step>B</step>
                    <octave>4</octave>
                </pitch>
                <duration>4</duration>
                <tie type="stop"/>
                <voice>1</voice>
                <type>half</type>
                <stem default-y="-56">down</stem>
                <notations>
                    <tied type="stop"/>
                </notations>
            </note>
        </measure>
        <measure width="275" number="7">
            <harmony font-size="13.3" font-family="JazzCord" default-y="25">
                <root>
                    <root-step>E</root-step>
                </root>
                <kind text="7" parentheses-degrees="yes">dominant</kind>
                <degree>
                    <degree-value>9</degree-value>
                    <degree-alter>-1</degree-alter>
                    <degree-type>add</degree-type>
                </degree>
            </harmony>
            <note default-x="11">
                <rest/>
                <duration>2</duration>
                <voice>1</voice>
                <type>quarter</type>
            </note>
            <note default-x="63">
                <rest/>
                <duration>1</duration>
                <voice>1</voice>
                <type>eighth</type>
            </note>
            <note default-x="98">
                <pitch>
                    <step>B</step>
                    <octave>4</octave>
                </pitch>
                <duration>1</duration>
                <voice>1</voice>
                <type>eighth</type>
                <stem default-y="-56">down</stem>
                <lyric default-y="-80" number="1">
                    <syllabic>single</syllabic>
                    <text>Dans</text>
                </lyric>
                <lyric default-y="-97" number="2">
                    <syllabic>single</syllabic>
                    <text>Dans</text>
                </lyric>
            </note>
            <note default-x="141">
                <pitch>
                    <step>D</step>
                    <octave>5</octave>
                </pitch>
                <duration>1</duration>
                <voice>1</voice>
                <type>eighth</type>
                <stem default-y="-45">down</stem>
                <beam number="1">begin</beam>
                <lyric default-y="-80" number="1">
                    <syllabic>single</syllabic>
                    <text>mon</text>
                </lyric>
                <lyric default-y="-97" number="2">
                    <syllabic>single</syllabic>
                    <text>mon</text>
                </lyric>
            </note>
            <note default-x="179">
                <pitch>
                    <step>C</step>
                    <octave>5</octave>
                </pitch>
                <duration>1</duration>
                <voice>1</voice>
                <type>eighth</type>
                <stem default-y="-50">down</stem>
                <beam number="1">end</beam>
                <lyric default-y="-80" number="1">
                    <syllabic>begin</syllabic>
                    <text>jar</text>
                </lyric>
                <lyric default-y="-97" number="2">
                    <syllabic>single</syllabic>
                    <text>jar</text>
                </lyric>
            </note>
            <note default-x="218">
                <pitch>
                    <step>B</step>
                    <octave>4</octave>
                </pitch>
                <duration>2</duration>
                <tie type="start"/>
                <voice>1</voice>
                <type>quarter</type>
                <stem default-y="-56">down</stem>
                <notations>
                    <tied type="start"/>
                </notations>
                <lyric default-y="-80" number="1">
                    <syllabic>end</syllabic>
                    <text>din</text>
                    <extend/>
                </lyric>
                <lyric default-y="-97" number="2">
                    <syllabic>single</syllabic>
                    <text>din</text>
                    <extend/>
                </lyric>
            </note>
        </measure>
        <measure width="205" number="8">
            <harmony font-size="13.3" font-family="JazzCord" default-y="25">
                <root>
                    <root-step>A</root-step>
                </root>
                <kind text="m">minor</kind>
            </harmony>
            <note default-x="10">
                <pitch>
                    <step>B</step>
                    <octave>4</octave>
                </pitch>
                <duration>1</duration>
                <tie type="stop"/>
                <voice>1</voice>
                <type>eighth</type>
                <stem default-y="-55">down</stem>
                <beam number="1">begin</beam>
                <notations>
                    <tied type="stop"/>
                </notations>
            </note>
            <note default-x="40">
                <pitch>
                    <step>C</step>
                    <octave>5</octave>
                </pitch>
                <duration>1</duration>
                <voice>1</voice>
                <type>eighth</type>
                <stem default-y="-50">down</stem>
                <beam number="1">end</beam>
                <lyric default-y="-80" number="1">
                    <syllabic>single</syllabic>
                    <text>d'hi</text>
                </lyric>
                <lyric default-y="-97" number="2">
                    <syllabic>single</syllabic>
                    <text>d'hi</text>
                </lyric>
            </note>
            <note default-x="75">
                <pitch>
                    <step>A</step>
                    <octave>4</octave>
                </pitch>
                <duration>2</duration>
                <tie type="start"/>
                <voice>1</voice>
                <type>quarter</type>
                <stem default-y="11">up</stem>
                <notations>
                    <tied type="start"/>
                </notations>
                <lyric default-y="-80" number="1">
                    <syllabic>single</syllabic>
                    <text>ver</text>
                </lyric>
                <lyric default-y="-97" number="2">
                    <syllabic>single</syllabic>
                    <text>ver</text>
                </lyric>
            </note>
            <note default-x="126">
                <pitch>
                    <step>A</step>
                    <octave>4</octave>
                </pitch>
                <duration>4</duration>
                <tie type="stop"/>
                <voice>1</voice>
                <type>half</type>
                <stem default-y="11">up</stem>
                <notations>
                    <tied type="stop"/>
                </notations>
                <lyric default-y="-80" number="1">
                    <syllabic>single</syllabic>
                    <text>.</text>
                </lyric>
                <lyric default-y="-97" number="2">
                    <syllabic>single</syllabic>
                    <text>.</text>
                </lyric>
            </note>
        </measure>
        <measure width="261" number="9">
            <note default-x="11">
                <rest/>
                <duration>4</duration>
                <voice>1</voice>
                <type>half</type>
            </note>
            <note default-x="97">
                <pitch>
                    <step>C</step>
                    <octave>5</octave>
                </pitch>
                <duration>1</duration>
                <voice>1</voice>
                <type>eighth</type>
                <stem default-y="-50">down</stem>
                <beam number="1">begin</beam>
                <lyric default-y="-80" number="1">
                    <syllabic>single</syllabic>
                    <text>Je</text>
                </lyric>
                <lyric default-y="-97" number="2">
                    <syllabic>single</syllabic>
                    <text>Je</text>
                </lyric>
            </note>
            <note default-x="137">
                <pitch>
                    <step>D</step>
                    <octave>5</octave>
                </pitch>
                <duration>1</duration>
                <voice>1</voice>
                <type>eighth</type>
                <stem default-y="-48">down</stem>
                <beam number="1">continue</beam>
                <lyric default-y="-80" number="1">
                    <syllabic>begin</syllabic>
                    <text>vou</text>
                </lyric>
                <lyric default-y="-97" number="2">
                    <syllabic>single</syllabic>
                    <text>veux</text>
                </lyric>
            </note>
            <note default-x="182">
                <pitch>
                    <step>E</step>
                    <octave>5</octave>
                </pitch>
                <duration>1</duration>
                <voice>1</voice>
                <type>eighth</type>
                <stem default-y="-47">down</stem>
                <beam number="1">continue</beam>
                <lyric default-y="-80" number="1">
                    <syllabic>end</syllabic>
                    <text>drais</text>
                </lyric>
                <lyric default-y="-97" number="2">
                    <syllabic>single</syllabic>
                    <text>dé</text>
                </lyric>
            </note>
            <note default-x="225">
                <pitch>
                    <step>D</step>
                    <octave>5</octave>
                </pitch>
                <duration>1</duration>
                <voice>1</voice>
                <type>eighth</type>
                <stem default-y="-45">down</stem>
                <beam number="1">end</beam>
                <lyric default-y="-80" number="1">
                    <syllabic>single</syllabic>
                    <text>de</text>
                </lyric>
                <lyric default-y="-97" number="2">
                    <syllabic>begin</syllabic>
                    <text>jeu</text>
                </lyric>
            </note>
        </measure>
        <measure width="277" number="10">
            <print new-system="yes">
                <system-layout>
                    <system-distance>154</system-distance>
                </system-layout>
            </print>
            <direction placement="above">
                <direction-type>
                    <rehearsal font-size="10" default-y="48" default-x="2">A</rehearsal>
                </direction-type>
            </direction>
            <harmony font-size="13.3" font-family="JazzCord" relative-x="26" default-y="25">
                <root>
                    <root-step>B</root-step>
                </root>
                <kind text="m7" parentheses-degrees="yes">minor-seventh</kind>
                <degree>
                    <degree-value>5</degree-value>
                    <degree-alter>-1</degree-alter>
                    <degree-type>alter</degree-type>
                </degree>
            </harmony>
            <note default-x="55">
                <pitch>
                    <step>D</step>
                    <octave>5</octave>
                </pitch>
                <duration>1</duration>
                <voice>1</voice>
                <type>eighth</type>
                <stem default-y="-46">down</stem>
                <lyric default-y="-80" number="1">
                    <syllabic>single</syllabic>
                    <text>la</text>
                </lyric>
                <lyric default-y="-97" number="2">
                    <syllabic>end</syllabic>
                    <text>ner</text>
                </lyric>
            </note>
            <note default-x="95">
                <pitch>
                    <step>F</step>
                    <octave>5</octave>
                </pitch>
                <duration>2</duration>
                <voice>1</voice>
                <type>quarter</type>
                <stem default-y="-36">down</stem>
                <lyric default-y="-80" number="1">
                    <syllabic>single</syllabic>
                    <text>lum</text>
                </lyric>
                <lyric default-y="-97" number="2">
                    <syllabic>single</syllabic>
                    <text>par</text>
                </lyric>
            </note>
            <note default-x="149">
                <pitch>
                    <step>B</step>
                    <octave>4</octave>
                </pitch>
                <duration>1</duration>
                <tie type="start"/>
                <voice>1</voice>
                <type>eighth</type>
                <stem default-y="-56">down</stem>
                <notations>
                    <tied type="start"/>
                </notations>
                <lyric default-y="-80" number="1">
                    <syllabic>single</syllabic>
                    <text>ière,</text>
                    <extend/>
                </lyric>
                <lyric default-y="-97" number="2">
                    <syllabic>single</syllabic>
                    <text>terre</text>
                    <extend/>
                </lyric>
            </note>
            <note default-x="199">
                <pitch>
                    <step>B</step>
                    <octave>4</octave>
                </pitch>
                <duration>4</duration>
                <tie type="stop"/>
                <voice>1</voice>
                <type>half</type>
                <stem default-y="-56">down</stem>
                <notations>
                    <tied type="stop"/>
                </notations>
            </note>
        </measure>
        <measure width="270" number="11">
            <harmony font-size="13.3" font-family="JazzCord" default-y="25">
                <root>
                    <root-step>E</root-step>
                </root>
                <kind text="7" parentheses-degrees="yes">dominant</kind>
                <degree>
                    <degree-value>9</degree-value>
                    <degree-alter>-1</degree-alter>
                    <degree-type>add</degree-type>
                </degree>
            </harmony>
            <note default-x="11">
                <rest/>
                <duration>4</duration>
                <voice>1</voice>
                <type>half</type>
            </note>
            <note default-x="94">
                <pitch>
                    <step>B</step>
                    <octave>4</octave>
                </pitch>
                <duration>1</duration>
                <voice>1</voice>
                <type>eighth</type>
                <stem default-y="-55">down</stem>
                <beam number="1">begin</beam>
                <lyric default-y="-80" number="1">
                    <syllabic>single</syllabic>
                    <text>Comme</text>
                </lyric>
                <lyric default-y="-97" number="2">
                    <syllabic>single</syllabic>
                    <text>Comme</text>
                </lyric>
            </note>
            <note default-x="138">
                <pitch>
                    <step>C</step>
                    <octave>5</octave>
                </pitch>
                <duration>1</duration>
                <voice>1</voice>
                <type>eighth</type>
                <stem default-y="-53">down</stem>
                <beam number="1">continue</beam>
                <lyric default-y="-80" number="1">
                    <syllabic>single</syllabic>
                    <text>en</text>
                </lyric>
                <lyric default-y="-97" number="2">
                    <syllabic>single</syllabic>
                    <text>au</text>
                </lyric>
            </note>
            <note default-x="179">
                <pitch>
                    <step>D</step>
                    <octave>5</octave>
                </pitch>
                <duration>1</duration>
                <voice>1</voice>
                <type>eighth</type>
                <stem default-y="-52">down</stem>
                <beam number="1">continue</beam>
                <lyric default-y="-80" number="1">
                    <syllabic>begin</syllabic>
                    <text>Nou</text>
                </lyric>
                <lyric default-y="-97" number="2">
                    <syllabic>single</syllabic>
                    <text>long</text>
                </lyric>
            </note>
            <note default-x="227">
                <pitch>
                    <step>C</step>
                    <octave>5</octave>
                </pitch>
                <duration>1</duration>
                <voice>1</voice>
                <type>eighth</type>
                <stem default-y="-50">down</stem>
                <beam number="1">end</beam>
                <lyric default-y="-80" number="1">
                    <syllabic>end</syllabic>
                    <text>velle</text>
                </lyric>
                <lyric default-y="-97" number="2">
                    <syllabic>single</syllabic>
                    <text>des</text>
                </lyric>
            </note>
        </measure>
        <measure width="236" number="12">
            <harmony font-size="13.3" font-family="JazzCord" default-y="25">
                <root>
                    <root-step>A</root-step>
                </root>
                <kind text="m">minor</kind>
            </harmony>
            <note default-x="17">
                <pitch>
                    <step>C</step>
                    <octave>5</octave>
                </pitch>
                <duration>1</duration>
                <voice>1</voice>
                <type>eighth</type>
                <stem default-y="-51">down</stem>
                <lyric default-y="-80" number="1">
                    <syllabic>begin</syllabic>
                    <text>An</text>
                </lyric>
                <lyric default-y="-97" number="2">
                    <syllabic>begin</syllabic>
                    <text>gol</text>
                </lyric>
            </note>
            <note default-x="52">
                <pitch>
                    <step>E</step>
                    <octave>5</octave>
                </pitch>
                <duration>2</duration>
                <voice>1</voice>
                <type>quarter</type>
                <stem default-y="-41">down</stem>
                <lyric default-y="-80" number="1">
                    <syllabic>middle</syllabic>
                    <text>gle</text>
                </lyric>
                <lyric default-y="-97" number="2">
                    <syllabic>end</syllabic>
                    <text>fes</text>
                </lyric>
            </note>
            <note default-x="105">
                <pitch>
                    <step>A</step>
                    <octave>4</octave>
                </pitch>
                <duration>1</duration>
                <tie type="start"/>
                <voice>1</voice>
                <type>eighth</type>
                <stem default-y="11">up</stem>
                <notations>
                    <tied type="start"/>
                </notations>
                <lyric default-y="-80" number="1">
                    <syllabic>end</syllabic>
                    <text>terre</text>
                </lyric>
                <lyric default-y="-97" number="2">
                    <syllabic>single</syllabic>
                    <text>clairs</text>
                    <extend/>
                </lyric>
            </note>
            <note default-x="160">
                <pitch>
                    <step>A</step>
                    <octave>4</octave>
                </pitch>
                <duration>4</duration>
                <tie type="stop"/>
                <voice>1</voice>
                <type>half</type>
                <stem default-y="11">up</stem>
                <notations>
                    <tied type="stop"/>
                </notations>
                <lyric default-y="-80" number="1">
                    <syllabic>single</syllabic>
                    <text>,</text>
                </lyric>
            </note>
        </measure>
        <measure width="255" number="13">
            <note default-x="10">
                <rest/>
                <duration>4</duration>
                <voice>1</voice>
                <type>half</type>
            </note>
            <note default-x="94">
                <pitch>
                    <step>C</step>
                    <octave>5</octave>
                </pitch>
                <duration>1</duration>
                <voice>1</voice>
                <type>eighth</type>
                <stem default-y="-50">down</stem>
                <beam number="1">begin</beam>
                <lyric default-y="-80" number="1">
                    <syllabic>single</syllabic>
                    <text>Je</text>
                </lyric>
                <lyric default-y="-97" number="2">
                    <syllabic>single</syllabic>
                    <text>T'em</text>
                </lyric>
            </note>
            <note default-x="136">
                <pitch>
                    <step>D</step>
                    <octave>5</octave>
                </pitch>
                <duration>1</duration>
                <voice>1</voice>
                <type>eighth</type>
                <stem default-y="-48">down</stem>
                <beam number="1">continue</beam>
                <lyric default-y="-80" number="1">
                    <syllabic>single</syllabic>
                    <text>veux</text>
                </lyric>
                <lyric default-y="-97" number="2">
                    <syllabic>begin</syllabic>
                    <text>bras</text>
                </lyric>
            </note>
            <note default-x="179">
                <pitch>
                    <step>E</step>
                    <octave>5</octave>
                </pitch>
                <duration>1</duration>
                <voice>1</voice>
                <type>eighth</type>
                <stem default-y="-46">down</stem>
                <beam number="1">continue</beam>
                <lyric default-y="-80" number="1">
                    <syllabic>begin</syllabic>
                    <text>chan</text>
                </lyric>
                <lyric default-y="-97" number="2">
                    <syllabic>end</syllabic>
                    <text>ser</text>
                </lyric>
            </note>
            <note default-x="218">
                <pitch>
                    <step>D</step>
                    <octave>5</octave>
                </pitch>
                <duration>1</duration>
                <voice>1</voice>
                <type>eighth</type>
                <stem default-y="-45">down</stem>
                <beam number="1">end</beam>
                <lyric default-y="-80" number="1">
                    <syllabic>end</syllabic>
                    <text>ger</text>
                </lyric>
                <lyric default-y="-97" number="2">
                    <syllabic>single</syllabic>
                    <text>les</text>
                </lyric>
            </note>
        </measure>
        <measure width="312" number="14">
            <print new-system="yes">
                <system-layout>
                    <system-distance>135</system-distance>
                </system-layout>
            </print>
            <harmony font-size="13.3" font-family="JazzCord" relative-x="18" default-y="25">
                <root>
                    <root-step>B</root-step>
                </root>
                <kind text="m7" parentheses-degrees="yes">minor-seventh</kind>
                <degree>
                    <degree-value>5</degree-value>
                    <degree-alter>-1</degree-alter>
                    <degree-type>alter</degree-type>
                </degree>
            </harmony>
            <note default-x="59">
                <pitch>
                    <step>D</step>
                    <octave>5</octave>
                </pitch>
                <duration>2</duration>
                <voice>1</voice>
                <type>quarter</type>
                <stem default-y="-45.5">down</stem>
                <lyric default-y="-80" number="1">
                    <syllabic>begin</syllabic>
                    <text>d'at</text>
                </lyric>
                <lyric default-y="-97" number="2">
                    <syllabic>single</syllabic>
                    <text>yeux</text>
                </lyric>
            </note>
            <note default-x="120">
                <pitch>
                    <step>F</step>
                    <octave>5</octave>
                </pitch>
                <duration>1</duration>
                <voice>1</voice>
                <type>eighth</type>
                <stem default-y="-50">down</stem>
                <beam number="1">begin</beam>
                <lyric default-y="-80" number="1">
                    <syllabic>middle</syllabic>
                    <text>mos</text>
                </lyric>
                <lyric default-y="-97" number="2">
                    <syllabic>begin</syllabic>
                    <text>ou</text>
                </lyric>
            </note>
            <note default-x="165">
                <pitch>
                    <step>B</step>
                    <octave>4</octave>
                </pitch>
                <duration>1</duration>
                <tie type="start"/>
                <voice>1</voice>
                <type>eighth</type>
                <stem default-y="-55">down</stem>
                <beam number="1">end</beam>
                <notations>
                    <tied type="start"/>
                </notations>
                <lyric default-y="-80" number="1">
                    <syllabic>end</syllabic>
                    <text>sphère</text>
                    <extend/>
                </lyric>
                <lyric default-y="-97" number="2">
                    <syllabic>end</syllabic>
                    <text>verts</text>
                    <extend/>
                </lyric>
            </note>
            <note default-x="216">
                <pitch>
                    <step>B</step>
                    <octave>4</octave>
                </pitch>
                <duration>4</duration>
                <tie type="stop"/>
                <voice>1</voice>
                <type>half</type>
                <stem default-y="-55.5">down</stem>
                <notations>
                    <tied type="stop"/>
                </notations>
            </note>
        </measure>
        <measure width="310" number="15">
            <harmony font-size="13.3" font-family="JazzCord" default-y="25">
                <root>
                    <root-step>E</root-step>
                </root>
                <kind text="7" parentheses-degrees="yes">dominant</kind>
                <degree>
                    <degree-value>9</degree-value>
                    <degree-alter>-1</degree-alter>
                    <degree-type>add</degree-type>
                </degree>
            </harmony>
            <note default-x="11">
                <rest/>
                <duration>2</duration>
                <voice>1</voice>
                <type>quarter</type>
            </note>
            <note default-x="75">
                <rest/>
                <duration>1</duration>
                <voice>1</voice>
                <type>eighth</type>
            </note>
            <note default-x="116">
                <pitch>
                    <step>B</step>
                    <octave>4</octave>
                </pitch>
                <duration>1</duration>
                <voice>1</voice>
                <type>eighth</type>
                <stem default-y="-55.5">down</stem>
                <lyric default-y="-80" number="1">
                    <syllabic>single</syllabic>
                    <text>Dans</text>
                </lyric>
                <lyric default-y="-97" number="2">
                    <syllabic>single</syllabic>
                    <text>dans</text>
                </lyric>
            </note>
            <note default-x="159">
                <pitch>
                    <step>D</step>
                    <octave>5</octave>
                </pitch>
                <duration>1</duration>
                <voice>1</voice>
                <type>eighth</type>
                <stem default-y="-45">down</stem>
                <beam number="1">begin</beam>
                <lyric default-y="-80" number="1">
                    <syllabic>single</syllabic>
                    <text>mon</text>
                </lyric>
                <lyric default-y="-97" number="2">
                    <syllabic>single</syllabic>
                    <text>mon</text>
                </lyric>
            </note>
            <note default-x="200">
                <pitch>
                    <step>C</step>
                    <octave>5</octave>
                </pitch>
                <duration>1</duration>
                <voice>1</voice>
                <type>eighth</type>
                <stem default-y="-50">down</stem>
                <beam number="1">end</beam>
                <lyric default-y="-80" number="1">
                    <syllabic>single</syllabic>
                    <text>jar</text>
                </lyric>
                <lyric default-y="-97" number="2">
                    <syllabic>single</syllabic>
                    <text>jard</text>
                </lyric>
            </note>
            <note default-x="243">
                <pitch>
                    <step>B</step>
                    <octave>4</octave>
                </pitch>
                <duration>2</duration>
                <tie type="start"/>
                <voice>1</voice>
                <type>quarter</type>
                <stem default-y="-55.5">down</stem>
                <notations>
                    <tied type="start"/>
                </notations>
                <lyric default-y="-80" number="1">
                    <syllabic>single</syllabic>
                    <text>din</text>
                    <extend/>
                </lyric>
                <lyric default-y="-97" number="2">
                    <syllabic>single</syllabic>
                    <text>din</text>
                    <extend/>
                </lyric>
            </note>
        </measure>
        <measure width="229" number="16">
            <harmony font-size="13.3" font-family="JazzCord" default-y="25">
                <root>
                    <root-step>A</root-step>
                </root>
                <kind text="m">minor</kind>
            </harmony>
            <direction>
                <direction-type>
                    <words font-family="JazzText" default-y="39" default-x="101" valign="top">3 rd time Fine</words>
                </direction-type>
            </direction>
            <note default-x="10">
                <pitch>
                    <step>B</step>
                    <octave>4</octave>
                </pitch>
                <duration>1</duration>
                <tie type="stop"/>
                <voice>1</voice>
                <type>eighth</type>
                <stem default-y="-55">down</stem>
                <beam number="1">begin</beam>
                <notations>
                    <tied type="stop"/>
                </notations>
            </note>
            <note default-x="45">
                <pitch>
                    <step>C</step>
                    <octave>5</octave>
                </pitch>
                <duration>1</duration>
                <voice>1</voice>
                <type>eighth</type>
                <stem default-y="-50">down</stem>
                <beam number="1">end</beam>
                <lyric default-y="-80" number="1">
                    <syllabic>begin</syllabic>
                    <text>d'hi</text>
                </lyric>
                <lyric default-y="-97" number="2">
                    <syllabic>single</syllabic>
                    <text>d'hi</text>
                </lyric>
            </note>
            <note default-x="82">
                <pitch>
                    <step>A</step>
                    <octave>4</octave>
                </pitch>
                <duration>2</duration>
                <tie type="start"/>
                <voice>1</voice>
                <type>quarter</type>
                <stem default-y="11">up</stem>
                <notations>
                    <tied type="start"/>
                </notations>
                <lyric default-y="-80" number="1">
                    <syllabic>end</syllabic>
                    <text>ver</text>
                </lyric>
                <lyric default-y="-97" number="2">
                    <syllabic>single</syllabic>
                    <text>ver</text>
                </lyric>
            </note>
            <note default-x="138">
                <pitch>
                    <step>A</step>
                    <octave>4</octave>
                </pitch>
                <duration>4</duration>
                <tie type="stop"/>
                <voice>1</voice>
                <type>half</type>
                <stem default-y="11">up</stem>
                <notations>
                    <tied type="stop"/>
                    <fermata default-y="48" type="upright"></fermata>
                </notations>
                <lyric default-y="-80" number="1">
                    <syllabic>single</syllabic>
                    <text>.</text>
                </lyric>
                <lyric default-y="-97" number="2">
                    <syllabic>single</syllabic>
                    <text>.</text>
                </lyric>
            </note>
        </measure>
        <measure width="187" number="17">
            <note default-x="11">
                <rest/>
                <duration>2</duration>
                <voice>1</voice>
                <type>quarter</type>
            </note>
            <note default-x="57">
                <rest/>
                <duration>4</duration>
                <voice>1</voice>
                <type>half</type>
            </note>
            <note default-x="137">
                <pitch>
                    <step>A</step>
                    <octave>4</octave>
                </pitch>
                <duration>2</duration>
                <tie type="start"/>
                <voice>1</voice>
                <type>quarter</type>
                <stem default-y="11">up</stem>
                <notations>
                    <tied type="start"/>
                </notations>
                <lyric default-y="-80" number="1">
                    <syllabic>single</syllabic>
                    <text>Ta</text>
                    <extend/>
                </lyric>
            </note>
        </measure>
        <measure width="242" number="18">
            <print new-system="yes">
                <system-layout>
                    <system-distance>129</system-distance>
                </system-layout>
            </print>
            <direction placement="above">
                <direction-type>
                    <rehearsal font-size="10" default-y="48" default-x="2">B</rehearsal>
                </direction-type>
            </direction>
            <harmony font-size="13.3" font-family="JazzCord" default-y="25">
                <root>
                    <root-step>D</root-step>
                </root>
                <kind text="m">minor</kind>
            </harmony>
            <note default-x="49">
                <pitch>
                    <step>A</step>
                    <octave>4</octave>
                </pitch>
                <duration>2</duration>
                <tie type="stop"/>
                <voice>1</voice>
                <type>quarter</type>
                <stem default-y="11">up</stem>
                <notations>
                    <tied type="stop"/>
                </notations>
            </note>
            <note default-x="101">
                <pitch>
                    <step>A</step>
                    <octave>5</octave>
                </pitch>
                <duration>4</duration>
                <voice>1</voice>
                <type>half</type>
                <stem default-y="-25.5">down</stem>
                <lyric default-y="-80" number="1">
                    <syllabic>single</syllabic>
                    <text>robe</text>
                </lyric>
            </note>
            <note default-x="187">
                <pitch>
                    <step>A</step>
                    <octave>5</octave>
                </pitch>
                <duration>2</duration>
                <voice>1</voice>
                <type>quarter</type>
                <stem default-y="-25.5">down</stem>
                <lyric default-y="-80" number="1">
                    <syllabic>single</syllabic>
                    <text>à</text>
                </lyric>
            </note>
        </measure>
        <measure width="259" number="19">
            <harmony font-size="13.3" font-family="JazzCord" default-y="25">
                <root>
                    <root-step>G</root-step>
                </root>
                <kind text="7">dominant</kind>
            </harmony>
            <note default-x="23">
                <pitch>
                    <step>A</step>
                    <octave>5</octave>
                </pitch>
                <duration>4</duration>
                <voice>1</voice>
                <type>half</type>
                <stem default-y="-25.5">down</stem>
                <lyric default-y="-80" number="1">
                    <syllabic>single</syllabic>
                    <text>fleur</text>
                </lyric>
            </note>
            <note default-x="122">
                <rest/>
                <duration>2</duration>
                <voice>1</voice>
                <type>quarter</type>
            </note>
            <note default-x="183">
                <pitch>
                    <step>G</step>
                    <octave>5</octave>
                </pitch>
                <duration>1</duration>
                <voice>1</voice>
                <type>eighth</type>
                <stem default-y="-30">down</stem>
                <beam number="1">begin</beam>
                <lyric default-y="-80" number="1">
                    <syllabic>single</syllabic>
                    <text>sous</text>
                </lyric>
            </note>
            <note default-x="220">
                <pitch>
                    <step>F</step>
                    <octave>5</octave>
                </pitch>
                <duration>1</duration>
                <voice>1</voice>
                <type>eighth</type>
                <stem default-y="-32.5">down</stem>
                <beam number="1">end</beam>
                <lyric default-y="-80" number="1">
                    <syllabic>single</syllabic>
                    <text>la</text>
                </lyric>
            </note>
        </measure>
        <measure width="254" number="20">
            <harmony font-size="13.3" font-family="JazzCord" default-y="25">
                <root>
                    <root-step>C</root-step>
                </root>
                <kind text="">major</kind>
            </harmony>
            <note default-x="23">
                <pitch>
                    <step>F</step>
                    <octave>5</octave>
                </pitch>
                <duration>2</duration>
                <voice>1</voice>
                <type>quarter</type>
                <stem default-y="-35.5">down</stem>
                <lyric default-y="-80" number="1">
                    <syllabic>single</syllabic>
                    <text>pluie</text>
                </lyric>
            </note>
            <note default-x="83">
                <pitch>
                    <step>E</step>
                    <octave>5</octave>
                </pitch>
                <duration>4</duration>
                <tie type="start"/>
                <voice>1</voice>
                <type>half</type>
                <stem default-y="-40.5">down</stem>
                <notations>
                    <tied type="start"/>
                </notations>
                <lyric default-y="-80" number="1">
                    <syllabic>single</syllabic>
                    <text>de</text>
                    <extend/>
                </lyric>
            </note>
            <note default-x="179">
                <pitch>
                    <step>E</step>
                    <octave>5</octave>
                </pitch>
                <duration>1</duration>
                <tie type="stop"/>
                <voice>1</voice>
                <type>eighth</type>
                <stem default-y="-40">down</stem>
                <beam number="1">begin</beam>
                <notations>
                    <tied type="stop"/>
                </notations>
            </note>
            <note default-x="216">
                <pitch>
                    <step>D</step>
                    <alter>1</alter>
                    <octave>5</octave>
                </pitch>
                <duration>1</duration>
                <voice>1</voice>
                <type>eighth</type>
                <accidental>sharp</accidental>
                <stem default-y="-42.5">down</stem>
                <beam number="1">end</beam>
                <lyric default-y="-80" number="1">
                    <syllabic>begin</syllabic>
                    <text>no</text>
                </lyric>
            </note>
        </measure>
        <measure width="282" number="21">
            <note default-x="34">
                <pitch>
                    <step>E</step>
                    <octave>5</octave>
                </pitch>
                <duration>4</duration>
                <tie type="start"/>
                <voice>1</voice>
                <type>half</type>
                <stem default-y="-40.5">down</stem>
                <notations>
                    <tied type="start"/>
                </notations>
                <lyric default-y="-80" number="1">
                    <syllabic>end</syllabic>
                    <text>vembre</text>
                    <extend/>
                </lyric>
            </note>
            <note default-x="137">
                <pitch>
                    <step>E</step>
                    <octave>5</octave>
                </pitch>
                <duration>2</duration>
                <tie type="stop"/>
                <voice>1</voice>
                <type>quarter</type>
                <stem default-y="-40.5">down</stem>
                <notations>
                    <tied type="stop"/>
                </notations>
            </note>
            <note default-x="201">
                <rest/>
                <duration>1</duration>
                <voice>1</voice>
                <type>eighth</type>
            </note>
            <note default-x="241">
                <pitch>
                    <step>E</step>
                    <octave>5</octave>
                </pitch>
                <duration>1</duration>
                <voice>1</voice>
                <type>eighth</type>
                <stem default-y="-40.5">down</stem>
                <lyric default-y="-80" number="1">
                    <syllabic>single</syllabic>
                    <text>Mes</text>
                </lyric>
            </note>
        </measure>
        <measure width="321" number="22">
            <print new-system="yes">
                <system-layout>
                    <system-distance>106</system-distance>
                </system-layout>
            </print>
            <harmony font-size="13.3" font-family="JazzCord" relative-x="10" default-y="25">
                <root>
                    <root-step>B</root-step>
                </root>
                <kind text="m7" parentheses-degrees="yes">minor-seventh</kind>
                <degree>
                    <degree-value>5</degree-value>
                    <degree-alter>-1</degree-alter>
                    <degree-type>alter</degree-type>
                </degree>
            </harmony>
            <note default-x="66">
                <pitch>
                    <step>E</step>
                    <octave>5</octave>
                </pitch>
                <duration>2</duration>
                <voice>1</voice>
                <type>quarter</type>
                <stem default-y="-41">down</stem>
                <lyric default-y="-80" number="1">
                    <syllabic>single</syllabic>
                    <text>mains</text>
                </lyric>
            </note>
            <note default-x="126">
                <pitch>
                    <step>F</step>
                    <octave>5</octave>
                </pitch>
                <duration>2</duration>
                <tie type="start"/>
                <voice>1</voice>
                <type>quarter</type>
                <stem default-y="-36">down</stem>
                <notations>
                    <tied type="start"/>
                </notations>
                <lyric default-y="-80" number="1">
                    <syllabic>single</syllabic>
                    <text>qui</text>
                    <extend/>
                </lyric>
            </note>
            <note default-x="185">
                <pitch>
                    <step>F</step>
                    <octave>5</octave>
                </pitch>
                <duration>1</duration>
                <tie type="stop"/>
                <voice>1</voice>
                <type>eighth</type>
                <stem default-y="-30">down</stem>
                <beam number="1">begin</beam>
                <notations>
                    <tied type="stop"/>
                </notations>
            </note>
            <note default-x="222">
                <pitch>
                    <step>E</step>
                    <octave>5</octave>
                </pitch>
                <duration>1</duration>
                <voice>1</voice>
                <type>eighth</type>
                <stem default-y="-32">down</stem>
                <beam number="1">end</beam>
                <lyric default-y="-80" number="1">
                    <syllabic>begin</syllabic>
                    <text>cou</text>
                </lyric>
            </note>
            <note default-x="260">
                <pitch>
                    <step>E</step>
                    <octave>5</octave>
                </pitch>
                <duration>2</duration>
                <tie type="start"/>
                <voice>1</voice>
                <type>quarter</type>
                <stem default-y="-41">down</stem>
                <notations>
                    <tied type="start"/>
                </notations>
                <lyric default-y="-80" number="1">
                    <syllabic>end</syllabic>
                    <text>rent</text>
                    <extend/>
                </lyric>
            </note>
        </measure>
        <measure width="317" number="23">
            <harmony font-size="13.3" font-family="JazzCord" default-y="25">
                <root>
                    <root-step>E</root-step>
                </root>
                <kind text="7" parentheses-degrees="yes">dominant</kind>
                <degree>
                    <degree-value>9</degree-value>
                    <degree-alter>-1</degree-alter>
                    <degree-type>add</degree-type>
                </degree>
            </harmony>
            <note default-x="11">
                <pitch>
                    <step>E</step>
                    <octave>5</octave>
                </pitch>
                <duration>2</duration>
                <tie type="stop"/>
                <tie type="start"/>
                <voice>1</voice>
                <type>quarter</type>
                <stem default-y="-41">down</stem>
                <notations>
                    <tied type="stop"/>
                    <tied type="start"/>
                </notations>
            </note>
            <note default-x="69">
                <pitch>
                    <step>E</step>
                    <octave>5</octave>
                </pitch>
                <duration>1</duration>
                <tie type="stop"/>
                <voice>1</voice>
                <type>eighth</type>
                <stem default-y="-40">down</stem>
                <beam number="1">begin</beam>
                <notations>
                    <tied type="stop"/>
                </notations>
            </note>
            <note default-x="104">
                <pitch>
                    <step>E</step>
                    <octave>5</octave>
                </pitch>
                <duration>1</duration>
                <voice>1</voice>
                <type>eighth</type>
                <stem default-y="-40">down</stem>
                <beam number="1">end</beam>
                <lyric default-y="-80" number="1">
                    <syllabic>single</syllabic>
                    <text>je</text>
                </lyric>
            </note>
            <note default-x="145">
                <pitch>
                    <step>F</step>
                    <octave>5</octave>
                </pitch>
                <duration>1</duration>
                <voice>1</voice>
                <type>eighth</type>
                <stem default-y="-45">down</stem>
                <beam number="1">begin</beam>
                <lyric default-y="-80" number="1">
                    <syllabic>single</syllabic>
                    <text>n'en</text>
                </lyric>
            </note>
            <note default-x="191">
                <pitch>
                    <step>E</step>
                    <octave>5</octave>
                </pitch>
                <duration>1</duration>
                <voice>1</voice>
                <type>eighth</type>
                <stem default-y="-46">down</stem>
                <beam number="1">continue</beam>
                <lyric default-y="-80" number="1">
                    <syllabic>single</syllabic>
                    <text>peux</text>
                </lyric>
            </note>
            <note default-x="237">
                <pitch>
                    <step>E</step>
                    <octave>5</octave>
                </pitch>
                <duration>1</duration>
                <voice>1</voice>
                <type>eighth</type>
                <stem default-y="-48">down</stem>
                <beam number="1">continue</beam>
                <lyric default-y="-80" number="1">
                    <syllabic>single</syllabic>
                    <text>plus</text>
                </lyric>
            </note>
            <note default-x="278">
                <pitch>
                    <step>C</step>
                    <octave>5</octave>
                </pitch>
                <duration>1</duration>
                <voice>1</voice>
                <type>eighth</type>
                <stem default-y="-50">down</stem>
                <beam number="1">end</beam>
                <lyric default-y="-80" number="1">
                    <syllabic>single</syllabic>
                    <text>de</text>
                </lyric>
            </note>
        </measure>
        <measure width="214" number="24">
            <harmony font-size="13.3" font-family="JazzCord" default-y="25">
                <root>
                    <root-step>A</root-step>
                </root>
                <kind text="m">minor</kind>
            </harmony>
            <note default-x="12">
                <pitch>
                    <step>D</step>
                    <octave>5</octave>
                </pitch>
                <duration>1</duration>
                <voice>1</voice>
                <type>eighth</type>
                <stem default-y="-45">down</stem>
                <lyric default-y="-80" number="1">
                    <syllabic>begin</syllabic>
                    <text>l'a</text>
                </lyric>
            </note>
            <note default-x="54">
                <pitch>
                    <step>E</step>
                    <octave>5</octave>
                </pitch>
                <duration>3</duration>
                <tie type="start"/>
                <voice>1</voice>
                <type>quarter</type>
                <dot/>
                <stem default-y="-41">down</stem>
                <notations>
                    <tied type="start"/>
                </notations>
                <lyric default-y="-80" number="1">
                    <syllabic>end</syllabic>
                    <text>ttendre</text>
                    <extend/>
                </lyric>
            </note>
            <note default-x="129">
                <pitch>
                    <step>E</step>
                    <octave>5</octave>
                </pitch>
                <duration>4</duration>
                <tie type="stop"/>
                <voice>1</voice>
                <type>half</type>
                <stem default-y="-41">down</stem>
                <notations>
                    <tied type="stop"/>
                </notations>
            </note>
        </measure>
        <measure width="186" number="25">
            <note default-x="10">
                <rest/>
                <duration>2</duration>
                <voice>1</voice>
                <type>quarter</type>
            </note>
            <note default-x="56">
                <rest/>
                <duration>4</duration>
                <voice>1</voice>
                <type>half</type>
            </note>
            <note default-x="136">
                <pitch>
                    <step>A</step>
                    <octave>4</octave>
                </pitch>
                <duration>2</duration>
                <tie type="start"/>
                <voice>1</voice>
                <type>quarter</type>
                <stem default-y="11">up</stem>
                <notations>
                    <tied type="start"/>
                </notations>
                <lyric default-y="-80" number="1">
                    <syllabic>single</syllabic>
                    <text>Les</text>
                    <extend/>
                </lyric>
            </note>
        </measure>
        <measure width="366" number="26">
            <print new-system="yes">
                <system-layout>
                    <system-distance>108</system-distance>
                </system-layout>
            </print>
            <direction placement="above">
                <direction-type>
                    <rehearsal font-size="10" default-y="48" default-x="2">B</rehearsal>
                </direction-type>
            </direction>
            <harmony font-size="13.3" font-family="JazzCord" default-y="25">
                <root>
                    <root-step>D</root-step>
                </root>
                <kind text="m">minor</kind>
            </harmony>
            <note default-x="49">
                <pitch>
                    <step>A</step>
                    <octave>4</octave>
                </pitch>
                <duration>2</duration>
                <tie type="stop"/>
                <voice>1</voice>
                <type>quarter</type>
                <stem default-y="11">up</stem>
                <notations>
                    <tied type="stop"/>
                </notations>
            </note>
            <note default-x="115">
                <pitch>
                    <step>A</step>
                    <octave>5</octave>
                </pitch>
                <duration>2</duration>
                <tie type="start"/>
                <voice>1</voice>
                <type>quarter</type>
                <stem default-y="-25.5">down</stem>
                <notations>
                    <tied type="start"/>
                </notations>
                <lyric default-y="-80" number="1">
                    <syllabic>begin</syllabic>
                    <text>an</text>
                </lyric>
            </note>
            <note default-x="182">
                <pitch>
                    <step>A</step>
                    <octave>5</octave>
                </pitch>
                <duration>1</duration>
                <tie type="stop"/>
                <voice>1</voice>
                <type>eighth</type>
                <stem default-y="-25.5">down</stem>
                <notations>
                    <tied type="stop"/>
                </notations>
            </note>
            <note default-x="226">
                <pitch>
                    <step>A</step>
                    <octave>5</octave>
                </pitch>
                <duration>2</duration>
                <voice>1</voice>
                <type>quarter</type>
                <stem default-y="-25.5">down</stem>
                <lyric default-y="-80" number="1">
                    <syllabic>end</syllabic>
                    <text>nées</text>
                </lyric>
            </note>
            <harmony font-size="13.3" font-family="JazzCord" default-y="25">
                <root>
                    <root-step>G</root-step>
                </root>
                <kind text="7">dominant</kind>
            </harmony>
            <note default-x="304">
                <pitch>
                    <step>A</step>
                    <octave>5</octave>
                </pitch>
                <duration>1</duration>
                <tie type="start"/>
                <voice>1</voice>
                <type>eighth</type>
                <stem default-y="-25.5">down</stem>
                <notations>
                    <tied type="start"/>
                </notations>
                <lyric default-y="-80" number="1">
                    <syllabic>single</syllabic>
                    <text>passent</text>
                    <extend/>
                </lyric>
            </note>
        </measure>
        <measure width="219" number="27">
            <note default-x="11">
                <pitch>
                    <step>A</step>
                    <octave>5</octave>
                </pitch>
                <duration>4</duration>
                <tie type="stop"/>
                <voice>1</voice>
                <type>half</type>
                <stem default-y="-25.5">down</stem>
                <notations>
                    <tied type="stop"/>
                </notations>
            </note>
            <note default-x="98">
                <rest/>
                <duration>2</duration>
                <voice>1</voice>
                <type>quarter</type>
            </note>
            <note default-x="151">
                <rest/>
                <duration>1</duration>
                <voice>1</voice>
                <type>eighth</type>
            </note>
            <note default-x="185">
                <pitch>
                    <step>G</step>
                    <octave>5</octave>
                </pitch>
                <duration>1</duration>
                <voice>1</voice>
                <type>eighth</type>
                <stem default-y="-30.5">down</stem>
                <lyric default-y="-80" number="1">
                    <syllabic>single</syllabic>
                    <text>qu'</text>
                </lyric>
            </note>
        </measure>
        <measure width="237" number="28">
            <harmony font-size="13.3" font-family="JazzCord" default-y="25">
                <root>
                    <root-step>C</root-step>
                </root>
                <kind text="">major</kind>
            </harmony>
            <note default-x="11">
                <pitch>
                    <step>F</step>
                    <octave>5</octave>
                </pitch>
                <duration>1</duration>
                <voice>1</voice>
                <type>eighth</type>
                <stem default-y="-35.5">down</stem>
                <lyric default-y="-80" number="1">
                    <syllabic>single</syllabic>
                    <text>il</text>
                </lyric>
            </note>
            <note default-x="47">
                <pitch>
                    <step>F</step>
                    <octave>5</octave>
                </pitch>
                <duration>3</duration>
                <voice>1</voice>
                <type>quarter</type>
                <dot/>
                <stem default-y="-35.5">down</stem>
                <lyric default-y="-80" number="1">
                    <syllabic>single</syllabic>
                    <text>est</text>
                </lyric>
            </note>
            <note default-x="123">
                <pitch>
                    <step>E</step>
                    <octave>5</octave>
                </pitch>
                <duration>3</duration>
                <voice>1</voice>
                <type>quarter</type>
                <dot/>
                <stem default-y="-40.5">down</stem>
                <lyric default-y="-80" number="1">
                    <syllabic>single</syllabic>
                    <text>loin</text>
                </lyric>
            </note>
            <note default-x="200">
                <pitch>
                    <step>D</step>
                    <alter>1</alter>
                    <octave>5</octave>
                </pitch>
                <duration>1</duration>
                <voice>1</voice>
                <type>eighth</type>
                <accidental>sharp</accidental>
                <stem default-y="-45.5">down</stem>
                <lyric default-y="-80" number="1">
                    <syllabic>single</syllabic>
                    <text>l'âge</text>
                </lyric>
            </note>
        </measure>
        <measure width="215" number="29">
            <note default-x="28">
                <pitch>
                    <step>E</step>
                    <octave>5</octave>
                </pitch>
                <duration>6</duration>
                <voice>1</voice>
                <type>half</type>
                <dot/>
                <stem default-y="-40.5">down</stem>
                <lyric default-y="-80" number="1">
                    <syllabic>single</syllabic>
                    <text>tendre</text>
                </lyric>
            </note>
            <note default-x="154">
                <pitch>
                    <step>F</step>
                    <octave>5</octave>
                </pitch>
                <duration>2</duration>
                <tie type="start"/>
                <voice>1</voice>
                <type>quarter</type>
                <stem default-y="-35.5">down</stem>
                <notations>
                    <tied type="start"/>
                </notations>
                <lyric default-y="-80" number="1">
                    <syllabic>single</syllabic>
                    <text>Nul</text>
                    <extend/>
                </lyric>
            </note>
        </measure>
        <measure width="311" number="30">
            <print new-system="yes">
                <system-layout>
                    <system-distance>108</system-distance>
                </system-layout>
            </print>
            <harmony font-size="13.3" font-family="JazzCord" relative-x="20" default-y="23">
                <root>
                    <root-step>B</root-step>
                </root>
                <kind text="m7" parentheses-degrees="yes">minor-seventh</kind>
                <degree>
                    <degree-value>5</degree-value>
                    <degree-alter>-1</degree-alter>
                    <degree-type>alter</degree-type>
                </degree>
            </harmony>
            <note default-x="49">
                <pitch>
                    <step>F</step>
                    <octave>5</octave>
                </pitch>
                <duration>2</duration>
                <tie type="stop"/>
                <voice>1</voice>
                <type>quarter</type>
                <stem default-y="-36">down</stem>
                <notations>
                    <tied type="stop"/>
                </notations>
            </note>
            <note default-x="113">
                <pitch>
                    <step>E</step>
                    <octave>5</octave>
                </pitch>
                <duration>1</duration>
                <voice>1</voice>
                <type>eighth</type>
                <stem default-y="-50">down</stem>
                <beam number="1">begin</beam>
                <lyric default-y="-80" number="1">
                    <syllabic>single</syllabic>
                    <text>ne</text>
                </lyric>
            </note>
            <note default-x="158">
                <pitch>
                    <step>B</step>
                    <octave>4</octave>
                </pitch>
                <duration>1</duration>
                <tie type="start"/>
                <voice>1</voice>
                <type>eighth</type>
                <stem default-y="-55">down</stem>
                <beam number="1">end</beam>
                <notations>
                    <tied type="start"/>
                </notations>
                <lyric default-y="-80" number="1">
                    <syllabic>single</syllabic>
                    <text>peut</text>
                    <extend/>
                </lyric>
            </note>
            <note default-x="206">
                <pitch>
                    <step>B</step>
                    <octave>4</octave>
                </pitch>
                <duration>4</duration>
                <tie type="stop"/>
                <voice>1</voice>
                <type>half</type>
                <stem default-y="-55.5">down</stem>
                <notations>
                    <tied type="stop"/>
                </notations>
            </note>
        </measure>
        <measure width="236" number="31">
            <harmony font-size="13.3" font-family="JazzCord" default-y="25">
                <root>
                    <root-step>E</root-step>
                </root>
                <kind text="7" parentheses-degrees="yes">dominant</kind>
                <degree>
                    <degree-value>9</degree-value>
                    <degree-alter>-1</degree-alter>
                    <degree-type>add</degree-type>
                </degree>
            </harmony>
            <note default-x="10">
                <rest/>
                <duration>4</duration>
                <voice>1</voice>
                <type>half</type>
            </note>
            <note default-x="105">
                <pitch>
                    <step>F</step>
                    <octave>5</octave>
                </pitch>
                <duration>2</duration>
                <tie type="start"/>
                <voice>1</voice>
                <type>quarter</type>
                <stem default-y="-36">down</stem>
                <notations>
                    <tied type="start"/>
                </notations>
                <lyric default-y="-80" number="1">
                    <syllabic>single</syllabic>
                    <text>nous</text>
                    <extend/>
                </lyric>
            </note>
            <note default-x="163">
                <pitch>
                    <step>F</step>
                    <octave>5</octave>
                </pitch>
                <duration>1</duration>
                <tie type="stop"/>
                <voice>1</voice>
                <type>eighth</type>
                <stem default-y="-30">down</stem>
                <beam number="1">begin</beam>
                <notations>
                    <tied type="stop"/>
                </notations>
            </note>
            <note default-x="199">
                <pitch>
                    <step>E</step>
                    <octave>5</octave>
                </pitch>
                <duration>1</duration>
                <voice>1</voice>
                <type>eighth</type>
                <stem default-y="-32">down</stem>
                <beam number="1">end</beam>
                <lyric default-y="-80" number="1">
                    <syllabic>begin</syllabic>
                    <text>en</text>
                </lyric>
            </note>
        </measure>
        <measure width="175" number="32">
            <harmony font-size="13.3" font-family="JazzCord" default-y="25">
                <root>
                    <root-step>A</root-step>
                </root>
                <kind text="m">minor</kind>
            </harmony>
            <note default-x="29">
                <pitch>
                    <step>A</step>
                    <octave>4</octave>
                </pitch>
                <duration>8</duration>
                <voice>1</voice>
                <type>whole</type>
                <lyric default-y="-80" number="1">
                    <syllabic>end</syllabic>
                    <text>tendre</text>
                </lyric>
            </note>
        </measure>
        <measure width="316" number="33">
            <note default-x="10">
                <rest/>
                <duration>4</duration>
                <voice>1</voice>
                <type>half</type>
            </note>
            <note default-x="125">
                <pitch>
                    <step>C</step>
                    <octave>5</octave>
                </pitch>
                <duration>1</duration>
                <voice>1</voice>
                <type>eighth</type>
                <stem default-y="-50">down</stem>
                <beam number="1">begin</beam>
                <lyric default-y="-80" number="1">
                    <syllabic>single</syllabic>
                    <text>Je</text>
                </lyric>
            </note>
            <note default-x="168">
                <pitch>
                    <step>D</step>
                    <octave>5</octave>
                </pitch>
                <duration>1</duration>
                <voice>1</voice>
                <type>eighth</type>
                <stem default-y="-48.5">down</stem>
                <beam number="1">continue</beam>
                <lyric default-y="-80" number="1">
                    <syllabic>begin</syllabic>
                    <text>vou</text>
                </lyric>
            </note>
            <note default-x="211">
                <pitch>
                    <step>E</step>
                    <octave>5</octave>
                </pitch>
                <duration>1</duration>
                <voice>1</voice>
                <type>eighth</type>
                <stem default-y="-46.5">down</stem>
                <beam number="1">continue</beam>
                <lyric default-y="-80" number="1">
                    <syllabic>end</syllabic>
                    <text>drais</text>
                </lyric>
            </note>
            <note default-x="254">
                <pitch>
                    <step>D</step>
                    <octave>5</octave>
                </pitch>
                <duration>1</duration>
                <voice>1</voice>
                <type>eighth</type>
                <stem default-y="-45">down</stem>
                <beam number="1">end</beam>
                <lyric default-y="-80" number="1">
                    <syllabic>single</syllabic>
                    <text>du</text>
                </lyric>
            </note>
            <barline location="right">
                <bar-style>light-heavy</bar-style>
                <repeat direction="backward"/>
            </barline>
        </measure>
    </part>
</score-partwise>
