<?xml version="1.0" encoding="UTF-8"?>
<!DOCTYPE score-partwise PUBLIC "-//Recordare//DTD MusicXML 2.0 Partwise//EN" "http://www.musicxml.org/dtds/partwise.dtd">
<score-partwise version="2.0">
    <work>
        <work-number></work-number>
        <work-title></work-title>
    </work>
    <movement-number></movement-number>
    <movement-title>Carry Me Back To Old Virginny</movement-title>
    <identification>
        <creator type="composer">James A. Bland</creator>
        <creator type="poet">James A. Bland</creator>
        <rights>All Rights Reserved</rights>
        <encoding>
            <software>MuseScore 1.0</software>
            <encoding-date>2011-03-10</encoding-date>
            <software>ProxyMusic 2.0 c</software>
        </encoding>
        <source>http://wikifonia.org/node/9938/revisions/13498/view</source>
    </identification>
    <defaults>
        <scaling>
            <millimeters>7.056</millimeters>
            <tenths>40</tenths>
        </scaling>
        <page-layout>
            <page-height>1683.67</page-height>
            <page-width>1190.48</page-width>
            <page-margins type="even">
                <left-margin>56.6893</left-margin>
                <right-margin>56.6893</right-margin>
                <top-margin>56.6893</top-margin>
                <bottom-margin>113.379</bottom-margin>
            </page-margins>
            <page-margins type="odd">
                <left-margin>56.6893</left-margin>
                <right-margin>56.6893</right-margin>
                <top-margin>56.6893</top-margin>
                <bottom-margin>113.379</bottom-margin>
            </page-margins>
        </page-layout>
    </defaults>
    <credit page="1">
        <credit-words font-size="24" default-y="1626.98" default-x="595.238" justify="center" valign="top">Carry Me Back To Old Virginny</credit-words>
    </credit>
    <part-list>
        <part-group type="start" number="1">
            <group-symbol>brace</group-symbol>
        </part-group>
        <score-part id="P1">
            <part-name>Piano</part-name>
            <part-abbreviation>Pno.</part-abbreviation>
            <score-instrument id="P1-I3">
                <instrument-name>Piano</instrument-name>
            </score-instrument>
            <midi-instrument id="P1-I3">
                <midi-channel>1</midi-channel>
                <midi-program>1</midi-program>
            </midi-instrument>
        </score-part>
    </part-list>
    <part id="P1">
        <measure width="345.00" number="1">
            <print>
                <system-layout>
                    <system-margins>
                        <left-margin>90.11</left-margin>
                        <right-margin>0.00</right-margin>
                    </system-margins>
                    <top-system-distance>261.06</top-system-distance>
                </system-layout>
            </print>
            <attributes>
                <divisions>4</divisions>
                <key>
                    <fifths>1</fifths>
                    <mode>major</mode>
                </key>
                <time>
                    <beats>4</beats>
                    <beat-type>4</beat-type>
                </time>
                <clef>
                    <sign>G</sign>
                    <line>2</line>
                </clef>
            </attributes>
            <harmony print-frame="no">
                <root>
                    <root-step>G</root-step>
                </root>
                <kind text="">major</kind>
            </harmony>
            <note default-y="-20.00" default-x="103.35">
                <pitch>
                    <step>B</step>
                    <octave>4</octave>
                </pitch>
                <duration>2</duration>
                <voice>1</voice>
                <type>eighth</type>
                <stem>down</stem>
                <lyric number="1">
                    <syllabic>begin</syllabic>
                    <text>Car</text>
                </lyric>
            </note>
            <note default-y="-20.00" default-x="137.36">
                <pitch>
                    <step>B</step>
                    <octave>4</octave>
                </pitch>
                <duration>4</duration>
                <voice>1</voice>
                <type>quarter</type>
                <stem>down</stem>
                <lyric number="1">
                    <syllabic>end</syllabic>
                    <text>ry</text>
                </lyric>
            </note>
            <note default-y="-15.00" default-x="191.78">
                <pitch>
                    <step>C</step>
                    <octave>5</octave>
                </pitch>
                <duration>2</duration>
                <voice>1</voice>
                <type>eighth</type>
                <stem>down</stem>
                <lyric number="1">
                    <syllabic>single</syllabic>
                    <text>me</text>
                </lyric>
            </note>
            <note default-y="-20.00" default-x="234.56">
                <pitch>
                    <step>B</step>
                    <octave>4</octave>
                </pitch>
                <duration>4</duration>
                <voice>1</voice>
                <type>quarter</type>
                <stem>down</stem>
                <lyric number="1">
                    <syllabic>single</syllabic>
                    <text>back</text>
                </lyric>
            </note>
            <note default-y="-25.00" default-x="288.98">
                <pitch>
                    <step>A</step>
                    <octave>4</octave>
                </pitch>
                <duration>4</duration>
                <voice>1</voice>
                <type>quarter</type>
                <stem>up</stem>
                <lyric number="1">
                    <syllabic>single</syllabic>
                    <text>to</text>
                </lyric>
            </note>
        </measure>
        <measure width="248.91" number="2">
            <harmony print-frame="no">
                <root>
                    <root-step>C</root-step>
                </root>
                <kind text="">major</kind>
            </harmony>
            <note default-y="-30.00" default-x="19.81">
                <pitch>
                    <step>G</step>
                    <octave>4</octave>
                </pitch>
                <duration>6</duration>
                <voice>1</voice>
                <type>quarter</type>
                <dot/>
                <stem>up</stem>
                <lyric number="1">
                    <syllabic>single</syllabic>
                    <text>old</text>
                </lyric>
            </note>
            <note default-y="-40.00" default-x="91.76">
                <pitch>
                    <step>E</step>
                    <octave>4</octave>
                </pitch>
                <duration>2</duration>
                <voice>1</voice>
                <type>eighth</type>
                <stem>up</stem>
                <lyric number="1">
                    <syllabic>begin</syllabic>
                    <text>Vir</text>
                </lyric>
            </note>
            <harmony print-frame="no">
                <root>
                    <root-step>G</root-step>
                </root>
                <kind text="">major</kind>
            </harmony>
            <note default-y="-45.00" default-x="134.14">
                <pitch>
                    <step>D</step>
                    <octave>4</octave>
                </pitch>
                <duration>2</duration>
                <voice>1</voice>
                <type>eighth</type>
                <stem>up</stem>
                <lyric number="1">
                    <syllabic>middle</syllabic>
                    <text>gin</text>
                </lyric>
            </note>
            <note default-y="-30.00" default-x="175.36">
                <pitch>
                    <step>G</step>
                    <octave>4</octave>
                </pitch>
                <duration>6</duration>
                <voice>1</voice>
                <type>quarter</type>
                <dot/>
                <stem>up</stem>
                <lyric number="1">
                    <syllabic>end</syllabic>
                    <text>ny,</text>
                </lyric>
            </note>
        </measure>
        <measure width="393.07" number="3">
            <note default-y="-45.00" default-x="34.66">
                <pitch>
                    <step>D</step>
                    <octave>4</octave>
                </pitch>
                <duration>4</duration>
                <voice>1</voice>
                <type>quarter</type>
                <stem>up</stem>
                <lyric number="1">
                    <syllabic>single</syllabic>
                    <text>there's</text>
                </lyric>
            </note>
            <note default-y="-30.00" default-x="101.74">
                <pitch>
                    <step>G</step>
                    <octave>4</octave>
                </pitch>
                <duration>3</duration>
                <voice>1</voice>
                <type>eighth</type>
                <dot/>
                <stem>up</stem>
                <beam number="1">begin</beam>
                <lyric number="1">
                    <syllabic>single</syllabic>
                    <text>where</text>
                </lyric>
            </note>
            <note default-y="-25.00" default-x="161.22">
                <pitch>
                    <step>A</step>
                    <octave>4</octave>
                </pitch>
                <duration>1</duration>
                <voice>1</voice>
                <type>16th</type>
                <stem>up</stem>
                <beam number="1">end</beam>
                <beam number="2">backward hook</beam>
                <lyric number="1">
                    <syllabic>single</syllabic>
                    <text>the</text>
                </lyric>
            </note>
            <note default-y="-20.00" default-x="196.34">
                <pitch>
                    <step>B</step>
                    <octave>4</octave>
                </pitch>
                <duration>2</duration>
                <voice>1</voice>
                <type>eighth</type>
                <stem>down</stem>
                <beam number="1">begin</beam>
                <lyric number="1">
                    <syllabic>begin</syllabic>
                    <text>cot</text>
                </lyric>
            </note>
            <note default-y="-20.00" default-x="245.13">
                <pitch>
                    <step>B</step>
                    <octave>4</octave>
                </pitch>
                <duration>2</duration>
                <voice>1</voice>
                <type>eighth</type>
                <stem>down</stem>
                <beam number="1">continue</beam>
                <lyric number="1">
                    <syllabic>end</syllabic>
                    <text>ton</text>
                </lyric>
            </note>
            <note default-y="-15.00" default-x="293.91">
                <pitch>
                    <step>C</step>
                    <octave>5</octave>
                </pitch>
                <duration>2</duration>
                <voice>1</voice>
                <type>eighth</type>
                <stem>down</stem>
                <beam number="1">continue</beam>
                <lyric number="1">
                    <syllabic>single</syllabic>
                    <text>and</text>
                </lyric>
            </note>
            <note default-y="-20.00" default-x="342.69">
                <pitch>
                    <step>B</step>
                    <octave>4</octave>
                </pitch>
                <duration>2</duration>
                <voice>1</voice>
                <type>eighth</type>
                <stem>down</stem>
                <beam number="1">end</beam>
                <lyric number="1">
                    <syllabic>single</syllabic>
                    <text>the</text>
                </lyric>
            </note>
        </measure>
        <measure width="319.10" number="4">
            <print new-system="yes">
                <system-layout>
                    <system-margins>
                        <left-margin>77.95</left-margin>
                        <right-margin>0.00</right-margin>
                    </system-margins>
                    <system-distance>186.02</system-distance>
                </system-layout>
            </print>
            <harmony print-frame="no">
                <root>
                    <root-step>A</root-step>
                </root>
                <kind text="7">dominant</kind>
            </harmony>
            <note default-y="-20.00" default-x="86.10">
                <pitch>
                    <step>B</step>
                    <octave>4</octave>
                </pitch>
                <duration>2</duration>
                <voice>1</voice>
                <type>eighth</type>
                <stem>up</stem>
                <beam number="1">begin</beam>
                <lyric number="1">
                    <syllabic>single</syllabic>
                    <text>corn</text>
                </lyric>
            </note>
            <note default-y="-30.00" default-x="130.16">
                <pitch>
                    <step>G</step>
                    <octave>4</octave>
                </pitch>
                <duration>2</duration>
                <voice>1</voice>
                <type>eighth</type>
                <stem>up</stem>
                <beam number="1">continue</beam>
                <lyric number="1">
                    <syllabic>single</syllabic>
                    <text>and</text>
                </lyric>
            </note>
            <note default-y="-35.00" default-x="164.16">
                <pitch>
                    <step>F</step>
                    <alter>1</alter>
                    <octave>4</octave>
                </pitch>
                <duration>2</duration>
                <voice>1</voice>
                <type>eighth</type>
                <stem>up</stem>
                <beam number="1">continue</beam>
                <lyric number="1">
                    <syllabic>begin</syllabic>
                    <text>'ta</text>
                </lyric>
            </note>
            <note default-y="-30.00" default-x="201.37">
                <pitch>
                    <step>G</step>
                    <octave>4</octave>
                </pitch>
                <duration>2</duration>
                <voice>1</voice>
                <type>eighth</type>
                <stem>up</stem>
                <beam number="1">end</beam>
                <lyric number="1">
                    <syllabic>end</syllabic>
                    <text>toes</text>
                </lyric>
            </note>
            <harmony print-frame="no">
                <root>
                    <root-step>D</root-step>
                </root>
                <kind text="7">dominant</kind>
            </harmony>
            <note default-y="-25.00" default-x="252.61">
                <pitch>
                    <step>A</step>
                    <octave>4</octave>
                </pitch>
                <duration>8</duration>
                <voice>1</voice>
                <type>half</type>
                <stem>up</stem>
                <lyric number="1">
                    <syllabic>single</syllabic>
                    <text>grow.</text>
                </lyric>
            </note>
        </measure>
        <measure width="366.49" number="5">
            <harmony print-frame="no">
                <root>
                    <root-step>G</root-step>
                </root>
                <kind text="">major</kind>
            </harmony>
            <note default-y="-20.00" default-x="52.40">
                <pitch>
                    <step>B</step>
                    <octave>4</octave>
                </pitch>
                <duration>4</duration>
                <voice>1</voice>
                <type>quarter</type>
                <stem>down</stem>
                <lyric number="1">
                    <syllabic>single</syllabic>
                    <text>There's</text>
                </lyric>
            </note>
            <note default-y="-15.00" default-x="120.90">
                <pitch>
                    <step>C</step>
                    <octave>5</octave>
                </pitch>
                <duration>3</duration>
                <voice>1</voice>
                <type>eighth</type>
                <dot/>
                <stem>down</stem>
                <beam number="1">begin</beam>
                <lyric number="1">
                    <syllabic>single</syllabic>
                    <text>where</text>
                </lyric>
            </note>
            <note default-y="-20.00" default-x="173.96">
                <pitch>
                    <step>B</step>
                    <octave>4</octave>
                </pitch>
                <duration>1</duration>
                <voice>1</voice>
                <type>16th</type>
                <stem>down</stem>
                <beam number="1">end</beam>
                <beam number="2">backward hook</beam>
                <lyric number="1">
                    <syllabic>single</syllabic>
                    <text>the</text>
                </lyric>
            </note>
            <note default-y="-20.00" default-x="218.04">
                <pitch>
                    <step>B</step>
                    <octave>4</octave>
                </pitch>
                <duration>4</duration>
                <voice>1</voice>
                <type>quarter</type>
                <stem>down</stem>
                <lyric number="1">
                    <syllabic>single</syllabic>
                    <text>birds</text>
                </lyric>
            </note>
            <harmony print-frame="no">
                <root>
                    <root-step>G</root-step>
                </root>
                <kind text="7">dominant</kind>
            </harmony>
            <note default-y="-25.00" default-x="277.87">
                <pitch>
                    <step>A</step>
                    <octave>4</octave>
                </pitch>
                <duration>2</duration>
                <voice>1</voice>
                <type>eighth</type>
                <stem>up</stem>
                <beam number="1">begin</beam>
                <lyric number="1">
                    <syllabic>begin</syllabic>
                    <text>war</text>
                </lyric>
            </note>
            <note default-y="-30.00" default-x="321.38">
                <pitch>
                    <step>G</step>
                    <octave>4</octave>
                </pitch>
                <duration>2</duration>
                <voice>1</voice>
                <type>eighth</type>
                <stem>up</stem>
                <beam number="1">end</beam>
                <lyric number="1">
                    <syllabic>end</syllabic>
                    <text>ble</text>
                </lyric>
            </note>
        </measure>
        <measure width="313.56" number="6">
            <harmony print-frame="no">
                <root>
                    <root-step>C</root-step>
                </root>
                <kind text="">major</kind>
            </harmony>
            <note default-y="-25.00" default-x="45.21">
                <pitch>
                    <step>A</step>
                    <octave>4</octave>
                </pitch>
                <duration>4</duration>
                <voice>1</voice>
                <type>quarter</type>
                <stem>up</stem>
                <lyric number="1">
                    <syllabic>single</syllabic>
                    <text>sweet</text>
                </lyric>
            </note>
            <note default-y="-30.00" default-x="97.01">
                <pitch>
                    <step>G</step>
                    <octave>4</octave>
                </pitch>
                <duration>3</duration>
                <voice>1</voice>
                <type>eighth</type>
                <dot/>
                <stem>up</stem>
                <beam number="1">begin</beam>
                <lyric number="1">
                    <syllabic>single</syllabic>
                    <text>in</text>
                </lyric>
            </note>
            <note default-y="-40.00" default-x="142.95">
                <pitch>
                    <step>E</step>
                    <octave>4</octave>
                </pitch>
                <duration>1</duration>
                <voice>1</voice>
                <type>16th</type>
                <stem>up</stem>
                <beam number="1">end</beam>
                <beam number="2">backward hook</beam>
                <lyric number="1">
                    <syllabic>single</syllabic>
                    <text>the</text>
                </lyric>
            </note>
            <harmony print-frame="no">
                <root>
                    <root-step>G</root-step>
                </root>
                <kind text="">major</kind>
            </harmony>
            <note default-y="-45.00" default-x="192.79">
                <pitch>
                    <step>D</step>
                    <octave>4</octave>
                </pitch>
                <duration>2</duration>
                <voice>1</voice>
                <type>eighth</type>
                <stem>up</stem>
                <lyric number="1">
                    <syllabic>begin</syllabic>
                    <text>spring</text>
                </lyric>
            </note>
            <note default-y="-30.00" default-x="251.90">
                <pitch>
                    <step>G</step>
                    <octave>4</octave>
                </pitch>
                <duration>6</duration>
                <voice>1</voice>
                <type>quarter</type>
                <dot/>
                <stem>up</stem>
                <lyric number="1">
                    <syllabic>end</syllabic>
                    <text>time,</text>
                </lyric>
            </note>
        </measure>
        <measure width="525.08" number="7">
            <print new-system="yes">
                <system-layout>
                    <system-margins>
                        <left-margin>77.95</left-margin>
                        <right-margin>0.00</right-margin>
                    </system-margins>
                    <system-distance>186.02</system-distance>
                </system-layout>
            </print>
            <note default-y="-45.00" default-x="99.05">
                <pitch>
                    <step>D</step>
                    <octave>4</octave>
                </pitch>
                <duration>4</duration>
                <voice>1</voice>
                <type>quarter</type>
                <stem>up</stem>
                <lyric number="1">
                    <syllabic>single</syllabic>
                    <text>There's</text>
                </lyric>
            </note>
            <note default-y="-30.00" default-x="187.55">
                <pitch>
                    <step>G</step>
                    <octave>4</octave>
                </pitch>
                <duration>3</duration>
                <voice>1</voice>
                <type>eighth</type>
                <dot/>
                <stem>up</stem>
                <beam number="1">begin</beam>
                <lyric number="1">
                    <syllabic>single</syllabic>
                    <text>where</text>
                </lyric>
            </note>
            <note default-y="-25.00" default-x="266.03">
                <pitch>
                    <step>A</step>
                    <octave>4</octave>
                </pitch>
                <duration>1</duration>
                <voice>1</voice>
                <type>16th</type>
                <stem>up</stem>
                <beam number="1">end</beam>
                <beam number="2">backward hook</beam>
                <lyric number="1">
                    <syllabic>single</syllabic>
                    <text>this</text>
                </lyric>
            </note>
            <note default-y="-20.00" default-x="306.25">
                <pitch>
                    <step>B</step>
                    <octave>4</octave>
                </pitch>
                <duration>4</duration>
                <voice>1</voice>
                <type>quarter</type>
                <stem>down</stem>
                <lyric number="1">
                    <syllabic>single</syllabic>
                    <text>old</text>
                </lyric>
            </note>
            <harmony print-frame="no">
                <root>
                    <root-step>C</root-step>
                </root>
                <kind text="">major</kind>
            </harmony>
            <note default-y="-15.00" default-x="394.75">
                <pitch>
                    <step>C</step>
                    <octave>5</octave>
                </pitch>
                <duration>2</duration>
                <voice>1</voice>
                <type>eighth</type>
                <stem>down</stem>
                <beam number="1">begin</beam>
                <lyric number="1">
                    <syllabic>begin</syllabic>
                    <text>dark</text>
                </lyric>
            </note>
            <note default-y="-20.00" default-x="459.12">
                <pitch>
                    <step>B</step>
                    <octave>4</octave>
                </pitch>
                <duration>2</duration>
                <voice>1</voice>
                <type>eighth</type>
                <stem>down</stem>
                <beam number="1">end</beam>
                <lyric number="1">
                    <syllabic>end</syllabic>
                    <text>ey's</text>
                </lyric>
            </note>
        </measure>
        <measure width="474.07" number="8">
            <harmony print-frame="no">
                <root>
                    <root-step>D</root-step>
                </root>
                <kind text="7">dominant</kind>
            </harmony>
            <note default-y="-20.00" default-x="42.00">
                <pitch>
                    <step>B</step>
                    <octave>4</octave>
                </pitch>
                <duration>2</duration>
                <voice>1</voice>
                <type>eighth</type>
                <stem>up</stem>
                <beam number="1">begin</beam>
                <lyric number="1">
                    <syllabic>single</syllabic>
                    <text>heart</text>
                </lyric>
            </note>
            <note default-y="-25.00" default-x="108.86">
                <pitch>
                    <step>A</step>
                    <octave>4</octave>
                </pitch>
                <duration>2</duration>
                <voice>1</voice>
                <type>eighth</type>
                <stem>up</stem>
                <beam number="1">continue</beam>
                <lyric number="1">
                    <syllabic>single</syllabic>
                    <text>am</text>
                </lyric>
            </note>
            <note default-y="-30.00" default-x="175.71">
                <pitch>
                    <step>G</step>
                    <octave>4</octave>
                </pitch>
                <duration>3</duration>
                <voice>1</voice>
                <type>eighth</type>
                <dot/>
                <stem>up</stem>
                <beam number="1">continue</beam>
                <lyric number="1">
                    <syllabic>single</syllabic>
                    <text>long'd</text>
                </lyric>
            </note>
            <note default-y="-35.00" default-x="257.23">
                <pitch>
                    <step>F</step>
                    <alter>1</alter>
                    <octave>4</octave>
                </pitch>
                <duration>1</duration>
                <voice>1</voice>
                <type>16th</type>
                <stem>up</stem>
                <beam number="1">end</beam>
                <beam number="2">backward hook</beam>
                <lyric number="1">
                    <syllabic>single</syllabic>
                    <text>to</text>
                </lyric>
            </note>
            <harmony print-frame="no">
                <root>
                    <root-step>G</root-step>
                </root>
                <kind text="">major</kind>
            </harmony>
            <note default-y="-30.00" default-x="299.02">
                <pitch>
                    <step>G</step>
                    <octave>4</octave>
                </pitch>
                <duration>6</duration>
                <voice>1</voice>
                <type>quarter</type>
                <dot/>
                <stem>up</stem>
                <lyric number="1">
                    <syllabic>single</syllabic>
                    <text>go,</text>
                </lyric>
            </note>
            <note>
                <rest/>
                <duration>2</duration>
                <voice>1</voice>
                <type>eighth</type>
            </note>
        </measure>
        <measure width="559.54" number="9">
            <print new-system="yes">
                <system-layout>
                    <system-margins>
                        <left-margin>77.95</left-margin>
                        <right-margin>0.00</right-margin>
                    </system-margins>
                    <system-distance>186.02</system-distance>
                </system-layout>
            </print>
            <harmony print-frame="no">
                <root>
                    <root-step>D</root-step>
                </root>
                <kind text="7">dominant</kind>
            </harmony>
            <note default-y="-25.00" default-x="99.05">
                <pitch>
                    <step>A</step>
                    <octave>4</octave>
                </pitch>
                <duration>4</duration>
                <voice>1</voice>
                <type>quarter</type>
                <stem>up</stem>
                <lyric number="1">
                    <syllabic>single</syllabic>
                    <text>There's</text>
                </lyric>
            </note>
            <note default-y="-25.00" default-x="186.45">
                <pitch>
                    <step>A</step>
                    <octave>4</octave>
                </pitch>
                <duration>3</duration>
                <voice>1</voice>
                <type>eighth</type>
                <dot/>
                <stem>up</stem>
                <beam number="1">begin</beam>
                <lyric number="1">
                    <syllabic>single</syllabic>
                    <text>where</text>
                </lyric>
            </note>
            <note default-y="-20.00" default-x="263.96">
                <pitch>
                    <step>B</step>
                    <octave>4</octave>
                </pitch>
                <duration>1</duration>
                <voice>1</voice>
                <type>16th</type>
                <stem>up</stem>
                <beam number="1">end</beam>
                <beam number="2">backward hook</beam>
                <lyric number="1">
                    <syllabic>single</syllabic>
                    <text>I</text>
                </lyric>
            </note>
            <note default-y="-15.00" default-x="303.68">
                <pitch>
                    <step>C</step>
                    <octave>5</octave>
                </pitch>
                <duration>2</duration>
                <voice>1</voice>
                <type>eighth</type>
                <stem>down</stem>
                <beam number="1">begin</beam>
                <lyric number="1">
                    <syllabic>single</syllabic>
                    <text>la</text>
                </lyric>
            </note>
            <note default-y="-10.00" default-x="367.25">
                <pitch>
                    <step>D</step>
                    <octave>5</octave>
                </pitch>
                <duration>2</duration>
                <voice>1</voice>
                <type>eighth</type>
                <stem>down</stem>
                <beam number="1">continue</beam>
                <lyric number="1">
                    <syllabic>single</syllabic>
                    <text>bor'd</text>
                </lyric>
            </note>
            <note default-y="-15.00" default-x="430.81">
                <pitch>
                    <step>C</step>
                    <octave>5</octave>
                </pitch>
                <duration>2</duration>
                <voice>1</voice>
                <type>eighth</type>
                <stem>down</stem>
                <beam number="1">continue</beam>
                <notations>
                    <slur type="start" number="1"/>
                </notations>
                <lyric number="1">
                    <syllabic>single</syllabic>
                    <text>so</text>
                    <extend/>
                </lyric>
            </note>
            <note default-y="-20.00" default-x="494.38">
                <pitch>
                    <step>B</step>
                    <octave>4</octave>
                </pitch>
                <duration>2</duration>
                <voice>1</voice>
                <type>eighth</type>
                <stem>down</stem>
                <beam number="1">end</beam>
                <notations>
                    <slur type="stop" number="1"/>
                </notations>
            </note>
        </measure>
        <measure width="439.61" number="10">
            <harmony print-frame="no">
                <root>
                    <root-step>G</root-step>
                </root>
                <kind text="">major</kind>
            </harmony>
            <note default-y="-20.00" default-x="39.45">
                <pitch>
                    <step>B</step>
                    <octave>4</octave>
                </pitch>
                <duration>4</duration>
                <voice>1</voice>
                <type>quarter</type>
                <stem>down</stem>
                <lyric number="1">
                    <syllabic>single</syllabic>
                    <text>hard</text>
                </lyric>
            </note>
            <note default-y="-20.00" default-x="133.71">
                <pitch>
                    <step>B</step>
                    <octave>4</octave>
                </pitch>
                <duration>3</duration>
                <voice>1</voice>
                <type>eighth</type>
                <dot/>
                <stem>down</stem>
                <beam number="1">begin</beam>
                <lyric number="1">
                    <syllabic>single</syllabic>
                    <text>for</text>
                </lyric>
            </note>
            <note default-y="-15.00" default-x="217.30">
                <pitch>
                    <step>C</step>
                    <octave>5</octave>
                </pitch>
                <duration>1</duration>
                <voice>1</voice>
                <type>16th</type>
                <stem>down</stem>
                <beam number="1">end</beam>
                <beam number="2">backward hook</beam>
                <lyric number="1">
                    <syllabic>single</syllabic>
                    <text>old</text>
                </lyric>
            </note>
            <note default-y="-10.00" default-x="260.15">
                <pitch>
                    <step>D</step>
                    <octave>5</octave>
                </pitch>
                <duration>2</duration>
                <voice>1</voice>
                <type>eighth</type>
                <stem>down</stem>
                <lyric number="1">
                    <syllabic>begin</syllabic>
                    <text>Mas</text>
                </lyric>
            </note>
            <note default-y="-20.00" default-x="328.70">
                <pitch>
                    <step>B</step>
                    <octave>4</octave>
                </pitch>
                <duration>6</duration>
                <voice>1</voice>
                <type>quarter</type>
                <dot/>
                <stem>down</stem>
                <lyric number="1">
                    <syllabic>end</syllabic>
                    <text>sa,</text>
                </lyric>
            </note>
        </measure>
        <measure width="366.13" number="11">
            <print new-system="yes">
                <system-layout>
                    <system-margins>
                        <left-margin>77.95</left-margin>
                        <right-margin>0.00</right-margin>
                    </system-margins>
                    <system-distance>186.02</system-distance>
                </system-layout>
            </print>
            <note default-y="-10.00" default-x="84.82">
                <pitch>
                    <step>D</step>
                    <octave>5</octave>
                </pitch>
                <duration>4</duration>
                <voice>1</voice>
                <type>quarter</type>
                <stem>down</stem>
                <lyric number="1">
                    <syllabic>single</syllabic>
                    <text>Day</text>
                </lyric>
            </note>
            <harmony print-frame="no">
                <root>
                    <root-step>D</root-step>
                </root>
                <kind text="7">dominant</kind>
            </harmony>
            <note default-y="-15.00" default-x="142.52">
                <pitch>
                    <step>C</step>
                    <octave>5</octave>
                </pitch>
                <duration>3</duration>
                <voice>1</voice>
                <type>eighth</type>
                <dot/>
                <stem>down</stem>
                <beam number="1">begin</beam>
                <lyric number="1">
                    <syllabic>begin</syllabic>
                    <text>af</text>
                </lyric>
            </note>
            <note default-y="-20.00" default-x="193.68">
                <pitch>
                    <step>B</step>
                    <octave>4</octave>
                </pitch>
                <duration>1</duration>
                <voice>1</voice>
                <type>16th</type>
                <stem>down</stem>
                <beam number="1">end</beam>
                <beam number="2">backward hook</beam>
                <lyric number="1">
                    <syllabic>end</syllabic>
                    <text>ter</text>
                </lyric>
            </note>
            <harmony print-frame="no">
                <root>
                    <root-step>G</root-step>
                </root>
                <kind text="">major</kind>
            </harmony>
            <note default-y="-20.00" default-x="229.44">
                <pitch>
                    <step>B</step>
                    <octave>4</octave>
                </pitch>
                <duration>4</duration>
                <voice>1</voice>
                <type>quarter</type>
                <stem>down</stem>
                <lyric number="1">
                    <syllabic>single</syllabic>
                    <text>day</text>
                </lyric>
            </note>
            <harmony print-frame="no">
                <root>
                    <root-step>B</root-step>
                </root>
                <kind text="7">dominant</kind>
            </harmony>
            <note default-y="-25.00" default-x="287.13">
                <pitch>
                    <step>A</step>
                    <octave>4</octave>
                </pitch>
                <duration>3</duration>
                <voice>1</voice>
                <type>eighth</type>
                <dot/>
                <stem>up</stem>
                <beam number="1">begin</beam>
                <lyric number="1">
                    <syllabic>single</syllabic>
                    <text>in</text>
                </lyric>
            </note>
            <harmony print-frame="no">
                <root>
                    <root-step>E</root-step>
                </root>
                <kind text="m">minor</kind>
            </harmony>
            <note default-y="-30.00" default-x="338.30">
                <pitch>
                    <step>G</step>
                    <octave>4</octave>
                </pitch>
                <duration>1</duration>
                <voice>1</voice>
                <type>16th</type>
                <stem>up</stem>
                <beam number="1">end</beam>
                <beam number="2">backward hook</beam>
                <lyric number="1">
                    <syllabic>single</syllabic>
                    <text>the</text>
                </lyric>
            </note>
        </measure>
        <measure width="311.97" number="12">
            <harmony print-frame="no">
                <root>
                    <root-step>A</root-step>
                </root>
                <kind text="7">dominant</kind>
            </harmony>
            <note default-y="-30.00" default-x="44.58">
                <pitch>
                    <step>G</step>
                    <octave>4</octave>
                </pitch>
                <duration>2</duration>
                <voice>1</voice>
                <type>eighth</type>
                <stem>up</stem>
                <beam number="1">begin</beam>
                <lyric number="1">
                    <syllabic>single</syllabic>
                    <text>fields</text>
                </lyric>
            </note>
            <note default-y="-30.00" default-x="87.50">
                <pitch>
                    <step>G</step>
                    <octave>4</octave>
                </pitch>
                <duration>2</duration>
                <voice>1</voice>
                <type>eighth</type>
                <stem>up</stem>
                <beam number="1">continue</beam>
                <lyric number="1">
                    <syllabic>single</syllabic>
                    <text>of</text>
                </lyric>
            </note>
            <note default-y="-35.00" default-x="129.23">
                <pitch>
                    <step>F</step>
                    <alter>1</alter>
                    <octave>4</octave>
                </pitch>
                <duration>2</duration>
                <voice>1</voice>
                <type>eighth</type>
                <stem>up</stem>
                <beam number="1">continue</beam>
                <lyric number="1">
                    <syllabic>single</syllabic>
                    <text>yel</text>
                </lyric>
            </note>
            <note default-y="-30.00" default-x="170.97">
                <pitch>
                    <step>G</step>
                    <octave>4</octave>
                </pitch>
                <duration>2</duration>
                <voice>1</voice>
                <type>eighth</type>
                <stem>up</stem>
                <beam number="1">end</beam>
                <lyric number="1">
                    <syllabic>single</syllabic>
                    <text>low</text>
                </lyric>
            </note>
            <harmony print-frame="no">
                <root>
                    <root-step>D</root-step>
                </root>
                <kind text="7">dominant</kind>
            </harmony>
            <note default-y="-25.00" default-x="218.55">
                <pitch>
                    <step>A</step>
                    <octave>4</octave>
                </pitch>
                <duration>8</duration>
                <voice>1</voice>
                <type>half</type>
                <stem>up</stem>
                <lyric number="1">
                    <syllabic>single</syllabic>
                    <text>corn.</text>
                </lyric>
            </note>
        </measure>
        <measure width="321.05" number="13">
            <harmony print-frame="no">
                <root>
                    <root-step>G</root-step>
                </root>
                <kind text="">major</kind>
            </harmony>
            <note default-y="-20.00" default-x="33.06">
                <pitch>
                    <step>B</step>
                    <octave>4</octave>
                </pitch>
                <duration>4</duration>
                <voice>1</voice>
                <type>quarter</type>
                <stem>down</stem>
                <lyric number="1">
                    <syllabic>single</syllabic>
                    <text>No</text>
                </lyric>
            </note>
            <note default-y="-15.00" default-x="89.43">
                <pitch>
                    <step>C</step>
                    <octave>5</octave>
                </pitch>
                <duration>3</duration>
                <voice>1</voice>
                <type>eighth</type>
                <dot/>
                <stem>down</stem>
                <beam number="1">begin</beam>
                <lyric number="1">
                    <syllabic>single</syllabic>
                    <text>place</text>
                </lyric>
            </note>
            <note default-y="-20.00" default-x="139.42">
                <pitch>
                    <step>B</step>
                    <octave>4</octave>
                </pitch>
                <duration>1</duration>
                <voice>1</voice>
                <type>16th</type>
                <stem>down</stem>
                <beam number="1">end</beam>
                <beam number="2">backward hook</beam>
                <lyric number="1">
                    <syllabic>single</syllabic>
                    <text>on</text>
                </lyric>
            </note>
            <note default-y="-20.00" default-x="181.09">
                <pitch>
                    <step>B</step>
                    <octave>4</octave>
                </pitch>
                <duration>4</duration>
                <voice>1</voice>
                <type>quarter</type>
                <stem>down</stem>
                <lyric number="1">
                    <syllabic>single</syllabic>
                    <text>earth</text>
                </lyric>
            </note>
            <harmony print-frame="no">
                <root>
                    <root-step>G</root-step>
                </root>
                <kind text="7">dominant</kind>
            </harmony>
            <note default-y="-25.00" default-x="237.46">
                <pitch>
                    <step>A</step>
                    <octave>4</octave>
                </pitch>
                <duration>2</duration>
                <voice>1</voice>
                <type>eighth</type>
                <stem>up</stem>
                <beam number="1">begin</beam>
                <lyric number="1">
                    <syllabic>single</syllabic>
                    <text>do</text>
                </lyric>
            </note>
            <note default-y="-30.00" default-x="278.45">
                <pitch>
                    <step>G</step>
                    <octave>4</octave>
                </pitch>
                <duration>2</duration>
                <voice>1</voice>
                <type>eighth</type>
                <stem>up</stem>
                <beam number="1">end</beam>
                <lyric number="1">
                    <syllabic>single</syllabic>
                    <text>I</text>
                </lyric>
            </note>
        </measure>
        <measure width="328.67" number="14">
            <print new-system="yes">
                <system-layout>
                    <system-margins>
                        <left-margin>77.95</left-margin>
                        <right-margin>-0.00</right-margin>
                    </system-margins>
                    <system-distance>186.02</system-distance>
                </system-layout>
            </print>
            <harmony print-frame="no">
                <root>
                    <root-step>C</root-step>
                </root>
                <kind text="">major</kind>
            </harmony>
            <note default-y="-25.00" default-x="85.47">
                <pitch>
                    <step>A</step>
                    <octave>4</octave>
                </pitch>
                <duration>4</duration>
                <voice>1</voice>
                <type>quarter</type>
                <stem>up</stem>
                <lyric number="1">
                    <syllabic>single</syllabic>
                    <text>love</text>
                </lyric>
            </note>
            <note default-y="-30.00" default-x="139.00">
                <pitch>
                    <step>G</step>
                    <octave>4</octave>
                </pitch>
                <duration>3</duration>
                <voice>1</voice>
                <type>eighth</type>
                <dot/>
                <stem>up</stem>
                <beam number="1">begin</beam>
                <lyric number="1">
                    <syllabic>single</syllabic>
                    <text>more</text>
                </lyric>
            </note>
            <note default-y="-40.00" default-x="186.47">
                <pitch>
                    <step>E</step>
                    <octave>4</octave>
                </pitch>
                <duration>1</duration>
                <voice>1</voice>
                <type>16th</type>
                <stem>up</stem>
                <beam number="1">end</beam>
                <beam number="2">backward hook</beam>
                <lyric number="1">
                    <syllabic>begin</syllabic>
                    <text>sin</text>
                </lyric>
            </note>
            <harmony print-frame="no">
                <root>
                    <root-step>G</root-step>
                </root>
                <kind text="">major</kind>
            </harmony>
            <note default-y="-45.00" default-x="226.07">
                <pitch>
                    <step>D</step>
                    <octave>4</octave>
                </pitch>
                <duration>2</duration>
                <voice>1</voice>
                <type>eighth</type>
                <stem>up</stem>
                <lyric number="1">
                    <syllabic>middle</syllabic>
                    <text>cere</text>
                </lyric>
            </note>
            <note default-y="-30.00" default-x="265.00">
                <pitch>
                    <step>G</step>
                    <octave>4</octave>
                </pitch>
                <duration>6</duration>
                <voice>1</voice>
                <type>quarter</type>
                <dot/>
                <stem>up</stem>
                <lyric number="1">
                    <syllabic>end</syllabic>
                    <text>ly</text>
                </lyric>
            </note>
        </measure>
        <measure width="335.26" number="15">
            <note default-y="-45.00" default-x="42.65">
                <pitch>
                    <step>D</step>
                    <octave>4</octave>
                </pitch>
                <duration>4</duration>
                <voice>1</voice>
                <type>quarter</type>
                <stem>up</stem>
                <lyric number="1">
                    <syllabic>single</syllabic>
                    <text>Than</text>
                </lyric>
            </note>
            <note default-y="-30.00" default-x="97.05">
                <pitch>
                    <step>G</step>
                    <octave>4</octave>
                </pitch>
                <duration>3</duration>
                <voice>1</voice>
                <type>eighth</type>
                <dot/>
                <stem>up</stem>
                <beam number="1">begin</beam>
                <lyric number="1">
                    <syllabic>single</syllabic>
                    <text>old</text>
                </lyric>
            </note>
            <note default-y="-25.00" default-x="145.29">
                <pitch>
                    <step>A</step>
                    <octave>4</octave>
                </pitch>
                <duration>1</duration>
                <voice>1</voice>
                <type>16th</type>
                <stem>up</stem>
                <beam number="1">end</beam>
                <beam number="2">backward hook</beam>
                <lyric number="1">
                    <syllabic>begin</syllabic>
                    <text>Vir</text>
                </lyric>
            </note>
            <note default-y="-20.00" default-x="181.57">
                <pitch>
                    <step>B</step>
                    <octave>4</octave>
                </pitch>
                <duration>2</duration>
                <voice>1</voice>
                <type>eighth</type>
                <stem>down</stem>
                <beam number="1">begin</beam>
                <lyric number="1">
                    <syllabic>middle</syllabic>
                    <text>gin</text>
                </lyric>
            </note>
            <note default-y="-20.00" default-x="221.13">
                <pitch>
                    <step>B</step>
                    <octave>4</octave>
                </pitch>
                <duration>2</duration>
                <voice>1</voice>
                <type>eighth</type>
                <stem>down</stem>
                <beam number="1">continue</beam>
                <lyric number="1">
                    <syllabic>end</syllabic>
                    <text>ny,</text>
                </lyric>
            </note>
            <note default-y="-15.00" default-x="260.69">
                <pitch>
                    <step>C</step>
                    <octave>5</octave>
                </pitch>
                <duration>3</duration>
                <voice>1</voice>
                <type>eighth</type>
                <dot/>
                <stem>down</stem>
                <beam number="1">continue</beam>
                <notations>
                    <slur type="start" number="1"/>
                </notations>
                <lyric number="1">
                    <syllabic>single</syllabic>
                    <text>the</text>
                </lyric>
            </note>
            <note default-y="-20.00" default-x="308.94">
                <pitch>
                    <step>B</step>
                    <octave>4</octave>
                </pitch>
                <duration>1</duration>
                <voice>1</voice>
                <type>16th</type>
                <stem>down</stem>
                <beam number="1">end</beam>
                <beam number="2">backward hook</beam>
                <notations>
                    <slur type="stop" number="1"/>
                </notations>
            </note>
        </measure>
        <measure width="335.22" number="16">
            <harmony print-frame="no">
                <root>
                    <root-step>D</root-step>
                </root>
                <kind text="7">dominant</kind>
            </harmony>
            <note default-y="-20.00" default-x="40.10">
                <pitch>
                    <step>B</step>
                    <octave>4</octave>
                </pitch>
                <duration>2</duration>
                <voice>1</voice>
                <type>eighth</type>
                <stem>up</stem>
                <beam number="1">begin</beam>
                <lyric number="1">
                    <syllabic>single</syllabic>
                    <text>state</text>
                </lyric>
            </note>
            <note default-y="-25.00" default-x="96.32">
                <pitch>
                    <step>A</step>
                    <octave>4</octave>
                </pitch>
                <duration>2</duration>
                <voice>1</voice>
                <type>eighth</type>
                <stem>up</stem>
                <beam number="1">continue</beam>
                <lyric number="1">
                    <syllabic>single</syllabic>
                    <text>where</text>
                </lyric>
            </note>
            <note default-y="-30.00" default-x="135.26">
                <pitch>
                    <step>G</step>
                    <octave>4</octave>
                </pitch>
                <duration>3</duration>
                <voice>1</voice>
                <type>eighth</type>
                <dot/>
                <stem>up</stem>
                <beam number="1">continue</beam>
                <lyric number="1">
                    <syllabic>single</syllabic>
                    <text>I</text>
                </lyric>
            </note>
            <harmony print-frame="no">
                <root>
                    <root-step>G</root-step>
                </root>
                <kind text="">major</kind>
            </harmony>
            <note default-y="-35.00" default-x="181.14">
                <pitch>
                    <step>F</step>
                    <alter>1</alter>
                    <octave>4</octave>
                </pitch>
                <duration>1</duration>
                <voice>1</voice>
                <type>16th</type>
                <stem>up</stem>
                <beam number="1">end</beam>
                <beam number="2">backward hook</beam>
                <lyric number="1">
                    <syllabic>single</syllabic>
                    <text>was</text>
                </lyric>
            </note>
            <note default-y="-30.00" default-x="230.01">
                <pitch>
                    <step>G</step>
                    <octave>4</octave>
                </pitch>
                <duration>6</duration>
                <voice>1</voice>
                <type>quarter</type>
                <dot/>
                <stem>up</stem>
                <lyric number="1">
                    <syllabic>single</syllabic>
                    <text>born.</text>
                </lyric>
            </note>
            <note>
                <rest/>
                <duration>2</duration>
                <voice>1</voice>
                <type>eighth</type>
            </note>
            <barline location="right">
                <bar-style>light-heavy</bar-style>
            </barline>
        </measure>
    </part>
</score-partwise>
