<?xml version="1.0" encoding="UTF-8"?>
<!DOCTYPE score-partwise PUBLIC "-//Recordare//DTD MusicXML 2.0 Partwise//EN" "http://www.musicxml.org/dtds/partwise.dtd">
<score-partwise version="2.0">
    <work>
        <work-number></work-number>
        <work-title></work-title>
    </work>
    <movement-number></movement-number>
    <movement-title>Vinegar &amp; Salt</movement-title>
    <identification>
        <creator type="composer">Hooverphonic</creator>
        <creator type="poet"></creator>
        <rights>All Rights Reserved</rights>
        <encoding>
            <software>Sibelius 5.1</software>
            <software>Dolet 4 for Sibelius</software>
            <supports type="no" element="accidental"/>
            <supports type="no" element="transpose"/>
            <software>ProxyMusic 2.0 c</software>
        </encoding>
        <source>http://wikifonia.org/node/999/revisions/16317/view</source>
    </identification>
    <defaults>
        <scaling>
            <millimeters>6</millimeters>
            <tenths>40</tenths>
        </scaling>
        <page-layout>
            <page-height>1980</page-height>
            <page-width>1400</page-width>
        </page-layout>
    </defaults>
    <part-list>
        <score-part id="P1">
            <part-name>Alto Saxophone</part-name>
            <part-abbreviation>Alto Sax.</part-abbreviation>
            <score-instrument id="P1-I1">
                <instrument-name>Alto Saxophone</instrument-name>
                <instrument-abbreviation>Alto Sax.</instrument-abbreviation>
            </score-instrument>
            <midi-instrument id="P1-I1">
                <volume>75</volume>
                <pan>-18</pan>
            </midi-instrument>
        </score-part>
    </part-list>
    <part id="P1">
        <measure number="1">
            <attributes>
                <divisions>768</divisions>
                <key>
                    <fifths>-2</fifths>
                    <mode>major</mode>
                </key>
                <time>
                    <beats>6</beats>
                    <beat-type>8</beat-type>
                </time>
                <clef>
                    <sign>G</sign>
                    <line>2</line>
                </clef>
            </attributes>
            <harmony relative-x="8" default-y="25" print-frame="no">
                <root>
                    <root-step>G</root-step>
                </root>
                <kind text="m">minor</kind>
            </harmony>
            <note>
                <rest/>
                <duration>2304</duration>
                <voice>1</voice>
            </note>
        </measure>
        <measure number="2">
            <harmony relative-x="8" default-y="25" print-frame="no">
                <root>
                    <root-step>E</root-step>
                    <root-alter>-1</root-alter>
                </root>
                <kind text="">major</kind>
            </harmony>
            <note>
                <rest/>
                <duration>2304</duration>
                <voice>1</voice>
            </note>
        </measure>
        <measure number="3">
            <harmony relative-x="8" default-y="25" print-frame="no">
                <root>
                    <root-step>C</root-step>
                </root>
                <kind text="m">minor</kind>
            </harmony>
            <note>
                <rest/>
                <duration>2304</duration>
                <voice>1</voice>
            </note>
        </measure>
        <measure number="4">
            <harmony relative-x="8" default-y="25" print-frame="no">
                <root>
                    <root-step>D</root-step>
                </root>
                <kind text="">major</kind>
            </harmony>
            <note>
                <rest/>
                <duration>2304</duration>
                <voice>1</voice>
            </note>
        </measure>
        <measure number="5">
            <print new-system="yes"/>
            <harmony relative-x="8" default-y="25" print-frame="no">
                <root>
                    <root-step>G</root-step>
                </root>
                <kind text="m">minor</kind>
            </harmony>
            <note>
                <rest/>
                <duration>2304</duration>
                <voice>1</voice>
            </note>
        </measure>
        <measure number="6">
            <harmony relative-x="8" default-y="25" print-frame="no">
                <root>
                    <root-step>E</root-step>
                    <root-alter>-1</root-alter>
                </root>
                <kind text="">major</kind>
            </harmony>
            <note>
                <rest/>
                <duration>2304</duration>
                <voice>1</voice>
            </note>
        </measure>
        <measure number="7">
            <harmony relative-x="8" default-y="25" print-frame="no">
                <root>
                    <root-step>C</root-step>
                </root>
                <kind text="m">minor</kind>
            </harmony>
            <note>
                <rest/>
                <duration>2304</duration>
                <voice>1</voice>
            </note>
        </measure>
        <measure number="8">
            <harmony relative-x="8" default-y="25" print-frame="no">
                <root>
                    <root-step>D</root-step>
                </root>
                <kind text="">major</kind>
            </harmony>
            <note>
                <rest/>
                <duration>2304</duration>
                <voice>1</voice>
            </note>
            <barline location="right">
                <bar-style>light-light</bar-style>
            </barline>
        </measure>
        <measure number="9">
            <print new-system="yes"/>
            <harmony relative-x="8" default-y="25" print-frame="no">
                <root>
                    <root-step>G</root-step>
                </root>
                <kind text="m">minor</kind>
            </harmony>
            <note>
                <pitch>
                    <step>D</step>
                    <octave>5</octave>
                </pitch>
                <duration>1152</duration>
                <voice>1</voice>
                <type>quarter</type>
                <dot/>
                <lyric default-y="-80" number="1" name="verse">
                    <syllabic>single</syllabic>
                    <text>I</text>
                </lyric>
            </note>
            <note>
                <rest/>
                <duration>1152</duration>
                <voice>1</voice>
                <type>quarter</type>
                <dot/>
            </note>
        </measure>
        <measure number="10">
            <harmony relative-x="5" default-y="25" print-frame="no">
                <root>
                    <root-step>F</root-step>
                </root>
                <kind text="">major</kind>
            </harmony>
            <note>
                <rest/>
                <duration>768</duration>
                <voice>1</voice>
                <type>quarter</type>
            </note>
            <note>
                <pitch>
                    <step>C</step>
                    <octave>5</octave>
                </pitch>
                <duration>192</duration>
                <voice>1</voice>
                <type>16th</type>
                <beam number="1">begin</beam>
                <beam number="2">begin</beam>
                <lyric default-y="-80" number="1" name="verse">
                    <syllabic>single</syllabic>
                    <text>like</text>
                </lyric>
            </note>
            <note>
                <pitch>
                    <step>B</step>
                    <alter>-1</alter>
                    <octave>4</octave>
                </pitch>
                <duration>192</duration>
                <voice>1</voice>
                <type>16th</type>
                <beam number="1">end</beam>
                <beam number="2">end</beam>
                <lyric default-y="-80" number="1" name="verse">
                    <syllabic>single</syllabic>
                    <text>the</text>
                </lyric>
            </note>
            <note>
                <pitch>
                    <step>C</step>
                    <octave>5</octave>
                </pitch>
                <duration>384</duration>
                <voice>1</voice>
                <type>eighth</type>
                <beam number="1">begin</beam>
                <lyric default-y="-80" number="1" name="verse">
                    <syllabic>single</syllabic>
                    <text>things</text>
                </lyric>
            </note>
            <note>
                <pitch>
                    <step>B</step>
                    <alter>-1</alter>
                    <octave>4</octave>
                </pitch>
                <duration>384</duration>
                <voice>1</voice>
                <type>eighth</type>
                <beam number="1">continue</beam>
                <lyric default-y="-80" number="1" name="verse">
                    <syllabic>single</syllabic>
                    <text>that</text>
                </lyric>
            </note>
            <note>
                <pitch>
                    <step>C</step>
                    <octave>5</octave>
                </pitch>
                <duration>384</duration>
                <voice>1</voice>
                <type>eighth</type>
                <beam number="1">end</beam>
                <lyric default-y="-80" number="1" name="verse">
                    <syllabic>single</syllabic>
                    <text>you</text>
                </lyric>
            </note>
        </measure>
        <measure number="11">
            <harmony default-y="23" print-frame="no">
                <root>
                    <root-step>B</root-step>
                    <root-alter>-1</root-alter>
                </root>
                <kind text="">major</kind>
                <offset>135</offset>
            </harmony>
            <note>
                <pitch>
                    <step>D</step>
                    <octave>5</octave>
                </pitch>
                <duration>768</duration>
                <voice>1</voice>
                <type>quarter</type>
                <lyric default-y="-80" number="1" name="verse">
                    <syllabic>single</syllabic>
                    <text>hate.</text>
                </lyric>
            </note>
            <note>
                <rest/>
                <duration>384</duration>
                <voice>1</voice>
                <type>eighth</type>
            </note>
            <note>
                <rest/>
                <duration>1152</duration>
                <voice>1</voice>
                <type>quarter</type>
                <dot/>
            </note>
        </measure>
        <measure number="12">
            <harmony default-y="29" print-frame="no">
                <root>
                    <root-step>D</root-step>
                </root>
                <kind text="7">dominant</kind>
                <offset>180</offset>
            </harmony>
            <note>
                <rest/>
                <duration>1152</duration>
                <voice>1</voice>
                <type>quarter</type>
                <dot/>
            </note>
            <note>
                <rest/>
                <duration>768</duration>
                <voice>1</voice>
                <type>quarter</type>
            </note>
            <note>
                <pitch>
                    <step>D</step>
                    <octave>4</octave>
                </pitch>
                <duration>384</duration>
                <voice>1</voice>
                <type>eighth</type>
                <lyric default-y="-80" number="1" name="verse">
                    <syllabic>single</syllabic>
                    <text>And</text>
                </lyric>
            </note>
        </measure>
        <measure number="13">
            <print new-system="yes"/>
            <harmony relative-x="8" default-y="25" print-frame="no">
                <root>
                    <root-step>G</root-step>
                </root>
                <kind text="m">minor</kind>
            </harmony>
            <note>
                <pitch>
                    <step>D</step>
                    <octave>5</octave>
                </pitch>
                <duration>1152</duration>
                <voice>1</voice>
                <type>quarter</type>
                <dot/>
                <lyric default-y="-80" number="1" name="verse">
                    <syllabic>single</syllabic>
                    <text>you,</text>
                </lyric>
            </note>
            <note>
                <rest/>
                <duration>1152</duration>
                <voice>1</voice>
                <type>quarter</type>
                <dot/>
            </note>
        </measure>
        <measure number="14">
            <harmony relative-x="5" default-y="25" print-frame="no">
                <root>
                    <root-step>F</root-step>
                </root>
                <kind text="">major</kind>
            </harmony>
            <note>
                <rest/>
                <duration>768</duration>
                <voice>1</voice>
                <type>quarter</type>
            </note>
            <note>
                <pitch>
                    <step>C</step>
                    <octave>5</octave>
                </pitch>
                <duration>192</duration>
                <voice>1</voice>
                <type>16th</type>
                <beam number="1">begin</beam>
                <beam number="2">begin</beam>
                <lyric default-y="-80" number="1" name="verse">
                    <syllabic>single</syllabic>
                    <text>hate</text>
                </lyric>
            </note>
            <note>
                <pitch>
                    <step>B</step>
                    <alter>-1</alter>
                    <octave>4</octave>
                </pitch>
                <duration>192</duration>
                <voice>1</voice>
                <type>16th</type>
                <beam number="1">end</beam>
                <beam number="2">end</beam>
                <lyric default-y="-80" number="1" name="verse">
                    <syllabic>single</syllabic>
                    <text>the</text>
                </lyric>
            </note>
            <note>
                <pitch>
                    <step>C</step>
                    <octave>5</octave>
                </pitch>
                <duration>384</duration>
                <voice>1</voice>
                <type>eighth</type>
                <beam number="1">begin</beam>
                <lyric default-y="-80" number="1" name="verse">
                    <syllabic>single</syllabic>
                    <text>things</text>
                </lyric>
            </note>
            <note>
                <pitch>
                    <step>B</step>
                    <alter>-1</alter>
                    <octave>4</octave>
                </pitch>
                <duration>384</duration>
                <voice>1</voice>
                <type>eighth</type>
                <beam number="1">continue</beam>
                <lyric default-y="-80" number="1" name="verse">
                    <syllabic>single</syllabic>
                    <text>that</text>
                </lyric>
            </note>
            <note>
                <pitch>
                    <step>C</step>
                    <octave>5</octave>
                </pitch>
                <duration>384</duration>
                <voice>1</voice>
                <type>eighth</type>
                <beam number="1">end</beam>
                <lyric default-y="-80" number="1" name="verse">
                    <syllabic>single</syllabic>
                    <text>I</text>
                </lyric>
            </note>
        </measure>
        <measure number="15">
            <harmony default-y="23" print-frame="no">
                <root>
                    <root-step>B</root-step>
                    <root-alter>-1</root-alter>
                </root>
                <kind text="">major</kind>
                <offset>135</offset>
            </harmony>
            <note>
                <pitch>
                    <step>D</step>
                    <octave>5</octave>
                </pitch>
                <duration>2304</duration>
                <voice>1</voice>
                <type>half</type>
                <dot/>
                <notations>
                    <slur type="start" number="1"/>
                </notations>
                <lyric default-y="-80" number="1" name="verse">
                    <syllabic>single</syllabic>
                    <text>like</text>
                    <extend/>
                </lyric>
            </note>
        </measure>
        <measure number="16">
            <harmony default-y="29" print-frame="no">
                <root>
                    <root-step>D</root-step>
                </root>
                <kind text="7">dominant</kind>
                <offset>180</offset>
            </harmony>
            <note>
                <pitch>
                    <step>F</step>
                    <alter>1</alter>
                    <octave>5</octave>
                </pitch>
                <duration>1152</duration>
                <tie type="start"/>
                <voice>1</voice>
                <type>quarter</type>
                <dot/>
                <notations>
                    <tied type="start"/>
                </notations>
            </note>
            <note>
                <pitch>
                    <step>F</step>
                    <alter>1</alter>
                    <octave>5</octave>
                </pitch>
                <duration>384</duration>
                <tie type="stop"/>
                <voice>1</voice>
                <type>eighth</type>
                <beam number="1">begin</beam>
                <notations>
                    <tied type="stop"/>
                    <slur type="stop" number="1"/>
                </notations>
            </note>
            <note>
                <pitch>
                    <step>D</step>
                    <octave>5</octave>
                </pitch>
                <duration>384</duration>
                <voice>1</voice>
                <type>eighth</type>
                <beam number="1">continue</beam>
                <lyric default-y="-80" number="1" name="verse">
                    <syllabic>single</syllabic>
                    <text>but</text>
                </lyric>
            </note>
            <note>
                <pitch>
                    <step>F</step>
                    <alter>1</alter>
                    <octave>5</octave>
                </pitch>
                <duration>384</duration>
                <voice>1</voice>
                <type>eighth</type>
                <beam number="1">end</beam>
                <lyric default-y="-80" number="1" name="verse">
                    <syllabic>single</syllabic>
                    <text>it</text>
                </lyric>
            </note>
        </measure>
        <measure number="17">
            <print new-system="yes"/>
            <harmony relative-x="8" default-y="25" print-frame="no">
                <root>
                    <root-step>C</root-step>
                </root>
                <kind text="m">minor</kind>
            </harmony>
            <note>
                <pitch>
                    <step>G</step>
                    <octave>5</octave>
                </pitch>
                <duration>1152</duration>
                <voice>1</voice>
                <type>quarter</type>
                <dot/>
                <lyric default-y="-80" number="1" name="verse">
                    <syllabic>single</syllabic>
                    <text>hurts,</text>
                </lyric>
            </note>
            <note>
                <rest/>
                <duration>1152</duration>
                <voice>1</voice>
                <type>quarter</type>
                <dot/>
            </note>
        </measure>
        <measure number="18">
            <harmony relative-x="8" default-y="25" print-frame="no">
                <root>
                    <root-step>D</root-step>
                </root>
                <kind text="">major</kind>
            </harmony>
            <note>
                <rest/>
                <duration>1152</duration>
                <voice>1</voice>
                <type>quarter</type>
                <dot/>
            </note>
            <note>
                <pitch>
                    <step>A</step>
                    <octave>5</octave>
                </pitch>
                <duration>288</duration>
                <voice>1</voice>
                <type>16th</type>
                <dot/>
                <beam number="1">begin</beam>
                <beam number="2">begin</beam>
                <lyric default-y="-80" number="1" name="verse">
                    <syllabic>begin</syllabic>
                    <text>ho</text>
                </lyric>
            </note>
            <note>
                <pitch>
                    <step>B</step>
                    <alter>-1</alter>
                    <octave>5</octave>
                </pitch>
                <duration>96</duration>
                <voice>1</voice>
                <type>32nd</type>
                <beam number="1">continue</beam>
                <beam number="2">end</beam>
                <beam number="3">backward hook</beam>
                <lyric default-y="-80" number="1" name="verse">
                    <syllabic>middle</syllabic>
                    <text>nes</text>
                </lyric>
            </note>
            <note>
                <pitch>
                    <step>F</step>
                    <alter>1</alter>
                    <octave>5</octave>
                </pitch>
                <duration>384</duration>
                <voice>1</voice>
                <type>eighth</type>
                <beam number="1">continue</beam>
                <lyric default-y="-80" number="1" name="verse">
                    <syllabic>end</syllabic>
                    <text>ty's</text>
                </lyric>
            </note>
            <note>
                <pitch>
                    <step>F</step>
                    <alter>1</alter>
                    <octave>5</octave>
                </pitch>
                <duration>384</duration>
                <voice>1</voice>
                <type>eighth</type>
                <beam number="1">end</beam>
                <lyric default-y="-80" number="1" name="verse">
                    <syllabic>single</syllabic>
                    <text>your</text>
                </lyric>
            </note>
        </measure>
        <measure number="19">
            <harmony relative-x="8" default-y="25" print-frame="no">
                <root>
                    <root-step>C</root-step>
                </root>
                <kind text="m">minor</kind>
            </harmony>
            <note>
                <pitch>
                    <step>G</step>
                    <octave>5</octave>
                </pitch>
                <duration>2304</duration>
                <voice>1</voice>
                <type>half</type>
                <dot/>
                <notations>
                    <slur type="start" number="1"/>
                </notations>
                <lyric default-y="-80" number="1" name="verse">
                    <syllabic>single</syllabic>
                    <text>church</text>
                    <extend/>
                </lyric>
            </note>
        </measure>
        <measure number="20">
            <harmony relative-x="8" default-y="25" print-frame="no">
                <root>
                    <root-step>D</root-step>
                </root>
                <kind text="">major</kind>
            </harmony>
            <note>
                <pitch>
                    <step>A</step>
                    <octave>5</octave>
                </pitch>
                <duration>1152</duration>
                <tie type="start"/>
                <voice>1</voice>
                <type>quarter</type>
                <dot/>
                <notations>
                    <tied type="start"/>
                </notations>
            </note>
            <note>
                <pitch>
                    <step>A</step>
                    <octave>5</octave>
                </pitch>
                <duration>384</duration>
                <tie type="stop"/>
                <voice>1</voice>
                <type>eighth</type>
                <beam number="1">begin</beam>
                <notations>
                    <tied type="stop"/>
                    <slur type="stop" number="1"/>
                </notations>
            </note>
            <note>
                <pitch>
                    <step>E</step>
                    <octave>5</octave>
                </pitch>
                <duration>384</duration>
                <voice>1</voice>
                <type>eighth</type>
                <beam number="1">continue</beam>
                <lyric default-y="-80" number="1" name="verse">
                    <syllabic>single</syllabic>
                    <text>But</text>
                </lyric>
            </note>
            <note>
                <pitch>
                    <step>F</step>
                    <alter>1</alter>
                    <octave>5</octave>
                </pitch>
                <duration>384</duration>
                <voice>1</voice>
                <type>eighth</type>
                <beam number="1">end</beam>
                <lyric default-y="-80" number="1" name="verse">
                    <syllabic>begin</syllabic>
                    <text>some</text>
                </lyric>
            </note>
            <barline location="right">
                <bar-style>light-light</bar-style>
            </barline>
        </measure>
        <measure number="21">
            <print new-system="yes"/>
            <harmony relative-x="8" default-y="25" print-frame="no">
                <root>
                    <root-step>G</root-step>
                </root>
                <kind text="m">minor</kind>
            </harmony>
            <note>
                <pitch>
                    <step>G</step>
                    <octave>5</octave>
                </pitch>
                <duration>1152</duration>
                <voice>1</voice>
                <type>quarter</type>
                <dot/>
                <lyric default-y="-80" number="1" name="verse">
                    <syllabic>end</syllabic>
                    <text>times,</text>
                </lyric>
            </note>
            <note>
                <rest/>
                <duration>1152</duration>
                <voice>1</voice>
                <type>quarter</type>
                <dot/>
            </note>
        </measure>
        <measure number="22">
            <harmony relative-x="8" default-y="25" print-frame="no">
                <root>
                    <root-step>E</root-step>
                    <root-alter>-1</root-alter>
                </root>
                <kind text="">major</kind>
            </harmony>
            <note>
                <rest/>
                <duration>1152</duration>
                <voice>1</voice>
                <type>quarter</type>
                <dot/>
            </note>
            <note>
                <pitch>
                    <step>B</step>
                    <alter>-1</alter>
                    <octave>5</octave>
                </pitch>
                <duration>384</duration>
                <voice>1</voice>
                <type>eighth</type>
                <beam number="1">begin</beam>
                <lyric default-y="-80" number="1" name="verse">
                    <syllabic>single</syllabic>
                    <text>It's</text>
                    <elision></elision>
                    <syllabic>begin</syllabic>
                    <text>bet</text>
                </lyric>
            </note>
            <note>
                <pitch>
                    <step>B</step>
                    <alter>-1</alter>
                    <octave>5</octave>
                </pitch>
                <duration>384</duration>
                <voice>1</voice>
                <type>eighth</type>
                <beam number="1">continue</beam>
                <lyric default-y="-80" number="1" name="verse">
                    <syllabic>end</syllabic>
                    <text>ter</text>
                </lyric>
            </note>
            <note>
                <pitch>
                    <step>G</step>
                    <octave>5</octave>
                </pitch>
                <duration>384</duration>
                <voice>1</voice>
                <type>eighth</type>
                <beam number="1">end</beam>
                <lyric default-y="-80" number="1" name="verse">
                    <syllabic>single</syllabic>
                    <text>to</text>
                </lyric>
            </note>
        </measure>
        <measure number="23">
            <harmony relative-x="8" default-y="25" print-frame="no">
                <root>
                    <root-step>C</root-step>
                </root>
                <kind text="m">minor</kind>
            </harmony>
            <note>
                <pitch>
                    <step>B</step>
                    <alter>-1</alter>
                    <octave>5</octave>
                </pitch>
                <duration>2304</duration>
                <voice>1</voice>
                <type>half</type>
                <dot/>
                <notations>
                    <slur type="start" number="1"/>
                </notations>
                <lyric default-y="-80" number="1" name="verse">
                    <syllabic>single</syllabic>
                    <text>lie</text>
                    <extend/>
                </lyric>
            </note>
        </measure>
        <measure number="24">
            <harmony relative-x="8" default-y="25" print-frame="no">
                <root>
                    <root-step>D</root-step>
                </root>
                <kind text="">major</kind>
            </harmony>
            <note>
                <pitch>
                    <step>A</step>
                    <octave>5</octave>
                </pitch>
                <duration>1152</duration>
                <voice>1</voice>
                <type>quarter</type>
                <dot/>
                <notations>
                    <slur type="stop" number="1"/>
                </notations>
            </note>
            <note>
                <rest/>
                <duration>384</duration>
                <voice>1</voice>
                <type>eighth</type>
            </note>
            <note>
                <pitch>
                    <step>E</step>
                    <octave>5</octave>
                </pitch>
                <duration>384</duration>
                <voice>1</voice>
                <type>eighth</type>
                <beam number="1">begin</beam>
                <lyric default-y="-80" number="1" name="verse">
                    <syllabic>single</syllabic>
                    <text>But</text>
                </lyric>
            </note>
            <note>
                <pitch>
                    <step>F</step>
                    <alter>1</alter>
                    <octave>5</octave>
                </pitch>
                <duration>384</duration>
                <voice>1</voice>
                <type>eighth</type>
                <beam number="1">end</beam>
                <lyric default-y="-80" number="1" name="verse">
                    <syllabic>begin</syllabic>
                    <text>some</text>
                </lyric>
            </note>
        </measure>
        <measure number="25">
            <print new-system="yes"/>
            <harmony relative-x="8" default-y="25" print-frame="no">
                <root>
                    <root-step>G</root-step>
                </root>
                <kind text="m">minor</kind>
            </harmony>
            <note>
                <pitch>
                    <step>G</step>
                    <octave>5</octave>
                </pitch>
                <duration>1152</duration>
                <voice>1</voice>
                <type>quarter</type>
                <dot/>
                <lyric default-y="-80" number="1" name="verse">
                    <syllabic>end</syllabic>
                    <text>times,</text>
                </lyric>
            </note>
            <note>
                <rest/>
                <duration>1152</duration>
                <voice>1</voice>
                <type>quarter</type>
                <dot/>
            </note>
        </measure>
        <measure number="26">
            <harmony relative-x="8" default-y="25" print-frame="no">
                <root>
                    <root-step>E</root-step>
                    <root-alter>-1</root-alter>
                </root>
                <kind text="">major</kind>
            </harmony>
            <note>
                <rest/>
                <duration>1152</duration>
                <voice>1</voice>
                <type>quarter</type>
                <dot/>
            </note>
            <note>
                <pitch>
                    <step>B</step>
                    <alter>-1</alter>
                    <octave>5</octave>
                </pitch>
                <duration>384</duration>
                <voice>1</voice>
                <type>eighth</type>
                <beam number="1">begin</beam>
                <lyric default-y="-80" number="1" name="verse">
                    <syllabic>single</syllabic>
                    <text>It's</text>
                    <elision></elision>
                    <syllabic>begin</syllabic>
                    <text>bet</text>
                </lyric>
            </note>
            <note>
                <pitch>
                    <step>B</step>
                    <alter>-1</alter>
                    <octave>5</octave>
                </pitch>
                <duration>384</duration>
                <voice>1</voice>
                <type>eighth</type>
                <beam number="1">continue</beam>
                <lyric default-y="-80" number="1" name="verse">
                    <syllabic>end</syllabic>
                    <text>ter</text>
                </lyric>
            </note>
            <note>
                <pitch>
                    <step>G</step>
                    <octave>5</octave>
                </pitch>
                <duration>384</duration>
                <voice>1</voice>
                <type>eighth</type>
                <beam number="1">end</beam>
                <lyric default-y="-80" number="1" name="verse">
                    <syllabic>single</syllabic>
                    <text>to</text>
                </lyric>
            </note>
        </measure>
        <measure number="27">
            <harmony relative-x="8" default-y="25" print-frame="no">
                <root>
                    <root-step>C</root-step>
                </root>
                <kind text="m">minor</kind>
            </harmony>
            <note>
                <pitch>
                    <step>B</step>
                    <alter>-1</alter>
                    <octave>5</octave>
                </pitch>
                <duration>2304</duration>
                <voice>1</voice>
                <type>half</type>
                <dot/>
                <notations>
                    <slur type="start" number="1"/>
                </notations>
                <lyric default-y="-80" number="1" name="verse">
                    <syllabic>single</syllabic>
                    <text>lie</text>
                    <extend/>
                </lyric>
            </note>
        </measure>
        <measure number="28">
            <harmony relative-x="8" default-y="25" print-frame="no">
                <root>
                    <root-step>D</root-step>
                </root>
                <kind text="">major</kind>
            </harmony>
            <note>
                <pitch>
                    <step>A</step>
                    <octave>5</octave>
                </pitch>
                <duration>1152</duration>
                <voice>1</voice>
                <type>quarter</type>
                <dot/>
                <notations>
                    <slur type="stop" number="1"/>
                </notations>
            </note>
            <note>
                <rest/>
                <duration>1152</duration>
                <voice>1</voice>
                <type>quarter</type>
                <dot/>
            </note>
            <barline location="right">
                <bar-style>light-light</bar-style>
            </barline>
        </measure>
        <measure number="29">
            <print new-system="yes"/>
            <harmony relative-x="8" default-y="25" print-frame="no">
                <root>
                    <root-step>G</root-step>
                </root>
                <kind text="m">minor</kind>
            </harmony>
            <note>
                <pitch>
                    <step>D</step>
                    <octave>5</octave>
                </pitch>
                <duration>1152</duration>
                <voice>1</voice>
                <type>quarter</type>
                <dot/>
                <lyric default-y="-80" number="1" name="verse">
                    <syllabic>single</syllabic>
                    <text>I</text>
                </lyric>
            </note>
            <note>
                <rest/>
                <duration>1152</duration>
                <voice>1</voice>
                <type>quarter</type>
                <dot/>
            </note>
        </measure>
        <measure number="30">
            <harmony relative-x="5" default-y="25" print-frame="no">
                <root>
                    <root-step>F</root-step>
                </root>
                <kind text="">major</kind>
            </harmony>
            <note>
                <rest/>
                <duration>768</duration>
                <voice>1</voice>
                <type>quarter</type>
            </note>
            <note>
                <pitch>
                    <step>C</step>
                    <octave>5</octave>
                </pitch>
                <duration>192</duration>
                <voice>1</voice>
                <type>16th</type>
                <beam number="1">begin</beam>
                <beam number="2">begin</beam>
                <lyric default-y="-80" number="1" name="verse">
                    <syllabic>single</syllabic>
                    <text>am</text>
                </lyric>
            </note>
            <note>
                <pitch>
                    <step>B</step>
                    <alter>-1</alter>
                    <octave>4</octave>
                </pitch>
                <duration>192</duration>
                <voice>1</voice>
                <type>16th</type>
                <beam number="1">end</beam>
                <beam number="2">end</beam>
                <lyric default-y="-80" number="1" name="verse">
                    <syllabic>single</syllabic>
                    <text>the</text>
                </lyric>
            </note>
            <note>
                <pitch>
                    <step>C</step>
                    <octave>5</octave>
                </pitch>
                <duration>384</duration>
                <voice>1</voice>
                <type>eighth</type>
                <beam number="1">begin</beam>
                <lyric default-y="-80" number="1" name="verse">
                    <syllabic>begin</syllabic>
                    <text>vine</text>
                </lyric>
            </note>
            <note>
                <pitch>
                    <step>B</step>
                    <alter>-1</alter>
                    <octave>4</octave>
                </pitch>
                <duration>384</duration>
                <voice>1</voice>
                <type>eighth</type>
                <beam number="1">continue</beam>
                <lyric default-y="-80" number="1" name="verse">
                    <syllabic>end</syllabic>
                    <text>gar</text>
                </lyric>
            </note>
            <note>
                <pitch>
                    <step>C</step>
                    <octave>5</octave>
                </pitch>
                <duration>384</duration>
                <voice>1</voice>
                <type>eighth</type>
                <beam number="1">end</beam>
                <lyric default-y="-80" number="1" name="verse">
                    <syllabic>single</syllabic>
                    <text>and</text>
                </lyric>
            </note>
        </measure>
        <measure number="31">
            <harmony default-y="23" print-frame="no">
                <root>
                    <root-step>B</root-step>
                    <root-alter>-1</root-alter>
                </root>
                <kind text="">major</kind>
                <offset>135</offset>
            </harmony>
            <note>
                <pitch>
                    <step>D</step>
                    <octave>5</octave>
                </pitch>
                <duration>768</duration>
                <voice>1</voice>
                <type>quarter</type>
                <lyric default-y="-80" number="1" name="verse">
                    <syllabic>single</syllabic>
                    <text>salt</text>
                </lyric>
            </note>
            <note>
                <rest/>
                <duration>384</duration>
                <voice>1</voice>
                <type>eighth</type>
            </note>
            <note>
                <rest/>
                <duration>1152</duration>
                <voice>1</voice>
                <type>quarter</type>
                <dot/>
            </note>
        </measure>
        <measure number="32">
            <harmony default-y="29" print-frame="no">
                <root>
                    <root-step>D</root-step>
                </root>
                <kind text="7">dominant</kind>
                <offset>180</offset>
            </harmony>
            <note>
                <rest/>
                <duration>1152</duration>
                <voice>1</voice>
                <type>quarter</type>
                <dot/>
            </note>
            <note>
                <rest/>
                <duration>768</duration>
                <voice>1</voice>
                <type>quarter</type>
            </note>
            <note>
                <pitch>
                    <step>D</step>
                    <octave>4</octave>
                </pitch>
                <duration>384</duration>
                <voice>1</voice>
                <type>eighth</type>
                <lyric default-y="-80" number="1" name="verse">
                    <syllabic>single</syllabic>
                    <text>and</text>
                </lyric>
            </note>
        </measure>
        <measure number="33">
            <print new-system="yes"/>
            <harmony relative-x="8" default-y="25" print-frame="no">
                <root>
                    <root-step>G</root-step>
                </root>
                <kind text="m">minor</kind>
            </harmony>
            <note>
                <pitch>
                    <step>D</step>
                    <octave>5</octave>
                </pitch>
                <duration>1152</duration>
                <voice>1</voice>
                <type>quarter</type>
                <dot/>
                <lyric default-y="-80" number="1" name="verse">
                    <syllabic>single</syllabic>
                    <text>you</text>
                </lyric>
            </note>
            <note>
                <rest/>
                <duration>1152</duration>
                <voice>1</voice>
                <type>quarter</type>
                <dot/>
            </note>
        </measure>
        <measure number="34">
            <harmony relative-x="5" default-y="25" print-frame="no">
                <root>
                    <root-step>F</root-step>
                </root>
                <kind text="">major</kind>
            </harmony>
            <note>
                <rest/>
                <duration>768</duration>
                <voice>1</voice>
                <type>quarter</type>
            </note>
            <note>
                <pitch>
                    <step>C</step>
                    <octave>5</octave>
                </pitch>
                <duration>192</duration>
                <voice>1</voice>
                <type>16th</type>
                <beam number="1">begin</beam>
                <beam number="2">begin</beam>
                <lyric default-y="-80" number="1" name="verse">
                    <syllabic>single</syllabic>
                    <text>are</text>
                </lyric>
            </note>
            <note>
                <pitch>
                    <step>B</step>
                    <alter>-1</alter>
                    <octave>4</octave>
                </pitch>
                <duration>192</duration>
                <voice>1</voice>
                <type>16th</type>
                <beam number="1">end</beam>
                <beam number="2">end</beam>
                <lyric default-y="-80" number="1" name="verse">
                    <syllabic>single</syllabic>
                    <text>the</text>
                </lyric>
            </note>
            <note>
                <pitch>
                    <step>C</step>
                    <octave>5</octave>
                </pitch>
                <duration>384</duration>
                <voice>1</voice>
                <type>eighth</type>
                <beam number="1">begin</beam>
                <lyric default-y="-80" number="1" name="verse">
                    <syllabic>single</syllabic>
                    <text>oil</text>
                </lyric>
            </note>
            <note>
                <pitch>
                    <step>B</step>
                    <alter>-1</alter>
                    <octave>4</octave>
                </pitch>
                <duration>384</duration>
                <voice>1</voice>
                <type>eighth</type>
                <beam number="1">continue</beam>
                <lyric default-y="-80" number="1" name="verse">
                    <syllabic>single</syllabic>
                    <text>that</text>
                </lyric>
            </note>
            <note>
                <pitch>
                    <step>C</step>
                    <octave>5</octave>
                </pitch>
                <duration>384</duration>
                <voice>1</voice>
                <type>eighth</type>
                <beam number="1">end</beam>
                <lyric default-y="-80" number="1" name="verse">
                    <syllabic>begin</syllabic>
                    <text>dis</text>
                </lyric>
            </note>
        </measure>
        <measure number="35">
            <harmony default-y="23" print-frame="no">
                <root>
                    <root-step>B</root-step>
                    <root-alter>-1</root-alter>
                </root>
                <kind text="">major</kind>
                <offset>135</offset>
            </harmony>
            <note>
                <pitch>
                    <step>D</step>
                    <octave>5</octave>
                </pitch>
                <duration>2304</duration>
                <voice>1</voice>
                <type>half</type>
                <dot/>
                <notations>
                    <slur type="start" number="1"/>
                </notations>
                <lyric default-y="-80" number="1" name="verse">
                    <syllabic>end</syllabic>
                    <text>solves</text>
                    <extend/>
                </lyric>
            </note>
        </measure>
        <measure number="36">
            <harmony default-y="29" print-frame="no">
                <root>
                    <root-step>D</root-step>
                </root>
                <kind text="7">dominant</kind>
                <offset>180</offset>
            </harmony>
            <note>
                <pitch>
                    <step>F</step>
                    <alter>1</alter>
                    <octave>5</octave>
                </pitch>
                <duration>1152</duration>
                <tie type="start"/>
                <voice>1</voice>
                <type>quarter</type>
                <dot/>
                <notations>
                    <tied type="start"/>
                </notations>
            </note>
            <note>
                <pitch>
                    <step>F</step>
                    <alter>1</alter>
                    <octave>5</octave>
                </pitch>
                <duration>384</duration>
                <tie type="stop"/>
                <voice>1</voice>
                <type>eighth</type>
                <beam number="1">begin</beam>
                <notations>
                    <tied type="stop"/>
                    <slur type="stop" number="1"/>
                </notations>
            </note>
            <note>
                <pitch>
                    <step>D</step>
                    <octave>5</octave>
                </pitch>
                <duration>384</duration>
                <voice>1</voice>
                <type>eighth</type>
                <beam number="1">continue</beam>
                <lyric default-y="-80" number="1" name="verse">
                    <syllabic>single</syllabic>
                    <text>my</text>
                </lyric>
            </note>
            <note>
                <pitch>
                    <step>F</step>
                    <alter>1</alter>
                    <octave>5</octave>
                </pitch>
                <duration>384</duration>
                <voice>1</voice>
                <type>eighth</type>
                <beam number="1">end</beam>
                <lyric default-y="-80" number="1" name="verse">
                    <syllabic>begin</syllabic>
                    <text>frus</text>
                </lyric>
            </note>
        </measure>
        <measure number="37">
            <print new-system="yes"/>
            <harmony relative-x="8" default-y="25" print-frame="no">
                <root>
                    <root-step>C</root-step>
                </root>
                <kind text="m">minor</kind>
            </harmony>
            <note>
                <pitch>
                    <step>G</step>
                    <octave>5</octave>
                </pitch>
                <duration>384</duration>
                <voice>1</voice>
                <type>eighth</type>
                <beam number="1">begin</beam>
                <lyric default-y="-80" number="1" name="verse">
                    <syllabic>middle</syllabic>
                    <text>tra</text>
                </lyric>
            </note>
            <note>
                <pitch>
                    <step>G</step>
                    <octave>5</octave>
                </pitch>
                <duration>768</duration>
                <voice>1</voice>
                <type>quarter</type>
                <lyric default-y="-80" number="1" name="verse">
                    <syllabic>end</syllabic>
                    <text>tion</text>
                </lyric>
            </note>
            <note>
                <rest/>
                <duration>1152</duration>
                <voice>1</voice>
                <type>quarter</type>
                <dot/>
            </note>
        </measure>
        <measure number="38">
            <harmony relative-x="8" default-y="25" print-frame="no">
                <root>
                    <root-step>D</root-step>
                </root>
                <kind text="">major</kind>
            </harmony>
            <note>
                <rest/>
                <duration>1152</duration>
                <voice>1</voice>
                <type>quarter</type>
                <dot/>
            </note>
            <note>
                <pitch>
                    <step>A</step>
                    <octave>5</octave>
                </pitch>
                <duration>288</duration>
                <voice>1</voice>
                <type>16th</type>
                <dot/>
                <beam number="1">begin</beam>
                <beam number="2">begin</beam>
                <lyric default-y="-80" number="1" name="verse">
                    <syllabic>begin</syllabic>
                    <text>Ho</text>
                </lyric>
            </note>
            <note>
                <pitch>
                    <step>B</step>
                    <alter>-1</alter>
                    <octave>5</octave>
                </pitch>
                <duration>96</duration>
                <voice>1</voice>
                <type>32nd</type>
                <beam number="1">continue</beam>
                <beam number="2">end</beam>
                <beam number="3">backward hook</beam>
                <lyric default-y="-80" number="1" name="verse">
                    <syllabic>middle</syllabic>
                    <text>nes</text>
                </lyric>
            </note>
            <note>
                <pitch>
                    <step>F</step>
                    <alter>1</alter>
                    <octave>5</octave>
                </pitch>
                <duration>384</duration>
                <voice>1</voice>
                <type>eighth</type>
                <beam number="1">continue</beam>
                <lyric default-y="-80" number="1" name="verse">
                    <syllabic>end</syllabic>
                    <text>ty's</text>
                </lyric>
            </note>
            <note>
                <pitch>
                    <step>F</step>
                    <alter>1</alter>
                    <octave>5</octave>
                </pitch>
                <duration>288</duration>
                <voice>1</voice>
                <type>16th</type>
                <dot/>
                <beam number="1">continue</beam>
                <beam number="2">begin</beam>
                <lyric default-y="-80" number="1" name="verse">
                    <syllabic>begin</syllabic>
                    <text>li</text>
                </lyric>
            </note>
            <note>
                <pitch>
                    <step>F</step>
                    <alter>1</alter>
                    <octave>5</octave>
                </pitch>
                <duration>96</duration>
                <voice>1</voice>
                <type>32nd</type>
                <beam number="1">end</beam>
                <beam number="2">end</beam>
                <beam number="3">backward hook</beam>
                <lyric default-y="-80" number="1" name="verse">
                    <syllabic>middle</syllabic>
                    <text>mi</text>
                </lyric>
            </note>
        </measure>
        <measure number="39">
            <harmony relative-x="8" default-y="25" print-frame="no">
                <root>
                    <root-step>C</root-step>
                </root>
                <kind text="m">minor</kind>
            </harmony>
            <note>
                <pitch>
                    <step>G</step>
                    <octave>5</octave>
                </pitch>
                <duration>384</duration>
                <voice>1</voice>
                <type>eighth</type>
                <beam number="1">begin</beam>
                <lyric default-y="-80" number="1" name="verse">
                    <syllabic>middle</syllabic>
                    <text>ta</text>
                </lyric>
            </note>
            <note>
                <pitch>
                    <step>G</step>
                    <octave>5</octave>
                </pitch>
                <duration>768</duration>
                <tie type="start"/>
                <voice>1</voice>
                <type>quarter</type>
                <notations>
                    <tied type="start"/>
                    <slur type="start" number="1"/>
                </notations>
                <lyric default-y="-80" number="1" name="verse">
                    <syllabic>end</syllabic>
                    <text>tion</text>
                    <extend/>
                </lyric>
            </note>
            <note>
                <pitch>
                    <step>G</step>
                    <octave>5</octave>
                </pitch>
                <duration>1152</duration>
                <tie type="stop"/>
                <voice>1</voice>
                <type>quarter</type>
                <dot/>
                <notations>
                    <tied type="stop"/>
                </notations>
            </note>
        </measure>
        <measure number="40">
            <harmony relative-x="8" default-y="25" print-frame="no">
                <root>
                    <root-step>D</root-step>
                </root>
                <kind text="">major</kind>
            </harmony>
            <note>
                <pitch>
                    <step>A</step>
                    <octave>5</octave>
                </pitch>
                <duration>2304</duration>
                <voice>1</voice>
                <type>half</type>
                <dot/>
                <notations>
                    <slur type="stop" number="1"/>
                </notations>
            </note>
        </measure>
        <measure number="41">
            <print new-system="yes"/>
            <harmony relative-x="8" default-y="25" print-frame="no">
                <root>
                    <root-step>D</root-step>
                </root>
                <kind text="7">dominant</kind>
            </harmony>
            <note>
                <rest/>
                <duration>2304</duration>
                <voice>1</voice>
            </note>
        </measure>
        <measure number="42">
            <note>
                <rest/>
                <duration>2304</duration>
                <voice>1</voice>
            </note>
        </measure>
        <measure number="43">
            <note>
                <rest/>
                <duration>1152</duration>
                <voice>1</voice>
                <type>quarter</type>
                <dot/>
            </note>
            <note>
                <rest/>
                <duration>384</duration>
                <voice>1</voice>
                <type>eighth</type>
            </note>
            <note>
                <pitch>
                    <step>E</step>
                    <octave>5</octave>
                </pitch>
                <duration>384</duration>
                <voice>1</voice>
                <type>eighth</type>
                <beam number="1">begin</beam>
                <lyric default-y="-80" number="1" name="verse">
                    <syllabic>single</syllabic>
                    <text>But</text>
                </lyric>
            </note>
            <note>
                <pitch>
                    <step>F</step>
                    <alter>1</alter>
                    <octave>5</octave>
                </pitch>
                <duration>384</duration>
                <voice>1</voice>
                <type>eighth</type>
                <beam number="1">end</beam>
                <lyric default-y="-80" number="1" name="verse">
                    <syllabic>begin</syllabic>
                    <text>some</text>
                </lyric>
            </note>
            <barline location="right">
                <bar-style>light-light</bar-style>
            </barline>
        </measure>
        <measure number="44">
            <print new-system="yes"/>
            <harmony relative-x="8" default-y="25" print-frame="no">
                <root>
                    <root-step>G</root-step>
                </root>
                <kind text="m">minor</kind>
            </harmony>
            <note>
                <pitch>
                    <step>G</step>
                    <octave>5</octave>
                </pitch>
                <duration>1152</duration>
                <voice>1</voice>
                <type>quarter</type>
                <dot/>
                <lyric default-y="-80" number="1" name="verse">
                    <syllabic>end</syllabic>
                    <text>times</text>
                </lyric>
            </note>
            <note>
                <rest/>
                <duration>1152</duration>
                <voice>1</voice>
                <type>quarter</type>
                <dot/>
            </note>
        </measure>
        <measure number="45">
            <harmony relative-x="8" default-y="25" print-frame="no">
                <root>
                    <root-step>E</root-step>
                    <root-alter>-1</root-alter>
                </root>
                <kind text="">major</kind>
            </harmony>
            <note>
                <rest/>
                <duration>1152</duration>
                <voice>1</voice>
                <type>quarter</type>
                <dot/>
            </note>
            <note>
                <pitch>
                    <step>B</step>
                    <alter>-1</alter>
                    <octave>5</octave>
                </pitch>
                <duration>384</duration>
                <voice>1</voice>
                <type>eighth</type>
                <beam number="1">begin</beam>
                <lyric default-y="-80" number="1" name="verse">
                    <syllabic>single</syllabic>
                    <text>It's</text>
                    <elision></elision>
                    <syllabic>begin</syllabic>
                    <text>bet</text>
                </lyric>
            </note>
            <note>
                <pitch>
                    <step>B</step>
                    <alter>-1</alter>
                    <octave>5</octave>
                </pitch>
                <duration>384</duration>
                <voice>1</voice>
                <type>eighth</type>
                <beam number="1">continue</beam>
                <lyric default-y="-80" number="1" name="verse">
                    <syllabic>end</syllabic>
                    <text>ter</text>
                </lyric>
            </note>
            <note>
                <pitch>
                    <step>G</step>
                    <octave>5</octave>
                </pitch>
                <duration>384</duration>
                <voice>1</voice>
                <type>eighth</type>
                <beam number="1">end</beam>
                <lyric default-y="-80" number="1" name="verse">
                    <syllabic>single</syllabic>
                    <text>to</text>
                </lyric>
            </note>
        </measure>
        <measure number="46">
            <harmony relative-x="8" default-y="25" print-frame="no">
                <root>
                    <root-step>C</root-step>
                </root>
                <kind text="m">minor</kind>
            </harmony>
            <note>
                <pitch>
                    <step>B</step>
                    <alter>-1</alter>
                    <octave>5</octave>
                </pitch>
                <duration>2304</duration>
                <voice>1</voice>
                <type>half</type>
                <dot/>
                <notations>
                    <slur type="start" number="1"/>
                </notations>
                <lyric default-y="-80" number="1" name="verse">
                    <syllabic>single</syllabic>
                    <text>lie</text>
                    <extend/>
                </lyric>
            </note>
        </measure>
        <measure number="47">
            <harmony relative-x="8" default-y="25" print-frame="no">
                <root>
                    <root-step>D</root-step>
                </root>
                <kind text="">major</kind>
            </harmony>
            <note>
                <pitch>
                    <step>A</step>
                    <octave>5</octave>
                </pitch>
                <duration>1152</duration>
                <voice>1</voice>
                <type>quarter</type>
                <dot/>
                <notations>
                    <slur type="stop" number="1"/>
                </notations>
            </note>
            <note>
                <rest/>
                <duration>384</duration>
                <voice>1</voice>
                <type>eighth</type>
            </note>
            <note>
                <pitch>
                    <step>E</step>
                    <octave>5</octave>
                </pitch>
                <duration>384</duration>
                <voice>1</voice>
                <type>eighth</type>
                <beam number="1">begin</beam>
                <lyric default-y="-80" number="1" name="verse">
                    <syllabic>single</syllabic>
                    <text>But</text>
                </lyric>
            </note>
            <note>
                <pitch>
                    <step>F</step>
                    <alter>1</alter>
                    <octave>5</octave>
                </pitch>
                <duration>384</duration>
                <voice>1</voice>
                <type>eighth</type>
                <beam number="1">end</beam>
                <lyric default-y="-80" number="1" name="verse">
                    <syllabic>begin</syllabic>
                    <text>some</text>
                </lyric>
            </note>
        </measure>
        <measure number="48">
            <print new-system="yes"/>
            <harmony relative-x="8" default-y="25" print-frame="no">
                <root>
                    <root-step>G</root-step>
                </root>
                <kind text="m">minor</kind>
            </harmony>
            <note>
                <pitch>
                    <step>G</step>
                    <octave>5</octave>
                </pitch>
                <duration>1152</duration>
                <voice>1</voice>
                <type>quarter</type>
                <dot/>
                <lyric default-y="-80" number="1" name="verse">
                    <syllabic>end</syllabic>
                    <text>times</text>
                </lyric>
            </note>
            <note>
                <rest/>
                <duration>1152</duration>
                <voice>1</voice>
                <type>quarter</type>
                <dot/>
            </note>
        </measure>
        <measure number="49">
            <harmony relative-x="8" default-y="25" print-frame="no">
                <root>
                    <root-step>E</root-step>
                    <root-alter>-1</root-alter>
                </root>
                <kind text="">major</kind>
            </harmony>
            <note>
                <rest/>
                <duration>1152</duration>
                <voice>1</voice>
                <type>quarter</type>
                <dot/>
            </note>
            <note>
                <pitch>
                    <step>B</step>
                    <alter>-1</alter>
                    <octave>5</octave>
                </pitch>
                <duration>384</duration>
                <voice>1</voice>
                <type>eighth</type>
                <beam number="1">begin</beam>
                <lyric default-y="-80" number="1" name="verse">
                    <syllabic>single</syllabic>
                    <text>It's</text>
                    <elision></elision>
                    <syllabic>begin</syllabic>
                    <text>bet</text>
                </lyric>
            </note>
            <note>
                <pitch>
                    <step>B</step>
                    <alter>-1</alter>
                    <octave>5</octave>
                </pitch>
                <duration>384</duration>
                <voice>1</voice>
                <type>eighth</type>
                <beam number="1">continue</beam>
                <lyric default-y="-80" number="1" name="verse">
                    <syllabic>end</syllabic>
                    <text>ter</text>
                </lyric>
            </note>
            <note>
                <pitch>
                    <step>G</step>
                    <octave>5</octave>
                </pitch>
                <duration>384</duration>
                <voice>1</voice>
                <type>eighth</type>
                <beam number="1">end</beam>
                <lyric default-y="-80" number="1" name="verse">
                    <syllabic>single</syllabic>
                    <text>to</text>
                </lyric>
            </note>
        </measure>
        <measure number="50">
            <harmony relative-x="8" default-y="25" print-frame="no">
                <root>
                    <root-step>C</root-step>
                </root>
                <kind text="m">minor</kind>
            </harmony>
            <note>
                <pitch>
                    <step>B</step>
                    <alter>-1</alter>
                    <octave>5</octave>
                </pitch>
                <duration>2304</duration>
                <voice>1</voice>
                <type>half</type>
                <dot/>
                <notations>
                    <slur type="start" number="1"/>
                </notations>
                <lyric default-y="-80" number="1" name="verse">
                    <syllabic>single</syllabic>
                    <text>lie</text>
                    <extend/>
                </lyric>
            </note>
        </measure>
        <measure number="51">
            <harmony relative-x="8" default-y="25" print-frame="no">
                <root>
                    <root-step>D</root-step>
                </root>
                <kind text="">major</kind>
            </harmony>
            <note>
                <pitch>
                    <step>A</step>
                    <octave>5</octave>
                </pitch>
                <duration>1152</duration>
                <voice>1</voice>
                <type>quarter</type>
                <dot/>
                <notations>
                    <slur type="stop" number="1"/>
                </notations>
            </note>
            <note>
                <rest/>
                <duration>384</duration>
                <voice>1</voice>
                <type>eighth</type>
            </note>
            <note>
                <pitch>
                    <step>E</step>
                    <octave>5</octave>
                </pitch>
                <duration>384</duration>
                <voice>1</voice>
                <type>eighth</type>
                <beam number="1">begin</beam>
                <lyric default-y="-80" number="1" name="verse">
                    <syllabic>single</syllabic>
                    <text>But</text>
                </lyric>
            </note>
            <note>
                <pitch>
                    <step>F</step>
                    <alter>1</alter>
                    <octave>5</octave>
                </pitch>
                <duration>384</duration>
                <voice>1</voice>
                <type>eighth</type>
                <beam number="1">end</beam>
                <lyric default-y="-80" number="1" name="verse">
                    <syllabic>begin</syllabic>
                    <text>some</text>
                </lyric>
            </note>
        </measure>
        <measure number="52">
            <print new-system="yes"/>
            <barline location="left">
                <bar-style>heavy-light</bar-style>
                <repeat direction="forward"/>
            </barline>
            <harmony relative-x="8" default-y="25" print-frame="no">
                <root>
                    <root-step>G</root-step>
                </root>
                <kind text="m">minor</kind>
            </harmony>
            <note>
                <pitch>
                    <step>G</step>
                    <octave>5</octave>
                </pitch>
                <duration>1152</duration>
                <voice>1</voice>
                <type>quarter</type>
                <dot/>
                <lyric default-y="-80" number="1" name="verse">
                    <syllabic>end</syllabic>
                    <text>times</text>
                </lyric>
            </note>
            <note>
                <rest/>
                <duration>1152</duration>
                <voice>1</voice>
                <type>quarter</type>
                <dot/>
            </note>
        </measure>
        <measure number="53">
            <harmony relative-x="8" default-y="25" print-frame="no">
                <root>
                    <root-step>E</root-step>
                    <root-alter>-1</root-alter>
                </root>
                <kind text="">major</kind>
            </harmony>
            <note>
                <rest/>
                <duration>1152</duration>
                <voice>1</voice>
                <type>quarter</type>
                <dot/>
            </note>
            <note>
                <pitch>
                    <step>B</step>
                    <alter>-1</alter>
                    <octave>5</octave>
                </pitch>
                <duration>384</duration>
                <voice>1</voice>
                <type>eighth</type>
                <beam number="1">begin</beam>
                <lyric default-y="-80" number="1" name="verse">
                    <syllabic>single</syllabic>
                    <text>It's</text>
                    <elision></elision>
                    <syllabic>begin</syllabic>
                    <text>bet</text>
                </lyric>
            </note>
            <note>
                <pitch>
                    <step>B</step>
                    <alter>-1</alter>
                    <octave>5</octave>
                </pitch>
                <duration>384</duration>
                <voice>1</voice>
                <type>eighth</type>
                <beam number="1">continue</beam>
                <lyric default-y="-80" number="1" name="verse">
                    <syllabic>end</syllabic>
                    <text>ter</text>
                </lyric>
            </note>
            <note>
                <pitch>
                    <step>G</step>
                    <octave>5</octave>
                </pitch>
                <duration>384</duration>
                <voice>1</voice>
                <type>eighth</type>
                <beam number="1">end</beam>
                <lyric default-y="-80" number="1" name="verse">
                    <syllabic>single</syllabic>
                    <text>to</text>
                </lyric>
            </note>
        </measure>
        <measure number="54">
            <harmony relative-x="8" default-y="25" print-frame="no">
                <root>
                    <root-step>C</root-step>
                </root>
                <kind text="m">minor</kind>
            </harmony>
            <note>
                <pitch>
                    <step>B</step>
                    <alter>-1</alter>
                    <octave>5</octave>
                </pitch>
                <duration>2304</duration>
                <voice>1</voice>
                <type>half</type>
                <dot/>
                <notations>
                    <slur type="start" number="1"/>
                </notations>
                <lyric default-y="-80" number="1" name="verse">
                    <syllabic>single</syllabic>
                    <text>lie</text>
                    <extend/>
                </lyric>
            </note>
        </measure>
        <measure number="55">
            <harmony relative-x="8" default-y="25" print-frame="no">
                <root>
                    <root-step>D</root-step>
                </root>
                <kind text="">major</kind>
            </harmony>
            <note>
                <pitch>
                    <step>A</step>
                    <octave>5</octave>
                </pitch>
                <duration>1152</duration>
                <voice>1</voice>
                <type>quarter</type>
                <dot/>
                <notations>
                    <slur type="stop" number="1"/>
                </notations>
            </note>
            <note>
                <rest/>
                <duration>384</duration>
                <voice>1</voice>
                <type>eighth</type>
            </note>
            <note>
                <pitch>
                    <step>E</step>
                    <octave>5</octave>
                </pitch>
                <duration>384</duration>
                <voice>1</voice>
                <type>eighth</type>
                <beam number="1">begin</beam>
                <lyric default-y="-80" number="1" name="verse">
                    <syllabic>single</syllabic>
                    <text>But</text>
                </lyric>
            </note>
            <note>
                <pitch>
                    <step>F</step>
                    <alter>1</alter>
                    <octave>5</octave>
                </pitch>
                <duration>384</duration>
                <voice>1</voice>
                <type>eighth</type>
                <beam number="1">end</beam>
                <lyric default-y="-80" number="1" name="verse">
                    <syllabic>begin</syllabic>
                    <text>some</text>
                </lyric>
            </note>
            <barline location="right">
                <bar-style>light-heavy</bar-style>
                <repeat direction="backward"/>
            </barline>
        </measure>
        <measure number="56">
            <print new-system="yes"/>
            <barline location="left">
                <bar-style>heavy-light</bar-style>
                <repeat direction="forward"/>
            </barline>
            <harmony relative-x="8" default-y="25" print-frame="no">
                <root>
                    <root-step>G</root-step>
                </root>
                <kind text="m">minor</kind>
            </harmony>
            <note>
                <pitch>
                    <step>G</step>
                    <octave>5</octave>
                </pitch>
                <duration>1152</duration>
                <voice>1</voice>
                <type>quarter</type>
                <dot/>
                <lyric default-y="-80" number="1" name="verse">
                    <syllabic>end</syllabic>
                    <text>times</text>
                </lyric>
            </note>
            <note>
                <rest/>
                <duration>1152</duration>
                <voice>1</voice>
                <type>quarter</type>
                <dot/>
            </note>
        </measure>
        <measure number="57">
            <harmony relative-x="8" default-y="25" print-frame="no">
                <root>
                    <root-step>E</root-step>
                    <root-alter>-1</root-alter>
                </root>
                <kind text="">major</kind>
            </harmony>
            <note>
                <rest/>
                <duration>1152</duration>
                <voice>1</voice>
                <type>quarter</type>
                <dot/>
            </note>
            <note>
                <rest/>
                <duration>384</duration>
                <voice>1</voice>
                <type>eighth</type>
            </note>
            <note>
                <pitch>
                    <step>E</step>
                    <alter>-1</alter>
                    <octave>5</octave>
                </pitch>
                <duration>384</duration>
                <voice>1</voice>
                <type>eighth</type>
                <beam number="1">begin</beam>
                <lyric default-y="-80" number="1" name="verse">
                    <syllabic>single</syllabic>
                    <text>but</text>
                </lyric>
            </note>
            <note>
                <pitch>
                    <step>F</step>
                    <octave>5</octave>
                </pitch>
                <duration>384</duration>
                <voice>1</voice>
                <type>eighth</type>
                <beam number="1">end</beam>
                <lyric default-y="-80" number="1" name="verse">
                    <syllabic>begin</syllabic>
                    <text>some</text>
                </lyric>
            </note>
        </measure>
        <measure number="58">
            <harmony relative-x="8" default-y="25" print-frame="no">
                <root>
                    <root-step>G</root-step>
                </root>
                <kind text="m">minor</kind>
            </harmony>
            <note>
                <pitch>
                    <step>G</step>
                    <octave>5</octave>
                </pitch>
                <duration>1152</duration>
                <voice>1</voice>
                <type>quarter</type>
                <dot/>
                <lyric default-y="-80" number="1" name="verse">
                    <syllabic>end</syllabic>
                    <text>times</text>
                </lyric>
            </note>
            <note>
                <rest/>
                <duration>1152</duration>
                <voice>1</voice>
                <type>quarter</type>
                <dot/>
            </note>
        </measure>
        <measure number="59">
            <barline location="left">
                <ending type="start" number="1"></ending>
            </barline>
            <harmony relative-x="8" default-y="25" print-frame="no">
                <root>
                    <root-step>E</root-step>
                    <root-alter>-1</root-alter>
                </root>
                <kind text="">major</kind>
            </harmony>
            <note>
                <rest/>
                <duration>1152</duration>
                <voice>1</voice>
                <type>quarter</type>
                <dot/>
            </note>
            <note>
                <rest/>
                <duration>384</duration>
                <voice>1</voice>
                <type>eighth</type>
            </note>
            <note>
                <pitch>
                    <step>E</step>
                    <octave>5</octave>
                </pitch>
                <duration>384</duration>
                <voice>1</voice>
                <type>eighth</type>
                <beam number="1">begin</beam>
                <lyric default-y="-80" number="1" name="verse">
                    <syllabic>single</syllabic>
                    <text>But</text>
                </lyric>
            </note>
            <note>
                <pitch>
                    <step>F</step>
                    <alter>1</alter>
                    <octave>5</octave>
                </pitch>
                <duration>384</duration>
                <voice>1</voice>
                <type>eighth</type>
                <beam number="1">end</beam>
                <lyric default-y="-80" number="1" name="verse">
                    <syllabic>begin</syllabic>
                    <text>some</text>
                </lyric>
            </note>
            <barline location="right">
                <bar-style>light-heavy</bar-style>
                <ending type="stop" number="1"></ending>
                <repeat direction="backward"/>
            </barline>
        </measure>
        <measure number="60">
            <print new-system="yes"/>
            <barline location="left">
                <ending type="start" number="2"></ending>
            </barline>
            <note>
                <rest/>
                <duration>576</duration>
                <voice>1</voice>
                <type>eighth</type>
                <dot/>
            </note>
            <note>
                <pitch>
                    <step>F</step>
                    <octave>5</octave>
                </pitch>
                <duration>192</duration>
                <voice>1</voice>
                <type>16th</type>
                <beam number="1">begin</beam>
                <beam number="2">forward hook</beam>
                <lyric default-y="-80" number="1" name="verse">
                    <syllabic>end</syllabic>
                    <text>I</text>
                </lyric>
            </note>
            <note>
                <pitch>
                    <step>F</step>
                    <octave>5</octave>
                </pitch>
                <duration>384</duration>
                <voice>1</voice>
                <type>eighth</type>
                <beam number="1">end</beam>
                <lyric default-y="-80" number="1" name="verse">
                    <syllabic>single</syllabic>
                    <text>don't</text>
                </lyric>
            </note>
            <note>
                <pitch>
                    <step>F</step>
                    <octave>5</octave>
                </pitch>
                <duration>384</duration>
                <voice>1</voice>
                <type>eighth</type>
                <beam number="1">begin</beam>
                <lyric default-y="-80" number="1" name="verse">
                    <syllabic>single</syllabic>
                    <text>dare</text>
                </lyric>
            </note>
            <note>
                <pitch>
                    <step>D</step>
                    <octave>5</octave>
                </pitch>
                <duration>384</duration>
                <voice>1</voice>
                <type>eighth</type>
                <beam number="1">continue</beam>
                <lyric default-y="-80" number="1" name="verse">
                    <syllabic>single</syllabic>
                    <text>to</text>
                </lyric>
            </note>
            <note>
                <pitch>
                    <step>F</step>
                    <octave>5</octave>
                </pitch>
                <duration>384</duration>
                <voice>1</voice>
                <type>eighth</type>
                <beam number="1">end</beam>
                <lyric default-y="-80" number="1" name="verse">
                    <syllabic>single</syllabic>
                    <text>ask</text>
                </lyric>
            </note>
        </measure>
        <measure number="61">
            <harmony relative-x="8" default-y="43" print-frame="no">
                <root>
                    <root-step>G</root-step>
                </root>
                <kind text="m">minor</kind>
            </harmony>
            <note>
                <pitch>
                    <step>G</step>
                    <octave>5</octave>
                </pitch>
                <duration>1152</duration>
                <voice>1</voice>
                <type>quarter</type>
                <dot/>
                <notations>
                    <fermata></fermata>
                </notations>
                <lyric default-y="-80" number="1" name="verse">
                    <syllabic>single</syllabic>
                    <text>why.</text>
                </lyric>
            </note>
            <note>
                <rest/>
                <duration>1152</duration>
                <voice>1</voice>
                <type>quarter</type>
                <dot/>
            </note>
            <barline location="right">
                <bar-style>light-heavy</bar-style>
                <ending type="discontinue" number="2"></ending>
            </barline>
        </measure>
    </part>
</score-partwise>
