<?xml version="1.0" encoding="UTF-8"?>
<!DOCTYPE score-partwise PUBLIC "-//Recordare//DTD MusicXML 2.0 Partwise//EN" "http://www.musicxml.org/dtds/partwise.dtd">
<score-partwise version="2.0">
    <work>
        <work-number></work-number>
        <work-title></work-title>
    </work>
    <movement-number></movement-number>
    <movement-title>DOMINIQUE</movement-title>
    <identification>
        <creator type="composer">J. Deckers</creator>
        <creator type="poet">J. Deckers</creator>
        <rights>All Rights Reserved</rights>
        <encoding>
            <software>MuseScore 0.9.6.3</software>
            <encoding-date>2011-03-13</encoding-date>
            <software>ProxyMusic 2.0 c</software>
        </encoding>
        <source>http://wikifonia.org/node/9991/revisions/13563/view</source>
    </identification>
    <defaults>
        <scaling>
            <millimeters>5.7</millimeters>
            <tenths>40</tenths>
        </scaling>
        <page-layout>
            <page-height>2084.21</page-height>
            <page-width>1473.68</page-width>
            <page-margins type="both">
                <left-margin>70.1754</left-margin>
                <right-margin>70.1754</right-margin>
                <top-margin>70.1754</top-margin>
                <bottom-margin>140.351</bottom-margin>
            </page-margins>
        </page-layout>
    </defaults>
    <credit page="1">
        <credit-words font-size="24" default-y="2014.04" default-x="736.842" justify="center" valign="top">DOMINIQUE</credit-words>
    </credit>
    <credit page="1">
        <credit-words font-size="12" default-y="1954.88" default-x="1403.51" justify="right" valign="top">J. Deckers</credit-words>
    </credit>
    <credit page="1">
        <credit-words font-size="12" default-y="1954.88" default-x="70.1754" justify="left" valign="top">J. Deckers</credit-words>
    </credit>
    <part-list>
        <score-part id="P1">
            <part-name></part-name>
            <score-instrument id="P1-I3">
                <instrument-name></instrument-name>
            </score-instrument>
            <midi-instrument id="P1-I3">
                <midi-channel>1</midi-channel>
                <midi-program>41</midi-program>
            </midi-instrument>
        </score-part>
    </part-list>
    <part id="P1">
        <measure width="345.01" number="1">
            <print>
                <system-layout>
                    <system-margins>
                        <left-margin>3.00</left-margin>
                        <right-margin>-0.00</right-margin>
                    </system-margins>
                    <top-system-distance>276.19</top-system-distance>
                </system-layout>
            </print>
            <attributes>
                <divisions>2</divisions>
                <key>
                    <fifths>0</fifths>
                    <mode>major</mode>
                </key>
                <time>
                    <beats>2</beats>
                    <beat-type>2</beat-type>
                </time>
                <clef>
                    <sign>G</sign>
                    <line>2</line>
                </clef>
            </attributes>
            <note>
                <rest/>
                <duration>2</duration>
                <voice>1</voice>
                <type>quarter</type>
            </note>
            <note>
                <rest/>
                <duration>2</duration>
                <voice>1</voice>
                <type>quarter</type>
            </note>
            <note default-y="-30.00" default-x="209.84">
                <pitch>
                    <step>G</step>
                    <octave>4</octave>
                </pitch>
                <duration>2</duration>
                <voice>1</voice>
                <type>quarter</type>
                <stem>up</stem>
                <lyric number="1">
                    <syllabic>begin</syllabic>
                    <text>Do</text>
                </lyric>
            </note>
            <note default-y="-30.00" default-x="276.62">
                <pitch>
                    <step>G</step>
                    <octave>4</octave>
                </pitch>
                <duration>2</duration>
                <voice>1</voice>
                <type>quarter</type>
                <stem>up</stem>
                <lyric number="1">
                    <syllabic>middle</syllabic>
                    <text>mi</text>
                </lyric>
            </note>
        </measure>
        <measure width="328.64" number="2">
            <direction placement="above">
                <direction-type>
                    <segno/>
                </direction-type>
                <sound segno="segno"/>
            </direction>
            <harmony print-frame="no">
                <root>
                    <root-step>C</root-step>
                </root>
                <kind text="">major</kind>
            </harmony>
            <note default-y="-15.00" default-x="15.25">
                <pitch>
                    <step>C</step>
                    <octave>5</octave>
                </pitch>
                <duration>3</duration>
                <voice>1</voice>
                <type>quarter</type>
                <dot/>
                <stem>down</stem>
                <lyric number="1">
                    <syllabic>middle</syllabic>
                    <text>ni</text>
                </lyric>
            </note>
            <note default-y="-5.00" default-x="114.14">
                <pitch>
                    <step>E</step>
                    <octave>5</octave>
                </pitch>
                <duration>1</duration>
                <voice>1</voice>
                <type>eighth</type>
                <stem>down</stem>
                <lyric number="1">
                    <syllabic>end</syllabic>
                    <text>que,</text>
                </lyric>
            </note>
            <note default-y="5.00" default-x="164.83">
                <pitch>
                    <step>G</step>
                    <octave>5</octave>
                </pitch>
                <duration>2</duration>
                <voice>1</voice>
                <type>quarter</type>
                <stem>down</stem>
                <lyric number="1">
                    <syllabic>begin</syllabic>
                    <text>ni</text>
                </lyric>
            </note>
            <note default-y="-5.00" default-x="245.93">
                <pitch>
                    <step>E</step>
                    <octave>5</octave>
                </pitch>
                <duration>2</duration>
                <voice>1</voice>
                <type>quarter</type>
                <stem>down</stem>
                <lyric number="1">
                    <syllabic>end</syllabic>
                    <text>que</text>
                </lyric>
            </note>
        </measure>
        <measure width="314.87" number="3">
            <note default-y="-15.00" default-x="15.25">
                <pitch>
                    <step>C</step>
                    <octave>5</octave>
                </pitch>
                <duration>2</duration>
                <voice>1</voice>
                <type>quarter</type>
                <stem>down</stem>
                <lyric number="1">
                    <syllabic>begin</syllabic>
                    <text>ni</text>
                </lyric>
            </note>
            <note default-y="-15.00" default-x="89.75">
                <pitch>
                    <step>C</step>
                    <octave>5</octave>
                </pitch>
                <duration>2</duration>
                <voice>1</voice>
                <type>quarter</type>
                <stem>down</stem>
                <lyric number="1">
                    <syllabic>end</syllabic>
                    <text>que</text>
                </lyric>
            </note>
            <note default-y="-20.00" default-x="164.26">
                <pitch>
                    <step>B</step>
                    <octave>4</octave>
                </pitch>
                <duration>2</duration>
                <voice>1</voice>
                <type>quarter</type>
                <stem>down</stem>
                <lyric number="1">
                    <syllabic>single</syllabic>
                    <text>s'en</text>
                </lyric>
            </note>
            <note default-y="-15.00" default-x="238.76">
                <pitch>
                    <step>C</step>
                    <octave>5</octave>
                </pitch>
                <duration>2</duration>
                <voice>1</voice>
                <type>quarter</type>
                <stem>down</stem>
                <lyric number="1">
                    <syllabic>begin</syllabic>
                    <text>al</text>
                </lyric>
            </note>
        </measure>
        <measure width="341.82" number="4">
            <harmony print-frame="no">
                <root>
                    <root-step>F</root-step>
                </root>
                <kind text="">major</kind>
            </harmony>
            <note default-y="-15.00" default-x="21.53">
                <pitch>
                    <step>C</step>
                    <octave>5</octave>
                </pitch>
                <duration>3</duration>
                <voice>1</voice>
                <type>quarter</type>
                <dot/>
                <stem>down</stem>
                <lyric number="1">
                    <syllabic>end</syllabic>
                    <text>lait</text>
                </lyric>
            </note>
            <note default-y="-25.00" default-x="122.61">
                <pitch>
                    <step>A</step>
                    <octave>4</octave>
                </pitch>
                <duration>1</duration>
                <voice>1</voice>
                <type>eighth</type>
                <stem>up</stem>
                <lyric number="1">
                    <syllabic>single</syllabic>
                    <text>tout</text>
                </lyric>
            </note>
            <note default-y="-25.00" default-x="174.42">
                <pitch>
                    <step>A</step>
                    <octave>4</octave>
                </pitch>
                <duration>2</duration>
                <voice>1</voice>
                <type>quarter</type>
                <stem>up</stem>
                <lyric number="1">
                    <syllabic>begin</syllabic>
                    <text>sim</text>
                </lyric>
            </note>
            <note default-y="-25.00" default-x="257.32">
                <pitch>
                    <step>A</step>
                    <octave>4</octave>
                </pitch>
                <duration>2</duration>
                <voice>1</voice>
                <type>quarter</type>
                <stem>up</stem>
                <lyric number="1">
                    <syllabic>middle</syllabic>
                    <text>ple</text>
                </lyric>
            </note>
        </measure>
        <measure width="341.99" number="5">
            <print new-system="yes">
                <system-layout>
                    <system-margins>
                        <left-margin>3.00</left-margin>
                        <right-margin>-0.00</right-margin>
                    </system-margins>
                    <system-distance>141.14</system-distance>
                </system-layout>
            </print>
            <note default-y="-25.00" default-x="30.61">
                <pitch>
                    <step>A</step>
                    <octave>4</octave>
                </pitch>
                <duration>6</duration>
                <voice>1</voice>
                <type>half</type>
                <dot/>
                <stem>up</stem>
                <lyric number="1">
                    <syllabic>end</syllabic>
                    <text>ment</text>
                </lyric>
            </note>
            <note default-y="-20.00" default-x="235.42">
                <pitch>
                    <step>B</step>
                    <octave>4</octave>
                </pitch>
                <duration>2</duration>
                <voice>1</voice>
                <type>quarter</type>
                <stem>down</stem>
                <lyric number="1">
                    <syllabic>begin</syllabic>
                    <text>rou</text>
                </lyric>
            </note>
        </measure>
        <measure width="366.03" number="6">
            <harmony print-frame="no">
                <root>
                    <root-step>C</root-step>
                </root>
                <kind text="">major</kind>
            </harmony>
            <note default-y="-15.00" default-x="24.33">
                <pitch>
                    <step>C</step>
                    <octave>5</octave>
                </pitch>
                <duration>6</duration>
                <voice>1</voice>
                <type>half</type>
                <dot/>
                <stem>down</stem>
                <lyric number="1">
                    <syllabic>end</syllabic>
                    <text>tien</text>
                </lyric>
            </note>
            <note default-y="-30.00" default-x="249.18">
                <pitch>
                    <step>G</step>
                    <octave>4</octave>
                </pitch>
                <duration>2</duration>
                <voice>1</voice>
                <type>quarter</type>
                <stem>up</stem>
                <lyric number="1">
                    <syllabic>single</syllabic>
                    <text>pauvre</text>
                </lyric>
            </note>
        </measure>
        <measure width="326.76" number="7">
            <note default-y="-30.00" default-x="14.54">
                <pitch>
                    <step>G</step>
                    <octave>4</octave>
                </pitch>
                <duration>4</duration>
                <voice>1</voice>
                <type>half</type>
                <stem>up</stem>
                <lyric number="1">
                    <syllabic>single</syllabic>
                    <text>et</text>
                </lyric>
            </note>
            <note default-y="-15.00" default-x="169.85">
                <pitch>
                    <step>C</step>
                    <octave>5</octave>
                </pitch>
                <duration>4</duration>
                <voice>1</voice>
                <type>half</type>
                <stem>down</stem>
                <lyric number="1">
                    <syllabic>begin</syllabic>
                    <text>chan</text>
                </lyric>
            </note>
        </measure>
        <measure width="295.55" number="8">
            <harmony print-frame="no">
                <root>
                    <root-step>G</root-step>
                </root>
                <kind text="7">dominant</kind>
            </harmony>
            <note default-y="-20.00" default-x="12.00">
                <pitch>
                    <step>B</step>
                    <octave>4</octave>
                </pitch>
                <duration>8</duration>
                <tie type="start"/>
                <voice>1</voice>
                <type>whole</type>
                <notations>
                    <tied type="start"/>
                </notations>
                <lyric number="1">
                    <syllabic>end</syllabic>
                    <text>tant</text>
                    <extend/>
                </lyric>
            </note>
        </measure>
        <measure width="305.23" number="9">
            <print new-system="yes">
                <system-layout>
                    <system-margins>
                        <left-margin>3.00</left-margin>
                        <right-margin>-0.00</right-margin>
                    </system-margins>
                    <system-distance>141.14</system-distance>
                </system-layout>
            </print>
            <note default-y="-20.00" default-x="12.00">
                <pitch>
                    <step>B</step>
                    <octave>4</octave>
                </pitch>
                <duration>2</duration>
                <tie type="stop"/>
                <voice>1</voice>
                <type>quarter</type>
                <stem>down</stem>
                <notations>
                    <tied type="stop"/>
                </notations>
            </note>
            <note>
                <rest/>
                <duration>2</duration>
                <voice>1</voice>
                <type>quarter</type>
            </note>
            <note default-y="-30.00" default-x="157.81">
                <pitch>
                    <step>G</step>
                    <octave>4</octave>
                </pitch>
                <duration>2</duration>
                <voice>1</voice>
                <type>quarter</type>
                <stem>up</stem>
                <lyric number="1">
                    <syllabic>single</syllabic>
                    <text>en</text>
                </lyric>
            </note>
            <note default-y="-30.00" default-x="230.72">
                <pitch>
                    <step>G</step>
                    <octave>4</octave>
                </pitch>
                <duration>2</duration>
                <voice>1</voice>
                <type>quarter</type>
                <stem>up</stem>
                <lyric number="1">
                    <syllabic>single</syllabic>
                    <text>tous</text>
                </lyric>
            </note>
        </measure>
        <measure width="358.33" number="10">
            <harmony print-frame="no">
                <root>
                    <root-step>C</root-step>
                </root>
                <kind text="">major</kind>
            </harmony>
            <note default-y="-15.00" default-x="17.34">
                <pitch>
                    <step>C</step>
                    <octave>5</octave>
                </pitch>
                <duration>2</duration>
                <voice>1</voice>
                <type>quarter</type>
                <stem>down</stem>
                <lyric number="1">
                    <syllabic>begin</syllabic>
                    <text>ch</text>
                </lyric>
            </note>
            <note default-y="-15.00" default-x="102.19">
                <pitch>
                    <step>C</step>
                    <octave>5</octave>
                </pitch>
                <duration>2</duration>
                <voice>1</voice>
                <type>quarter</type>
                <stem>down</stem>
                <lyric number="1">
                    <syllabic>end</syllabic>
                    <text>mins,</text>
                </lyric>
            </note>
            <note default-y="-15.00" default-x="187.03">
                <pitch>
                    <step>C</step>
                    <octave>5</octave>
                </pitch>
                <duration>2</duration>
                <voice>1</voice>
                <type>quarter</type>
                <stem>down</stem>
                <lyric number="1">
                    <syllabic>single</syllabic>
                    <text>en</text>
                </lyric>
            </note>
            <note default-y="-10.00" default-x="271.88">
                <pitch>
                    <step>D</step>
                    <octave>5</octave>
                </pitch>
                <duration>2</duration>
                <voice>1</voice>
                <type>quarter</type>
                <stem>down</stem>
                <lyric number="1">
                    <syllabic>single</syllabic>
                    <text>tous</text>
                </lyric>
            </note>
        </measure>
        <measure width="303.57" number="11">
            <note default-y="-15.00" default-x="33.77">
                <pitch>
                    <step>C</step>
                    <octave>5</octave>
                </pitch>
                <duration>4</duration>
                <voice>1</voice>
                <type>half</type>
                <stem>down</stem>
                <lyric number="1">
                    <syllabic>single</syllabic>
                    <text>lieux,</text>
                </lyric>
            </note>
            <note default-y="-15.00" default-x="152.97">
                <pitch>
                    <step>C</step>
                    <octave>5</octave>
                </pitch>
                <duration>2</duration>
                <voice>1</voice>
                <type>quarter</type>
                <stem>down</stem>
                <lyric number="1">
                    <syllabic>single</syllabic>
                    <text>il</text>
                </lyric>
            </note>
            <note default-y="-20.00" default-x="227.47">
                <pitch>
                    <step>B</step>
                    <octave>4</octave>
                </pitch>
                <duration>2</duration>
                <voice>1</voice>
                <type>quarter</type>
                <stem>down</stem>
                <lyric number="1">
                    <syllabic>single</syllabic>
                    <text>ne</text>
                </lyric>
            </note>
        </measure>
        <measure width="363.21" number="12">
            <harmony print-frame="no">
                <root>
                    <root-step>F</root-step>
                </root>
                <kind text="">major</kind>
            </harmony>
            <note default-y="-25.00" default-x="30.61">
                <pitch>
                    <step>A</step>
                    <octave>4</octave>
                </pitch>
                <duration>2</duration>
                <voice>1</voice>
                <type>quarter</type>
                <stem>up</stem>
                <lyric number="1">
                    <syllabic>single</syllabic>
                    <text>parle</text>
                </lyric>
            </note>
            <note default-y="-25.00" default-x="113.36">
                <pitch>
                    <step>A</step>
                    <octave>4</octave>
                </pitch>
                <duration>2</duration>
                <voice>1</voice>
                <type>quarter</type>
                <stem>up</stem>
                <lyric number="1">
                    <syllabic>single</syllabic>
                    <text>que</text>
                </lyric>
            </note>
            <note default-y="-25.00" default-x="196.11">
                <pitch>
                    <step>A</step>
                    <octave>4</octave>
                </pitch>
                <duration>2</duration>
                <voice>1</voice>
                <type>quarter</type>
                <stem>up</stem>
                <lyric number="1">
                    <syllabic>single</syllabic>
                    <text>du</text>
                </lyric>
            </note>
            <note default-y="-30.00" default-x="278.86">
                <pitch>
                    <step>G</step>
                    <octave>4</octave>
                </pitch>
                <duration>2</duration>
                <voice>1</voice>
                <type>quarter</type>
                <stem>up</stem>
                <lyric number="1">
                    <syllabic>single</syllabic>
                    <text>bon</text>
                </lyric>
            </note>
        </measure>
        <measure width="362.51" number="13">
            <print new-system="yes">
                <system-layout>
                    <system-margins>
                        <left-margin>3.00</left-margin>
                        <right-margin>-0.00</right-margin>
                    </system-margins>
                    <system-distance>141.14</system-distance>
                </system-layout>
            </print>
            <note default-y="-35.00" default-x="33.06">
                <pitch>
                    <step>F</step>
                    <octave>4</octave>
                </pitch>
                <duration>4</duration>
                <voice>1</voice>
                <type>half</type>
                <stem>up</stem>
                <lyric number="1">
                    <syllabic>single</syllabic>
                    <text>Dieu,</text>
                </lyric>
            </note>
            <note default-y="-40.00" default-x="178.77">
                <pitch>
                    <step>E</step>
                    <octave>4</octave>
                </pitch>
                <duration>2</duration>
                <voice>1</voice>
                <type>quarter</type>
                <stem>up</stem>
                <lyric number="1">
                    <syllabic>single</syllabic>
                    <text>il</text>
                </lyric>
            </note>
            <note default-y="-35.00" default-x="269.84">
                <pitch>
                    <step>F</step>
                    <octave>4</octave>
                </pitch>
                <duration>2</duration>
                <voice>1</voice>
                <type>quarter</type>
                <stem>up</stem>
                <lyric number="1">
                    <syllabic>single</syllabic>
                    <text>ne</text>
                </lyric>
            </note>
        </measure>
        <measure width="343.19" number="14">
            <harmony print-frame="no">
                <root>
                    <root-step>C</root-step>
                </root>
                <kind text="">major</kind>
            </harmony>
            <note default-y="-30.00" default-x="30.61">
                <pitch>
                    <step>G</step>
                    <octave>4</octave>
                </pitch>
                <duration>4</duration>
                <voice>1</voice>
                <type>half</type>
                <stem>up</stem>
                <lyric number="1">
                    <syllabic>single</syllabic>
                    <text>parle</text>
                </lyric>
            </note>
            <note default-y="-40.00" default-x="186.10">
                <pitch>
                    <step>E</step>
                    <octave>4</octave>
                </pitch>
                <duration>4</duration>
                <voice>1</voice>
                <type>half</type>
                <stem>up</stem>
                <lyric number="1">
                    <syllabic>single</syllabic>
                    <text>que</text>
                </lyric>
            </note>
        </measure>
        <measure width="319.49" number="15">
            <harmony print-frame="no">
                <root>
                    <root-step>G</root-step>
                </root>
                <kind text="7">dominant</kind>
            </harmony>
            <note default-y="-45.00" default-x="18.05">
                <pitch>
                    <step>D</step>
                    <octave>4</octave>
                </pitch>
                <duration>4</duration>
                <voice>1</voice>
                <type>half</type>
                <stem>up</stem>
                <lyric number="1">
                    <syllabic>single</syllabic>
                    <text>du</text>
                </lyric>
            </note>
            <note default-y="-45.00" default-x="167.97">
                <pitch>
                    <step>D</step>
                    <octave>4</octave>
                </pitch>
                <duration>4</duration>
                <voice>1</voice>
                <type>half</type>
                <stem>up</stem>
                <lyric number="1">
                    <syllabic>single</syllabic>
                    <text>bon</text>
                </lyric>
            </note>
            <direction placement="above">
                <direction-type>
                    <words>To Coda</words>
                </direction-type>
                <sound tocoda="coda"/>
            </direction>
        </measure>
        <measure width="305.14" number="16">
            <harmony print-frame="no">
                <root>
                    <root-step>C</root-step>
                </root>
                <kind text="">major</kind>
            </harmony>
            <note default-y="-50.00" default-x="12.00">
                <pitch>
                    <step>C</step>
                    <octave>4</octave>
                </pitch>
                <duration>8</duration>
                <tie type="start"/>
                <voice>1</voice>
                <type>whole</type>
                <notations>
                    <tied type="start"/>
                </notations>
                <lyric number="1">
                    <syllabic>single</syllabic>
                    <text>Dieu</text>
                    <extend/>
                </lyric>
            </note>
        </measure>
        <measure width="280.20" number="17">
            <print new-system="yes">
                <system-layout>
                    <system-margins>
                        <left-margin>3.00</left-margin>
                        <right-margin>-0.00</right-margin>
                    </system-margins>
                    <system-distance>141.14</system-distance>
                </system-layout>
            </print>
            <note default-y="-50.00" default-x="12.00">
                <pitch>
                    <step>C</step>
                    <octave>4</octave>
                </pitch>
                <duration>2</duration>
                <tie type="stop"/>
                <voice>1</voice>
                <type>quarter</type>
                <stem>up</stem>
                <notations>
                    <tied type="stop"/>
                </notations>
            </note>
            <note>
                <rest/>
                <duration>2</duration>
                <voice>1</voice>
                <type>quarter</type>
            </note>
            <note default-y="-50.00" default-x="145.30">
                <pitch>
                    <step>C</step>
                    <octave>4</octave>
                </pitch>
                <duration>2</duration>
                <voice>1</voice>
                <type>quarter</type>
                <stem>up</stem>
                <lyric number="1">
                    <syllabic>single</syllabic>
                    <text>A</text>
                </lyric>
                <lyric number="2">
                    <syllabic>single</syllabic>
                    <text>Ni</text>
                </lyric>
                <lyric number="3">
                    <syllabic>begin</syllabic>
                    <text>En</text>
                </lyric>
                <lyric number="4">
                    <syllabic>single</syllabic>
                    <text>Chez</text>
                </lyric>
                <lyric number="5">
                    <syllabic>single</syllabic>
                    <text>Do</text>
                </lyric>
                <lyric number="6">
                    <syllabic>begin</syllabic>
                    <text>Do</text>
                </lyric>
            </note>
            <note default-y="-50.00" default-x="211.95">
                <pitch>
                    <step>C</step>
                    <octave>4</octave>
                </pitch>
                <duration>2</duration>
                <voice>1</voice>
                <type>quarter</type>
                <stem>up</stem>
                <lyric number="1">
                    <syllabic>begin</syllabic>
                    <text>l'é</text>
                </lyric>
                <lyric number="2">
                    <syllabic>begin</syllabic>
                    <text>cham</text>
                </lyric>
                <lyric number="3">
                    <syllabic>middle</syllabic>
                    <text>flam</text>
                </lyric>
                <lyric number="4">
                    <syllabic>begin</syllabic>
                    <text>Do</text>
                </lyric>
                <lyric number="5">
                    <syllabic>begin</syllabic>
                    <text>mi</text>
                </lyric>
                <lyric number="6">
                    <syllabic>middle</syllabic>
                    <text>mi</text>
                </lyric>
            </note>
        </measure>
        <measure width="341.86" number="18">
            <harmony print-frame="no">
                <root>
                    <root-step>F</root-step>
                </root>
                <kind text="">major</kind>
            </harmony>
            <note default-y="-50.00" default-x="36.22">
                <pitch>
                    <step>C</step>
                    <octave>4</octave>
                </pitch>
                <duration>3</duration>
                <voice>1</voice>
                <type>quarter</type>
                <dot/>
                <stem>up</stem>
                <lyric number="1">
                    <syllabic>end</syllabic>
                    <text>poque</text>
                </lyric>
                <lyric number="2">
                    <syllabic>end</syllabic>
                    <text>eau,</text>
                </lyric>
                <lyric number="3">
                    <syllabic>end</syllabic>
                    <text>ma</text>
                </lyric>
                <lyric number="4">
                    <syllabic>middle</syllabic>
                    <text>mi</text>
                </lyric>
                <lyric number="5">
                    <syllabic>middle</syllabic>
                    <text>ni</text>
                </lyric>
                <lyric number="6">
                    <syllabic>middle</syllabic>
                    <text>ni</text>
                </lyric>
            </note>
            <note default-y="-50.00" default-x="130.85">
                <pitch>
                    <step>C</step>
                    <octave>4</octave>
                </pitch>
                <duration>1</duration>
                <voice>1</voice>
                <type>eighth</type>
                <stem>up</stem>
                <lyric number="1">
                    <syllabic>single</syllabic>
                    <text>où</text>
                </lyric>
                <lyric number="2">
                    <syllabic>single</syllabic>
                    <text>ni</text>
                </lyric>
                <lyric number="3">
                    <syllabic>single</syllabic>
                    <text>de</text>
                </lyric>
                <lyric number="4">
                    <syllabic>middle</syllabic>
                    <text>ni</text>
                </lyric>
                <lyric number="5">
                    <syllabic>end</syllabic>
                    <text>que</text>
                </lyric>
                <lyric number="6">
                    <syllabic>end</syllabic>
                    <text>que</text>
                </lyric>
            </note>
            <note default-y="-50.00" default-x="185.05">
                <pitch>
                    <step>C</step>
                    <octave>4</octave>
                </pitch>
                <duration>2</duration>
                <voice>1</voice>
                <type>quarter</type>
                <stem>up</stem>
                <lyric number="1">
                    <syllabic>begin</syllabic>
                    <text>Jaen</text>
                </lyric>
                <lyric number="2">
                    <syllabic>begin</syllabic>
                    <text>dil</text>
                </lyric>
                <lyric number="3">
                    <syllabic>single</syllabic>
                    <text>toute</text>
                </lyric>
                <lyric number="4">
                    <syllabic>end</syllabic>
                    <text>que</text>
                </lyric>
                <lyric number="5">
                    <syllabic>single</syllabic>
                    <text>vit</text>
                </lyric>
                <lyric number="6">
                    <syllabic>single</syllabic>
                    <text>mon</text>
                </lyric>
            </note>
            <note default-y="-50.00" default-x="262.65">
                <pitch>
                    <step>C</step>
                    <octave>4</octave>
                </pitch>
                <duration>2</duration>
                <voice>1</voice>
                <type>quarter</type>
                <stem>up</stem>
                <lyric number="1">
                    <syllabic>middle</syllabic>
                    <text>sans</text>
                </lyric>
                <lyric number="2">
                    <syllabic>middle</syllabic>
                    <text>i</text>
                </lyric>
                <lyric number="3">
                    <syllabic>begin</syllabic>
                    <text>é</text>
                </lyric>
                <lyric number="4">
                    <syllabic>single</syllabic>
                    <text>et</text>
                </lyric>
                <lyric number="5">
                    <syllabic>single</syllabic>
                    <text>en</text>
                </lyric>
                <lyric number="6">
                    <syllabic>single</syllabic>
                    <text>bon</text>
                </lyric>
            </note>
        </measure>
        <measure width="368.61" number="19">
            <harmony print-frame="no">
                <root>
                    <root-step>C</root-step>
                </root>
                <kind text="">major</kind>
            </harmony>
            <note default-y="-50.00" default-x="30.26">
                <pitch>
                    <step>C</step>
                    <octave>4</octave>
                </pitch>
                <duration>2</duration>
                <voice>1</voice>
                <type>quarter</type>
                <stem>up</stem>
                <lyric number="1">
                    <syllabic>middle</syllabic>
                    <text>Ter</text>
                </lyric>
                <lyric number="2">
                    <syllabic>middle</syllabic>
                    <text>gen</text>
                </lyric>
                <lyric number="3">
                    <syllabic>end</syllabic>
                    <text>cole</text>
                </lyric>
                <lyric number="4">
                    <syllabic>single</syllabic>
                    <text>ses</text>
                </lyric>
                <lyric number="5">
                    <syllabic>single</syllabic>
                    <text>rêve</text>
                </lyric>
                <lyric number="6">
                    <syllabic>single</syllabic>
                    <text>père,</text>
                </lyric>
            </note>
            <note default-y="-50.00" default-x="114.45">
                <pitch>
                    <step>C</step>
                    <octave>4</octave>
                </pitch>
                <duration>2</duration>
                <voice>1</voice>
                <type>quarter</type>
                <stem>up</stem>
                <lyric number="1">
                    <syllabic>end</syllabic>
                    <text>re</text>
                </lyric>
                <lyric number="2">
                    <syllabic>end</syllabic>
                    <text>ce,</text>
                </lyric>
                <lyric number="3">
                    <syllabic>begin</syllabic>
                    <text>fil</text>
                </lyric>
                <lyric number="4">
                    <syllabic>single</syllabic>
                    <text>frères</text>
                </lyric>
                <lyric number="5">
                    <syllabic>single</syllabic>
                    <text>les</text>
                </lyric>
                <lyric number="6">
                    <syllabic>begin</syllabic>
                    <text>gar</text>
                </lyric>
            </note>
            <note default-y="-40.00" default-x="198.64">
                <pitch>
                    <step>E</step>
                    <octave>4</octave>
                </pitch>
                <duration>2</duration>
                <voice>1</voice>
                <type>quarter</type>
                <stem>up</stem>
                <lyric number="1">
                    <syllabic>begin</syllabic>
                    <text>d'An</text>
                </lyric>
                <lyric number="2">
                    <syllabic>single</syllabic>
                    <text>il</text>
                </lyric>
                <lyric number="3">
                    <syllabic>end</syllabic>
                    <text>les</text>
                </lyric>
                <lyric number="4">
                    <syllabic>single</syllabic>
                    <text>le</text>
                </lyric>
                <lyric number="5">
                    <syllabic>begin</syllabic>
                    <text>prê</text>
                </lyric>
                <lyric number="6">
                    <syllabic>end</syllabic>
                    <text>de</text>
                </lyric>
            </note>
            <note default-y="-40.00" default-x="282.83">
                <pitch>
                    <step>E</step>
                    <octave>4</octave>
                </pitch>
                <duration>2</duration>
                <voice>1</voice>
                <type>quarter</type>
                <stem>up</stem>
                <lyric number="1">
                    <syllabic>middle</syllabic>
                    <text>gle</text>
                </lyric>
                <lyric number="2">
                    <syllabic>begin</syllabic>
                    <text>par</text>
                </lyric>
                <lyric number="3">
                    <syllabic>single</syllabic>
                    <text>et</text>
                </lyric>
                <lyric number="4">
                    <syllabic>single</syllabic>
                    <text>pain</text>
                </lyric>
                <lyric number="5">
                    <syllabic>end</syllabic>
                    <text>cheurs</text>
                </lyric>
                <lyric number="6">
                    <syllabic>single</syllabic>
                    <text>nous</text>
                </lyric>
            </note>
        </measure>
        <measure width="339.66" number="20">
            <harmony print-frame="no">
                <root>
                    <root-step>G</root-step>
                </root>
                <kind text="7">dominant</kind>
            </harmony>
            <note default-y="-45.00" default-x="31.32">
                <pitch>
                    <step>D</step>
                    <octave>4</octave>
                </pitch>
                <duration>2</duration>
                <voice>1</voice>
                <type>quarter</type>
                <stem>up</stem>
                <lyric number="1">
                    <syllabic>middle</syllabic>
                    <text>ter</text>
                </lyric>
                <lyric number="2">
                    <syllabic>end</syllabic>
                    <text>court</text>
                </lyric>
                <lyric number="3">
                    <syllabic>begin</syllabic>
                    <text>gar</text>
                </lyric>
                <lyric number="4">
                    <syllabic>single</syllabic>
                    <text>s'en</text>
                </lyric>
                <lyric number="5">
                    <syllabic>single</syllabic>
                    <text>du</text>
                </lyric>
                <lyric number="6">
                    <syllabic>begin</syllabic>
                    <text>sim</text>
                </lyric>
            </note>
            <note default-y="-35.00" default-x="108.01">
                <pitch>
                    <step>F</step>
                    <octave>4</octave>
                </pitch>
                <duration>2</duration>
                <voice>1</voice>
                <type>quarter</type>
                <stem>up</stem>
                <lyric number="1">
                    <syllabic>end</syllabic>
                    <text>re</text>
                </lyric>
                <lyric number="2">
                    <syllabic>begin</syllabic>
                    <text>l'Eu</text>
                </lyric>
                <lyric number="3">
                    <syllabic>end</syllabic>
                    <text>çons</text>
                </lyric>
                <lyric number="4">
                    <syllabic>single</syllabic>
                    <text>vint</text>
                </lyric>
                <lyric number="5">
                    <syllabic>begin</syllabic>
                    <text>mon</text>
                </lyric>
                <lyric number="6">
                    <syllabic>end</syllabic>
                    <text>ples</text>
                </lyric>
            </note>
            <note default-y="-40.00" default-x="184.69">
                <pitch>
                    <step>E</step>
                    <octave>4</octave>
                </pitch>
                <duration>2</duration>
                <voice>1</voice>
                <type>quarter</type>
                <stem>up</stem>
                <lyric number="1">
                    <syllabic>begin</syllabic>
                    <text>é</text>
                </lyric>
                <lyric number="2">
                    <syllabic>end</syllabic>
                    <text>rope</text>
                </lyric>
                <lyric number="3">
                    <syllabic>single</syllabic>
                    <text>plein</text>
                </lyric>
                <lyric number="4">
                    <syllabic>single</syllabic>
                    <text>à</text>
                </lyric>
                <lyric number="5">
                    <syllabic>end</syllabic>
                    <text>de</text>
                </lyric>
                <lyric number="6">
                    <syllabic>single</syllabic>
                    <text>et</text>
                </lyric>
            </note>
            <note default-y="-45.00" default-x="261.38">
                <pitch>
                    <step>D</step>
                    <octave>4</octave>
                </pitch>
                <duration>2</duration>
                <voice>1</voice>
                <type>quarter</type>
                <stem>up</stem>
                <lyric number="1">
                    <syllabic>end</syllabic>
                    <text>tait</text>
                </lyric>
                <lyric number="2">
                    <syllabic>single</syllabic>
                    <text>a</text>
                </lyric>
                <lyric number="3">
                    <syllabic>begin</syllabic>
                    <text>d'ar</text>
                </lyric>
                <lyric number="4">
                    <syllabic>begin</syllabic>
                    <text>man</text>
                </lyric>
                <lyric number="5">
                    <syllabic>begin</syllabic>
                    <text>en</text>
                </lyric>
                <lyric number="6">
                    <syllabic>begin</syllabic>
                    <text>ga</text>
                </lyric>
            </note>
        </measure>
        <measure width="261.37" number="21">
            <print new-system="yes">
                <system-layout>
                    <system-margins>
                        <left-margin>3.00</left-margin>
                        <right-margin>-0.00</right-margin>
                    </system-margins>
                    <system-distance>270.37</system-distance>
                </system-layout>
            </print>
            <harmony print-frame="no">
                <root>
                    <root-step>C</root-step>
                </root>
                <kind text="">major</kind>
            </harmony>
            <note default-y="-50.00" default-x="27.82">
                <pitch>
                    <step>C</step>
                    <octave>4</octave>
                </pitch>
                <duration>4</duration>
                <voice>1</voice>
                <type>half</type>
                <stem>up</stem>
                <lyric number="1">
                    <syllabic>single</syllabic>
                    <text>roi,</text>
                </lyric>
                <lyric number="2">
                    <syllabic>single</syllabic>
                    <text>pied</text>
                </lyric>
                <lyric number="3">
                    <syllabic>end</syllabic>
                    <text>deur</text>
                </lyric>
                <lyric number="4">
                    <syllabic>end</syllabic>
                    <text>quer</text>
                </lyric>
                <lyric number="5">
                    <syllabic>end</syllabic>
                    <text>tier</text>
                </lyric>
                <lyric number="6">
                    <syllabic>end</syllabic>
                    <text>is</text>
                </lyric>
            </note>
            <note default-y="-40.00" default-x="130.91">
                <pitch>
                    <step>E</step>
                    <octave>4</octave>
                </pitch>
                <duration>2</duration>
                <voice>1</voice>
                <type>quarter</type>
                <stem>up</stem>
                <lyric number="1">
                    <syllabic>begin</syllabic>
                    <text>Do</text>
                </lyric>
                <lyric number="2">
                    <syllabic>begin</syllabic>
                    <text>Scan</text>
                </lyric>
                <lyric number="3">
                    <syllabic>single</syllabic>
                    <text>Et</text>
                </lyric>
                <lyric number="4">
                    <syllabic>single</syllabic>
                    <text>Et</text>
                </lyric>
                <lyric number="5">
                    <syllabic>single</syllabic>
                    <text>Sous</text>
                </lyric>
                <lyric number="6">
                    <syllabic>single</syllabic>
                    <text>Pour</text>
                </lyric>
            </note>
            <note default-y="-40.00" default-x="195.34">
                <pitch>
                    <step>E</step>
                    <octave>4</octave>
                </pitch>
                <duration>2</duration>
                <voice>1</voice>
                <type>quarter</type>
                <stem>up</stem>
                <lyric number="1">
                    <syllabic>middle</syllabic>
                    <text>mi</text>
                </lyric>
                <lyric number="2">
                    <syllabic>middle</syllabic>
                    <text>di</text>
                </lyric>
                <lyric number="3">
                    <syllabic>single</syllabic>
                    <text>pour</text>
                </lyric>
                <lyric number="4">
                    <syllabic>single</syllabic>
                    <text>deux</text>
                </lyric>
                <lyric number="5">
                    <syllabic>single</syllabic>
                    <text>le</text>
                </lyric>
                <lyric number="6">
                    <syllabic>begin</syllabic>
                    <text>an</text>
                </lyric>
            </note>
        </measure>
        <measure width="272.84" number="22">
            <harmony print-frame="no">
                <root>
                    <root-step>D</root-step>
                </root>
                <kind text="7">dominant</kind>
            </harmony>
            <note default-y="-45.00" default-x="27.11">
                <pitch>
                    <step>D</step>
                    <octave>4</octave>
                </pitch>
                <duration>3</duration>
                <voice>1</voice>
                <type>quarter</type>
                <dot/>
                <stem>up</stem>
                <lyric number="1">
                    <syllabic>middle</syllabic>
                    <text>ni</text>
                </lyric>
                <lyric number="2">
                    <syllabic>middle</syllabic>
                    <text>na</text>
                </lyric>
                <lyric number="3">
                    <syllabic>begin</syllabic>
                    <text>se</text>
                </lyric>
                <lyric number="4">
                    <syllabic>begin</syllabic>
                    <text>ang</text>
                </lyric>
                <lyric number="5">
                    <syllabic>begin</syllabic>
                    <text>man</text>
                </lyric>
                <lyric number="6">
                    <syllabic>middle</syllabic>
                    <text>non</text>
                </lyric>
            </note>
            <note default-y="-45.00" default-x="103.57">
                <pitch>
                    <step>D</step>
                    <octave>4</octave>
                </pitch>
                <duration>1</duration>
                <voice>1</voice>
                <type>eighth</type>
                <stem>up</stem>
                <lyric number="1">
                    <syllabic>end</syllabic>
                    <text>que</text>
                </lyric>
                <lyric number="2">
                    <syllabic>end</syllabic>
                    <text>vie</text>
                </lyric>
                <lyric number="3">
                    <syllabic>end</syllabic>
                    <text>mer</text>
                </lyric>
                <lyric number="4">
                    <syllabic>end</syllabic>
                    <text>es</text>
                </lyric>
                <lyric number="5">
                    <syllabic>end</syllabic>
                    <text>teau</text>
                </lyric>
                <lyric number="6">
                    <syllabic>end</syllabic>
                    <text>cer</text>
                </lyric>
            </note>
            <note default-y="-45.00" default-x="145.84">
                <pitch>
                    <step>D</step>
                    <octave>4</octave>
                </pitch>
                <duration>2</duration>
                <voice>1</voice>
                <type>quarter</type>
                <stem>up</stem>
                <lyric number="1">
                    <syllabic>begin</syllabic>
                    <text>no</text>
                </lyric>
                <lyric number="2">
                    <syllabic>single</syllabic>
                    <text>ou</text>
                </lyric>
                <lyric number="3">
                    <syllabic>single</syllabic>
                    <text>la</text>
                </lyric>
                <lyric number="4">
                    <syllabic>single</syllabic>
                    <text>se</text>
                </lyric>
                <lyric number="5">
                    <syllabic>single</syllabic>
                    <text>de</text>
                </lyric>
                <lyric number="6">
                    <syllabic>single</syllabic>
                    <text>à</text>
                </lyric>
            </note>
            <note default-y="-45.00" default-x="208.54">
                <pitch>
                    <step>D</step>
                    <octave>4</octave>
                </pitch>
                <duration>2</duration>
                <voice>1</voice>
                <type>quarter</type>
                <stem>up</stem>
                <lyric number="1">
                    <syllabic>end</syllabic>
                    <text>tre</text>
                </lyric>
                <lyric number="2">
                    <syllabic>begin</syllabic>
                    <text>pro</text>
                </lyric>
                <lyric number="3">
                    <syllabic>begin</syllabic>
                    <text>Pa</text>
                </lyric>
                <lyric number="4">
                    <syllabic>begin</syllabic>
                    <text>pré</text>
                </lyric>
                <lyric number="5">
                    <syllabic>single</syllabic>
                    <text>la</text>
                </lyric>
                <lyric number="6">
                    <syllabic>single</syllabic>
                    <text>nos</text>
                </lyric>
            </note>
        </measure>
        <measure width="303.13" number="23">
            <note default-y="-45.00" default-x="25.74">
                <pitch>
                    <step>D</step>
                    <octave>4</octave>
                </pitch>
                <duration>2</duration>
                <voice>1</voice>
                <type>quarter</type>
                <stem>up</stem>
                <lyric number="1">
                    <syllabic>begin</syllabic>
                    <text>pè</text>
                </lyric>
                <lyric number="2">
                    <syllabic>middle</syllabic>
                    <text>ven</text>
                </lyric>
                <lyric number="3">
                    <syllabic>middle</syllabic>
                    <text>ro</text>
                </lyric>
                <lyric number="4">
                    <syllabic>middle</syllabic>
                    <text>sent</text>
                </lyric>
                <lyric number="5">
                    <syllabic>begin</syllabic>
                    <text>Vie</text>
                </lyric>
                <lyric number="6">
                    <syllabic>begin</syllabic>
                    <text>frèr</text>
                </lyric>
            </note>
            <note default-y="-45.00" default-x="94.68">
                <pitch>
                    <step>D</step>
                    <octave>4</octave>
                </pitch>
                <duration>2</duration>
                <voice>1</voice>
                <type>quarter</type>
                <stem>up</stem>
                <lyric number="1">
                    <syllabic>end</syllabic>
                    <text>re</text>
                </lyric>
                <lyric number="2">
                    <syllabic>end</syllabic>
                    <text>ce</text>
                </lyric>
                <lyric number="3">
                    <syllabic>end</syllabic>
                    <text>le</text>
                </lyric>
                <lyric number="4">
                    <syllabic>middle</syllabic>
                    <text>é</text>
                </lyric>
                <lyric number="5">
                    <syllabic>end</syllabic>
                    <text>rge</text>
                </lyric>
                <lyric number="6">
                    <syllabic>end</syllabic>
                    <text>es</text>
                </lyric>
            </note>
            <note default-y="-45.00" default-x="163.63">
                <pitch>
                    <step>D</step>
                    <octave>4</octave>
                </pitch>
                <duration>2</duration>
                <voice>1</voice>
                <type>quarter</type>
                <stem>up</stem>
                <lyric number="1">
                    <syllabic>begin</syllabic>
                    <text>com</text>
                </lyric>
                <lyric number="2">
                    <syllabic>single</syllabic>
                    <text>dans</text>
                </lyric>
                <lyric number="3">
                    <syllabic>begin</syllabic>
                    <text>in</text>
                </lyric>
                <lyric number="4">
                    <syllabic>end</syllabic>
                    <text>rent</text>
                </lyric>
                <lyric number="5">
                    <syllabic>single</syllabic>
                    <text>en</text>
                </lyric>
                <lyric number="6">
                    <syllabic>single</syllabic>
                    <text>la</text>
                </lyric>
            </note>
            <note default-y="-45.00" default-x="232.58">
                <pitch>
                    <step>D</step>
                    <octave>4</octave>
                </pitch>
                <duration>2</duration>
                <voice>1</voice>
                <type>quarter</type>
                <stem>up</stem>
                <lyric number="1">
                    <syllabic>middle</syllabic>
                    <text>bat</text>
                </lyric>
                <lyric number="2">
                    <syllabic>single</syllabic>
                    <text>la</text>
                </lyric>
                <lyric number="3">
                    <syllabic>middle</syllabic>
                    <text>ven</text>
                </lyric>
                <lyric number="4">
                    <syllabic>begin</syllabic>
                    <text>por</text>
                </lyric>
                <lyric number="5">
                    <syllabic>single</syllabic>
                    <text>grand</text>
                </lyric>
                <lyric number="6">
                    <syllabic>single</syllabic>
                    <text>Vie</text>
                </lyric>
            </note>
        </measure>
        <measure width="328.75" number="24">
            <note default-y="-40.00" default-x="27.82">
                <pitch>
                    <step>E</step>
                    <octave>4</octave>
                </pitch>
                <duration>2</duration>
                <voice>1</voice>
                <type>quarter</type>
                <stem>up</stem>
                <lyric number="1">
                    <syllabic>end</syllabic>
                    <text>tit</text>
                </lyric>
                <lyric number="2">
                    <syllabic>begin</syllabic>
                    <text>sain</text>
                </lyric>
                <lyric number="3">
                    <syllabic>end</syllabic>
                    <text>ta</text>
                </lyric>
                <lyric number="4">
                    <syllabic>end</syllabic>
                    <text>tant</text>
                </lyric>
                <lyric number="5">
                    <syllabic>begin</syllabic>
                    <text>nom</text>
                </lyric>
                <lyric number="6">
                    <syllabic>single</syllabic>
                    <text>et</text>
                </lyric>
            </note>
            <note default-y="-45.00" default-x="102.66">
                <pitch>
                    <step>D</step>
                    <octave>4</octave>
                </pitch>
                <duration>2</duration>
                <voice>1</voice>
                <type>quarter</type>
                <stem>up</stem>
                <lyric number="1">
                    <syllabic>single</syllabic>
                    <text>les</text>
                </lyric>
                <lyric number="2">
                    <syllabic>end</syllabic>
                    <text>te</text>
                </lyric>
                <lyric number="3">
                    <syllabic>single</syllabic>
                    <text>les</text>
                </lyric>
                <lyric number="4">
                    <syllabic>single</syllabic>
                    <text>de</text>
                </lyric>
                <lyric number="5">
                    <syllabic>end</syllabic>
                    <text>bre</text>
                </lyric>
                <lyric number="6">
                    <syllabic>single</syllabic>
                    <text>la</text>
                </lyric>
            </note>
            <note default-y="-40.00" default-x="177.49">
                <pitch>
                    <step>E</step>
                    <octave>4</octave>
                </pitch>
                <duration>2</duration>
                <voice>1</voice>
                <type>quarter</type>
                <stem>up</stem>
                <lyric number="1">
                    <syllabic>begin</syllabic>
                    <text>Al</text>
                </lyric>
                <lyric number="2">
                    <syllabic>begin</syllabic>
                    <text>pau</text>
                </lyric>
                <lyric number="3">
                    <syllabic>single</syllabic>
                    <text>Frères</text>
                </lyric>
                <lyric number="4">
                    <syllabic>single</syllabic>
                    <text>grands</text>
                </lyric>
                <lyric number="5">
                    <syllabic>begin</syllabic>
                    <text>ras</text>
                </lyric>
                <lyric number="6">
                    <syllabic>begin</syllabic>
                    <text>Vé</text>
                </lyric>
            </note>
            <note default-y="-35.00" default-x="252.32">
                <pitch>
                    <step>F</step>
                    <alter>1</alter>
                    <octave>4</octave>
                </pitch>
                <duration>2</duration>
                <voice>1</voice>
                <type>quarter</type>
                <accidental>sharp</accidental>
                <stem>up</stem>
                <lyric number="1">
                    <syllabic>middle</syllabic>
                    <text>bi</text>
                </lyric>
                <lyric number="2">
                    <syllabic>middle</syllabic>
                    <text>vre</text>
                </lyric>
                <lyric number="3">
                    <syllabic>single</syllabic>
                    <text>Prêch</text>
                </lyric>
                <lyric number="4">
                    <syllabic>single</syllabic>
                    <text>pains</text>
                </lyric>
                <lyric number="5">
                    <syllabic>middle</syllabic>
                    <text>sam</text>
                </lyric>
                <lyric number="6">
                    <syllabic>middle</syllabic>
                    <text>ri</text>
                </lyric>
            </note>
        </measure>
        <measure width="164.24" number="25">
            <harmony print-frame="no">
                <root>
                    <root-step>G</root-step>
                </root>
                <kind text="7">dominant</kind>
            </harmony>
            <note default-y="-30.00" default-x="12.00">
                <pitch>
                    <step>G</step>
                    <octave>4</octave>
                </pitch>
                <duration>8</duration>
                <tie type="start"/>
                <voice>1</voice>
                <type>whole</type>
                <notations>
                    <tied type="start"/>
                </notations>
                <lyric number="1">
                    <syllabic>end</syllabic>
                    <text>geois</text>
                    <extend/>
                </lyric>
                <lyric number="2">
                    <syllabic>end</syllabic>
                    <text>té</text>
                    <extend/>
                </lyric>
                <lyric number="3">
                    <syllabic>single</syllabic>
                    <text>eurs</text>
                    <extend/>
                </lyric>
                <lyric number="4">
                    <syllabic>single</syllabic>
                    <text>dorés</text>
                    <extend/>
                </lyric>
                <lyric number="5">
                    <syllabic>end</syllabic>
                    <text>blés</text>
                    <extend/>
                </lyric>
                <lyric number="6">
                    <syllabic>end</syllabic>
                    <text>té</text>
                    <extend/>
                </lyric>
            </note>
        </measure>
        <measure width="459.14" number="26">
            <print new-system="yes">
                <system-layout>
                    <system-margins>
                        <left-margin>3.00</left-margin>
                        <right-margin>821.20</right-margin>
                    </system-margins>
                    <system-distance>270.37</system-distance>
                </system-layout>
            </print>
            <note default-y="-30.00" default-x="12.00">
                <pitch>
                    <step>G</step>
                    <octave>4</octave>
                </pitch>
                <duration>2</duration>
                <tie type="stop"/>
                <voice>1</voice>
                <type>quarter</type>
                <stem>up</stem>
                <notations>
                    <tied type="stop"/>
                </notations>
            </note>
            <note>
                <rest/>
                <duration>2</duration>
                <voice>1</voice>
                <type>quarter</type>
            </note>
            <note default-y="-30.00" default-x="232.47">
                <pitch>
                    <step>G</step>
                    <octave>4</octave>
                </pitch>
                <duration>2</duration>
                <voice>1</voice>
                <type>quarter</type>
                <stem>up</stem>
                <lyric number="1">
                    <syllabic>begin</syllabic>
                    <text>Do</text>
                </lyric>
                <lyric number="6">
                    <syllabic>single</syllabic>
                    <text></text>
                </lyric>
            </note>
            <note default-y="-30.00" default-x="342.70">
                <pitch>
                    <step>G</step>
                    <octave>4</octave>
                </pitch>
                <duration>2</duration>
                <voice>1</voice>
                <type>quarter</type>
                <stem>up</stem>
                <lyric number="1">
                    <syllabic>middle</syllabic>
                    <text>mi</text>
                </lyric>
            </note>
            <direction placement="above">
                <direction-type>
                    <words>D.S. al Coda</words>
                </direction-type>
                <sound dalsegno="segno"/>
            </direction>
            <barline location="right">
                <bar-style>light-light</bar-style>
            </barline>
        </measure>
        <measure width="408.81" number="27">
            <direction placement="above">
                <direction-type>
                    <coda/>
                </direction-type>
                <sound coda="coda"/>
            </direction>
            <direction>
                <direction-type>
                    <words default-y="100">C</words>
                </direction-type>
            </direction>
            <note default-y="-50.00" default-x="12.00">
                <pitch>
                    <step>C</step>
                    <octave>4</octave>
                </pitch>
                <duration>8</duration>
                <tie type="start"/>
                <voice>1</voice>
                <type>whole</type>
                <notations>
                    <tied type="start"/>
                </notations>
                <lyric number="1">
                    <syllabic>end</syllabic>
                    <text>Dieu.</text>
                    <extend/>
                </lyric>
            </note>
        </measure>
        <measure width="409.38" number="28">
            <note default-y="-50.00" default-x="12.00">
                <pitch>
                    <step>C</step>
                    <octave>4</octave>
                </pitch>
                <duration>2</duration>
                <tie type="stop"/>
                <voice>1</voice>
                <type>quarter</type>
                <stem>up</stem>
                <notations>
                    <tied type="stop"/>
                </notations>
            </note>
            <note>
                <rest/>
                <duration>2</duration>
                <voice>1</voice>
                <type>quarter</type>
            </note>
            <note>
                <rest/>
                <duration>4</duration>
                <voice>1</voice>
                <type>half</type>
            </note>
            <barline location="right">
                <bar-style>light-heavy</bar-style>
            </barline>
        </measure>
    </part>
</score-partwise>
